<?xml version="1.0" encoding="utf-8"?>
<!-- Generator: Adobe Illustrator 16.0.0, SVG Export Plug-In . SVG Version: 6.00 Build 0)  -->
<!DOCTYPE svg PUBLIC "-//W3C//DTD SVG 1.1//EN" "http://www.w3.org/Graphics/SVG/1.1/DTD/svg11.dtd">
<svg version="1.1" id="Layer_1" xmlns="http://www.w3.org/2000/svg" xmlns:xlink="http://www.w3.org/1999/xlink" x="0px" y="0px"
	 width="659.875px" height="634.384px" viewBox="0 2.305 659.875 634.384" enable-background="new 0 2.305 659.875 634.384"
	 xml:space="preserve">
<g>
	<path fill="#070A1B" d="M508.922,299.652c-3.686-2.546-8.306-2.546-11.992,0L333.7,413.405c-2.334,1.605-5.295,1.605-7.579,0
		L79.409,241.608c-4.466-3.116-4.466-10.332,0-13.448L266.105,98.21c2.075-1.453,3.321-3.996,3.321-6.696V57.3
		c0-6.23-6.178-10.02-10.954-6.698L3.349,228.16c-4.465,3.116-4.465,10.332,0,13.448l301.019,209.539l21.079,14.438
		c2.284,1.557,5.19,1.557,7.527,0l92.622-63.499l0.053,0.156l73.515-51.19c2.336-1.61,5.295-1.61,7.579,0l73.672,51.295
		c4.464,3.114,4.464,10.328,0,13.444L333.235,587.847c-2.078,1.453-3.325,3.999-3.325,6.697v34.216
		c0,6.23,6.179,10.021,10.956,6.697l315.608-219.72c4.464-3.111,4.464-10.329,0-13.444L508.922,299.652z"/>
	<path fill="#14A800" d="M237.238,292.486l88.883-61.884c2.335-1.61,5.294-1.61,7.579,0l89.039,61.989
		c2.285,1.61,5.245,1.61,7.53,0.051l24.764-16.978c4.516-3.062,4.516-10.329,0.052-13.443l-101.603-70.819
		c-2.078-1.453-3.325-3.996-3.325-6.695V82.168c0-6.231,6.179-10.021,10.956-6.699l219.405,152.743
		c4.464,3.116,4.464,10.332,0,13.447l-17.185,11.942l0.207,0.363l-12.356,8.461c-4.517,3.062-4.517,10.334-0.053,13.448
		l24.299,16.925c2.336,1.61,5.295,1.61,7.579,0l73.518-51.191c4.464-3.116,4.464-10.332,0-13.448L333.7,3.513
		c-2.334-1.61-5.295-1.61-7.579,0l-13.032,9.035c-2.075,1.453-3.321,3.996-3.321,6.696v8.047v40.495v65.261h-0.053v51.608
		c0,2.75-1.247,5.243-3.322,6.697l-101.344,70.607c-4.464,3.116-4.464,10.334,0,13.45l24.557,17.077
		C231.942,294.096,234.901,294.096,237.238,292.486z"/>
	<path fill="#14A800" d="M237.081,525.544L79.409,415.79c-4.466-3.116-4.466-10.33,0-13.444l28.658-19.937
		c4.464-3.116,4.464-10.333,0-13.444L83.51,351.883c-2.337-1.61-5.295-1.61-7.58,0L3.4,402.346c-4.464,3.114-4.464,10.333,0,13.444
		l286.221,199.265v-4.569v-48.388v-66.714c0-2.65-1.192-5.144-3.165-6.597l-27.31-20.141c-4.725-3.534-11.11,0.256-11.11,6.592
		v43.61C248.037,525.08,241.858,528.868,237.081,525.544z"/>
</g>
</svg>
