<?xml version="1.0" encoding="utf-8"?>
<!-- Generator: Adobe Illustrator 16.0.0, SVG Export Plug-In . SVG Version: 6.00 Build 0)  -->
<!DOCTYPE svg PUBLIC "-//W3C//DTD SVG 1.1//EN" "http://www.w3.org/Graphics/SVG/1.1/DTD/svg11.dtd">
<svg version="1.1" id="Layer_1" xmlns="http://www.w3.org/2000/svg" xmlns:xlink="http://www.w3.org/1999/xlink" x="0px" y="0px"
	 width="659.875px" height="634.383px" viewBox="0 0 659.875 634.383" enable-background="new 0 0 659.875 634.383"
	 xml:space="preserve">
<g>
	<path fill="#070A1B" d="M508.922,299.652c-3.686-2.546-8.306-2.546-11.992,0L333.7,413.405c-2.334,1.605-5.295,1.605-7.579,0
		L79.409,241.608c-4.466-3.116-4.466-10.332,0-13.448L266.105,98.21c2.075-1.453,3.321-3.996,3.321-6.696V57.3
		c0-6.23-6.178-10.02-10.954-6.698L3.349,228.16c-4.465,3.116-4.465,10.332,0,13.448l301.019,209.539l21.079,14.438
		c2.284,1.557,5.189,1.557,7.527,0l92.621-63.498l0.054,0.156l73.515-51.191c2.336-1.609,5.295-1.609,7.579,0l73.672,51.295
		c4.464,3.115,4.464,10.328,0,13.445L333.234,587.846c-2.077,1.453-3.324,4-3.324,6.697v34.217c0,6.23,6.179,10.021,10.956,6.697
		l315.607-219.721c4.464-3.111,4.464-10.328,0-13.443L508.922,299.652z"/>
	<path fill="#14A800" d="M237.238,292.486l88.883-61.884c2.335-1.61,5.294-1.61,7.579,0l89.039,61.989
		c2.285,1.61,5.245,1.61,7.53,0.051l24.764-16.978c4.516-3.062,4.516-10.329,0.052-13.443l-101.603-70.819
		c-2.078-1.453-3.325-3.996-3.325-6.695V82.168c0-6.231,6.179-10.021,10.956-6.699l219.404,152.743
		c4.465,3.116,4.465,10.332,0,13.447l-17.185,11.942l0.207,0.363l-12.356,8.461c-4.517,3.062-4.517,10.334-0.053,13.448
		l24.299,16.925c2.336,1.61,5.295,1.61,7.579,0l73.519-51.191c4.464-3.116,4.464-10.332,0-13.448L333.7,3.513
		c-2.334-1.61-5.295-1.61-7.579,0l-13.032,9.035c-2.075,1.453-3.321,3.996-3.321,6.696v8.047v40.495v65.261h-0.053v51.608
		c0,2.75-1.247,5.243-3.322,6.697l-101.344,70.607c-4.464,3.116-4.464,10.334,0,13.45l24.557,17.077
		C231.942,294.096,234.901,294.096,237.238,292.486z"/>
	<path fill="#14A800" d="M237.081,525.543L79.409,415.79c-4.466-3.115-4.466-10.33,0-13.443l28.658-19.938
		c4.464-3.115,4.464-10.332,0-13.443L83.51,351.883c-2.337-1.609-5.295-1.609-7.58,0L3.4,402.346
		c-4.464,3.113-4.464,10.332,0,13.443l286.221,199.266v-4.568v-48.389v-66.715c0-2.648-1.192-5.143-3.165-6.596l-27.31-20.141
		c-4.725-3.535-11.11,0.256-11.11,6.592v43.609C248.037,525.081,241.858,528.868,237.081,525.543z"/>
</g>
</svg>
