<?xml version="1.0" encoding="utf-8"?>
<!-- Generator: Adobe Illustrator 16.0.0, SVG Export Plug-In . SVG Version: 6.00 Build 0)  -->
<!DOCTYPE svg PUBLIC "-//W3C//DTD SVG 1.1//EN" "http://www.w3.org/Graphics/SVG/1.1/DTD/svg11.dtd">
<svg version="1.1" id="Layer_1" xmlns="http://www.w3.org/2000/svg" xmlns:xlink="http://www.w3.org/1999/xlink" x="0px" y="0px"
	 width="665.631px" height="640px" viewBox="0 0 665.631 640" enable-background="new 0 0 665.631 640" xml:space="preserve">
<g>
	<path fill="#FFFFFF" d="M513.361,299.246c-3.717-2.567-8.378-2.567-12.097,0L336.61,413.991c-2.354,1.62-5.34,1.62-7.646,0
		L80.101,240.694c-4.505-3.142-4.505-10.422,0-13.564L268.426,96.047c2.094-1.466,3.351-4.031,3.351-6.755V54.779
		c0-6.285-6.232-10.107-11.049-6.756L3.377,227.13c-4.503,3.142-4.503,10.422,0,13.564l303.645,211.367l21.263,14.563
		c2.304,1.571,5.235,1.571,7.593,0l93.43-64.053l0.054,0.157l74.155-51.637c2.357-1.623,5.342-1.623,7.646,0l74.313,51.742
		c4.504,3.142,4.504,10.419,0,13.563L336.142,589.955c-2.097,1.465-3.354,4.032-3.354,6.753v34.517
		c0,6.284,6.231,10.106,11.052,6.756L662.2,416.345c4.504-3.14,4.504-10.421,0-13.563L513.361,299.246z"/>
	<path fill="#14A800" d="M239.307,292.018l89.658-62.425c2.357-1.623,5.341-1.623,7.646,0l89.816,62.531
		c2.304,1.623,5.291,1.623,7.595,0.053l24.979-17.127c4.555-3.089,4.555-10.418,0.053-13.562l-102.488-71.434
		c-2.097-1.466-3.354-4.032-3.354-6.755V79.865c0-6.285,6.231-10.108,11.052-6.756l221.319,154.075
		c4.502,3.142,4.502,10.421,0,13.563l-17.334,12.046l0.208,0.365l-12.464,8.535c-4.557,3.091-4.557,10.425-0.053,13.567
		l24.51,17.073c2.356,1.625,5.341,1.625,7.646,0l74.159-51.639c4.503-3.142,4.503-10.422,0-13.564L336.61,0.523
		c-2.354-1.624-5.34-1.624-7.646,0L315.82,9.637c-2.094,1.466-3.351,4.031-3.351,6.754v8.118v40.849v65.831h-0.053v52.058
		c0,2.774-1.257,5.289-3.351,6.755l-102.229,71.224c-4.502,3.142-4.502,10.423,0,13.565l24.771,17.228
		C233.966,293.641,236.95,293.641,239.307,292.018z"/>
	<path fill="#14A800" d="M239.149,527.109L80.101,416.397c-4.505-3.145-4.505-10.422,0-13.563l28.908-20.11
		c4.503-3.143,4.503-10.424,0-13.563l-24.771-17.23c-2.357-1.625-5.341-1.625-7.645,0L3.43,402.835
		c-4.503,3.142-4.503,10.424,0,13.563l288.718,201.001v-4.608V563.98v-67.297c0-2.673-1.203-5.188-3.193-6.652l-27.547-20.315
		c-4.767-3.563-11.208,0.258-11.208,6.649v43.99C250.2,526.639,243.968,530.462,239.149,527.109z"/>
</g>
</svg>
