<svg xmlns="http://www.w3.org/2000/svg" version="1.1" xmlns:xlink="http://www.w3.org/1999/xlink" xmlns:svgjs="http://svgjs.com/svgjs" x="0" y="0" viewBox="0 0 64 64" style="enable-background:new 0 0 512 512" xml:space="preserve" class=""><g><path d="M30.975 30.192c-1.238.96-.75 2.752.239 3.708 1.435 1.434 2.929 2.84 4.442 4.192 2.118 1.95 6.203-1.54 5.628-3.968a5.04 5.04 0 0 0-1.64-2.44c-1.485-1.493-3.329-2.991-5.58-2.768-1.99-2.314-4.222-4.412-6.307-6.642a13.322 13.322 0 0 0 1.644-1.896.515.515 0 0 0 .062-.476c1.636.16-.095-2.843-.178-3.629-.284-1.098.39-1.866 1.042-2.676a27.514 27.514 0 0 1 3.808-3.886c1.26.643 2.564 1.148 3.848 1.755a40.816 40.816 0 0 0-5.06 4.964c-1.439 1.49-.06 2.705 1.034 3.813.925 1.17 2.027 2.173 3.483 1.104a46.821 46.821 0 0 0 4.963-4.282c-.019 1.744 1.245 3.584-.225 4.996-2.098 1.69-4.6 5.179-7.573 3.43-.282-.23-.374-.565-.754-.743a1.065 1.065 0 0 0-1.542 1.185c.134.844 1.279 1.365 2.013 1.591 3.392.837 6.287-2.347 8.593-4.4 1.665-1.59.928-3.884.487-5.828-.072-.404-.085-.816-.186-1.214a.225.225 0 0 0-.227-.178.22.22 0 0 0-.155-.266c-.73-.212-1.626.73-2.129 1.145a43.131 43.131 0 0 0-4.048 3.86c-.5.962-.926-.522-1.36-.94-.391-.599-1.284-1.494-1.425-1.883 1.764-1.959 4.022-3.711 5.385-6.034a.486.486 0 0 0 .03-.43c.731-1.263-1.811-1.542-2.565-1.998-.827-.33-1.643-.66-2.494-.92a.597.597 0 0 0-.741.636 20.107 20.107 0 0 0-4.417 4.145 3.627 3.627 0 0 0-1.099 2.906 23.423 23.423 0 0 0 1.04 3.354.565.565 0 0 0-.46.049 13.176 13.176 0 0 0-1.98 1.515c-1.347-1.312-2.554-2.83-3.984-4.03.495-3.453-5.06-8.227-6.664-3.31-.322 2.294 1.518 6.273 4.33 5.41a.676.676 0 0 0 .204.483q1.835 1.858 3.679 3.706c-2.243 2.183-4.603 4.268-6.732 6.56a2.55 2.55 0 0 0-.477 3.218 29.844 29.844 0 0 0 2.895 3.415 1.894 1.894 0 0 0 1.793.8c1.772-.275 3.144-1.987 4.312-3.19a31.883 31.883 0 0 0 4.228-4.724q.404.412.82.811zm2.011.485c2.285-1.036 4.485 1.053 5.97 2.617 1.582 1.466.309 2.677-1.105 3.54a.88.88 0 0 1-1.02.095c-1.458-1.336-2.848-2.783-4.263-4.176a.922.922 0 0 1-.117-1.384.511.511 0 0 0 .535-.692zM19.004 17.616c-.595-.287-.886-1.072-1.194-1.673-.479-.883-.702-2.34.336-2.737.35-.094.775-.367 1.179-.188a3.855 3.855 0 0 1 2.223 4.232c-.737-.131-1.735.715-2.544.366zm2.543.983a.745.745 0 0 0 .264-.176.328.328 0 0 0 .145-.044c3.619 3.622 7.183 7.297 10.833 10.884a3.067 3.067 0 0 0-.6.392c-3.521-3.71-7.098-7.366-10.642-11.056zm4.784 13.66c-1.203 1.097-3.911 5.456-5.674 4.258a6.377 6.377 0 0 1-1.148-1.482c-.654-1.064-2.084-2.235-1.525-3.596a6.029 6.029 0 0 1 1.448-1.417 330.79 330.79 0 0 0 5.945-5.47c1.34 1.353 2.688 2.7 4.023 4.059-1.046 1.196-2.004 2.468-3.07 3.648z"  data-original="#000000" class=""></path><path d="M21.018 31.181c-1.583 1.046-.163 2.918 1.262 1.662.703-.481 1.892-1.353 1.28-2.301-.756-.829-1.898.085-2.542.64zM35.894 34.318c.599.417 1.551.033 1.352-.775-.257-.806-3.091-2.772-3.426-1.266.051.957 1.31 1.623 2.074 2.041z"  data-original="#000000" class=""></path><path d="M60.741 34.797c-.066-3.888-.816-6.074-5.203-5.359.3-4.806.447-9.624.394-14.438-.255-4.45 1.328-12.02-4.7-13.003C43.615 1.34 35.925 2.982 28.318 3c-4.624-.53-9.181.765-13.783 1.06-5.908-.071-7.662 2.39-9.137 7.798-1.504 6.602-1.807 13.44-2.425 20.172-.093 6.287-2.71 12.743 6.335 12.807a7.092 7.092 0 0 0 6.988 7.384.572.572 0 0 0 .383-.127c.176.203.354.404.534.6 1.212 1.312 3.147-.64 1.956-1.956-1.312-1.45-3.892-5.07-.69-6.063 1.874-.495 3.901-.269 5.827-.386a65.138 65.138 0 0 0 .58 7.293 5.025 5.025 0 0 0 3.217 4.233c4.252 1.454 8.918 1.479 13.369 1.41a5.443 5.443 0 0 1 3.003.495c.561.344 1.298 1.347.51 1.865-1.478.972-.116 3.35 1.396 2.388a3.968 3.968 0 0 0 .505-.385 4.96 4.96 0 0 0 5.752-5.653c2.993-.205 6.643.631 8.028-2.852 1.609-5.919.399-12.254.075-18.286zm-41.17 6.805c-5.364.343-6.94 5.26-3.848 9.284a5.794 5.794 0 0 1-4.815-6.63.802.802 0 0 0-.762-.999c-3.125.144-6.291-.505-5.822-4.381.139-2.936.369-5.87.604-8.8.632-5.64.706-20.02 5.273-23.406a4.912 4.912 0 0 1 2.675-.697c1.436-.065 2.858-.229 4.281-.425 2.806-.386 5.688-1.024 8.52-1.14 8.446.652 17.044-.773 25.475-.055 2.66.637 2.15 4.127 2.177 6.219-.04 8.611.023 17.33-1.095 25.868-.526 2.617-2.544 3.302-4.924 3.765-9.14 1.818-18.523.516-27.74 1.397zm24.61 6.226a1.541 1.541 0 0 1 0-3.081 1.541 1.541 0 0 1 0 3.08zm-9.383-2.603a1.541 1.541 0 0 1 0 3.081 1.541 1.541 0 0 1 0-3.08zm24.817 3.68c.064 6.294-2.69 5.409-7.666 5.82a.662.662 0 0 0-1.133.253c-.247.813-.025 1.712-.397 2.488a2.71 2.71 0 0 1-2.36 1.637c.111-3.55-3.705-5.043-6.8-4.778a46.231 46.231 0 0 1-11.319-.847c-2.019-.501-2.322-1.617-2.496-3.535a135.715 135.715 0 0 1-.378-5.693c1.918-.017 3.841-.032 5.764-.067-2.804 2.736-.396 6.418 3.25 4.643a2.837 2.837 0 0 0 1.65-2.993 1.969 1.969 0 0 0-2.232-1.67c-.004-.016-.015-.03-.02-.047 2.66-.087 5.316-.243 7.957-.55-4.292 1.768-2.152 7.44 2.158 5.03a3.674 3.674 0 0 0 1.923-2.981 2.288 2.288 0 0 0-1.834-2.347c8.63-.994 9.392-4.006 9.723-11.975.632.007 1.263-.237 1.897-.184 1.982.149 1.598 3.4 1.717 4.845a101.894 101.894 0 0 1 .596 12.95z"  data-original="#000000" class=""></path><path d="M55.897 43.598a2.155 2.155 0 0 0-2.583-.526.871.871 0 0 0-1.006-.081c-1.847 1.028-2.26 3.994-.22 5.04 2.38 1.292 5.726-2.287 3.809-4.433zm-2.46 3.496a1.541 1.541 0 0 1 0-3.081 1.541 1.541 0 0 1 0 3.08z"  data-original="#000000" class=""></path></g></svg>