<svg xmlns="http://www.w3.org/2000/svg" version="1.1" xmlns:xlink="http://www.w3.org/1999/xlink" xmlns:svgjs="http://svgjs.com/svgjs" x="0" y="0" viewBox="0 0 66 66" style="enable-background:new 0 0 512 512" xml:space="preserve" class=""><g><path d="m49.438 1.005-31.374.227c-5.593.041-14.825.06-16.784 11.187-.562 3.196.107 31.867-.017 38.887-.184 10.44 2.939 13.892 14.613 13.683l35.674-.655c10.024-.183 11.94-3.627 12.177-10.895l.476-14.548.064-.064a.25.25 0 0 0 0-.354c-.014-.014-.034-.011-.05-.021l.668-20.427c.083-2.54.169-5.167-.353-7.724-1.753-8.604-8.283-9.357-15.094-9.296zm13.884 34.248-.116-.116.123-.123zm.023-.706c-.094-.047-.205-.049-.284.029l-.209.209-.772-.771 1.325-1.325zm.299-9.14-.666-.666.711-.711zm-1.161-7.232 1.439-1.439c-.011.42-.021.841-.035 1.257l-.043 1.309c-.076-.061-.171-.062-.256-.021zm.758-7.59L62.156 9.5c.122.094.242.072.326-.012l.628-.628c.171.51.301 1 .4 1.456zm.697 5.099-1.201-1.201 1.148-1.148c.043.782.062 1.565.053 2.349zM8.799 61.927l-.372-.372 1.468-1.468 1.62 1.62-1.569 1.569a.25.25 0 1 0 .354.354l1.569-1.569.781.781a.25.25 0 1 0 .354-.354l-.781-.781 1.316-1.316 2.075 2.075L14.079 64c-2.44-.023-4.92-.245-6.964-1.133l.958-.958.372.372a.25.25 0 1 0 .354-.354zm7.059 2.062c-.355.007-.714.01-1.074.012l1.181-1.181.135.135a.25.25 0 1 0 .354-.354l-.135-.135 2.075-2.075 1.467 1.467-2.024 2.024c-.02.02-.018.047-.029.071zm5.604-1.236-.894-.894 2.986-2.986 2.986 2.986-1.97 1.97-6.083.112 1.728-1.728.894.894a.25.25 0 1 0 .353-.354zm6.151-.528-.366-.366 3.441-3.441 1.847 1.847-3.315 3.315a.244.244 0 0 0-.068.165l-3.862.071 1.603-1.603.366.366a.25.25 0 1 0 .354-.354zm6.894-.694-1.266-1.266 2.226-2.226 2.986 2.985-1.948 1.948a.25.25 0 1 0 .354.354l1.948-1.948 1.957 1.957a.25.25 0 1 0 .354-.354l-1.957-1.957 3.137-3.137 2.227 2.227-3.314 3.314c-.027.027-.028.063-.04.097l-11.397.209 3.114-3.115 1.266 1.266a.25.25 0 1 0 .353-.354zm12.446 1.011-.127.127a.25.25 0 1 0 .354.354l.127-.127.507.507-5.98.11 3.045-3.045zm-1.722-2.429 2.226-2.226 2.075 2.075-2.226 2.226zm6.301 3.221-3.025.056-.848-.847 2.226-2.226 2.085 2.085c-.07.098-.073.23.015.318.085.085.197.102.318.015l.218.218a.25.25 0 1 0 .354-.354l-.207-.207 2.91-2.91 1.013 1.013-.507.505a.25.25 0 1 0 .354.354l.506-.506 1.417 1.417c.007.007.018.005.026.011-2.032.866-4.53 1.015-6.855 1.058zm4.399-4.207 1.696-1.695 1.013 1.013-1.695 1.695zm2.853 2.967a.244.244 0 0 0-.07-.184l-1.417-1.417 1.695-1.695 1.496 1.496a.25.25 0 1 0 .354-.354l-1.496-1.496 1.384-1.384a.25.25 0 1 0-.354-.354l-1.384 1.384-1.013-1.013 1.065-1.065a.25.25 0 1 0-.354-.354l-1.065 1.065-.582-.582a.25.25 0 1 0-.354.354l.582.582-1.696 1.695-1.265-1.265a.25.25 0 1 0-.354.354l1.265 1.265-2.91 2.91-2.075-2.075 3.98-3.98a.25.25 0 1 0-.354-.354l-3.98 3.98-2.075-2.075.39-.39a.25.25 0 1 0-.354-.354l-.39.39-.582-.582a.25.25 0 1 0-.354.354l.582.582-2.226 2.226-2.28-2.28c0-.063-.024-.127-.073-.175s-.112-.072-.175-.073l-.483-.483a.25.25 0 1 0-.354.354l.43.43-3.137 3.137-2.986-2.985 1.704-1.704a.25.25 0 1 0-.354-.354l-4.284 4.284-1.847-1.847.459-.459a.25.25 0 1 0-.354-.354l-.459.459-.203-.203a.25.25 0 1 0-.354.354l.203.203-3.441 3.441-2.986-2.986.674-.674a.25.25 0 1 0-.354-.354l-.716.716c-.076-.011-.152.001-.211.059s-.07.135-.059.211l-3.027 3.027-1.467-1.467.97-.97a.25.25 0 1 0-.354-.354l-.97.97-.345-.351a.25.25 0 1 0-.354.354l.354.354-2.075 2.075-2.075-2.075.682-.682a.25.25 0 1 0-.354-.354l-.682.682-.203-.203a.25.25 0 1 0-.354.354l.203.203-1.316 1.316-1.661-1.661c.011-.076-.001-.153-.059-.211-.07-.07-.165-.072-.253-.042-.087-.03-.183-.028-.253.042-.058.058-.07.135-.059.211l-1.51 1.51-1.87-1.873a.25.25 0 1 0-.354.354l1.872 1.872-1.09 1.09C2.375 60.492 2.181 56 2.263 51.323c.121-6.884-.533-35.695.001-38.73C4.04 2.509 12.034 2.276 18.071 2.233l31.374-.227c5.872-.047 11.163.335 13.477 6.335l-.794.795c-.09.09-.087.228-.012.326l-1.278-1.278a.25.25 0 1 0-.354.354l2.402 2.402-1.322 1.322a.25.25 0 1 0 .354.354l1.696-1.696c.114.644.193 1.294.242 1.949-.088-.03-.183-.028-.253.042l-1.221 1.221-1.09-1.09a.25.25 0 1 0-.354.354l1.09 1.09-.902.902a.25.25 0 1 0 .354.354l.902-.902 1.326 1.326c.015.015.037.012.055.023l-1.636 1.636-.228-.228a.25.25 0 1 0-.354.354l.228.228-.583.581a.25.25 0 1 0 .354.354l.585-.585 1.084 1.083-2.397 2.397a.25.25 0 1 0 .354.354l2.397-2.397.248.248-.102 3.086-1.088 1.088-1.938-1.938a.25.25 0 1 0-.354.354l1.938 1.938-1.206 1.206a.25.25 0 1 0 .354.354l1.206-1.206.997.997-.065 1.989-.896.896-1.671-1.67a.25.25 0 1 0-.354.354l1.671 1.67-1.18 1.179a.25.25 0 1 0 .354.354l1.18-1.179.409.409a.25.25 0 1 0 .354-.354l-.409-.409.518-.518-.103 3.145-1.702 1.702-.586-.586a.25.25 0 1 0-.354.354l.586.586-.684.684a.25.25 0 1 0 .354.354l.684-.684.772.771-2.497 2.497a.25.25 0 1 0 .354.354l2.497-2.497.217.217c.095.095.151.071.235.049l-.112 3.436-.925.925-1.43-1.43a.25.25 0 1 0-.354.354l1.43 1.43-1.224 1.224a.25.25 0 1 0 .354.354l1.225-1.225.57.57c.108.108.188.076.281.03l-.1 3.066-.997.997-.881-.881a.25.25 0 1 0-.354.354l.881.881-1.417 1.417a.25.25 0 1 0 .354.354l1.417-1.417.911.911-.006.18c-.095-.053-.212-.055-.292.025l-2.05 2.05-.203-.203a.25.25 0 1 0-.354.354l.203.203-1.417 1.417a.25.25 0 1 0 .354.354l1.417-1.417 1.24 1.24-1.847 1.847-1.113-1.113a.25.25 0 1 0-.354.354l1.113 1.113-.748.748a.25.25 0 1 0 .354.354l.748-.748 1.886 1.886a.25.25 0 1 0 .354-.354l-1.886-1.886 1.847-1.847.204.204a.25.25 0 0 0 .354 0c.03-.03.034-.072.046-.11l-.054 1.647c-.12 3.577-.39 6.937-3.947 8.686zm4.173-15.671-.58-.58.62-.62zm-.505 4.616c-.066-.066-.155-.071-.239-.048l-1.273-1.274 1.974-1.974-.127 3.892c-.011-.042-.017-.087-.05-.12l-.238-.238c.023-.083.019-.172-.047-.238zm.683-10.054-.513-.513.547-.547z"  data-original="#000000" class=""></path><path d="M58.416 13.826c-.218-6.151-2.331-7.767-8.14-7.794-37.756-.181-38.33-.657-41.359 1.26-2.847 1.801-2.498 4.151-2.128 6.638.567 3.825.032 24.309.028 32.605-.001 4.146 1.371 5.193 4.772 5.398a437.023 437.023 0 0 0 38.957.617c5.512-.159 6.849-1.945 7.2-6.491a287.95 287.95 0 0 0 .67-32.233zm-1.668 32.158c-.312 4.056-1.276 5.426-6.232 5.567a437.416 437.416 0 0 1-38.867-.615c-2.891-.175-3.834-.823-3.833-4.4.004-8.811.535-28.86-.039-32.752-.361-2.435-.622-4.194 1.675-5.647 2.715-1.72 3.124-1.286 40.819-1.105 5.426.025 6.951 1.384 7.146 6.829a286.952 286.952 0 0 1-.669 32.123z"  data-original="#000000" class=""></path><path d="M33.954 12.067a.482.482 0 0 0-.738-.002c-12.652.394-20.193 13.017-16.099 22.897 2.416 5.83 8.557 10.165 15.526 10.093.05.002.101.01.151.01 4.196 0 9.309-1.973 12.833-5.666 10.089-10.575 2.677-26.992-11.673-27.332zm12.642 7.649-5.766.014c-.764-2.331-1.969-4.719-3.87-6.272 3.774.824 7.322 2.92 9.636 6.258zm2.679 8.219-7.154.06c-.024-2.514-.365-5.022-.986-7.264l6.095-.015a15.104 15.104 0 0 1 2.045 7.219zM25.14 29.136l6.934-.058a213.115 213.115 0 0 0-.002 8.795c-1.83-.014-3.66-.053-5.487-.12-1.045-2.747-1.456-5.69-1.445-8.617zm-8.085-.933c.189-2.605 1.05-5.177 2.496-7.441.036.008.069.022.107.022h.001l5.69-.014c-.698 2.268-1.111 4.797-1.198 7.374zm9.354-7.436 6.002-.015a213.043 213.043 0 0 0-.317 7.326l-6.927.058c.097-2.581.524-5.126 1.242-7.369zm6.606-7.687a211.33 211.33 0 0 0-.541 6.671l-5.714.014c1.062-2.837 3.37-6.595 6.255-6.685zm6.772 6.653-6.313.016c.144-2.211.326-4.417.54-6.617 2.858.516 4.81 3.816 5.773 6.601zm-7.693 19.142c.043 1.72.1 3.438.184 5.152-2.43-.329-4.264-3.018-5.274-5.255 1.694.058 3.392.089 5.09.103zm1.224 5.147c.048-.388.176-.798-.09-1.036a207.315 207.315 0 0 1-.14-4.102c.165 0 .331.005.496.005 1.768 0 3.535-.036 5.302-.085l-.014.032c-1.489 3.057-3.519 4.908-5.554 5.186zm-.247-6.14c-.059-2.934-.057-5.873.006-8.812l8.029-.067c-.078 3.032-.595 5.932-1.788 8.799a194.14 194.14 0 0 1-6.247.08zm.024-9.813c.064-2.443.172-4.884.319-7.32l6.677-.017c.648 2.225 1.007 4.74 1.03 7.27zm-3.443-14.511c-1.909 1.569-3.137 3.885-3.969 6.21l-5.454.014c2.251-3.024 5.421-5.227 9.423-6.224zM17.008 29.203l7.121-.059c-.002 2.889.401 5.84 1.366 8.564a186.55 186.55 0 0 1-5.903-.334c-1.713-2.427-2.598-5.133-2.584-8.171zm3.404 9.227c1.823.126 3.65.227 5.48.3.912 2.178 2.122 3.924 3.491 5.024-3.511-.712-6.705-2.646-8.971-5.324zm16.19 5.103c1.188-.987 2.276-2.427 3.169-4.26.077-.158.14-.333.213-.495 1.696-.056 3.388-.143 5.077-.245a17.4 17.4 0 0 1-8.459 5zm9.337-6.027s-3.128.158-5.511.243c1.138-2.922 1.606-5.825 1.677-8.755l7.16-.06c-.149 3.224-1.381 6.116-3.326 8.572z"  data-original="#000000" class=""></path></g></svg>