<svg xmlns="http://www.w3.org/2000/svg" version="1.1" xmlns:xlink="http://www.w3.org/1999/xlink" xmlns:svgjs="http://svgjs.com/svgjs" x="0" y="0" viewBox="0 0 73 73" style="enable-background:new 0 0 512 512" xml:space="preserve" class=""><g><path d="M54.994 21.945a.75.75 0 0 0 .75-.75v-3.98a.75.75 0 0 0-1.5 0v3.98c0 .414.336.75.75.75zM54.088 35.5a.75.75 0 0 0-.75.75v3.98a.75.75 0 0 0 1.5 0v-3.98a.75.75 0 0 0-.75-.75zM60.45 7.275l.688-3.965a.75.75 0 1 0-1.478-.256l-.688 3.965a.75.75 0 1 0 1.478.256zM67 4.288a.75.75 0 0 0-1.05.151 22.912 22.912 0 0 1-3.51 3.729.75.75 0 0 0 .97 1.144 24.378 24.378 0 0 0 3.741-3.975.75.75 0 0 0-.15-1.05zM68.23 10.847c-.936.173-1.888.2-2.83.081a.75.75 0 0 0-.188 1.488c1.095.14 2.196.108 3.29-.094a.75.75 0 0 0 .601-.874.746.746 0 0 0-.874-.6zM54.088 54.75a.75.75 0 0 0-.75.75v3.979a.75.75 0 0 0 1.5 0v-3.98a.75.75 0 0 0-.75-.75zM14.736 22.148c1.101-.576 1.568-2.05 1-3.155-.568-1.106-2.04-1.585-3.148-1.022a.262.262 0 0 0-.026.014c-1.045.498-1.604 2.025-.988 3.183.583 1.099 2.06 1.553 3.162.98zM23.8 22.148c1.101-.575 1.569-2.05 1-3.155-.567-1.106-2.04-1.584-3.148-1.022a.262.262 0 0 0-.026.014c-1.048.499-1.602 2.026-.988 3.183.586 1.103 2.069 1.552 3.161.98zM35.733 21.614a.75.75 0 0 0 .75-.75v-3.318a.75.75 0 0 0-1.5 0v3.318c0 .414.336.75.75.75zM43.324 22.084a.75.75 0 0 0 .75-.75v-4.711a.75.75 0 0 0-1.5 0v4.711c0 .415.336.75.75.75zM49.67 22.166a.75.75 0 0 0 .75-.75v-4.421a.75.75 0 0 0-1.5 0v4.42c0 .415.335.75.75.75zM13.154 36.327a.262.262 0 0 0-.025.013c-1.07.536-1.596 2.04-.988 3.184.583 1.096 2.06 1.554 3.162.978 1.101-.576 1.568-2.05 1-3.154-.568-1.105-2.04-1.585-3.149-1.021zM22.218 36.327a.262.262 0 0 0-.025.013c-1.088.544-1.587 2.056-.988 3.183.41.773 1.266 1.23 2.12 1.23 1.792 0 2.776-1.979 2.042-3.405-.569-1.106-2.041-1.585-3.149-1.021zM34.826 35.832a.75.75 0 0 0-.75.75v3.316a.75.75 0 0 0 1.5 0v-3.316a.75.75 0 0 0-.75-.75zM42.078 35.02a.75.75 0 0 0-.75.75v4.713a.75.75 0 0 0 1.5 0V35.77a.75.75 0 0 0-.75-.75zM48.762 35.28a.75.75 0 0 0-.75.75v4.42a.75.75 0 0 0 1.5 0v-4.42a.75.75 0 0 0-.75-.75zM13.154 55.576a.262.262 0 0 0-.025.013c-1.046.498-1.605 2.025-.989 3.183.411.774 1.267 1.23 2.122 1.23 1.796 0 2.772-1.982 2.04-3.405-.567-1.105-2.04-1.585-3.148-1.021zM22.218 55.576a.262.262 0 0 0-.025.013c-1.046.498-1.604 2.025-.988 3.183.586 1.105 2.07 1.552 3.16.98 1.102-.575 1.57-2.05 1.002-3.155-.569-1.105-2.041-1.584-3.149-1.021zM34.826 55.08a.75.75 0 0 0-.75.75v3.318a.75.75 0 0 0 1.5 0v-3.317a.75.75 0 0 0-.75-.75zM42.078 54.27a.75.75 0 0 0-.75.75v4.712a.75.75 0 0 0 1.5 0V55.02a.75.75 0 0 0-.75-.75zM48.762 54.529a.75.75 0 0 0-.75.75v4.42a.75.75 0 0 0 1.5 0v-4.42a.75.75 0 0 0-.75-.75z" data-original="#000000" class=""></path><path d="M5.225 67.06c1.416 2.916 6.639 2.672 10.34 3.02 4.778.45 10.277.443 15.076.48 9.514.072 18.32-.346 27.78-1.334 1.062-.11 2.206-.262 2.981-.998.846-.802.86-2.56-.45-2.805.645-1.096.612-1.434.532-7.762-.024-1.886-.05-3.836-.007-5.755.03-1.43-.757-2.941-2.628-3.857 1.54-.755 2.601-2.107 2.638-3.664.093-3.924-.095-7.843-.01-11.728.03-1.405-.708-2.806-2.38-3.732 1.418-.764 2.354-2.066 2.39-3.575.093-3.925-.095-7.843-.01-11.728.057-2.669-2.58-4.498-5.361-4.498H11.027a6.21 6.21 0 0 0-2.697.617l.133-.313c-2.13.884-3.48 3.4-4.036 5.518-.63 2.4-.535 4.924-.436 7.403.091 2.254.185 4.527.743 6.711-1.176 7-1.238 12.588.49 19.25-.864 5.323-2.491 13.619 0 18.75zm54.752-15.187c-.042 1.945-.017 3.908.007 5.806.024 1.94.05 3.946.003 5.92-.022.936-.66 1.76-1.612 2.275-.866.21-1.737.395-2.61.558l-44.746-.064c-2.128-.003-3.86-1.304-3.86-2.899V51.805c0-1.597 1.735-2.897 3.868-2.897h45.089c1.914 0 3.9 1.188 3.86 2.965zm0-19.25c-.085 3.926.102 7.849.01 11.727-.037 1.564-1.773 2.833-3.872 2.833h-.008l-45.088-.065c-2.128-.003-3.86-1.302-3.86-2.898V32.556c0-1.598 1.735-2.898 3.868-2.898h45.089c1.913 0 3.9 1.19 3.86 2.966zm-3.861-22c1.914 0 3.9 1.19 3.86 2.965-.084 3.925.103 7.849.011 11.727-.037 1.563-1.773 2.833-3.872 2.833h-.008l-45.088-.064c-.986-.002-1.878-.29-2.56-.749-.394-.769-.944-1.868-1.3-2.61V13.522c0-1.598 1.735-2.897 3.868-2.897z" data-original="#000000" class=""></path></g></svg>