<svg xmlns="http://www.w3.org/2000/svg" version="1.1" xmlns:xlink="http://www.w3.org/1999/xlink" xmlns:svgjs="http://svgjs.com/svgjs" x="0" y="0" viewBox="0 0 68 68" style="enable-background:new 0 0 512 512" xml:space="preserve" class=""><g><path d="M54.247 21.94c-.368-5.2-5.232-8.846-10.311-7.639-.947-4.089-3.976-7.588-7.907-9.053a12.418 12.418 0 0 0-5.19-.718c-1.69-.052-4.177.52-4.713.715-5.427 1.963-8.643 7.065-8.7 12.304-6.472-.69-12.578 4.314-13.615 11.7-.803 5.722 1.968 9.667 7.35 11.343 2.245.699 4.604.883 6.958.982.495 2.965 1.258 6.088 2.252 8.331 2.306 5.21 6.229 9.678 11.078 12.62.62.377 1.2.815 1.914.936.844.143 1.907-.107 2.228-.335 8.009-5.73 12.76-13.098 14.148-21.903 4.818-.16 9.094-.108 11.949-2.577 2.882-2.49 3.49-7.287 1.388-10.92-1.699-2.927-4.97-5.059-8.829-5.785zM35.146 61.597C25.178 54.663 22.555 50.385 21.1 39.86l-.001-.003c-.331-1.986-.445-4.928-.135-7.49C26.26 32.2 31.397 30.24 35.564 26.8c3.56 2.986 8.103 4.976 12.918 5.657 1.167 10.766-2.828 21.425-13.336 29.138zm25.561-24.085c-2.4 2.075-6.162 2.053-10.758 2.207.301-2.724.286-5.42-.047-8.023a.75.75 0 0 0-.656-.65c-4.957-.588-9.637-2.646-13.18-5.792a.747.747 0 0 0-.99-.004c-4.149 3.61-9.394 5.61-14.771 5.63a.738.738 0 0 0-.555.265c-.74.463-1.803 1.222-2.075 1.895-.303.75-.262 3.103.074 5.945-3.41-.31-5.914-.448-8.145-2.72-2.967-3.028-3.566-7.837-1.423-11.435 2.346-3.922 7.539-5.81 11.827-4.304a.75.75 0 0 0 .985-.851c-.794-4.052.647-8.595 3.501-11.047 2.953-2.524 7.377-3.318 11.012-1.973 3.64 1.357 6.498 4.86 7.111 8.716a.75.75 0 0 0 .992.589c4.47-1.588 9.197 1.792 9.159 6.614a.75.75 0 0 0 .64.748c3.68.54 6.81 2.468 8.37 5.156 1.725 2.98 1.245 7.033-1.07 9.034z" data-original="#000000" class=""></path><path d="M31.636 35.55c-8.76 3.262-5.684 15.95 3.243 15.242 2.498-.197 4.866-1.62 6.337-3.805 4.42-6.57-2.03-14.25-9.58-11.436zm3.126 13.746c-7.196.567-9.763-9.674-2.603-12.34 2.051-.764 4.292-.616 5.998.392 5.631 3.333 2.578 11.478-3.395 11.948z" data-original="#000000" class=""></path><path d="m37.625 40.32-3.985 4.018-2.026-2.042c-.702-.703-1.764.354-1.065 1.057 2.557 2.477 2.544 2.8 3.09 2.8.56 0 .369-.165 5.05-4.776.7-.703-.364-1.761-1.064-1.056zM50.515 12.023a.75.75 0 0 0 .722-.776 19.43 19.43 0 0 1 .481-5.055c.225-.967-1.24-1.305-1.46-.337a20.857 20.857 0 0 0-.52 5.446c.027.727.877.764.777.722zM54.889 13.167l3.25-5.374a.75.75 0 1 0-1.283-.776l-3.25 5.375c-.512.844.776 1.617 1.283.775zM57.156 16.628l3.747-1.51a.75.75 0 1 0-.561-1.39l-3.746 1.508c-.908.367-.375 1.765.56 1.392zM34.248 9.15a5.075 5.075 0 0 0-3.781-.626 5.078 5.078 0 0 0-3.129 2.213c-.533.836.735 1.642 1.266.804a3.62 3.62 0 0 1 2.199-1.555 3.617 3.617 0 0 1 2.656.44c.844.522 1.633-.755.79-1.276zM58.46 29.941c.776.98.862 2.463.204 3.526a.75.75 0 0 0 .637 1.145c1.06 0 2.144-3.316.335-5.601-.615-.779-1.792.151-1.176.93zM56.238 35.899c0 .414.335.75.75.75h.125a.75.75 0 0 0 .75-.75c0-1.002-1.625-1.003-1.625 0z" data-original="#000000" class=""></path></g></svg>