<svg xmlns="http://www.w3.org/2000/svg" version="1.1" xmlns:xlink="http://www.w3.org/1999/xlink" xmlns:svgjs="http://svgjs.com/svgjs" x="0" y="0" viewBox="0 0 66 66" style="enable-background:new 0 0 512 512" xml:space="preserve" class=""><g><path d="M64.119 27.836c-3.607.618-7.481.102-10.951-1.439l.058-1.665c.085-2.656-.6-4.442-4.173-4.718a58.754 58.754 0 0 0-.139-1.773c3.441-.336 4.024-2.14 4.132-4.733l.181-5.289v-.001c.095-2.964-.726-4.707-5.196-4.766a852.092 852.092 0 0 0-39.958.424c-4.308.158-6.545 1.294-7.012 7.63-.297 4.088.536 6.85 4.668 6.907a83.033 83.033 0 0 0-.239 2.274c-3.422.804-4.171 3.819-4.429 7.333-.17 2.338-.089 4.9 1.804 6.174.579.392 1.285.61 2.168.692a98.02 98.02 0 0 0 .127 3.052c-3.177.938-3.854 3.934-4.099 7.252-.422 5.805 1.679 7.062 5.869 6.895s20.19.084 27.793.101c3.429 7.891 8.208 10.433 11.554 10.433 3.638 0 12.371-4.056 16.454-14.607l.001-.001c.546-1.419.966-2.85 1.293-4.278a.456.456 0 0 0 .099-.45c1.161-5.399.953-10.71.577-14.997a.498.498 0 0 0-.582-.45zm-.368 1.069c.337 4.078.482 9.026-.573 14.034-5.185.431-10.407.671-15.63.718.077-7.89.136-16.386.277-19.481 4.476 3.89 10.473 5.502 15.926 4.729zm-32.3-.507c5.607.435 11.098-1.042 15.366-4.067-.137 3.298-.195 11.609-.271 19.329-4.596.02-9.191-.103-13.758-.381-1.219-5.108-1.619-9.987-1.337-14.881zM6.15 37.728a96.54 96.54 0 0 1-.116-2.807c2.74.002 22.655.057 24.46.071.039.636.1 1.323.185 2.098a847.65 847.65 0 0 0-22.606.47c-.657.025-1.295.076-1.923.168zm41.881-17.763a854.269 854.269 0 0 0-39.979.425c-.587.025-1.418.089-1.546.104.065-.696.14-1.389.222-2.086 11.236-.244 29.383.403 41.198-.096.052.55.095 1.103.131 1.653-.009 0-.026.002-.026 0zM2.059 11.579c.434-5.929 2.38-6.567 6.049-6.704a851.438 851.438 0 0 1 39.909-.423c4.073.053 4.281 1.536 4.21 3.733l-.181 5.285c-.093 2.285-.375 3.616-3.719 3.813-.773.078-41.303.108-42.057.129-3.725.104-4.508-1.76-4.211-5.833zm0 16.514c.43-5.88 2.332-6.544 6.049-6.704 17.429-.595 39.455-.57 40.455-.404.924-.115 2.616.304 3.248 1.227.475.691.443 1.645.416 2.487v.001l-.042 1.22a19.004 19.004 0 0 1-4.338-3.058l-.004-.004a.49.49 0 0 0-.592-.063c-1 .27-5.927 5.573-16.217 4.561a.501.501 0 0 0-.548.463c-.157 2.311-.099 5.172-.049 6.172-27.199-.207-25.799.196-27.013-.626-1.47-.989-1.515-3.22-1.365-5.272zm4.832 22.993c-3.408.128-5.223-.448-4.832-5.823.222-3.037.787-5.82 3.728-6.473.726-.16 1.513-.201 2.321-.231a849.894 849.894 0 0 1 22.689-.471 52.2 52.2 0 0 0 3.501 13.097c-7.909-.026-23.252-.265-27.407-.099zm26.144-6.797c5 .296 9.124.39 13.502.371-.082 8.068-.192 15.778-.436 16.941-7.21-.299-11.238-10.331-13.066-17.312zM47.121 61.54c.234-1.855.337-9.014.417-16.89 5.15-.046 10.298-.274 15.413-.692-2.716 11.125-10.684 16.735-15.83 17.582z" data-original="#000000" class=""></path><path d="M11.94 10.925c.02-.88-.255-1.639-.766-2.201.04-.192-.093-.323-.287-.274a2.926 2.926 0 0 0-.542-.362c-1.184-.597-2.739-.408-3.874.471-1.669 1.294-1.655 4.293.291 5.383 2.223 1.247 5.121-.481 5.178-3.017zm-4.343 2.292.47-.47.582.582c-.362.04-.724 0-1.052-.112zm1.573-.004c-.011-.042-.017-.086-.05-.12l-.7-.701.467-.467.321.321-.078.08a.25.25 0 1 0 .354.354l.121-.121c.081.011.134.015.209-.06.058-.058.07-.134.06-.209l1.025-1.025c-.168.871-.856 1.655-1.729 1.948zm1.321-3.729c.287.357.448.817.445 1.369a.247.247 0 0 0-.338.006l-.05.05-.741-.741zm-3.407-.135c.858-.665 1.991-.781 2.811-.368.087.044.153.108.23.162l-.672.671-.224-.225a.25.25 0 1 0-.354.354l1.319 1.319-.632.632-.321-.321.142-.142a.25.25 0 1 0-.354-.354l-.142.142-.17-.17a.25.25 0 0 0-.354.354l.17.17-.466.467-.48-.48c-.232-.233-.588.119-.354.354l.48.48-.585.585c-1.201-.82-1.108-2.805-.044-3.63zM15.612 13.942c2.236 1.254 5.121-.495 5.178-3.017.029-1.277-.553-2.312-1.595-2.837-2.067-1.044-5.304.334-5.076 3.37.081 1.092.624 1.998 1.493 2.484zm.488-.872c-.015-.009-.027-.023-.042-.032l.674-.674.935.934c-.548.097-1.118.024-1.567-.228zm3.659-2.499a.246.246 0 0 0-.059-.142l-.353-.353.228-.227c.101.214.158.458.184.722zm-2.074-1.832c.373 0 .737.079 1.06.242.221.111.396.267.549.442l-.3.3-.498-.498a.25.25 0 1 0-.354.354l.533.533c-.02.082-.014.169.05.233.094.094.149.071.233.05l.388.388a.25.25 0 0 0 .354 0 .246.246 0 0 0 .064-.154c.007.092.027.177.025.274-.021.98-.738 1.924-1.692 2.281.014-.078.004-.158-.056-.219l-.956-.955.65-.65.522.522-.444.443a.25.25 0 1 0 .354.354l.444-.443.081.081a.25.25 0 0 0 .354-.354l-.081-.081.339-.339a.25.25 0 1 0-.354-.354l-.339.339-.522-.522c.253-.253.68-.551.439-.792a.25.25 0 0 0-.354 0l-.439.439-.006-.006a.25.25 0 1 0-.354.354l.006.006-.65.65-.097-.097a.25.25 0 1 0-.354.354l.097.097-.709.709c-.314-.339-.514-.8-.554-1.335-.12-1.639 1.167-2.646 2.571-2.646zM6.761 30.694a3.278 3.278 0 0 0 1.606.409c.324 0 .653-.045.974-.137 1.473-.419 2.565-1.802 2.599-3.289.029-1.277-.553-2.312-1.595-2.837-2.073-1.044-5.303.338-5.076 3.371.081 1.092.625 1.997 1.492 2.483zm1-.677.812-.812.716.715c-.073.029-.145.062-.222.084-.432.123-.891.12-1.306.013zm1.765-1.801.51.51-.497.497a.25.25 0 0 0-.071.171l-.542-.542.575-.575c.017-.017.014-.041.025-.061zm.231 1.466-.034-.034c.16-.004.603-.503.721-.622a2.73 2.73 0 0 1-.687.656zm1.159-2.286-.518-.518.313-.313c.121.243.183.524.205.831zm-1.021-1.662c.21.106.379.25.528.413l-.378.378-.215-.215a.25.25 0 1 0-.354.354l.214.214-.027.027a.25.25 0 1 0 .354.354l.027-.027.637.637a.247.247 0 0 0 .177.073c.019 0 .033-.017.051-.021a2.24 2.24 0 0 1-.103.424c-.006-.008-.003-.018-.01-.025a.25.25 0 0 0-.354 0l-.053.053-.904-.904a.25.25 0 1 0-.354.354l.076.076c-.02.011-.043.008-.06.025l-.575.575-.466-.465a.25.25 0 1 0-.354.354l.466.465-.97.97c-.568-.319-.928-.933-.983-1.684-.164-2.226 2.216-3.116 3.63-2.405zM15.611 30.694c2.242 1.257 5.123-.502 5.179-3.017.029-1.277-.553-2.312-1.595-2.837-2.069-1.043-5.304.335-5.076 3.371.081 1.092.624 1.997 1.492 2.483zm4.092-3.728c.002 0 .003-.002.005-.003.036.141.049.295.059.452l-.334-.334.101-.101a.422.422 0 0 0 .169-.014zm-.959-1.232c.338.17.596.422.773.736-.083-.02-.17-.011-.232.052l-.206.206-.523-.522a.25.25 0 1 0-.354.354l.529.529a.246.246 0 0 0 .009.332c.085.085.213.106.332.009l.467.467a.247.247 0 0 0 .177.073c.014 0 .025-.014.038-.016-.152.931-.895 1.783-1.839 2.052a2.459 2.459 0 0 1-1.608-.094l.754-.754.674.674a.247.247 0 0 0 .177.073c.131 0 .158-.056.201-.132l1.37-1.37a.25.25 0 1 0-.354-.354l-.159.159-.87-.873a.25.25 0 1 0-.354.354l.038.038-.722.723-.146-.146a.25.25 0 1 0-.354.354l.146.146-.842.843c-.428-.344-.704-.87-.751-1.508-.164-2.226 2.216-3.116 3.629-2.405zm-.125 2.827-.723.723-.48-.48.722-.723zM19.195 41.679c-2.07-1.044-5.303.337-5.076 3.371.081 1.092.625 1.997 1.492 2.483 2.237 1.254 5.122-.496 5.179-3.017.029-1.278-.553-2.312-1.595-2.837zm-2.922 5.055.508-.508.697.697a2.407 2.407 0 0 1-1.205-.189zm1.826-1.18-.641.641-.323-.323.641-.642zm-.106 1.26c-.008-.051-.019-.102-.058-.141l-.124-.124.671-.671c.244.085.359-.11.295-.295l.092-.091a.25.25 0 1 0-.354-.354l-.062.062-.758-.758a.25.25 0 1 0-.354.354l.082.082-.641.642-.282-.282a.25.25 0 1 0-.354.354l.281.281-.59.59c-.412-.344-.677-.863-.723-1.487-.163-2.196 2.179-3.133 3.629-2.403.183.092.341.211.478.347l-.571.57-.44-.44a.25.25 0 1 0-.354.354l.44.44-.201.201a.25.25 0 1 0 .354.354l.201-.201.44.44a.25.25 0 0 0 .354-.354l-.44-.44.522-.522c.181.328.272.723.262 1.173-.021 1.014-.789 1.994-1.795 2.319zM6.471 42.149c-1.669 1.294-1.656 4.292.29 5.383 2.237 1.254 5.122-.496 5.179-3.017.067-2.954-3.184-4.137-5.469-2.366zm.825 4.531.573-.573.808.808a2.395 2.395 0 0 1-1.381-.235zm1.508-1.509.641.641-.54.539c-.016.016-.014.04-.025.059l-.658-.658zm.378 1.628c-.002-.019-.015-.035-.022-.053.034-.012.072-.014.099-.041l.54-.539.034.034c.102.102.198.082.298.023a2.6 2.6 0 0 1-.949.576zm1.033-.666c.049-.094.051-.207-.028-.286l-.034-.034.341-.341a.25.25 0 1 0-.354-.354l-.341.341-.641-.641.237-.237a.25.25 0 1 0-.354-.354l-1.172 1.172-.559-.559a.25.25 0 1 0-.354.354l.559.559-.631.631c-.921-.892-.805-2.665.199-3.444.85-.659 1.98-.786 2.811-.368.156.079.29.179.412.29l-.346.333-.424-.424c-.232-.232-.588.119-.354.354l1.214 1.214a.25.25 0 0 0 .354-.354l-.44-.44.305-.305c.216.344.335.763.324 1.254-.012.602-.293 1.19-.724 1.639zM41.925 33.617l-.624.623-1.177-1.177.373-.373a.25.25 0 1 0-.354-.354l-.373.373-.353-.353a.25.25 0 1 0-.354.354l.353.353-.912.912-.442-.442a.25.25 0 1 0-.354.354l.442.442-.588.588-1.03-1.03a.25.25 0 1 0-.354.354l1.03 1.03-2.678 2.678a.25.25 0 1 0 .354.354l2.678-2.678 1.177 1.177-.5.5a.25.25 0 1 0 .354.354l.5-.5.736.736a.25.25 0 0 0 .354-.354l-.736-.736.588-.588.592.592a.25.25 0 0 0 .354-.354l-.591-.592.912-.912.034.034a.25.25 0 0 0 .354-.354l-.034-.034.624-.624a.25.25 0 1 0-.355-.353zm-2.831 2.831-1.177-1.177.588-.588 1.177 1.177zm.942-.942-1.177-1.177.912-.912 1.177 1.177zM53.691 35.448l-.853.853-1.118-1.118a.25.25 0 1 0-.354.354l1.118 1.118-1.824 1.825a.25.25 0 1 0 .354.354l1.824-1.825 1.265 1.265-.559.559a.25.25 0 1 0 .354.354l.559-.559.837.837a.25.25 0 0 0 .354-.354l-.837-.837.853-.853.894.894a.25.25 0 0 0 .354-.354l-.894-.894 1.452-1.452a.25.25 0 1 0-.354-.354l-1.452 1.452-1.265-1.265 1.177-1.177a.25.25 0 1 0-.354-.354l-1.177 1.177-.912-.912a.25.25 0 1 0-.354.354zm1.619 1.618-.853.853-1.265-1.265.853-.853zM55.236 48.798l.612-.612a.25.25 0 1 0-.354-.354l-.612.612-.788-.788a.25.25 0 1 0-.354.354l.788.788-.823.823-.758-.758a.25.25 0 1 0-.354.354l.758.758-1.154 1.154-1.361-1.361a.25.25 0 1 0-.354.354l1.361 1.361-1.12 1.12a.25.25 0 1 0 .354.354l1.12-1.12 1.223 1.223a.25.25 0 0 0 .354-.354l-.049-.049c.002-.002.004-.001.006-.002l1.15-1.15.068.068a.25.25 0 0 0 .354-.354l-.068-.068.795-.795c.011-.011.008-.026.016-.038l.173.173a.25.25 0 0 0 .354-.354zM53.379 52.3c-.002.002-.001.004-.002.006l-.824-.824 1.154-1.154.823.822zm2.299-2.298-.795.795-.823-.822.823-.823.833.834c-.011.008-.027.005-.038.016zM42.843 49.734l.368-.368a.25.25 0 1 0-.354-.354l-.367.368-.853-.853.427-.427a.25.25 0 1 0-.354-.354l-.427.427-.939-.939a.25.25 0 1 0-.354.354l.939.939-1.154 1.154-2.085-2.085a.25.25 0 1 0-.354.354l2.085 2.085-1.24 1.24a.25.25 0 1 0 .354.354l1.24-1.24.853.853-.336.336a.25.25 0 1 0 .354.354l.336-.336 1.001 1.001a.25.25 0 0 0 .354-.354l-1.001-1.001 1.154-1.154.412.412a.25.25 0 0 0 .354-.354zm-1.861 1.153-.853-.853 1.154-1.154.853.853z" data-original="#000000" class=""></path></g></svg>