<svg width="1794" height="711" viewBox="0 0 1794 711" fill="none" xmlns="http://www.w3.org/2000/svg">
<path d="M1500.5 35V41.99" stroke="#F2F3F9" stroke-opacity="0.3" stroke-width="3.8861" stroke-miterlimit="10" stroke-linecap="round" stroke-linejoin="round"/>
<path d="M1497 38.5H1503.99" stroke="#F2F3F9" stroke-opacity="0.3" stroke-width="3.8861" stroke-miterlimit="10" stroke-linecap="round" stroke-linejoin="round"/>
<path d="M909.171 497.761L903.648 507.065" stroke="#F2F3F9" stroke-opacity="0.3" stroke-width="3.8861" stroke-miterlimit="10" stroke-linecap="round" stroke-linejoin="round"/>
<path d="M901.757 499.651L911.053 505.169" stroke="#F2F3F9" stroke-opacity="0.3" stroke-width="3.8861" stroke-miterlimit="10" stroke-linecap="round" stroke-linejoin="round"/>
<path d="M1513.85 147V152.7" stroke="#F2F3F9" stroke-opacity="0.3" stroke-width="3.8861" stroke-miterlimit="10" stroke-linecap="round" stroke-linejoin="round"/>
<path d="M1511 149.85H1516.7" stroke="#F2F3F9" stroke-opacity="0.3" stroke-width="3.8861" stroke-miterlimit="10" stroke-linecap="round" stroke-linejoin="round"/>
<path d="M80.85 455V460.7" stroke="#F2F3F9" stroke-opacity="0.3" stroke-width="3.8861" stroke-miterlimit="10" stroke-linecap="round" stroke-linejoin="round"/>
<path d="M78 457.85H83.7" stroke="#F2F3F9" stroke-opacity="0.3" stroke-width="3.8861" stroke-miterlimit="10" stroke-linecap="round" stroke-linejoin="round"/>
<path d="M1722 11.83C1722 17.26 1726.4 21.66 1731.83 21.66C1737.26 21.66 1741.66 17.26 1741.66 11.83C1741.66 6.39999 1737.26 2 1731.83 2C1726.4 2 1722 6.39999 1722 11.83Z" stroke="#F2F3F9" stroke-opacity="0.3" stroke-width="3.8861" stroke-miterlimit="10" stroke-linecap="round" stroke-linejoin="round"/>
<path d="M1663.38 189.76V181" stroke="#F2F3F9" stroke-opacity="0.3" stroke-width="3.8861" stroke-miterlimit="10" stroke-linecap="round" stroke-linejoin="round"/>
<path d="M1667.76 185.38H1659" stroke="#F2F3F9" stroke-opacity="0.3" stroke-width="3.8861" stroke-miterlimit="10" stroke-linecap="round" stroke-linejoin="round"/>
<path d="M6.38 87.76V79" stroke="#F2F3F9" stroke-opacity="0.3" stroke-width="3.8861" stroke-miterlimit="10" stroke-linecap="round" stroke-linejoin="round"/>
<path d="M10.76 83.3799H2" stroke="#F2F3F9" stroke-opacity="0.3" stroke-width="3.8861" stroke-miterlimit="10" stroke-linecap="round" stroke-linejoin="round"/>
<path d="M1697.91 704.907C1701.02 701.794 1701.02 696.748 1697.91 693.636C1694.79 690.523 1689.75 690.523 1686.64 693.636C1683.52 696.748 1683.52 701.794 1686.64 704.907C1689.75 708.019 1694.79 708.019 1697.91 704.907Z" stroke="#F2F3F9" stroke-opacity="0.3" stroke-width="3.8861" stroke-miterlimit="10" stroke-linecap="round" stroke-linejoin="round"/>
<path d="M1641.41 371V381.82" stroke="#F2F3F9" stroke-opacity="0.3" stroke-width="3.8861" stroke-miterlimit="10" stroke-linecap="round" stroke-linejoin="round"/>
<path d="M1636 376.41H1646.82" stroke="#F2F3F9" stroke-opacity="0.3" stroke-width="3.8861" stroke-miterlimit="10" stroke-linecap="round" stroke-linejoin="round"/>
<path d="M946.868 90.73V101" stroke="#F2F3F9" stroke-width="3.8861" stroke-miterlimit="10" stroke-linecap="round" stroke-linejoin="round"/>
<path d="M941.73 95.8684H952" stroke="#F2F3F9" stroke-width="3.8861" stroke-miterlimit="10" stroke-linecap="round" stroke-linejoin="round"/>
<path d="M281 611.5C281 610.672 280.328 610 279.5 610C278.672 610 278 610.672 278 611.5C278 612.328 278.672 613 279.5 613C280.328 613 281 612.328 281 611.5Z" stroke="#F2F3F9" stroke-opacity="0.3" stroke-width="0.89" stroke-miterlimit="10" stroke-linecap="round" stroke-linejoin="round"/>
</svg>
