<svg xmlns="http://www.w3.org/2000/svg" xmlns:xlink="http://www.w3.org/1999/xlink" viewBox="0 0 444 422">
  <defs>
    <path id="s" d="M0 422V0h443v422z" clip-rule="evenodd"/>
    <path id="u" fill="none" d="M0 0h444v422H0z"/>
    <path id="bW" d="m265 369 9 2c3 0 6-1 8-3 1-2 2-5 4-6 2-3 6-2 10-2l1-1v-2l-4-5 5-1c-1-3-3-6-6-8l2-1v-3c-2-4-6-7-10-8-4-2-9-1-13 1z" clip-path="url(#a)"/>
    <path id="bX" d="M267 369c-4 3-9 3-12 0-3-1-4-4-6-7-1-2-3-4-6-5h-7c-3-1-4-4-5-6l1-8c-1-1-3-2-5-1l4-5 3-2 1-4c0-3 3-5 6-4l4 2s-1-2 1-4c2 0 3 1 4 3z" clip-path="url(#b)"/>
    <path id="bY" fill="#BD6D6F" d="M284 348c1 10-5 18-14 20h-1c-10 1-17-6-18-16l-6-46 22-4 3 15s9-1 11 9l3 22z" clip-path="url(#c)"/>
    <path id="bZ" d="m279 342-1-1c-1 0-2 1-1 2l1 1 1-2z" clip-path="url(#d)"/>
    <path id="ca" d="m281 344-2 1h-3l1 1a4 4 0 0 0 4-1v-1z" clip-path="url(#e)"/>
    <path id="cb" d="m266 343-2 1h-3l1 1a4 4 0 0 0 4-1v-1z" clip-path="url(#f)"/>
    <path id="cc" d="M270 335h4v1l-1 3-1 8 2-8v-4l-1-1-3 1z" clip-path="url(#g)"/>
    <path id="cd" d="m266 335 1-3c1-2 3-2 3-2h-1l-3 1-1 3 1 1z" clip-path="url(#h)"/>
    <path id="ce" d="M268 350h-7l1 1 2 1 3-1 1-1z" clip-path="url(#i)"/>
    <path id="cf" d="M282 350h-3l-3 1 1 1h3l2-1v-1z" clip-path="url(#j)"/>
    <path id="cg" fill="#BD6D6F" d="M251 344s-6 4-7-3c-1-6 6-6 6-6l1 9z" clip-path="url(#k)"/>
    <path id="ch" fill="#B33C3B" d="M249 338h-1l-1 2 1 2 1 1v-1 1l-2-1v-2c-1-1 0-2 1-3h1v1z" clip-path="url(#l)"/>
    <path id="ci" d="m261 363 5-2 1-1 17-5c4 2 2 6-1 7-4 3-8 6-13 7-4 1-12 0-16-5l-3-4-2-15 1-4c2 0 3 1 3 3v5s6 3 5 10c-1 2 1 4 3 4z" clip-path="url(#m)"/>
    <path id="cj" d="M258 361c1 2 4 3 6 2l5-5c1-1 3-3 5-3h6l3-2h4l4 2c-4 1-8 3-11 6-4 2-7 5-11 6s-9-1-11-4z" clip-path="url(#n)"/>
    <path id="ck" fill="#00313C" d="M235 335h3l1 2-1 4-2 4 1 5 2 2h3l7 1 2 1 1 3 1 6v3l2 2h5l3-2a16 16 0 0 0 3-3l1-1-1 1a1600 1600 0 0 1-6 5l-5-1-2-4v-6l-2-3-2-2h-9l-3-2v-5l1-4 1-4-1-2h-3z" clip-path="url(#o)"/>
    <path id="cl" fill="#00313C" d="M291 359v-1h-1l-3-1-5 3-1 2-2 3c-1 2-3 3-5 3l-4-2-2-3v-1 1a6 6 0 0 0 6 5c2 0 5-1 6-3l1-3 2-2 4-2h3l1 1z" clip-path="url(#p)"/>
    <path id="cm" d="M244 360v1l-2 1-1-1 1-3h3l3 2 1 3 2 3 2 3a10 10 0 0 0 11 1h-1l-4 1a10 10 0 0 1-8-5l-1-3-2-4-3-2-3 1c-1 1-2 2-1 3l1 1h1l1-1v-1z" clip-path="url(#q)"/>
    <path id="cq" fill="#B33C3B" d="M270 317s-6 0-12 6c0 0 2-8 11-9l1 3z" clip-path="url(#r)"/>
  </defs>
  <defs>
    <clipPath id="t">
      <path d="M0 0h444v422H0z" clip-rule="evenodd"/>
    </clipPath>
    <clipPath id="v">
      <use xlink:href="#s" clip-rule="evenodd"/>
    </clipPath>
    <clipPath id="w">
      <use xlink:href="#s" clip-rule="evenodd"/>
    </clipPath>
    <clipPath id="x">
      <use xlink:href="#s" clip-rule="evenodd"/>
    </clipPath>
    <clipPath id="y">
      <use xlink:href="#s" clip-rule="evenodd"/>
    </clipPath>
    <clipPath id="z">
      <use xlink:href="#s" clip-rule="evenodd"/>
    </clipPath>
    <clipPath id="A">
      <use xlink:href="#s" clip-rule="evenodd"/>
    </clipPath>
    <clipPath id="B">
      <use xlink:href="#s" clip-rule="evenodd"/>
    </clipPath>
    <clipPath id="C">
      <use xlink:href="#s" clip-rule="evenodd"/>
    </clipPath>
    <clipPath id="D">
      <use xlink:href="#s" clip-rule="evenodd"/>
    </clipPath>
    <clipPath id="E">
      <use xlink:href="#s" clip-rule="evenodd"/>
    </clipPath>
    <clipPath id="F">
      <use xlink:href="#s" clip-rule="evenodd"/>
    </clipPath>
    <clipPath id="G">
      <use xlink:href="#s" clip-rule="evenodd"/>
    </clipPath>
    <clipPath id="H">
      <use xlink:href="#s" clip-rule="evenodd"/>
    </clipPath>
    <clipPath id="I">
      <use xlink:href="#s" clip-rule="evenodd"/>
    </clipPath>
    <clipPath id="J">
      <use xlink:href="#s" clip-rule="evenodd"/>
    </clipPath>
    <clipPath id="K">
      <use xlink:href="#s" clip-rule="evenodd"/>
    </clipPath>
    <clipPath id="L">
      <use xlink:href="#s" clip-rule="evenodd"/>
    </clipPath>
    <clipPath id="M">
      <use xlink:href="#s" clip-rule="evenodd"/>
    </clipPath>
    <clipPath id="N">
      <use xlink:href="#s" clip-rule="evenodd"/>
    </clipPath>
    <clipPath id="O">
      <use xlink:href="#s" clip-rule="evenodd"/>
    </clipPath>
    <clipPath id="P">
      <use xlink:href="#s" clip-rule="evenodd"/>
    </clipPath>
    <clipPath id="Q">
      <use xlink:href="#s" clip-rule="evenodd"/>
    </clipPath>
    <clipPath id="R">
      <use xlink:href="#s" clip-rule="evenodd"/>
    </clipPath>
    <clipPath id="S">
      <use xlink:href="#s" clip-rule="evenodd"/>
    </clipPath>
    <clipPath id="T">
      <use xlink:href="#s" clip-rule="evenodd"/>
    </clipPath>
    <clipPath id="U">
      <use xlink:href="#s" clip-rule="evenodd"/>
    </clipPath>
    <clipPath id="V">
      <use xlink:href="#s" clip-rule="evenodd"/>
    </clipPath>
    <clipPath id="W">
      <use xlink:href="#s" clip-rule="evenodd"/>
    </clipPath>
    <clipPath id="X">
      <use xlink:href="#s" clip-rule="evenodd"/>
    </clipPath>
    <clipPath id="Y">
      <use xlink:href="#s" clip-rule="evenodd"/>
    </clipPath>
    <clipPath id="Z">
      <use xlink:href="#s" clip-rule="evenodd"/>
    </clipPath>
    <clipPath id="aa">
      <use xlink:href="#s" clip-rule="evenodd"/>
    </clipPath>
    <clipPath id="ab">
      <use xlink:href="#s" clip-rule="evenodd"/>
    </clipPath>
    <clipPath id="ac">
      <use xlink:href="#s" clip-rule="evenodd"/>
    </clipPath>
    <clipPath id="ad">
      <use xlink:href="#s" clip-rule="evenodd"/>
    </clipPath>
    <clipPath id="ae">
      <use xlink:href="#s" clip-rule="evenodd"/>
    </clipPath>
    <clipPath id="af">
      <use xlink:href="#s" clip-rule="evenodd"/>
    </clipPath>
    <clipPath id="ag">
      <use xlink:href="#s" clip-rule="evenodd"/>
    </clipPath>
    <clipPath id="ah">
      <use xlink:href="#s" clip-rule="evenodd"/>
    </clipPath>
    <clipPath id="ai">
      <use xlink:href="#s" clip-rule="evenodd"/>
    </clipPath>
    <clipPath id="aj">
      <use xlink:href="#s" clip-rule="evenodd"/>
    </clipPath>
    <clipPath id="ak">
      <use xlink:href="#s" clip-rule="evenodd"/>
    </clipPath>
    <clipPath id="al">
      <use xlink:href="#s" clip-rule="evenodd"/>
    </clipPath>
    <clipPath id="am">
      <use xlink:href="#s" clip-rule="evenodd"/>
    </clipPath>
    <clipPath id="an">
      <use xlink:href="#s" clip-rule="evenodd"/>
    </clipPath>
    <clipPath id="ao">
      <use xlink:href="#s" clip-rule="evenodd"/>
    </clipPath>
    <clipPath id="ap">
      <use xlink:href="#s" clip-rule="evenodd"/>
    </clipPath>
    <clipPath id="aq">
      <use xlink:href="#s" clip-rule="evenodd"/>
    </clipPath>
    <clipPath id="ar">
      <use xlink:href="#s" clip-rule="evenodd"/>
    </clipPath>
    <clipPath id="as">
      <use xlink:href="#s" clip-rule="evenodd"/>
    </clipPath>
    <clipPath id="at">
      <use xlink:href="#s" clip-rule="evenodd"/>
    </clipPath>
    <clipPath id="au">
      <use xlink:href="#s" clip-rule="evenodd"/>
    </clipPath>
    <clipPath id="av">
      <use xlink:href="#s" clip-rule="evenodd"/>
    </clipPath>
    <clipPath id="aw">
      <use xlink:href="#s" clip-rule="evenodd"/>
    </clipPath>
    <clipPath id="ax">
      <use xlink:href="#s" clip-rule="evenodd"/>
    </clipPath>
    <clipPath id="ay">
      <use xlink:href="#s" clip-rule="evenodd"/>
    </clipPath>
    <clipPath id="az">
      <use xlink:href="#s" clip-rule="evenodd"/>
    </clipPath>
    <clipPath id="aA">
      <use xlink:href="#s" clip-rule="evenodd"/>
    </clipPath>
    <clipPath id="aB">
      <use xlink:href="#s" clip-rule="evenodd"/>
    </clipPath>
    <clipPath id="aC">
      <use xlink:href="#s" clip-rule="evenodd"/>
    </clipPath>
    <clipPath id="aD">
      <use xlink:href="#s" clip-rule="evenodd"/>
    </clipPath>
    <clipPath id="aE">
      <use xlink:href="#s" clip-rule="evenodd"/>
    </clipPath>
    <clipPath id="aF">
      <use xlink:href="#s" clip-rule="evenodd"/>
    </clipPath>
    <clipPath id="aG">
      <use xlink:href="#s" clip-rule="evenodd"/>
    </clipPath>
    <clipPath id="aH">
      <use xlink:href="#s" clip-rule="evenodd"/>
    </clipPath>
    <clipPath id="aI">
      <use xlink:href="#s" clip-rule="evenodd"/>
    </clipPath>
    <clipPath id="aJ">
      <use xlink:href="#s" clip-rule="evenodd"/>
    </clipPath>
    <clipPath id="aK">
      <use xlink:href="#s" clip-rule="evenodd"/>
    </clipPath>
    <clipPath id="aL">
      <use xlink:href="#s" clip-rule="evenodd"/>
    </clipPath>
    <clipPath id="aM">
      <use xlink:href="#s" clip-rule="evenodd"/>
    </clipPath>
    <clipPath id="aN">
      <use xlink:href="#s" clip-rule="evenodd"/>
    </clipPath>
    <clipPath id="aO">
      <use xlink:href="#s" clip-rule="evenodd"/>
    </clipPath>
    <clipPath id="aP">
      <use xlink:href="#s" clip-rule="evenodd"/>
    </clipPath>
    <clipPath id="aQ">
      <use xlink:href="#s" clip-rule="evenodd"/>
    </clipPath>
    <clipPath id="aR">
      <use xlink:href="#s" clip-rule="evenodd"/>
    </clipPath>
    <clipPath id="aS">
      <use xlink:href="#s" clip-rule="evenodd"/>
    </clipPath>
    <clipPath id="aT">
      <use xlink:href="#s" clip-rule="evenodd"/>
    </clipPath>
    <clipPath id="aU">
      <use xlink:href="#s" clip-rule="evenodd"/>
    </clipPath>
    <clipPath id="aV">
      <use xlink:href="#s" clip-rule="evenodd"/>
    </clipPath>
    <clipPath id="aW">
      <use xlink:href="#s" clip-rule="evenodd"/>
    </clipPath>
    <clipPath id="aX">
      <use xlink:href="#s" clip-rule="evenodd"/>
    </clipPath>
    <clipPath id="aY">
      <use xlink:href="#s" clip-rule="evenodd"/>
    </clipPath>
    <clipPath id="aZ">
      <use xlink:href="#s" clip-rule="evenodd"/>
    </clipPath>
    <clipPath id="ba">
      <use xlink:href="#s" clip-rule="evenodd"/>
    </clipPath>
    <clipPath id="bb">
      <use xlink:href="#s" clip-rule="evenodd"/>
    </clipPath>
    <clipPath id="bc">
      <use xlink:href="#s" clip-rule="evenodd"/>
    </clipPath>
    <clipPath id="bd">
      <use xlink:href="#s" clip-rule="evenodd"/>
    </clipPath>
    <clipPath id="be">
      <use xlink:href="#s" clip-rule="evenodd"/>
    </clipPath>
    <clipPath id="bf">
      <use xlink:href="#s" clip-rule="evenodd"/>
    </clipPath>
    <clipPath id="bg">
      <use xlink:href="#s" clip-rule="evenodd"/>
    </clipPath>
    <clipPath id="bh">
      <use xlink:href="#s" clip-rule="evenodd"/>
    </clipPath>
    <clipPath id="bi">
      <use xlink:href="#s" clip-rule="evenodd"/>
    </clipPath>
    <clipPath id="bj">
      <use xlink:href="#s" clip-rule="evenodd"/>
    </clipPath>
    <clipPath id="bk">
      <use xlink:href="#s" clip-rule="evenodd"/>
    </clipPath>
    <clipPath id="bl">
      <use xlink:href="#s" clip-rule="evenodd"/>
    </clipPath>
    <clipPath id="bm">
      <use xlink:href="#s" clip-rule="evenodd"/>
    </clipPath>
    <clipPath id="bn">
      <use xlink:href="#s" clip-rule="evenodd"/>
    </clipPath>
    <clipPath id="bo">
      <use xlink:href="#s" clip-rule="evenodd"/>
    </clipPath>
    <clipPath id="bp">
      <use xlink:href="#s" clip-rule="evenodd"/>
    </clipPath>
    <clipPath id="bq">
      <use xlink:href="#s" clip-rule="evenodd"/>
    </clipPath>
    <clipPath id="br">
      <use xlink:href="#s" clip-rule="evenodd"/>
    </clipPath>
    <clipPath id="bs">
      <use xlink:href="#s" clip-rule="evenodd"/>
    </clipPath>
    <clipPath id="bt">
      <use xlink:href="#s" clip-rule="evenodd"/>
    </clipPath>
    <clipPath id="bu">
      <use xlink:href="#s" clip-rule="evenodd"/>
    </clipPath>
    <clipPath id="bv">
      <use xlink:href="#s" clip-rule="evenodd"/>
    </clipPath>
    <clipPath id="bw">
      <use xlink:href="#s" clip-rule="evenodd"/>
    </clipPath>
    <clipPath id="bx">
      <use xlink:href="#s" clip-rule="evenodd"/>
    </clipPath>
    <clipPath id="by">
      <use xlink:href="#s" clip-rule="evenodd"/>
    </clipPath>
    <clipPath id="bz">
      <use xlink:href="#s" clip-rule="evenodd"/>
    </clipPath>
    <clipPath id="bA">
      <use xlink:href="#s" clip-rule="evenodd"/>
    </clipPath>
    <clipPath id="bB">
      <use xlink:href="#s" clip-rule="evenodd"/>
    </clipPath>
    <clipPath id="bC">
      <use xlink:href="#s" clip-rule="evenodd"/>
    </clipPath>
    <clipPath id="bD">
      <use xlink:href="#s" clip-rule="evenodd"/>
    </clipPath>
    <clipPath id="bE">
      <use xlink:href="#s" clip-rule="evenodd"/>
    </clipPath>
    <clipPath id="bF">
      <use xlink:href="#s" clip-rule="evenodd"/>
    </clipPath>
    <clipPath id="bG">
      <use xlink:href="#s" clip-rule="evenodd"/>
    </clipPath>
    <clipPath id="bH">
      <use xlink:href="#s" clip-rule="evenodd"/>
    </clipPath>
    <clipPath id="bI">
      <use xlink:href="#s" clip-rule="evenodd"/>
    </clipPath>
    <clipPath id="bJ">
      <use xlink:href="#s" clip-rule="evenodd"/>
    </clipPath>
    <clipPath id="bK">
      <use xlink:href="#s" clip-rule="evenodd"/>
    </clipPath>
    <clipPath id="bL">
      <use xlink:href="#s" clip-rule="evenodd"/>
    </clipPath>
    <clipPath id="bM">
      <use xlink:href="#s" clip-rule="evenodd"/>
    </clipPath>
    <clipPath id="bN">
      <use xlink:href="#s" clip-rule="evenodd"/>
    </clipPath>
    <clipPath id="bO">
      <use xlink:href="#s" clip-rule="evenodd"/>
    </clipPath>
    <clipPath id="bP">
      <use xlink:href="#s" clip-rule="evenodd"/>
    </clipPath>
    <clipPath id="bQ">
      <use xlink:href="#s" clip-rule="evenodd"/>
    </clipPath>
    <clipPath id="bR">
      <use xlink:href="#s" clip-rule="evenodd"/>
    </clipPath>
    <clipPath id="bS">
      <use xlink:href="#s" clip-rule="evenodd"/>
    </clipPath>
    <clipPath id="bT">
      <use xlink:href="#s" clip-rule="evenodd"/>
    </clipPath>
    <clipPath id="bU">
      <use xlink:href="#s" clip-rule="evenodd"/>
    </clipPath>
    <clipPath id="bV">
      <use xlink:href="#s" clip-rule="evenodd"/>
    </clipPath>
    <clipPath id="a">
      <use xlink:href="#s" clip-rule="evenodd"/>
    </clipPath>
    <clipPath id="b">
      <use xlink:href="#s" clip-rule="evenodd"/>
    </clipPath>
    <clipPath id="c">
      <use xlink:href="#s" clip-rule="evenodd"/>
    </clipPath>
    <clipPath id="d">
      <use xlink:href="#s" clip-rule="evenodd"/>
    </clipPath>
    <clipPath id="e">
      <use xlink:href="#s" clip-rule="evenodd"/>
    </clipPath>
    <clipPath id="f">
      <use xlink:href="#s" clip-rule="evenodd"/>
    </clipPath>
    <clipPath id="g">
      <use xlink:href="#s" clip-rule="evenodd"/>
    </clipPath>
    <clipPath id="h">
      <use xlink:href="#s" clip-rule="evenodd"/>
    </clipPath>
    <clipPath id="i">
      <use xlink:href="#s" clip-rule="evenodd"/>
    </clipPath>
    <clipPath id="j">
      <use xlink:href="#s" clip-rule="evenodd"/>
    </clipPath>
    <clipPath id="k">
      <use xlink:href="#s" clip-rule="evenodd"/>
    </clipPath>
    <clipPath id="l">
      <use xlink:href="#s" clip-rule="evenodd"/>
    </clipPath>
    <clipPath id="m">
      <use xlink:href="#s" clip-rule="evenodd"/>
    </clipPath>
    <clipPath id="n">
      <use xlink:href="#s" clip-rule="evenodd"/>
    </clipPath>
    <clipPath id="o">
      <use xlink:href="#s" clip-rule="evenodd"/>
    </clipPath>
    <clipPath id="p">
      <use xlink:href="#s" clip-rule="evenodd"/>
    </clipPath>
    <clipPath id="q">
      <use xlink:href="#s" clip-rule="evenodd"/>
    </clipPath>
    <clipPath id="cn">
      <use xlink:href="#s" clip-rule="evenodd"/>
    </clipPath>
    <clipPath id="co">
      <use xlink:href="#s" clip-rule="evenodd"/>
    </clipPath>
    <clipPath id="cp">
      <use xlink:href="#s" clip-rule="evenodd"/>
    </clipPath>
    <clipPath id="r">
      <use xlink:href="#s" clip-rule="evenodd"/>
    </clipPath>
    <clipPath id="cr">
      <use xlink:href="#s" clip-rule="evenodd"/>
    </clipPath>
    <clipPath id="cs">
      <use xlink:href="#s" clip-rule="evenodd"/>
    </clipPath>
    <clipPath id="ct">
      <use xlink:href="#s" clip-rule="evenodd"/>
    </clipPath>
    <clipPath id="cu">
      <use xlink:href="#s" clip-rule="evenodd"/>
    </clipPath>
    <clipPath id="cv">
      <use xlink:href="#s" clip-rule="evenodd"/>
    </clipPath>
    <clipPath id="cw">
      <use xlink:href="#s" clip-rule="evenodd"/>
    </clipPath>
    <clipPath id="cx">
      <use xlink:href="#s" clip-rule="evenodd"/>
    </clipPath>
    <clipPath id="cy">
      <use xlink:href="#s" clip-rule="evenodd"/>
    </clipPath>
    <clipPath id="cz">
      <use xlink:href="#s" clip-rule="evenodd"/>
    </clipPath>
    <clipPath id="cA">
      <use xlink:href="#s" clip-rule="evenodd"/>
    </clipPath>
    <clipPath id="cB">
      <use xlink:href="#s" clip-rule="evenodd"/>
    </clipPath>
    <clipPath id="cC">
      <use xlink:href="#s" clip-rule="evenodd"/>
    </clipPath>
    <clipPath id="cD">
      <use xlink:href="#s" clip-rule="evenodd"/>
    </clipPath>
    <clipPath id="cE">
      <use xlink:href="#s" clip-rule="evenodd"/>
    </clipPath>
    <clipPath id="cF">
      <use xlink:href="#s" clip-rule="evenodd"/>
    </clipPath>
    <clipPath id="cG">
      <use xlink:href="#s" clip-rule="evenodd"/>
    </clipPath>
    <clipPath id="cH">
      <use xlink:href="#s" clip-rule="evenodd"/>
    </clipPath>
    <clipPath id="cI">
      <use xlink:href="#s" clip-rule="evenodd"/>
    </clipPath>
    <clipPath id="cJ">
      <use xlink:href="#s" clip-rule="evenodd"/>
    </clipPath>
    <clipPath id="cK">
      <use xlink:href="#s" clip-rule="evenodd"/>
    </clipPath>
    <clipPath id="cL">
      <use xlink:href="#s" clip-rule="evenodd"/>
    </clipPath>
    <clipPath id="cM">
      <use xlink:href="#s" clip-rule="evenodd"/>
    </clipPath>
    <clipPath id="cN">
      <use xlink:href="#s" clip-rule="evenodd"/>
    </clipPath>
    <clipPath id="cO">
      <use xlink:href="#s" clip-rule="evenodd"/>
    </clipPath>
    <clipPath id="cP">
      <use xlink:href="#s" clip-rule="evenodd"/>
    </clipPath>
    <clipPath id="cQ">
      <use xlink:href="#s" clip-rule="evenodd"/>
    </clipPath>
    <clipPath id="cR">
      <use xlink:href="#s" clip-rule="evenodd"/>
    </clipPath>
    <clipPath id="cS">
      <use xlink:href="#s" clip-rule="evenodd"/>
    </clipPath>
    <clipPath id="cT">
      <use xlink:href="#s" clip-rule="evenodd"/>
    </clipPath>
    <clipPath id="cU">
      <use xlink:href="#s" clip-rule="evenodd"/>
    </clipPath>
    <clipPath id="cV">
      <use xlink:href="#s" clip-rule="evenodd"/>
    </clipPath>
    <clipPath id="cW">
      <use xlink:href="#s" clip-rule="evenodd"/>
    </clipPath>
    <clipPath id="cX">
      <use xlink:href="#s" clip-rule="evenodd"/>
    </clipPath>
    <clipPath id="cY">
      <use xlink:href="#s" clip-rule="evenodd"/>
    </clipPath>
    <clipPath id="cZ">
      <use xlink:href="#s" clip-rule="evenodd"/>
    </clipPath>
    <clipPath id="da">
      <use xlink:href="#s" clip-rule="evenodd"/>
    </clipPath>
    <clipPath id="db">
      <use xlink:href="#s" clip-rule="evenodd"/>
    </clipPath>
    <clipPath id="dc">
      <use xlink:href="#s" clip-rule="evenodd"/>
    </clipPath>
    <clipPath id="dd">
      <use xlink:href="#s" clip-rule="evenodd"/>
    </clipPath>
    <clipPath id="de">
      <use xlink:href="#s" clip-rule="evenodd"/>
    </clipPath>
    <clipPath id="df">
      <use xlink:href="#s" clip-rule="evenodd"/>
    </clipPath>
    <clipPath id="dg">
      <use xlink:href="#s" clip-rule="evenodd"/>
    </clipPath>
    <clipPath id="dh">
      <use xlink:href="#s" clip-rule="evenodd"/>
    </clipPath>
    <clipPath id="di">
      <use xlink:href="#s" clip-rule="evenodd"/>
    </clipPath>
    <clipPath id="dj">
      <use xlink:href="#s" clip-rule="evenodd"/>
    </clipPath>
    <clipPath id="dk">
      <use xlink:href="#s" clip-rule="evenodd"/>
    </clipPath>
    <clipPath id="dl">
      <use xlink:href="#s" clip-rule="evenodd"/>
    </clipPath>
    <clipPath id="dm">
      <use xlink:href="#s" clip-rule="evenodd"/>
    </clipPath>
    <clipPath id="dn">
      <use xlink:href="#s" clip-rule="evenodd"/>
    </clipPath>
    <clipPath id="do">
      <use xlink:href="#s" clip-rule="evenodd"/>
    </clipPath>
    <clipPath id="dp">
      <use xlink:href="#s" clip-rule="evenodd"/>
    </clipPath>
    <clipPath id="dq">
      <use xlink:href="#s" clip-rule="evenodd"/>
    </clipPath>
    <clipPath id="dr">
      <use xlink:href="#s" clip-rule="evenodd"/>
    </clipPath>
    <clipPath id="ds">
      <use xlink:href="#s" clip-rule="evenodd"/>
    </clipPath>
    <clipPath id="dt">
      <use xlink:href="#s" clip-rule="evenodd"/>
    </clipPath>
    <clipPath id="du">
      <use xlink:href="#s" clip-rule="evenodd"/>
    </clipPath>
    <clipPath id="dv">
      <use xlink:href="#s" clip-rule="evenodd"/>
    </clipPath>
    <clipPath id="dw">
      <use xlink:href="#s" clip-rule="evenodd"/>
    </clipPath>
    <clipPath id="dx">
      <use xlink:href="#s" clip-rule="evenodd"/>
    </clipPath>
    <clipPath id="dy">
      <use xlink:href="#s" clip-rule="evenodd"/>
    </clipPath>
    <clipPath id="dz">
      <use xlink:href="#s" clip-rule="evenodd"/>
    </clipPath>
    <clipPath id="dA">
      <use xlink:href="#s" clip-rule="evenodd"/>
    </clipPath>
    <clipPath id="dB">
      <use xlink:href="#s" clip-rule="evenodd"/>
    </clipPath>
    <clipPath id="dC">
      <use xlink:href="#s" clip-rule="evenodd"/>
    </clipPath>
    <clipPath id="dD">
      <use xlink:href="#s" clip-rule="evenodd"/>
    </clipPath>
    <clipPath id="dE">
      <use xlink:href="#s" clip-rule="evenodd"/>
    </clipPath>
    <clipPath id="dF">
      <use xlink:href="#s" clip-rule="evenodd"/>
    </clipPath>
    <clipPath id="dG">
      <use xlink:href="#s" clip-rule="evenodd"/>
    </clipPath>
    <clipPath id="dH">
      <use xlink:href="#s" clip-rule="evenodd"/>
    </clipPath>
    <clipPath id="dI">
      <use xlink:href="#s" clip-rule="evenodd"/>
    </clipPath>
    <clipPath id="dJ">
      <use xlink:href="#s" clip-rule="evenodd"/>
    </clipPath>
    <clipPath id="dK">
      <use xlink:href="#s" clip-rule="evenodd"/>
    </clipPath>
    <clipPath id="dL">
      <use xlink:href="#s" clip-rule="evenodd"/>
    </clipPath>
    <clipPath id="dM">
      <use xlink:href="#s" clip-rule="evenodd"/>
    </clipPath>
    <clipPath id="dN">
      <use xlink:href="#s" clip-rule="evenodd"/>
    </clipPath>
    <clipPath id="dO">
      <use xlink:href="#s" clip-rule="evenodd"/>
    </clipPath>
    <clipPath id="dP">
      <use xlink:href="#s" clip-rule="evenodd"/>
    </clipPath>
    <clipPath id="dQ">
      <use xlink:href="#s" clip-rule="evenodd"/>
    </clipPath>
    <clipPath id="dR">
      <use xlink:href="#s" clip-rule="evenodd"/>
    </clipPath>
  </defs>
  <g clip-path="url(#t)" transform="matrix(1 0 0 -1 0 422)">
    <use xlink:href="#u"/>
    <use xlink:href="#u"/>
    <use xlink:href="#u"/>
    <use xlink:href="#u"/>
    <use xlink:href="#u"/>
    <path fill="none" d="M0 422V0h443v422z"/>
    <path fill="#E7EEEC" d="M99 126c-1 4 0 7 2 10 4 12 21 35 28 46l-5 7c-9-13-40-50-55-53l-17-1c-6 0-12-1-17-5-4-4-6-11-3-16-7 0-14-3-18-9s-6-14-4-20l2-7c-1-3-4-4-6-7-7-6-8-17-2-25 6-7 16-10 25-7 9 2 17 9 21 17 2-6 9-7 15-6 7 2 14 7 19 14 4 7 5 15 3 23 8-3 17 0 22 7 4 7 4 17-2 24-3 2-7 5-8 8z" clip-path="url(#v)"/>
    <path fill="#F3F6F4" d="m413 365 20 4-1-21-19 17z" clip-path="url(#w)"/>
    <path fill="#F3F6F4" d="m398 319-9 7 31 36 9-7-31-36z" clip-path="url(#x)"/>
    <path fill="#E7EEEC" d="m352 338 23 4-1-23-22 19z" clip-path="url(#y)"/>
    <path fill="#E7EEEC" d="m335 285-10 9 35 41 10-9-35-41z" clip-path="url(#z)"/>
    <path fill="#E7EEEC" d="m353 284 42 9-1-43-41 34z" clip-path="url(#A)"/>
    <path fill="#E7EEEC" d="m325 187-19 16 62 76 19-16-62-76z" clip-path="url(#B)"/>
    <path fill="#DAE5E2" d="M123 280H25v142h98V280z" clip-path="url(#C)"/>
    <path fill="#F3F6F4" d="M118 280H20v142h98V280z" clip-path="url(#D)"/>
    <path fill="#FFF" d="M106 295H32v111h74V295z" clip-path="url(#E)"/>
    <path fill="#DAE5E2" d="M106 295v111H32h1V295l-1 1a980393 980393 0 0 0 69 0h3l2-1h-1a5181 5181 0 0 0-73 0v112h74V295z" clip-path="url(#F)"/>
    <path fill="#DAE5E2" d="m118 422-2-3a163 163 0 0 0-9-11l4 6 5 5 2 3z" clip-path="url(#G)"/>
    <path fill="#FFF" d="m106 296 13-16z" clip-path="url(#H)"/>
    <path fill="#DAE5E2" d="m119 280-2 2a70 70 0 0 0-11 14l2-3a134 134 0 0 1 9-11l2-2z" clip-path="url(#I)"/>
    <path fill="#FFF" d="m20 280 13 16z" clip-path="url(#J)"/>
    <path fill="#DAE5E2" d="m33 296-6-8-7-8 7 8 6 8z" clip-path="url(#K)"/>
    <path fill="#DAE5E2" d="m20 422 7-8 5-8-6 8-6 8z" clip-path="url(#L)"/>
    <path fill="#DAE5E2" d="M83 314H58v70h25v-70z" clip-path="url(#M)"/>
    <path fill="#F3F6F4" d="M384 8c-1 1-4 5-2 9l4 3 5 2 4 8c2 3 5 6 9 5 4 0 7-3 9-7s2-8 2-12c0-2 0-5-2-7l-6-1-23 1z" clip-path="url(#N)"/>
    <path fill="#DAE5E2" d="M424 52h-6l2 17h6l-2-17zm-5-43h-4l1 16h5l-2-16zm-44 60 2-17h-6l-2 17h6zm35-17 1 17h8l-1-17h-8zm-1-43 1 16h5l-1-16h-5zm-27 16 2-16h-5l-3 16h6zm-1 5h-6l-3 18h6l3-18zm8 18 1-18h-8l-1 5-2 13h10zm0 4h-11l-1 7-2 10h12l2-17zm10 0h-10l-1 17h11V52zm1 0-1 17h11V52h-10zm0-22v18h10l-1-18h-9zm-9 0-2 18h10l1-18h-9zm1-21h-7l-3 16h9l1-16zm-1 16h9V9h-8l-1 16zm10-16-1 16h9l-1-16h-7zm17 39h6l-2-18h-6l2 18zm-2-18h-6v18h7l-1-18zm11 40h-59l11-63c0-3 2-5 5-6h30c3 0 5 3 6 6l5 44v1l2 18z" clip-path="url(#O)"/>
    <path fill="#DAE5E2" d="M258 408v-75h-96l-4 74 100 1z" clip-path="url(#P)"/>
    <path fill="#F3F6F4" d="M255 407v-74h-97v74h97z" clip-path="url(#Q)"/>
    <path fill="#DAE5E2" d="M158 334h96v73h-96v-73zm97-1h-97v75h97v-75z" clip-path="url(#R)"/>
    <path fill="#FFF" d="M244 400v-57h-75v57h75z" clip-path="url(#S)"/>
    <path fill="#DAE5E2" d="M244 400h-5a117178 117178 0 0 1-70 0v-57h75v53a10839 10839 0 0 1 0 4v-1a1974 1974 0 0 1 0-15v-41h-76v57h76z" clip-path="url(#T)"/>
    <path fill="#DAE5E2" d="m158 408 2-1a110 110 0 0 0 7-6l-4 3-3 2-2 2z" clip-path="url(#U)"/>
    <path fill="#DAE5E2" d="m255 407-6-4-5-3 5 4c3 2 5 4 6 3z" clip-path="url(#V)"/>
    <path fill="#FFF" d="m255 333-11 10z" clip-path="url(#W)"/>
    <path fill="#DAE5E2" d="m244 343 5-5 6-5-6 5-5 5z" clip-path="url(#X)"/>
    <path fill="#DAE5E2" d="m158 333 5 5 5 5-5-5-5-5z" clip-path="url(#Y)"/>
    <path fill="#DAE5E2" d="M224 389z" clip-path="url(#Z)"/>
    <path fill="#DAE5E2" d="M231 371z" clip-path="url(#aa)"/>
    <path fill="#DAE5E2" d="M231 366z" clip-path="url(#ab)"/>
    <path fill="#DAE5E2" d="M179 380c0 2 1 3 3 3l2-1-1-1-1 1-2-2 2-2 1 1 1-1-2-1c-2 0-3 1-3 3z" clip-path="url(#ac)"/>
    <path fill="#DAE5E2" d="M190 378v-1h-5v6h5v-1h-3v-1h2v-2h-2v-1h3z" clip-path="url(#ad)"/>
    <path fill="#DAE5E2" d="M193 382h-1v-2h1l1 1-1 1zm0-3h-1v-2h-1v6h2c2 0 3-1 3-2l-1-2 1-2h-2l-1 2z" clip-path="url(#ae)"/>
    <path fill="#DAE5E2" d="M198 382h-2v1h5v-1h-1v-5h-2v5z" clip-path="url(#af)"/>
    <path fill="#DAE5E2" d="M202 383h2v-6h-2v6z" clip-path="url(#ag)"/>
    <path fill="#DAE5E2" d="M206 382v-2h3v-1h-3v-2h-1v6h4v-1h-3z" clip-path="url(#ah)"/>
    <path fill="#DAE5E2" d="M210 383h2v-6h-2v6z" clip-path="url(#ai)"/>
    <path fill="#DAE5E2" d="M213 380c0 2 1 3 3 3l2-1-1-1-1 1-2-2 2-2 1 1 1-1-2-1c-2 0-3 1-3 3z" clip-path="url(#aj)"/>
    <path fill="#DAE5E2" d="M222 379v2l-1-2h1zm1-1h-3v-1h-2l3 6h1l3-6h-2v1z" clip-path="url(#ak)"/>
    <path fill="#DAE5E2" d="M226 382h-1v1h5v-1h-2v-5h-2v5z" clip-path="url(#al)"/>
    <path fill="#DAE5E2" d="M235 378v-1h-5v6h5v-1h-3v-1h3v-2h-3v-1h3z" clip-path="url(#am)"/>
    <path fill="#DAE5E2" d="M213 354a6 6 0 1 0-12 0 6 6 0 0 0 12 0z" clip-path="url(#an)"/>
    <path fill="#DAE5E2" d="M207 360a6 6 0 1 1 0-11 6 6 0 0 1 0 11zm0-11a6 6 0 1 0 0 11 6 6 0 0 0 0-11z" clip-path="url(#ao)"/>
    <path fill="#DAE5E2" d="M195 354h-14l7 1 7-1z" clip-path="url(#ap)"/>
    <path fill="#DAE5E2" d="M234 354h-16l8 1 8-1z" clip-path="url(#aq)"/>
    <path fill="#E7EEEC" d="m192 355-1 1a5 5 0 0 0 1 3l1 1h1v-2l-1-1-1-2-2-1-2 1-1 2 1 2 1 1 1 1 1-1v-2l-1-2-2-2h-3l-1 1-1 3 1 1 1 2 1-1-1-3a6 6 0 0 0-2-3h-1l2 1a6 6 0 0 1 2 5l-1 1-1-1v-4l2-2 2 1 2 3 1 1-1 1h-1l-1-1v-4h4a7 7 0 0 1 2 3v1h-1l-1-2v-2z" clip-path="url(#ar)"/>
    <path fill="#E7EEEC" d="M232 356h-1a16 16 0 0 0-7-1h-2l-1-1v-1l1-1a26 26 0 0 1 2-2h2v1c0 4 0 9 2 14a11 11 0 0 0-1-11l-2-1h-1l-1 1a12 12 0 0 0 2 6v1-1c1-1 1-3-1-4l-3 1v4h1l1-1-1-1a9 9 0 0 0-3-4l1 1 2 3v2l-1-1v-3h3c1 0 2 2 1 3a12 12 0 0 1-1-6v-1h1l1 1a11 11 0 0 1 2 10c-2-4-2-9-2-13v-1l-1-1-2 1a27 27 0 0 0-1 2l-1 1v2h2a20 20 0 0 1 6 1h3z" clip-path="url(#as)"/>
    <path fill="#F3F6F4" d="M141 46V21h-4v-3h4V1h80v15h-6v4h6v5h2v2h-3v19h-79z" clip-path="url(#at)"/>
    <path fill="#DAE5E2" d="M200 46V1h21v16h-6v3h6v5h2v2h-3v19h-20z" clip-path="url(#au)"/>
    <path fill="#DAE5E2" d="M201 18z" clip-path="url(#av)"/>
    <path fill="#DAE5E2" d="M201 21z" clip-path="url(#aw)"/>
    <path fill="#DAE5E2" d="M205 28z" clip-path="url(#ax)"/>
    <path fill="#DAE5E2" d="M206 9z" clip-path="url(#ay)"/>
    <path fill="#F3F6F4" d="M227 47h-14v16h14V47z" clip-path="url(#az)"/>
    <path fill="#DAE5E2" d="M213 46h-62v18h62V46z" clip-path="url(#aA)"/>
    <path fill="#DAE5E2" d="M227 63h-15v1h15a1 1 0 1 0 0-1z" clip-path="url(#aB)"/>
    <path fill="#DAE5E2" d="M227 46h-15v1h15a1 1 0 1 0 0-1z" clip-path="url(#aC)"/>
    <path fill="#E7EEEC" d="M201 64V46h7v18h-7z" clip-path="url(#aD)"/>
    <path fill="#E7EEEC" d="M157 64V45h7v19h-7z" clip-path="url(#aE)"/>
    <path fill="#DAE5E2" d="M227 60z" clip-path="url(#aF)"/>
    <path fill="#DAE5E2" d="M227 58z" clip-path="url(#aG)"/>
    <path fill="#DAE5E2" d="M227 55z" clip-path="url(#aH)"/>
    <path fill="#DAE5E2" d="M227 52z" clip-path="url(#aI)"/>
    <path fill="#DAE5E2" d="M227 49z" clip-path="url(#aJ)"/>
    <path fill="#E7EEEC" d="M197 53h-28v4h28v-4z" clip-path="url(#aK)"/>
    <path d="M443 0z" clip-path="url(#aL)"/>
    <path fill="#FF337D" d="M364 66c0 3 2 6 5 7h10c3-2 6-3 10-3 3-1 7 1 8 4s-1 6-3 9c-5 4-12 6-19 5-6-2-12-7-14-13l3-9z" clip-path="url(#aM)"/>
    <path fill="#590000" d="m364 66-3 9a20 20 0 0 0 19 13c5 0 10-2 14-5 2-2 3-5 3-7v-2c-1-3-5-4-8-4-4 0-7 1-10 3l-6 1-4-1c-3-1-5-4-5-7z" clip-path="url(#aN)"/>
    <path fill="#FF337D" d="M337 52c-5 5-5 13-2 19 2 7 8 12 14 15 11 6 26 6 38 1-6 0-12-4-15-9-3-4-3-9-5-14-3-5-7-10-13-12-5-2-12-2-17 0z" clip-path="url(#aO)"/>
    <path fill="#FF337D" d="M335 80c-6 7-6 17-6 25 1 9 3 17 2 25l-4 15c0 5 1 10 5 14 4 3 11 2 15-1 5-3 8-9 10-14 4-12 5-25 2-37-4-12-12-23-24-27z" clip-path="url(#aP)"/>
    <path d="M332 28v3a90 90 0 0 0 3 19 52 52 0 0 0 22 32l4 2 3 1 2 1h1-1l-2-1-3-1-3-3a55 55 0 0 1-18-18 109 109 0 0 1-8-32v-3z" clip-path="url(#aQ)"/>
    <path fill="#FF337D" d="M285 106c-10-6-10-12-8-17s8-9 13-7c3 1 5 4 7 6l6 7c2 2 6 3 8 1l-26 10z" clip-path="url(#aR)"/>
    <path fill="#590000" d="M287 81c-4 0-9 4-10 8l-1 4c0 4 2 8 9 13l24-9h-1l-5-2-6-7c-2-2-4-5-7-6l-3-1zm24 15-2 1 2-1z" clip-path="url(#aS)"/>
    <path fill="#FF337D" d="M278 99c2 4 9 5 13 3s7-6 10-9c3-4 5-8 9-10 4-3 9-3 12-1s4 5 5 7l-1 9c-1 4-2 9-6 12-3 3-9 3-13 2-6 0-11 0-17-2-5-2-10-6-12-11z" clip-path="url(#aT)"/>
    <path d="M324 36v3l-1 9a585 585 0 0 1-3 39 44 44 0 0 1-11 18l-8 5-1 1h-2 2l1-1a30 30 0 0 0 12-9 42 42 0 0 0 9-22 206 206 0 0 0 2-42v-1z" clip-path="url(#aU)"/>
    <path d="m327 31-1 5v12c0 5 2 11 4 17l7 21a95 95 0 0 1 5 39l-1 13v4-4a322 322 0 0 0 1-31 97 97 0 0 0-5-21l-7-21-4-17a47 47 0 0 1 1-16v-1z" clip-path="url(#aV)"/>
    <path fill="#00313C" d="M352 27h-47l-1 9h48v-9z" clip-path="url(#aW)"/>
    <path fill="#00313C" d="m310 28 6-27h26l5 27h-37z" clip-path="url(#aX)"/>
    <path fill="#00313C" d="M352 27z" clip-path="url(#aY)"/>
    <path d="m344 13-4 3-5 1-6-1-6-3h-6a11 11 0 0 0-4 2h1l3-1h6l6 2 6 1a14 14 0 0 0 9-3v-1z" clip-path="url(#aZ)"/>
    <path fill="#FFF" d="m344 11-4 3-5 1-6-1-6-2-5-1-3 1a6 6 0 0 0-1 1l1-1 3-1 5 1 6 2 6 1a13 13 0 0 0 9-4z" clip-path="url(#ba)"/>
    <path fill="#FFF" d="m345 15-5 3-5 1-6-1-6-2h-6a12 12 0 0 0-4 1h-1 2l3-1h5l7 2 6 1a15 15 0 0 0 10-4z" clip-path="url(#bb)"/>
    <path d="M353 27z" clip-path="url(#bc)"/>
    <path fill="#FF337D" d="m147 212-7 3c-3 0-7 0-10-2s-5-5-4-9c0-3 3-5 3-8-1-3-3-4-6-5-2-2-5-3-5-6 0-2 1-3 3-4l4-1c7 0 15 4 18 11 4 6 5 14 4 21z" clip-path="url(#bd)"/>
    <path fill="#FFB2E1" d="m124 180-3 1c-2 1-3 2-3 4 0 3 3 4 5 6 3 1 5 2 6 5v1c0 2-3 4-3 7l-1 2c0 3 3 5 5 7 3 2 7 2 10 2l7-3v-7c0-5-1-10-4-14l-3-5-13 3-3-9z" clip-path="url(#be)"/>
    <path d="m129 217 21-15s6 7 4 15l-11 8s-6 1-14-8z" clip-path="url(#bf)"/>
    <path fill="#DAE5E2" d="m138 227 19-13 67 92s5 8-2 19c0 0-14 2-22-8l-62-90z" clip-path="url(#bg)"/>
    <path d="m138 227 1 1 1 1a47324 47324 0 0 1 44 65l14 21 2 3 3 2c1 1 3 3 5 3a30 30 0 0 0 14 3v-1c2-3 4-6 4-10l-1-9h-1l-67-92h-1l-13 10-4 2-1 1h1v-1l4-2 14-9h-1l68 91c1 2 2 5 1 8 0 4-1 8-3 11-5 0-9 0-13-2l-6-3-2-3-3-2-14-21-24-35-16-23-4-7-1-1-1-1z" clip-path="url(#bh)"/>
    <path fill="#00313C" d="m139 229-11-1 10 13 10 1-9-13z" clip-path="url(#bi)"/>
    <path d="M222 325h-1l-3-2-10-9v1-1l-1-1-1-2-3-5a45725 45725 0 0 1-20-31l-15-21-11-16-8-12-3-3v-1 1l2 3 8 12a395424 395424 0 0 0 52 77 92 92 0 0 0 13 10h1z" clip-path="url(#bj)"/>
    <path d="M190 285h1v-1h-1v1-1l1 1h-1z" clip-path="url(#bk)"/>
    <path d="M181 272h1v-1h-2l1 1v-1 1z" clip-path="url(#bl)"/>
    <path d="m170 256 1 1v-2l-1 1 1 1-1-1h1-1z" clip-path="url(#bm)"/>
    <path d="m160 241 1-1-1-1-1 1 1 1v-1 1z" clip-path="url(#bn)"/>
    <path d="m150 226 1-1-1-1-1 1v1h1v-1 1z" clip-path="url(#bo)"/>
    <path d="M199 298h1l-1-1v1-1l1 1h-1z" clip-path="url(#bp)"/>
    <path d="M209 312h1l-1-1h-1v1h1v-1 1z" clip-path="url(#bq)"/>
    <path fill="#FF337D" d="M121 200c-2 2-4 2-6 0l-1-4c1-2 4-3 6-2 1 2 2 4 1 6z" clip-path="url(#br)"/>
    <path fill="#FFB2E1" d="m118 194-4 2v2l1 2 3 1 3-1v-2l-1-4h-2z" clip-path="url(#bs)"/>
    <path d="m223 304-3 2a74 74 0 0 1-16 10l-2 1h-2 4l8-5a58 58 0 0 0 11-8z" clip-path="url(#bt)"/>
    <path fill="#00313C" d="m195 131-31-5 5-39c4 1 9 22 9 22l20 3-3 19z" clip-path="url(#bu)"/>
    <path fill="#FFF" d="m178 122-2 1-1-2c0-1 1-2 2-1l1 2z" clip-path="url(#bv)"/>
    <path fill="#FFF" d="m164 126 3 1 4-38s0-2-2-2l-5 39z" clip-path="url(#bw)"/>
    <path d="m178 109-1 2-2 1 2-1 1-2z" clip-path="url(#bx)"/>
    <path d="m177 105-2 1-2 1 3-1 1-1z" clip-path="url(#by)"/>
    <path d="m172 101 2 1 2-2-2 1h-2z" clip-path="url(#bz)"/>
    <path d="M182 110v4l1-2-1-2z" clip-path="url(#bA)"/>
    <path d="M187 111v2a9 9 0 0 0 0 4h1l1 1v-2a7 7 0 0 0-1-3l-1-2 1 2a8 8 0 0 1 1 3v1h-1v-1a10 10 0 0 1-1-3v-2z" clip-path="url(#bB)"/>
    <path d="M187 112h1a6 6 0 0 0 4 0l1-1v-1h-5l-1 2 2-1a5 5 0 0 1 3-1v2a6 6 0 0 1-3 0h-2z" clip-path="url(#bC)"/>
    <path fill="#00313C" d="M104 91 80 70l27-30c2 3-6 23-6 23l16 13-13 15z" clip-path="url(#bD)"/>
    <path fill="#FFF" d="M94 73h-2l1-2h2l-1 3z" clip-path="url(#bE)"/>
    <path fill="#FFF" d="m80 70 3 2 24-29v-3L80 70z" clip-path="url(#bF)"/>
    <path d="m102 63-2 1h-2 2l2-1z" clip-path="url(#bG)"/>
    <path d="M103 59h-2l-2-1 2 1h2z" clip-path="url(#bH)"/>
    <path d="m101 54 2 1h2l-2-1h-2z" clip-path="url(#bI)"/>
    <path d="m105 66-1 2-2 1 2-1 1-2z" clip-path="url(#bJ)"/>
    <path d="m108 70-1 2a9 9 0 0 0-2 3l1 1h1v-1a7 7 0 0 0 1-3v-2 2a8 8 0 0 1-1 3l-1 1v-1a10 10 0 0 1 1-3l1-2z" clip-path="url(#bK)"/>
    <path d="m108 70 1 2a6 6 0 0 0 3 1h1v-2a4 4 0 0 0-3-1h-2 2a5 5 0 0 1 3 2v1h-1a7 7 0 0 1-3-2l-1-1z" clip-path="url(#bL)"/>
    <path d="M206 226c-1-1-8-2-14-15-7-13-6-21-6-21l-31-45-64-60 20-20 67 59 38 35c8 8 32 43 32 43l-42 24z" clip-path="url(#bM)"/>
    <path d="m218 174 12-31-47-12 4-23s73 10 77 13c4 4 7 7 7 11s-23 78-23 78l-27-21-3-15z" clip-path="url(#bN)"/>
    <path fill="#00313C" d="M244 200a1001 1001 0 0 0-3-6 167 167 0 0 0-20-30l-4-4-1-1 1 1 3 5a456 456 0 0 1 21 29l2 5 1 1z" clip-path="url(#bO)"/>
    <path fill="#00313C" d="m245 137-1 2a14 14 0 0 1-12 4h-2 2a13 13 0 0 0 7 0l3-2a13 13 0 0 0 3-4z" clip-path="url(#bP)"/>
    <path fill="#00313C" d="m245 146-7-2-7-1 7 2 7 1z" clip-path="url(#bQ)"/>
    <path fill="#00313C" d="m216 159-1-1-3-3a778 778 0 0 0-48-44l-38-32-11-10-3-3-1-1v1h1l3 3 11 10a2629373 2629373 0 0 0 86 76l3 3v1h1z" clip-path="url(#bR)"/>
    <path fill="#BD6D6F" d="m338 374 5 9 4 9 2 1 9-3v-6h4c1-1 0-3-2-4l-7-5-3-1h-1l-5-7-6 7z" clip-path="url(#bS)"/>
    <path fill="#B33C3B" d="M362 384h-1l-4-1-4-1-1 1h5l4 1h1z" clip-path="url(#bT)"/>
    <path fill="#B33C3B" d="M352 388h3v-3h-3v-1l1-1v-1 1h-1v2h3-1l1 3-2-1h-1v1z" clip-path="url(#bU)"/>
    <path fill="#B33C3B" d="m351 383 1 3v2h-1 1v-2l-1-3z" clip-path="url(#bV)"/>
    <use xlink:href="#bW" clip-path="url(#a)"/>
    <use xlink:href="#bX" clip-path="url(#b)"/>
    <use xlink:href="#bY" clip-path="url(#c)"/>
    <use xlink:href="#bZ" clip-path="url(#d)"/>
    <use xlink:href="#ca" clip-path="url(#e)"/>
    <use xlink:href="#cb" clip-path="url(#f)"/>
    <use xlink:href="#cc" clip-path="url(#g)"/>
    <use xlink:href="#cd" clip-path="url(#h)"/>
    <use xlink:href="#ce" clip-path="url(#i)"/>
    <use xlink:href="#cf" clip-path="url(#j)"/>
    <use xlink:href="#cg" clip-path="url(#k)"/>
    <use xlink:href="#ch" clip-path="url(#l)"/>
    <use xlink:href="#ci" clip-path="url(#m)"/>
    <use xlink:href="#cj" clip-path="url(#n)"/>
    <use xlink:href="#ck" clip-path="url(#o)"/>
    <use xlink:href="#cl" clip-path="url(#p)"/>
    <use xlink:href="#cm" clip-path="url(#q)"/>
    <use xlink:href="#bW" clip-path="url(#cn)"/>
    <use xlink:href="#bX" clip-path="url(#co)"/>
    <use xlink:href="#bY" clip-path="url(#cp)"/>
    <use xlink:href="#cq" clip-path="url(#r)"/>
    <use xlink:href="#bZ" clip-path="url(#cr)"/>
    <use xlink:href="#ca" clip-path="url(#cs)"/>
    <use xlink:href="#cb" clip-path="url(#ct)"/>
    <use xlink:href="#cc" clip-path="url(#cu)"/>
    <use xlink:href="#cd" clip-path="url(#cv)"/>
    <use xlink:href="#ce" clip-path="url(#cw)"/>
    <use xlink:href="#cf" clip-path="url(#cx)"/>
    <use xlink:href="#cg" clip-path="url(#cy)"/>
    <use xlink:href="#ch" clip-path="url(#cz)"/>
    <use xlink:href="#ci" clip-path="url(#cA)"/>
    <use xlink:href="#cj" clip-path="url(#cB)"/>
    <use xlink:href="#ck" clip-path="url(#cC)"/>
    <use xlink:href="#cl" clip-path="url(#cD)"/>
    <use xlink:href="#cm" clip-path="url(#cE)"/>
    <use xlink:href="#cq" clip-path="url(#cF)"/>
    <path fill="#FF337D" d="M166 178s2 11-7 11c-9 1-11-7-11-7l-3 2s3 10 15 7c13-2 10-15 10-15l-4 2z" clip-path="url(#cG)"/>
    <path fill="#B70536" d="m170 179-4 1c0 3-1 9-7 9h-1c-5 0-8-3-9-5l-4 1c2 2 5 7 12 7l3-1c9-1 10-8 10-12z" clip-path="url(#cH)"/>
    <path fill="#FF337D" d="m127 189-12-49 65-14 11 48-64 15z" clip-path="url(#cI)"/>
    <path d="M191 174h-1l-2-2-7-7-12-8-8-3h-9c-4 0-6 2-9 3l-6 6c-4 4-6 9-7 13l-3 9a1893 1893 0 0 1 0 4v-1l1-3 2-9 7-13 6-5a21 21 0 0 1 18-3c3 0 5 1 8 3 5 2 8 5 12 8l7 6 2 2h1z" clip-path="url(#cJ)"/>
    <path d="M171 128z" clip-path="url(#cK)"/>
    <path d="M190 174v-2a189 189 0 0 0-6-22l-6-17-1-5v-1l-1-1v1l1 1a189 189 0 0 0 6 22 78440 78440 0 0 1 7 22v2z" clip-path="url(#cL)"/>
    <path d="M150 152h-1v4h2l-1-4z" clip-path="url(#cM)"/>
    <path d="M191 174h-1l-2 1-7 1-22 5-23 6-7 1-2 1h2l7-2 23-5 23-5 6-2 2-1h1z" clip-path="url(#cN)"/>
    <path fill="#BD6D6F" d="m161 209-8-13c0-2-3-4-1-5 0 0 0-2 2-3 0 0-1-2 2-3 0 0 2-2 4-1 0 0 2-2 4-1l3 5 2-2 1 5c0 2-2 5-1 8l1 3-9 7z" clip-path="url(#cO)"/>
    <path fill="#B70536" d="M151 146h-4c-4 2-7 5-9 8-4 6-7 14-8 21l7-12 6-6 6-3v-2h1l1 2a19 19 0 0 1 4 0h6a35 35 0 0 1 13 6c-3-5-8-9-14-12l-9-2zm4 8a22 22 0 0 0-4 0h2a40 40 0 0 1 16 4c-3-2-5-3-8-3l-6-1zm-17 9z" clip-path="url(#cP)"/>
    <path d="M155 154a22 22 0 0 0-4 0 19 19 0 0 1 4 0l6 1a35 35 0 0 1 10 4l3 2v-1l-5-3-8-3h-6zm-6 0-6 3-6 6a41 41 0 0 0-7 13l2-4a38 38 0 0 1 6-9c3-4 7-7 11-8v-1z" clip-path="url(#cQ)"/>
    <path d="M150 152h-1v3a13 13 0 0 1 2-1l-1-2z" clip-path="url(#cR)"/>
    <path fill="#00313C" d="m158 216 4-11 8 14-3 11-9-14z" clip-path="url(#cS)"/>
    <path fill="#FAFBFA" d="m338 377 4 4 8-9-4-7-8 12z" clip-path="url(#cT)"/>
    <path d="m338 377 1-1a7164 7164 0 0 1 7-10l2 5 1 1-8 9h1l-3-3-1-1 1 1 2 3h1l8-9-1-2-3-5-6 8-1 3-1 1z" clip-path="url(#cU)"/>
    <path fill="#FAFBFA" d="m157 212-3-6 15-8 1 4-13 10z" clip-path="url(#cV)"/>
    <path d="m157 212 1-1 3-2 9-7h1-1l-1-4h-1a1484 1484 0 0 1-14 8l2 4 1 2-1-2-1-2v-2h-1l14-7h1l-1-1 2 4-9 7-3 2-1 1z" clip-path="url(#cW)"/>
    <path fill="#00313C" d="M241 212c14 0 29-5 38-14 4 7 3 15 0 23-2 7-6 13-11 20l-4 4c-3 1-7 0-10-3-4-3-7-9-9-14l-2-17z" clip-path="url(#cX)"/>
    <path d="M268 309s0 5 3 5h4l62 64 11-13-29-37-37-37-3-9-2-39c1-6 6-27 6-38 0-10-4-7-4-7l-10 30-6 14-2 3 2 8s7 23 7 27l1 13-3 10v6z" clip-path="url(#cY)"/>
    <path fill="#FAFBFA" d="m246 321-1-5h-1l-6-13v-98l8-2 10 15 8 26 7 42 1 11c0 3-1 6-4 8l1 4-2-1-21 13z" clip-path="url(#cZ)"/>
    <path d="M245 316v2l1 3a726 726 0 0 0 21-13l2 1-2-1a555 555 0 0 0-21 13l-1-3v-2z" clip-path="url(#da)"/>
    <path d="M265 301v-2l1-4a131 131 0 0 0-1 6z" clip-path="url(#db)"/>
    <path d="m264 258 6 17-3-42-5 14 2 11z" clip-path="url(#dc)"/>
    <path fill="#00313C" d="M256 228v1l1 4a309 309 0 0 1 7 21l1 3v1-1a90 90 0 0 0-4-14 166 166 0 0 0-5-15z" clip-path="url(#dd)"/>
    <path fill="#00313C" d="m273 280 1-1v-3l-3-9-4-7-2-4v1-1l2 4 4 7 2 9v4z" clip-path="url(#de)"/>
    <path fill="#00313C" d="M269 307h1a30 30 0 0 0 6-7l1-3v-3a54 54 0 0 0-5-15h1-1l2 6 2 9v3l-1 3-3 4-2 2-1 1z" clip-path="url(#df)"/>
    <path fill="#00313C" d="M281 299v2l-1 6-3 5-2 1h1l1-1c1-1 3-3 3-5a21 21 0 0 0 1-8z" clip-path="url(#dg)"/>
    <path fill="#00313C" d="m270 254-3-1-3 1h6z" clip-path="url(#dh)"/>
    <path fill="#00313C" d="m267 247-2 2-1 3 2-2 1-3z" clip-path="url(#di)"/>
    <path fill="#00313C" d="m226 311 1-1 2-3a21 21 0 0 0 2-21 18 18 0 0 0-3-3l2 4c2 2 3 6 2 10 0 4-2 8-3 10l-3 4z" clip-path="url(#dj)"/>
    <path d="M183 211c2-5 41-26 41-26s10 7 22 22c12 14 18 51 18 51s-6 29-11 41c-4 12-9 17-9 17l-24-6-8-50v-16l-2-1v-2l-27-30z" clip-path="url(#dk)"/>
    <path d="m156 212 38 63c5 8 24 37 26 36 3-1 13-9 9-23s-8-21-8-21l-14-15-36-50-14 10h-1z" clip-path="url(#dl)"/>
    <path fill="#00313C" d="M263 253a35 35 0 0 0-3-6l-5-5-9-2a61 61 0 0 0-22 4l2-1a79 79 0 0 1 20-3c4 0 6 1 9 3l4 5 3 4 1 1z" clip-path="url(#dm)"/>
    <path fill="#00313C" d="m264 257-2 2-5 4-6 8-4 12-3 12-2 10c-1 3 0 6 1 7l1 2-1-2-1-7 2-10 3-12 5-11c1-4 4-6 6-8l4-5 2-2z" clip-path="url(#dn)"/>
    <path fill="#00313C" d="m244 205-2-2-6-6-8-8-3-2-2-1-2 1a181 181 0 0 0-36 21l-2 1-1 1 1-1 2-1 7-5a190 190 0 0 1 31-16h2l2 3 9 8 6 5 2 2z" clip-path="url(#do)"/>
    <path fill="#00313C" d="M262 256h1v-1l-1-1-1 1v1h1v-1h1v1h-1z" clip-path="url(#dp)"/>
    <path fill="#00313C" d="m224 226-2 2a44 44 0 0 0-12 13l2-2a60 60 0 0 1 10-11l2-2z" clip-path="url(#dq)"/>
    <path fill="#00313C" d="M230 229h-1l-2 2a80 80 0 0 0-16 13l3-3a132 132 0 0 1 13-10l3-2z" clip-path="url(#dr)"/>
    <path fill="#00313C" d="m223 272-3-3-5-7a325 325 0 0 0-8-10v1l2 2 6 7a267 267 0 0 0 8 10z" clip-path="url(#ds)"/>
    <path fill="#00313C" d="M222 311s13-4 10-19-20-36-20-36h-2l-6-8s5-2 9 0c5 2 15 18 21 32 6 15 4 22 2 26-5 8-9 7-9 7l-5-2z" clip-path="url(#dt)"/>
    <path fill="#FF337D" d="m266 308-3-4 1-3 3-1 1 4-2 4z" clip-path="url(#du)"/>
    <path d="M267 302v2l-2 2 2-2v-2z" clip-path="url(#dv)"/>
    <path fill="#FF337D" d="M265 301v-6c-3-5-8 0-12 5-5 5-11 17-18 20-8 2-16 2-21-3l-2-7 6 1s10 8 17 1c8-7 18-23 24-24 6 0 8 3 9 6l-1 8-2-1z" clip-path="url(#dw)"/>
    <path fill="#9DB1AF" d="m262 293-3 1 3-1h1-1zm1 0 2 3a8 8 0 0 1 0 2v-3l-2-2zm2 7v1a11 11 0 0 0 0-1z" clip-path="url(#dx)"/>
    <path d="M265 298v2-2z" clip-path="url(#dy)"/>
    <path fill="#9DB1AF" d="m258 295-5 5a61 61 0 0 1 5-5z" clip-path="url(#dz)"/>
    <path d="m253 300-2 2 2-2z" clip-path="url(#dA)"/>
    <path fill="#B70536" d="m263 291-3 1c-4 2-7 6-9 10l2-2a55 55 0 0 1 6-6l3-1h1l2 2v3a20 20 0 0 1 0 3l1-1 1-1-1-4-1-2a3 3 0 0 0-2-2z" clip-path="url(#dB)"/>
    <path d="m267 302-1-2h-1v1h1l1 1z" clip-path="url(#dC)"/>
    <path fill="#FFF" d="M267 292v2l-1 1 1-1v-2z" clip-path="url(#dD)"/>
    <path fill="#FFF" d="M268 298h-1v1l1-1z" clip-path="url(#dE)"/>
    <path fill="#FFF" d="m266 305-1-2-1-1 1 1 1 2z" clip-path="url(#dF)"/>
    <path fill="#FFF" d="M262 288v3-3z" clip-path="url(#dG)"/>
    <path fill="#FFF" d="m255 290 1 2 1 2-1-2-1-2z" clip-path="url(#dH)"/>
    <path fill="#FFF" d="m254 297-1-2-2-1 1 2 2 1z" clip-path="url(#dI)"/>
    <path fill="#FFF" d="m251 302-1-3-2-1 1 2 2 2z" clip-path="url(#dJ)"/>
    <path fill="#FFF" d="m247 307-2-2-2-2 2 2 2 2z" clip-path="url(#dK)"/>
    <path fill="#FFF" d="m245 311-3-2-2-2 2 2c1 2 2 2 3 2z" clip-path="url(#dL)"/>
    <path fill="#FFF" d="m241 315-2-2-3-2 2 3 3 1z" clip-path="url(#dM)"/>
    <path fill="#FFF" d="m235 319-1-2-1-3 1 3 1 2z" clip-path="url(#dN)"/>
    <path fill="#FFF" d="m229 321-1-3v-4 4l1 3z" clip-path="url(#dO)"/>
    <path fill="#FFF" d="m223 313-1 4v4l1-4v-4z" clip-path="url(#dP)"/>
    <path fill="#FFF" d="m219 311-3 3-2 3 2-3 3-3z" clip-path="url(#dQ)"/>
    <path d="M266 307v1h1l-4-4-2-2h-1l-1 1a201 201 0 0 0-14 13h-2l2 1v-1l11-9 3-3 2-1 2 1 3 4 1 1v-1l-1-1z" clip-path="url(#dR)"/>
    <use xlink:href="#u"/>
    <use xlink:href="#u"/>
  </g>
</svg>
