<?xml version="1.0" encoding="iso-8859-1"?>
<!-- Generator: Adobe Illustrator 16.0.0, SVG Export Plug-In . SVG Version: 6.00 Build 0)  -->
<!DOCTYPE svg PUBLIC "-//W3C//DTD SVG 1.1//EN" "http://www.w3.org/Graphics/SVG/1.1/DTD/svg11.dtd">
<svg version="1.1" id="Layer_1" xmlns="http://www.w3.org/2000/svg" xmlns:xlink="http://www.w3.org/1999/xlink" x="0px" y="0px"
	 width="1200px" height="640px" viewBox="0 0 1200 640" style="enable-background:new 0 0 1200 640;" xml:space="preserve">
<g>
	<path style="fill:#253238;" d="M15.469,319.144c28.6-27.17,43.717-28.396,55.975-55.362c6.889-15.157-0.613-79.263,61.286-81.715
		c7.984-0.316,38.677,1.361,42.694,33.502c1.62,12.951,0.848,21.958-0.012,29.217c-0.742,6.259-0.633,12.598,0.452,18.807
		c1.6,9.15,5.469,19.427,14.32,26.045c0.686,0.513,0.094,1.593-0.708,1.288c-4.596-1.744-11.065-4.994-15.689-10.554
		c-0.411-0.493-1.208-0.145-1.131,0.492c0.035,0.295,0.073,0.593,0.113,0.894c1.782,13.588,23.697,27.17,17.568,53.523
		c-6.127,26.354-146.677,82.736-169.965,71.092C-2.917,394.729-10.877,344.172,15.469,319.144z"/>
	<g>
		<g>
			<path style="fill:#121424;" d="M179.076,566.676c-6.546-83.281,16.165-119.649,27.162-151.6
				c18.255,13.863,45.257,28.118,80.083,29.441c38.515,1.465,65.404-93.14,68.393-104.116c0.165-0.609-0.103-1.25-0.652-1.565
				L331.09,325.72c-0.648-0.371-1.474-0.161-1.867,0.474c-4.976,8.078-35.573,56.213-58.3,56.813
				c-24.81,0.655-56.684-48.542-71.954-60.545l-0.057,0.183c-0.576-0.727-1.159-1.381-1.75-1.952
				c-26.934-26.045-96.03-24.916-96.03-24.916c-39.45,4.673-65.404,27.512-65.404,27.512l-0.001,0.11
				c-2.806,1.807-26.433,18.553-22.301,67.857c4.829,57.605,12.18,97.101,39.432,99.436c3.803,0.327,7.703,0.403,11.617-0.119
				L179.076,566.676z"/>
			<path style="fill:#B9CEEB;" d="M179.075,567.467c-0.409,0-0.755-0.313-0.79-0.729c-5.433-69.143,9.064-105.581,20.711-134.86
				c2.371-5.956,4.607-11.581,6.494-17.059c0.082-0.24,0.275-0.427,0.518-0.5c0.241-0.072,0.506-0.027,0.708,0.127
				c16.603,12.608,43.896,27.922,79.635,29.282c37.883,1.42,64.671-92.784,67.598-103.533c0.07-0.26-0.045-0.536-0.281-0.67
				l-22.971-13.117c-0.283-0.16-0.633-0.072-0.8,0.203c-5.819,9.443-36.009,56.583-58.954,57.189
				c-0.171,0.003-0.346,0.006-0.517,0.006c-17.547,0.003-37.88-23.312-54.251-42.08c-6.82-7.819-12.74-14.605-17.258-18.289
				c-0.002,0-0.003,0-0.005,0c-0.24,0-0.468-0.108-0.62-0.3c-0.565-0.711-1.13-1.341-1.681-1.874
				c-26.136-25.273-93.457-24.719-95.427-24.694c-36.917,4.386-62.215,25.019-64.729,27.14c-0.061,0.145-0.164,0.27-0.299,0.355
				c-2.678,1.725-26.037,18.253-21.94,67.126c5.101,60.854,13.07,96.515,38.71,98.713c4.396,0.377,8.032,0.341,11.444-0.114
				c0.434-0.059,0.832,0.247,0.891,0.681c0.058,0.434-0.247,0.832-0.68,0.89c-3.53,0.471-7.275,0.51-11.789,0.122
				c-26.753-2.293-34.982-38.461-40.153-100.159c-4.063-48.475,18.644-65.887,22.397-68.416c0.044-0.08,0.101-0.15,0.17-0.213
				c0.262-0.229,26.593-23.056,65.834-27.704c0.026-0.003,0.053-0.004,0.081-0.004c0.687-0.018,69.735-0.834,96.594,25.138
				c0.477,0.463,0.963,0.99,1.448,1.57c0.106,0.027,0.208,0.076,0.298,0.146c4.687,3.684,10.815,10.709,17.91,18.846
				c16.159,18.523,36.233,41.538,53.051,41.538c0.162,0,0.32-0.003,0.481-0.008c22.599-0.596,54.127-50.723,57.647-56.437
				c0.62-1.004,1.908-1.334,2.935-0.747l22.973,13.116c0.863,0.494,1.283,1.506,1.022,2.462
				c-2.938,10.789-29.639,104.716-68.279,104.717c-0.303,0-0.604-0.006-0.907-0.017c-35.536-1.352-62.803-16.331-79.663-28.946
				c-1.819,5.186-3.932,10.497-6.16,16.1c-11.587,29.127-26.008,65.377-20.603,134.149c0.034,0.438-0.292,0.818-0.729,0.853
				C179.116,567.467,179.096,567.467,179.075,567.467z"/>
		</g>
		<path style="fill:#B9CEEB;" d="M66.489,491.863c-0.401,0-0.745-0.303-0.787-0.71c-0.045-0.435,0.271-0.824,0.706-0.869
			c32.557-3.368,46.657-45.28,53.886-160.159c0.027-0.436,0.404-0.761,0.84-0.74c0.437,0.027,0.768,0.404,0.741,0.84
			c-3.813,60.592-9.683,100.301-18.475,124.971c-8.408,23.59-19.766,34.899-36.829,36.665
			C66.544,491.862,66.517,491.863,66.489,491.863z"/>
		<path style="fill:#B9CEEB;" d="M204.803,421.768c-0.094,0-0.19-0.016-0.283-0.052c-0.408-0.156-0.613-0.614-0.457-1.023
			c3.029-7.933,6.275-17.371,7.376-27.226c2.113-18.907-6.323-42.365-15.747-55.768c-0.252-0.357-0.166-0.852,0.191-1.104
			c0.359-0.251,0.852-0.166,1.104,0.193c9.596,13.645,18.182,37.557,16.025,56.854c-1.121,10.031-4.405,19.589-7.469,27.616
			C205.422,421.573,205.122,421.768,204.803,421.768z"/>
		<path style="fill:#B9CEEB;" d="M52.854,434.54c-0.085,0-0.17-0.014-0.255-0.042c-0.414-0.141-0.636-0.591-0.495-1.004
			l36.772-108.272c0.14-0.415,0.587-0.638,1.004-0.495c0.415,0.141,0.636,0.591,0.495,1.005L53.603,434.002
			C53.492,434.332,53.184,434.54,52.854,434.54z"/>
		<path style="fill:#B9CEEB;" d="M62.245,378.982c-0.431,0-0.783-0.346-0.792-0.777c-0.408-22.464-4.646-38.256-12.593-46.941
			c-0.295-0.324-0.272-0.824,0.05-1.119c0.323-0.297,0.825-0.273,1.12,0.05c8.215,8.977,12.592,25.12,13.007,47.981
			c0.008,0.438-0.341,0.799-0.777,0.807C62.255,378.982,62.25,378.982,62.245,378.982z"/>
	</g>
	<g>
		<g>
			<path style="fill:#FFABA1;" d="M335.674,326.84c3.174-6.894,6.003-20.196,9.229-24.766s7.013-8.535,13.039-12.316
				c3.093-1.941,9.409-5.665,14.252-6.96c4.842-1.295,2.725,8.054-1.618,9.729c-4.343,1.675-7.687,4.736-6.496,5.559
				c0.825,0.571,3.126,3.058,7.561,1.994c4.966-1.192,8.255-5.869,8.131-10.975c-0.02-0.882-0.11-1.782-0.297-2.654
				c-1.146-5.33,1.36-10.87,6.368-13.023c2.369-1.018,5.218-1.528,8.559-0.975c5.297,0.876,6.563,31.016-13.625,40.726
				c-4.178,2.011-21.382,5.55-24.925,10.432c-3.541,4.882-6.087,11.779-6.087,11.779L335.674,326.84z"/>
			<path style="fill:#010101;" d="M349.767,336.18c-0.143,0-0.287-0.038-0.412-0.113l-14.091-8.549
				c-0.344-0.208-0.478-0.643-0.309-1.008c1.34-2.912,2.649-7.083,3.916-11.118c1.784-5.689,3.47-11.063,5.385-13.775
				c3.686-5.22,7.775-9.085,13.264-12.529c3.303-2.073,9.573-5.745,14.47-7.055c1.727-0.462,3.058,0.178,3.558,1.713
				c0.934,2.865-1.255,8.196-4.687,9.52c-3.592,1.385-5.941,3.52-6.208,4.258c0.086,0.066,0.184,0.144,0.293,0.231
				c1.046,0.838,2.997,2.398,6.508,1.555c4.477-1.075,7.643-5.358,7.526-10.185c-0.023-0.901-0.116-1.744-0.282-2.506
				c-1.25-5.824,1.621-11.678,6.831-13.917c2.808-1.206,5.836-1.556,9.001-1.029c2.447,0.405,3.377,4.412,3.715,6.764
				c1.411,9.845-1.993,28.178-17.126,35.458c-1.334,0.641-3.89,1.417-6.849,2.315c-6.531,1.982-15.477,4.696-17.777,7.867
				c-3.437,4.739-5.959,11.521-5.985,11.589c-0.082,0.222-0.258,0.396-0.482,0.474C349.942,336.166,349.854,336.18,349.767,336.18z
				 M336.683,326.525l12.687,7.696c0.816-2.044,2.996-7.153,5.842-11.077c2.614-3.604,11.478-6.292,18.602-8.454
				c2.895-0.878,5.396-1.638,6.621-2.227c14.373-6.913,17.592-24.404,16.245-33.805c-0.506-3.539-1.601-5.293-2.405-5.426
				c-2.861-0.472-5.593-0.164-8.117,0.922c-4.517,1.941-7.001,7.042-5.908,12.128c0.185,0.858,0.29,1.801,0.315,2.8
				c0.134,5.569-3.541,10.517-8.739,11.765c-4.268,1.026-6.791-0.995-7.868-1.858c-0.13-0.104-0.239-0.192-0.328-0.253
				c-0.427-0.296-0.637-0.769-0.573-1.299c0.221-1.852,3.928-4.374,7.235-5.65c2.736-1.056,4.383-5.608,3.75-7.551
				c-0.166-0.507-0.487-0.983-1.643-0.673c-4.696,1.256-10.81,4.84-14.036,6.866c-5.375,3.373-9.207,6.993-12.813,12.102
				c-1.77,2.508-3.497,8.012-5.167,13.334C339.19,319.663,337.961,323.58,336.683,326.525z"/>
		</g>
		<g>
			<path style="fill:#FFFFFF;" d="M355.734,326.584l-17.316-9.718c-0.766-0.43-1.736-0.138-2.139,0.643l-5.828,11.327
				c-0.384,0.745-0.105,1.66,0.628,2.066l17.403,9.629c0.766,0.424,1.732,0.129,2.13-0.651l5.743-11.237
				C356.736,327.9,356.461,326.992,355.734,326.584z"/>
			<path style="fill:#B9CEEB;" d="M349.229,341.52c-0.39,0-0.777-0.1-1.13-0.294l-17.402-9.629c-1.117-0.618-1.533-1.989-0.95-3.122
				l5.829-11.328c0.293-0.57,0.793-0.986,1.408-1.171c0.616-0.185,1.263-0.114,1.822,0.2l17.317,9.719
				c1.102,0.617,1.514,1.983,0.94,3.109l-5.742,11.237c-0.292,0.571-0.791,0.987-1.402,1.175
				C349.691,341.484,349.459,341.52,349.229,341.52z M337.66,317.459c-0.074,0-0.147,0.011-0.22,0.033
				c-0.2,0.06-0.361,0.195-0.457,0.379l-5.828,11.328c-0.189,0.367-0.054,0.811,0.309,1.012l17.402,9.629
				c0.182,0.1,0.391,0.122,0.589,0.063c0.198-0.063,0.359-0.196,0.454-0.381l5.742-11.239c0.187-0.364,0.053-0.807-0.304-1.007
				l-17.316-9.718C337.915,317.492,337.788,317.459,337.66,317.459z"/>
		</g>
	</g>
	<g>
		<g>
			<path style="fill:#FFFFFF;" d="M138.45,263.782c0,0-0.65,17.971,0.1,29.955c0.354,5.646,4.287,10.431,9.743,11.927l7.176,1.967
				c3.698,1.014,4.062,6.113,0.544,7.64c-13.873,6.024-41.752,13.726-74.524-1.163c-3.498-1.588-3.084-6.675,0.633-7.639
				l14.13-3.664c5.251-1.361,9.147-5.779,9.842-11.16l5.388-41.756L138.45,263.782z"/>
			<path style="fill:#010101;" d="M120.146,323.5c-11.612,0-24.85-2.248-38.985-8.671c-1.91-0.867-3.029-2.775-2.849-4.86
				c0.179-2.068,1.597-3.742,3.611-4.265l14.13-3.664c4.966-1.287,8.599-5.407,9.255-10.495l5.389-41.756
				c0.033-0.257,0.189-0.48,0.417-0.601c0.229-0.12,0.502-0.121,0.73-0.002l26.966,13.891c0.272,0.14,0.44,0.426,0.429,0.732
				c-0.007,0.18-0.64,18.071,0.1,29.878c0.331,5.295,4.013,9.801,9.161,11.212l7.177,1.968c2.013,0.553,3.41,2.254,3.558,4.335
				c0.148,2.081-0.993,3.964-2.908,4.796C148.385,319.448,135.732,323.5,120.146,323.5z M112.125,251.111l-5.243,40.637
				c-0.74,5.733-4.833,10.375-10.429,11.825l-14.131,3.663c-1.646,0.427-2.335,1.763-2.431,2.87
				c-0.097,1.119,0.359,2.569,1.926,3.281c32.549,14.788,60.26,7.075,73.881,1.158c1.565-0.68,2.039-2.114,1.959-3.23
				c-0.08-1.116-0.751-2.469-2.397-2.92l-7.176-1.968c-5.802-1.59-9.951-6.671-10.324-12.641
				c-0.673-10.768-0.214-26.528-0.118-29.531L112.125,251.111z"/>
		</g>
		<g>
			<path style="fill:#FFFFFF;" d="M157.354,205.348c5.695,6.026,8.647,14.136,8.628,22.427c-0.011,4.71-2.469,9.261-3.222,15.679
				c-1.94,16.547-8.954,29.768-28.108,28.466c0,0-22.995-1.249-25.804-25.909c0,0-1.348-12.429,4.271-25.539
				c3.772-8.801,14.458-26.591,31.002-22.845C149.808,198.916,154.129,201.937,157.354,205.348z"/>
			<path style="fill:#010101;" d="M137.171,272.8c-0.839,0-1.696-0.029-2.573-0.089c-0.226-0.012-23.686-1.574-26.538-26.609
				c-0.057-0.52-1.305-12.791,4.331-25.94c1.991-4.646,12.888-27.602,31.904-23.305c5.168,1.17,9.755,3.844,13.634,7.949
				c5.724,6.055,8.865,14.213,8.845,22.972c-0.006,2.593-0.723,5.139-1.481,7.833c-0.687,2.443-1.398,4.968-1.746,7.938
				C161.268,262.971,152.397,272.799,137.171,272.8z M139.654,197.91c-15.176,0-24.063,18.8-25.809,22.875
				c-5.474,12.772-4.225,25.02-4.212,25.142c2.698,23.681,24.149,25.151,25.061,25.203c16.035,1.086,24.958-7.993,27.278-27.767
				c0.363-3.095,1.123-5.797,1.795-8.183c0.76-2.699,1.416-5.03,1.422-7.406c0.019-8.353-2.968-16.123-8.412-21.882
				c-3.66-3.871-7.976-6.392-12.833-7.49C142.464,198.065,141.032,197.91,139.654,197.91z"/>
		</g>
	</g>
	<path style="fill:#253238;" d="M124.767,200.438c0,0,2.453,8.603,15.92,19.666c8.74,7.179,23.96,8.814,26.532,14.67
		c0,0,9.365-35.586-20.914-39.644S124.767,200.438,124.767,200.438z"/>
	<g>
		<path style="fill:#010101;" d="M121.227,263.459c-7.281,0-14.111-4.119-17.413-10.98l-3.797-7.892
			c-0.189-0.394-0.023-0.868,0.37-1.058c0.394-0.19,0.869-0.022,1.057,0.371l3.798,7.892c3.78,7.859,12.606,11.797,20.981,9.37
			l18.613-5.4c0.421-0.125,0.859,0.12,0.981,0.541c0.122,0.419-0.12,0.858-0.54,0.981l-18.613,5.4
			C124.856,263.207,123.027,263.459,121.227,263.459z"/>
		<path style="fill:#FFFFFF;" d="M101.355,224.329c-0.005,0-0.011,0-0.017,0c-0.438-0.009-0.785-0.371-0.776-0.809
			c0.022-0.987,0.664-24.321,13.603-36.376c5.292-4.93,11.922-7.234,19.693-6.852c0.437,0.022,0.773,0.394,0.752,0.831
			c-0.021,0.438-0.411,0.79-0.83,0.752c-7.333-0.366-13.565,1.798-18.532,6.424c-12.447,11.593-13.096,35.02-13.101,35.255
			C102.137,223.985,101.785,224.329,101.355,224.329z"/>
		
			<ellipse transform="matrix(0.1255 -0.9921 0.9921 0.1255 -125.2227 369.5249)" style="fill:#010101;" cx="146.99" cy="255.791" rx="5.073" ry="5.164"/>
		<g>
			<path style="fill:#FFFFFF;" d="M114.817,236.308c0.985-7.795-4.008-14.847-11.156-15.751c-0.783-0.099-3.688-0.173-4.452-0.122
				c-6.201,0.416-9.396,5.658-10.275,12.598c-0.946,7.484,1.905,14.478,8.597,15.808c0.278,0.056,2.259,0.214,2.546,0.215
				C107.91,249.082,113.831,244.103,114.817,236.308z"/>
			<path style="fill:#010101;" d="M100.138,249.848c-0.021,0-0.042,0-0.063,0c-0.307,0-2.356-0.162-2.699-0.231
				c-6.615-1.314-10.323-8.019-9.227-16.683c1.032-8.162,4.941-12.88,11.007-13.29c0.769-0.05,3.745,0.018,4.604,0.126
				c3.679,0.465,6.939,2.461,9.175,5.62c2.222,3.137,3.169,7.049,2.667,11.016C114.584,244.453,108.374,249.848,100.138,249.848z
				 M99.991,221.209c-0.313,0-0.57,0.005-0.729,0.016c-7.052,0.474-9.005,7.664-9.542,11.907c-0.82,6.48,1.325,13.611,7.965,14.932
				c0.257,0.046,2.144,0.199,2.394,0.199c0.02,0,0.04,0,0.06,0c7.515,0.001,12.963-4.725,13.891-12.056
				c0.452-3.572-0.396-7.089-2.389-9.902c-1.977-2.792-4.847-4.555-8.081-4.963C103.008,221.272,101.131,221.209,99.991,221.209z"/>
		</g>
		<g>
			
				<ellipse transform="matrix(0.1061 -0.9944 0.9944 0.1061 -145.0731 307.9778)" style="fill:#FFFFFF;" cx="98.756" cy="234.676" rx="14.226" ry="13.045"/>
			<path style="fill:#010101;" d="M98.525,249.676c-0.452,0-0.906-0.024-1.364-0.073c-7.586-0.809-13.043-8.167-12.165-16.401
				c0.423-3.976,2.245-7.565,5.129-10.107c2.903-2.56,6.535-3.754,10.22-3.359c3.688,0.393,6.986,2.325,9.284,5.439
				c2.282,3.093,3.306,6.985,2.883,10.962C111.687,243.875,105.556,249.676,98.525,249.676z M98.971,221.248
				c-2.821,0-5.551,1.057-7.798,3.036c-2.586,2.279-4.22,5.507-4.602,9.088c-0.786,7.365,4.04,13.941,10.758,14.657
				c6.715,0.713,12.823-4.692,13.609-12.059c0.381-3.581-0.536-7.08-2.583-9.854c-2.031-2.752-4.935-4.459-8.176-4.804
				C99.775,221.269,99.373,221.248,98.971,221.248z"/>
		</g>
	</g>
	<g>
		<g>
			<path style="fill:#FFABA1;" d="M134.613,248.541c-1.696-2.237-13.756,2.335-18.687,4.152
				c-4.931,1.816-17.649,18.947-18.687,30.367c-1.038,11.419,2.336,30.625-0.26,37.374c0,0,6.229,5.71,17.909,4.152
				c0,0,1.297-10.9,3.633-14.793c2.336-3.893,16.611-14.274,15.573-21.282c-0.788-5.316-10.837-9.289-15.642-10.896
				c-0.773-0.259-0.724-1.376,0.072-1.554c2.464-0.553,6.41-1.001,10.639,0.252c7.007,2.076,13.237-1.298,10.381-5.191
				c-2.562-3.494-12.857-7.196-20.195-6.419c-0.301,0.032-0.411-0.375-0.134-0.497C124.928,261.688,139.216,254.609,134.613,248.541
				z"/>
			<path style="fill:#010101;" d="M110.883,325.65c-9.265,0-14.206-4.42-14.439-4.633c-0.24-0.221-0.321-0.564-0.204-0.869
				c1.417-3.685,0.967-11.412,0.492-19.594c-0.361-6.192-0.733-12.595-0.281-17.566c1.075-11.826,14.15-29.178,19.202-31.038
				l0.614-0.227c10.491-3.875,17.326-5.839,18.978-3.662c0.985,1.298,1.287,2.722,0.896,4.23c-1.172,4.525-8.55,8.832-14.157,11.514
				c7.357,0.15,15.815,3.594,18.201,6.845c1.065,1.454,1.144,3.045,0.214,4.366c-1.809,2.571-6.735,3.453-11.46,2.053
				c-4.026-1.192-7.791-0.788-10.24-0.238c5.69,1.933,15.35,5.96,16.18,11.562c0.776,5.24-5.763,11.641-11.017,16.783
				c-2.142,2.096-3.99,3.906-4.66,5.022c-2.222,3.702-3.513,14.372-3.526,14.479c-0.043,0.358-0.324,0.644-0.682,0.691
				C113.54,325.564,112.17,325.65,110.883,325.65z M97.911,320.168c1.482,1.117,7.092,4.749,16.269,3.707
				c0.316-2.4,1.567-10.998,3.663-14.49c0.775-1.291,2.6-3.077,4.91-5.339c4.734-4.633,11.216-10.978,10.558-15.418
				c-0.732-4.943-10.811-8.823-15.109-10.262c-0.69-0.231-1.129-0.875-1.092-1.604c0.038-0.724,0.536-1.316,1.243-1.474
				c2.632-0.591,6.684-1.025,11.037,0.265c4.445,1.316,8.503,0.275,9.714-1.447c0.536-0.761,0.47-1.608-0.197-2.516
				c-2.374-3.237-12.44-6.836-19.473-6.1c-0.533,0.055-0.999-0.271-1.134-0.776c-0.133-0.504,0.118-1.022,0.598-1.233
				c8.982-3.958,14.855-8.289,15.708-11.584c0.267-1.03,0.063-1.97-0.625-2.876c-0.582-0.767-4.033-0.661-17.167,4.19l-0.616,0.228
				c-4.645,1.711-17.164,18.6-18.171,29.695c-0.441,4.853-0.073,11.197,0.285,17.331C98.778,308.452,99.219,316.019,97.911,320.168z
				 M119.537,264.929c0,0,0,0.001-0.001,0.001L119.537,264.929z"/>
		</g>
		<g>
			<path style="fill:#FFFFFF;" d="M117.172,316.822c-2.944,0.411-10.755,0.833-20.197-4.013c-0.575-0.294-1.273,0.05-1.398,0.683
				l-2.194,11.014c-0.083,0.419,0.111,0.842,0.485,1.048c2.546,1.399,12.509,6.273,22.597,2.999c0.363-0.117,0.62-0.441,0.664-0.82
				l1.148-9.828C118.351,317.268,117.807,316.733,117.172,316.822z"/>
			<path style="fill:#B9CEEB;" d="M109.219,330.46c-7.353,0.001-13.592-3.035-15.732-4.212c-0.678-0.372-1.032-1.135-0.88-1.896
				l2.193-11.014c0.111-0.551,0.464-1.007,0.97-1.252c0.503-0.241,1.073-0.234,1.568,0.019c9.245,4.743,16.876,4.33,19.726,3.933
				c0.543-0.079,1.085,0.1,1.48,0.486c0.395,0.385,0.584,0.923,0.521,1.474l-1.148,9.827c-0.08,0.688-0.554,1.271-1.206,1.481
				C114.164,330.133,111.631,330.46,109.219,330.46z M96.536,313.494c-0.031,0-0.058,0.009-0.079,0.018
				c-0.032,0.016-0.088,0.054-0.104,0.134L94.16,324.66c-0.016,0.082,0.019,0.16,0.089,0.199c2.702,1.485,12.27,6.086,21.971,2.94
				c0.063-0.021,0.113-0.085,0.122-0.16l1.147-9.826c0.009-0.078-0.024-0.128-0.055-0.158c-0.029-0.028-0.081-0.061-0.153-0.05
				c-3,0.42-11.021,0.859-20.668-4.092C96.585,313.5,96.559,313.494,96.536,313.494z M117.172,316.822h0.007H117.172z"/>
		</g>
	</g>
</g>
</svg>
