<?xml version="1.0" standalone="no"?>
<!DOCTYPE svg PUBLIC "-//W3C//DTD SVG 1.0//EN" "http://www.w3.org/TR/2001/REC-SVG-20010904/DTD/svg10.dtd">
<svg xmlns="http://www.w3.org/2000/svg" xmlns:xlink="http://www.w3.org/1999/xlink" id="body_1" width="435" height="415">

<defs>
        <clipPath  id="1">

            <path clip-rule="evenodd" d="M0 0L435 0L435 415L0 415z" />        </clipPath>
            <clipPath  id="2">

                <path clip-rule="evenodd" d="M0 414.645L0 0L434.769 0L434.769 414.645z" />            </clipPath>
            <clipPath  id="3">

                <path clip-rule="evenodd" d="M0 414.645L0 0L434.769 0L434.769 414.645z" />            </clipPath>
            <clipPath  id="4">

                <path clip-rule="evenodd" d="M0 414.645L0 0L434.769 0L434.769 414.645z" />            </clipPath>
            <clipPath  id="5">

                <path clip-rule="evenodd" d="M0 414.645L0 0L434.769 0L434.769 414.645z" />            </clipPath>
            <clipPath  id="6">

                <path clip-rule="evenodd" d="M0 414.645L0 0L434.769 0L434.769 414.645z" />            </clipPath>
            <clipPath  id="7">

                <path clip-rule="evenodd" d="M0 414.645L0 0L434.769 0L434.769 414.645z" />            </clipPath>
            <clipPath  id="8">

                <path clip-rule="evenodd" d="M0 414.645L0 0L434.769 0L434.769 414.645z" />            </clipPath>
            <clipPath  id="9">

                <path clip-rule="evenodd" d="M0 414.645L0 0L434.769 0L434.769 414.645z" />            </clipPath>
            <clipPath  id="10">

                <path clip-rule="evenodd" d="M0 414.645L0 0L434.769 0L434.769 414.645z" />            </clipPath>
            <clipPath  id="11">

                <path clip-rule="evenodd" d="M0 414.645L0 0L434.769 0L434.769 414.645z" />            </clipPath>
            <clipPath  id="12">

                <path clip-rule="evenodd" d="M0 414.645L0 0L434.769 0L434.769 414.645z" />            </clipPath>
            <clipPath  id="13">

                <path clip-rule="evenodd" d="M0 414.645L0 0L434.769 0L434.769 414.645z" />            </clipPath>
            <clipPath  id="14">

                <path clip-rule="evenodd" d="M0 414.645L0 0L434.769 0L434.769 414.645z" />            </clipPath>
            <clipPath  id="15">

                <path clip-rule="evenodd" d="M0 414.645L0 0L434.769 0L434.769 414.645z" />            </clipPath>
            <clipPath  id="16">

                <path clip-rule="evenodd" d="M0 414.645L0 0L434.769 0L434.769 414.645z" />            </clipPath>
            <clipPath  id="17">

                <path clip-rule="evenodd" d="M0 414.645L0 0L434.769 0L434.769 414.645z" />            </clipPath>
            <clipPath  id="18">

                <path clip-rule="evenodd" d="M0 414.645L0 0L434.769 0L434.769 414.645z" />            </clipPath>
            <clipPath  id="19">

                <path clip-rule="evenodd" d="M0 414.645L0 0L434.769 0L434.769 414.645z" />            </clipPath>
            <clipPath  id="20">

                <path clip-rule="evenodd" d="M0 414.645L0 0L434.769 0L434.769 414.645z" />            </clipPath>
            <clipPath  id="21">

                <path clip-rule="evenodd" d="M0 414.645L0 0L434.769 0L434.769 414.645z" />            </clipPath>
            <clipPath  id="22">

                <path clip-rule="evenodd" d="M0 414.645L0 0L434.769 0L434.769 414.645z" />            </clipPath>
            <clipPath  id="23">

                <path clip-rule="evenodd" d="M0 414.645L0 0L434.769 0L434.769 414.645z" />            </clipPath>
            <clipPath  id="24">

                <path clip-rule="evenodd" d="M0 414.645L0 0L434.769 0L434.769 414.645z" />            </clipPath>
            <clipPath  id="25">

                <path clip-rule="evenodd" d="M0 414.645L0 0L434.769 0L434.769 414.645z" />            </clipPath>
            <clipPath  id="26">

                <path clip-rule="evenodd" d="M0 414.645L0 0L434.769 0L434.769 414.645z" />            </clipPath>
            <clipPath  id="27">

                <path clip-rule="evenodd" d="M0 414.645L0 0L434.769 0L434.769 414.645z" />            </clipPath>
            <clipPath  id="28">

                <path clip-rule="evenodd" d="M0 414.645L0 0L434.769 0L434.769 414.645z" />            </clipPath>
            <clipPath  id="29">

                <path clip-rule="evenodd" d="M0 414.645L0 0L434.769 0L434.769 414.645z" />            </clipPath>
            <clipPath  id="30">

                <path clip-rule="evenodd" d="M0 414.645L0 0L434.769 0L434.769 414.645z" />            </clipPath>
            <clipPath  id="31">

                <path clip-rule="evenodd" d="M0 414.645L0 0L434.769 0L434.769 414.645z" />            </clipPath>
            <clipPath  id="32">

                <path clip-rule="evenodd" d="M0 414.645L0 0L434.769 0L434.769 414.645z" />            </clipPath>
            <clipPath  id="33">

                <path clip-rule="evenodd" clip-path="url(#34)"  d="M240.733 208.484C 238.622 210.482 236.762 212.749 236.068 214.97798C 236.083 214.98 236.101 214.982 236.116 214.984C 236.839 212.85199 238.453 210.67198 240.733 208.484" />            </clipPath>
            <clipPath  id="35">

                <path clip-rule="evenodd" d="M0 414.645L0 0L434.769 0L434.769 414.645z" />            </clipPath>
            <clipPath  id="36">

                <path clip-rule="evenodd" d="M0 414.645L0 0L434.769 0L434.769 414.645z" />            </clipPath>
            <clipPath  id="37">

                <path clip-rule="evenodd" d="M0 414.645L0 0L434.769 0L434.769 414.645z" />            </clipPath>
            <clipPath  id="38">

                <path clip-rule="evenodd" d="M0 414.645L0 0L434.769 0L434.769 414.645z" />            </clipPath>
            <clipPath  id="39">

                <path clip-rule="evenodd" d="M0 414.645L0 0L434.769 0L434.769 414.645z" />            </clipPath>
            <clipPath  id="40">

                <path clip-rule="evenodd" d="M0 414.645L0 0L434.769 0L434.769 414.645z" />            </clipPath>
            <clipPath  id="41">

                <path clip-rule="evenodd" d="M0 414.645L0 0L434.769 0L434.769 414.645z" />            </clipPath>
            <clipPath  id="42">

                <path clip-rule="evenodd" d="M0 414.645L0 0L434.769 0L434.769 414.645z" />            </clipPath>
            <clipPath  id="43">

                <path clip-rule="evenodd" d="M0 414.645L0 0L434.769 0L434.769 414.645z" />            </clipPath>
            <clipPath  id="44">

                <path clip-rule="evenodd" d="M0 414.645L0 0L434.769 0L434.769 414.645z" />            </clipPath>
            <clipPath  id="45">

                <path clip-rule="evenodd" d="M0 414.645L0 0L434.769 0L434.769 414.645z" />            </clipPath>
            <clipPath  id="46">

                <path clip-rule="evenodd" d="M0 414.645L0 0L434.769 0L434.769 414.645z" />            </clipPath>
            <clipPath  id="47">

                <path clip-rule="evenodd" d="M0 414.645L0 0L434.769 0L434.769 414.645z" />            </clipPath>
            <clipPath  id="48">

                <path clip-rule="evenodd" d="M0 414.645L0 0L434.769 0L434.769 414.645z" />            </clipPath>
            <clipPath  id="49">

                <path clip-rule="evenodd" d="M0 414.645L0 0L434.769 0L434.769 414.645z" />            </clipPath>
            <clipPath  id="50">

                <path clip-rule="evenodd" d="M0 414.645L0 0L434.769 0L434.769 414.645z" />            </clipPath>
            <clipPath  id="51">

                <path clip-rule="evenodd" d="M0 414.645L0 0L434.769 0L434.769 414.645z" />            </clipPath>
            <clipPath  id="52">

                <path clip-rule="evenodd" d="M0 414.645L0 0L434.769 0L434.769 414.645z" />            </clipPath>
            <clipPath  id="53">

                <path clip-rule="evenodd" d="M0 414.645L0 0L434.769 0L434.769 414.645z" />            </clipPath>
            <clipPath  id="54">

                <path clip-rule="evenodd" d="M0 414.645L0 0L434.769 0L434.769 414.645z" />            </clipPath>
            <clipPath  id="55">

                <path clip-rule="evenodd" d="M0 414.645L0 0L434.769 0L434.769 414.645z" />            </clipPath>
            <clipPath  id="56">

                <path clip-rule="evenodd" d="M0 414.645L0 0L434.769 0L434.769 414.645z" />            </clipPath>
            <clipPath  id="57">

                <path clip-rule="evenodd" d="M0 414.645L0 0L434.769 0L434.769 414.645z" />            </clipPath>
            <clipPath  id="58">

                <path clip-rule="evenodd" d="M0 414.645L0 0L434.769 0L434.769 414.645z" />            </clipPath>
            <clipPath  id="59">

                <path clip-rule="evenodd" d="M0 414.645L0 0L434.769 0L434.769 414.645z" />            </clipPath>
            <clipPath  id="60">

                <path clip-rule="evenodd" d="M0 414.645L0 0L434.769 0L434.769 414.645z" />            </clipPath>
            <clipPath  id="61">

                <path clip-rule="evenodd" d="M0 414.645L0 0L434.769 0L434.769 414.645z" />            </clipPath>
            <clipPath  id="62">

                <path clip-rule="evenodd" d="M0 414.645L0 0L434.769 0L434.769 414.645z" />            </clipPath>
            <clipPath  id="63">

                <path clip-rule="evenodd" d="M0 414.645L0 0L434.769 0L434.769 414.645z" />            </clipPath>
            <clipPath  id="64">

                <path clip-rule="evenodd" d="M0 414.645L0 0L434.769 0L434.769 414.645z" />            </clipPath>
            <clipPath  id="65">

                <path clip-rule="evenodd" d="M0 414.645L0 0L434.769 0L434.769 414.645z" />            </clipPath>
            <clipPath  id="66">

                <path clip-rule="evenodd" d="M0 414.645L0 0L434.769 0L434.769 414.645z" />            </clipPath>
            <clipPath  id="67">

                <path clip-rule="evenodd" d="M0 414.645L0 0L434.769 0L434.769 414.645z" />            </clipPath>
            <clipPath  id="68">

                <path clip-rule="evenodd" d="M0 414.645L0 0L434.769 0L434.769 414.645z" />            </clipPath>
            <clipPath  id="69">

                <path clip-rule="evenodd" d="M0 414.645L0 0L434.769 0L434.769 414.645z" />            </clipPath>
            <clipPath  id="70">

                <path clip-rule="evenodd" d="M0 414.645L0 0L434.769 0L434.769 414.645z" />            </clipPath>
            <clipPath  id="71">

                <path clip-rule="evenodd" d="M0 414.645L0 0L434.769 0L434.769 414.645z" />            </clipPath>
            <clipPath  id="72">

                <path clip-rule="evenodd" d="M0 414.645L0 0L434.769 0L434.769 414.645z" />            </clipPath>
            <clipPath  id="73">

                <path clip-rule="evenodd" d="M0 414.645L0 0L434.769 0L434.769 414.645z" />            </clipPath>
            <clipPath  id="74">

                <path clip-rule="evenodd" d="M0 414.645L0 0L434.769 0L434.769 414.645z" />            </clipPath>
            <clipPath  id="75">

                <path clip-rule="evenodd" d="M0 414.645L0 0L434.769 0L434.769 414.645z" />            </clipPath>
            <clipPath  id="76">

                <path clip-rule="evenodd" d="M0 414.645L0 0L434.769 0L434.769 414.645z" />            </clipPath>
            <clipPath  id="77">

                <path clip-rule="evenodd" d="M0 414.645L0 0L434.769 0L434.769 414.645z" />            </clipPath>
            <clipPath  id="78">

                <path clip-rule="evenodd" d="M0 414.645L0 0L434.769 0L434.769 414.645z" />            </clipPath>
            <clipPath  id="79">

                <path clip-rule="evenodd" d="M0 414.645L0 0L434.769 0L434.769 414.645z" />            </clipPath>
            <clipPath  id="80">

                <path clip-rule="evenodd" d="M0 414.645L0 0L434.769 0L434.769 414.645z" />            </clipPath>
            <clipPath  id="81">

                <path clip-rule="evenodd" d="M0 414.645L0 0L434.769 0L434.769 414.645z" />            </clipPath>
            <clipPath  id="82">

                <path clip-rule="evenodd" d="M0 414.645L0 0L434.769 0L434.769 414.645z" />            </clipPath>
            <clipPath  id="83">

                <path clip-rule="evenodd" d="M0 414.645L0 0L434.769 0L434.769 414.645z" />            </clipPath>
            <clipPath  id="84">

                <path clip-rule="evenodd" d="M0 414.645L0 0L434.769 0L434.769 414.645z" />            </clipPath>
            <clipPath  id="85">

                <path clip-rule="evenodd" d="M0 414.645L0 0L434.769 0L434.769 414.645z" />            </clipPath>
            <clipPath  id="86">

                <path clip-rule="evenodd" d="M0 414.645L0 0L434.769 0L434.769 414.645z" />            </clipPath>
            <clipPath  id="87">

                <path clip-rule="evenodd" d="M0 414.645L0 0L434.769 0L434.769 414.645z" />            </clipPath>
            <clipPath  id="88">

                <path clip-rule="evenodd" d="M0 414.645L0 0L434.769 0L434.769 414.645z" />            </clipPath>
            <clipPath  id="89">

                <path clip-rule="evenodd" d="M0 414.645L0 0L434.769 0L434.769 414.645z" />            </clipPath>
            <clipPath  id="90">

                <path clip-rule="evenodd" d="M0 414.645L0 0L434.769 0L434.769 414.645z" />            </clipPath>
            <clipPath  id="91">

                <path clip-rule="evenodd" d="M0 414.645L0 0L434.769 0L434.769 414.645z" />            </clipPath>
            <clipPath  id="92">

                <path clip-rule="evenodd" d="M0 414.645L0 0L434.769 0L434.769 414.645z" />            </clipPath>
            <clipPath  id="93">

                <path clip-rule="evenodd" d="M0 414.645L0 0L434.769 0L434.769 414.645z" />            </clipPath>
            <clipPath  id="94">

                <path clip-rule="evenodd" d="M0 414.645L0 0L434.769 0L434.769 414.645z" />            </clipPath>
            <clipPath  id="95">

                <path clip-rule="evenodd" d="M0 414.645L0 0L434.769 0L434.769 414.645z" />            </clipPath>
            <clipPath  id="96">

                <path clip-rule="evenodd" d="M0 414.645L0 0L434.769 0L434.769 414.645z" />            </clipPath>
            <clipPath  id="97">

                <path clip-rule="evenodd" d="M0 414.645L0 0L434.769 0L434.769 414.645z" />            </clipPath>
            <clipPath  id="98">

                <path clip-rule="evenodd" d="M0 414.645L0 0L434.769 0L434.769 414.645z" />            </clipPath>
            <clipPath  id="99">

                <path clip-rule="evenodd" d="M0 414.645L0 0L434.769 0L434.769 414.645z" />            </clipPath>
            <clipPath  id="100">

                <path clip-rule="evenodd" d="M0 414.645L0 0L434.769 0L434.769 414.645z" />            </clipPath>
            <clipPath  id="101">

                <path clip-rule="evenodd" d="M0 414.645L0 0L434.769 0L434.769 414.645z" />            </clipPath>
            <clipPath  id="102">

                <path clip-rule="evenodd" d="M0 414.645L0 0L434.769 0L434.769 414.645z" />            </clipPath>
            <clipPath  id="103">

                <path clip-rule="evenodd" d="M0 414.645L0 0L434.769 0L434.769 414.645z" />            </clipPath>
            <clipPath  id="104">

                <path clip-rule="evenodd" d="M0 414.645L0 0L434.769 0L434.769 414.645z" />            </clipPath>
            <clipPath  id="105">

                <path clip-rule="evenodd" d="M0 414.645L0 0L434.769 0L434.769 414.645z" />            </clipPath>
            <clipPath  id="106">

                <path clip-rule="evenodd" d="M0 414.645L0 0L434.769 0L434.769 414.645z" />            </clipPath>
            <clipPath  id="107">

                <path clip-rule="evenodd" d="M0 414.645L0 0L434.769 0L434.769 414.645z" />            </clipPath>
</defs>

<g transform="matrix(1.3333334 0 0 1.3333334 0 0)">
  
	<g transform="matrix(0.75 0 0 -0.75 -0 311.25)" clip-path="url(#1)" >
        <path d="M0 0L435 0L435 415L0 415z" stroke="none" fill="none" />
        <path d="M0 0L435 0L435 415L0 415z" stroke="none" fill="none" />
        <path d="M0 0L435 0L435 415L0 415z" stroke="none" fill="none" />
        <path d="M0 0L435 0L435 415L0 415z" stroke="none" fill="none" />
        <path d="M0 0L435 0L435 415L0 415z" stroke="none" fill="none" />
        <path d="M0 414.645L0 0L434.769 0L434.769 414.645z" stroke="none" fill="none" />
        <path clip-path="url(#2)"  d="M306.315 0.7949829C 268.456 3.0179749 230.599 6.098999 192.741 8.322998C 187.132 8.652985 181.396 9.010986 176.215 11.190002C 171.361 13.233002 167.298 16.748993 162.822 19.52298C 158.345 22.298004 152.979 24.382996 147.875 23.087982C 142.771 21.793 138.693 15.892975 140.927 11.119995C 138.275 19.630981 135.425 28.477997 129.215 34.866974C 123.006 41.25598 112.352 44.267 105.048 39.166992C 96.9074 33.483 96.8927 21.643982 97.7272 11.742981C 95.1476 19.164978 92.4425 26.804993 87.1774 32.632996C 81.9123 38.461 73.3713 42.063995 66.0412 39.253998C 60.6955 37.203003 56.9484 32.121002 55.1984 26.662994C 53.4489 21.205994 53.4318 15.355988 53.6413 9.628998L53.6413 9.628998L53.4655 0.50097656L306.315 0.7949829z" stroke="none" fill="#DAE5E2" fill-rule="nonzero" />
        <path clip-path="url(#3)"  d="M217.001 350.80988C 217.957 357.75568 208.155 363.4696 200.789 364.0634C 197.277 364.3466 193.628 363.80948 190.3 364.9691C 183.09 367.48178 180.21 376.79678 173.174 379.76398C 167.915 381.9823 161.86 380.0077 156.761 377.44128C 151.662 374.8754 146.623 371.6454 140.927 371.2811C 135.971 370.9638 130.591 372.80118 126.256 370.38068C 123.025 368.577 121.333 364.8544 118.355 362.6586C 115.442 360.5101 111.642 360.05508 108.028 359.85828C 104.414 359.662 100.672 359.6254 97.3805 358.1185C 94.0895 356.6117 91.3669 353.1312 92.05 349.57648L92.05 349.57648L217.001 350.80988z" stroke="none" fill="#E7EEEC" fill-rule="nonzero" />
        <path clip-path="url(#4)"  d="M400.019 398.25818C 400.482 401.62048 395.737 404.3866 392.171 404.6742C 390.47 404.8114 388.704 404.55118 387.093 405.11267C 383.603 406.32898 382.208 410.83826 378.803 412.27478C 376.256 413.3485 373.325 412.39246 370.857 411.15027C 368.389 409.90808 365.949 408.3446 363.192 408.16833C 360.793 408.01453 358.188 408.90417 356.089 407.7323C 354.526 406.85925 353.706 405.057 352.265 403.994C 350.855 402.95398 349.015 402.7338 347.266 402.63858C 345.516 402.54327 343.704 402.5258 342.111 401.7963C 340.518 401.0668 339.199 399.3822 339.53 397.6615L339.53 397.6615L400.019 398.25818z" stroke="none" fill="#F3F6F4" fill-rule="nonzero" />
        <path clip-path="url(#5)"  d="M115.061 386.77768C 115.65 391.05508 109.612 394.57358 105.076 394.9393C 102.913 395.11368 100.666 394.78308 98.6169 395.49738C 94.1769 397.0448 92.403 402.7811 88.0705 404.6088C 84.8317 405.9745 81.1027 404.75867 77.9626 403.1781C 74.8224 401.5975 71.7194 399.6088 68.2111 399.3842C 65.1598 399.1889 61.8459 400.32068 59.1759 398.83C 57.1867 397.7191 56.1447 395.42657 54.3107 394.0741C 52.5168 392.7514 50.1769 392.4711 47.9508 392.34998C 45.7253 392.22888 43.4206 392.2064 41.3937 391.2782C 39.3669 390.3505 37.6906 388.2074 38.111 386.01797L38.111 386.01797L115.061 386.77768z" stroke="none" fill="#E7EEEC" fill-rule="nonzero" />
        <path clip-path="url(#6)"  d="M399.977 323.5023C 384.509 348.6723 358.725 366.0326 329.445 369.9643C 318.068 371.4921 306.454 371.1586 295.209 368.7816C 261.662 361.6908 232.473 336.6405 220.373 304.559C 213.258 285.69 211.27 263.966 197.767 248.98999C 180.193 229.49799 150.357 228.88599 124.126 229.69398C 97.8937 230.50099 68.0383 229.812 50.55 210.24399C 39.5973 197.98898 36.1164 180.56099 36.9997 164.14899C 39.3381 120.69699 70.0001 81.845 108.995 62.53299C 147.99 43.221985 193.902 41.491974 236.58 49.987C 296.366 61.888 353.222 94.569 387.397 145.04898C 419.957 193.14198 429.347 257.84198 406.513 310.968C 404.65 315.30267 402.447 319.48328 399.977 323.5023z" stroke="none" fill="#E7EEEC" fill-rule="nonzero" />
        <path clip-path="url(#7)"  d="M434.769 0.50097656C 434.769 0.35699463 337.435 0.23999023 217.395 0.23999023C 97.3131 0.23999023 0.00010884 0.35699463 0.00010884 0.50097656C 0.00010884 0.64398193 97.3131 0.7609863 217.395 0.7609863C 337.435 0.7609863 434.769 0.64398193 434.769 0.50097656z" stroke="none" fill="#000000" fill-rule="nonzero" />
        <path clip-path="url(#8)"  d="M10.3834 278.12097C 10.3834 278.12097 89.2551 239.31099 111.164 231.79999C 129.074 225.659 157.861 223.702 175.296 225.58598C 179.188 226.00598 182.515 226.61899 185.028 227.41798C 198.799 231.79999 268.281 246.19699 268.281 246.19699L268.281 246.19699L351.402 250.73499L349.549 262.044L254.217 256.26498C 254.217 256.26498 199.115 248.62898 191.408 239.53899C 191.408 239.53899 184.858 230.44699 173.297 228.90599C 161.738 227.36499 110.489 239.69499 104.709 245.47499C 98.9294 251.25499 97.3879 253.952 80.819 257.80597C 64.2497 261.659 26.8732 287.861 26.8732 287.861L26.8732 287.861L8.37707 278.61298L10.3834 278.12097z" stroke="none" fill="#1D4354" fill-rule="nonzero" />
        <path clip-path="url(#9)"  d="M160.919 224.898C 144.534 224.898 124.728 227.14899 111.164 231.79999C 89.2551 239.31099 10.3834 278.12097 10.3834 278.12097L10.3834 278.12097L8.37707 278.61298L26.8732 287.861C 26.8732 287.861 64.2497 261.659 80.819 257.80597C 97.3879 253.952 98.9294 251.25499 104.709 245.47499C 110.154 240.02998 155.945 228.773 170.9 228.77399C 171.821 228.77399 172.627 228.81699 173.297 228.90599C 184.858 230.44699 191.408 239.53899 191.408 239.53899C 199.115 248.62898 254.217 256.26498 254.217 256.26498L254.217 256.26498L276.89 257.63898C 274.475 253.538 272.091 249.51099 270.161 246.29999L270.161 246.29999L268.281 246.19699C 268.281 246.19699 198.799 231.79999 185.028 227.41798C 182.515 226.61899 179.188 226.00598 175.296 225.58598C 171.065 225.12898 166.169 224.898 160.919 224.898z" stroke="none" fill="#590000" fill-rule="nonzero" />
        <path clip-path="url(#10)"  d="M350.791 254.467L350.479 256.372C 350.479 256.372 350.479 256.37097 350.479 256.37097L350.479 256.37097L350.693 255.06898L350.791 254.46799C 350.791 254.46799 350.791 254.467 350.791 254.467zM350.295 257.48898L350.287 257.53998C 350.287 257.541 350.287 257.541 350.287 257.541L350.287 257.541L350.296 257.49L350.295 257.48898z" stroke="none" fill="#3A5556" fill-rule="nonzero" />
        <path clip-path="url(#11)"  d="M347.337 250.57199C 347.624 251.22198 347.902 251.86499 348.171 252.49998C 348.673 253.63098 349.161 254.762 349.629 255.883C 349.871 256.461 350.089 257.00897 350.287 257.53998L350.287 257.53998L350.295 257.48898L350.108 256.896L350.108 256.896C 350.255 256.72797 350.378 256.552 350.479 256.372L350.479 256.372L350.791 254.467C 350.6 253.26999 349.778 252.11299 348.754 251.43098C 348.338 251.15399 347.865 250.868 347.337 250.57199z" stroke="none" fill="#590000" fill-rule="nonzero" />
        <path clip-path="url(#12)"  d="M332.831 307.55798L224.295 307.09C 224.295 307.09 220.923 307.07098 216.435 309.185C 212.661 310.964 204.677 315.83478 202.235 317.3383C 201.618 317.71768 200.883 317.88757 200.174 317.7431C 199.722 317.6508 199.374 317.44177 199.566 316.9896C 199.827 316.37338 206.594 310.57 206.594 310.57L206.594 310.57L194.593 314.35098C 193.92 314.563 193.172 314.511 192.578 314.129C 192.304 313.953 192.106 313.72598 192.152 313.448C 192.236 312.932 199.413 309.53 199.413 309.53L199.413 309.53L190.304 311.085C 189.443 311.232 188.544 310.69598 188.418 309.831L188.418 309.831L188.407 309.578C 188.458 308.729 201.452 304.547 201.452 304.547L201.452 304.547L189.484 304.54898C 188.15 304.54898 187.28 303.14798 187.872 301.953C 188.554 300.60797 206.615 300.13998 206.795 298.117C 206.975 296.09497 201.658 295.675 199.858 292.94C 198.057 290.206 200.983 289.12 200.983 289.12C 202.825 291.323 209.885 293.11398 209.885 293.11398L209.885 293.11398L220.854 292.531L323.621 277.899L339.452 287.956L345.546 298.992L332.831 307.55798z" stroke="none" fill="#FFA4A2" fill-rule="nonzero" />
        <path clip-path="url(#13)"  d="M306.11 307.91498L195.286 285.91498C 195.286 285.91498 191.843 285.227 186.838 286.498C 182.629 287.568 173.504 290.96198 170.709 292.01498C 170.005 292.28 169.219 292.30798 168.524 292.01898C 168.08 291.835 167.765 291.55298 168.051 291.129C 168.441 290.551 176.507 285.96198 176.507 285.96198L176.507 285.96198L163.493 287.447C 162.763 287.53 162.008 287.328 161.478 286.82C 161.233 286.586 161.075 286.315 161.177 286.039C 161.365 285.52798 169.375 283.47498 169.375 283.47498L169.375 283.47498L159.757 283.258C 158.848 283.23798 158.035 282.512 158.079 281.60297L158.079 281.60297L158.117 281.34198C 158.338 280.485 172.446 278.787 172.446 278.787L172.446 278.787L160.215 276.416C 158.852 276.15198 158.241 274.54797 159.083 273.44397C 160.047 272.20398 178.596 275.307 179.181 273.276C 179.766 271.245 174.416 269.762 173.118 266.61C 171.82 263.45898 175.025 262.929 175.025 262.929C 176.471 265.54498 183.331 268.776 183.331 268.776L183.331 268.776L194.656 270.35498L302.578 275.779L316.763 289.19598L320.802 301.68298L306.11 307.91498z" stroke="none" fill="#FFA4A2" fill-rule="nonzero" />
        <path clip-path="url(#14)"  d="M266.551 300.219C 266.555 300.202 266.308 300.13397 265.834 300.02197C 265.311 299.905 264.62 299.75098 263.759 299.55798C 261.895 299.168 259.293 298.625 256.103 297.958C 249.576 296.664 240.653 294.895 230.795 292.94C 220.935 290.98297 212.012 289.21198 205.486 287.917C 202.291 287.274 199.687 286.75 197.82 286.375C 196.953 286.20898 196.259 286.076 195.732 285.974C 195.253 285.888 195 285.85098 194.996 285.869C 194.992 285.887 195.238 285.958 195.71 286.077C 196.232 286.202 196.919 286.367 197.777 286.573C 199.575 286.995 202.183 287.578 205.411 288.27798C 211.865 289.679 220.803 291.51398 230.694 293.451C 240.564 295.348 249.497 297.064 256.031 298.32C 259.236 298.918 261.847 299.40698 263.719 299.757C 264.589 299.90997 265.285 300.033 265.814 300.125C 266.294 300.20398 266.548 300.237 266.551 300.219z" stroke="none" fill="#FF7D6F" fill-rule="nonzero" />
        <path clip-path="url(#15)"  d="M338.956 358.266C 338.675 356.25668 337.168 354.47058 335.236 353.85577C 334.133 353.50528 332.936 353.51257 331.852 353.1117C 330.767 352.7103 329.756 351.664 329.99 350.5316C 330.166 349.684 330.947 349.12927 331.586 348.5453C 332.225 347.9613 332.8 347.05847 332.426 346.27768C 332.015 345.4188 330.777 345.35678 330.129 344.6591C 329.445 343.9227 329.65 342.6889 330.26 341.89148C 330.871 341.0946 331.783 340.5995 332.607 340.0238C 333.43 339.44757 334.23 338.69177 334.4 337.702z" stroke="none" fill="#000000" fill-rule="nonzero" />
        <path clip-path="url(#16)"  d="M378.43 340.6322C 381.413 346.8158 379.328 354.57068 374.79 359.723C 370.252 364.8759 363.708 367.8222 357.125 369.7728C 356.179 370.0531 355.004 370.2587 354.336 369.53308C 353.748 368.89438 353.925 367.8187 354.486 367.1571C 355.047 366.495 355.884 366.1464 356.689 365.8202C 354.008 367.1537 351.105 368.1561 348.111 368.22888C 347.066 368.2548 345.972 368.15167 345.083 367.60098C 344.194 367.0502 343.578 365.9467 343.874 364.9437C 344.17 363.94028 345.584 363.371 346.355 364.078C 343.528 364.41248 340.595 363.7479 338.19 362.2279C 336.467 361.13898 334.9 359.26398 335.297 357.2645C 335.53 356.0912 336.397 355.142 336.773 354.0062C 337.458 351.93008 336.413 349.7323 335.608 347.6996C 334.356 344.5399 333.641 341.09167 334.135 337.72937C 334.63 334.36658 336.456 331.10577 339.388 329.38757z" stroke="none" fill="#000000" fill-rule="nonzero" />
        <path clip-path="url(#17)"  d="M365.795 360.34268L364.836 360.6976C 354.276 363.91827 343.139 357.78748 340.211 347.14148L340.211 347.14148L327.652 305.727L349.549 287.201L356.243 304.597C 356.243 304.597 366.753 302.465 370.551 312.356C 372.387 317.13507 375.366 327.28497 377.955 336.5004C 380.736 346.4008 375.44 356.77478 365.795 360.34268z" stroke="none" fill="#FFA4A2" fill-rule="nonzero" />
        <path clip-path="url(#18)"  d="M356.313 304.73398C 356.313 304.73398 349.844 306.547 344.721 313.208C 344.721 313.208 345.137 304.92398 355.383 302.151L355.383 302.151L356.313 304.73398z" stroke="none" fill="#FF7D6F" fill-rule="nonzero" />
        <path clip-path="url(#19)"  d="M354.794 354.7382C 353.991 356.537 352.991 360.4481 351.614 361.8563C 350.236 363.26648 347.98 362.81918 346.078 362.2973C 344.099 361.7533 342.511 360.2689 341.794 358.3446C 339.125 351.18448 338.75 344.4144 336.745 337.36758C 336.612 336.9008 336.48 336.4032 336.618 335.9379C 336.979 334.7362 338.29 334.30258 339.53 334.11218C 342.586 333.64337 344.166 335.8617 345.629 338.538C 345.954 339.1327 346.657 342.81238 346.726 343.494C 347.202 348.2587 349.98 352.4838 354.316 354.5145L354.316 354.5145L354.794 354.7382z" stroke="none" fill="#000000" fill-rule="nonzero" />
        <path clip-path="url(#20)"  d="M341.898 341.4061C 341.755 341.5424 335.818 345.95108 333.522 339.078C 331.225 332.205 338.6 331.3173 338.677 331.51007C 338.755 331.7035 341.898 341.4061 341.898 341.4061z" stroke="none" fill="#FFA4A2" fill-rule="nonzero" />
        <path clip-path="url(#21)"  d="M337.447 334.8158C 337.425 334.84747 337.299 334.77188 337.067 334.7465C 336.839 334.72247 336.479 334.7733 336.165 335.0272C 335.528 335.5365 335.302 336.89337 335.683 338.14337C 335.873 338.77478 336.204 339.32648 336.59 339.74548C 336.968 340.1786 337.41 340.4213 337.798 340.36368C 338.19 340.32648 338.375 340.0214 338.395 339.79968C 338.423 339.57648 338.333 339.4545 338.365 339.43008C 338.379 339.4066 338.552 339.49597 338.591 339.7987C 338.609 339.94418 338.582 340.1337 338.465 340.3197C 338.345 340.5087 338.125 340.65808 337.861 340.7157C 337.319 340.85577 336.679 340.52768 336.254 340.06778C 335.8 339.61508 335.414 338.99988 335.199 338.2909C 334.78 336.891 335.057 335.35828 335.954 334.73868C 336.396 334.45108 336.848 334.46228 337.11 334.55508C 337.38 334.6537 337.467 334.7953 337.447 334.8158z" stroke="none" fill="#FF7D6F" fill-rule="nonzero" />
        <path clip-path="url(#22)"  d="M352.126 353.2103C 355.535 355.5077 359.023 354.3363 361.348 352.9603C 363.672 351.5839 365.641 349.6478 368.031 348.3895C 370.423 347.13168 373.551 346.6806 375.703 348.3139C 377.298 349.5238 377.989 351.6029 378.174 353.5961C 378.527 357.42468 377.267 361.3764 374.761 364.2919C 374.107 365.0536 373.104 365.80408 372.184 365.4003C 371.045 364.9008 371.209 363.2533 371.566 362.0614C 371.566 362.0614 360.01 366.42618 352.92 364.0106C 345.829 361.5946 352.126 353.2103 352.126 353.2103z" stroke="none" fill="#000000" fill-rule="nonzero" />
        <path clip-path="url(#23)"  d="M356.608 369.9066C 356.67 369.9174 356.738 369.4105 357.088 368.57898C 357.436 367.74838 358.145 366.6322 359.272 365.4784C 360.409 364.34167 361.95 363.1449 363.868 362.2147C 364.825 361.7421 365.868 361.37878 367.008 361.13318C 368.143 360.8739 369.355 360.68738 370.581 360.3378C 371.802 359.9935 372.994 359.452 373.912 358.62338C 374.826 357.80508 375.514 356.8046 375.91 355.74988C 376.319 354.6991 376.437 353.59998 376.307 352.60388C 376.161 351.60538 375.781 350.72498 375.29 350.0365C 374.311 348.6347 373.024 347.9696 372.135 347.7196C 371.682 347.59848 371.319 347.5575 371.075 347.5556C 370.83 347.5565 370.703 347.5673 370.702 347.5883C 370.698 347.6464 371.216 347.64587 372.063 347.94318C 372.89 348.2494 374.067 348.9369 374.936 350.27478C 375.372 350.9315 375.696 351.7548 375.809 352.6644C 375.906 353.5795 375.781 354.5829 375.391 355.54678C 375.013 356.51398 374.366 357.431 373.522 358.17758C 372.676 358.93008 371.59 359.4227 370.414 359.7562C 369.237 360.0922 368.034 360.28308 366.875 360.556C 365.712 360.8139 364.598 361.2138 363.622 361.71518C 361.652 362.7055 360.096 363.9716 358.962 365.1835C 357.839 366.412 357.16 367.6078 356.868 368.4935C 356.733 368.94028 356.64 369.288 356.623 369.5341C 356.593 369.77667 356.587 369.9037 356.608 369.9066z" stroke="none" fill="#00313C" fill-rule="nonzero" />
        <path clip-path="url(#24)"  d="M348.939 367.8925C 348.99 367.90417 349.103 367.3822 349.488 366.5189C 349.883 365.664 350.605 364.4769 351.844 363.3324C 353.072 362.1815 354.822 361.1395 356.935 360.40268C 359.042 359.6454 361.481 359.19028 364.048 358.6952C 366.613 358.17657 369.088 357.6688 371.176 356.59167C 372.202 356.04138 373.094 355.2162 373.49 354.20108C 373.894 353.1967 373.858 352.1615 373.63 351.30258C 373.133 349.5477 371.929 348.57648 371.138 348.0604C 370.728 347.79678 370.386 347.6371 370.15 347.54138C 369.913 347.44568 369.782 347.41348 369.776 347.431C 369.751 347.47937 370.245 347.6908 371.004 348.25378C 371.734 348.80988 372.819 349.7948 373.215 351.4076C 373.4 352.2006 373.401 353.13858 373.028 354.0077C 372.664 354.88028 371.877 355.59747 370.911 356.10098C 368.946 357.0863 366.476 357.5922 363.932 358.1019C 361.373 358.59558 358.898 359.0726 356.744 359.87878C 354.588 360.662 352.784 361.788 351.548 363.0233C 350.301 364.2518 349.609 365.52188 349.271 366.4286C 349.107 366.8866 349.014 367.2518 348.971 367.5033C 348.929 367.75528 348.918 367.8881 348.939 367.8925z" stroke="none" fill="#00313C" fill-rule="nonzero" />
        <path clip-path="url(#25)"  d="M373.735 330.3329C 373.471 330.1996 372.607 331.4848 370.939 332.07257C 369.281 332.684 367.754 332.2616 367.647 332.53018C 367.59 332.65167 367.915 332.9467 368.585 333.1449C 369.246 333.3446 370.274 333.4022 371.31 333.0287C 372.345 332.6537 373.082 331.9613 373.445 331.392C 373.818 330.81677 373.861 330.38998 373.735 330.3329z" stroke="none" fill="#000000" fill-rule="nonzero" />
        <path clip-path="url(#26)"  d="M357.81 335.2147C 357.545 335.0814 356.68 336.3671 355.014 336.9545C 353.357 337.5658 351.829 337.1439 351.721 337.412C 351.664 337.5341 351.987 337.82898 352.659 338.02667C 353.321 338.2265 354.348 338.2841 355.384 337.9105C 356.42 337.5355 357.157 336.8432 357.52 336.2738C 357.891 335.6991 357.936 335.27188 357.81 335.2147z" stroke="none" fill="#000000" fill-rule="nonzero" />
        <path clip-path="url(#27)"  d="M359.41 323.6161C 359.436 323.7138 360.535 323.5243 362.289 323.142C 362.731 323.0346 363.163 322.97598 363.338 323.2406C 363.547 323.51257 363.532 324.0341 363.502 324.6024C 363.468 325.7743 363.434 327.0023 363.397 328.2894C 363.289 333.5228 363.373 337.7645 363.584 337.767C 363.795 337.76938 364.053 333.5297 364.159 328.2963C 364.175 327.0097 364.193 325.7826 364.206 324.60928C 364.194 324.06818 364.277 323.42178 363.832 322.8612C 363.605 322.5839 363.211 322.46417 362.912 322.48767C 362.61 322.5014 362.368 322.5824 362.153 322.64438C 360.433 323.15417 359.383 323.5189 359.41 323.6161z" stroke="none" fill="#000000" fill-rule="nonzero" />
        <path clip-path="url(#28)"  d="M354.097 324.2074C 354.373 324.12677 353.735 322.3173 354.825 320.48328C 355.912 318.64587 357.912 318.16348 357.836 317.9057C 357.821 317.7836 357.282 317.7074 356.461 317.9745C 355.652 318.23077 354.579 318.90167 353.911 320.0238C 353.246 321.14688 353.214 322.3412 353.416 323.1049C 353.616 323.8856 353.977 324.2621 354.097 324.2074z" stroke="none" fill="#000000" fill-rule="nonzero" />
        <path clip-path="url(#29)"  d="M360.51 344.4965C 360.185 344.1024 358.597 344.9086 356.56 345.3681C 354.53 345.8685 352.75 345.85678 352.636 346.3549C 352.589 346.5907 353.016 346.91928 353.809 347.13068C 354.596 347.3441 355.752 347.40167 356.972 347.1156C 358.191 346.82608 359.198 346.2577 359.808 345.71518C 360.422 345.17078 360.657 344.6864 360.51 344.4965z" stroke="none" fill="#000000" fill-rule="nonzero" />
        <path clip-path="url(#30)"  d="M375.346 337.64688C 374.918 337.3729 373.91 338.1737 372.537 338.68298C 371.182 339.2406 369.898 339.3353 369.77 339.82648C 369.72 340.0604 370.039 340.3744 370.677 340.55118C 371.307 340.72888 372.252 340.7211 373.191 340.3554C 374.128 339.9882 374.828 339.3529 375.17 338.79428C 375.52 338.2323 375.541 337.7855 375.346 337.64688z" stroke="none" fill="#000000" fill-rule="nonzero" />
        <path clip-path="url(#31)"  d="M351.909 292.896C 352.422 290.158 353.168 271.089 351.751 263.359C 349.118 248.993 329.303 217.33699 328.012 214.82498C 327.251 213.34499 310.848 175.77599 310.848 175.77599C 310.848 175.77599 239.405 197.967 235.827 216.055C 235.827 216.055 259.958 234.01099 265.915 239.53899C 267.094 240.633 288.967 278.29498 288.967 278.29498L288.967 278.29498L302.159 301.094C 302.159 301.094 312.353 311.054 317.616 311.054C 322.88 311.054 329.197 311.054 329.197 311.054L329.197 311.054L351.909 292.896z" stroke="none" fill="#1D4354" fill-rule="nonzero" />
        <path clip-path="url(#32)"  d="M240.733 208.484C 238.622 210.482 236.762 212.749 236.068 214.97798C 236.083 214.98 236.101 214.982 236.116 214.984C 236.839 212.85199 238.453 210.67198 240.733 208.484" stroke="none" fill="none" />
        <path clip-path="url(#34)"  d="M236.068 214.984L240.733 214.984L240.733 208.484L236.068 208.484z" stroke="none" fill="#667F7F" fill-rule="nonzero" />
        <path d="" stroke="none" fill="none" />
        <path clip-path="url(#35)"  d="M297.402 185.243L264.22 196.86499L249.501 204.90498L248.575 202.51698C 247.157 203.40498 243.698 205.67899 240.733 208.484C 238.453 210.67198 236.839 212.85199 236.116 214.984C 237.06 215.12 237.996 215.25198 238.929 215.38098C 243.182 214.19699 252.128 210.96599 267.721 202.22398C 291.209 189.05598 297.402 185.243 297.402 185.243z" stroke="none" fill="#8A0012" fill-rule="nonzero" />
        <path clip-path="url(#36)"  d="M316.383 311.054L303.248 309.88397L265.514 302.151L281.818 271.781L323.424 275.813C 323.424 275.813 333.504 295.685 329.76 300.00598C 326.016 304.326 316.383 311.054 316.383 311.054z" stroke="none" fill="#1D4354" fill-rule="nonzero" />
        <path clip-path="url(#37)"  d="M279.759 262.521L285.471 272.135L285.472 272.135L313.403 274.84198L279.759 262.521z" stroke="none" fill="#8A0012" fill-rule="nonzero" />
        <path clip-path="url(#38)"  d="M285.472 272.135L313.847 275.005L313.403 274.84198L285.472 272.135z" stroke="none" fill="#8A0012" fill-rule="nonzero" />
        <path clip-path="url(#39)"  d="M321.837 275.206C 321.851 275.063 314.415 274.25198 305.232 273.396C 296.045 272.539 288.589 271.961 288.575 272.104C 288.563 272.247 295.996 273.05798 305.183 273.914C 314.366 274.771 321.823 275.349 321.837 275.206z" stroke="none" fill="#000000" fill-rule="nonzero" />
        <path clip-path="url(#40)"  d="M329.173 292.82C 329.08 292.81 328.974 293.921 328.498 295.63498C 328.028 297.348 327.097 299.64798 325.541 301.869C 323.975 304.083 322.124 305.737 320.671 306.75598C 319.218 307.783 318.208 308.258 318.248 308.34198C 318.264 308.375 318.527 308.281 318.991 308.081C 319.461 307.891 320.111 307.546 320.877 307.06198C 322.412 306.10098 324.359 304.443 325.967 302.168C 327.566 299.888 328.469 297.495 328.855 295.72598C 329.052 294.841 329.157 294.11298 329.179 293.607C 329.209 293.102 329.209 292.823 329.173 292.82z" stroke="none" fill="#000000" fill-rule="nonzero" />
        <path clip-path="url(#41)"  d="M273.562 238.37599C 273.558 238.41199 274.082 238.51498 275.031 238.66798C 275.982 238.812 277.35 239.068 279.025 239.43599C 280.702 239.79599 282.676 240.329 284.835 241.01799C 286.986 241.73299 289.318 242.61899 291.694 243.71298C 294.063 244.82399 296.243 246.034 298.177 247.21799C 300.097 248.42299 301.777 249.58899 303.134 250.63899C 304.495 251.68199 305.573 252.562 306.295 253.19598C 307.025 253.82199 307.441 254.15698 307.466 254.13098C 307.49 254.105 307.121 253.71999 306.432 253.04599C 305.749 252.36398 304.702 251.43599 303.361 250.34898C 302.025 249.25499 300.354 248.049 298.433 246.81099C 296.497 245.596 294.303 244.36198 291.913 243.23999C 289.516 242.137 287.158 241.25598 284.982 240.56099C 282.797 239.89099 280.798 239.39198 279.1 239.07599C 277.403 238.75099 276.02 238.54999 275.058 238.46799C 274.098 238.37498 273.566 238.34099 273.562 238.37599z" stroke="none" fill="#000000" fill-rule="nonzero" />
        <path clip-path="url(#42)"  d="M277.532 245.27798C 277.527 245.443 281.066 245.484 285.277 246.47798C 289.496 247.443 292.69 248.965 292.757 248.81499C 292.785 248.75699 292.023 248.301 290.711 247.72299C 289.402 247.14299 287.529 246.46799 285.395 245.971C 283.26 245.47598 281.281 245.25699 279.851 245.19998C 278.418 245.14099 277.532 245.21298 277.532 245.27798z" stroke="none" fill="#000000" fill-rule="nonzero" />
        <path clip-path="url(#43)"  d="M317.411 213.09698C 317.425 213.064 316.942 212.83499 316.055 212.44998C 315.17 212.05798 313.868 211.54298 312.241 210.956C 308.99 209.777 304.399 208.396 299.211 207.39099C 294.02 206.39398 289.243 205.969 285.787 205.85399C 284.059 205.79399 282.658 205.78699 281.693 205.82199C 280.726 205.84999 280.193 205.883 280.193 205.91899C 280.193 205.95499 280.727 205.99098 281.691 206.025C 282.655 206.053 284.049 206.11598 285.769 206.22198C 289.207 206.43 293.949 206.91199 299.112 207.90298C 304.272 208.902 308.852 210.219 312.121 211.30399C 313.757 211.84499 315.075 212.305 315.981 212.63799C 316.888 212.965 317.398 213.12999 317.411 213.09698z" stroke="none" fill="#000000" fill-rule="nonzero" />
        <path clip-path="url(#44)"  d="M352.103 265.559L331.241 272.66797C 328.266 260.932 320.243 251.262 310.139 242.44499L310.139 242.44499L335.969 228.50598C 335.969 228.50598 344.205 242.88399 349.629 255.883C 351.029 259.23898 351.651 261.56 352.103 265.559z" stroke="none" fill="#F3F6F4" fill-rule="nonzero" />
        <path clip-path="url(#45)"  d="M335.86 275.005L334.102 269.43097L336.957 268.089L338.623 273.99298L335.86 275.005z" stroke="none" fill="#DAE5E2" fill-rule="nonzero" />
        <path clip-path="url(#46)"  d="M331.538 246.609C 332.779 246.74098 334.065 246.77599 335.364 246.745L335.364 246.745L340.242 256.49597L334.637 259.299L333.43 256.886L336.028 255.58598L331.538 246.609z" stroke="none" fill="#1D4354" fill-rule="nonzero" />
        <path clip-path="url(#47)"  d="M346.912 249.88899L347.055 249.91798C 347.465 251.077 347.92 252.21799 348.424 253.33899C 348.006 253.676 347.531 253.98799 346.985 254.26C 344.647 255.42899 342.355 255.39198 340.618 254.428L340.618 254.428L342.104 251.92099C 343.171 252.47798 344.33 252.43199 345.444 251.87498C 346.511 251.34099 346.988 250.64899 346.912 249.88899z" stroke="none" fill="#1D4354" fill-rule="nonzero" />
        <path clip-path="url(#48)"  d="M337.33 247.25899C 335.986 247.03899 334.881 247.10199 333.56 246.77899L333.56 246.77899L332.749 245.17699L335.756 243.674L337.581 247.32399L337.33 247.25899z" stroke="none" fill="#1D4354" fill-rule="nonzero" />
        <path clip-path="url(#49)"  d="M345.413 246.45999L345.236 246.45999L338.885 244.54498L337.91 242.596L342.28 240.40999C 342.327 240.54599 342.37 240.68298 342.431 240.81499C 342.755 241.52199 343.162 242.17499 343.575 242.82599L343.575 242.82599L343.367 242.93L343.704 243.03198L345.413 246.45999z" stroke="none" fill="#1D4354" fill-rule="nonzero" />
        <path clip-path="url(#50)"  d="M343.562 248.596C 343.57 248.56099 343.274 248.45499 342.73 248.29298C 342.186 248.12799 341.39 247.92198 340.4 247.69398C 338.421 247.236 335.654 246.73 332.569 246.409C 329.482 246.092 326.67 246.01999 324.639 246.062C 323.624 246.083 322.803 246.122 322.236 246.17198C 321.67 246.219 321.359 246.262 321.36 246.29799C 321.362 246.37599 322.616 246.37799 324.638 246.43098C 326.659 246.482 329.448 246.61198 332.516 246.92699C 335.58 247.24599 338.337 247.691 340.326 248.055C 342.316 248.41699 343.543 248.67198 343.562 248.596z" stroke="none" fill="#000000" fill-rule="nonzero" />
        <path clip-path="url(#51)"  d="M294.517 180.31499C 293.967 178.663 251.024 114.211975 214.131 100.99698L214.131 100.99698L198.163 103.474L113.365 128.52798L122.726 152.20499L202.017 135.13599L238.461 176.42699L249.501 204.90498L294.517 180.31499z" stroke="none" fill="#FFA4A2" fill-rule="nonzero" />
        <path clip-path="url(#52)"  d="M118.322 127.034L153.651 116.62598L161.98 143.75497L123.097 152.95099L118.322 127.034z" stroke="none" fill="#00313C" fill-rule="nonzero" />
        <path clip-path="url(#53)"  d="M119.702 127.320984L119.058 127.211C 119.058 127.211 98.4235 105.487976 93.5304 107.237976L93.5304 107.237976L114.911 157.15298L127.992 151.629L126.786 149.97498C 121.956 143.34799 119.904 135.51797 119.702 127.320984z" stroke="none" fill="#1D4354" fill-rule="nonzero" />
        <path clip-path="url(#54)"  d="M120.901 145.082C 120.864 145.082 120.827 145.08298 120.791 145.086C 119.704 145.159 118.785 146.54898 118.953 147.625C 119.105 148.59198 120.057 149.34 121.026 149.34C 121.135 149.34 121.244 149.32999 121.353 149.31C 122.355 149.12997 123.12 148.12698 123.093 147.11499C 123.182 146.068 121.964 145.082 120.901 145.082z" stroke="none" fill="#FF9CD7" fill-rule="nonzero" />
        <path clip-path="url(#55)"  d="M94.4553 106.97699C 94.1412 106.97699 93.8264 107.050995 93.5304 107.237976L93.5304 107.237976L93.5304 107.237976C 93.72 107.16998 93.9327 107.138 94.1675 107.138C 94.8076 107.138 95.6079 107.379974 96.5251 107.81198C 96.0689 107.471985 95.265 106.97699 94.4553 106.97699z" stroke="none" fill="#F6F8F7" fill-rule="nonzero" />
        <path clip-path="url(#56)"  d="M94.1675 107.138C 93.9327 107.138 93.72 107.16998 93.5304 107.237976L93.5304 107.237976L114.911 157.15298L118.896 155.28299L96.9069 108.125C 96.9069 108.125 96.7634 107.98999 96.5251 107.81198C 95.6079 107.379974 94.8076 107.138 94.1675 107.138z" stroke="none" fill="#FF9CD7" fill-rule="nonzero" />
        <path clip-path="url(#57)"  d="M118.965 126.293C 118.725 126.405 119.136 127.67099 118.866 129.206C 118.636 130.74799 117.845 131.818 118.038 132.00198C 118.181 132.206 119.483 131.219 119.777 129.354C 120.088 127.49298 119.166 126.14398 118.965 126.293z" stroke="none" fill="#000000" fill-rule="nonzero" />
        <path clip-path="url(#58)"  d="M114.557 121.984985C 114.297 122.03 114.335 123.26398 113.658 124.53299C 113.02 125.82199 111.994 126.509 112.109 126.74698C 112.169 126.991974 113.669 126.54999 114.479 124.95499C 115.304 123.36798 114.792 121.89099 114.557 121.984985z" stroke="none" fill="#000000" fill-rule="nonzero" />
        <path clip-path="url(#59)"  d="M107.018 121.69498C 107.06 121.938995 108.424 121.75699 109.49 120.55899C 110.566 119.36899 110.6 117.99399 110.353 117.97699C 110.093 117.925995 109.694 118.97299 108.803 119.94299C 107.936 120.93298 106.938 121.44299 107.018 121.69498z" stroke="none" fill="#000000" fill-rule="nonzero" />
        <path clip-path="url(#60)"  d="M119.338 126.77399C 119.236 126.815 119.498 127.84299 120.422 129.26898C 120.882 129.978 121.52 130.77298 122.345 131.53998C 122.758 131.923 123.218 132.29898 123.722 132.64899C 123.968 132.81598 124.234 133.025 124.633 133.15198C 125.003 133.314 125.715 133.19 125.978 132.70898C 126.252 132.289 126.224 131.76599 126.078 131.40198C 125.932 131.02899 125.73 130.763 125.547 130.51999C 125.174 130.022 124.766 129.57999 124.347 129.194C 123.505 128.427 122.625 127.88699 121.847 127.53699C 120.278 126.83899 119.199 126.833984 119.188 126.93698C 119.154 127.082 120.159 127.31799 121.549 128.11798C 122.241 128.51599 123.018 129.07199 123.76 129.80899C 124.129 130.18 124.488 130.595 124.818 131.055C 125.183 131.52399 125.379 131.97299 125.202 132.20898C 125.133 132.297 125.1 132.318 124.899 132.27298C 124.707 132.22098 124.475 132.06598 124.232 131.90198C 123.755 131.58499 123.314 131.24698 122.911 130.905C 122.106 130.22 121.455 129.51398 120.949 128.88599C 119.938 127.62598 119.468 126.71399 119.338 126.77399z" stroke="none" fill="#000000" fill-rule="nonzero" />
        <path clip-path="url(#61)"  d="M119.125 127.241974C 119.124 127.345 120.205 127.45398 121.821 126.866974C 122.622 126.573 123.536 126.086 124.412 125.353C 124.848 124.984985 125.271 124.55698 125.657 124.066986C 126.025 123.56198 126.533 122.92398 126.236 121.93198C 126.043 121.42999 125.482 121.18399 125.092 121.185974C 124.684 121.165985 124.38 121.25699 124.066 121.32199C 123.443 121.47998 122.876 121.73599 122.382 122.04199C 121.386 122.65399 120.689 123.46799 120.257 124.215C 119.381 125.744995 119.525 126.88699 119.616 126.87198C 119.774 126.901 119.88 125.849 120.803 124.56998C 121.258 123.94 121.927 123.26599 122.814 122.77399C 123.255 122.52698 123.748 122.323975 124.278 122.20099C 124.841 122.052 125.355 122.066986 125.386 122.28998C 125.496 122.53598 125.277 123.129 124.942 123.514984C 124.604 123.96298 124.233 124.362 123.852 124.71399C 123.084 125.412994 122.278 125.91998 121.565 126.26599C 120.129 126.96298 119.105 127.093994 119.125 127.241974z" stroke="none" fill="#000000" fill-rule="nonzero" />
        <path clip-path="url(#62)"  d="M157.759 144.01398C 157.793 144.00198 157.71 143.638 157.531 142.98898C 157.31 142.23099 157.044 141.31998 156.733 140.254C 156.001 137.82599 155.061 134.707 154.022 131.259C 152.989 127.80698 152.056 124.685 151.33 122.25598C 151.002 121.194 150.721 120.28699 150.489 119.534C 150.281 118.892975 150.15 118.543976 150.115 118.553986C 150.08 118.56198 150.146 118.931 150.293 119.58798C 150.44 120.244995 150.673 121.19 150.975 122.35498C 151.578 124.685 152.467 127.889984 153.523 131.40799C 154.579 134.92499 155.603 138.08899 156.382 140.366C 156.772 141.50497 157.099 142.422 157.338 143.052C 157.577 143.68198 157.725 144.02399 157.759 144.01398z" stroke="none" fill="#FAFBFA" fill-rule="nonzero" />
        <path clip-path="url(#63)"  d="M154.505 144.01398C 154.539 144.00198 154.456 143.638 154.277 142.98898C 154.056 142.23099 153.79 141.31998 153.479 140.254C 152.747 137.82599 151.807 134.707 150.768 131.259C 149.736 127.80698 148.802 124.685 148.076 122.25598C 147.748 121.194 147.467 120.28699 147.235 119.534C 147.027 118.892975 146.896 118.543976 146.861 118.553986C 146.826 118.56198 146.892 118.931 147.039 119.58798C 147.186 120.244995 147.419 121.19 147.721 122.35498C 148.324 124.685 149.213 127.889984 150.269 131.40799C 151.325 134.92499 152.349 138.08899 153.129 140.366C 153.518 141.50497 153.845 142.422 154.084 143.052C 154.323 143.68198 154.471 144.02399 154.505 144.01398z" stroke="none" fill="#FAFBFA" fill-rule="nonzero" />
        <path clip-path="url(#64)"  d="M301.235 182.72299C 302.887 181.62099 359.497 124.122986 360.599 119.71799C 361.7 115.31299 381.523 27.211975 381.523 27.211975L381.523 27.211975L362.251 21.705994C 362.251 21.705994 335.27 74.56598 335.27 76.21799C 335.27 77.869995 326.133 102.21399 326.133 102.21399L326.133 102.21399L291.77 132.383L255.979 164.87L301.235 182.72299z" stroke="none" fill="#FFA4A2" fill-rule="nonzero" />
        <path clip-path="url(#65)"  d="M388.113 20.841003L375.958 55.606995L349.065 46.546997L364.277 9.600983L388.113 20.841003z" stroke="none" fill="#00313C" fill-rule="nonzero" />
        <path clip-path="url(#66)"  d="M387.075 21.793976L387.541 21.335999C 387.541 21.335999 417.221 17.247986 418.653 12.251984L418.653 12.251984L365.64 0.50097656L362.496 14.348999L364.543 14.333984C 372.742 14.276001 380.299 17.177002 387.075 21.793976z" stroke="none" fill="#1D4354" fill-rule="nonzero" />
        <path clip-path="url(#67)"  d="M370.172 9.147003C 369.388 9.147003 368.592 9.59198 368.251 10.307983C 367.814 11.227997 368.182 12.434998 369.02 13.001984C 369.297 13.238983 369.66 13.343994 370.041 13.343994C 370.798 13.343994 371.629 12.931 372.011 12.315002C 372.586 11.390991 371.993 9.832977 371.021 9.342987C 370.756 9.208984 370.465 9.147003 370.172 9.147003z" stroke="none" fill="#FF9CD7" fill-rule="nonzero" />
        <path clip-path="url(#68)"  d="M418.653 12.251984C 418.447 12.972992 417.65 13.675995 416.439 14.349976C 417.192 14.1119995 418.58 13.503998 418.653 12.251984z" stroke="none" fill="#FFFFFF" fill-rule="nonzero" />
        <path clip-path="url(#69)"  d="M365.64 0.50097656L365.64 0.50097656L364.834 4.8289795L415.964 14.47699C 415.964 14.47699 416.157 14.440002 416.439 14.349976C 417.65 13.675995 418.447 12.972992 418.653 12.251984L418.653 12.251984L418.653 12.251984L365.64 0.50097656z" stroke="none" fill="#FF9CD7" fill-rule="nonzero" />
        <path clip-path="url(#70)"  d="M388.34 21.79599C 388.389 21.535004 387.12 21.130981 386.031 20.015991C 384.913 18.929993 384.505 17.662994 384.244 17.712982C 383.994 17.709991 384.037 19.343994 385.38 20.669983C 386.71 22.007996 388.344 22.04599 388.34 21.79599z" stroke="none" fill="#000000" fill-rule="nonzero" />
        <path clip-path="url(#71)"  d="M394.41 20.727997C 394.526 20.490997 393.502 19.802002 392.865 18.513C 392.191 17.240997 392.232 16.007996 391.971 15.961975C 391.737 15.867981 391.222 17.345001 392.044 18.932983C 392.852 20.527985 394.35 20.973999 394.41 20.727997z" stroke="none" fill="#000000" fill-rule="nonzero" />
        <path clip-path="url(#72)"  d="M399.044 14.77298C 398.82 14.665985 398.174 15.879974 398.525 17.444977C 398.863 19.013 399.96 19.842987 400.117 19.651001C 400.311 19.470978 399.694 18.53598 399.426 17.246002C 399.127 15.963989 399.295 14.855988 399.044 14.77298z" stroke="none" fill="#000000" fill-rule="nonzero" />
        <path clip-path="url(#73)"  d="M387.732 21.817993C 387.758 21.710999 386.771 21.323975 385.073 21.242981C 384.229 21.203003 383.211 21.256989 382.106 21.47998C 381.555 21.592987 380.982 21.746979 380.402 21.950989C 380.123 22.054993 379.798 22.14798 379.462 22.39798C 379.115 22.604004 378.8 23.254974 379.038 23.748993C 379.22 24.21698 379.66 24.498993 380.041 24.592987C 380.429 24.690979 380.763 24.682983 381.068 24.675995C 381.69 24.662994 382.286 24.589996 382.844 24.473999C 383.959 24.238983 384.91 23.83899 385.649 23.41098C 387.13 22.544983 387.765 21.669983 387.688 21.599976C 387.589 21.488983 386.811 22.166992 385.351 22.829987C 384.623 23.158997 383.718 23.46698 382.687 23.638977C 382.171 23.722992 381.624 23.772003 381.059 23.770996C 380.464 23.793976 379.986 23.691986 379.897 23.41098C 379.866 23.303986 379.867 23.264984 380.021 23.125977C 380.176 23.001984 380.437 22.902985 380.712 22.800995C 381.248 22.598999 381.779 22.436981 382.292 22.309998C 383.319 22.056976 384.273 21.938995 385.076 21.894989C 386.69 21.807983 387.705 21.958984 387.732 21.817993z" stroke="none" fill="#000000" fill-rule="nonzero" />
        <path clip-path="url(#74)"  d="M387.477 21.371979C 387.394 21.310974 386.674 22.125977 386.208 23.780975C 385.979 24.60199 385.842 25.629974 385.926 26.767975C 385.971 27.336975 386.071 27.931 386.244 28.529999C 386.439 29.122986 386.662 29.90799 387.641 30.246002C 388.161 30.381989 388.688 30.069 388.914 29.750977C 389.169 29.431976 389.272 29.131989 389.402 28.83899C 389.637 28.240997 389.76 27.630981 389.8 27.050995C 389.884 25.88498 389.63 24.843994 389.275 24.056976C 388.543 22.453003 387.531 21.903992 387.49 21.987C 387.375 22.097992 388.166 22.798004 388.666 24.293976C 388.913 25.030975 389.07 25.96698 388.953 26.973999C 388.897 27.47699 388.774 27.996002 388.565 28.497986C 388.357 29.043 388.045 29.450989 387.846 29.346985C 387.582 29.291992 387.228 28.767975 387.111 28.269989C 386.944 27.734985 386.835 27.200989 386.772 26.684998C 386.652 25.653992 386.71 24.704987 386.845 23.923004C 387.117 22.349976 387.609 21.441986 387.477 21.371979z" stroke="none" fill="#000000" fill-rule="nonzero" />
        <path clip-path="url(#75)"  d="M351.318 42.968994C 351.306 43.00299 351.651 43.147003 352.282 43.38098C 353.026 43.642 353.922 43.958984 354.969 44.328003C 357.368 45.149994 360.449 46.205994 363.857 47.372986C 367.263 48.54898 370.343 49.610992 372.739 50.43799C 373.793 50.790985 374.694 51.092987 375.441 51.342987C 376.082 51.548004 376.443 51.64499 376.455 51.610992C 376.468 51.578003 376.131 51.415985 375.512 51.152985C 374.892 50.888977 373.987 50.526 372.865 50.09198C 370.621 49.224 367.5 48.07498 364.027 46.88098C 360.554 45.68698 357.387 44.673004 355.082 43.97699C 353.931 43.629974 352.994 43.359985 352.344 43.18698C 351.693 43.013977 351.328 42.932983 351.318 42.968994z" stroke="none" fill="#FAFBFA" fill-rule="nonzero" />
        <path clip-path="url(#76)"  d="M353.215 40.32498C 353.204 40.35898 353.549 40.504974 354.181 40.737C 354.924 41 355.819 41.315002 356.867 41.684998C 359.266 42.50699 362.348 43.56198 365.755 44.72998C 369.161 45.905 372.24 46.967987 374.638 47.794983C 375.691 48.14798 376.591 48.448975 377.339 48.69998C 377.981 48.905 378.341 49.001984 378.354 48.968994C 378.366 48.93399 378.029 48.77298 377.409 48.50998C 376.79 48.246002 375.886 47.884003 374.764 47.448975C 372.519 46.579987 369.398 45.432983 365.924 44.237C 362.451 43.043976 359.285 42.03 356.981 41.33499C 355.828 40.987 354.893 40.717987 354.241 40.543976C 353.591 40.371002 353.226 40.290985 353.215 40.32498z" stroke="none" fill="#FAFBFA" fill-rule="nonzero" />
        <path clip-path="url(#77)"  d="M249.501 204.90498C 249.501 204.90498 219.259 166.958 212.027 163.94398C 209.712 162.97899 218.007 153.25299 218.007 153.25299L218.007 153.25299L222.115 157.90298C 235.177 151.03699 245.28 142.039 255.686 129.383L255.686 129.383L273.729 146.327L288.888 126.254L332.033 152.95099L310.848 175.77599C 310.848 175.77599 282.291 201.50099 256.533 208.40399C 256.533 208.40399 253.557 208.42299 249.501 204.90498z" stroke="none" fill="#000000" fill-rule="nonzero" />
        <path clip-path="url(#78)"  d="M295.804 170.674C 295.817 170.66199 295.696 170.499 295.454 170.20099C 295.17 169.86299 294.813 169.43799 294.373 168.91599C 293.424 167.80899 292.035 166.221 290.3 164.27599C 286.831 160.385 281.98 155.06 276.487 149.305C 270.997 143.54398 265.892 138.456 262.067 134.90799C 260.145 133.14499 258.585 131.72198 257.455 130.798C 256.929 130.36298 256.5 130.009 256.16 129.728C 255.861 129.48798 255.697 129.36899 255.686 129.383C 255.675 129.396 255.815 129.54199 256.092 129.80798C 256.415 130.107 256.821 130.486 257.321 130.94998C 258.408 131.91898 259.927 133.38199 261.814 135.176C 265.568 138.78598 270.625 143.90799 276.111 149.664C 281.599 155.41498 286.489 160.69699 290.027 164.523C 291.762 166.396 293.183 167.93098 294.222 169.05199C 294.691 169.54698 295.072 169.94998 295.376 170.26999C 295.644 170.54599 295.79 170.68498 295.804 170.674z" stroke="none" fill="#00313C" fill-rule="nonzero" />
        <path clip-path="url(#79)"  d="M256.042 129.982C 256.028 129.97098 255.887 130.10498 255.629 130.374C 255.336 130.68698 254.97 131.07999 254.522 131.56C 253.577 132.60498 252.175 134.086 250.408 135.87799C 248.647 137.677 246.478 139.746 244.002 141.96799C 241.51 144.17099 238.701 146.51599 235.647 148.841C 232.58 151.151 229.561 153.219 226.764 155.01999C 223.953 156.801 221.372 158.327 219.164 159.53499C 216.96 160.74998 215.154 161.69699 213.893 162.32298C 213.309 162.624 212.832 162.87 212.45 163.066C 212.123 163.24199 211.955 163.342 211.962 163.35799C 211.969 163.37498 212.153 163.30699 212.495 163.16199C 212.887 162.98799 213.379 162.771 213.981 162.50598C 215.272 161.93399 217.107 161.03499 219.339 159.85799C 221.576 158.689 224.185 157.19 227.021 155.426C 229.842 153.63998 232.882 151.57498 235.961 149.25598C 239.028 146.922 241.839 144.556 244.323 142.32498C 246.79 140.07498 248.94 137.97098 250.672 136.13498C 252.41 134.305 253.774 132.78198 254.674 131.694C 255.093 131.18698 255.435 130.77298 255.708 130.44199C 255.941 130.15198 256.056 129.99399 256.042 129.982z" stroke="none" fill="#00313C" fill-rule="nonzero" />
        <path clip-path="url(#80)"  d="M272.673 203.109C 272.687 203.09698 272.548 202.91599 272.274 202.583C 271.959 202.21199 271.555 201.73299 271.053 201.14099C 269.942 199.84898 268.405 198.06299 266.524 195.87698C 262.703 191.42899 257.473 185.245 251.835 178.301C 246.197 171.35098 241.223 164.95898 237.656 160.305C 235.903 158.01498 234.472 156.142 233.437 154.78998C 232.96 154.177 232.575 153.68298 232.277 153.29898C 232.008 152.961 231.86 152.789 231.845 152.79999C 231.83 152.81 231.95 153.00299 232.193 153.35999C 232.471 153.759 232.829 154.27298 233.274 154.91C 234.219 156.25098 235.615 158.17099 237.362 160.527C 240.856 165.23999 245.788 171.674 251.43 178.62898C 257.072 185.579 262.353 191.73 266.246 196.118C 268.193 198.31299 269.784 200.07399 270.902 201.27599C 271.434 201.842 271.862 202.299 272.195 202.652C 272.495 202.96399 272.659 203.12099 272.673 203.109z" stroke="none" fill="#FAFBFA" fill-rule="nonzero" />
        <path clip-path="url(#81)"  d="M269.375 203.30798C 269.388 203.29498 269.248 203.12099 268.972 202.801C 268.653 202.443 268.246 201.98499 267.741 201.41798C 266.619 200.17699 265.071 198.465 263.176 196.36899C 259.325 192.10298 254.048 186.174 248.352 179.51099C 242.655 172.84299 237.619 166.70499 234.007 162.236C 232.233 160.038 230.782 158.24197 229.732 156.94098C 229.25 156.353 228.861 155.87997 228.557 155.51099C 228.284 155.18597 228.134 155.022 228.119 155.03299C 228.106 155.04398 228.228 155.22998 228.474 155.57397C 228.758 155.95999 229.121 156.45398 229.571 157.065C 230.531 158.35498 231.947 160.20099 233.719 162.46599C 237.26 166.99599 242.255 173.176 247.955 179.84898C 253.657 186.51698 258.983 192.41399 262.904 196.618C 264.865 198.721 266.469 200.40599 267.593 201.55598C 268.127 202.09698 268.559 202.53299 268.895 202.87299C 269.196 203.16998 269.361 203.31999 269.375 203.30798z" stroke="none" fill="#FAFBFA" fill-rule="nonzero" />
        <path clip-path="url(#82)"  d="M303.575 136.64798C 303.458 136.565 299.697 141.659 295.176 148.02399C 290.653 154.39099 287.083 159.61899 287.2 159.702C 287.318 159.78499 291.077 154.69199 295.601 148.32498C 300.121 141.961 303.693 136.732 303.575 136.64798z" stroke="none" fill="#00313C" fill-rule="nonzero" />
        <path clip-path="url(#83)"  d="M354.621 247.52199C 354.516 246.372 352.521 243.607 350.067 242.165C 347.649 240.745 346.766 240.10999 341.566 237.58699C 336.014 234.89299 292.643 219.344 292.643 219.344L292.643 219.344L296.467 227.855L295.527 233.411C 307.476 236.00899 340.294 245.79698 348.754 251.43098C 350.497 252.592 351.656 255.12999 350.108 256.896L350.108 256.896L350.298 257.497C 350.298 257.497 351.105 257.677 353.673 253.29199C 354.942 251.12498 354.751 248.93199 354.621 247.52199z" stroke="none" fill="#1D4354" fill-rule="nonzero" />
        <path clip-path="url(#84)"  d="M292.643 219.344L296.467 227.855L295.527 233.411C 307.476 236.00899 340.294 245.79698 348.754 251.43098C 349.925 252.21098 350.833 253.61299 350.833 254.984C 350.832 255.45999 350.723 255.93098 350.479 256.372C 350.378 256.552 350.255 256.72797 350.108 256.896L350.108 256.896L350.298 257.497C 350.298 257.497 350.303 257.498 350.312 257.498C 350.43 257.498 351.299 257.34497 353.673 253.29199C 354.515 251.85298 354.714 250.40298 354.715 249.178C 354.715 248.55798 354.665 247.99599 354.621 247.52199C 354.516 246.372 352.521 243.607 350.067 242.165C 347.649 240.745 346.766 240.10999 341.566 237.58699C 341.338 237.47699 341.047 237.34499 340.699 237.19398C 338.501 236.23898 334.005 234.50499 328.606 232.48C 313.949 226.982 292.643 219.344 292.643 219.344z" stroke="none" fill="#B70536" fill-rule="nonzero" />
        <path clip-path="url(#85)"  d="M229.389 227.57599L271.451 232.745L276.601 229.95299L266.781 218.51099C 266.781 218.51099 213.549 214.05399 200.756 206.439C 188.519 199.15498 185.069 180.79999 165.652 178.999C 156.513 178.15099 140.811 182.22398 125.733 186.29599C 108.776 190.87599 92.6069 195.456 87.4474 193.03699L87.4474 193.03699L81.6603 208.26698C 81.6603 208.26698 110.902 207.72798 132.527 199.926C 154.154 192.12299 160.979 190.36598 172.035 199.926C 183.09 209.48499 192.532 218.62299 211.722 223.19199C 223.463 225.98698 229.389 227.57599 229.389 227.57599z" stroke="none" fill="#1D4354" fill-rule="nonzero" />
        <path clip-path="url(#86)"  d="M163.024 178.88599C 153.685 178.88599 139.452 182.59099 125.733 186.29599C 112.017 190.00099 98.8142 193.706 91.5389 193.706C 89.8201 193.706 88.4334 193.499 87.4474 193.03699L87.4474 193.03699L81.6603 208.26698C 81.6603 208.26698 110.902 207.72798 132.527 199.926C 143.883 195.829 151.159 193.398 157.108 193.398C 162.489 193.398 166.784 195.38599 172.035 199.926C 183.09 209.48499 192.532 218.62299 211.722 223.19199C 223.463 225.98698 229.389 227.57599 229.389 227.57599L229.389 227.57599L271.451 232.745L276.601 229.95299L266.781 218.51099C 266.781 218.51099 253.688 217.415 238.929 215.38098C 237.996 215.25198 237.06 215.12 236.116 214.984C 236.101 214.982 236.083 214.98 236.068 214.97798C 221.856 212.92699 206.798 210.03499 200.756 206.439C 188.519 199.15498 185.069 180.79999 165.652 178.999C 164.828 178.92198 163.949 178.88599 163.024 178.88599z" stroke="none" fill="#B70536" fill-rule="nonzero" />
        <path clip-path="url(#87)"  d="M192.553 326.75378C 192.553 326.6098 176.385 326.4935 156.444 326.4935C 136.497 326.4935 120.332 326.6098 120.332 326.75378C 120.332 326.89728 136.497 327.01398 156.444 327.01398C 176.385 327.01398 192.553 326.89728 192.553 326.75378z" stroke="none" fill="#00313C" fill-rule="nonzero" />
        <path clip-path="url(#88)"  d="M145.904 309.559C 145.904 309.41498 138.019 309.29898 128.295 309.29898C 118.567 309.29898 110.683 309.41498 110.683 309.559C 110.683 309.703 118.567 309.82 128.295 309.82C 138.019 309.82 145.904 309.703 145.904 309.559z" stroke="none" fill="#00313C" fill-rule="nonzero" />
        <path clip-path="url(#89)"  d="M169.689 317.90808C 169.689 317.76398 137.341 317.64728 97.4484 317.64728C 57.5412 317.64728 25.2008 317.76398 25.2008 317.90808C 25.2008 318.05157 57.5412 318.16827 97.4484 318.16827C 137.341 318.16827 169.689 318.05157 169.689 317.90808z" stroke="none" fill="#00313C" fill-rule="nonzero" />
        <path clip-path="url(#90)"  d="M298.758 73.412994C 298.758 73.26898 282.59 73.15198 262.65 73.15198C 242.702 73.15198 226.537 73.26898 226.537 73.412994C 226.537 73.55698 242.702 73.67398 262.65 73.67398C 282.59 73.67398 298.758 73.55698 298.758 73.412994z" stroke="none" fill="#00313C" fill-rule="nonzero" />
        <path clip-path="url(#91)"  d="M275.894 64.566986C 275.894 64.42398 243.546 64.30698 203.653 64.30698C 163.746 64.30698 131.406 64.42398 131.406 64.566986C 131.406 64.711 163.746 64.828 203.653 64.828C 243.546 64.828 275.894 64.711 275.894 64.566986z" stroke="none" fill="#00313C" fill-rule="nonzero" />
        <path clip-path="url(#92)"  d="M42.9366 18.552979C 43.5881 21.075989 41.9333 23.608978 40.0787 25.440002C 38.2243 27.269989 36.0065 28.91098 35.0416 31.330994C 33.4781 35.25299 35.5803 40.330994 32.9123 43.60199C 31.3429 45.527985 28.529 46.171997 27.1364 48.227997C 26.406 49.306976 26.1696 50.632996 25.8824 51.902985C 24.4181 58.38498 21.1745 64.45398 16.5998 69.27298C 16.2815 63.501984 17.5543 57.649994 20.2418 52.531982C 21.3219 50.475983 22.6486 48.47 23.0066 46.17398C 23.5881 42.444977 21.507 38.60498 22.423 34.944C 23.4703 30.757996 28.173 27.955994 28.3957 23.645996C 28.5846 20.00299 25.4089 16.804993 25.6457 13.164001C 25.7463 11.613983 26.466 10.174988 27.2662 8.843994C 30.0837 4.1600037 34.2218 0.93499756 40.4948 1.0390015L40.4948 1.0390015L48.1779 0.769989L42.9366 18.552979z" stroke="none" fill="#1D4354" fill-rule="nonzero" />
        <path clip-path="url(#93)"  d="M48.1779 0.769989L40.4948 1.0390015C 40.3957 1.0369873 40.298 1.0369873 40.1999 1.0369873C 34.0923 1.0369873 30.0391 4.2339783 27.2662 8.843994C 26.466 10.174988 25.7463 11.613983 25.6457 13.164001C 25.6374 13.291992 25.6333 13.418976 25.6331 13.54599C 25.6282 16.92398 28.4015 19.941986 28.4038 23.326996C 28.4038 23.432983 28.4012 23.539978 28.3957 23.645996C 28.173 27.955994 23.4703 30.757996 22.423 34.944C 22.253 35.623993 22.1862 36.30899 22.1865 36.998993C 22.1874 39.554993 23.1086 42.168976 23.1109 44.748993C 23.1113 45.224976 23.0804 45.69998 23.0066 46.17398C 22.6486 48.47 21.3219 50.475983 20.2418 52.531982C 17.8273 57.13098 16.5546 62.320984 16.5519 67.513C 16.5516 68.099976 16.5675 68.68698 16.5998 69.27298C 21.1745 64.45398 24.4181 58.38498 25.8824 51.902985C 26.1696 50.632996 26.406 49.306976 27.1364 48.227997C 28.529 46.171997 31.3429 45.527985 32.9123 43.60199C 34.2619 41.947998 34.3909 39.829987 34.3912 37.634003C 34.3913 37.121002 34.3843 36.604004 34.3843 36.086975C 34.3841 34.442993 34.4538 32.806 35.0416 31.330994C 36.0065 28.91098 38.2243 27.269989 40.0787 25.440002C 41.6507 23.888 43.0792 21.832 43.0812 19.70398C 43.0816 19.321991 43.0359 18.936981 42.9366 18.552979L42.9366 18.552979L42.9366 18.552979L42.9366 18.552979L48.1779 0.769989z" stroke="none" fill="#B70536" fill-rule="nonzero" />
        <path clip-path="url(#94)"  d="M49.7336 0.56799316C 49.7336 0.56799316 50.466 0.39797974 51.8488 0.61398315C 52.5378 0.71499634 53.3849 0.8970032 54.3454 1.242981C 55.3005 1.59198 56.3874 2.0899963 57.4289 2.9319763C 57.9289 3.368988 58.4284 3.9069824 58.6974 4.6219788C 58.9621 5.3329773 59.0104 6.11499 59.0588 6.9179993C 59.1003 7.720978 59.1007 8.556976 59.2384 9.401978C 59.3683 10.248993 59.7004 11.079987 60.1769 11.873993C 61.0832 13.464996 62.5871 14.970978 63.0729 17.131989C 63.5988 19.256989 63.2218 21.556976 62.8644 23.865997C 62.5075 26.17099 62.1618 28.68399 63.0436 31.083984C 63.8678 33.487 65.5524 35.655975 66.3947 38.36499C 67.2336 41.100983 66.8429 44.043976 67.0197 46.944977C 67.1012 48.402985 67.3825 49.860992 68.0212 51.211975C 68.6427 52.570984 69.505 53.854004 70.1779 55.28598C 71.5417 58.181 71.7824 61.461 72.1554 64.675995C 72.3376 66.29498 72.5212 67.93198 72.7067 69.58499C 72.8898 71.244995 73.0373 72.89899 73.5602 74.497986C 74.0339 76.108 74.7194 77.665985 75.3981 79.25299C 75.7306 80.050995 76.0822 80.849 76.2897 81.73599C 76.4401 82.64099 76.4836 83.48898 76.5378 84.379C 76.6242 86.14099 76.5514 87.925995 76.3332 89.69699C 76.1242 91.47 75.8044 93.22699 75.6139 95.004974C 75.6022 95.10898 75.5905 95.215 75.5798 95.310974L75.5798 95.310974L75.5402 95.66498L75.2253 95.507996C 73.5802 94.68298 72.1715 93.45599 71.0895 92.01599C 69.9889 90.586975 69.1877 88.974 68.548 87.333984C 67.2648 84.03299 66.8029 80.573975 66.1559 77.27298C 65.5241 73.971985 64.6916 70.724 62.9987 67.97998C 62.1569 66.612 61.1383 65.362976 60.2472 64.027985C 59.3576 62.703003 58.5754 61.247986 58.3405 59.649994C 57.8859 56.398987 59.6764 53.544983 59.3039 50.668C 59.1711 49.237 58.6017 47.899994 57.902 46.681C 57.2043 45.451996 56.3844 44.313995 55.6066 43.169983C 54.8293 42.026 54.089 40.86499 53.5441 39.625C 52.9899 38.388977 52.6842 37.066986 52.6003 35.77298C 52.4128 33.182983 52.7804 30.724976 52.591 28.403992C 52.4347 26.079987 51.6188 23.973999 50.695 22.089996C 49.7658 20.199982 48.7321 18.48999 47.8659 16.832977C 47.4298 16.004974 47.0285 15.195984 46.7013 14.384979C 46.3547 13.574982 46.1842 12.744995 46.0265 11.955994C 45.7746 10.362976 45.799 8.878998 45.9699 7.569977C 46.3039 4.9379883 47.2858 3.0439758 48.1681 1.9779968C 48.3703 1.6940002 48.6051 1.492981 48.7897 1.3049927C 48.9699 1.1109924 49.1481 0.9790039 49.2941 0.87698364C 49.5807 0.6659851 49.7336 0.56799316 49.7336 0.56799316C 49.7677 0.6069946 49.1012 0.95999146 48.2458 2.039978C 47.4001 3.1109924 46.4611 4.991974 46.1603 7.595001C 46.006 8.8880005 45.9967 10.35199 46.258 11.915985C 46.4201 12.688995 46.5939 13.502991 46.9377 14.287994C 47.2643 15.080994 47.6706 15.885986 48.1095 16.70398C 48.9821 18.346985 50.027 20.04898 50.9762 21.950989C 51.9186 23.843994 52.7663 25.992981 52.9386 28.376984C 53.1403 30.746979 52.7839 33.21399 52.9792 35.74298C 53.0675 37.009003 53.3649 38.268982 53.9054 39.466003C 54.4377 40.665985 55.1672 41.803986 55.9445 42.938995C 56.7218 44.07599 57.5514 45.218994 58.2687 46.471985C 58.9865 47.71698 59.589 49.108 59.735 50.62198C 60.1051 53.68698 58.3278 56.560974 58.7897 59.582C 59.0119 61.076996 59.755 62.47 60.632 63.76999C 61.5089 65.08099 62.5329 66.33099 63.4001 67.73398C 65.1462 70.55698 65.9919 73.866 66.63 77.181C 67.2834 80.50198 67.7458 83.92499 69.0065 87.15799C 69.6339 88.764984 70.4176 90.33798 71.4811 91.71799C 72.5275 93.108 73.8752 94.277985 75.443 95.063995L75.443 95.063995L75.0885 95.26099C 75.0993 95.162994 75.1115 95.05698 75.1232 94.94998C 75.3166 93.152985 75.6374 91.39099 75.8439 89.63898C 76.0597 87.888 76.1315 86.138 76.0475 84.40198C 75.9972 83.54599 75.945 82.645996 75.8112 81.83899C 75.6237 81.030975 75.279 80.233 74.9489 79.44299C 74.2746 77.862976 73.5793 76.28198 73.0973 74.63699C 72.5631 72.99899 72.4103 71.28198 72.2321 69.64099C 72.0485 67.987 71.8669 66.349 71.6872 64.728C 71.32 61.5 71.0793 58.272003 69.7663 55.477997C 69.1173 54.086975 68.2565 52.800995 67.6164 51.395996C 66.9562 49.994995 66.6632 48.454987 66.5866 46.972992C 66.4196 44.007996 66.8053 41.10898 66.0031 38.483C 65.2067 35.868988 63.5304 33.68799 62.6838 31.208984C 61.777 28.70398 62.153 26.109985 62.5192 23.811981C 62.8903 21.5 63.2629 19.247986 62.7677 17.205994C 62.3239 15.141998 60.863 13.648987 59.9386 12.0130005C 59.4572 11.199982 59.1125 10.319977 58.9855 9.442993C 58.8507 8.567993 58.8581 7.7249756 58.8239 6.9279785C 58.7843 6.1369934 58.7389 5.3599854 58.4963 4.694977C 58.255 4.0309753 57.7848 3.5069885 57.3044 3.078003C 56.3009 2.2479858 55.2336 1.7389832 54.2951 1.3809814C 53.3498 1.0239868 52.5133 0.8280029 51.8337 0.7129822C 51.153 0.58999634 50.6247 0.57199097 50.2707 0.5609741C 49.9172 0.5749817 49.7336 0.56799316 49.7336 0.56799316z" stroke="none" fill="#000000" fill-rule="nonzero" />
        <path clip-path="url(#95)"  d="M74.0094 91.08099C 74.0011 91.082 73.9757 91.004 73.9352 90.849C 73.8898 90.664 73.8341 90.435974 73.7653 90.155975C 73.6144 89.552 73.4338 88.638 73.1442 87.49698C 72.8424 86.358 72.1457 85.070984 71.5495 83.483C 70.9298 81.909 70.3014 80.083984 69.7233 78.034C 69.1374 75.984985 68.6178 73.70999 68.0749 71.272C 67.5148 68.84 66.9562 66.22998 65.6154 63.768982C 64.9855 62.520996 64.2765 61.257996 63.7135 59.875977C 63.1364 58.493988 62.8249 56.983 62.6076 55.467987C 62.2384 52.42398 61.6798 49.333984 60.9508 46.173004C 59.4103 39.875977 57.943 33.879974 56.6071 28.418976C 55.2389 22.97699 54.0055 18.073975 52.966 13.940002C 51.9548 9.843994 51.133 6.515991 50.5529 4.168976C 50.2858 3.0419922 50.0749 2.1519775 49.9211 1.5059814C 49.8595 1.223999 49.8092 0.9949951 49.7692 0.8089905C 49.7375 0.65197754 49.7253 0.5709839 49.7336 0.56799316C 49.7419 0.565979 49.7702 0.64398193 49.818 0.79800415C 49.8708 0.9790039 49.9367 1.2039795 50.0177 1.4809875C 50.193 2.1219788 50.4338 3.0039978 50.7394 4.121002C 51.3556 6.4589844 52.2292 9.773987 53.3044 13.852997C 54.3732 17.97998 55.6408 22.875 57.048 28.306976C 58.3962 33.767975 59.8776 39.767 61.4328 46.063995C 62.1618 49.221985 62.7257 52.368988 63.0861 55.397003C 63.2995 56.902985 63.5964 58.35898 64.151 59.69998C 64.694 61.04599 65.3918 62.303986 66.0216 63.563995C 67.3732 66.07199 67.9362 68.76099 68.4748 71.18298C 69.0002 73.62799 69.4982 75.895996 70.0597 77.94C 70.6134 79.98599 71.215 81.80798 71.8068 83.38498C 72.3722 84.96698 73.0465 86.26898 73.3298 87.445984C 73.5959 88.61499 73.7423 89.51898 73.863 90.13699C 73.9118 90.42099 73.9523 90.651 73.9845 90.83798C 74.0089 90.99698 74.0177 91.07898 74.0094 91.08099z" stroke="none" fill="#000000" fill-rule="nonzero" />
        <path clip-path="url(#96)"  d="M51.0895 0.5449829C 56.1081 3.5279846 57.548 12.582001 55.4548 18.031982C 53.3615 23.480988 49.6974 28.460999 49.1325 34.270996C 48.6979 38.737976 50.1608 43.32199 49.1203 47.68698C 47.7165 53.57898 41.9645 58.142 42.0309 64.198975C 42.068 67.59799 44.0016 70.79498 43.8473 74.188995C 43.6584 78.353 40.4626 81.65698 38.4831 85.32498C 35.4533 90.938995 35.2536 97.578 34.2179 103.872986C 33.1818 110.168 30.7824 116.91 25.2033 120.004C 24.3791 114.66 22.9728 110.99899 23.4142 103.759C 23.5729 101.15799 26.5939 96.181 27.0046 90.48099C 27.2502 87.07498 27.4206 83.664 27.6286 80.254974C 27.8312 76.93799 28.0461 73.56 29.235 70.457C 30.1462 68.07898 31.6105 65.918976 32.2868 63.46399C 33.5597 58.845 31.8874 53.84198 32.9152 49.161987C 33.7858 45.19699 36.5299 41.785004 37.0905 37.764984C 37.8781 32.11499 34.2223 26.246002 36.0934 20.858002C 37.0221 18.18399 39.2218 16.037994 39.8454 13.276978C 40.3298 11.134979 39.8019 8.866974 40.2404 6.7160034C 40.9469 3.248993 47.5592 0.5569763 51.091 0.769989z" stroke="none" fill="#1D4354" fill-rule="nonzero" />
        <path clip-path="url(#97)"  d="M26.5866 114.698975C 26.5778 114.69699 26.5856 114.595 26.6081 114.397C 26.6374 114.173004 26.6745 113.882996 26.7214 113.517975C 26.8366 112.74698 26.966 111.612976 27.2267 110.147C 27.507 108.67398 28.2663 107.014984 28.8732 105.01398C 29.5138 103.01898 30.1506 100.718994 30.714 98.142C 31.2868 95.566986 31.7653 92.71799 32.2687 89.649994C 32.7887 86.60599 33.32 83.241 34.841 80.04898C 35.5451 78.444 36.3346 76.83899 36.9274 75.12799C 37.5348 73.42398 37.8141 71.591 37.986 69.70599C 38.2453 65.91998 38.7492 61.981995 39.4577 58.01599C 40.9948 50.096985 42.4587 42.553986 43.7912 35.68698C 45.1955 28.849976 46.4611 22.687988 47.5265 17.501984C 48.6022 12.35199 49.4748 8.175995 50.0861 5.25C 50.3937 3.8299866 50.6349 2.7160034 50.8068 1.9239807C 50.8898 1.5650024 50.9557 1.2809753 51.0065 1.0599976C 51.0539 0.8669739 51.0827 0.76797485 51.091 0.769989C 51.0993 0.7720032 51.0876 0.8739929 51.0558 1.0709839C 51.0173 1.2939758 50.967 1.5820007 50.9045 1.9429932C 50.7541 2.7399902 50.5431 3.8599854 50.2746 5.2879944C 49.6999 8.220978 48.8796 12.408997 47.8683 17.570984C 46.8327 22.763977 45.6027 28.931976 44.237 35.777985C 42.9167 42.642 41.4665 50.182983 39.944 58.099C 39.236 62.069977 38.735 65.94998 38.4674 69.75098C 38.2922 71.645996 38.0011 73.535 37.3727 75.28198C 36.7619 77.02899 35.9611 78.64099 35.257 80.231995C 33.7443 83.379 33.2135 86.664 32.672 89.718994C 32.152 92.78 31.651 95.63898 31.0544 98.218994C 30.467 100.800995 29.8034 103.10498 29.1359 105.099C 28.4982 107.106995 27.7155 108.75198 27.4142 110.18799C 27.1286 111.62698 26.9655 112.772 26.8195 113.534C 26.7526 113.89499 26.6994 114.18298 26.6579 114.40399C 26.6188 114.599976 26.5949 114.69998 26.5866 114.698975z" stroke="none" fill="#000000" fill-rule="nonzero" />
        <path clip-path="url(#98)"  d="M301.046 39.355988C 303.066 39.07898 304.855 37.785004 306.036 36.125C 307.218 34.46399 307.842 32.46399 308.166 30.450989C 308.795 26.55899 307.717 22.149994 306.252 18.488983C 302.299 20.372986 300.214 25.005981 299.304 27.421997C 297.866 31.241974 297.587 39.017 301.046 39.355988z" stroke="none" fill="#1D4354" fill-rule="nonzero" />
        <path clip-path="url(#99)"  d="M311.688 13.29599C 310.582 15.28598 310.815 17.872986 312.044 19.789978C 313.273 21.705994 315.387 22.96399 317.619 23.40799C 318.652 23.612976 319.826 23.623993 320.639 22.95398C 321.398 22.326996 321.641 21.224976 321.437 20.261993C 321.233 19.29898 320.649 18.458984 319.986 17.72998C 317.717 15.231995 315.062 13.231995 311.688 13.29599z" stroke="none" fill="#1D4354" fill-rule="nonzero" />
        <path clip-path="url(#100)"  d="M310.851 0.58599854C 310.83 0.58499146 310.797 0.87298584 310.747 1.3919983C 310.694 1.9660034 310.626 2.7059937 310.545 3.5950012C 310.405 5.4440002 310.154 8.0789795 310.834 10.893982C 311.497 13.697998 312.875 16.013 314.209 17.342987C 314.868 18.016998 315.48 18.47998 315.926 18.757996C 316.143 18.904999 316.33 18.990997 316.449 19.05899C 316.572 19.121979 316.639 19.151001 316.644 19.142975C 316.683 19.087982 315.616 18.570984 314.357 17.20398C 313.085 15.862976 311.764 13.584991 311.112 10.826996C 310.445 8.069977 310.658 5.462982 310.746 3.6089783C 310.8 2.6779785 310.843 1.9219971 310.858 1.3989868C 310.873 0.87698364 310.869 0.5869751 310.851 0.58599854z" stroke="none" fill="#000000" fill-rule="nonzero" />
        <path clip-path="url(#101)"  d="M301.782 33.45398C 301.792 33.457 301.837 33.343994 301.916 33.125977C 302.001 32.878998 302.111 32.56198 302.245 32.169983C 302.527 31.337982 302.919 30.128998 303.391 28.630981C 304.334 25.63498 305.58 21.47699 306.853 16.855988C 308.124 12.233002 309.18 8.02298 309.902 4.96698C 310.263 3.4379883 310.545 2.1989746 310.729 1.3399963C 310.813 0.9339905 310.881 0.60498047 310.935 0.3499756C 310.979 0.12298584 310.997 0.0019836426 310.987 0C 310.978 -0.0020141602 310.941 0.113983154 310.878 0.3369751C 310.812 0.58898926 310.726 0.9129944 310.62 1.3139954C 310.396 2.1999817 310.085 3.4230042 309.705 4.918976C 308.934 7.961975 307.848 12.16098 306.577 16.780975C 305.306 21.39798 304.092 25.561981 303.197 28.571991C 302.758 30.050995 302.4 31.260986 302.14 32.136993C 302.026 32.535004 301.933 32.856995 301.861 33.10898C 301.8 33.332 301.773 33.45099 301.782 33.45398z" stroke="none" fill="#000000" fill-rule="nonzero" />
        <path clip-path="url(#102)"  d="M306.833 9.459991C 304.833 13.822998 300.602 17.089996 295.874 17.919983C 294.67 18.131989 293.191 18.075989 292.539 17.041992C 291.886 16.005981 292.48 14.641998 293.214 13.661987C 296.273 9.588989 301.956 7.6989746 306.845 9.128998z" stroke="none" fill="#1D4354" fill-rule="nonzero" />
        <path clip-path="url(#103)"  d="M297.391 14.484985C 297.394 14.504974 297.662 14.46698 298.147 14.379974C 298.39 14.338989 298.687 14.28598 299.023 14.186981C 299.358 14.088989 299.751 14.010986 300.162 13.850983C 300.577 13.701996 301.037 13.549988 301.505 13.324982C 301.986 13.127991 302.475 12.863983 302.986 12.582977C 303.995 11.994995 305.053 11.252991 306.037 10.328003C 307.013 9.392975 307.815 8.378998 308.45 7.398987C 308.753 6.898987 309.043 6.425995 309.258 5.951996C 309.503 5.491974 309.673 5.0390015 309.834 4.628998C 310.011 4.223999 310.099 3.8320007 310.207 3.5C 310.317 3.1669922 310.376 2.8710022 310.423 2.6299744C 310.521 2.145996 310.566 1.8789978 310.546 1.8759766C 310.483 1.8599854 310.298 2.9369812 309.646 4.5549927C 309.475 4.9549866 309.297 5.397003 309.047 5.845001C 308.826 6.3069763 308.533 6.767975 308.23 7.2569885C 307.592 8.211975 306.799 9.201996 305.841 10.119995C 304.873 11.027985 303.84 11.764984 302.855 12.35498C 302.355 12.6380005 301.878 12.905975 301.407 13.108978C 300.95 13.341003 300.5 13.500977 300.095 13.660004C 298.456 14.255981 297.377 14.423981 297.391 14.484985z" stroke="none" fill="#000000" fill-rule="nonzero" />
        <path clip-path="url(#104)"  d="M299.927 342.2323L295.632 356.5726C 299.811 361.48868 301.209 365.8432 302.26 372.6884C 305.283 392.37488 291.775 410.78455 272.088 413.8075C 252.402 416.83044 233.992 403.3222 230.969 383.6356C 227.946 363.9496 241.454 345.5399 261.141 342.517C 269.361 341.25427 277.354 342.8827 284.102 346.6312L284.102 346.6312L286.371 348.36658L299.927 342.2323z" stroke="none" fill="#FFFFFF" fill-rule="nonzero" />
        <path clip-path="url(#105)"  d="M272.808 382.8954L270.586 382.8954L265.738 389.6517L265.738 394.0863C 265.738 394.0863 262.305 394.2973 262.708 388.4911C 263.113 382.68448 262.676 384.163 262.676 384.163C 262.676 384.163 255.385 384.1347 254.778 383.5014C 254.338 383.04138 254.139 375.7992 254.063 371.871C 254.025 369.8939 255.237 368.05508 257.076 367.5878C 257.337 367.52087 257.602 367.48178 257.861 367.48178C 259.679 367.48178 268.971 368.9603 268.971 368.9603L268.971 368.9603L272.808 368.9603L272.808 382.8954z" stroke="none" fill="#1D4354" fill-rule="nonzero" />
        <path clip-path="url(#106)"  d="M279.167 384.1132L277.801 368.9188L273.996 368.9188L273.996 383.80698L279.167 384.1132z" stroke="none" fill="#1D4354" fill-rule="nonzero" />
        <path clip-path="url(#107)"  d="M266.612 414.63074C 266.612 414.6449 266.4 414.64832 265.984 414.64148C 265.527 414.62878 264.916 414.6112 264.137 414.58923C 263.731 414.5702 263.275 414.57068 262.775 414.5287C 262.276 414.45837 261.732 414.3822 261.146 414.30017C 260.555 414.21472 259.92 414.1239 259.244 414.02673C 258.577 413.8612 257.869 413.68542 257.12 413.49988C 254.135 412.7323 250.519 411.42078 246.822 409.01013C 243.128 406.63904 239.289 403.24738 236.173 398.63898C 233.115 394.0243 230.757 388.2182 230.132 381.6976C 230.07 380.06628 229.874 378.4061 230.031 376.7186C 230.09 375.8768 230.073 375.02087 230.196 374.17178C 230.324 373.3231 230.453 372.4686 230.582 371.6073C 231.278 368.2055 232.29 364.72058 234.043 361.47498C 235.755 358.2216 237.964 355.1254 240.661 352.3681C 243.41 349.6674 246.622 347.3241 250.196 345.51837C 253.76 343.69757 257.708 342.4403 261.819 341.95108C 262.837 341.7494 263.879 341.7504 264.918 341.68738C 265.958 341.6195 267.003 341.5814 268.052 341.63028C 270.148 341.7157 272.251 341.97888 274.328 342.4232C 278.843 343.3842 283.093 345.2221 286.824 347.6815L286.824 347.6815L286.445 347.643C 290.777 345.9047 295.026 344.1996 299.173 342.53497L299.173 342.53497L299.927 342.2323L299.712 343.0145C 298.428 347.6854 297.179 352.2279 295.971 356.62198L295.971 356.62198L295.906 356.28598C 299.478 361.03308 301.755 366.453 302.698 371.83478C 303.171 374.5238 303.371 377.2079 303.194 379.80118C 303.138 381.1005 303.075 382.3822 302.831 383.6273C 302.735 384.2523 302.639 384.87238 302.543 385.48907C 302.429 386.1015 302.242 386.69418 302.098 387.29138C 299.639 396.86948 293.739 403.9437 287.897 407.99304C 284.972 410.0526 282.088 411.53015 279.446 412.45105C 278.788 412.6869 278.153 412.91394 277.542 413.1327C 276.915 413.29187 276.313 413.4447 275.736 413.59167C 275.159 413.73474 274.608 413.87097 274.082 414.00134C 273.552 414.1034 273.04 414.1576 272.561 414.23132C 271.598 414.3534 270.753 414.5199 270.012 414.55652C 269.282 414.58093 268.66 414.60193 268.142 414.6195C 267.668 414.62976 267.291 414.63806 266.999 414.6444C 266.742 414.64636 266.612 414.64197 266.612 414.63074C 266.612 414.6195 266.742 414.60193 266.998 414.578C 267.289 414.55505 267.664 414.52527 268.136 414.48816C 268.651 414.4535 269.27 414.412 269.994 414.36267C 270.729 414.30554 271.567 414.12 272.519 413.97888C 276.265 413.29236 281.88 411.7987 287.617 407.60388C 293.346 403.5531 299.096 396.5463 301.461 387.13068C 301.6 386.5438 301.78 385.9613 301.889 385.35928C 301.98 384.75378 302.071 384.1439 302.163 383.53018C 302.398 382.30698 302.452 381.0487 302.5 379.7733C 302.666 377.2279 302.458 374.59708 301.985 371.9638C 301.041 366.69318 298.795 361.3934 295.286 356.7533L295.286 356.7533L295.171 356.6015L295.222 356.4169C 296.421 352.0204 297.66 347.4755 298.936 342.8021L298.936 342.8021L299.474 343.2821C 295.328 344.95108 291.08 346.6615 286.751 348.40518L286.751 348.40518L286.552 348.4852L286.371 348.36658C 282.721 345.96417 278.567 344.1698 274.155 343.23077C 272.125 342.7963 270.069 342.53848 268.02 342.4545C 266.994 342.4061 265.973 342.4437 264.956 342.51007C 263.94 342.5712 262.92 342.56778 261.925 342.766C 257.906 343.2406 254.046 344.4657 250.559 346.24158C 247.062 348.0028 243.916 350.289 241.219 352.92618C 238.574 355.61948 236.405 358.64438 234.719 361.8246C 232.991 364.9979 231.991 368.40808 231.297 371.7396C 231.166 372.58337 231.037 373.42078 230.908 374.2518C 230.784 375.0839 230.799 375.9237 230.737 376.7494C 230.574 378.40417 230.763 380.03308 230.814 381.6351C 231.398 388.037 233.681 393.7518 236.658 398.3143C 239.694 402.87 243.449 406.2445 247.073 408.62244C 250.699 411.03992 254.258 412.38123 257.203 413.18933C 257.943 413.3866 258.643 413.57312 259.301 413.7484C 259.971 413.85828 260.598 413.9613 261.183 414.057C 261.763 414.1527 262.301 414.24158 262.796 414.32312C 263.292 414.3783 263.745 414.391 264.148 414.42322C 264.923 414.47986 265.531 414.5238 265.986 414.55652C 266.4 414.59167 266.612 414.61658 266.612 414.63074z" stroke="none" fill="#000000" fill-rule="nonzero" />
        <path d="" stroke="none" fill="none" />
        <path d="" stroke="none" fill="none" />
        <path d="M0 0L435 0L435 415L0 415z" stroke="none" fill="none" />
        <path d="M0 0L435 0L435 415L0 415z" stroke="none" fill="none" />
	</g>
</g>
</svg>