<svg xmlns="http://www.w3.org/2000/svg" xmlns:xlink="http://www.w3.org/1999/xlink" viewBox="0 0 435 415">
  <defs>
    <path id="a" d="M0 415V0h435v415z" clip-rule="evenodd"/>
    <path id="c" fill="none" d="M0 0h435v415H0z"/>
  </defs>
  <defs>
    <clipPath id="b">
      <path d="M0 0h435v415H0z" clip-rule="evenodd"/>
    </clipPath>
    <clipPath id="d">
      <use xlink:href="#a" clip-rule="evenodd"/>
    </clipPath>
    <clipPath id="e">
      <use xlink:href="#a" clip-rule="evenodd"/>
    </clipPath>
    <clipPath id="f">
      <use xlink:href="#a" clip-rule="evenodd"/>
    </clipPath>
    <clipPath id="g">
      <use xlink:href="#a" clip-rule="evenodd"/>
    </clipPath>
    <clipPath id="h">
      <use xlink:href="#a" clip-rule="evenodd"/>
    </clipPath>
    <clipPath id="i">
      <use xlink:href="#a" clip-rule="evenodd"/>
    </clipPath>
    <clipPath id="j">
      <use xlink:href="#a" clip-rule="evenodd"/>
    </clipPath>
    <clipPath id="k">
      <use xlink:href="#a" clip-rule="evenodd"/>
    </clipPath>
    <clipPath id="l">
      <use xlink:href="#a" clip-rule="evenodd"/>
    </clipPath>
    <clipPath id="m">
      <use xlink:href="#a" clip-rule="evenodd"/>
    </clipPath>
    <clipPath id="n">
      <use xlink:href="#a" clip-rule="evenodd"/>
    </clipPath>
    <clipPath id="o">
      <use xlink:href="#a" clip-rule="evenodd"/>
    </clipPath>
    <clipPath id="p">
      <use xlink:href="#a" clip-rule="evenodd"/>
    </clipPath>
    <clipPath id="q">
      <use xlink:href="#a" clip-rule="evenodd"/>
    </clipPath>
    <clipPath id="r">
      <use xlink:href="#a" clip-rule="evenodd"/>
    </clipPath>
    <clipPath id="s">
      <use xlink:href="#a" clip-rule="evenodd"/>
    </clipPath>
    <clipPath id="t">
      <use xlink:href="#a" clip-rule="evenodd"/>
    </clipPath>
    <clipPath id="u">
      <use xlink:href="#a" clip-rule="evenodd"/>
    </clipPath>
    <clipPath id="v">
      <use xlink:href="#a" clip-rule="evenodd"/>
    </clipPath>
    <clipPath id="w">
      <use xlink:href="#a" clip-rule="evenodd"/>
    </clipPath>
    <clipPath id="x">
      <use xlink:href="#a" clip-rule="evenodd"/>
    </clipPath>
    <clipPath id="y">
      <use xlink:href="#a" clip-rule="evenodd"/>
    </clipPath>
    <clipPath id="z">
      <use xlink:href="#a" clip-rule="evenodd"/>
    </clipPath>
    <clipPath id="A">
      <use xlink:href="#a" clip-rule="evenodd"/>
    </clipPath>
    <clipPath id="B">
      <use xlink:href="#a" clip-rule="evenodd"/>
    </clipPath>
    <clipPath id="C">
      <use xlink:href="#a" clip-rule="evenodd"/>
    </clipPath>
    <clipPath id="D">
      <use xlink:href="#a" clip-rule="evenodd"/>
    </clipPath>
    <clipPath id="E">
      <use xlink:href="#a" clip-rule="evenodd"/>
    </clipPath>
    <clipPath id="F">
      <use xlink:href="#a" clip-rule="evenodd"/>
    </clipPath>
    <clipPath id="G">
      <use xlink:href="#a" clip-rule="evenodd"/>
    </clipPath>
    <clipPath id="H">
      <use xlink:href="#a" clip-rule="evenodd"/>
    </clipPath>
    <clipPath id="I">
      <use xlink:href="#a" clip-rule="evenodd"/>
    </clipPath>
    <clipPath id="J">
      <use xlink:href="#a" clip-rule="evenodd"/>
    </clipPath>
    <clipPath id="K">
      <use xlink:href="#a" clip-rule="evenodd"/>
    </clipPath>
    <clipPath id="L">
      <use xlink:href="#a" clip-rule="evenodd"/>
    </clipPath>
    <clipPath id="M">
      <use xlink:href="#a" clip-rule="evenodd"/>
    </clipPath>
    <clipPath id="N">
      <use xlink:href="#a" clip-rule="evenodd"/>
    </clipPath>
    <clipPath id="O">
      <use xlink:href="#a" clip-rule="evenodd"/>
    </clipPath>
    <clipPath id="P">
      <use xlink:href="#a" clip-rule="evenodd"/>
    </clipPath>
    <clipPath id="Q">
      <use xlink:href="#a" clip-rule="evenodd"/>
    </clipPath>
    <clipPath id="R">
      <use xlink:href="#a" clip-rule="evenodd"/>
    </clipPath>
    <clipPath id="S">
      <use xlink:href="#a" clip-rule="evenodd"/>
    </clipPath>
    <clipPath id="T">
      <use xlink:href="#a" clip-rule="evenodd"/>
    </clipPath>
    <clipPath id="U">
      <use xlink:href="#a" clip-rule="evenodd"/>
    </clipPath>
    <clipPath id="V">
      <use xlink:href="#a" clip-rule="evenodd"/>
    </clipPath>
    <clipPath id="W">
      <use xlink:href="#a" clip-rule="evenodd"/>
    </clipPath>
    <clipPath id="X">
      <use xlink:href="#a" clip-rule="evenodd"/>
    </clipPath>
    <clipPath id="Y">
      <use xlink:href="#a" clip-rule="evenodd"/>
    </clipPath>
    <clipPath id="Z">
      <use xlink:href="#a" clip-rule="evenodd"/>
    </clipPath>
    <clipPath id="aa">
      <use xlink:href="#a" clip-rule="evenodd"/>
    </clipPath>
    <clipPath id="ab">
      <use xlink:href="#a" clip-rule="evenodd"/>
    </clipPath>
    <clipPath id="ac">
      <use xlink:href="#a" clip-rule="evenodd"/>
    </clipPath>
    <clipPath id="ad">
      <use xlink:href="#a" clip-rule="evenodd"/>
    </clipPath>
    <clipPath id="ae">
      <use xlink:href="#a" clip-rule="evenodd"/>
    </clipPath>
    <clipPath id="af">
      <use xlink:href="#a" clip-rule="evenodd"/>
    </clipPath>
    <clipPath id="ag">
      <use xlink:href="#a" clip-rule="evenodd"/>
    </clipPath>
    <clipPath id="ah">
      <use xlink:href="#a" clip-rule="evenodd"/>
    </clipPath>
    <clipPath id="ai">
      <use xlink:href="#a" clip-rule="evenodd"/>
    </clipPath>
    <clipPath id="aj">
      <use xlink:href="#a" clip-rule="evenodd"/>
    </clipPath>
    <clipPath id="ak">
      <use xlink:href="#a" clip-rule="evenodd"/>
    </clipPath>
    <clipPath id="al">
      <use xlink:href="#a" clip-rule="evenodd"/>
    </clipPath>
    <clipPath id="am">
      <use xlink:href="#a" clip-rule="evenodd"/>
    </clipPath>
    <clipPath id="an">
      <use xlink:href="#a" clip-rule="evenodd"/>
    </clipPath>
    <clipPath id="ao">
      <use xlink:href="#a" clip-rule="evenodd"/>
    </clipPath>
    <clipPath id="ap">
      <use xlink:href="#a" clip-rule="evenodd"/>
    </clipPath>
    <clipPath id="aq">
      <use xlink:href="#a" clip-rule="evenodd"/>
    </clipPath>
    <clipPath id="ar">
      <use xlink:href="#a" clip-rule="evenodd"/>
    </clipPath>
    <clipPath id="as">
      <use xlink:href="#a" clip-rule="evenodd"/>
    </clipPath>
    <clipPath id="at">
      <use xlink:href="#a" clip-rule="evenodd"/>
    </clipPath>
    <clipPath id="au">
      <use xlink:href="#a" clip-rule="evenodd"/>
    </clipPath>
    <clipPath id="av">
      <use xlink:href="#a" clip-rule="evenodd"/>
    </clipPath>
    <clipPath id="aw">
      <use xlink:href="#a" clip-rule="evenodd"/>
    </clipPath>
    <clipPath id="ax">
      <use xlink:href="#a" clip-rule="evenodd"/>
    </clipPath>
    <clipPath id="ay">
      <use xlink:href="#a" clip-rule="evenodd"/>
    </clipPath>
    <clipPath id="az">
      <use xlink:href="#a" clip-rule="evenodd"/>
    </clipPath>
    <clipPath id="aA">
      <use xlink:href="#a" clip-rule="evenodd"/>
    </clipPath>
    <clipPath id="aB">
      <use xlink:href="#a" clip-rule="evenodd"/>
    </clipPath>
    <clipPath id="aC">
      <use xlink:href="#a" clip-rule="evenodd"/>
    </clipPath>
    <clipPath id="aD">
      <use xlink:href="#a" clip-rule="evenodd"/>
    </clipPath>
    <clipPath id="aE">
      <use xlink:href="#a" clip-rule="evenodd"/>
    </clipPath>
    <clipPath id="aF">
      <use xlink:href="#a" clip-rule="evenodd"/>
    </clipPath>
    <clipPath id="aG">
      <use xlink:href="#a" clip-rule="evenodd"/>
    </clipPath>
    <clipPath id="aH">
      <use xlink:href="#a" clip-rule="evenodd"/>
    </clipPath>
    <clipPath id="aI">
      <use xlink:href="#a" clip-rule="evenodd"/>
    </clipPath>
    <clipPath id="aJ">
      <use xlink:href="#a" clip-rule="evenodd"/>
    </clipPath>
    <clipPath id="aK">
      <use xlink:href="#a" clip-rule="evenodd"/>
    </clipPath>
    <clipPath id="aL">
      <use xlink:href="#a" clip-rule="evenodd"/>
    </clipPath>
    <clipPath id="aM">
      <use xlink:href="#a" clip-rule="evenodd"/>
    </clipPath>
    <clipPath id="aN">
      <use xlink:href="#a" clip-rule="evenodd"/>
    </clipPath>
    <clipPath id="aO">
      <use xlink:href="#a" clip-rule="evenodd"/>
    </clipPath>
    <clipPath id="aP">
      <use xlink:href="#a" clip-rule="evenodd"/>
    </clipPath>
    <clipPath id="aQ">
      <use xlink:href="#a" clip-rule="evenodd"/>
    </clipPath>
    <clipPath id="aR">
      <use xlink:href="#a" clip-rule="evenodd"/>
    </clipPath>
    <clipPath id="aS">
      <use xlink:href="#a" clip-rule="evenodd"/>
    </clipPath>
    <clipPath id="aT">
      <use xlink:href="#a" clip-rule="evenodd"/>
    </clipPath>
    <clipPath id="aU">
      <use xlink:href="#a" clip-rule="evenodd"/>
    </clipPath>
    <clipPath id="aV">
      <use xlink:href="#a" clip-rule="evenodd"/>
    </clipPath>
    <clipPath id="aW">
      <use xlink:href="#a" clip-rule="evenodd"/>
    </clipPath>
    <clipPath id="aX">
      <use xlink:href="#a" clip-rule="evenodd"/>
    </clipPath>
    <clipPath id="aY">
      <use xlink:href="#a" clip-rule="evenodd"/>
    </clipPath>
    <clipPath id="aZ">
      <use xlink:href="#a" clip-rule="evenodd"/>
    </clipPath>
    <clipPath id="ba">
      <use xlink:href="#a" clip-rule="evenodd"/>
    </clipPath>
    <clipPath id="bb">
      <use xlink:href="#a" clip-rule="evenodd"/>
    </clipPath>
    <clipPath id="bc">
      <use xlink:href="#a" clip-rule="evenodd"/>
    </clipPath>
  </defs>
  <g clip-path="url(#b)" transform="matrix(1 0 0 -1 0 415)">
    <use xlink:href="#c"/>
    <use xlink:href="#c"/>
    <use xlink:href="#c"/>
    <use xlink:href="#c"/>
    <use xlink:href="#c"/>
    <path fill="none" d="M0 415V0h435v415z"/>
    <path fill="#DAE5E2" d="M306 1 193 8c-6 1-12 1-17 3s-9 6-13 9c-5 2-10 4-15 3s-9-7-7-12c-3 9-6 17-12 24-6 6-17 9-24 4-8-6-8-17-7-27-3 7-6 15-11 21-5 5-14 9-21 6-5-2-9-7-11-12-2-6-2-12-1-17l-1-9h253z" clip-path="url(#d)"/>
    <path fill="#F7F5EB" d="M217 351c1 7-9 12-16 13l-11 1c-7 2-10 12-17 15-5 2-11 0-16-3-5-2-10-5-16-6-5 0-10 2-15-1-3-1-5-5-8-7s-6-3-10-3-7 0-11-2c-3-1-6-5-5-8l125 1z" clip-path="url(#e)"/>
    <path fill="#F3F6F4" d="M400 398c0 4-4 6-8 7h-5c-3 1-5 6-8 7s-6 0-8-1c-3-1-5-3-8-3h-7l-4-4-5-1-5-1c-1-1-3-3-2-4h60z" clip-path="url(#f)"/>
    <path fill="#F7F5EB" d="M115 387c1 4-5 8-10 8h-6c-5 2-7 8-11 10-3 1-7 0-10-2l-10-4h-9l-5-5-6-2-7-1c-2-1-3-3-3-5l77 1z" clip-path="url(#g)"/>
    <path fill="#F7F5EB" d="M400 324a99 99 0 0 1-105 45c-33-7-63-32-75-64-7-19-9-41-22-56-18-20-48-20-74-19s-56 0-73-20a64 64 0 0 1-14-46c2-43 33-82 72-101 39-20 85-22 128-13 59 12 116 45 150 95 33 48 42 113 20 166l-7 13z" clip-path="url(#h)"/>
    <path d="M435 1z" clip-path="url(#i)"/>
    <path fill="#CCCCCC" d="M10 278s79-39 101-46a176 176 0 0 1 74-5c14 5 83 19 83 19l83 5-1 11-96-6s-55-7-63-16c0 0-6-10-18-11-11-2-63 11-68 16-6 6-8 9-24 13-17 4-54 30-54 30l-19-9 2-1z" clip-path="url(#j)"/>
    <path fill="#14A800" d="M161 225c-16 0-36 2-50 7-22 7-101 46-101 46l-2 1 19 9s37-26 54-30c16-4 18-7 24-13a204 204 0 0 1 68-16c12 1 18 11 18 11 8 9 63 16 63 16l23 2-7-12h-2s-69-14-83-19l-10-1-14-1z" clip-path="url(#k)"/>
    <path fill="#3A5556" d="m351 254-1 2 1-1v-1zm-1 3v1-1z" clip-path="url(#l)"/>
    <path fill="#14A800" d="M347 251a139 139 0 0 1 3 7v-2l1-2-2-3h-2z" clip-path="url(#m)"/>
    <path fill="#FFA4A2" d="m333 308-109-1-8 2a210 210 0 0 0-16 9v-1l7-6-12 3h-2l-1-1 7-3-9 1-2-1 13-5h-12c-1 0-2-2-1-3s19-2 19-4-5-2-7-5 1-4 1-4c2 2 9 4 9 4h11l103-15 15 10 7 11-13 9z" clip-path="url(#n)"/>
    <path fill="#FFA4A2" d="m306 308-111-22h-8a219 219 0 0 0-18 6l-1-1 9-5-14 1h-2v-1l8-3h-9l-2-1v-1l14-2-12-3c-1 0-2-1-1-3 1-1 20 2 20 0 1-2-5-3-6-6-1-4 2-4 2-4 1 3 8 6 8 6l12 1 108 6 14 13 4 13-15 6z" clip-path="url(#o)"/>
    <path fill="#FF7D6F" d="M267 300h-3l-8-2-25-5a620291 620291 0 0 0-35-7l2 1a495 495 0 0 0 33 6l25 5 8 2h3z" clip-path="url(#p)"/>
    <path d="M339 358c0-2-2-4-4-4l-3-1-2-2 2-2v-3l-2-1v-3l3-2 1-2z" clip-path="url(#q)"/>
    <path d="M378 341c3 6 1 14-3 19-5 5-11 8-18 10h-3v-3l3-1-9 2h-3l-1-3 2-1c-2 0-5 0-8-2-2-1-3-3-3-5l2-3-1-6c-2-3-2-7-2-10 1-4 2-7 5-9z" clip-path="url(#r)"/>
    <path fill="#FFA4A2" d="m366 360-1 1c-11 3-22-3-25-14l-12-41 22-19 6 18s11-3 15 7l7 25c3 9-3 20-12 23z" clip-path="url(#s)"/>
    <path fill="#FF7D6F" d="M356 305s-6 2-11 8c0 0 0-8 10-11l1 3z" clip-path="url(#t)"/>
    <path d="m355 355-3 7h-6c-2 0-3-2-4-4-3-7-3-14-5-21v-1c0-1 1-2 3-2 3 0 4 2 6 5l1 4c0 5 3 9 7 12h1z" clip-path="url(#u)"/>
    <path fill="#FFA4A2" d="M342 341c0 1-6 5-8-2-3-7 5-8 5-7l3 9z" clip-path="url(#v)"/>
    <path fill="#FF7D6F" d="M337 335h-1v3l1 2h1v-1l1 1h-1v1l-2-1-1-2 1-3h1z" clip-path="url(#w)"/>
    <path d="M352 353c4 3 7 1 9 0l7-5h8l2 6c1 3-1 7-3 10-1 1-2 2-3 1v-3s-12 4-19 2-1-11-1-11z" clip-path="url(#x)"/>
    <path fill="#00313C" d="M357 370v-1l2-4a17 17 0 0 1 8-4l4-1 3-1 2-3v-3l-1-3-3-2h-1 1a6 6 0 0 1 4 5l-1 3a7 7 0 0 1-5 4l-3 1-3 1-5 3-2 3a5 5 0 0 0 0 2z" clip-path="url(#y)"/>
    <path fill="#00313C" d="M349 368v-1l3-4 5-3 7-1 7-2 2-3 1-3-3-3a6 6 0 0 0-1-1l1 1 2 3v3l-2 2-7 2-7 2-5 3-3 3a7 7 0 0 0 0 2z" clip-path="url(#z)"/>
    <path d="m374 330-3 2-3 1h1a5 5 0 0 0 4-2l1-1z" clip-path="url(#A)"/>
    <path d="m358 335-3 2h-3l1 1a5 5 0 0 0 5-2v-1z" clip-path="url(#B)"/>
    <path d="m359 324 3-1h1l1 2-1 3 1 10v-15l-1-1-1 1-3 1z" clip-path="url(#C)"/>
    <path d="m354 324 1-4 3-2h-2l-2 2-1 3 1 1z" clip-path="url(#D)"/>
    <path d="m361 344-4 1-4 1 1 1h3l3-1 1-2z" clip-path="url(#E)"/>
    <path d="m375 338-2 1-3 1 1 1 2-1 2-1v-1z" clip-path="url(#F)"/>
    <path fill="#CCCCCC" d="M352 293v-30c-3-14-23-46-24-48l-17-39s-72 22-75 40l30 24 23 38 13 23s10 10 16 10h11l23-18z" clip-path="url(#G)"/>
    <path fill="none" d="m241 208-5 7 5-7" clip-path="url(#H)"/>
    <path fill="#667F7F" d="M236 215h5v-7h-5z" clip-path="url(#34)"/>
    <path fill="#8A0012" d="m297 185-33 12-14 8-1-2c-2 0-5 3-8 5l-5 7h3a1084 1084 0 0 0 58-30z" clip-path="url(#I)"/>
    <path fill="#CCCCCC" d="m316 311-13-1-37-8 16-30 41 4s11 20 7 24l-14 11z" clip-path="url(#J)"/>
    <path fill="#8A0012" d="m280 263 5 9 28 3-33-12z" clip-path="url(#K)"/>
    <path fill="#8A0012" d="m285 272 29 3h-1l-28-3z" clip-path="url(#L)"/>
    <path d="M322 275z" clip-path="url(#M)"/>
    <path d="m329 293-1 3a21 21 0 0 1-7 11l-3 1h1l2-1a19 19 0 0 0 8-13v-1z" clip-path="url(#N)"/>
    <path d="m274 238 1 1a65 65 0 0 1 28 11 55 55 0 0 0-29-12z" clip-path="url(#O)"/>
    <path d="m278 245 7 1 8 3-2-1a31 31 0 0 0-13-3z" clip-path="url(#P)"/>
    <path d="m317 213-1-1-4-1a89 89 0 0 0-26-5 106 106 0 0 1 31 7z" clip-path="url(#Q)"/>
    <path fill="#F3F6F4" d="m352 266-21 7c-3-12-11-22-21-31l26-13a290 290 0 0 0 16 37z" clip-path="url(#R)"/>
    <path fill="#DAE5E2" d="m336 275-2-6 3-1 2 6-3 1z" clip-path="url(#S)"/>
    <path fill="#CCCCCC" d="M332 247h3l5 9-5 3-2-2 3-1-4-9z" clip-path="url(#T)"/>
    <path fill="#CCCCCC" d="m347 250 1 3-1 1h-6l1-2h3l2-2z" clip-path="url(#U)"/>
    <path fill="#CCCCCC" d="M337 247h-3l-1-2 3-1 2 3h-1z" clip-path="url(#V)"/>
    <path fill="#CCCCCC" d="m345 246-6-1-1-2 4-3v1l2 2h-1 1l1 3z" clip-path="url(#W)"/>
    <path d="m344 249-1-1h-3a66 66 0 0 0-19-2h4a104 104 0 0 1 15 2l4 1z" clip-path="url(#X)"/>
    <path fill="#FFA4A2" d="M295 180c-1-1-44-66-81-79l-16 2-85 26 10 23 79-17 36 41 12 29 45-25z" clip-path="url(#Y)"/>
    <path fill="#00313C" d="m118 127 36-10 8 27-39 9-5-26z" clip-path="url(#Z)"/>
    <path fill="#CCCCCC" d="M120 127h-1s-21-22-25-20l21 50 13-5-1-2c-5-7-7-14-7-23z" clip-path="url(#aa)"/>
    <path fill="#FF9CD7" d="m121 145-2 3a2 2 0 0 0 2 1l2-2-2-2z" clip-path="url(#ab)"/>
    <path fill="#F6F8F7" d="m94 107 3 1-3-1z" clip-path="url(#ac)"/>
    <path fill="#FF9CD7" d="m94 107 21 50 4-2-22-47-3-1z" clip-path="url(#ad)"/>
    <path d="M119 126v3l-1 3 2-3-1-3z" clip-path="url(#ae)"/>
    <path d="m115 122-1 3-2 2s2 0 2-2l1-3z" clip-path="url(#af)"/>
    <path d="m107 122 2-1c2-2 2-3 1-3l-1 2-2 2z" clip-path="url(#ag)"/>
    <path d="m119 127 1 2a12 12 0 0 0 4 4h2v-2a10 10 0 0 0-4-3l-3-1 3 1a11 11 0 0 1 3 3v1h-1a14 14 0 0 1-3-3l-2-2z" clip-path="url(#ah)"/>
    <path d="M119 127h3a9 9 0 0 0 4-3v-2l-1-1h-1l-2 1-2 2v3l1-2a6 6 0 0 1 3-3h1v2a9 9 0 0 1-3 2l-3 1z" clip-path="url(#ai)"/>
    <path fill="#FAFBFA" d="M158 144v-1l-1-3-3-9-3-9-1-2v-1 1a92 92 0 0 0 4 11 258 258 0 0 0 4 13z" clip-path="url(#aj)"/>
    <path fill="#FAFBFA" d="m155 144-1-1-1-3-2-9-3-9-1-2v-1 1a92 92 0 0 0 3 11 255 255 0 0 0 5 13z" clip-path="url(#ak)"/>
    <path fill="#FFA4A2" d="M301 183c2-1 58-59 60-63l21-93-20-5-27 54-9 26-34 30-36 33 45 18z" clip-path="url(#al)"/>
    <path fill="#00313C" d="m388 21-12 35-27-9 15-37 24 11z" clip-path="url(#am)"/>
    <path fill="#CCCCCC" d="m387 22 1-1s29-4 31-9L366 1l-4 13h3c8 0 15 3 22 8z" clip-path="url(#an)"/>
    <path fill="#FF9CD7" d="m370 9-2 1 1 3h1l2-1c1-1 0-2-1-3h-1z" clip-path="url(#ao)"/>
    <path fill="#FFF" d="M419 12c-1 1-1 2-3 2 1 0 3 0 3-2z" clip-path="url(#ap)"/>
    <path fill="#FF9CD7" d="m366 1-1 4 51 9c2 0 2-1 3-2L366 1z" clip-path="url(#aq)"/>
    <path d="m388 22-2-2-2-2 1 3 3 1z" clip-path="url(#ar)"/>
    <path d="M394 21c1-1 0-1-1-2l-1-3v3l2 2z" clip-path="url(#as)"/>
    <path d="M399 15v2l1 3-1-3v-2z" clip-path="url(#at)"/>
    <path d="m388 22-3-1a12 12 0 0 0-5 1h-1v2l1 1h1a10 10 0 0 0 5-2l2-1-3 1a11 11 0 0 1-4 1l-1-1h1a14 14 0 0 1 4-1h3z" clip-path="url(#au)"/>
    <path d="m387 21-1 3a9 9 0 0 0 0 5l2 1h1v-1l1-2-1-3c0-2-1-2-2-2l2 2a6 6 0 0 1 0 4l-1 1-1-1a9 9 0 0 1 0-4v-3z" clip-path="url(#av)"/>
    <path fill="#FAFBFA" d="M351 43h1l3 1 9 3 9 3 2 1 1 1v-1a92 92 0 0 0-12-4 258 258 0 0 0-13-4z" clip-path="url(#aw)"/>
    <path fill="#FAFBFA" d="m353 40 1 1 3 1 9 3 9 3 2 1h1-1a93 93 0 0 0-11-5 258 258 0 0 0-13-4z" clip-path="url(#ax)"/>
    <path d="M250 205s-31-38-38-41c-2-1 6-11 6-11l4 5c13-7 23-16 34-29l18 17 15-20 43 27-21 23s-29 26-54 32c0 0-3 0-7-3z" clip-path="url(#ay)"/>
    <path fill="#00313C" d="m296 171-1-1-1-1a329 329 0 0 0-37-38l-1-1v-1 1l1 1 5 4a498 498 0 0 1 28 30l4 4 1 1 1 1z" clip-path="url(#az)"/>
    <path fill="#00313C" d="m256 130-1 2a146 146 0 0 1-41 30l-2 1a564 564 0 0 1 15-8 135 135 0 0 0 29-25z" clip-path="url(#aA)"/>
    <path fill="#FAFBFA" d="M273 203h-1l-1-2-4-5a839 839 0 0 1-29-36l-5-5-1-2 1 2a308 308 0 0 0 33 41l5 5 1 2h1z" clip-path="url(#aB)"/>
    <path fill="#FAFBFA" d="m269 203-1-2-5-5a843 843 0 0 1-29-34l-4-5a748 748 0 0 0-2-1l2 1a303 303 0 0 0 33 40l5 5 1 1z" clip-path="url(#aC)"/>
    <path fill="#00313C" d="M304 137z" clip-path="url(#aD)"/>
    <path fill="#CCCCCC" d="M355 248c0-2-2-4-5-6l-8-4-49-19 3 9v5c11 3 44 13 53 18 1 2 3 4 1 6 0 0 1 1 4-4l1-5z" clip-path="url(#aE)"/>
    <path fill="#14A800" d="m293 219 3 9v5c11 3 44 13 53 18l2 4a3 3 0 0 1-1 2l4-4 1-4v-1c0-2-2-4-5-6l-8-4-1-1-12-5-36-13z" clip-path="url(#aF)"/>
    <path fill="#CCCCCC" d="m229 228 42 5 6-3-10-11s-53-5-66-13c-12-7-16-25-35-27-9-1-25 3-40 7-17 5-33 9-39 7l-5 15s29 0 51-8c21-8 28-10 39 0 11 9 21 19 40 23l17 5z" clip-path="url(#aG)"/>
    <path fill="#14A800" d="M163 179c-9 0-24 4-37 7-14 4-27 8-34 8l-5-1-5 15s29 0 51-8c11-4 18-7 24-7 5 0 10 2 15 7 11 9 21 19 40 23l17 5 42 5 6-3-10-11-28-4h-3c-14-2-29-5-35-9-12-7-16-25-35-27h-3z" clip-path="url(#aH)"/>
    <path fill="#00313C" d="M193 327z" clip-path="url(#aI)"/>
    <path fill="#00313C" d="M146 310z" clip-path="url(#aJ)"/>
    <path fill="#00313C" d="M170 318z" clip-path="url(#aK)"/>
    <path fill="#00313C" d="M299 73z" clip-path="url(#aL)"/>
    <path fill="#00313C" d="M276 65z" clip-path="url(#aM)"/>
    <path fill="#CCCCCC" d="M43 19c1 2-1 5-3 6l-5 6c-2 4 1 9-2 13l-6 4-1 4c-2 6-5 12-9 17-1-5 1-11 3-16l3-7c1-4-1-7-1-11 1-4 6-7 6-11 1-4-3-7-2-11l1-4c3-5 7-8 13-8h8l-5 18z" clip-path="url(#aN)"/>
    <path fill="#14A800" d="M48 1h-8c-6 0-10 3-13 8a10 10 0 0 0-1 5l2 9v1c0 4-5 7-6 11v2l1 8v1l-3 7a32 32 0 0 0-3 16c4-5 7-11 9-17l1-4 6-4 1-6v-2l1-5 5-6c2-1 3-3 3-5v-1l5-18z" clip-path="url(#aO)"/>
    <path d="M50 1h2a13 13 0 0 1 5 2l2 2v4l1 3c1 1 3 3 3 5v14l3 7 1 9 1 4 2 4c2 3 2 6 2 10l1 5 1 4 1 5 1 3 1 2-1 6v6h-1l-4-4-2-5c-2-3-2-6-3-10l-3-9-3-4-2-4c0-4 2-6 1-9l-1-4-2-4-2-3-1-4v-8l-2-6-3-5-1-3-1-2V8l2-6 1-1h1l-2 1-2 6v4l1 2 1 3 3 5 2 6v8l1 3 2 4 2 3 2 5c0 3-2 6-1 9l2 4 2 4 4 9 2 10 2 5 4 3 1-5v-8l-1-3-2-4-1-5v-5l-2-10-2-4-1-4-1-9-3-7V17l-3-5-1-3V7l-1-2-1-2-3-2a13 13 0 0 0-4 0z" clip-path="url(#aP)"/>
    <path d="M74 91v-1l-1-3-1-4a58 58 0 0 1-4-12l-2-7-2-4-1-5-2-9-4-18-4-14-2-10-1-2V1l1 3 2 10 4 14a203145 203145 0 0 0 7 32l2 4 2 7a127 127 0 0 0 4 12l1 4 1 3v1z" clip-path="url(#aQ)"/>
    <path fill="#CCCCCC" d="M51 1c5 3 7 12 4 17-2 5-5 10-6 16v14c-1 6-7 10-7 16l2 10c0 4-4 8-6 11-3 6-3 13-4 19s-3 13-9 16l-2-16c1-3 4-8 4-14l1-10 1-10c1-2 3-4 3-7 2-4 0-9 1-14 1-4 4-7 4-11 1-6-3-12-1-17l4-8V7c1-4 8-6 11-6z" clip-path="url(#aR)"/>
    <path d="M27 115v-5l2-5a75 75 0 0 0 3-15c1-3 1-7 3-10l2-5 1-5 1-12 5-22 4-18 2-13 1-3V1v1l-1 3-2 13-4 18-4 22-2 12-1 5-2 5-2 10a151 151 0 0 1-4 15l-2 5v5z" clip-path="url(#aS)"/>
    <path fill="#CCCCCC" d="M301 39c2 0 4-1 5-3l2-6c1-3 0-8-2-12-4 2-6 7-7 9-1 4-1 12 2 12z" clip-path="url(#aT)"/>
    <path fill="#CCCCCC" d="M312 13v7c1 2 3 3 6 3h3v-3l-1-2c-2-3-5-5-8-5z" clip-path="url(#aU)"/>
    <path d="M311 1v10c0 3 2 5 3 6l2 2h1l-3-2-3-6V4a87 87 0 0 0 0-3z" clip-path="url(#aV)"/>
    <path d="M302 33v-1a185 185 0 0 0 8-27l1-4V0v1l-1 4a610 610 0 0 1-7 24l-1 3v1z" clip-path="url(#aW)"/>
    <path fill="#CCCCCC" d="M307 9c-2 5-6 8-11 9l-3-1v-3c3-4 9-6 14-5z" clip-path="url(#aX)"/>
    <path d="M297 14h3l2-1a15 15 0 0 0 4-3l2-3 1-1 1-1V3l1-1-1 3-1 1-1 1a17 17 0 0 1-5 5l-2 1-1 1h-3z" clip-path="url(#aY)"/>
    <path fill="#FFF" d="m300 342-4 15c4 4 5 9 6 16a36 36 0 1 1-18-26l2 1 14-6z" clip-path="url(#aZ)"/>
    <path fill="#CCCCCC" d="M273 383h-2l-5 7v4s-4 0-3-6v-4h-8l-1-12c0-2 1-4 3-4l1-1 11 2h4v14z" clip-path="url(#ba)"/>
    <path fill="#CCCCCC" d="m279 384-1-15h-4v15h5z" clip-path="url(#bb)"/>
    <path d="M267 415h-4l-2-1h-2l-2-1c-3 0-6-2-10-4a37 37 0 0 1-17-27v-8l1-2a37 37 0 0 1 31-30h6a37 37 0 0 1 19 6h-1l13-5 1-1v1l-4 14v-1a37 37 0 0 1 7 29l-1 2a36 36 0 0 1-23 25l-1 1-2 1h-3l-3 1h-3l1-1h5a36 36 0 0 0 28-27l1-2v-1l1-4-1-8c-1-5-3-11-7-15v-1l4-13-12 5h-1a36 36 0 0 0-21-5h-3c-4 0-8 1-11 3l-10 7a38 38 0 0 0-10 19v10a37 37 0 0 0 16 27 35 35 0 0 0 12 5h5a1567 1567 0 0 0 3 1z" clip-path="url(#bc)"/>
    <use xlink:href="#c"/>
    <use xlink:href="#c"/>
  </g>
</svg>
