<svg xmlns="http://www.w3.org/2000/svg" version="1.1" xmlns:xlink="http://www.w3.org/1999/xlink" xmlns:svgjs="http://svgjs.com/svgjs" width="512" height="512" x="0" y="0" viewBox="0 0 66 66" style="enable-background:new 0 0 512 512" xml:space="preserve" class=""><g><path d="M60.099 31.652C58.203 7.935 31.504-4.436 13.788 13.222a.483.483 0 0 0-.417.411c-10.049 10.42-10.182 27.702.132 38.487a.483.483 0 0 0 .486.5c5.132 5.113 11.926 8.147 19.021 8.459.23.016.46.041.689.041.064 0 .127-.008.191-.01.1.001.2.011.3.011 14.758 0 27.038-12.468 25.94-29.053a.48.48 0 0 0-.031-.416zm-1.018-.211-5.202.42c.141-3.315-1.723-6.838-5.59-7.975a40.999 40.999 0 0 0-2.157-7.072 30.637 30.637 0 0 0 4.871-3.097c4.467 4.621 7.458 10.84 8.078 17.724zm-11.079 8.492c-.359 2.986-.957 5.489-1.745 7.788-4.416-2.528-8.773-4.062-13.755-4.113.04-.918.085-1.822.137-2.705 8.596.132 12.038.431 15.363-.97zm-28.183 6.568c-.664-1.92-1.182-4.021-1.543-6.255 2.333.547 4.727.537 13.362.641-.052.893-.098 1.807-.138 2.736a25.543 25.543 0 0 0-11.568 3.181c-.037-.101-.078-.2-.113-.303zm4.147-7.398.687.686c-.576-.009-.098.001-1.211-.022l-.07-.07zm4.129-.113.594.594-.258.258-1.171-.016zm2.53-.357.68.68-.561.561-1.113-.016c-.058-.114-.13-.17-.235-.275l1.177-1.177c-.018.081-.01.164.052.227zm.816 1.251.218-.218.224.224-.442-.006zm-4.878-.068-1.172-.017.584-.584.594.594zm4.895 4.833c-.173 4.934-.047 10.254 1.144 15.391-5.836-.733-10.118-6.705-12.305-12.252a25.137 25.137 0 0 1 11.161-3.139zm2.167 15.459c-.002-.024.003-.046-.002-.07-1.219-5.116-1.338-10.457-1.163-15.41 4.908.014 9.154 1.565 13.454 4.05-2.122 5.583-6.349 11.49-12.289 11.43zm.306-20.186.458-.458.472.472-.93-.014zm2.489.037.699-.699.72.72-1.419-.021zm4.689-2.253c.012.023.01.05.029.069l.816.815-1.023 1.022-.864-.864zm2.311 1.644-.759-.759.82-.819.887.887-.793.794a.25.25 0 0 0 .354.354l.793-.794.655.655c-1.365.269-2.773.345-4.143.351l1.074-1.074.759.759c.232.232.589-.119.353-.354zm2.952-.266a.25.25 0 0 0 .354 0l.81-.81.431.431a.247.247 0 0 0 .165.069c-.69.333-1.381.589-2.296.803.012-.077.001-.155-.058-.214l-.704-.704 1.423-1.422.685.684-.81.81a.25.25 0 0 0 0 .353zm2.016-.434-.056.027c.076-.098.079-.236-.011-.326l-.432-.431.901-.901.366.365c.233.233.589-.118.353-.354l-.366-.366.698-.698a.25.25 0 1 0-.354-.354l-.698.698-.757-.758a.25.25 0 1 0-.354.354l.757.757-.901.901-.684-.684.442-.442a.25.25 0 1 0-.354-.354l-.442.442-.284-.284a.25.25 0 1 0-.354.354l.284.284-1.422 1.422-.887-.887.331-.331a.25.25 0 1 0-.354-.354l-1.505 1.504-.816-.815c-.06-.06-.139-.07-.215-.058-.01-.045-.017-.091-.052-.126a.249.249 0 0 0-.353 0l-1.157 1.157-.613-.613a.25.25 0 1 0-.354.354l.613.613-.748.748a.25.25 0 1 0 .353.354l.748-.748.915.916c-.418-.003-.832-.008-1.237-.014-.394-.005-.787-.012-1.181-.018a.248.248 0 0 0-.004-.344l-.735-.735 1.441-1.441a.25.25 0 1 0-.354-.354l-1.441 1.441-.68-.68a.25.25 0 1 0-.354.354l.68.68-.861.861a.243.243 0 0 0-.071.183l-.58-.009a.244.244 0 0 0-.01-.33l-.502-.502 1.104-1.104a.25.25 0 1 0-.354-.354l-1.104 1.104-.658-.658a.25.25 0 1 0-.354.354l.658.658-.801.801-.505-.008-.134-.002c-.002-.002-.001-.006-.003-.008l-.581-.581 2.025-2.025a.25.25 0 1 0-.354-.354l-2.025 2.025-.68-.68c-.063-.063-.146-.07-.227-.053l.262-.262a.25.25 0 1 0-.353-.354l-1.618 1.619-.594-.594.563-.563a.25.25 0 1 0-.354-.354l-.599.599c-.082-.02-.168-.013-.231.05-.064.064-.07.15-.051.231l-.855.855-.594-.594.423-.423a.25.25 0 1 0-.354-.354l-.423.423-.049-.049a.25.25 0 1 0-.354.354l.049.049-.594.594-.708-.707.74-.74a.25.25 0 1 0-.354-.354l-1.688 1.688c-.26-.26-.585-.724-.831-.478a.25.25 0 0 0 0 .354l.478.478-.046.046c-13.027-.457-11.351-9.996-7.644-13.272 2.848-2.504 6.499-2.926 23.094-2.336 5.735.205 9.039-.029 11.423 1.308 2.145 1.191 3.473 3.713 3.395 6.285-.012-.023-.009-.05-.028-.069-.061-.061-.141-.07-.22-.056l-.817-.817a.25.25 0 1 0-.354.354l.777.777-.854.854-.413-.413a.25.25 0 1 0-.354.353l.413.413-1.031 1.031a.25.25 0 1 0 .353.354l1.031-1.031.808.808c.038.038.088.048.137.057-.729 1.793-2.141 3.36-3.937 4.313zM18.573 23.543c.374-1.81.947-3.786 1.675-5.64a30.943 30.943 0 0 0 11.898 2.358c.054.899.101 1.797.134 2.692-3.326-.071-10.601-.21-13.707.59zm14.71-.564a116.04 116.04 0 0 0-.137-2.756 30.955 30.955 0 0 0 12.088-2.953 39.704 39.704 0 0 1 1.979 6.343c-1.636-.314-12.93-.607-13.93-.634zm-.19-3.754c-.181-2.774-.814-10.808-1.012-13.238 5.97-.761 10.314 4.89 12.749 10.367a29.94 29.94 0 0 1-11.737 2.871zM31.095 6.176c.159 1.973.808 10.18.997 13.068a30.308 30.308 0 0 1-11.446-2.262c3.005-6.973 7.227-10.016 10.449-10.806zM19.732 16.567a29.599 29.599 0 0 1-5.003-2.861c3.848-3.752 8.375-6.194 13.088-7.235-3.691 2.19-6.369 6.131-8.085 10.096zm32.767 17.31-.753-.753.854-.854.24.24a7.43 7.43 0 0 1-.341 1.367zm-2.216-20.871a29.66 29.66 0 0 1-4.546 2.888c-1.639-3.678-4.023-7.327-7.422-9.424 4.295.961 8.363 3.067 11.968 6.536zm-36.281 1.415a30.684 30.684 0 0 0 5.328 3.073 35.428 35.428 0 0 0-1.836 6.389c-3.96 1.414-5.997 4.735-6.139 8.225a42.058 42.058 0 0 0-4.537.77c-.043-6.853 2.328-13.369 7.184-18.457zM6.848 33.898a40.752 40.752 0 0 1 4.536-.785c.282 3.513 2.552 5.704 5.835 6.815.373 2.468.926 4.791 1.654 6.9.058.167.123.327.183.492a24.357 24.357 0 0 0-4.953 3.977c-4.621-4.895-6.981-10.903-7.255-17.399zm7.954 18.116a23.028 23.028 0 0 1 4.619-3.715c1.711 4.281 4.512 8.615 8.412 11.034-4.911-1.21-9.382-3.722-13.031-7.319zm23.995 7.678c3.264-1.899 6.11-5.648 7.987-10.499 1.807 1.098 3.503 2.286 5.08 3.458-3.514 3.573-8.044 6.099-13.067 7.041zm13.756-7.776c-1.674-1.246-3.484-2.512-5.419-3.677.893-2.548 1.564-5.371 1.929-8.834 2.479-1.405 4.245-3.839 4.715-6.533l5.378-.435c.392 6.979-1.63 14.005-6.603 19.479z" fill="#000000" data-original="#000000" class=""></path><path d="M28.056 28.109c-1.132-.278-.911 4.242-2.193 5.042-.895.554-2.357-.352-2.133-2.505a.5.5 0 0 0-.409-.544c-.817-.142-.633 1.343-.895 2.439-.349 1.463-1.51 1.572-2.098.694-.675-1.007-.066-2.372.407-3.4.276-.602-.634-1.018-.908-.418-2.497 5.415 2.315 6.883 3.453 3.75.876 1.277 3.481 2.201 4.375-1.385l.765-3.067a.5.5 0 0 0-.364-.606zM37.617 28.109a.499.499 0 0 0-.606.364c-.661 2.654-.846 4.216-1.587 4.678-.527.327-1.282.049-1.658-.415-.533-.657-.526-1.592-.475-2.09a.5.5 0 0 0-.981-.176c-.098.383-.14.765-.181 1.134-.035.315-.068.63-.142.937-.349 1.463-1.51 1.572-2.098.694-.674-1.006-.068-2.37.408-3.399.275-.599-.628-1.02-.908-.42-2.498 5.409 2.313 6.887 3.452 3.751.777 1.133 2.206 1.399 3.111.831 1.037-.647 1.142-1.727 2.028-5.283a.5.5 0 0 0-.363-.606zM47.987 28.109c-1.132-.276-.912 4.243-2.193 5.042-.896.556-2.356-.355-2.133-2.505a.5.5 0 0 0-.981-.176c-.282 1.104-.103 2.941-1.212 3.283-.781.232-1.728-.61-1.456-2.121.108-.608.374-1.186.655-1.797.276-.602-.634-1.018-.908-.418-2.501 5.424 2.318 6.885 3.453 3.749.84 1.268 3.481 2.206 4.375-1.384l.765-3.067a.503.503 0 0 0-.365-.606zM50.951 35.527l-1.289-1.289a.25.25 0 1 0-.354.354l1.289 1.289c.234.233.59-.118.354-.354z" fill="#000000" data-original="#000000" class=""></path></g></svg>