<svg xmlns="http://www.w3.org/2000/svg" version="1.1" xmlns:xlink="http://www.w3.org/1999/xlink" xmlns:svgjs="http://svgjs.com/svgjs" width="512" height="512" x="0" y="0" viewBox="0 0 66 66" style="enable-background:new 0 0 512 512" xml:space="preserve" class=""><g><path d="m56.221 1.246-46.145.524c-7.165.081-8.853 2.447-8.893 8.473-.029 4.456-.163 38.219-.163 46.481-.188 5.529 1.455 7.548 7.489 7.606l44.234.423c9.873.091 12.381-3.149 12.246-11.94l-.643-42.965c-.106-7.112-2.509-8.665-8.125-8.602zm-3.468 62.508L8.519 63.33c-5.412-.052-6.672-1.568-6.499-6.581v-.017c0-8.249.134-42.027.163-46.483.035-5.426 1.266-7.405 7.905-7.48l46.145-.523.538-.003c5.257 0 6.491 2.089 6.575 7.62l.644 42.966c.127 8.35-2.032 10.993-11.237 10.925z" fill="#000000" data-original="#000000" class=""></path><path d="M58.772 15.605c-8.51-.045-17.067-.062-25.626-.078-8.557-.016-17.113-.032-25.621-.078-.3-.003-.475.194-.5.45a270.81 270.81 0 0 0-.867 42.67.5.5 0 0 0 .499.471h.006l52.446-.623a.498.498 0 0 0 .493-.473c.757-14.176.643-28.264-.335-41.874a.5.5 0 0 0-.495-.465zm-18.034 1.086-.148-.148.295.001zm-6.343.573-.736-.736 1.469.003zm-3.167-.121-.622-.622 1.241.003zm-2.194-.625-.471.471-.473-.473.944.002zm-2.88-.006-.249.249-.25-.25.499.001zm-2.343-.006-.191.191-.192-.192.383.001zm-2.679-.005-.295.295-.297-.297.592.002zm-7.609 1.503-.72-.72.05-.051a.25.25 0 1 0-.353-.354l-.05.051-.463-.463 1.77.007.649.649zm-2.699.552-.888-.888.673-.673a.25.25 0 1 0-.353-.354l-.673.673-.86-.86 2.554.01.82.82zM7.107 57.57c-.015-.269-.024-.538-.038-.806l.422.422zm-.073-1.548c-.032-.654-.065-1.308-.093-1.962.123.081.225.065.309-.019l.427-.427 1.693 1.693-1.526 1.526zm-.112-2.36c-.011-.281-.029-.561-.039-.842l.44.44zm-.225-10.893.391.391-.385.385c0-.259-.006-.517-.006-.776zm.033-3.658.057.056-.058.058.001-.114zm.452-12.583.361-.361.786.786.002.001-1.236 1.236c.03-.554.054-1.108.087-1.662zm.303-4.413c.059-.765.127-1.528.193-2.292a.248.248 0 0 0 .163-.068l1.077 1.078c.103.103.17.073.262.038L7.711 22.34zm.269-3.154c.074-.837.139-1.674.221-2.509h.038l1.216 1.217-1.384 1.384zm50.875 38.461-51.276.609.491-.491.161.161a.25.25 0 1 0 .353-.354l-.161-.161 2.604-2.604a.25.25 0 1 0-.354-.354l-.725.725-1.691-1.693 2.01-2.011a.249.249 0 0 0 0-.353.249.249 0 0 0-.353 0l-2.011 2.011-.814-.814c-.031-.884-.052-1.77-.074-2.655l.367.367-.259.259a.25.25 0 1 0 .353.354l.259-.259 1.134 1.134a.25.25 0 0 0 .354-.354l-1.134-1.134 2.615-2.616a.25.25 0 1 0-.354-.354l-2.615 2.616-.394-.394a.247.247 0 0 0-.337-.007 290.886 290.886 0 0 1-.054-3.1l.297.297-.058.058a.25.25 0 1 0 .353.354l.058-.058.579.579a.25.25 0 0 0 .354-.354l-.579-.579 1.987-1.986a.25.25 0 1 0-.354-.354l-1.987 1.986-.656-.657c-.004-.441-.009-.882-.011-1.324a.24.24 0 0 0 .341-.005l.394-.394.765.765a.25.25 0 1 0 .353-.353l-.765-.765 1.631-1.631a.25.25 0 1 0-.354-.353l-1.631 1.631-.46-.461c-.078-.079-.191-.077-.286-.028.001-.793.017-1.585.026-2.378l.419-.419L8.32 40.7a.25.25 0 0 0 .354-.354l-1.179-1.179 2.545-2.546a.25.25 0 1 0-.354-.353L7.14 38.814l-.403-.403c.012-.764.027-1.528.046-2.292l.29-.29 1.274 1.274a.25.25 0 0 0 .354-.354l-1.274-1.274 2.406-2.406a.25.25 0 1 0-.354-.353l-2.405 2.405-.252-.252c.02-.678.036-1.356.061-2.034a.247.247 0 0 0 .166-.069l.193-.193.93.93a.25.25 0 1 0 .353-.354l-.93-.93 2.981-2.981a.25.25 0 1 0-.354-.354l-2.981 2.981-.312-.311c.032-.778.076-1.555.115-2.333l.988.987a.25.25 0 0 0 .354-.354L7.26 28.728l2.069-2.07a.25.25 0 1 0-.354-.354l-.291.291-.001.005-.786-.786 2.577-2.577a.25.25 0 1 0-.353-.354L7.543 25.46l-.269-.269c.052-.805.106-1.611.166-2.415l.013.013c.011.04.016.083.048.115s.075.037.115.048l.897.897a.25.25 0 0 0 .354-.354l-.801-.801 2.659-2.659a.25.25 0 1 0-.354-.354l-1.06 1.06c.035-.09.034-.189-.038-.262L8.2 19.405l1.384-1.384c.1.1.935.954 1.058 1.023.107.147.271.13.368.034l1.442-1.442.734.734c-.061.097-.064.22.02.305a.25.25 0 0 0 .354 0l1.201-1.2.807.807a.25.25 0 0 0 .354 0 .249.249 0 0 0 0-.353l-1.453-1.453 2.926.011.233.233-1.065 1.066a.25.25 0 1 0 .354.354l1.065-1.066.754.754a.25.25 0 1 0 .353-.354l-.754-.754.228-.228 1.27.005.653.653-.77.771a.25.25 0 1 0 .353.354l.77-.771.301.301a.25.25 0 0 0 .354-.354l-.304-.301.486-.487a.247.247 0 0 0 .067-.161l.976.002.547.547-.936.936a.25.25 0 1 0 .354.354l.936-.936.163.163a.25.25 0 0 0 .354-.354l-.162-.162.543-.543.43.001.605.605-1.007 1.007a.25.25 0 1 0 .353.353l1.007-1.007.077.077a.25.25 0 1 0 .353-.354l-.077-.077.456-.456a.24.24 0 0 0 .06-.145l.606.001.828.828-.645.645a.25.25 0 1 0 .354.354l.645-.645.109.109a.25.25 0 1 0 .353-.354l-.109-.109.823-.823h.158l.977.977-.692.692a.249.249 0 0 0 0 .353.25.25 0 0 0 .354 0l2.017-2.017.398.001 1.091 1.091-.571.572a.249.249 0 0 0 0 .353.25.25 0 0 0 .354 0l.723-.723c.011-.008.026-.005.036-.015s.007-.025.015-.036l1.074-1.074.575.575a.25.25 0 0 0 .354-.354l-.383-.382 1.601.003.094.094-1.288 1.289a.25.25 0 1 0 .354.354l1.288-1.289.508.509a.25.25 0 0 0 .354-.354l-.508-.509.092-.092 1.17.003.503.503-1.01 1.01a.249.249 0 0 0 0 .353.25.25 0 0 0 .354 0l1.026-1.026c.101.06.196.079.299-.023.082-.083.08-.203.023-.299l.515-.515.559.001.339.34-.631.632a.25.25 0 1 0 .354.353l.631-.631.085.085a.25.25 0 0 0 .354-.354l-.085-.085.336-.336c4.933.012 9.86.027 14.77.053.932 13.277 1.042 27.006.323 40.821zM13.458 11.956c1.746-1.612 1.194-4.555-.992-5.511a3.438 3.438 0 0 0-3.645.601c-.932.85-1.267 1.999-.918 3.151.672 2.223 3.664 3.512 5.555 1.759zm-3.926-.997a2.583 2.583 0 0 1-.435-.561l.498.498zm2.534-3.598c1.498.656 1.949 2.721.714 3.861-.713.66-1.767.798-2.858.054l.027-.027.069.069a.25.25 0 0 0 .354-.354l-.069-.069.726-.726a.25.25 0 1 0-.353-.354l-.726.726-1.174-1.17a1.903 1.903 0 0 1 .293-1.068l.501.502-.005.006a.25.25 0 1 0 .353.354l.006-.006.55.55a.25.25 0 0 0 .354 0 .249.249 0 0 0 0-.353l-.55-.55.716-.716.278.278-.273.272a.25.25 0 1 0 .354.354l.273-.273.322.322a.25.25 0 1 0 .353-.353l-.322-.322.422-.422a.249.249 0 0 0 0-.353.249.249 0 0 0-.353 0l-.422.422-.813-.812a2.37 2.37 0 0 1 1.253.158zm-1.813-.012.387.387-.716.716-.539-.539c.04-.042.066-.088.11-.128a2.32 2.32 0 0 1 .758-.436zM19.773 12.745c1.887.294 3.587-1.245 3.576-3.214a3.438 3.438 0 0 0-2.031-3.086 3.436 3.436 0 0 0-3.644.601c-.932.85-1.267 1.999-.918 3.151.394 1.307 1.606 2.331 3.017 2.548zm-2.061-2.837a2.03 2.03 0 0 1-.074-.474l.635.635-.326.326c-.09-.157-.183-.314-.235-.487zm4.637-.372c.006 1.402-1.188 2.41-2.424 2.221a2.82 2.82 0 0 1-1.682-.952l.382-.382.267.267a.25.25 0 0 0 .354-.354l-.267-.267.376-.376a.25.25 0 1 0-.354-.354l-.376.376-.928-.929c.106-.364.323-.704.649-1.002.017-.016.04-.023.058-.039l.232.232-.225.225a.25.25 0 1 0 .354.354l.225-.225.898.898a.25.25 0 0 0 .354-.354l-.898-.898.29-.29a.249.249 0 0 0 0-.353.249.249 0 0 0-.353 0l-.29.29-.161-.16c.256-.134.532-.224.819-.262.012.022.009.048.027.066l.783.783-.321.322a.25.25 0 0 0 .178.427.249.249 0 0 0 .177-.073l.321-.322.493.493a.25.25 0 0 0 .354-.354l-.493-.493.179-.179a.238.238 0 0 0 .064-.198c.562.448.933 1.144.938 1.862zm-1.252-2.06c-.037.012-.076.015-.105.044l-.179.179-.496-.496c.206.029.409.076.6.159.066.028.118.079.18.114z" fill="#000000" data-original="#000000" class=""></path><path d="M25.085 32.318a.5.5 0 0 0-.639.303l-1.865 5.225c-.806 2.259-1.862 1.388-2.061.112-.162-1.028-.401-2.171-.95-2.846a.5.5 0 0 0-.882.236c-.39 2.427-.46 3.372-.807 3.986-.444.788-1.238.88-1.767.069-.38-.584-.533-1.523-1.375-4.869a.5.5 0 1 0-.97.244c.862 3.421 1.009 4.404 1.508 5.17.94 1.448 2.669 1.312 3.476-.124.401-.711.501-1.691.635-2.521.067.319.113.612.145.809.378 2.418 2.865 3.234 3.991.069l1.865-5.225a.5.5 0 0 0-.304-.638zM38.395 32.318a.5.5 0 0 0-.639.303l-1.865 5.225c-.816 2.287-1.866 1.361-2.062.112-.162-1.028-.401-2.171-.95-2.846a.501.501 0 0 0-.882.236l-.408 2.542c-.081.506-.164 1.029-.398 1.445-.444.788-1.237.88-1.767.069-.38-.584-.533-1.523-1.375-4.869a.5.5 0 1 0-.971.244c.862 3.422 1.009 4.404 1.508 5.17.94 1.448 2.669 1.312 3.476-.124.322-.571.425-1.212.515-1.776l.12-.745c.067.319.113.612.145.809.378 2.417 2.865 3.235 3.991.069l1.865-5.225a.5.5 0 0 0-.303-.639zM51.91 32.317a.502.502 0 0 0-.639.303l-1.864 5.225c-.702 1.967-1.81 1.731-2.063.113-.16-1.027-.398-2.169-.95-2.846a.501.501 0 0 0-.882.236l-.407 2.542c-.081.506-.164 1.029-.398 1.445-.44.782-1.235.887-1.767.068-.379-.581-.52-1.472-1.375-4.868a.5.5 0 1 0-.97.244c.863 3.43 1.008 4.405 1.508 5.17.94 1.448 2.669 1.312 3.476-.124.322-.571.425-1.212.516-1.777l.119-.745c.067.32.113.613.144.809.376 2.393 2.849 3.269 3.992.069l1.864-5.225a.501.501 0 0 0-.304-.639zM26.112 8.828c-.075.443-.051.905.089 1.369.671 2.223 3.663 3.512 5.555 1.759 1.746-1.612 1.194-4.555-.992-5.511a3.436 3.436 0 0 0-3.644.601c-.44.401-.741.87-.906 1.374-.039.011-.08.015-.11.046a.249.249 0 0 0 0 .353zm1.04 1.041.844.844-.204.204c-.284-.291-.518-.626-.634-1.009-.004-.013-.002-.026-.006-.039zm1.994-2.403a.245.245 0 0 0-.332.009l-.527.527-.327-.327c.283-.214.607-.366.956-.439zm-1.552.551.339.339-.588.588a.249.249 0 0 0 0 .353.25.25 0 0 0 .354 0l.588-.588.7.7a.25.25 0 0 0 .354-.354l-.7-.7.527-.527a.246.246 0 0 0 .009-.332l.493.492-.51.509a.25.25 0 1 0 .353.353l.508-.508.513.513a.25.25 0 1 0 .353-.353l-.513-.513.014-.014a.25.25 0 1 0-.354-.353l-.014.014-.446-.446c.271.016.539.063.788.172 1.498.656 1.949 2.721.714 3.861-.736.681-1.829.79-2.906.024l.179-.179.094.094a.25.25 0 0 0 .354 0 .249.249 0 0 0 0-.353l-.094-.094.611-.611a.25.25 0 1 0-.354-.354l-.61.61-1.251-1.251a1.99 1.99 0 0 1 .495-1.092z" fill="#000000" data-original="#000000" class=""></path></g></svg>