<?xml version="1.0" encoding="utf-8"?>
<!-- Generator: Adobe Illustrator 16.0.0, SVG Export Plug-In . SVG Version: 6.00 Build 0)  -->
<!DOCTYPE svg PUBLIC "-//W3C//DTD SVG 1.1//EN" "http://www.w3.org/Graphics/SVG/1.1/DTD/svg11.dtd">
<svg version="1.1" id="Layer_1" xmlns="http://www.w3.org/2000/svg" xmlns:xlink="http://www.w3.org/1999/xlink" x="0px" y="0px"
	 width="640px" height="640px" viewBox="0 0 640 640" enable-background="new 0 0 640 640" xml:space="preserve">
<path fill="#92E3A9" d="M552.905,78.651c0,0-58.104-54.963-144.475-39.259c-86.37,15.705-127.201,84.801-179.023,128.771
	c-28.267,23.556-65.957,29.836-97.363,47.111C31.541,270.237,31.541,408.431,99.066,466.533
	c58.104,48.684,138.193,59.676,243.408,32.979c105.217-26.696,182.164-40.828,255.972-131.911
	C672.255,276.519,625.143,152.459,552.905,78.651z"/>
<path opacity="0.75" fill="#FFFFFF" enable-background="new    " d="M552.905,78.651c0,0-58.104-54.963-144.475-39.259
	c-86.37,15.705-127.201,84.801-179.023,128.771c-28.267,23.556-65.957,29.836-97.363,47.111
	C31.541,270.237,31.541,408.431,99.066,466.533c58.104,48.684,138.193,59.676,243.408,32.979
	c105.217-26.696,182.164-40.828,255.972-131.911C672.255,276.519,625.143,152.459,552.905,78.651z"/>
<path fill="#92E3A9" d="M584.313,218.414c-9.422-4.71-12.563-1.569-15.703-4.71c-3.142-3.141,7.852-12.563-14.134-23.556
	c0,0-1.57-20.415-31.407-20.415c-29.838,0-21.986,20.415-29.838,25.126c-7.853,4.711-10.992-3.141-18.843,3.14
	c-7.854,6.282-4.712,15.704-10.993,15.704s-15.703-6.282-23.557,0c-7.853,6.281-7.853,9.422-10.991,9.422
	c-3.144,0-10.993-3.141-15.705,0l-9.424,6.283h185.305C589.022,229.408,592.165,223.125,584.313,218.414z"/>
<g opacity="0.5">
	<path fill="#FFFFFF" d="M584.313,218.414c-9.422-4.71-12.563-1.569-15.703-4.71c-3.142-3.141,7.852-12.563-14.134-23.556
		c0,0-1.57-20.415-31.407-20.415c-29.838,0-21.986,20.415-29.838,25.126c-7.853,4.711-10.992-3.141-18.843,3.14
		c-7.854,6.282-4.712,15.704-10.993,15.704s-15.703-6.282-23.557,0c-7.853,6.281-7.853,9.422-10.991,9.422
		c-3.144,0-10.993-3.141-15.705,0l-9.424,6.283h185.305C589.022,229.408,592.165,223.125,584.313,218.414z"/>
</g>
<path fill="#92E3A9" d="M461.822,439.838c-12.563-7.853-18.844-1.571-23.555-7.853c-4.711-6.28,14.134-20.414-21.985-36.117
	c0,0-3.141-32.979-51.822-34.549c-48.682-1.571-34.548,32.978-48.682,40.829c-14.134,7.853-15.704-4.711-29.837,4.712
	c-14.133,9.422-6.281,25.125-17.274,26.694c-10.993,1.573-25.125-10.991-37.689-3.138c-12.563,7.85-14.133,15.703-18.844,15.703
	s-18.844-4.711-25.125,0l-15.704,10.991h299.94C471.244,457.111,475.957,446.12,461.822,439.838z"/>
<g opacity="0.5">
	<path fill="#FFFFFF" d="M461.822,439.838c-12.563-7.853-18.844-1.571-23.555-7.853c-4.711-6.28,14.134-20.414-21.985-36.117
		c0,0-3.141-32.979-51.822-34.549c-48.682-1.571-34.548,32.978-48.682,40.829c-14.134,7.853-15.704-4.711-29.837,4.712
		c-14.133,9.422-6.281,25.125-17.274,26.694c-10.993,1.573-25.125-10.991-37.689-3.138c-12.563,7.85-14.133,15.703-18.844,15.703
		s-18.844-4.711-25.125,0l-15.704,10.991h299.94C471.244,457.111,475.957,446.12,461.822,439.838z"/>
</g>
<path fill="#92E3A9" d="M172.874,301.645l-7.851-3.141c-1.572-1.571,3.14-7.852-7.852-12.563c0,0-1.571-10.992-17.274-10.992
	c-15.704,0-12.564,10.992-17.275,14.134c-4.711,3.141-6.281-1.571-10.993,0c-4.71,1.569-1.57,9.421-4.71,9.421
	c-3.141,0-9.422-3.141-14.133,0l-6.282,4.711h-7.852l-6.281,4.711h103.645C176.015,307.926,177.584,303.215,172.874,301.645z"/>
<g opacity="0.5">
	<path fill="#FFFFFF" d="M172.874,301.645l-7.851-3.141c-1.572-1.571,3.14-7.852-7.852-12.563c0,0-1.571-10.992-17.274-10.992
		c-15.704,0-12.564,10.992-17.275,14.134c-4.711,3.141-6.281-1.571-10.993,0c-4.71,1.569-1.57,9.421-4.71,9.421
		c-3.141,0-9.422-3.141-14.133,0l-6.282,4.711h-7.852l-6.281,4.711h103.645C176.015,307.926,177.584,303.215,172.874,301.645z"/>
</g>
<path fill="#263238" stroke="#263238" stroke-linecap="round" stroke-linejoin="round" d="M196.43,540.343
	c0,0,12.563-23.557,3.14-39.261c-9.422-15.702-18.845-1.57-34.548-20.414c-15.704-18.845-14.134-40.83-26.698-42.401
	c-12.563-1.568-20.414,3.143-29.836,0c-9.422-3.139,1.571-31.406-18.844-37.687c-20.416-6.283-32.978,9.421-45.542-4.712
	c-12.563-14.135-34.548-21.985-36.119-14.135c-1.571,7.853,17.274,6.283,23.556,17.273c6.281,10.994,25.126,29.838,25.126,50.253
	c0,20.416,17.273,9.424,29.836,15.705c12.563,6.28,12.563,17.272,14.134,32.977c1.57,15.704,28.267,0,32.977,7.852
	c4.711,7.853-6.281,9.424-3.14,25.128c3.14,15.703,34.549,18.844,34.549,18.844"/>
<path fill="none" stroke="#FFFFFF" stroke-linecap="round" stroke-linejoin="round" d="M176.015,543.482
	c0,0-21.985-51.821-54.963-84.799c-32.978-32.979-54.963-34.549-69.096-45.542"/>
<path fill="none" stroke="#FFFFFF" stroke-linecap="round" stroke-linejoin="round" d="M70.799,446.12l26.697-6.282l-10.994-23.556
	 M116.34,482.237l21.984-1.569l-1.569-18.845 M150.889,524.639l17.274,3.141l3.141-26.697"/>
<path fill="#92E3A9" d="M108.488,373.883c0,0-7.852,1.57-17.275-20.416c-7.851-17.273,1.572-31.407,6.283-36.119
	c0.485-0.281,1.083-0.281,1.57,0c3.14,4.711,12.563,21.986,14.133,31.409C113.2,359.748,108.488,373.883,108.488,373.883z
	 M194.859,449.26c0,0-4.711-4.712-6.281-14.132c-1.57-9.423,7.853-28.268,12.563-25.127c4.71,3.141,6.281,23.554,4.71,31.408
	C204.282,449.26,194.859,449.26,194.859,449.26z M223.125,483.808c0,0-4.711-4.711-6.281-15.703
	c-1.571-10.993,6.281-28.267,10.994-25.127c4.71,3.143,6.281,23.556,4.71,31.407C230.978,482.237,223.125,483.808,223.125,483.808z
	 M237.259,505.793c0,0-1.57-6.281,1.571-15.703c3.14-9.422,20.415-21.985,23.555-17.274c3.141,4.712-6.281,25.126-12.563,29.837
	C243.542,507.364,237.259,505.793,237.259,505.793z M199.57,472.815c0,0-4.711,4.712-14.133,6.281
	c-9.422,1.571-28.267-9.421-25.126-14.132c3.14-4.712,23.555-4.712,31.408-3.142C199.57,463.393,199.57,472.815,199.57,472.815z
	 M223.125,508.934c0,0-4.711,4.712-15.703,4.712s-28.267-7.853-25.126-12.563s25.126-4.711,32.977-3.141
	C223.125,499.512,223.125,508.934,223.125,508.934z M160.311,411.571c0,0-6.282,0-9.422-14.134
	c-3.141-14.133,3.141-28.268,6.282-25.126c3.141,3.142,10.992,20.415,9.422,28.269C165.022,408.431,160.311,411.571,160.311,411.571
	z M125.762,408.431c-1.263-5.797-5.414-10.542-10.992-12.563c-9.423-4.713-26.697,0-26.697,3.139c0,3.142,7.853,9.424,20.415,12.564
	C121.051,414.712,125.762,408.431,125.762,408.431z M168.163,444.548c0,0-1.57-4.71-12.563-10.993
	c-10.992-6.28-23.555-3.138-23.555,0c0,3.144,12.563,7.854,21.985,10.993C163.451,447.689,168.163,444.548,168.163,444.548z
	 M124.192,386.444c0,0-4.711-4.711-6.282-14.133s7.852-29.837,12.563-26.695c4.712,3.141,6.282,25.125,3.14,31.407
	C130.474,383.305,124.192,386.444,124.192,386.444z"/>
<path fill="none" stroke="#263238" stroke-linecap="round" stroke-linejoin="round" d="M235.689,532.489
	c0,0,6.281-15.703-23.556-53.393c-29.837-37.688-102.074-78.517-111.497-125.63 M139.896,410.001l-32.978-7.853 M161.881,430.417
	l-4.711-36.12 M185.437,450.831l-36.118-12.564 M124.192,394.297l1.57-26.696 M194.859,458.684l1.571-28.267 M223.125,491.661
	l1.571-26.696 M232.548,513.646l15.704-23.556 M208.993,474.385l-28.268-3.14 M230.978,508.934l-26.696-3.141"/>
<path fill="#263238" stroke="#263238" stroke-linecap="round" stroke-linejoin="round" d="M537.202,543.482
	c0,0,17.273-12.562,17.273-28.266c0-15.705-14.134-7.853-18.845-26.697c-4.712-18.844,4.711-36.118-4.712-42.399
	c-9.421-6.282-15.702-4.711-21.984-10.992c-6.281-6.283,12.563-21.986,0-34.548c-12.563-12.563-26.696-4.712-31.408-20.416
	c-4.711-15.705-18.844-28.269-21.985-23.556c-3.14,4.711,9.423,10.992,10.992,21.984c1.571,10.993,7.854,31.408,0,45.542
	c-7.851,14.132,9.424,14.132,17.276,23.555c7.851,9.422,3.142,17.275-3.142,28.269c-6.28,10.992,21.985,10.992,21.985,18.844
	c0,7.851-6.282,4.71-10.993,18.844c-4.709,14.134,18.845,25.126,18.845,25.126"/>
<path fill="none" stroke="#FFFFFF" stroke-linecap="round" stroke-linejoin="round" d="M521.498,538.771
	c0,0,1.57-47.11-10.993-83.229c-12.563-36.118-28.267-45.541-32.979-59.674"/>
<path fill="none" stroke="#FFFFFF" stroke-linecap="round" stroke-linejoin="round" d="M479.098,427.274l20.415,4.711l1.569-21.984
	 M499.513,471.245l17.273,6.282l4.712-14.135 M508.935,515.217l12.563,9.422l10.992-18.846"/>
<path fill="#92E3A9" d="M560.756,397.438c-6.28-6.282-4.711-14.133-3.14-23.555c3.14-7.853,12.563-18.844,21.985-20.416l1.57,1.572
	c0,7.851-3.141,18.844-6.281,26.694C571.749,389.586,567.039,391.155,560.756,397.438z M585.883,483.808
	c-1.57-4.711,0-9.423,1.572-14.132c1.567-4.711,14.132-18.845,18.842-12.564c4.71,6.281-6.281,18.847-9.421,23.557
	C593.735,485.38,590.595,483.808,585.883,483.808z M592.165,518.356c-1.57-4.711,0-9.423,1.57-12.563s14.133-18.843,18.844-14.132
	c4.712,4.71-6.282,20.414-9.422,25.125C600.016,521.497,595.306,519.928,592.165,518.356z M592.165,540.343
	c0-4.712,4.711-7.854,7.851-9.422c3.142-1.572,21.986-9.424,21.986-1.572c0,7.853-14.134,12.563-20.415,14.134
	C595.306,545.054,595.306,543.482,592.165,540.343z M579.602,501.082c-4.711,1.57-9.423,0-12.563-1.57
	c-3.141-1.57-17.275-15.704-12.563-18.844c4.712-3.141,20.415,6.282,23.556,9.422C581.172,493.231,581.172,497.941,579.602,501.082z
	 M581.172,535.631c-4.711,1.57-9.423,0-14.133-1.57c-4.712-1.571-17.275-17.274-10.994-20.415
	c6.282-3.141,18.846,7.852,23.557,10.993C584.313,527.779,581.172,532.489,581.172,535.631z M578.031,444.548
	c-4.711-1.57-1.57-10.993,0-14.131c1.57-3.143,12.563-20.416,15.704-14.135s-3.141,20.416-6.28,23.556L578.031,444.548z
	 M556.045,427.274c3.143-3.14,1.571-9.422-1.569-12.563s-14.134-14.132-18.845-10.993c-4.712,3.142,4.711,14.134,7.851,17.273
	C546.623,424.135,551.335,428.845,556.045,427.274z M568.609,468.104c1.569-3.14-1.57-9.421-3.142-10.993
	c-1.569-1.569-14.133-15.702-15.704-10.991c-1.569,4.711,6.281,14.133,9.424,17.272
	C562.327,466.533,565.468,469.676,568.609,468.104z M565.468,413.142l3.142-12.562c1.569-3.143,15.703-18.847,18.846-12.563
	c3.14,6.28-7.854,18.844-10.994,23.555S570.179,413.142,565.468,413.142z"/>
<path fill="none" stroke="#263238" stroke-linecap="round" stroke-linejoin="round" d="M578.031,559.187
	c9.424-21.985,10.991-21.985,7.852-51.822c-3.141-29.837-37.688-89.512-20.415-127.2 M563.898,435.128l-18.845-20.416
	 M570.179,457.111l14.134-26.694 M578.031,479.097l-18.844-21.985 M560.756,417.853l14.135-17.272 M582.742,488.52l12.563-18.844
	 M587.455,524.639l12.561-18.846 M585.883,543.482l20.414-9.422 M585.883,505.793l-18.844-14.132 M585.883,540.343l-17.273-14.134"
	/>
<path fill="none" stroke="#263238" stroke-linecap="round" stroke-linejoin="round" d="M89.645,579.603
	c0,0,251.26-135.055,538.638,0"/>
<path fill="#92E3A9" d="M447.691,532.489c0,6.282-36.12,10.993-78.52,10.993c-42.401,0-80.089-4.711-80.089-10.993
	c0-6.28,36.118-10.992,80.089-10.992C413.142,521.497,447.691,526.209,447.691,532.489z"/>
<path opacity="0.5" fill="#FFFFFF" enable-background="new    " d="M447.691,532.489c0,6.282-36.12,10.993-78.52,10.993
	c-42.401,0-80.089-4.711-80.089-10.993c0-6.28,36.118-10.992,80.089-10.992C413.142,521.497,447.691,526.209,447.691,532.489z"/>
<path fill="#263238" d="M384.874,179.155c7.853-1.57,14.134-4.711,12.564-10.992c-1.57-6.282-9.422-12.564-10.995-17.274
	c-1.569-4.711,6.283-9.423,4.713-17.274c-1.57-7.852-9.424-15.704-15.704-14.134c0,0-1.57,3.141-3.14-3.14
	c-1.571-6.281-4.712-10.993-12.563-9.422c-7.853,3.142-7.853,7.852-9.423,7.852c-6.447,2.796-12.738,5.941-18.846,9.423
	c-4.71,3.141-6.28,14.133-7.851,17.273c-1.569,3.142-3.142,4.712-7.852,3.142c-4.711-1.57-7.853-1.57-9.422,3.141l-3.142,7.851
	c-1.57,0-6.281-4.71-9.422-1.57c-3.141,3.141-6.281,10.993-10.992,9.422s-9.423-10.993-17.274-7.853
	c-7.852,3.141-9.422,12.564-6.281,14.134c3.141,1.57,4.711,4.711,3.141,7.852c-1.57,3.14-9.422,0-10.993,4.711
	c-1.57,4.71,3.141,10.992,3.141,12.563c0,1.57-1.57,6.281-6.282,7.852c-4.71,1.571-9.422,6.281-6.282,7.852
	c3.141,1.571,3.141,0,4.711-1.571c1.57-1.57,3.141-3.14,6.282-1.57c3.141,1.57,4.71-1.57,4.71-1.57s0,4.71,3.141,6.281
	c3.141,1.57,4.711,4.711,0,4.711s-6.281,7.852-3.141,10.992c3.141,3.141,7.852,6.281,15.703,3.141
	c7.853-3.141,26.698-15.704,37.69-7.853c10.993,7.853,32.979,6.283,42.4,3.141c9.422-3.141,14.133-15.704,21.984-17.274
	c7.853-1.57,4.713-6.281,4.713-10.992C380.165,193.289,377.022,180.725,384.874,179.155z M391.156,171.303
	c0.755-0.916,1.291-1.988,1.57-3.14c1.639,0.573,2.498,2.366,1.924,4.003c-0.088,0.249-0.206,0.487-0.354,0.707
	c-1.57,3.14-6.28,1.571-6.28,1.571L391.156,171.303z M271.808,165.022c-1.571,0-4.711,6.281-6.282,4.711
	c-1.57-1.57,1.571-10.993,4.711-10.993s9.423,7.852,9.423,7.852C278.089,168.163,273.377,165.022,271.808,165.022z M359.749,114.77
	c-1.74-0.414-3.565,0.195-4.712,1.571c-0.148-2.597,1.833-4.826,4.431-4.976c0.629-0.037,1.259,0.054,1.852,0.264
	c3.141,0,3.141,4.711,3.141,4.711C362.928,115.709,361.352,115.185,359.749,114.77z"/>
<path fill="#263238" stroke="#263238" stroke-linecap="round" stroke-linejoin="round" d="M182.296,337.764l23.555-12.563
	c0.682,3.104,0.682,6.319,0,9.422c-1.569,6.282-3.14,12.563-7.852,12.563C193.289,347.186,182.296,337.764,182.296,337.764z
	 M260.815,378.593l10.993-25.126c1.569-3.14,14.133-3.14,12.563,7.853c-1.57,10.992-9.422,15.704-14.134,17.273
	C267.118,379.121,263.934,379.121,260.815,378.593z M150.889,248.252c-2.621,2.755-4.747,5.943-6.281,9.422l-4.711,10.992
	c0,0,25.126-21.984,39.259-21.984l17.274-1.571c0,0-17.274-7.851-26.697-4.71c-6.14,1.679-11.972,4.33-17.274,7.852H150.889z"/>
<path fill="#92E3A9" stroke="#263238" stroke-linecap="round" stroke-linejoin="round" d="M333.053,212.133l-65.956,14.133
	c-32.978,6.282-64.386,0-83.23,4.712c-18.844,4.711-32.978,17.274-32.978,17.274s17.274-9.422,28.267-1.57
	c10.992,7.852,9.422,15.703,3.141,26.695c-6.282,10.994-14.134,26.697-3.141,32.979c10.992,6.28,21.985,26.695,21.985,31.407
	l-1.571,4.711l-17.274-4.711c0,0,9.422,21.984,31.408,25.126c21.985,3.141,34.548-6.281,48.681-4.711
	c14.134,1.569,12.563,12.563,12.563,12.563s-12.563,4.712-14.134,7.852c-1.57,3.141,3.141,4.712,20.415,1.571
	s23.556-17.274,31.407-9.423c7.851,7.852,12.563,15.703,20.416,15.703c7.852,0,14.133-10.991,25.125-34.549
	c10.994-23.554,48.684-56.532,50.253-84.799c1.569-28.267-14.134-62.815-14.134-62.815L333.053,212.133z"/>
<path fill="none" stroke="#263238" stroke-linecap="round" stroke-linejoin="round" d="M322.061,223.125
	c0,0-23.557,6.283-43.971,18.845c-20.416,12.563-58.104,15.704-67.526,20.414c-5.501,2.046-10.766,4.678-15.704,7.853
	 M199.57,342.475c7.741-7.772,14.112-16.8,18.844-26.696c9.04-19.633,23.825-36.061,42.4-47.112
	c20.415-10.992,31.408-10.992,48.681-23.556 M274.949,370.741c0,0,14.134-47.111,25.126-62.815"/>
<path fill="#D9D9D9" stroke="#263238" stroke-linecap="round" stroke-linejoin="round" d="M314.208,479.097
	c-1.48,9.898-4.667,19.463-9.422,28.268c-7.852,14.133-9.422,17.274-12.563,18.845c-3.14,1.57-6.281,4.712-1.571,6.28h18.844
	c3.141-1.568,4.712-4.71,6.282-10.992c0.594-3.19,3.091-5.688,6.282-6.28v17.272h3.14l1.57-14.133l1.571-9.423
	c0-3.141-4.712-7.852-4.712-7.852l4.712-20.414L314.208,479.097z"/>
<path fill="#263238" stroke="#263238" stroke-linecap="round" stroke-linejoin="round" d="M325.2,532.489l1.57-14.133l1.571-9.423
	c0-3.141-3.142-6.281-4.712-6.281l-12.563,20.416c-4.676,3.023-10.522,3.608-15.704,1.57h-1.571c-0.459,0.583-0.986,1.11-1.57,1.57
	c-1.571,1.57-6.281,4.712-1.571,6.28h18.844c3.141-1.568,4.712-4.71,6.282-10.992c0.594-3.19,3.091-5.688,6.282-6.28v17.272H325.2z"
	/>
<path fill="#D9D9D9" stroke="#263238" stroke-linecap="round" stroke-linejoin="round" d="M431.985,482.237
	c1.651,9.356,4.835,18.375,9.424,26.696l10.992,21.987c1.569,1.568,6.281,3.14,1.569,4.71c-4.711,1.57-15.703,0-18.844-1.57
	c-3.142-1.571-4.711-4.712-6.28-9.422c0.274-3.357-1.621-6.517-4.712-7.853l-1.57,17.274h-3.142v-14.133l-1.569-9.423
	c0-3.141,4.711-6.28,4.711-6.28l-4.711-21.987H431.985z"/>
<path fill="#263238" stroke="#263238" stroke-linecap="round" stroke-linejoin="round" d="M419.423,534.061v-14.133l-1.569-9.423
	c0-3.141,3.139-4.712,4.711-6.28c3.139,4.709,6.282,15.703,12.563,20.414c3.757,3.625,8.952,5.355,14.133,4.71l1.57-1.569
	c0.323,1.137,0.854,2.201,1.571,3.142c1.569,1.568,6.281,3.14,1.569,4.71c-4.711,1.57-15.703,0-18.844-1.57
	c-3.142-1.571-4.711-4.712-6.28-9.422c0.274-3.357-1.621-6.517-4.712-7.853l-1.57,17.274H419.423z M348.757,279.659
	c0,0-21.986,50.25-25.127,69.098l-12.563,135.051l20.413,1.572l31.409-133.484l6.282-25.125l47.11,163.319l18.845-1.57
	c0,0-18.845-122.489-26.696-152.326c-4.964-19.259-11.26-38.149-18.845-56.534H348.757z"/>
<path fill="#D9D9D9" stroke="#263238" stroke-linecap="round" stroke-linejoin="round" d="M358.178,172.874V198
	c0,3.141-26.697,10.992-26.697,10.992l17.276,70.667h40.829l12.564-76.948L378.594,198v-17.274
	C378.594,180.725,364.46,179.155,358.178,172.874z"/>
<path fill="#FFFFFF" stroke="#263238" stroke-linecap="round" stroke-linejoin="round" d="M386.443,199.571
	c-1.569,6.281-7.85,23.555-20.413,21.985c-10.993-1.571-17.273-12.564-20.415-17.274l-14.135,4.71l17.276,70.667h40.829
	l12.564-76.948L386.443,199.571z"/>
<path fill="#707070" stroke="#263238" stroke-linecap="round" stroke-linejoin="round" d="M350.326,201.14l7.852,53.394
	l1.571,34.549l-17.274,69.096l-29.837-12.563l29.837-67.527L325.2,212.133L350.326,201.14z"/>
<path fill="none" stroke="#263238" stroke-linecap="round" stroke-linejoin="round" d="M345.615,202.711l-3.141,26.697l6.282,4.71
	l-4.711,7.853l15.703,40.83l-1.571-32.978l-7.852-48.682L345.615,202.711z"/>
<path fill="#707070" stroke="#263238" stroke-linecap="round" stroke-linejoin="round" d="M381.732,199.571l-4.71,86.37
	l23.556,72.238l23.557-7.852l-29.838-73.809l14.134-72.237L381.732,199.571z"/>
<path fill="#707070" stroke="#263238" stroke-linecap="round" stroke-linejoin="round" d="M388.017,201.14l3.14,29.838l-7.852,3.14
	l7.852,6.282l-14.134,45.54l4.71-86.37L388.017,201.14z"/>
<path fill="#D9D9D9" stroke="#263238" stroke-linecap="round" stroke-linejoin="round" d="M381.732,141.465
	c0.066-0.52,0.066-1.048,0-1.569c0-1.57-1.567-4.711-6.28-3.141l-12.563,9.422c-1.568,0.107-3.143,0.107-4.712,0
	c0,0-6.281,14.134-9.421,15.704c-1.856,1.465-3.996,2.535-6.282,3.141c0,0,1.571,9.422,3.141,10.992
	c1.511,0.612,3.202,0.612,4.711,0c0,0,7.852,7.852,12.563,10.993c4.711,3.141,10.992,3.141,14.133,1.571
	c3.143-1.571,10.994-10.993,10.994-15.705l-3.143-23.555C385.128,146.352,383.963,143.44,381.732,141.465z"/>
<path fill="#FFFFFF" d="M364.46,136.755v3.141c-0.907,1.177-1.963,2.233-3.141,3.141c0,0,4.711,0,7.853-4.711
	C372.313,133.614,367.601,133.614,364.46,136.755z"/>
<path fill="#263238" d="M366.03,155.599v3.141l-3.141-3.141c-1.57-1.57,1.57-3.14,1.57-3.14L366.03,155.599z M380.165,154.029
	l-1.571,1.57l-1.571-1.57l1.571-3.141L380.165,154.029z"/>
<path fill="none" stroke="#263238" stroke-linecap="round" stroke-linejoin="round" d="M361.319,150.889l6.281-1.57
	 M375.452,147.748c0,0,1.57-4.711,4.713-3.141 M373.882,169.733c0,0-7.852,1.57-10.992-3.141 M375.452,158.74
	c0,0,1.57,4.711-3.14,4.711"/>
<path fill="#D9D9D9" stroke="#263238" stroke-linecap="round" stroke-linejoin="round" d="M413.142,290.652
	c0,0-14.134,9.422-14.134,12.563l3.143,7.851l3.14,3.142c0,0,7.852-1.572,7.852-4.711l-1.57-3.141l6.282-9.423L413.142,290.652z"/>
<path fill="none" stroke="#263238" stroke-linecap="round" stroke-linejoin="round" d="M411.571,306.356l-3.141,3.141"/>
<path fill="#707070" stroke="#263238" stroke-linecap="round" stroke-linejoin="round" d="M400.578,227.837l32.979,32.978
	L410,290.652l7.854,7.852c0,0,36.117-37.689,36.117-40.83s-40.829-50.252-42.399-51.822l-7.854-1.57"/>
<path fill="#D9D9D9" stroke="#263238" stroke-linecap="round" stroke-linejoin="round" d="M325.2,289.083l15.704,10.992
	c1.57,1.57-3.141,6.282-3.141,7.852l-3.14,3.14c0,0-6.282,0-6.282-3.14v-3.141l-6.281-9.422L325.2,289.083z"/>
<path fill="none" stroke="#263238" stroke-linecap="round" stroke-linejoin="round" d="M328.342,304.785l3.139,3.141"/>
<path fill="#707070" stroke="#263238" stroke-linecap="round" stroke-linejoin="round" d="M336.192,230.978l-32.978,29.837
	l25.127,28.268l-6.281,7.851c0,0-39.26-32.977-39.26-36.118c0-3.141,40.83-50.252,43.97-51.823l7.854-3.14"/>
<path fill="#92E3A9" stroke="#263238" stroke-linecap="round" stroke-linejoin="round" d="M353.468,215.274l3.141-15.703
	c-1.571-4.711-6.282-1.571-9.423-1.571c-3.14,0-9.422,7.853-9.422,7.853l10.993-1.57L353.468,215.274z M378.594,198l3.139,18.845
	l4.711-10.993c1.609-2.53,3.754-4.674,6.283-6.281C392.727,199.571,384.874,196.429,378.594,198z"/>
</svg>
