<svg xmlns="http://www.w3.org/2000/svg" viewBox="0 0 500 500">
  <path d="M390 102s-37-35-92-25-81 54-114 82c-18 15-42 19-62 30-64 35-64 123-21 160 37 31 88 38 155 21s116-26 163-84 17-137-29-184Z" style="fill:#92e3a9"/>
  <path d="M390 102s-37-35-92-25-81 54-114 82c-18 15-42 19-62 30-64 35-64 123-21 160 37 31 88 38 155 21s116-26 163-84 17-137-29-184Z" style="fill:#fff;opacity:.75"/>
  <path d="M410 191c-6-3-8-1-10-3s5-8-9-15c0 0-1-13-20-13s-14 13-19 16-7-2-12 2-3 10-7 10-10-4-15 0-5 6-7 6-7-2-10 0l-6 4h118s2-4-3-7Z" style="fill:#92e3a9"/>
  <g style="opacity:.5">
    <path d="M410 191c-6-3-8-1-10-3s5-8-9-15c0 0-1-13-20-13s-14 13-19 16-7-2-12 2-3 10-7 10-10-4-15 0-5 6-7 6-7-2-10 0l-6 4h118s2-4-3-7Z" style="fill:#fff"/>
  </g>
  <path d="M332 332c-8-5-12-1-15-5s9-13-14-23c0 0-2-21-33-22s-22 21-31 26-10-3-19 3-4 16-11 17-16-7-24-2-9 10-12 10-12-3-16 0l-10 7h191s3-7-6-11Z" style="fill:#92e3a9"/>
  <g style="opacity:.5">
    <path d="M332 332c-8-5-12-1-15-5s9-13-14-23c0 0-2-21-33-22s-22 21-31 26-10-3-19 3-4 16-11 17-16-7-24-2-9 10-12 10-12-3-16 0l-10 7h191s3-7-6-11Z" style="fill:#fff"/>
  </g>
  <path d="m148 244-5-2c-1-1 2-5-5-8 0 0-1-7-11-7s-8 7-11 9-4-1-7 0-1 6-3 6-6-2-9 0l-4 3h-5l-4 3h66s1-3-2-4Z" style="fill:#92e3a9"/>
  <g style="opacity:.5">
    <path d="m148 244-5-2c-1-1 2-5-5-8 0 0-1-7-11-7s-8 7-11 9-4-1-7 0-1 6-3 6-6-2-9 0l-4 3h-5l-4 3h66s1-3-2-4Z" style="fill:#fff"/>
  </g>
  <path d="M163 396s8-15 2-25-12-1-22-13-9-26-17-27-13 2-19 0 1-20-12-24-21 6-29-3-22-14-23-9 11 4 15 11 16 19 16 32 11 6 19 10 8 11 9 21 18 0 21 5-4 6-2 16 22 12 22 12" style="fill:#263238;stroke:#263238;stroke-linecap:round;stroke-linejoin:round"/>
  <path d="M150 398s-14-33-35-54-35-22-44-29" style="fill:none;stroke:#fff;stroke-linecap:round;stroke-linejoin:round"/>
  <path d="m83 336 17-4-7-15m19 42 14-1-1-12m9 40 11 2 2-17" style="fill:none;stroke:#fff;stroke-linecap:round;stroke-linejoin:round"/>
  <path d="M107 290s-5 1-11-13c-5-11 1-20 4-23a1 1 0 0 1 1 0c2 3 8 14 9 20 0 7-3 16-3 16Zm55 48s-3-3-4-9 5-18 8-16 4 15 3 20-7 5-7 5Zm18 22s-3-3-4-10 4-18 7-16 4 15 3 20-6 6-6 6Zm9 14s-1-4 1-10 13-14 15-11-4 16-8 19-8 2-8 2Zm-24-21s-3 3-9 4-18-6-16-9 15-3 20-2 5 7 5 7Zm15 23s-3 3-10 3-18-5-16-8 16-3 21-2 5 7 5 7Zm-40-62s-4 0-6-9 2-18 4-16 7 13 6 18-4 7-4 7Zm-22-2a11 11 0 0 0-7-8c-6-3-17 0-17 2s5 6 13 8 11-2 11-2Zm27 23s-1-3-8-7-15-2-15 0 8 5 14 7 9 0 9 0Zm-28-37s-3-3-4-9 5-19 8-17 4 16 2 20-6 6-6 6Z" style="fill:#92e3a9"/>
  <path d="M188 391s4-10-15-34-65-50-71-80m25 36-21-5m35 18-3-23m18 36-23-8m-16-28 1-17m44 58 1-18m17 39 1-17m5 31 10-15m-25-10-18-2m32 24-17-2" style="fill:none;stroke:#263238;stroke-linecap:round;stroke-linejoin:round"/>
  <path d="M380 398s11-8 11-18-9-5-12-17 3-23-3-27-10-3-14-7 8-14 0-22-17-3-20-13-12-18-14-15 6 7 7 14 5 20 0 29 6 9 11 15 2 11-2 18 14 7 14 12-4 3-7 12 12 16 12 16" style="fill:#263238;stroke:#263238;stroke-linecap:round;stroke-linejoin:round"/>
  <path d="M370 395s1-30-7-53-18-29-21-38" style="fill:none;stroke:#fff;stroke-linecap:round;stroke-linejoin:round"/>
  <path d="m343 324 13 3 1-14m-1 39 11 4 3-9m-8 33 8 6 7-12" style="fill:none;stroke:#fff;stroke-linecap:round;stroke-linejoin:round"/>
  <path d="M395 305c-4-4-3-9-2-15 2-5 8-12 14-13l1 1c0 5-2 12-4 17s-5 6-9 10Zm16 55c-1-3 0-6 1-9s9-12 12-8-4 12-6 15-4 2-7 2Zm4 22c-1-3 0-6 1-8s9-12 12-9-4 13-6 16-5 2-7 1Zm0 14c0-3 3-5 5-6s14-6 14-1-9 8-13 9-4 0-6-2Zm-8-25c-3 1-6 0-8-1s-11-10-8-12 13 4 15 6 2 5 1 7Zm1 22c-3 1-6 0-9-1s-11-11-7-13 12 5 15 7 1 5 1 7Zm-2-58c-3-1-1-7 0-9s8-13 10-9-2 13-4 15l-6 3Zm-14-11c2-2 1-6-1-8s-9-9-12-7 3 9 5 11 5 5 8 4Zm8 26c1-2-1-6-2-7s-9-10-10-7 4 9 6 11 4 4 6 3Zm-2-35 2-8c1-2 10-12 12-8s-5 12-7 15-4 1-7 1Z" style="fill:#92e3a9"/>
  <path d="M406 408c6-14 7-14 5-33s-24-57-13-81m-1 35-12-13m16 27 9-17m-4 31-12-14m1-25 9-11m5 56 8-12m-5 35 8-12m-9 24 13-6m-13-18-12-9m12 31-11-9" style="fill:none;stroke:#263238;stroke-linecap:round;stroke-linejoin:round"/>
  <path d="M95 421s160-86 343 0" style="fill:none;stroke:#263238;stroke-linecap:round;stroke-linejoin:round"/>
  <path d="M323 391c0 4-23 7-50 7s-51-3-51-7 23-7 51-7 50 3 50 7Z" style="fill:#92e3a9"/>
  <path d="M323 391c0 4-23 7-50 7s-51-3-51-7 23-7 51-7 50 3 50 7Z" style="fill:#fff;opacity:.5"/>
  <path d="M283 166c5-1 9-3 8-7s-6-8-7-11 4-6 3-11-6-10-10-9c0 0-1 2-2-2s-3-7-8-6c-5 2-5 5-6 5a123 123 0 0 0-12 6c-3 2-4 9-5 11s-2 3-5 2-5-1-6 2l-2 5c-1 0-4-3-6-1s-4 7-7 6-6-7-11-5-6 8-4 9 3 3 2 5-6 0-7 3 2 7 2 8-1 4-4 5-6 4-4 5 2 0 3-1 2-2 4-1 3-1 3-1 0 3 2 4 3 3 0 3-4 5-2 7 5 4 10 2 17-10 24-5 21 4 27 2 9-10 14-11 3-4 3-7-2-11 3-12Zm4-5a5 5 0 0 0 1-2 2 2 0 0 1 1 3c-1 2-4 1-4 1Zm-76-4c-1 0-3 4-4 3s1-7 3-7 6 5 6 5c-1 1-4-1-5-1Zm56-32a3 3 0 0 0-3 1 3 3 0 0 1 4-3c2 0 2 3 2 3a23 23 0 0 0-3-1Z" style="fill:#263238"/>
  <path d="m154 267 15-8a14 14 0 0 1 0 6c-1 4-2 8-5 8s-10-6-10-6Zm50 26 7-16c1-2 9-2 8 5s-6 10-9 11a18 18 0 0 1-6 0Zm-70-83a21 21 0 0 0-4 6l-3 7s16-14 25-14l11-1s-11-5-17-3a38 38 0 0 0-11 5Z" style="fill:#263238;stroke:#263238;stroke-linecap:round;stroke-linejoin:round"/>
  <path d="m250 187-42 9c-21 4-41 0-53 3s-21 11-21 11 11-6 18-1 6 10 2 17-9 17-2 21 14 17 14 20l-1 3-11-3s6 14 20 16 22-4 31-3 8 8 8 8-8 3-9 5 2 3 13 1 15-11 20-6 8 10 13 10 9-7 16-22 31-36 32-54-9-40-9-40Z" style="fill:#92e3a9;stroke:#263238;stroke-linecap:round;stroke-linejoin:round"/>
  <path d="M243 194s-15 4-28 12-37 10-43 13a52 52 0 0 0-10 5m3 46a62 62 0 0 0 12-17 68 68 0 0 1 27-30c13-7 20-7 31-15m-22 80s9-30 16-40" style="fill:none;stroke:#263238;stroke-linecap:round;stroke-linejoin:round"/>
  <path d="M238 357a55 55 0 0 1-6 18c-5 9-6 11-8 12s-4 3-1 4h12c2-1 3-3 4-7a5 5 0 0 1 4-4v11h2l1-9 1-6c0-2-3-5-3-5l3-13Z" style="fill:#d9d9d9;stroke:#263238;stroke-linecap:round;stroke-linejoin:round"/>
  <path d="m245 391 1-9 1-6c0-2-2-4-3-4l-8 13a11 11 0 0 1-10 1h-1a6 6 0 0 1-1 1c-1 1-4 3-1 4h12c2-1 3-3 4-7a5 5 0 0 1 4-4v11Z" style="fill:#263238;stroke:#263238;stroke-linecap:round;stroke-linejoin:round"/>
  <path d="M313 359a55 55 0 0 0 6 17l7 14c1 1 4 2 1 3s-10 0-12-1-3-3-4-6a5 5 0 0 0-3-5l-1 11h-2v-9l-1-6c0-2 3-4 3-4l-3-14Z" style="fill:#d9d9d9;stroke:#263238;stroke-linecap:round;stroke-linejoin:round"/>
  <path d="M305 392v-9l-1-6c0-2 2-3 3-4 2 3 4 10 8 13a11 11 0 0 0 9 3l1-1a6 6 0 0 0 1 2c1 1 4 2 1 3s-10 0-12-1-3-3-4-6a5 5 0 0 0-3-5l-1 11Zm-45-162s-14 32-16 44l-8 86 13 1 20-85 4-16 30 104 12-1s-12-78-17-97a273 273 0 0 0-12-36Z" style="fill:#263238;stroke:#263238;stroke-linecap:round;stroke-linejoin:round"/>
  <path d="M266 162v16c0 2-17 7-17 7l11 45h26l8-49-15-3v-11s-9-1-13-5Z" style="fill:#d9d9d9;stroke:#263238;stroke-linecap:round;stroke-linejoin:round"/>
  <path d="M284 179c-1 4-5 15-13 14-7-1-11-8-13-11l-9 3 11 45h26l8-49Z" style="fill:#fff;stroke:#263238;stroke-linecap:round;stroke-linejoin:round"/>
  <path d="m261 180 5 34 1 22-11 44-19-8 19-43-11-42 16-7Z" style="fill:#707070;stroke:#263238;stroke-linecap:round;stroke-linejoin:round"/>
  <path d="m258 181-2 17 4 3-3 5 10 26-1-21-5-31Z" style="fill:none;stroke:#263238;stroke-linecap:round;stroke-linejoin:round"/>
  <path d="m281 179-3 55 15 46 15-5-19-47 9-46-17-3Z" style="fill:#707070;stroke:#263238;stroke-linecap:round;stroke-linejoin:round"/>
  <path d="m285 180 2 19-5 2 5 4-9 29 3-55 4 1z" style="fill:#707070;stroke:#263238;stroke-linecap:round;stroke-linejoin:round"/>
  <path d="M281 142a4 4 0 0 0 0-1c0-1-1-3-4-2l-8 6a22 22 0 0 1-3 0s-4 9-6 10a11 11 0 0 1-4 2s1 6 2 7a4 4 0 0 0 3 0s5 5 8 7 7 2 9 1 7-7 7-10l-2-15a6 6 0 0 0-2-5Z" style="fill:#d9d9d9;stroke:#263238;stroke-linecap:round;stroke-linejoin:round"/>
  <path d="M270 139v2a11 11 0 0 1-2 2s3 0 5-3-1-3-3-1Z" style="fill:#fff"/>
  <path d="M271 151v2l-2-2c-1-1 1-2 1-2l1 2Zm9-1-1 1-1-1 1-2 1 2Z" style="fill:#263238"/>
  <path d="m268 148 4-1m5-1s1-3 3-2m-4 16s-5 1-7-2m8-5s1 3-2 3" style="fill:none;stroke:#263238;stroke-linecap:round;stroke-linejoin:round"/>
  <path d="M301 237s-9 6-9 8l2 5 2 2s5-1 5-3l-1-2 4-6Z" style="fill:#d9d9d9;stroke:#263238;stroke-linecap:round;stroke-linejoin:round"/>
  <path d="m300 247-2 2" style="fill:none;stroke:#263238;stroke-linecap:round;stroke-linejoin:round"/>
  <path d="m293 197 21 21-15 19 5 5s23-24 23-26-26-32-27-33l-5-1" style="fill:#707070;stroke:#263238;stroke-linecap:round;stroke-linejoin:round"/>
  <path d="m245 236 10 7c1 1-2 4-2 5l-2 2s-4 0-4-2v-2l-4-6Z" style="fill:#d9d9d9;stroke:#263238;stroke-linecap:round;stroke-linejoin:round"/>
  <path d="m247 246 2 2" style="fill:none;stroke:#263238;stroke-linecap:round;stroke-linejoin:round"/>
  <path d="m252 199-21 19 16 18-4 5s-25-21-25-23 26-32 28-33l5-2" style="fill:#707070;stroke:#263238;stroke-linecap:round;stroke-linejoin:round"/>
  <path d="m263 189 2-10c-1-3-4-1-6-1s-6 5-6 5l7-1 3 7Zm16-11 2 12 3-7a13 13 0 0 1 4-4s-5-2-9-1Z" style="fill:#92e3a9;stroke:#263238;stroke-linecap:round;stroke-linejoin:round"/>
</svg>
