<svg width="688" height="611" viewBox="0 0 688 611" fill="none" xmlns="http://www.w3.org/2000/svg">
<path d="M483.196 121.212C483.45 118.138 483.614 115.05 483.614 111.901C483.614 50.102 433.512 0 371.713 0C319.074 0 274.94 36.3605 263.019 85.3286C252.903 75.153 239.161 68.9015 224.018 68.9015C195.236 68.9015 171.513 91.5056 168.112 120.675C139.45 123.286 116.995 147.367 116.995 176.715C116.995 207.794 142.195 232.994 173.274 232.994H473.826C504.905 232.994 530.105 207.794 530.105 176.715C530.135 148.799 509.829 125.673 483.196 121.212Z" fill="#14A800"/>
<path opacity="0.2" d="M473.841 217.149H173.304C144.896 217.149 121.411 196.097 117.577 168.748C117.204 171.344 117.01 174 117.01 176.7C117.01 207.779 142.21 232.979 173.289 232.979H473.841C504.92 232.979 530.12 207.779 530.12 176.7C530.12 174 529.926 171.359 529.553 168.763C525.734 196.111 502.249 217.149 473.841 217.149Z" fill="black"/>
<path d="M500.651 265.595H475.51V284.455H500.651V265.595Z" fill="#14A800"/>
<path d="M607.479 265.595H582.339V284.455H607.479V265.595Z" fill="#14A800"/>
<path d="M622.489 251.63H460.501V274.667H622.489V251.63Z" fill="#5765FB"/>
<path d="M607.48 259.314H516.526V265.596H607.48V259.314Z" fill="#14A800"/>
<path d="M497.324 261.747C497.324 263.671 498.89 265.238 500.815 265.238C502.74 265.238 504.306 263.671 504.306 261.747C504.306 259.822 502.74 258.255 500.815 258.255C498.89 258.255 497.324 259.822 497.324 261.747Z" fill="white"/>
<path d="M485.462 261.747C485.462 263.671 487.029 265.238 488.953 265.238C490.878 265.238 492.445 263.671 492.445 261.747C492.445 259.822 490.878 258.255 488.953 258.255C487.014 258.255 485.462 259.822 485.462 261.747Z" fill="white"/>
<path d="M473.586 261.746C473.586 263.671 475.152 265.238 477.077 265.238C479.002 265.238 480.568 263.671 480.568 261.746C480.568 259.822 479.002 258.255 477.077 258.255C475.152 258.255 473.586 259.822 473.586 261.746Z" fill="white"/>
<path d="M419.007 608.669H644.302C667.443 608.669 686.198 589.914 686.198 566.773V341.478C686.198 318.337 667.443 299.582 644.302 299.582" stroke="#37962A" stroke-width="1.872" stroke-miterlimit="10" stroke-linecap="round" stroke-linejoin="round"/>
<path d="M686.198 423.391C686.198 400.249 667.444 381.495 644.302 381.495" stroke="#37962A" stroke-width="1.872" stroke-miterlimit="10" stroke-linecap="round" stroke-linejoin="round"/>
<path d="M686.198 504.854C686.198 481.713 667.444 462.958 644.302 462.958" stroke="#37962A" stroke-width="1.872" stroke-miterlimit="10" stroke-linecap="round" stroke-linejoin="round"/>
<path d="M645.69 543.96C661.132 543.96 673.635 556.478 673.635 571.905L673.62 575.277C673.62 590.72 661.102 603.223 645.675 603.223H447.415" stroke="#37962A" stroke-width="1.9381" stroke-miterlimit="10" stroke-linecap="round" stroke-linejoin="round"/>
<path d="M622.952 298.762C622.952 304.298 627.443 308.774 632.963 308.774H638.976C644.512 308.774 648.988 304.283 648.988 298.762C648.988 293.227 644.497 288.751 638.976 288.751H632.963C627.428 288.751 622.952 293.227 622.952 298.762Z" fill="#37962A"/>
<path d="M486.358 346.432H453.294V363.889H486.358V346.432Z" fill="#37962A"/>
<path d="M612.687 346.432H579.624V363.889H612.687V346.432Z" fill="#37962A"/>
<path d="M640.23 342.836C640.23 348.371 635.739 352.847 630.218 352.847H435.763C430.228 352.847 425.752 348.357 425.752 342.836V289.735C425.752 284.2 430.243 279.724 435.763 279.724H630.203C635.739 279.724 640.215 284.215 640.215 289.735V342.836H640.23Z" fill="#5765FB"/>
<path opacity="0.2" d="M630.203 338.837H435.763C430.228 338.837 425.752 334.346 425.752 328.826V342.851C425.752 348.386 430.243 352.862 435.763 352.862H630.203C635.739 352.862 640.215 348.371 640.215 342.851V328.826C640.23 334.346 635.739 338.837 630.203 338.837Z" fill="#37962A"/>
<path d="M499.875 291.747H436.763V326.81H499.875V291.747Z" fill="white"/>
<path d="M628.204 291.747H509.887V326.81H628.204V291.747Z" fill="white"/>
<path d="M561.212 297.76H538.549V305.772H561.212V297.76Z" fill="#F54749"/>
<path d="M619.505 297.76H596.842V305.772H619.505V297.76Z" fill="#F54749"/>
<path d="M590.128 297.76H567.464V305.772H590.128V297.76Z" fill="#5765FB"/>
<path d="M622.952 380.986C622.952 386.521 627.443 390.997 632.963 390.997H638.976C644.511 390.997 648.987 386.506 648.987 380.986C648.987 375.45 644.496 370.974 638.976 370.974H632.963C627.428 370.974 622.952 375.45 622.952 380.986Z" fill="#37962A"/>
<path d="M486.357 428.657H453.294V446.114H486.357V428.657Z" fill="#37962A"/>
<path d="M612.687 428.657H579.624V446.114H612.687V428.657Z" fill="#37962A"/>
<path d="M640.229 425.059C640.229 430.594 635.738 435.07 630.218 435.07H435.763C430.228 435.07 425.752 430.579 425.752 425.059V371.958C425.752 366.422 430.243 361.946 435.763 361.946H630.203C635.738 361.946 640.214 366.437 640.214 371.958V425.059H640.229Z" fill="#5765FB"/>
<path opacity="0.2" d="M630.203 421.06H435.763C430.228 421.06 425.752 416.569 425.752 411.048V425.073C425.752 430.609 430.243 435.085 435.763 435.085H630.203C635.738 435.085 640.214 430.594 640.214 425.073V411.048C640.229 416.569 635.738 421.06 630.203 421.06Z" fill="#37962A"/>
<path d="M499.875 373.972H436.763V409.035H499.875V373.972Z" fill="white"/>
<path d="M628.204 373.972H509.887V409.035H628.204V373.972Z" fill="white"/>
<path d="M561.212 379.986H538.548V387.998H561.212V379.986Z" fill="#F54749"/>
<path d="M619.505 379.986H596.841V387.998H619.505V379.986Z" fill="#F54749"/>
<path d="M590.127 379.986H567.464V387.998H590.127V379.986Z" fill="#5765FB"/>
<path d="M622.952 463.209C622.952 468.744 627.443 473.22 632.963 473.22H638.976C644.512 473.22 648.988 468.729 648.988 463.209C648.988 457.673 644.497 453.197 638.976 453.197H632.963C627.428 453.197 622.952 457.673 622.952 463.209Z" fill="#37962A"/>
<path d="M486.358 510.879H453.294V528.336H486.358V510.879Z" fill="#37962A"/>
<path d="M612.687 510.879H579.624V528.335H612.687V510.879Z" fill="#37962A"/>
<path d="M640.23 507.282C640.23 512.817 635.739 517.293 630.218 517.293H435.763C430.228 517.293 425.752 512.802 425.752 507.282V454.181C425.752 448.645 430.243 444.169 435.763 444.169H630.203C635.739 444.169 640.215 448.66 640.215 454.181V507.282H640.23Z" fill="#5765FB"/>
<path opacity="0.2" d="M630.203 503.283H435.763C430.228 503.283 425.752 498.792 425.752 493.271V507.296C425.752 512.832 430.243 517.308 435.763 517.308H630.203C635.739 517.308 640.215 512.817 640.215 507.296V493.271C640.23 498.792 635.739 503.283 630.203 503.283Z" fill="#37962A"/>
<path d="M499.875 456.195H436.763V491.258H499.875V456.195Z" fill="white"/>
<path d="M628.204 456.195H509.887V491.258H628.204V456.195Z" fill="white"/>
<path d="M561.212 462.21H538.549V470.222H561.212V462.21Z" fill="#F54749"/>
<path d="M619.505 462.21H596.842V470.223H619.505V462.21Z" fill="#F54749"/>
<path d="M590.128 462.21H567.464V470.223H590.128V462.21Z" fill="#5765FB"/>
<path d="M622.952 545.44C622.952 550.976 627.443 555.452 632.963 555.452H638.976C644.511 555.452 648.987 550.961 648.987 545.44C648.987 539.905 644.496 535.429 638.976 535.429H632.963C627.428 535.429 622.952 539.905 622.952 545.44Z" fill="#37962A"/>
<path d="M486.357 593.112H453.294V610.568H486.357V593.112Z" fill="#37962A"/>
<path d="M612.687 593.112H579.624V610.568H612.687V593.112Z" fill="#37962A"/>
<path d="M640.229 589.528C640.229 595.063 635.738 599.539 630.218 599.539H435.763C430.227 599.539 425.751 595.048 425.751 589.528V536.427C425.751 530.891 430.242 526.415 435.763 526.415H630.203C635.738 526.415 640.214 530.906 640.214 536.427V589.528H640.229Z" fill="#5765FB"/>
<path opacity="0.2" d="M630.203 585.515H435.763C430.227 585.515 425.751 581.024 425.751 575.504V589.529C425.751 595.064 430.242 599.54 435.763 599.54H630.203C635.738 599.54 640.214 595.049 640.214 589.529V575.504C640.229 581.024 635.738 585.515 630.203 585.515Z" fill="#37962A"/>
<path d="M499.875 538.427H436.763V573.49H499.875V538.427Z" fill="white"/>
<path d="M628.204 538.427H509.887V573.49H628.204V538.427Z" fill="white"/>
<path d="M561.212 544.439H538.548V552.451H561.212V544.439Z" fill="#F54749"/>
<path d="M619.505 544.439H596.841V552.451H619.505V544.439Z" fill="#F54749"/>
<path d="M590.127 544.439H567.464V552.451H590.127V544.439Z" fill="#5765FB"/>
<path d="M371.548 242.648H346.318V368.813H371.548V242.648Z" fill="#5765FB"/>
<path d="M327.056 265.074L358.941 209.87L390.81 265.074H327.056Z" fill="#5765FB"/>
<path d="M325.714 382.78H211.992V597.287H325.714V382.78Z" fill="#206C16"/>
<path d="M449.193 593.169H88.4973V610.775H449.193V593.169Z" fill="#16550D"/>
<path d="M448.984 541.516C448.984 549.229 442.733 555.481 435.019 555.481H102.672C94.9578 555.481 88.7062 549.229 88.7062 541.516V349.508C88.7062 341.794 94.9578 335.542 102.672 335.542H435.019C442.733 335.542 448.984 341.794 448.984 349.508V541.516Z" fill="white"/>
<path d="M435.019 560.375H102.672C92.2723 560.375 83.8125 551.915 83.8125 541.516V349.508C83.8125 339.109 92.2723 330.649 102.672 330.649H435.019C445.418 330.649 453.878 339.109 453.878 349.508V541.516C453.878 551.915 445.418 560.375 435.019 560.375ZM102.672 340.437C97.6734 340.437 93.6001 344.51 93.6001 349.508V541.516C93.6001 546.514 97.6734 550.588 102.672 550.588H435.019C440.017 550.588 444.09 546.514 444.09 541.516V349.508C444.09 344.51 440.017 340.437 435.019 340.437H102.672Z" fill="#14A800"/>
<path d="M294.814 209.87H269.584V336.035H294.814V209.87Z" fill="#5765FB"/>
<path d="M314.076 313.61L282.206 368.815L250.322 313.61H314.076Z" fill="#5765FB"/>
<path opacity="0.2" d="M163.158 310.015C162.949 307.568 161.412 305.434 159.174 304.435L89.139 273.475C88.572 273.222 87.9901 273.087 87.3784 272.998C87.2739 272.983 87.1546 272.968 87.0501 272.968C85.9162 272.864 84.7524 272.998 83.6931 273.475L13.6428 304.435C11.3898 305.434 9.86797 307.568 9.65908 310.015C1.09489 408.1 80.336 442.223 81.1417 442.551C81.9623 442.894 82.8426 443.073 83.7229 443.073H85.2746H89.0793C89.9596 443.073 90.8399 442.894 91.6605 442.551C92.4811 442.223 171.722 408.1 163.158 310.015Z" fill="#0C5D01"/>
<path d="M147.417 303.583L77.3819 272.624L7.34647 303.583C-0.889478 397.879 74.7112 429.315 74.7112 429.315H80.0675C80.0675 429.315 155.653 397.879 147.417 303.583Z" fill="#FFB1A4"/>
<path d="M80.0674 436.059H74.7111C73.8308 436.059 72.9505 435.88 72.1299 435.536C71.3242 435.208 -7.91695 401.071 0.647244 303C0.856126 300.553 2.3929 298.42 4.63093 297.42L74.6663 266.461C76.3971 265.7 78.3815 265.7 80.1122 266.461L150.148 297.42C152.401 298.42 153.922 300.553 154.131 303C162.695 401.086 83.4543 435.208 82.6486 435.536C81.828 435.88 80.9477 436.059 80.0674 436.059ZM76.1285 422.586H78.6351C87.9901 418.244 146.045 388.001 141.002 308.118L77.3818 279.993L13.7621 308.118C8.73399 387.986 66.7735 418.244 76.1285 422.586Z" fill="#F54749"/>
<path opacity="0.1" d="M154.131 303.002C153.922 300.555 152.385 298.421 150.147 297.422L80.112 266.462C78.8886 265.925 77.5458 265.791 76.2626 266V436.045H80.0673C80.9476 436.045 81.8279 435.866 82.6485 435.523C83.4542 435.21 162.695 401.072 154.131 303.002Z" fill="#0C5D01"/>
<path d="M87.4729 385.714C108.007 380.921 120.768 360.389 115.975 339.855C111.182 319.321 90.6501 306.56 70.1159 311.353C49.5817 316.146 36.8209 336.678 41.6139 357.212C46.4069 377.746 66.9387 390.507 87.4729 385.714Z" fill="#F54749"/>
<path d="M68.6535 378.872L50.1077 346.868L58.3735 342.079L69.8322 361.863L99.5681 323.816L107.088 329.68L68.6535 378.872Z" fill="white"/>
<path opacity="0.2" d="M415.981 386.511H196.535C194.998 386.511 193.744 387.765 193.744 389.301V508.573C193.744 510.11 194.998 511.363 196.535 511.363H415.981C417.518 511.363 418.771 510.11 418.771 508.573V389.316C418.771 387.764 417.532 386.511 415.981 386.511Z" fill="#0C5D01"/>
<path d="M407.595 383.723H188.149V502.995H407.595V383.723Z" fill="#FFB1A4" stroke="#F54749" stroke-width="3.7439" stroke-miterlimit="10" stroke-linecap="round" stroke-linejoin="round"/>
<path d="M407.476 383.754H188.149V398.942H407.476V383.754Z" fill="#F54749"/>
<path d="M394.212 390.243C394.212 392.361 395.928 394.077 398.046 394.077C400.165 394.077 401.881 392.361 401.881 390.243C401.881 388.124 400.165 386.408 398.046 386.408C395.943 386.393 394.212 388.109 394.212 390.243Z" fill="white"/>
<path d="M380.247 390.243C380.247 392.361 381.962 394.077 384.081 394.077C386.2 394.077 387.916 392.361 387.916 390.243C387.916 388.124 386.2 386.408 384.081 386.408C381.977 386.393 380.247 388.109 380.247 390.243Z" fill="white"/>
<path d="M366.281 390.243C366.281 392.361 367.997 394.077 370.116 394.077C372.235 394.077 373.95 392.361 373.95 390.243C373.95 388.124 372.235 386.408 370.116 386.408C368.012 386.393 366.281 388.109 366.281 390.243Z" fill="white"/>
<path opacity="0.2" d="M303.572 433.301H139.271C137.734 433.301 136.481 434.554 136.481 436.091V534.415C136.481 535.952 137.734 537.205 139.271 537.205H303.557C305.094 537.205 306.347 535.952 306.347 534.415V436.091C306.362 434.554 305.109 433.301 303.572 433.301Z" fill="#0C5D01"/>
<path d="M295.187 430.511H130.9V528.835H295.187V430.511Z" fill="#FFB1A4" stroke="#F54749" stroke-width="3.7439" stroke-miterlimit="10" stroke-linecap="round" stroke-linejoin="round"/>
<path d="M295.067 430.525H130.901V445.713H295.067V430.525Z" fill="#F54749"/>
<path d="M281.803 437.017C281.803 439.135 283.519 440.851 285.638 440.851C287.756 440.851 289.472 439.135 289.472 437.017C289.472 434.898 287.756 433.182 285.638 433.182C283.519 433.182 281.803 434.898 281.803 437.017Z" fill="white"/>
<path d="M267.838 437.017C267.838 439.135 269.554 440.851 271.672 440.851C273.791 440.851 275.507 439.135 275.507 437.017C275.507 434.898 273.791 433.182 271.672 433.182C269.554 433.182 267.838 434.898 267.838 437.017Z" fill="white"/>
<path d="M253.873 437.017C253.873 439.135 255.589 440.851 257.707 440.851C259.826 440.851 261.542 439.135 261.542 437.017C261.542 434.898 259.826 433.182 257.707 433.182C255.589 433.182 253.873 434.898 253.873 437.017Z" fill="white"/>
</svg>
