<svg xmlns="http://www.w3.org/2000/svg" version="1.1" xmlns:xlink="http://www.w3.org/1999/xlink" xmlns:svgjs="http://svgjs.com/svgjs" width="512" height="512" x="0" y="0" viewBox="0 0 66 66" style="enable-background:new 0 0 512 512" xml:space="preserve" class=""><g><path d="M57.25 55.55c-.17-1.04-.32-1.93-.39-2.94-.18-1.99-.48-3.98-1.12-5.82s-1.66-3.53-3.03-4.73c-1.32-1.17-2.65-2.15-4.02-2.93-1.36-.76-2.64-1.38-3.84-1.91-2.41-1.05-4.46-1.62-5.89-1.92-.83-.17-1.44-.26-1.82-.3.42-.5.79-1.01 1.14-1.49.57-.82 1.06-1.56 1.52-2.31h.34c1.18-.01 2.48-.04 3.89-.32.7-.15 1.44-.37 2.14-.82.44-.27.81-.68 1.08-1.14.11.12.33.24.76.35.46.1 1.17.19 2.23-.03.53-.12 1.15-.33 1.79-.75.66-.42 1.3-1.1 1.74-1.98.48-.97.75-2.32.57-3.71-.09-.7-.26-1.39-.63-2.08a4.16 4.16 0 0 0-1.55-1.59c-1.26-.69-2.48-.65-3.29-.54-.45.07-.77.17-.99.26a25.495 25.495 0 0 0-1.49-6.57c-.34-.9-.74-1.77-1.22-2.63-.51-.87-1.1-1.7-1.81-2.41-2.84-2.88-6.74-4.36-10.51-4.89-3.8-.5-7.66-.06-10.87 1.51-3.23 1.55-5.49 4.2-6.8 6.71-1.2 2.31-1.83 4.68-2.14 6.92-.05.58-.14 1.08-.15 1.7-.01.56.04 1.07.09 1.57-.11-.03-.24-.06-.38-.08-.28-.05-.61-.13-1.02-.11-.81-.04-1.91.15-3.16.85-.32.16-.61.42-.94.65-.28.28-.63.55-.89.92-.58.69-1.07 1.63-1.26 2.78-.19 1.14.06 2.54.91 3.68.39.61 1.08 1.11 1.73 1.43.68.33 1.41.55 2.21.66.8.09 1.67.09 2.58-.23.45-.15.91-.41 1.31-.77.19-.18.39-.41.52-.61.13-.21.26-.42.38-.64.45-.89.62-1.9.64-2.87s-.1-1.94-.24-2.9c-.15-.96-.33-1.92-.45-2.87-.14-.97-.09-1.81.05-2.88.29-2.05.87-4.21 1.94-6.27 1.17-2.24 3.11-4.52 5.91-5.9 2.77-1.39 6.31-1.86 9.8-1.44 3.48.43 7.07 1.76 9.59 4.24.63.61 1.16 1.31 1.61 2.04.45.76.84 1.58 1.17 2.41.67 1.66 1.12 3.38 1.4 5.09.28 1.72.4 3.42.4 5.08 0 .81-.02 1.68.01 2.48.01.79-.01 1.55-.19 2.21-.17.66-.5 1.2-1.01 1.54-.52.36-1.15.59-1.79.75-1.22.3-2.44.4-3.55.46 1.08-1.94 1.54-3.75 1.77-5.26.22-1.55.2-2.82.11-3.82-.2-2.02-.63-3.01-.87-3.49-.26-.48-.39-.48-.52-.44s-.24.12-.21.64c.01.52.21 1.49.22 3.36 0 .93-.06 2.08-.32 3.48-.28 1.38-.77 3.03-1.79 4.73-.19.29-.39.59-.59.91-1.4.07-2.58.16-3.47.23-.72.06-1.25.11-1.59.15.02-.14.03-.28.02-.42-.01-.51-.26-1-.58-1.32-.64-.65-1.49-.86-2.15-.76-.68.11-1.1.49-1.32.74-.23.27-.29.46-.26.48.04.03.18-.1.44-.29.26-.18.66-.44 1.19-.46.52-.03 1.18.19 1.64.7.22.26.37.56.37.92s-.1.73-.33 1.03c-.45.63-1.29.81-1.99.76s-1.24-.44-1.43-.92c-.21-.48-.11-.94-.02-1.24s.19-.47.14-.5c-.03-.02-.2.08-.38.39-.18.3-.39.84-.19 1.52.37 1.43 3 2.13 4.43.41.2-.26.32-.56.39-.87.34.03.89.05 1.64.06.8.01 1.83.02 3.03.03-.91 1.35-1.98 2.82-3.37 4.1-.99.88-2.17 1.62-3.53 1.85-1.36.19-2.89-.21-4.34-1.1-3.2-1.92-6.15-6.5-7.06-11.76-.45-2.62-.42-5.45.54-7.94.48-1.23 1.16-2.38 2.09-3.27.91-.9 2.04-1.58 3.21-2.08 2.36-1 4.92-1.13 7.11-.73 2.21.41 4.04 1.42 5.3 2.56 1.25 1.16 1.98 2.4 2.43 3.26.45.87.66 1.38.73 1.35.06-.02-.02-.57-.37-1.52-.36-.93-.99-2.29-2.26-3.64-1.28-1.32-3.21-2.53-5.6-3.08-2.37-.54-5.17-.52-7.85.51-1.33.51-2.63 1.24-3.75 2.28-1.12 1.03-1.97 2.35-2.55 3.76-1.17 2.84-1.26 5.97-.82 8.83.77 4.84 3.08 9.19 6.08 11.84-.7.13-2.12.58-5.04 1.81-1.32.57-2.93 1.29-4.91 2.26-.98.49-2.12 1.02-3.26 1.96-1.1.98-2.05 2.24-2.73 3.78-1.38 3.06-1.76 6.91-1.52 11.18.06 1.07.15 2.18.28 3.31.07.56.14 1.4.78 2.14.82.79 1.57.82 2.23.95 1.33.17 2.67.04 3.83.04 1.31.02 2.65 0 4.03-.04 1.49-.06 3.1-.12 4.79-.18 1.67-.06 3.43-.02 5.3-.03 3.71-.01 7.69-.09 11.79-.23 2.05-.08 4.13-.16 6.22-.23 1.04-.04 2.09-.09 3.14-.13 1.04-.05 2.11-.07 3.21-.22 1.09-.15 2.23-.44 3.26-1.04 1-.57 1.97-1.6 2.24-2.82.29-1.26.13-2.38-.02-3.39zM13.3 28.43l-.24.41c-.08.13-.16.2-.24.3-.19.16-.41.31-.67.4-.52.2-1.15.23-1.74.17-1.18-.14-2.3-.62-2.77-1.33-.59-.76-.77-1.63-.68-2.43s.42-1.52.84-2.08c.18-.3.45-.52.65-.76.25-.19.46-.42.71-.56.95-.62 1.82-.87 2.49-.93.33-.07.62-.04.86-.05s.45-.01.61.01c.12.77.25 1.5.36 2.19.3 1.82.4 3.49-.18 4.66zm35.58-9.1c.73.11 1.76.33 2.53.94.78.6 1.11 1.57 1.14 2.67.05 1.07-.21 2.04-.53 2.68-.58 1.17-1.5 1.59-2.25 1.86-.75.25-1.33.31-1.71.39-.16.03-.28.06-.39.09.24-.83.28-1.67.3-2.49 0-.82.04-1.6.07-2.47.03-1.24-.01-2.51-.12-3.81.22.04.55.08.96.14zM25.36 37.68c1.71 1.06 3.74 1.64 5.66 1.36 1.9-.32 3.4-1.33 4.53-2.35.55-.51 1.04-1.03 1.48-1.55.39.12 1.13.31 2.13.62-.15.17-.3.55-.44 1.41-.14.74-.16 1.87-.64 3.21-.13.33-.28.68-.51 1.03-.23.37-.51.78-.83 1.21-.63.85-1.43 1.79-2.39 2.84-.58.62-1.28 1.36-2.03 2.16-.01.01-.01.01-.03 0-.19-.07-.39-.15-.59-.22-.4-.16-.81-.32-1.22-.5-.81-.35-1.63-.75-2.39-1.2-1.54-.88-2.89-2-3.69-3.25-.38-.63-.63-1.28-.76-1.89-.05-.31-.08-.6-.11-.89-.02-.3-.04-.58-.05-.83-.05-.74-.12-1.26-.19-1.49.46-.25.73-.42.88-.54.38.34.78.62 1.19.87zM55.8 58.49c-.2.81-.78 1.4-1.57 1.85-.79.44-1.71.67-2.68.79-.98.12-2.01.13-3.06.16s-2.09.06-3.14.08l-6.21.15c-4.09.09-8.05.14-11.74.12-1.83-.01-3.64-.06-5.35 0-1.69.06-3.3.12-4.8.17-1.36.05-2.66.07-3.92.05-.73 0-1.32.04-1.93.05-.6.01-1.18 0-1.69-.07-.51-.04-1.01-.25-1.03-.3-.15-.15-.25-.52-.31-1.07a65.49 65.49 0 0 1-.29-3.2c-.25-4.11.1-7.67 1.26-10.34a9.44 9.44 0 0 1 2.2-3.2c.88-.77 1.92-1.31 2.88-1.82 1.92-1.02 3.49-1.81 4.76-2.45 1.9-.95 3.12-1.56 3.89-1.97-.08.26-.16.73-.24 1.35-.03.25-.06.53-.1.82-.02.31-.04.66-.02 1.03.05.74.26 1.55.64 2.36.8 1.59 2.27 2.99 3.88 4.05.8.54 1.65 1.01 2.5 1.43.42.21.85.4 1.26.59.21.09.43.18.64.27.39.18.79.29 1.18.18.3-.08.54-.26.76-.5l.4-.4c.22-.22.44-.44.65-.66.42-.44.81-.84 1.16-1.22 1-1.08 1.84-2.09 2.51-3.04.34-.48.62-.93.89-1.39.27-.48.46-.95.6-1.4.51-1.82.33-2.98.31-3.73-.05-.63-.12-1-.2-1.23 1.26.43 2.84 1.03 4.64 1.9 1.15.57 2.4 1.24 3.69 2.02 1.26.78 2.53 1.79 3.75 2.93 1.19 1.11 2.05 2.63 2.59 4.33.55 1.71.79 3.59.92 5.54.05 2.02.76 4.14.32 5.77zM59.91 55.99c-.2 0-.3 1.68-1.12 3.53-.79 1.86-1.97 3.07-1.82 3.22.1.15 1.58-.93 2.45-2.95.88-2.01.66-3.83.49-3.8zM60.6 59.68c-.19-.05-.48.5-.79 1.17s-.53 1.25-.37 1.36c.15.11.66-.34 1-1.07.33-.74.34-1.42.16-1.46z" fill="#000000" data-original="#000000" class=""></path><path d="M16.32 43.77c-.03-.08-.6.06-1.43.5-.82.44-1.88 1.24-2.79 2.36s-1.47 2.32-1.73 3.22c-.27.9-.28 1.49-.2 1.5.2.05.72-2.18 2.46-4.29 1.7-2.14 3.78-3.11 3.69-3.29z" fill="#000000" data-original="#000000" class=""></path><path d="M14.35 46.58c-1.49 1.28-1.98 2.86-1.8 2.91.18.09.89-1.23 2.25-2.39 1.34-1.18 2.75-1.7 2.69-1.9-.03-.18-1.66.08-3.14 1.38zM10.76 16.96c.13-1.59.59-3.78 1.65-5.97 1.07-2.19 2.5-3.91 3.66-5 1.17-1.1 2.02-1.64 1.95-1.74-.03-.06-.98.34-2.27 1.38-1.29 1.03-2.85 2.78-3.96 5.06-1.1 2.29-1.51 4.6-1.51 6.25-.02 1.66.26 2.65.33 2.64.11-.02.01-1.02.15-2.62z" fill="#000000" data-original="#000000" class=""></path></g></svg>