<?xml version="1.0" encoding="utf-8"?>
<!-- Generator: Adobe Illustrator 16.0.0, SVG Export Plug-In . SVG Version: 6.00 Build 0)  -->
<!DOCTYPE svg PUBLIC "-//W3C//DTD SVG 1.1//EN" "http://www.w3.org/Graphics/SVG/1.1/DTD/svg11.dtd">
<svg version="1.1"
	 id="svg4" sodipodi:docname="drupal-ar21.svg" inkscape:version="0.92.4 (5da689c313, 2019-01-14)" xmlns:dc="http://purl.org/dc/elements/1.1/" xmlns:cc="http://creativecommons.org/ns#" xmlns:rdf="http://www.w3.org/1999/02/22-rdf-syntax-ns#" xmlns:svg="http://www.w3.org/2000/svg" xmlns:sodipodi="http://sodipodi.sourceforge.net/DTD/sodipodi-0.dtd" xmlns:inkscape="http://www.inkscape.org/namespaces/inkscape"
	 xmlns="http://www.w3.org/2000/svg" xmlns:xlink="http://www.w3.org/1999/xlink" x="0px" y="0px" width="640px" height="300px"
	 viewBox="0 0 640 300" enable-background="new 0 0 640 300" xml:space="preserve">
<sodipodi:namedview  id="namedview6" inkscape:pageopacity="0" inkscape:pageshadow="2" inkscape:window-width="1920" inkscape:window-height="1001" inkscape:window-x="-9" inkscape:window-y="-9" inkscape:current-layer="svg4" inkscape:window-maximized="1" pagecolor="#ffffff" showgrid="false" inkscape:zoom="5.2149125" bordercolor="#666666" borderopacity="1" objecttolerance="10" inkscape:cx="70.508475" gridtolerance="10" inkscape:cy="64" guidetolerance="10">
	</sodipodi:namedview>
<path fill="#FFFFFF" fill-opacity="0" d="M168.825,43.164H469.5v216.045H168.825V43.164z"/>
<path d="M224.94,241.937h-23.207c-2.352,0-4.68-0.339-6.978-1.023c-4.454-1.417-7.983-4.663-10.589-9.745
	c-2.352-4.614-3.529-9.983-3.529-16.113c0-5.921,1.052-11.157,3.154-15.719c2.302-5.033,5.583-8.459,9.837-10.299
	c3.303-1.417,6.682-2.119,10.131-2.119h21.025v10.527h-21.923c-3.555,0-6.135,2.019-7.734,6.052
	c-1.25,3.142-1.877,7.253-1.877,12.335c0,4.338,0.8,7.943,2.364,10.925c1.853,3.505,4.456,5.266,7.807,5.266l21.397-0.081v9.987
	 M263.464,242.164h-18.319c-4.456,0-8.335-1.989-11.638-5.972c-3.213-3.92-4.941-8.848-4.881-13.916
	c0-5.715,1.773-10.636,5.332-14.774c3.602-4.188,7.607-6.291,12.016-6.291h17.425v8.412h-12.764c-1.601,0-2.981,0.157-4.132,0.474
	c-1.104,0.259-2.13,0.808-3.075,1.656c-1.75,1.578-2.63,3.69-2.63,6.366h22.527v8.487h-22.376c0,1.264,0.125,2.327,0.374,3.222
	c0.299,0.84,0.875,1.701,1.726,2.591c0.833,0.832,1.87,1.43,3.005,1.732c1.201,0.262,2.651,0.394,4.357,0.394h13.14v7.626
	 M306.369,241.937h-10.44v-26.803c0-0.68-0.149-1.284-0.448-1.813c-0.333-0.618-0.765-1.177-1.278-1.651
	c-0.94-0.867-2.175-1.344-3.454-1.337h-10.25v31.598h-10.44v-40.702h19.976c3.558,0,6.135,0.208,7.737,0.632
	c2.451,0.592,4.593,2.078,6.008,4.165c1.703,2.515,2.555,5.266,2.555,8.251v27.669 M336.311,209.72h-10.134v18.471
	c0,1.674,0.554,3.067,1.661,4.165c1.248,1.105,2.897,1.654,4.954,1.654h3.072v7.941h-9.688c-2.899,0-5.377-1.102-7.432-3.301
	c-1.205-1.311-1.979-2.748-2.366-4.325c-0.386-1.574-0.523-3.431-0.523-5.577v-19.02h-6.549v-8.494h6.605v-14.298h10.291v14.298
	h10.13v8.494 M397.619,214.356c0,10.68-2.827,18.336-8.488,22.943c-4.604,3.721-11.312,5.575-20.125,5.575
	c-9.76,0-16.97-2.147-21.626-6.444c-5.108-4.716-7.659-12.288-7.659-22.717c0-8.538,2.277-15.194,6.834-19.965
	c4.953-5.19,12.36-7.781,22.224-7.781c10.862,0,18.521,2.483,22.979,7.467c3.941,4.398,5.854,11.371,5.854,20.903 M384.208,214.023
	c0-5.397-1.22-9.694-3.678-12.89c-2.751-3.566-6.834-5.342-12.242-5.342c-5.305,0-9.31,1.91-12.016,5.735
	c-2.249,3.193-3.376,7.358-3.376,12.499c0,5.92,0.905,10.293,2.701,13.125c2.505,3.928,7.133,5.892,13.892,5.892
	c5.708,0,9.709-1.908,12.019-5.736c1.8-2.987,2.703-7.407,2.703-13.283 M457.685,224.864c0,4.82-1.524,8.878-4.581,12.222
	c-3.053,3.338-6.937,4.951-11.637,4.951l-37.164-0.077v-9.902h30.629c2.047,0,3.784-0.502,5.181-1.503
	c1.598-1.149,2.403-2.718,2.367-4.712c0-4.667-3.157-6.994-9.465-6.994h-15.468c-4.454,0-8.358-1.441-11.712-4.325
	c-3.351-2.888-5.028-6.545-5.028-11.002c0-4.928,1.627-8.909,4.881-11.943c3.304-3.092,7.632-4.635,12.992-4.635h35.52v9.43h-31.233
	c-1.398,0-2.825,0.63-4.279,1.881c-1.402,1.21-2.103,2.643-2.103,4.328c-0.028,1.81,0.705,3.553,2.026,4.796
	c1.403,1.262,3.077,1.881,5.031,1.881h17.051c5.303,0,9.457,1.447,12.463,4.328c3.056,2.83,4.581,6.603,4.581,11.315"/>
<g transform="matrix(1.161966 0 0 1.161966 -9.717901 -6.441902)">
	<g>
		<path fill="#932279" d="M274.286,90.884l4.02,3.998l-4.02,3.999h-28.292v13.27l-17.251-17.346l17.251-17.019v13.021
			L274.286,90.884z"/>
		<path fill="#EFA724" d="M287.101,86.193l-4.001,4.02l-3.998-4.02v-28.29h-13.313l17.348-17.252l17.017,17.252H287.1
			L287.101,86.193L287.101,86.193z"/>
		<path fill="#262577" d="M291.79,98.997l-4.02-3.996l4.02-3.998h28.29V77.692l17.25,17.347l-17.25,17.018V99.037L291.79,98.997z"/>
		<path fill="#9CCD2A" d="M278.977,103.69l3.997-4.022l4,4.022v28.291h13.314l-17.348,17.252l-17.02-17.252h13.024L278.977,103.69z"
			/>
	</g>
	<g>
		<path fill="#9CCD2A" stroke="#FFFFFF" stroke-width="0.623" d="M244.977,56.885h34.377v34.378h-34.377V56.885z"/>
		<path fill="#932279" stroke="#FFFFFF" stroke-width="0.623" d="M286.723,56.885h34.376v34.378h-34.376V56.885z"/>
		<path fill="#EFA724" stroke="#FFFFFF" stroke-width="0.623" d="M286.723,98.627h34.376v34.377h-34.376V98.627z"/>
		<path fill="#262577" stroke="#FFFFFF" stroke-width="0.623" d="M244.977,98.627h34.377v34.377h-34.377V98.627z"/>
		<path fill="none" stroke="#FFFFFF" stroke-width="0.623" d="M229.213,94.94l24.309-24.309l24.311,24.309l-24.311,24.309
			L229.213,94.94z M258.731,65.424l24.308-24.308l24.308,24.308l-24.308,24.309L258.731,65.424z M288.238,94.94l24.315-24.309
			l24.306,24.309l-24.306,24.309L288.238,94.94z M258.731,124.457l24.308-24.308l24.308,24.308l-24.308,24.31L258.731,124.457z"/>
	</g>
</g>
</svg>
