<?xml version="1.0" encoding="utf-8"?>
<!-- Generator: Adobe Illustrator 16.0.0, SVG Export Plug-In . SVG Version: 6.00 Build 0)  -->
<!DOCTYPE svg PUBLIC "-//W3C//DTD SVG 1.1//EN" "http://www.w3.org/Graphics/SVG/1.1/DTD/svg11.dtd">
<svg version="1.1"
	 id="svg4" sodipodi:docname="drupal-ar21.svg" inkscape:version="0.92.4 (5da689c313, 2019-01-14)" xmlns:dc="http://purl.org/dc/elements/1.1/" xmlns:cc="http://creativecommons.org/ns#" xmlns:rdf="http://www.w3.org/1999/02/22-rdf-syntax-ns#" xmlns:svg="http://www.w3.org/2000/svg" xmlns:sodipodi="http://sodipodi.sourceforge.net/DTD/sodipodi-0.dtd" xmlns:inkscape="http://www.inkscape.org/namespaces/inkscape"
	 xmlns="http://www.w3.org/2000/svg" xmlns:xlink="http://www.w3.org/1999/xlink" x="0px" y="0px" width="640px" height="300px"
	 viewBox="0 0 640 300" enable-background="new 0 0 640 300" xml:space="preserve">
<sodipodi:namedview  id="namedview6" inkscape:pageopacity="0" inkscape:pageshadow="2" inkscape:window-width="1920" inkscape:window-height="1001" inkscape:window-x="-9" inkscape:window-y="-9" inkscape:current-layer="svg4" inkscape:window-maximized="1" pagecolor="#ffffff" showgrid="false" inkscape:zoom="5.2149125" bordercolor="#666666" borderopacity="1" objecttolerance="10" inkscape:cx="70.508475" gridtolerance="10" inkscape:cy="64" guidetolerance="10">
	</sodipodi:namedview>
<g>
	<path fill="#2D5992" d="M434.975,179.194h-7.931v-1.761c0-8.128,0-16.157,0-24.284c0-0.588,0-1.078-0.1-1.665
		c-0.587-3.82-2.937-6.072-6.754-6.462c-2.645-0.197-5.191-0.098-7.736,0.588c-1.469,0.391-1.565,0.391-1.565,1.957
		c0,9.891,0,19.782,0,29.67c0,0.587-0.1,1.272-0.1,1.957h-7.833c0-0.487-0.099-0.879-0.099-1.37c0-11.75,0-23.502,0-35.251
		c0-1.372,0-1.469,1.177-1.861c6.56-2.251,13.314-3.036,20.171-1.86c1.077,0.195,2.152,0.489,3.23,0.979
		c4.798,1.958,7.441,5.68,7.539,10.869c0.195,9.302,0,18.604,0,27.808C435.072,178.707,435.072,178.902,434.975,179.194"/>
	<path fill="#2D5992" d="M467.386,138.364h7.833c0,0.489,0.099,0.979,0.099,1.371c0,11.75,0,23.501,0,35.25
		c0,1.371,0,1.371-1.273,1.958c-2.545,0.981-5.287,1.567-7.932,1.86c-3.525,0.394-7.052,0.687-10.479,0
		c-1.662-0.293-3.23-0.684-4.798-1.369c-4.014-1.665-6.071-4.996-6.757-9.206c-0.194-1.369-0.293-2.739-0.293-4.11
		c0-8.03,0-15.96,0-23.991v-1.761h8.028v1.761c0,8.128,0,16.158,0,24.284c0,0.98,0.1,1.959,0.295,2.938
		c0.489,2.351,1.862,3.819,4.112,4.603c2.056,0.685,4.112,0.685,6.267,0.488c1.272-0.097,2.546-0.488,3.917-0.684
		c0.686-0.099,0.979-0.491,0.979-1.275c0-0.487,0-0.979,0-1.469c0-9.497,0-19.093,0-28.591
		C467.287,139.833,467.386,139.146,467.386,138.364"/>
	<path fill="#2D5992" d="M481.095,179.291c4.699-7.244,9.204-14.195,13.806-21.246c-4.21-6.464-8.322-12.925-12.729-19.681h3.621
		c1.372,0,2.742,0.097,4.113,0c0.979-0.098,1.566,0.391,2.056,1.273c2.252,3.917,4.504,7.735,6.856,11.653
		c0.293,0.49,0.585,0.883,0.979,1.566c0.392-0.588,0.684-0.881,0.881-1.273c2.35-3.917,4.699-7.834,6.952-11.848
		c0.489-0.979,1.174-1.274,2.153-1.274c1.959,0.098,4.015,0,5.975,0c0.392,0,0.88,0,1.468,0.098
		c-0.392,0.588-0.588,1.077-0.881,1.469c-3.623,5.68-7.246,11.26-10.968,16.94c-0.588,0.979-0.588,1.566,0,2.447
		c3.917,5.877,7.734,11.848,11.555,17.725c0.392,0.685,0.882,1.272,1.371,2.151c-0.489,0.1-0.784,0.1-1.077,0.1
		c-2.251,0-4.604,0-6.854,0c-0.881,0-1.273-0.294-1.763-0.979c-2.644-4.407-5.287-8.812-7.931-13.222
		c-0.294-0.487-0.589-0.879-0.98-1.565c-0.489,0.784-0.784,1.274-1.174,1.763c-2.546,4.31-5.188,8.518-7.735,12.827
		c-0.489,0.783-0.979,1.176-1.959,1.176C486.578,179.194,484.032,179.291,481.095,179.291"/>
	<path fill="#2D5992" d="M351.449,119.563h7.933c0.587,0.686,0.392,1.469,0.392,2.153c0,15.961,0,31.824,0,47.785
		c0,0.882,0.096,1.665,0.096,2.645h18.41v6.854c-1.076,0.295-24.677,0.394-26.83,0.099c0-3.917,0-7.835,0-11.849
		c0-4.013,0-7.931,0-11.946V143.26c0-4.014,0-7.932,0-11.947C351.449,127.493,351.352,123.577,351.449,119.563"/>
	<path fill="#2D5992" d="M580.09,149.625c0.1,5.189-0.393,10.28-1.763,15.177c-0.979,3.426-2.448,6.56-4.798,9.204
		c-2.743,3.036-6.071,4.701-10.087,5.188c-2.643,0.295-5.189,0.196-7.637-0.487c-4.897-1.373-8.127-4.701-10.381-9.304
		c-1.567-3.229-2.352-6.657-2.938-10.183c-0.684-4.407-0.684-8.813-0.587-13.219c0.195-5.189,1.176-10.183,3.231-14.884
		c1.469-3.231,3.428-6.072,6.265-8.225c3.623-2.742,7.639-3.525,12.046-3.036c4.21,0.489,7.639,2.251,10.38,5.482
		c1.566,1.958,2.742,4.113,3.721,6.464c1.663,4.406,2.35,9.008,2.645,13.708C580.189,146.98,580.09,148.253,580.09,149.625
		 M546.603,149.819c0.098,2.352,0.195,4.603,0.489,6.952c0.392,3.428,1.076,6.856,2.645,9.987c2.055,4.016,5.091,6.661,9.693,7.149
		c4.015,0.392,7.638-0.587,10.478-3.82c1.761-1.958,2.937-4.406,3.72-6.951c0.979-3.133,1.372-6.463,1.566-9.792
		c0.393-5.189,0-10.38-0.979-15.472c-0.684-3.231-1.859-6.168-4.015-8.714c-4.209-5.092-12.336-4.994-16.548-1.078
		c-2.448,2.251-4.016,4.993-4.994,8.226C547.092,140.713,546.603,145.217,546.603,149.819"/>
	<path fill="#2D5992" d="M584.693,169.109c0.586,0.294,0.979,0.491,1.468,0.783c4.406,2.253,9.106,3.623,14.101,3.527
		c1.86,0,3.72-0.394,5.386-1.274c3.036-1.566,4.603-4.211,4.994-7.736c0.392-4.21-1.077-7.539-4.505-9.987
		c-2.35-1.664-4.799-2.841-7.344-4.015c-2.447-1.174-4.993-2.351-7.345-3.721c-2.938-1.762-5.19-4.308-6.07-7.833
		c-0.98-4.114-0.784-8.226,0.978-12.143c1.862-4.112,5.093-6.462,9.303-7.246c5.679-1.077,11.065-0.195,16.156,2.645
		c1.273,0.686,1.372,0.88,0.882,2.251c-0.392,1.175-0.782,2.35-1.173,3.722c-0.492-0.197-0.98-0.294-1.274-0.489
		c-2.84-1.468-5.876-2.35-9.107-2.644c-1.86-0.195-3.72-0.098-5.483,0.489c-3.721,1.274-6.169,4.602-5.875,9.4
		c0.194,2.937,1.469,5.189,3.82,6.756c1.761,1.175,3.623,2.055,5.58,3.036c2.448,1.274,4.896,2.35,7.244,3.525
		c1.078,0.586,2.058,1.175,2.94,1.957c4.896,3.721,6.754,8.715,6.167,14.786c-0.194,1.762-0.49,3.525-1.174,5.092
		c-1.862,4.797-5.387,7.638-10.184,8.616c-7.147,1.371-13.906,0.099-20.172-3.428c-1.371-0.782-1.371-0.979-0.882-2.351
		c0.295-0.881,0.686-1.762,0.98-2.644C584.301,169.796,584.497,169.501,584.693,169.109"/>
	<path fill="#2D5992" d="M338.329,138.56c0-0.686,0.097-1.372,0.097-1.959c0-5.091,0-10.085,0-15.177
		c0-0.587,0.098-1.176,0.098-1.762h3.918c0.096,0.489,0.194,0.979,0.194,1.469c0,1.567,0,3.133,0,4.799c0,16.254,0,32.41,0,48.665
		c0,0.979-0.294,1.469-1.078,1.86c-2.35,1.372-4.896,2.056-7.441,2.447c-3.034,0.49-6.07,0.588-9.204,0.098
		c-4.698-0.683-7.833-3.229-9.597-7.735c-1.078-2.839-1.664-5.874-1.861-9.007c-0.292-4.799-0.195-9.597,0.979-14.296
		c0.295-0.979,0.587-1.959,0.979-2.938c1.86-4.406,5.191-6.756,9.89-7.345c4.016-0.489,7.933-0.097,11.947,0.785
		C337.545,138.461,337.838,138.56,338.329,138.56 M338.426,158.437c0-4.7,0-9.4,0-14.101c0-1.469,0-1.566-1.371-1.861
		c-3.23-0.979-6.464-1.372-9.79-1.175c-3.332,0.196-6.072,1.567-7.541,4.799c-0.687,1.664-1.275,3.33-1.567,5.093
		c-0.784,4.503-0.784,9.007-0.196,13.513c0.292,1.957,0.784,3.915,1.37,5.774c0.979,2.742,3.036,4.41,5.776,4.897
		c3.917,0.784,7.835,0.295,11.751-0.784c1.469-0.391,1.469-0.489,1.469-2.056C338.426,167.737,338.426,163.038,338.426,158.437"/>
	<path fill="#2D5992" d="M237.765,158.437c0-3.623,0.098-7.344,1.175-10.87c0.197-0.587,0.392-1.272,0.588-1.859
		c1.567-4.31,4.603-7.05,9.106-7.835c3.33-0.586,6.659-0.586,9.988,0.392c3.231,0.88,5.484,2.937,6.952,5.875
		c1.175,2.35,1.958,4.896,2.155,7.541c0.294,3.525,0.294,7.147,0.294,10.674c0,2.74-0.684,5.483-1.567,8.125
		c-1.664,4.994-4.993,7.934-10.183,8.52c-2.645,0.293-5.287,0.293-7.833-0.195c-4.407-0.882-7.345-3.524-8.912-7.733
		c-1.077-3.036-1.762-6.071-1.762-9.305C237.765,160.689,237.765,159.612,237.765,158.437 M264.008,158.631
		c-0.195-2.25-0.195-4.6-0.489-6.854c-0.294-2.252-0.881-4.504-2.056-6.463c-0.979-1.762-2.447-3.036-4.504-3.623
		c-2.154-0.588-4.309-0.686-6.561-0.392c-3.525,0.491-5.875,2.448-6.953,5.777c-0.587,1.664-1.078,3.525-1.272,5.289
		c-0.294,3.426-0.294,6.952-0.196,10.38c0.098,2.546,0.489,4.994,1.468,7.441c1.077,2.547,2.84,4.309,5.483,4.994
		c2.35,0.587,4.602,0.587,6.951,0.195c3.33-0.587,5.483-2.643,6.561-5.876c0.195-0.49,0.294-0.979,0.392-1.468
		C263.714,164.998,263.91,161.864,264.008,158.631"/>
	<path fill="#2D5992" d="M214.461,172.731c0.489,1.174,0.979,2.252,1.469,3.429c-0.197,0.195-0.392,0.392-0.588,0.489
		c-6.462,3.034-12.925,3.526-19.485,0.588c-4.211-1.862-7.148-5.287-9.303-9.4c-1.861-3.622-2.84-7.542-3.33-11.653
		c-0.489-4.013-0.489-8.028,0-12.044c0.686-5.775,2.35-11.163,6.072-15.667c4.014-4.896,9.303-7.148,15.472-7.05
		c3.329,0,6.561,0.588,9.694,2.057c0.489,0.196,0.979,0.489,1.567,0.784c-0.489,1.272-0.979,2.448-1.469,3.721
		c-0.588-0.294-0.979-0.392-1.371-0.685c-3.427-1.664-7.149-2.155-10.869-1.566c-4.211,0.588-7.442,2.839-9.89,6.267
		c-2.252,3.133-3.428,6.756-4.113,10.575c-0.979,6.072-0.881,12.044,0.489,18.017c0.979,4.211,2.839,7.934,6.072,10.771
		c2.644,2.352,5.679,3.528,9.204,3.623c3.427,0.098,6.658-0.392,9.792-2.056C213.97,172.831,214.167,172.831,214.461,172.731"/>
	<path fill="#2D5992" d="M301.511,138.364h3.917c0.392,1.077,0.489,36.035,0.098,38.188c-1.862,0.979-3.917,1.566-6.071,1.958
		c-3.917,0.784-7.835,1.174-11.75,0.489c-1.468-0.292-2.937-0.684-4.309-1.273c-3.819-1.763-5.778-5.091-6.366-9.203
		c-0.195-1.273-0.195-2.448-0.195-3.721c0-8.128,0-16.255,0-24.381c0-0.588,0.098-1.274,0.098-1.958h4.015
		c0,0.685,0.097,1.273,0.097,1.86c0,8.225,0,16.352,0,24.578c0,1.371,0.098,2.742,0.392,4.111c0.783,3.427,3.036,5.484,6.365,6.268
		c2.447,0.587,4.994,0.49,7.441,0.194c1.666-0.194,3.33-0.686,4.994-1.076c0.881-0.194,1.175-0.684,1.175-1.565
		c-0.098-2.353,0-4.799,0-7.149c0-8.422,0-16.842,0-25.263C301.413,139.733,301.511,139.049,301.511,138.364"/>
	<path fill="#2D5992" d="M386.407,138.364c0.49,0,0.784-0.098,1.077-0.098c2.153,0,4.407,0,6.56,0
		c0.394,1.175,0.489,39.168,0.099,40.832h-7.735V138.364L386.407,138.364z"/>
	<path fill="#2D5992" d="M228.854,179.194c-0.294,0-0.587,0.097-0.783,0.097c-0.979,0-1.958,0-2.938,0
		c-0.392-1.075-0.489-57.575-0.098-59.631h3.819C229.148,120.836,229.148,177.824,228.854,179.194"/>
	<path fill="#2D5992" d="M395.022,126.124c0,2.645-2.152,4.7-4.895,4.603c-2.644-0.099-4.7-2.155-4.7-4.7
		c0-2.547,2.153-4.602,4.799-4.602C392.967,121.424,395.022,123.479,395.022,126.124"/>
	<path fill="#2D5992" d="M524.179,132.782c0.784-0.294,1.274,0,1.47,0.783c0.195,0.784,0.489,1.567,0.783,2.547
		c0.687-0.881,0.784-1.761,1.078-2.547c0.194-0.783,0.588-1.077,1.566-0.783c0.294,1.664,0.587,3.427,0.684,5.287
		c-1.272,0-0.881-0.979-0.979-1.567c-0.097-0.587-0.195-1.272-0.294-1.861c-0.099,0-0.195,0-0.296,0
		c-0.293,0.881-0.586,1.861-0.979,2.742c-0.097,0.195-0.293,0.392-0.49,0.588c-0.194-0.196-0.489-0.392-0.586-0.686
		c-0.393-0.881-0.587-1.861-0.979-2.84c-0.979,1.078-0.097,2.547-1.076,3.426c-0.099,0-0.196,0-0.295,0
		C523.297,137.09,523.492,135.034,524.179,132.782"/>
	<path fill="#2D5992" d="M522.905,133.174c-0.392,0.195-0.881,0.489-1.37,0.783v4.114c-0.295,0-0.588,0.097-0.979,0.097v-4.211
		c-0.587-0.294-0.979-0.489-1.469-0.684c0.685-0.687,1.86-0.784,3.621-0.392C522.71,132.978,522.809,133.075,522.905,133.174"/>
	<path fill="#2D5992" d="M81.976,85.78c0.294-0.098,0.489-0.195,0.587-0.294c5.386-1.664,10.869-2.742,16.548-2.448
		c14.59,0.881,26.34,7.05,35.055,18.801c4.113,5.483,6.658,11.653,7.931,18.409c0.392,1.861,0.098,3.72-0.294,5.583
		c-1.567,9.499-5.776,17.527-12.633,24.283c-0.195,0.196-0.391,0.392-0.586,0.489c-0.098,0-0.195,0-0.294,0.099
		c0.195-0.587,0.294-1.077,0.489-1.665c3.036-10.478,2.742-20.759-0.881-31.041c-0.979-2.742-2.447-5.189-4.209-7.54
		c-1.372-1.762-2.645-3.525-4.014-5.287c-8.128-10.479-18.801-16.745-31.824-18.801C85.894,86.172,84.032,86.075,81.976,85.78"/>
	<path fill="#2D5992" d="M118.99,129.354c-8.128-14.395-19.876-23.598-36.23-26.537c-16.255-2.937-30.454,1.469-43.085,12.142
		c0.195-0.392,0.294-0.784,0.489-1.078c6.659-11.848,16.451-19.584,29.67-22.521c13.121-2.939,25.459-0.588,36.719,6.756
		c0.979,0.686,1.861,1.468,2.644,2.448c6.462,8.028,9.597,17.234,9.694,27.515C119.087,128.474,119.087,128.864,118.99,129.354"/>
	<path fill="#2D5992" d="M74.143,129.943c-14.295,7.734-23.598,19.387-26.536,35.543c-2.938,16.06,1.566,30.258,12.534,42.692
		c-0.489-0.193-0.784-0.293-0.979-0.488c-12.828-7.051-20.857-17.723-23.501-32.217c-2.251-12.237,0.391-23.598,7.344-33.879
		c0.491-0.687,0.98-1.274,1.666-1.762c6.952-5.778,14.981-9.106,24.088-9.89c1.763-0.195,3.525-0.195,5.386-0.294v0.294H74.143z"/>
	<path fill="#2D5992" d="M152.772,188.009c-1.958,4.112-4.503,7.636-7.54,10.87c-7.736,7.932-17.038,12.631-28.104,13.806
		c-11.261,1.174-21.543-1.469-30.844-7.933c-0.587-0.393-1.077-0.882-1.469-1.369c-5.482-6.464-8.813-13.908-9.89-22.326
		c-0.195-1.862-0.294-3.623-0.391-5.483c0-0.589,0-1.175,0.195-1.762c7.834,14.295,19.487,23.5,35.544,26.438
		C126.333,203.187,140.532,198.681,152.772,188.009"/>
	<path fill="#2D5992" d="M96.075,120.64c-15.764-4.701-30.648-3.134-44.063,6.267c-13.415,9.303-20.27,22.522-21.347,38.971
		c-0.196-0.392-0.294-0.586-0.392-0.88c-7.637-24.187,6.659-50.43,31.139-57.187c0.978-0.293,1.958-0.489,2.938-0.783
		c2.644-0.686,5.287-0.294,7.833,0.293c9.008,1.763,16.647,5.875,23.012,12.338C95.489,119.954,95.684,120.248,96.075,120.64"/>
	<path fill="#2D5992" d="M110.47,217.481c-1.859,0.489-3.72,0.979-5.679,1.371c-19.583,3.721-39.168-5.678-48.47-23.303
		c-2.35-4.31-3.917-8.912-4.7-13.71c-0.196-1.272,0-2.74,0.196-4.016c1.372-9.89,5.678-18.408,12.827-25.36
		c0.195-0.195,0.489-0.393,0.783-0.684c-4.7,15.764-3.134,30.551,6.169,44.063c9.302,13.414,22.521,20.268,38.677,21.346
		C110.373,217.287,110.373,217.384,110.47,217.481"/>
	<path fill="#2D5992" d="M119.38,173.516c14.297-7.735,23.501-19.389,26.439-35.446c2.938-16.059-1.566-30.258-12.142-42.693
		c0.686,0.294,1.371,0.686,1.959,0.979c12.239,7.344,19.878,17.92,22.228,31.921c2.056,12.143-0.489,23.306-7.54,33.486
		c-0.392,0.59-0.979,1.176-1.568,1.666c-6.659,5.58-14.394,8.912-23.01,9.891c-2.154,0.194-4.211,0.295-6.366,0.392
		C119.479,173.713,119.479,173.614,119.38,173.516"/>
	<path fill="#2D5992" d="M163.248,137.188c0.979,2.448,1.567,5.092,1.959,7.637c1.37,10.771-0.491,20.856-6.366,30.159
		c-7.148,11.359-17.332,18.311-30.453,20.857c-1.861,0.392-3.623,0.097-5.483-0.197c-9.792-1.564-18.016-5.973-24.871-13.119
		c-0.098-0.098-0.195-0.197-0.294-0.49c15.764,4.7,30.551,3.134,43.966-6.17C155.122,166.564,161.976,153.442,163.248,137.188"/>
	<path fill="#2D5992" d="M114.976,131.019c-0.196-0.195-0.392-0.392-0.588-0.588c-2.448-2.153-5.092-4.112-7.932-5.776
		c-0.489-0.294-1.077-0.783-1.37-1.272c-3.917-5.875-8.912-10.674-14.982-14.395c-0.195-0.098-0.391-0.294-0.588-0.392
		c-0.098,0-0.098-0.098-0.294-0.392C100.972,112.415,109.49,119.954,114.976,131.019"/>
	<path fill="#2D5992" d="M53.58,159.612c1.861-9.106,14.395-23.306,22.619-25.754c-0.195,0.294-0.392,0.489-0.489,0.686
		c-2.252,2.448-4.113,5.19-5.875,8.029c-0.294,0.489-0.686,0.881-1.078,1.175c-5.973,4.014-10.869,9.107-14.688,15.275
		C53.873,159.121,53.775,159.221,53.58,159.612"/>
	<path fill="#2D5992" d="M60.531,126.907c7.246-4.994,26.928-6.168,33.781-2.251c-2.251,0.294-4.503,0.587-6.853,0.979
		c-0.979,0.196-2.056,0.392-3.036,0.686c-0.978,0.294-1.958,0.294-3.036,0.098c-6.659-1.274-13.318-1.175-19.878,0.391
		C61.315,126.808,61.021,126.808,60.531,126.907"/>
	<path fill="#2D5992" d="M71.793,187.422c-5.386-11.066-6.072-22.326-2.251-33.979c0.195,1.469,0.294,3.035,0.489,4.504
		c0.294,2.058,0.783,4.016,1.175,5.974c0.098,0.587,0.195,1.176,0.098,1.762c-1.468,7.149-1.272,14.296,0.489,21.443
		C71.793,187.225,71.793,187.322,71.793,187.422"/>
	<path fill="#2D5992" d="M104.4,194.469c-11.555-4.208-20.074-11.65-25.655-22.616c0.195,0.192,0.489,0.293,0.687,0.584
		c2.447,2.155,5.091,4.016,7.833,5.681c0.49,0.295,0.98,0.588,1.175,1.076c4.014,6.071,9.106,10.968,15.373,14.785
		c0.097,0.1,0.294,0.196,0.392,0.296C104.302,194.177,104.302,194.276,104.4,194.469"/>
	<path fill="#2D5992" d="M117.717,168.719c0.489-0.589,1.078-1.176,1.468-1.763c1.567-2.251,3.134-4.505,4.799-6.757
		c0.294-0.488,0.686-0.881,1.078-1.174c5.875-3.917,10.673-8.813,14.395-14.786c0.097-0.195,0.195-0.392,0.392-0.489
		c0-0.098,0.098-0.098,0.392-0.195c-4.309,11.457-11.653,19.878-22.326,25.458C117.912,168.817,117.814,168.719,117.717,168.719"/>
	<path fill="#2D5992" d="M124.277,149.232c-0.294-3.72-0.881-7.344-1.861-10.967c-0.097-0.391,0-0.783,0-1.078
		c0.881-4.503,1.274-9.008,0.783-13.61c-0.196-2.447-0.783-4.896-1.175-7.344c0-0.294-0.098-0.489,0-0.785
		c2.644,5.189,4.112,10.772,4.406,16.647C126.921,137.972,126.235,143.748,124.277,149.232"/>
	<path fill="#2D5992" d="M133.09,175.769c-10.967,5.286-22.229,5.973-33.685,2.447c0-0.098,0-0.195,0-0.295
		c1.176-0.097,2.351-0.195,3.525-0.293c2.35-0.393,4.603-0.784,6.855-1.274c0.685-0.1,1.274-0.194,1.958-0.1
		c6.953,1.374,13.905,1.274,20.857-0.392C132.796,175.769,132.991,175.769,133.09,175.769"/>
</g>
</svg>
