<?xml version="1.0" encoding="utf-8"?>
<!-- Generator: Adobe Illustrator 16.0.0, SVG Export Plug-In . SVG Version: 6.00 Build 0)  -->
<!DOCTYPE svg PUBLIC "-//W3C//DTD SVG 1.1//EN" "http://www.w3.org/Graphics/SVG/1.1/DTD/svg11.dtd">
<svg version="1.1"
	 id="svg4" sodipodi:docname="drupal-ar21.svg" inkscape:version="0.92.4 (5da689c313, 2019-01-14)" xmlns:dc="http://purl.org/dc/elements/1.1/" xmlns:cc="http://creativecommons.org/ns#" xmlns:rdf="http://www.w3.org/1999/02/22-rdf-syntax-ns#" xmlns:svg="http://www.w3.org/2000/svg" xmlns:sodipodi="http://sodipodi.sourceforge.net/DTD/sodipodi-0.dtd" xmlns:inkscape="http://www.inkscape.org/namespaces/inkscape"
	 xmlns="http://www.w3.org/2000/svg" xmlns:xlink="http://www.w3.org/1999/xlink" x="0px" y="0px" width="640px" height="300px"
	 viewBox="0 0 640 300" enable-background="new 0 0 640 300" xml:space="preserve">
<sodipodi:namedview  id="namedview6" inkscape:pageopacity="0" inkscape:pageshadow="2" inkscape:window-width="1920" inkscape:window-height="1001" inkscape:window-x="-9" inkscape:window-y="-9" inkscape:current-layer="svg4" inkscape:window-maximized="1" pagecolor="#ffffff" showgrid="false" inkscape:zoom="5.2149125" bordercolor="#666666" borderopacity="1" objecttolerance="10" inkscape:cx="70.508475" gridtolerance="10" inkscape:cy="64" guidetolerance="10">
	</sodipodi:namedview>
<path fill="#F26C32" d="M124.311,125.714h29.316l-4.532,17.395c-0.639,2.279-2.005,4.287-3.891,5.717
	c-1.889,1.457-4.217,2.229-6.599,2.191h-13.534c-2.979-0.051-5.886,0.914-8.242,2.734c-2.409,1.871-4.155,4.461-4.989,7.393
	c-0.597,2.159-0.671,4.435-0.211,6.629c0.457,1.987,1.315,3.861,2.524,5.504c1.232,1.633,2.839,2.945,4.684,3.834
	c1.937,0.959,4.072,1.446,6.234,1.429h8.212c1.506-0.03,2.935,0.674,3.832,1.886c0.956,1.173,1.265,2.747,0.819,4.196l-5.17,19.222
	h-9.124c-5.976,0.06-11.877-1.352-17.181-4.104c-5.073-2.572-9.519-6.225-13.018-10.707c-3.454-4.481-5.865-9.676-7.057-15.206
	c-1.274-5.859-1.117-11.942,0.458-17.73l0.517-2.1c1.096-4.084,2.863-7.96,5.23-11.464c2.332-3.399,5.186-6.406,8.456-8.912
	c3.27-2.508,6.929-4.471,10.828-5.808C115.867,126.411,120.076,125.701,124.311,125.714z M139.122,203.966l25.485-95.77
	c0.639-2.319,2.029-4.363,3.953-5.809c1.886-1.485,4.229-2.269,6.629-2.22h27.098c5.934-0.036,11.788,1.362,17.063,4.076
	c10.386,5.278,17.847,14.95,20.314,26.336c1.283,5.854,1.105,11.932-0.517,17.701l-0.517,1.946c-1.09,4.09-2.848,7.975-5.201,11.497
	c-2.272,3.475-5.096,6.558-8.363,9.124c-6.677,5.144-14.868,7.933-23.296,7.936h-23.478l4.562-17.79
	c0.63-2.275,1.987-4.283,3.861-5.721c1.897-1.461,4.235-2.243,6.632-2.218h7.754c6.225-0.014,11.643-4.265,13.136-10.311
	c0.591-2.07,0.653-4.254,0.184-6.356c-0.445-1.991-1.304-3.868-2.524-5.505c-1.277-1.595-2.884-2.893-4.713-3.801
	c-1.883-0.967-3.968-1.478-6.083-1.49h-14.63l-18.824,70.434c-0.653,2.275-2.02,4.277-3.894,5.721
	c-1.841,1.455-4.128,2.239-6.478,2.219H139.122z M300.885,152.842l0.395-1.43c0.193-0.605,0.068-1.27-0.333-1.764
	c-0.377-0.515-0.977-0.819-1.613-0.822h-42.153c-5.052,0.022-9.421-3.511-10.46-8.454c-0.38-1.662-0.38-3.387,0-5.049l2.614-9.853
	h57.146c3.379-0.049,6.718,0.756,9.703,2.342c2.857,1.47,5.358,3.546,7.33,6.083c1.97,2.544,3.354,5.495,4.046,8.637
	c0.728,3.314,0.656,6.755-0.214,10.036l-10.25,38.167c-2.043,7.764-9.094,13.148-17.122,13.08l-42.153-0.244
	c-7.012,0.054-13.647-3.189-17.912-8.761c-2.02-2.709-3.43-5.818-4.137-9.124c-0.79-3.451-0.707-7.048,0.244-10.46l0.517-1.948
	c0.621-2.406,1.651-4.69,3.042-6.748c1.39-2.022,3.083-3.819,5.019-5.322c1.931-1.42,4.078-2.519,6.356-3.255
	c2.376-0.823,4.876-1.236,7.389-1.218h35.402l-2.587,9.732c-0.647,2.275-2.014,4.279-3.891,5.717
	c-1.851,1.443-4.134,2.213-6.478,2.192h-15.815c-1.369-0.086-2.583,0.867-2.83,2.219c-0.282,0.873-0.086,1.832,0.52,2.524
	c0.553,0.709,1.411,1.113,2.311,1.096h25.545c0.888,0.012,1.752-0.268,2.465-0.793c0.687-0.496,1.155-1.235,1.307-2.067l0.244-1.036
	L300.885,152.842z M376.399,125.714c6.017-0.068,11.96,1.341,17.306,4.104c5.094,2.6,9.552,6.298,13.047,10.827
	c3.487,4.551,5.898,9.833,7.054,15.45c1.266,5.877,1.066,11.978-0.576,17.761l-6.478,24.329c-0.395,1.676-1.39,3.146-2.797,4.138
	c-1.354,1.033-3.012,1.586-4.717,1.58H385.22c-3.21,0.063-5.563-2.994-4.684-6.083l7.784-29.438
	c0.601-2.067,0.675-4.254,0.214-6.356c-0.448-1.995-1.318-3.873-2.554-5.506c-2.596-3.394-6.617-5.394-10.888-5.413h-14.538
	l-12.561,47.141c-0.406,1.67-1.401,3.137-2.797,4.135c-1.402,1.051-3.113,1.609-4.868,1.583h-13.896
	c-1.455-0.015-2.818-0.713-3.68-1.886c-0.986-1.174-1.307-2.766-0.853-4.229l19.1-72.136H376.399z M452.796,150.439
	c-1.01,0.779-1.771,1.837-2.188,3.043l-5.84,22.046c-0.359,1.164-0.118,2.426,0.639,3.377c0.704,0.977,1.836,1.553,3.042,1.553
	h53.738l-4.167,15.417c-0.642,2.278-2.008,4.286-3.894,5.718c-1.838,1.464-4.128,2.248-6.478,2.222h-48.841
	c-3.383,0.041-6.725-0.743-9.732-2.281c-2.866-1.461-5.37-3.537-7.33-6.083c-1.948-2.58-3.327-5.548-4.045-8.698
	c-0.726-3.291-0.609-6.71,0.335-9.947l7.906-29.438c0.853-3.142,2.219-6.123,4.045-8.819c3.531-5.291,8.702-9.276,14.72-11.344
	c3.056-1.093,6.275-1.648,9.519-1.642h34.642c3.386-0.034,6.729,0.771,9.729,2.342c2.857,1.471,5.358,3.547,7.33,6.082
	c1.978,2.541,3.332,5.51,3.953,8.668c0.695,3.309,0.611,6.734-0.24,10.006l-2.344,8.821c-0.947,3.766-3.172,7.086-6.297,9.396
	c-3.062,2.364-6.833,3.63-10.703,3.588h-39.171l2.584-9.611c0.57-2.28,1.9-4.294,3.771-5.717c1.889-1.458,4.215-2.23,6.6-2.188
	h15.845c1.372,0.071,2.59-0.873,2.859-2.222l0.518-1.945c0.466-1.882-0.924-3.713-2.86-3.772h-24.116
	C455.018,149.057,453.768,149.563,452.796,150.439L452.796,150.439z M502.187,203.966l26.094-97.959
	c0.407-1.686,1.388-3.179,2.769-4.228c1.398-1.058,3.109-1.623,4.864-1.613h13.899c1.542-0.039,3.012,0.662,3.953,1.886
	c0.948,1.181,1.233,2.759,0.761,4.197l-19.465,72.291c-0.921,3.7-2.486,7.211-4.622,10.371c-2.049,3.05-4.588,5.743-7.514,7.968
	c-2.922,2.239-6.189,3.995-9.67,5.201C509.697,203.327,505.955,203.966,502.187,203.966L502.187,203.966z"/>
</svg>
