<?xml version="1.0" encoding="iso-8859-1"?>
<!-- Generator: Adobe Illustrator 16.0.0, SVG Export Plug-In . SVG Version: 6.00 Build 0)  -->
<!DOCTYPE svg PUBLIC "-//W3C//DTD SVG 1.1//EN" "http://www.w3.org/Graphics/SVG/1.1/DTD/svg11.dtd">
<svg version="1.1"
	 id="svg4" inkscape:version="0.92.4 (5da689c313, 2019-01-14)" sodipodi:docname="drupal-ar21.svg" xmlns:dc="http://purl.org/dc/elements/1.1/" xmlns:cc="http://creativecommons.org/ns#" xmlns:rdf="http://www.w3.org/1999/02/22-rdf-syntax-ns#" xmlns:svg="http://www.w3.org/2000/svg" xmlns:sodipodi="http://sodipodi.sourceforge.net/DTD/sodipodi-0.dtd" xmlns:inkscape="http://www.inkscape.org/namespaces/inkscape"
	 xmlns="http://www.w3.org/2000/svg" xmlns:xlink="http://www.w3.org/1999/xlink" x="0px" y="0px" width="640px" height="300px"
	 viewBox="0 0 640 300" style="enable-background:new 0 0 640 300;" xml:space="preserve">
<sodipodi:namedview  id="namedview6" inkscape:current-layer="svg4" inkscape:window-y="-9" inkscape:window-x="-9" inkscape:window-height="1001" inkscape:window-width="1920" inkscape:pageshadow="2" inkscape:pageopacity="0" inkscape:window-maximized="1" bordercolor="#666666" showgrid="false" pagecolor="#ffffff" guidetolerance="10" inkscape:cy="64" gridtolerance="10" inkscape:cx="70.508475" objecttolerance="10" borderopacity="1" inkscape:zoom="5.2149125">
	</sodipodi:namedview>
<g id="g29" transform="translate(2.1654018,2)">
	
		<path id="path2" sodipodi:nodetypes="cccccssscccccscscccccsccccscccccsccccsscc" inkscape:connector-curvature="0" style="fill:#8D8D8D;" d="
		M192.696,98.836c-8.677-5.41-16.869-7.537-25.057-12.943c-5.078-3.438-12.122-11.627-18.021-18.671
		c-1.146,11.301-4.585,15.885-8.515,19.164c-8.355,6.551-13.596,8.518-20.802,12.45c-6.061,3.11-38.983,22.764-38.983,65.018
		c0,42.267,35.543,73.38,75.015,73.38c39.476,0,73.708-28.659,73.708-72.065C230.043,121.764,197.94,102.109,192.696,98.836z
		 M193.645,221.821c-0.819,0.825-8.355,6.061-17.198,6.88c-8.847,0.824-20.803,1.315-28.01-5.237c-1.145-1.146-0.816-2.783,0-3.44
		c0.821-0.658,1.476-1.146,2.458-1.146c0.982,0,0.821,0,1.313,0.323c3.272,2.62,8.188,4.754,18.67,4.754
		c10.487,0,17.855-2.952,21.129-5.408c1.478-1.149,2.128-0.165,2.292,0.492C194.463,219.696,194.789,220.676,193.645,221.821z
		 M164.979,206.913c1.805-1.636,4.751-4.253,7.534-5.402c2.783-1.145,4.26-0.98,6.881-0.98c2.619,0,5.402,0.157,7.371,1.472
		c1.966,1.307,3.113,4.259,3.766,5.896c0.655,1.637,0,2.62-1.309,3.274c-1.145,0.662-1.311,0.33-2.458-1.798
		c-1.148-2.13-2.132-4.263-7.864-4.263c-5.733,0-7.534,1.969-10.319,4.263c-2.784,2.294-3.766,3.113-4.747,1.798
		C162.852,209.867,163.178,208.557,164.979,206.913z M208.387,208.229c-5.896-0.491-17.692-18.835-25.228-19.166
		c-9.496-0.326-30.138,19.818-46.352,19.818c-9.824,0-12.776-1.472-16.05-3.604c-4.914-3.439-7.372-8.682-7.208-15.884
		c0.167-12.778,12.124-24.733,27.19-24.899c19.163-0.16,32.432,19.004,42.097,18.84c8.187-0.166,23.913-16.215,31.609-16.215
		c8.189,0,10.486,8.517,10.486,13.594c0,5.076-1.641,14.25-5.57,19.979C215.427,206.427,212.971,208.557,208.387,208.229z"/>
	
		<path id="path2-4" sodipodi:nodetypes="cccsscccscccccccccccccccscccccccccccsssccssscsccsssccccssssssccsssscccss" inkscape:connector-curvature="0" style="fill:#8D8D8D;" d="
		M418.182,144.146h-13.602l0.025,25.446c0,7.44-3.191,13.458-10.629,13.458c-7.435,0-10.653-6.018-10.653-13.458V144.17h-13.565
		l-0.005,25.423c0,14.698,9.449,26.61,24.146,26.61c14.695,0,24.277-11.912,24.277-26.61L418.182,144.146z M540.814,128.641h13.536
		v66.248h-13.536V128.641z M358.696,143.595c-11.663-2.694-19.026,8.896-19.331,9.517c-0.153,0.306-0.157,0.484-0.675,0.472
		c-0.426-0.012-0.475-0.472-0.475-0.472l-1.448-8.867h-12.124v50.596h13.593v-27.386c0-2.233,6.026-12.962,17.702-10.2
		c5.904,1.393,8.414,3.896,8.414,3.896v-15.412C362.165,144.599,360.664,144.048,358.696,143.595z M436.626,211.512v-18.209v0.006
		v-6.818c0,0,0.026-0.544,0.514-0.551c0.441-0.007,0.541,0.287,0.645,0.551c1.027,2.565,6.697,12.336,19.274,9.27
		c11.259-3.174,19.519-13.515,19.519-25.789c0-14.789-11.999-26.785-26.792-26.785c-14.795,0-26.786,11.996-26.786,26.785v41.536
		L436.626,211.512z M449.801,156.417c7.487,0,13.559,6.07,13.559,13.554c0,7.493-6.069,13.563-13.559,13.563
		c-7.493,0-13.558-6.07-13.558-13.563C436.237,162.487,442.306,156.417,449.801,156.417z M521.7,194.871h13.628v-24.9
		c0-14.789-11.991-26.783-26.789-26.783c-14.795,0-26.789,11.994-26.789,26.783c0,12.279,8.259,22.615,19.519,25.789
		c12.579,3.066,18.236-6.705,19.274-9.27c0.104-0.264,0.199-0.551,0.639-0.551c0.492,0.008,0.51,0.551,0.51,0.551 M522.084,169.971
		c0,7.493-6.07,13.563-13.559,13.563s-13.559-6.07-13.559-13.563c0-7.483,6.07-13.554,13.559-13.554
		S522.084,162.487,522.084,169.971z M282.071,194.762h-15.457v-66.146h16.586c20.084,0,35.319,3.686,35.319,33.07
		C318.52,190.796,302.382,194.762,282.071,194.762z M285.767,140.082h-5.465v43.2l5.609,0.146c11.509,0,18.92-1.048,18.92-21.743
		C304.832,141.844,298.29,140.082,285.767,140.082z"/>
</g>
</svg>
