<?xml version="1.0" encoding="iso-8859-1"?>
<!-- Generator: Adobe Illustrator 16.0.0, SVG Export Plug-In . SVG Version: 6.00 Build 0)  -->
<!DOCTYPE svg PUBLIC "-//W3C//DTD SVG 1.1//EN" "http://www.w3.org/Graphics/SVG/1.1/DTD/svg11.dtd">
<svg version="1.1"
	 id="svg4" inkscape:version="0.92.4 (5da689c313, 2019-01-14)" sodipodi:docname="drupal-ar21.svg" xmlns:dc="http://purl.org/dc/elements/1.1/" xmlns:cc="http://creativecommons.org/ns#" xmlns:rdf="http://www.w3.org/1999/02/22-rdf-syntax-ns#" xmlns:svg="http://www.w3.org/2000/svg" xmlns:sodipodi="http://sodipodi.sourceforge.net/DTD/sodipodi-0.dtd" xmlns:inkscape="http://www.inkscape.org/namespaces/inkscape"
	 xmlns="http://www.w3.org/2000/svg" xmlns:xlink="http://www.w3.org/1999/xlink" x="0px" y="0px" width="640px" height="300px"
	 viewBox="0 170 640 300" style="enable-background:new 0 170 640 300;" xml:space="preserve">
<sodipodi:namedview  id="namedview6" inkscape:current-layer="svg4" inkscape:window-y="-9" inkscape:window-x="-9" inkscape:window-height="1001" inkscape:window-width="1920" inkscape:pageshadow="2" inkscape:pageopacity="0" inkscape:window-maximized="1" bordercolor="#666666" showgrid="false" pagecolor="#ffffff" guidetolerance="10" inkscape:cy="64" gridtolerance="10" inkscape:cx="70.508475" objecttolerance="10" borderopacity="1" inkscape:zoom="5.2149125">
	</sodipodi:namedview>
<g id="g29" transform="translate(2.1654018,2)">
	
		<path id="path2" sodipodi:nodetypes="cccccssscccccscscccccsccccscccccsccccsscc" inkscape:connector-curvature="0" style="fill:#0073BA;" d="
		M150.35,246.54c-11.613-7.24-22.577-10.087-33.535-17.321c-6.797-4.601-16.223-15.563-24.119-24.99
		c-1.533,15.125-6.136,21.26-11.396,25.648c-11.182,8.767-18.198,11.401-27.842,16.663c-8.112,4.164-52.174,30.467-52.174,87.021
		c0,56.569,47.57,98.211,100.399,98.211c52.835,0,98.651-38.359,98.651-96.451C200.335,277.226,157.369,250.921,150.35,246.54z
		 M151.62,411.143c-1.096,1.103-11.183,8.111-23.018,9.207c-11.841,1.103-27.842,1.76-37.489-7.01c-1.532-1.533-1.092-3.724,0-4.604
		c1.099-0.881,1.976-1.533,3.29-1.533s1.099,0,1.757,0.432c4.379,3.508,10.958,6.363,24.987,6.363
		c14.035,0,23.897-3.951,28.279-7.237c1.978-1.538,2.849-0.222,3.068,0.658C152.715,408.299,153.152,409.609,151.62,411.143z
		 M113.254,391.189c2.416-2.189,6.36-5.692,10.084-7.23c3.724-1.532,5.702-1.313,9.21-1.313c3.505,0,7.231,0.211,9.865,1.971
		c2.631,1.748,4.167,5.699,5.041,7.891c0.877,2.19,0,3.508-1.751,4.383c-1.533,0.885-1.754,0.441-3.29-2.408
		c-1.536-2.849-2.853-5.703-10.524-5.703c-7.674,0-10.084,2.634-13.811,5.703c-3.727,3.072-5.041,4.168-6.354,2.408
		C110.407,395.143,110.844,393.389,113.254,391.189z M171.351,392.95c-7.89-0.658-23.679-25.208-33.765-25.651
		c-12.709-0.438-40.336,26.525-62.036,26.525c-13.149,0-17.1-1.971-21.482-4.824c-6.576-4.604-9.866-11.62-9.647-21.258
		c0.224-17.104,16.226-33.104,36.391-33.326c25.648-0.215,43.407,25.436,56.343,25.215c10.957-0.222,32.005-21.701,42.305-21.701
		c10.961,0,14.035,11.398,14.035,18.193c0,6.794-2.197,19.072-7.456,26.74C180.774,390.538,177.487,393.389,171.351,392.95z"/>
	
		<path id="path2-4" sodipodi:nodetypes="cccsscccscccccccccccccccscccccccccccsssccssscsccsssccccssssssccsssscccss" inkscape:connector-curvature="0" style="fill:#0073BA;" d="
		M452.139,307.183h-18.204l0.034,34.057c0,9.958-4.271,18.012-14.225,18.012c-9.951,0-14.259-8.054-14.259-18.012v-34.025h-18.155
		l-0.007,34.025c0,19.672,12.646,35.615,32.317,35.615c19.667,0,32.492-15.943,32.492-35.615L452.139,307.183z M616.267,286.43
		h18.117v88.666h-18.117V286.43z M372.523,306.446c-15.61-3.607-25.465,11.905-25.873,12.738c-0.204,0.408-0.21,0.647-0.903,0.631
		c-0.57-0.016-0.635-0.631-0.635-0.631l-1.939-11.87h-16.225v67.718h18.191v-36.653c0-2.988,8.066-17.348,23.693-13.652
		c7.902,1.864,11.26,5.215,11.26,5.215v-20.628C377.167,307.789,375.157,307.052,372.523,306.446z M476.823,397.344v-24.369v0.006
		v-9.125c0,0,0.035-0.729,0.688-0.739c0.59-0.007,0.724,0.385,0.863,0.739c1.375,3.433,8.963,16.509,25.797,12.406
		c15.068-4.248,26.123-18.088,26.123-34.515c0-19.795-16.06-35.849-35.859-35.849c-19.801,0-35.85,16.054-35.85,35.849v55.591
		L476.823,397.344z M494.458,323.605c10.021,0,18.146,8.125,18.146,18.142c0,10.028-8.123,18.151-18.146,18.151
		c-10.029,0-18.146-8.123-18.146-18.151C476.303,331.73,484.426,323.605,494.458,323.605z M590.686,375.072h18.239v-33.325
		c0-19.795-16.049-35.846-35.854-35.846c-19.801,0-35.854,16.051-35.854,35.846c0,16.433,11.054,30.267,26.123,34.515
		c16.835,4.103,24.409-8.975,25.797-12.406c0.14-0.354,0.268-0.739,0.855-0.739c0.658,0.012,0.683,0.739,0.683,0.739
		 M591.199,341.747c0,10.028-8.123,18.151-18.146,18.151c-10.023,0-18.146-8.123-18.146-18.151c0-10.017,8.123-18.142,18.146-18.142
		C583.076,323.605,591.199,331.73,591.199,341.747z M269.97,374.927h-20.687v-88.53h22.198c26.881,0,47.271,4.933,47.271,44.261
		C318.753,369.618,297.154,374.927,269.97,374.927z M274.915,301.743h-7.314v57.817l7.508,0.197
		c15.404,0,25.322-1.404,25.322-29.101C300.432,304.101,291.676,301.743,274.915,301.743z"/>
</g>
</svg>
