<svg xmlns="http://www.w3.org/2000/svg" viewBox="0 0 861.97 222.13"><defs><style>.a{fill:#5e6c75;}.b,.d{fill:#0174c3;}.b,.c{fill-rule:evenodd;}.c{fill:#f26f28;}.e{isolation:isolate;}.f{fill:#707e86;}</style></defs><path class="a" d="M281.44,122.12q-18.82,0-32.19-7.25a47.16,47.16,0,0,1-20.06-20.26Q222.5,81.6,222.5,64q0-17.94,7.57-32.12A55.28,55.28,0,0,1,251.41,9.68q13.77-8,31.39-8,22.67,0,38.36,11.7L315,24q-13.86-9.47-31.88-9.47a44,44,0,0,0-23.54,6.32,41.87,41.87,0,0,0-15.69,17.43,55.69,55.69,0,0,0-5.48,25q0,21,11.21,33.43t32.51,12.45q14.49,0,25.47-4.16V72H278.08V59h44.68v54.62Q304.18,122.12,281.44,122.12Z"/><path class="a" d="M379.14,122.12q-19.62,0-31.16-11.66t-11.53-30.9q0-19,11.09-31.19t29.35-12.26q11.52,0,19.73,5.36A32.22,32.22,0,0,1,408.8,56.05a53.66,53.66,0,0,1,4,21.38c0,1-.08,2.32-.24,3.92H351.67q.24,13.79,7.93,21.27t20.34,7.48A40.52,40.52,0,0,0,406,101l4.41,10.9Q397.24,122.12,379.14,122.12ZM352.07,71.27h47.17q-.81-11.29-6.57-17.38T377.3,47.8a23.89,23.89,0,0,0-16.86,6.25Q353.68,60.29,352.07,71.27Z"/><path class="a" d="M464.5,122.12q-20,0-31.2-11.85T422.05,79.35Q422.05,60,433.38,48t31.28-11.93q19.86,0,30.91,11.89t11.05,31.35q0,19.07-11.21,30.92T464.5,122.12Zm0-12q13,0,19.82-8.4t6.85-22.35q0-14.18-6.93-22.7t-19.82-8.53q-13,0-19.95,8.53t-7,22.7q0,13.93,6.93,22.35t20.1,8.38Z"/><path class="a" d="M533.32,120.36V16.65H496.08V3.76h90V16.65H548.61V120.36Z"/><path class="a" d="M585.76,120.36v-62c0-1.81-.1-4.4-.28-7.77s-.36-6.27-.52-8.72l-.25-3.69h15.62L600.49,51q7.46-14.73,22-14.73a33.83,33.83,0,0,1,8.32,1l-.08,13a34.69,34.69,0,0,0-9-1.28q-9.45,0-15.21,6.61t-5.77,19v45.77Z"/><path class="a" d="M672.4,122.2q-15.78,0-23.71-9T640.77,89V38.19h14.65V89q0,10.58,5,15.9t14.47,5.33q10.82,0,16.9-6.17t6.1-15.94V38.19h14.73V100q0,11,.72,20.35h-15l-.4-13.22a30.82,30.82,0,0,1-9.77,10.69Q681.89,122.2,672.4,122.2Z"/><path class="a" d="M756.6,122.12a52.29,52.29,0,0,1-31.39-9.93l4.08-11a49.91,49.91,0,0,0,11.65,6.08A40,40,0,0,0,755.4,110q16.33,0,16.34-12a8.46,8.46,0,0,0-3.69-7.53q-3.67-2.47-14.33-6.08L746.67,82q-4.08-1.44-6.93-2.73A37.06,37.06,0,0,1,734,76a20.17,20.17,0,0,1-4.65-4.24,18.59,18.59,0,0,1-2.84-5.53,23,23,0,0,1-1.08-7.33,21.42,21.42,0,0,1,2.44-10.35,18.46,18.46,0,0,1,6.69-7.12A33.88,33.88,0,0,1,744,37.56a44.26,44.26,0,0,1,11-1.32q16.26,0,27.39,7.12l-4.08,10.58a45.53,45.53,0,0,0-21.63-5.77q-7.92,0-12.25,2.73a8.57,8.57,0,0,0-4.32,7.66c0,3,.86,5.19,2.6,6.61s5.19,3.06,10.37,4.92c4.67,1.55,7.42,2.48,8.25,2.81,3.36,1.17,6,2.19,8.09,3a51.73,51.73,0,0,1,6.52,3.4,20.91,20.91,0,0,1,5.37,4.45,19.78,19.78,0,0,1,3.12,5.81,23.46,23.46,0,0,1,1.24,7.88,25.22,25.22,0,0,1-2.48,11.49,19.31,19.31,0,0,1-6.73,7.69,32.18,32.18,0,0,1-9.21,4.12A39.86,39.86,0,0,1,756.6,122.12Z"/><path class="a" d="M842,120.36h-6.8q-17.46-.17-23.91-6.25t-6.44-22.18V48H789.11V38.19H805.2V17.05l14.42-4.25V38.19h22.27V48H819.62V92.73a34.12,34.12,0,0,0,.6,7.13,13.23,13.23,0,0,0,1.88,4.6,7.44,7.44,0,0,0,4.09,2.76,31.7,31.7,0,0,0,6.32,1.24c2.35.24,5.52.36,9.53.36Z"/><path class="b" d="M74.5,39C90.72,28,108,23.66,122.32,25.76V0H0V123.47H41.82a25.58,25.58,0,0,1-1.38-2.65C28.89,96.39,44.1,59.77,74.5,39Z"/><path class="c" d="M121.64,39.86A58.45,58.45,0,0,0,64.22,109c1.46,6.31,4.82,8.27,7.92,9.6a14.21,14.21,0,0,0,3.62,1,30.9,30.9,0,0,0,18.73-4.85c8.27-5.15,14.4-13.52,17.7-23.06C101.94,92.9,92,94.43,82.47,96.26l.18-18.32,65.61-4.38-.46,61.88L128,136.78v-.09c.1-.65.2-1.31.3-1.94.77-5.2,1.42-10.48,2-15.87.3-3.11.58-6.21.8-9.35a68.05,68.05,0,0,1-8.54,9.26,70.65,70.65,0,0,1-9.65,7.3,68.73,68.73,0,0,1-6.38,3.58,71.14,71.14,0,0,1-13.62,5.1c-3.74.95-10.31,1.41-15.49,1.61a58.41,58.41,0,1,0,44.24-96.52Z"/><path class="a" d="M856.21,109.15a5.61,5.61,0,1,0,5.6,5.62h0a5.59,5.59,0,0,0-5.57-5.61h0m0,10.11a4.51,4.51,0,1,1,4.5-4.52v0a4.49,4.49,0,0,1-4.5,4.5"/><path class="a" d="M854.27,117.85v-6.19h1.9a3.43,3.43,0,0,1,1.15.14,1.47,1.47,0,0,1,.77.62,2,2,0,0,1,.28,1,1.89,1.89,0,0,1-.3,1.06,1.59,1.59,0,0,1-.82.62h0a1.73,1.73,0,0,1,.19.28l1.31,2.4h-1l-1.3-2.46h-1.33v2.46Zm.87-3.22h1.25a1,1,0,0,0,.8-.3,1.18,1.18,0,0,0,.29-.82,1,1,0,0,0-.49-1,1.91,1.91,0,0,0-.85-.14h-1Z"/><path class="d" d="M651.26,188.75q0-7.81,4.17-12.52a13.61,13.61,0,0,1,10.73-4.67,14.6,14.6,0,0,1,4,.52,9.23,9.23,0,0,1,2.9,1.3,20.06,20.06,0,0,1,1.89,1.56,7,7,0,0,1,1.13,1.3l.26.52h.13a18.08,18.08,0,0,1-.13-2.21V159.28h6.31V205.2h-6v-3.12l.06-2.21h-.13c-.08.17-.2.39-.35.65a14.38,14.38,0,0,1-1.11,1.46,10.24,10.24,0,0,1-2,1.89,11.37,11.37,0,0,1-3.09,1.46,13.43,13.43,0,0,1-4.22.65,13,13,0,0,1-10.57-4.75Q651.27,196.49,651.26,188.75Zm6.44,0a13.36,13.36,0,0,0,2.57,8.55,8.2,8.2,0,0,0,6.73,3.22,8.84,8.84,0,0,0,6.77-3q2.73-3,2.73-8.88a14,14,0,0,0-2.44-8.23,7.92,7.92,0,0,0-6.86-3.48,8.61,8.61,0,0,0-6.77,3.16C658.61,182.22,657.7,185.1,657.7,188.75Z"/><path class="d" d="M687.94,165.72v-6.44h6.37v6.44ZM688,205.2V172.29h6.31V205.2Z"/><path class="d" d="M703.89,211.19a18.71,18.71,0,0,0,9,2.21,11.87,11.87,0,0,0,7.55-2.25c1.9-1.49,2.86-3.82,2.86-7v-2.41l.06-2.08h-.13q-3.06,5.15-9.75,5.14a13.23,13.23,0,0,1-10.7-4.78,18.19,18.19,0,0,1-4-12.06q0-7.29,3.83-11.87a13,13,0,0,1,10.62-4.53,16.2,16.2,0,0,1,4.1.49,9.84,9.84,0,0,1,3,1.23,15,15,0,0,1,1.89,1.47,5,5,0,0,1,1,1.23l.32.46h.13a8.39,8.39,0,0,1-.06-1v-3.06h6v31.55a16,16,0,0,1-1.4,6.89,11.75,11.75,0,0,1-3.81,4.71,17.32,17.32,0,0,1-5.27,2.57A21,21,0,0,1,713,219a24.4,24.4,0,0,1-11.13-2.82Zm10.86-11.84a8.14,8.14,0,0,0,6.28-2.67c1.62-1.78,2.44-4.66,2.44-8.65q0-11.06-9.3-11.06a8.06,8.06,0,0,0-6.6,2.9c-1.59,1.93-2.38,4.58-2.38,8a12.8,12.8,0,0,0,2.57,8.35,8.51,8.51,0,0,0,7,3.13Z"/><path class="d" d="M734.89,165.72v-6.44h6.37v6.44ZM735,205.2V172.29h6.31V205.2Z"/><path class="d" d="M745.89,188.75a16.65,16.65,0,0,1,5-12.3,17.24,17.24,0,0,1,12.6-4.89,18.42,18.42,0,0,1,6.73,1.2,13.92,13.92,0,0,1,4.39,2.44l1.24,1.17-3,4.43a12.45,12.45,0,0,0-1.14-1,13.27,13.27,0,0,0-3.12-1.69,12,12,0,0,0-4.85-1.05,11,11,0,0,0-8.19,3.32,11.5,11.5,0,0,0-3.25,8.39,11.67,11.67,0,0,0,3.28,8.46,11.17,11.17,0,0,0,8.36,3.38,13.11,13.11,0,0,0,5.27-1.11,12.76,12.76,0,0,0,3.7-2.21l1.17-1.1,2.54,4.61-.55.56a16.21,16.21,0,0,1-1.6,1.27,17.48,17.48,0,0,1-2.66,1.59,21.93,21.93,0,0,1-3.68,1.27,18.23,18.23,0,0,1-4.65.58,17.24,17.24,0,0,1-12.68-4.88A16.59,16.59,0,0,1,745.89,188.75Z"/><path class="d" d="M777.41,188.75q0-7.74,4.65-12.49a15.83,15.83,0,0,1,11.83-4.7c4.46,0,8,1.45,10.47,4.36A16.3,16.3,0,0,1,808.13,187l-.24,2.68h-24a10.83,10.83,0,0,0,3.48,8,11.38,11.38,0,0,0,7.83,2.83,13.39,13.39,0,0,0,5-1,15.89,15.89,0,0,0,3.61-1.88l1.17-1,2.6,4.62a14.93,14.93,0,0,1-1.56,1.3,21.81,21.81,0,0,1-4.36,2.08,18.55,18.55,0,0,1-6.83,1.3,16.75,16.75,0,0,1-17.42-16c0-.39,0-.79,0-1.18Zm6.7-3.84h17.56a8.61,8.61,0,0,0-2.37-6.24,7.71,7.71,0,0,0-5.56-2.15,9.58,9.58,0,0,0-6.34,2.21,9.83,9.83,0,0,0-3.29,6.18Z"/><path class="d" d="M812.66,205.2V172.29h6.11V178l-.13,2.47h.13a13.27,13.27,0,0,1,3.94-6.18,9.57,9.57,0,0,1,6.47-2.41l1.63.13v6.25a8,8,0,0,0-1.82-.2,8.59,8.59,0,0,0-5.6,2.08,11.47,11.47,0,0,0-3.64,5.66,20.07,20.07,0,0,0-.78,5.92V205.2Z"/><path class="d" d="M838.89,193.17V177.82h-4.3v-5.07h4.49v-9.5h6.11v9.5h7.94v5.07h-7.94v14.63a9.45,9.45,0,0,0,.52,3.29,6.22,6.22,0,0,0,1.27,2.18,5.54,5.54,0,0,0,1.76,1.23,6.92,6.92,0,0,0,1.82.59,10.23,10.23,0,0,0,1.66.13l1.49-.13v5.59a14.82,14.82,0,0,1-2.21.13,23.13,23.13,0,0,1-3-.19,12.75,12.75,0,0,1-3.25-1,10.34,10.34,0,0,1-3.16-2,10,10,0,0,1-2.27-3.61A14.49,14.49,0,0,1,838.89,193.17Z"/><path class="d" d="M857.2,159.2A4.77,4.77,0,1,0,862,164h0a4.76,4.76,0,0,0-4.75-4.77h0m0,8.6a3.84,3.84,0,1,1,3.82-3.86v0a3.83,3.83,0,0,1-3.82,3.83"/><path class="d" d="M855.55,166.56v-5.27h1.61a3.05,3.05,0,0,1,1,.12,1.31,1.31,0,0,1,.65.53,1.66,1.66,0,0,1,.23.9,1.58,1.58,0,0,1-.25.89,1.26,1.26,0,0,1-.69.53h0a1.14,1.14,0,0,1,.15.23l1.12,2h-.83l-1.11-2.1h-1.14v2.17Zm.74-2.74h1.06a.91.91,0,0,0,.68-.26,1,1,0,0,0,.25-.69.86.86,0,0,0-.42-.82,1.61,1.61,0,0,0-.72-.12h-.85Z"/><g class="e"><g class="e"><path class="f" d="M350.68,189.63q0,7.41-3.38,11.93a10.87,10.87,0,0,1-9.18,4.53q-5.91,0-9.29-3.75V218h-5.55V173.05h5.07l.27,3.59a11.42,11.42,0,0,1,9.41-4.19,11.08,11.08,0,0,1,9.25,4.4q3.41,4.41,3.4,12.27Zm-5.54-.63q0-5.49-2.34-8.67a7.54,7.54,0,0,0-6.42-3.18,8.13,8.13,0,0,0-7.55,4.47v15.5a8.15,8.15,0,0,0,7.61,4.44,7.49,7.49,0,0,0,6.34-3.16Q345.14,195.24,345.14,189Z"/><path class="f" d="M356.26,189a19.17,19.17,0,0,1,1.88-8.58,13.88,13.88,0,0,1,5.21-5.87,14.22,14.22,0,0,1,7.63-2.07A13.69,13.69,0,0,1,381.7,177q4.1,4.59,4.1,12.21v.39a19.32,19.32,0,0,1-1.82,8.5A13.81,13.81,0,0,1,378.8,204a14.39,14.39,0,0,1-7.76,2.1,13.66,13.66,0,0,1-10.69-4.59q-4.08-4.59-4.09-12.14Zm5.58.66a13.84,13.84,0,0,0,2.5,8.66,8.49,8.49,0,0,0,13.42,0q2.49-3.31,2.49-9.28a13.85,13.85,0,0,0-2.53-8.65A8.07,8.07,0,0,0,371,177a8,8,0,0,0-6.62,3.27Q361.84,183.54,361.84,189.63Z"/><path class="f" d="M421.48,197.84l6.24-24.79h5.54l-9.44,32.44h-4.5l-7.88-24.59-7.68,24.59h-4.5l-9.41-32.44h5.51l6.39,24.28,7.56-24.28h4.46Z"/><path class="f" d="M452.36,206.09a14.17,14.17,0,0,1-10.73-4.33q-4.14-4.33-4.14-11.59v-1a19.46,19.46,0,0,1,1.85-8.62,14.37,14.37,0,0,1,5.15-5.94,13,13,0,0,1,7.18-2.14q6.33,0,9.84,4.16T465,188.55v2.31H443a11.52,11.52,0,0,0,2.8,7.75,8.82,8.82,0,0,0,6.83,2.95,9.65,9.65,0,0,0,5-1.2,12.51,12.51,0,0,0,3.57-3.18l3.39,2.64Q460.52,206.09,452.36,206.09ZM451.67,177a7.4,7.4,0,0,0-5.63,2.45,11.87,11.87,0,0,0-2.82,6.85h16.25v-.42a10.56,10.56,0,0,0-2.28-6.55A7,7,0,0,0,451.67,177Z"/></g><g class="e"><path class="f" d="M485.89,178a16.63,16.63,0,0,0-2.73-.21q-5.46,0-7.41,4.65v23h-5.54V173.05h5.4l.09,3.74a8.63,8.63,0,0,1,7.73-4.34,5.67,5.67,0,0,1,2.46.42Z"/></g><g class="e"><path class="f" d="M503.57,206.09a14.14,14.14,0,0,1-10.73-4.33q-4.14-4.33-4.14-11.59v-1a19.46,19.46,0,0,1,1.84-8.62,14.39,14.39,0,0,1,5.16-5.94,13,13,0,0,1,7.18-2.14q6.33,0,9.84,4.16t3.51,11.94v2.31h-22a11.52,11.52,0,0,0,2.8,7.75,8.8,8.8,0,0,0,6.82,2.95,9.67,9.67,0,0,0,5-1.2,12.51,12.51,0,0,0,3.57-3.18l3.39,2.64Q511.73,206.09,503.57,206.09ZM502.88,177a7.41,7.41,0,0,0-5.64,2.45,11.86,11.86,0,0,0-2.81,6.85h16.25v-.42a10.56,10.56,0,0,0-2.28-6.55A7,7,0,0,0,502.88,177Z"/><path class="f" d="M521.29,189q0-7.47,3.54-12a12,12,0,0,1,18.29-.65V159.43h5.55v46.06h-5.1L543.3,202a11.3,11.3,0,0,1-9.26,4.08,11.06,11.06,0,0,1-9.19-4.62q-3.55-4.62-3.56-12.05Zm5.55.63c0,3.68.76,6.55,2.28,8.63a7.37,7.37,0,0,0,6.3,3.12,8.09,8.09,0,0,0,7.7-4.74v-14.9a8.15,8.15,0,0,0-7.64-4.59,7.41,7.41,0,0,0-6.36,3.15Q526.84,183.45,526.84,189.63Z"/></g><g class="e"><path class="f" d="M599,189.63q0,7.44-3.41,12a10.92,10.92,0,0,1-9.18,4.51q-6.15,0-9.5-4.35l-.27,3.75h-5.1V159.43h5.55v17.18a11.24,11.24,0,0,1,9.26-4.16,11,11,0,0,1,9.28,4.46q3.38,4.47,3.37,12.24Zm-5.54-.63q0-5.67-2.19-8.76a7.25,7.25,0,0,0-6.3-3.09,8.13,8.13,0,0,0-7.88,5.1v14a8.36,8.36,0,0,0,7.94,5.09,7.21,7.21,0,0,0,6.21-3.09Q593.48,195.22,593.48,189Z"/></g><g class="e"><path class="f" d="M616,197.36l7.56-24.31h5.94l-13,37.45q-3,8.1-9.62,8.09l-1.05-.09-2.07-.39v-4.49l1.5.12a7.37,7.37,0,0,0,4.39-1.14,8.25,8.25,0,0,0,2.59-4.17l1.23-3.3-11.57-32.08h6.06Z"/></g></g></svg>