<?xml version="1.0" encoding="utf-8"?>
<!-- Generator: Adobe Illustrator 16.0.0, SVG Export Plug-In . SVG Version: 6.00 Build 0)  -->
<!DOCTYPE svg PUBLIC "-//W3C//DTD SVG 1.1//EN" "http://www.w3.org/Graphics/SVG/1.1/DTD/svg11.dtd">
<svg version="1.1"
	 id="svg4" sodipodi:docname="drupal-ar21.svg" inkscape:version="0.92.4 (5da689c313, 2019-01-14)" xmlns:dc="http://purl.org/dc/elements/1.1/" xmlns:cc="http://creativecommons.org/ns#" xmlns:rdf="http://www.w3.org/1999/02/22-rdf-syntax-ns#" xmlns:svg="http://www.w3.org/2000/svg" xmlns:sodipodi="http://sodipodi.sourceforge.net/DTD/sodipodi-0.dtd" xmlns:inkscape="http://www.inkscape.org/namespaces/inkscape"
	 xmlns="http://www.w3.org/2000/svg" xmlns:xlink="http://www.w3.org/1999/xlink" x="0px" y="0px" width="640px" height="300px"
	 viewBox="0 0 640 300" enable-background="new 0 0 640 300" xml:space="preserve">
<sodipodi:namedview  id="namedview6" inkscape:pageopacity="0" inkscape:pageshadow="2" inkscape:window-width="1920" inkscape:window-height="1001" inkscape:window-x="-9" inkscape:window-y="-9" inkscape:current-layer="svg4" inkscape:window-maximized="1" pagecolor="#ffffff" showgrid="false" inkscape:zoom="5.2149125" bordercolor="#666666" borderopacity="1" objecttolerance="10" inkscape:cx="70.508475" gridtolerance="10" inkscape:cy="64" guidetolerance="10">
	</sodipodi:namedview>
<path fill="#007D3F" d="M103.38,90.398c1.724-4.691,3.159-9.286,5.074-13.884c3.064,6.511,4.979,13.597,8.042,20.011
	c7.468,2.968,15.605,4.214,23.266,6.99c-16.277,8.139-32.937,15.988-49.502,23.745C94.379,114.814,98.976,102.654,103.38,90.398
	 M75.326,104.376c7.468-4.02,14.841-8.425,22.309-12.447c-6.032,18.384-12.83,36.576-18.958,54.958
	c-6.702-12.638-12.542-25.756-18.862-38.49c-2.011-4.308-4.309-8.425-6.032-12.83C61.251,98.058,68.049,102.175,75.326,104.376
	 M108.455,123.718c16.66-8.139,33.319-16.278,50.076-24.32c-2.682,6.989-5.841,13.692-8.809,20.585
	c3.926,7.276,8.617,14.169,12.257,21.639C143.977,135.974,126.168,129.942,108.455,123.718 M58.188,114.91
	c4.979,9.384,9.288,19.245,13.884,28.724c3.16,6.606,6.512,13.119,9.384,19.82c-16.564-5.745-33.224-11.68-49.692-17.905
	c6.511-2.969,13.405-4.979,19.916-7.755C53.878,130.134,56.082,122.569,58.188,114.91 M124.157,133.197
	c13.884,4.5,27.671,9.574,41.554,14.266c4.404,1.627,9.096,2.873,13.405,4.979c-7.276,2.875-14.554,5.649-21.735,8.427
	c-2.68,8.235-4.501,16.85-7.276,25.084c-5.647-10.437-10.532-21.255-15.798-31.787C130.859,147.272,127.22,140.282,124.157,133.197
	 M123.583,168.909c1.818-5.267,3.351-10.531,5.553-15.702c2.489,4.406,4.595,9.001,6.894,13.501
	c5.745,12.161,11.969,23.938,17.522,36.098c-6.894-2.775-13.691-5.938-20.682-8.81c-7.276,3.926-14.17,8.521-21.638,12.257
	C115.061,193.613,119.562,181.358,123.583,168.909 M47.465,157.229c15.701,4.883,31.021,10.724,46.531,15.896
	c2.298,0.765,4.691,1.626,6.798,2.775c-16.755,7.757-33.32,16.183-50.267,23.648c2.777-6.797,6.128-13.405,8.809-20.297
	C56.082,171.59,51.102,164.697,47.465,157.229 M80.688,189.592c12.734-6.127,25.278-12.64,38.106-18.479
	c-3.446,11.394-7.851,22.692-11.585,34.086c-2.202,6.031-4.021,12.351-6.51,18.286c-3.161-6.603-5.361-13.689-8.33-20.393
	c-7.948-2.968-16.181-4.596-24.223-6.798C71.88,193.422,76.571,191.891,80.688,189.592"/>
<path fill="#3BA763" d="M217.891,129.08h-5.553v-9.766h5.553V129.08z M217.891,175.804h-5.553v-41.746h5.553V175.804z
	 M283.957,175.804h-5.745v-25.659c0-3.257-0.958-5.937-2.777-8.235c-1.819-2.298-4.308-3.446-7.277-3.446
	c-3.063,0-5.745,0.957-7.946,2.967c-2.202,2.01-3.351,4.501-3.351,7.469v26.904h-5.84V148.9c0-2.968-1.149-5.458-3.352-7.469
	c-2.202-2.01-4.883-2.967-7.946-2.967c-3.065,0-5.458,1.148-7.277,3.446c-1.82,2.298-2.681,5.076-2.681,8.33v25.66h-5.745V150.91
	c0-5.267,1.533-9.384,4.501-12.64c2.776-2.968,6.416-4.691,11.01-5.074c6.032-0.479,10.915,2.106,14.458,7.755
	c3.639-5.648,8.426-8.234,14.458-7.755c4.5,0.382,8.234,2.106,11.012,5.074c3.063,3.159,4.5,7.373,4.5,12.64v24.894H283.957z
	 M326.852,157.806c0,5.457-1.724,9.956-5.267,13.5c-3.447,3.637-7.851,5.457-13.213,5.457c-5.362,0-9.766-1.819-13.213-5.457
	c-3.447-3.64-5.267-8.14-5.267-13.5v-23.841h5.553v24.511c0,3.54,1.246,6.512,3.831,9.094c2.584,2.49,5.551,3.736,8.999,3.736
	c3.448,0,6.416-1.246,9-3.736c2.586-2.487,3.828-5.554,3.828-9.094v-24.511h5.554v23.841H326.852z M369.938,175.804h-5.555v-24.415
	c0-3.543-1.244-6.511-3.829-9.096c-2.585-2.49-5.554-3.829-9.001-3.829c-3.445,0-6.51,1.245-9.094,3.829
	c-2.586,2.585-3.832,5.553-3.832,9.096v24.415h-5.553v-23.841c0-5.456,1.723-9.957,5.266-13.5c3.541-3.542,7.946-5.362,13.212-5.362
	s9.671,1.819,13.214,5.362c3.541,3.638,5.266,8.138,5.266,13.5v23.841H369.938z M381.33,129.08h-5.553v-9.766h5.553V129.08z
	 M381.33,175.804h-5.553v-41.746h5.553V175.804z M403.544,139.134h-10.532v36.575h-5.554v-42.512c0-4.405,1.34-7.851,4.115-10.245
	c2.779-2.393,6.226-3.637,10.534-3.637h1.437v4.978h-1.437c-2.969,0.191-5.074,0.862-6.225,2.106
	c-1.819,2.01-2.775,3.925-2.775,5.936v1.724h10.532v5.075H403.544z M445.673,134.058l-23.65,56.3h-6.032l6.319-15.895
	l-15.989-40.406h6.033l13.403,33.224l14.074-33.224L445.673,134.058L445.673,134.058z"/>
<g>
	<path fill="#007D3F" d="M492.013,165.56c0.19,4.977-1.629,9.286-5.169,12.926c-3.641,3.637-7.947,5.457-12.927,5.361
		c-4.787-0.096-9-1.915-12.351-5.361c-3.446-3.447-5.17-7.661-5.17-12.448v-0.766h5.553v1.053c0,3.353,1.245,6.129,3.638,8.521
		c2.394,2.299,5.267,3.544,8.522,3.544c3.444,0,6.318-1.247,8.809-3.735c2.488-2.488,3.637-5.458,3.445-8.904
		c-0.191-3.827-1.533-6.895-4.213-9.191c-2.488-2.105-5.648-3.159-9.384-3.159h-2.299v-4.786h2.107
		c2.776,0.19,5.171-0.576,7.278-2.203c2.009-1.724,2.97-4.021,2.872-6.894c-0.096-2.202-0.862-4.118-2.393-5.745
		c-1.437-1.531-3.352-2.393-5.554-2.585c-2.395-0.096-4.503,0.67-6.415,2.394c-1.819,1.724-2.777,3.831-2.777,6.319v0.862h-5.554
		v-0.479c0-4.021,1.436-7.469,4.214-10.245c2.872-2.872,6.224-4.212,10.147-4.212c3.832,0.095,7.184,1.436,9.959,4.212
		c2.775,2.776,4.021,6.032,3.926,9.862c-0.096,4.501-2.107,8.14-5.936,10.723C488.471,153.688,491.727,158.666,492.013,165.56"/>
	<path fill="#007D3F" d="M474.013,185.284h-0.191c-5.172-0.098-9.671-2.01-13.404-5.841c-3.639-3.735-5.554-8.233-5.554-13.5v-2.107
		h8.424v2.488c0,2.969,1.054,5.362,3.159,7.47c2.109,2.105,4.597,3.158,7.564,3.158c3.063,0,5.65-1.053,7.756-3.35
		c2.202-2.203,3.16-4.788,3.063-7.853c-0.094-3.446-1.34-6.13-3.637-8.137c-2.203-1.917-4.98-2.779-8.427-2.779h-3.637v-7.658h3.541
		c2.585,0.191,4.599-0.479,6.32-1.915c1.725-1.438,2.489-3.256,2.393-5.745c-0.094-1.915-0.766-3.447-2.01-4.788
		c-1.245-1.34-2.777-2.01-4.596-2.106c-2.012-0.097-3.735,0.574-5.365,2.011c-1.531,1.531-2.296,3.254-2.296,5.265v2.298h-8.425
		v-1.916c0-4.404,1.531-8.139,4.692-11.297c3.062-3.159,6.797-4.691,11.104-4.596c4.213,0.096,7.853,1.628,10.916,4.691
		c3.064,3.064,4.5,6.703,4.309,10.916c-0.097,4.213-1.725,7.756-4.788,10.532c5.362,3.352,8.138,8.426,8.425,15.129
		c0.191,5.361-1.723,10.051-5.65,13.977C483.969,183.368,479.375,185.284,474.013,185.284 M457.736,166.613
		c0.096,4.211,1.724,7.754,4.69,10.913c3.16,3.255,6.895,4.884,11.395,4.979c4.595,0,8.522-1.531,11.968-4.979
		c3.353-3.352,4.884-7.277,4.788-11.872c-0.287-6.416-3.16-10.915-8.809-13.789l-2.106-1.053l2.01-1.34
		c3.447-2.394,5.266-5.554,5.362-9.67c0.095-3.446-1.052-6.32-3.543-8.904c-2.489-2.489-5.456-3.734-8.903-3.829
		c-3.638-0.097-6.513,1.149-9.097,3.829c-2.394,2.394-3.637,5.17-3.829,8.425h2.68c0.097-2.585,1.245-4.883,3.16-6.798
		c2.106-2.01,4.596-2.968,7.468-2.776c2.584,0.192,4.786,1.148,6.511,2.968c1.722,1.819,2.681,4.021,2.775,6.606
		c0.097,3.351-1.054,6.128-3.447,8.043c-2.297,1.915-5.071,2.777-8.233,2.585h-0.671v2.009h0.862c4.117,0,7.565,1.149,10.245,3.448
		c2.97,2.488,4.502,5.935,4.69,10.149c0.194,3.829-1.146,7.181-3.828,9.955c-2.68,2.777-6.031,4.215-9.861,4.215
		c-3.639,0-6.799-1.341-9.479-3.927c-2.586-2.489-3.929-5.649-4.021-9.19H457.736L457.736,166.613z M533.758,177.24
		c-4.309,4.31-9.479,6.416-15.511,6.416c-5.648,0-10.436-1.915-14.457-5.743c-4.309-4.119-6.511-9.289-6.511-15.416
		c0-6.129,2.202-11.396,6.606-15.703l20.106-20.106h7.659l-13.883,13.883c6.224-0.382,11.49,1.436,15.895,5.554
		c4.403,4.116,6.605,9.192,6.605,15.417C540.269,167.764,538.066,172.932,533.758,177.24 M530.12,173.025
		c3.064-3.157,4.597-6.989,4.597-11.392c0-4.405-1.532-8.234-4.597-11.299c-2.97-2.967-6.606-4.404-10.819-4.404
		c-4.405,0-8.234,1.531-11.489,4.596c-3.447,3.352-5.075,7.372-5.075,12.161c0,4.596,1.628,8.328,4.884,11.392
		c2.969,2.682,6.413,4.022,10.531,4.022C522.844,178.006,526.77,176.379,530.12,173.025"/>
	<path fill="#007D3F" d="M518.247,185.093c-5.935,0-11.203-2.013-15.511-6.131c-4.595-4.402-6.991-9.957-6.991-16.467
		c0-6.416,2.396-12.064,6.991-16.755l20.491-20.491h11.679l-13.882,13.884c5.168,0.382,9.67,2.394,13.499,5.936
		c4.693,4.404,7.087,9.863,7.087,16.373c0,6.511-2.299,12.161-6.894,16.662C530.215,182.792,524.661,185.093,518.247,185.093
		 M524.47,128.122l-19.627,19.629c-4.117,4.116-6.129,9.001-6.129,14.746c0,5.838,2.011,10.532,6.031,14.456
		c3.83,3.542,8.234,5.363,13.501,5.363c5.648,0,10.437-2.01,14.458-6.03c4.116-4.023,6.031-8.905,6.031-14.65
		s-2.01-10.532-6.224-14.362c-4.116-3.831-8.999-5.554-14.84-5.169l-3.733,0.191l14.167-14.17h-3.636V128.122z M518.056,179.441
		c-4.403,0-8.329-1.436-11.488-4.403c-3.543-3.256-5.362-7.374-5.362-12.351c0-5.17,1.818-9.575,5.553-13.214
		c3.541-3.35,7.757-4.978,12.446-4.978c4.597,0,8.617,1.628,11.778,4.787c3.351,3.351,4.978,7.468,4.978,12.256
		c0,4.786-1.723,8.998-4.978,12.443C527.535,177.624,523.228,179.441,518.056,179.441 M519.301,147.272
		c-4.021,0-7.469,1.341-10.532,4.211c-3.16,3.064-4.691,6.703-4.691,11.108c0,4.211,1.437,7.563,4.401,10.341
		c2.682,2.49,5.842,3.638,9.576,3.638c4.404,0,7.947-1.532,10.914-4.596c2.873-2.97,4.213-6.32,4.213-10.437
		c0-4.118-1.341-7.469-4.213-10.246C526.386,148.613,523.13,147.272,519.301,147.272 M604.803,154.356
		c0,8.139-2.874,15.129-8.714,20.969c-5.745,5.839-12.734,8.713-20.872,8.713c-8.044,0-14.937-2.777-20.873-8.427
		c-5.841-5.552-8.808-12.349-8.808-20.2c0-8.139,2.872-15.033,8.615-20.874c5.746-5.745,12.641-8.712,20.682-8.712
		c8.138,0,15.129,2.777,20.97,8.233C601.834,139.611,604.803,146.41,604.803,154.356 M599.249,154.646
		c0-6.512-2.49-12.064-7.181-16.662c-4.788-4.501-10.437-6.798-16.947-6.798c-6.512,0-12.065,2.297-16.66,6.99
		c-4.693,4.692-6.99,10.245-6.99,16.659c0,6.416,2.297,11.969,6.99,16.663c4.691,4.594,10.245,6.989,16.756,6.989
		c6.606,0,12.351-2.298,17.137-6.989C597.047,166.899,599.344,161.25,599.249,154.646"/>
	<path fill="#007D3F" d="M575.313,185.379c-8.331,0-15.703-2.968-21.83-8.809c-6.129-5.838-9.287-13.02-9.287-21.254
		c0-8.427,3.063-15.799,8.998-21.832c5.938-6.031,13.311-9.096,21.734-9.096c8.427,0,15.799,2.872,21.929,8.617
		c6.223,5.841,9.383,13.021,9.383,21.351c0,8.521-3.063,15.894-9.097,21.928C591.11,182.314,583.739,185.379,575.313,185.379
		 M574.928,127.26c-7.657,0-14.265,2.777-19.721,8.235c-5.458,5.457-8.235,12.159-8.235,19.821c0,7.465,2.777,13.977,8.426,19.244
		c5.555,5.266,12.255,8.043,19.819,8.043c7.659,0,14.361-2.777,19.816-8.331c5.46-5.457,8.235-12.256,8.235-19.916
		c0-7.467-2.872-13.978-8.521-19.245C589.387,129.847,582.686,127.26,574.928,127.26 M575.313,180.017h-0.191
		c-6.796-0.096-12.83-2.586-17.714-7.468c-4.979-4.885-7.468-10.82-7.468-17.617c0-6.798,2.488-12.734,7.371-17.617
		c4.883-4.884,10.821-7.372,17.714-7.372c6.896,0,12.927,2.393,18.001,7.181c4.978,4.787,7.563,10.723,7.659,17.618
		c0.094,6.987-2.396,13.021-7.47,17.903C588.238,177.527,582.206,180.017,575.313,180.017 M575.024,132.719
		c-6.127,0-11.298,2.106-15.7,6.606c-4.405,4.405-6.606,9.575-6.606,15.703c0,6.128,2.201,11.202,6.606,15.605
		c4.402,4.404,9.574,6.606,15.798,6.606c6.223,0,11.586-2.106,16.085-6.508c4.501-4.407,6.702-9.671,6.607-15.898
		c0-6.221-2.298-11.296-6.798-15.604C586.611,134.825,581.247,132.719,575.024,132.719"/>
</g>
</svg>
