<?xml version="1.0" encoding="iso-8859-1"?>
<!-- Generator: Adobe Illustrator 16.0.0, SVG Export Plug-In . SVG Version: 6.00 Build 0)  -->
<!DOCTYPE svg PUBLIC "-//W3C//DTD SVG 1.1//EN" "http://www.w3.org/Graphics/SVG/1.1/DTD/svg11.dtd">
<svg version="1.1" id="Layer_1" xmlns="http://www.w3.org/2000/svg" xmlns:xlink="http://www.w3.org/1999/xlink" x="0px" y="0px"
	 width="640px" height="300px" viewBox="0 170 640 300" style="enable-background:new 0 170 640 300;" xml:space="preserve">
<g transform="translate(-35 -35)">
	<path style="fill:#3B3A40;" d="M234.895,317.708v52.578c0,4.703,0.336,9.071-3.864,12.263c-3.863,3.191-10.415,4.199-17.47,4.199
		c-10.75,0-22.173-2.52-22.173-2.52l-2.52,6.719c0,0,15.958,3.359,27.549,3.527c9.743,0.168,18.31-2.016,23.013-7.391
		c3.863-4.367,5.039-9.406,4.871-17.974v-51.402H234.895z"/>
	<path style="fill:#3B3A40;" d="M313.341,346.769c-7.055-3.864-15.622-5.879-25.365-5.879c-9.575,0-18.142,2.016-25.365,5.879
		c-9.071,4.872-13.606,12.094-13.606,21.166s4.535,16.294,13.606,21.165c7.223,3.863,15.622,5.879,25.365,5.879
		c9.575,0,18.142-2.016,25.197-5.879c9.071-4.871,13.606-12.094,13.606-21.165C326.779,358.695,322.244,351.641,313.341,346.769
		 M307.798,383.725c-5.543,3.191-12.094,4.703-19.821,4.703c-7.895,0-14.614-1.512-19.99-4.535
		c-6.551-3.695-9.743-8.903-9.743-15.958c0-6.888,3.359-12.263,9.743-15.958c5.375-3.024,12.095-4.536,19.99-4.536
		c7.727,0,14.446,1.512,19.989,4.536c6.383,3.695,9.743,9.07,9.743,15.958C317.541,374.653,314.349,380.029,307.798,383.725z"/>
	<path style="fill:#3B3A40;" d="M395.987,346.769c-7.056-3.864-15.622-5.879-25.365-5.879c-9.575,0-18.142,2.016-25.365,5.879
		c-9.07,4.872-13.606,12.094-13.606,21.166s4.536,16.294,13.606,21.165c7.224,3.863,15.622,5.879,25.365,5.879
		c9.575,0,18.142-2.016,25.197-5.879c9.07-4.871,13.605-12.094,13.605-21.165C409.425,358.695,404.89,351.641,395.987,346.769
		 M390.443,383.725c-5.543,3.191-12.095,4.703-19.821,4.703c-7.896,0-14.614-1.512-19.989-4.535
		c-6.552-3.695-9.743-8.903-9.743-15.958c0-6.888,3.359-12.263,9.743-15.958c5.375-3.024,12.094-4.536,19.989-4.536
		c7.727,0,14.446,1.512,19.989,4.536c6.384,3.695,9.743,9.07,9.743,15.958C400.187,374.653,396.995,380.029,390.443,383.725z"/>
	<path style="fill:#3B3A40;" d="M510.045,345.425c-5.04-3.024-11.591-4.536-19.318-4.536c-9.91,0-17.806,3.024-23.853,9.071
		c-5.711-6.047-13.774-9.071-23.686-9.071c-8.063,0-14.613,1.68-19.653,4.872v-4.2h-8.902v52.241h8.902v-35.611
		c0.672-2.52,2.352-4.871,5.04-6.887c3.695-2.52,8.398-3.864,14.277-3.864c5.208,0,9.575,1.008,13.271,3.192
		c4.368,2.52,6.384,5.879,6.384,10.582v32.924h8.734v-33.092c0-4.703,2.016-8.063,6.384-10.583c3.695-2.016,8.23-3.191,13.438-3.191
		c5.208,0,9.743,1.008,13.438,3.191c4.368,2.52,6.384,5.879,6.384,10.583v32.924h8.902v-31.748
		C519.619,354.832,516.26,349.121,510.045,345.425"/>
	<path style="fill:#3B3A40;" d="M526.675,317.708v76.262h8.902v-76.262H526.675z"/>
	<path style="fill:#3B3A40;" d="M634.854,317.708v58.961h8.902v-58.961H634.854z"/>
	<path style="fill:#3B3A40;" d="M611.504,341.562v8.903c-7.559-6.383-17.638-9.743-30.068-9.743c-9.91,0-18.478,1.848-25.532,5.711
		c-8.735,4.872-13.271,11.926-13.271,21.333c0,9.239,4.535,16.462,13.606,21.165c7.055,3.863,15.622,5.711,25.532,5.711
		c4.871,0,9.743-0.504,14.11-1.68c6.216-1.68,11.423-4.031,15.454-7.223v8.063h8.903v-52.241H611.504z M552.039,367.935
		c0-6.888,3.36-12.263,9.743-15.958c5.375-3.024,12.263-4.536,20.157-4.536c9.743,0,17.302,2.352,22.678,7.055
		c4.703,4.199,7.055,9.574,7.055,16.126v6.216c-3.695,4.199-9.238,7.391-16.294,9.574c-4.199,1.344-8.735,2.016-13.438,2.016
		c-8.063,0-14.782-1.512-20.157-4.367C555.231,380.197,552.039,374.989,552.039,367.935z"/>
	<path style="fill:#3B3A40;" d="M639.389,384.061c-6.216,0-7.056,3.191-7.056,5.207s1.008,5.207,7.056,5.207
		c6.215,0,7.055-3.359,7.055-5.207S645.436,384.061,639.389,384.061z"/>
	<path style="fill:#3B3A40;" d="M671.305,327.116c0,5.207-3.359,9.575-9.407,9.575c-6.047,0-9.406-4.368-9.406-9.575
		c0-5.208,3.359-9.575,9.406-9.575C667.945,317.541,671.305,321.908,671.305,327.116z M654.507,327.116
		c0,4.367,2.688,7.727,7.391,7.727s7.392-3.36,7.392-7.727c0-4.368-2.688-7.727-7.392-7.727S654.507,322.748,654.507,327.116z
		 M663.745,328.292c3.696-0.672,3.36-6.215-0.84-6.215h-4.535v9.743h1.848v-3.359h1.68l2.688,3.359h2.017v-0.336L663.745,328.292z
		 M662.905,323.756c2.184,0,2.184,3.191,0,3.191h-2.688v-3.191H662.905z"/>
</g>
<g transform="translate(-35 -35)">
	<path style="fill:#7AC143;" d="M61.876,356.176l-2.352-2.352c-7.559-7.559-9.743-18.142-7.055-27.717
		c-7.559-1.68-13.102-8.399-13.102-16.462c0-9.239,7.559-16.798,16.798-16.798c8.399,0,15.286,6.047,16.63,14.11
		c9.071-2.184,18.981,0.336,26.037,7.391l1.008,1.008l-12.43,12.431l-1.008-1.008c-4.031-4.031-10.583-4.031-14.614,0
		c-4.032,4.032-4.032,10.583,0,14.614l27.884,27.885l-12.43,12.431l-13.103-13.103L61.876,356.176z"/>
	<path style="fill:#F9A541;" d="M75.819,342.401l27.885-27.884c7.391-7.391,18.142-9.743,27.548-7.055
		c1.176-8.231,8.231-14.446,16.63-14.446c9.239,0,16.798,7.559,16.798,16.798c0,8.567-6.383,15.622-14.614,16.63
		c2.688,9.407,0.336,19.99-7.055,27.381l-1.008,1.008l-12.094-12.431l1.008-1.008c4.032-4.031,4.032-10.583,0-14.614
		c-4.031-4.031-10.583-4.031-14.614,0l-27.884,27.885L75.819,342.401z"/>
	<path style="fill:#F44321;" d="M131.756,405.058c-9.575,2.856-20.325,0.672-27.884-6.888l-1.008-1.008l12.431-12.43l1.008,1.008
		c4.032,4.031,10.583,4.031,14.614,0s4.031-10.582,0-14.614l-27.885-27.884l12.431-12.431l28.053,28.052
		c7.055,7.055,9.575,17.135,7.391,26.373c8.231,1.176,14.446,8.23,14.446,16.63c0,9.239-7.559,16.798-16.798,16.798
		C140.155,418.496,133.268,412.617,131.756,405.058L131.756,405.058z"/>
	<path style="fill:#5091CD;" d="M126.884,370.118L99,398.002c-7.223,7.224-17.302,9.576-26.373,7.392
		c-1.68,7.56-8.399,13.103-16.462,13.103c-9.239,0-16.798-7.559-16.798-16.798c0-7.896,5.543-14.614,12.934-16.294
		c-2.352-9.406,0-19.486,7.223-26.709l1.008-1.008l12.431,12.431l-1.008,1.008c-4.032,4.032-4.032,10.583,0,14.614
		c4.031,4.031,10.583,4.031,14.614,0l27.885-27.885L126.884,370.118z"/>
</g>
</svg>
