<?xml version="1.0" encoding="iso-8859-1"?>
<!-- Generator: Adobe Illustrator 16.0.0, SVG Export Plug-In . SVG Version: 6.00 Build 0)  -->
<!DOCTYPE svg PUBLIC "-//W3C//DTD SVG 1.1//EN" "http://www.w3.org/Graphics/SVG/1.1/DTD/svg11.dtd">
<svg version="1.1" id="Layer_1" xmlns="http://www.w3.org/2000/svg" xmlns:xlink="http://www.w3.org/1999/xlink" x="0px" y="0px"
	 width="640px" height="300px" viewBox="0 170 640 300" style="enable-background:new 0 170 640 300;" xml:space="preserve">
<path style="fill:#8d8d8d;" d="M155.049,413.293c-1.329,0-2.561-0.697-3.243-1.836l-28.512-47.558l-53.322,14.503
	c-1.671,0.4-3.404-0.374-4.212-1.887L3.445,259.379c-0.98-1.838-0.284-4.124,1.552-5.104c0.397-0.209,0.825-0.349,1.267-0.408
	l52.905-7.112c1.496-0.207,2.969,0.496,3.748,1.788l63.811,106.587l74.218-20.186l-24.747-34.953
	c-1.215-1.691-0.83-4.048,0.861-5.263c0.374-0.269,0.796-0.468,1.243-0.586l34.718-8.208c1.417-0.337,2.9,0.172,3.813,1.306
	l30.047,37.522c1.303,1.623,1.042,3.996-0.581,5.299c-0.405,0.322-0.873,0.561-1.374,0.697l-31.557,8.611L241,378.237
	c1.204,1.7,0.805,4.052-0.892,5.259c-0.289,0.202-0.606,0.361-0.94,0.485l-82.928,29.073c-0.382,0.146-0.79,0.227-1.198,0.238
	H155.049L155.049,413.293z M130.845,361.832l25.844,43.104l75.313-26.364l-26.3-37.078L130.845,361.832z M12.65,260.569
	l58.318,109.754l48.396-13.137L57.729,254.558L12.65,260.569z M185.711,300.213l23.204,32.636l28.784-7.831l-25.042-31.186
	L185.711,300.213z M286.574,288.818h7.541v80.865h-7.512L286.574,288.818z M367.785,311.345v58.338h-7.404v-10.096
	c-2.872,3.599-6.486,6.549-10.594,8.635c-11.461,5.479-25.142,3.031-33.987-6.084c-5.767-5.791-8.931-13.676-8.767-21.846
	c-0.125-8.095,3.073-15.885,8.846-21.558c5.555-5.835,13.293-9.078,21.343-8.951c4.526-0.06,8.99,0.986,13.007,3.056
	c4.073,2.212,7.574,5.351,10.215,9.166v-10.671L367.785,311.345z M337.795,317.146c-8.311-0.057-15.987,4.443-20.006,11.725
	c-4.195,7.299-4.195,16.272,0,23.569c1.991,3.625,4.92,6.649,8.483,8.746c3.455,2.063,7.404,3.146,11.426,3.133
	c4.097,0,8.119-1.069,11.676-3.11c3.553-1.953,6.492-4.871,8.476-8.406c2.028-3.676,3.048-7.817,2.979-12.01
	c0.17-6.315-2.237-12.429-6.674-16.93c-4.276-4.424-10.207-6.866-16.359-6.733V317.146z M381.835,311.345h7.67v8.526
	c1.921-2.943,4.385-5.495,7.252-7.523c2.339-1.601,5.104-2.47,7.937-2.496c2.362,0.077,4.656,0.762,6.668,1.991l-3.932,6.379
	c-1.27-0.606-2.65-0.952-4.057-1.014c-2.719,0.085-5.303,1.184-7.252,3.082c-2.65,2.611-4.504,5.93-5.336,9.565
	c-0.885,3.322-1.332,10.041-1.332,20.152v19.742h-7.664L381.835,311.345z M475.816,311.345v58.338h-7.404v-10.096
	c-2.871,3.599-6.485,6.549-10.592,8.635c-11.461,5.479-25.143,3.031-33.985-6.084c-5.767-5.791-8.935-13.676-8.771-21.846
	c-0.113-8.095,3.076-15.896,8.86-21.558c5.552-5.835,13.29-9.078,21.341-8.951c4.525-0.06,8.99,0.986,13.008,3.056
	c4.072,2.212,7.573,5.351,10.213,9.166v-10.671L475.816,311.345z M445.826,317.146c-8.315-0.057-15.998,4.443-20.008,11.725
	c-4.199,7.299-4.199,16.272,0,23.569c1.987,3.625,4.916,6.649,8.475,8.746c3.455,2.063,7.41,3.146,11.432,3.133
	c4.098,0,8.118-1.069,11.67-3.11c3.559-1.953,6.498-4.871,8.486-8.406c2.018-3.676,3.048-7.817,2.969-12.01
	c0.191-6.334-2.215-12.475-6.662-16.986c-4.277-4.424-10.201-6.863-16.35-6.736L445.826,317.146z M487.203,311.345h8l19.59,42.521
	l19.373-42.521h8.006l-26.688,58.345h-1.332L487.203,311.345z M602.68,350.326l6.379,3.325c-1.785,3.692-4.221,7.036-7.184,9.868
	c-2.668,2.471-5.785,4.406-9.178,5.711c-3.693,1.359-7.604,2.021-11.539,1.96c-9.512,0-16.957-3.093-22.332-9.278
	c-5.194-5.824-8.045-13.359-8.006-21.154c-0.078-7.184,2.334-14.174,6.815-19.726c5.455-7.223,14.077-11.342,23.132-11.047
	c9.301-0.306,18.178,3.909,23.82,11.313c4.221,5.336,6.352,12.004,6.385,20.014h-52.525c-0.092,6.188,2.242,12.162,6.492,16.654
	c4.02,4.267,9.65,6.629,15.51,6.504c2.963,0,5.898-0.521,8.674-1.553c2.617-0.929,5.041-2.322,7.166-4.105
	c2.537-2.453,4.689-5.27,6.391-8.367V350.326z M602.68,334.662c-0.754-3.47-2.242-6.74-4.373-9.588
	c-2.039-2.492-4.646-4.477-7.586-5.79c-3.094-1.45-6.471-2.204-9.887-2.204c-5.447-0.11-10.729,1.867-14.762,5.523
	c-3.004,2.705-5.28,6.71-6.821,12.007L602.68,334.662z M623.799,288.883h7.514v80.869h-7.514V288.883z"/>
</svg>
