<?xml version="1.0" encoding="utf-8"?>
<!-- Generator: Adobe Illustrator 16.0.0, SVG Export Plug-In . SVG Version: 6.00 Build 0)  -->
<!DOCTYPE svg PUBLIC "-//W3C//DTD SVG 1.1//EN" "http://www.w3.org/Graphics/SVG/1.1/DTD/svg11.dtd">
<svg version="1.1"
	 id="svg4" sodipodi:docname="drupal-ar21.svg" inkscape:version="0.92.4 (5da689c313, 2019-01-14)" xmlns:dc="http://purl.org/dc/elements/1.1/" xmlns:cc="http://creativecommons.org/ns#" xmlns:rdf="http://www.w3.org/1999/02/22-rdf-syntax-ns#" xmlns:svg="http://www.w3.org/2000/svg" xmlns:sodipodi="http://sodipodi.sourceforge.net/DTD/sodipodi-0.dtd" xmlns:inkscape="http://www.inkscape.org/namespaces/inkscape"
	 xmlns="http://www.w3.org/2000/svg" xmlns:xlink="http://www.w3.org/1999/xlink" x="0px" y="0px" width="640px" height="300px"
	 viewBox="0 0 640 300" enable-background="new 0 0 640 300" xml:space="preserve">
<sodipodi:namedview  id="namedview6" inkscape:pageopacity="0" inkscape:pageshadow="2" inkscape:window-width="1920" inkscape:window-height="1001" inkscape:window-x="-9" inkscape:window-y="-9" inkscape:current-layer="svg4" inkscape:window-maximized="1" pagecolor="#ffffff" showgrid="false" inkscape:zoom="5.2149125" bordercolor="#666666" borderopacity="1" objecttolerance="10" inkscape:cx="70.508475" gridtolerance="10" inkscape:cy="64" guidetolerance="10">
	</sodipodi:namedview>
<path fill="#093071" d="M206.213,118.339v53.784c0,0.504,0.393,0.93,0.893,0.979c2.833,0.233,5.981,0.233,9.289,0
	c2.7-0.211,5.995-0.598,10.059-1.186c-0.146,0.822-0.219,1.708-0.219,2.667c0,0.817,0.083,1.811,0.242,2.885h-32.01v-59.116
	c0.611,0.05,1.397,0.149,2.37,0.28c1.422,0.245,2.879,0.251,3.747,0.02l2.88-0.015C204.557,118.488,205.463,118.384,206.213,118.339
	z M244.583,121.28c-1.707,0.238-2.846,0.242-3.667,0.013h-2.878c-1.018-0.138-1.793-0.229-2.379-0.285v56.459H246.8v-56.472
	C246.162,121.044,245.429,121.138,244.583,121.28z M255.618,120.956c0.108,0.801,0.162,1.603,0.162,2.383
	c0,1.031-0.05,1.939-0.144,2.719h1.86c5.273-0.667,9.7-1.008,13.094-1.008c0.543,0,0.982,0.438,0.982,0.975v51.442h10.807v-51.442
	c0-0.537,0.44-0.975,0.982-0.975c2.47,0,6.005,0.229,10.513,0.673c1.139,0.166,2.351,0.268,3.614,0.315
	c-0.129-0.78-0.129-1.673,0.005-2.673c-0.142-0.8-0.134-1.609,0.023-2.41L255.618,120.956L255.618,120.956z M306.387,120.956v56.512
	h30.529c-0.148-1.017-0.227-1.95-0.227-2.719c0-0.877,0.067-1.702,0.188-2.456c-2.074,0.316-4.393,0.569-6.874,0.741
	c-2.888,0.23-6.865,0.345-11.832,0.345c-0.538,0-0.978-0.441-0.978-0.982v-21.845c0-0.536,0.44-0.976,0.978-0.976h8.168
	c2.723,0.158,4.911,0.318,7.102,0.477l1.617,0.113c-0.047-0.218-0.1-0.463-0.159-0.717l-0.032-3.936
	c0-0.109,0.019-0.216,0.055-0.313c0.021-0.076,0.044-0.154,0.069-0.227c-2.877,0.355-5.512,0.507-8.651,0.507h-8.168
	c-0.538,0-0.978-0.439-0.978-0.979v-18.477c0-0.537,0.44-0.975,0.978-0.975c6.027,0,12.355,0.392,18.821,1.168
	c-0.203-0.891-0.305-1.746-0.305-2.542c0-0.947,0.102-1.861,0.308-2.72H306.387z M382.882,160.104
	c-0.237-6.985-5.603-13.185-15.984-18.376c-7.693-3.961-11.428-7.815-11.428-11.757c0-6.366,3.726-9.862,10.785-10.116
	c4.799,0,8.491,2.57,10.994,7.655c0.261-0.895,0.623-2.037,1.1-3.475c0.577-1.522,1.069-2.8,1.479-3.856
	c-3.689-2.2-8.136-3.424-13.228-3.64c-12.808,0.679-19.265,6.578-19.709,18.032c0,7.717,4.892,13.915,14.537,18.4
	c8.068,3.663,12.153,7.863,12.153,12.471c-0.511,6.474-4.37,9.863-11.473,10.122c-7.034-0.25-11.43-3.557-13.102-9.843h-0.121
	c-0.451,3.418-1.167,6.788-2.132,10.031c4.278,1.617,8.719,2.551,13.208,2.766C374.146,178.519,381.972,171.803,382.882,160.104z
	 M401.549,151.971c-0.174,0.013-0.417,0.053-0.621,0.256c-0.178,0.182-0.285,0.424-0.285,0.673v24.568h-11.217v-56.521h20.211
	c11.566,0,17.306,4.424,17.519,13.509c0.082,4.947-1.276,8.883-4.037,11.695c-3.803,3.874-10.458,5.838-19.778,5.838
	C402.768,151.989,402.191,151.98,401.549,151.971z M401.447,149.122c0.43,0.063,0.898,0.098,1.367,0.098
	c1.379,0,2.97-0.268,4.725-0.79c5.09-1.458,7.916-5.6,8.395-12.367c-0.479-7.635-3.48-11.882-8.988-12.62h-5.362
	c-0.517,0-0.94,0.422-0.94,0.937V148.2C400.643,148.663,400.982,149.058,401.447,149.122z M472.033,120.947v56.52h30.579
	c-0.147-1.026-0.226-1.973-0.226-2.762c0-0.894,0.063-1.735,0.199-2.502c-2.104,0.326-4.435,0.582-6.925,0.756
	c-2.91,0.224-6.768,0.333-11.804,0.333c-0.521,0-0.94-0.419-0.94-0.928v-21.817c0-0.515,0.419-0.935,0.94-0.935h9.055
	c3.408,0.207,6.499,0.4,9.34,0.593c-0.051-0.232-0.107-0.492-0.177-0.779l-0.031-3.911c0-0.107,0.013-0.209,0.047-0.298
	c0.033-0.1,0.064-0.197,0.097-0.288c-2.829,0.335-5.947,0.512-9.275,0.512h-9.058c-0.521,0-0.939-0.422-0.939-0.935v-18.454
	c0-0.516,0.419-0.933,0.939-0.933c6.037,0,12.375,0.396,18.845,1.176c-0.214-0.912-0.318-1.78-0.318-2.587
	c0-0.972,0.104-1.894,0.326-2.762H472.033L472.033,120.947z M529.088,177.467h-18.617v-56.52l23.947-0.008
	c16.146,1.103,24.431,9.797,25.309,26.536C558.637,166.288,548.324,176.378,529.088,177.467z M547.163,147.526
	c0-15.535-6.978-23.417-20.73-23.417h-4.153c-0.51,0-0.932,0.422-0.932,0.938v48.325c0,0.507,0.422,0.931,0.932,0.931h3.667
	c7.03,0,12.395-2.295,15.946-6.813C545.383,163.033,547.163,156.317,547.163,147.526z M433.417,120.947v56.52h30.575
	c-0.148-1.026-0.233-1.973-0.233-2.762c0-0.894,0.07-1.735,0.202-2.502c-2.108,0.326-4.434,0.582-6.918,0.756
	c-2.911,0.224-6.776,0.333-11.814,0.333c-0.51,0-0.934-0.419-0.934-0.928v-21.817c0-0.515,0.424-0.935,0.934-0.935h9.063
	c3.408,0.207,6.498,0.4,9.34,0.593c-0.052-0.232-0.111-0.492-0.179-0.779l-0.029-3.911c0-0.107,0.017-0.209,0.05-0.298
	c0.03-0.1,0.061-0.197,0.085-0.288c-2.82,0.335-5.936,0.512-9.267,0.512h-9.066c-0.507,0-0.934-0.422-0.934-0.935v-18.454
	c0-0.516,0.427-0.933,0.934-0.933c6.038,0,12.378,0.396,18.847,1.176c-0.205-0.912-0.314-1.78-0.314-2.587
	c0-0.972,0.112-1.894,0.321-2.762H433.417L433.417,120.947z"/>
<g>
	<g>
		<path fill="#5E8CDA" d="M174.788,148.126l-27.183-27.183c-0.113-0.115-0.266-0.177-0.424-0.177c-0.013,0-0.024,0-0.035,0
			c-0.171,0.01-0.331,0.093-0.438,0.229l-11.584,14.7c-0.191,0.24-0.169,0.582,0.046,0.798l12.483,12.48
			c0.447,0.451,0.693,1.045,0.693,1.685c-0.003,0.628-0.251,1.216-0.693,1.656l-3.606,3.607c-0.203,0.204-0.234,0.522-0.077,0.759
			c0.901,1.344,2.37,3.563,2.509,3.807c0.452,0.904,0.602,3.213-0.729,4.227l-28.397,21.813c-0.147,0.112-0.234,0.287-0.234,0.475
			c0,2.421-0.003,21.855-0.001,22.053c0,0.42,0,0.67,0.332,0.839c0.084,0.043,0.175,0.063,0.271,0.063
			c0.248,0,0.347-0.097,0.586-0.334l0.473-0.479c0.416-0.411,56.005-55.975,56.005-55.975
			C176.163,151.772,176.159,149.513,174.788,148.126z"/>
		<path fill="#093071" d="M138.667,89.962l-0.009-0.012c-0.007-0.007-0.013-0.016-0.017-0.021l-0.016-0.02
			c-0.108-0.129-0.267-0.207-0.436-0.214c-0.01,0-0.018,0-0.027,0c-0.16,0-0.314,0.061-0.427,0.176l-56.627,56.634
			c-0.673,0.664-1.043,1.562-1.043,2.52c0,0.957,0.373,1.849,1.048,2.512l27.173,27.177c0.113,0.115,0.267,0.177,0.425,0.177
			c0.012,0,0.024,0,0.036,0c0.171-0.01,0.331-0.092,0.436-0.23l11.594-14.7c0.189-0.238,0.167-0.577-0.047-0.797l-12.496-12.481
			c-0.443-0.439-0.682-1.028-0.685-1.657c-0.002-0.635,0.242-1.228,0.685-1.669l3.616-3.621c0.205-0.207,0.234-0.531,0.065-0.77
			l-2.465-3.546c-0.996-1.413-0.687-3.419,0.688-4.475l28.407-21.794c0.148-0.114,0.236-0.288,0.236-0.478l0.006-22.347
			C138.787,90.194,138.746,90.066,138.667,89.962z"/>
	</g>
	<path fill="#F5CD21" d="M143.669,160.125l-31.455-20.432l13.894,19.973c0.297,0.459,0.268,1.24-0.063,1.681L101.16,192.93
		c-0.439,0.573-0.807,1.193-0.495,1.833c0.166,0.334,0.573,0.604,0.967,0.631c0.492-0.003,0.868-0.216,1.385-0.611l39.994-30.702
		C144.235,163.146,144.202,160.885,143.669,160.125z"/>
	<path fill="#FDDD75" d="M155.217,104.897c-0.19-0.387-0.606-0.646-1.041-0.646c-0.39,0-0.753,0.167-1.313,0.595l-40.011,30.726
		c-1.268,0.97-1.555,2.819-0.639,4.121l31.455,20.432c-0.456-0.669-13.763-19.959-13.898-20.154
		c-0.302-0.426-0.275-1.257,0.053-1.674l24.886-31.594l0.017-0.022C155.132,106.163,155.536,105.554,155.217,104.897z"/>
</g>
</svg>
