<?xml version="1.0" encoding="iso-8859-1"?>
<!-- Generator: Adobe Illustrator 16.0.0, SVG Export Plug-In . SVG Version: 6.00 Build 0)  -->
<!DOCTYPE svg PUBLIC "-//W3C//DTD SVG 1.1//EN" "http://www.w3.org/Graphics/SVG/1.1/DTD/svg11.dtd">
<svg version="1.1" id="Layer_1" xmlns="http://www.w3.org/2000/svg" xmlns:xlink="http://www.w3.org/1999/xlink" x="0px" y="0px"
	 width="640px" height="300px" viewBox="0 0 640 300" style="enable-background:new 0 0 640 300;" xml:space="preserve">
<g transform="matrix(.217946 0 0 .217946 4.120542 14.085548)">
	<path style="fill:#8D8D8D;" d="M2480.486,508.576c-5.955,0-11.74,1.232-16.866,4.122l-162.087,93.607
		c-10.48,6.04-16.866,17.453-16.866,29.604v186.865c0,12.129,6.385,23.533,16.866,29.595l42.325,24.389
		c20.575,10.14,28.166,9.988,37.508,9.988c30.456,0,47.837-18.497,47.837-50.601V651.79c0-2.612-2.254-4.476-4.799-4.476h-20.32
		c-2.617,0-4.799,1.909-4.799,4.476v184.441c0,14.253-14.831,28.569-38.902,16.547l-43.997-25.805
		c-1.564-0.856-2.765-2.402-2.765-4.158V635.955c0-1.779,1.178-3.58,2.765-4.481l161.746-93.258c1.519-0.869,3.32-0.869,4.817,0
		l161.728,93.258c1.542,0.941,2.765,2.657,2.765,4.481v186.861c0,1.801-0.878,3.625-2.402,4.499l-162.091,93.271
		c-1.434,0.815-3.338,0.815-4.817,0l-41.644-24.792c-1.241-0.708-2.935-0.668-4.113,0c-11.511,6.515-13.675,7.263-24.434,11.014
		c-2.657,0.919-6.708,2.357,1.371,6.882l54.369,32.06c5.162,3.002,10.956,4.458,16.87,4.458c5.995,0,11.677-1.416,16.843-4.458
		l162.109-93.271c10.48-6.107,16.843-17.461,16.843-29.595V636.018c0-12.152-6.363-23.542-16.843-29.609l-162.109-93.603
		c-5.059-2.904-10.888-4.136-16.843-4.136L2480.486,508.576z M2523.846,642.107c-46.165,0-73.641,19.648-73.641,52.313
		c0,35.385,27.283,45.157,71.584,49.548c52.976,5.189,57.139,12.967,57.139,23.403c0,18.093-14.446,25.805-48.527,25.805
		c-42.863,0-52.268-10.696-55.422-32.042c-0.363-2.29-2.137-4.113-4.458-4.113h-21.042c-2.657,0.04-4.759,2.164-4.826,4.803
		c0,27.283,14.831,59.536,85.686,59.536c51.287,0,80.864-20.105,80.864-55.422c0-34.892-23.878-44.342-73.641-50.924
		c-50.216-6.685-55.06-9.902-55.06-21.687c0-9.728,4.073-22.717,41.299-22.717c33.26,0,45.565,7.178,50.579,29.595
		c0.453,2.124,2.317,3.836,4.503,3.836h21.046c1.286,0,2.527-0.811,3.428-1.712c0.878-1.008,1.501-2.124,1.371-3.473
		c-3.257-38.62-28.995-56.771-80.864-56.771L2523.846,642.107z"/>
	<path style="fill:#404137;" d="M1527.572,263.596c-1.824,0-3.603,0.484-5.189,1.385c-3.168,1.855-5.144,5.265-5.144,8.953v263.267
		c0,2.581-1.201,4.893-3.45,6.188c-2.227,1.313-4.992,1.313-7.219,0l-43.029-24.774c-6.385-3.692-14.262-3.692-20.647,0
		l-171.723,99.114c-6.419,3.692-10.33,10.83-10.33,18.25v198.197c-0.009,7.393,3.934,14.231,10.33,17.919l171.723,99.101
		c6.385,3.706,14.262,3.706,20.647,0l171.747-99.101c6.385-3.688,10.324-10.525,10.306-17.919V340.001
		c0-7.523-4.095-14.571-10.651-18.237l-102.228-57.139C1531.126,263.739,1529.324,263.578,1527.572,263.596L1527.572,263.596z
		 M422.863,511.041c-3.28,0.139-6.356,0.703-9.291,2.406l-171.723,99.114c-6.407,3.674-10.351,10.512-10.33,17.887l0.354,266.031
		c0,3.706,1.92,7.133,5.166,8.935c3.193,1.927,7.147,1.927,10.319,0l101.865-58.505c6.461-3.818,10.671-10.503,10.671-17.878
		V704.793c0-7.416,3.889-14.208,10.333-17.896l43.356-25.119c3.139-1.819,6.697-2.783,10.33-2.742
		c3.623-0.04,7.189,0.923,10.317,2.742l43.347,25.119c6.43,3.688,10.319,10.48,10.319,17.874v124.242
		c0,7.393,4.308,14.119,10.671,17.896l101.866,58.505c3.204,1.909,7.147,1.909,10.319,0c3.161-1.819,5.166-5.251,5.166-8.957
		l0.341-266.009c0.045-7.398-3.898-14.231-10.317-17.896l-171.723-99.105c-2.904-1.703-5.989-2.281-9.291-2.42h-2.057
		L422.863,511.041z M1965.978,513.447c-3.603-0.005-7.183,0.945-10.31,2.756l-171.729,99.11
		c-6.412,3.71-10.333,10.503-10.333,17.896v198.224c0,7.456,4.203,14.208,10.673,17.874l170.34,97.107
		c6.3,3.58,13.971,3.858,20.32,0.345l103.237-57.479c3.275-1.824,5.484-5.211,5.507-8.939c0-3.728-1.931-7.093-5.189-8.957
		l-172.76-99.101c-3.235-1.846-5.507-5.592-5.507-9.302v-61.982c0-3.706,2.312-7.093,5.507-8.957l53.684-30.949
		c3.195-1.864,7.115-1.864,10.333,0l53.706,30.949c3.217,1.842,5.184,5.274,5.162,8.957v48.867
		c-0.018,3.683,1.954,7.115,5.171,8.957c3.213,1.842,7.115,1.842,10.328,0l102.896-59.881c6.385-3.706,10.323-10.503,10.323-17.874
		v-47.837c0-7.393-3.925-14.208-10.323-17.905l-170.708-99.11c-3.128-1.824-6.685-2.769-10.306-2.751L1965.978,513.447z
		 M1452.529,661.437c0.963,0,1.904,0.233,2.751,0.686l58.855,34.076c1.609,0.923,2.76,2.612,2.76,4.454v68.157
		c0,1.842-1.152,3.558-2.76,4.463l-58.855,34.067c-1.595,0.91-3.558,0.91-5.164,0l-58.839-34.067
		c-1.611-0.905-2.756-2.621-2.756-4.463v-68.157c0-1.842,1.158-3.531,2.756-4.476l58.839-34.054
		C1450.92,661.652,1451.628,661.437,1452.529,661.437L1452.529,661.437L1452.529,661.437z"/>
	<path style="fill:#8D8D8D;" d="M938.734,512.412c-3.632-0.013-7.189,0.941-10.33,2.756l-171.732,98.765
		c-6.419,3.706-10.319,10.834-10.319,18.228v198.247c-0.02,7.371,3.923,14.204,10.319,17.869l171.732,99.123
		c6.387,3.706,14.264,3.706,20.652,0l171.718-99.123c6.398-3.683,10.342-10.498,10.333-17.869V632.16
		c0-7.411-3.903-14.531-10.333-18.228l-171.729-98.765c-3.141-1.824-6.699-2.778-10.333-2.756H938.734L938.734,512.412z
		 M1965.656,689.299c-0.686,0-1.434,0-2.079,0.341l-33.023,19.29c-1.268,0.686-2.039,1.994-2.083,3.428v37.853
		c0,1.411,0.86,2.738,2.083,3.45l33.023,18.922c1.161,0.726,2.639,0.726,3.795,0l33.028-18.922c1.241-0.712,2.079-2.039,2.079-3.45
		v-37.853c0-1.434-0.838-2.742-2.079-3.45l-33.028-19.267c-0.623-0.385-1.053-0.341-1.739-0.341H1965.656L1965.656,689.299z"/>
</g>
</svg>
