<?xml version="1.0" encoding="iso-8859-1"?>
<!-- Generator: Adobe Illustrator 16.0.0, SVG Export Plug-In . SVG Version: 6.00 Build 0)  -->
<!DOCTYPE svg PUBLIC "-//W3C//DTD SVG 1.1//EN" "http://www.w3.org/Graphics/SVG/1.1/DTD/svg11.dtd">
<svg version="1.1" id="Layer_1" xmlns="http://www.w3.org/2000/svg" xmlns:xlink="http://www.w3.org/1999/xlink" x="0px" y="0px"
	 width="640px" height="300px" viewBox="0 170 640 300" style="enable-background:new 0 170 640 300;" xml:space="preserve">
<g transform="matrix(.217946 0 0 .217946 4.120542 14.085548)">
	<path style="fill:#83CD29;" d="M2672.522,1270.435c-7.071,0-13.94,1.463-20.02,4.897l-192.408,111.114
		c-12.443,7.174-20.024,20.719-20.024,35.147v221.82c0,14.397,7.582,27.933,20.024,35.134l50.243,28.95
		c24.425,12.035,33.431,11.856,44.525,11.856c36.151,0,56.785-21.956,56.785-60.069v-218.84c0-3.105-2.675-5.319-5.7-5.319h-24.12
		c-3.105,0-5.699,2.267-5.699,5.319v218.943c0,16.919-17.605,33.915-46.174,19.639l-52.228-30.63
		c-1.86-1.017-3.284-2.85-3.284-4.933v-221.82c0-2.11,1.398-4.248,3.284-5.319l192-110.704c1.806-1.031,3.943-1.031,5.722,0
		l191.978,110.704c1.833,1.12,3.284,3.155,3.284,5.319v221.82c0,2.137-1.044,4.297-2.85,5.341l-192.413,110.719
		c-1.703,0.968-3.965,0.968-5.722,0l-49.432-29.434c-1.474-0.842-3.486-0.789-4.884,0c-13.662,7.734-16.234,8.625-29.004,13.075
		c-3.154,1.093-7.962,2.8,1.626,8.168l64.545,38.059c6.13,3.562,12.999,5.292,20.024,5.292c7.12,0,13.864-1.68,19.993-5.292
		l192.435-110.719c12.443-7.25,19.998-20.728,19.998-35.134v-221.82c0-14.424-7.555-27.947-19.998-35.147l-192.435-111.111
		c-6.004-3.448-12.923-4.911-19.993-4.911L2672.522,1270.435z M2723.992,1428.946c-54.8,0-87.415,23.327-87.415,62.099
		c0,42.003,32.387,53.603,84.973,58.819c62.887,6.157,67.825,15.391,67.825,27.781c0,21.472-17.148,30.63-57.6,30.63
		c-50.884,0-62.05-12.694-65.791-38.033c-0.43-2.72-2.541-4.884-5.292-4.884h-24.98c-3.154,0.049-5.65,2.568-5.726,5.699
		c0,32.387,17.605,70.675,101.713,70.675c60.88,0,95.991-23.865,95.991-65.791c0-41.42-28.345-52.635-87.415-60.45
		c-59.612-7.935-65.361-11.753-65.361-25.742c0-11.551,4.835-26.97,49.024-26.97c39.484,0,54.087,8.522,60.042,35.134
		c0.533,2.518,2.747,4.552,5.341,4.552h24.985c1.528,0,3.002-0.963,4.069-2.034c1.044-1.196,1.783-2.518,1.631-4.122
		c-3.867-45.843-34.421-67.391-95.991-67.391L2723.992,1428.946z"/>
	<path style="fill:#404137;" d="M1541.346,979.631c-2.164,0-4.275,0.573-6.156,1.642c-3.764,2.2-6.107,6.246-6.107,10.622v312.515
		c0,3.067-1.425,5.814-4.095,7.353c-2.644,1.552-5.928,1.552-8.572,0l-51.076-29.41c-7.581-4.389-16.928-4.389-24.51,0
		l-203.845,117.651c-7.62,4.387-12.264,12.86-12.264,21.664v235.276c-0.011,8.778,4.669,16.892,12.264,21.27l203.845,117.638
		c7.581,4.4,16.928,4.4,24.51,0l203.874-117.638c7.581-4.378,12.259-12.492,12.237-21.27v-586.616c0-8.93-4.862-17.3-12.645-21.651
		l-121.352-67.825C1545.567,979.797,1543.43,979.607,1541.346,979.631L1541.346,979.631z M229.982,1273.361
		c-3.892,0.166-7.543,0.838-11.029,2.861L15.107,1393.875c-7.606,4.36-12.286,12.479-12.262,21.23l0.419,315.799
		c0,4.4,2.278,8.469,6.132,10.606c3.791,2.29,8.484,2.29,12.25,0l120.92-69.452c7.671-4.53,12.669-12.465,12.669-21.221v-147.48
		c0-8.8,4.617-16.865,12.264-21.243l51.466-29.815c3.728-2.164,7.951-3.307,12.264-3.258c4.299-0.049,8.534,1.093,12.248,3.258
		l51.455,29.815c7.633,4.378,12.25,12.443,12.25,21.216v147.484c0,8.778,5.113,16.763,12.669,21.243l120.92,69.452
		c3.804,2.267,8.484,2.267,12.25,0c3.753-2.16,6.132-6.233,6.132-10.633l0.405-315.772c0.052-8.778-4.629-16.892-12.248-21.243
		l-203.845-117.64c-3.448-2.023-7.111-2.709-11.029-2.874h-2.442L229.982,1273.361z M2061.763,1276.222
		c-4.275-0.011-8.522,1.12-12.237,3.269l-203.856,117.651c-7.608,4.405-12.264,12.465-12.264,21.243v235.302
		c0,8.854,4.987,16.87,12.672,21.221l202.203,115.272c7.479,4.248,16.588,4.579,24.12,0.408l122.549-68.233
		c3.889-2.164,6.51-6.183,6.537-10.61c0-4.427-2.29-8.419-6.156-10.633l-205.08-117.638c-3.84-2.191-6.537-6.641-6.537-11.045
		v-73.574c0-4.4,2.747-8.419,6.537-10.633l63.73-36.738c3.791-2.214,8.442-2.214,12.264,0l63.752,36.738
		c3.818,2.187,6.156,6.26,6.13,10.633v58.008c-0.022,4.373,2.317,8.446,6.134,10.633s8.446,2.187,12.264,0l122.141-71.083
		c7.581-4.4,12.259-12.466,12.259-21.216v-56.785c0-8.778-4.66-16.866-12.259-21.257l-202.638-117.651
		c-3.715-2.162-7.94-3.282-12.237-3.269L2061.763,1276.222z M1452.264,1451.892c1.143,0,2.263,0.278,3.266,0.816l69.864,40.448
		c1.909,1.098,3.28,3.105,3.28,5.292v80.905c0,2.187-1.371,4.221-3.28,5.292l-69.864,40.448c-1.891,1.075-4.221,1.075-6.13,0
		l-69.846-40.448c-1.909-1.071-3.271-3.105-3.271-5.292v-80.905c0-2.187,1.376-4.194,3.271-5.314l69.846-40.425
		C1450.356,1452.147,1451.196,1451.892,1452.264,1451.892L1452.264,1451.892L1452.264,1451.892z"/>
	<path style="fill:#83CD29;" d="M842.357,1274.987c-4.313-0.011-8.536,1.12-12.264,3.271l-203.856,117.243
		c-7.62,4.4-12.25,12.86-12.25,21.638v235.329c-0.025,8.751,4.658,16.866,12.25,21.216l203.856,117.665
		c7.581,4.4,16.933,4.4,24.514,0l203.843-117.665c7.595-4.373,12.277-12.465,12.264-21.216v-235.329
		c0-8.8-4.631-17.251-12.264-21.638l-203.856-117.243c-3.728-2.164-7.951-3.296-12.264-3.271H842.357z M2061.383,1484.964
		c-0.815,0-1.703,0-2.469,0.408l-39.202,22.897c-1.501,0.816-2.42,2.366-2.469,4.069v44.933c0,1.676,1.017,3.253,2.469,4.095
		l39.202,22.466c1.375,0.86,3.132,0.86,4.503,0l39.207-22.466c1.474-0.842,2.469-2.42,2.469-4.095v-44.933
		c0-1.703-0.995-3.253-2.469-4.095l-39.207-22.87c-0.735-0.457-1.246-0.408-2.061-0.408H2061.383L2061.383,1484.964z"/>
</g>
</svg>
