<?xml version="1.0" encoding="utf-8"?>
<!-- Generator: Adobe Illustrator 16.0.0, SVG Export Plug-In . SVG Version: 6.00 Build 0)  -->
<!DOCTYPE svg PUBLIC "-//W3C//DTD SVG 1.1//EN" "http://www.w3.org/Graphics/SVG/1.1/DTD/svg11.dtd">
<svg version="1.1"
	 id="svg4" sodipodi:docname="drupal-ar21.svg" inkscape:version="0.92.4 (5da689c313, 2019-01-14)" xmlns:dc="http://purl.org/dc/elements/1.1/" xmlns:cc="http://creativecommons.org/ns#" xmlns:rdf="http://www.w3.org/1999/02/22-rdf-syntax-ns#" xmlns:svg="http://www.w3.org/2000/svg" xmlns:sodipodi="http://sodipodi.sourceforge.net/DTD/sodipodi-0.dtd" xmlns:inkscape="http://www.inkscape.org/namespaces/inkscape"
	 xmlns="http://www.w3.org/2000/svg" xmlns:xlink="http://www.w3.org/1999/xlink" x="0px" y="0px" width="640px" height="300px"
	 viewBox="0 0 640 300" enable-background="new 0 0 640 300" xml:space="preserve">
<sodipodi:namedview  id="namedview6" inkscape:pageopacity="0" inkscape:pageshadow="2" inkscape:window-width="1920" inkscape:window-height="1001" inkscape:window-x="-9" inkscape:window-y="-9" inkscape:current-layer="svg4" inkscape:window-maximized="1" pagecolor="#ffffff" showgrid="false" inkscape:zoom="5.2149125" bordercolor="#666666" borderopacity="1" objecttolerance="10" inkscape:cx="70.508475" gridtolerance="10" inkscape:cy="64" guidetolerance="10">
	</sodipodi:namedview>
<g>
	<path d="M120.181,236.837h-12.837V102.403c10.209-3.234,20.923-4.953,31.738-5.054c6.975-0.101,13.949,1.112,20.519,3.538
		c5.862,2.123,11.32,5.458,15.869,9.805c4.447,4.245,7.884,9.299,10.107,15.061c2.426,5.963,3.538,12.432,3.538,18.901
		c0,8.289-1.415,15.364-4.245,21.328c-2.628,5.659-6.469,10.612-11.22,14.656c-4.65,3.841-10.006,6.671-15.87,8.389
		c-5.862,1.82-12.028,2.729-18.194,2.729c-3.335,0-6.57-0.201-9.805-0.708c-3.234-0.506-6.469-1.213-9.602-2.021V236.837z
		 M174.459,144.351c0-10.714-3.032-19.407-8.996-26.078c-5.963-6.57-14.454-9.905-25.27-9.905c-3.437,0-6.771,0.202-10.208,0.606
		c-3.335,0.404-6.671,1.213-9.804,2.325v65.599c3.032,1.01,6.064,1.819,9.198,2.526c3.032,0.708,6.064,1.012,9.198,1.012
		c11.018,0,19.71-3.134,26.179-9.4C171.225,164.869,174.459,155.975,174.459,144.351z"/>
	<path d="M214.991,190.847V61.164h12.938v129.581h-12.938V190.847z"/>
	<path d="M333.96,177.302c-4.145,4.548-9.3,8.187-14.96,10.612c-5.661,2.427-12.534,3.641-20.519,3.641
		c-6.671,0.1-13.342-1.112-19.508-3.843c-5.357-2.324-10.108-5.862-13.848-10.31c-3.74-4.346-6.57-9.399-8.289-14.857
		c-1.92-5.66-2.831-11.625-2.831-17.588c-0.202-7.177,1.011-14.454,3.336-21.227c1.92-5.559,5.054-10.613,9.097-14.959
		c3.74-3.841,8.289-6.874,13.343-8.794c5.155-1.92,10.613-2.83,16.071-2.83c13.544,0,23.854,4.144,30.727,12.533
		c6.874,8.289,10.21,20.418,10.008,36.388h-69.44c0.404,10.511,3.437,18.8,9.097,24.966c5.661,6.165,13.443,9.299,23.147,9.299
		c5.053,0.102,10.107-0.809,14.858-2.729c4.65-1.922,8.693-4.853,12.028-8.592L333.96,177.302z M323.549,135.253
		c0-3.639-0.606-7.277-1.719-10.714c-1.112-3.133-2.729-6.064-4.952-8.491c-2.325-2.526-5.256-4.447-8.391-5.66
		c-7.782-2.83-16.374-2.83-24.157,0c-3.033,1.213-5.863,3.032-8.086,5.458c-2.223,2.527-4.043,5.357-5.458,8.39
		c-1.718,3.437-2.729,7.176-3.234,11.017H323.549L323.549,135.253z"/>
	<path d="M421.392,120.092c-2.83-3.74-6.368-6.772-10.513-8.996c-4.144-2.021-8.794-3.032-13.342-2.83
		c-6.57,0-11.22,1.213-13.848,3.538c-2.628,2.223-4.044,5.458-3.941,8.895c-0.103,2.223,0.606,4.447,1.819,6.267
		c1.313,1.819,2.932,3.335,4.851,4.447c2.225,1.314,4.549,2.426,6.975,3.234c2.629,0.91,5.358,1.819,8.289,2.729
		c3.537,1.112,6.975,2.325,10.512,3.639c3.437,1.212,6.671,2.931,9.603,5.054c2.83,2.021,5.256,4.649,7.075,7.681
		c1.921,3.438,2.83,7.379,2.729,11.423c0.101,3.942-0.911,7.783-2.729,11.32c-1.819,3.336-4.347,6.166-7.379,8.389
		c-3.335,2.427-7.075,4.145-11.018,5.155c-10.916,2.83-22.54,2.224-33.051-1.819c-6.167-2.729-11.727-6.873-16.072-11.927
		l10.107-8.895c6.772,8.692,15.465,12.938,26.18,12.938c6.974,0,12.129-1.314,15.565-3.942c3.336-2.628,5.055-5.76,5.055-9.4
		c0.101-2.526-0.506-4.952-1.821-7.176c-1.313-2.021-3.031-3.64-5.052-4.953c-2.325-1.415-4.752-2.628-7.379-3.437
		c-2.83-0.909-5.763-1.82-8.794-2.729c-3.538-1.011-6.976-2.123-10.412-3.335c-3.233-1.112-6.368-2.729-9.198-4.75
		c-2.729-1.921-5.053-4.448-6.67-7.278c-1.819-3.437-2.729-7.378-2.628-11.32c0-8.188,2.931-14.454,8.895-18.902
		c5.963-4.447,13.646-6.671,23.146-6.671c6.166-0.101,12.23,1.112,17.891,3.437c5.256,2.224,10.209,6.166,15.061,11.725
		l-9.501,8.692L421.392,120.092z"/>
	<path d="M455.758,190.847V61.366h12.938v129.481H455.758L455.758,190.847z M468.797,143.037l44.474-44.878h17.386l-45.586,44.474
		l45.384,48.114h-17.992L468.797,143.037z"/>
	<path fill="#53BCE6" d="M260.072,236.837h-78.031v-12.231h78.031V236.837z"/>
</g>
</svg>
