<?xml version="1.0" encoding="utf-8"?>
<!-- Generator: Adobe Illustrator 27.0.0, SVG Export Plug-In . SVG Version: 6.00 Build 0)  -->
<svg version="1.1" id="Layer_1" xmlns="http://www.w3.org/2000/svg" xmlns:xlink="http://www.w3.org/1999/xlink" x="0px" y="0px"
	 viewBox="0 0 155 35" style="enable-background:new 0 0 155 35;" xml:space="preserve">
<style type="text/css">
	.st0{fill:#74CD71;}
</style>
<g>
	<path class="st0" d="M23.8,10c0,1.8-0.5,3.5-1.6,4.9s-2.5,2.5-4.2,3.2l3.4,8.8h-5.1l-3-8.1H9.6L8,26.9H3.2L7.8,3.6H17
		c2,0,3.7,0.6,5,1.8C23.2,6.6,23.8,8.2,23.8,10z M11.8,7.9l-1.3,6.6h4.2c1.2,0,2.3-0.4,3.1-1.2s1.2-1.8,1.2-2.9
		c0-0.8-0.3-1.4-0.8-1.8S17,7.9,16,7.9C16,7.9,11.8,7.9,11.8,7.9z"/>
	<path class="st0" d="M41.9,8.9h3.6l-3.6,18h-3.4l-0.1-1.7c-1.8,1.4-3.9,2.2-6.2,2.2c-2.4,0-4.3-0.8-5.8-2.3s-2.2-3.4-2.2-5.7
		c0-2,0.5-3.8,1.4-5.5c1-1.7,2.3-3,4-4c1.7-1,3.5-1.5,5.5-1.5c1.2,0,2.3,0.2,3.3,0.7c1,0.5,1.8,1.1,2.5,2L41.9,8.9z M33,23
		c1.6,0,3-0.6,4.3-1.9s1.8-2.7,1.8-4.4c0-1.2-0.4-2.2-1.2-2.9c-0.8-0.7-1.8-1.1-3.1-1.1c-1.6,0-3,0.6-4.2,1.9
		c-1.2,1.3-1.8,2.7-1.8,4.4c0,1.2,0.4,2.1,1.1,2.9C30.7,22.7,31.7,23,33,23z"/>
	<path class="st0" d="M58.7,8.4c2.3,0,4.3,0.8,5.8,2.3c1.5,1.5,2.2,3.4,2.2,5.8c0,2-0.5,3.8-1.4,5.5s-2.3,3-3.9,4
		c-1.7,1-3.5,1.5-5.5,1.5c-2.1,0-3.9-0.7-5.2-2l-1.6,8h-4.7l4.9-24.5h3.1l0.4,1.7C54.5,9.2,56.5,8.4,58.7,8.4z M55.9,23
		c1.6,0,3.1-0.6,4.3-1.9s1.8-2.7,1.8-4.4c0-1.2-0.4-2.1-1.1-2.9s-1.8-1.1-3-1.1c-1.6,0-3.1,0.6-4.3,1.9s-1.8,2.7-1.8,4.4
		c0,1.2,0.4,2.1,1.2,2.8C53.6,22.7,54.6,23,55.9,23z"/>
	<path class="st0" d="M67.8,26.9l3.6-18H76l-3.6,18H67.8z"/>
	<path class="st0" d="M94.2,2.5h4.6L94,26.9h-3.3l-0.3-1.7c-1.9,1.4-3.9,2.1-6.1,2.1c-2.2,0-4.1-0.8-5.5-2.2
		c-1.4-1.5-2.2-3.4-2.2-5.7c0-2,0.5-3.8,1.5-5.5s2.3-3,4-4c1.7-1,3.6-1.5,5.6-1.5c2,0,3.7,0.6,5.1,1.9L94.2,2.5z M85.6,23
		c1.6,0,3-0.6,4.2-1.8c1.2-1.2,1.8-2.6,1.8-4.3c0-1.2-0.4-2.2-1.2-3s-1.8-1.1-3.1-1.1c-1.6,0-3,0.6-4.2,1.8s-1.8,2.7-1.8,4.3
		c0,1.2,0.4,2.2,1.2,3C83.2,22.6,84.3,23,85.6,23z"/>
	<path d="M105.6,27.4c-2.3,0-4.2-0.6-5.6-1.7c-1.4-1.1-2.1-2.7-2.1-4.6c0-0.6,0.1-1.1,0.2-1.7h4.8c0,0.2-0.1,0.5-0.1,0.7
		c0,0.9,0.3,1.6,0.9,2.1c0.6,0.5,1.5,0.8,2.6,0.8c1.2,0,2.3-0.3,3.2-1c0.9-0.6,1.3-1.5,1.3-2.5c0-0.3-0.1-0.6-0.2-0.9
		c-0.2-0.3-0.4-0.5-0.6-0.7c-0.2-0.2-0.6-0.4-1-0.5c-0.4-0.2-0.8-0.3-1.1-0.4s-0.8-0.2-1.3-0.4c-0.6-0.1-1-0.3-1.3-0.4
		s-0.7-0.2-1.2-0.4c-0.5-0.2-0.9-0.4-1.2-0.6c-0.3-0.2-0.7-0.4-1-0.7c-0.4-0.3-0.7-0.6-0.9-0.9c-0.2-0.3-0.4-0.7-0.5-1.1
		c-0.2-0.4-0.2-0.9-0.2-1.5c0-1.7,0.4-3.2,1.3-4.4c0.8-1.2,2-2.1,3.4-2.7c1.4-0.6,3.1-0.9,5-0.9c2.2,0,3.9,0.5,5.2,1.6
		s1.9,2.5,1.9,4.4c0,0.5-0.1,1.1-0.2,1.6h-4.7c0-0.2,0.1-0.4,0.1-0.6c0-0.8-0.3-1.4-0.8-1.9c-0.6-0.5-1.3-0.7-2.3-0.7
		c-1.1,0-2.1,0.3-2.8,0.8c-0.8,0.5-1.1,1.2-1.1,2.2c0,0.3,0.1,0.6,0.2,0.8c0.2,0.2,0.3,0.4,0.5,0.6c0.2,0.2,0.5,0.3,0.9,0.5
		c0.4,0.2,0.8,0.3,1.1,0.4c0.3,0.1,0.7,0.2,1.3,0.4c0.6,0.1,1,0.3,1.3,0.4c0.3,0.1,0.8,0.2,1.3,0.4c0.5,0.2,1,0.4,1.3,0.6
		c0.3,0.2,0.7,0.4,1.1,0.7c0.4,0.3,0.7,0.6,0.9,1c0.2,0.3,0.4,0.8,0.6,1.2c0.2,0.5,0.2,1,0.2,1.6c0,1.8-0.4,3.4-1.3,4.7
		c-0.9,1.3-2.1,2.3-3.6,2.9S107.6,27.4,105.6,27.4z"/>
	<path d="M125.5,27.4c-2.3,0-4.2-0.6-5.6-1.7c-1.4-1.1-2.1-2.7-2.1-4.6c0-0.6,0.1-1.1,0.2-1.7h4.8c0,0.2-0.1,0.5-0.1,0.7
		c0,0.9,0.3,1.6,0.9,2.1c0.6,0.5,1.5,0.8,2.6,0.8c1.2,0,2.3-0.3,3.2-1c0.9-0.6,1.3-1.5,1.3-2.5c0-0.3-0.1-0.6-0.2-0.9
		s-0.4-0.5-0.6-0.7s-0.6-0.4-1-0.5s-0.8-0.3-1.1-0.4s-0.8-0.2-1.3-0.4c-0.6-0.1-1-0.3-1.3-0.4s-0.7-0.2-1.2-0.4
		c-0.5-0.2-0.9-0.4-1.2-0.6c-0.3-0.2-0.7-0.4-1-0.7c-0.4-0.3-0.7-0.6-0.9-0.9c-0.2-0.3-0.4-0.7-0.5-1.1c-0.2-0.4-0.2-0.9-0.2-1.5
		c0-1.7,0.4-3.2,1.3-4.4c0.8-1.2,2-2.1,3.4-2.7c1.4-0.6,3.1-0.9,5-0.9c2.2,0,3.9,0.5,5.2,1.6S137,7.1,137,9c0,0.5-0.1,1.1-0.1,1.6
		h-4.7c0-0.2,0.1-0.4,0.1-0.6c0-0.8-0.3-1.4-0.9-1.9c-0.6-0.5-1.3-0.7-2.3-0.7c-1.1,0-2.1,0.3-2.8,0.8c-0.8,0.5-1.1,1.2-1.1,2.2
		c0,0.3,0.1,0.6,0.2,0.8c0.2,0.2,0.3,0.4,0.5,0.6c0.2,0.2,0.5,0.3,0.9,0.5c0.4,0.2,0.8,0.3,1.1,0.4c0.3,0.1,0.7,0.2,1.3,0.4
		c0.6,0.1,1,0.3,1.3,0.4c0.3,0.1,0.8,0.2,1.3,0.4c0.5,0.2,1,0.4,1.3,0.6c0.3,0.2,0.7,0.4,1.1,0.7c0.4,0.3,0.7,0.6,0.9,1
		c0.2,0.3,0.4,0.8,0.6,1.2c0.1,0.5,0.2,1,0.2,1.6c0,1.8-0.4,3.4-1.3,4.7s-2.1,2.3-3.6,2.9S127.5,27.4,125.5,27.4z"/>
	<path d="M142.9,22.7h9.1l-0.9,4.2h-13.9l4.7-23.3h4.8L142.9,22.7z"/>
	<path class="st0" d="M74.6,1.5c-1.4,0-2.7,1.3-2.7,2.7s1.3,2.7,2.7,2.7s2.7-1.3,2.7-2.7S76.1,1.5,74.6,1.5z"/>
</g>
</svg>
