<?xml version="1.0" encoding="utf-8"?>
<!-- Generator: Adobe Illustrator 16.0.0, SVG Export Plug-In . SVG Version: 6.00 Build 0)  -->
<!DOCTYPE svg PUBLIC "-//W3C//DTD SVG 1.1//EN" "http://www.w3.org/Graphics/SVG/1.1/DTD/svg11.dtd">
<svg version="1.1" id="Layer_1" xmlns="http://www.w3.org/2000/svg" xmlns:xlink="http://www.w3.org/1999/xlink" x="0px" y="0px"
	 width="640px" height="300px" viewBox="0 0 640 300" enable-background="new 0 0 640 300" xml:space="preserve">
<g transform="matrix(.06928 0 0 .06928 7.367398 13.505331)">
	<circle fill="#8D8D8D" cx="1821.368" cy="1967.482" r="288.486"/>
	<g>
		<path fill="none" stroke="#8D8D8D" stroke-width="65" d="M1821.368,1380.882c387.369,0,747.208,55.608,1018.54,149
			c326.884,112.549,527.891,283.151,527.891,437.621c0,160.954-213.003,342.213-564.096,458.546
			c-265.404,87.874-614.623,133.756-982.335,133.756c-376.994,0-733.987-43.049-1002.407-134.728
			c-339.57-116.094-544.094-299.608-544.094-457.573c0-153.215,191.915-322.514,514.232-434.865
			c272.332-94.929,641.06-151.756,1032.227-151.756H1821.368z"/>
		<path fill="none" stroke="#8D8D8D" stroke-width="65" d="M1310.709,1675.881c193.529-335.531,421.446-619.493,637.895-807.898
			c260.816-226.937,508.995-315.825,642.8-238.686c139.465,80.417,190.005,355.505,115.396,717.706
			c-56.341,273.834-191.112,599.307-374.809,917.889c-188.342,326.531-403.981,614.298-617.505,800.9
			c-270.183,236.219-531.372,321.682-668.173,242.717c-132.741-76.428-183.479-327.32-119.808-662.619
			c53.79-283.397,188.8-631.157,384.155-970.008H1310.709z"/>
		<path fill="none" stroke="#8D8D8D" stroke-width="65" d="M1311.196,2265.695c-194.072-335.151-326.207-674.488-381.329-956.102
			c-66.392-339.302-19.459-598.744,114.219-676.116c139.31-80.664,402.888,12.884,679.393,258.427
			c209.112,185.636,423.814,464.91,608.019,783.125c188.892,326.27,330.471,656.833,385.515,935.029
			c69.711,351.988,13.285,620.966-123.339,700.086c-132.621,76.766-375.253-4.553-634.011-227.155
			C1741.071,2894.921,1507.164,2604.235,1311.196,2265.695L1311.196,2265.695z"/>
	</g>
</g>
<path fill="#8D8D8D" d="M355.42,200.878l-24.503-37.01c12.389-1.089,23.542-10.064,23.542-26.455
	c0-16.677-11.839-27.35-28.439-27.35h-36.46v90.747h11.294v-36.055h18.098l23.13,36.055L355.42,200.878z M324.669,154.895h-23.81
	v-34.7h23.81c10.752,0,18.099,7.074,18.099,17.284c0,10.208-7.347,17.427-18.099,17.427V154.895z M397.468,202.508
	c10.749,0,19.589-3.538,26.126-10.064l-4.902-6.673c-5.172,5.313-12.789,8.301-20.269,8.301c-14.152,0-22.863-10.338-23.678-22.716
	h53.196v-2.589c0-19.725-11.705-35.242-31.574-35.242c-18.78,0-32.383,15.38-32.383,34.427c0,20.55,14.018,34.506,33.473,34.506
	L397.468,202.508z M417.878,163.862h-43.133c0.551-10.063,7.48-21.911,21.498-21.911
	C411.216,141.952,417.742,154.064,417.878,163.862z M495.717,200.878v-45.176c0-15.918-11.563-22.184-25.446-22.184
	c-10.756,0-19.186,3.539-26.256,10.887l4.763,7.073c5.846-6.255,12.243-9.114,20.14-9.114c9.524,0,16.601,5.032,16.601,13.877v11.84
	c-5.313-6.127-12.793-8.986-21.773-8.986c-11.159,0-23.004,6.941-23.004,21.634c0,14.288,11.834,21.773,23.004,21.773
	c8.846,0,16.331-3.128,21.773-9.114v7.475L495.717,200.878z M467.422,195.162c-9.524,0-16.196-5.986-16.196-14.288
	c0-8.435,6.672-14.422,16.196-14.422c7.212,0,14.143,2.718,18.096,8.165v12.378C481.575,192.439,474.634,195.162,467.422,195.162
	L467.422,195.162z M545.06,202.508c11.969,0,19.044-4.897,24.083-11.424l-6.808-6.256c-4.353,5.846-9.929,8.564-16.674,8.564
	c-14.013,0-22.716-10.891-22.716-25.441c0-14.556,8.703-25.303,22.716-25.303c6.802,0,12.384,2.586,16.674,8.566l6.808-6.255
	c-5.032-6.535-12.114-11.426-24.083-11.426c-19.6,0-32.797,14.97-32.797,34.424c0,19.595,13.197,34.506,32.797,34.506V202.508z
	 M600.03,202.508c5.986,0,9.666-1.77,12.255-4.213l-2.988-7.621c-1.37,1.494-4.033,2.719-6.941,2.719
	c-4.492,0-6.672-3.532-6.672-8.436v-40.821h13.339v-8.978h-13.339v-17.96h-10.209v17.96H574.59v8.983h10.885v43.001
	c0,9.799,4.896,15.377,14.556,15.377V202.508z"/>
</svg>
