<?xml version="1.0" encoding="utf-8"?>
<!-- Generator: Adobe Illustrator 16.0.0, SVG Export Plug-In . SVG Version: 6.00 Build 0)  -->
<!DOCTYPE svg PUBLIC "-//W3C//DTD SVG 1.1//EN" "http://www.w3.org/Graphics/SVG/1.1/DTD/svg11.dtd">
<svg version="1.1"
	 id="svg4" sodipodi:docname="drupal-ar21.svg" inkscape:version="0.92.4 (5da689c313, 2019-01-14)" xmlns:dc="http://purl.org/dc/elements/1.1/" xmlns:cc="http://creativecommons.org/ns#" xmlns:rdf="http://www.w3.org/1999/02/22-rdf-syntax-ns#" xmlns:svg="http://www.w3.org/2000/svg" xmlns:sodipodi="http://sodipodi.sourceforge.net/DTD/sodipodi-0.dtd" xmlns:inkscape="http://www.inkscape.org/namespaces/inkscape"
	 xmlns="http://www.w3.org/2000/svg" xmlns:xlink="http://www.w3.org/1999/xlink" x="0px" y="0px" width="640px" height="300px"
	 viewBox="0 0 640 300" enable-background="new 0 0 640 300" xml:space="preserve">
<sodipodi:namedview  id="namedview6" inkscape:pageopacity="0" inkscape:pageshadow="2" inkscape:window-width="1920" inkscape:window-height="1001" inkscape:window-x="-9" inkscape:window-y="-9" inkscape:current-layer="svg4" inkscape:window-maximized="1" pagecolor="#ffffff" showgrid="false" inkscape:zoom="5.2149125" bordercolor="#666666" borderopacity="1" objecttolerance="10" inkscape:cx="70.508475" gridtolerance="10" inkscape:cy="64" guidetolerance="10">
	</sodipodi:namedview>
<g transform="matrix(.139961 0 0 .139959 6.576 33.486497)">
	<circle fill="#DD4814" cx="3662.363" cy="662.946" r="193.481"/>
	<path fill="#FFFFFF" d="M3530.77,637.103c-14.269,0-25.816,11.572-25.816,25.845c0,14.265,11.575,25.817,25.816,25.817
		c14.297,0,25.851-11.551,25.851-25.817l0,0c0-14.286-11.554-25.859-25.851-25.859V637.103z M3715.224,754.506
		c-12.42,7.03-16.767,22.799-9.74,35.205c7.033,12.399,22.76,16.763,35.201,9.734c0.126-0.056,0.251-0.126,0.37-0.209
		c12.322-7.131,16.557-22.911,9.461-35.275C3743.371,751.614,3727.588,747.386,3715.224,754.506z M3586.882,662.948
		c0-25.531,12.692-48.075,32.11-61.744l-18.881-31.594c-22.635,15.117-39.443,38.202-46.407,65.233
		c8.457,6.894,13.376,17.231,13.341,28.147c0,11.349-5.212,21.459-13.341,28.161c6.963,27.059,23.772,50.14,46.407,65.243
		l18.881-31.629c-19.418-13.658-32.11-36.21-32.11-61.733V662.948z M3662.363,587.483c39.066,0.014,71.651,29.846,75.104,68.763
		l36.827-0.537c-1.786-28.461-14.248-54.002-33.338-72.782c-9.803,3.709-21.169,3.143-30.945-2.515
		c-9.824-5.645-16.027-15.221-17.688-25.618c-9.531-2.62-19.662-4.064-29.961-4.064c-17.869,0-34.761,4.183-49.749,11.6
		l17.925,32.17C3640.196,590.015,3650.976,587.483,3662.363,587.483z M3662.363,738.409c-11.387,0-22.167-2.536-31.824-7.03
		l-17.925,32.166c15.469,7.665,32.466,11.645,49.749,11.628c10.117-0.017,20.186-1.385,29.961-4.092
		c3.147-19.739,21.714-33.195,41.459-30.045c2.442,0.394,4.843,1.029,7.173,1.929c19.09-18.787,31.552-44.342,33.338-72.782
		l-36.827-0.551c-3.391,38.558-35.703,68.721-75.104,68.721V738.409z M3715.196,571.368c12.392,7.135,28.175,2.906,35.299-9.458
		c7.117-12.347,2.882-28.144-9.44-35.278l0,0c-12.371-7.135-28.154-2.885-35.306,9.458
		C3698.639,548.447,3702.86,564.237,3715.196,571.368z"/>
	<path fill="#DD4814" d="M1009.849,1170.633c-19.673,4.912-45.615,10.124-77.857,15.664c-32.242,5.512-69.561,8.31-111.949,8.31
		c-36.855,0-67.88-5.387-93.061-16.139c-25.178-10.724-45.468-25.949-60.804-45.612c-15.354-19.656-26.42-42.856-33.167-69.545
		c-6.758-26.752-10.124-56.35-10.124-88.942V705.36h85.672v250.61c0,58.346,9.221,100.106,27.658,125.274
		c18.42,25.203,49.431,37.797,93.047,37.797c9.535-0.028,19.062-0.328,28.565-0.921c9.831-0.6,19.031-1.368,27.641-2.323
		l23.496-2.742c7.061-0.949,12.127-1.996,15.19-3.217V705.339h85.693V1170.633L1009.849,1170.633z M1218.983,726.537
		c10.438-6.733,26.256-13.805,47.446-21.177c21.19-7.375,45.618-11.101,73.256-11.101c34.388,0,64.949,6.137,91.679,18.424
		c26.713,12.273,49.292,29.469,67.716,51.595c18.424,22.112,32.389,48.532,41.924,79.243c9.514,30.715,14.279,64.5,14.279,101.334
		c0,38.69-5.69,73.571-17.053,104.586c-11.349,31.029-27.449,57.299-48.367,78.804c-20.911,21.512-46.065,38.097-75.551,49.743
		c-29.473,11.68-62.654,17.513-99.452,17.513c-39.942,0-75.251-2.742-105.959-8.282c-30.711-5.533-55.889-11.08-75.548-16.585
		V484.219l85.693-14.726v257.044H1218.983z M1218.983,1109.838c8.596,2.442,20.73,4.738,36.401,6.88
		c15.661,2.149,35.156,3.245,58.509,3.245c46.061,0,82.919-15.218,110.557-45.619c27.63-30.394,41.467-73.55,41.467-129.446
		c0-24.554-2.474-47.607-7.375-69.105c-4.912-21.505-12.894-40.079-23.915-55.729c-11.007-15.668-25.335-27.959-42.848-36.862
		c-17.503-8.917-38.553-13.358-63.114-13.358c-23.336,0-44.84,3.988-64.482,11.977c-19.659,7.968-34.716,16.331-45.2,24.864
		V1109.838L1218.983,1109.838z M2033.439,1170.633c-19.666,4.912-45.594,10.124-77.854,15.664
		c-32.235,5.512-69.554,8.282-111.945,8.282c-36.844,0-67.859-5.394-93.047-16.111c-25.195-10.724-45.468-25.949-60.818-45.612
		c-15.34-19.656-26.399-42.856-33.163-69.545c-6.747-26.752-10.124-56.35-10.124-88.942V705.36h85.672v250.61
		c0,58.346,9.221,100.106,27.641,125.274c18.438,25.203,49.442,37.797,93.061,37.797c9.531-0.028,19.048-0.328,28.562-0.921
		c9.817-0.6,19.02-1.368,27.644-2.323l23.479-2.742c7.065-0.949,12.127-1.996,15.211-3.217V705.339h85.675v465.294H2033.439z
		 M2156.904,719.176c19.638-4.912,45.751-10.142,78.318-15.664c32.556-5.526,70.025-8.282,112.378-8.282
		c38.09,0,69.725,5.376,94.899,16.118c25.195,10.745,45.269,25.789,60.368,45.151c15.099,19.345,25.649,42.549,31.775,69.566
		c6.147,27.024,9.182,56.811,9.182,89.34v269.045h-85.696V933.845c0-29.459-1.996-54.662-5.987-75.545
		c-3.984-20.884-10.599-37.773-19.802-50.674c-9.203-12.884-21.504-22.262-36.841-28.105c-15.371-5.837-34.44-8.753-57.124-8.753
		c-9.245,0-18.776,0.328-28.6,0.918c-9.859,0.611-19.209,1.388-28.126,2.313c-7.996,0.799-15.992,1.88-23.939,3.21l-15.204,2.763
		v404.457h-85.602V719.176z M2741.948,705.36h181.51v71.847h-181.51v221.11c0,23.926,1.849,43.784,5.533,59.455
		c3.698,15.644,9.182,27.945,16.571,36.841c7.208,8.792,16.788,15.35,27.63,18.881c11.115,3.698,23.926,5.547,38.697,5.547
		c26.423,0,47.3-2.917,62.664-8.75c15.35-5.84,25.802-9.978,31.308-12.427l18.434,69.991c-8.61,4.319-23.793,9.838-45.59,16.593
		c-21.804,6.761-46.532,10.159-74.17,10.159c-32.584,0-59.447-4.166-80.624-12.448c-21.183-8.282-38.222-20.73-51.144-37.323
		c-12.901-16.592-21.986-36.988-27.17-61.269c-5.24-24.268-7.85-52.366-7.85-84.295V571.759l85.71-14.747V705.36L2741.948,705.36z
		 M3389.652,1170.633c-19.662,4.912-45.632,10.124-77.861,15.664c-32.222,5.512-69.606,8.31-111.931,8.31
		c-36.876,0-67.904-5.387-93.079-16.139c-25.16-10.724-45.479-25.949-60.822-45.612c-15.336-19.656-26.417-42.856-33.15-69.545
		c-6.754-26.752-10.152-56.35-10.152-88.942V705.36h85.689v250.61c0,58.346,9.224,100.106,27.637,125.274
		c18.441,25.203,49.449,37.797,93.05,37.797c9.531-0.028,19.069-0.328,28.594-0.921c9.231-0.558,18.434-1.34,27.63-2.323
		l23.479-2.742c7.061-0.949,12.147-1.996,15.19-3.217V705.339h85.724V1170.633L3389.652,1170.633z"/>
</g>
</svg>
