<?xml version="1.0" encoding="iso-8859-1"?>
<!-- Generator: Adobe Illustrator 16.0.0, SVG Export Plug-In . SVG Version: 6.00 Build 0)  -->
<!DOCTYPE svg PUBLIC "-//W3C//DTD SVG 1.1//EN" "http://www.w3.org/Graphics/SVG/1.1/DTD/svg11.dtd">
<svg version="1.1"
	 id="Layer_1" xmlns:dc="http://purl.org/dc/elements/1.1/" xmlns:cc="http://creativecommons.org/ns#" xmlns:rdf="http://www.w3.org/1999/02/22-rdf-syntax-ns#"
	 xmlns="http://www.w3.org/2000/svg" xmlns:xlink="http://www.w3.org/1999/xlink" x="0px" y="0px" width="640px" height="300px"
	 viewBox="0 0 640 300" style="enable-background:new 0 0 640 300;" xml:space="preserve">
<title>WooCommerce Logo</title>
<path style="fill:#8D8D8D;" d="M192.294,74.573h253.284c16.028,0,29.004,12.975,29.004,29.005v96.682
	c0,16.028-12.975,29.006-29.004,29.006h-90.83l12.467,30.529l-54.829-30.529H192.424c-16.028,0-29.006-12.976-29.006-29.006v-96.682
	C163.291,87.676,176.267,74.573,192.294,74.573L192.294,74.573z"/>
<path style="fill:#FFFFFF;" d="M181.135,101.009c1.771-2.403,4.427-3.668,7.969-3.921c6.451-0.506,10.119,2.53,11.005,9.107
	c3.921,26.438,8.222,48.825,12.776,67.166l27.701-52.745c2.53-4.807,5.691-7.337,9.486-7.59c5.565-0.379,8.98,3.163,10.372,10.625
	c3.162,16.824,7.21,31.116,12.016,43.26c3.289-32.13,8.854-55.275,16.697-69.57c1.897-3.541,4.68-5.312,8.349-5.565
	c2.909-0.252,5.565,0.633,7.968,2.53c2.404,1.897,3.668,4.301,3.921,7.21c0.126,2.276-0.253,4.175-1.265,6.072
	c-4.933,9.106-8.981,24.413-12.27,45.661c-3.162,20.618-4.301,36.684-3.542,48.192c0.253,3.163-0.252,5.945-1.518,8.35
	c-1.519,2.782-3.795,4.301-6.704,4.555c-3.289,0.252-6.704-1.265-9.993-4.68c-11.763-12.018-21.124-29.979-27.954-53.885
	c-8.222,16.188-14.292,28.333-18.214,36.428c-7.463,14.294-13.787,21.631-19.1,22.009c-3.416,0.253-6.325-2.656-8.854-8.728
	c-6.451-16.57-13.408-48.571-20.871-96.004c-0.506-3.289,0.253-6.198,2.023-8.476L181.135,101.009z M452.966,120.868
	c-4.554-7.97-11.258-12.776-20.237-14.674c-2.403-0.506-4.681-0.759-6.83-0.759c-12.143,0-22.009,6.325-29.726,18.974
	c-6.576,10.751-9.865,22.642-9.865,35.67c0,9.738,2.022,18.086,6.071,25.044c4.554,7.969,11.258,12.775,20.238,14.673
	c2.403,0.508,4.68,0.761,6.83,0.761c12.269,0,22.135-6.326,29.725-18.976c6.576-10.876,9.866-22.768,9.866-35.795
	C459.164,135.92,457.014,127.698,452.966,120.868L452.966,120.868z M437.029,155.906c-1.771,8.347-4.933,14.545-9.613,18.721
	c-3.668,3.289-7.084,4.678-10.245,4.047c-3.035-0.633-5.565-3.288-7.462-8.221c-1.519-3.922-2.279-7.844-2.279-11.511
	c0-3.163,0.254-6.325,0.887-9.234c1.138-5.187,3.289-10.246,6.703-15.052c4.176-6.199,8.602-8.729,13.155-7.843
	c3.036,0.633,5.565,3.289,7.464,8.222c1.517,3.922,2.276,7.843,2.276,11.512C437.915,149.835,437.662,152.997,437.029,155.906
	L437.029,155.906z M373.784,120.868c-4.554-7.97-11.385-12.776-20.238-14.674c-2.403-0.506-4.679-0.759-6.83-0.759
	c-12.143,0-22.009,6.325-29.725,18.974c-6.576,10.751-9.866,22.642-9.866,35.67c0,9.738,2.023,18.086,6.071,25.044
	c4.554,7.969,11.257,12.775,20.238,14.673c2.403,0.508,4.68,0.761,6.83,0.761c12.269,0,22.136-6.326,29.726-18.976
	c6.577-10.876,9.865-22.768,9.865-35.795C379.855,135.92,377.831,127.698,373.784,120.868L373.784,120.868z M357.72,155.906
	c-1.77,8.347-4.933,14.545-9.613,18.721c-3.669,3.289-7.083,4.678-10.245,4.047c-3.035-0.633-5.565-3.288-7.463-8.221
	c-1.518-3.922-2.276-7.844-2.276-11.511c0-3.163,0.253-6.325,0.886-9.234c1.138-5.187,3.288-10.246,6.703-15.052
	c4.175-6.199,8.602-8.729,13.156-7.843c3.034,0.633,5.564,3.289,7.462,8.222c1.519,3.922,2.276,7.843,2.276,11.512
	C358.732,149.835,358.353,152.997,357.72,155.906L357.72,155.906z"/>
</svg>
