<?xml version="1.0" encoding="iso-8859-1"?>
<!-- Generator: Adobe Illustrator 16.0.0, SVG Export Plug-In . SVG Version: 6.00 Build 0)  -->
<!DOCTYPE svg PUBLIC "-//W3C//DTD SVG 1.1//EN" "http://www.w3.org/Graphics/SVG/1.1/DTD/svg11.dtd">
<svg version="1.1"
	 id="Layer_1" xmlns:dc="http://purl.org/dc/elements/1.1/" xmlns:cc="http://creativecommons.org/ns#" xmlns:rdf="http://www.w3.org/1999/02/22-rdf-syntax-ns#"
	 xmlns="http://www.w3.org/2000/svg" xmlns:xlink="http://www.w3.org/1999/xlink" x="0px" y="0px" width="640px" height="300px"
	 viewBox="0 170 640 300" style="enable-background:new 0 170 640 300;" xml:space="preserve">
<title>WooCommerce Logo</title>
<path style="fill:#7F54B3;" d="M150.202,195.121h339.433c21.48,0,38.87,17.389,38.87,38.871v129.567
	c0,21.48-17.388,38.871-38.87,38.871H367.911l16.707,40.914L311.14,402.43H150.375c-21.48,0-38.871-17.39-38.871-38.871V233.992
	c-0.171-21.311,17.219-38.871,38.699-38.871H150.202z"/>
<path style="fill:#FFFFFF;" d="M135.247,230.55c2.374-3.221,5.933-4.916,10.68-5.255c8.645-0.678,13.561,3.391,14.748,12.205
	c5.255,35.429,11.018,65.432,17.122,90.012l37.123-70.687c3.39-6.441,7.627-9.832,12.713-10.171
	c7.458-0.508,12.035,4.238,13.899,14.239c4.238,22.546,9.663,41.7,16.104,57.973c4.407-43.057,11.866-74.076,22.376-93.232
	c2.542-4.746,6.271-7.119,11.188-7.458c3.898-0.338,7.458,0.848,10.679,3.391c3.221,2.542,4.916,5.763,5.255,9.662
	c0.17,3.051-0.339,5.594-1.695,8.137c-6.611,12.205-12.036,32.717-16.443,61.193c-4.237,27.63-5.763,49.159-4.746,64.584
	c0.339,4.237-0.339,7.967-2.034,11.188c-2.035,3.729-5.086,5.764-8.984,6.104c-4.407,0.338-8.984-1.695-13.392-6.272
	c-15.764-16.104-28.308-40.174-37.462-72.213c-11.018,21.697-19.154,37.972-24.409,48.82
	c-10.001,19.155-18.477,28.987-25.597,29.494c-4.577,0.34-8.476-3.559-11.866-11.696c-8.645-22.206-17.969-65.092-27.97-128.658
	c-0.678-4.408,0.339-8.307,2.712-11.358L135.247,230.55z M499.536,257.163c-6.102-10.68-15.087-17.122-27.121-19.665
	c-3.221-0.678-6.272-1.017-9.153-1.017c-16.273,0-29.495,8.476-39.836,25.427c-8.814,14.409-13.221,30.343-13.221,47.802
	c0,13.052,2.711,24.239,8.136,33.563c6.103,10.68,15.087,17.122,27.122,19.665c3.221,0.678,6.271,1.018,9.153,1.018
	c16.442,0,29.664-8.477,39.835-25.428c8.814-14.578,13.223-30.512,13.223-47.971C507.843,277.335,504.961,266.317,499.536,257.163
	L499.536,257.163z M478.179,304.118c-2.373,11.187-6.611,19.493-12.883,25.088c-4.916,4.408-9.493,6.271-13.73,5.425
	c-4.068-0.848-7.459-4.407-10.001-11.018c-2.035-5.256-3.053-10.511-3.053-15.426c0-4.238,0.34-8.476,1.188-12.375
	c1.525-6.95,4.407-13.73,8.983-20.172c5.595-8.306,11.527-11.696,17.63-10.509c4.068,0.848,7.459,4.407,10.001,11.018
	c2.034,5.255,3.052,10.51,3.052,15.426C479.365,295.982,479.026,300.22,478.179,304.118L478.179,304.118z M393.422,257.163
	c-6.103-10.68-15.257-17.122-27.122-19.665c-3.221-0.678-6.271-1.017-9.153-1.017c-16.273,0-29.495,8.476-39.835,25.427
	c-8.814,14.409-13.222,30.343-13.222,47.802c0,13.052,2.712,24.239,8.137,33.563c6.102,10.68,15.086,17.122,27.122,19.665
	c3.22,0.678,6.271,1.018,9.153,1.018c16.441,0,29.664-8.477,39.835-25.428c8.814-14.578,13.222-30.512,13.222-47.971
	C401.558,277.335,398.846,266.317,393.422,257.163L393.422,257.163z M371.894,304.118c-2.373,11.187-6.611,19.493-12.883,25.088
	c-4.917,4.408-9.493,6.271-13.731,5.425c-4.067-0.848-7.458-4.407-10.001-11.018c-2.034-5.256-3.051-10.511-3.051-15.426
	c0-4.238,0.339-8.476,1.188-12.375c1.524-6.95,4.406-13.73,8.983-20.172c5.594-8.306,11.527-11.696,17.63-10.509
	c4.067,0.848,7.458,4.407,10.001,11.018c2.034,5.255,3.051,10.51,3.051,15.426C373.25,295.982,372.741,300.22,371.894,304.118
	L371.894,304.118z"/>
</svg>
