<?xml version="1.0" encoding="iso-8859-1"?>
<!-- Generator: Adobe Illustrator 16.0.0, SVG Export Plug-In . SVG Version: 6.00 Build 0)  -->
<!DOCTYPE svg PUBLIC "-//W3C//DTD SVG 1.1//EN" "http://www.w3.org/Graphics/SVG/1.1/DTD/svg11.dtd">
<svg version="1.1" id="Layer_1" xmlns="http://www.w3.org/2000/svg" xmlns:xlink="http://www.w3.org/1999/xlink" x="0px" y="0px"
	 width="640px" height="300px" viewBox="0 170 640 300" style="enable-background:new 0 170 640 300;" xml:space="preserve">
<g id="Layer_1_1_">
</g>
<g id="Layer_2">
	<g>
		<path style="fill:#8d8d8d;" d="M370.229,307.713h-24.721v2.622c7.732,0,8.975,1.657,8.975,11.463v17.679
			c0,9.807-1.24,11.602-8.975,11.602c-5.938-0.829-9.943-4.006-15.468-10.081l-6.353-6.905c8.563-1.521,13.119-6.904,13.119-12.982
			c0-7.596-6.49-13.396-18.645-13.396h-24.306v2.622c7.732,0,8.976,1.656,8.976,11.463v17.68c0,9.805-1.244,11.6-8.976,11.6v2.625
			h27.481v-2.625c-7.732,0-8.975-1.795-8.975-11.6v-4.971h2.347l15.33,19.193h40.188c19.748,0,28.313-10.494,28.313-23.063
			C398.54,318.07,389.978,307.713,370.229,307.713z M312.364,330.222v-18.366h5.661c6.213,0,8.978,4.282,8.978,9.252
			c0,4.836-2.765,9.114-8.978,9.114H312.364L312.364,330.222z M370.644,349.419h-0.968c-4.97,0-5.661-1.241-5.661-7.595v-29.969
			c0,0,6.077,0,6.629,0c14.363,0,16.985,10.496,16.985,18.645C387.629,338.923,385.006,349.419,370.644,349.419z"/>
		<path style="fill:#8d8d8d;" d="M216.936,335.334l9.529-28.175c2.764-8.147,1.521-10.494-7.318-10.494v-2.763h25.963v2.763
			c-8.7,0-10.771,2.07-14.224,12.151l-15.746,47.232h-1.794l-14.088-43.229l-14.361,43.229h-1.795l-15.33-47.232
			c-3.314-10.082-5.524-12.151-13.535-12.151v-2.763h30.66v2.763c-8.149,0-10.36,1.933-7.458,10.494l9.252,28.175l13.949-41.433
			h2.625L216.936,335.334z"/>
		<path style="fill:#8d8d8d;" d="M263.889,355.494c-15.19,0-27.62-11.186-27.62-24.858c0-13.534,12.431-24.721,27.62-24.721
			c15.192,0,27.621,11.187,27.621,24.721C291.51,344.311,279.081,355.494,263.889,355.494z M263.889,310.199
			c-12.704,0-17.125,11.459-17.125,20.438c0,9.116,4.421,20.439,17.125,20.439c12.845,0,17.265-11.323,17.265-20.439
			C281.154,321.66,276.734,310.199,263.889,310.199z"/>
		<path style="fill:#464342;" d="M432.649,350.939v2.762h-31.626v-2.762c9.254,0,10.91-2.348,10.91-16.16v-22.096
			c0-13.812-1.656-16.02-10.91-16.02v-2.763h28.587c14.225,0,22.099,7.32,22.099,17.126c0,9.529-7.874,16.986-22.099,16.986h-7.871
			v6.764C421.739,348.592,423.396,350.939,432.649,350.939z M429.61,298.872h-7.871v24.03h7.871c7.734,0,11.324-5.385,11.324-11.875
			C440.936,304.398,437.346,298.872,429.61,298.872z"/>
		<path style="fill:#464342;" d="M546.584,340.72l-0.691,2.485c-1.241,4.558-2.763,6.214-12.567,6.214h-1.936
			c-7.18,0-8.422-1.656-8.422-11.461v-6.353c10.772,0,11.603,0.965,11.603,8.146h2.623v-20.577h-2.623
			c0,7.181-0.829,8.147-11.603,8.147v-15.467h7.593c9.81,0,11.326,1.657,12.569,6.215l0.691,2.623h2.209l-0.965-12.98h-40.604v2.622
			c7.732,0,8.978,1.657,8.978,11.463v17.679c0,8.971-1.057,11.229-7.153,11.553c-5.794-0.887-9.772-4.047-15.218-10.032
			l-6.354-6.905c8.563-1.521,13.121-6.904,13.121-12.982c0-7.596-6.491-13.396-18.645-13.396h-24.306v2.622
			c7.731,0,8.977,1.656,8.977,11.463v17.68c0,9.805-1.243,11.6-8.977,11.6v2.625h27.482v-2.625c-7.732,0-8.978-1.795-8.978-11.6
			v-4.971h2.349l15.329,19.193h56.76l0.829-12.979L546.584,340.72L546.584,340.72z M473.391,330.222v-18.366h5.66
			c6.216,0,8.979,4.282,8.979,9.252c0,4.836-2.765,9.114-8.979,9.114H473.391L473.391,330.222z"/>
		<path style="fill:#464342;" d="M574.618,355.494c-5.523,0-10.358-2.898-12.431-4.695c-0.689,0.691-1.934,2.764-2.209,4.695h-2.625
			v-19.055h2.763c1.105,9.114,7.457,14.5,15.605,14.5c4.42,0,8.012-2.486,8.012-6.629c0-3.59-3.178-6.353-8.84-8.977l-7.872-3.729
			c-5.523-2.625-9.668-7.186-9.668-13.26c0-6.629,6.217-12.291,14.778-12.291c4.558,0,8.423,1.658,10.772,3.592
			c0.688-0.554,1.38-2.074,1.796-3.731h2.624v16.297h-2.901c-0.967-6.492-4.558-11.877-11.876-11.877
			c-3.867,0-7.459,2.209-7.459,5.664c0,3.59,2.9,5.522,9.53,8.562l7.594,3.729c6.63,3.177,9.253,8.289,9.253,12.432
			C591.466,349.419,583.87,355.494,574.618,355.494z"/>
		<path style="fill:#464342;" d="M617.153,355.494c-5.525,0-10.36-2.898-12.431-4.695c-0.689,0.691-1.933,2.764-2.209,4.695h-2.624
			v-19.055h2.763c1.104,9.114,7.457,14.5,15.604,14.5c4.419,0,8.011-2.486,8.011-6.629c0-3.59-3.176-6.353-8.84-8.977l-7.871-3.729
			c-5.523-2.625-9.669-7.186-9.669-13.26c0-6.629,6.216-12.291,14.778-12.291c4.558,0,8.424,1.658,10.771,3.592
			c0.69-0.554,1.382-2.074,1.794-3.731h2.626v16.297h-2.899c-0.968-6.492-4.558-11.877-11.877-11.877
			c-3.866,0-7.459,2.209-7.459,5.664c0,3.59,2.9,5.522,9.53,8.562l7.594,3.729c6.631,3.177,9.253,8.289,9.253,12.432
			C634,349.419,626.404,355.494,617.153,355.494z"/>
		<g>
			<path style="fill:#464342;" d="M16.127,322.869c0,24.193,14.059,45.099,34.446,55.007l-29.155-79.88
				C18.027,305.598,16.127,314.01,16.127,322.869z"/>
			<path style="fill:#464342;" d="M118.505,319.785c0-7.553-2.713-12.783-5.041-16.855c-3.098-5.035-6.001-9.298-6.001-14.333
				c0-5.618,4.261-10.848,10.263-10.848c0.271,0,0.528,0.034,0.792,0.049c-10.874-9.962-25.361-16.045-41.272-16.045
				c-21.353,0-40.138,10.955-51.066,27.549c1.434,0.043,2.786,0.073,3.933,0.073c6.393,0,16.289-0.775,16.289-0.775
				c3.294-0.194,3.683,4.645,0.392,5.034c0,0-3.311,0.39-6.996,0.583l22.257,66.202l13.375-40.114l-9.522-26.09
				c-3.291-0.193-6.409-0.583-6.409-0.583c-3.293-0.193-2.907-5.229,0.386-5.035c0,0,10.094,0.775,16.099,0.775
				c6.392,0,16.289-0.775,16.289-0.775c3.297-0.194,3.684,4.645,0.392,5.035c0,0-3.318,0.389-6.996,0.583l22.087,65.7l6.096-20.371
				C116.495,331.089,118.505,325.018,118.505,319.785z"/>
			<path style="fill:#464342;" d="M78.318,328.216L59.98,381.501c5.476,1.61,11.266,2.489,17.266,2.489
				c7.117,0,13.942-1.229,20.296-3.465c-0.164-0.26-0.313-0.539-0.435-0.842L78.318,328.216z"/>
			<path style="fill:#464342;" d="M130.875,293.546c0.263,1.947,0.412,4.038,0.412,6.285c0,6.202-1.159,13.174-4.647,21.892
				l-18.67,53.977c18.17-10.596,30.392-30.28,30.392-52.828C138.363,312.244,135.648,302.253,130.875,293.546z"/>
			<path style="fill:#464342;" d="M77.246,251.626C37.961,251.626,6,283.586,6,322.869c0,39.289,31.961,71.248,71.246,71.248
				c39.282,0,71.249-31.959,71.249-71.248C148.493,283.586,116.528,251.626,77.246,251.626z M77.246,390.85
				c-37.482,0-67.979-30.496-67.979-67.98c0-37.481,30.495-67.975,67.979-67.975c37.481,0,67.975,30.494,67.975,67.975
				C145.221,360.354,114.727,390.85,77.246,390.85z"/>
		</g>
	</g>
</g>
</svg>
