<?xml version="1.0" encoding="utf-8"?>
<!-- Generator: Adobe Illustrator 16.0.0, SVG Export Plug-In . SVG Version: 6.00 Build 0)  -->
<!DOCTYPE svg PUBLIC "-//W3C//DTD SVG 1.1//EN" "http://www.w3.org/Graphics/SVG/1.1/DTD/svg11.dtd">
<svg version="1.1" id="Layer_1" xmlns="http://www.w3.org/2000/svg" xmlns:xlink="http://www.w3.org/1999/xlink" x="0px" y="0px"
	 width="640px" height="300px" viewBox="0 0 640 300" enable-background="new 0 0 640 300" xml:space="preserve">
<g id="Layer_1_1_">
</g>
<g id="Layer_2">
	<g>
		<path fill="#8D8D8D" d="M366.229,135.803h-22.753v2.413c7.117,0,8.262,1.525,8.262,10.55v16.271
			c0,9.027-1.142,10.679-8.262,10.679c-5.465-0.763-9.15-3.687-14.236-9.278l-5.847-6.354c7.881-1.4,12.074-6.354,12.074-11.949
			c0-6.991-5.973-12.33-17.16-12.33h-22.371v2.414c7.116,0,8.261,1.524,8.261,10.551v16.272c0,9.024-1.145,10.676-8.261,10.676
			v2.416h25.293v-2.416c-7.117,0-8.26-1.651-8.26-10.676v-4.575h2.16l14.11,17.664h36.987c18.176,0,26.06-9.658,26.06-21.227
			C392.287,145.335,384.406,135.803,366.229,135.803z M312.972,156.521v-16.905h5.21c5.718,0,8.263,3.942,8.263,8.516
			c0,4.451-2.545,8.39-8.263,8.39H312.972L312.972,156.521z M366.611,174.188h-0.891c-4.574,0-5.211-1.143-5.211-6.99v-27.583
			c0,0,5.594,0,6.102,0c13.22,0,15.633,9.661,15.633,17.16C382.244,164.527,379.83,174.188,366.611,174.188z"/>
		<path fill="#8D8D8D" d="M225.142,161.225l8.77-25.932c2.544-7.499,1.4-9.659-6.735-9.659v-2.542h23.896v2.542
			c-8.007,0-9.913,1.905-13.091,11.184l-14.493,43.471h-1.651l-12.967-39.788l-13.218,39.788h-1.652l-14.109-43.471
			c-3.05-9.279-5.084-11.184-12.458-11.184v-2.542h28.219v2.542c-7.5,0-9.535,1.779-6.864,9.659l8.515,25.932l12.838-38.135h2.416
			L225.142,161.225z"/>
		<path fill="#8D8D8D" d="M268.356,179.779c-13.98,0-25.421-10.295-25.421-22.879c0-12.457,11.441-22.752,25.421-22.752
			c13.982,0,25.421,10.296,25.421,22.752C293.778,169.486,282.339,179.779,268.356,179.779z M268.356,138.091
			c-11.692,0-15.762,10.547-15.762,18.811c0,8.391,4.069,18.813,15.762,18.813c11.822,0,15.89-10.422,15.89-18.813
			C284.247,148.64,280.179,138.091,268.356,138.091z"/>
		<path fill="#464342" d="M423.681,175.588v2.541h-29.108v-2.541c8.518,0,10.041-2.162,10.041-14.874v-20.336
			c0-12.712-1.523-14.745-10.041-14.745v-2.543h26.311c13.093,0,20.34,6.737,20.34,15.762c0,8.771-7.247,15.634-20.34,15.634h-7.244
			v6.226C413.639,173.427,415.164,175.588,423.681,175.588z M420.883,127.666h-7.244v22.117h7.244
			c7.118,0,10.422-4.956,10.422-10.93C431.307,132.752,428.003,127.666,420.883,127.666z"/>
		<path fill="#464342" d="M528.544,166.183l-0.637,2.286c-1.142,4.196-2.543,5.72-11.565,5.72h-1.782
			c-6.608,0-7.752-1.523-7.752-10.549v-5.847c9.915,0,10.68,0.888,10.68,7.497h2.414v-18.939h-2.414c0,6.61-0.763,7.498-10.68,7.498
			v-14.235h6.988c9.029,0,10.425,1.525,11.568,5.72l0.637,2.415h2.033l-0.889-11.946h-37.371v2.413c7.117,0,8.264,1.525,8.264,10.55
			v16.272c0,8.257-0.974,10.335-6.584,10.633c-5.332-0.815-8.994-3.725-14.006-9.233l-5.849-6.355
			c7.882-1.4,12.076-6.354,12.076-11.949c0-6.991-5.975-12.329-17.16-12.329h-22.371v2.413c7.116,0,8.263,1.524,8.263,10.55v16.272
			c0,9.025-1.145,10.677-8.263,10.677v2.416h25.294v-2.416c-7.116,0-8.264-1.651-8.264-10.677v-4.575h2.163l14.108,17.665h52.241
			l0.763-11.944L528.544,166.183L528.544,166.183z M461.178,156.521v-16.905h5.21c5.721,0,8.265,3.942,8.265,8.516
			c0,4.451-2.546,8.39-8.265,8.39H461.178L461.178,156.521z"/>
		<path fill="#464342" d="M554.346,179.779c-5.084,0-9.533-2.667-11.44-4.321c-0.635,0.637-1.781,2.544-2.033,4.321h-2.416v-17.537
			h2.542c1.017,8.388,6.863,13.346,14.362,13.346c4.068,0,7.375-2.289,7.375-6.102c0-3.304-2.926-5.848-8.137-8.263l-7.245-3.433
			c-5.083-2.416-8.898-6.613-8.898-12.204c0-6.101,5.723-11.313,13.602-11.313c4.195,0,7.752,1.526,9.915,3.306
			c0.633-0.51,1.27-1.909,1.652-3.434h2.415v15h-2.67c-0.89-5.976-4.195-10.932-10.931-10.932c-3.56,0-6.865,2.033-6.865,5.213
			c0,3.304,2.67,5.082,8.771,7.88l6.989,3.432c6.103,2.924,8.517,7.63,8.517,11.442
			C569.853,174.188,562.861,179.779,554.346,179.779z"/>
		<path fill="#464342" d="M593.494,179.779c-5.085,0-9.535-2.667-11.441-4.321c-0.634,0.637-1.779,2.544-2.033,4.321h-2.415v-17.537
			h2.544c1.016,8.388,6.863,13.346,14.36,13.346c4.067,0,7.373-2.289,7.373-6.102c0-3.304-2.923-5.848-8.136-8.263l-7.244-3.433
			c-5.083-2.416-8.899-6.613-8.899-12.204c0-6.101,5.722-11.313,13.602-11.313c4.195,0,7.753,1.526,9.913,3.306
			c0.636-0.51,1.272-1.909,1.652-3.434h2.417v15h-2.669c-0.891-5.976-4.194-10.932-10.932-10.932c-3.558,0-6.865,2.033-6.865,5.213
			c0,3.304,2.67,5.082,8.771,7.88l6.989,3.432c6.104,2.924,8.517,7.63,8.517,11.442C609,174.188,602.009,179.779,593.494,179.779z"
			/>
		<g>
			<path fill="#464342" d="M40.321,149.752c0,22.268,12.939,41.508,31.704,50.628L45.19,126.859
				C42.069,133.856,40.321,141.598,40.321,149.752z"/>
			<path fill="#464342" d="M134.547,146.914c0-6.951-2.497-11.765-4.64-15.513c-2.851-4.634-5.523-8.558-5.523-13.191
				c0-5.172,3.922-9.985,9.446-9.985c0.25,0,0.486,0.031,0.729,0.045c-10.008-9.169-23.342-14.768-37.986-14.768
				c-19.653,0-36.942,10.083-47,25.355c1.32,0.041,2.564,0.067,3.62,0.067c5.884,0,14.992-0.714,14.992-0.714
				c3.032-0.178,3.39,4.276,0.361,4.634c0,0-3.047,0.358-6.439,0.536l20.485,60.932l12.31-36.92l-8.764-24.013
				c-3.029-0.178-5.898-0.537-5.898-0.537c-3.031-0.177-2.676-4.813,0.355-4.633c0,0,9.291,0.712,14.817,0.712
				c5.883,0,14.992-0.712,14.992-0.712c3.034-0.18,3.391,4.274,0.361,4.633c0,0-3.054,0.358-6.439,0.537l20.329,60.469l5.611-18.749
				C132.698,157.317,134.547,151.729,134.547,146.914z"/>
			<path fill="#464342" d="M97.56,154.673l-16.878,49.043c5.04,1.482,10.369,2.291,15.892,2.291c6.55,0,12.832-1.131,18.68-3.188
				c-0.151-0.239-0.288-0.496-0.4-0.775L97.56,154.673z"/>
			<path fill="#464342" d="M145.933,122.764c0.242,1.792,0.379,3.716,0.379,5.785c0,5.708-1.067,12.125-4.277,20.148l-17.184,49.68
				c16.723-9.753,27.972-27.869,27.972-48.622C152.824,139.973,150.326,130.777,145.933,122.764z"/>
			<path fill="#464342" d="M96.574,84.181C60.417,84.181,31,113.597,31,149.752c0,36.161,29.417,65.575,65.574,65.575
				c36.154,0,65.576-29.414,65.576-65.575C162.148,113.597,132.728,84.181,96.574,84.181z M96.574,212.32
				c-34.498,0-62.567-28.068-62.567-62.567c0-34.497,28.067-62.563,62.567-62.563c34.497,0,62.563,28.066,62.563,62.563
				C159.137,184.252,131.07,212.32,96.574,212.32z"/>
		</g>
	</g>
</g>
</svg>
