<?xml version="1.0" encoding="utf-8"?>
<!-- Generator: Adobe Illustrator 26.0.1, SVG Export Plug-In . SVG Version: 6.00 Build 0)  -->
<svg version="1.1" id="Layer_1" xmlns="http://www.w3.org/2000/svg" xmlns:xlink="http://www.w3.org/1999/xlink" x="0px" y="0px"
	 viewBox="0 0 1029.81 138.65" style="enable-background:new 0 0 1029.81 138.65;" xml:space="preserve">
<style type="text/css">
	.st0{fill:#FFFFFF;}
	.st1{fill:#14A800;}
	.st2{fill:#070A1B;}
</style>
<g>
	<g>
		<path class="st0" d="M112.37,65.5c-0.71-0.49-1.6-0.49-2.31,0L78.62,87.41c-0.45,0.31-1.02,0.31-1.46,0L29.64,54.32
			c-0.86-0.6-0.86-1.99,0-2.59L65.6,26.7c0.4-0.28,0.64-0.77,0.64-1.29v-6.59c0-1.2-1.19-1.93-2.11-1.29L14.99,51.73
			c-0.86,0.6-0.86,1.99,0,2.59l57.98,40.36l4.06,2.78c0.44,0.3,1,0.3,1.45,0l17.84-12.23l0.01,0.03l14.16-9.86
			c0.45-0.31,1.02-0.31,1.46,0l14.19,9.88c0.86,0.6,0.86,1.99,0,2.59l-47.61,33.14c-0.4,0.28-0.64,0.77-0.64,1.29v6.59
			c0,1.2,1.19,1.93,2.11,1.29l60.79-42.32c0.86-0.6,0.86-1.99,0-2.59L112.37,65.5z"/>
		<path class="st1" d="M60.04,64.12L77.16,52.2c0.45-0.31,1.02-0.31,1.46,0l17.15,11.94c0.44,0.31,1.01,0.31,1.45,0.01l4.77-3.27
			c0.87-0.59,0.87-1.99,0.01-2.59L82.43,44.65c-0.4-0.28-0.64-0.77-0.64-1.29V23.61c0-1.2,1.19-1.93,2.11-1.29l42.26,29.42
			c0.86,0.6,0.86,1.99,0,2.59l-3.31,2.3l0.04,0.07l-2.38,1.63c-0.87,0.59-0.87,1.99-0.01,2.59l4.68,3.26c0.45,0.31,1.02,0.31,1.46,0
			l14.16-9.86c0.86-0.6,0.86-1.99,0-2.59L78.62,8.46c-0.45-0.31-1.02-0.31-1.46,0l-2.51,1.74c-0.4,0.28-0.64,0.77-0.64,1.29v1.55
			v7.8v12.57H74v9.94c0,0.53-0.24,1.01-0.64,1.29L53.84,58.24c-0.86,0.6-0.86,1.99,0,2.59l4.73,3.29
			C59.02,64.43,59.59,64.43,60.04,64.12z"/>
		<path class="st1" d="M60.01,109.01L29.64,87.87c-0.86-0.6-0.86-1.99,0-2.59l5.52-3.84c0.86-0.6,0.86-1.99,0-2.59l-4.73-3.29
			c-0.45-0.31-1.02-0.31-1.46,0l-13.97,9.72c-0.86,0.6-0.86,1.99,0,2.59l55.13,38.38v-0.88v-9.32V103.2c0-0.51-0.23-0.99-0.61-1.27
			l-5.26-3.88c-0.91-0.68-2.14,0.05-2.14,1.27v8.4C62.12,108.92,60.93,109.65,60.01,109.01z"/>
	</g>
	<g>
		<path class="st0" d="M195.1,112.5c-4.61,0-8.58-1.66-11.89-4.98c-3.32-3.32-4.98-7.28-4.98-11.89v-6.67h16.02v3.15
			c0,2.27,0.14,3.54,0.42,3.82c0.28,0.28,1.56,0.42,3.82,0.42h46.72c2.26,0,3.54-0.14,3.82-0.42c0.28-0.28,0.42-1.56,0.42-3.82
			V81.07c0-2.26-0.14-3.52-0.42-3.76c-0.28-0.24-1.56-0.36-3.82-0.36H195.1c-4.61,0-8.58-1.68-11.89-5.04
			c-3.32-3.36-4.98-7.34-4.98-11.95V42c0-4.61,1.66-8.57,4.98-11.89c3.32-3.32,7.28-4.98,11.89-4.98h53.64
			c4.61,0,8.57,1.66,11.89,4.98c3.32,3.32,4.98,7.28,4.98,11.89v6.67h-16.14v-3.16c0-2.26-0.14-3.54-0.42-3.82
			c-0.28-0.28-1.56-0.42-3.82-0.42h-46.72c-2.27,0-3.54,0.14-3.82,0.42c-0.28,0.28-0.42,1.56-0.42,3.82v11.04
			c0,2.27,0.14,3.52,0.42,3.76c0.28,0.24,1.56,0.36,3.82,0.36h50.24c4.61,0,8.57,1.68,11.89,5.04c3.32,3.36,4.98,7.34,4.98,11.95
			v17.96c0,4.61-1.66,8.58-4.98,11.89c-3.32,3.32-7.28,4.98-11.89,4.98H195.1z"/>
		<path class="st0" d="M283.2,112.5V25.13h15.9v87.38H283.2z"/>
		<path class="st0" d="M347.52,112.5V41.27h-35.68V25.13h87.38v16.14h-35.56v71.24H347.52z"/>
		<path class="st0" d="M413.41,112.5V25.13h80.46v16.14h-64.32v19.42h51.7v16.26h-51.7v19.42h64.32v16.14H413.41z"/>
		<path class="st1" d="M510.86,112.5V25.25h70.39c4.69,0,8.7,1.68,12.01,5.04c3.32,3.36,4.98,7.3,4.98,11.83v23.54
			c0,4.61-1.66,8.58-4.98,11.89c-3.32,3.32-7.32,4.98-12.01,4.98h-4.73l21.6,25.49v4.49h-17.47l-25.12-29.98l-28.64,0.12v29.85
			H510.86z M531.13,66.39h46.72c2.19,0,3.42-0.12,3.7-0.36c0.28-0.24,0.42-1.5,0.42-3.76V45.51c0-2.26-0.14-3.54-0.42-3.82
			c-0.28-0.28-1.52-0.42-3.7-0.42h-46.72c-2.27,0-3.54,0.14-3.82,0.42c-0.28,0.28-0.43,1.56-0.43,3.82v16.75
			c0,2.27,0.14,3.52,0.43,3.76C527.59,66.27,528.86,66.39,531.13,66.39z"/>
		<path class="st1" d="M616.2,112.5V42c0-4.61,1.66-8.57,4.98-11.89c3.32-3.32,7.28-4.98,11.89-4.98h53.52
			c4.69,0,8.7,1.66,12.02,4.98c3.32,3.32,4.98,7.28,4.98,11.89v70.51h-16.14V83.13h-55.22v29.37H616.2z M632.22,67.12h55.22v-21.6
			c0-2.26-0.16-3.54-0.49-3.82c-0.32-0.28-1.58-0.42-3.76-0.42h-46.72c-2.27,0-3.54,0.14-3.82,0.42c-0.28,0.28-0.42,1.56-0.42,3.82
			V67.12z"/>
		<path class="st1" d="M739.13,112.5c-4.61,0-8.58-1.66-11.89-4.98c-3.32-3.32-4.98-7.28-4.98-11.89V42c0-4.61,1.66-8.57,4.98-11.89
			c3.32-3.32,7.28-4.98,11.89-4.98h70.27v16.14h-66.87c-2.27,0-3.54,0.14-3.82,0.42c-0.28,0.28-0.42,1.56-0.42,3.82v46.6
			c0,2.27,0.14,3.54,0.42,3.82c0.28,0.28,1.56,0.42,3.82,0.42h66.87v16.14H739.13z"/>
		<path class="st1" d="M826.99,112.5V25.13h16.14v35.56h20.51l29.85-35.56h17.48v4.61l-32.77,39.08l32.89,39.08v4.61h-17.6
			l-29.85-35.56h-20.51v35.56H826.99z"/>
		<path class="st1" d="M944.95,112.5c-4.61,0-8.58-1.66-11.89-4.98c-3.32-3.32-4.98-7.28-4.98-11.89v-6.67h16.02v3.15
			c0,2.27,0.14,3.54,0.43,3.82c0.28,0.28,1.56,0.42,3.82,0.42h46.72c2.26,0,3.54-0.14,3.82-0.42c0.28-0.28,0.43-1.56,0.43-3.82
			V81.07c0-2.26-0.14-3.52-0.43-3.76c-0.28-0.24-1.56-0.36-3.82-0.36h-50.12c-4.61,0-8.58-1.68-11.89-5.04
			c-3.32-3.36-4.98-7.34-4.98-11.95V42c0-4.61,1.66-8.57,4.98-11.89c3.32-3.32,7.28-4.98,11.89-4.98h53.64
			c4.61,0,8.58,1.66,11.89,4.98c3.32,3.32,4.98,7.28,4.98,11.89v6.67h-16.14v-3.16c0-2.26-0.14-3.54-0.43-3.82
			c-0.28-0.28-1.56-0.42-3.82-0.42h-46.72c-2.27,0-3.54,0.14-3.82,0.42c-0.28,0.28-0.43,1.56-0.43,3.82v11.04
			c0,2.27,0.14,3.52,0.43,3.76c0.28,0.24,1.56,0.36,3.82,0.36h50.24c4.61,0,8.58,1.68,11.89,5.04c3.32,3.36,4.98,7.34,4.98,11.95
			v17.96c0,4.61-1.66,8.58-4.98,11.89c-3.32,3.32-7.28,4.98-11.89,4.98H944.95z"/>
	</g>
</g>
</svg>
