<?xml version="1.0" encoding="iso-8859-1"?>
<!-- Generator: Adobe Illustrator 16.0.0, SVG Export Plug-In . SVG Version: 6.00 Build 0)  -->
<!DOCTYPE svg PUBLIC "-//W3C//DTD SVG 1.1//EN" "http://www.w3.org/Graphics/SVG/1.1/DTD/svg11.dtd">
<svg version="1.1" id="Layer_1" xmlns="http://www.w3.org/2000/svg" xmlns:xlink="http://www.w3.org/1999/xlink" x="0px" y="0px"
	 width="640px" height="300px" viewBox="0 0 640 300" style="enable-background:new 0 0 640 300;" xml:space="preserve">
<g>
	<g>
		<circle style="fill:#52909D;" cx="70.385" cy="162.819" r="1.265"/>
		<circle style="fill:#52909D;" cx="81.611" cy="110.486" r="2.688"/>
		<circle style="fill:#52909D;" cx="130.148" cy="116.652" r="2.846"/>
		<circle style="fill:#52909D;" cx="41.294" cy="189.381" r="0.949"/>
		<circle style="fill:#52909D;" cx="63.903" cy="361.555" r="2.055"/>
		<circle style="fill:#52909D;" cx="22.955" cy="269.064" r="2.846"/>
		<circle style="fill:#52909D;" cx="226.749" cy="87.72" r="3.32"/>
		<circle style="fill:#52909D;" cx="210.938" cy="46.613" r="3.004"/>
		<circle style="fill:#52909D;" cx="337.579" cy="104.953" r="2.529"/>
		<circle style="fill:#52909D;" cx="407.145" cy="64.163" r="1.897"/>
		<circle style="fill:#52909D;" cx="427.697" cy="154.281" r="3.162"/>
		<circle style="fill:#52909D;" cx="469.121" cy="167.245" r="0.949"/>
		<circle style="fill:#52909D;" cx="395.287" cy="116.811" r="0.791"/>
		<circle style="fill:#52909D;" cx="475.919" cy="295.783" r="1.739"/>
		<circle style="fill:#52909D;" cx="453.785" cy="338.154" r="2.372"/>
		<circle style="fill:#52909D;" cx="466.433" cy="217.049" r="2.688"/>
		<circle style="fill:#52909D;" cx="249.674" cy="319.342" r="1.265"/>
		<circle style="fill:#52909D;" cx="98.267" cy="391.936" r="1.455"/>
		<circle style="fill:#52909D;" cx="217.992" cy="379.881" r="1.455"/>
		<circle style="fill:#52909D;" cx="284.298" cy="422.906" r="0.832"/>
		<circle style="fill:#52909D;" cx="186.605" cy="415.424" r="2.91"/>
		<circle style="fill:#52909D;" cx="407.35" cy="410.02" r="2.079"/>
		<circle style="fill:#52909D;" cx="460.146" cy="394.639" r="1.663"/>
		<circle style="fill:#52909D;" cx="332.729" cy="398.172" r="2.702"/>
	</g>
	<g>
		<circle style="fill:none;stroke:#52909D;stroke-miterlimit:10;" cx="349.981" cy="61.226" r="6.465"/>
		<circle style="fill:none;stroke:#52909D;stroke-miterlimit:10;" cx="366.532" cy="130.533" r="3.103"/>
		<circle style="fill:none;stroke:#52909D;stroke-miterlimit:10;" cx="435.581" cy="101.311" r="4.396"/>
		<circle style="fill:none;stroke:#52909D;stroke-miterlimit:10;" cx="400.798" cy="162.214" r="1.939"/>
		<circle style="fill:none;stroke:#52909D;stroke-miterlimit:10;" cx="357.093" cy="200.488" r="0.646"/>
		<circle style="fill:none;stroke:#52909D;stroke-miterlimit:10;" cx="470.882" cy="196.609" r="2.974"/>
		<circle style="fill:none;stroke:#52909D;stroke-miterlimit:10;" cx="475.407" cy="316.477" r="1.811"/>
		<circle style="fill:none;stroke:#52909D;stroke-miterlimit:10;" cx="239.425" cy="299.537" r="2.198"/>
		<circle style="fill:none;stroke:#52909D;stroke-miterlimit:10;" cx="21.802" cy="288.287" r="2.586"/>
		<circle style="fill:none;stroke:#52909D;stroke-miterlimit:10;" cx="40.94" cy="160.79" r="3.879"/>
		<circle style="fill:none;stroke:#52909D;stroke-miterlimit:10;" cx="61.758" cy="126.525" r="1.94"/>
		<circle style="fill:none;stroke:#52909D;stroke-miterlimit:10;" cx="138.695" cy="89.673" r="5.431"/>
		<circle style="fill:none;stroke:#52909D;stroke-miterlimit:10;" cx="173.349" cy="43.64" r="1.552"/>
		<circle style="fill:none;stroke:#52909D;stroke-miterlimit:10;" cx="95.248" cy="50.623" r="3.104"/>
		<circle style="fill:none;stroke:#52909D;stroke-miterlimit:10;" cx="285.328" cy="36.14" r="2.586"/>
		<circle style="fill:none;stroke:#52909D;stroke-miterlimit:10;" cx="251.873" cy="399.627" r="4.157"/>
		<circle style="fill:none;stroke:#52909D;stroke-miterlimit:10;" cx="381.576" cy="389.234" r="3.326"/>
		<circle style="fill:none;stroke:#52909D;stroke-miterlimit:10;" cx="143.787" cy="391.729" r="3.326"/>
		<circle style="fill:none;stroke:#52909D;stroke-miterlimit:10;" cx="54.617" cy="428.104" r="4.781"/>
		<circle style="fill:none;stroke:#52909D;stroke-miterlimit:10;" cx="359.545" cy="426.34" r="2.957"/>
		<circle style="fill:none;stroke:#52909D;stroke-miterlimit:10;" cx="397.985" cy="3.494" r="4.095"/>
		<circle style="fill:none;stroke:#52909D;stroke-miterlimit:10;" cx="117.984" cy="11.456" r="3.867"/>
		<circle style="fill:none;stroke:#52909D;stroke-miterlimit:10;" cx="42.467" cy="60.586" r="3.412"/>
	</g>
</g>
<g>
	<g>
		<g>
			<path style="fill:#7CC46A;" d="M575.845,288.896c-0.631-2.063-2.076-3.992-4.128-4.652c-2.053-0.662-4.657,0.341-5.296,2.398
				c-1.889-1.576-4.782-0.325-6.3,1.612c-2.454,3.131-0.558,8.26-0.148,8.594c0.442,0.358,1.642,0.297,1.642,0.297l18.364-0.103
				c0,0,3.368-0.247,4.923-0.866c3.129-1.247,5.257-6.632,3.243-9.331c-1.372-1.841-4.08-2.231-6.269-1.532
				C579.689,286.012,577.568,287.38,575.845,288.896"/>
		</g>
		<g>
			<path style="fill:#51AA50;" d="M561.352,297.758c-0.465,0-1.295-0.063-1.762-0.441c-0.72-0.584-2.55-6.113,0.054-9.437
				c1.097-1.397,2.739-2.368,4.289-2.532c0.809-0.092,1.563,0.05,2.221,0.393c0.395-0.708,1.019-1.304,1.812-1.715
				c1.208-0.629,2.68-0.766,3.938-0.359c1.825,0.587,3.356,2.131,4.217,4.205c1.788-1.45,3.741-2.551,5.571-3.136
				c2.193-0.701,5.3-0.452,6.939,1.747c0.944,1.268,1.163,3.14,0.599,5.139c-0.674,2.384-2.284,4.394-4.103,5.118
				c-1.623,0.648-4.964,0.897-5.105,0.908l-18.403,0.104C561.558,297.753,561.466,297.758,561.352,297.758z M564.403,286.535
				c-0.112,0-0.227,0.004-0.344,0.018c-1.215,0.128-2.575,0.943-3.461,2.076c-2.155,2.75-0.545,7.336-0.193,7.797
				c0.081,0.06,0.688,0.142,1.176,0.112l18.393-0.103c-0.008,0,3.254-0.245,4.704-0.822c1.458-0.58,2.818-2.318,3.385-4.321
				c0.461-1.633,0.313-3.122-0.403-4.083c-1.283-1.725-3.804-1.892-5.598-1.318c-1.909,0.61-3.975,1.839-5.815,3.46
				c-0.154,0.137-0.368,0.186-0.565,0.131c-0.199-0.058-0.355-0.211-0.416-0.407c-0.647-2.119-2.044-3.709-3.734-4.255
				c-0.953-0.306-2.079-0.2-3.006,0.281c-0.762,0.396-1.303,1.007-1.524,1.722c-0.061,0.194-0.214,0.345-0.408,0.402
				c-0.192,0.057-0.403,0.014-0.56-0.116C565.576,286.727,565.027,286.535,564.403,286.535z"/>
		</g>
	</g>
	<g>
		<g>
			<g>
				<path style="fill:#51AA50;" d="M556.533,288.202c-0.525,1.021-0.752,2.133-0.627,3.277c0.063,0.575,0.973,0.582,0.91,0
					c-0.108-0.989,0.046-1.933,0.501-2.818C557.585,288.141,556.8,287.679,556.533,288.202L556.533,288.202z"/>
			</g>
		</g>
	</g>
	<g>
		<g>
			<g>
				<path style="fill:#51AA50;" d="M553.879,288.931c-0.286,1.027-0.307,2.056-0.078,3.097c0.125,0.573,1.002,0.331,0.877-0.239
					c-0.194-0.885-0.163-1.745,0.078-2.615C554.913,288.606,554.036,288.366,553.879,288.931L553.879,288.931z"/>
			</g>
		</g>
	</g>
	<g>
		<g>
			<g>
				<path style="fill:#51AA50;" d="M558.98,287.085c0.585,0,0.587-0.908,0-0.908C558.396,286.177,558.395,287.085,558.98,287.085
					L558.98,287.085z"/>
			</g>
		</g>
	</g>
	<g>
		<g>
			<g>
				<path style="fill:#51AA50;" d="M561.558,291.481c0,0.27,0,0.539,0,0.809c0,0.585,0.91,0.585,0.91,0c0-0.27,0-0.539,0-0.809
					C562.468,290.895,561.558,290.895,561.558,291.481L561.558,291.481z"/>
			</g>
		</g>
	</g>
	<g>
		<g>
			<g>
				<path style="fill:#51AA50;" d="M576.918,292.896c0,0.135,0,0.27,0,0.404c0,0.584,0.909,0.587,0.909,0c0-0.135,0-0.27,0-0.404
					C577.827,292.311,576.918,292.309,576.918,292.896L576.918,292.896z"/>
			</g>
		</g>
	</g>
	<g>
		<g>
			<g>
				<path style="fill:#51AA50;" d="M575.231,291.802c0.067,0.068,0.135,0.135,0.202,0.203c0.415,0.413,1.059-0.229,0.644-0.645
					c-0.066-0.066-0.134-0.135-0.201-0.201C575.461,290.744,574.817,291.388,575.231,291.802L575.231,291.802z"/>
			</g>
		</g>
	</g>
</g>
<g>
	<path style="fill:#415C92;" d="M196.854,271.754h-30.786c-0.67,0-1.213-0.541-1.213-1.213c0-0.669,0.543-1.212,1.213-1.212h30.786
		c0.669,0,1.212,0.543,1.212,1.212C198.066,271.213,197.523,271.754,196.854,271.754z"/>
</g>
<g>
	<g>
		<path style="fill:#FFFFFF;" d="M467.949,164.981h-0.879c0-0.728-0.592-1.318-1.319-1.318c-0.727,0-1.317,0.591-1.317,1.318h-0.881
			c0-1.212,0.986-2.199,2.198-2.199C466.964,162.782,467.949,163.77,467.949,164.981z"/>
	</g>
</g>
<g>
	<g>
		<path style="fill:#FFFFFF;" d="M471.094,113.784h-0.879c0-0.728-0.592-1.32-1.319-1.32s-1.318,0.593-1.318,1.32h-0.88
			c0-1.213,0.987-2.2,2.198-2.2C470.108,111.584,471.094,112.571,471.094,113.784z"/>
	</g>
</g>
<g>
	<g>
		<g>
			<g>
				<g>
					<path style="fill-rule:evenodd;clip-rule:evenodd;fill:#415C92;" d="M254.806,263.279
						C254.382,263.279,254.382,263.279,254.806,263.279"/>
				</g>
			</g>
		</g>
		<g>
			<g>
				<g>
					<g>
						<path style="fill:#415C92;" d="M254.806,265.784c3.225,0,3.229-5.013,0-5.013
							C251.582,260.771,251.576,265.784,254.806,265.784L254.806,265.784z"/>
					</g>
				</g>
			</g>
		</g>
	</g>
	<g>
		<g>
			<g>
				<g>
					<path style="fill-rule:evenodd;clip-rule:evenodd;fill:#415C92;" d="M264.909,263.279
						C264.485,263.279,264.485,263.279,264.909,263.279"/>
				</g>
			</g>
		</g>
		<g>
			<g>
				<g>
					<g>
						<path style="fill:#415C92;" d="M264.909,265.784c3.225,0,3.229-5.013,0-5.013
							C261.684,260.771,261.679,265.784,264.909,265.784L264.909,265.784z"/>
					</g>
				</g>
			</g>
		</g>
	</g>
	<g>
		<g>
			<g>
				<g>
					<path style="fill-rule:evenodd;clip-rule:evenodd;fill:#415C92;" d="M275.011,263.279
						C274.588,263.279,274.588,263.279,275.011,263.279"/>
				</g>
			</g>
		</g>
		<g>
			<g>
				<g>
					<g>
						<path style="fill:#415C92;" d="M275.011,265.784c3.225,0,3.23-5.013,0-5.013C271.787,260.771,271.781,265.784,275.011,265.784
							L275.011,265.784z"/>
					</g>
				</g>
			</g>
		</g>
	</g>
</g>
<g>
	<g>
		<g>
			<g>
				<path style="fill-rule:evenodd;clip-rule:evenodd;fill:#415C92;" d="M340.708,152.891
					C340.51,152.891,340.51,152.891,340.708,152.891"/>
			</g>
		</g>
	</g>
	<g>
		<g>
			<g>
				<g>
					<path style="fill:#415C92;" d="M340.708,154.065c1.515,0,1.517-2.351,0-2.351C339.196,151.715,339.194,154.065,340.708,154.065
						L340.708,154.065z"/>
				</g>
			</g>
		</g>
	</g>
</g>
<g>
	<g>
		<g>
			<path style="fill:#B9CEEB;" d="M283.298,89.146l1.644-1.647c0.336-0.331,0.336-0.872,0-1.207l-1.432-1.431
				c-0.33-0.333-0.418-0.939-0.192-1.351l1.167-2.834c0.132-0.454,0.628-0.823,1.096-0.823h2.028c0.471,0,0.853-0.383,0.853-0.849
				v-2.332c0-0.472-0.382-0.851-0.853-0.851h-2.028c-0.468,0-0.964-0.369-1.096-0.821l-1.167-2.833
				c-0.226-0.413-0.138-1.021,0.192-1.355l1.432-1.43c0.336-0.334,0.336-0.875,0-1.204l-1.644-1.651
				c-0.333-0.333-0.875-0.333-1.206,0l-1.434,1.433c-0.333,0.332-0.939,0.419-1.35,0.196l-2.837-1.169
				c-0.451-0.134-0.819-0.624-0.819-1.096v-2.028c0-0.468-0.381-0.855-0.852-0.855h-2.328c-0.473,0-0.854,0.387-0.854,0.855v2.028
				c0,0.472-0.368,0.962-0.819,1.096l-2.837,1.169c-0.41,0.223-1.02,0.136-1.35-0.196l-1.436-1.431
				c-0.331-0.334-0.872-0.334-1.202,0l-1.651,1.649c-0.333,0.329-0.333,0.869,0,1.204l1.433,1.43
				c0.332,0.335,0.42,0.942,0.195,1.355l-1.168,2.833c-0.132,0.452-0.627,0.821-1.095,0.821h-2.031
				c-0.467,0-0.852,0.379-0.852,0.851v2.332c0,0.466,0.384,0.849,0.852,0.849h2.031c0.468,0,0.963,0.369,1.095,0.823l1.168,2.834
				c0.225,0.413,0.137,1.017-0.195,1.351l-1.433,1.431c-0.333,0.334-0.333,0.875,0,1.207l1.651,1.647
				c0.33,0.335,0.871,0.335,1.202,0l1.436-1.432c0.33-0.331,0.939-0.418,1.353-0.192l2.834,1.167
				c0.451,0.13,0.819,0.624,0.819,1.094v2.032c0,0.466,0.382,0.851,0.854,0.851h2.328c0.47,0,0.852-0.385,0.852-0.851v-2.032
				c0-0.471,0.368-0.964,0.819-1.094l2.837-1.167c0.411-0.226,1.017-0.139,1.35,0.192l1.434,1.432
				C282.423,89.481,282.965,89.481,283.298,89.146z M273.635,84.641c-3.758,0-6.805-3.049-6.805-6.804
				c0-3.758,3.047-6.803,6.805-6.803c3.758,0,6.805,3.045,6.805,6.803C280.44,81.592,277.394,84.641,273.635,84.641z"/>
		</g>
	</g>
	<g>
		<g>
			<path style="fill:#B9CEEB;" d="M299.034,95.576l-0.416-1.381c-0.086-0.28-0.381-0.438-0.66-0.355l-1.2,0.366
				c-0.28,0.084-0.64-0.047-0.798-0.295l-1.208-1.464c-0.203-0.203-0.263-0.582-0.124-0.839l0.592-1.106
				c0.139-0.258,0.041-0.579-0.212-0.717l-1.272-0.681c-0.256-0.139-0.578-0.039-0.716,0.217l-0.595,1.106
				c-0.137,0.255-0.483,0.417-0.766,0.359l-1.893-0.191c-0.288,0.002-0.598-0.222-0.68-0.502l-0.366-1.201
				c-0.082-0.277-0.378-0.438-0.656-0.351l-1.383,0.413c-0.283,0.087-0.437,0.38-0.353,0.663l0.367,1.2
				c0.084,0.281-0.048,0.635-0.297,0.794l-1.466,1.21c-0.201,0.207-0.582,0.259-0.837,0.124l-1.109-0.594
				c-0.253-0.137-0.577-0.042-0.713,0.217l-0.684,1.269c-0.134,0.259-0.04,0.582,0.216,0.717l1.107,0.597
				c0.259,0.137,0.419,0.481,0.36,0.765l-0.188,1.889c0,0.292-0.224,0.603-0.505,0.682l-1.201,0.367
				c-0.281,0.083-0.439,0.381-0.354,0.659l0.418,1.379c0.083,0.282,0.38,0.438,0.661,0.353l1.203-0.363
				c0.276-0.082,0.632,0.05,0.791,0.292l1.209,1.468c0.206,0.204,0.261,0.583,0.125,0.838l-0.595,1.106
				c-0.135,0.256-0.039,0.577,0.218,0.718l1.27,0.678c0.257,0.137,0.578,0.041,0.717-0.214l0.595-1.109
				c0.134-0.259,0.483-0.417,0.766-0.36l1.888,0.192c0.296,0,0.602,0.223,0.684,0.505l0.363,1.199c0.084,0.28,0.383,0.44,0.66,0.353
				l1.381-0.417c0.277-0.084,0.437-0.381,0.357-0.658l-0.366-1.201c-0.087-0.277,0.043-0.64,0.288-0.796l1.469-1.207
				c0.203-0.208,0.583-0.264,0.839-0.128l1.106,0.594c0.258,0.142,0.583,0.042,0.717-0.214l0.68-1.272
				c0.14-0.253,0.039-0.578-0.217-0.716l-1.109-0.595c-0.257-0.141-0.418-0.481-0.357-0.763l0.192-1.896
				c-0.002-0.288,0.225-0.598,0.501-0.681l1.202-0.363C298.959,96.149,299.118,95.855,299.034,95.576z M293.747,99.533
				c-1.099,2.055-3.66,2.827-5.708,1.727c-2.053-1.101-2.826-3.657-1.727-5.705c1.099-2.059,3.66-2.83,5.71-1.729
				C294.071,94.928,294.845,97.482,293.747,99.533z"/>
		</g>
	</g>
</g>
<g>
	<g>
		<g>
			<path style="fill:#B9CEEB;" d="M438.835,106.982c-2.611,0-5.066,1.016-6.914,2.864c-3.149,3.149-3.775,8.03-1.522,11.867
				l0.161,0.271l-9.902,9.901c-0.013,0.014-0.48,0.467-0.487,1.126c-0.005,0.498,0.246,1.003,0.748,1.504
				c0.532,0.531,1.089,0.801,1.654,0.801c0.681,0,1.161-0.393,1.166-0.396l9.876-9.881l0.274,0.161
				c1.495,0.878,3.206,1.342,4.95,1.342c2.611,0,5.066-1.017,6.913-2.863c3.813-3.814,3.813-10.018,0-13.832
				C443.905,107.999,441.448,106.982,438.835,106.982z M438.835,123.638c-3.79,0-6.874-3.084-6.875-6.875
				c0.001-3.791,3.087-6.877,6.878-6.877l0,0c3.792,0,6.876,3.085,6.876,6.877C445.714,120.554,442.629,123.638,438.835,123.638z"/>
		</g>
	</g>
	<g>
		<g>
			<path style="fill:#B9CEEB;" d="M435.211,118.192h7.082v-1.812h-7.082V118.192z"/>
		</g>
	</g>
</g>
<g>
	<g>
		<path style="fill:#415C92;" d="M227.667,207.223c-0.669,0-1.212-0.543-1.212-1.212v-4.721c0-0.672,0.543-1.213,1.212-1.213
			c0.67,0,1.213,0.541,1.213,1.213v4.721C228.88,206.68,228.337,207.223,227.667,207.223z"/>
	</g>
	<g>
		<path style="fill:#415C92;" d="M230.028,204.861h-4.721c-0.669,0-1.212-0.541-1.212-1.213c0-0.669,0.543-1.212,1.212-1.212h4.721
			c0.67,0,1.213,0.543,1.213,1.212C231.241,204.32,230.698,204.861,230.028,204.861z"/>
	</g>
</g>
<g>
	<g>
		<path style="fill:#415C92;" d="M336.726,38.333c-0.671,0-1.213-0.543-1.213-1.213v-4.722c0-0.669,0.542-1.212,1.213-1.212
			c0.669,0,1.213,0.543,1.213,1.212v4.722C337.938,37.79,337.395,38.333,336.726,38.333z"/>
	</g>
	<g>
		<path style="fill:#415C92;" d="M339.086,35.972h-4.721c-0.671,0-1.213-0.543-1.213-1.213c0-0.669,0.542-1.212,1.213-1.212h4.721
			c0.67,0,1.213,0.543,1.213,1.212C340.299,35.429,339.756,35.972,339.086,35.972z"/>
	</g>
</g>
<g>
	<g>
		<path style="fill:#415C92;" d="M374.954,282.794c-0.109,0-0.222-0.016-0.334-0.046l-4.54-1.295
			c-0.644-0.185-1.016-0.856-0.832-1.5c0.184-0.645,0.856-1.01,1.498-0.834l4.54,1.295c0.645,0.186,1.018,0.856,0.833,1.501
			C375.968,282.447,375.481,282.794,374.954,282.794z"/>
	</g>
	<g>
		<path style="fill:#415C92;" d="M372.035,284.415c-0.109,0-0.222-0.014-0.333-0.045c-0.645-0.186-1.017-0.854-0.834-1.498
			l1.297-4.541c0.186-0.644,0.856-1.012,1.499-0.833c0.645,0.185,1.019,0.854,0.833,1.498l-1.297,4.54
			C373.049,284.07,372.563,284.415,372.035,284.415z"/>
	</g>
</g>
<g>
	<g>
		<path style="fill:#415C92;" d="M351.101,140.177c-0.109,0-0.222-0.015-0.332-0.047l-4.54-1.296
			c-0.645-0.185-1.019-0.856-0.834-1.5c0.186-0.645,0.854-1.017,1.498-0.833l4.54,1.297c0.645,0.184,1.018,0.855,0.834,1.5
			C352.113,139.83,351.628,140.177,351.101,140.177z"/>
	</g>
	<g>
		<path style="fill:#415C92;" d="M348.184,141.799c-0.11,0-0.222-0.016-0.334-0.048c-0.644-0.183-1.018-0.854-0.833-1.498
			l1.297-4.541c0.183-0.644,0.852-1.016,1.498-0.833c0.645,0.184,1.017,0.855,0.834,1.5l-1.298,4.539
			C349.196,141.452,348.711,141.799,348.184,141.799z"/>
	</g>
</g>
<g>
	<g>
		<g>
			<circle style="fill:#B9CEEB;" cx="575.013" cy="90.534" r="16.846"/>
		</g>
	</g>
	<g>
		<g>
			<g>
				<circle style="fill:#FFFFFF;" cx="575.013" cy="90.534" r="12.62"/>
			</g>
		</g>
		<g>
			<g>
				<g>
					<path style="fill:#415C92;" d="M575.014,103.643c-7.229,0-13.109-5.881-13.109-13.109c0-7.227,5.881-13.107,13.109-13.107
						c7.228,0,13.107,5.88,13.107,13.107C588.121,97.762,582.241,103.643,575.014,103.643z M575.014,78.402
						c-6.689,0-12.132,5.442-12.132,12.132c0,6.69,5.442,12.131,12.132,12.131c6.688,0,12.131-5.441,12.131-12.131
						C587.145,83.844,581.702,78.402,575.014,78.402z"/>
				</g>
			</g>
		</g>
	</g>
	<g>
		<g>
			<g>
				<path style="fill:#415C92;" d="M575.014,91.022c-0.27,0-0.489-0.218-0.489-0.489v-6.424c0-0.27,0.22-0.489,0.489-0.489
					s0.488,0.219,0.488,0.489v6.424C575.502,90.804,575.283,91.022,575.014,91.022z"/>
			</g>
		</g>
		<g>
			<g>
				<path style="fill:#415C92;" d="M582.541,91.022h-7.527c-0.27,0-0.489-0.218-0.489-0.489c0-0.27,0.22-0.488,0.489-0.488h7.527
					c0.27,0,0.488,0.218,0.488,0.488C583.029,90.804,582.811,91.022,582.541,91.022z"/>
			</g>
		</g>
	</g>
	<g>
		<g>
			<g>
				<circle style="fill:#415C92;" cx="575.013" cy="79.339" r="0.498"/>
			</g>
		</g>
		<g>
			<g>
				<circle style="fill:#415C92;" cx="582.929" cy="82.618" r="0.498"/>
			</g>
		</g>
		<g>
			<g>
				<circle style="fill:#415C92;" cx="586.209" cy="90.534" r="0.499"/>
			</g>
		</g>
		<g>
			<g>
				<circle style="fill:#415C92;" cx="582.929" cy="98.45" r="0.498"/>
			</g>
		</g>
		<g>
			<g>
				<circle style="fill:#415C92;" cx="575.013" cy="101.729" r="0.498"/>
			</g>
		</g>
		<g>
			<g>
				<circle style="fill:#415C92;" cx="567.097" cy="98.45" r="0.498"/>
			</g>
		</g>
		<g>
			<g>
				<circle style="fill:#415C92;" cx="563.818" cy="90.534" r="0.499"/>
			</g>
		</g>
		<g>
			<g>
				<circle style="fill:#415C92;" cx="567.097" cy="82.618" r="0.498"/>
			</g>
		</g>
	</g>
	<g>
		<g>
			<g>
				<path style="fill:#415C92;" d="M599.655,84.101h-7.072c-0.27,0-0.489-0.218-0.489-0.487c0-0.271,0.22-0.489,0.489-0.489h7.072
					c0.271,0,0.489,0.218,0.489,0.489C600.145,83.883,599.926,84.101,599.655,84.101z"/>
			</g>
		</g>
		<g>
			<g>
				<path style="fill:#415C92;" d="M599.655,97.944h-7.072c-0.27,0-0.489-0.219-0.489-0.489s0.22-0.489,0.489-0.489h7.072
					c0.271,0,0.489,0.219,0.489,0.489S599.926,97.944,599.655,97.944z"/>
			</g>
		</g>
		<g>
			<g>
				<path style="fill:#415C92;" d="M608.449,91.024h-13.213c-0.27,0-0.487-0.218-0.487-0.489c0-0.27,0.218-0.487,0.487-0.487h13.213
					c0.27,0,0.487,0.218,0.487,0.487C608.937,90.807,608.719,91.024,608.449,91.024z"/>
			</g>
		</g>
	</g>
</g>
<g>
	<g>
		<rect x="396.597" y="277.945" style="fill:#FFFFFF;" width="7.813" height="7.813"/>
		<path style="fill:#415C92;" d="M405.017,286.366h-9.026v-9.026h9.026V286.366z M397.203,285.153h6.601v-6.601h-6.601V285.153z"/>
	</g>
	<g>
		<g>
			<g>
				<path style="fill:#415C92;" d="M414.299,279.663h-7.073c-0.27,0-0.488-0.217-0.488-0.486c0-0.272,0.219-0.489,0.488-0.489h7.073
					c0.27,0,0.488,0.217,0.488,0.489C414.787,279.446,414.568,279.663,414.299,279.663z"/>
			</g>
		</g>
		<g>
			<g>
				<path style="fill:#415C92;" d="M416.956,285.019h-9.559c-0.365,0-0.66-0.22-0.66-0.489s0.295-0.488,0.66-0.488h9.559
					c0.364,0,0.66,0.219,0.66,0.488S417.32,285.019,416.956,285.019z"/>
			</g>
		</g>
		<g>
			<g>
				<path style="fill:#415C92;" d="M420.438,282.191h-13.213c-0.27,0-0.488-0.22-0.488-0.489s0.219-0.488,0.488-0.488h13.213
					c0.27,0,0.487,0.219,0.487,0.488S420.708,282.191,420.438,282.191z"/>
			</g>
		</g>
	</g>
</g>
<g>
	<g>
		<rect x="160.642" y="163.289" style="fill:#FFFFFF;" width="7.813" height="7.813"/>
		<path style="fill:#415C92;" d="M169.062,171.709h-9.025v-9.025h9.025V171.709z M161.249,170.496h6.6v-6.601h-6.6V170.496z"/>
	</g>
	<g>
		<g>
			<g>
				<path style="fill:#415C92;" d="M150.753,165.007h7.073c0.271,0,0.488-0.218,0.488-0.488c0-0.27-0.218-0.488-0.488-0.488h-7.073
					c-0.27,0-0.488,0.219-0.488,0.488C150.265,164.789,150.483,165.007,150.753,165.007z"/>
			</g>
		</g>
		<g>
			<g>
				<path style="fill:#415C92;" d="M148.096,170.361h9.56c0.364,0,0.659-0.218,0.659-0.487c0-0.271-0.295-0.489-0.659-0.489h-9.56
					c-0.365,0-0.66,0.219-0.66,0.489C147.436,170.144,147.731,170.361,148.096,170.361z"/>
			</g>
		</g>
		<g>
			<g>
				<path style="fill:#415C92;" d="M144.614,167.533h13.212c0.271,0,0.488-0.218,0.488-0.488c0-0.27-0.218-0.487-0.488-0.487
					h-13.212c-0.27,0-0.488,0.218-0.488,0.487C144.126,167.315,144.345,167.533,144.614,167.533z"/>
			</g>
		</g>
	</g>
</g>
<g>
	<g>
		<rect x="583.266" y="192.647" style="fill:#405C92;" width="2.426" height="104.295"/>
	</g>
	<g>
		<path style="fill:#B9CEEB;" d="M584.746,205.268h-0.533c-3.958,0-7.195-3.238-7.195-7.193v-9.638c0-3.957,3.237-7.194,7.195-7.194
			h0.533c3.957,0,7.195,3.237,7.195,7.194v9.638C591.941,202.029,588.703,205.268,584.746,205.268z"/>
	</g>
	<g>
		<g>
			<path style="fill:#405C92;" d="M594.245,198.289c0.854,0.137,1.706,0.273,2.561,0.411c0.572,0.094,0.818-0.784,0.241-0.877
				c-0.854-0.138-1.706-0.274-2.56-0.411C593.914,197.32,593.669,198.197,594.245,198.289L594.245,198.289z"/>
		</g>
	</g>
	<g>
		<g>
			<path style="fill:#405C92;" d="M594.157,192.732c0.67-0.119,1.335-0.135,2.01-0.071c0.583,0.055,0.579-0.854,0-0.908
				c-0.759-0.072-1.5-0.031-2.252,0.103C593.34,191.956,593.584,192.833,594.157,192.732L594.157,192.732z"/>
		</g>
	</g>
	<g>
		<g>
			<path style="fill:#405C92;" d="M593.88,187.669c0.654-0.26,1.308-0.519,1.962-0.778c0.538-0.213,0.304-1.093-0.241-0.877
				c-0.654,0.26-1.309,0.518-1.963,0.778C593.101,187.005,593.335,187.886,593.88,187.669L593.88,187.669z"/>
		</g>
	</g>
	<g>
		<g>
			<path style="fill:#405C92;" d="M571.58,199.136c0.671-0.094,1.321-0.249,1.963-0.468c0.55-0.188,0.313-1.066-0.242-0.877
				c-0.642,0.219-1.292,0.374-1.963,0.468C570.761,198.339,571.007,199.216,571.58,199.136L571.58,199.136z"/>
		</g>
	</g>
	<g>
		<g>
			<path style="fill:#405C92;" d="M570.399,192.671c0.843,0.022,1.656,0.148,2.468,0.379c0.563,0.157,0.805-0.72,0.241-0.879
				c-0.886-0.249-1.789-0.384-2.709-0.409C569.814,191.746,569.814,192.654,570.399,192.671L570.399,192.671z"/>
		</g>
	</g>
	<g>
		<g>
			<path style="fill:#405C92;" d="M571.194,185.188c0.654,0.211,1.309,0.418,1.964,0.627c0.559,0.179,0.798-0.699,0.241-0.877
				c-0.655-0.209-1.31-0.416-1.965-0.627C570.876,184.134,570.637,185.012,571.194,185.188L571.194,185.188z"/>
		</g>
	</g>
	<g>
		<polygon style="fill:#415C92;" points="578.819,298.355 580.437,284.415 588.319,284.415 590.138,298.155 		"/>
	</g>
</g>
<g>
	<g>
		<g>
			<path style="fill:#D8E5F5;" d="M306.059,214.509c9.788-8.851,19.576-17.7,29.365-26.55c1.451-1.311-0.699-3.451-2.143-2.145
				c-9.789,8.85-19.579,17.699-29.367,26.55C302.464,213.675,304.613,215.814,306.059,214.509L306.059,214.509z"/>
		</g>
	</g>
	<g>
		<g>
			<path style="fill:#D8E5F5;" d="M339.247,228.049c9.788-8.85,19.576-17.699,29.366-26.549c1.45-1.312-0.699-3.449-2.144-2.143
				c-9.79,8.848-19.578,17.697-29.367,26.547C335.652,227.216,337.801,229.355,339.247,228.049L339.247,228.049z"/>
		</g>
	</g>
	<g>
		<g>
			<path style="fill:#D8E5F5;" d="M303.183,238.079c20.518-20.006,41.033-40.012,61.549-60.018c1.399-1.364-0.745-3.507-2.143-2.144
				c-20.517,20.005-41.033,40.011-61.549,60.017C299.641,237.301,301.786,239.442,303.183,238.079L303.183,238.079z"/>
		</g>
	</g>
</g>
<g>
	<path style="fill:#415C92;" d="M263.204,119.461"/>
	<g>
		<path style="fill:#415C92;" d="M263.204,121.279c2.341,0,2.345-3.638,0-3.638C260.863,117.641,260.859,121.279,263.204,121.279
			L263.204,121.279z"/>
	</g>
</g>
<g>
	<path style="fill:#415C92;" d="M460.464,81.463"/>
	<g>
		<path style="fill:#415C92;" d="M460.464,83.283c2.341,0,2.345-3.639,0-3.639C458.123,79.645,458.118,83.283,460.464,83.283
			L460.464,83.283z"/>
	</g>
</g>
<g>
	<path style="fill:#415C92;" d="M542.117,211.624c0.27,0,0.539,0,0.809,0"/>
	<g>
		<path style="fill:#415C92;" d="M542.117,213.441c0.27,0,0.539,0,0.809,0c0.951,0,1.862-0.836,1.818-1.817
			c-0.044-0.986-0.799-1.82-1.818-1.82c-0.27,0-0.539,0-0.809,0c-0.953,0-1.864,0.836-1.819,1.82
			C540.341,212.608,541.097,213.441,542.117,213.441L542.117,213.441z"/>
	</g>
</g>
<g>
	<path style="fill:#415C92;" d="M191.253,238.301"/>
	<g>
		<path style="fill:#415C92;" d="M191.253,240.121c2.341,0,2.345-3.638,0-3.638C188.912,236.483,188.908,240.121,191.253,240.121
			L191.253,240.121z"/>
	</g>
</g>
<g>
	<path style="fill:#415C92;" d="M365.067,63.678"/>
	<g>
		<path style="fill:#415C92;" d="M365.067,65.497c2.341,0,2.346-3.638,0-3.638C362.727,61.859,362.723,65.497,365.067,65.497
			L365.067,65.497z"/>
	</g>
</g>
<g>
	<g>
		<path style="fill:#263238;" d="M640,299.243c0,0.213-143.281,0.387-319.984,0.387C143.249,299.63,0,299.456,0,299.243
			c0-0.214,143.249-0.385,320.016-0.385C496.719,298.858,640,299.029,640,299.243z"/>
	</g>
</g>
<g>
	<g>
		<g>
			<g>
				<path style="fill:#FAFBFB;" d="M199.091,44.017c-11.914,18.74-11.134,44.722,1.883,62.713
					c8.678,11.993,21.695,20.032,32.031,30.63c10.336,10.598,18.187,26.215,12.732,39.978
					c-5.553,14.009-21.818,19.708-33.999,28.582c-13.268,9.667-22.586,24.597-25.441,40.763c-2.855,16.165,0.786,33.384,9.94,47.01
					h126.523c0,0,22.226-42.358-6.35-74.638c-28.576-32.28-43.922-32.809-42.864-53.977c1.059-21.167,15.875-28.047,24.342-35.984
					c8.468-7.938,49.743-26.459,25.401-85.077H199.091z"/>
			</g>
			<g>
				<g>
					<path style="fill:#263238;" d="M199.091,44.017c0,0,0.735-0.012,2.178-0.018c1.448-0.003,3.597-0.01,6.414-0.017
						c5.646-0.008,13.969-0.02,24.689-0.036c21.462-0.016,52.52-0.038,90.918-0.066h0.093l0.034,0.084
						c1.728,4.39,3.476,8.91,4.714,13.7c1.274,4.77,2.318,9.738,2.688,14.888c0.388,5.139,0.221,10.446-0.803,15.715
						c-1.057,5.256-2.939,10.462-5.719,15.277c-1.383,2.413-3.009,4.704-4.766,6.915c-1.777,2.198-3.745,4.264-5.828,6.236
						c-2.086,1.97-4.309,3.825-6.616,5.6c-2.303,1.782-4.706,3.465-7.052,5.242c-1.175,0.887-2.248,1.881-3.368,2.877
						c-1.125,0.977-2.284,1.92-3.454,2.854c-2.337,1.869-4.7,3.739-6.928,5.786c-4.5,4.026-8.301,9.054-10.392,14.905
						c-1.014,2.92-1.741,5.979-1.979,9.11c-0.063,0.782-0.168,1.563-0.197,2.349c-0.015,0.786-0.06,1.574-0.022,2.362
						c0.01,1.577,0.188,3.153,0.475,4.708c0.594,3.107,1.898,6.085,3.797,8.666c1.87,2.605,4.175,4.899,6.562,7.104
						c4.804,4.393,9.898,8.584,14.779,13.111c4.904,4.502,9.667,9.253,14.254,14.248c2.276,2.506,4.59,5.027,6.58,7.823
						c2.057,2.744,3.786,5.742,5.304,8.844c2.993,6.233,4.843,13.072,5.448,20.064c0.652,6.993,0.154,14.117-1.232,21.092
						c-0.685,3.49-1.597,6.947-2.714,10.347c-1.119,3.401-2.41,6.755-4.017,9.994l-0.052,0.104h-0.12c-1.027,0-2.142,0-3.258,0
						c-43.19-0.003-84.863-0.006-123.266-0.009h-0.099l-0.055-0.082c-6.028-9.05-9.608-19.446-10.595-29.865
						c-1.049-10.42,0.555-20.871,4.377-30.146c3.773-9.309,9.639-17.473,16.725-23.89c3.533-3.233,7.472-5.88,11.418-8.328
						c3.95-2.452,7.934-4.721,11.701-7.202c3.75-2.486,7.364-5.136,10.298-8.377c2.944-3.214,5.194-6.989,6.373-11.048
						c1.183-4.062,1.194-8.32,0.502-12.33c-0.702-4.025-2.118-7.831-3.91-11.336c-1.797-3.511-3.977-6.732-6.369-9.674
						c-2.385-2.951-5.037-5.569-7.706-8.041c-5.356-4.93-10.837-9.243-15.771-13.674c-2.471-2.21-4.813-4.442-6.967-6.735
						c-2.139-2.306-4.095-4.67-5.776-7.12c-3.389-4.887-5.712-10.036-7.239-15.005c-1.529-4.976-2.289-9.786-2.463-14.211
						c-0.104-1.104-0.063-2.188-0.062-3.246c0.014-1.058-0.018-2.092,0.091-3.096c0.078-1.004,0.153-1.983,0.227-2.937
						c0.114-0.949,0.271-1.868,0.398-2.764c1.114-7.167,3.276-12.404,4.962-15.756c0.404-0.852,0.76-1.6,1.145-2.207
						c0.361-0.616,0.665-1.133,0.909-1.548C198.84,44.431,199.091,44.017,199.091,44.017c-0.051,0.091-0.258,0.456-0.717,1.267
						c-0.239,0.417-0.536,0.935-0.89,1.552c-0.376,0.604-0.728,1.354-1.126,2.208c-1.666,3.357-3.805,8.593-4.897,15.748
						c-0.125,0.894-0.279,1.811-0.391,2.758c-0.071,0.951-0.144,1.929-0.218,2.931c-0.107,1-0.073,2.033-0.084,3.088
						c0,1.055-0.038,2.136,0.068,3.238c0.184,4.414,0.951,9.209,2.484,14.166c1.53,4.951,3.854,10.078,7.236,14.939
						c1.677,2.438,3.629,4.792,5.766,7.088c2.152,2.284,4.492,4.509,6.962,6.713c4.932,4.42,10.418,8.726,15.79,13.66
						c2.675,2.472,5.34,5.097,7.739,8.06c2.404,2.952,4.598,6.188,6.408,9.715c1.806,3.524,3.235,7.354,3.947,11.413
						c0.701,4.044,0.694,8.351-0.5,12.462c-1.189,4.107-3.464,7.929-6.433,11.173c-2.959,3.272-6.591,5.937-10.351,8.434
						c-3.777,2.492-7.762,4.764-11.703,7.214c-3.939,2.448-7.855,5.082-11.367,8.3c-7.046,6.387-12.878,14.513-16.626,23.773
						c-3.798,9.228-5.388,19.616-4.341,29.98c0.985,10.361,4.549,20.699,10.543,29.693l-0.153-0.082
						c38.402-0.002,80.075-0.005,123.266-0.008c1.116,0,2.23,0,3.258,0l-0.172,0.104c1.588-3.2,2.881-6.552,3.993-9.935
						c1.112-3.386,2.02-6.827,2.703-10.302c1.379-6.941,1.875-14.031,1.228-20.981c-0.602-6.951-2.438-13.742-5.41-19.935
						c-1.508-3.08-3.223-6.059-5.267-8.784c-1.975-2.777-4.275-5.285-6.551-7.792c-4.58-4.987-9.333-9.732-14.229-14.229
						c-4.874-4.522-9.959-8.709-14.777-13.115c-2.392-2.214-4.714-4.522-6.609-7.162c-1.922-2.615-3.255-5.654-3.856-8.812
						c-0.291-1.578-0.469-3.176-0.479-4.769c-0.038-0.797,0.007-1.591,0.024-2.385c0.029-0.793,0.135-1.58,0.198-2.369
						c0.241-3.156,0.976-6.246,2.002-9.196c2.114-5.914,5.965-10.995,10.491-15.04c2.243-2.057,4.613-3.932,6.949-5.799
						c1.169-0.933,2.325-1.873,3.444-2.843c1.101-0.979,2.204-1.998,3.387-2.889c2.358-1.785,4.757-3.462,7.054-5.239
						c2.302-1.768,4.516-3.615,6.594-5.575c2.074-1.962,4.033-4.016,5.801-6.2c1.749-2.198,3.367-4.474,4.741-6.87
						c2.766-4.783,4.639-9.953,5.693-15.176c1.021-5.238,1.19-10.517,0.809-15.633c-0.364-5.127-1.4-10.079-2.667-14.836
						c-1.23-4.776-2.97-9.287-4.691-13.67l0.127,0.084c-38.375-0.028-69.415-0.051-90.864-0.066
						c-10.728-0.015-19.058-0.027-24.708-0.035c-2.824-0.008-4.979-0.014-6.43-0.018C199.839,44.028,199.091,44.017,199.091,44.017z
						"/>
				</g>
			</g>
		</g>
		<g>
			<path style="fill:#121525;" d="M318.242,78.387c18.635,3.063-10.747,36.068-27.378,49.09c-9.63,7.542-19.973,15.72-24.545,27.063
				c-5.188,12.87-1.343,27.337-3.857,40.284c-0.418,2.148-3.595,1.811-3.563-0.379c0.124-8.498-0.103-16.992-1.511-25.358
				c-1.997-11.865-6.559-23.605-14.875-32.301c-6.789-7.099-15.69-11.816-22.932-18.452c-10.573-9.689-21.433-22.185-22.492-36.486
				c0,0,20.299-16.351,31.567-14.287c13.167,2.412,26.131,22.731,46.536,20.404C289.437,86.341,296.625,74.834,318.242,78.387z"/>
		</g>
		<g>
			<path style="fill:#121525;" d="M319.896,255.04c-0.471-4.661-1.714-9.935-5.849-12.133c-2.506-1.332-5.557-1.184-8.3-0.463
				c-2.745,0.723-5.323,1.971-8.043,2.778c-5.352,1.589-11.215,1.403-16.456-0.521c-5.056-1.857-9.396-5.215-14.091-7.854
				s-10.19-4.606-15.417-3.306c-9.013,2.243-13.703,13.094-22.614,15.713c-3.96,1.165-8.213,0.512-12.24-0.401
				c-4.026-0.912-8.067-2.082-12.193-1.929c-3.232,0.121-6.595,1.238-8.861,3.453l0.024-0.03c-0.023,0.022-0.042,0.048-0.065,0.071
				c-0.373,0.368-0.715,0.768-1.021,1.197c-2.764,3.684-3.206,8.639-2.356,13.138c0.952,5.038,3.305,9.693,5.831,14.155
				c2.975,5.255,6.354,10.486,11.272,13.991c6.067,4.321,13.698,1.339,21.124,1.925c17.322,1.367,35.959,2.3,53.284,0.957
				c9.151-0.709,17.729,0.281,24.991-5.332c5.11-3.95,8.431-9.903,10.034-16.16C320.552,268.033,320.545,261.465,319.896,255.04z"/>
		</g>
		<g style="opacity:0.24;">
			<g>
				<path d="M287.203,246.114c-0.979,1.497-1.395,3.503-0.452,5.023s2.218,2.902,2.626,4.644c0.643,2.735-1.004,5.41-2.232,7.938
					c-2.197,4.521-3.196,9.677-2.455,14.648c0.741,4.971,3.291,9.72,7.27,12.79c1.76,1.359,4.045,2.412,6.166,1.747
					c1.997-0.627,3.287-2.652,3.684-4.706c0.397-2.055,0.07-4.171-0.191-6.246c-1.21-9.635-0.962-19.45,0.733-29.012
					c0.283-1.599,0.554-3.423-0.459-4.692c-0.647-0.81-1.679-1.19-2.663-1.518C295.368,245.445,291.202,246.873,287.203,246.114"/>
			</g>
		</g>
		<g>
			<path style="fill:#263238;" d="M186.952,299.438c0,0-0.348-5.808,7.226-9.04h133.079c0,0,6.939,3.512,7.793,8.919
				L186.952,299.438z"/>
		</g>
		<g>
			<path style="fill:#263238;" d="M324.437,44.725c-0.07,0.032-0.141,0.065-0.211,0.097l-125.134-0.805c0,0-0.444-0.284-1.109-0.805
				c-3.565-2.788-1.564-8.516,2.961-8.479l121.452,0.981C327.408,35.753,328.969,42.582,324.437,44.725z"/>
		</g>
		<g style="opacity:0.24;">
			<g>
				<path d="M304.408,92.458c0.252,0.482-0.687,1.526-2.481,3.118c-1.8,1.595-4.427,3.781-7.767,6.473
					c-3.358,2.67-7.426,5.889-12.607,8.893c-2.596,1.5-5.485,2.86-8.644,3.968c-1.589,0.533-3.236,1.028-4.968,1.373
					c-1.722,0.369-3.52,0.614-5.367,0.699c-3.686,0.212-7.434-0.328-10.789-1.474c-3.335-1.158-6.181-2.789-8.668-4.425
					c-2.495-1.654-4.645-3.287-6.672-4.849c-2.018-1.567-3.858-3.076-5.502-4.497c-6.573-5.695-10.03-9.883-9.363-10.691
					c0.689-0.841,5.342,1.823,12.593,6.279c1.813,1.113,3.795,2.33,5.922,3.637c2.126,1.295,4.412,2.723,6.743,4.045
					c2.339,1.321,4.779,2.523,7.31,3.303c2.514,0.751,5.194,1.108,8.046,0.948c5.699-0.291,11.23-2.299,16.022-4.612
					c4.817-2.357,9.125-5.024,12.881-7.127c3.752-2.127,6.961-3.699,9.298-4.534C302.736,92.146,304.167,91.994,304.408,92.458z"/>
			</g>
		</g>
		<g>
			<path style="fill:#121525;" d="M258.991,210.334c1.374-0.483,3.016,0.898,2.773,2.335c-0.242,1.436-2.247,2.202-3.385,1.295
				c-1.139-0.906-0.839-3.031,0.506-3.589"/>
		</g>
		<g>
			<g>
				<path style="fill:#263238;" d="M214.233,113.167c-0.01,0.009-0.162-0.145-0.442-0.446c-0.3-0.33-0.704-0.772-1.212-1.329
					c-0.512-0.59-1.187-1.271-1.875-2.142c-0.699-0.871-1.491-1.855-2.363-2.941c-0.807-1.141-1.723-2.37-2.644-3.732
					c-0.438-0.697-0.89-1.417-1.356-2.159c-0.229-0.374-0.478-0.743-0.7-1.135c-0.215-0.396-0.432-0.798-0.653-1.205
					c-1.827-3.216-3.453-6.983-4.61-11.099c-1.157-4.118-1.7-8.188-1.75-11.894c-0.003-0.925,0.048-1.829,0.069-2.706
					c0.02-0.438,0.013-0.871,0.056-1.294c0.045-0.423,0.089-0.839,0.133-1.249c0.093-0.818,0.159-1.611,0.269-2.367
					c0.136-0.75,0.267-1.472,0.392-2.161c0.212-1.385,0.578-2.6,0.84-3.679c0.143-0.537,0.254-1.042,0.396-1.496
					c0.146-0.449,0.282-0.862,0.404-1.236c0.24-0.715,0.43-1.283,0.572-1.706c0.135-0.389,0.211-0.59,0.224-0.586
					c0.013,0.004-0.04,0.214-0.15,0.61c-0.125,0.428-0.292,1.002-0.502,1.725c-0.112,0.377-0.236,0.792-0.371,1.243
					c-0.131,0.456-0.232,0.962-0.364,1.5c-0.242,1.08-0.588,2.294-0.781,3.675c-0.116,0.687-0.238,1.406-0.365,2.154
					c-0.101,0.752-0.158,1.542-0.245,2.354c-0.04,0.407-0.081,0.821-0.123,1.242c-0.04,0.42-0.029,0.851-0.046,1.286
					c-0.014,0.871-0.06,1.767-0.052,2.686c0.069,3.677,0.618,7.709,1.766,11.793c1.147,4.082,2.751,7.825,4.551,11.033
					c0.217,0.405,0.431,0.806,0.643,1.202c0.218,0.391,0.463,0.76,0.689,1.133c0.458,0.742,0.903,1.461,1.333,2.159
					c0.905,1.363,1.805,2.597,2.595,3.745c0.853,1.095,1.627,2.089,2.311,2.967c0.671,0.882,1.328,1.576,1.822,2.18
					c0.484,0.576,0.87,1.035,1.156,1.375C214.111,112.987,214.243,113.158,214.233,113.167z"/>
			</g>
		</g>
		<g>
			<g>
				<path style="fill:#263238;" d="M207.188,223.461c-0.006-0.004,0.042-0.086,0.139-0.244c0.109-0.174,0.256-0.404,0.441-0.698
					c0.201-0.312,0.445-0.688,0.73-1.13c0.146-0.223,0.302-0.463,0.469-0.719c0.182-0.246,0.396-0.492,0.612-0.762
					c0.439-0.536,0.925-1.131,1.457-1.779c0.572-0.616,1.227-1.253,1.913-1.955c1.41-1.363,3.114-2.818,5.097-4.289
					c3.941-2.987,9.025-5.955,14.536-9.418c2.735-1.761,5.614-3.615,8.335-5.872c2.725-2.24,5.353-4.823,7.48-7.904
					c4.195-6.236,5.898-13.461,6.047-19.92c0.169-6.507-1.215-12.302-2.846-16.922c-1.65-4.637-3.543-8.166-4.918-10.545
					c-0.688-1.193-1.252-2.102-1.641-2.714c-0.184-0.295-0.329-0.526-0.438-0.7c-0.097-0.159-0.144-0.242-0.138-0.246
					c0.005-0.003,0.063,0.073,0.171,0.224c0.117,0.169,0.272,0.394,0.469,0.679c0.411,0.599,0.997,1.497,1.706,2.68
					c1.417,2.362,3.354,5.883,5.046,10.53c1.671,4.632,3.095,10.459,2.944,17.023c-0.028,1.636-0.16,3.312-0.41,5.007
					c-0.235,1.697-0.593,3.416-1.087,5.128c-0.955,3.434-2.487,6.843-4.586,9.992c-2.155,3.124-4.813,5.729-7.561,7.981
					c-2.745,2.27-5.638,4.123-8.384,5.88c-5.531,3.453-10.618,6.39-14.563,9.337c-1.985,1.451-3.693,2.884-5.11,4.226
					c-0.689,0.69-1.35,1.317-1.926,1.923c-0.538,0.638-1.031,1.222-1.476,1.748c-0.22,0.265-0.437,0.507-0.624,0.748
					c-0.171,0.251-0.332,0.486-0.481,0.706c-0.296,0.432-0.549,0.801-0.758,1.105c-0.199,0.284-0.356,0.509-0.474,0.677
					C207.252,223.388,207.193,223.464,207.188,223.461z"/>
			</g>
		</g>
		<g>
			<g>
				<path style="fill:#263238;" d="M200.283,236.579c0.011,0.007-0.045,0.126-0.163,0.344c-0.143,0.256-0.317,0.567-0.529,0.945
					c-0.239,0.404-0.522,0.903-0.809,1.506c-0.292,0.6-0.662,1.263-0.975,2.041c-0.167,0.386-0.341,0.789-0.522,1.207
					c-0.179,0.421-0.325,0.875-0.5,1.336c-0.363,0.916-0.644,1.932-0.965,2.991c-0.571,2.138-1.049,4.53-1.296,7.075
					c-0.22,2.548-0.186,4.988-0.013,7.195c0.123,1.101,0.215,2.149,0.405,3.117c0.087,0.484,0.148,0.957,0.249,1.404
					c0.102,0.444,0.2,0.872,0.294,1.281c0.166,0.823,0.409,1.543,0.587,2.185c0.172,0.646,0.36,1.188,0.521,1.629
					c0.139,0.41,0.254,0.748,0.348,1.024c0.076,0.236,0.11,0.362,0.097,0.368c-0.012,0.005-0.07-0.112-0.169-0.339
					c-0.113-0.271-0.25-0.601-0.417-1.003c-0.184-0.434-0.394-0.972-0.586-1.614c-0.2-0.64-0.462-1.358-0.646-2.183
					c-0.103-0.412-0.209-0.841-0.321-1.287c-0.108-0.447-0.177-0.923-0.272-1.41c-0.205-0.974-0.31-2.031-0.443-3.141
					c-0.195-2.226-0.24-4.69-0.018-7.263c0.25-2.568,0.743-4.983,1.339-7.137c0.333-1.066,0.629-2.087,1.008-3.006
					c0.182-0.463,0.336-0.918,0.524-1.338c0.19-0.419,0.374-0.821,0.55-1.207c0.331-0.776,0.721-1.437,1.033-2.029
					c0.307-0.597,0.61-1.087,0.87-1.481c0.237-0.364,0.433-0.664,0.592-0.909C200.194,236.676,200.272,236.571,200.283,236.579z"/>
			</g>
		</g>
	</g>
	<g>
		<g>
			<path style="fill:#263238;" d="M292.072,254.421c0.004,0.006-0.048,0.043-0.151,0.109c-0.124,0.078-0.275,0.173-0.463,0.29
				c-0.439,0.264-1.04,0.625-1.801,1.083c-0.395,0.234-0.832,0.492-1.307,0.774c-0.486,0.268-1.034,0.522-1.612,0.815
				c-1.167,0.563-2.464,1.28-3.994,1.858c-0.756,0.311-1.548,0.635-2.372,0.973c-0.827,0.332-1.721,0.589-2.628,0.902
				c-1.807,0.66-3.808,1.131-5.898,1.676c-4.216,0.938-8.934,1.626-13.922,1.786c-4.992,0.102-9.74-0.34-14-1.057
				c-2.117-0.436-4.139-0.801-5.979-1.366c-0.922-0.266-1.828-0.476-2.672-0.764c-0.841-0.295-1.648-0.577-2.42-0.848
				c-1.558-0.497-2.89-1.146-4.085-1.647c-0.593-0.263-1.153-0.488-1.652-0.73c-0.49-0.256-0.939-0.492-1.346-0.705
				c-0.784-0.417-1.403-0.747-1.855-0.986c-0.193-0.107-0.35-0.194-0.478-0.266c-0.106-0.061-0.159-0.096-0.156-0.102
				s0.063,0.017,0.175,0.067c0.132,0.062,0.295,0.137,0.495,0.23c0.459,0.225,1.088,0.531,1.885,0.921
				c0.411,0.204,0.864,0.429,1.357,0.673c0.503,0.232,1.065,0.447,1.661,0.699c1.2,0.481,2.534,1.109,4.091,1.588
				c0.771,0.262,1.578,0.536,2.417,0.821c0.842,0.279,1.746,0.48,2.666,0.738c1.834,0.55,3.849,0.9,5.956,1.325
				c4.242,0.693,8.964,1.121,13.929,1.021c4.961-0.159,9.654-0.832,13.853-1.747c2.083-0.532,4.076-0.988,5.878-1.633
				c0.906-0.306,1.797-0.554,2.624-0.877c0.824-0.328,1.615-0.645,2.372-0.946c1.53-0.559,2.83-1.256,4.003-1.799
				c0.581-0.283,1.131-0.527,1.622-0.785c0.48-0.27,0.921-0.518,1.32-0.743c0.775-0.43,1.388-0.77,1.834-1.018
				c0.195-0.104,0.354-0.188,0.482-0.257C292.011,254.441,292.069,254.415,292.072,254.421z"/>
		</g>
	</g>
	<g>
		<g>
			<path style="fill:#263238;" d="M299.815,97.298c0.004,0.005-0.049,0.055-0.158,0.147c-0.126,0.104-0.286,0.236-0.486,0.401
				c-0.455,0.363-1.09,0.87-1.896,1.513c-1.651,1.306-4.039,3.2-7.057,5.456c-3.023,2.244-6.687,4.857-11.042,7.3
				c-2.199,1.175-4.541,2.375-7.114,3.273c-2.564,0.904-5.321,1.597-8.208,1.826c-5.8,0.392-11.299-1.077-15.772-3.281
				c-2.237-1.121-4.255-2.377-6.091-3.623c-1.813-1.279-3.468-2.517-4.933-3.703c-2.939-2.359-5.242-4.355-6.842-5.724
				c-0.78-0.674-1.393-1.205-1.834-1.585c-0.193-0.173-0.349-0.311-0.471-0.42c-0.104-0.096-0.156-0.148-0.152-0.153
				c0.004-0.005,0.064,0.036,0.177,0.122c0.129,0.102,0.292,0.23,0.496,0.391c0.452,0.367,1.082,0.879,1.881,1.53
				c1.63,1.333,3.959,3.297,6.915,5.624c1.472,1.171,3.131,2.391,4.944,3.653c1.835,1.228,3.846,2.465,6.067,3.568
				c4.438,2.164,9.87,3.601,15.587,3.214c2.845-0.225,5.569-0.906,8.109-1.797c2.549-0.884,4.879-2.069,7.07-3.229
				c4.341-2.412,8.013-4.996,11.052-7.208c3.035-2.224,5.447-4.085,7.127-5.354c0.825-0.619,1.474-1.106,1.94-1.456
				c0.209-0.152,0.378-0.274,0.511-0.371C299.75,97.332,299.811,97.292,299.815,97.298z"/>
		</g>
	</g>
	<g style="opacity:0.24;">
		<g>
			<path d="M232.859,260.657c3.518-2.716,8.461-2.057,12.811-1.144c4.349,0.914,8.731,2.401,13.132,1.786
				c3.317-0.465,6.36-2.097,9.634-2.807c3.273-0.709,7.245-0.185,9.06,2.631C263.093,265.807,247.16,265.641,232.859,260.657"/>
		</g>
	</g>
</g>
<g>
	<g>
		<g>
			<g>
				<g>
					<path style="fill:#E7515B;" d="M355.631,240.511l-15.988-17.901l-0.162,21.761l4.813,13.958l-47.827,8.296l-2.028-37.737
						l-3.442-28.981c-0.422-3.551,1.604-6.94,4.931-8.25l13.162-5.184l18.537,3.4l7.458,2.835c3.131,1.189,5.921,3.131,8.126,5.652
						l22.448,25.671"/>
				</g>
			</g>
			<g>
				<g>
					<path style="fill:#FFFFFF;" d="M338.521,218.328c0.004-0.076,1.053,0.079,2.701-0.19c1.632-0.254,3.887-1.053,5.758-2.774
						c1.868-1.726,2.847-3.91,3.232-5.516c0.4-1.621,0.331-2.679,0.407-2.676c0.023-0.002,0.061,0.26,0.067,0.734
						c0.009,0.476-0.038,1.166-0.209,2.003c-0.325,1.66-1.295,3.945-3.235,5.738c-1.944,1.79-4.3,2.571-5.981,2.761
						c-0.848,0.104-1.54,0.094-2.013,0.047C338.774,218.41,338.518,218.352,338.521,218.328z"/>
				</g>
			</g>
			<g>
				<g>
					<g>
						
							<ellipse transform="matrix(0.0082 1 -1 0.0082 563.5942 -115.0213)" style="fill:#263238;" cx="339.782" cy="226.609" rx="16.836" ry="0.203"/>
					</g>
				</g>
			</g>
		</g>
		<g>
			<path style="fill:#E7515B;" d="M338.168,248.976l-28.899-11.634c-2.331-0.938-3.927-3.118-4.118-5.623l-2.115-27.707
				c0,0,0.25-11.783-7.11-12.356l-4.188,1.648c-5.412,2.874-6.752,10.753-6.016,16.836c1.047,8.644,1.483,20.876,2.654,28.379
				c0.958,6.136,4.474,11.534,10.479,13.115l35.595,7.705L338.168,248.976z"/>
		</g>
		<g>
			<g>
				<path style="fill:#263238;" d="M303.45,208.239c0.013-0.002,0.044,0.217,0.091,0.634c0.045,0.452,0.107,1.061,0.186,1.826
					c0.147,1.624,0.355,3.909,0.611,6.719c0.245,2.85,0.535,6.225,0.856,9.969c0.079,0.938,0.16,1.899,0.242,2.882
					c0.086,0.982,0.146,1.988,0.369,2.964c0.211,0.98,0.682,1.898,1.437,2.598c0.749,0.701,1.687,1.214,2.666,1.658
					c7.969,3.448,15.313,6.296,20.645,8.292c2.646,0.976,4.799,1.769,6.329,2.332c0.722,0.266,1.296,0.478,1.721,0.635
					c0.393,0.148,0.597,0.232,0.592,0.245c-0.004,0.013-0.217-0.047-0.617-0.172c-0.431-0.14-1.014-0.328-1.745-0.566
					c-1.513-0.501-3.693-1.252-6.374-2.217c-5.362-1.934-12.718-4.738-20.71-8.197c-0.994-0.452-1.97-0.98-2.77-1.73
					c-0.809-0.746-1.327-1.768-1.542-2.79c-0.23-1.025-0.285-2.039-0.368-3.019c-0.078-0.982-0.154-1.944-0.229-2.883
					c-0.291-3.748-0.553-7.126-0.774-9.979c-0.204-2.813-0.371-5.103-0.489-6.729c-0.048-0.769-0.085-1.378-0.114-1.831
					C303.442,208.46,303.437,208.239,303.45,208.239z"/>
			</g>
		</g>
		<g>
			<g>
				<path style="fill:#263238;" d="M286.893,223.301c0.014-0.001,0.032,0.128,0.057,0.372c0.026,0.288,0.057,0.642,0.096,1.069
					c0.085,0.987,0.202,2.316,0.342,3.932c0.159,1.658,0.36,3.632,0.647,5.813c0.297,2.177,0.648,4.58,1.305,7.018
					c0.312,1.232,0.748,2.37,1.411,3.347c0.663,0.984,1.398,1.869,2.158,2.652c1.528,1.563,3.16,2.709,4.625,3.47
					c2.957,1.536,5.105,1.559,5.076,1.661c-0.001,0.014-0.13,0.01-0.376-0.009c-0.246-0.017-0.609-0.045-1.07-0.138
					c-0.92-0.162-2.246-0.524-3.754-1.271c-1.506-0.743-3.184-1.886-4.754-3.464c-0.782-0.791-1.538-1.688-2.219-2.69
					c-0.691-1.006-1.161-2.223-1.47-3.455c-0.666-2.477-1.005-4.887-1.285-7.075c-0.269-2.192-0.443-4.173-0.566-5.837
					c-0.122-1.664-0.187-3.013-0.22-3.945c-0.01-0.43-0.018-0.784-0.023-1.074C286.872,223.431,286.88,223.302,286.893,223.301z"/>
			</g>
		</g>
		<g>
			<g>
				<path style="fill:#263238;" d="M299.251,242.689c-0.04-0.011,0.083-0.63,0.525-1.541c0.438-0.908,1.248-2.084,2.427-3.095
					c1.183-1.007,2.471-1.622,3.437-1.912c0.969-0.294,1.599-0.319,1.604-0.278c0.012,0.064-0.595,0.185-1.514,0.536
					c-0.918,0.349-2.134,0.979-3.276,1.948c-1.136,0.976-1.949,2.078-2.436,2.931C299.526,242.13,299.313,242.711,299.251,242.689z"
					/>
			</g>
		</g>
		<g>
			<g>
				<path style="fill:#FFFFFF;" d="M304.935,221.618c0.004-0.006,0.065,0.021,0.184,0.081c0.136,0.071,0.306,0.16,0.517,0.271
					c0.464,0.218,1.14,0.561,2.062,0.874c1.817,0.631,4.664,1.272,8.1,0.691c3.393-0.555,7.336-2.553,10.068-6.255
					c1.352-1.828,2.398-4.08,2.637-6.548c0.12-1.226,0.019-2.503-0.386-3.704c-0.396-1.199-1.122-2.312-2.084-3.184
					c-0.956-0.873-2.145-1.489-3.392-1.648c-1.229-0.194-2.547,0.131-3.4,0.955c-0.412,0.414-0.669,0.969-0.663,1.539
					c-0.002,0.569,0.217,1.131,0.559,1.588c0.684,0.935,1.837,1.37,2.939,1.533c2.251,0.309,4.464-0.098,6.316-0.904
					c1.861-0.811,3.383-2.017,4.478-3.347c1.098-1.337,1.773-2.781,2.178-4.093c0.406-1.315,0.529-2.508,0.549-3.477
					c0.015-0.971-0.087-1.723-0.162-2.229c-0.043-0.234-0.077-0.423-0.104-0.574c-0.023-0.13-0.031-0.197-0.025-0.199
					c0,0,0.409,1.03,0.442,3.003c0.004,0.979-0.1,2.193-0.493,3.537c-0.391,1.34-1.062,2.823-2.172,4.203
					c-1.108,1.374-2.656,2.624-4.561,3.469c-1.897,0.84-4.161,1.273-6.498,0.963c-1.148-0.166-2.407-0.618-3.184-1.665
					c-0.38-0.509-0.636-1.141-0.636-1.811c-0.009-0.67,0.297-1.331,0.769-1.804c0.969-0.938,2.4-1.272,3.72-1.069
					c1.337,0.17,2.596,0.824,3.601,1.743c1.013,0.918,1.771,2.084,2.188,3.349c0.424,1.262,0.524,2.592,0.398,3.861
					c-0.253,2.556-1.338,4.859-2.728,6.724c-2.81,3.773-6.85,5.782-10.31,6.313c-3.502,0.555-6.378-0.141-8.195-0.82
					C305.808,222.284,304.935,221.618,304.935,221.618z"/>
			</g>
		</g>
		<g>
			<g>
				<path style="fill:#FFFFFF;" d="M286.005,214.229c-0.018-0.017,0.144-0.233,0.474-0.593c0.333-0.355,0.85-0.846,1.562-1.357
					c1.403-1.055,3.726-2.015,6.393-2.266c1.333-0.142,2.627-0.078,3.768,0.158c1.142,0.236,2.125,0.621,2.903,1.021
					c0.782,0.396,1.373,0.788,1.766,1.074c0.392,0.29,0.594,0.469,0.58,0.488c-0.04,0.062-0.904-0.592-2.463-1.316
					c-1.542-0.738-3.903-1.354-6.513-1.04c-2.615,0.248-4.867,1.134-6.279,2.105C286.765,213.456,286.058,214.282,286.005,214.229z"
					/>
			</g>
		</g>
		<g>
			<g>
				<path style="fill:#FFFFFF;" d="M290.627,194.416c0.059-0.065,0.742,0.881,2.339,1.7c0.79,0.409,1.81,0.753,2.977,0.873
					c1.165,0.124,2.479-0.009,3.728-0.515c1.242-0.525,2.266-1.36,3.002-2.271c0.742-0.91,1.221-1.874,1.49-2.722
					c0.55-1.708,0.365-2.859,0.453-2.855c0.021-0.003,0.079,0.275,0.097,0.787c0.02,0.511-0.04,1.261-0.289,2.148
					c-0.245,0.887-0.715,1.902-1.473,2.865c-0.753,0.961-1.821,1.85-3.132,2.404c-1.319,0.534-2.703,0.66-3.914,0.512
					c-1.217-0.146-2.267-0.531-3.067-0.985c-0.803-0.453-1.375-0.94-1.722-1.317C290.766,194.666,290.611,194.429,290.627,194.416z"
					/>
			</g>
		</g>
		<g>
			<g>
				<path style="fill:#FFFFFF;" d="M315.81,239.976c-0.013-0.002,0.007-0.189,0.06-0.548c0.082-0.35,0.196-0.879,0.512-1.495
					c0.584-1.245,2.035-2.805,4.326-3.755c2.259-1.016,5.365-1.211,8.496-0.305c1.528,0.454,3.282,1.015,4.428,2.507
					c0.561,0.734,0.754,1.826,0.326,2.719c-0.41,0.895-1.215,1.512-2.061,1.942c-0.861,0.422-1.797,0.66-2.735,0.678
					c-0.931,0.019-1.9-0.213-2.627-0.814c-0.733-0.593-1.119-1.508-1.176-2.381c-0.068-0.881,0.11-1.731,0.393-2.504
					c1.231-3.091,3.723-5.057,5.957-6.029c2.271-0.993,4.327-1.098,5.685-0.977c1.368,0.141,2.076,0.438,2.076,0.438
					c-0.012,0.05-0.735-0.195-2.088-0.287c-1.341-0.074-3.354,0.072-5.561,1.075c-1.095,0.5-2.226,1.219-3.243,2.201
					c-1.013,0.978-1.924,2.23-2.491,3.7c-0.266,0.738-0.426,1.546-0.36,2.353c0.059,0.802,0.404,1.599,1.049,2.118
					c0.637,0.526,1.512,0.741,2.381,0.723c0.873-0.017,1.761-0.243,2.569-0.639c0.796-0.403,1.532-0.983,1.881-1.756
					c0.365-0.768,0.213-1.678-0.281-2.338c-0.49-0.675-1.205-1.161-1.934-1.535c-0.734-0.37-1.521-0.623-2.284-0.852
					c-3.066-0.904-6.077-0.741-8.295,0.215c-2.25,0.898-3.686,2.378-4.297,3.572C315.883,239.201,315.864,239.99,315.81,239.976z"/>
			</g>
		</g>
		<g>
			<g>
				<path style="fill:#FFFFFF;" d="M296.569,250.409c-0.012-0.073,1.102-0.167,2.771-0.762c1.66-0.582,3.871-1.773,5.681-3.774
					c1.811-2.003,2.772-4.323,3.184-6.033c0.424-1.721,0.405-2.838,0.479-2.833c0.023,0,0.05,0.276,0.042,0.779
					s-0.073,1.23-0.254,2.115c-0.351,1.758-1.298,4.167-3.164,6.23c-1.865,2.063-4.167,3.248-5.88,3.774
					c-0.861,0.27-1.58,0.407-2.079,0.465C296.85,250.431,296.571,250.433,296.569,250.409z"/>
			</g>
		</g>
		<g>
			<g>
				<path style="fill:#FFFFFF;" d="M287.203,228.871c-0.003-0.013,0.116-0.061,0.349-0.139c0.234-0.077,0.58-0.184,1.032-0.299
					c0.902-0.218,2.248-0.518,3.937-0.399c0.84,0.066,1.76,0.258,2.676,0.661c0.911,0.404,1.821,1.038,2.497,1.96
					c0.662,0.921,1.069,2.118,0.971,3.369c-0.046,0.623-0.237,1.249-0.573,1.808c-0.339,0.55-0.846,1.049-1.515,1.267
					c-0.658,0.207-1.432,0.102-1.953-0.387c-0.513-0.497-0.642-1.194-0.673-1.8c-0.046-1.232,0.22-2.414,0.682-3.438
					c0.919-2.072,2.629-3.433,4.214-3.999c1.597-0.592,3.013-0.547,3.93-0.389c0.463,0.079,0.813,0.183,1.045,0.264
					c0.23,0.088,0.349,0.139,0.345,0.152c-0.012,0.037-0.496-0.154-1.411-0.268c-0.905-0.109-2.282-0.107-3.811,0.495
					c-1.517,0.58-3.125,1.9-3.988,3.89c-0.433,0.98-0.677,2.111-0.628,3.273c0.029,0.567,0.163,1.163,0.56,1.54
					c0.392,0.372,1.028,0.47,1.571,0.297c0.549-0.177,1-0.605,1.304-1.099c0.302-0.501,0.479-1.067,0.523-1.639
					c0.097-1.144-0.273-2.268-0.882-3.13c-0.621-0.863-1.475-1.478-2.34-1.874c-0.87-0.399-1.755-0.601-2.568-0.682
					c-1.638-0.149-2.975,0.102-3.879,0.274C287.709,228.767,287.212,228.901,287.203,228.871z"/>
			</g>
		</g>
		<g style="opacity:0.3;">
			<g>
				<path d="M329.863,245.673c-3.091-1.745-6.113-3.087-9.345-4.555c-3.23-1.469-6.396-3.354-8.51-6.203
					c-3.988-5.376-3.534-13.135-7.616-18.438c0.266,3.566,0.533,7.134,0.8,10.701c0.244,3.269-0.257,6.501,1.849,8.723
					c1.774,1.872,5.233,3.308,7.682,4.115C319.643,241.639,324.941,244.049,329.863,245.673"/>
			</g>
		</g>
	</g>
	<g>
		<g>
			<g>
				<path style="fill:#E7515B;" d="M380.078,286.395c0,0,24.18,6.693,25.15,7.034c1.456,0.513,1.211,5.85-1.055,5.767
					c-1.072-0.039-18.573,0.651-20.785,0.514c-2.211-0.139-8.882-2.768-8.882-2.768L380.078,286.395z"/>
			</g>
		</g>
		<g>
			<g>
				<g>
					<path style="fill:#263238;" d="M390.151,295.621c0.121,0.017,0.284-1.262,1.064-2.596c0.763-1.346,1.786-2.129,1.71-2.226
						c-0.042-0.094-1.243,0.588-2.06,2.023C390.035,294.25,390.049,295.632,390.151,295.621z"/>
				</g>
			</g>
		</g>
		<g>
			<g>
				<g>
					<path style="fill:#263238;" d="M387.63,294.479c0.118,0.021,0.362-1.123,1.007-2.386c0.631-1.271,1.404-2.147,1.317-2.23
						c-0.067-0.079-1.012,0.712-1.679,2.049C387.599,293.242,387.526,294.472,387.63,294.479z"/>
				</g>
			</g>
		</g>
		<g>
			<g>
				<g>
					<path style="fill:#263238;" d="M385.266,293.845c0.121-0.008,0.027-1.216,0.565-2.555c0.513-1.349,1.401-2.173,1.316-2.261
						c-0.049-0.093-1.133,0.655-1.693,2.113C384.877,292.595,385.167,293.879,385.266,293.845z"/>
				</g>
			</g>
		</g>
		<g>
			<g>
				<g>
					<path style="fill:#263238;" d="M385.693,290.722c0.044,0.011,0.258-0.665,0.26-1.8c-0.001-0.565-0.066-1.241-0.245-1.972
						c-0.088-0.364-0.208-0.741-0.359-1.122c-0.078-0.191-0.168-0.413-0.388-0.593c-0.225-0.202-0.636-0.161-0.83,0.042
						c-0.222,0.192-0.292,0.465-0.322,0.684c-0.024,0.222-0.037,0.428-0.031,0.639c0.006,0.416,0.06,0.814,0.148,1.183
						c0.18,0.739,0.467,1.358,0.745,1.849c0.563,0.981,1.052,1.483,1.086,1.456c0.056-0.039-0.35-0.602-0.832-1.588
						c-0.238-0.493-0.486-1.099-0.635-1.798c-0.074-0.349-0.116-0.721-0.116-1.104c0.011-0.371,0.005-0.836,0.223-1.015
						c0.115-0.096,0.219-0.103,0.32-0.026c0.106,0.081,0.196,0.246,0.265,0.422c0.149,0.361,0.271,0.72,0.366,1.067
						c0.19,0.695,0.282,1.342,0.32,1.888C385.738,290.027,385.628,290.712,385.693,290.722z"/>
				</g>
			</g>
		</g>
		<g>
			<g>
				<g>
					<path style="fill:#263238;" d="M385.664,290.476c0.011-0.044-0.573-0.245-1.56-0.252c-0.491-0.001-1.081,0.051-1.716,0.21
						c-0.313,0.085-0.65,0.166-0.988,0.364c-0.331,0.168-0.678,0.628-0.546,1.104c0.104,0.451,0.488,0.766,0.87,0.864
						c0.386,0.107,0.759,0.068,1.085-0.003c0.664-0.152,1.18-0.479,1.571-0.773c0.774-0.607,1.153-1.072,1.124-1.106
						c-0.042-0.051-0.5,0.347-1.288,0.872c-0.396,0.254-0.893,0.527-1.482,0.643c-0.295,0.056-0.611,0.073-0.897-0.013
						c-0.284-0.078-0.521-0.295-0.588-0.575c-0.07-0.27,0.094-0.517,0.358-0.674c0.259-0.161,0.579-0.253,0.877-0.343
						c0.599-0.171,1.158-0.249,1.63-0.284C385.061,290.443,385.653,290.541,385.664,290.476z"/>
				</g>
			</g>
		</g>
		<g>
			<g>
				<g>
					<path style="fill:#263238;" d="M393.866,295.88c0.119-0.014,0.001-1.047,0.477-2.181c0.453-1.144,1.261-1.799,1.185-1.893
						c-0.04-0.099-1.052,0.474-1.56,1.74C393.446,294.807,393.769,295.923,393.866,295.88z"/>
				</g>
			</g>
		</g>
		<g>
			<g>
				<g>
					<path style="fill:#263238;" d="M376.994,296.997c-0.011,0.025,0.322,0.181,0.936,0.439c0.621,0.234,1.53,0.563,2.69,0.834
						c2.313,0.583,5.609,0.913,9.231,0.874c3.624-0.039,6.889-0.204,9.257-0.299c1.121-0.06,2.061-0.109,2.803-0.148
						c0.661-0.044,1.026-0.082,1.025-0.109c-0.001-0.028-0.367-0.044-1.031-0.049c-0.742,0.006-1.684,0.013-2.806,0.021
						c-2.449,0.048-5.678,0.111-9.25,0.181c-3.605,0.038-6.863-0.244-9.166-0.749C378.372,297.517,377.021,296.921,376.994,296.997z
						"/>
				</g>
			</g>
		</g>
		<g>
			<g>
				<g>
					<path style="fill:#263238;" d="M376.279,297.548c0.033,0.056,0.694-0.331,1.812-0.821c1.104-0.474,2.759-1.041,4.575-0.76
						c1.822,0.278,3.114,1.502,3.955,2.353c0.848,0.879,1.345,1.464,1.394,1.423c0.037-0.03-0.376-0.673-1.184-1.617
						c-0.407-0.468-0.926-1.01-1.603-1.499c-0.67-0.493-1.533-0.912-2.499-1.06c-1.948-0.298-3.666,0.353-4.76,0.901
						C376.861,297.035,376.255,297.508,376.279,297.548z"/>
				</g>
			</g>
		</g>
	</g>
	<g>
		<g>
			<g>
				<path style="fill:#E7515B;" d="M354.412,279.719c0,0-22.882,14.981-23.702,15.602c-1.232,0.931,0.181,5.364,2.316,4.597
					c1.009-0.363,20.209-5.704,22.274-6.508c2.064-0.803,7.622-5.334,7.622-5.334L354.412,279.719z"/>
			</g>
		</g>
		<g>
			<g>
				<g>
					<path style="fill:#263238;" d="M347.617,291.568c0.1-0.021-0.307-1.341-1.531-2.448c-1.215-1.12-2.566-1.404-2.578-1.303
						c-0.042,0.115,1.171,0.551,2.306,1.602C346.962,290.453,347.506,291.621,347.617,291.568z"/>
				</g>
			</g>
		</g>
		<g>
			<g>
				<g>
					<path style="fill:#263238;" d="M349.672,289.714c0.096-0.037-0.347-1.188-1.396-2.25c-1.042-1.071-2.182-1.537-2.221-1.441
						c-0.058,0.104,0.944,0.707,1.932,1.725C348.984,288.755,349.565,289.77,349.672,289.714z"/>
				</g>
			</g>
		</g>
		<g>
			<g>
				<g>
					<path style="fill:#263238;" d="M351.732,288.393c0.104,0.003-0.011-1.309-1-2.518c-0.979-1.219-2.238-1.602-2.257-1.499
						c-0.054,0.109,1.043,0.625,1.942,1.754C351.336,287.243,351.614,288.422,351.732,288.393z"/>
				</g>
			</g>
		</g>
		<g>
			<g>
				<g>
					<path style="fill:#263238;" d="M350.375,285.547c0.06-0.029-0.253-0.647-0.518-1.713c-0.131-0.531-0.239-1.176-0.27-1.896
						c-0.015-0.359-0.008-0.738,0.025-1.128c0.013-0.188,0.048-0.373,0.124-0.483c0.073-0.103,0.174-0.127,0.313-0.071
						c0.262,0.104,0.397,0.549,0.521,0.899c0.117,0.366,0.19,0.733,0.225,1.088c0.07,0.711,0.019,1.362-0.059,1.905
						c-0.16,1.087-0.375,1.745-0.311,1.766c0.041,0.016,0.354-0.611,0.593-1.717c0.115-0.552,0.201-1.229,0.147-1.987
						c-0.026-0.378-0.096-0.774-0.217-1.173c-0.059-0.201-0.133-0.395-0.225-0.599c-0.095-0.199-0.244-0.438-0.515-0.554
						c-0.246-0.133-0.649-0.048-0.803,0.213c-0.155,0.237-0.173,0.476-0.189,0.682c-0.029,0.408-0.028,0.805-0.002,1.18
						c0.052,0.749,0.195,1.413,0.366,1.953C349.928,284.992,350.337,285.57,350.375,285.547z"/>
				</g>
			</g>
		</g>
		<g>
			<g>
				<g>
					<path style="fill:#263238;" d="M350.329,285.303c0.029,0.059,0.564-0.213,1.487-0.438c0.459-0.109,1.017-0.204,1.639-0.224
						c0.31-0.006,0.645-0.015,0.939,0.06c0.3,0.069,0.531,0.255,0.547,0.534c0.021,0.286-0.139,0.565-0.386,0.726
						c-0.247,0.169-0.555,0.248-0.852,0.284c-0.598,0.07-1.153-0.04-1.607-0.16c-0.91-0.263-1.468-0.502-1.493-0.44
						c-0.017,0.041,0.484,0.369,1.408,0.713c0.462,0.161,1.053,0.315,1.731,0.259c0.333-0.03,0.699-0.106,1.034-0.326
						c0.334-0.211,0.605-0.627,0.567-1.087c-0.02-0.494-0.489-0.827-0.855-0.887c-0.384-0.086-0.728-0.062-1.053-0.047
						c-0.653,0.04-1.23,0.17-1.698,0.32C350.8,284.896,350.306,285.265,350.329,285.303z"/>
				</g>
			</g>
		</g>
		<g>
			<g>
				<g>
					<path style="fill:#263238;" d="M335.941,299.081c0.026,0.035,0.385-0.231,0.56-0.887c0.191-0.64,0.072-1.622-0.429-2.483
						c-0.238-0.434-0.513-0.811-0.766-1.142c-0.251-0.333-0.51-0.633-0.777-0.834c-0.265-0.206-0.541-0.299-0.731-0.306
						c-0.191-0.008-0.289,0.039-0.286,0.063c0.001,0.063,0.409,0.032,0.832,0.462c0.216,0.204,0.429,0.491,0.661,0.834
						c0.233,0.34,0.49,0.712,0.713,1.117c0.464,0.808,0.602,1.642,0.503,2.231C336.138,298.729,335.888,299.042,335.941,299.081z"/>
				</g>
			</g>
		</g>
		<g>
			<g>
				<g>
					<path style="fill:#263238;" d="M344.155,292.944c0.106,0.011,0.073-1.151-0.806-2.192c-0.868-1.053-2.006-1.291-2.014-1.186
						c-0.044,0.113,0.925,0.493,1.703,1.444C343.836,291.946,344.037,292.967,344.155,292.944z"/>
				</g>
			</g>
		</g>
		<g>
			<g>
				<g>
					<path style="fill:#263238;" d="M360.57,288.883c-0.021-0.023-0.371,0.234-1.007,0.69c-0.643,0.445-1.589,1.069-2.821,1.729
						c-1.229,0.661-2.749,1.347-4.48,1.995c-1.732,0.646-3.676,1.255-5.73,1.852c-4.117,1.185-7.844,2.268-10.532,3.077
						c-1.289,0.396-2.359,0.725-3.18,0.976c-0.748,0.239-1.158,0.385-1.15,0.411c0.008,0.027,0.433-0.066,1.194-0.259
						c0.828-0.22,1.911-0.507,3.214-0.854c2.711-0.738,6.446-1.777,10.566-2.964c2.06-0.597,4.012-1.221,5.75-1.892
						c1.739-0.672,3.263-1.393,4.487-2.092c1.228-0.699,2.158-1.365,2.777-1.854C360.269,289.201,360.586,288.902,360.57,288.883z"
						/>
				</g>
			</g>
		</g>
		<g>
			<g>
				<g>
					<path style="fill:#263238;" d="M361.418,289.191c0.012-0.046-0.71-0.312-1.939-0.516c-1.208-0.19-3.041-0.289-4.808,0.587
						c-0.876,0.435-1.57,1.095-2.059,1.768c-0.497,0.673-0.826,1.347-1.073,1.916c-0.482,1.146-0.68,1.882-0.636,1.9
						c0.06,0.023,0.355-0.684,0.896-1.779c0.543-1.065,1.402-2.624,3.054-3.443c1.646-0.819,3.395-0.78,4.591-0.665
						C360.656,289.087,361.403,289.254,361.418,289.191z"/>
				</g>
			</g>
		</g>
	</g>
	<g>
		<g>
			<g>
				<path style="fill:#263238;" d="M401.962,243.183c0,0,6.864,2.451,6.893,10.147c0.056,14.743-29.789,30.994-29.789,30.994
					l-39.715-26.314l-2.489-1.008C336.861,257.002,390.474,236.863,401.962,243.183z"/>
			</g>
		</g>
		<g>
			<g>
				<g>
					<path style="fill:#455B65;" d="M359.469,271.301c0.017,0.022,0.384-0.229,1.034-0.701c0.651-0.473,1.58-1.172,2.716-2.052
						c2.274-1.757,5.368-4.248,8.696-7.104c3.328-2.859,6.259-5.541,8.34-7.522c1.041-0.991,1.874-1.803,2.438-2.375
						c0.566-0.57,0.87-0.896,0.851-0.916c-0.02-0.021-0.359,0.267-0.958,0.802c-0.649,0.586-1.499,1.354-2.524,2.279
						c-2.129,1.926-5.085,4.57-8.409,7.426c-3.323,2.852-6.384,5.374-8.61,7.188c-1.07,0.873-1.957,1.598-2.634,2.151
						C359.787,270.985,359.451,271.278,359.469,271.301z"/>
				</g>
			</g>
		</g>
		<g>
			<g>
				<g>
					<path style="fill:#455B65;" d="M390.75,248.693c0.015-0.099-1.757-0.272-3.827,0.347c-2.075,0.604-3.469,1.712-3.402,1.786
						c0.065,0.105,1.514-0.816,3.518-1.397C389.034,248.828,390.752,248.817,390.75,248.693z"/>
				</g>
			</g>
		</g>
		<g>
			<g>
				<g>
					<path style="fill:#455B65;" d="M387.329,246.369c-0.035-0.096-1.309,0.464-2.354,1.771c-1.058,1.298-1.337,2.66-1.235,2.675
						c0.115,0.039,0.55-1.197,1.55-2.421C386.274,247.159,387.393,246.474,387.329,246.369z"/>
				</g>
			</g>
		</g>
		<g>
			<g>
				<g>
					<path style="fill:#263238;" d="M404.146,293.051c0.021-0.046-0.474-0.142-1.023,0.312c-0.541,0.432-1,1.296-1.148,2.305
						c-0.149,1.016,0.077,1.949,0.362,2.542c0.281,0.604,0.591,0.887,0.625,0.857c0.055-0.037-0.163-0.372-0.359-0.964
						c-0.202-0.585-0.364-1.447-0.227-2.379c0.136-0.926,0.516-1.727,0.938-2.149C403.735,293.133,404.154,293.116,404.146,293.051z
						"/>
				</g>
			</g>
		</g>
	</g>
	<g>
		<g>
			<polygon style="fill:#455B65;" points="392.827,219.097 378.682,254.953 317.776,255.946 316.649,252.65 337.994,251.877 
				348.253,220.068 			"/>
		</g>
		<g>
			<path style="fill:#EBEBEB;" d="M364.384,234.62c0.781-0.53,2.227-0.318,2.929,0.313c0.703,0.63,0.931,1.721,0.573,2.595
				c-0.356,0.873-1.257,1.486-2.199,1.537c-1.002,0.054-2.046-0.574-2.327-1.537C363.08,236.565,363.391,235.127,364.384,234.62"/>
		</g>
	</g>
	<g>
		<g>
			<g>
				<path style="fill:#263238;" d="M382.826,286.116c0,0-56.113-36.807-58.41-37.572c-2.298-0.767-7.85-4.404-13.403-2.873
					c-5.553,1.532-10.531,6.511-13.021,13.786c-1.421,4.156-2.094,11.249-2.408,16.568c-0.377,6.359,1.592,12.699,5.751,17.524
					c1.893,2.195,4.228,4.106,6.996,4.968c0.584,0.182,1.191,0.339,1.814,0.474c10.609,2.301,21.512-2.462,27.472-11.535l1.31-1.993
					c0,0,36.707,13.486,37.281,13.295L382.826,286.116z"/>
			</g>
		</g>
		<g>
			<g>
				<g>
					<path style="fill:#455B65;" d="M313.406,275.984c0,0,0.102,0.052,0.308,0.137c0.221,0.088,0.526,0.209,0.918,0.363
						c0.828,0.319,2.023,0.779,3.558,1.371c3.121,1.175,7.623,2.871,13.221,4.979c5.616,2.096,12.343,4.587,19.89,7.333
						c7.548,2.743,15.913,5.755,24.846,8.779l0.161,0.056l0.08-0.152c1.403-2.678,2.883-5.504,4.384-8.372
						c0.766-1.463,1.525-2.914,2.234-4.27l0.087-0.164l-0.156-0.099c-16.849-10.696-31.924-20.266-42.802-27.171
						c-5.433-3.427-9.815-6.192-12.857-8.11c-1.506-0.94-2.68-1.673-3.492-2.18c-0.39-0.238-0.692-0.423-0.911-0.558
						c-0.207-0.123-0.317-0.178-0.317-0.178s0.097,0.077,0.296,0.212c0.214,0.142,0.51,0.338,0.891,0.591
						c0.804,0.521,1.964,1.273,3.453,2.24c3.025,1.944,7.386,4.745,12.789,8.216c10.861,6.933,25.911,16.538,42.732,27.276
						l-0.069-0.263c-0.709,1.354-1.469,2.807-2.235,4.269c-1.5,2.868-2.979,5.694-4.381,8.373l0.241-0.097
						c-8.928-3.017-17.296-6.015-24.852-8.735c-7.542-2.745-14.28-5.197-19.918-7.249c-5.614-2.06-10.132-3.717-13.262-4.865
						c-1.545-0.563-2.749-1-3.582-1.304c-0.398-0.141-0.707-0.25-0.932-0.329C313.517,276.012,313.406,275.984,313.406,275.984z"/>
				</g>
			</g>
		</g>
	</g>
	<g>
		<g>
			<path style="fill:#263238;" d="M319.229,145.28c0.957-2.587,3.071-3.71,5.752-4.358c2.681-0.648,5.662,0.12,7.695,1.983
				c1.36,1.246,2.356,2.967,4.037,3.729c2.766,1.254,6.31-0.579,8.932,0.954c1.553,0.908,2.314,2.973,1.724,4.67
				c-0.591,1.698-2.47,2.844-4.25,2.591c1.803,0.852,2.14,3.564,0.898,5.125c-1.241,1.56-3.536,1.982-5.454,1.439
				c-1.917-0.543-3.511-1.882-4.865-3.344c-1.355-1.462-2.541-3.084-4.008-4.434c-1.468-1.35-3.298-2.437-5.289-2.511
				c-2.697-0.101-5.185,1.712-6.601,4.01c-1.415,2.297-1.944,5.02-2.338,7.689c-0.395,2.67-0.692,5.394-1.721,7.888
				c-0.121,0.293-0.294,0.617-0.604,0.682c-0.448,0.095-0.776-0.402-0.956-0.822c-2.028-4.754-3.11-9.907-3.166-15.075
				c-0.032-3.001,0.305-5.81,2.168-8.163C313.048,144.981,317.347,143.516,319.229,145.28"/>
		</g>
		<g>
			<g>
				<g>
					<g>
						<g>
							<g>
								<g>
									<g>
										<g>
											<g>
												<g>
													<g>
														<g>
															<g>
																<path style="fill:#FBBF9E;" d="M312.902,157.258l-4.125,29.976c-0.702,5.098,3.005,9.745,8.131,10.194l0,0
																	c4.784,0.419,9.055-2.996,9.705-7.754c0.309-2.257,0.569-4.138,0.616-4.368c0,0,7.73,0.332,9.32-7.145
																	c0.769-3.613,1.745-11.185,2.55-18.044c0.864-7.367-4.084-14.16-11.357-15.614l-0.724-0.145
																	C319.13,143.256,313.786,149.34,312.902,157.258z"/>
															</g>
														</g>
													</g>
												</g>
											</g>
										</g>
									</g>
								</g>
								<g>
									<g>
										<g>
											<g>
												<g>
													<g>
														<g>
															<g>
																<path style="fill:#F7996E;" d="M327.264,185.2c0,0-4.814-0.562-9.217-4.729c0,0,1.233,5.855,8.847,6.676
																	L327.264,185.2z"/>
															</g>
														</g>
													</g>
												</g>
											</g>
										</g>
									</g>
								</g>
							</g>
						</g>
					</g>
					<g>
						<g>
							<g>
								<g>
									<g>
										<g>
											<g>
												<g>
													<g>
														<g>
															<g>
																<g>
																	<g>
																		<g>
																			<path style="fill:#263238;" d="M335.913,164.701c-0.093,0.569-0.651,0.96-1.248,0.874
																				c-0.595-0.087-1.004-0.616-0.91-1.186c0.093-0.569,0.65-0.961,1.246-0.875
																				C335.598,163.601,336.006,164.132,335.913,164.701z"/>
																		</g>
																	</g>
																</g>
															</g>
														</g>
													</g>
												</g>
											</g>
											<g>
												<g>
													<g>
														<g>
															<g>
																<g>
																	<g>
																		<g>
																			<g>
																				<path style="fill:#263238;" d="M336.754,163.474c-0.16,0.113-0.851-0.648-2.004-0.876
																					c-1.147-0.243-2.112,0.18-2.208,0.014c-0.05-0.074,0.136-0.299,0.558-0.493
																					c0.416-0.195,1.086-0.331,1.803-0.185c0.717,0.147,1.268,0.532,1.561,0.872
																					C336.763,163.148,336.832,163.425,336.754,163.474z"/>
																			</g>
																		</g>
																	</g>
																</g>
															</g>
														</g>
													</g>
												</g>
											</g>
										</g>
										<g>
											<g>
												<g>
													<g>
														<g>
															<g>
																<g>
																	<g>
																		<g>
																			<path style="fill:#263238;" d="M324.538,162.835c-0.093,0.569-0.652,0.96-1.248,0.874
																				c-0.596-0.087-1.004-0.616-0.911-1.186s0.652-0.961,1.247-0.875
																				C324.223,161.734,324.631,162.266,324.538,162.835z"/>
																		</g>
																	</g>
																</g>
															</g>
														</g>
													</g>
												</g>
											</g>
											<g>
												<g>
													<g>
														<g>
															<g>
																<g>
																	<g>
																		<g>
																			<g>
																				<path style="fill:#263238;" d="M325.389,161.427c-0.16,0.112-0.853-0.649-2.004-0.876
																					c-1.148-0.244-2.112,0.18-2.209,0.014c-0.049-0.075,0.136-0.3,0.559-0.494c0.416-0.194,1.086-0.33,1.803-0.184
																					s1.268,0.532,1.561,0.871C325.396,161.101,325.467,161.377,325.389,161.427z"/>
																			</g>
																		</g>
																	</g>
																</g>
															</g>
														</g>
													</g>
												</g>
											</g>
										</g>
										<g>
											<g>
												<g>
													<g>
														<g>
															<g>
																<g>
																	<g>
																		<g>
																			<path style="fill:#263238;" d="M327.862,170.805c0.008-0.067,0.748-0.048,1.938,0.036
																				c0.3,0.028,0.591,0.025,0.68-0.165c0.111-0.199,0.053-0.541-0.021-0.912c-0.135-0.767-0.275-1.57-0.423-2.413
																				c-0.57-3.43-0.922-6.228-0.783-6.249s0.714,2.741,1.284,6.171c0.134,0.845,0.263,1.649,0.384,2.42
																				c0.044,0.356,0.16,0.774-0.078,1.186c-0.124,0.203-0.372,0.32-0.57,0.332c-0.2,0.021-0.366-0.009-0.514-0.029
																				C328.579,171.01,327.854,170.87,327.862,170.805z"/>
																		</g>
																	</g>
																</g>
															</g>
														</g>
													</g>
												</g>
											</g>
										</g>
										<g>
											<g>
												<g>
													<g>
														<g>
															<g>
																<g>
																	<g>
																		<g>
																			<path style="fill:#263238;" d="M324.313,170.923c0.189,0.027-0.058,1.278,0.835,2.379
																				c0.89,1.104,2.251,1.229,2.227,1.407c0.001,0.081-0.347,0.183-0.912,0.086c-0.555-0.092-1.326-0.43-1.872-1.104
																				c-0.544-0.674-0.68-1.457-0.619-1.978C324.028,171.181,324.229,170.899,324.313,170.923z"/>
																		</g>
																	</g>
																</g>
															</g>
														</g>
													</g>
												</g>
											</g>
										</g>
									</g>
								</g>
							</g>
							<g>
								<g>
									<g>
										<g>
											<g>
												<g>
													<g>
														<g>
															<path style="fill:#263238;" d="M326.589,156.972c-0.177,0.29-1.297-0.088-2.682-0.194
																c-1.382-0.136-2.55,0.042-2.674-0.273c-0.053-0.151,0.196-0.408,0.698-0.623c0.496-0.216,1.251-0.364,2.08-0.292
																c0.829,0.073,1.546,0.351,1.998,0.649C326.466,156.537,326.667,156.833,326.589,156.972z"/>
														</g>
													</g>
												</g>
											</g>
										</g>
									</g>
								</g>
							</g>
							<g>
								<g>
									<g>
										<g>
											<g>
												<g>
													<g>
														<g>
															<path style="fill:#263238;" d="M336.997,160.056c-0.255,0.221-0.994-0.209-1.946-0.413
																c-0.943-0.236-1.797-0.176-1.929-0.486c-0.055-0.149,0.125-0.387,0.527-0.563c0.397-0.177,1.02-0.262,1.671-0.111
																c0.652,0.151,1.173,0.502,1.451,0.837C337.055,159.654,337.111,159.946,336.997,160.056z"/>
														</g>
													</g>
												</g>
											</g>
										</g>
									</g>
								</g>
							</g>
						</g>
					</g>
				</g>
			</g>
		</g>
		<g>
			<g>
				<g>
					<g>
						<g>
							<g>
								<g>
									<g>
										<g>
											<path style="fill:#FBBF9E;" d="M312.405,162.93c-0.117-0.081-4.845-2.552-5.706,2.605
												c-0.86,5.157,4.495,4.957,4.528,4.811C311.261,170.199,312.405,162.93,312.405,162.93z"/>
										</g>
									</g>
								</g>
							</g>
						</g>
					</g>
				</g>
			</g>
			<g>
				<g>
					<g>
						<g>
							<g>
								<g>
									<g>
										<g>
											<g>
												<path style="fill:#F7996E;" d="M309.978,168.129c-0.021-0.021-0.101,0.048-0.264,0.092
													c-0.159,0.043-0.422,0.048-0.673-0.098c-0.512-0.291-0.827-1.232-0.696-2.166c0.064-0.472,0.238-0.902,0.465-1.244
													c0.22-0.352,0.509-0.574,0.791-0.577c0.283-0.018,0.45,0.179,0.489,0.334c0.045,0.156-0.005,0.254,0.021,0.267
													c0.012,0.016,0.125-0.067,0.119-0.287c-0.004-0.106-0.044-0.238-0.149-0.357c-0.106-0.121-0.28-0.202-0.475-0.214
													c-0.401-0.039-0.821,0.268-1.071,0.643c-0.273,0.374-0.478,0.856-0.551,1.386c-0.141,1.045,0.229,2.106,0.939,2.446
													c0.347,0.155,0.667,0.096,0.845,0C309.948,168.252,309.994,168.142,309.978,168.129z"/>
											</g>
										</g>
									</g>
								</g>
							</g>
						</g>
					</g>
				</g>
			</g>
		</g>
		<g>
			<path style="fill:#263238;" d="M340.997,158.878c-3.477,0.219-7.02-1.357-9.184-4.088c-1.515-1.911-2.477-4.414-4.622-5.574
				c-1.443-0.78-3.219-0.79-4.782-0.293c-1.565,0.497-2.944,1.458-4.178,2.538c0.687,4.1-1.136,8.156-2.912,11.914
				c-0.196,0.415-0.421,0.86-0.833,1.063c-0.7,0.345-1.534-0.201-1.953-0.859c-0.669-1.055-0.747-2.371-0.723-3.619
				c0.057-2.844,0.556-5.703,1.711-8.303c1.154-2.599,2.989-4.931,5.391-6.455c3-1.905,6.782-2.449,10.257-1.699
				c3.474,0.75,6.629,2.741,8.991,5.397c1.096,1.232,2.05,2.647,2.422,4.254"/>
		</g>
	</g>
</g>
</svg>
