<?xml version="1.0" encoding="utf-8"?>
<!-- Generator: Adobe Illustrator 16.0.0, SVG Export Plug-In . SVG Version: 6.00 Build 0)  -->
<!DOCTYPE svg PUBLIC "-//W3C//DTD SVG 1.1//EN" "http://www.w3.org/Graphics/SVG/1.1/DTD/svg11.dtd">
<svg version="1.1" id="Layer_1" xmlns="http://www.w3.org/2000/svg" xmlns:xlink="http://www.w3.org/1999/xlink" x="0px" y="0px"
	 width="640px" height="300px" viewBox="0 0 640 300" enable-background="new 0 0 640 300" xml:space="preserve">
<path display="none" fill="#1CB24B" d="M478.043,199.979l-60.417-42.056c-1.711-1.192-1.711-3.955,0-5.147l10.98-7.641
	c1.709-1.188,1.709-3.955,0-5.147l-9.416-6.55c-0.891-0.618-2.021-0.618-2.908,0l-27.777,19.337c-1.711,1.192-1.711,3.955,0,5.147
	l109.655,76.334v-1.739v-18.535V188.41c0-1.018-0.457-1.967-1.22-2.529l-10.454-7.719c-1.818-1.34-4.252,0.104-4.252,2.529v16.716
	C482.234,199.796,479.865,201.249,478.043,199.979"/>
<g>
	<g>
		<path fill="#FFFFFF" d="M471.094,113.784h-0.879c0-0.728-0.592-1.32-1.318-1.32c-0.728,0-1.318,0.593-1.318,1.32h-0.88
			c0-1.213,0.986-2.2,2.198-2.2S471.094,112.571,471.094,113.784z"/>
	</g>
</g>
<g opacity="0.2">
	<polygon fill="#B9CEEB" points="556.5,16.733 556.5,6.543 564.813,11.638 	"/>
	<polygon fill="#B9CEEB" points="573.398,16.733 573.398,6.543 581.712,11.638 	"/>
	<polygon fill="#B9CEEB" points="590.297,16.733 590.297,6.543 598.61,11.638 	"/>
	<polygon fill="#B9CEEB" points="607.195,16.733 607.195,6.543 615.509,11.638 	"/>
	<polygon fill="#B9CEEB" points="624.093,16.733 624.093,6.543 632.406,11.638 	"/>
</g>
<g>
	<g>
		<g>
			<circle fill="#B9CEEB" cx="396.48" cy="162.665" r="16.846"/>
		</g>
	</g>
	<g>
		<g>
			<g>
				<circle fill="#FFFFFF" cx="396.481" cy="162.665" r="12.62"/>
			</g>
		</g>
		<g>
			<g>
				<g>
					<path fill="#415C92" d="M396.481,175.773c-7.229,0-13.109-5.881-13.109-13.108s5.881-13.107,13.109-13.107
						c7.228,0,13.106,5.881,13.106,13.107C409.589,169.895,403.709,175.773,396.481,175.773z M396.481,150.533
						c-6.689,0-12.133,5.441-12.133,12.132s5.442,12.131,12.133,12.131c6.688,0,12.131-5.44,12.131-12.131
						C408.612,155.977,403.17,150.533,396.481,150.533z"/>
				</g>
			</g>
		</g>
	</g>
	<g>
		<g>
			<g>
				<path fill="#415C92" d="M396.481,163.152c-0.271,0-0.489-0.217-0.489-0.487v-6.424c0-0.271,0.22-0.489,0.489-0.489
					c0.269,0,0.487,0.221,0.487,0.489v6.424C396.97,162.936,396.751,163.152,396.481,163.152z"/>
			</g>
		</g>
		<g>
			<g>
				<path fill="#415C92" d="M404.009,163.152h-7.526c-0.271,0-0.489-0.217-0.489-0.487s0.22-0.488,0.489-0.488h7.526
					c0.271,0,0.488,0.22,0.488,0.488C404.497,162.936,404.278,163.152,404.009,163.152z"/>
			</g>
		</g>
	</g>
	<g>
		<g>
			<g>
				<circle fill="#415C92" cx="396.481" cy="151.471" r="0.498"/>
			</g>
		</g>
		<g>
			<g>
				<circle fill="#415C92" cx="404.396" cy="154.75" r="0.498"/>
			</g>
		</g>
		<g>
			<g>
				<circle fill="#415C92" cx="407.677" cy="162.666" r="0.499"/>
			</g>
		</g>
		<g>
			<g>
				<circle fill="#415C92" cx="404.396" cy="170.582" r="0.498"/>
			</g>
		</g>
		<g>
			<g>
				<circle fill="#415C92" cx="396.481" cy="173.859" r="0.498"/>
			</g>
		</g>
		<g>
			<g>
				<circle fill="#415C92" cx="388.565" cy="170.582" r="0.498"/>
			</g>
		</g>
		<g>
			<g>
				<circle fill="#415C92" cx="385.286" cy="162.666" r="0.499"/>
			</g>
		</g>
		<g>
			<g>
				<circle fill="#415C92" cx="388.565" cy="154.75" r="0.498"/>
			</g>
		</g>
	</g>
	<g>
		<g>
			<g>
				<path fill="#415C92" d="M421.123,156.232h-7.072c-0.27,0-0.489-0.219-0.489-0.487c0-0.271,0.221-0.488,0.489-0.488h7.072
					c0.271,0,0.489,0.218,0.489,0.488S421.394,156.232,421.123,156.232z"/>
			</g>
		</g>
		<g>
			<g>
				<path fill="#415C92" d="M421.123,170.075h-7.072c-0.27,0-0.489-0.22-0.489-0.488s0.221-0.487,0.489-0.487h7.072
					c0.271,0,0.489,0.219,0.489,0.487S421.394,170.075,421.123,170.075z"/>
			</g>
		</g>
		<g>
			<g>
				<path fill="#415C92" d="M429.917,163.155h-13.213c-0.271,0-0.487-0.218-0.487-0.488s0.218-0.487,0.487-0.487h13.213
					c0.27,0,0.487,0.219,0.487,0.487C430.404,162.938,430.188,163.155,429.917,163.155z"/>
			</g>
		</g>
	</g>
</g>
<g id="XMLID_163_">
	<g id="XMLID_329_" opacity="0.1">
		<path id="XMLID_110_" fill="#B9CEEB" d="M479.993,301.135c47.12-35.828,68.104-135.181-8.404-183.898
			c-50.65-32.247-82.155-13.851-139.14-35.184c-69.564-26.037-79.933-104.7-164.549-65.994
			c-44.829,20.5-75.905,78.277-81.372,143.942c-5.358,64.308,17.434,108.431,64.008,138.623
			C259.908,303.277,369.498,302.436,479.993,301.135z"/>
	</g>
	<g id="XMLID_162_">
		<g id="XMLID_160_">
			<g id="XMLID_34_">
				<g id="XMLID_35_">
					<path id="XMLID_36_" fill="#1196D4" d="M297.162,134.971v-15.505c0-4.231,3.429-7.662,7.662-7.662h48.85
						c4.232,0,7.661,3.43,7.661,7.662v15.505c0,4.231-3.429,7.662-7.661,7.662h-48.841
						C300.6,142.641,297.162,139.202,297.162,134.971z"/>
					<polyline id="XMLID_37_" fill="#1196D4" points="317.793,134.159 294.152,157.189 332.469,137.825 					"/>
				</g>
				<g id="XMLID_38_">
					<path id="XMLID_39_" fill="#FFFFFF" d="M303.09,119.082V119c0-0.629,0.511-1.14,1.14-1.14h24.152
						c0.629,0,1.142,0.511,1.142,1.14v0.082c0,0.629-0.513,1.14-1.142,1.14H304.23C303.601,120.222,303.09,119.711,303.09,119.082z"
						/>
					<path id="XMLID_40_" fill="#FFFFFF" d="M330.607,119.082V119c0-0.629,0.51-1.14,1.14-1.14h21.079c0.628,0,1.14,0.511,1.14,1.14
						v0.082c0,0.629-0.512,1.14-1.14,1.14h-21.079C331.117,120.222,330.607,119.711,330.607,119.082z"/>
					<path id="XMLID_41_" fill="#FFFFFF" d="M321.404,124.272v-0.082c0-0.629,0.511-1.14,1.141-1.14h30.281
						c0.628,0,1.14,0.511,1.14,1.14v0.082c0,0.628-0.512,1.14-1.14,1.14h-30.281C321.915,125.413,321.404,124.901,321.404,124.272z"
						/>
					<path id="XMLID_42_" fill="#FFFFFF" d="M303.09,124.272v-0.082c0-0.629,0.511-1.14,1.14-1.14h13.527
						c0.628,0,1.141,0.511,1.141,1.14v0.082c0,0.628-0.513,1.14-1.141,1.14H304.23C303.601,125.413,303.09,124.901,303.09,124.272z"
						/>
					<path id="XMLID_43_" fill="#FFFFFF" d="M325.609,129.462v-0.083c0-0.628,0.512-1.14,1.141-1.14h26.076
						c0.628,0,1.14,0.512,1.14,1.14v0.083c0,0.629-0.512,1.14-1.14,1.14H326.75C326.121,130.602,325.609,130.091,325.609,129.462z"
						/>
					<path id="XMLID_44_" fill="#FFFFFF" d="M303.09,129.462v-0.083c0-0.628,0.511-1.14,1.14-1.14h18.014
						c0.63,0,1.141,0.512,1.141,1.14v0.083c0,0.629-0.511,1.14-1.141,1.14H304.23C303.601,130.602,303.09,130.091,303.09,129.462z"
						/>
					<path id="XMLID_45_" fill="#FFFFFF" d="M303.09,134.652v-0.083c0-0.629,0.511-1.14,1.14-1.14h6.686
						c0.629,0,1.14,0.511,1.14,1.14v0.083c0,0.629-0.511,1.14-1.14,1.14h-6.686C303.601,135.792,303.09,135.281,303.09,134.652z"/>
					<path id="XMLID_46_" fill="#FFFFFF" d="M314.418,134.652v-0.083c0-0.629,0.51-1.14,1.139-1.14h37.27
						c0.628,0,1.14,0.511,1.14,1.14v0.083c0,0.629-0.512,1.14-1.14,1.14h-37.27C314.928,135.792,314.418,135.281,314.418,134.652z"
						/>
				</g>
			</g>
		</g>
		<g id="XMLID_161_">
			<g id="XMLID_231_" opacity="0.2">
				<g id="XMLID_5_">
					<g id="XMLID_6_">
						<path id="XMLID_108_" fill="#A3C7E9" d="M312.661,237.568c-1.883-29.037,10.821-59.092,32.222-76.284
							C345.546,190.47,332.968,220.006,312.661,237.568z"/>
						<path id="XMLID_107_" fill="none" stroke="#6F8BBF" stroke-linecap="round" stroke-miterlimit="10" d="M341.389,169.1
							c-9.017,16.805-16.813,34.387-23.292,52.525c-7.875,22.023-14.071,45.423-27.556,63.885"/>
					</g>
					<g id="XMLID_7_">
						<path id="XMLID_106_" fill="#A3C7E9" d="M305.909,255.837c10.831-24.229,32.328-42.534,56.028-47.716
							C351.849,234.087,329.152,253.895,305.909,255.837z"/>
						<path id="XMLID_105_" fill="none" stroke="#6F8BBF" stroke-linecap="round" stroke-miterlimit="10" d="M356.122,213.458
							c-16.188,14.247-32.649,28.094-49.384,41.528"/>
					</g>
					<g id="XMLID_8_">
						<path id="XMLID_104_" fill="#A3C7E9" d="M299.518,276.941c14.47-21.612,41.167-32.893,63.259-26.727
							C346.53,271.557,319.775,282.865,299.518,276.941z"/>
						<path id="XMLID_103_" fill="none" stroke="#6F8BBF" stroke-linecap="round" stroke-miterlimit="10" d="M357.479,251.777
							c-18.968,11.865-39.431,20.627-60.526,25.896"/>
					</g>
					<g id="XMLID_9_">
						<path id="XMLID_102_" fill="#A3C7E9" d="M307.333,248.489c4.625-24.337-2.313-51.464-17.759-69.407
							C283.242,202.998,289.282,231.021,307.333,248.489z"/>
						<path id="XMLID_101_" fill="none" stroke="#6F8BBF" stroke-linecap="round" stroke-miterlimit="10" d="M291.165,185.287
							c3.044,22.638,8.459,43.843,16.852,64.566"/>
					</g>
					<g id="XMLID_10_">
						<path id="XMLID_100_" fill="#A3C7E9" d="M299.391,269.215c-1.971-25.02-14.793-48.517-33.548-61.484
							c1.083,13.252,4.606,26.023,10.197,37.638C282.471,258.705,291.916,267.165,299.391,269.215z"/>
						<path id="XMLID_99_" fill="none" stroke="#6F8BBF" stroke-linecap="round" stroke-miterlimit="10" d="M268.625,212.795
							c7.377,20.861,17.993,40.202,31.234,56.947"/>
					</g>
				</g>
				<g id="XMLID_11_">
					<g id="XMLID_12_">
						<path id="XMLID_98_" fill="#A3C7E9" d="M444.226,263.214c10.236-26.63,33.781-48.231,59.747-54.812
							C492.596,234.672,469.371,255.848,444.226,263.214z"/>
						<path id="XMLID_97_" fill="none" stroke="#6F8BBF" stroke-linecap="round" stroke-miterlimit="10" d="M497.679,213.938
							c-14.852,11.289-28.962,23.771-42.113,37.285c-15.983,16.411-31.061,34.717-50.546,45.666"/>
					</g>
					<g id="XMLID_13_">
						<path id="XMLID_96_" fill="#A3C7E9" d="M430.77,276.729c19.507-17.164,46.01-24.696,69.075-19.644
							C480.291,276.104,452.11,284.484,430.77,276.729z"/>
						<path id="XMLID_95_" fill="none" stroke="#6F8BBF" stroke-linecap="round" stroke-miterlimit="10" d="M492.518,259.477
							c-20.149,6.09-40.379,11.699-60.675,16.842"/>
					</g>
					<g id="XMLID_14_">
						<path id="XMLID_94_" fill="#A3C7E9" d="M416.465,292.926c21.653-13.348,49.872-12.5,66.87,2.01
							C460.229,307.311,431.94,306.461,416.465,292.926z"/>
						<path id="XMLID_93_" fill="none" stroke="#6F8BBF" stroke-linecap="round" stroke-miterlimit="10" d="M478.017,294.154
							c-21.624,2.83-43.313,2.283-64.107-1.629"/>
					</g>
					<g id="XMLID_15_">
						<path id="XMLID_92_" fill="#A3C7E9" d="M435.044,270.768c14.062-19.791,19.047-46.789,12.753-69.076
							C432.39,220.404,426.242,247.835,435.044,270.768z"/>
						<path id="XMLID_91_" fill="none" stroke="#6F8BBF" stroke-linecap="round" stroke-miterlimit="10" d="M446.655,207.857
							c-6.597,21.408-10.489,42.506-11.563,64.401"/>
					</g>
					<g id="XMLID_16_">
						<path id="XMLID_90_" fill="#A3C7E9" d="M419.529,285.988c8.508-23.088,6.811-49.258-4.451-68.461
							c-4.468,12.246-6.596,25.058-6.41,37.685C408.873,269.712,413.752,281.109,419.529,285.988z"/>
						<path id="XMLID_89_" fill="none" stroke="#6F8BBF" stroke-linecap="round" stroke-miterlimit="10" d="M415.449,223.167
							c-2.029,21.594-0.575,43.16,4.265,63.476"/>
					</g>
				</g>
			</g>
			<g id="XMLID_4_">
				<g id="XMLID_47_">
					<path id="XMLID_65_" fill="#E06A58" d="M284.051,242.039c0,0,2.137,19.584,4.528,21.154c4.274,2.82,53.747,9.338,53.747,9.338
						l-1.621,12.871c0,0-67.758,6.089-70.637,2.703c-4.996-5.875-13.778-34.211-13.778-34.211L284.051,242.039z"/>
					<path id="XMLID_64_" fill="#B9CEEB" d="M251.383,191.62l5.474-13.144c0,0,14.851,6.978,19.75,15.592
						c5.239,9.213,11.651,58.188,11.651,58.188s-26.22,6.04-31.04,3.473C252.397,253.163,251.383,191.62,251.383,191.62z"/>
				</g>
				<path id="XMLID_63_" fill="#0B223F" d="M209.688,130.615c-3.835-1.406-7.895-2.635-12.002-2.323
					c-4.107,0.313-8.304,2.489-9.699,6.099c-0.996,2.558-0.537,5.573-2.107,7.875c-1.503,2.205-4.489,3.123-7.28,3.309
					c-2.8,0.195-5.62-0.176-8.401,0.185c-8.587,1.142-14.715,10.473-11.895,18.111c1.122,3.043,3.425,5.951,2.898,9.123
					c-0.556,3.396-4.118,5.63-5.582,8.781c-1.942,4.195,0.381,9.279,4.215,12.14c3.835,2.851,8.821,3.933,13.661,4.653
					c6.665,0.996,13.544,1.464,20.13,0.059c6.587-1.404,12.88-4.878,16.286-10.304c1.512-2.4,2.429-5.113,4.186-7.367
					c3.629-4.655,10.06-6.459,15.125-9.757c5.533-3.62,9.592-10.666,6.333-16.18c-3.142-5.297-11.319-6.479-14.597-11.7
					c-1.357-2.156-1.678-4.723-2.557-7.074C217.503,133.884,215.357,132.693,209.688,130.615z"/>
				<g id="XMLID_48_">
					<path id="XMLID_62_" fill="#F8A07B" d="M232.033,195.611c0.966,1.113,2.108,2.332,3.688,2.438
						c1.668,0.117,3.063-1.063,4.137-2.205c5.542-5.864,9.201-13.065,10.685-20.491c-1.376-0.779-2.703-1.533-3.903-2.234
						c-1.112-0.662-1.952-1.592-2.429-2.674c-0.332-0.799-0.449-1.639-0.362-2.519c0.781-7.337,1.474-11.426,4.05-18.871
						c-12.236-2.76-23.78-6.04-30.415-11.582c-0.81,3.415-1.767,10.1-3.806,16.725c-2.176,7.016-5.572,13.953-11.329,16.939
						C213.649,177.813,223.729,186.107,232.033,195.611z"/>
					<path id="XMLID_61_" fill="#E06A58" d="M243.849,167.939c-0.087,0.877,0.03,1.726,0.362,2.518
						c-7.241,8.781-23.429-2.693-30.533-16.248c2.039-6.625,2.996-13.31,3.806-16.725c6.625,5.543,18.179,8.832,30.415,11.583
						C245.323,156.514,244.63,160.591,243.849,167.939z"/>
				</g>
				<g id="XMLID_49_">
					<path id="XMLID_60_" fill="#82C7E9" d="M264.009,274.104c-1.601,10.598,9.835,22.004,10.119,27.664
						c-24.287,0-75.164,1.482-101.071-2.039c-1.181-6.539,11.612-21.244,11.612-35.764c0-1.923-0.078-4.029-0.234-6.294
						c-0.41-6.479-1.366-14.188-2.43-22.092c-2.888-21.203-6.732-43.881-3.894-48.584c5.563-9.162,18.569-15.388,25.02-18.062
						c2.215-0.916,3.659-1.416,3.766-1.474c8.089,13.796,24.551,25.565,30.767,25.038c1.727-0.139,6.85-1.923,10.236-18.969
						c1.317,0.751,2.635,1.443,3.942,2.117c6.431,3.347,12.461,6.107,14.198,10.41c4.585,11.329,9.084,39.891,8.089,50.049
						c-1.005,10.244-5.123,18.071-8.011,28.354c-0.674,2.41-1.288,4.967-1.786,7.72
						C264.204,272.796,264.106,273.439,264.009,274.104z"/>
					<path id="XMLID_59_" fill="#FDBA33" d="M274.128,301.768c-24.287,0-75.164,1.482-101.071-2.039
						c-1.181-6.539,11.612-21.244,11.612-35.764c0-1.923-0.078-4.029-0.234-6.294c-0.41-6.479-1.366-14.188-2.43-22.092
						c4.596,4.851,11.3-15.642,14.266-9.642c16.051,32.396,28.708,40.916,50.702,40.916c6.557,0,12.607-0.908,19.145-2.393
						c-0.674,2.41-1.288,4.967-1.786,7.721c-0.117,0.623-0.225,1.268-0.321,1.93C262.408,284.689,273.845,296.098,274.128,301.768z"
						/>
					<path id="XMLID_58_" fill="#FCE172" d="M251.841,175.646c-1.044,7.582-4.137,17.799-13.134,20.49
						c-12.159,3.641-29.751-19.076-35.577-27.203c2.215-0.916,3.659-1.416,3.766-1.474c8.089,13.796,24.551,25.565,30.767,25.038
						c1.727-0.139,6.85-1.923,10.236-18.969C249.216,174.271,250.534,174.963,251.841,175.646z"/>
				</g>
				<g id="XMLID_50_">
					<g id="XMLID_51_">
						<g id="XMLID_52_">
							<polygon id="XMLID_57_" fill="#335F73" points="256.837,290.359 256.75,298.818 407.995,299.717 408.308,290.125 							"/>
						</g>
						<g id="XMLID_53_">
							<polygon id="XMLID_56_" fill="#335F73" points="473.547,214.883 470.182,211.468 360.016,210.747 304.747,290.671 
								307.635,292.995 							"/>
							<polygon id="XMLID_55_" fill="#102D4F" points="362.144,213.702 307.635,292.995 411.752,293.512 473.547,214.883 							"/>
						</g>
					</g>
					<ellipse id="XMLID_54_" fill="#3D748C" cx="388.449" cy="258.256" rx="12.12" ry="6.061"/>
				</g>
				<g id="XMLID_114_">
					<g id="XMLID_115_">
						
							<ellipse id="XMLID_116_" transform="matrix(-0.1832 0.9831 -0.9831 -0.1832 454.6919 -102.8409)" fill="#60C2EE" cx="270.07" cy="137.474" rx="16.969" ry="11.193"/>
					</g>
					<path id="XMLID_117_" fill="#102D4F" d="M281.095,110.612c-1.131,8.021-4.713,16.86-9.933,26.628
						c-1.835-8-3.005-17.749-4.625-27.497c-1.649-9.767-3.747-19.535-7.387-27.517c-0.82-1.766-1.708-3.455-2.674-5.016
						c2.156-0.205,4.343,0,6.421,0.576c3.25,0.869,6.294,2.547,8.782,4.792c4.138,3.678,6.909,8.694,8.558,13.983
						C281.593,100.951,281.836,105.616,281.095,110.612z"/>
					<g id="XMLID_118_">
						<path id="XMLID_119_" fill="#F8A07B" d="M274.967,118.906c-0.059,1.58-0.166,3.19-0.313,4.791
							c-2.225,25.956-13.124,43.764-29.8,43.764c-23.546,0-38.807-26.406-38.807-52.273c0-25.517,15.632-43.987,33.928-41.851
							c10.547,1.209,18.256,4.713,23.73,9.845c3.621,3.415,6.236,7.542,8.021,12.236c2.04,5.26,3.024,11.212,3.229,17.623
							c0,0.019,0.02,0.038,0.02,0.058C275.055,114.993,275.035,116.925,274.967,118.906z"/>
						<path id="XMLID_120_" fill="#E06A58" d="M274.967,118.906c-0.703-2.508-1.747-4.958-3.171-7.153
							c-13.886,7.259-30.435,10.06-46.125,7.406c-2.985,2.488-5.903,4.938-8.84,7.387c0.059-11.808,0.225-19.799,4.83-25.517
							c4.323-5.367,11.534-7.387,18.364-8.266c7.689-1.004,15.506-0.965,23.175,0.146c2.937,0.41,5.981,1.045,8.538,2.527
							c2.04,5.26,3.025,11.212,3.23,17.623c0,0.019,0.02,0.039,0.02,0.059C275.055,114.993,275.035,116.925,274.967,118.906z"/>
					</g>
					<path id="XMLID_121_" fill="#102D4F" d="M278.363,102.922c-3.23,2.733-7.279,4.997-11.827,6.83
						c-12.938,5.221-29.751,6.949-42.856,6.314c-6.44,14.149-9.045,19.222-10.694,31.566c-6.294-5.903-11.417-16.715-12.939-25.214
						c-1.502-8.469-1.356-17.359,1.005-25.683c3.718-13.124,13.095-20.149,19.594-23.564c1.62-0.888,3.083-1.502,4.215-1.951
						c8.305-3.211,17.662-2.918,26.18-0.313c4.645,1.444,8.558,3.883,11.846,6.889c6.646,6.001,10.753,14.13,13.407,20.219
						C277.133,99.878,277.807,101.566,278.363,102.922z"/>
					<path id="XMLID_122_" fill="#225570" d="M281.095,110.612c-0.537-2.84-1.336-5.591-2.469-8.246
						c-0.634-1.503-1.415-2.957-2.322-4.361c-2.957-4.645-7.26-8.471-12.461-10.158c-1.483-2.079-3.044-3.953-4.684-5.611
						c-5.903-6.001-12.831-9.436-20.169-10.636c-6.108-0.985-12.461-0.429-18.325,1.561c1.62-0.888,3.083-1.501,4.215-1.951
						c8.305-3.21,17.662-2.917,26.18-0.313c4.645,1.444,8.558,3.883,11.846,6.889c3.25,0.869,6.293,2.547,8.782,4.792
						c4.137,3.678,6.908,8.694,8.558,13.983C281.593,100.951,281.836,105.616,281.095,110.612z"/>
					<g id="XMLID_123_">
						<g id="XMLID_124_">
							<path id="XMLID_125_" fill="none" stroke="#102D4F" stroke-width="2" stroke-linecap="round" stroke-miterlimit="10" d="
								M231.184,126.526c4.352-2.488,8.87-3.611,15.203-1.298"/>
							<path id="XMLID_126_" fill="none" stroke="#102D4F" stroke-width="2" stroke-linecap="round" stroke-miterlimit="10" d="
								M260.984,126.351c3.727-2.782,9.25-3.064,12.129,0"/>
							<path id="XMLID_127_" fill="none" stroke="#CC464E" stroke-width="2" stroke-linecap="round" stroke-miterlimit="10" d="
								M256.485,140.539c0.381,1.971,0.176,6.332-0.761,8.294"/>
							<ellipse id="XMLID_128_" fill="#262D40" cx="241.78" cy="139.036" rx="1.796" ry="2.83"/>
							<ellipse id="XMLID_129_" fill="#262D40" cx="265.249" cy="137.719" rx="1.795" ry="2.83"/>
						</g>
						<g id="XMLID_130_">
							<path id="XMLID_131_" fill="#CC464E" d="M254.261,152.688c0,0-0.351,0.683-1.024,1.609c-1.054,1.416-2.849,3.366-5.298,4.129
								h-0.01c-1.035,0.331-2.156,0.448-3.406,0.225c-3.669-0.654-4.635-4.041-4.811-6.646c-0.039-0.508-0.039-0.975-0.029-1.404
								c0.02-1.055,0.137-1.757,0.137-1.757C245.664,152.063,254.261,152.688,254.261,152.688z"/>
							<path id="XMLID_132_" fill="#FFFFFF" d="M254.261,152.688c0,0-0.351,0.683-1.024,1.609c-2.986-0.039-9.094-1.57-13.554-3.697
								c0.02-1.055,0.137-1.757,0.137-1.757C245.664,152.063,254.261,152.688,254.261,152.688z"/>
							<path id="XMLID_133_" fill="#E8719B" d="M247.928,158.414c-1.035,0.333-2.156,0.449-3.406,0.225
								c-3.669-0.652-4.635-4.039-4.811-6.645c1.776,0.215,3.493,0.898,4.918,1.98C246.123,155.116,247.264,156.668,247.928,158.414
								z"/>
						</g>
					</g>
					<g id="XMLID_134_">
						<path id="XMLID_135_" fill="#4C82C3" d="M213.044,122.047c0,0-0.205-12.167,4.86-24.258
							c6.352-15.173,19.3-21.662,31.858-22.102c15.135-0.536,24.61,9.623,24.61,9.623s-4.928-8.694-14.646-11.193
							c-6.382-1.639-16.013-1.903-23.741,1.239c-7.962,3.23-17.886,12.197-21.477,21.673c-3.581,9.474-5.328,24.229-5.328,24.229
							L213.044,122.047z"/>
						<g id="XMLID_136_">
							
								<ellipse id="XMLID_137_" transform="matrix(-0.9946 0.1034 -0.1034 -0.9946 434.8066 249.3756)" fill="#60C2EE" cx="210.939" cy="135.958" rx="11.795" ry="17.874"/>
							
								<ellipse id="XMLID_138_" transform="matrix(-0.9889 0.1486 -0.1486 -0.9889 433.697 242.0893)" fill="#4C82C3" cx="207.805" cy="137.245" rx="7.66" ry="13.476"/>
						</g>
						<g id="XMLID_139_">
							<ellipse id="XMLID_140_" fill="#3B92C9" cx="249.86" cy="163.908" rx="6.284" ry="3.913"/>
							<path id="XMLID_141_" fill="none" stroke="#3B92C9" stroke-width="2" stroke-linecap="round" stroke-miterlimit="10" d="
								M218.294,150.824c0,0,9.23,11.865,25.282,13.085"/>
						</g>
					</g>
				</g>
				<g id="XMLID_142_">
					<g id="XMLID_143_">
						<g id="XMLID_144_">
							<g id="XMLID_145_">
								<path id="XMLID_146_" fill="#F8A07B" d="M256.75,267.771l-0.605,15.603c0,0-56.429,16.91-65.748,11.563
									c-4.547-2.615-8.792-16.998-11.963-31.039c-3.318-14.754-5.445-29.116-5.445-29.116l33.08-6.48c0,0,0.02,20.169,1.142,31.83
									c0.399,4.343,0.976,7.504,1.747,8.021C211.873,270.073,256.75,267.771,256.75,267.771z"/>
								<path id="XMLID_147_" fill="#E06A58" d="M207.209,260.111c-6.011,1.951-17.613,4.966-28.776,3.775
									c-3.318-14.755-5.445-29.119-5.445-29.119l33.08-6.479C206.067,228.279,206.087,248.45,207.209,260.111z"/>
							</g>
							<g id="XMLID_148_">
								<path id="XMLID_149_" fill="#F8A07B" d="M255.14,267.927c8.391-1.796,22.598-6.108,28.492-7.592
									c4.186-1.056,15.085,4.586,17.964,9.903c1.259,2.322,2.449,15.476-1.913,14.119c-2.186-0.684-1.825-6.321-2.508-8.625
									c-0.556-1.873-2.332-3.688-5.035-5.25c1.805,4.498,1.737,8.42,1.542,13.281c-0.039,1.072-0.107,2.193-0.625,3.121
									c-0.527,0.928-1.659,1.59-2.635,1.182c-0.996-0.41-1.337-1.649-1.562-2.732c-0.771-3.746-1.551-7.493-1.863-11.729
									c0.078,4.166-0.01,8.344-0.273,12.5c-0.195,3.181-1.776,4.927-3.718,4.371c-0.868-0.244-1.22-1.045-1.591-2.099
									c-0.585,2.039-2.049,4.293-3.942,3.435c-1.151-0.517-1.863-4.672-1.658-8.947c-3.63,2.254-7.729,3.21-12.452,3.426
									c-4.235,0.193-8.567-0.596-11.114-3.475C252.504,278.318,253.988,271.664,255.14,267.927z"/>
								<path id="XMLID_150_" fill="none" stroke="#CC464E" stroke-linecap="round" stroke-miterlimit="10" d="M281.504,287.734
									c0.283-3.377-0.01-6.801-0.868-10.061"/>
							</g>
						</g>
						<path id="XMLID_151_" fill="#B9CEEB" d="M202.35,195.572c-2.4-6.762-11.192-20.598-11.192-20.598s-13.417,5.58-18.179,15.056
							c-8.06,16.042-3.961,62.098-3.961,62.098c10.86,4.548,32.659,4.616,41.938,3.31
							C210.956,255.438,207.16,209.087,202.35,195.572z"/>
					</g>
					<path id="XMLID_152_" fill="none" stroke="#14A800" stroke-linecap="round" stroke-miterlimit="10" d="M204.058,198.402
						c3.659,17.515,5.62,33.85,6.245,49.853"/>
				</g>
			</g>
			<g>
				<path opacity="0.2" fill="#D0EBE6" d="M639.734,300.587H0.266c-0.919,0-1.665-0.745-1.665-1.665
					c0-0.921,0.746-1.665,1.665-1.665h639.469c0.921,0,1.665,0.744,1.665,1.665C641.399,299.842,640.655,300.587,639.734,300.587z"
					/>
			</g>
		</g>
	</g>
</g>
</svg>
