<?xml version="1.0" encoding="utf-8"?>
<!-- Generator: Adobe Illustrator 16.0.0, SVG Export Plug-In . SVG Version: 6.00 Build 0)  -->
<!DOCTYPE svg PUBLIC "-//W3C//DTD SVG 1.1//EN" "http://www.w3.org/Graphics/SVG/1.1/DTD/svg11.dtd">
<svg version="1.1" id="Layer_1" xmlns="http://www.w3.org/2000/svg" xmlns:xlink="http://www.w3.org/1999/xlink" x="0px" y="0px"
	 width="640px" height="300px" viewBox="0 0 640 300" enable-background="new 0 0 640 300" xml:space="preserve">
<g opacity="0.2">
	<g>
		<circle fill="#52909D" cx="363.646" cy="162.819" r="1.265"/>
		<circle fill="#52909D" cx="374.871" cy="110.486" r="2.688"/>
		<circle fill="#52909D" cx="401.408" cy="116.652" r="2.846"/>
		<circle fill="#52909D" cx="334.555" cy="189.381" r="0.949"/>
		<circle fill="#52909D" cx="316.215" cy="269.064" r="2.846"/>
		<circle fill="#52909D" cx="498.01" cy="87.72" r="3.32"/>
		<circle fill="#52909D" cx="482.199" cy="46.613" r="3.004"/>
	</g>
	<g>
		<circle fill="none" stroke="#52909D" stroke-miterlimit="10" cx="628.354" cy="200.488" r="0.646"/>
		<circle fill="none" stroke="#52909D" stroke-miterlimit="10" cx="510.686" cy="299.537" r="2.198"/>
		<circle fill="none" stroke="#52909D" stroke-miterlimit="10" cx="315.063" cy="288.287" r="2.586"/>
		<circle fill="none" stroke="#52909D" stroke-miterlimit="10" cx="334.201" cy="160.79" r="3.879"/>
		<circle fill="none" stroke="#52909D" stroke-miterlimit="10" cx="355.019" cy="126.525" r="1.94"/>
		<circle fill="none" stroke="#52909D" stroke-miterlimit="10" cx="409.955" cy="89.673" r="5.431"/>
		<circle fill="none" stroke="#52909D" stroke-miterlimit="10" cx="444.609" cy="43.64" r="1.552"/>
		<circle fill="none" stroke="#52909D" stroke-miterlimit="10" cx="366.509" cy="50.623" r="3.104"/>
		<circle fill="none" stroke="#52909D" stroke-miterlimit="10" cx="556.588" cy="36.14" r="2.586"/>
		<circle fill="none" stroke="#52909D" stroke-miterlimit="10" cx="389.244" cy="11.456" r="3.867"/>
		<circle fill="none" stroke="#52909D" stroke-miterlimit="10" cx="335.728" cy="60.586" r="3.412"/>
	</g>
</g>
<g>
	<g>
		<g>
			<path fill="#7CC46A" d="M607.247,285.846c-0.901-2.947-2.966-5.701-5.896-6.646c-2.933-0.945-6.651,0.487-7.563,3.426
				c-2.697-2.251-6.83-0.466-8.998,2.302c-3.505,4.473-0.798,11.797-0.212,12.274c0.632,0.512,2.346,0.424,2.346,0.424l26.229-0.146
				c0,0,4.811-0.354,7.031-1.237c4.471-1.779,7.51-9.472,4.632-13.326c-1.958-2.631-5.827-3.187-8.953-2.188
				C612.738,281.725,609.709,283.68,607.247,285.846"/>
		</g>
		<g>
			<path fill="#51AA50" d="M586.547,298.502c-0.664,0-1.85-0.09-2.517-0.631c-1.028-0.834-3.643-8.729,0.077-13.479
				c1.566-1.996,3.911-3.383,6.126-3.617c1.155-0.131,2.231,0.072,3.173,0.563c0.563-1.012,1.455-1.862,2.588-2.45
				c1.725-0.898,3.828-1.095,5.625-0.513c2.604,0.838,4.792,3.044,6.021,6.006c2.555-2.071,5.345-3.646,7.958-4.479
				c3.131-1,7.569-0.646,9.91,2.494c1.35,1.813,1.661,4.485,0.856,7.342c-0.964,3.404-3.264,6.275-5.861,7.311
				c-2.318,0.926-7.09,1.28-7.292,1.297l-26.284,0.147C586.841,298.495,586.71,298.502,586.547,298.502z M590.905,282.473
				c-0.16,0-0.325,0.006-0.492,0.025c-1.735,0.184-3.677,1.347-4.943,2.965c-3.077,3.928-0.777,10.479-0.273,11.137
				c0.115,0.086,0.98,0.203,1.679,0.16l26.271-0.146c-0.013,0,4.647-0.352,6.719-1.174c2.082-0.828,4.024-3.312,4.836-6.172
				c0.658-2.332,0.446-4.459-0.576-5.832c-1.833-2.463-5.433-2.703-7.995-1.884c-2.727,0.872-5.679,2.628-8.307,4.943
				c-0.22,0.194-0.525,0.266-0.809,0.188c-0.281-0.084-0.506-0.303-0.594-0.582c-0.923-3.026-2.919-5.299-5.332-6.078
				c-1.36-0.438-2.97-0.285-4.294,0.401c-1.089,0.565-1.86,1.437-2.177,2.458c-0.087,0.279-0.306,0.494-0.583,0.574
				c-0.273,0.083-0.575,0.02-0.8-0.164C592.581,282.746,591.797,282.473,590.905,282.473z"/>
		</g>
	</g>
	<g>
		<g>
			<g>
				<path fill="#51AA50" d="M579.665,284.854c-0.751,1.459-1.074,3.047-0.896,4.681c0.09,0.823,1.39,0.831,1.301,0
					c-0.155-1.411,0.064-2.761,0.715-4.024C581.167,284.766,580.045,284.107,579.665,284.854L579.665,284.854z"/>
			</g>
		</g>
	</g>
	<g>
		<g>
			<g>
				<path fill="#51AA50" d="M575.873,285.896c-0.408,1.465-0.438,2.935-0.111,4.422c0.18,0.82,1.433,0.474,1.253-0.342
					c-0.275-1.264-0.232-2.492,0.111-3.734C577.351,285.43,576.098,285.088,575.873,285.896L575.873,285.896z"/>
			</g>
		</g>
	</g>
	<g>
		<g>
			<g>
				<path fill="#51AA50" d="M583.16,283.258c0.835,0,0.838-1.297,0-1.297C582.326,281.961,582.323,283.258,583.16,283.258
					L583.16,283.258z"/>
			</g>
		</g>
	</g>
	<g>
		<g>
			<g>
				<path fill="#51AA50" d="M586.841,289.536c0,0.386,0,0.771,0,1.155c0,0.836,1.3,0.836,1.3,0c0-0.387,0-0.771,0-1.155
					C588.141,288.699,586.841,288.699,586.841,289.536L586.841,289.536z"/>
			</g>
		</g>
	</g>
	<g>
		<g>
			<g>
				<path fill="#51AA50" d="M608.78,291.559c0,0.192,0,0.385,0,0.576c0,0.834,1.298,0.838,1.298,0c0-0.191,0-0.387,0-0.576
					C610.078,290.723,608.78,290.719,608.78,291.559L608.78,291.559z"/>
			</g>
		</g>
	</g>
	<g>
		<g>
			<g>
				<path fill="#51AA50" d="M606.371,289.995c0.095,0.098,0.192,0.192,0.287,0.29c0.593,0.59,1.514-0.328,0.921-0.922
					c-0.095-0.094-0.191-0.192-0.287-0.286C606.699,288.484,605.779,289.404,606.371,289.995L606.371,289.995z"/>
			</g>
		</g>
	</g>
</g>
<g>
	<path fill="#415C92" d="M159.638,271.754h-30.786c-0.67,0-1.213-0.541-1.213-1.213c0-0.669,0.543-1.212,1.213-1.212h30.786
		c0.669,0,1.212,0.543,1.212,1.212C160.85,271.213,160.307,271.754,159.638,271.754z"/>
</g>
<g>
	<g>
		<g>
			<g>
				<g>
					<path fill="#415C92" d="M217.59,263.279C217.166,263.279,217.166,263.279,217.59,263.279"/>
				</g>
			</g>
		</g>
		<g>
			<g>
				<g>
					<g>
						<path fill="#415C92" d="M217.59,265.784c3.225,0,3.229-5.013,0-5.013C214.366,260.771,214.36,265.784,217.59,265.784
							L217.59,265.784z"/>
					</g>
				</g>
			</g>
		</g>
	</g>
	<g>
		<g>
			<g>
				<g>
					<path fill="#415C92" d="M227.693,263.279C227.269,263.279,227.269,263.279,227.693,263.279"/>
				</g>
			</g>
		</g>
		<g>
			<g>
				<g>
					<g>
						<path fill="#415C92" d="M227.693,265.784c3.225,0,3.229-5.013,0-5.013C224.468,260.771,224.463,265.784,227.693,265.784
							L227.693,265.784z"/>
					</g>
				</g>
			</g>
		</g>
	</g>
	<g>
		<g>
			<g>
				<g>
					<path fill="#415C92" d="M237.795,263.279C237.372,263.279,237.372,263.279,237.795,263.279"/>
				</g>
			</g>
		</g>
		<g>
			<g>
				<g>
					<g>
						<path fill="#415C92" d="M237.795,265.784c3.225,0,3.23-5.013,0-5.013C234.571,260.771,234.565,265.784,237.795,265.784
							L237.795,265.784z"/>
					</g>
				</g>
			</g>
		</g>
	</g>
</g>
<g>
	<g>
		<g>
			<path fill="#B9CEEB" d="M246.082,89.146l1.644-1.647c0.336-0.331,0.336-0.872,0-1.207l-1.432-1.431
				c-0.33-0.333-0.418-0.939-0.192-1.351l1.167-2.834c0.132-0.454,0.628-0.823,1.096-0.823h2.028c0.471,0,0.853-0.383,0.853-0.849
				v-2.332c0-0.472-0.382-0.851-0.853-0.851h-2.028c-0.468,0-0.964-0.369-1.096-0.821l-1.167-2.833
				c-0.226-0.413-0.138-1.021,0.192-1.355l1.432-1.43c0.336-0.334,0.336-0.875,0-1.204l-1.644-1.651
				c-0.333-0.333-0.875-0.333-1.206,0l-1.434,1.433c-0.333,0.332-0.939,0.419-1.35,0.196l-2.837-1.169
				c-0.451-0.134-0.819-0.624-0.819-1.096v-2.028c0-0.468-0.381-0.855-0.852-0.855h-2.328c-0.473,0-0.854,0.387-0.854,0.855v2.028
				c0,0.472-0.368,0.962-0.819,1.096l-2.837,1.169c-0.41,0.223-1.02,0.136-1.35-0.196l-1.436-1.431
				c-0.331-0.334-0.872-0.334-1.202,0l-1.651,1.649c-0.333,0.329-0.333,0.869,0,1.204l1.433,1.43
				c0.332,0.335,0.42,0.942,0.195,1.355L225.567,75c-0.132,0.452-0.627,0.821-1.095,0.821h-2.031c-0.467,0-0.852,0.379-0.852,0.851
				v2.332c0,0.466,0.384,0.849,0.852,0.849h2.031c0.468,0,0.963,0.369,1.095,0.823l1.168,2.834c0.225,0.413,0.137,1.017-0.195,1.351
				l-1.433,1.431c-0.333,0.334-0.333,0.875,0,1.207l1.651,1.647c0.33,0.335,0.871,0.335,1.202,0l1.436-1.432
				c0.33-0.331,0.939-0.418,1.353-0.192l2.834,1.167c0.451,0.13,0.819,0.624,0.819,1.094v2.032c0,0.466,0.382,0.851,0.854,0.851
				h2.328c0.47,0,0.852-0.385,0.852-0.851v-2.032c0-0.471,0.368-0.964,0.819-1.094l2.837-1.167c0.411-0.226,1.017-0.139,1.35,0.192
				l1.434,1.432C245.207,89.481,245.749,89.481,246.082,89.146z M236.419,84.641c-3.758,0-6.805-3.049-6.805-6.804
				c0-3.758,3.047-6.803,6.805-6.803s6.805,3.045,6.805,6.803C243.224,81.592,240.178,84.641,236.419,84.641z"/>
		</g>
	</g>
	<g>
		<g>
			<path fill="#B9CEEB" d="M261.818,95.576l-0.416-1.381c-0.086-0.28-0.381-0.438-0.66-0.355l-1.2,0.366
				c-0.28,0.084-0.64-0.047-0.798-0.295l-1.208-1.464c-0.203-0.203-0.263-0.582-0.124-0.839l0.592-1.106
				c0.139-0.258,0.041-0.579-0.212-0.717l-1.272-0.681c-0.256-0.139-0.578-0.039-0.716,0.217l-0.595,1.106
				c-0.137,0.255-0.483,0.417-0.766,0.359l-1.893-0.191c-0.288,0.002-0.598-0.222-0.68-0.502l-0.366-1.201
				c-0.082-0.277-0.378-0.438-0.656-0.351l-1.383,0.413c-0.283,0.087-0.437,0.38-0.353,0.663l0.367,1.2
				c0.084,0.281-0.048,0.635-0.297,0.794l-1.466,1.21c-0.201,0.207-0.582,0.259-0.837,0.124l-1.109-0.594
				c-0.253-0.137-0.577-0.042-0.713,0.217l-0.684,1.269c-0.134,0.259-0.04,0.582,0.216,0.717l1.107,0.597
				c0.259,0.137,0.419,0.481,0.36,0.765l-0.188,1.889c0,0.292-0.224,0.603-0.505,0.682l-1.201,0.367
				c-0.281,0.083-0.439,0.381-0.354,0.659l0.418,1.379c0.083,0.282,0.38,0.438,0.661,0.353l1.203-0.363
				c0.276-0.082,0.632,0.05,0.791,0.292l1.209,1.468c0.206,0.204,0.261,0.583,0.125,0.838l-0.595,1.106
				c-0.135,0.256-0.039,0.577,0.218,0.718l1.27,0.678c0.257,0.137,0.578,0.041,0.717-0.214l0.595-1.109
				c0.134-0.259,0.483-0.417,0.766-0.36l1.888,0.192c0.296,0,0.602,0.223,0.684,0.505l0.363,1.199c0.084,0.28,0.383,0.44,0.66,0.353
				l1.381-0.417c0.277-0.084,0.437-0.381,0.357-0.658l-0.366-1.201c-0.087-0.277,0.043-0.64,0.288-0.796l1.469-1.207
				c0.203-0.208,0.583-0.264,0.839-0.128l1.106,0.594c0.258,0.142,0.583,0.042,0.717-0.214l0.68-1.272
				c0.14-0.253,0.039-0.578-0.217-0.716l-1.109-0.595c-0.257-0.141-0.418-0.481-0.357-0.763l0.192-1.896
				c-0.002-0.288,0.225-0.598,0.501-0.681l1.202-0.363C261.743,96.149,261.902,95.855,261.818,95.576z M256.531,99.533
				c-1.099,2.055-3.66,2.827-5.708,1.727c-2.053-1.101-2.826-3.657-1.727-5.705c1.099-2.059,3.66-2.83,5.71-1.729
				C256.855,94.928,257.629,97.482,256.531,99.533z"/>
		</g>
	</g>
</g>
<g>
	<g>
		<path fill="#415C92" d="M173.436,198.51c-0.731,0-1.326-0.594-1.326-1.326v-5.164c0-0.733,0.594-1.326,1.326-1.326
			c0.733,0,1.327,0.593,1.327,1.326v5.164C174.763,197.916,174.169,198.51,173.436,198.51z"/>
	</g>
	<g>
		<path fill="#415C92" d="M176.019,195.927h-5.164c-0.732,0-1.326-0.592-1.326-1.327c0-0.731,0.594-1.326,1.326-1.326h5.164
			c0.733,0,1.328,0.595,1.328,1.326C177.346,195.335,176.752,195.927,176.019,195.927z"/>
	</g>
</g>
<g>
	<g>
		<path fill="#415C92" d="M341.925,125.478c-0.121,0-0.245-0.018-0.369-0.053"/>
	</g>
</g>
<g>
	<g>
		<rect x="123.426" y="163.289" fill="#FFFFFF" width="7.813" height="7.813"/>
		<path fill="#415C92" d="M131.846,171.709h-9.025v-9.025h9.025V171.709z M124.033,170.496h6.6v-6.602h-6.6V170.496z"/>
	</g>
	<g>
		<g>
			<g>
				<path fill="#415C92" d="M113.537,165.007h7.073c0.271,0,0.488-0.218,0.488-0.487c0-0.271-0.218-0.487-0.488-0.487h-7.073
					c-0.27,0-0.488,0.219-0.488,0.487C113.049,164.789,113.267,165.007,113.537,165.007z"/>
			</g>
		</g>
		<g>
			<g>
				<path fill="#415C92" d="M110.88,170.361h9.56c0.364,0,0.659-0.219,0.659-0.487c0-0.271-0.295-0.489-0.659-0.489h-9.56
					c-0.365,0-0.66,0.219-0.66,0.489S110.515,170.361,110.88,170.361z"/>
			</g>
		</g>
		<g>
			<g>
				<path fill="#415C92" d="M107.398,167.533h13.212c0.271,0,0.488-0.219,0.488-0.488s-0.218-0.486-0.488-0.486h-13.212
					c-0.27,0-0.488,0.217-0.488,0.486S107.129,167.533,107.398,167.533z"/>
			</g>
		</g>
	</g>
</g>
<g>
	<g>
		<rect x="618.847" y="147.373" fill="#405C92" width="3.467" height="148.963"/>
	</g>
	<g>
		<path fill="#B9CEEB" d="M620.961,165.398h-0.762c-5.653,0-10.277-4.623-10.277-10.272v-13.765c0-5.652,4.624-10.276,10.277-10.276
			h0.762c5.651,0,10.276,4.624,10.276,10.276v13.765C631.237,160.773,626.612,165.398,620.961,165.398z"/>
	</g>
	<g>
		<g>
			<path fill="#405C92" d="M634.528,155.432c1.219,0.195,2.437,0.392,3.656,0.588c0.817,0.133,1.17-1.121,0.346-1.252
				c-1.221-0.197-2.438-0.394-3.656-0.588C634.056,154.048,633.705,155.301,634.528,155.432L634.528,155.432z"/>
		</g>
	</g>
	<g>
		<g>
			<path fill="#405C92" d="M634.402,147.495c0.957-0.17,1.906-0.192,2.871-0.102c0.831,0.078,0.826-1.22,0-1.297
				c-1.084-0.102-2.144-0.043-3.218,0.146C633.235,146.386,633.584,147.639,634.402,147.495L634.402,147.495z"/>
		</g>
	</g>
	<g>
		<g>
			<path fill="#405C92" d="M634.007,140.263c0.936-0.371,1.867-0.741,2.802-1.112c0.77-0.304,0.437-1.561-0.345-1.252
				c-0.933,0.371-1.869,0.741-2.804,1.111C632.894,139.314,633.228,140.573,634.007,140.263L634.007,140.263z"/>
		</g>
	</g>
	<g>
		<g>
			<path fill="#405C92" d="M602.156,156.641c0.958-0.134,1.887-0.354,2.804-0.668c0.785-0.268,0.447-1.522-0.347-1.252
				c-0.916,0.313-1.845,0.534-2.805,0.668C600.985,155.503,601.337,156.755,602.156,156.641L602.156,156.641z"/>
		</g>
	</g>
	<g>
		<g>
			<path fill="#405C92" d="M600.47,147.407c1.203,0.032,2.364,0.21,3.524,0.541c0.804,0.225,1.148-1.028,0.345-1.255
				c-1.267-0.355-2.556-0.548-3.869-0.584C599.634,146.086,599.634,147.383,600.47,147.407L600.47,147.407z"/>
		</g>
	</g>
	<g>
		<g>
			<path fill="#405C92" d="M601.604,136.719c0.934,0.301,1.868,0.597,2.806,0.896c0.798,0.257,1.14-0.997,0.345-1.252
				c-0.937-0.299-1.872-0.594-2.809-0.896C601.15,135.214,600.809,136.468,601.604,136.719L601.604,136.719z"/>
		</g>
	</g>
	<g>
		<polygon fill="#415C92" points="612.496,298.355 614.807,278.443 626.064,278.443 628.661,298.068 		"/>
	</g>
</g>
<g>
	<g>
		<g>
			<path fill="#D8E5F5" d="M158.855,196.831c11.812-10.681,23.624-21.36,35.437-32.039c1.751-1.582-0.843-4.164-2.585-2.588
				c-11.813,10.679-23.627,21.358-35.439,32.039C154.518,195.824,157.111,198.407,158.855,196.831L158.855,196.831z"/>
		</g>
	</g>
	<g>
		<g>
			<path fill="#D8E5F5" d="M198.904,213.17c11.813-10.679,23.624-21.357,35.438-32.037c1.75-1.584-0.844-4.162-2.588-2.586
				c-11.814,10.678-23.627,21.355-35.439,32.036C194.568,212.165,197.16,214.747,198.904,213.17L198.904,213.17z"/>
		</g>
	</g>
	<g>
		<g>
			<path fill="#D8E5F5" d="M155.385,225.275c24.76-24.144,49.516-48.286,74.275-72.428c1.688-1.646-0.899-4.233-2.587-2.589
				c-24.76,24.142-49.518,48.284-74.274,72.427C151.111,224.336,153.699,226.919,155.385,225.275L155.385,225.275z"/>
		</g>
	</g>
</g>
<g>
	<path fill="#415C92" d="M225.988,119.461"/>
	<g>
		<path fill="#415C92" d="M225.988,121.279c2.341,0,2.345-3.638,0-3.638C223.647,117.641,223.643,121.279,225.988,121.279
			L225.988,121.279z"/>
	</g>
</g>
<g>
	<path fill="#415C92" d="M154.037,238.301"/>
	<g>
		<path fill="#415C92" d="M154.037,240.121c2.341,0,2.345-3.639,0-3.639C151.696,236.482,151.692,240.121,154.037,240.121
			L154.037,240.121z"/>
	</g>
</g>
<g>
	<g>
		<path fill="#263238" d="M640,299.243c0,0.213-143.281,0.387-319.984,0.387C143.249,299.63,0,299.456,0,299.243
			c0-0.214,143.249-0.386,320.016-0.386C496.719,298.857,640,299.029,640,299.243z"/>
	</g>
</g>
<g>
	<g>
		<g>
			<g>
				<path fill="none" stroke="#B9CEEB" stroke-miterlimit="10" d="M16.228,19.978C3.195,40.478,4.048,68.9,18.288,88.58
					c9.493,13.119,23.732,21.913,35.039,33.506c11.307,11.594,19.895,28.678,13.928,43.732
					c-6.074,15.324-23.867,21.559-37.192,31.267c-14.514,10.574-24.707,26.907-27.83,44.591s0.86,36.52,10.874,51.426h138.404
					c0,0,24.313-46.336-6.946-81.647c-31.26-35.312-48.047-35.89-46.89-59.046c1.159-23.155,17.366-30.681,26.628-39.363
					c9.263-8.683,54.414-28.944,27.786-93.066L16.228,19.978L16.228,19.978z"/>
			</g>
			<g>
				<g>
					<path fill="#263238" d="M16.228,19.978c0,0,0.804-0.014,2.383-0.02c1.583-0.003,3.935-0.011,7.016-0.019
						c6.176-0.009,15.281-0.022,27.007-0.04c23.478-0.017,57.452-0.041,99.456-0.072h0.102l0.037,0.092
						c1.89,4.803,3.802,9.747,5.156,14.987c1.395,5.218,2.536,10.652,2.941,16.286c0.424,5.622,0.241,11.427-0.879,17.191
						c-1.156,5.75-3.215,11.444-6.256,16.711c-1.513,2.64-3.292,5.146-5.213,7.564c-1.944,2.405-4.097,4.665-6.375,6.821
						c-2.282,2.155-4.714,4.185-7.237,6.126c-2.519,1.95-5.148,3.79-7.714,5.734c-1.286,0.97-2.459,2.058-3.684,3.147
						c-1.231,1.069-2.499,2.1-3.779,3.122c-2.556,2.044-5.142,4.09-7.578,6.329c-4.922,4.404-9.081,9.904-11.368,16.305
						c-1.109,3.194-1.905,6.54-2.165,9.965c-0.069,0.855-0.184,1.71-0.216,2.57c-0.016,0.858-0.066,1.722-0.024,2.584
						c0.011,1.726,0.206,3.449,0.52,5.149c0.649,3.397,2.076,6.656,4.153,9.479c2.046,2.849,4.567,5.357,7.178,7.771
						c5.255,4.806,10.828,9.392,16.167,14.343c5.364,4.926,10.574,10.123,15.592,15.586c2.49,2.742,5.022,5.5,7.198,8.558
						c2.251,3.002,4.142,6.28,5.803,9.676c3.273,6.818,5.297,14.3,5.958,21.947c0.714,7.649,0.169,15.442-1.347,23.071
						c-0.75,3.818-1.748,7.601-2.969,11.32c-1.224,3.719-2.636,7.389-4.395,10.932l-0.057,0.113h-0.131c-1.124,0-2.343,0-3.564,0
						c-47.246-0.002-92.833-0.006-134.842-0.01h-0.108l-0.06-0.089c-6.595-9.899-10.51-21.272-11.59-32.669
						c-1.147-11.398,0.607-22.831,4.788-32.979c4.127-10.183,10.544-19.112,18.296-26.134c3.865-3.536,8.174-6.432,12.49-9.11
						c4.321-2.682,8.679-5.164,12.8-7.877c4.102-2.721,8.055-5.619,11.265-9.164c3.22-3.517,5.682-7.646,6.972-12.086
						c1.294-4.442,1.306-9.102,0.549-13.488c-0.768-4.402-2.317-8.565-4.277-12.4c-1.966-3.84-4.35-7.364-6.967-10.582
						c-2.609-3.229-5.51-6.093-8.43-8.796c-5.859-5.393-11.855-10.111-17.252-14.958c-2.704-2.417-5.265-4.859-7.622-7.367
						c-2.34-2.523-4.479-5.108-6.318-7.789c-3.707-5.346-6.249-10.978-7.918-16.414C8.047,65.952,7.216,60.69,7.025,55.85
						c-0.113-1.208-0.069-2.394-0.067-3.551c0.015-1.158-0.02-2.289,0.099-3.387c0.085-1.098,0.167-2.169,0.249-3.212
						c0.125-1.038,0.296-2.043,0.436-3.023c1.218-7.84,3.583-13.569,5.428-17.235c0.442-0.932,0.832-1.75,1.252-2.415
						c0.395-0.674,0.728-1.24,0.995-1.694C15.953,20.431,16.228,19.978,16.228,19.978c-0.056,0.099-0.282,0.499-0.784,1.386
						c-0.262,0.457-0.586,1.021-0.974,1.698c-0.412,0.661-0.796,1.481-1.232,2.415c-1.822,3.672-4.162,9.4-5.357,17.227
						c-0.137,0.978-0.305,1.981-0.428,3.017c-0.078,1.041-0.158,2.111-0.238,3.207c-0.117,1.094-0.08,2.224-0.092,3.378
						c0,1.154-0.042,2.337,0.074,3.542c0.201,4.829,1.041,10.074,2.717,15.496c1.674,5.416,4.216,11.024,7.916,16.342
						c1.834,2.667,3.97,5.242,6.307,7.753c2.354,2.499,4.914,4.933,7.616,7.344c5.395,4.835,11.396,9.545,17.273,14.943
						c2.926,2.704,5.841,5.575,8.465,8.817c2.63,3.229,5.03,6.769,7.01,10.627c1.975,3.854,3.539,8.044,4.317,12.484
						c0.767,4.425,0.759,9.136-0.547,13.634c-1.301,4.491-3.789,8.673-7.037,12.221c-3.237,3.579-7.21,6.495-11.323,9.228
						c-4.132,2.727-8.491,5.212-12.802,7.892c-4.309,2.679-8.593,5.56-12.435,9.08c-7.708,6.985-14.087,15.875-18.188,26.005
						c-4.154,10.094-5.894,21.458-4.748,32.795c1.077,11.334,4.976,22.643,11.533,32.48l-0.167-0.09
						c42.008-0.002,87.595-0.004,134.842-0.008c1.221,0,2.439,0,3.563,0l-0.188,0.112c1.737-3.499,3.151-7.167,4.368-10.867
						c1.217-3.704,2.209-7.469,2.957-11.27c1.509-7.593,2.052-15.349,1.343-22.951c-0.657-7.604-2.666-15.032-5.918-21.808
						c-1.649-3.368-3.525-6.627-5.761-9.608c-2.16-3.037-4.677-5.781-7.166-8.522c-5.01-5.455-10.209-10.646-15.565-15.564
						c-5.332-4.947-10.894-9.527-16.165-14.348c-2.616-2.424-5.156-4.946-7.229-7.834c-2.103-2.861-3.561-6.187-4.218-9.642
						c-0.318-1.726-0.513-3.474-0.524-5.216c-0.042-0.872,0.008-1.74,0.026-2.609c0.032-0.867,0.148-1.729,0.217-2.591
						c0.263-3.453,1.068-6.833,2.19-10.06c2.313-6.47,6.525-12.028,11.476-16.453c2.454-2.25,5.046-4.301,7.602-6.343
						c1.279-1.021,2.543-2.049,3.768-3.11c1.204-1.071,2.411-2.186,3.705-3.161c2.579-1.953,5.204-3.787,7.716-5.731
						c2.518-1.934,4.94-3.954,7.213-6.098c2.269-2.146,4.412-4.394,6.346-6.783c1.914-2.404,3.683-4.894,5.186-7.515
						c3.026-5.232,5.075-10.887,6.229-16.601c1.117-5.73,1.302-11.504,0.884-17.101c-0.397-5.608-1.53-11.026-2.917-16.229
						c-1.345-5.225-3.249-10.159-5.131-14.954l0.139,0.092c-41.979-0.03-75.934-0.055-99.397-0.072
						c-11.735-0.017-20.847-0.029-27.028-0.039c-3.089-0.008-5.447-0.015-7.034-0.019C17.046,19.99,16.228,19.978,16.228,19.978z"/>
				</g>
			</g>
		</g>
		<g>
			<path fill="#B9CEEB" d="M146.568,57.576c20.384,3.351-11.756,39.455-29.949,53.7c-10.535,8.25-21.849,17.196-26.851,29.604
				c-5.675,14.078-1.469,29.904-4.219,44.067c-0.457,2.35-3.932,1.979-3.897-0.415c0.136-9.296-0.113-18.589-1.653-27.739
				c-2.185-12.979-7.175-25.822-16.271-35.334c-7.427-7.766-17.164-12.925-25.086-20.185C27.076,90.675,15.196,77.006,14.038,61.362
				c0,0,22.206-17.886,34.532-15.628c14.403,2.638,28.584,24.865,50.906,22.32C115.058,66.276,122.921,53.688,146.568,57.576z"/>
		</g>
		<g>
			<path fill="#B9CEEB" d="M148.378,250.816c-0.516-5.099-1.876-10.866-6.399-13.271c-2.741-1.457-6.078-1.296-9.079-0.507
				c-3.003,0.791-5.823,2.155-8.798,3.04c-5.854,1.736-12.268,1.533-18.001-0.57c-5.531-2.031-10.278-5.705-15.414-8.591
				c-5.136-2.888-11.147-5.039-16.865-3.617c-9.859,2.453-14.99,14.323-24.738,17.188c-4.332,1.273-8.984,0.56-13.389-0.438
				c-4.404-0.998-8.825-2.276-13.338-2.11c-3.536,0.133-7.214,1.354-9.693,3.777l0.026-0.031c-0.025,0.022-0.046,0.051-0.071,0.076
				c-0.408,0.402-0.782,0.84-1.117,1.311c-3.024,4.029-3.507,9.449-2.577,14.371c1.042,5.511,3.615,10.603,6.378,15.483
				c3.254,5.748,6.951,11.472,12.331,15.304c6.637,4.729,14.984,1.467,23.107,2.107c18.949,1.495,39.336,2.516,58.288,1.047
				c10.011-0.775,19.394,0.309,27.338-5.833c5.59-4.321,9.223-10.833,10.977-17.678
				C149.094,265.029,149.087,257.846,148.378,250.816z"/>
		</g>
		<g opacity="0.24">
			<g>
				<path d="M112.614,241.055c-1.071,1.637-1.526,3.83-0.495,5.493c1.031,1.663,2.426,3.175,2.873,5.08
					c0.703,2.991-1.098,5.918-2.442,8.685c-2.403,4.944-3.496,10.586-2.686,16.022c0.811,5.438,3.6,10.633,7.953,13.991
					c1.926,1.486,4.425,2.638,6.745,1.91c2.185-0.686,3.596-2.9,4.03-5.147c0.434-2.248,0.076-4.563-0.209-6.832
					c-1.324-10.541-1.052-21.276,0.802-31.737c0.309-1.748,0.605-3.742-0.502-5.131c-0.708-0.888-1.837-1.303-2.913-1.66
					C121.546,240.32,116.989,241.884,112.614,241.055"/>
			</g>
		</g>
		<g>
			<path fill="#7B92CA" d="M2.949,299.384c0,0-0.381-6.353,7.905-9.888H156.43c0,0,7.591,3.842,8.525,9.756L2.949,299.384z"/>
		</g>
		<g>
			<path fill="#7B92CA" d="M153.345,20.752c-0.077,0.035-0.155,0.071-0.232,0.106l-136.885-0.88c0,0-0.486-0.311-1.213-0.881
				c-3.9-3.05-1.711-9.316,3.239-9.275l132.858,1.073C156.595,10.938,158.302,18.408,153.345,20.752z"/>
		</g>
		<g opacity="0.24">
			<g>
				<path d="M131.435,72.968c0.276,0.527-0.751,1.669-2.714,3.411c-1.969,1.744-4.842,4.136-8.496,7.08
					c-3.674,2.921-8.124,6.442-13.791,9.729c-2.84,1.641-6,3.128-9.456,4.341c-1.738,0.583-3.54,1.125-5.435,1.502
					c-1.883,0.403-3.851,0.671-5.871,0.764c-4.032,0.232-8.132-0.359-11.802-1.612c-3.648-1.267-6.762-3.051-9.482-4.84
					c-2.729-1.809-5.081-3.596-7.299-5.305c-2.208-1.714-4.22-3.364-6.019-4.919c-7.19-6.229-10.971-10.811-10.242-11.695
					c0.753-0.919,5.843,1.995,13.775,6.869c1.983,1.217,4.151,2.549,6.479,3.978c2.326,1.417,4.826,2.979,7.375,4.425
					c2.559,1.445,5.229,2.761,7.997,3.614c2.75,0.821,5.682,1.212,8.802,1.037c6.234-0.318,12.285-2.515,17.526-5.045
					c5.27-2.578,9.982-5.496,14.091-7.796c4.104-2.327,7.614-4.046,10.171-4.96C129.606,72.626,131.171,72.46,131.435,72.968z"/>
			</g>
		</g>
		<g>
			<path fill="#80A4CE" d="M81.753,201.913c1.503-0.527,3.299,0.981,3.033,2.555c-0.265,1.571-2.458,2.408-3.703,1.416
				c-1.246-0.989-0.917-3.313,0.553-3.926"/>
		</g>
		<g>
			<g>
				<path fill="#263238" d="M32.792,95.622c-0.011,0.009-0.177-0.159-0.483-0.488c-0.328-0.361-0.771-0.845-1.326-1.454
					c-0.561-0.646-1.299-1.39-2.051-2.343c-0.765-0.953-1.631-2.029-2.585-3.217c-0.882-1.249-1.885-2.593-2.893-4.083
					c-0.479-0.763-0.973-1.55-1.483-2.362c-0.25-0.409-0.523-0.813-0.765-1.242c-0.236-0.434-0.473-0.873-0.715-1.318
					c-1.998-3.519-3.777-7.639-5.042-12.142c-1.266-4.505-1.859-8.957-1.915-13.011c-0.003-1.012,0.052-2.001,0.075-2.96
					c0.022-0.479,0.015-0.953,0.062-1.416c0.049-0.462,0.097-0.917,0.146-1.366c0.102-0.895,0.174-1.762,0.294-2.589
					c0.149-0.82,0.292-1.61,0.429-2.364c0.231-1.515,0.632-2.844,0.919-4.024c0.156-0.588,0.278-1.14,0.433-1.637
					c0.16-0.491,0.309-0.943,0.442-1.352c0.262-0.782,0.471-1.403,0.625-1.866c0.148-0.426,0.231-0.645,0.245-0.641
					c0.015,0.004-0.043,0.234-0.164,0.667c-0.137,0.468-0.319,1.096-0.549,1.887c-0.123,0.412-0.258,0.866-0.406,1.36
					c-0.143,0.499-0.253,1.052-0.397,1.641c-0.265,1.182-0.644,2.509-0.855,4.021c-0.126,0.751-0.26,1.538-0.399,2.355
					c-0.11,0.823-0.173,1.688-0.268,2.575c-0.044,0.445-0.089,0.898-0.135,1.358c-0.043,0.459-0.032,0.931-0.05,1.407
					c-0.015,0.953-0.065,1.933-0.057,2.938c0.076,4.022,0.676,8.433,1.932,12.9c1.255,4.465,3.009,8.56,4.978,12.069
					c0.238,0.442,0.472,0.881,0.704,1.314c0.239,0.428,0.507,0.832,0.754,1.24c0.501,0.811,0.988,1.598,1.458,2.361
					c0.99,1.491,1.975,2.841,2.839,4.097c0.933,1.198,1.78,2.285,2.528,3.246c0.734,0.965,1.453,1.724,1.993,2.385
					c0.529,0.63,0.952,1.132,1.265,1.504C32.658,95.424,32.803,95.612,32.792,95.622z"/>
			</g>
		</g>
		<g>
			<g>
				<path fill="#263238" d="M25.085,216.271c-0.006-0.004,0.046-0.094,0.152-0.267c0.119-0.19,0.28-0.442,0.482-0.763
					c0.22-0.342,0.487-0.753,0.799-1.237c0.16-0.243,0.33-0.506,0.513-0.786c0.199-0.27,0.433-0.537,0.67-0.832
					c0.48-0.588,1.012-1.238,1.594-1.947c0.625-0.674,1.342-1.371,2.093-2.139c1.542-1.492,3.406-3.083,5.575-4.691
					c4.311-3.268,9.873-6.516,15.901-10.303c2.992-1.927,6.141-3.955,9.118-6.424c2.981-2.449,5.855-5.275,8.182-8.646
					c4.589-6.822,6.452-14.726,6.615-21.791c0.185-7.119-1.329-13.458-3.113-18.511c-1.805-5.073-3.875-8.933-5.38-11.536
					c-0.752-1.305-1.37-2.299-1.795-2.969c-0.201-0.323-0.36-0.575-0.479-0.766c-0.106-0.174-0.157-0.265-0.151-0.269
					c0.005-0.003,0.069,0.08,0.187,0.245c0.128,0.185,0.298,0.431,0.513,0.743c0.45,0.655,1.091,1.638,1.866,2.932
					c1.55,2.583,3.669,6.436,5.52,11.519c1.828,5.067,3.386,11.441,3.221,18.621c-0.031,1.79-0.175,3.624-0.448,5.479
					c-0.258,1.856-0.649,3.736-1.189,5.609c-1.044,3.757-2.721,7.484-5.017,10.932c-2.357,3.416-5.265,6.266-8.271,8.729
					c-3.002,2.481-6.167,4.509-9.171,6.431c-6.051,3.777-11.615,6.991-15.931,10.215c-2.171,1.588-4.04,3.155-5.589,4.623
					c-0.754,0.756-1.477,1.44-2.107,2.104c-0.588,0.698-1.127,1.337-1.615,1.912c-0.24,0.29-0.478,0.554-0.683,0.817
					c-0.187,0.274-0.363,0.531-0.526,0.772c-0.324,0.474-0.601,0.875-0.829,1.208c-0.218,0.313-0.389,0.559-0.519,0.74
					C25.155,216.193,25.091,216.275,25.085,216.271z"/>
			</g>
		</g>
		<g>
			<g>
				<path fill="#263238" d="M17.532,230.623c0.012,0.007-0.05,0.138-0.178,0.376c-0.157,0.28-0.347,0.62-0.579,1.034
					c-0.261,0.439-0.571,0.988-0.885,1.646c-0.319,0.656-0.724,1.381-1.066,2.232c-0.183,0.422-0.374,0.863-0.571,1.32
					c-0.196,0.459-0.355,0.957-0.547,1.461c-0.397,1.002-0.705,2.113-1.056,3.271c-0.625,2.338-1.147,4.954-1.418,7.738
					c-0.24,2.788-0.203,5.457-0.014,7.871c0.134,1.205,0.235,2.352,0.443,3.41c0.095,0.529,0.162,1.047,0.272,1.535
					c0.111,0.485,0.218,0.953,0.321,1.401c0.182,0.899,0.448,1.688,0.642,2.39c0.188,0.707,0.394,1.301,0.57,1.783
					c0.152,0.447,0.278,0.817,0.381,1.119c0.083,0.258,0.12,0.396,0.106,0.402c-0.013,0.006-0.077-0.122-0.186-0.37
					c-0.123-0.297-0.273-0.658-0.456-1.099c-0.201-0.475-0.431-1.063-0.641-1.766c-0.218-0.699-0.505-1.484-0.707-2.389
					c-0.113-0.45-0.229-0.919-0.351-1.407c-0.118-0.489-0.194-1.01-0.297-1.543c-0.224-1.065-0.339-2.222-0.484-3.437
					c-0.214-2.436-0.263-5.129-0.02-7.944c0.273-2.81,0.812-5.45,1.464-7.808c0.364-1.166,0.688-2.281,1.103-3.289
					c0.199-0.506,0.367-1.004,0.573-1.463c0.208-0.459,0.409-0.896,0.602-1.319c0.362-0.849,0.789-1.573,1.13-2.222
					c0.336-0.651,0.667-1.188,0.952-1.619c0.26-0.397,0.474-0.727,0.648-0.993C17.434,230.729,17.52,230.613,17.532,230.623z"/>
			</g>
		</g>
	</g>
	<g>
		<g>
			<path fill="#263238" d="M117.94,250.141c0.005,0.006-0.052,0.047-0.165,0.118c-0.136,0.085-0.301,0.19-0.506,0.318
				c-0.479,0.288-1.138,0.684-1.97,1.184c-0.432,0.257-0.91,0.538-1.43,0.847c-0.532,0.295-1.131,0.572-1.764,0.894
				c-1.276,0.615-2.695,1.399-4.369,2.031c-0.827,0.341-1.694,0.694-2.595,1.063c-0.905,0.363-1.883,0.646-2.875,0.987
				c-1.977,0.722-4.166,1.235-6.452,1.833c-4.612,1.025-9.773,1.779-15.229,1.955c-5.46,0.109-10.655-0.372-15.315-1.157
				c-2.315-0.478-4.527-0.876-6.541-1.493c-1.008-0.291-1.999-0.521-2.923-0.837c-0.919-0.321-1.803-0.631-2.647-0.927
				c-1.705-0.545-3.162-1.255-4.469-1.803c-0.649-0.287-1.262-0.533-1.807-0.799c-0.537-0.279-1.028-0.537-1.473-0.771
				c-0.858-0.457-1.535-0.817-2.029-1.079c-0.211-0.117-0.383-0.211-0.523-0.29c-0.116-0.067-0.174-0.104-0.171-0.112
				c0.004-0.006,0.069,0.02,0.192,0.074c0.144,0.068,0.322,0.149,0.542,0.252c0.502,0.245,1.19,0.58,2.062,1.006
				c0.45,0.226,0.946,0.471,1.484,0.737c0.55,0.253,1.165,0.489,1.817,0.765c1.313,0.525,2.772,1.213,4.475,1.737
				c0.843,0.286,1.726,0.585,2.644,0.897c0.921,0.306,1.91,0.525,2.917,0.808c2.006,0.603,4.21,0.984,6.516,1.448
				c4.64,0.759,9.806,1.227,15.237,1.117c5.427-0.174,10.561-0.91,15.154-1.91c2.278-0.583,4.458-1.081,6.43-1.787
				c0.991-0.334,1.966-0.605,2.871-0.959c0.901-0.359,1.766-0.706,2.595-1.035c1.673-0.611,3.095-1.374,4.379-1.968
				c0.636-0.31,1.237-0.577,1.774-0.858c0.525-0.295,1.007-0.566,1.444-0.813c0.848-0.471,1.519-0.844,2.006-1.114
				c0.213-0.114,0.387-0.206,0.527-0.28C117.873,250.162,117.937,250.134,117.94,250.141z"/>
		</g>
	</g>
	<g>
		<g>
			<path fill="#263238" d="M126.41,78.262c0.004,0.005-0.053,0.06-0.172,0.161c-0.138,0.114-0.313,0.258-0.532,0.439
				c-0.498,0.397-1.192,0.951-2.074,1.655c-1.806,1.429-4.418,3.501-7.72,5.968c-3.307,2.455-7.314,5.313-12.079,7.986
				c-2.405,1.285-4.967,2.598-7.782,3.581c-2.805,0.989-5.821,1.747-8.979,1.997c-6.344,0.429-12.36-1.178-17.253-3.589
				c-2.447-1.227-4.655-2.6-6.663-3.963c-1.983-1.399-3.794-2.753-5.396-4.051c-3.215-2.581-5.735-4.764-7.485-6.262
				c-0.853-0.737-1.523-1.318-2.006-1.734c-0.211-0.189-0.381-0.34-0.515-0.459c-0.114-0.105-0.171-0.162-0.167-0.167
				c0.005-0.005,0.071,0.039,0.194,0.134c0.141,0.111,0.319,0.251,0.543,0.428c0.494,0.401,1.184,0.961,2.057,1.673
				c1.783,1.458,4.331,3.606,7.564,6.152c1.61,1.281,3.425,2.616,5.408,3.996c2.007,1.343,4.208,2.696,6.637,3.903
				c4.854,2.367,10.796,3.939,17.051,3.516c3.112-0.247,6.092-0.992,8.87-1.966c2.788-0.967,5.337-2.264,7.734-3.533
				c4.749-2.638,8.766-5.465,12.09-7.885c3.32-2.433,5.958-4.469,7.796-5.856c0.903-0.677,1.613-1.21,2.122-1.593
				c0.229-0.167,0.414-0.3,0.56-0.406C126.34,78.299,126.406,78.256,126.41,78.262z"/>
		</g>
	</g>
	<g opacity="0.24">
		<g>
			<path d="M53.167,256.962c3.849-2.971,9.255-2.251,14.014-1.251c4.757,0.999,9.551,2.626,14.365,1.953
				c3.629-0.51,6.958-2.294,10.539-3.07c3.581-0.775,7.926-0.203,9.911,2.879C86.24,262.596,68.811,262.413,53.167,256.962"/>
		</g>
	</g>
</g>
<g>
	<g>
		<g>
			<g>
				<g>
					<path fill="#F6E8D4" d="M218.677,228.21l-19.294-21.604l-0.194,26.263l5.809,16.844l-57.716,10.011l-2.447-45.539
						l-4.154-34.974c-0.509-4.285,1.936-8.375,5.951-9.955l15.883-6.257l22.37,4.104l9,3.422c3.778,1.435,7.146,3.777,9.807,6.82
						l27.089,30.979"/>
				</g>
			</g>
			<g>
				<g>
					<path fill="#FFFFFF" d="M198.029,201.439c0.006-0.092,1.271,0.096,3.259-0.229c1.97-0.309,4.69-1.271,6.95-3.348
						c2.253-2.083,3.436-4.719,3.898-6.658c0.482-1.956,0.399-3.23,0.491-3.229c0.026-0.002,0.073,0.313,0.08,0.887
						c0.012,0.572-0.044,1.406-0.252,2.416c-0.393,2.003-1.563,4.76-3.903,6.924c-2.347,2.16-5.188,3.104-7.218,3.332
						c-1.022,0.125-1.858,0.113-2.431,0.058C198.335,201.54,198.025,201.469,198.029,201.439z"/>
				</g>
			</g>
			<g>
				<g>
					<g>
						<ellipse fill="#263238" cx="199.538" cy="211.445" rx="0.245" ry="20.318"/>
					</g>
				</g>
			</g>
		</g>
		<g>
			<path fill="#F6E8D4" d="M197.604,238.426l-34.875-14.041c-2.812-1.131-4.738-3.762-4.969-6.785l-2.551-33.436
				c0,0,0.302-14.221-8.581-14.91l-5.053,1.987c-6.531,3.469-8.149,12.977-7.26,20.317c1.263,10.433,1.79,25.191,3.202,34.246
				c1.156,7.403,5.4,13.918,12.646,15.826l42.956,9.299L197.604,238.426z"/>
		</g>
		<g>
			<g>
				<path fill="#263238" d="M155.707,189.266c0.016-0.004,0.054,0.262,0.11,0.765c0.054,0.547,0.129,1.28,0.224,2.204
					c0.178,1.959,0.429,4.717,0.738,8.107c0.295,3.438,0.646,7.512,1.033,12.03c0.096,1.132,0.193,2.291,0.292,3.479
					c0.104,1.184,0.176,2.397,0.446,3.574c0.254,1.184,0.823,2.291,1.734,3.137c0.904,0.847,2.035,1.465,3.217,2
					c9.617,4.162,18.479,7.6,24.913,10.008c3.193,1.177,5.792,2.135,7.639,2.813c0.87,0.32,1.563,0.576,2.075,0.767
					c0.476,0.18,0.723,0.279,0.716,0.295c-0.005,0.017-0.263-0.057-0.744-0.207c-0.52-0.168-1.223-0.396-2.105-0.684
					c-1.825-0.604-4.457-1.511-7.692-2.676c-6.471-2.334-15.347-5.717-24.992-9.893c-1.2-0.545-2.377-1.182-3.342-2.086
					c-0.977-0.9-1.602-2.135-1.861-3.368c-0.278-1.236-0.344-2.46-0.444-3.644c-0.094-1.185-0.186-2.347-0.276-3.479
					c-0.352-4.524-0.667-8.6-0.934-12.044c-0.247-3.394-0.448-6.156-0.59-8.119c-0.059-0.929-0.103-1.662-0.138-2.21
					C155.697,189.532,155.692,189.266,155.707,189.266z"/>
			</g>
		</g>
		<g>
			<g>
				<path fill="#263238" d="M135.727,207.441c0.017-0.002,0.038,0.154,0.069,0.449c0.031,0.346,0.068,0.772,0.115,1.289
					c0.103,1.189,0.244,2.795,0.413,4.745c0.192,2,0.434,4.384,0.781,7.015c0.358,2.627,0.781,5.526,1.574,8.469
					c0.377,1.486,0.903,2.859,1.703,4.039c0.8,1.188,1.687,2.256,2.604,3.201c1.844,1.886,3.813,3.27,5.581,4.188
					c3.569,1.854,6.161,1.881,6.125,2.004c-0.001,0.016-0.157,0.012-0.454-0.011c-0.297-0.021-0.734-0.056-1.291-0.166
					c-1.11-0.196-2.71-0.634-4.53-1.535c-1.818-0.896-3.842-2.274-5.737-4.181c-0.944-0.954-1.856-2.037-2.678-3.245
					c-0.833-1.216-1.401-2.683-1.774-4.171c-0.804-2.988-1.212-5.896-1.55-8.536c-0.325-2.646-0.535-5.036-0.683-7.045
					c-0.147-2.007-0.226-3.636-0.266-4.761c-0.013-0.52-0.022-0.945-0.028-1.297C135.702,207.6,135.711,207.441,135.727,207.441z"/>
			</g>
		</g>
		<g>
			<g>
				<path fill="#263238" d="M150.64,230.838c-0.048-0.014,0.1-0.76,0.633-1.859c0.528-1.096,1.506-2.515,2.929-3.735
					c1.428-1.214,2.982-1.955,4.147-2.306c1.17-0.354,1.93-0.386,1.936-0.336c0.014,0.076-0.717,0.224-1.827,0.646
					c-1.108,0.423-2.575,1.185-3.953,2.354c-1.371,1.176-2.352,2.506-2.94,3.535C150.971,230.164,150.715,230.864,150.64,230.838z"
					/>
			</g>
		</g>
		<g>
			<g>
				<path fill="#FFFFFF" d="M157.5,205.41c0.005-0.008,0.078,0.025,0.222,0.099c0.164,0.085,0.369,0.192,0.624,0.326
					c0.56,0.263,1.376,0.679,2.488,1.056c2.192,0.762,5.628,1.534,9.774,0.834c4.096-0.67,8.853-3.08,12.15-7.55
					c1.631-2.205,2.893-4.922,3.182-7.901c0.146-1.479,0.023-3.021-0.465-4.471c-0.479-1.445-1.354-2.789-2.515-3.842
					c-1.153-1.054-2.589-1.796-4.094-1.988c-1.482-0.233-3.074,0.158-4.103,1.151c-0.497,0.5-0.807,1.17-0.8,1.856
					c-0.003,0.688,0.261,1.365,0.674,1.918c0.826,1.129,2.216,1.653,3.547,1.85c2.716,0.373,5.387-0.118,7.622-1.091
					c2.245-0.979,4.083-2.433,5.404-4.037c1.325-1.615,2.14-3.356,2.628-4.94c0.49-1.586,0.638-3.025,0.662-4.195
					c0.02-1.172-0.104-2.078-0.195-2.69c-0.052-0.28-0.093-0.51-0.125-0.69c-0.028-0.157-0.038-0.238-0.031-0.24
					c0,0,0.495,1.242,0.535,3.623c0.004,1.182-0.121,2.646-0.596,4.268c-0.471,1.618-1.281,3.408-2.62,5.072
					c-1.338,1.658-3.206,3.168-5.504,4.188c-2.29,1.014-5.021,1.535-7.842,1.161c-1.385-0.2-2.904-0.745-3.843-2.009
					c-0.458-0.615-0.767-1.377-0.767-2.186c-0.011-0.809,0.358-1.606,0.928-2.179c1.17-1.131,2.896-1.534,4.49-1.288
					c1.613,0.204,3.132,0.993,4.345,2.103c1.223,1.108,2.139,2.516,2.642,4.042c0.512,1.523,0.632,3.129,0.479,4.66
					c-0.305,3.082-1.614,5.863-3.292,8.111c-3.391,4.555-8.267,6.979-12.442,7.619c-4.226,0.672-7.696-0.169-9.889-0.988
					C158.553,206.214,157.5,205.41,157.5,205.41z"/>
			</g>
		</g>
		<g>
			<g>
				<path fill="#FFFFFF" d="M134.655,196.493c-0.021-0.021,0.174-0.28,0.572-0.716c0.402-0.428,1.026-1.021,1.885-1.637
					c1.693-1.272,4.496-2.434,7.715-2.734c1.609-0.172,3.17-0.094,4.547,0.188c1.378,0.286,2.565,0.75,3.503,1.231
					c0.944,0.479,1.657,0.953,2.132,1.298c0.473,0.351,0.716,0.565,0.7,0.589c-0.048,0.075-1.091-0.714-2.973-1.589
					c-1.861-0.89-4.71-1.634-7.859-1.254c-3.156,0.299-5.874,1.368-7.577,2.54C135.572,195.561,134.719,196.559,134.655,196.493z"/>
			</g>
		</g>
		<g>
			<g>
				<path fill="#FFFFFF" d="M140.233,172.584c0.071-0.078,0.896,1.063,2.822,2.052c0.954,0.494,2.185,0.908,3.592,1.054
					c1.407,0.15,2.992-0.01,4.499-0.621c1.499-0.633,2.735-1.643,3.623-2.74c0.896-1.1,1.474-2.262,1.798-3.285
					c0.664-2.061,0.44-3.45,0.547-3.443c0.026-0.006,0.095,0.33,0.117,0.948c0.024,0.616-0.048,1.521-0.348,2.593
					c-0.296,1.069-0.863,2.295-1.778,3.457c-0.909,1.159-2.198,2.231-3.78,2.9c-1.592,0.646-3.262,0.797-4.724,0.618
					c-1.468-0.177-2.735-0.642-3.701-1.188c-0.969-0.547-1.659-1.134-2.078-1.59C140.401,172.886,140.214,172.602,140.233,172.584z"
					/>
			</g>
		</g>
		<g>
			<g>
				<path fill="#FFFFFF" d="M170.622,227.564c-0.015-0.002,0.01-0.229,0.073-0.662c0.099-0.422,0.237-1.062,0.617-1.803
					c0.705-1.504,2.457-3.387,5.221-4.533c2.726-1.227,6.475-1.461,10.253-0.366c1.844,0.547,3.96,1.225,5.342,3.024
					c0.678,0.885,0.91,2.202,0.395,3.28c-0.496,1.08-1.466,1.824-2.487,2.345c-1.039,0.508-2.168,0.795-3.301,0.816
					c-1.124,0.023-2.293-0.257-3.17-0.982c-0.885-0.713-1.351-1.818-1.419-2.873c-0.083-1.063,0.132-2.088,0.475-3.021
					c1.485-3.729,4.493-6.103,7.188-7.274c2.741-1.199,5.223-1.326,6.859-1.181c1.65,0.17,2.506,0.529,2.506,0.529
					c-0.015,0.06-0.887-0.235-2.521-0.347c-1.617-0.09-4.046,0.086-6.71,1.297c-1.321,0.604-2.687,1.472-3.913,2.656
					c-1.224,1.18-2.321,2.69-3.007,4.465c-0.319,0.892-0.514,1.865-0.435,2.84c0.072,0.968,0.488,1.93,1.267,2.555
					c0.77,0.637,1.825,0.896,2.873,0.874c1.055-0.021,2.125-0.293,3.101-0.771c0.961-0.486,1.849-1.188,2.271-2.119
					c0.44-0.928,0.258-2.025-0.339-2.821c-0.591-0.813-1.454-1.4-2.334-1.854c-0.885-0.443-1.834-0.752-2.756-1.027
					c-3.7-1.092-7.333-0.894-10.011,0.261c-2.715,1.084-4.447,2.871-5.185,4.312C170.711,226.629,170.689,227.581,170.622,227.564z"
					/>
			</g>
		</g>
		<g>
			<g>
				<path fill="#FFFFFF" d="M147.404,240.154c-0.014-0.088,1.33-0.201,3.344-0.922c2.003-0.701,4.671-2.137,6.855-4.553
					c2.186-2.416,3.345-5.217,3.843-7.281c0.511-2.075,0.489-3.424,0.578-3.418c0.028,0,0.061,0.334,0.051,0.94
					c-0.01,0.606-0.087,1.483-0.307,2.552c-0.423,2.121-1.566,5.029-3.817,7.519s-5.029,3.92-7.096,4.555
					c-1.039,0.325-1.906,0.491-2.509,0.562C147.743,240.182,147.405,240.184,147.404,240.154z"/>
			</g>
		</g>
		<g>
			<g>
				<path fill="#FFFFFF" d="M136.101,214.164c-0.003-0.018,0.14-0.073,0.421-0.169c0.283-0.095,0.7-0.224,1.245-0.36
					c1.089-0.264,2.713-0.625,4.751-0.48c1.014,0.078,2.125,0.312,3.23,0.798c1.099,0.487,2.197,1.251,3.013,2.364
					c0.799,1.111,1.291,2.557,1.172,4.064c-0.055,0.752-0.286,1.508-0.691,2.184c-0.409,0.662-1.021,1.266-1.828,1.528
					c-0.794,0.25-1.728,0.123-2.356-0.467c-0.62-0.601-0.775-1.44-0.813-2.173c-0.055-1.487,0.266-2.913,0.822-4.148
					c1.11-2.5,3.173-4.143,5.086-4.826c1.927-0.715,3.635-0.66,4.742-0.47c0.559,0.095,0.981,0.222,1.261,0.318
					c0.278,0.106,0.421,0.169,0.416,0.185c-0.014,0.045-0.599-0.188-1.703-0.324c-1.092-0.131-2.753-0.129-4.599,0.599
					c-1.83,0.698-3.771,2.292-4.813,4.694c-0.523,1.183-0.817,2.547-0.758,3.949c0.035,0.685,0.197,1.402,0.676,1.857
					c0.473,0.447,1.24,0.568,1.896,0.357c0.662-0.213,1.207-0.729,1.574-1.326c0.364-0.604,0.578-1.287,0.631-1.978
					c0.117-1.38-0.329-2.737-1.064-3.776c-0.75-1.041-1.78-1.783-2.824-2.263c-1.05-0.481-2.118-0.726-3.099-0.823
					c-1.977-0.179-3.59,0.125-4.681,0.332C136.712,214.039,136.112,214.198,136.101,214.164z"/>
			</g>
		</g>
		<g opacity="0.3">
			<g>
				<path d="M187.582,234.438c-3.729-2.105-7.377-3.726-11.278-5.496c-3.897-1.772-7.718-4.047-10.27-7.484
					c-4.813-6.486-4.265-15.852-9.19-22.251c0.322,4.304,0.643,8.61,0.965,12.914c0.294,3.944-0.31,7.846,2.231,10.524
					c2.141,2.262,6.315,3.994,9.27,4.967C175.248,229.57,181.642,232.479,187.582,234.438"/>
			</g>
		</g>
	</g>
	<g>
		<g>
			<g>
				<path fill="#F6E8D4" d="M248.179,283.58c0,0,29.18,8.078,30.35,8.49c1.758,0.617,1.464,7.059-1.271,6.957
					c-1.294-0.047-22.413,0.787-25.083,0.621c-2.669-0.168-10.718-3.342-10.718-3.342L248.179,283.58z"/>
			</g>
		</g>
		<g>
			<g>
				<g>
					<path fill="#263238" d="M260.334,294.714c0.146,0.021,0.343-1.522,1.284-3.132c0.921-1.624,2.154-2.568,2.063-2.688
						c-0.051-0.112-1.5,0.709-2.485,2.441C260.194,293.061,260.212,294.727,260.334,294.714z"/>
				</g>
			</g>
		</g>
		<g>
			<g>
				<g>
					<path fill="#263238" d="M257.292,293.335c0.143,0.026,0.438-1.354,1.216-2.878c0.76-1.533,1.694-2.593,1.589-2.689
						c-0.081-0.097-1.221,0.857-2.024,2.473C257.255,291.844,257.167,293.329,257.292,293.335z"/>
				</g>
			</g>
		</g>
		<g>
			<g>
				<g>
					<path fill="#263238" d="M254.439,292.572c0.146-0.012,0.032-1.469,0.683-3.084c0.619-1.629,1.69-2.622,1.589-2.729
						c-0.061-0.112-1.368,0.79-2.043,2.552C253.97,291.063,254.32,292.611,254.439,292.572z"/>
				</g>
			</g>
		</g>
		<g>
			<g>
				<g>
					<path fill="#263238" d="M254.955,288.803c0.053,0.012,0.311-0.804,0.313-2.173c-0.001-0.681-0.08-1.496-0.296-2.38
						c-0.104-0.439-0.251-0.895-0.433-1.354c-0.095-0.231-0.204-0.498-0.47-0.717c-0.271-0.242-0.768-0.193-1.002,0.053
						c-0.268,0.229-0.353,0.561-0.39,0.824c-0.027,0.27-0.043,0.516-0.035,0.771c0.007,0.502,0.071,0.981,0.178,1.429
						c0.219,0.891,0.563,1.637,0.898,2.229c0.681,1.187,1.271,1.791,1.313,1.758c0.066-0.047-0.424-0.727-1.005-1.915
						c-0.286-0.597-0.587-1.327-0.767-2.17c-0.089-0.421-0.14-0.871-0.14-1.332c0.013-0.448,0.005-1.011,0.27-1.226
						c0.138-0.117,0.264-0.125,0.386-0.033c0.128,0.101,0.236,0.299,0.319,0.511c0.18,0.437,0.326,0.868,0.44,1.288
						c0.229,0.84,0.342,1.619,0.387,2.277C255.01,287.964,254.876,288.79,254.955,288.803z"/>
				</g>
			</g>
		</g>
		<g>
			<g>
				<g>
					<path fill="#263238" d="M254.92,288.507c0.013-0.056-0.691-0.298-1.883-0.305c-0.593-0.003-1.305,0.062-2.071,0.252
						c-0.377,0.104-0.784,0.2-1.191,0.438c-0.398,0.203-0.817,0.758-0.659,1.334c0.126,0.545,0.589,0.924,1.051,1.041
						c0.466,0.131,0.916,0.082,1.309-0.002c0.802-0.185,1.425-0.578,1.896-0.934c0.935-0.732,1.392-1.294,1.354-1.335
						c-0.05-0.062-0.603,0.418-1.553,1.053c-0.479,0.306-1.078,0.636-1.789,0.774c-0.355,0.068-0.737,0.09-1.082-0.016
						c-0.343-0.094-0.628-0.355-0.71-0.693c-0.084-0.325,0.113-0.624,0.433-0.813c0.313-0.192,0.697-0.305,1.059-0.413
						c0.724-0.205,1.396-0.301,1.968-0.343C254.191,288.466,254.907,288.584,254.92,288.507z"/>
				</g>
			</g>
		</g>
		<g>
			<g>
				<g>
					<path fill="#263238" d="M264.818,295.025c0.145-0.016,0.001-1.264,0.574-2.631c0.547-1.381,1.522-2.172,1.432-2.285
						c-0.049-0.118-1.271,0.572-1.884,2.101C264.311,293.73,264.699,295.078,264.818,295.025z"/>
				</g>
			</g>
		</g>
		<g>
			<g>
				<g>
					<path fill="#263238" d="M244.457,296.375c-0.014,0.029,0.389,0.218,1.129,0.529c0.75,0.281,1.847,0.68,3.247,1.006
						c2.79,0.705,6.768,1.104,11.139,1.056c4.374-0.047,8.314-0.247,11.173-0.36c1.352-0.071,2.486-0.131,3.381-0.178
						c0.8-0.055,1.238-0.101,1.237-0.133c-0.001-0.033-0.441-0.054-1.243-0.061c-0.896,0.008-2.033,0.017-3.387,0.027
						c-2.955,0.055-6.853,0.133-11.164,0.217c-4.349,0.047-8.281-0.293-11.061-0.903C246.12,297.003,244.49,296.282,244.457,296.375
						z"/>
				</g>
			</g>
		</g>
		<g>
			<g>
				<g>
					<path fill="#263238" d="M243.594,297.04c0.04,0.065,0.838-0.399,2.188-0.991c1.331-0.572,3.328-1.257,5.521-0.917
						c2.198,0.335,3.757,1.813,4.772,2.841c1.021,1.061,1.622,1.767,1.682,1.717c0.044-0.037-0.454-0.813-1.429-1.951
						c-0.491-0.564-1.117-1.219-1.935-1.811c-0.811-0.594-1.85-1.101-3.016-1.279c-2.353-0.357-4.425,0.428-5.745,1.088
						C244.297,296.421,243.565,296.991,243.594,297.04z"/>
				</g>
			</g>
		</g>
	</g>
	<g>
		<g>
			<g>
				<path fill="#F6E8D4" d="M217.206,275.523c0,0-27.613,18.08-28.604,18.826c-1.486,1.125,0.22,6.476,2.795,5.549
					c1.218-0.438,24.388-6.883,26.879-7.853c2.492-0.97,9.198-6.438,9.198-6.438L217.206,275.523z"/>
			</g>
		</g>
		<g>
			<g>
				<g>
					<path fill="#263238" d="M209.006,289.824c0.121-0.027-0.37-1.619-1.848-2.955c-1.467-1.354-3.098-1.694-3.111-1.573
						c-0.051,0.14,1.414,0.666,2.784,1.935C208.215,288.479,208.872,289.889,209.006,289.824z"/>
				</g>
			</g>
		</g>
		<g>
			<g>
				<g>
					<path fill="#263238" d="M211.486,287.586c0.115-0.045-0.419-1.436-1.685-2.715c-1.258-1.293-2.634-1.855-2.681-1.739
						c-0.07,0.125,1.14,0.854,2.332,2.081C210.656,286.43,211.357,287.652,211.486,287.586z"/>
				</g>
			</g>
		</g>
		<g>
			<g>
				<g>
					<path fill="#263238" d="M213.973,285.991c0.125,0.005-0.015-1.579-1.207-3.038c-1.182-1.471-2.7-1.934-2.725-1.809
						c-0.064,0.129,1.259,0.754,2.345,2.115C213.494,284.604,213.83,286.025,213.973,285.991z"/>
				</g>
			</g>
		</g>
		<g>
			<g>
				<g>
					<path fill="#263238" d="M212.334,282.559c0.072-0.035-0.306-0.781-0.624-2.067c-0.159-0.642-0.289-1.419-0.326-2.289
						c-0.019-0.433-0.01-0.89,0.03-1.359c0.015-0.228,0.058-0.45,0.148-0.583c0.087-0.123,0.21-0.154,0.377-0.086
						c0.315,0.125,0.479,0.662,0.629,1.083c0.142,0.443,0.229,0.888,0.271,1.313c0.086,0.857,0.023,1.646-0.07,2.3
						c-0.192,1.312-0.453,2.104-0.376,2.131c0.049,0.019,0.429-0.737,0.715-2.071c0.14-0.666,0.243-1.482,0.179-2.397
						c-0.031-0.456-0.115-0.935-0.262-1.415c-0.071-0.242-0.159-0.477-0.271-0.725c-0.114-0.24-0.295-0.527-0.621-0.668
						c-0.297-0.16-0.783-0.059-0.969,0.258c-0.188,0.285-0.208,0.574-0.229,0.822c-0.035,0.492-0.034,0.971-0.002,1.424
						c0.063,0.904,0.235,1.705,0.441,2.356C211.794,281.889,212.289,282.586,212.334,282.559z"/>
				</g>
			</g>
		</g>
		<g>
			<g>
				<g>
					<path fill="#263238" d="M212.279,282.264c0.035,0.07,0.681-0.258,1.795-0.529c0.554-0.131,1.228-0.246,1.979-0.271
						c0.373-0.006,0.777-0.017,1.132,0.073c0.363,0.083,0.643,0.309,0.662,0.645c0.024,0.346-0.17,0.683-0.468,0.877
						c-0.298,0.203-0.669,0.299-1.028,0.344c-0.721,0.082-1.391-0.049-1.938-0.194c-1.1-0.315-1.771-0.604-1.803-0.531
						c-0.021,0.05,0.584,0.445,1.699,0.86c0.558,0.195,1.271,0.381,2.089,0.313c0.401-0.035,0.845-0.127,1.249-0.394
						c0.402-0.254,0.729-0.756,0.684-1.312c-0.023-0.598-0.591-0.998-1.031-1.072c-0.464-0.104-0.879-0.073-1.271-0.057
						c-0.787,0.051-1.484,0.205-2.05,0.387C212.847,281.771,212.251,282.217,212.279,282.264z"/>
				</g>
			</g>
		</g>
		<g>
			<g>
				<g>
					<path fill="#263238" d="M194.916,298.891c0.031,0.041,0.465-0.279,0.676-1.07c0.23-0.771,0.087-1.957-0.518-2.996
						c-0.287-0.524-0.62-0.979-0.926-1.379c-0.303-0.401-0.614-0.766-0.936-1.008c-0.321-0.248-0.653-0.359-0.884-0.367
						c-0.229-0.01-0.349,0.046-0.346,0.076c0.001,0.074,0.494,0.037,1.004,0.558c0.262,0.246,0.519,0.592,0.798,1.006
						c0.281,0.41,0.593,0.858,0.86,1.349c0.562,0.975,0.729,1.98,0.606,2.691C195.153,298.464,194.852,298.843,194.916,298.891z"/>
				</g>
			</g>
		</g>
		<g>
			<g>
				<g>
					<path fill="#263238" d="M204.828,291.482c0.128,0.015,0.087-1.389-0.974-2.645c-1.047-1.271-2.421-1.559-2.431-1.431
						c-0.053,0.137,1.116,0.593,2.056,1.741C204.443,290.277,204.686,291.512,204.828,291.482z"/>
				</g>
			</g>
		</g>
		<g>
			<g>
				<g>
					<path fill="#263238" d="M224.638,286.583c-0.024-0.028-0.448,0.283-1.215,0.833c-0.777,0.536-1.919,1.291-3.404,2.086
						c-1.482,0.797-3.317,1.625-5.407,2.408c-2.09,0.779-4.437,1.514-6.913,2.234c-4.97,1.431-9.468,2.736-12.71,3.713
						c-1.557,0.479-2.849,0.875-3.839,1.179c-0.901,0.289-1.396,0.465-1.387,0.496c0.008,0.032,0.521-0.08,1.441-0.313
						c0.999-0.266,2.305-0.609,3.878-1.029c3.271-0.892,7.778-2.146,12.75-3.578c2.485-0.719,4.842-1.473,6.938-2.281
						c2.1-0.811,3.938-1.682,5.415-2.525c1.482-0.843,2.604-1.646,3.353-2.236C224.273,286.967,224.656,286.605,224.638,286.583z"/>
				</g>
			</g>
		</g>
		<g>
			<g>
				<g>
					<path fill="#263238" d="M225.66,286.955c0.014-0.057-0.856-0.377-2.341-0.624c-1.456-0.229-3.668-0.347-5.802,0.709
						c-1.058,0.526-1.895,1.321-2.482,2.135c-0.602,0.813-0.998,1.624-1.297,2.312c-0.581,1.383-0.819,2.271-0.768,2.294
						c0.072,0.026,0.428-0.825,1.08-2.147c0.656-1.285,1.692-3.166,3.686-4.154c1.987-0.987,4.1-0.94,5.542-0.803
						C224.741,286.829,225.643,287.029,225.66,286.955z"/>
				</g>
			</g>
		</g>
	</g>
	<g>
		<g>
			<g>
				<path fill="#7B92CA" d="M274.587,231.436c0,0,8.284,2.957,8.319,12.244c0.065,17.791-35.949,37.402-35.949,37.402
					l-47.928-31.755l-3.003-1.218C196.026,248.109,260.724,223.809,274.587,231.436z"/>
			</g>
		</g>
		<g>
			<g>
				<g>
					<path fill="#455B65" d="M223.309,265.366c0.021,0.026,0.463-0.276,1.247-0.847c0.787-0.57,1.907-1.414,3.278-2.477
						c2.744-2.12,6.479-5.127,10.494-8.572c4.017-3.451,7.553-6.688,10.063-9.078c1.256-1.194,2.261-2.176,2.942-2.865
						c0.683-0.688,1.049-1.082,1.025-1.105c-0.022-0.025-0.435,0.323-1.155,0.969c-0.782,0.709-1.81,1.633-3.045,2.75
						c-2.571,2.325-6.139,5.516-10.147,8.961c-4.011,3.442-7.705,6.484-10.391,8.676c-1.292,1.054-2.362,1.928-3.181,2.594
						C223.693,264.982,223.287,265.337,223.309,265.366z"/>
				</g>
			</g>
		</g>
		<g>
			<g>
				<g>
					<path fill="#455B65" d="M261.058,238.084c0.018-0.12-2.12-0.329-4.619,0.418c-2.504,0.729-4.186,2.066-4.104,2.156
						c0.078,0.127,1.826-0.986,4.245-1.688C258.986,238.247,261.06,238.23,261.058,238.084z"/>
				</g>
			</g>
		</g>
		<g>
			<g>
				<g>
					<path fill="#455B65" d="M256.929,235.279c-0.042-0.115-1.58,0.56-2.841,2.137c-1.276,1.564-1.613,3.21-1.489,3.229
						c0.139,0.047,0.663-1.443,1.87-2.92C255.657,236.232,257.006,235.406,256.929,235.279z"/>
				</g>
			</g>
		</g>
		<g>
			<g>
				<g>
					<path fill="#263238" d="M277.224,291.611c0.024-0.055-0.572-0.17-1.233,0.378c-0.653,0.521-1.207,1.563-1.388,2.782
						c-0.179,1.225,0.095,2.352,0.438,3.065c0.339,0.729,0.713,1.072,0.754,1.034c0.065-0.045-0.196-0.448-0.435-1.162
						c-0.242-0.707-0.438-1.746-0.272-2.871c0.164-1.117,0.623-2.084,1.133-2.593C276.728,291.712,277.233,291.691,277.224,291.611z
						"/>
				</g>
			</g>
		</g>
	</g>
	<g>
		<g>
			<polygon fill="#455B65" points="263.564,202.369 246.493,245.639 172.995,246.835 171.636,242.857 197.394,241.926 
				209.773,203.54 			"/>
		</g>
		<g>
			<path fill="#EBEBEB" d="M229.24,221.102c0.941-0.641,2.688-0.385,3.532,0.377c0.851,0.761,1.125,2.078,0.691,3.131
				c-0.429,1.055-1.517,1.795-2.653,1.854c-1.21,0.065-2.469-0.69-2.808-1.854C227.666,223.447,228.041,221.712,229.24,221.102"/>
		</g>
	</g>
	<g>
		<g>
			<g>
				<path fill="#7B92CA" d="M251.495,283.244c0,0-67.716-44.418-70.487-45.342c-2.773-0.924-9.472-5.313-16.174-3.467
					c-6.701,1.85-12.708,7.856-15.712,16.638c-1.716,5.015-2.527,13.573-2.907,19.993c-0.455,7.672,1.921,15.324,6.94,21.146
					c2.285,2.648,5.103,4.954,8.443,5.996c0.704,0.219,1.438,0.407,2.188,0.57c12.803,2.777,25.961-2.971,33.153-13.92l1.58-2.405
					c0,0,44.296,16.274,44.989,16.045L251.495,283.244z"/>
			</g>
		</g>
		<g>
			<g>
				<g>
					<path fill="#455B65" d="M167.722,271.018c0,0,0.123,0.063,0.372,0.166c0.267,0.105,0.635,0.252,1.108,0.438
						c0.999,0.385,2.441,0.939,4.294,1.654c3.765,1.416,9.199,3.465,15.956,6.009c6.776,2.528,14.895,5.534,24.001,8.849
						c9.107,3.311,19.204,6.944,29.983,10.594l0.193,0.067l0.097-0.185c1.693-3.23,3.479-6.643,5.291-10.102
						c0.924-1.766,1.84-3.517,2.695-5.154l0.104-0.197l-0.188-0.118c-20.334-12.908-38.525-24.456-51.652-32.79
						c-6.557-4.135-11.844-7.471-15.515-9.786c-1.817-1.134-3.235-2.019-4.214-2.63c-0.471-0.287-0.836-0.512-1.1-0.674
						c-0.25-0.149-0.383-0.215-0.383-0.215s0.118,0.093,0.358,0.255c0.258,0.172,0.615,0.409,1.076,0.714
						c0.97,0.629,2.369,1.536,4.167,2.703c3.649,2.345,8.912,5.727,15.434,9.914c13.104,8.365,31.268,19.957,51.566,32.916
						l-0.083-0.317c-0.855,1.634-1.773,3.388-2.698,5.152c-1.811,3.46-3.596,6.87-5.286,10.104l0.291-0.118
						c-10.775-3.641-20.872-7.259-29.991-10.541c-9.102-3.313-17.231-6.271-24.036-8.748c-6.774-2.484-12.227-4.483-16.004-5.869
						c-1.864-0.68-3.317-1.207-4.322-1.574c-0.481-0.169-0.854-0.301-1.125-0.396C167.855,271.051,167.722,271.018,167.722,271.018z
						"/>
				</g>
			</g>
		</g>
	</g>
	<g>
		<g>
			<path fill="#263238" d="M174.748,113.289c1.155-3.123,3.706-4.478,6.942-5.26c3.235-0.782,6.832,0.146,9.285,2.394
				c1.643,1.503,2.844,3.581,4.873,4.5c3.338,1.514,7.615-0.698,10.778,1.152c1.875,1.095,2.793,3.587,2.081,5.635
				c-0.713,2.049-2.98,3.432-5.129,3.127c2.176,1.028,2.582,4.3,1.083,6.185c-1.496,1.882-4.267,2.391-6.58,1.736
				c-2.314-0.655-4.238-2.271-5.872-4.036c-1.637-1.763-3.067-3.722-4.837-5.35c-1.772-1.629-3.98-2.94-6.382-3.03
				c-3.255-0.122-6.258,2.066-7.967,4.839c-1.708,2.773-2.345,6.058-2.821,9.279c-0.477,3.222-0.835,6.508-2.077,9.519
				c-0.146,0.354-0.354,0.744-0.729,0.822c-0.54,0.117-0.936-0.483-1.154-0.992c-2.446-5.736-3.752-11.954-3.821-18.191
				c-0.038-3.621,0.369-7.011,2.616-9.85C167.29,112.928,172.477,111.16,174.748,113.289"/>
		</g>
		<g>
			<g>
				<g>
					<g>
						<g>
							<g>
								<g>
									<g>
										<g>
											<g>
												<g>
													<g>
														<g>
															<g>
																<path fill="#FBBF9E" d="M167.114,127.743l-4.978,36.175c-0.848,6.15,3.626,11.759,9.812,12.301l0,0
																	c5.774,0.506,10.927-3.615,11.712-9.357c0.372-2.723,0.686-4.992,0.741-5.271c0,0,9.329,0.4,11.248-8.623
																	c0.93-4.359,2.106-13.496,3.077-21.774c1.043-8.89-4.929-17.087-13.705-18.842l-0.875-0.175
																	C174.629,110.846,168.18,118.188,167.114,127.743z"/>
															</g>
														</g>
													</g>
												</g>
											</g>
										</g>
									</g>
								</g>
								<g>
									<g>
										<g>
											<g>
												<g>
													<g>
														<g>
															<g>
																<path fill="#F7996E" d="M184.444,161.463c0,0-5.809-0.678-11.122-5.708c0,0,1.488,7.065,10.676,8.058
																	L184.444,161.463z"/>
															</g>
														</g>
													</g>
												</g>
											</g>
										</g>
									</g>
								</g>
							</g>
						</g>
					</g>
					<g>
						<g>
							<g>
								<g>
									<g>
										<g>
											<g>
												<g>
													<g>
														<g>
															<g>
																<g>
																	<g>
																		<g>
																			<path fill="#263238" d="M194.883,136.726c-0.112,0.686-0.787,1.158-1.506,1.055
																				c-0.717-0.104-1.212-0.743-1.1-1.432c0.112-0.687,0.786-1.161,1.505-1.056S194.994,136.038,194.883,136.726z"/>
																		</g>
																	</g>
																</g>
															</g>
														</g>
													</g>
												</g>
											</g>
											<g>
												<g>
													<g>
														<g>
															<g>
																<g>
																	<g>
																		<g>
																			<g>
																				<path fill="#263238" d="M195.897,135.245c-0.193,0.136-1.025-0.783-2.419-1.058
																					c-1.384-0.292-2.549,0.217-2.664,0.017c-0.06-0.088,0.164-0.361,0.672-0.594
																					c0.502-0.235,1.312-0.399,2.178-0.224c0.864,0.178,1.528,0.642,1.883,1.053
																					C195.907,134.852,195.991,135.185,195.897,135.245z"/>
																			</g>
																		</g>
																	</g>
																</g>
															</g>
														</g>
													</g>
												</g>
											</g>
										</g>
										<g>
											<g>
												<g>
													<g>
														<g>
															<g>
																<g>
																	<g>
																		<g>
																			<path fill="#263238" d="M181.154,134.474c-0.111,0.687-0.786,1.158-1.505,1.055
																				c-0.719-0.106-1.211-0.745-1.1-1.431c0.112-0.688,0.787-1.16,1.504-1.056
																				C180.774,133.145,181.268,133.786,181.154,134.474z"/>
																		</g>
																	</g>
																</g>
															</g>
														</g>
													</g>
												</g>
											</g>
											<g>
												<g>
													<g>
														<g>
															<g>
																<g>
																	<g>
																		<g>
																			<g>
																				<path fill="#263238" d="M182.182,132.774c-0.192,0.136-1.029-0.784-2.418-1.057
																					c-1.385-0.295-2.548,0.216-2.666,0.016c-0.059-0.089,0.164-0.36,0.676-0.597
																					c0.502-0.233,1.311-0.396,2.175-0.221c0.865,0.177,1.529,0.642,1.883,1.051
																					C182.191,132.382,182.275,132.714,182.182,132.774z"/>
																			</g>
																		</g>
																	</g>
																</g>
															</g>
														</g>
													</g>
												</g>
											</g>
										</g>
										<g>
											<g>
												<g>
													<g>
														<g>
															<g>
																<g>
																	<g>
																		<g>
																			<path fill="#263238" d="M185.167,144.091c0.009-0.081,0.902-0.059,2.338,0.043
																				c0.362,0.034,0.713,0.031,0.821-0.199c0.133-0.24,0.063-0.653-0.026-1.1c-0.163-0.925-0.332-1.895-0.51-2.911
																				c-0.688-4.14-1.113-7.516-0.946-7.542c0.168-0.025,0.862,3.307,1.55,7.447c0.162,1.02,0.317,1.99,0.463,2.921
																				c0.054,0.429,0.192,0.933-0.095,1.431c-0.148,0.244-0.449,0.387-0.687,0.4c-0.241,0.026-0.442-0.011-0.621-0.035
																				C186.032,144.339,185.157,144.17,185.167,144.091z"/>
																		</g>
																	</g>
																</g>
															</g>
														</g>
													</g>
												</g>
											</g>
										</g>
										<g>
											<g>
												<g>
													<g>
														<g>
															<g>
																<g>
																	<g>
																		<g>
																			<path fill="#263238" d="M180.883,144.233c0.229,0.033-0.069,1.542,1.009,2.871
																				c1.074,1.333,2.717,1.483,2.688,1.698c0.001,0.098-0.418,0.222-1.102,0.104c-0.669-0.111-1.6-0.521-2.259-1.333
																				c-0.656-0.813-0.82-1.758-0.747-2.388C180.54,144.546,180.782,144.204,180.883,144.233z"/>
																		</g>
																	</g>
																</g>
															</g>
														</g>
													</g>
												</g>
											</g>
										</g>
									</g>
								</g>
							</g>
							<g>
								<g>
									<g>
										<g>
											<g>
												<g>
													<g>
														<g>
															<path fill="#263238" d="M183.63,127.399c-0.213,0.349-1.564-0.107-3.235-0.236c-1.668-0.163-3.078,0.052-3.228-0.329
																c-0.064-0.183,0.236-0.491,0.842-0.751c0.599-0.261,1.51-0.44,2.51-0.353c1.001,0.088,1.866,0.424,2.412,0.783
																C183.481,126.874,183.724,127.23,183.63,127.399z"/>
														</g>
													</g>
												</g>
											</g>
										</g>
									</g>
								</g>
							</g>
							<g>
								<g>
									<g>
										<g>
											<g>
												<g>
													<g>
														<g>
															<path fill="#263238" d="M196.19,131.121c-0.307,0.266-1.199-0.252-2.349-0.5c-1.138-0.284-2.168-0.212-2.328-0.585
																c-0.064-0.181,0.151-0.468,0.637-0.681c0.479-0.213,1.23-0.315,2.018-0.134c0.785,0.183,1.416,0.605,1.751,1.011
																C196.261,130.635,196.328,130.986,196.19,131.121z"/>
														</g>
													</g>
												</g>
											</g>
										</g>
									</g>
								</g>
							</g>
						</g>
					</g>
				</g>
			</g>
		</g>
		<g>
			<g>
				<g>
					<g>
						<g>
							<g>
								<g>
									<g>
										<g>
											<path fill="#FBBF9E" d="M166.514,134.587c-0.141-0.096-5.847-3.079-6.886,3.145c-1.038,6.222,5.425,5.982,5.464,5.805
												C165.133,143.361,166.514,134.587,166.514,134.587z"/>
										</g>
									</g>
								</g>
							</g>
						</g>
					</g>
				</g>
			</g>
			<g>
				<g>
					<g>
						<g>
							<g>
								<g>
									<g>
										<g>
											<g>
												<path fill="#F7996E" d="M163.585,140.861c-0.025-0.026-0.122,0.058-0.318,0.111c-0.192,0.052-0.509,0.06-0.812-0.117
													c-0.618-0.352-0.999-1.488-0.84-2.614c0.078-0.571,0.287-1.089,0.561-1.501c0.266-0.425,0.615-0.693,0.955-0.696
													c0.342-0.021,0.543,0.215,0.59,0.403c0.054,0.188-0.006,0.307,0.026,0.321c0.015,0.021,0.151-0.08,0.143-0.345
													c-0.005-0.128-0.053-0.288-0.179-0.432c-0.129-0.144-0.338-0.244-0.574-0.257c-0.483-0.047-0.99,0.323-1.292,0.775
													c-0.33,0.453-0.578,1.033-0.665,1.673c-0.17,1.26,0.276,2.54,1.133,2.951c0.418,0.188,0.805,0.116,1.02,0
													C163.549,141.01,163.605,140.878,163.585,140.861z"/>
											</g>
										</g>
									</g>
								</g>
							</g>
						</g>
					</g>
				</g>
			</g>
		</g>
		<g>
			<path fill="#263238" d="M201.018,129.698c-4.197,0.265-8.472-1.637-11.082-4.933c-1.829-2.307-2.991-5.327-5.578-6.727
				c-1.741-0.941-3.886-0.954-5.771-0.354c-1.889,0.6-3.553,1.76-5.041,3.063c0.828,4.947-1.372,9.843-3.514,14.377
				c-0.237,0.501-0.508,1.038-1.005,1.283c-0.845,0.417-1.851-0.244-2.357-1.037c-0.808-1.273-0.902-2.861-0.874-4.367
				c0.07-3.432,0.672-6.882,2.066-10.02c1.392-3.137,3.606-5.951,6.505-7.79c3.62-2.299,8.185-2.956,12.377-2.051
				c4.19,0.905,8,3.308,10.85,6.513c1.322,1.487,2.474,3.194,2.923,5.134"/>
		</g>
	</g>
</g>
</svg>
