<?xml version="1.0" encoding="utf-8"?>
<!-- Generator: Adobe Illustrator 16.0.0, SVG Export Plug-In . SVG Version: 6.00 Build 0)  -->
<!DOCTYPE svg PUBLIC "-//W3C//DTD SVG 1.1//EN" "http://www.w3.org/Graphics/SVG/1.1/DTD/svg11.dtd">
<svg version="1.1" id="Layer_1" xmlns="http://www.w3.org/2000/svg" xmlns:xlink="http://www.w3.org/1999/xlink" x="0px" y="0px"
	 width="640px" height="300px" viewBox="0 0 640 300" enable-background="new 0 0 640 300" xml:space="preserve">
<g>
	<g>
		<circle fill="#52909D" cx="55.169" cy="162.819" r="1.265"/>
		<circle fill="#52909D" cx="66.395" cy="110.486" r="2.688"/>
		<circle fill="#52909D" cx="92.932" cy="116.652" r="2.846"/>
		<circle fill="#52909D" cx="26.078" cy="189.381" r="0.949"/>
		<circle fill="#52909D" cx="7.739" cy="269.064" r="2.846"/>
		<circle fill="#52909D" cx="189.533" cy="87.72" r="3.32"/>
		<circle fill="#52909D" cx="173.722" cy="46.613" r="3.004"/>
		<path fill="#52909D" d="M436.964,295.783"/>
		<path fill="#52909D" d="M438.703,297.521"/>
	</g>
	<g>
		<circle fill="none" stroke="#52909D" stroke-miterlimit="10" cx="319.877" cy="200.488" r="0.646"/>
		<circle fill="none" stroke="#52909D" stroke-miterlimit="10" cx="202.209" cy="299.537" r="2.198"/>
		<circle fill="none" stroke="#52909D" stroke-miterlimit="10" cx="6.586" cy="288.287" r="2.586"/>
		<circle fill="none" stroke="#52909D" stroke-miterlimit="10" cx="25.724" cy="160.79" r="3.879"/>
		<circle fill="none" stroke="#52909D" stroke-miterlimit="10" cx="46.542" cy="126.525" r="1.94"/>
		<circle fill="none" stroke="#52909D" stroke-miterlimit="10" cx="101.479" cy="89.673" r="5.431"/>
		<circle fill="none" stroke="#52909D" stroke-miterlimit="10" cx="136.133" cy="43.64" r="1.552"/>
		<circle fill="none" stroke="#52909D" stroke-miterlimit="10" cx="58.032" cy="50.623" r="3.104"/>
		<circle fill="none" stroke="#52909D" stroke-miterlimit="10" cx="248.112" cy="36.14" r="2.586"/>
		<circle fill="none" stroke="#52909D" stroke-miterlimit="10" cx="80.768" cy="11.456" r="3.867"/>
		<circle fill="none" stroke="#52909D" stroke-miterlimit="10" cx="27.251" cy="60.586" r="3.412"/>
	</g>
</g>
<g>
	<g>
		<g>
			<path fill="#7CC46A" d="M566.623,284.846c-0.901-2.947-2.966-5.702-5.896-6.646c-2.933-0.945-6.652,0.487-7.564,3.426
				c-2.697-2.251-6.83-0.466-8.998,2.302c-3.505,4.472-0.798,11.797-0.212,12.274c0.632,0.512,2.346,0.424,2.346,0.424l26.229-0.146
				c0,0,4.811-0.353,7.032-1.237c4.47-1.779,7.509-9.472,4.631-13.326c-1.958-2.631-5.827-3.187-8.953-2.189
				C572.114,280.725,569.085,282.679,566.623,284.846"/>
		</g>
		<g>
			<path fill="#51AA50" d="M545.923,297.502c-0.664,0-1.85-0.09-2.517-0.631c-1.028-0.834-3.642-8.729,0.077-13.478
				c1.567-1.996,3.912-3.383,6.126-3.617c1.156-0.131,2.232,0.072,3.173,0.563c0.563-1.012,1.455-1.862,2.588-2.451
				c1.725-0.898,3.828-1.094,5.625-0.512c2.605,0.838,4.792,3.044,6.022,6.006c2.554-2.071,5.344-3.645,7.958-4.479
				c3.131-1.001,7.569-0.646,9.91,2.494c1.349,1.812,1.661,4.485,0.856,7.341c-0.964,3.404-3.263,6.275-5.861,7.311
				c-2.318,0.926-7.09,1.28-7.292,1.297l-26.284,0.147C546.217,297.495,546.086,297.502,545.923,297.502z M550.281,281.473
				c-0.16,0-0.325,0.006-0.492,0.025c-1.735,0.184-3.677,1.347-4.943,2.965c-3.077,3.928-0.778,10.479-0.274,11.137
				c0.115,0.086,0.981,0.203,1.679,0.16l26.271-0.146c-0.012,0,4.648-0.352,6.719-1.175c2.082-0.828,4.025-3.311,4.836-6.172
				c0.658-2.332,0.446-4.459-0.576-5.832c-1.833-2.463-5.433-2.703-7.995-1.883c-2.727,0.872-5.679,2.628-8.307,4.943
				c-0.22,0.195-0.525,0.266-0.808,0.188c-0.282-0.084-0.506-0.302-0.594-0.582c-0.923-3.026-2.919-5.298-5.332-6.077
				c-1.361-0.438-2.97-0.286-4.294,0.401c-1.089,0.565-1.861,1.437-2.177,2.458c-0.087,0.279-0.306,0.494-0.583,0.574
				c-0.273,0.083-0.575,0.02-0.8-0.164C551.957,281.746,551.173,281.473,550.281,281.473z"/>
		</g>
	</g>
	<g>
		<g>
			<g>
				<path fill="#51AA50" d="M539.041,283.854c-0.751,1.458-1.074,3.046-0.896,4.68c0.089,0.823,1.389,0.831,1.3,0
					c-0.155-1.411,0.065-2.761,0.715-4.024C540.543,283.766,539.421,283.107,539.041,283.854L539.041,283.854z"/>
			</g>
		</g>
	</g>
	<g>
		<g>
			<g>
				<path fill="#51AA50" d="M535.249,284.896c-0.408,1.466-0.438,2.935-0.111,4.422c0.179,0.82,1.432,0.474,1.253-0.341
					c-0.276-1.264-0.233-2.492,0.111-3.735C536.727,284.43,535.474,284.088,535.249,284.896L535.249,284.896z"/>
			</g>
		</g>
	</g>
	<g>
		<g>
			<g>
				<path fill="#51AA50" d="M542.536,282.258c0.835,0,0.838-1.297,0-1.297C541.702,280.961,541.699,282.258,542.536,282.258
					L542.536,282.258z"/>
			</g>
		</g>
	</g>
	<g>
		<g>
			<g>
				<path fill="#51AA50" d="M546.217,288.536c0,0.386,0,0.77,0,1.156c0,0.835,1.3,0.835,1.3,0c0-0.387,0-0.771,0-1.156
					C547.517,287.699,546.217,287.699,546.217,288.536L546.217,288.536z"/>
			</g>
		</g>
	</g>
	<g>
		<g>
			<g>
				<path fill="#51AA50" d="M568.156,290.559c0,0.192,0,0.385,0,0.576c0,0.834,1.298,0.838,1.298,0c0-0.192,0-0.387,0-0.576
					C569.454,289.722,568.156,289.719,568.156,290.559L568.156,290.559z"/>
			</g>
		</g>
	</g>
	<g>
		<g>
			<g>
				<path fill="#51AA50" d="M565.747,288.995c0.095,0.098,0.192,0.193,0.287,0.29c0.593,0.59,1.514-0.328,0.921-0.922
					c-0.095-0.094-0.191-0.192-0.287-0.286C566.075,287.484,565.155,288.405,565.747,288.995L565.747,288.995z"/>
			</g>
		</g>
	</g>
</g>
<g>
	<path fill="#415C92" d="M159.638,271.754h-30.786c-0.67,0-1.213-0.541-1.213-1.213c0-0.669,0.543-1.212,1.213-1.212h30.786
		c0.669,0,1.212,0.543,1.212,1.212C160.85,271.213,160.307,271.754,159.638,271.754z"/>
</g>
<g>
	<g>
		<g>
			<g>
				<g>
					<path fill="#415C92" d="M217.59,263.279C217.166,263.279,217.166,263.279,217.59,263.279"/>
				</g>
			</g>
		</g>
		<g>
			<g>
				<g>
					<g>
						<path fill="#415C92" d="M217.59,265.784c3.225,0,3.229-5.013,0-5.013C214.366,260.771,214.36,265.784,217.59,265.784
							L217.59,265.784z"/>
					</g>
				</g>
			</g>
		</g>
	</g>
	<g>
		<g>
			<g>
				<g>
					<path fill="#415C92" d="M227.693,263.279C227.269,263.279,227.269,263.279,227.693,263.279"/>
				</g>
			</g>
		</g>
		<g>
			<g>
				<g>
					<g>
						<path fill="#415C92" d="M227.693,265.784c3.225,0,3.229-5.013,0-5.013C224.468,260.771,224.463,265.784,227.693,265.784
							L227.693,265.784z"/>
					</g>
				</g>
			</g>
		</g>
	</g>
	<g>
		<g>
			<g>
				<g>
					<path fill="#415C92" d="M237.795,263.279C237.372,263.279,237.372,263.279,237.795,263.279"/>
				</g>
			</g>
		</g>
		<g>
			<g>
				<g>
					<g>
						<path fill="#415C92" d="M237.795,265.784c3.225,0,3.23-5.013,0-5.013C234.571,260.771,234.565,265.784,237.795,265.784
							L237.795,265.784z"/>
					</g>
				</g>
			</g>
		</g>
	</g>
</g>
<g>
	<g>
		<g>
			<path fill="#B9CEEB" d="M246.082,89.146l1.644-1.647c0.336-0.331,0.336-0.872,0-1.207l-1.432-1.431
				c-0.33-0.333-0.418-0.939-0.192-1.351l1.167-2.834c0.132-0.454,0.628-0.823,1.096-0.823h2.028c0.471,0,0.853-0.383,0.853-0.849
				v-2.332c0-0.472-0.382-0.851-0.853-0.851h-2.028c-0.468,0-0.964-0.369-1.096-0.821l-1.167-2.833
				c-0.226-0.413-0.138-1.021,0.192-1.355l1.432-1.43c0.336-0.334,0.336-0.875,0-1.204l-1.644-1.651
				c-0.333-0.333-0.875-0.333-1.206,0l-1.434,1.433c-0.333,0.332-0.939,0.419-1.35,0.196l-2.837-1.169
				c-0.451-0.134-0.819-0.624-0.819-1.096v-2.028c0-0.468-0.381-0.855-0.852-0.855h-2.328c-0.473,0-0.854,0.387-0.854,0.855v2.028
				c0,0.472-0.368,0.962-0.819,1.096l-2.837,1.169c-0.41,0.223-1.02,0.136-1.35-0.196l-1.436-1.431
				c-0.331-0.334-0.872-0.334-1.202,0l-1.651,1.649c-0.333,0.329-0.333,0.869,0,1.204l1.433,1.43
				c0.332,0.335,0.42,0.942,0.195,1.355L225.567,75c-0.132,0.452-0.627,0.821-1.095,0.821h-2.031c-0.467,0-0.852,0.379-0.852,0.851
				v2.332c0,0.466,0.384,0.849,0.852,0.849h2.031c0.468,0,0.963,0.369,1.095,0.823l1.168,2.834c0.225,0.413,0.137,1.017-0.195,1.351
				l-1.433,1.431c-0.333,0.334-0.333,0.875,0,1.207l1.651,1.647c0.33,0.335,0.871,0.335,1.202,0l1.436-1.432
				c0.33-0.331,0.939-0.418,1.353-0.192l2.834,1.167c0.451,0.13,0.819,0.624,0.819,1.094v2.032c0,0.466,0.382,0.851,0.854,0.851
				h2.328c0.47,0,0.852-0.385,0.852-0.851v-2.032c0-0.471,0.368-0.964,0.819-1.094l2.837-1.167c0.411-0.226,1.017-0.139,1.35,0.192
				l1.434,1.432C245.207,89.481,245.749,89.481,246.082,89.146z M236.419,84.641c-3.758,0-6.805-3.049-6.805-6.804
				c0-3.758,3.047-6.803,6.805-6.803c3.758,0,6.805,3.045,6.805,6.803C243.224,81.592,240.178,84.641,236.419,84.641z"/>
		</g>
	</g>
	<g>
		<g>
			<path fill="#B9CEEB" d="M261.818,95.576l-0.416-1.381c-0.086-0.28-0.381-0.438-0.66-0.355l-1.2,0.366
				c-0.28,0.084-0.64-0.047-0.798-0.295l-1.208-1.464c-0.203-0.203-0.263-0.582-0.124-0.839l0.592-1.106
				c0.139-0.258,0.041-0.579-0.212-0.717l-1.272-0.681c-0.256-0.139-0.578-0.039-0.716,0.217l-0.595,1.106
				c-0.137,0.255-0.483,0.417-0.766,0.359l-1.893-0.191c-0.288,0.002-0.598-0.222-0.68-0.502l-0.366-1.201
				c-0.082-0.277-0.378-0.438-0.656-0.351l-1.383,0.413c-0.283,0.087-0.437,0.38-0.353,0.663l0.367,1.2
				c0.084,0.281-0.048,0.635-0.297,0.794l-1.466,1.21c-0.201,0.207-0.582,0.259-0.837,0.124l-1.109-0.594
				c-0.253-0.137-0.577-0.042-0.713,0.217l-0.684,1.269c-0.134,0.259-0.04,0.582,0.216,0.717l1.107,0.597
				c0.259,0.137,0.419,0.481,0.36,0.765l-0.188,1.889c0,0.292-0.224,0.603-0.505,0.682l-1.201,0.367
				c-0.281,0.083-0.439,0.381-0.354,0.659l0.418,1.379c0.083,0.282,0.38,0.438,0.661,0.353l1.203-0.363
				c0.276-0.082,0.632,0.05,0.791,0.292l1.209,1.468c0.206,0.204,0.261,0.583,0.125,0.838l-0.595,1.106
				c-0.135,0.256-0.039,0.577,0.218,0.718l1.27,0.678c0.257,0.137,0.578,0.041,0.717-0.214l0.595-1.109
				c0.134-0.259,0.483-0.417,0.766-0.36l1.888,0.192c0.296,0,0.602,0.223,0.684,0.505l0.363,1.199c0.084,0.28,0.383,0.44,0.66,0.353
				l1.381-0.417c0.277-0.084,0.437-0.381,0.357-0.658l-0.366-1.201c-0.087-0.277,0.043-0.64,0.288-0.796l1.469-1.207
				c0.203-0.208,0.583-0.264,0.839-0.128l1.106,0.594c0.258,0.142,0.583,0.042,0.717-0.214l0.68-1.272
				c0.14-0.253,0.039-0.578-0.217-0.716l-1.109-0.595c-0.257-0.141-0.418-0.481-0.357-0.763l0.192-1.896
				c-0.002-0.288,0.225-0.598,0.501-0.681l1.202-0.363C261.743,96.149,261.902,95.855,261.818,95.576z M256.531,99.533
				c-1.099,2.055-3.66,2.827-5.708,1.727c-2.053-1.101-2.826-3.657-1.727-5.705c1.099-2.059,3.66-2.83,5.71-1.729
				C256.855,94.928,257.629,97.482,256.531,99.533z"/>
		</g>
	</g>
</g>
<g>
	<g>
		<path fill="#415C92" d="M173.436,198.51c-0.731,0-1.326-0.594-1.326-1.326v-5.164c0-0.734,0.594-1.326,1.326-1.326
			c0.733,0,1.327,0.592,1.327,1.326v5.164C174.763,197.916,174.169,198.51,173.436,198.51z"/>
	</g>
	<g>
		<path fill="#415C92" d="M176.019,195.927h-5.164c-0.732,0-1.326-0.592-1.326-1.327c0-0.732,0.594-1.327,1.326-1.327h5.164
			c0.733,0,1.328,0.595,1.328,1.327C177.346,195.335,176.752,195.927,176.019,195.927z"/>
	</g>
</g>
<g>
	<g>
		<path fill="#415C92" d="M374.954,282.794c-0.109,0-0.222-0.017-0.334-0.046l-4.54-1.295c-0.645-0.186-1.016-0.855-0.832-1.5
			s0.855-1.01,1.498-0.834l4.54,1.295c0.645,0.186,1.018,0.855,0.833,1.501C375.968,282.447,375.481,282.794,374.954,282.794z"/>
	</g>
	<g>
		<path fill="#415C92" d="M372.035,284.415c-0.109,0-0.222-0.015-0.333-0.045c-0.646-0.187-1.018-0.854-0.834-1.498l1.297-4.541
			c0.186-0.644,0.855-1.013,1.499-0.833c0.645,0.186,1.019,0.854,0.833,1.498l-1.297,4.54
			C373.049,284.07,372.563,284.415,372.035,284.415z"/>
	</g>
</g>
<g>
	<g>
		<path fill="#415C92" d="M341.925,125.478c-0.121,0-0.245-0.018-0.369-0.053"/>
	</g>
</g>
<g>
	<g>
		<g>
			<circle fill="#B9CEEB" cx="441.764" cy="84.242" r="16.846"/>
		</g>
	</g>
	<g>
		<g>
			<g>
				<circle fill="#FFFFFF" cx="441.764" cy="84.242" r="12.62"/>
			</g>
		</g>
		<g>
			<g>
				<g>
					<path fill="#415C92" d="M441.765,97.351c-7.229,0-13.108-5.881-13.108-13.109c0-7.227,5.881-13.107,13.108-13.107
						c7.229,0,13.107,5.88,13.107,13.107C454.872,91.47,448.992,97.351,441.765,97.351z M441.765,72.11
						c-6.688,0-12.132,5.442-12.132,12.132c0,6.69,5.442,12.131,12.132,12.131c6.688,0,12.131-5.441,12.131-12.131
						C453.896,77.552,448.453,72.11,441.765,72.11z"/>
				</g>
			</g>
		</g>
	</g>
	<g>
		<g>
			<g>
				<path fill="#415C92" d="M441.765,84.73c-0.27,0-0.488-0.218-0.488-0.489v-6.424c0-0.27,0.22-0.489,0.488-0.489
					c0.27,0,0.488,0.219,0.488,0.489v6.424C442.253,84.512,442.034,84.73,441.765,84.73z"/>
			</g>
		</g>
		<g>
			<g>
				<path fill="#415C92" d="M449.292,84.73h-7.527c-0.27,0-0.488-0.218-0.488-0.489c0-0.27,0.22-0.488,0.488-0.488h7.527
					c0.27,0,0.488,0.218,0.488,0.488C449.78,84.512,449.562,84.73,449.292,84.73z"/>
			</g>
		</g>
	</g>
	<g>
		<g>
			<g>
				<circle fill="#415C92" cx="441.764" cy="73.047" r="0.498"/>
			</g>
		</g>
		<g>
			<g>
				<circle fill="#415C92" cx="449.68" cy="76.326" r="0.498"/>
			</g>
		</g>
		<g>
			<g>
				<circle fill="#415C92" cx="452.96" cy="84.242" r="0.499"/>
			</g>
		</g>
		<g>
			<g>
				<circle fill="#415C92" cx="449.68" cy="92.158" r="0.498"/>
			</g>
		</g>
		<g>
			<g>
				<circle fill="#415C92" cx="441.764" cy="95.437" r="0.498"/>
			</g>
		</g>
		<g>
			<g>
				<circle fill="#415C92" cx="433.848" cy="92.158" r="0.498"/>
			</g>
		</g>
		<g>
			<g>
				<circle fill="#415C92" cx="430.569" cy="84.242" r="0.499"/>
			</g>
		</g>
		<g>
			<g>
				<circle fill="#415C92" cx="433.848" cy="76.326" r="0.498"/>
			</g>
		</g>
	</g>
	<g>
		<g>
			<g>
				<path fill="#415C92" d="M466.406,77.809h-7.072c-0.271,0-0.489-0.218-0.489-0.487c0-0.271,0.221-0.489,0.489-0.489h7.072
					c0.271,0,0.489,0.218,0.489,0.489C466.896,77.591,466.677,77.809,466.406,77.809z"/>
			</g>
		</g>
		<g>
			<g>
				<path fill="#415C92" d="M466.406,91.652h-7.072c-0.271,0-0.489-0.219-0.489-0.489s0.221-0.489,0.489-0.489h7.072
					c0.271,0,0.489,0.219,0.489,0.489S466.677,91.652,466.406,91.652z"/>
			</g>
		</g>
		<g>
			<g>
				<path fill="#415C92" d="M475.2,84.732h-13.213c-0.271,0-0.487-0.218-0.487-0.489c0-0.27,0.218-0.487,0.487-0.487H475.2
					c0.27,0,0.486,0.218,0.486,0.487C475.688,84.515,475.47,84.732,475.2,84.732z"/>
			</g>
		</g>
	</g>
</g>
<g>
	<g>
		<rect x="396.597" y="277.945" fill="#FFFFFF" width="7.813" height="7.813"/>
		<path fill="#415C92" d="M405.017,286.366h-9.025v-9.026h9.025V286.366z M397.203,285.152h6.601v-6.601h-6.601V285.152z"/>
	</g>
	<g>
		<g>
			<g>
				<path fill="#415C92" d="M414.299,279.663h-7.073c-0.27,0-0.487-0.218-0.487-0.486c0-0.272,0.219-0.489,0.487-0.489h7.073
					c0.271,0,0.488,0.217,0.488,0.489C414.787,279.445,414.568,279.663,414.299,279.663z"/>
			</g>
		</g>
		<g>
			<g>
				<path fill="#415C92" d="M416.956,285.02h-9.559c-0.365,0-0.66-0.221-0.66-0.49c0-0.269,0.295-0.487,0.66-0.487h9.559
					c0.364,0,0.66,0.219,0.66,0.487C417.616,284.799,417.32,285.02,416.956,285.02z"/>
			</g>
		</g>
		<g>
			<g>
				<path fill="#415C92" d="M420.438,282.191h-13.213c-0.27,0-0.487-0.221-0.487-0.489s0.219-0.488,0.487-0.488h13.213
					c0.271,0,0.487,0.22,0.487,0.488S420.708,282.191,420.438,282.191z"/>
			</g>
		</g>
	</g>
</g>
<g>
	<g>
		<rect x="123.426" y="163.289" fill="#FFFFFF" width="7.813" height="7.813"/>
		<path fill="#415C92" d="M131.846,171.709h-9.025v-9.025h9.025V171.709z M124.033,170.496h6.6v-6.602h-6.6V170.496z"/>
	</g>
	<g>
		<g>
			<g>
				<path fill="#415C92" d="M113.537,165.007h7.073c0.271,0,0.488-0.218,0.488-0.487c0-0.271-0.218-0.488-0.488-0.488h-7.073
					c-0.27,0-0.488,0.219-0.488,0.488S113.267,165.007,113.537,165.007z"/>
			</g>
		</g>
		<g>
			<g>
				<path fill="#415C92" d="M110.88,170.361h9.56c0.364,0,0.659-0.219,0.659-0.487c0-0.271-0.295-0.489-0.659-0.489h-9.56
					c-0.365,0-0.66,0.219-0.66,0.489S110.515,170.361,110.88,170.361z"/>
			</g>
		</g>
		<g>
			<g>
				<path fill="#415C92" d="M107.398,167.533h13.212c0.271,0,0.488-0.219,0.488-0.488s-0.218-0.486-0.488-0.486h-13.212
					c-0.27,0-0.488,0.217-0.488,0.486S107.129,167.533,107.398,167.533z"/>
			</g>
		</g>
	</g>
</g>
<g>
	<g>
		<rect x="577.223" y="147.373" fill="#405C92" width="3.466" height="148.963"/>
	</g>
	<g>
		<path fill="#B9CEEB" d="M579.337,165.399h-0.762c-5.653,0-10.277-4.624-10.277-10.273v-13.765c0-5.652,4.624-10.276,10.277-10.276
			h0.762c5.651,0,10.276,4.624,10.276,10.276v13.765C589.613,160.773,584.988,165.399,579.337,165.399z"/>
	</g>
	<g>
		<g>
			<path fill="#405C92" d="M592.904,155.432c1.219,0.195,2.437,0.391,3.657,0.587c0.817,0.134,1.169-1.12,0.345-1.252
				c-1.22-0.197-2.438-0.393-3.656-0.588C592.432,154.048,592.081,155.301,592.904,155.432L592.904,155.432z"/>
		</g>
	</g>
	<g>
		<g>
			<path fill="#405C92" d="M592.778,147.495c0.957-0.17,1.907-0.192,2.871-0.102c0.832,0.078,0.827-1.22,0-1.297
				c-1.084-0.102-2.143-0.043-3.217,0.146C591.611,146.386,591.96,147.639,592.778,147.495L592.778,147.495z"/>
		</g>
	</g>
	<g>
		<g>
			<path fill="#405C92" d="M592.383,140.263c0.935-0.371,1.867-0.741,2.802-1.112c0.769-0.304,0.436-1.561-0.345-1.252
				c-0.933,0.371-1.869,0.741-2.804,1.111C591.27,139.314,591.604,140.573,592.383,140.263L592.383,140.263z"/>
		</g>
	</g>
	<g>
		<g>
			<path fill="#405C92" d="M560.532,156.641c0.958-0.134,1.887-0.355,2.804-0.668c0.785-0.268,0.447-1.523-0.347-1.252
				c-0.916,0.312-1.845,0.534-2.804,0.668C559.361,155.503,559.713,156.755,560.532,156.641L560.532,156.641z"/>
		</g>
	</g>
	<g>
		<g>
			<path fill="#405C92" d="M558.846,147.407c1.203,0.032,2.364,0.21,3.524,0.541c0.804,0.225,1.149-1.028,0.345-1.255
				c-1.267-0.355-2.556-0.548-3.869-0.584C558.01,146.086,558.01,147.383,558.846,147.407L558.846,147.407z"/>
		</g>
	</g>
	<g>
		<g>
			<path fill="#405C92" d="M559.98,136.719c0.934,0.301,1.869,0.597,2.806,0.896c0.798,0.257,1.14-0.997,0.345-1.252
				c-0.937-0.299-1.872-0.594-2.809-0.896C559.526,135.214,559.185,136.468,559.98,136.719L559.98,136.719z"/>
		</g>
	</g>
	<g>
		<polygon fill="#415C92" points="570.872,298.355 573.183,278.444 584.44,278.444 587.037,298.068 		"/>
	</g>
</g>
<g>
	<g>
		<g>
			<path fill="#D8E5F5" d="M284.804,196.831c11.812-10.681,23.624-21.36,35.437-32.039c1.751-1.582-0.843-4.164-2.585-2.588
				c-11.813,10.679-23.627,21.358-35.439,32.039C280.467,195.824,283.06,198.407,284.804,196.831L284.804,196.831z"/>
		</g>
	</g>
	<g>
		<g>
			<path fill="#D8E5F5" d="M324.854,213.17c11.813-10.679,23.624-21.358,35.438-32.037c1.75-1.584-0.844-4.162-2.588-2.586
				c-11.814,10.677-23.627,21.356-35.439,32.036C320.518,212.165,323.109,214.747,324.854,213.17L324.854,213.17z"/>
		</g>
	</g>
	<g>
		<g>
			<path fill="#D8E5F5" d="M281.334,225.275c24.76-24.143,49.516-48.286,74.275-72.428c1.688-1.646-0.899-4.233-2.587-2.588
				c-24.759,24.142-49.517,48.284-74.274,72.427C277.06,224.336,279.648,226.919,281.334,225.275L281.334,225.275z"/>
		</g>
	</g>
</g>
<g>
	<path fill="#415C92" d="M225.988,119.461"/>
	<g>
		<path fill="#415C92" d="M225.988,121.279c2.341,0,2.345-3.638,0-3.638C223.647,117.641,223.643,121.279,225.988,121.279
			L225.988,121.279z"/>
	</g>
</g>
<g>
	<path fill="#415C92" d="M154.037,238.301"/>
	<g>
		<path fill="#415C92" d="M154.037,240.121c2.341,0,2.345-3.639,0-3.639C151.696,236.482,151.692,240.121,154.037,240.121
			L154.037,240.121z"/>
	</g>
</g>
<g>
	<g>
		<path fill="#263238" d="M640,299.243c0,0.213-143.281,0.387-319.984,0.387C143.249,299.63,0,299.456,0,299.243
			c0-0.214,143.249-0.386,320.016-0.386C496.719,298.857,640,299.029,640,299.243z"/>
	</g>
</g>
<g>
	<g>
		<g>
			<g>
				<path fill="#FAFBFB" d="M142.177,19.978c-13.033,20.5-12.18,48.922,2.06,68.602c9.493,13.119,23.732,21.913,35.039,33.506
					c11.307,11.594,19.895,28.678,13.928,43.732c-6.074,15.325-23.867,21.559-37.192,31.267
					c-14.514,10.574-24.707,26.907-27.83,44.591c-3.123,17.683,0.86,36.519,10.874,51.425h138.404c0,0,24.313-46.336-6.946-81.647
					c-31.26-35.311-48.047-35.89-46.89-59.046c1.159-23.155,17.366-30.681,26.628-39.363c9.263-8.683,54.414-28.944,27.786-93.066
					H142.177z"/>
			</g>
			<g>
				<g>
					<path fill="#263238" d="M142.177,19.978c0,0,0.804-0.014,2.383-0.02c1.583-0.003,3.935-0.011,7.016-0.019
						c6.176-0.009,15.281-0.022,27.007-0.04c23.478-0.017,57.452-0.041,99.456-0.072h0.102l0.037,0.092
						c1.89,4.803,3.802,9.747,5.156,14.987c1.395,5.218,2.536,10.652,2.941,16.286c0.424,5.622,0.241,11.427-0.879,17.191
						c-1.156,5.75-3.215,11.444-6.256,16.711c-1.513,2.64-3.292,5.146-5.213,7.564c-1.944,2.405-4.097,4.665-6.375,6.821
						c-2.282,2.155-4.714,4.185-7.237,6.126c-2.519,1.95-5.148,3.79-7.714,5.734c-1.286,0.97-2.459,2.058-3.684,3.147
						c-1.231,1.069-2.499,2.1-3.779,3.122c-2.556,2.044-5.142,4.09-7.578,6.329c-4.922,4.404-9.081,9.904-11.368,16.305
						c-1.109,3.194-1.905,6.54-2.165,9.965c-0.069,0.856-0.184,1.71-0.216,2.57c-0.016,0.859-0.066,1.722-0.024,2.584
						c0.011,1.726,0.206,3.449,0.52,5.15c0.649,3.397,2.076,6.656,4.153,9.479c2.046,2.849,4.567,5.358,7.178,7.771
						c5.255,4.806,10.828,9.391,16.167,14.343c5.364,4.925,10.574,10.122,15.592,15.586c2.49,2.741,5.022,5.499,7.198,8.557
						c2.251,3.002,4.142,6.281,5.803,9.676c3.273,6.818,5.297,14.299,5.958,21.947c0.714,7.65,0.169,15.443-1.347,23.072
						c-0.75,3.818-1.748,7.6-2.969,11.319c-1.224,3.72-2.636,7.39-4.395,10.933l-0.057,0.113h-0.131c-1.124,0-2.343,0-3.564,0
						c-47.246-0.003-92.833-0.006-134.842-0.01h-0.108l-0.06-0.089c-6.595-9.9-10.51-21.272-11.59-32.669
						c-1.147-11.399,0.607-22.831,4.788-32.978c4.127-10.183,10.544-19.113,18.296-26.134c3.865-3.536,8.174-6.432,12.49-9.11
						c4.321-2.682,8.679-5.164,12.8-7.878c4.102-2.72,8.055-5.619,11.265-9.163c3.22-3.517,5.682-7.646,6.972-12.087
						c1.294-4.442,1.306-9.101,0.549-13.488c-0.768-4.402-2.317-8.565-4.277-12.4c-1.966-3.84-4.35-7.364-6.967-10.582
						c-2.609-3.229-5.51-6.093-8.43-8.796c-5.859-5.393-11.855-10.111-17.252-14.958c-2.704-2.417-5.265-4.859-7.622-7.367
						c-2.34-2.523-4.479-5.108-6.318-7.789c-3.707-5.346-6.249-10.978-7.918-16.414c-1.673-5.443-2.504-10.705-2.695-15.545
						c-0.113-1.208-0.069-2.394-0.067-3.551c0.015-1.158-0.02-2.289,0.099-3.387c0.085-1.098,0.167-2.169,0.249-3.212
						c0.125-1.038,0.296-2.043,0.436-3.023c1.218-7.84,3.583-13.569,5.428-17.235c0.442-0.932,0.832-1.75,1.252-2.415
						c0.395-0.674,0.728-1.24,0.995-1.694C141.902,20.431,142.177,19.978,142.177,19.978c-0.056,0.099-0.282,0.499-0.784,1.386
						c-0.262,0.457-0.586,1.022-0.974,1.698c-0.412,0.661-0.796,1.481-1.232,2.415c-1.822,3.672-4.162,9.4-5.357,17.227
						c-0.137,0.978-0.305,1.981-0.428,3.017c-0.078,1.041-0.158,2.111-0.238,3.207c-0.117,1.094-0.08,2.224-0.092,3.378
						c0,1.154-0.042,2.337,0.074,3.542c0.201,4.829,1.041,10.074,2.717,15.496c1.674,5.416,4.216,11.024,7.916,16.342
						c1.834,2.667,3.97,5.242,6.307,7.753c2.354,2.499,4.914,4.933,7.616,7.344c5.395,4.835,11.396,9.545,17.273,14.943
						c2.926,2.704,5.841,5.575,8.465,8.817c2.63,3.229,5.03,6.769,7.01,10.627c1.975,3.854,3.539,8.044,4.317,12.484
						c0.767,4.425,0.759,9.136-0.547,13.634c-1.301,4.491-3.789,8.673-7.037,12.221c-3.237,3.579-7.21,6.495-11.323,9.227
						c-4.132,2.727-8.491,5.212-12.802,7.892c-4.309,2.678-8.593,5.559-12.435,9.08c-7.708,6.986-14.087,15.875-18.188,26.005
						c-4.154,10.094-5.894,21.458-4.748,32.795c1.077,11.334,4.976,22.643,11.533,32.481l-0.167-0.09
						c42.008-0.002,87.595-0.005,134.842-0.009c1.221,0,2.439,0,3.563,0l-0.188,0.113c1.737-3.499,3.151-7.167,4.368-10.867
						c1.217-3.704,2.209-7.469,2.957-11.27c1.509-7.593,2.052-15.349,1.343-22.951c-0.657-7.604-2.666-15.032-5.918-21.807
						c-1.649-3.369-3.525-6.628-5.761-9.609c-2.16-3.037-4.677-5.781-7.166-8.523c-5.01-5.455-10.209-10.646-15.565-15.564
						c-5.332-4.947-10.894-9.527-16.165-14.348c-2.616-2.423-5.156-4.946-7.229-7.834c-2.103-2.861-3.561-6.186-4.218-9.641
						c-0.318-1.726-0.513-3.474-0.524-5.216c-0.042-0.872,0.008-1.74,0.026-2.61c0.032-0.867,0.148-1.728,0.217-2.59
						c0.263-3.453,1.068-6.833,2.19-10.06c2.313-6.47,6.525-12.028,11.476-16.453c2.454-2.25,5.046-4.301,7.602-6.343
						c1.279-1.021,2.543-2.049,3.768-3.11c1.204-1.071,2.411-2.186,3.705-3.161c2.579-1.953,5.204-3.787,7.716-5.731
						c2.518-1.934,4.94-3.954,7.213-6.098c2.269-2.146,4.412-4.394,6.346-6.783c1.914-2.404,3.683-4.894,5.186-7.515
						c3.026-5.232,5.075-10.887,6.229-16.601c1.117-5.73,1.302-11.504,0.884-17.101c-0.397-5.608-1.53-11.026-2.917-16.229
						c-1.345-5.225-3.249-10.159-5.131-14.954l0.139,0.092c-41.979-0.03-75.934-0.055-99.397-0.072
						c-11.735-0.017-20.847-0.029-27.028-0.039c-3.089-0.008-5.447-0.015-7.034-0.019C142.995,19.99,142.177,19.978,142.177,19.978z
						"/>
				</g>
			</g>
		</g>
		<g>
			<path fill="none" stroke="#121525" stroke-width="0.25" stroke-miterlimit="10" d="M272.517,57.576
				c20.384,3.351-11.756,39.455-29.949,53.7c-10.535,8.25-21.849,17.196-26.851,29.604c-5.675,14.078-1.469,29.904-4.219,44.067
				c-0.457,2.35-3.932,1.98-3.897-0.415c0.136-9.296-0.113-18.588-1.653-27.739c-2.185-12.979-7.175-25.822-16.271-35.334
				c-7.427-7.766-17.164-12.925-25.086-20.185c-11.566-10.599-23.446-24.268-24.604-39.912c0,0,22.206-17.886,34.532-15.628
				c14.403,2.638,28.584,24.865,50.906,22.32C241.007,66.276,248.87,53.688,272.517,57.576z"/>
		</g>
		<g>
			<path fill="none" stroke="#121525" stroke-width="0.25" stroke-miterlimit="10" d="M274.327,250.817
				c-0.516-5.099-1.876-10.867-6.399-13.272c-2.741-1.457-6.078-1.296-9.079-0.507c-3.003,0.791-5.823,2.156-8.798,3.04
				c-5.854,1.737-12.268,1.534-18.001-0.57c-5.531-2.032-10.278-5.705-15.414-8.591c-5.136-2.888-11.147-5.039-16.865-3.617
				c-9.859,2.453-14.99,14.323-24.738,17.188c-4.332,1.274-8.984,0.56-13.389-0.438c-4.404-0.998-8.825-2.277-13.338-2.11
				c-3.536,0.132-7.214,1.354-9.693,3.777l0.026-0.032c-0.025,0.023-0.046,0.051-0.071,0.077c-0.408,0.402-0.782,0.839-1.117,1.31
				c-3.024,4.029-3.507,9.449-2.577,14.371c1.042,5.511,3.615,10.603,6.378,15.484c3.254,5.748,6.951,11.472,12.331,15.304
				c6.637,4.729,14.984,1.466,23.107,2.107c18.949,1.495,39.336,2.516,58.288,1.047c10.011-0.775,19.394,0.308,27.338-5.833
				c5.59-4.321,9.223-10.833,10.977-17.678C275.043,265.03,275.036,257.846,274.327,250.817z"/>
		</g>
		<g opacity="0.24">
			<g>
				<path d="M238.563,241.054c-1.071,1.638-1.526,3.831-0.495,5.494c1.031,1.663,2.426,3.175,2.873,5.08
					c0.703,2.991-1.098,5.918-2.442,8.684c-2.403,4.945-3.496,10.586-2.686,16.023c0.811,5.438,3.6,10.633,7.953,13.991
					c1.926,1.486,4.425,2.638,6.745,1.911c2.185-0.686,3.596-2.901,4.03-5.148c0.434-2.248,0.076-4.563-0.209-6.832
					c-1.324-10.541-1.052-21.276,0.802-31.737c0.309-1.749,0.605-3.743-0.502-5.132c-0.708-0.887-1.837-1.302-2.913-1.66
					C247.495,240.321,242.938,241.884,238.563,241.054"/>
			</g>
		</g>
		<g>
			<path fill="#7B92CA" d="M128.898,299.384c0,0-0.381-6.353,7.905-9.888h145.576c0,0,7.591,3.842,8.525,9.756L128.898,299.384z"/>
		</g>
		<g>
			<path fill="#7B92CA" d="M279.294,20.752c-0.077,0.035-0.155,0.071-0.232,0.106l-136.885-0.88c0,0-0.486-0.311-1.213-0.881
				c-3.9-3.05-1.711-9.316,3.239-9.275l132.858,1.073C282.544,10.938,284.251,18.408,279.294,20.752z"/>
		</g>
		<g opacity="0.24">
			<g>
				<path d="M257.384,72.968c0.276,0.527-0.751,1.669-2.714,3.411c-1.969,1.744-4.842,4.136-8.496,7.08
					c-3.674,2.921-8.124,6.442-13.791,9.729c-2.84,1.641-6,3.128-9.456,4.341c-1.738,0.583-3.54,1.125-5.435,1.502
					c-1.883,0.403-3.851,0.671-5.871,0.764c-4.032,0.232-8.132-0.359-11.802-1.612c-3.648-1.267-6.762-3.051-9.482-4.84
					c-2.729-1.809-5.081-3.596-7.299-5.305c-2.208-1.714-4.22-3.364-6.019-4.919c-7.19-6.229-10.971-10.811-10.242-11.695
					c0.753-0.919,5.843,1.995,13.775,6.869c1.983,1.217,4.151,2.549,6.479,3.978c2.326,1.417,4.826,2.979,7.375,4.425
					c2.559,1.445,5.229,2.761,7.997,3.614c2.75,0.821,5.682,1.212,8.802,1.037c6.234-0.318,12.285-2.515,17.526-5.045
					c5.27-2.578,9.982-5.496,14.091-7.796c4.104-2.327,7.614-4.046,10.171-4.96C255.555,72.626,257.12,72.46,257.384,72.968z"/>
			</g>
		</g>
		<g>
			<path fill="none" stroke="#121525" stroke-miterlimit="10" d="M207.702,201.913c1.503-0.527,3.299,0.982,3.033,2.555
				c-0.265,1.571-2.458,2.408-3.703,1.416c-1.246-0.99-0.917-3.314,0.553-3.926"/>
		</g>
		<g>
			<g>
				<path fill="#263238" d="M158.741,95.622c-0.011,0.009-0.177-0.159-0.483-0.488c-0.328-0.361-0.771-0.845-1.326-1.454
					c-0.561-0.646-1.299-1.39-2.051-2.343c-0.765-0.953-1.631-2.029-2.585-3.217c-0.882-1.249-1.885-2.593-2.893-4.083
					c-0.479-0.763-0.973-1.55-1.483-2.362c-0.25-0.409-0.523-0.813-0.765-1.242c-0.236-0.434-0.473-0.873-0.715-1.318
					c-1.998-3.519-3.777-7.639-5.042-12.142c-1.266-4.505-1.859-8.957-1.915-13.011c-0.003-1.012,0.052-2.001,0.075-2.96
					c0.022-0.479,0.015-0.953,0.062-1.416c0.049-0.462,0.097-0.917,0.146-1.366c0.102-0.895,0.174-1.762,0.294-2.589
					c0.149-0.82,0.292-1.61,0.429-2.364c0.231-1.515,0.632-2.844,0.919-4.024c0.156-0.588,0.278-1.14,0.433-1.637
					c0.16-0.491,0.309-0.943,0.442-1.352c0.262-0.782,0.471-1.403,0.625-1.866c0.148-0.426,0.231-0.645,0.245-0.641
					c0.015,0.004-0.043,0.234-0.164,0.667c-0.137,0.468-0.319,1.096-0.549,1.887c-0.123,0.412-0.258,0.866-0.406,1.36
					c-0.143,0.499-0.253,1.052-0.397,1.641c-0.265,1.182-0.644,2.509-0.855,4.02c-0.126,0.751-0.26,1.538-0.399,2.356
					c-0.11,0.823-0.173,1.687-0.268,2.575c-0.044,0.445-0.089,0.898-0.135,1.358c-0.043,0.459-0.032,0.931-0.05,1.407
					c-0.015,0.953-0.065,1.933-0.057,2.938c0.076,4.022,0.676,8.433,1.932,12.9c1.255,4.465,3.009,8.56,4.978,12.069
					c0.238,0.442,0.472,0.881,0.704,1.314c0.239,0.428,0.507,0.832,0.754,1.24c0.501,0.811,0.988,1.598,1.458,2.361
					c0.99,1.491,1.975,2.841,2.839,4.097c0.933,1.198,1.78,2.285,2.528,3.246c0.734,0.965,1.453,1.724,1.993,2.385
					c0.529,0.63,0.952,1.132,1.265,1.504C158.607,95.424,158.752,95.612,158.741,95.622z"/>
			</g>
		</g>
		<g>
			<g>
				<path fill="#263238" d="M151.034,216.272c-0.006-0.004,0.046-0.094,0.152-0.267c0.119-0.19,0.28-0.442,0.482-0.763
					c0.22-0.342,0.487-0.753,0.799-1.237c0.16-0.243,0.33-0.506,0.513-0.786c0.199-0.27,0.433-0.538,0.67-0.833
					c0.48-0.587,1.012-1.237,1.594-1.946c0.625-0.674,1.342-1.371,2.093-2.139c1.542-1.492,3.406-3.083,5.575-4.692
					c4.311-3.267,9.873-6.515,15.901-10.303c2.992-1.926,6.141-3.954,9.118-6.423c2.981-2.45,5.855-5.276,8.182-8.646
					c4.589-6.822,6.452-14.726,6.615-21.791c0.185-7.119-1.329-13.458-3.113-18.511c-1.805-5.073-3.875-8.933-5.38-11.536
					c-0.752-1.305-1.37-2.299-1.795-2.969c-0.201-0.323-0.36-0.575-0.479-0.766c-0.106-0.174-0.157-0.265-0.151-0.269
					c0.005-0.003,0.069,0.08,0.187,0.245c0.128,0.185,0.298,0.431,0.513,0.743c0.45,0.655,1.091,1.638,1.866,2.932
					c1.55,2.583,3.669,6.436,5.52,11.519c1.828,5.067,3.386,11.441,3.221,18.621c-0.031,1.79-0.175,3.624-0.448,5.479
					c-0.258,1.856-0.649,3.736-1.189,5.609c-1.044,3.757-2.721,7.485-5.017,10.931c-2.357,3.417-5.265,6.266-8.271,8.73
					c-3.002,2.482-6.167,4.509-9.171,6.431c-6.051,3.777-11.615,6.991-15.931,10.215c-2.171,1.588-4.04,3.155-5.589,4.623
					c-0.754,0.755-1.477,1.44-2.107,2.104c-0.588,0.698-1.127,1.337-1.615,1.912c-0.24,0.29-0.478,0.554-0.683,0.818
					c-0.187,0.274-0.363,0.531-0.526,0.772c-0.324,0.473-0.601,0.875-0.829,1.208c-0.218,0.312-0.389,0.558-0.519,0.741
					C151.104,216.193,151.04,216.276,151.034,216.272z"/>
			</g>
		</g>
		<g>
			<g>
				<path fill="#263238" d="M143.481,230.623c0.012,0.007-0.05,0.138-0.178,0.376c-0.157,0.28-0.347,0.62-0.579,1.034
					c-0.261,0.44-0.571,0.988-0.885,1.646c-0.319,0.657-0.724,1.382-1.066,2.233c-0.183,0.422-0.374,0.863-0.571,1.32
					c-0.196,0.46-0.355,0.957-0.547,1.461c-0.397,1.002-0.705,2.114-1.056,3.272c-0.625,2.338-1.147,4.954-1.418,7.738
					c-0.24,2.788-0.203,5.457-0.014,7.871c0.134,1.205,0.235,2.352,0.443,3.41c0.095,0.529,0.162,1.047,0.272,1.536
					c0.111,0.485,0.218,0.953,0.321,1.401c0.182,0.899,0.448,1.688,0.642,2.39c0.188,0.706,0.394,1.3,0.57,1.782
					c0.152,0.448,0.278,0.818,0.381,1.12c0.083,0.258,0.12,0.396,0.106,0.402c-0.013,0.006-0.077-0.122-0.186-0.37
					c-0.123-0.297-0.273-0.658-0.456-1.098c-0.201-0.475-0.431-1.063-0.641-1.766c-0.218-0.7-0.505-1.485-0.707-2.389
					c-0.113-0.45-0.229-0.919-0.351-1.407c-0.118-0.489-0.194-1.01-0.297-1.543c-0.224-1.065-0.339-2.222-0.484-3.436
					c-0.214-2.436-0.263-5.13-0.02-7.945c0.273-2.809,0.812-5.45,1.464-7.808c0.364-1.165,0.688-2.281,1.103-3.288
					c0.199-0.506,0.367-1.004,0.573-1.463c0.208-0.459,0.409-0.897,0.602-1.32c0.362-0.849,0.789-1.573,1.13-2.221
					c0.336-0.652,0.667-1.188,0.952-1.619c0.26-0.398,0.474-0.727,0.648-0.994C143.383,230.729,143.469,230.613,143.481,230.623z"/>
			</g>
		</g>
	</g>
	<g>
		<g>
			<path fill="#263238" d="M243.889,250.14c0.005,0.007-0.052,0.048-0.165,0.119c-0.136,0.085-0.301,0.19-0.506,0.318
				c-0.48,0.288-1.138,0.684-1.97,1.184c-0.432,0.256-0.91,0.538-1.43,0.847c-0.532,0.294-1.131,0.572-1.764,0.893
				c-1.276,0.615-2.695,1.399-4.369,2.031c-0.827,0.341-1.694,0.694-2.595,1.064c-0.905,0.363-1.883,0.646-2.875,0.987
				c-1.977,0.722-4.166,1.236-6.452,1.833c-4.612,1.026-9.773,1.779-15.229,1.955c-5.46,0.11-10.655-0.372-15.315-1.157
				c-2.315-0.478-4.527-0.876-6.541-1.494c-1.008-0.291-1.999-0.521-2.923-0.836c-0.919-0.322-1.803-0.631-2.647-0.927
				c-1.705-0.545-3.162-1.255-4.469-1.803c-0.649-0.287-1.262-0.533-1.807-0.798c-0.537-0.28-1.028-0.538-1.473-0.771
				c-0.858-0.457-1.535-0.818-2.029-1.079c-0.211-0.117-0.383-0.211-0.523-0.29c-0.116-0.067-0.174-0.104-0.171-0.112
				c0.004-0.007,0.069,0.019,0.192,0.074c0.144,0.068,0.322,0.149,0.542,0.252c0.502,0.245,1.19,0.58,2.062,1.006
				c0.45,0.225,0.946,0.47,1.484,0.737c0.55,0.253,1.165,0.489,1.817,0.765c1.313,0.525,2.772,1.213,4.475,1.737
				c0.843,0.286,1.726,0.585,2.644,0.897c0.921,0.306,1.91,0.525,2.917,0.808c2.006,0.602,4.21,0.984,6.516,1.448
				c4.64,0.759,9.806,1.227,15.237,1.117c5.427-0.173,10.561-0.91,15.154-1.91c2.278-0.583,4.458-1.081,6.43-1.787
				c0.991-0.334,1.966-0.605,2.871-0.959c0.901-0.359,1.766-0.706,2.595-1.035c1.673-0.611,3.095-1.374,4.379-1.968
				c0.636-0.31,1.237-0.577,1.774-0.859c0.525-0.294,1.007-0.565,1.444-0.812c0.848-0.471,1.519-0.843,2.006-1.114
				c0.213-0.114,0.387-0.206,0.527-0.281C243.822,250.162,243.886,250.134,243.889,250.14z"/>
		</g>
	</g>
	<g>
		<g>
			<path fill="#263238" d="M252.359,78.262c0.004,0.005-0.053,0.06-0.172,0.161c-0.138,0.114-0.313,0.258-0.532,0.439
				c-0.498,0.397-1.192,0.951-2.074,1.655c-1.806,1.429-4.418,3.501-7.72,5.968c-3.307,2.455-7.314,5.313-12.079,7.986
				c-2.405,1.285-4.967,2.598-7.782,3.581c-2.805,0.989-5.821,1.747-8.979,1.997c-6.344,0.429-12.36-1.178-17.253-3.589
				c-2.447-1.227-4.655-2.6-6.663-3.963c-1.983-1.399-3.794-2.753-5.396-4.051c-3.215-2.581-5.735-4.764-7.485-6.262
				c-0.853-0.737-1.523-1.318-2.006-1.734c-0.211-0.189-0.381-0.34-0.515-0.459c-0.114-0.105-0.171-0.162-0.167-0.167
				c0.005-0.005,0.071,0.039,0.194,0.134c0.141,0.111,0.319,0.251,0.543,0.428c0.494,0.401,1.184,0.961,2.057,1.673
				c1.783,1.458,4.331,3.606,7.564,6.152c1.61,1.281,3.425,2.616,5.408,3.996c2.007,1.343,4.208,2.696,6.637,3.903
				c4.854,2.367,10.796,3.939,17.051,3.516c3.112-0.247,6.092-0.992,8.87-1.966c2.788-0.967,5.337-2.264,7.734-3.533
				c4.749-2.638,8.766-5.465,12.09-7.885c3.32-2.433,5.958-4.469,7.796-5.856c0.903-0.677,1.613-1.21,2.122-1.593
				c0.229-0.167,0.414-0.3,0.56-0.406C252.289,78.299,252.355,78.256,252.359,78.262z"/>
		</g>
	</g>
	<g opacity="0.24">
		<g>
			<path d="M179.116,256.962c3.849-2.971,9.255-2.251,14.014-1.251c4.757,0.999,9.551,2.626,14.365,1.953
				c3.629-0.509,6.958-2.294,10.539-3.07c3.581-0.775,7.926-0.203,9.911,2.878C212.189,262.595,194.76,262.413,179.116,256.962"/>
		</g>
	</g>
</g>
<g>
	<g>
		<g>
			<g>
				<g>
					<path fill="#F6E8D4" d="M344.626,228.21l-19.294-21.604l-0.194,26.262l5.808,16.844l-57.716,10.011l-2.447-45.539
						l-4.154-34.974c-0.509-4.285,1.936-8.375,5.951-9.955l15.883-6.257l22.37,4.104l9,3.421c3.778,1.435,7.146,3.778,9.807,6.821
						l27.089,30.979"/>
				</g>
			</g>
			<g>
				<g>
					<path fill="#FFFFFF" d="M323.979,201.44c0.005-0.093,1.271,0.095,3.258-0.229c1.97-0.308,4.691-1.272,6.95-3.348
						c2.253-2.083,3.436-4.719,3.899-6.658c0.482-1.956,0.399-3.231,0.491-3.229c0.027-0.002,0.073,0.313,0.08,0.887
						c0.012,0.573-0.044,1.407-0.252,2.416c-0.392,2.003-1.563,4.76-3.903,6.924c-2.347,2.161-5.188,3.103-7.218,3.332
						c-1.022,0.125-1.858,0.113-2.43,0.058C324.284,201.54,323.975,201.469,323.979,201.44z"/>
				</g>
			</g>
			<g>
				<g>
					<g>
						<ellipse fill="#263238" cx="325.487" cy="211.445" rx="0.245" ry="20.318"/>
					</g>
				</g>
			</g>
		</g>
		<g>
			<path fill="#F6E8D4" d="M323.553,238.426l-34.875-14.041c-2.812-1.131-4.738-3.762-4.969-6.785l-2.551-33.436
				c0,0,0.302-14.22-8.581-14.91l-5.053,1.987c-6.531,3.469-8.149,12.977-7.26,20.318c1.263,10.432,1.79,25.191,3.202,34.246
				c1.156,7.403,5.4,13.918,12.646,15.826l42.955,9.298L323.553,238.426z"/>
		</g>
		<g>
			<g>
				<path fill="#263238" d="M281.656,189.266c0.016-0.004,0.054,0.261,0.11,0.764c0.054,0.547,0.129,1.28,0.224,2.205
					c0.178,1.959,0.429,4.716,0.738,8.107c0.295,3.438,0.646,7.512,1.033,12.03c0.096,1.132,0.193,2.291,0.292,3.479
					c0.104,1.184,0.176,2.398,0.446,3.575c0.254,1.184,0.823,2.291,1.734,3.137c0.904,0.846,2.035,1.465,3.217,2
					c9.617,4.162,18.479,7.599,24.913,10.008c3.194,1.176,5.792,2.134,7.639,2.813c0.87,0.32,1.563,0.576,2.075,0.767
					c0.476,0.179,0.723,0.279,0.716,0.295c-0.005,0.016-0.263-0.058-0.744-0.208c-0.52-0.167-1.223-0.396-2.106-0.684
					c-1.825-0.604-4.457-1.51-7.692-2.675c-6.471-2.334-15.347-5.717-24.992-9.892c-1.2-0.545-2.377-1.182-3.342-2.087
					c-0.977-0.9-1.602-2.134-1.861-3.368c-0.278-1.236-0.344-2.46-0.444-3.643c-0.094-1.185-0.186-2.347-0.276-3.479
					c-0.352-4.524-0.667-8.6-0.934-12.044c-0.247-3.394-0.448-6.156-0.59-8.119c-0.059-0.929-0.103-1.662-0.138-2.21
					C281.646,189.532,281.641,189.266,281.656,189.266z"/>
			</g>
		</g>
		<g>
			<g>
				<path fill="#263238" d="M261.676,207.441c0.017-0.001,0.038,0.155,0.069,0.449c0.031,0.347,0.068,0.773,0.115,1.289
					c0.103,1.19,0.244,2.796,0.413,4.746c0.192,2,0.434,4.384,0.781,7.014c0.358,2.628,0.781,5.527,1.574,8.469
					c0.377,1.487,0.903,2.86,1.703,4.039c0.8,1.188,1.687,2.256,2.604,3.201c1.844,1.886,3.813,3.27,5.581,4.188
					c3.569,1.853,6.161,1.881,6.125,2.004c-0.001,0.016-0.157,0.012-0.454-0.011c-0.297-0.021-0.734-0.056-1.291-0.166
					c-1.11-0.196-2.71-0.634-4.53-1.535c-1.818-0.896-3.842-2.275-5.737-4.181c-0.944-0.954-1.856-2.037-2.678-3.245
					c-0.833-1.215-1.401-2.683-1.774-4.171c-0.804-2.988-1.212-5.896-1.55-8.536c-0.325-2.646-0.535-5.036-0.683-7.045
					c-0.147-2.007-0.226-3.635-0.266-4.761c-0.013-0.519-0.022-0.945-0.028-1.296C261.651,207.599,261.66,207.442,261.676,207.441z"
					/>
			</g>
		</g>
		<g>
			<g>
				<path fill="#263238" d="M276.589,230.838c-0.048-0.014,0.1-0.76,0.633-1.859c0.528-1.096,1.506-2.515,2.929-3.736
					c1.428-1.214,2.982-1.955,4.147-2.306c1.17-0.354,1.93-0.385,1.936-0.335c0.014,0.076-0.717,0.223-1.827,0.645
					c-1.108,0.423-2.575,1.184-3.953,2.354c-1.371,1.177-2.352,2.507-2.94,3.535C276.92,230.164,276.664,230.864,276.589,230.838z"
					/>
			</g>
		</g>
		<g>
			<g>
				<path fill="#FFFFFF" d="M283.449,205.41c0.005-0.008,0.078,0.025,0.222,0.099c0.164,0.085,0.369,0.192,0.624,0.326
					c0.56,0.263,1.376,0.678,2.488,1.055c2.192,0.762,5.628,1.535,9.774,0.834c4.096-0.669,8.853-3.08,12.15-7.549
					c1.631-2.205,2.893-4.922,3.182-7.901c0.145-1.479,0.023-3.021-0.465-4.471c-0.479-1.445-1.354-2.789-2.515-3.842
					c-1.153-1.054-2.589-1.796-4.094-1.989c-1.482-0.233-3.074,0.159-4.103,1.152c-0.497,0.5-0.807,1.17-0.8,1.857
					c-0.003,0.688,0.261,1.365,0.674,1.917c0.826,1.129,2.216,1.654,3.547,1.85c2.716,0.373,5.387-0.118,7.622-1.091
					c2.245-0.979,4.083-2.433,5.404-4.037c1.325-1.615,2.14-3.357,2.628-4.94c0.49-1.586,0.638-3.026,0.662-4.195
					c0.02-1.172-0.104-2.079-0.195-2.691c-0.052-0.281-0.093-0.51-0.125-0.691c-0.028-0.157-0.038-0.238-0.031-0.24
					c0,0,0.495,1.242,0.535,3.624c0.004,1.181-0.121,2.646-0.596,4.267c-0.471,1.618-1.281,3.408-2.62,5.072
					c-1.338,1.659-3.206,3.168-5.504,4.188c-2.29,1.013-5.021,1.535-7.842,1.161c-1.385-0.2-2.904-0.745-3.843-2.009
					c-0.458-0.615-0.767-1.377-0.767-2.185c-0.011-0.809,0.358-1.607,0.928-2.179c1.17-1.131,2.896-1.534,4.49-1.288
					c1.613,0.204,3.132,0.993,4.345,2.102c1.222,1.108,2.138,2.516,2.641,4.042c0.512,1.523,0.632,3.129,0.479,4.66
					c-0.305,3.083-1.614,5.863-3.292,8.112c-3.391,4.554-8.267,6.979-12.442,7.619c-4.226,0.671-7.696-0.169-9.889-0.989
					C284.502,206.214,283.449,205.41,283.449,205.41z"/>
			</g>
		</g>
		<g>
			<g>
				<path fill="#FFFFFF" d="M260.604,196.493c-0.021-0.021,0.174-0.28,0.572-0.715c0.402-0.429,1.026-1.021,1.885-1.638
					c1.693-1.272,4.496-2.433,7.715-2.734c1.609-0.172,3.17-0.094,4.547,0.189c1.378,0.286,2.565,0.75,3.503,1.231
					c0.944,0.479,1.657,0.953,2.132,1.298c0.473,0.351,0.716,0.565,0.7,0.589c-0.048,0.075-1.091-0.714-2.973-1.589
					c-1.861-0.89-4.71-1.634-7.859-1.254c-3.156,0.299-5.874,1.368-7.577,2.54C261.521,195.561,260.668,196.559,260.604,196.493z"/>
			</g>
		</g>
		<g>
			<g>
				<path fill="#FFFFFF" d="M266.182,172.584c0.071-0.078,0.896,1.063,2.822,2.052c0.954,0.494,2.185,0.908,3.592,1.054
					c1.407,0.15,2.992-0.011,4.499-0.621c1.499-0.634,2.735-1.643,3.623-2.741c0.896-1.099,1.474-2.261,1.798-3.285
					c0.664-2.061,0.44-3.45,0.547-3.444c0.026-0.005,0.095,0.33,0.117,0.949c0.024,0.616-0.048,1.521-0.348,2.592
					c-0.296,1.07-0.863,2.296-1.778,3.457c-0.909,1.16-2.198,2.232-3.78,2.901c-1.592,0.646-3.262,0.797-4.724,0.618
					c-1.468-0.176-2.735-0.641-3.701-1.188c-0.969-0.547-1.659-1.134-2.078-1.59C266.35,172.886,266.163,172.601,266.182,172.584z"
					/>
			</g>
		</g>
		<g>
			<g>
				<path fill="#FFFFFF" d="M296.571,227.564c-0.015-0.002,0.01-0.229,0.073-0.662c0.099-0.422,0.237-1.061,0.617-1.803
					c0.705-1.504,2.457-3.386,5.221-4.532c2.726-1.227,6.475-1.462,10.253-0.367c1.844,0.547,3.96,1.225,5.342,3.024
					c0.678,0.886,0.91,2.203,0.395,3.281c-0.496,1.08-1.466,1.824-2.488,2.344c-1.039,0.509-2.168,0.796-3.3,0.817
					c-1.124,0.023-2.293-0.257-3.17-0.982c-0.885-0.714-1.351-1.819-1.419-2.873c-0.083-1.063,0.132-2.089,0.474-3.021
					c1.486-3.729,4.493-6.103,7.189-7.275c2.741-1.198,5.222-1.325,6.859-1.18c1.651,0.17,2.506,0.529,2.506,0.529
					c-0.015,0.06-0.887-0.235-2.521-0.347c-1.618-0.089-4.046,0.087-6.71,1.298c-1.322,0.603-2.687,1.471-3.914,2.656
					c-1.223,1.18-2.321,2.69-3.006,4.465c-0.32,0.891-0.514,1.865-0.435,2.84c0.072,0.967,0.488,1.929,1.267,2.554
					c0.769,0.637,1.825,0.896,2.873,0.874c1.054-0.021,2.125-0.293,3.1-0.771c0.961-0.486,1.849-1.187,2.271-2.119
					c0.44-0.927,0.258-2.025-0.339-2.821c-0.591-0.814-1.454-1.4-2.334-1.854c-0.885-0.444-1.834-0.752-2.756-1.027
					c-3.7-1.092-7.333-0.894-10.011,0.26c-2.715,1.084-4.447,2.871-5.185,4.312C296.66,226.629,296.638,227.581,296.571,227.564z"/>
			</g>
		</g>
		<g>
			<g>
				<path fill="#FFFFFF" d="M273.353,240.154c-0.014-0.088,1.33-0.201,3.344-0.921c2.003-0.702,4.671-2.138,6.855-4.554
					c2.186-2.416,3.345-5.216,3.843-7.28c0.511-2.076,0.489-3.425,0.578-3.418c0.028,0,0.061,0.333,0.051,0.94
					c-0.01,0.606-0.087,1.483-0.307,2.551c-0.423,2.122-1.566,5.03-3.817,7.519c-2.251,2.489-5.029,3.92-7.096,4.555
					c-1.039,0.325-1.906,0.491-2.509,0.562C273.692,240.182,273.354,240.184,273.353,240.154z"/>
			</g>
		</g>
		<g>
			<g>
				<path fill="#FFFFFF" d="M262.05,214.164c-0.003-0.018,0.14-0.073,0.421-0.169c0.283-0.094,0.7-0.223,1.245-0.36
					c1.089-0.264,2.713-0.625,4.751-0.481c1.014,0.078,2.125,0.312,3.23,0.798c1.099,0.488,2.197,1.251,3.013,2.364
					c0.799,1.112,1.291,2.557,1.172,4.065c-0.055,0.752-0.286,1.508-0.691,2.183c-0.409,0.663-1.021,1.266-1.828,1.529
					c-0.794,0.25-1.728,0.123-2.356-0.467c-0.62-0.601-0.775-1.441-0.813-2.173c-0.055-1.487,0.266-2.913,0.822-4.148
					c1.11-2.5,3.173-4.143,5.086-4.827c1.927-0.714,3.635-0.659,4.742-0.469c0.559,0.095,0.981,0.222,1.261,0.318
					c0.278,0.106,0.421,0.169,0.416,0.184c-0.014,0.045-0.599-0.187-1.703-0.323c-1.092-0.131-2.753-0.129-4.599,0.598
					c-1.83,0.698-3.771,2.292-4.813,4.694c-0.523,1.183-0.817,2.548-0.758,3.95c0.035,0.684,0.197,1.402,0.676,1.857
					c0.473,0.448,1.24,0.568,1.896,0.357c0.662-0.213,1.207-0.729,1.574-1.326c0.364-0.604,0.578-1.287,0.631-1.977
					c0.117-1.38-0.329-2.737-1.064-3.777c-0.75-1.041-1.78-1.783-2.824-2.262c-1.05-0.481-2.118-0.726-3.099-0.823
					c-1.977-0.179-3.59,0.124-4.681,0.331C262.661,214.039,262.061,214.198,262.05,214.164z"/>
			</g>
		</g>
		<g opacity="0.3">
			<g>
				<path d="M313.531,234.438c-3.729-2.106-7.377-3.726-11.278-5.496c-3.897-1.773-7.718-4.048-10.27-7.485
					c-4.813-6.487-4.265-15.851-9.19-22.251c0.322,4.304,0.643,8.61,0.965,12.914c0.294,3.945-0.31,7.846,2.231,10.525
					c2.141,2.261,6.315,3.993,9.27,4.966C301.197,229.57,307.591,232.479,313.531,234.438"/>
			</g>
		</g>
	</g>
	<g>
		<g>
			<g>
				<path fill="#F6E8D4" d="M374.128,283.58c0,0,29.18,8.078,30.35,8.49c1.757,0.617,1.463,7.059-1.272,6.957
					c-1.294-0.046-22.413,0.788-25.083,0.621c-2.669-0.168-10.718-3.341-10.718-3.341L374.128,283.58z"/>
			</g>
		</g>
		<g>
			<g>
				<g>
					<path fill="#263238" d="M386.283,294.714c0.146,0.021,0.343-1.522,1.284-3.132c0.921-1.624,2.155-2.569,2.063-2.687
						c-0.051-0.113-1.5,0.709-2.485,2.441C386.144,293.06,386.161,294.727,386.283,294.714z"/>
				</g>
			</g>
		</g>
		<g>
			<g>
				<g>
					<path fill="#263238" d="M383.241,293.335c0.143,0.026,0.438-1.355,1.216-2.878c0.76-1.533,1.694-2.593,1.589-2.69
						c-0.081-0.096-1.221,0.858-2.025,2.473C383.204,291.844,383.116,293.329,383.241,293.335z"/>
				</g>
			</g>
		</g>
		<g>
			<g>
				<g>
					<path fill="#263238" d="M380.389,292.572c0.146-0.011,0.032-1.469,0.682-3.084c0.619-1.628,1.691-2.622,1.589-2.729
						c-0.06-0.112-1.368,0.79-2.043,2.552C379.919,291.063,380.27,292.612,380.389,292.572z"/>
				</g>
			</g>
		</g>
		<g>
			<g>
				<g>
					<path fill="#263238" d="M380.904,288.803c0.053,0.012,0.311-0.804,0.313-2.173c-0.001-0.681-0.08-1.496-0.296-2.38
						c-0.105-0.439-0.251-0.894-0.433-1.353c-0.094-0.232-0.204-0.499-0.469-0.718c-0.271-0.242-0.768-0.193-1.002,0.053
						c-0.268,0.23-0.353,0.561-0.39,0.824c-0.027,0.27-0.043,0.516-0.035,0.771c0.007,0.502,0.071,0.982,0.178,1.429
						c0.218,0.891,0.563,1.637,0.898,2.229c0.681,1.186,1.271,1.791,1.312,1.757c0.067-0.046-0.423-0.726-1.004-1.915
						c-0.287-0.596-0.587-1.327-0.767-2.17c-0.089-0.421-0.14-0.871-0.14-1.332c0.013-0.448,0.005-1.01,0.27-1.226
						c0.138-0.116,0.264-0.124,0.386-0.032c0.128,0.1,0.236,0.298,0.319,0.51c0.18,0.437,0.326,0.869,0.44,1.288
						c0.23,0.84,0.342,1.62,0.387,2.277C380.959,287.964,380.825,288.79,380.904,288.803z"/>
				</g>
			</g>
		</g>
		<g>
			<g>
				<g>
					<path fill="#263238" d="M380.869,288.507c0.013-0.056-0.691-0.298-1.883-0.305c-0.592-0.003-1.304,0.061-2.071,0.252
						c-0.377,0.104-0.784,0.2-1.191,0.439c-0.399,0.203-0.818,0.758-0.66,1.334c0.126,0.544,0.589,0.923,1.051,1.041
						c0.466,0.13,0.916,0.082,1.309-0.002c0.802-0.185,1.425-0.579,1.896-0.934c0.935-0.733,1.392-1.294,1.355-1.335
						c-0.05-0.062-0.603,0.418-1.553,1.053c-0.478,0.306-1.078,0.635-1.789,0.774c-0.355,0.068-0.737,0.09-1.082-0.015
						c-0.343-0.094-0.628-0.356-0.71-0.694c-0.084-0.325,0.113-0.624,0.433-0.813c0.313-0.192,0.697-0.305,1.058-0.414
						c0.724-0.205,1.396-0.3,1.968-0.342C380.141,288.466,380.856,288.584,380.869,288.507z"/>
				</g>
			</g>
		</g>
		<g>
			<g>
				<g>
					<path fill="#263238" d="M390.768,295.026c0.144-0.016,0.001-1.264,0.574-2.632c0.547-1.381,1.522-2.171,1.431-2.284
						c-0.048-0.119-1.271,0.571-1.883,2.1C390.26,293.731,390.648,295.078,390.768,295.026z"/>
				</g>
			</g>
		</g>
		<g>
			<g>
				<g>
					<path fill="#263238" d="M370.406,296.375c-0.013,0.029,0.389,0.218,1.129,0.529c0.75,0.282,1.847,0.68,3.247,1.006
						c2.79,0.705,6.768,1.104,11.139,1.056c4.374-0.047,8.314-0.247,11.173-0.36c1.351-0.072,2.486-0.132,3.381-0.179
						c0.799-0.054,1.238-0.1,1.237-0.132c-0.001-0.033-0.442-0.054-1.243-0.06c-0.896,0.007-2.033,0.016-3.387,0.026
						c-2.955,0.056-6.853,0.134-11.164,0.218c-4.349,0.046-8.281-0.294-11.061-0.904
						C372.069,297.003,370.439,296.282,370.406,296.375z"/>
				</g>
			</g>
		</g>
		<g>
			<g>
				<g>
					<path fill="#263238" d="M369.543,297.04c0.04,0.066,0.838-0.399,2.188-0.991c1.332-0.572,3.329-1.257,5.521-0.917
						c2.198,0.335,3.757,1.813,4.772,2.84c1.021,1.061,1.622,1.767,1.682,1.718c0.044-0.037-0.454-0.813-1.429-1.952
						c-0.491-0.564-1.117-1.219-1.934-1.81c-0.811-0.594-1.85-1.101-3.016-1.279c-2.352-0.358-4.425,0.427-5.745,1.088
						C370.246,296.421,369.515,296.991,369.543,297.04z"/>
				</g>
			</g>
		</g>
	</g>
	<g>
		<g>
			<g>
				<path fill="#F6E8D4" d="M343.155,275.524c0,0-27.613,18.079-28.603,18.826c-1.487,1.125,0.219,6.475,2.795,5.549
					c1.217-0.438,24.387-6.883,26.879-7.853s9.198-6.438,9.198-6.438L343.155,275.524z"/>
			</g>
		</g>
		<g>
			<g>
				<g>
					<path fill="#263238" d="M334.955,289.824c0.121-0.027-0.37-1.619-1.848-2.955c-1.466-1.353-3.097-1.694-3.111-1.573
						c-0.051,0.14,1.414,0.666,2.784,1.935C334.164,288.478,334.821,289.888,334.955,289.824z"/>
				</g>
			</g>
		</g>
		<g>
			<g>
				<g>
					<path fill="#263238" d="M337.436,287.586c0.115-0.045-0.419-1.435-1.685-2.715c-1.258-1.293-2.634-1.855-2.681-1.739
						c-0.07,0.125,1.14,0.854,2.332,2.081C336.605,286.429,337.307,287.653,337.436,287.586z"/>
				</g>
			</g>
		</g>
		<g>
			<g>
				<g>
					<path fill="#263238" d="M339.922,285.991c0.125,0.005-0.015-1.579-1.207-3.038c-1.182-1.471-2.7-1.933-2.725-1.809
						c-0.064,0.13,1.259,0.754,2.345,2.116C339.443,284.604,339.779,286.026,339.922,285.991z"/>
				</g>
			</g>
		</g>
		<g>
			<g>
				<g>
					<path fill="#263238" d="M338.283,282.558c0.072-0.035-0.305-0.781-0.624-2.067c-0.159-0.641-0.289-1.419-0.326-2.289
						c-0.019-0.432-0.01-0.889,0.03-1.359c0.015-0.228,0.058-0.45,0.149-0.583c0.087-0.124,0.21-0.154,0.377-0.086
						c0.315,0.125,0.479,0.662,0.629,1.083c0.141,0.443,0.229,0.887,0.271,1.314c0.086,0.857,0.024,1.645-0.07,2.299
						c-0.193,1.311-0.453,2.105-0.376,2.131c0.049,0.019,0.428-0.737,0.715-2.071c0.139-0.667,0.243-1.483,0.178-2.398
						c-0.031-0.456-0.115-0.935-0.261-1.415c-0.072-0.242-0.16-0.477-0.272-0.724c-0.114-0.24-0.295-0.528-0.621-0.668
						c-0.297-0.161-0.783-0.059-0.969,0.258c-0.188,0.285-0.208,0.573-0.229,0.822c-0.035,0.492-0.034,0.971-0.002,1.424
						c0.063,0.904,0.235,1.705,0.441,2.356C337.743,281.888,338.238,282.586,338.283,282.558z"/>
				</g>
			</g>
		</g>
		<g>
			<g>
				<g>
					<path fill="#263238" d="M338.229,282.263c0.035,0.071,0.68-0.257,1.794-0.528c0.554-0.132,1.228-0.246,1.979-0.271
						c0.373-0.006,0.777-0.017,1.132,0.073c0.363,0.083,0.642,0.309,0.662,0.644c0.024,0.347-0.17,0.683-0.468,0.877
						c-0.298,0.204-0.669,0.3-1.028,0.344c-0.721,0.083-1.391-0.049-1.938-0.194c-1.099-0.316-1.771-0.605-1.802-0.531
						c-0.021,0.05,0.584,0.445,1.699,0.86c0.557,0.195,1.271,0.381,2.089,0.313c0.401-0.036,0.844-0.128,1.249-0.394
						c0.402-0.254,0.729-0.756,0.683-1.312c-0.023-0.597-0.591-0.998-1.031-1.071c-0.464-0.104-0.879-0.074-1.271-0.057
						c-0.788,0.05-1.485,0.205-2.05,0.387C338.796,281.772,338.2,282.217,338.229,282.263z"/>
				</g>
			</g>
		</g>
		<g>
			<g>
				<g>
					<path fill="#263238" d="M320.865,298.89c0.031,0.042,0.465-0.279,0.676-1.07c0.231-0.771,0.087-1.957-0.518-2.996
						c-0.287-0.524-0.62-0.979-0.925-1.379c-0.303-0.401-0.615-0.765-0.936-1.007c-0.321-0.248-0.653-0.36-0.884-0.367
						c-0.229-0.011-0.348,0.045-0.345,0.075c0.001,0.075,0.494,0.038,1.004,0.558c0.261,0.246,0.518,0.592,0.797,1.006
						c0.282,0.41,0.593,0.859,0.861,1.348c0.561,0.975,0.728,1.981,0.606,2.692C321.103,298.464,320.801,298.843,320.865,298.89z"/>
				</g>
			</g>
		</g>
		<g>
			<g>
				<g>
					<path fill="#263238" d="M330.777,291.483c0.128,0.014,0.087-1.389-0.973-2.645c-1.047-1.271-2.421-1.559-2.431-1.431
						c-0.053,0.137,1.116,0.593,2.056,1.741C330.393,290.278,330.635,291.512,330.777,291.483z"/>
				</g>
			</g>
		</g>
		<g>
			<g>
				<g>
					<path fill="#263238" d="M350.587,286.583c-0.025-0.028-0.448,0.283-1.215,0.833c-0.777,0.536-1.919,1.291-3.404,2.086
						c-1.483,0.797-3.318,1.625-5.407,2.408c-2.09,0.779-4.437,1.514-6.914,2.234c-4.969,1.431-9.467,2.737-12.71,3.714
						c-1.556,0.478-2.848,0.874-3.838,1.178c-0.902,0.289-1.397,0.465-1.387,0.496c0.008,0.033,0.521-0.08,1.441-0.313
						c0.999-0.266,2.305-0.61,3.878-1.03c3.271-0.891,7.779-2.145,12.75-3.577c2.486-0.72,4.842-1.474,6.938-2.282
						c2.099-0.811,3.938-1.682,5.415-2.525c1.482-0.843,2.604-1.646,3.352-2.236C350.223,286.967,350.605,286.606,350.587,286.583z"
						/>
				</g>
			</g>
		</g>
		<g>
			<g>
				<g>
					<path fill="#263238" d="M351.609,286.955c0.014-0.057-0.856-0.377-2.34-0.624c-1.457-0.229-3.668-0.347-5.802,0.709
						c-1.058,0.526-1.895,1.322-2.483,2.135c-0.601,0.813-0.998,1.624-1.297,2.311c-0.581,1.383-0.819,2.272-0.767,2.294
						c0.072,0.027,0.428-0.825,1.08-2.147c0.656-1.285,1.692-3.166,3.686-4.154c1.987-0.988,4.099-0.941,5.542-0.803
						C350.69,286.829,351.592,287.03,351.609,286.955z"/>
				</g>
			</g>
		</g>
	</g>
	<g>
		<g>
			<g>
				<path fill="#7B92CA" d="M400.536,231.435c0,0,8.284,2.957,8.319,12.245c0.066,17.791-35.949,37.402-35.949,37.402
					l-47.927-31.755l-3.003-1.217C321.976,248.11,386.673,223.808,400.536,231.435z"/>
			</g>
		</g>
		<g>
			<g>
				<g>
					<path fill="#455B65" d="M349.258,265.366c0.021,0.026,0.463-0.276,1.247-0.847c0.787-0.57,1.907-1.414,3.278-2.476
						c2.744-2.12,6.479-5.127,10.494-8.573c4.017-3.45,7.553-6.688,10.064-9.078c1.256-1.194,2.261-2.175,2.942-2.865
						c0.683-0.688,1.049-1.082,1.026-1.105c-0.023-0.025-0.435,0.323-1.156,0.969c-0.782,0.708-1.809,1.633-3.045,2.749
						c-2.571,2.326-6.138,5.516-10.147,8.962c-4.011,3.442-7.705,6.484-10.391,8.675c-1.292,1.054-2.362,1.928-3.18,2.594
						C349.643,264.983,349.236,265.337,349.258,265.366z"/>
				</g>
			</g>
		</g>
		<g>
			<g>
				<g>
					<path fill="#455B65" d="M387.007,238.084c0.017-0.12-2.12-0.329-4.619,0.418c-2.504,0.729-4.186,2.066-4.104,2.156
						c0.078,0.127,1.826-0.986,4.245-1.687C384.936,238.247,387.009,238.231,387.007,238.084z"/>
				</g>
			</g>
		</g>
		<g>
			<g>
				<g>
					<path fill="#455B65" d="M382.878,235.279c-0.042-0.115-1.58,0.56-2.841,2.137c-1.276,1.565-1.613,3.21-1.489,3.228
						c0.139,0.047,0.663-1.443,1.87-2.92C381.606,236.232,382.955,235.406,382.878,235.279z"/>
				</g>
			</g>
		</g>
		<g>
			<g>
				<g>
					<path fill="#263238" d="M403.173,291.612c0.024-0.055-0.572-0.171-1.234,0.377c-0.653,0.521-1.207,1.564-1.387,2.782
						c-0.179,1.225,0.094,2.352,0.438,3.066c0.339,0.729,0.713,1.072,0.754,1.034c0.066-0.045-0.196-0.448-0.434-1.162
						c-0.243-0.707-0.438-1.746-0.273-2.871c0.164-1.118,0.623-2.084,1.133-2.593C402.677,291.712,403.183,291.691,403.173,291.612z
						"/>
				</g>
			</g>
		</g>
	</g>
	<g>
		<g>
			<polygon fill="#455B65" points="389.514,202.369 372.442,245.639 298.944,246.835 297.585,242.858 323.343,241.926 
				335.723,203.54 			"/>
		</g>
		<g>
			<path fill="#EBEBEB" d="M355.189,221.101c0.942-0.64,2.688-0.384,3.533,0.378c0.85,0.76,1.125,2.077,0.691,3.131
				c-0.429,1.054-1.517,1.794-2.653,1.854c-1.21,0.066-2.469-0.691-2.808-1.854C353.615,223.447,353.99,221.712,355.189,221.101"/>
		</g>
	</g>
	<g>
		<g>
			<g>
				<path fill="#7B92CA" d="M377.444,283.244c0,0-67.715-44.418-70.487-45.341c-2.773-0.925-9.472-5.313-16.174-3.467
					c-6.701,1.849-12.708,7.856-15.712,16.637c-1.716,5.015-2.527,13.574-2.907,19.994c-0.455,7.672,1.921,15.324,6.94,21.146
					c2.285,2.648,5.103,4.954,8.443,5.996c0.704,0.219,1.438,0.407,2.188,0.571c12.803,2.777,25.961-2.971,33.153-13.92l1.58-2.406
					c0,0,44.296,16.275,44.989,16.045L377.444,283.244z"/>
			</g>
		</g>
		<g>
			<g>
				<g>
					<path fill="#455B65" d="M293.671,271.018c0,0,0.123,0.063,0.372,0.165c0.267,0.106,0.635,0.252,1.108,0.438
						c0.999,0.385,2.441,0.94,4.294,1.654c3.765,1.417,9.199,3.465,15.955,6.009c6.777,2.528,14.895,5.535,24.001,8.849
						c9.108,3.311,19.204,6.944,29.984,10.593l0.193,0.068l0.097-0.184c1.693-3.231,3.479-6.643,5.291-10.102
						c0.924-1.766,1.84-3.517,2.695-5.154l0.105-0.198l-0.188-0.118c-20.334-12.908-38.525-24.456-51.652-32.79
						c-6.557-4.134-11.844-7.471-15.515-9.786c-1.817-1.134-3.235-2.019-4.214-2.63c-0.471-0.287-0.836-0.512-1.1-0.674
						c-0.25-0.149-0.383-0.215-0.383-0.215s0.118,0.093,0.358,0.255c0.258,0.172,0.615,0.409,1.075,0.714
						c0.97,0.629,2.37,1.536,4.167,2.703c3.65,2.345,8.913,5.727,15.434,9.914c13.105,8.366,31.268,19.958,51.566,32.916
						l-0.083-0.317c-0.855,1.634-1.773,3.388-2.698,5.152c-1.81,3.46-3.595,6.87-5.286,10.104l0.291-0.119
						c-10.775-3.64-20.872-7.258-29.991-10.54c-9.102-3.313-17.232-6.271-24.036-8.748c-6.775-2.485-12.227-4.484-16.004-5.869
						c-1.864-0.681-3.317-1.207-4.322-1.575c-0.481-0.169-0.854-0.301-1.125-0.397C293.804,271.051,293.671,271.018,293.671,271.018
						z"/>
				</g>
			</g>
		</g>
	</g>
	<g>
		<g>
			<path fill="#263238" d="M300.697,113.289c1.155-3.123,3.706-4.478,6.942-5.26c3.235-0.782,6.832,0.146,9.285,2.394
				c1.642,1.503,2.844,3.581,4.873,4.5c3.338,1.514,7.615-0.698,10.778,1.152c1.875,1.095,2.793,3.587,2.081,5.635
				c-0.713,2.049-2.98,3.432-5.129,3.127c2.176,1.028,2.582,4.3,1.083,6.185c-1.496,1.882-4.266,2.391-6.58,1.736
				s-4.238-2.271-5.872-4.036c-1.636-1.763-3.067-3.722-4.837-5.35c-1.772-1.629-3.98-2.94-6.382-3.03
				c-3.255-0.122-6.258,2.066-7.967,4.839c-1.708,2.773-2.345,6.058-2.821,9.279c-0.477,3.222-0.835,6.508-2.077,9.519
				c-0.146,0.354-0.354,0.744-0.729,0.822c-0.54,0.117-0.936-0.483-1.154-0.992c-2.446-5.736-3.752-11.954-3.821-18.191
				c-0.038-3.621,0.369-7.011,2.616-9.85C293.239,112.928,298.426,111.16,300.697,113.289"/>
		</g>
		<g>
			<g>
				<g>
					<g>
						<g>
							<g>
								<g>
									<g>
										<g>
											<g>
												<g>
													<g>
														<g>
															<g>
																<path fill="#FBBF9E" d="M293.063,127.743l-4.978,36.175c-0.848,6.151,3.626,11.759,9.812,12.301l0,0
																	c5.774,0.506,10.927-3.615,11.712-9.357c0.372-2.724,0.686-4.993,0.742-5.271c0,0,9.329,0.4,11.248-8.623
																	c0.929-4.359,2.106-13.496,3.077-21.774c1.043-8.89-4.929-17.087-13.705-18.842l-0.875-0.175
																	C300.578,110.846,294.129,118.188,293.063,127.743z"/>
															</g>
														</g>
													</g>
												</g>
											</g>
										</g>
									</g>
								</g>
								<g>
									<g>
										<g>
											<g>
												<g>
													<g>
														<g>
															<g>
																<path fill="#F7996E" d="M310.394,161.463c0,0-5.809-0.678-11.122-5.708c0,0,1.488,7.066,10.676,8.057
																	L310.394,161.463z"/>
															</g>
														</g>
													</g>
												</g>
											</g>
										</g>
									</g>
								</g>
							</g>
						</g>
					</g>
					<g>
						<g>
							<g>
								<g>
									<g>
										<g>
											<g>
												<g>
													<g>
														<g>
															<g>
																<g>
																	<g>
																		<g>
																			<path fill="#263238" d="M320.832,136.726c-0.112,0.686-0.787,1.158-1.506,1.055
																				c-0.717-0.104-1.212-0.743-1.099-1.432c0.112-0.687,0.786-1.161,1.504-1.056
																				C320.45,135.398,320.943,136.038,320.832,136.726z"/>
																		</g>
																	</g>
																</g>
															</g>
														</g>
													</g>
												</g>
											</g>
											<g>
												<g>
													<g>
														<g>
															<g>
																<g>
																	<g>
																		<g>
																			<g>
																				<path fill="#263238" d="M321.847,135.245c-0.194,0.136-1.026-0.783-2.419-1.058
																					c-1.384-0.292-2.549,0.217-2.664,0.017c-0.06-0.088,0.164-0.361,0.672-0.594
																					c0.502-0.235,1.311-0.399,2.177-0.224c0.865,0.178,1.529,0.642,1.883,1.053
																					C321.856,134.852,321.94,135.185,321.847,135.245z"/>
																			</g>
																		</g>
																	</g>
																</g>
															</g>
														</g>
													</g>
												</g>
											</g>
										</g>
										<g>
											<g>
												<g>
													<g>
														<g>
															<g>
																<g>
																	<g>
																		<g>
																			<path fill="#263238" d="M307.104,134.474c-0.112,0.687-0.787,1.158-1.506,1.055
																				c-0.719-0.106-1.211-0.745-1.1-1.431c0.112-0.688,0.787-1.16,1.504-1.056
																				C306.724,133.145,307.217,133.786,307.104,134.474z"/>
																		</g>
																	</g>
																</g>
															</g>
														</g>
													</g>
												</g>
											</g>
											<g>
												<g>
													<g>
														<g>
															<g>
																<g>
																	<g>
																		<g>
																			<g>
																				<path fill="#263238" d="M308.131,132.774c-0.193,0.136-1.029-0.784-2.418-1.057
																					c-1.385-0.295-2.548,0.216-2.666,0.016c-0.059-0.089,0.164-0.36,0.676-0.597
																					c0.502-0.233,1.311-0.396,2.175-0.221c0.865,0.177,1.529,0.642,1.883,1.051
																					C308.141,132.382,308.225,132.714,308.131,132.774z"/>
																			</g>
																		</g>
																	</g>
																</g>
															</g>
														</g>
													</g>
												</g>
											</g>
										</g>
										<g>
											<g>
												<g>
													<g>
														<g>
															<g>
																<g>
																	<g>
																		<g>
																			<path fill="#263238" d="M311.116,144.091c0.009-0.081,0.903-0.059,2.338,0.043
																				c0.362,0.034,0.713,0.031,0.821-0.199c0.133-0.24,0.063-0.653-0.026-1.1c-0.163-0.925-0.332-1.895-0.51-2.911
																				c-0.688-4.14-1.113-7.516-0.946-7.542c0.168-0.025,0.862,3.307,1.55,7.447c0.162,1.02,0.317,1.99,0.463,2.921
																				c0.053,0.429,0.192,0.933-0.095,1.431c-0.149,0.244-0.449,0.387-0.687,0.4c-0.241,0.026-0.442-0.011-0.621-0.035
																				C311.981,144.339,311.106,144.17,311.116,144.091z"/>
																		</g>
																	</g>
																</g>
															</g>
														</g>
													</g>
												</g>
											</g>
										</g>
										<g>
											<g>
												<g>
													<g>
														<g>
															<g>
																<g>
																	<g>
																		<g>
																			<path fill="#263238" d="M306.832,144.233c0.229,0.033-0.069,1.542,1.009,2.871
																				c1.074,1.333,2.717,1.483,2.688,1.698c0.001,0.098-0.418,0.222-1.101,0.104c-0.669-0.111-1.6-0.52-2.259-1.333
																				c-0.656-0.813-0.82-1.758-0.747-2.388C306.489,144.546,306.731,144.204,306.832,144.233z"/>
																		</g>
																	</g>
																</g>
															</g>
														</g>
													</g>
												</g>
											</g>
										</g>
									</g>
								</g>
							</g>
							<g>
								<g>
									<g>
										<g>
											<g>
												<g>
													<g>
														<g>
															<path fill="#263238" d="M309.579,127.399c-0.213,0.349-1.564-0.107-3.235-0.236
																c-1.668-0.163-3.078,0.052-3.228-0.329c-0.064-0.183,0.236-0.491,0.842-0.751c0.599-0.261,1.51-0.44,2.51-0.353
																c1.001,0.088,1.866,0.424,2.412,0.783C309.431,126.874,309.673,127.23,309.579,127.399z"/>
														</g>
													</g>
												</g>
											</g>
										</g>
									</g>
								</g>
							</g>
							<g>
								<g>
									<g>
										<g>
											<g>
												<g>
													<g>
														<g>
															<path fill="#263238" d="M322.14,131.121c-0.307,0.266-1.2-0.252-2.349-0.5c-1.138-0.284-2.168-0.212-2.328-0.585
																c-0.065-0.181,0.151-0.468,0.637-0.681c0.479-0.213,1.23-0.315,2.017-0.134c0.785,0.183,1.416,0.605,1.751,1.011
																C322.21,130.635,322.277,130.986,322.14,131.121z"/>
														</g>
													</g>
												</g>
											</g>
										</g>
									</g>
								</g>
							</g>
						</g>
					</g>
				</g>
			</g>
		</g>
		<g>
			<g>
				<g>
					<g>
						<g>
							<g>
								<g>
									<g>
										<g>
											<path fill="#FBBF9E" d="M292.463,134.587c-0.141-0.096-5.847-3.079-6.886,3.145c-1.038,6.222,5.425,5.982,5.464,5.805
												C291.082,143.361,292.463,134.587,292.463,134.587z"/>
										</g>
									</g>
								</g>
							</g>
						</g>
					</g>
				</g>
			</g>
			<g>
				<g>
					<g>
						<g>
							<g>
								<g>
									<g>
										<g>
											<g>
												<path fill="#F7996E" d="M289.534,140.861c-0.025-0.026-0.122,0.058-0.318,0.111c-0.192,0.052-0.509,0.06-0.812-0.117
													c-0.618-0.352-0.999-1.488-0.84-2.614c0.078-0.571,0.287-1.089,0.561-1.501c0.266-0.425,0.615-0.693,0.955-0.696
													c0.342-0.021,0.543,0.215,0.59,0.403c0.054,0.188-0.006,0.307,0.026,0.321c0.015,0.021,0.151-0.08,0.143-0.345
													c-0.005-0.128-0.053-0.288-0.179-0.432c-0.129-0.144-0.338-0.244-0.574-0.257c-0.483-0.047-0.99,0.323-1.292,0.775
													c-0.33,0.453-0.578,1.033-0.665,1.673c-0.17,1.26,0.276,2.54,1.133,2.951c0.418,0.188,0.805,0.116,1.02,0
													C289.498,141.01,289.554,140.878,289.534,140.861z"/>
											</g>
										</g>
									</g>
								</g>
							</g>
						</g>
					</g>
				</g>
			</g>
		</g>
		<g>
			<path fill="#263238" d="M326.967,129.698c-4.197,0.265-8.472-1.637-11.082-4.933c-1.829-2.307-2.991-5.327-5.578-6.727
				c-1.742-0.941-3.886-0.954-5.771-0.354c-1.889,0.6-3.553,1.76-5.041,3.063c0.828,4.947-1.372,9.843-3.514,14.377
				c-0.237,0.501-0.508,1.038-1.005,1.283c-0.845,0.417-1.851-0.244-2.357-1.037c-0.808-1.273-0.902-2.861-0.874-4.367
				c0.07-3.432,0.672-6.882,2.066-10.02c1.392-3.137,3.606-5.951,6.505-7.79c3.62-2.299,8.185-2.956,12.377-2.051
				c4.191,0.905,8,3.308,10.85,6.513c1.322,1.487,2.474,3.194,2.923,5.134"/>
		</g>
	</g>
</g>
</svg>
