<?xml version="1.0" encoding="utf-8"?>
<!-- Generator: Adobe Illustrator 16.0.0, SVG Export Plug-In . SVG Version: 6.00 Build 0)  -->
<!DOCTYPE svg PUBLIC "-//W3C//DTD SVG 1.1//EN" "http://www.w3.org/Graphics/SVG/1.1/DTD/svg11.dtd">
<svg version="1.1" id="Layer_1" xmlns="http://www.w3.org/2000/svg" xmlns:xlink="http://www.w3.org/1999/xlink" x="0px" y="0px"
	 width="640px" height="300px" viewBox="0 0 640 300" enable-background="new 0 0 640 300" xml:space="preserve">
<g opacity="0.3">
	<g>
		<circle fill="#52909D" cx="66.035" cy="134.208" r="1.098"/>
		<circle fill="#52909D" cx="75.78" cy="88.776" r="2.333"/>
		<circle fill="#52909D" cx="117.916" cy="94.129" r="2.471"/>
		<circle fill="#52909D" cx="40.78" cy="157.267" r="0.824"/>
		<circle fill="#52909D" cx="24.859" cy="226.441" r="2.47"/>
		<circle fill="#52909D" cx="201.777" cy="69.012" r="2.882"/>
		<circle fill="#52909D" cx="188.052" cy="33.326" r="2.608"/>
		<circle fill="#52909D" cx="297.991" cy="83.973" r="2.196"/>
		<circle fill="#52909D" cx="358.383" cy="48.561" r="1.647"/>
		<path fill="#52909D" d="M413.009,138.049"/>
		<circle fill="#52909D" cx="348.088" cy="94.266" r="0.686"/>
		<path fill="#52909D" d="M418.087,248.127"/>
		<circle fill="#52909D" cx="409.852" cy="181.286" r="2.333"/>
	</g>
	<g>
		<circle fill="none" stroke="#52909D" stroke-miterlimit="10" cx="308.758" cy="46.012" r="5.613"/>
		<circle fill="none" stroke="#52909D" stroke-miterlimit="10" cx="383.069" cy="80.81" r="3.817"/>
		<circle fill="none" stroke="#52909D" stroke-miterlimit="10" cx="23.859" cy="243.13" r="2.245"/>
		<circle fill="none" stroke="#52909D" stroke-miterlimit="10" cx="40.472" cy="132.446" r="3.367"/>
		<circle fill="none" stroke="#52909D" stroke-miterlimit="10" cx="58.545" cy="102.7" r="1.684"/>
		<circle fill="none" stroke="#52909D" stroke-miterlimit="10" cx="125.336" cy="70.707" r="4.715"/>
		<circle fill="none" stroke="#52909D" stroke-miterlimit="10" cx="155.419" cy="30.745" r="1.347"/>
		<circle fill="none" stroke="#52909D" stroke-miterlimit="10" cx="87.619" cy="36.807" r="2.694"/>
		<circle fill="none" stroke="#52909D" stroke-miterlimit="10" cx="252.631" cy="24.234" r="2.245"/>
		<circle fill="none" stroke="#52909D" stroke-miterlimit="10" cx="350.432" cy="-4.106" r="3.555"/>
		<circle fill="none" stroke="#52909D" stroke-miterlimit="10" cx="107.356" cy="2.805" r="3.357"/>
		<circle fill="none" stroke="#52909D" stroke-miterlimit="10" cx="41.798" cy="45.457" r="2.962"/>
	</g>
</g>
<g>
	<g>
		<path fill="#FFFFFF" d="M467.949,164.98h-0.879c0-0.728-0.593-1.317-1.319-1.317s-1.317,0.591-1.317,1.317h-0.881
			c0-1.211,0.986-2.198,2.198-2.198C466.964,162.782,467.949,163.77,467.949,164.98z"/>
	</g>
</g>
<g>
	<g>
		<path fill="#FFFFFF" d="M471.094,113.784h-0.879c0-0.728-0.592-1.32-1.318-1.32c-0.728,0-1.318,0.593-1.318,1.32h-0.88
			c0-1.213,0.986-2.2,2.198-2.2S471.094,112.571,471.094,113.784z"/>
	</g>
</g>
<g>
	<g>
		<path fill="#415C92" d="M336.726,38.333c-0.671,0-1.213-0.543-1.213-1.213v-4.722c0-0.669,0.542-1.212,1.213-1.212
			c0.669,0,1.214,0.543,1.214,1.212v4.722C337.938,37.79,337.395,38.333,336.726,38.333z"/>
	</g>
	<g>
		<path fill="#415C92" d="M339.086,35.972h-4.721c-0.671,0-1.213-0.543-1.213-1.213c0-0.669,0.542-1.212,1.213-1.212h4.721
			c0.67,0,1.213,0.543,1.213,1.212C340.299,35.429,339.756,35.972,339.086,35.972z"/>
	</g>
</g>
<g>
	<g>
		<path fill="#415C92" d="M263.204,117.641"/>
	</g>
</g>
<g>
	<path fill="#415C92" d="M460.464,81.463"/>
	<g>
		<path fill="#415C92" d="M460.464,83.283c2.341,0,2.345-3.639,0-3.639C458.123,79.645,458.118,83.283,460.464,83.283
			L460.464,83.283z"/>
	</g>
</g>
<g>
	<path fill="#415C92" d="M365.067,63.678"/>
	<g>
		<path fill="#415C92" d="M365.067,65.497c2.341,0,2.346-3.638,0-3.638C362.727,61.859,362.723,65.497,365.067,65.497
			L365.067,65.497z"/>
	</g>
</g>
<g>
	<g>
		<g>
			<rect x="144.09" y="88.606" fill="none" stroke="#B9CEEB" stroke-miterlimit="10" width="377.563" height="208.644"/>
		</g>
		<g>
			<g>
				<path fill="#263238" d="M521.651,297.25c0,0-0.021-0.337-0.028-0.979c-0.008-0.643-0.018-1.596-0.03-2.851
					c-0.013-2.512-0.035-6.231-0.062-11.094c-0.031-9.708-0.079-23.962-0.139-42.165c-0.067-36.35-0.164-88.467-0.281-151.557
					l0.54,0.397c-106.591,0.025-236.939,0.055-377.529,0.087h-0.032l0.659-0.484c-0.023,75.014-0.045,146.055-0.064,208.643
					l-0.594-0.438c111.815,0.09,206.136,0.164,272.511,0.219c33.231,0.05,59.469,0.089,77.401,0.115
					c8.979,0.022,15.877,0.041,20.538,0.053c2.33,0.012,4.1,0.02,5.295,0.025c0.595,0.006,1.044,0.01,1.351,0.012
					C521.49,297.241,521.651,297.25,521.651,297.25s-0.14,0.008-0.432,0.014c-0.3,0.002-0.736,0.006-1.315,0.012
					c-1.18,0.007-2.929,0.015-5.229,0.024c-4.635,0.013-11.494,0.03-20.421,0.054c-17.902,0.026-44.092,0.065-77.268,0.115
					c-66.469,0.055-160.923,0.129-272.897,0.219h-0.594v-0.438c-0.019-62.588-0.042-133.629-0.064-208.643v-0.484h0.658h0.032
					c140.589,0.033,270.938,0.063,377.529,0.087h0.542l-0.002,0.397c-0.117,63.195-0.214,115.397-0.28,151.806
					c-0.062,18.165-0.106,32.389-0.141,42.076c-0.025,4.828-0.047,8.522-0.06,11.019c-0.014,1.236-0.023,2.175-0.03,2.81
					C521.672,296.941,521.651,297.25,521.651,297.25z"/>
			</g>
		</g>
	</g>
	<g>
		<g>
			<path fill="#263238" d="M519.763,114.155c0,0.017-0.321,0.033-0.954,0.049c-0.65,0.011-1.583,0.026-2.801,0.046
				c-2.48,0.019-6.104,0.047-10.767,0.083c-9.352,0.056-22.881,0.082-39.603,0.079c-33.438-0.001-79.633-0.184-130.646-0.488
				c-51.025-0.301-97.21-0.574-130.663-0.772c-16.705-0.096-30.226-0.174-39.596-0.228c-4.66-0.043-8.283-0.076-10.765-0.099
				c-1.216-0.022-2.149-0.038-2.799-0.05c-0.631-0.017-0.955-0.034-0.955-0.05s0.323-0.033,0.955-0.049
				c0.65-0.011,1.583-0.026,2.799-0.046c2.482-0.019,6.105-0.047,10.766-0.083c9.351-0.055,22.88-0.081,39.599-0.079
				c33.44,0.001,79.637,0.184,130.669,0.488c51.007,0.301,97.189,0.574,130.642,0.771c16.704,0.096,30.229,0.174,39.598,0.229
				c4.662,0.042,8.286,0.076,10.767,0.099c1.218,0.021,2.149,0.038,2.802,0.05C519.44,114.122,519.763,114.139,519.763,114.155z"/>
		</g>
	</g>
	<g>
		<ellipse fill="#263238" cx="164.31" cy="99.203" rx="4.446" ry="3.27"/>
	</g>
	<g>
		<ellipse fill="#263238" cx="182.093" cy="99.203" rx="4.446" ry="3.27"/>
	</g>
	<g>
		<ellipse fill="#263238" cx="199.876" cy="99.203" rx="4.446" ry="3.27"/>
	</g>
</g>
<g>
	<g>
		<path fill="#B9CEEB" d="M544.807,156.072c-1.869-34.642-38.067-52.066-56.59-54.314L473.4,119.207
			c11.935-1.795,41.603,14.765,43.05,26.748c1.448,11.982-7.683,27.294-19.7,28.395c-9.441,0.863-25.176-7.515-31.174-0.172
			c-15.136-13.48-40.992-12.369-54.915,2.361c-10.709-3.832-23.14-2.494-32.788,3.529c-9.648,6.022-16.311,16.604-17.569,27.908
			l55.743,32.361c0,0,23.238,20.821,39.073,7.986c5.408-4.385,7.47-10.674,7.974-16.735c1.06,0.124,2.139,0.063,3.16-0.209
			c4.023-1.071,7.003-4.679,8.314-8.63c0.169-0.507,0.305-1.025,0.424-1.55c13.536,2.971,31.997-0.396,42.888-7.195
			C533.706,204.126,545.813,174.702,544.807,156.072z"/>
	</g>
	<g>
		<g>
			<path fill="#263238" d="M469.518,180.878c-0.008,0.004-0.076-0.088-0.204-0.271c-0.141-0.209-0.323-0.48-0.556-0.824
				c-0.236-0.365-0.535-0.814-0.93-1.316c-0.387-0.506-0.807-1.109-1.36-1.726c-2.116-2.515-5.584-5.962-10.832-8.712
				c-2.604-1.379-5.646-2.561-9.039-3.277c-3.385-0.727-7.125-0.992-10.991-0.493c-7.703,0.914-15.981,4.712-21.999,11.431
				c-0.834,0.9-1.563,1.877-2.253,2.777l-0.136,0.178l-0.191-0.097c-7.718-3.837-16.324-4.315-23.469-2.604
				c-1.803,0.402-3.497,1.013-5.122,1.645c-1.596,0.702-3.13,1.436-4.537,2.271c-2.849,1.623-5.289,3.48-7.289,5.406
				c-4.026,3.853-6.195,7.914-7.28,10.793c-0.298,0.715-0.502,1.371-0.678,1.941c-0.191,0.564-0.323,1.051-0.415,1.447
				c-0.099,0.373-0.175,0.67-0.234,0.896c-0.056,0.202-0.088,0.305-0.097,0.303c-0.008-0.002,0.008-0.107,0.047-0.313
				c0.047-0.231,0.108-0.531,0.186-0.91c0.076-0.401,0.192-0.896,0.37-1.467c0.162-0.577,0.354-1.242,0.639-1.969
				c1.034-2.919,3.177-7.054,7.215-10.981c2.006-1.962,4.46-3.857,7.326-5.512c1.418-0.854,2.96-1.602,4.575-2.322
				c1.645-0.646,3.36-1.273,5.187-1.688c7.236-1.762,15.966-1.297,23.811,2.598l-0.327,0.082c0.699-0.916,1.44-1.907,2.287-2.822
				c6.112-6.822,14.515-10.658,22.33-11.56c3.922-0.493,7.718-0.207,11.142,0.548c3.431,0.746,6.498,1.96,9.119,3.374
				c5.279,2.821,8.735,6.341,10.816,8.908c0.544,0.63,0.954,1.245,1.329,1.765c0.383,0.514,0.668,0.973,0.892,1.35
				c0.215,0.355,0.384,0.638,0.514,0.854C469.472,180.771,469.525,180.873,469.518,180.878z"/>
		</g>
	</g>
	<g>
		<g>
			<path fill="#263238" d="M480.29,173.639c-0.056,0.081-0.778-0.449-2.097-0.941c-0.655-0.254-1.473-0.453-2.389-0.584
				c-0.92-0.104-1.941-0.121-3.003,0.016c-1.059,0.153-2.039,0.445-2.896,0.792c-0.849,0.37-1.58,0.782-2.145,1.204
				c-1.138,0.828-1.689,1.532-1.766,1.469c-0.028-0.021,0.091-0.209,0.335-0.535c0.234-0.332,0.646-0.76,1.206-1.227
				c0.556-0.475,1.301-0.939,2.177-1.352c0.886-0.389,1.91-0.707,3.02-0.869c1.109-0.143,2.183-0.108,3.141,0.027
				c0.954,0.161,1.796,0.408,2.459,0.717c0.664,0.301,1.176,0.602,1.491,0.858C480.146,173.461,480.313,173.609,480.29,173.639z"/>
		</g>
	</g>
	<g>
		<g>
			<path fill="#263238" d="M496.041,194.706c-0.022,0.042-0.565-0.28-1.637-0.664c-1.065-0.374-2.701-0.787-4.752-0.674
				c-2.029,0.108-4.507,0.791-6.621,2.555c-2.105,1.722-3.842,4.47-4.21,7.677l-0.047,0.411l-0.35-0.225
				c-1.104-0.713-2.345-1.329-3.666-1.8c-3.509-1.271-7.193-1.355-10.332-0.647c-3.149,0.729-5.735,2.236-7.605,3.804
				c-1.884,1.573-3.091,3.183-3.84,4.33c-0.74,1.159-1.06,1.857-1.104,1.836c-0.017-0.009,0.052-0.187,0.199-0.521
				c0.14-0.34,0.388-0.817,0.731-1.421c0.703-1.193,1.885-2.864,3.773-4.507c1.876-1.633,4.502-3.211,7.736-3.988
				c3.219-0.753,7.008-0.684,10.615,0.625c1.358,0.484,2.637,1.12,3.771,1.857l-0.396,0.187c0.396-3.358,2.228-6.203,4.435-7.97
				c2.222-1.813,4.807-2.479,6.893-2.543c2.111-0.069,3.771,0.406,4.833,0.843c0.534,0.217,0.934,0.422,1.189,0.58
				C495.919,194.605,496.049,194.691,496.041,194.706z"/>
		</g>
	</g>
	<g>
		<g>
			<path fill="#263238" d="M539.223,135.839c0.017-0.008,0.154,0.232,0.403,0.699c0.241,0.471,0.628,1.152,1.052,2.065
				c0.828,1.832,1.934,4.544,2.801,8.046c0.87,3.497,1.468,7.777,1.514,12.544c0.012,2.382-0.087,4.887-0.379,7.463
				c-0.26,2.58-0.697,5.232-1.279,7.918c-2.34,10.766-6.608,19.917-10.462,25.982c-1.912,3.055-3.74,5.34-5.1,6.825
				c-0.694,0.729-1.236,1.292-1.642,1.638c-0.394,0.355-0.604,0.535-0.617,0.522c-0.012-0.015,0.178-0.22,0.544-0.599
				c0.38-0.368,0.896-0.95,1.563-1.696c1.305-1.519,3.077-3.822,4.938-6.886c3.752-6.081,7.941-15.202,10.266-25.897
				c0.579-2.668,1.019-5.303,1.282-7.862c0.296-2.558,0.403-5.043,0.405-7.405c-0.02-4.73-0.572-8.979-1.392-12.461
				c-0.815-3.487-1.86-6.2-2.628-8.05c-0.394-0.921-0.749-1.615-0.96-2.1C539.313,136.105,539.206,135.848,539.223,135.839z"/>
		</g>
	</g>
	<g>
		<g>
			<path fill="#263238" d="M511.564,137.191c0.021-0.021,0.367,0.306,0.927,0.959c0.56,0.652,1.304,1.657,2.069,2.995
				c1.538,2.647,3.028,6.822,2.877,11.571c-0.153,4.75-1.908,8.82-3.613,11.364c-0.852,1.285-1.658,2.24-2.26,2.854
				c-0.599,0.616-0.965,0.92-0.984,0.898c-0.082-0.073,1.334-1.364,2.934-3.95c1.6-2.554,3.254-6.55,3.404-11.185
				c0.146-4.632-1.248-8.726-2.68-11.377C512.809,138.639,511.479,137.258,511.564,137.191z"/>
		</g>
	</g>
	<g>
		<g>
			<g>
				<g>
					<path fill="#B9CEEB" d="M474.902,110.335c2.545,3.911,5.889,7.291,9.747,9.913c2.521,1.713,5.769-0.822,4.754-3.697
						l-0.027-0.076c4.544,3.479,9.316,6.658,14.275,9.513c3.168,1.824,6.887-1.284,5.634-4.718
						c-4.908-13.455-14.785-25.106-27.41-31.911L474.902,110.335z"/>
				</g>
			</g>
			<g opacity="0.3">
				<g>
					<g>
						<path d="M480.663,110.813c0.44,0.663,0.899,1.343,1.563,1.784c0.663,0.441,1.59,0.587,2.246,0.136
							c0.982-0.674,0.944-2.296,1.959-2.919c1.079-0.662,2.407,0.268,3.323,1.142c0.969,0.923,1.938,1.846,2.905,2.77
							c0.712,0.679,1.671,1.411,2.58,1.036c1.007-0.415,1.067-1.812,0.85-2.878c-1.016-4.941-4.632-9.27-9.313-11.148
							L480.663,110.813z"/>
					</g>
				</g>
			</g>
			<g>
				<g>
					<path fill="#B9CEEB" d="M519.163,134.637c-0.093,1.754,1.396,3.44,3.149,3.565c1.752,0.125,3.465-1.333,3.621-3.083
						c0.157-1.75-1.27-3.489-3.016-3.679s-3.512,1.205-3.732,2.947"/>
				</g>
			</g>
		</g>
		<g>
			<g>
				<g>
					<path fill="#F5F5F5" d="M335.295,13.974c-2.813,4.387,3.354,19.728,17.491,39.373c13.921,19.343,29.964,30.182,29.964,30.182
						l81.538,52.306l13.782-21.485l7.987-12.452l13.782-21.485l-73.992-47.464c-7.229-4.638-14.869-8.609-22.85-11.789
						c-6.861-2.734-15.468-5.693-24.623-7.704C354.829,8.285,338.109,9.587,335.295,13.974"/>
				</g>
			</g>
			<g>
				<g>
					<g>
						<g>
							<g>
								<path fill="#B9CEEB" d="M448.749,47.639c0.044-0.016,0.146-0.051,0.3-0.103c17.544-5.896,36.819-3.477,52.398,6.517
									l9.771,6.268l-25.931,10.758L448.749,47.639z"/>
							</g>
						</g>
						<g>
							<g>
								<g>
									<path fill="#263238" d="M448.749,47.639c0.005,0,0.068,0.039,0.188,0.114c0.131,0.082,0.306,0.191,0.529,0.332
										c0.474,0.299,1.152,0.73,2.03,1.286c1.772,1.126,4.344,2.759,7.582,4.815c6.464,4.12,15.592,9.937,26.295,16.757
										l-0.147-0.013c7.275-3.022,15.267-6.341,23.633-9.817c0.785-0.326,1.567-0.651,2.294-0.952l-0.027,0.304
										c-1.945-1.249-3.867-2.482-5.76-3.696c-1.898-1.202-3.738-2.445-5.607-3.539c-3.718-2.231-7.533-3.98-11.281-5.3
										c-3.746-1.338-7.441-2.182-10.928-2.714c-1.737-0.31-3.439-0.417-5.068-0.582c-1.635-0.058-3.201-0.18-4.699-0.123
										c-5.998,0.049-10.794,0.943-14.031,1.743c-1.636,0.351-2.861,0.786-3.71,1.014
										C449.29,47.484,448.941,47.583,448.749,47.639c0,0,0.095-0.044,0.317-0.126c0.227-0.073,0.543-0.176,0.951-0.308
										c0.844-0.25,2.064-0.705,3.698-1.077c3.234-0.841,8.04-1.775,14.062-1.855c1.504-0.065,3.078,0.05,4.721,0.101
										c1.635,0.159,3.347,0.259,5.094,0.564c3.502,0.522,7.221,1.36,10.988,2.696c3.771,1.318,7.609,3.069,11.351,5.309
										c1.887,1.1,3.719,2.337,5.619,3.539c1.895,1.214,3.815,2.446,5.763,3.694l0.277,0.178l-0.306,0.126
										c-0.727,0.301-1.508,0.626-2.294,0.952c-8.369,3.468-16.362,6.779-23.642,9.794l-0.077,0.032l-0.07-0.045
										c-10.711-6.917-19.846-12.814-26.315-16.992c-3.199-2.073-5.739-3.719-7.493-4.855c-0.854-0.556-1.518-0.986-1.979-1.286
										c-0.214-0.14-0.38-0.249-0.503-0.33C448.799,47.676,448.745,47.638,448.749,47.639z"/>
								</g>
							</g>
						</g>
					</g>
					<g>
						<g>
							<g>
								<path fill="#B9CEEB" d="M413.197,103.061c0.003,0.045,0.014,0.151,0.029,0.311c1.93,18.154,12.025,34.441,27.393,44.298
									l9.638,6.184l-1.019-27.672L413.197,103.061z"/>
							</g>
						</g>
						<g>
							<g>
								<g>
									<path fill="#263238" d="M413.197,103.061c-0.003-0.004,0.053,0.029,0.165,0.099c0.124,0.078,0.289,0.181,0.503,0.315
										c0.459,0.29,1.117,0.707,1.967,1.245c1.74,1.105,4.26,2.705,7.435,4.721c6.406,4.083,15.451,9.846,26.059,16.605
										l0.071,0.045l0.003,0.084c0.289,7.766,0.606,16.293,0.94,25.224c0.03,0.838,0.062,1.675,0.09,2.447l0.013,0.33
										l-0.277-0.178c-1.92-1.232-3.815-2.449-5.682-3.646c-1.859-1.211-3.723-2.345-5.483-3.583
										c-3.547-2.433-6.696-5.155-9.428-7.994c-2.748-2.829-5.027-5.818-6.937-8.744c-0.993-1.441-1.786-2.934-2.601-4.334
										c-0.723-1.452-1.474-2.815-2.032-4.191c-2.404-5.431-3.542-10.124-4.118-13.369c-0.339-1.618-0.433-2.9-0.556-3.759
										c-0.05-0.42-0.088-0.746-0.115-0.98C413.196,103.163,413.197,103.061,413.197,103.061c0.029,0.197,0.084,0.55,0.199,1.308
										c0.145,0.855,0.26,2.132,0.616,3.743c0.615,3.231,1.785,7.899,4.208,13.296c0.565,1.367,1.319,2.722,2.044,4.164
										c0.817,1.391,1.612,2.874,2.605,4.305c1.91,2.905,4.188,5.873,6.927,8.68c2.726,2.818,5.861,5.52,9.392,7.935
										c1.749,1.227,3.619,2.365,5.479,3.573c1.867,1.197,3.763,2.414,5.683,3.644l-0.265,0.152
										c-0.029-0.775-0.06-1.61-0.091-2.449c-0.324-8.93-0.634-17.458-0.916-25.224l0.073,0.129
										c-10.518-6.791-19.484-12.583-25.837-16.685c-3.176-2.057-5.695-3.69-7.437-4.817c-0.858-0.558-1.522-0.991-1.987-1.292
										c-0.219-0.144-0.389-0.255-0.516-0.338C413.26,103.105,413.199,103.064,413.197,103.061z"/>
								</g>
							</g>
						</g>
					</g>
					<g>
						<path fill="#B9CEEB" d="M335.295,13.974c-2.301,3.309,1.021,13.338,9.121,26.759l21.936-29.549
							C350.576,9.237,338.252,9.724,335.295,13.974z"/>
					</g>
				</g>
				<g>
					<g>
						<g>
							<line fill="none" x1="451.366" y1="127.549" x2="486.239" y2="72.479"/>
						</g>
					</g>
					<g>
						<g>
							<g>
								<path fill="#263238" d="M486.239,72.479c0.081,0.051-7.661,12.421-17.29,27.626c-9.632,15.21-17.503,27.495-17.583,27.444
									c-0.08-0.051,7.66-12.418,17.292-27.628C478.286,84.716,486.159,72.428,486.239,72.479z"/>
							</g>
						</g>
					</g>
				</g>
				<g>
					<g>
						<g>
							<line fill="none" x1="453.681" y1="129.379" x2="488.554" y2="74.31"/>
						</g>
					</g>
					<g>
						<g>
							<g>
								<path fill="#263238" d="M488.554,74.31c0.081,0.051-7.661,12.421-17.29,27.625c-9.632,15.21-17.503,27.495-17.583,27.444
									c-0.081-0.051,7.66-12.418,17.292-27.628C480.601,86.546,488.474,74.259,488.554,74.31z"/>
							</g>
						</g>
					</g>
				</g>
				<g>
					<g>
						<g>
							<line fill="none" x1="456.316" y1="131.009" x2="491.189" y2="75.939"/>
						</g>
					</g>
					<g>
						<g>
							<g>
								<path fill="#263238" d="M491.189,75.939c0.08,0.051-7.661,12.421-17.29,27.626c-9.633,15.21-17.503,27.495-17.583,27.444
									c-0.081-0.051,7.659-12.418,17.292-27.628C483.236,88.176,491.109,75.889,491.189,75.939z"/>
							</g>
						</g>
					</g>
				</g>
				<g>
					<g>
						<g>
							<line fill="none" x1="458.952" y1="132.639" x2="493.825" y2="77.569"/>
						</g>
					</g>
					<g>
						<g>
							<g>
								<path fill="#263238" d="M493.825,77.569c0.081,0.051-7.661,12.421-17.29,27.626c-9.632,15.21-17.503,27.495-17.583,27.444
									c-0.081-0.051,7.66-12.418,17.292-27.628C485.872,89.806,493.745,77.518,493.825,77.569z"/>
							</g>
						</g>
					</g>
				</g>
				<g>
					<g>
						<g>
							<line fill="none" x1="461.588" y1="134.268" x2="496.461" y2="79.199"/>
						</g>
					</g>
					<g>
						<g>
							<g>
								<path fill="#263238" d="M496.461,79.198c0.081,0.051-7.661,12.421-17.29,27.626c-9.632,15.21-17.503,27.495-17.583,27.444
									c-0.08-0.051,7.66-12.418,17.292-27.628C488.508,91.435,496.381,79.147,496.461,79.198z"/>
							</g>
						</g>
					</g>
				</g>
				<g>
					<g>
						<g>
							<path fill="#263238" d="M431.104,75.28c0.004-0.011,0.146,0.051,0.42,0.183c0.28,0.124,0.65,0.361,1.147,0.644
								c0.983,0.578,2.387,1.446,4.11,2.533c3.447,2.175,8.177,5.232,13.378,8.641c5.203,3.41,9.895,6.525,13.278,8.795
								c1.662,1.125,3.021,2.044,3.997,2.706c0.444,0.31,0.803,0.559,1.077,0.75c0.244,0.175,0.369,0.271,0.362,0.282
								c-0.007,0.01-0.146-0.067-0.401-0.224c-0.282-0.178-0.651-0.409-1.111-0.697c-0.992-0.639-2.37-1.526-4.059-2.614
								c-3.44-2.248-8.141-5.317-13.334-8.709c-5.187-3.397-9.881-6.472-13.319-8.724c-1.685-1.091-3.06-1.982-4.05-2.624
								c-0.481-0.298-0.849-0.558-1.106-0.695C431.236,75.376,431.101,75.292,431.104,75.28z"/>
						</g>
					</g>
				</g>
				<g>
					<g>
						<g>
							<path fill="#263238" d="M448.749,47.639c0.08,0.051-7.737,12.401-17.458,27.581c-9.725,15.186-17.67,27.448-17.751,27.397
								c-0.08-0.051,7.735-12.398,17.46-27.583C440.722,59.854,448.669,47.587,448.749,47.639z"/>
						</g>
					</g>
				</g>
				<g>
					<g>
						<g>
							<path fill="#263238" d="M460.843,88.088c-0.017,0.002-0.067-0.172-0.022-0.493c0.043-0.314,0.216-0.782,0.644-1.188
								c0.406-0.403,1.161-0.73,1.94-0.486c0.752,0.218,1.483,0.913,1.586,1.858c0.075,0.949-0.519,1.767-1.216,2.12
								c-0.723,0.384-1.523,0.202-1.997-0.12c-0.496-0.321-0.751-0.748-0.854-1.05c-0.103-0.307-0.084-0.488-0.065-0.489
								c0.028-0.004,0.058,0.167,0.189,0.437c0.13,0.266,0.396,0.632,0.854,0.894c0.446,0.263,1.123,0.385,1.724,0.047
								c0.59-0.312,1.086-1.033,1.02-1.806c-0.076-0.772-0.696-1.388-1.335-1.586c-0.651-0.221-1.294,0.023-1.685,0.364
								c-0.403,0.342-0.597,0.75-0.676,1.036C460.869,87.913,460.873,88.087,460.843,88.088z"/>
						</g>
					</g>
				</g>
				<g>
					<g>
						<g>
							<path fill="#263238" d="M445.271,77.687c-0.019,0.002-0.069-0.172-0.024-0.493c0.043-0.315,0.217-0.782,0.645-1.189
								c0.406-0.404,1.16-0.73,1.94-0.486c0.752,0.218,1.484,0.913,1.585,1.858c0.075,0.949-0.517,1.767-1.216,2.12
								c-0.723,0.384-1.522,0.201-1.997-0.12c-0.495-0.321-0.751-0.748-0.853-1.05c-0.104-0.307-0.085-0.488-0.066-0.489
								c0.029-0.004,0.059,0.167,0.19,0.437c0.131,0.266,0.396,0.632,0.854,0.894c0.446,0.263,1.123,0.385,1.723,0.047
								c0.591-0.312,1.086-1.033,1.021-1.806c-0.077-0.771-0.696-1.389-1.335-1.586c-0.651-0.222-1.294,0.023-1.686,0.364
								c-0.401,0.342-0.597,0.75-0.675,1.036C445.298,77.511,445.301,77.686,445.271,77.687z"/>
						</g>
					</g>
				</g>
				<g>
					<g>
						<g>
							<path fill="#263238" d="M415.285,70.446c-0.019,0.002-0.068-0.172-0.024-0.493c0.044-0.315,0.218-0.782,0.646-1.189
								c0.406-0.404,1.16-0.73,1.939-0.486c0.752,0.218,1.484,0.913,1.586,1.858c0.075,0.949-0.518,1.767-1.217,2.12
								c-0.722,0.384-1.521,0.202-1.996-0.121c-0.496-0.321-0.752-0.748-0.853-1.05c-0.104-0.307-0.084-0.488-0.067-0.489
								c0.029-0.004,0.06,0.167,0.191,0.437c0.13,0.266,0.396,0.632,0.854,0.894c0.446,0.263,1.123,0.385,1.724,0.047
								c0.591-0.312,1.086-1.033,1.021-1.806c-0.078-0.772-0.697-1.389-1.335-1.586c-0.652-0.222-1.294,0.023-1.686,0.364
								c-0.402,0.342-0.598,0.75-0.676,1.036C415.313,70.271,415.315,70.445,415.285,70.446z"/>
						</g>
					</g>
				</g>
				<g>
					<g>
						<g>
							<path fill="#263238" d="M401.935,67.199c0.06-0.078,5.778,3.074,12.773,7.04c6.997,3.967,12.62,7.246,12.561,7.324
								c-0.059,0.078-5.776-3.074-12.773-7.041C407.5,70.556,401.876,67.277,401.935,67.199z"/>
						</g>
					</g>
				</g>
				<g opacity="0.3">
					<g>
						<g>
							<path d="M448.296,125.576c0,0-23.314-15.723-35.099-22.515c4.067,5.836,8.764,12.458,14.413,16.779
								C433.317,124.205,441.153,126.362,448.296,125.576z"/>
						</g>
					</g>
				</g>
			</g>
			<g>
				<g>
					<circle fill="#B9CEEB" cx="391.507" cy="50.609" r="19.722"/>
				</g>
				<g>
					<g>
						<path fill="#263238" d="M411.197,51.731c-0.01,0-0.019-0.109-0.024-0.321c-0.006-0.239-0.012-0.548-0.021-0.937
							c0.005-0.412-0.008-0.92-0.093-1.517c-0.063-0.598-0.116-1.29-0.305-2.049c-0.268-1.535-0.882-3.364-1.897-5.323
							c-1.025-1.951-2.545-4.012-4.665-5.808c-2.115-1.78-4.82-3.344-8.001-4.092c-3.16-0.727-6.768-0.831-10.271,0.279
							c-1.76,0.501-3.475,1.313-5.069,2.37c-0.819,0.498-1.55,1.138-2.311,1.75c-0.695,0.687-1.422,1.356-2.032,2.146
							c-2.573,3.044-4.153,7.058-4.434,11.27c-0.202,4.218,0.912,8.386,3.123,11.705c0.517,0.854,1.163,1.602,1.774,2.363
							c0.688,0.695,1.338,1.414,2.099,2.002c1.463,1.231,3.075,2.233,4.768,2.931c3.354,1.5,6.949,1.807,10.172,1.444
							c3.245-0.383,6.11-1.629,8.414-3.157c2.313-1.543,4.055-3.419,5.295-5.241c1.231-1.83,2.051-3.578,2.49-5.072
							c0.272-0.733,0.404-1.414,0.535-2c0.151-0.583,0.222-1.086,0.264-1.496c0.053-0.385,0.095-0.692,0.126-0.929
							C411.168,51.838,411.188,51.731,411.197,51.731c0.009,0,0.006,0.109-0.008,0.32c-0.021,0.239-0.045,0.548-0.075,0.938
							c-0.025,0.414-0.079,0.923-0.216,1.514c-0.116,0.594-0.234,1.285-0.494,2.03c-0.415,1.52-1.215,3.302-2.442,5.175
							c-1.236,1.864-2.988,3.791-5.33,5.383c-2.333,1.577-5.25,2.87-8.564,3.281c-3.291,0.391-6.973,0.093-10.416-1.431
							c-1.735-0.71-3.394-1.731-4.896-2.99c-0.78-0.602-1.451-1.336-2.156-2.049c-0.631-0.779-1.294-1.546-1.825-2.42
							c-1.097-1.715-2.029-3.606-2.545-5.658c-0.537-2.04-0.767-4.188-0.671-6.355c0.284-4.323,1.915-8.446,4.561-11.565
							c0.628-0.809,1.375-1.495,2.09-2.197c0.781-0.627,1.531-1.281,2.374-1.79c1.638-1.08,3.399-1.906,5.204-2.414
							c3.595-1.123,7.285-1.001,10.51-0.238c3.248,0.784,5.999,2.4,8.138,4.231c2.146,1.848,3.668,3.961,4.686,5.954
							c1.007,2,1.6,3.862,1.839,5.419c0.174,0.77,0.212,1.47,0.26,2.074c0.068,0.603,0.064,1.115,0.043,1.529
							c-0.014,0.39-0.023,0.7-0.032,0.94C411.216,51.625,411.206,51.732,411.197,51.731z"/>
					</g>
				</g>
			</g>
		</g>
		<g>
			<g>
				<g>
					<path fill="#263238" d="M335.296,13.974c0,0,0.04-0.066,0.13-0.192c0.082-0.132,0.23-0.309,0.451-0.521
						c0.439-0.423,1.201-0.949,2.306-1.408c2.207-0.925,5.716-1.603,10.26-1.789c4.547-0.2,10.141,0.058,16.587,0.895
						c6.439,0.852,13.762,2.193,21.691,4.436c3.962,1.127,8.073,2.47,12.307,4.036c4.23,1.564,8.59,3.353,12.978,5.495
						c4.388,2.14,8.823,4.588,13.235,7.382c4.393,2.811,8.922,5.709,13.577,8.689c18.612,11.93,39.241,25.151,61.163,39.2
						l0.217,0.139l-0.141,0.217c-5.704,8.896-11.684,18.217-17.771,27.708c-6.091,9.493-12.073,18.817-17.781,27.713l-0.139,0.217
						l-0.218-0.139c-21.916-14.072-42.537-27.312-61.145-39.259c-4.65-2.988-9.175-5.895-13.562-8.714
						c-2.193-1.41-4.354-2.797-6.477-4.162c-2.106-1.421-4.053-2.964-5.944-4.51c-7.535-6.215-13.838-12.772-19.093-19.112
						c-5.19-6.402-9.353-12.564-12.77-18.09c-3.406-5.534-5.994-10.494-7.755-14.689c-1.771-4.189-2.685-7.639-2.804-10.03
						c-0.061-1.194,0.091-2.107,0.289-2.685c0.101-0.29,0.197-0.499,0.283-0.628C335.252,14.038,335.296,13.974,335.296,13.974
						c0.027,0.014-0.183,0.26-0.358,0.842c-0.182,0.576-0.313,1.48-0.237,2.664c0.147,2.371,1.086,5.797,2.877,9.963
						c1.782,4.173,4.39,9.11,7.813,14.621c3.434,5.502,7.61,11.645,12.806,18.014c5.26,6.31,11.561,12.836,19.086,19.017
						c1.885,1.534,3.837,3.076,5.918,4.473c2.126,1.361,4.287,2.745,6.481,4.15c4.393,2.813,8.92,5.712,13.574,8.693
						c18.615,11.931,39.247,25.154,61.173,39.207l-0.354,0.078c5.706-8.897,11.687-18.222,17.775-27.716
						c6.089-9.49,12.069-18.811,17.776-27.705l0.077,0.355c-21.909-14.067-42.526-27.305-61.131-39.25
						c-4.649-2.986-9.175-5.891-13.563-8.708c-4.395-2.792-8.812-5.241-13.182-7.383c-4.371-2.145-8.71-3.936-12.932-5.508
						c-4.221-1.572-8.319-2.923-12.27-4.058c-7.903-2.259-15.209-3.623-21.634-4.499c-6.431-0.861-12.01-1.146-16.544-0.976
						c-4.533,0.157-8.029,0.803-10.23,1.692c-1.102,0.442-1.862,0.948-2.309,1.355C335.457,13.7,335.32,13.993,335.296,13.974z"/>
				</g>
			</g>
		</g>
	</g>
</g>
<g>
	<g>
		<g>
			<path fill="none" stroke="#B9CEEB" stroke-miterlimit="10" d="M416.191,230.082H242.527c-11.34,0-20.534-9.193-20.534-20.534l0,0
				c0-11.34,9.193-20.532,20.534-20.532h173.665c11.34,0,20.532,9.192,20.532,20.532l0,0
				C436.725,220.889,427.531,230.082,416.191,230.082z"/>
		</g>
		<g>
			<g>
				<path fill="#263238" d="M416.191,230.082c0,0,0.416-0.039,1.227-0.089c0.405-0.025,0.911-0.037,1.502-0.153
					c0.591-0.111,1.292-0.16,2.051-0.395c0.383-0.101,0.787-0.206,1.215-0.318c0.421-0.136,0.854-0.311,1.313-0.477
					c0.228-0.086,0.461-0.174,0.7-0.266c0.229-0.111,0.464-0.226,0.704-0.342c0.474-0.244,0.994-0.447,1.475-0.771
					c1.998-1.147,4.125-2.842,5.953-5.225c0.453-0.597,0.917-1.212,1.302-1.904c0.438-0.662,0.786-1.396,1.138-2.149
					c0.384-0.739,0.604-1.57,0.923-2.38c0.106-0.424,0.216-0.85,0.325-1.281l0.166-0.65l0.104-0.673
					c0.068-0.45,0.137-0.905,0.206-1.364c0.021-0.465,0.046-0.936,0.069-1.41l0.031-0.715l-0.038-0.723
					c-0.03-0.482-0.038-0.974-0.09-1.464c-0.232-1.965-0.755-3.965-1.584-5.921c-1.704-3.885-4.813-7.514-9.063-9.813
					c-2.119-1.145-4.518-1.912-7.036-2.228c-2.518-0.285-5.166-0.142-7.855-0.174c-43.104,0.02-102.636,0.047-168.388,0.075
					c-2.031,0.041-4.046,0.322-5.983,0.896c-1.92,0.623-3.744,1.5-5.417,2.605c-1.649,1.145-3.117,2.52-4.387,4.052
					c-1.258,1.547-2.237,3.292-3.008,5.108c-0.762,1.828-1.17,3.772-1.396,5.719c-0.161,1.957-0.06,3.921,0.293,5.836
					c0.419,1.897,1.021,3.757,1.932,5.464c0.929,1.687,2.016,3.295,3.366,4.657c2.662,2.746,6.068,4.732,9.726,5.604
					c0.901,0.279,1.844,0.341,2.764,0.504c0.938,0.036,1.856,0.132,2.804,0.109c1.884,0.001,3.758,0.001,5.623,0.002
					c7.458,0.003,14.759,0.006,21.883,0.009c28.494,0.021,54.151,0.04,75.704,0.057c21.542,0.035,38.976,0.063,51.036,0.082
					c6.019,0.021,10.692,0.039,13.876,0.049c1.579,0.013,2.784,0.021,3.607,0.025C415.774,230.063,416.191,230.082,416.191,230.082
					s-0.417,0.018-1.229,0.025c-0.823,0.007-2.029,0.016-3.608,0.025c-3.183,0.012-7.856,0.028-13.876,0.051
					c-12.061,0.02-29.493,0.047-51.035,0.082c-21.553,0.017-47.21,0.034-75.705,0.055c-7.124,0.004-14.425,0.007-21.883,0.01
					c-1.864,0.001-3.739,0.002-5.623,0.002c-0.937,0.023-1.903-0.072-2.856-0.109c-0.942-0.166-1.909-0.23-2.833-0.515
					c-3.75-0.894-7.243-2.929-9.972-5.741c-1.384-1.396-2.5-3.043-3.453-4.773c-0.935-1.75-1.554-3.654-1.983-5.603
					c-0.364-1.964-0.468-3.978-0.303-5.983c0.229-1.994,0.65-3.988,1.43-5.864c0.79-1.864,1.794-3.653,3.084-5.24
					c1.301-1.573,2.808-2.983,4.499-4.155c1.716-1.135,3.586-2.035,5.556-2.673c1.987-0.589,4.055-0.879,6.137-0.92
					c65.752,0.03,125.282,0.058,168.388,0.076c2.693,0.04,5.32-0.103,7.899,0.194c2.563,0.326,4.999,1.115,7.148,2.283
					c4.312,2.348,7.456,6.043,9.172,9.987c0.837,1.987,1.357,4.019,1.587,6.009c0.051,0.496,0.056,0.993,0.086,1.482l0.034,0.73
					l-0.034,0.726c-0.025,0.479-0.052,0.955-0.075,1.426c-0.072,0.465-0.145,0.927-0.214,1.382l-0.107,0.68l-0.171,0.658
					c-0.113,0.438-0.225,0.868-0.336,1.295c-0.325,0.818-0.552,1.657-0.942,2.403c-0.357,0.763-0.716,1.5-1.158,2.167
					c-0.394,0.698-0.864,1.317-1.325,1.919c-1.858,2.396-4.016,4.091-6.036,5.232c-0.486,0.323-1.014,0.524-1.491,0.768
					c-0.242,0.115-0.479,0.229-0.712,0.339c-0.24,0.09-0.477,0.176-0.707,0.26c-0.463,0.164-0.899,0.336-1.323,0.469
					c-0.431,0.107-0.839,0.211-1.225,0.309c-0.766,0.229-1.472,0.268-2.064,0.37c-0.595,0.108-1.103,0.111-1.51,0.128
					C416.607,230.079,416.191,230.082,416.191,230.082z"/>
			</g>
		</g>
	</g>
	<g>
		<circle fill="#FFFFFF" cx="408.313" cy="208.425" r="9.137"/>
		<path fill="#263238" d="M408.313,218.063c-5.313,0-9.637-4.324-9.637-9.638s4.323-9.637,9.637-9.637
			c5.314,0,9.638,4.321,9.638,9.637C417.95,213.736,413.627,218.063,408.313,218.063z M408.313,199.788
			c-4.763,0-8.637,3.874-8.637,8.637s3.874,8.638,8.637,8.638c4.764,0,8.638-3.875,8.638-8.638S413.076,199.788,408.313,199.788z"/>
	</g>
	<g>
		
			<rect x="414.981" y="215.779" transform="matrix(-0.8455 -0.5339 0.5339 -0.8455 658.8318 623.1553)" fill="#263238" width="9.147" height="1"/>
	</g>
</g>
<g>
	<g>
		<g>
			<g>
				<g>
					<path fill="#EBEBEB" d="M571.507,284.792c-15.552-10.866-19.081-31.033-18.465-49.162c0.102-3.026-0.229-6.217,1.209-8.872
						c1.44-2.654,4.799-4.47,7.508-3.193c2.248,1.058,3.228,3.672,4.484,5.834c1.672,2.877,4.164,5.256,7.097,6.777
						c1.928,1,4.313,1.611,6.214,0.563c2.61-1.44,2.918-5.046,2.899-8.058c-0.036-5.608-0.07-11.22-0.105-16.828
						c-0.019-3.009-0.026-6.082,0.908-8.938c0.938-2.855,3.005-5.512,5.867-6.313c2.865-0.803,6.404,0.849,7.01,3.795
						c0.252,1.226,0.002,2.498,0.086,3.746c0.082,1.25,0.664,2.633,1.853,2.98c1.2,0.354,2.405-0.501,3.305-1.382
						c3.107-3.038,5.215-6.953,7.186-10.847c1.97-3.894,3.884-7.879,6.701-11.193c2.818-3.314,6.717-5.94,11.027-6.186
						c4.311-0.244,8.901,2.416,9.992,6.647c1.092,4.243-1.384,8.548-4.076,11.981c-3.998,5.098-8.726,9.604-13.988,13.334
						c-0.949,0.674-1.979,1.401-2.34,2.517c-0.654,2.007,1.248,4,3.229,4.659c2.241,0.746,4.678,0.514,7.022,0.789
						c2.348,0.277,4.891,1.313,5.777,3.529c1.231,3.076-1.341,6.301-3.871,8.413c-5.068,4.229-10.857,7.57-17.033,9.832
						c-2.213,0.812-4.543,1.521-6.328,3.076c-1.787,1.558-2.863,4.261-1.785,6.381c1.08,2.122,3.849,2.802,6.166,2.37
						c2.318-0.43,4.396-1.689,6.605-2.521c4.137-1.563,9.477-1.276,12.127,2.297c1.74,2.351,1.895,5.623,1.014,8.424
						s-2.666,5.214-4.563,7.438c-6.629,7.777-15.115,14.039-24.711,17.366C589.934,287.378,581.042,288.279,571.507,284.792"/>
				</g>
			</g>
		</g>
	</g>
	<g>
		<g>
			<g>
				<g>
					<g>
						<path fill="#E0E0E0" d="M571.269,298.23c0.657-7.182,2.231-15.662,4.919-24.805c2.668-9.148,6.425-18.935,10.704-29.035
							c1.079-2.521,2.147-5.013,3.198-7.468c1.055-2.446,2.101-4.876,3.271-7.188c2.319-4.633,4.903-8.912,7.483-12.896
							c2.578-3.986,5.172-7.677,7.619-11.109c2.459-3.429,4.81-6.58,7.074-9.361c4.516-5.583,8.682-9.646,11.654-12.318
							c1.483-1.343,2.672-2.345,3.483-3.014c0.392-0.318,0.697-0.567,0.931-0.756c0.211-0.168,0.321-0.249,0.327-0.241
							c0.007,0.007-0.094,0.104-0.293,0.286c-0.223,0.197-0.518,0.461-0.893,0.797c-0.789,0.695-1.951,1.725-3.412,3.089
							c-2.926,2.72-7.033,6.812-11.496,12.408c-2.24,2.789-4.565,5.946-7.004,9.383c-2.432,3.442-5.006,7.136-7.565,11.12
							c-2.562,3.982-5.125,8.252-7.427,12.863c-1.16,2.301-2.194,4.707-3.25,7.162c-1.051,2.455-2.114,4.944-3.193,7.465
							c-4.276,10.093-8.037,19.85-10.727,28.963c-2.703,9.105-4.312,17.545-5.016,24.695"/>
					</g>
				</g>
			</g>
		</g>
	</g>
	<g>
		<g>
			<g>
				<g>
					<g>
						<path fill="#E0E0E0" d="M593.518,229.715c-0.036,0.006-0.139-0.451-0.293-1.283c-0.157-0.832-0.348-2.043-0.559-3.541
							c-0.426-2.996-0.871-7.156-1.348-11.742c-0.476-4.588-0.979-8.729-1.449-11.711c-0.23-1.49-0.43-2.696-0.578-3.527
							c-0.143-0.833-0.205-1.299-0.168-1.307c0.039-0.01,0.17,0.439,0.379,1.262c0.213,0.818,0.473,2.018,0.752,3.505
							c0.572,2.976,1.141,7.126,1.615,11.72c0.457,4.527,0.869,8.622,1.186,11.752c0.15,1.413,0.279,2.604,0.383,3.559
							C593.525,229.24,593.557,229.709,593.518,229.715z"/>
					</g>
				</g>
			</g>
		</g>
	</g>
	<g>
		<g>
			<g>
				<g>
					<g>
						<path fill="#E0E0E0" d="M632.215,222.482c0,0.039-0.551,0.104-1.545,0.186c-0.992,0.089-2.43,0.209-4.201,0.414
							c-3.543,0.383-8.42,1.082-13.768,2.09c-5.348,1.018-10.146,2.145-13.594,3.061c-1.729,0.444-3.117,0.844-4.078,1.113
							c-0.961,0.272-1.498,0.406-1.513,0.369c-0.012-0.037,0.505-0.24,1.447-0.579c0.943-0.333,2.318-0.79,4.039-1.286
							c3.43-1.017,8.232-2.207,13.596-3.229c5.363-1.009,10.269-1.649,13.832-1.933c1.781-0.155,3.229-0.217,4.229-0.236
							C631.66,222.436,632.213,222.443,632.215,222.482z"/>
					</g>
				</g>
			</g>
		</g>
	</g>
	<g>
		<g>
			<g>
				<g>
					<g>
						<path fill="#E0E0E0" d="M576.662,272.715c-0.019,0.008-0.108-0.154-0.266-0.472c-0.18-0.379-0.397-0.841-0.661-1.4
							c-0.569-1.218-1.349-3.002-2.279-5.219c-1.867-4.435-4.253-10.638-6.793-17.521c-2.543-6.885-4.867-13.104-6.64-17.567
							c-0.868-2.171-1.584-3.956-2.113-5.283c-0.229-0.576-0.414-1.051-0.567-1.44c-0.124-0.332-0.181-0.511-0.163-0.52
							c0.019-0.007,0.108,0.155,0.267,0.475c0.179,0.377,0.396,0.838,0.661,1.397c0.568,1.218,1.348,3.003,2.278,5.22
							c1.867,4.434,4.253,10.637,6.794,17.522c2.542,6.883,4.867,13.1,6.64,17.565c0.867,2.17,1.581,3.957,2.112,5.282
							c0.229,0.576,0.414,1.052,0.567,1.441C576.623,272.529,576.68,272.707,576.662,272.715z"/>
					</g>
				</g>
			</g>
		</g>
	</g>
	<g>
		<g>
			<g>
				<g>
					<g>
						<path fill="#E0E0E0" d="M628.084,256.143c0.004,0.02-0.172,0.09-0.512,0.211c-0.402,0.135-0.896,0.299-1.492,0.5
							c-1.381,0.447-3.242,1.051-5.508,1.785c-4.648,1.508-11.045,3.663-18.111,6.055c-7.068,2.396-13.492,4.494-18.174,5.906
							c-2.341,0.705-4.24,1.258-5.562,1.613c-0.609,0.16-1.112,0.292-1.521,0.398c-0.352,0.087-0.537,0.121-0.542,0.104
							s0.171-0.091,0.511-0.211c0.4-0.134,0.896-0.299,1.493-0.5c1.379-0.447,3.24-1.05,5.505-1.783
							c4.649-1.508,11.048-3.664,18.116-6.058c7.065-2.394,13.488-4.492,18.17-5.904c2.34-0.707,4.24-1.259,5.561-1.614
							c0.611-0.16,1.113-0.293,1.523-0.399C627.891,256.159,628.076,256.124,628.084,256.143z"/>
					</g>
				</g>
			</g>
		</g>
	</g>
</g>
</svg>
