<?xml version="1.0" encoding="iso-8859-1"?>
<!-- Generator: Adobe Illustrator 16.0.0, SVG Export Plug-In . SVG Version: 6.00 Build 0)  -->
<!DOCTYPE svg PUBLIC "-//W3C//DTD SVG 1.1//EN" "http://www.w3.org/Graphics/SVG/1.1/DTD/svg11.dtd">
<svg version="1.1" id="Layer_1" xmlns="http://www.w3.org/2000/svg" xmlns:xlink="http://www.w3.org/1999/xlink" x="0px" y="0px"
	 width="640px" height="300px" viewBox="0 0 640 300" style="enable-background:new 0 0 640 300;" xml:space="preserve">
<g>
	<g>
		<circle style="fill:#52909D;" cx="66.035" cy="134.208" r="1.098"/>
		<circle style="fill:#52909D;" cx="75.78" cy="88.776" r="2.333"/>
		<circle style="fill:#52909D;" cx="117.916" cy="94.129" r="2.471"/>
		<circle style="fill:#52909D;" cx="40.78" cy="157.267" r="0.824"/>
		<circle style="fill:#52909D;" cx="60.407" cy="306.734" r="1.784"/>
		<circle style="fill:#52909D;" cx="24.859" cy="226.441" r="2.47"/>
		<circle style="fill:#52909D;" cx="201.777" cy="69.012" r="2.882"/>
		<circle style="fill:#52909D;" cx="188.052" cy="33.326" r="2.608"/>
		<circle style="fill:#52909D;" cx="297.991" cy="83.973" r="2.196"/>
		<circle style="fill:#52909D;" cx="358.383" cy="48.561" r="1.647"/>
		<circle style="fill:#52909D;" cx="376.225" cy="126.796" r="2.745"/>
		<circle style="fill:#52909D;" cx="412.186" cy="138.049" r="0.823"/>
		<circle style="fill:#52909D;" cx="348.088" cy="94.266" r="0.686"/>
		<circle style="fill:#52909D;" cx="418.087" cy="249.637" r="1.51"/>
		<circle style="fill:#52909D;" cx="398.872" cy="286.42" r="2.059"/>
		<circle style="fill:#52909D;" cx="409.852" cy="181.286" r="2.333"/>
		<circle style="fill:#52909D;" cx="221.679" cy="270.089" r="1.098"/>
		<circle style="fill:#52909D;" cx="90.239" cy="333.109" r="1.263"/>
		<circle style="fill:#52909D;" cx="194.175" cy="322.644" r="1.263"/>
		<circle style="fill:#52909D;" cx="251.737" cy="359.995" r="0.722"/>
		<circle style="fill:#52909D;" cx="166.928" cy="353.5" r="2.526"/>
		<circle style="fill:#52909D;" cx="358.561" cy="348.808" r="1.804"/>
		<circle style="fill:#52909D;" cx="404.394" cy="335.456" r="1.444"/>
		<circle style="fill:#52909D;" cx="293.781" cy="338.522" r="2.346"/>
	</g>
	<g>
		<circle style="fill:none;stroke:#52909D;stroke-miterlimit:10;" cx="308.758" cy="46.012" r="5.613"/>
		<circle style="fill:none;stroke:#52909D;stroke-miterlimit:10;" cx="323.126" cy="106.179" r="2.694"/>
		<circle style="fill:none;stroke:#52909D;stroke-miterlimit:10;" cx="383.069" cy="80.81" r="3.817"/>
		<circle style="fill:none;stroke:#52909D;stroke-miterlimit:10;" cx="352.873" cy="133.682" r="1.684"/>
		<circle style="fill:none;stroke:#52909D;stroke-miterlimit:10;" cx="314.932" cy="166.909" r="0.561"/>
		<circle style="fill:none;stroke:#52909D;stroke-miterlimit:10;" cx="413.714" cy="163.542" r="2.582"/>
		<circle style="fill:none;stroke:#52909D;stroke-miterlimit:10;" cx="417.643" cy="267.602" r="1.572"/>
		<circle style="fill:none;stroke:#52909D;stroke-miterlimit:10;" cx="212.781" cy="252.896" r="1.908"/>
		<circle style="fill:none;stroke:#52909D;stroke-miterlimit:10;" cx="23.859" cy="243.13" r="2.245"/>
		<circle style="fill:none;stroke:#52909D;stroke-miterlimit:10;" cx="40.472" cy="132.446" r="3.367"/>
		<circle style="fill:none;stroke:#52909D;stroke-miterlimit:10;" cx="58.545" cy="102.7" r="1.684"/>
		<circle style="fill:none;stroke:#52909D;stroke-miterlimit:10;" cx="125.336" cy="70.707" r="4.715"/>
		<circle style="fill:none;stroke:#52909D;stroke-miterlimit:10;" cx="155.419" cy="30.745" r="1.347"/>
		<circle style="fill:none;stroke:#52909D;stroke-miterlimit:10;" cx="87.619" cy="36.807" r="2.694"/>
		<circle style="fill:none;stroke:#52909D;stroke-miterlimit:10;" cx="252.631" cy="24.234" r="2.245"/>
		<circle style="fill:none;stroke:#52909D;stroke-miterlimit:10;" cx="223.588" cy="339.786" r="3.609"/>
		<circle style="fill:none;stroke:#52909D;stroke-miterlimit:10;" cx="336.186" cy="330.764" r="2.887"/>
		<circle style="fill:none;stroke:#52909D;stroke-miterlimit:10;" cx="129.756" cy="332.93" r="2.887"/>
		<circle style="fill:none;stroke:#52909D;stroke-miterlimit:10;" cx="52.346" cy="364.507" r="4.15"/>
		<circle style="fill:none;stroke:#52909D;stroke-miterlimit:10;" cx="317.06" cy="362.977" r="2.567"/>
		<circle style="fill:none;stroke:#52909D;stroke-miterlimit:10;" cx="350.432" cy="-4.106" r="3.555"/>
		<circle style="fill:none;stroke:#52909D;stroke-miterlimit:10;" cx="107.356" cy="2.805" r="3.357"/>
		<circle style="fill:none;stroke:#52909D;stroke-miterlimit:10;" cx="41.798" cy="45.457" r="2.962"/>
	</g>
</g>
<g>
	<g>
		<path style="fill:#FFFFFF;" d="M467.949,164.981h-0.879c0-0.728-0.592-1.318-1.319-1.318c-0.727,0-1.317,0.591-1.317,1.318h-0.881
			c0-1.212,0.986-2.199,2.198-2.199C466.964,162.782,467.949,163.77,467.949,164.981z"/>
	</g>
</g>
<g>
	<g>
		<path style="fill:#FFFFFF;" d="M471.094,113.784h-0.879c0-0.728-0.592-1.32-1.319-1.32s-1.318,0.593-1.318,1.32h-0.88
			c0-1.213,0.987-2.2,2.198-2.2C470.108,111.584,471.094,112.571,471.094,113.784z"/>
	</g>
</g>
<g>
	<g>
		<g>
			<g>
				<path style="fill-rule:evenodd;clip-rule:evenodd;fill:#415C92;" d="M340.708,152.891
					C340.51,152.891,340.51,152.891,340.708,152.891"/>
			</g>
		</g>
	</g>
	<g>
		<g>
			<g>
				<g>
					<path style="fill:#415C92;" d="M340.708,154.065c1.515,0,1.517-2.351,0-2.351C339.196,151.715,339.194,154.065,340.708,154.065
						L340.708,154.065z"/>
				</g>
			</g>
		</g>
	</g>
</g>
<g>
	<g>
		<path style="fill:#415C92;" d="M227.667,207.223c-0.669,0-1.212-0.543-1.212-1.212v-4.721c0-0.672,0.543-1.213,1.212-1.213
			c0.67,0,1.213,0.541,1.213,1.213v4.721C228.88,206.68,228.337,207.223,227.667,207.223z"/>
	</g>
	<g>
		<path style="fill:#415C92;" d="M230.028,204.861h-4.721c-0.669,0-1.212-0.541-1.212-1.213c0-0.669,0.543-1.212,1.212-1.212h4.721
			c0.67,0,1.213,0.543,1.213,1.212C231.241,204.32,230.698,204.861,230.028,204.861z"/>
	</g>
</g>
<g>
	<g>
		<path style="fill:#415C92;" d="M336.726,38.333c-0.671,0-1.213-0.543-1.213-1.213v-4.722c0-0.669,0.542-1.212,1.213-1.212
			c0.669,0,1.213,0.543,1.213,1.212v4.722C337.938,37.79,337.395,38.333,336.726,38.333z"/>
	</g>
	<g>
		<path style="fill:#415C92;" d="M339.086,35.972h-4.721c-0.671,0-1.213-0.543-1.213-1.213c0-0.669,0.542-1.212,1.213-1.212h4.721
			c0.67,0,1.213,0.543,1.213,1.212C340.299,35.429,339.756,35.972,339.086,35.972z"/>
	</g>
</g>
<g>
	<g>
		<path style="fill:#415C92;" d="M374.954,282.794c-0.109,0-0.222-0.016-0.334-0.046l-4.54-1.295
			c-0.644-0.185-1.016-0.856-0.832-1.5c0.184-0.645,0.856-1.01,1.498-0.834l4.54,1.295c0.645,0.186,1.018,0.856,0.833,1.501
			C375.968,282.447,375.481,282.794,374.954,282.794z"/>
	</g>
	<g>
		<path style="fill:#415C92;" d="M372.035,284.415c-0.109,0-0.222-0.014-0.333-0.045c-0.645-0.186-1.017-0.854-0.834-1.498
			l1.297-4.541c0.186-0.644,0.856-1.012,1.499-0.833c0.645,0.185,1.019,0.854,0.833,1.498l-1.297,4.54
			C373.049,284.07,372.563,284.415,372.035,284.415z"/>
	</g>
</g>
<g>
	<g>
		<g>
			<g>
				<path style="fill:#7CC46A;" d="M64.915,231.618c-0.359-2.217-1.928-7.936-5.382-6.125c-5.589,2.931,1.152,14.055-5.583,16.017
					c-0.36-4.436-1.313-7.491-3.315-7.309c-4.129,0.375-3.032,9.98-3.099,12.141c-0.067,2.154-0.174,4.36-0.271,6.589
					c-4.859,0.873-3.899-11.8-6.853-13.552c-4.595-2.725-5.571,3.348-5.445,6.152c0.215,4.773,1.499,10.485,5.982,13.021
					c1.479,0.836,4.084,1.781,6.114,1.609c-0.021,3.816,0.142,7.612,0.772,11.232c0.007,0.038,0.071,0.038,0.078,0
					c0.001-0.003,0.001-0.005,0.001-0.01l2.722,0.148c0,0.017-0.002,0.032-0.002,0.051c-0.025,1.196,1.844,1.196,1.861,0
					c0.033-2.305,1.448-13.614,1.618-23.199c2.174,0.324,4.907-0.688,6.472-1.836C65.224,243.145,65.767,236.888,64.915,231.618z"/>
			</g>
			<g>
				<path style="fill:#51AA50;" d="M51.55,272.996c-0.275,0-0.549-0.07-0.785-0.212c-0.292-0.176-0.495-0.443-0.588-0.761
					l-2.006-0.107l-0.73,0.023l-0.112-0.459c-0.536-3.074-0.785-6.514-0.782-10.782c-2.234-0.002-4.684-1.037-5.851-1.697
					c-4.782-2.704-6.036-8.804-6.244-13.446c-0.084-1.866,0.31-5.729,2.399-6.982c1.06-0.635,2.347-0.514,3.823,0.363
					c1.429,0.846,1.973,3.449,2.604,6.461c0.853,4.077,1.621,7.016,3.491,7.062l0.044-1.002c0.078-1.731,0.155-3.446,0.207-5.13
					c0.01-0.329-0.007-0.836-0.03-1.457c-0.13-3.782-0.373-10.82,3.598-11.182c0.613-0.06,1.172,0.121,1.658,0.532
					c1.107,0.932,1.816,3.086,2.159,6.575c2.509-1.119,2.379-4.026,2.231-7.356c-0.15-3.366-0.305-6.849,2.657-8.402
					c0.962-0.502,1.879-0.543,2.727-0.118c2.469,1.233,3.316,6.07,3.405,6.618l0,0c0.653,4.04,0.933,11.417-4.535,15.43
					c-1.524,1.116-4.092,2.101-6.272,1.984c-0.14,6.26-0.782,13.152-1.211,17.759c-0.214,2.31-0.385,4.132-0.395,4.881
					c-0.008,0.525-0.266,0.968-0.709,1.215C52.071,272.935,51.811,272.996,51.55,272.996z M48.274,270.886l2.893,0.158l-0.014,0.502
					c-0.007,0.24,0.079,0.315,0.145,0.354c0.143,0.084,0.354,0.087,0.503,0.002c0.119-0.066,0.176-0.171,0.179-0.329
					c0.011-0.787,0.174-2.537,0.4-4.96c0.439-4.728,1.105-11.874,1.218-18.238l0.01-0.587l0.582,0.087
					c2.006,0.297,4.636-0.677,6.09-1.743c5.024-3.686,4.742-10.624,4.126-14.431l0,0c-0.27-1.67-1.212-5.043-2.847-5.86
					c-0.542-0.272-1.126-0.235-1.786,0.109c-2.381,1.249-2.248,4.257-2.105,7.442c0.156,3.504,0.333,7.476-3.572,8.612l-0.607,0.176
					l-0.051-0.63c-0.359-4.419-1.207-5.997-1.855-6.541c-0.274-0.23-0.56-0.324-0.899-0.294c-2.999,0.271-2.77,6.922-2.659,10.117
					c0.022,0.65,0.04,1.183,0.029,1.527c-0.053,1.686-0.13,3.405-0.208,5.144l-0.083,1.863l-0.406,0.073
					c-3.326,0.594-4.261-3.88-5.088-7.834c-0.533-2.541-1.083-5.168-2.12-5.784c-1.126-0.667-2.057-0.79-2.766-0.363
					c-1.54,0.923-1.982,4.2-1.899,6.05c0.197,4.38,1.349,10.122,5.721,12.593c1.509,0.852,3.975,1.694,5.817,1.546l0.563-0.048
					l-0.003,0.564C47.556,264.426,47.777,267.849,48.274,270.886z"/>
			</g>
		</g>
		<g>
			<g>
				<g>
					<path style="fill:#415C92;" d="M59.567,297.166H39.826c-1.053,0-1.894-0.689-2.093-1.713l-4.482-23.01l1.86-0.362l4.482,23.009
						c0.035,0.181,0.184,0.181,0.233,0.181h19.742c0.048,0,0.199,0,0.233-0.181l4.447-23.009l1.86,0.358l-4.446,23.012
						C61.463,296.477,60.621,297.166,59.567,297.166z"/>
				</g>
			</g>
		</g>
		<g>
			<g>
				<g>
					<path style="fill:#B9CEEB;" d="M33.451,265.04h32.768c0.559,0,1.016,0.616,1.016,1.372v4.981c0,0.758-0.458,1.375-1.016,1.375
						H33.451c-0.559,0-1.016-0.617-1.016-1.375v-4.981C32.436,265.656,32.893,265.04,33.451,265.04z"/>
				</g>
				<g>
					<path style="fill:#415C92;" d="M66.219,273.284H33.451c-0.844,0-1.532-0.85-1.532-1.891v-4.981
						c0-1.041,0.688-1.889,1.532-1.889h32.768c0.845,0,1.532,0.848,1.532,1.889v4.981C67.751,272.435,67.064,273.284,66.219,273.284
						z M33.451,265.556c-0.235,0-0.499,0.365-0.499,0.856v4.981c0,0.49,0.264,0.858,0.499,0.858h32.768c0.236,0,0.5-0.368,0.5-0.858
						v-4.981c0-0.491-0.264-0.856-0.5-0.856H33.451z"/>
				</g>
			</g>
			<g>
				<g>
					<path style="fill:#B9CEEB;" d="M66.219,273.2H33.451c-0.798,0-1.447-0.812-1.447-1.807v-4.981c0-0.995,0.649-1.804,1.447-1.804
						h32.768c0.798,0,1.448,0.809,1.448,1.804v4.981C67.667,272.389,67.017,273.2,66.219,273.2z M33.451,265.472
						c-0.276,0-0.584,0.386-0.584,0.94v4.981c0,0.555,0.308,0.943,0.584,0.943h32.768c0.276,0,0.584-0.389,0.584-0.943v-4.981
						c0-0.555-0.308-0.94-0.584-0.94H33.451z"/>
				</g>
				<g>
					<path style="fill:#415C92;" d="M66.219,273.716H33.451c-1.082,0-1.962-1.041-1.962-2.322v-4.981c0-1.278,0.88-2.32,1.962-2.32
						h32.768c1.083,0,1.964,1.042,1.964,2.32v4.981C68.183,272.675,67.301,273.716,66.219,273.716z M33.51,265.987
						c-0.047,0.051-0.126,0.196-0.126,0.425v4.981c0,0.265,0.106,0.418,0.146,0.442l32.689-0.016
						c-0.039-0.009,0.068-0.162,0.068-0.427v-4.981c0-0.265-0.107-0.415-0.146-0.443L33.51,265.987z"/>
				</g>
			</g>
		</g>
	</g>
	<g>
		<g>
			<path style="fill:#51AA50;" d="M37.024,245.479c0.539,0.069,1.078,0.138,1.617,0.206c0.579,0.073,0.573-0.836,0-0.909
				c-0.539-0.068-1.078-0.14-1.617-0.208C36.445,244.494,36.451,245.406,37.024,245.479L37.024,245.479z"/>
		</g>
	</g>
	<g>
		<g>
			<path style="fill:#51AA50;" d="M39.402,238.326c0,0.27,0,0.539,0,0.809c0,0.584,0.91,0.584,0.91,0c0-0.27,0-0.539,0-0.809
				C40.312,237.741,39.402,237.739,39.402,238.326L39.402,238.326z"/>
		</g>
	</g>
	<g>
		<g>
			<path style="fill:#51AA50;" d="M42.548,246.667c0.395-0.222,0.789-0.441,1.183-0.66c0.512-0.286,0.054-1.071-0.459-0.786
				c-0.394,0.22-0.789,0.441-1.183,0.66C41.578,246.164,42.036,246.95,42.548,246.667L42.548,246.667z"/>
		</g>
	</g>
	<g>
		<g>
			<path style="fill:#51AA50;" d="M37.877,257.131c0.475-0.333,0.95-0.665,1.425-0.998c0.476-0.333,0.022-1.121-0.459-0.785
				c-0.475,0.333-0.95,0.664-1.424,0.998C36.942,256.677,37.396,257.467,37.877,257.131L37.877,257.131z"/>
		</g>
	</g>
	<g>
		<g>
			<path style="fill:#51AA50;" d="M34.468,249.309c0.337,0.133,0.675,0.266,1.014,0.397c0.545,0.215,0.781-0.664,0.241-0.877
				c-0.337-0.132-0.675-0.265-1.013-0.397C34.165,248.22,33.928,249.099,34.468,249.309L34.468,249.309z"/>
		</g>
	</g>
	<g>
		<g>
			<path style="fill:#51AA50;" d="M41.07,253.531c0.217,0.017,0.345,0.119,0.479,0.279c0.373,0.452,1.013-0.194,0.643-0.642
				c-0.292-0.354-0.671-0.515-1.121-0.546C40.486,252.582,40.488,253.49,41.07,253.531L41.07,253.531z"/>
		</g>
	</g>
	<g>
		<g>
			<path style="fill:#51AA50;" d="M43.065,257.812c-0.099,0.637-0.029,1.179,0.222,1.772c0.228,0.536,1.011,0.073,0.785-0.459
				c-0.146-0.348-0.188-0.701-0.13-1.071C44.031,257.48,43.155,257.233,43.065,257.812L43.065,257.812z"/>
		</g>
	</g>
	<g>
		<g>
			<path style="fill:#51AA50;" d="M47.817,257.979c0.268,0.07,0.537,0.144,0.805,0.214c0.566,0.151,0.808-0.726,0.242-0.877
				c-0.268-0.07-0.537-0.144-0.805-0.214C47.493,256.95,47.251,257.827,47.817,257.979L47.817,257.979z"/>
		</g>
	</g>
	<g>
		<g>
			<path style="fill:#51AA50;" d="M50.721,249.037c-0.047,0.519,0.147,0.989,0.543,1.322c0.445,0.377,1.092-0.265,0.644-0.642
				c-0.232-0.196-0.305-0.382-0.278-0.681C51.684,248.455,50.773,248.459,50.721,249.037L50.721,249.037z"/>
		</g>
	</g>
	<g>
		<g>
			<path style="fill:#51AA50;" d="M49.566,242.54c-0.264,0.36-0.311,0.729-0.234,1.157c0.101,0.576,0.978,0.334,0.877-0.239
				c-0.029-0.186,0.019-0.338,0.143-0.459C50.698,242.526,49.91,242.071,49.566,242.54L49.566,242.54z"/>
		</g>
	</g>
	<g>
		<g>
			<path style="fill:#51AA50;" d="M54.561,245.198c0,0.27,0,0.539,0,0.809c0,0.584,0.91,0.584,0.91,0c0-0.27,0-0.539,0-0.809
				C55.47,244.611,54.561,244.611,54.561,245.198L54.561,245.198z"/>
		</g>
	</g>
	<g>
		<g>
			<path style="fill:#51AA50;" d="M46.095,243.771c0.202,0.135,0.404,0.27,0.606,0.404c0.489,0.326,0.944-0.461,0.459-0.785
				c-0.202-0.135-0.404-0.27-0.606-0.404C46.066,242.661,45.61,243.448,46.095,243.771L46.095,243.771z"/>
		</g>
	</g>
	<g>
		<g>
			<path style="fill:#51AA50;" d="M47.617,236.225c0.176,0.206,0.263,0.416,0.284,0.686c0.045,0.58,0.955,0.585,0.91,0
				c-0.04-0.521-0.21-0.932-0.55-1.329C47.879,235.136,47.238,235.782,47.617,236.225L47.617,236.225z"/>
		</g>
	</g>
	<g>
		<g>
			<path style="fill:#51AA50;" d="M49.913,233.476c0,0.404,0,0.809,0,1.212c0,0.585,0.91,0.587,0.91,0c0-0.403,0-0.808,0-1.212
				C50.822,232.891,49.913,232.889,49.913,233.476L49.913,233.476z"/>
		</g>
	</g>
	<g>
		<g>
			<path style="fill:#51AA50;" d="M55.535,238.817c0.131,0.139,0.263,0.276,0.394,0.415c0.405,0.425,1.047-0.219,0.644-0.644
				c-0.131-0.137-0.263-0.276-0.394-0.413C55.774,237.751,55.132,238.395,55.535,238.817L55.535,238.817z"/>
		</g>
	</g>
	<g>
		<g>
			<path style="fill:#51AA50;" d="M56.438,233.397c0.403,0.023,0.806,0.046,1.209,0.071c0.585,0.031,0.583-0.877,0-0.911
				c-0.403-0.023-0.806-0.046-1.209-0.069C55.853,232.454,55.855,233.365,56.438,233.397L56.438,233.397z"/>
		</g>
	</g>
	<g>
		<g>
			<path style="fill:#51AA50;" d="M57.726,226.117c0.269,0.27,0.539,0.539,0.809,0.809c0.414,0.413,1.057-0.229,0.643-0.645
				c-0.27-0.27-0.539-0.539-0.808-0.809C57.955,225.06,57.311,225.701,57.726,226.117L57.726,226.117z"/>
		</g>
	</g>
	<g>
		<g>
			<path style="fill:#51AA50;" d="M61.23,223.773c0,0.471,0,0.943,0,1.416c0,0.585,0.91,0.585,0.91,0c0-0.473,0-0.945,0-1.416
				C62.14,223.189,61.23,223.187,61.23,223.773L61.23,223.773z"/>
		</g>
	</g>
	<g>
		<g>
			<path style="fill:#51AA50;" d="M62.879,232.285c0.134-0.203,0.267-0.406,0.401-0.609c0.323-0.489-0.464-0.945-0.785-0.459
				c-0.134,0.203-0.267,0.406-0.401,0.609C61.771,232.315,62.558,232.771,62.879,232.285L62.879,232.285z"/>
		</g>
	</g>
	<g>
		<g>
			<path style="fill:#51AA50;" d="M59.796,241.218c0.338-0.133,0.676-0.266,1.014-0.396c0.541-0.21,0.305-1.09-0.241-0.877
				c-0.338,0.13-0.677,0.263-1.015,0.396C59.014,240.548,59.249,241.43,59.796,241.218L59.796,241.218z"/>
		</g>
	</g>
	<g>
		<g>
			<path style="fill:#51AA50;" d="M63.821,239.947c0.336-0.068,0.673-0.139,1.009-0.21c0.572-0.116,0.331-0.993-0.242-0.877
				c-0.336,0.071-0.673,0.142-1.009,0.21C63.007,239.189,63.249,240.066,63.821,239.947L63.821,239.947z"/>
		</g>
	</g>
	<g>
		<g>
			<path style="fill:#51AA50;" d="M61.23,244.187c0,0.068,0,0.135,0,0.203c0,0.585,0.91,0.585,0.91,0c0-0.068,0-0.135,0-0.203
				C62.14,243.602,61.23,243.602,61.23,244.187L61.23,244.187z"/>
		</g>
	</g>
	<g>
		<g>
			<path style="fill:#51AA50;" d="M53.42,258.113c0.202-0.135,0.404-0.27,0.606-0.404c0.485-0.324,0.03-1.112-0.459-0.786
				c-0.202,0.135-0.404,0.27-0.606,0.404C52.477,257.649,52.932,258.438,53.42,258.113L53.42,258.113z"/>
		</g>
	</g>
	<g>
		<g>
			<path style="fill:#51AA50;" d="M52.89,261.466c0.362-0.35,0.75-0.551,1.237-0.665c0.57-0.132,0.329-1.009-0.242-0.877
				c-0.632,0.148-1.17,0.448-1.639,0.897C51.824,261.228,52.467,261.87,52.89,261.466L52.89,261.466z"/>
		</g>
	</g>
	<g>
		<g>
			<path style="fill:#51AA50;" d="M49.144,262.012c0.068,0.135,0.137,0.27,0.205,0.401c0.266,0.523,1.05,0.062,0.785-0.459
				c-0.068-0.135-0.137-0.267-0.205-0.401C49.664,261.031,48.878,261.49,49.144,262.012L49.144,262.012z"/>
		</g>
	</g>
	<g>
		<g>
			<path style="fill:#51AA50;" d="M45.681,262.989c0.51,0.265,1.008,0.331,1.57,0.219c0.573-0.116,0.331-0.993-0.242-0.877
				c-0.319,0.064-0.583,0.022-0.87-0.128C45.621,261.934,45.161,262.72,45.681,262.989L45.681,262.989z"/>
		</g>
	</g>
	<g>
		<g>
			<path style="fill:#51AA50;" d="M53.199,254.363c0.605-0.076,1.211-0.151,1.816-0.229c0.573-0.071,0.58-0.982,0-0.909
				c-0.605,0.075-1.21,0.153-1.816,0.229C52.626,253.524,52.619,254.436,53.199,254.363L53.199,254.363z"/>
		</g>
	</g>
</g>
<g>
	<path style="fill:#415C92;" d="M263.204,119.461"/>
	<g>
		<path style="fill:#415C92;" d="M263.204,121.279c2.341,0,2.345-3.638,0-3.638C260.863,117.641,260.859,121.279,263.204,121.279
			L263.204,121.279z"/>
	</g>
</g>
<g>
	<path style="fill:#415C92;" d="M460.464,81.463"/>
	<g>
		<path style="fill:#415C92;" d="M460.464,83.283c2.341,0,2.345-3.639,0-3.639C458.123,79.645,458.118,83.283,460.464,83.283
			L460.464,83.283z"/>
	</g>
</g>
<g>
	<path style="fill:#415C92;" d="M191.253,238.301"/>
	<g>
		<path style="fill:#415C92;" d="M191.253,240.121c2.341,0,2.345-3.638,0-3.638C188.912,236.483,188.908,240.121,191.253,240.121
			L191.253,240.121z"/>
	</g>
</g>
<g>
	<path style="fill:#415C92;" d="M365.067,63.678"/>
	<g>
		<path style="fill:#415C92;" d="M365.067,65.497c2.341,0,2.346-3.638,0-3.638C362.727,61.859,362.723,65.497,365.067,65.497
			L365.067,65.497z"/>
	</g>
</g>
<g>
	<g>
		<g>
			<rect x="144.09" y="88.606" style="fill:#FFFFFF;" width="377.562" height="208.644"/>
		</g>
		<g>
			<g>
				<path style="fill:#263238;" d="M521.651,297.25c0,0-0.02-0.337-0.028-0.978c-0.008-0.643-0.018-1.596-0.03-2.851
					c-0.013-2.512-0.035-6.232-0.062-11.094c-0.031-9.708-0.079-23.962-0.138-42.165c-0.068-36.35-0.164-88.466-0.282-151.557
					l0.54,0.397c-106.59,0.025-236.939,0.055-377.529,0.087h-0.032l0.659-0.484c-0.023,75.014-0.045,146.055-0.064,208.643
					l-0.594-0.437c111.815,0.089,206.136,0.164,272.511,0.218c33.231,0.05,59.468,0.089,77.401,0.116
					c8.979,0.022,15.877,0.04,20.538,0.053c2.33,0.011,4.1,0.019,5.295,0.025c0.595,0.005,1.044,0.009,1.351,0.012
					C521.49,297.241,521.651,297.25,521.651,297.25s-0.139,0.008-0.431,0.013c-0.3,0.003-0.737,0.006-1.316,0.012
					c-1.179,0.007-2.928,0.015-5.229,0.025c-4.635,0.012-11.494,0.03-20.421,0.053c-17.902,0.027-44.092,0.066-77.268,0.116
					c-66.468,0.054-160.923,0.129-272.897,0.218h-0.594v-0.438c-0.019-62.588-0.042-133.629-0.064-208.643v-0.484h0.658h0.032
					c140.589,0.033,270.939,0.063,377.529,0.087h0.542l-0.002,0.397c-0.117,63.195-0.213,115.397-0.28,151.806
					c-0.061,18.165-0.106,32.389-0.14,42.076c-0.026,4.828-0.047,8.523-0.06,11.019c-0.014,1.236-0.023,2.175-0.03,2.809
					C521.672,296.942,521.651,297.25,521.651,297.25z"/>
			</g>
		</g>
	</g>
	<g>
		<g>
			<path style="fill:#263238;" d="M519.763,114.155c0,0.017-0.322,0.033-0.954,0.049c-0.651,0.011-1.583,0.026-2.801,0.046
				c-2.481,0.019-6.104,0.047-10.767,0.083c-9.351,0.056-22.881,0.082-39.602,0.079c-33.439-0.001-79.633-0.184-130.646-0.488
				c-51.025-0.301-97.21-0.574-130.663-0.772c-16.705-0.096-30.226-0.174-39.596-0.228c-4.66-0.043-8.283-0.076-10.765-0.099
				c-1.216-0.022-2.149-0.038-2.799-0.05c-0.631-0.017-0.955-0.034-0.955-0.05s0.323-0.033,0.955-0.049
				c0.65-0.011,1.583-0.026,2.799-0.046c2.482-0.019,6.105-0.047,10.766-0.083c9.351-0.055,22.88-0.081,39.599-0.079
				c33.44,0.001,79.637,0.184,130.669,0.488c51.007,0.301,97.189,0.574,130.642,0.771c16.704,0.096,30.228,0.174,39.597,0.229
				c4.662,0.042,8.286,0.076,10.767,0.099c1.218,0.021,2.149,0.038,2.801,0.05C519.44,114.122,519.763,114.139,519.763,114.155z"/>
		</g>
	</g>
	<g>
		<ellipse style="fill:#263238;" cx="164.31" cy="99.203" rx="4.446" ry="3.27"/>
	</g>
	<g>
		<ellipse style="fill:#263238;" cx="182.093" cy="99.203" rx="4.446" ry="3.27"/>
	</g>
	<g>
		<ellipse style="fill:#263238;" cx="199.876" cy="99.203" rx="4.446" ry="3.27"/>
	</g>
</g>
<g>
	<g>
		<path style="fill:#F5F5F5;" d="M544.807,156.072c-1.869-34.642-38.068-52.066-56.59-54.314l-14.817,17.449
			c11.935-1.795,41.603,14.765,43.05,26.748c1.448,11.982-7.682,27.294-19.7,28.394c-9.441,0.864-25.176-7.514-31.174-0.171
			c-15.136-13.481-40.992-12.37-54.915,2.361c-10.709-3.832-23.14-2.494-32.788,3.529s-16.31,16.604-17.569,27.908l55.743,32.362
			c0,0,23.238,20.821,39.073,7.986c5.408-4.384,7.47-10.674,7.974-16.735c1.059,0.124,2.138,0.063,3.16-0.209
			c4.023-1.071,7.003-4.679,8.314-8.63c0.169-0.507,0.305-1.026,0.424-1.55c13.536,2.971,31.997-0.396,42.888-7.195
			C533.706,204.126,545.813,174.702,544.807,156.072z"/>
	</g>
	<g>
		<g>
			<path style="fill:#263238;" d="M469.518,180.878c-0.008,0.004-0.077-0.088-0.205-0.271c-0.14-0.209-0.323-0.48-0.555-0.824
				c-0.237-0.365-0.535-0.814-0.93-1.316c-0.387-0.506-0.807-1.109-1.36-1.726c-2.116-2.514-5.584-5.962-10.832-8.712
				c-2.605-1.379-5.646-2.56-9.039-3.277c-3.385-0.727-7.125-0.992-10.992-0.493c-7.703,0.914-15.981,4.712-21.999,11.431
				c-0.834,0.9-1.563,1.876-2.253,2.777l-0.135,0.177l-0.192-0.096c-7.717-3.837-16.324-4.316-23.468-2.604
				c-1.803,0.402-3.498,1.012-5.123,1.644c-1.595,0.702-3.129,1.435-4.537,2.272c-2.848,1.623-5.289,3.48-7.289,5.405
				c-4.026,3.853-6.195,7.914-7.28,10.793c-0.298,0.716-0.502,1.372-0.678,1.942c-0.191,0.564-0.323,1.051-0.415,1.447
				c-0.098,0.373-0.175,0.67-0.234,0.897c-0.056,0.202-0.088,0.304-0.097,0.302c-0.008-0.001,0.008-0.107,0.047-0.313
				c0.047-0.231,0.108-0.531,0.186-0.91c0.076-0.402,0.192-0.895,0.37-1.467c0.162-0.577,0.353-1.242,0.638-1.969
				c1.035-2.919,3.177-7.053,7.215-10.981c2.006-1.962,4.46-3.857,7.326-5.512c1.418-0.854,2.96-1.602,4.576-2.322
				c1.644-0.647,3.36-1.273,5.186-1.688c7.236-1.762,15.966-1.297,23.811,2.598l-0.327,0.082c0.699-0.916,1.44-1.907,2.287-2.822
				c6.112-6.823,14.514-10.658,22.33-11.56c3.922-0.493,7.718-0.207,11.141,0.548c3.431,0.746,6.498,1.96,9.12,3.374
				c5.279,2.821,8.735,6.341,10.816,8.908c0.544,0.63,0.954,1.246,1.329,1.765c0.383,0.513,0.668,0.973,0.892,1.35
				c0.214,0.355,0.383,0.637,0.513,0.853C469.472,180.771,469.525,180.873,469.518,180.878z"/>
		</g>
	</g>
	<g>
		<g>
			<path style="fill:#263238;" d="M480.29,173.639c-0.056,0.081-0.778-0.449-2.097-0.942c-0.655-0.254-1.472-0.453-2.388-0.584
				c-0.92-0.104-1.942-0.121-3.003,0.016c-1.059,0.153-2.039,0.445-2.897,0.792c-0.848,0.37-1.58,0.782-2.144,1.204
				c-1.138,0.828-1.69,1.532-1.766,1.469c-0.028-0.021,0.091-0.209,0.335-0.535c0.234-0.332,0.646-0.76,1.206-1.227
				c0.556-0.475,1.301-0.939,2.177-1.352c0.886-0.388,1.91-0.707,3.019-0.868c1.11-0.143,2.183-0.109,3.141,0.026
				c0.954,0.162,1.796,0.409,2.459,0.718c0.664,0.3,1.176,0.601,1.491,0.858C480.146,173.461,480.312,173.61,480.29,173.639z"/>
		</g>
	</g>
	<g>
		<g>
			<path style="fill:#263238;" d="M496.041,194.706c-0.022,0.042-0.565-0.28-1.637-0.664c-1.065-0.374-2.701-0.787-4.752-0.674
				c-2.029,0.108-4.506,0.791-6.621,2.555c-2.105,1.721-3.842,4.47-4.21,7.676l-0.047,0.412l-0.349-0.225
				c-1.104-0.713-2.345-1.329-3.666-1.8c-3.509-1.271-7.194-1.355-10.332-0.647c-3.15,0.73-5.736,2.236-7.606,3.803
				c-1.884,1.574-3.091,3.183-3.84,4.33c-0.74,1.16-1.059,1.858-1.104,1.836c-0.017-0.008,0.052-0.186,0.199-0.521
				c0.14-0.339,0.388-0.817,0.732-1.421c0.703-1.193,1.884-2.864,3.773-4.506c1.876-1.633,4.502-3.211,7.736-3.989
				c3.219-0.753,7.008-0.683,10.616,0.625c1.358,0.484,2.636,1.12,3.771,1.857l-0.396,0.187c0.396-3.359,2.227-6.203,4.434-7.97
				c2.222-1.812,4.807-2.479,6.893-2.542c2.111-0.07,3.771,0.406,4.833,0.842c0.534,0.217,0.933,0.422,1.189,0.58
				C495.919,194.605,496.049,194.692,496.041,194.706z"/>
		</g>
	</g>
	<g>
		<g>
			<path style="fill:#263238;" d="M539.223,135.839c0.016-0.008,0.154,0.232,0.403,0.699c0.241,0.471,0.628,1.152,1.052,2.065
				c0.828,1.832,1.933,4.544,2.8,8.046c0.871,3.497,1.468,7.777,1.514,12.544c0.012,2.382-0.087,4.887-0.379,7.463
				c-0.259,2.58-0.697,5.232-1.279,7.918c-2.34,10.766-6.608,19.917-10.462,25.983c-1.912,3.054-3.74,5.34-5.1,6.825
				c-0.694,0.73-1.236,1.292-1.641,1.637c-0.394,0.356-0.604,0.536-0.617,0.523c-0.012-0.014,0.177-0.22,0.544-0.599
				c0.379-0.368,0.896-0.95,1.563-1.696c1.305-1.518,3.077-3.822,4.938-6.885c3.752-6.082,7.941-15.203,10.265-25.898
				c0.579-2.668,1.019-5.303,1.282-7.863c0.296-2.557,0.404-5.042,0.406-7.405c-0.02-4.73-0.573-8.979-1.392-12.461
				c-0.815-3.487-1.86-6.2-2.628-8.05c-0.393-0.921-0.749-1.615-0.96-2.1C539.313,136.105,539.206,135.848,539.223,135.839z"/>
		</g>
	</g>
	<g>
		<g>
			<path style="fill:#263238;" d="M511.564,137.191c0.022-0.021,0.368,0.306,0.927,0.959c0.56,0.652,1.304,1.657,2.07,2.995
				c1.538,2.647,3.028,6.822,2.877,11.571c-0.154,4.75-1.909,8.82-3.614,11.364c-0.851,1.285-1.658,2.24-2.259,2.854
				c-0.599,0.616-0.965,0.92-0.985,0.898c-0.082-0.073,1.334-1.364,2.934-3.95c1.599-2.554,3.254-6.55,3.404-11.185
				c0.147-4.632-1.248-8.726-2.68-11.377C512.809,138.639,511.479,137.258,511.564,137.191z"/>
		</g>
	</g>
	<g>
		<g>
			<g>
				<g>
					<path style="fill:#14A800;" d="M474.902,110.335c2.545,3.911,5.889,7.291,9.747,9.913c2.521,1.713,5.769-0.822,4.754-3.697
						l-0.027-0.076c4.544,3.479,9.316,6.658,14.275,9.513c3.168,1.824,6.887-1.284,5.634-4.718
						c-4.908-13.455-14.785-25.106-27.41-31.911L474.902,110.335z"/>
				</g>
			</g>
			<g style="opacity:0.3;">
				<g>
					<g>
						<path d="M480.663,110.813c0.441,0.663,0.9,1.343,1.564,1.784c0.663,0.441,1.589,0.587,2.246,0.136
							c0.982-0.674,0.944-2.296,1.959-2.919c1.079-0.662,2.407,0.268,3.323,1.142c0.969,0.923,1.937,1.846,2.905,2.77
							c0.712,0.679,1.671,1.411,2.58,1.036c1.007-0.415,1.068-1.812,0.85-2.878c-1.016-4.941-4.632-9.27-9.313-11.148
							L480.663,110.813z"/>
					</g>
				</g>
			</g>
			<g>
				<g>
					<path style="fill:#14A800;" d="M519.163,134.637c-0.093,1.754,1.396,3.44,3.149,3.565c1.752,0.125,3.465-1.333,3.622-3.083
						s-1.27-3.489-3.016-3.679s-3.512,1.205-3.733,2.947"/>
				</g>
			</g>
		</g>
		<g>
			<g>
				<g>
					<path style="fill:#F5F5F5;" d="M335.295,13.974c-2.813,4.387,3.354,19.728,17.491,39.373
						c13.921,19.343,29.964,30.182,29.964,30.182l81.538,52.306l13.782-21.485l7.988-12.452l13.782-21.485l-73.992-47.464
						c-7.229-4.638-14.87-8.609-22.85-11.789c-6.861-2.734-15.468-5.693-24.623-7.704C354.829,8.285,338.109,9.587,335.295,13.974"
						/>
				</g>
			</g>
			<g>
				<g>
					<g>
						<g>
							<g>
								<path style="fill:#14A800;" d="M448.749,47.639c0.044-0.016,0.146-0.051,0.3-0.103c17.544-5.896,36.819-3.477,52.398,6.517
									l9.771,6.268l-25.931,10.758L448.749,47.639z"/>
							</g>
						</g>
						<g>
							<g>
								<g>
									<path style="fill:#263238;" d="M448.749,47.639c0.005,0,0.068,0.039,0.188,0.114c0.13,0.082,0.305,0.191,0.529,0.332
										c0.473,0.299,1.152,0.73,2.03,1.286c1.773,1.126,4.344,2.759,7.582,4.815c6.464,4.12,15.592,9.937,26.295,16.757
										l-0.147-0.013c7.275-3.022,15.266-6.341,23.632-9.817c0.786-0.326,1.568-0.651,2.294-0.952l-0.027,0.304
										c-1.945-1.249-3.867-2.482-5.76-3.696c-1.898-1.202-3.738-2.445-5.607-3.539c-3.718-2.231-7.533-3.98-11.281-5.3
										c-3.746-1.338-7.442-2.182-10.928-2.714c-1.737-0.31-3.44-0.417-5.068-0.582c-1.635-0.058-3.202-0.18-4.7-0.123
										c-5.998,0.049-10.794,0.943-14.031,1.743c-1.636,0.351-2.861,0.786-3.71,1.014
										C449.29,47.484,448.941,47.583,448.749,47.639c0,0,0.095-0.044,0.317-0.126c0.227-0.073,0.543-0.176,0.952-0.308
										c0.843-0.25,2.064-0.705,3.698-1.077c3.234-0.841,8.04-1.775,14.061-1.855c1.504-0.065,3.078,0.05,4.721,0.101
										c1.635,0.159,3.347,0.259,5.094,0.564c3.502,0.522,7.221,1.36,10.988,2.696c3.771,1.318,7.609,3.069,11.351,5.309
										c1.886,1.1,3.718,2.337,5.619,3.539c1.894,1.214,3.815,2.446,5.762,3.694l0.278,0.178l-0.306,0.126
										c-0.726,0.301-1.508,0.626-2.294,0.952c-8.369,3.468-16.362,6.779-23.641,9.794l-0.078,0.032l-0.07-0.045
										c-10.711-6.917-19.846-12.814-26.315-16.992c-3.199-2.073-5.74-3.719-7.493-4.855c-0.855-0.556-1.518-0.986-1.979-1.286
										c-0.214-0.14-0.38-0.249-0.503-0.33C448.799,47.676,448.745,47.638,448.749,47.639z"/>
								</g>
							</g>
						</g>
					</g>
					<g>
						<g>
							<g>
								<path style="fill:#14A800;" d="M413.197,103.061c0.003,0.045,0.014,0.151,0.03,0.311
									c1.929,18.154,12.025,34.441,27.392,44.298l9.638,6.183l-1.019-27.672L413.197,103.061z"/>
							</g>
						</g>
						<g>
							<g>
								<g>
									<path style="fill:#263238;" d="M413.197,103.061c-0.003-0.004,0.053,0.029,0.165,0.099
										c0.124,0.078,0.289,0.181,0.503,0.315c0.459,0.29,1.117,0.707,1.967,1.245c1.74,1.105,4.26,2.705,7.435,4.721
										c6.406,4.083,15.451,9.846,26.058,16.605l0.071,0.045l0.003,0.084c0.289,7.766,0.607,16.293,0.941,25.224
										c0.03,0.838,0.061,1.674,0.09,2.447l0.012,0.33l-0.277-0.178c-1.92-1.232-3.815-2.449-5.682-3.646
										c-1.859-1.211-3.722-2.345-5.483-3.583c-3.547-2.433-6.696-5.155-9.428-7.994c-2.748-2.829-5.027-5.818-6.936-8.744
										c-0.993-1.441-1.786-2.934-2.601-4.334c-0.722-1.452-1.473-2.815-2.032-4.191c-2.404-5.431-3.542-10.124-4.118-13.369
										c-0.339-1.618-0.433-2.9-0.556-3.759c-0.05-0.42-0.088-0.746-0.115-0.98C413.196,103.163,413.197,103.061,413.197,103.061
										c0.03,0.197,0.084,0.55,0.199,1.308c0.145,0.855,0.26,2.132,0.617,3.743c0.615,3.231,1.785,7.899,4.208,13.296
										c0.565,1.367,1.319,2.722,2.044,4.164c0.817,1.391,1.612,2.874,2.605,4.305c1.91,2.905,4.188,5.873,6.927,8.68
										c2.725,2.818,5.861,5.52,9.391,7.935c1.749,1.227,3.62,2.365,5.479,3.573c1.867,1.197,3.763,2.413,5.683,3.644
										l-0.265,0.152c-0.029-0.775-0.06-1.61-0.091-2.449c-0.324-8.93-0.634-17.458-0.916-25.224l0.073,0.129
										c-10.517-6.791-19.484-12.583-25.837-16.685c-3.175-2.057-5.695-3.69-7.436-4.817c-0.858-0.558-1.523-0.991-1.987-1.292
										c-0.219-0.144-0.389-0.255-0.516-0.338C413.26,103.105,413.199,103.064,413.197,103.061z"/>
								</g>
							</g>
						</g>
					</g>
					<g>
						<path style="fill:#14A800;" d="M335.295,13.974c-2.301,3.309,1.021,13.338,9.121,26.759l21.936-29.549
							C350.576,9.237,338.252,9.724,335.295,13.974z"/>
					</g>
				</g>
				<g>
					<g>
						<g>
							<line style="fill:#F5F5F5;" x1="451.366" y1="127.549" x2="486.239" y2="72.479"/>
						</g>
					</g>
					<g>
						<g>
							<g>
								<path style="fill:#263238;" d="M486.239,72.479c0.081,0.051-7.661,12.421-17.29,27.626
									c-9.632,15.21-17.503,27.495-17.583,27.444c-0.08-0.051,7.66-12.418,17.292-27.628
									C478.286,84.716,486.159,72.428,486.239,72.479z"/>
							</g>
						</g>
					</g>
				</g>
				<g>
					<g>
						<g>
							<line style="fill:#F5F5F5;" x1="453.681" y1="129.379" x2="488.554" y2="74.31"/>
						</g>
					</g>
					<g>
						<g>
							<g>
								<path style="fill:#263238;" d="M488.554,74.31c0.081,0.051-7.661,12.421-17.29,27.625
									c-9.632,15.21-17.503,27.495-17.583,27.444c-0.081-0.051,7.66-12.418,17.292-27.628
									C480.601,86.546,488.474,74.259,488.554,74.31z"/>
							</g>
						</g>
					</g>
				</g>
				<g>
					<g>
						<g>
							<line style="fill:#F5F5F5;" x1="456.316" y1="131.009" x2="491.189" y2="75.939"/>
						</g>
					</g>
					<g>
						<g>
							<g>
								<path style="fill:#263238;" d="M491.189,75.939c0.081,0.051-7.661,12.421-17.29,27.626
									c-9.632,15.21-17.503,27.495-17.583,27.444c-0.081-0.051,7.66-12.418,17.292-27.628
									C483.236,88.176,491.109,75.889,491.189,75.939z"/>
							</g>
						</g>
					</g>
				</g>
				<g>
					<g>
						<g>
							<line style="fill:#F5F5F5;" x1="458.952" y1="132.639" x2="493.825" y2="77.569"/>
						</g>
					</g>
					<g>
						<g>
							<g>
								<path style="fill:#263238;" d="M493.825,77.569c0.081,0.051-7.661,12.421-17.29,27.626
									c-9.632,15.21-17.503,27.495-17.583,27.444c-0.081-0.051,7.66-12.418,17.292-27.628
									C485.872,89.806,493.745,77.518,493.825,77.569z"/>
							</g>
						</g>
					</g>
				</g>
				<g>
					<g>
						<g>
							<line style="fill:#F5F5F5;" x1="461.588" y1="134.268" x2="496.461" y2="79.199"/>
						</g>
					</g>
					<g>
						<g>
							<g>
								<path style="fill:#263238;" d="M496.461,79.198c0.081,0.051-7.661,12.421-17.29,27.626
									c-9.632,15.21-17.503,27.495-17.583,27.444c-0.08-0.051,7.66-12.418,17.292-27.628
									C488.508,91.435,496.381,79.147,496.461,79.198z"/>
							</g>
						</g>
					</g>
				</g>
				<g>
					<g>
						<g>
							<path style="fill:#263238;" d="M431.104,75.28c0.003-0.011,0.146,0.051,0.419,0.183c0.281,0.124,0.651,0.361,1.148,0.644
								c0.983,0.578,2.387,1.446,4.11,2.533c3.448,2.175,8.177,5.232,13.378,8.641c5.203,3.41,9.895,6.525,13.279,8.795
								c1.662,1.125,3.02,2.044,3.997,2.706c0.444,0.31,0.802,0.559,1.077,0.75c0.244,0.175,0.369,0.271,0.362,0.282
								c-0.007,0.01-0.145-0.067-0.401-0.224c-0.283-0.178-0.652-0.409-1.112-0.697c-0.992-0.639-2.37-1.526-4.058-2.614
								c-3.441-2.248-8.141-5.317-13.334-8.709c-5.187-3.397-9.881-6.472-13.32-8.724c-1.684-1.091-3.059-1.982-4.049-2.624
								c-0.482-0.298-0.849-0.558-1.107-0.695C431.236,75.376,431.101,75.292,431.104,75.28z"/>
						</g>
					</g>
				</g>
				<g>
					<g>
						<g>
							<path style="fill:#263238;" d="M448.749,47.639c0.08,0.051-7.737,12.401-17.458,27.581
								c-9.725,15.185-17.67,27.448-17.751,27.397c-0.08-0.051,7.735-12.398,17.46-27.583
								C440.722,59.854,448.669,47.587,448.749,47.639z"/>
						</g>
					</g>
				</g>
				<g>
					<g>
						<g>
							<path style="fill:#263238;" d="M460.843,88.088c-0.017,0.002-0.068-0.172-0.023-0.493c0.043-0.315,0.216-0.782,0.644-1.189
								c0.406-0.403,1.161-0.73,1.94-0.486c0.752,0.218,1.484,0.913,1.586,1.858c0.075,0.949-0.518,1.767-1.216,2.12
								c-0.722,0.384-1.523,0.202-1.997-0.12c-0.496-0.321-0.751-0.748-0.853-1.05c-0.103-0.307-0.084-0.488-0.066-0.489
								c0.029-0.004,0.058,0.167,0.19,0.437c0.13,0.266,0.396,0.632,0.854,0.894c0.447,0.263,1.123,0.385,1.724,0.047
								c0.59-0.312,1.086-1.033,1.02-1.806c-0.077-0.772-0.697-1.388-1.335-1.586c-0.652-0.221-1.294,0.023-1.685,0.364
								c-0.403,0.342-0.597,0.75-0.676,1.036C460.869,87.913,460.873,88.087,460.843,88.088z"/>
						</g>
					</g>
				</g>
				<g>
					<g>
						<g>
							<path style="fill:#263238;" d="M445.271,77.687c-0.018,0.002-0.069-0.172-0.024-0.493c0.043-0.315,0.217-0.782,0.645-1.189
								c0.406-0.404,1.16-0.73,1.94-0.486c0.752,0.218,1.484,0.913,1.585,1.858c0.075,0.949-0.517,1.767-1.216,2.12
								c-0.722,0.384-1.522,0.201-1.997-0.12c-0.495-0.321-0.751-0.748-0.852-1.05c-0.104-0.307-0.085-0.488-0.067-0.489
								c0.029-0.004,0.059,0.167,0.191,0.437c0.13,0.266,0.396,0.632,0.854,0.894c0.446,0.263,1.123,0.385,1.723,0.047
								c0.591-0.312,1.086-1.033,1.02-1.806c-0.077-0.771-0.696-1.389-1.335-1.586c-0.651-0.222-1.294,0.023-1.685,0.364
								c-0.402,0.342-0.597,0.75-0.675,1.036C445.298,77.511,445.301,77.686,445.271,77.687z"/>
						</g>
					</g>
				</g>
				<g>
					<g>
						<g>
							<path style="fill:#263238;" d="M415.285,70.446c-0.018,0.002-0.068-0.172-0.024-0.493c0.044-0.315,0.217-0.782,0.645-1.189
								c0.406-0.404,1.16-0.73,1.94-0.486c0.752,0.218,1.484,0.913,1.586,1.858c0.075,0.949-0.518,1.767-1.217,2.12
								c-0.722,0.384-1.522,0.202-1.996-0.121c-0.496-0.321-0.752-0.748-0.853-1.05c-0.103-0.307-0.084-0.488-0.067-0.489
								c0.029-0.004,0.059,0.167,0.191,0.437c0.13,0.266,0.396,0.632,0.854,0.894c0.446,0.263,1.123,0.385,1.723,0.047
								c0.591-0.312,1.086-1.033,1.021-1.806c-0.078-0.772-0.697-1.389-1.335-1.586c-0.652-0.222-1.294,0.023-1.686,0.364
								c-0.402,0.342-0.597,0.75-0.675,1.036C415.312,70.271,415.315,70.445,415.285,70.446z"/>
						</g>
					</g>
				</g>
				<g>
					<g>
						<g>
							<path style="fill:#263238;" d="M401.935,67.199c0.059-0.078,5.778,3.074,12.773,7.04c6.997,3.967,12.62,7.246,12.561,7.324
								c-0.059,0.078-5.777-3.074-12.774-7.041C407.5,70.556,401.876,67.277,401.935,67.199z"/>
						</g>
					</g>
				</g>
				<g style="opacity:0.3;">
					<g>
						<g>
							<path d="M448.296,125.576c0,0-23.315-15.723-35.099-22.515c4.068,5.836,8.764,12.458,14.413,16.779
								C433.317,124.205,441.153,126.362,448.296,125.576z"/>
						</g>
					</g>
				</g>
			</g>
			<g>
				<g>
					<circle style="fill:#FFFFFF;" cx="391.507" cy="50.609" r="19.722"/>
				</g>
				<g>
					<g>
						<path style="fill:#263238;" d="M411.197,51.731c-0.009,0-0.018-0.109-0.024-0.321c-0.006-0.239-0.012-0.548-0.021-0.937
							c0.005-0.412-0.007-0.92-0.092-1.517c-0.063-0.598-0.117-1.29-0.305-2.049c-0.268-1.535-0.882-3.364-1.898-5.323
							c-1.025-1.951-2.544-4.012-4.665-5.808c-2.115-1.78-4.82-3.344-8.001-4.092c-3.16-0.727-6.767-0.831-10.27,0.279
							c-1.76,0.501-3.475,1.313-5.069,2.37c-0.82,0.498-1.55,1.138-2.311,1.75c-0.695,0.687-1.422,1.356-2.032,2.146
							c-2.573,3.044-4.154,7.058-4.434,11.27c-0.202,4.218,0.912,8.386,3.123,11.705c0.517,0.854,1.163,1.602,1.775,2.363
							c0.687,0.695,1.338,1.414,2.098,2.002c1.463,1.231,3.076,2.233,4.768,2.931c3.354,1.5,6.949,1.807,10.172,1.444
							c3.245-0.383,6.11-1.629,8.414-3.157c2.312-1.543,4.055-3.419,5.295-5.241c1.231-1.83,2.051-3.578,2.49-5.072
							c0.272-0.733,0.404-1.414,0.535-2c0.152-0.583,0.222-1.086,0.264-1.496c0.053-0.385,0.095-0.692,0.126-0.929
							C411.168,51.838,411.188,51.731,411.197,51.731s0.006,0.109-0.008,0.32c-0.02,0.239-0.044,0.548-0.075,0.938
							c-0.025,0.414-0.079,0.923-0.216,1.514c-0.116,0.594-0.234,1.285-0.494,2.03c-0.415,1.52-1.215,3.302-2.442,5.175
							c-1.236,1.864-2.988,3.791-5.33,5.383c-2.333,1.577-5.25,2.87-8.565,3.281c-3.291,0.391-6.972,0.093-10.416-1.431
							c-1.735-0.71-3.393-1.731-4.896-2.99c-0.78-0.602-1.451-1.336-2.156-2.049c-0.631-0.779-1.294-1.546-1.826-2.42
							c-1.096-1.715-2.029-3.606-2.544-5.658c-0.538-2.04-0.767-4.188-0.671-6.355c0.284-4.323,1.915-8.446,4.56-11.565
							c0.628-0.809,1.375-1.495,2.09-2.197c0.781-0.627,1.531-1.281,2.374-1.79c1.638-1.08,3.399-1.906,5.204-2.414
							c3.595-1.123,7.285-1.001,10.51-0.238c3.248,0.784,5.999,2.4,8.138,4.231c2.146,1.848,3.668,3.961,4.685,5.954
							c1.007,2,1.6,3.862,1.839,5.419c0.174,0.77,0.212,1.47,0.26,2.074c0.068,0.603,0.064,1.115,0.043,1.529
							c-0.014,0.39-0.024,0.7-0.032,0.94C411.216,51.625,411.206,51.732,411.197,51.731z"/>
					</g>
				</g>
			</g>
		</g>
		<g>
			<g>
				<g>
					<path style="fill:#263238;" d="M335.296,13.974c0,0,0.04-0.066,0.13-0.192c0.082-0.132,0.23-0.309,0.451-0.521
						c0.439-0.423,1.201-0.949,2.306-1.408c2.207-0.925,5.715-1.603,10.259-1.789c4.547-0.2,10.141,0.058,16.587,0.895
						c6.44,0.852,13.762,2.193,21.692,4.436c3.962,1.127,8.073,2.47,12.306,4.036c4.231,1.564,8.59,3.353,12.978,5.495
						c4.388,2.14,8.823,4.588,13.235,7.382c4.393,2.811,8.922,5.709,13.577,8.689c18.613,11.93,39.242,25.151,61.163,39.2
						l0.217,0.139l-0.14,0.217c-5.704,8.895-11.684,18.217-17.771,27.708c-6.091,9.493-12.073,18.817-17.781,27.713l-0.139,0.217
						l-0.217-0.139c-21.916-14.072-42.538-27.312-61.145-39.259c-4.65-2.988-9.175-5.895-13.562-8.714
						c-2.193-1.41-4.353-2.797-6.476-4.162c-2.107-1.421-4.053-2.964-5.944-4.51c-7.536-6.215-13.838-12.772-19.093-19.112
						c-5.191-6.402-9.353-12.564-12.77-18.09c-3.406-5.534-5.994-10.494-7.755-14.689c-1.77-4.189-2.684-7.639-2.803-10.03
						c-0.061-1.194,0.09-2.107,0.289-2.685c0.1-0.29,0.197-0.499,0.283-0.628C335.252,14.038,335.296,13.974,335.296,13.974
						c0.027,0.014-0.183,0.26-0.358,0.842c-0.182,0.576-0.314,1.48-0.238,2.664c0.148,2.371,1.086,5.797,2.877,9.963
						c1.782,4.173,4.39,9.11,7.813,14.621c3.433,5.502,7.61,11.645,12.805,18.014c5.26,6.31,11.561,12.836,19.086,19.017
						c1.885,1.534,3.837,3.076,5.918,4.473c2.126,1.361,4.287,2.745,6.482,4.15c4.392,2.813,8.92,5.712,13.574,8.693
						c18.615,11.931,39.247,25.154,61.173,39.207l-0.355,0.078c5.706-8.897,11.687-18.222,17.776-27.716
						c6.089-9.49,12.069-18.811,17.776-27.705l0.077,0.355c-21.909-14.067-42.526-27.305-61.131-39.25
						c-4.649-2.986-9.174-5.891-13.562-8.708c-4.395-2.792-8.812-5.241-13.182-7.383c-4.371-2.145-8.71-3.936-12.931-5.508
						s-8.32-2.923-12.27-4.058c-7.903-2.259-15.209-3.623-21.634-4.499c-6.43-0.861-12.01-1.146-16.544-0.976
						c-4.533,0.157-8.029,0.803-10.23,1.692c-1.102,0.442-1.862,0.948-2.309,1.355C335.457,13.7,335.32,13.993,335.296,13.974z"/>
				</g>
			</g>
		</g>
	</g>
</g>
<g>
	<g>
		<g>
			<path style="fill:#FFFFFF;" d="M416.191,230.082H242.527c-11.34,0-20.534-9.193-20.534-20.534l0,0
				c0-11.34,9.193-20.533,20.534-20.533h173.664c11.34,0,20.533,9.193,20.533,20.533l0,0
				C436.725,220.889,427.531,230.082,416.191,230.082z"/>
		</g>
		<g>
			<g>
				<path style="fill:#263238;" d="M416.191,230.082c0,0,0.416-0.039,1.227-0.089c0.405-0.025,0.911-0.037,1.502-0.153
					c0.591-0.112,1.292-0.16,2.051-0.395c0.383-0.1,0.787-0.206,1.215-0.318c0.42-0.136,0.853-0.311,1.312-0.477
					c0.228-0.086,0.461-0.174,0.7-0.265c0.229-0.111,0.464-0.226,0.704-0.342c0.474-0.244,0.994-0.448,1.475-0.772
					c1.998-1.147,4.125-2.842,5.953-5.224c0.453-0.597,0.917-1.212,1.302-1.905c0.437-0.662,0.786-1.395,1.137-2.149
					c0.384-0.739,0.604-1.57,0.923-2.38c0.107-0.423,0.216-0.85,0.326-1.281l0.166-0.651l0.103-0.672
					c0.068-0.45,0.137-0.906,0.206-1.365c0.022-0.465,0.046-0.935,0.069-1.409l0.032-0.716l-0.038-0.722
					c-0.031-0.483-0.038-0.974-0.09-1.464c-0.233-1.965-0.755-3.965-1.584-5.921c-1.704-3.884-4.814-7.514-9.063-9.813
					c-2.119-1.144-4.517-1.912-7.036-2.227c-2.517-0.285-5.166-0.141-7.855-0.174c-43.105,0.02-102.636,0.047-168.388,0.076
					c-2.031,0.041-4.046,0.322-5.983,0.896c-1.92,0.623-3.744,1.5-5.417,2.605c-1.649,1.145-3.117,2.52-4.387,4.052
					c-1.258,1.547-2.237,3.292-3.008,5.108c-0.762,1.829-1.17,3.773-1.396,5.719c-0.161,1.957-0.06,3.921,0.293,5.836
					c0.419,1.898,1.021,3.757,1.932,5.464c0.929,1.687,2.016,3.295,3.366,4.657c2.662,2.747,6.068,4.733,9.726,5.605
					c0.901,0.279,1.844,0.34,2.764,0.504c0.938,0.036,1.856,0.132,2.804,0.109c1.884,0.001,3.758,0.001,5.623,0.002
					c7.458,0.003,14.759,0.006,21.883,0.009c28.494,0.021,54.152,0.04,75.704,0.056c21.542,0.035,38.976,0.063,51.036,0.083
					c6.019,0.021,10.693,0.038,13.876,0.049c1.579,0.012,2.785,0.02,3.608,0.025C415.774,230.063,416.191,230.082,416.191,230.082
					s-0.417,0.018-1.229,0.026c-0.823,0.006-2.029,0.015-3.608,0.025c-3.183,0.012-7.857,0.028-13.876,0.05
					c-12.061,0.02-29.494,0.048-51.036,0.082c-21.552,0.017-47.21,0.035-75.704,0.056c-7.124,0.003-14.425,0.006-21.883,0.009
					c-1.864,0.001-3.739,0.002-5.623,0.002c-0.937,0.023-1.903-0.072-2.856-0.11c-0.942-0.166-1.909-0.23-2.833-0.514
					c-3.75-0.894-7.243-2.928-9.972-5.741c-1.384-1.396-2.5-3.043-3.453-4.773c-0.935-1.75-1.554-3.655-1.983-5.603
					c-0.364-1.964-0.468-3.978-0.303-5.984c0.229-1.994,0.65-3.988,1.43-5.864c0.79-1.864,1.794-3.653,3.084-5.24
					c1.301-1.573,2.808-2.983,4.499-4.155c1.716-1.135,3.586-2.035,5.556-2.673c1.987-0.589,4.055-0.879,6.137-0.92
					c65.752,0.03,125.282,0.057,168.388,0.076c2.693,0.04,5.32-0.103,7.899,0.194c2.563,0.326,4.999,1.115,7.149,2.283
					c4.311,2.348,7.456,6.043,9.172,9.988c0.836,1.987,1.357,4.018,1.586,6.008c0.051,0.497,0.056,0.994,0.086,1.483l0.035,0.731
					l-0.035,0.725c-0.025,0.48-0.051,0.955-0.075,1.426c-0.072,0.465-0.144,0.926-0.214,1.382l-0.107,0.679l-0.171,0.659
					c-0.113,0.437-0.225,0.868-0.336,1.295c-0.325,0.818-0.552,1.657-0.942,2.403c-0.358,0.762-0.716,1.5-1.159,2.167
					c-0.393,0.698-0.864,1.317-1.325,1.919c-1.858,2.396-4.015,4.091-6.036,5.232c-0.486,0.323-1.013,0.525-1.491,0.768
					c-0.242,0.115-0.479,0.229-0.712,0.339c-0.24,0.089-0.477,0.176-0.707,0.26c-0.463,0.163-0.899,0.335-1.323,0.468
					c-0.431,0.108-0.839,0.211-1.225,0.309c-0.765,0.228-1.471,0.267-2.064,0.37c-0.595,0.109-1.103,0.111-1.51,0.128
					C416.607,230.079,416.191,230.082,416.191,230.082z"/>
			</g>
		</g>
	</g>
	<g>
		<circle style="fill:#FFFFFF;" cx="408.313" cy="208.425" r="9.137"/>
		<path style="fill:#263238;" d="M408.313,218.062c-5.313,0-9.637-4.324-9.637-9.637c0-5.314,4.323-9.637,9.637-9.637
			s9.637,4.322,9.637,9.637C417.95,213.737,413.627,218.062,408.313,218.062z M408.313,199.788c-4.763,0-8.637,3.874-8.637,8.637
			c0,4.762,3.874,8.637,8.637,8.637s8.637-3.875,8.637-8.637C416.95,203.662,413.076,199.788,408.313,199.788z"/>
	</g>
	<g>
		
			<rect x="414.969" y="215.762" transform="matrix(0.8456 0.5339 -0.5339 0.8456 180.252 -190.5856)" style="fill:#263238;" width="9.146" height="1"/>
	</g>
</g>
<g>
	<path style="fill:#263238;" d="M250.835,212.875l0.753-1.672c0.809,0.589,2.014,1.001,3.166,1.001c1.315,0,1.85-0.439,1.85-1.028
		c0-1.795-5.577-0.562-5.577-4.124c0-1.631,1.315-2.988,4.042-2.988c1.206,0,2.439,0.289,3.33,0.85l-0.685,1.686
		c-0.891-0.506-1.809-0.753-2.658-0.753c-1.315,0-1.822,0.493-1.822,1.097c0,1.768,5.577,0.547,5.577,4.068
		c0,1.604-1.329,2.975-4.069,2.975C253.219,213.985,251.685,213.532,250.835,212.875z"/>
	<path style="fill:#263238;" d="M267.356,210.737h-5.577c0.206,0.918,0.986,1.48,2.11,1.48c0.781,0,1.343-0.233,1.85-0.713
		l1.137,1.232c-0.685,0.781-1.713,1.193-3.042,1.193c-2.548,0-4.207-1.604-4.207-3.797c0-2.205,1.686-3.795,3.933-3.795
		c2.165,0,3.836,1.453,3.836,3.822C267.397,210.326,267.37,210.56,267.356,210.737z M261.752,209.49h3.631
		c-0.15-0.932-0.85-1.534-1.809-1.534C262.602,207.956,261.903,208.545,261.752,209.49z"/>
	<path style="fill:#263238;" d="M275.136,209.614v4.206h-2v-0.918c-0.397,0.671-1.165,1.028-2.247,1.028
		c-1.727,0-2.754-0.96-2.754-2.234c0-1.302,0.918-2.206,3.166-2.206h1.699c0-0.918-0.548-1.452-1.699-1.452
		c-0.781,0-1.589,0.26-2.124,0.686l-0.767-1.494c0.808-0.576,2-0.891,3.179-0.891C273.834,206.339,275.136,207.38,275.136,209.614z
		 M272.998,211.491v-0.754h-1.466c-1,0-1.315,0.37-1.315,0.863c0,0.534,0.452,0.891,1.206,0.891
		C272.135,212.491,272.751,212.162,272.998,211.491z"/>
	<path style="fill:#263238;" d="M281.641,206.339v1.973c-0.178-0.014-0.315-0.027-0.479-0.027c-1.178,0-1.959,0.645-1.959,2.056
		v3.48h-2.138v-7.372h2.042v0.973C279.627,206.709,280.504,206.339,281.641,206.339z"/>
	<path style="fill:#263238;" d="M282.297,210.134c0-2.219,1.713-3.795,4.111-3.795c1.548,0,2.768,0.672,3.302,1.877l-1.658,0.891
		c-0.397-0.699-0.986-1.014-1.658-1.014c-1.083,0-1.932,0.754-1.932,2.041c0,1.289,0.85,2.043,1.932,2.043
		c0.671,0,1.26-0.303,1.658-1.015l1.658,0.904c-0.535,1.179-1.754,1.864-3.302,1.864
		C284.01,213.931,282.297,212.354,282.297,210.134z"/>
	<path style="fill:#263238;" d="M298.421,209.601v4.22h-2.137v-3.892c0-1.191-0.548-1.74-1.494-1.74
		c-1.027,0-1.768,0.631-1.768,1.986v3.646h-2.138v-10.167h2.138v3.563c0.576-0.576,1.398-0.877,2.343-0.877
		C297.106,206.339,298.421,207.353,298.421,209.601z"/>
	<path style="fill:#263238;" d="M299.829,212.587c0-0.795,0.59-1.315,1.329-1.315c0.74,0,1.329,0.521,1.329,1.315
		c0,0.781-0.589,1.344-1.329,1.344C300.419,213.931,299.829,213.368,299.829,212.587z"/>
	<path style="fill:#263238;" d="M303.418,212.587c0-0.795,0.589-1.315,1.329-1.315s1.329,0.521,1.329,1.315
		c0,0.781-0.589,1.344-1.329,1.344S303.418,213.368,303.418,212.587z"/>
	<path style="fill:#263238;" d="M307.007,212.587c0-0.795,0.589-1.315,1.328-1.315c0.74,0,1.33,0.521,1.33,1.315
		c0,0.781-0.59,1.344-1.33,1.344C307.596,213.931,307.007,213.368,307.007,212.587z"/>
</g>
<g>
	<g>
		<g>
			<g>
				<g>
					<path style="fill:#EBEBEB;" d="M571.507,284.792c-15.552-10.866-19.081-31.033-18.465-49.162
						c0.102-3.026-0.23-6.217,1.209-8.872c1.44-2.654,4.799-4.47,7.508-3.194c2.248,1.058,3.227,3.672,4.484,5.834
						c1.672,2.877,4.164,5.257,7.097,6.778c1.928,1,4.312,1.611,6.214,0.563c2.61-1.44,2.918-5.046,2.899-8.057
						c-0.036-5.609-0.07-11.22-0.105-16.828c-0.019-3.009-0.027-6.082,0.908-8.938c0.937-2.856,3.005-5.511,5.867-6.313
						c2.865-0.802,6.404,0.849,7.01,3.795c0.252,1.226,0.002,2.498,0.086,3.747c0.082,1.25,0.664,2.633,1.852,2.98
						c1.201,0.353,2.406-0.501,3.305-1.382c3.107-3.038,5.215-6.953,7.186-10.847c1.969-3.893,3.883-7.879,6.701-11.193
						s6.717-5.94,11.027-6.186c4.311-0.243,8.902,2.417,9.992,6.648c1.092,4.243-1.383,8.548-4.076,11.982
						c-3.998,5.097-8.725,9.603-13.988,13.334c-0.949,0.674-1.979,1.401-2.34,2.516c-0.654,2.007,1.248,4,3.229,4.659
						c2.242,0.747,4.678,0.514,7.023,0.79c2.348,0.276,4.891,1.312,5.777,3.529c1.232,3.076-1.34,6.301-3.871,8.413
						c-5.068,4.229-10.857,7.57-17.033,9.832c-2.213,0.811-4.543,1.521-6.328,3.076c-1.787,1.557-2.863,4.261-1.785,6.381
						c1.08,2.122,3.848,2.801,6.166,2.37c2.318-0.43,4.395-1.689,6.605-2.522c4.137-1.562,9.477-1.276,12.127,2.298
						c1.74,2.35,1.895,5.622,1.014,8.423s-2.666,5.214-4.563,7.438c-6.629,7.777-15.115,14.039-24.711,17.366
						C589.934,287.378,581.042,288.279,571.507,284.792"/>
				</g>
			</g>
		</g>
	</g>
	<g>
		<g>
			<g>
				<g>
					<g>
						<path style="fill:#E0E0E0;" d="M571.269,298.231c0.657-7.182,2.231-15.663,4.918-24.805
							c2.668-9.149,6.425-18.935,10.705-29.036c1.079-2.521,2.147-5.012,3.198-7.467c1.055-2.447,2.1-4.876,3.27-7.188
							c2.32-4.634,4.904-8.913,7.484-12.897c2.578-3.987,5.172-7.677,7.619-11.109c2.459-3.429,4.809-6.581,7.074-9.362
							c4.516-5.583,8.682-9.646,11.654-12.318c1.484-1.343,2.672-2.345,3.484-3.014c0.391-0.318,0.697-0.567,0.93-0.756
							c0.211-0.167,0.322-0.249,0.328-0.241c0.006,0.007-0.094,0.104-0.293,0.286c-0.223,0.198-0.518,0.461-0.893,0.797
							c-0.789,0.696-1.951,1.725-3.412,3.089c-2.926,2.719-7.033,6.811-11.496,12.408c-2.24,2.789-4.566,5.947-7.004,9.383
							c-2.432,3.442-5.006,7.136-7.566,11.12c-2.561,3.982-5.125,8.252-7.426,12.863c-1.16,2.301-2.195,4.708-3.25,7.163
							c-1.051,2.454-2.115,4.944-3.194,7.464c-4.276,10.093-8.037,19.85-10.726,28.963c-2.703,9.105-4.312,17.545-5.016,24.696"/>
					</g>
				</g>
			</g>
		</g>
	</g>
	<g>
		<g>
			<g>
				<g>
					<g>
						<path style="fill:#E0E0E0;" d="M593.518,229.715c-0.037,0.006-0.139-0.451-0.293-1.283c-0.158-0.832-0.348-2.043-0.559-3.542
							c-0.426-2.996-0.871-7.155-1.348-11.741c-0.475-4.589-0.979-8.729-1.449-11.711c-0.23-1.491-0.43-2.697-0.578-3.528
							c-0.143-0.833-0.205-1.298-0.168-1.307c0.039-0.009,0.17,0.44,0.379,1.262c0.213,0.819,0.473,2.018,0.752,3.505
							c0.572,2.976,1.141,7.126,1.615,11.72c0.457,4.527,0.869,8.622,1.186,11.752c0.15,1.413,0.279,2.604,0.383,3.559
							C593.525,229.24,593.557,229.709,593.518,229.715z"/>
					</g>
				</g>
			</g>
		</g>
	</g>
	<g>
		<g>
			<g>
				<g>
					<g>
						<path style="fill:#E0E0E0;" d="M632.215,222.483c0,0.038-0.551,0.103-1.545,0.185c-0.992,0.089-2.43,0.209-4.201,0.414
							c-3.543,0.383-8.42,1.082-13.768,2.09c-5.348,1.018-10.146,2.145-13.594,3.06c-1.729,0.445-3.117,0.844-4.078,1.113
							c-0.961,0.273-1.498,0.407-1.512,0.37c-0.012-0.037,0.504-0.24,1.447-0.579c0.943-0.333,2.318-0.79,4.039-1.287
							c3.43-1.016,8.232-2.207,13.596-3.229c5.363-1.009,10.268-1.65,13.832-1.933c1.781-0.155,3.229-0.216,4.229-0.236
							C631.66,222.436,632.213,222.443,632.215,222.483z"/>
					</g>
				</g>
			</g>
		</g>
	</g>
	<g>
		<g>
			<g>
				<g>
					<g>
						<path style="fill:#E0E0E0;" d="M576.662,272.715c-0.018,0.008-0.108-0.154-0.266-0.472c-0.179-0.379-0.397-0.841-0.661-1.4
							c-0.569-1.218-1.348-3.002-2.279-5.219c-1.867-4.434-4.253-10.638-6.793-17.52c-2.543-6.885-4.867-13.104-6.64-17.568
							c-0.868-2.171-1.583-3.956-2.113-5.283c-0.228-0.576-0.414-1.051-0.567-1.441c-0.124-0.331-0.181-0.51-0.163-0.519
							c0.018-0.007,0.108,0.155,0.266,0.474c0.179,0.378,0.396,0.839,0.661,1.398c0.569,1.218,1.348,3.003,2.279,5.22
							c1.867,4.433,4.253,10.637,6.794,17.522c2.542,6.883,4.867,13.1,6.639,17.566c0.868,2.169,1.582,3.956,2.113,5.282
							c0.228,0.576,0.414,1.052,0.567,1.441C576.623,272.529,576.68,272.707,576.662,272.715z"/>
					</g>
				</g>
			</g>
		</g>
	</g>
	<g>
		<g>
			<g>
				<g>
					<g>
						<path style="fill:#E0E0E0;" d="M628.084,256.143c0.004,0.019-0.172,0.09-0.512,0.21c-0.402,0.135-0.895,0.3-1.492,0.501
							c-1.381,0.447-3.242,1.051-5.508,1.784c-4.648,1.508-11.045,3.664-18.111,6.056c-7.068,2.395-13.492,4.493-18.174,5.905
							c-2.341,0.706-4.24,1.259-5.561,1.614c-0.61,0.16-1.113,0.292-1.522,0.399c-0.351,0.086-0.537,0.121-0.542,0.103
							s0.171-0.091,0.511-0.211c0.4-0.134,0.895-0.299,1.493-0.5c1.379-0.447,3.24-1.05,5.505-1.784
							c4.649-1.507,11.048-3.664,18.116-6.057c7.066-2.394,13.488-4.492,18.17-5.904c2.34-0.707,4.24-1.259,5.561-1.614
							c0.611-0.16,1.113-0.293,1.523-0.4C627.891,256.159,628.076,256.124,628.084,256.143z"/>
					</g>
				</g>
			</g>
		</g>
	</g>
</g>
</svg>
