<?xml version="1.0" encoding="utf-8"?>
<!-- Generator: Adobe Illustrator 16.0.0, SVG Export Plug-In . SVG Version: 6.00 Build 0)  -->
<!DOCTYPE svg PUBLIC "-//W3C//DTD SVG 1.1//EN" "http://www.w3.org/Graphics/SVG/1.1/DTD/svg11.dtd">
<svg version="1.1" id="Layer_1" xmlns="http://www.w3.org/2000/svg" xmlns:xlink="http://www.w3.org/1999/xlink" x="0px" y="0px"
	 width="640px" height="300px" viewBox="0 0 640 300" enable-background="new 0 0 640 300" xml:space="preserve">
<g id="Intercontinental_transport_1_">
	<g opacity="0.3">
		<g>
			<path fill="#FFFFFF" d="M396.856,42.133l123.787-0.376c0,0,12.498-0.651,20.256,7.938c0,0,7.194,4.516,6.722,7.582
				c-0.478,3.07-3.235,7.438-20.586,8.144c-12.687,0.518-69.614,0.03-99.29-0.269c-12.018-0.121-23.982-1.501-35.713-4.12
				l-42.29-9.438l-0.06-5.103l12.485-2.183L347.64,0.827l8.9-0.101c1.967-0.021,3.848,0.805,5.162,2.268L396.856,42.133z"/>
			<g>
				<g>
					<circle fill="#FFFFFF" cx="499.803" cy="49.346" r="2.862"/>
					<path fill="#6EA2E0" d="M499.803,52.561c-1.771,0-3.214-1.442-3.214-3.214s1.441-3.214,3.214-3.214
						c1.771,0,3.214,1.442,3.214,3.214S501.574,52.561,499.803,52.561z M499.803,46.835c-1.385,0-2.511,1.126-2.511,2.511
						c0,1.385,1.126,2.511,2.511,2.511s2.512-1.126,2.512-2.511C502.313,47.962,501.188,46.835,499.803,46.835z"/>
				</g>
				<g>
					<circle fill="#FFFFFF" cx="484.798" cy="49.346" r="2.863"/>
					<path fill="#6EA2E0" d="M484.798,52.561c-1.771,0-3.214-1.442-3.214-3.214s1.441-3.214,3.214-3.214
						c1.773,0,3.214,1.442,3.214,3.214S486.57,52.561,484.798,52.561z M484.798,46.835c-1.385,0-2.511,1.126-2.511,2.511
						c0,1.385,1.126,2.511,2.511,2.511s2.512-1.126,2.512-2.511C487.31,47.962,486.183,46.835,484.798,46.835z"/>
				</g>
				<g>
					<circle fill="#FFFFFF" cx="469.794" cy="49.346" r="2.862"/>
					<path fill="#6EA2E0" d="M469.794,52.561c-1.771,0-3.214-1.442-3.214-3.214s1.441-3.214,3.214-3.214
						c1.771,0,3.214,1.442,3.214,3.214S471.565,52.561,469.794,52.561z M469.794,46.835c-1.385,0-2.512,1.126-2.512,2.511
						c0,1.385,1.127,2.511,2.512,2.511c1.384,0,2.511-1.126,2.511-2.511C472.305,47.962,471.178,46.835,469.794,46.835z"/>
				</g>
				<g>
					<circle fill="#FFFFFF" cx="454.789" cy="49.346" r="2.862"/>
					<path fill="#6EA2E0" d="M454.789,52.561c-1.772,0-3.214-1.442-3.214-3.214s1.44-3.214,3.214-3.214
						c1.771,0,3.214,1.442,3.214,3.214S456.561,52.561,454.789,52.561z M454.789,46.835c-1.385,0-2.511,1.126-2.511,2.511
						c0,1.385,1.126,2.511,2.511,2.511c1.384,0,2.511-1.126,2.511-2.511C457.3,47.962,456.173,46.835,454.789,46.835z"/>
				</g>
				<g>
					<circle fill="#FFFFFF" cx="439.785" cy="49.346" r="2.863"/>
					<path fill="#6EA2E0" d="M439.784,52.561c-1.772,0-3.214-1.442-3.214-3.214s1.44-3.214,3.214-3.214
						c1.772,0,3.214,1.442,3.214,3.214S441.557,52.561,439.784,52.561z M439.784,46.835c-1.385,0-2.511,1.126-2.511,2.511
						c0,1.385,1.126,2.511,2.511,2.511c1.384,0,2.512-1.126,2.512-2.511C442.296,47.962,441.168,46.835,439.784,46.835z"/>
				</g>
				<circle fill="#FFFFFF" cx="424.78" cy="49.346" r="2.863"/>
				<g>
					<circle fill="#FFFFFF" cx="409.775" cy="49.346" r="2.862"/>
					<path fill="#6EA2E0" d="M409.775,52.561c-1.772,0-3.215-1.442-3.215-3.214s1.441-3.214,3.215-3.214
						c1.771,0,3.214,1.442,3.214,3.214S411.547,52.561,409.775,52.561z M409.775,46.835c-1.386,0-2.512,1.126-2.512,2.511
						c0,1.385,1.126,2.511,2.512,2.511c1.384,0,2.511-1.126,2.511-2.511C412.286,47.962,411.159,46.835,409.775,46.835z"/>
				</g>
			</g>
			<g>
				<path fill="#FFFFFF" d="M349.227,48.507l0.042,3.344l42.038,9.316c12.026,2.665,24.299,4.061,36.614,4.166
					c29.87,0.256,86.501,0.652,99.163,0.119c17.398-0.734,20.159-5.119,20.632-8.198c0.008-0.049-0.005-0.106-0.002-0.163
					C439.155,62.682,369.416,52.163,349.227,48.507z"/>
				<path fill="#6EA2E0" d="M499.325,66.068c-22.04,0-51.386-0.212-71.407-0.384c-12.317-0.105-24.661-1.51-36.687-4.175
					l-42.039-9.316c-0.159-0.035-0.272-0.175-0.275-0.338l-0.042-3.343c-0.002-0.105,0.044-0.205,0.124-0.273
					c0.08-0.068,0.188-0.096,0.29-0.078c18.959,3.433,89.297,14.198,198.406,8.578c0.104-0.005,0.197,0.033,0.268,0.103
					c0.07,0.071,0.107,0.168,0.103,0.268c0.005,0.074,0.009,0.13,0,0.195c-0.794,5.158-7.651,7.936-20.966,8.498
					C522.495,65.996,512.145,66.068,499.325,66.068z M349.616,51.567l41.767,9.256c11.979,2.654,24.272,4.053,36.542,4.158
					c31.659,0.271,86.64,0.646,99.146,0.119c18.331-0.773,19.915-5.669,20.256-7.639c-108.172,5.538-178.191-5.021-197.744-8.533
					L349.616,51.567z"/>
			</g>
			<path fill="#FFFFFF" d="M347.64,0.827l14.436,42.132c0,0,30.596-0.054,35.504,0L362.206,3.555
				c-1.634-1.819-3.974-2.847-6.419-2.819L347.64,0.827z"/>
			<g>
				<path fill="#FFFFFF" d="M354.711,3.555c-1.369-1.525-3.235-2.491-5.243-2.748l-1.828,0.021l14.432,42.121
					c5.85-0.008,13.978-0.015,20.088-0.012c2.789-0.001,5.514-0.001,7.903,0L354.711,3.555z"/>
				<path fill="#6EA2E0" d="M362.07,43.299c-0.149,0-0.283-0.096-0.332-0.238l-14.431-42.12c-0.036-0.106-0.02-0.224,0.046-0.316
					c0.064-0.092,0.17-0.147,0.282-0.149l1.828-0.021c0.017,0,0.032,0.001,0.049,0.003c2.105,0.27,4.045,1.286,5.46,2.862l0,0
					l35.353,39.381c0.093,0.104,0.115,0.251,0.06,0.378c-0.057,0.126-0.183,0.208-0.32,0.208l0,0c-2.392-0.002-5.114-0.002-7.904,0
					C376.048,43.284,367.92,43.292,362.07,43.299L362.07,43.299z M348.13,1.173l14.191,41.423
					c5.829-0.008,13.813-0.016,19.837-0.012c2.486-0.001,4.923-0.002,7.116,0L354.45,3.79c-1.298-1.445-3.073-2.378-5.003-2.631
					L348.13,1.173z"/>
			</g>
			<path fill="#6EA2E0" d="M503.816,66.001c-22.434,0-54.605-0.281-76.074-0.497c-12.016-0.121-24.055-1.51-35.786-4.128
				l-42.291-9.438c-0.159-0.036-0.272-0.176-0.274-0.339l-0.059-5.103c-0.002-0.172,0.122-0.32,0.292-0.35l12.082-2.113
				L347.307,0.939c-0.035-0.107-0.019-0.224,0.047-0.315c0.066-0.091,0.171-0.146,0.282-0.148l8.9-0.1
				c2.065-0.026,4.047,0.845,5.429,2.384l35.049,39.021l123.63-0.375c0.097-0.006,11.602-0.514,19.401,6.91
				c0.813,0.775,1.605,1.437,2.424,2.026c2.702,1.943,5.85,4.734,5.5,6.99c-0.799,5.14-7.642,7.901-20.919,8.441
				C523.004,65.938,514.515,66.001,503.816,66.001z M350.09,51.313l42.02,9.377c11.684,2.607,23.675,3.991,35.641,4.111
				c31.704,0.32,86.757,0.78,99.271,0.269c19.154-0.779,19.981-6.099,20.253-7.846c0.227-1.464-1.675-3.765-5.217-6.313
				c-0.844-0.607-1.659-1.29-2.497-2.087c-7.577-7.211-18.786-6.723-18.897-6.717l-123.804,0.376c-0.001,0-0.001,0-0.002,0
				c-0.101,0-0.194-0.042-0.262-0.116L361.441,3.229c-1.246-1.388-3.036-2.173-4.897-2.151l-8.418,0.095l14.376,43.023
				c0.033,0.097,0.021,0.204-0.031,0.292c-0.052,0.088-0.141,0.148-0.24,0.167l-12.19,2.132L350.09,51.313z"/>
			<path fill="#6EA2E0" d="M524.924,51.239l17.454-0.196c-2.12-2.347-4.521-4.132-6.983-5.528l-10.532,0.119
				c-1.031,0.012-1.857,0.857-1.847,1.888l0.021,1.872C523.048,50.424,523.893,51.251,524.924,51.239z"/>
			<g>
				<path fill="#FFFFFF" d="M413.845,47.236c-1.094-0.532-0.997-0.859,0.21-0.725l75.137,8.359c1.203,0.136,2.396,1.214,2.651,2.4
					l0.325,1.501c0.256,1.186-0.528,2.188-1.741,2.228l-43.112,1.414c-1.212,0.038-3.098-0.364-4.186-0.896L413.845,47.236z"/>
				<path fill="#6EA2E0" d="M447.157,62.768c-1.271,0-3.104-0.406-4.185-0.936l-29.282-14.28c-0.537-0.261-1.069-0.588-0.941-1.026
					c0.127-0.438,0.751-0.43,1.344-0.363l75.138,8.358c1.345,0.152,2.671,1.352,2.956,2.675l0.325,1.501
					c0.146,0.677,0.008,1.329-0.387,1.834c-0.396,0.505-0.995,0.796-1.688,0.819l-43.112,1.414
					C447.271,62.767,447.214,62.768,447.157,62.768z M413.849,46.844c0.045,0.024,0.096,0.049,0.149,0.076c0,0,0,0,0.001,0
					l29.284,14.281c1.024,0.503,2.865,0.897,4.02,0.862l43.112-1.415c0.479-0.015,0.891-0.21,1.155-0.549
					c0.265-0.338,0.354-0.783,0.254-1.253l-0.324-1.501c-0.224-1.034-1.3-2.006-2.349-2.125l-75.138-8.359
					C413.955,46.854,413.899,46.849,413.849,46.844z"/>
			</g>
			<g>
				<path fill="#FFFFFF" d="M373.419,42.729l-21.057,0.237l0.014,1.198c0,0,4.616,4.862,28.935,3.782l-1.968-2.432
					C377.897,43.729,375.716,42.703,373.419,42.729z"/>
				<g>
					<path fill="#FFFFFF" d="M353.479,42.953c3.143,1.333,10.385,3.18,25.874,2.574l-0.01-0.013
						c-1.444-1.786-3.627-2.812-5.924-2.786L353.479,42.953z"/>
					<path fill="#6EA2E0" d="M373.607,45.995c-11.906,0-17.729-1.642-20.267-2.718c-0.153-0.065-0.239-0.229-0.207-0.392
						c0.032-0.163,0.174-0.281,0.341-0.283l19.939-0.225c2.414-0.035,4.679,1.036,6.2,2.916c0.084,0.103,0.106,0.251,0.053,0.372
						s-0.169,0.208-0.302,0.213C377.305,45.958,375.389,45.995,373.607,45.995z M355.424,43.283
						c3.604,1.117,10.548,2.356,23.169,1.92c-1.366-1.382-3.195-2.146-5.17-2.123L355.424,43.283z"/>
				</g>
				<path fill="#6EA2E0" d="M374.557,48.455c-18.358,0-22.262-3.866-22.436-4.049c-0.062-0.064-0.095-0.149-0.096-0.238
					l-0.015-1.198c-0.003-0.194,0.153-0.353,0.348-0.354l21.057-0.238l0.004,0.352l-0.004-0.352c2.411-0.033,4.679,1.036,6.2,2.916
					l1.969,2.432c0.083,0.103,0.102,0.244,0.047,0.365c-0.055,0.122-0.173,0.202-0.306,0.208
					C378.877,48.406,376.624,48.455,374.557,48.455z M352.726,44.004c0.767,0.618,6.46,4.484,27.873,3.62l-1.528-1.889
					c-1.388-1.712-3.45-2.682-5.646-2.655l-20.704,0.233L352.726,44.004z"/>
			</g>
			<g>
				<path fill="#FFFFFF" d="M472.414,57.647l10.575-0.12c0.946-0.01,1.724,0.749,1.734,1.697l0.12,10.711
					c0.012,0.947-0.749,1.725-1.695,1.735l-10.575,0.119c-5,0.056-16.744-2.994-16.788-6.881
					C455.741,61.015,467.414,57.703,472.414,57.647z"/>
				<g>
					<path fill="#FFFFFF" d="M472.414,57.647l10.575-0.12c0.946-0.01,1.724,0.749,1.734,1.697l0.12,10.711
						c0.012,0.947-0.749,1.725-1.695,1.735l-10.575,0.119c-5,0.056-16.744-2.994-16.788-6.881
						C455.741,61.015,467.414,57.703,472.414,57.647z"/>
					<path fill="#6EA2E0" d="M472.433,72.142c-2.677,0-6.851-0.807-10.228-1.982c-3.074-1.07-6.745-2.849-6.771-5.248
						c-0.049-4.289,11.889-7.559,16.978-7.617l10.574-0.12c1.14-0.015,2.078,0.905,2.091,2.044l0.12,10.711
						c0.007,0.552-0.202,1.074-0.589,1.468c-0.387,0.395-0.902,0.616-1.454,0.622l-10.575,0.12
						C472.529,72.142,472.481,72.142,472.433,72.142z M472.418,57.998c-5.11,0.058-16.321,3.434-16.281,6.906
						c0.018,1.531,2.313,3.204,6.299,4.592c3.37,1.173,7.537,1.977,10.135,1.942l10.574-0.119c0.364-0.005,0.705-0.15,0.961-0.411
						c0.255-0.261,0.393-0.605,0.389-0.97l-0.12-10.71c-0.01-0.747-0.619-1.349-1.365-1.349c-0.005,0-0.01,0-0.016,0L472.418,57.998
						z"/>
				</g>
				<g>
					<path fill="#FFFFFF" d="M484.832,68.77l-0.015-1.255l-0.002-0.133l-14.076,0.158c-3.407,0.039-9.537-1.783-13.968-4.638
						c-0.632,0.641-0.994,1.314-0.986,2.007c0.044,3.887,11.788,6.938,16.788,6.881l10.326-0.117
						C483.984,71.661,484.85,70.36,484.832,68.77z"/>
					<path fill="#6EA2E0" d="M472.433,72.142c-2.677,0-6.851-0.807-10.228-1.982c-3.074-1.07-6.745-2.849-6.771-5.248
						c-0.009-0.755,0.357-1.516,1.089-2.258c0.115-0.119,0.3-0.139,0.44-0.049c4.521,2.915,10.559,4.626,13.772,4.582l14.075-0.158
						c0.002,0,0.004,0,0.005,0c0.192,0,0.35,0.155,0.352,0.347l0.017,1.39c0.021,1.813-0.981,3.244-2.279,3.258l-10.325,0.117
						C472.529,72.142,472.481,72.142,472.433,72.142z M456.83,63.354c-0.467,0.532-0.699,1.053-0.693,1.55
						c0.018,1.531,2.313,3.204,6.299,4.592c3.37,1.173,7.535,1.969,10.136,1.942l10.323-0.117c0.875-0.01,1.602-1.176,1.587-2.547
						l-0.013-1.038l-13.726,0.154C467.483,67.925,461.436,66.244,456.83,63.354z"/>
				</g>
			</g>
			<g>
				<circle fill="#6EA2E0" cx="452.661" cy="67.863" r="2.704"/>
				<circle fill="#6EA2E0" cx="444.917" cy="67.863" r="2.704"/>
				<circle fill="#6EA2E0" cx="529.224" cy="67.863" r="2.704"/>
			</g>
		</g>
		<g>
			<g>
				<path fill="#B9CEEB" d="M495.708,0.158c-2.268-0.102-4.563-0.154-6.877-0.158v223.652h6.877V0.158z"/>
				<path fill="#B9CEEB" d="M560.12,17.031c-2.276-1.112-4.569-2.174-6.876-3.179v209.802h6.876V17.031z"/>
				<path fill="#B9CEEB" d="M432.031,143.345h207.222v-6.876H368.556c-0.344,2.21-0.728,4.5-1.159,6.876H432.031z"/>
				<path fill="#B9CEEB" d="M366.885,146.096c-2.08,10.874-4.491,20.227-6.877,28.466v49.092h6.877V146.096z"/>
				<path fill="#B9CEEB" d="M431.297,9.83c-2.324,0.837-4.618,1.73-6.877,2.676v211.146h6.877V9.83z"/>
				<path fill="#B9CEEB" d="M620.83,199.912c2.441-4.219,4.757-8.645,6.876-13.264V81.723c-2.068-4.232-4.371-8.306-6.876-12.225
					V199.912z"/>
			</g>
			<g>
				<path fill="#6EA2E0" d="M620.83,143.696h-56.995c-0.194,0-0.352-0.157-0.352-0.352c0-0.194,0.156-0.352,0.352-0.352h56.995
					c0.194,0,0.352,0.158,0.352,0.352C621.182,143.539,621.024,143.696,620.83,143.696z"/>
				<path fill="#6EA2E0" d="M620.83,200.264c-0.195,0-0.352-0.158-0.352-0.353v-56.566c0-0.194,0.155-0.352,0.352-0.352
					c0.194,0,0.352,0.158,0.352,0.352v56.566C621.182,200.105,621.024,200.264,620.83,200.264z"/>
				<path fill="#6EA2E0" d="M553.243,224.005c-0.194,0-0.353-0.157-0.353-0.353v-77.441c0-0.194,0.157-0.352,0.353-0.352
					c0.194,0,0.352,0.157,0.352,0.352v77.441C553.595,223.848,553.438,224.005,553.243,224.005z"/>
				<path fill="#B9CEEB" d="M604.389,224.009h-121.76c-0.193,0-0.351-0.157-0.351-0.352c0-0.193,0.156-0.353,0.351-0.353h121.76
					c0.193,0,0.352,0.158,0.352,0.353C604.739,223.852,604.582,224.009,604.389,224.009z"/>
				<path fill="#B9CEEB" d="M434.021,224.009h-85.895c-0.193,0-0.352-0.157-0.352-0.352c0-0.193,0.157-0.353,0.352-0.353h85.895
					c0.193,0,0.351,0.158,0.351,0.353C434.371,223.852,434.215,224.009,434.021,224.009z"/>
			</g>
		</g>
	</g>
	<g>
		<g>
			<g>
				<g>
					<path fill="#FFFFFF" d="M157.898,268.521l-1.585,16.832c-0.054,0.475,0.264,0.908,0.683,0.936l8.357,0.518
						c0.362,0.021,0.672-0.27,0.723-0.677l1.553-15.297L157.898,268.521z"/>
					<path fill="#6EA2E0" d="M165.394,287.32c-0.024,0-0.047-0.002-0.071-0.004l-8.359-0.518c-0.326-0.02-0.627-0.176-0.847-0.438
						c-0.244-0.291-0.359-0.68-0.315-1.066l1.585-16.822c0.015-0.146,0.09-0.281,0.212-0.369c0.12-0.086,0.272-0.117,0.417-0.082
						l9.729,2.312c0.25,0.062,0.418,0.296,0.393,0.552l-1.554,15.299C166.503,286.848,165.998,287.32,165.394,287.32z
						 M158.354,269.157l-1.531,16.245c-0.013,0.115,0.017,0.226,0.082,0.3c0.021,0.026,0.065,0.069,0.123,0.073l8.358,0.519
						c0.089,0.004,0.164-0.095,0.181-0.228l1.506-14.84L158.354,269.157z"/>
				</g>
				<g>
					<path fill="#FFFFFF" d="M154.995,280.996c-0.555,1.988-1.726,7.592-2.215,10.962c-0.308,2.116,1.029,4.116,3.074,4.671
						c5.783,1.563,19.608,1.496,31.119,2.004c0.789,0.035,2.24-0.35,2.886-2.26c2.191-6.479-9.906-8.482-21.864-15.068
						c-0.234-0.129-0.52-0.117-0.738,0.039c-0.138,0.098-0.313,0.217-0.52,0.348c-2.079,1.324-5.537,1.326-7.649,0.058l-2.386-1.437
						C156.046,279.919,155.201,280.257,154.995,280.996z"/>
					<path fill="#6EA2E0" d="M187.072,299.148c-0.042,0-0.083-0.002-0.122-0.002c-2.946-0.131-6.086-0.225-9.122-0.314
						c-9.127-0.271-17.748-0.529-22.108-1.709c-2.31-0.624-3.792-2.876-3.449-5.238c0.487-3.357,1.652-8.962,2.228-11.027
						c0.142-0.508,0.503-0.91,0.993-1.105c0.486-0.191,1.022-0.148,1.473,0.122l2.385,1.435c1.96,1.18,5.215,1.156,7.11-0.048
						c0.198-0.126,0.365-0.241,0.496-0.334c0.38-0.271,0.872-0.299,1.285-0.069c3.606,1.984,7.253,3.563,10.473,4.957
						c7.725,3.348,13.308,5.765,11.631,10.726C189.691,298.473,188.202,299.148,187.072,299.148z M156.107,280.66
						c-0.079,0-0.159,0.016-0.236,0.046c-0.187,0.073-0.327,0.229-0.382,0.428c-0.563,2.017-1.732,7.665-2.201,10.899
						c-0.268,1.847,0.893,3.609,2.701,4.099c4.244,1.147,12.805,1.404,21.871,1.675c3.041,0.09,6.183,0.185,9.135,0.314
						c0.291,0.011,1.739-0.021,2.378-1.911c1.375-4.065-3.844-6.326-11.066-9.454c-3.24-1.402-6.911-2.992-10.56-5.003
						c-0.064-0.034-0.137-0.032-0.194,0.008c-0.143,0.103-0.326,0.228-0.541,0.364c-2.222,1.414-5.896,1.441-8.19,0.063
						l-2.386-1.435C156.334,280.691,156.221,280.66,156.107,280.66z M154.995,280.996h0.004H154.995z"/>
				</g>
				<g>
					<path fill="#FFFFFF" d="M152.432,293.484c-0.012,0.06-0.02,0.1-0.022,0.119c-0.308,2.112,1.701,3.414,3.622,4.313
						c5.698,2.675,28.708,1.142,29.597,1.082c0.019,0,0.03-0.002,0.049-0.002c0.287,0.006,3.208,0.006,4.05-1.812
						c0.104-0.227,0.169-0.543,0.208-0.841c0.064-0.485,0.031-0.979-0.076-1.456c-0.087-0.391-0.471-0.635-0.855-0.535
						c-4.271,1.092-14.244,1.453-24.209,0.356c-6.625-0.729-9.503-2.175-11.039-3.093c-0.419-0.25-0.955-0.008-1.05,0.474
						C152.625,292.496,152.528,292.986,152.432,293.484z"/>
					<path fill="#6EA2E0" d="M171.205,300c-6.223,0-12.684-0.346-15.391-1.617c-1.855-0.869-4.28-2.32-3.912-4.854
						c0.002-0.02,0.012-0.07,0.026-0.145l0.275-1.393c0.078-0.393,0.339-0.721,0.702-0.883c0.36-0.16,0.776-0.133,1.114,0.066
						c1.61,0.965,4.484,2.325,10.832,3.023c10.295,1.135,20.064,0.67,24.026-0.344c0.318-0.082,0.648-0.032,0.927,0.141
						c0.285,0.174,0.482,0.45,0.556,0.779c0.125,0.562,0.153,1.111,0.084,1.637c-0.056,0.421-0.139,0.745-0.252,0.988
						c-0.976,2.104-4.167,2.113-4.522,2.108C185.143,299.548,178.329,300,171.205,300z M153.398,292.033
						c-0.033,0-0.059,0.008-0.076,0.016c-0.034,0.016-0.096,0.055-0.113,0.145l-0.275,1.392l0,0l-0.017,0.092
						c-0.208,1.435,0.82,2.601,3.333,3.779c5.57,2.614,28.375,1.101,29.343,1.034c0.015-0.002,0.076-0.004,0.092-0.004
						c0.122,0.008,2.861,0.027,3.576-1.514c0.039-0.084,0.111-0.283,0.167-0.691c0.053-0.406,0.03-0.836-0.068-1.279
						c-0.017-0.072-0.064-0.111-0.09-0.128c-0.029-0.019-0.077-0.037-0.137-0.021c-4.05,1.035-13.976,1.518-24.393,0.371
						c-6.546-0.723-9.554-2.151-11.246-3.164C153.458,292.039,153.425,292.033,153.398,292.033z M152.432,293.484h0.005H152.432z"/>
				</g>
				<path fill="#6EA2E0" d="M168.815,287.052c-0.154,0-0.308-0.069-0.408-0.202c-0.172-0.226-0.128-0.548,0.097-0.72l3.491-2.657
					c0.225-0.173,0.547-0.129,0.719,0.098c0.173,0.226,0.128,0.547-0.097,0.719l-3.491,2.658
					C169.032,287.018,168.924,287.052,168.815,287.052z"/>
				<path fill="#6EA2E0" d="M173.453,288.953c-0.156,0-0.31-0.07-0.411-0.205c-0.17-0.227-0.125-0.549,0.104-0.719l3.053-2.293
					c0.227-0.17,0.549-0.122,0.719,0.104c0.17,0.227,0.125,0.549-0.103,0.719l-3.054,2.291
					C173.667,288.919,173.56,288.953,173.453,288.953z"/>
			</g>
			<g>
				<g>
					<path fill="#7B92CA" d="M180.044,121.688l-18.397-1.354c0.94-6.129,0.529-5.078,0.529-5.078l-29.121-2.419
						c0,0-6.633,13.274-8.864,27.256c-2.078,13.021-9.715,66.622-28.329,109.617c-2.11,4.875,0.326,9.947,5.517,11.077
						c2.075,0.451,2.946-0.288,4.744-1.163c0.925-0.449,2.463-1.78,2.463-1.78s26.055-21.779,41.275-77.417
						c4.519,28.035,6.861,74.99,4.799,90.981c-0.165,1.277,0.721,2.445,1.998,2.627c3.2,0.447,8.97,1.059,12.918,0.32
						c0.725-0.135,1.309-0.668,1.49-1.385C173.67,262.659,195.28,169.452,180.044,121.688z"/>
					<path fill="#6EA2E0" d="M165.131,275.212c-3.161,0-6.455-0.376-8.546-0.669c-1.542-0.218-2.634-1.654-2.435-3.2
						c2.028-15.717-0.286-61.058-4.431-88.495c-15.173,53.486-40.547,75.174-40.805,75.389c-0.058,0.052-1.592,1.375-2.568,1.852
						c-0.283,0.137-0.542,0.271-0.787,0.396c-1.321,0.685-2.365,1.224-4.291,0.805c-2.603-0.566-4.658-2.092-5.789-4.293
						c-1.148-2.239-1.18-4.969-0.089-7.489c17.512-40.452,25.313-90.42,27.877-106.838c0.157-1.014,0.296-1.903,0.417-2.654
						c2.218-13.901,8.844-27.272,8.911-27.405c0.094-0.188,0.293-0.3,0.501-0.282l28.904,2.4c0.121-0.058,0.251-0.064,0.363-0.035
						c0.513,0.137,0.634,0.17-0.126,5.172l17.844,1.313c0.209,0.015,0.388,0.156,0.452,0.355
						c16.181,50.721-8.717,150.563-8.97,151.564c-0.228,0.897-0.97,1.592-1.893,1.764
						C168.309,275.115,166.736,275.212,165.131,275.212z M149.86,179.914c0.009,0,0.019,0.001,0.028,0.001
						c0.241,0.013,0.441,0.192,0.479,0.431c4.47,27.728,6.937,74.567,4.8,91.127c-0.127,0.993,0.572,1.916,1.562,2.053
						c3.09,0.436,8.856,1.057,12.752,0.326c0.538-0.101,0.956-0.485,1.086-1.006c0.251-0.996,24.97-100.123,9.092-150.671
						l-18.051-1.329c-0.143-0.011-0.273-0.08-0.362-0.191c-0.09-0.112-0.128-0.256-0.107-0.398c0.423-2.752,0.56-3.978,0.6-4.521
						l-28.376-2.358c-1,2.079-6.659,14.226-8.665,26.796c-0.121,0.751-0.258,1.638-0.417,2.65
						c-2.569,16.453-10.384,66.518-27.949,107.089c-0.969,2.239-0.947,4.649,0.062,6.612c0.986,1.925,2.795,3.259,5.093,3.76
						c1.565,0.341,2.331-0.057,3.601-0.712c0.251-0.132,0.519-0.269,0.811-0.41c0.854-0.415,2.336-1.694,2.35-1.707
						c0.266-0.224,26.123-22.353,41.117-77.164C149.427,180.068,149.629,179.914,149.86,179.914z"/>
				</g>
				<path fill="#B9CEEB" d="M149.702,180.375c-0.27,0-0.497-0.211-0.512-0.482c-0.005-0.09-0.584-9.037-4.843-19
					c-1.32-3.088-2.273-6.764-2.831-10.925c-0.038-0.28,0.16-0.538,0.44-0.576c0.28-0.037,0.54,0.159,0.578,0.44
					c0.546,4.068,1.473,7.654,2.757,10.656c4.333,10.136,4.917,19.251,4.923,19.342c0.017,0.281-0.199,0.525-0.482,0.543
					C149.723,180.375,149.712,180.375,149.702,180.375z"/>
				<path fill="#B9CEEB" d="M159.834,158.141c-1.408,0-2.805-0.437-3.978-1.285l-4.48-3.24c-1.511-1.094-2.435-2.788-2.535-4.65
					l-0.767-14.264c-0.036-0.646,0.218-1.265,0.695-1.701c0.478-0.436,1.119-0.632,1.759-0.541c3.869,0.562,11.589,1.372,19.812,0.5
					c0.592-0.06,1.191,0.126,1.642,0.517c0.448,0.391,0.715,0.955,0.734,1.548l0.435,13.621c0.08,2.503-1.346,4.783-3.632,5.807
					l-6.921,3.1C161.716,157.943,160.773,158.141,159.834,158.141z M150.219,133.463c-0.279,0-0.547,0.104-0.757,0.294
					c-0.249,0.227-0.381,0.551-0.363,0.888l0.766,14.264c0.084,1.552,0.854,2.963,2.112,3.875l4.482,3.239
					c1.659,1.201,3.851,1.427,5.719,0.591l6.921-3.101c1.905-0.853,3.093-2.75,3.026-4.836l-0.433-13.621
					c-0.011-0.314-0.147-0.6-0.384-0.807c-0.24-0.208-0.546-0.305-0.859-0.27c-8.335,0.884-16.15,0.063-20.067-0.505
					C150.327,133.467,150.274,133.463,150.219,133.463z"/>
				<path fill="#B9CEEB" d="M126.899,154.92c-0.445,0-0.888-0.136-1.265-0.404l-2.847-2.017c-0.232-0.164-0.287-0.483-0.122-0.715
					c0.164-0.229,0.483-0.286,0.715-0.122l2.846,2.018c0.354,0.25,0.814,0.282,1.201,0.088l7.622-3.875
					c0.353-0.178,0.588-0.52,0.63-0.913l1.721-15.868c0.066-0.619-0.364-1.18-0.981-1.275l-9.282-1.439
					c-0.28-0.043-0.471-0.305-0.428-0.585s0.305-0.469,0.585-0.428l9.282,1.438c1.16,0.179,1.969,1.235,1.844,2.401l-1.719,15.868
					c-0.08,0.738-0.524,1.38-1.187,1.718l-7.622,3.873C127.579,154.842,127.238,154.92,126.899,154.92z"/>
			</g>
			<g>
				<path fill="#FFFFFF" d="M101.339,268.948c1.016-5.08,1.458-6.124,3.896-10.041c1.812-2.91-2.591-7.3-4.834-7.636
					c-3.741-0.771-3.142,0.414-7.421,5.896l-3.351,4.121C89.628,261.29,100.451,273.389,101.339,268.948z"/>
				<path fill="#6EA2E0" d="M100.327,270.436c-3.045,0-9.719-7.281-11.081-8.803c-0.169-0.188-0.174-0.473-0.015-0.668l3.182-3.879
					c1.172-1.502,1.912-2.699,2.569-3.795c0.146-0.242,0.461-0.322,0.705-0.177c0.242,0.146,0.322,0.461,0.175,0.704
					c-0.673,1.123-1.432,2.351-2.647,3.908l-2.909,3.547c3.39,3.732,8.603,8.547,10.165,8.119c0.074-0.021,0.272-0.074,0.366-0.545
					c0.912-4.561,1.229-5.883,3.125-9.05c0.146-0.243,0.461-0.321,0.703-0.177c0.244,0.145,0.323,0.461,0.177,0.703
					c-1.813,3.029-2.096,4.21-3,8.724c-0.181,0.903-0.699,1.226-1.103,1.334C100.611,270.418,100.474,270.436,100.327,270.436z"/>
				<g>
					<path fill="#FFFFFF" d="M101.931,267.043l-4.331-6.536c-2.022-3.048-6.32-3.503-8.932-0.942l-4.958,4.16
						c0,0-0.948,2.858-0.647,4.705c0.393,2.403,1.166,5.829,2.661,9.225c2.302,5.224,8.67,15.719,10.938,19.406
						c0.475,0.771,1.664,1.537,2.492,1.166c0.983-0.439,2-1.23,2.985-2.156c1.522-1.426,1.012-8.106,0.466-12.754
						c-0.35-2.981-0.089-10.59,0.04-13.725C102.68,268.688,102.431,267.797,101.931,267.043z"/>
					<path fill="#6EA2E0" d="M98.677,298.837c-0.989,0-2.011-0.79-2.454-1.509c-2.539-4.13-8.69-14.292-10.971-19.469
						c-1.537-3.488-2.315-7.01-2.697-9.348c-0.318-1.947,0.626-4.828,0.667-4.951c0.029-0.09,0.084-0.17,0.157-0.23l4.958-4.16
						c1.325-1.3,3.187-1.947,5.071-1.748c1.887,0.199,3.569,1.221,4.618,2.803l4.331,6.534l0,0c0.564,0.851,0.839,1.837,0.799,2.854
						c-0.128,3.121-0.388,10.699-0.043,13.643c1.334,11.354-0.14,12.736-0.625,13.19c-1.167,1.095-2.189,1.829-3.126,2.249
						C99.141,298.794,98.91,298.837,98.677,298.837z M84.153,264.02c-0.176,0.576-0.826,2.848-0.584,4.328
						c0.372,2.279,1.13,5.709,2.624,9.098c2.255,5.121,8.377,15.234,10.906,19.347c0.381,0.619,1.326,1.198,1.845,0.966
						c0.832-0.369,1.762-1.046,2.844-2.061c0.476-0.445,1.456-2.537,0.308-12.321c-0.354-3.015-0.093-10.657,0.036-13.806
						c0.033-0.801-0.184-1.574-0.627-2.243l-4.331-6.535c-0.878-1.325-2.29-2.183-3.871-2.349c-1.58-0.168-3.14,0.375-4.275,1.486
						L84.153,264.02z"/>
				</g>
				<path fill="#6EA2E0" d="M102.448,275.006c-0.044,0-0.09-0.005-0.136-0.018l-4.662-1.281c-0.274-0.074-0.434-0.357-0.359-0.631
					c0.075-0.271,0.355-0.436,0.631-0.358l4.663,1.281c0.272,0.075,0.434,0.356,0.359,0.63
					C102.88,274.857,102.673,275.006,102.448,275.006z"/>
				<path fill="#6EA2E0" d="M102.102,279.169c-0.044,0-0.09-0.007-0.136-0.019l-4.663-1.282c-0.272-0.074-0.434-0.357-0.359-0.632
					c0.075-0.273,0.355-0.435,0.631-0.357l4.663,1.281c0.272,0.074,0.434,0.357,0.359,0.63
					C102.534,279.02,102.328,279.169,102.102,279.169z"/>
				<g>
					<path fill="#FFFFFF" d="M97.346,298.568c0.475,0,0.927-0.075,1.338-0.217c1.392-0.479,4.874-1.518,4.484-6.511
						c-0.402-5.175-4.338-7.812-7.21-11.204c-2.193-2.593-1.973-13.427-2.663-15.551c-0.957-2.947-4.203-4.521-7.055-3.421
						c-0.826,0.317-1.904,1.38-2.531,2.058c-1.765,1.902-1.973,6.033-1.802,9.074c0.322,5.689,3.667,17.018,7.895,22.487
						C91.866,297.953,95.047,298.568,97.346,298.568z"/>
					<path fill="#6EA2E0" d="M97.346,299.082c-1.963,0-5.607-0.453-7.949-3.482c-4.421-5.722-7.692-17.31-8.001-22.772
						c-0.146-2.593-0.09-7.267,1.937-9.452c0.75-0.809,1.831-1.842,2.724-2.188c1.498-0.578,3.134-0.512,4.606,0.188
						c1.48,0.705,2.618,2,3.122,3.551c0.254,0.782,0.381,2.486,0.542,4.646c0.29,3.86,0.685,9.149,2.024,10.731
						c0.652,0.771,1.379,1.521,2.081,2.246c2.422,2.501,4.927,5.088,5.25,9.252c0.408,5.246-3.177,6.469-4.706,6.991l-0.124,0.042
						C98.377,298.998,97.871,299.082,97.346,299.082z M88.132,261.824c-0.578,0-1.154,0.105-1.708,0.318
						c-0.546,0.211-1.399,0.914-2.34,1.93c-1.291,1.393-1.898,4.563-1.664,8.695c0.301,5.334,3.485,16.635,7.788,22.205
						c2.074,2.683,5.361,3.082,7.137,3.082c0.411,0,0.805-0.063,1.17-0.188l0.125-0.044c1.416-0.482,4.361-1.488,4.016-5.94
						c-0.296-3.795-2.563-6.138-4.965-8.616c-0.715-0.738-1.452-1.5-2.127-2.298c-1.554-1.837-1.947-7.094-2.263-11.319
						c-0.15-2.006-0.28-3.738-0.495-4.402c-0.417-1.287-1.36-2.359-2.587-2.941C89.551,261.984,88.84,261.824,88.132,261.824z"/>
				</g>
				<path fill="#6EA2E0" d="M97.346,299.082c-0.563,0-1.125-0.036-1.668-0.107c-0.281-0.035-0.479-0.293-0.444-0.572
					c0.037-0.281,0.293-0.48,0.575-0.444c0.5,0.065,1.018,0.099,1.538,0.099c0.969,0,1.835-0.356,2.377-0.979
					c0.463-0.532,0.653-1.209,0.549-1.958c-0.693-5.016-3.362-7.575-6.454-10.541c-2.678-2.566-3.306-10.643-3.644-14.98
					c-0.085-1.098-0.159-2.045-0.229-2.3c-0.29-1.063-1.84-2.34-3.683-2.543c-1.071-0.118-2.543,0.11-3.467,1.86
					c-0.132,0.25-0.442,0.346-0.694,0.214c-0.25-0.134-0.346-0.442-0.213-0.694c0.917-1.736,2.554-2.609,4.487-2.398
					c2.082,0.229,4.128,1.705,4.561,3.291c0.092,0.334,0.15,1.045,0.263,2.492c0.304,3.9,0.936,12.021,3.33,14.318
					c3.095,2.969,6.019,5.771,6.761,11.141c0.144,1.037-0.137,2.021-0.792,2.772C99.76,298.598,98.61,299.082,97.346,299.082z"/>
			</g>
		</g>
		<g>
			<g>
				<polygon fill="#FFFFFF" points="148.883,42.034 151.634,26.935 163.935,30.1 162.238,40.611 				"/>
				<path fill="#6EA2E0" d="M148.883,42.547c-0.142,0-0.279-0.059-0.376-0.164c-0.11-0.119-0.158-0.282-0.129-0.441l2.752-15.098
					c0.025-0.141,0.107-0.264,0.228-0.341c0.119-0.076,0.267-0.101,0.404-0.064l12.301,3.165c0.257,0.066,0.42,0.317,0.378,0.579
					l-1.698,10.512c-0.037,0.228-0.221,0.404-0.452,0.428l-13.354,1.422C148.92,42.546,148.901,42.547,148.883,42.547z
					 M152.04,27.57l-2.528,13.881l12.281-1.308l1.561-9.663L152.04,27.57z"/>
			</g>
			<g>
				<path fill="#6EA2E0" d="M161.771,6.604c-4.397,0.596-4.995,5.56-10.25,6.143c-2.408,0.268-3.616-0.626-5.75,0.398
					c-1.413,0.678-3.467,2.313-3.678,4.475c-0.267,2.754,2.752,3.349,5.835,8.649c2.167,3.723,2.298,6.215,4.021,6.484
					c1.741,0.272,2.521-2.133,4.445-1.978c2.491,0.199,2.817,4.358,5.447,5.599c1.656,0.781,5.128,0.619,10.027-3.051
					c0.794-0.595,1.051-1.673,0.61-2.561c-0.567-1.138-1.29-2.572-2.096-3.884c-3.84-6.252-6.552-7.308-6.018-9.225
					c0.82-2.938,6.211-2.394,6.626-4.756C171.422,10.441,166.286,5.991,161.771,6.604z"/>
				<g>
					<path fill="#FFFFFF" d="M154.632,19.373l1.169-0.609c0,0,3.793,7.917,5.276,9.944c1.483,2.028,8.113-2.091,8.113-2.091
						l0.162-1.463l0.792-0.516c0.246-0.16,0.406-0.423,0.436-0.715c0.03-0.292-0.075-0.582-0.283-0.788
						c-1.6-1.585-4.994-5.183-6.642-8.685C163.656,14.451,158.076,14.121,154.632,19.373z"/>
					<path fill="#6EA2E0" d="M162.483,29.778c-0.769,0-1.417-0.216-1.819-0.766c-1.299-1.775-4.242-7.787-5.096-9.548l-0.699,0.365
						c-0.207,0.107-0.461,0.063-0.618-0.111c-0.156-0.173-0.177-0.43-0.048-0.625c3.566-5.439,9.242-5.17,9.483-5.153
						c0.187,0.01,0.354,0.124,0.433,0.293c1.641,3.483,5.121,7.132,6.541,8.539c0.32,0.318,0.478,0.757,0.432,1.205
						c-0.045,0.448-0.288,0.846-0.666,1.092l-0.589,0.384l-0.136,1.221c-0.017,0.157-0.104,0.296-0.238,0.379
						C168.569,27.607,164.92,29.778,162.483,29.778z M156.075,18.33c0.082,0.051,0.147,0.125,0.188,0.213
						c0.038,0.079,3.79,7.896,5.229,9.863c0.808,1.104,4.629-0.526,7.215-2.095l0.135-1.212c0.017-0.152,0.102-0.29,0.23-0.374
						l0.792-0.516c0.117-0.076,0.192-0.199,0.206-0.336c0.014-0.138-0.034-0.274-0.134-0.372c-1.761-1.746-4.917-5.136-6.605-8.541
						C162.3,14.973,158.824,15.261,156.075,18.33z"/>
				</g>
				<path fill="#FFFFFF" d="M157.128,25.163c0,0-3.051-3.732-4.456-1.986C151.269,24.925,154.729,28.948,157.128,25.163z"/>
			</g>
		</g>
		<g>
			<g>
				<circle fill="#6EA2E0" cx="54.782" cy="294.04" r="5.838"/>
				<circle fill="#6EA2E0" cx="26.834" cy="294.04" r="5.838"/>
			</g>
			<g>
				<path fill="#FFFFFF" d="M51.206,212.818l22.701-53.424c0.965-2.272,3.196-3.75,5.667-3.75h11.957
					c4.413,0,7.393,4.506,5.667,8.565l-20.654,48.608h6.083l20.547-48.394c3.149-7.417-2.294-15.07-10.352-15.07H80.357
					c-4.987,0-9.493,2.411-11.442,7l-23.974,56.463H51.206L51.206,212.818z"/>
				<path fill="#277ACC" d="M82.626,213.333h-6.083c-0.171,0-0.333-0.086-0.428-0.229c-0.094-0.145-0.111-0.324-0.044-0.484
					l20.654-48.607c0.744-1.748,0.561-3.738-0.487-5.322c-1.049-1.584-2.807-2.529-4.707-2.529H79.574
					c-2.269,0-4.308,1.351-5.194,3.438l-22.701,53.426c-0.08,0.188-0.266,0.313-0.473,0.313h-6.265c-0.171,0-0.333-0.086-0.428-0.23
					c-0.094-0.144-0.111-0.323-0.043-0.482l23.972-56.462c1.944-4.58,6.399-7.314,11.915-7.314h12.465
					c4.077,0,7.794,1.94,9.943,5.186c2.083,3.148,2.404,7.011,0.881,10.598l-20.547,48.395
					C83.018,213.21,82.832,213.333,82.626,213.333z M77.318,212.307h4.969l20.414-48.08c1.387-3.266,1.099-6.774-0.792-9.631
					c-1.958-2.959-5.355-4.726-9.087-4.726H80.357c-5.091,0-9.191,2.501-10.971,6.688l-23.669,55.748h5.15l22.567-53.11
					c1.049-2.47,3.458-4.063,6.139-4.063H91.53c2.244,0,4.325,1.118,5.563,2.991c1.238,1.872,1.453,4.222,0.576,6.288
					L77.318,212.307z"/>
			</g>
			<g>
				<path fill="#6EA2E0" d="M62.998,292.13H40.866c-6.143,0-10.299-6.264-7.911-11.926l31.395-74.392
					c1.342-3.181,4.458-5.248,7.91-5.248h22.133c6.143,0,10.299,6.266,7.91,11.927l-31.394,74.391
					C69.567,290.063,66.451,292.13,62.998,292.13z"/>
				<path fill="#6EA2E0" d="M62.998,292.643H40.866c-3.057,0-5.892-1.521-7.582-4.068c-1.69-2.549-1.99-5.752-0.801-8.568
					l31.394-74.391c1.427-3.379,4.717-5.563,8.384-5.563h22.133c3.057,0,5.892,1.521,7.582,4.069s1.989,5.752,0.801,8.567
					l-31.395,74.392C69.956,290.46,66.666,292.643,62.998,292.643z M72.26,201.079c-3.252,0-6.172,1.937-7.437,4.935l-31.395,74.391
					c-1.054,2.5-0.79,5.342,0.711,7.602c1.499,2.262,4.014,3.611,6.727,3.611h22.132c3.253,0,6.173-1.938,7.438-4.936l31.394-74.391
					c1.055-2.5,0.79-5.341-0.71-7.604c-1.5-2.26-4.016-3.608-6.727-3.608H72.26L72.26,201.079z"/>
			</g>
			<g>
				<path fill="#B9CEEB" d="M42.94,292.13H9.966c-5.126,0-8.595-5.228-6.601-9.95l32.595-77.234c1.119-2.654,3.72-4.379,6.6-4.379
					h32.974c5.127,0,8.594,5.228,6.602,9.949L49.54,287.751C48.421,290.404,45.821,292.13,42.94,292.13z"/>
				<path fill="#6EA2E0" d="M42.94,292.643H9.966c-2.581,0-4.972-1.283-6.397-3.434c-1.427-2.148-1.68-4.852-0.676-7.229
					l32.595-77.234c1.202-2.852,3.979-4.691,7.073-4.691h32.976c2.579,0,4.97,1.282,6.397,3.432c1.426,2.15,1.678,4.854,0.675,7.229
					L50.013,287.95C48.812,290.801,46.034,292.643,42.94,292.643z M42.561,201.079c-2.68,0-5.085,1.596-6.127,4.065L3.838,282.379
					c-0.869,2.061-0.65,4.4,0.585,6.264c1.235,1.862,3.307,2.975,5.542,2.975H42.94c2.681,0,5.085-1.596,6.127-4.065l32.596-77.233
					c0.868-2.061,0.649-4.4-0.586-6.264c-1.235-1.863-3.308-2.975-5.541-2.975L42.561,201.079L42.561,201.079z"/>
			</g>
			<g>
				<path fill="#FFFFFF" d="M40.429,281.775c-1.143,0-2.204-0.568-2.836-1.521c-0.632-0.953-0.744-2.149-0.3-3.205l27.031-64.051
					c0.534-1.265,1.765-2.08,3.136-2.08c1.143,0,2.204,0.567,2.836,1.521c0.633,0.953,0.744,2.15,0.3,3.205l-27.031,64.053
					C43.031,280.961,41.8,281.775,40.429,281.775z M67.46,211.945c-0.958,0-1.817,0.568-2.19,1.451l-27.03,64.053
					c-0.315,0.746-0.24,1.563,0.208,2.238c0.449,0.674,1.17,1.063,1.981,1.063c0.958,0,1.817-0.57,2.189-1.452l27.031-64.052
					c0.315-0.746,0.239-1.563-0.209-2.239C68.992,212.333,68.271,211.945,67.46,211.945z"/>
				<path fill="#FFFFFF" d="M28.645,281.775c-1.145,0-2.204-0.568-2.836-1.521c-0.632-0.953-0.744-2.149-0.3-3.205l27.031-64.051
					c0.534-1.265,1.765-2.08,3.136-2.08c1.143,0,2.204,0.567,2.836,1.521c0.632,0.953,0.744,2.15,0.3,3.205l-27.031,64.053
					C31.247,280.961,30.016,281.775,28.645,281.775z M55.676,211.945c-0.958,0-1.817,0.568-2.19,1.451l-27.031,64.053
					c-0.314,0.746-0.238,1.563,0.209,2.238c0.448,0.674,1.17,1.063,1.981,1.063c0.957,0,1.817-0.57,2.189-1.452l27.031-64.052
					c0.315-0.746,0.24-1.563-0.208-2.238C57.208,212.333,56.487,211.945,55.676,211.945z"/>
				<path fill="#FFFFFF" d="M16.861,281.775c-1.145,0-2.204-0.568-2.836-1.521c-0.632-0.953-0.744-2.149-0.3-3.205l27.031-64.051
					c0.534-1.265,1.764-2.08,3.136-2.08c1.143,0,2.204,0.567,2.836,1.521s0.744,2.15,0.3,3.205l-27.031,64.053
					C19.463,280.961,18.233,281.775,16.861,281.775z M43.892,211.945c-0.958,0-1.817,0.568-2.19,1.451L14.67,277.449
					c-0.314,0.746-0.238,1.563,0.209,2.238c0.448,0.674,1.171,1.063,1.981,1.063c0.957,0,1.817-0.57,2.19-1.452l27.03-64.052
					c0.315-0.746,0.239-1.563-0.208-2.238C45.424,212.333,44.703,211.945,43.892,211.945z"/>
			</g>
		</g>
		<g>
			<g>
				<path fill="#FFFFFF" d="M96.439,135.044l-6.332-1.152c0,0-0.822,7.106-2.337,8.665c-2.468,2.541-4.639,3.638-5.536,5.081
					c-5.207,8.375,10.749,16.534,9.058,10.191c-1.381-5.181,0.659-6.948,0.659-6.948c2.32-2.011,5.688-0.567,5.711-0.61
					c1.268-2.303-0.175-5.79-1.147-7.661c-0.479-0.924-0.665-1.969-0.556-3.004L96.439,135.044z"/>
				<path fill="#277ACC" d="M89.861,160.602c-1.81,0.002-4.448-1.354-6.463-3.461c-2.957-3.092-3.539-6.654-1.599-9.773
					c0.522-0.841,1.384-1.531,2.475-2.404c0.934-0.748,1.993-1.595,3.127-2.764c1.144-1.176,1.974-6.437,2.197-8.365
					c0.017-0.14,0.09-0.269,0.204-0.353c0.114-0.085,0.259-0.119,0.398-0.093l6.331,1.151c0.264,0.048,0.446,0.292,0.419,0.559
					l-0.48,4.562c-0.101,0.949,0.073,1.888,0.501,2.713c1.02,1.965,2.521,5.635,1.14,8.145c-0.204,0.375-0.601,0.25-0.751,0.201
					c-2.686-0.852-4.241-0.172-5.074,0.549c-0.012,0.014-1.764,1.686-0.499,6.431c0.449,1.681-0.265,2.37-0.731,2.632
					C90.728,160.514,90.322,160.602,89.861,160.602z M90.55,134.495c-0.234,1.791-1.024,6.99-2.412,8.419
					c-1.18,1.215-2.312,2.123-3.222,2.85c-1.015,0.812-1.815,1.454-2.246,2.145c-2.375,3.821,0.236,7.233,1.469,8.521
					c2.277,2.383,5.371,3.592,6.416,3.006c0.365-0.207,0.447-0.703,0.241-1.474c-1.447-5.428,0.725-7.388,0.818-7.469
					c0.999-0.865,2.802-1.696,5.77-0.839c0.824-2.095-0.453-5.127-1.325-6.809c-0.521-1.004-0.732-2.143-0.611-3.293l0.431-4.089
					L90.55,134.495z"/>
			</g>
			<g>
				<path fill="#FFFFFF" d="M130.801,92.418l-9.206,43.744c0,0,37.49,6.43,50.556,4.084c13.064-2.347,14.592-5.792,14.592-5.792
					l-5.524-48.111L130.801,92.418z"/>
				<path fill="#6EA2E0" d="M164.517,141.279c-15.908,0-41.718-4.389-43.007-4.611c-0.138-0.023-0.259-0.102-0.338-0.217
					c-0.079-0.114-0.106-0.257-0.077-0.394l9.206-43.744c0.044-0.214,0.223-0.377,0.44-0.403l50.419-6.076
					c0.135-0.017,0.271,0.022,0.378,0.107c0.107,0.084,0.177,0.208,0.193,0.344l5.522,48.111c0.011,0.09-0.004,0.182-0.041,0.266
					c-0.067,0.15-1.789,3.721-14.971,6.09C170.175,141.122,167.521,141.279,164.517,141.279z M122.208,135.745
					c4.592,0.763,37.86,6.148,49.853,3.996c11.25-2.021,13.762-4.85,14.152-5.401l-5.444-47.425l-49.541,5.97L122.208,135.745z"/>
			</g>
			<g>
				<path fill="#B9CEEB" d="M204.113,66.233c-0.64-2.561-3.538-6.865-6.154-6.51c-3.814,0.518-8.419,3.56-8.562,2.217
					c-1.269-11.896-9.687-19.455-21.342-20.918c-2.726-0.937-5.466-1.419-8.022-1.307c-4.077,0.181-8.386,0.755-12.415,2.021
					l-18.91,5.944l-0.186,1.426c-9.685,5.555-39.42,27.585-42.428,89.923l12.314-0.44c0,0,8.737-27.026,24.329-45.203l-2.21,16.922
					c-0.391,2.989,1.332,5.858,4.158,6.899c9.061,3.339,30.463,9.233,60.016,4.667c3.086-0.477,5.384-3.103,5.461-6.224
					c0.101-4.055,0.76-9.655,1.361-15.779c2.247,0.767,4.647,1.212,7.213,1.255C207.485,101.275,208.239,82.729,204.113,66.233z"/>
				<path fill="#277ACC" d="M86.094,139.543c-0.137,0-0.268-0.057-0.365-0.153c-0.101-0.102-0.153-0.242-0.146-0.385
					c1.292-26.794,7.614-49.17,18.79-66.51c8.885-13.784,18.557-20.734,23.673-23.707l0.153-1.175
					c0.026-0.198,0.165-0.363,0.356-0.423l18.909-5.943c3.661-1.151,7.881-1.838,12.546-2.045c2.538-0.111,5.279,0.331,8.163,1.317
					c12.313,1.564,20.423,9.502,21.723,21.251c0.436-0.002,1.639-0.486,2.621-0.88c1.584-0.637,3.558-1.429,5.374-1.675
					c3.001-0.407,6.056,4.231,6.721,6.894c2.924,11.687,3.878,27.024-0.931,33.077c-1.321,1.663-2.984,2.486-4.952,2.456
					c-2.307-0.039-4.576-0.403-6.755-1.083c-0.113,1.125-0.225,2.23-0.335,3.31c-0.474,4.642-0.884,8.649-0.962,11.795
					c-0.084,3.378-2.564,6.204-5.896,6.718c-29.139,4.501-50.269-1.007-60.271-4.692c-3.069-1.13-4.915-4.192-4.49-7.446
					l1.982-15.18c-14.647,17.856-23.02,43.421-23.104,43.683c-0.065,0.206-0.254,0.348-0.47,0.356l-12.314,0.44
					C86.107,139.543,86.101,139.543,86.094,139.543z M129.174,48.071l-0.144,1.1c-0.02,0.159-0.114,0.299-0.252,0.379
					c-9.105,5.222-38.984,27.042-42.142,88.946l11.399-0.409c1.083-3.205,9.781-28.094,24.314-45.036
					c0.148-0.172,0.391-0.227,0.599-0.135c0.207,0.092,0.329,0.31,0.3,0.536l-2.21,16.922c-0.363,2.776,1.211,5.386,3.827,6.352
					c9.909,3.65,30.85,9.107,59.759,4.64c2.841-0.438,4.955-2.848,5.026-5.729c0.08-3.185,0.491-7.212,0.968-11.875
					c0.131-1.282,0.266-2.599,0.397-3.941c0.016-0.157,0.101-0.297,0.233-0.382s0.296-0.104,0.444-0.054
					c2.264,0.774,4.638,1.188,7.056,1.228c1.626,0.025,3.018-0.667,4.13-2.067c3.874-4.875,4.185-18.414,0.74-32.19
					c-0.643-2.568-3.454-6.411-5.588-6.125c-1.689,0.229-3.597,0.996-5.128,1.611c-2.005,0.804-2.995,1.176-3.608,0.807
					c-0.229-0.138-0.374-0.372-0.403-0.656c-1.208-11.323-9.019-18.973-20.896-20.463c-0.036-0.004-0.069-0.012-0.104-0.024
					c-2.78-0.955-5.412-1.384-7.833-1.278c-4.576,0.202-8.708,0.875-12.284,1.998L129.174,48.071z"/>
			</g>
			<path fill="#277ACC" d="M193.043,86.751c-0.017,0-0.036,0-0.052-0.002c-0.283-0.029-0.489-0.281-0.458-0.563
				c0.651-6.314-0.419-15.137-2.861-23.601c-0.079-0.272,0.079-0.557,0.351-0.635c0.272-0.079,0.556,0.079,0.635,0.35
				c2.514,8.713,3.569,17.458,2.895,23.992C193.526,86.555,193.302,86.751,193.043,86.751z"/>
			<g>
				<path fill="#B9CEEB" d="M163.768,40.624c0,0-16.384-1.56-29.415,1.017c-7.723,1.527-22.374,7.224-11.191,18.72
					c11.182,11.495,18.879,10.401,22.566,3.97C149.415,57.898,155.992,43.021,163.768,40.624z"/>
				<path fill="#277ACC" d="M138.177,69.623c-4.403,0-9.691-3.054-15.384-8.906c-3.55-3.65-4.862-7.067-3.898-10.157
					c2.018-6.478,13.148-8.986,15.359-9.423c12.955-2.562,29.397-1.04,29.562-1.024c0.244,0.022,0.438,0.215,0.461,0.458
					c0.026,0.244-0.125,0.471-0.359,0.542c-6.256,1.93-11.893,12.54-15.621,19.561c-0.769,1.447-1.496,2.813-2.124,3.91
					c-1.659,2.893-4.031,4.611-6.863,4.968C138.939,69.6,138.561,69.623,138.177,69.623z M152.267,40.675
					c-5.427,0-11.982,0.315-17.815,1.468c-5.83,1.153-13.147,4.129-14.578,8.722c-0.842,2.704,0.388,5.777,3.656,9.136
					c5.955,6.123,11.37,9.072,15.652,8.534c2.5-0.315,4.61-1.858,6.102-4.461c0.621-1.083,1.343-2.442,2.108-3.881
					c3.434-6.467,8.454-15.915,14.291-19.214C159.652,40.846,156.265,40.675,152.267,40.675z"/>
			</g>
			<path fill="#6EA2E0" d="M129.52,53.344c-2.069,0-3.987-0.699-5.891-2.211c-0.221-0.177-0.258-0.5-0.083-0.722
				c0.177-0.222,0.5-0.258,0.722-0.082c5.152,4.095,10.409,1.635,19.549-5.051c1.313-0.96,2.486-1.752,3.487-2.354
				c0.244-0.146,0.559-0.067,0.705,0.176c0.146,0.243,0.068,0.558-0.176,0.704c-0.974,0.586-2.121,1.361-3.409,2.303
				C138.217,50.646,133.583,53.344,129.52,53.344z"/>
			<g>
				<path fill="#FFFFFF" d="M196.255,62.495c0.797-0.755,1.097-1.886,0.819-2.949c-0.202-0.776-0.367-1.777-0.317-2.882
					c0.113-2.526-0.774-7.227-3.117-9.316c-1.725-1.537-6.235-2.571-10.217-1.858c-0.574,0.102-1.057,0.546-1.116,1.126
					c-0.047,0.456,0.14,1,0.972,1.469c1.516,0.853,2.317,0.212,3.369,0.871c1.304,0.819,3.823,4.996,2.08,5.979
					c-1.586,0.894-2.124-2.988-3.375-3.804c-0.998-0.65-2.194-0.428-2.794,0.579c-0.869,1.461,3.696,7.64,5.651,9.157
					c0.715,0.555,1.623,1.265,2.485,1.94c1.645,1.289,3.985,1.179,5.503-0.258L196.255,62.495z"/>
				<path fill="#6EA2E0" d="M193.292,64.208c-1.029,0-2.061-0.33-2.913-0.999c-0.863-0.675-1.769-1.383-2.482-1.938
					c-1.836-1.425-6.925-7.9-5.777-9.825c0.35-0.588,0.889-0.992,1.52-1.138c0.664-0.154,1.373-0.015,1.993,0.391
					c0.615,0.401,1.017,1.241,1.441,2.13c0.34,0.711,0.763,1.597,1.132,1.713c0.033,0.01,0.11,0.035,0.27-0.057
					c0.137-0.077,0.322-0.234,0.333-0.695c0.033-1.406-1.537-3.84-2.434-4.402c-0.38-0.238-0.711-0.255-1.168-0.28
					c-0.565-0.029-1.269-0.067-2.179-0.579c-1.118-0.63-1.287-1.418-1.231-1.969c0.08-0.782,0.712-1.432,1.536-1.579
					c3.869-0.692,8.646,0.197,10.648,1.98c2.471,2.203,3.41,7.011,3.288,9.723c-0.04,0.888,0.062,1.806,0.302,2.73
					c0.326,1.255-0.043,2.578-0.963,3.451l-0.057,0.054C195.65,63.774,194.471,64.208,193.292,64.208z M184.175,51.275
					c-0.104,0-0.204,0.011-0.304,0.034c-0.361,0.084-0.663,0.313-0.871,0.663c-0.589,0.987,3.422,6.856,5.524,8.489
					c0.716,0.556,1.624,1.265,2.486,1.941c1.434,1.123,3.512,1.025,4.834-0.227l0.057-0.053c0-0.001,0-0.001,0-0.001
					c0.65-0.615,0.91-1.553,0.677-2.447c-0.266-1.023-0.378-2.044-0.334-3.034c0.11-2.438-0.75-6.954-2.946-8.91
					c-1.574-1.403-5.882-2.435-9.785-1.737c-0.376,0.067-0.661,0.345-0.695,0.674c-0.015,0.132-0.055,0.537,0.713,0.97
					c0.699,0.393,1.2,0.42,1.729,0.448c0.519,0.027,1.054,0.055,1.66,0.436c1.127,0.707,2.957,3.474,2.915,5.295
					c-0.021,0.907-0.477,1.353-0.855,1.566c-0.454,0.255-0.838,0.217-1.083,0.141c-0.795-0.251-1.258-1.222-1.75-2.25
					c-0.329-0.688-0.702-1.468-1.076-1.712C184.785,51.373,184.475,51.275,184.175,51.275z"/>
			</g>
			<g>
				<g>
					<g>
						<path fill="#FFFFFF" d="M165.977,61.29c0,0,0.605-27.548,12.715-16.65c0,0-4.845-8.779-12.715-4.541
							c-7.871,4.238-8.174,20.585-8.174,20.585L165.977,61.29z"/>
						<path fill="#277ACC" d="M165.977,61.803c-0.013,0-0.025,0-0.038-0.001l-8.173-0.606c-0.272-0.02-0.482-0.248-0.477-0.521
							c0.013-0.68,0.401-16.697,8.444-21.028c8.224-4.427,13.356,4.653,13.408,4.744c0.12,0.22,0.065,0.495-0.131,0.65
							c-0.195,0.156-0.477,0.147-0.662-0.021c-2.379-2.141-4.423-2.863-6.075-2.15c-5.368,2.321-5.781,18.269-5.783,18.43
							c-0.004,0.141-0.064,0.274-0.169,0.369C166.227,61.756,166.104,61.803,165.977,61.803z M158.334,60.209l7.147,0.53
							c0.118-2.937,0.957-16.463,6.384-18.809c1.314-0.568,2.778-0.451,4.372,0.347c-2.018-2.048-5.477-4.171-10.018-1.726
							C159.448,44.197,158.465,57.494,158.334,60.209z"/>
					</g>
					<g>
						<path fill="#F2F7FC" d="M153.715,56.479c5.993-2.507,12.95-0.628,16.889,4.537c2.147,2.816,4.363,6.722,6.242,12.123
							c5.901,16.968,8.483,39.468,7.377,45.369c-1.106,5.902-6.154,8.765-12.761,11.116c-3.387,1.206-18.174,0.512-28.11-0.123
							c-5.303-0.338-9.486-4.631-9.688-9.94c-0.454-12.033-1.015-32.361,0.025-39.782C135.563,66.418,146.109,59.661,153.715,56.479
							z"/>
						<path fill="#277ACC" d="M162.91,130.797c-5.727,0-13.141-0.372-19.592-0.783c-5.584-0.357-9.956-4.842-10.167-10.436
							c-0.441-11.667-1.024-32.362,0.029-39.872c1.872-13.34,12.091-20.253,20.336-23.702c6.208-2.598,13.405-0.666,17.495,4.699
							c2.503,3.282,4.628,7.409,6.317,12.266c5.722,16.45,8.57,39.38,7.396,45.632c-1.208,6.445-7.006,9.338-13.092,11.504
							C170.229,130.607,166.999,130.797,162.91,130.797z M153.914,56.952c-7.999,3.347-17.913,10.036-19.717,22.897
							c-1.041,7.431-0.459,28.057-0.02,39.691c0.191,5.064,4.149,9.126,9.207,9.448c15.492,0.989,25.402,1.042,27.906,0.152
							c6.7-2.384,11.377-5.122,12.428-10.728c1.025-5.466-1.32-27.746-7.357-45.105c-1.654-4.754-3.728-8.785-6.165-11.98
							C166.389,56.333,159.693,54.535,153.914,56.952z"/>
					</g>
					<g>
						<path fill="#FFFFFF" d="M166.364,103.948c0,0,5.174,25.219,5.174,28.13c0,2.909-3.234,2.909-7.437,3.232
							c-4.204,0.324-26.837,1.617-32.98-4.203c-6.142-5.82-6.466-25.867-4.203-28.776c2.264-2.91,6.467-5.497,6.467-5.497
							s14.827,3.684,28.453,1.939C161.838,98.774,164.735,98.034,166.364,103.948z"/>
						<path fill="#277ACC" d="M154.245,136.178c-8.314,0-19.356-0.796-23.477-4.698c-6.493-6.152-6.571-26.488-4.255-29.465
							c2.294-2.949,6.428-5.51,6.603-5.618c0.118-0.072,0.259-0.094,0.393-0.061c0.146,0.037,14.877,3.636,28.242,1.932
							c0.403-0.083,3.447-0.484,5.107,5.543c0.004,0.011,0.007,0.022,0.008,0.033c0.212,1.032,5.185,25.304,5.185,28.233
							c0,3.17-3.241,3.404-6.992,3.676l-0.919,0.068C163.127,135.899,159.163,136.178,154.245,136.178z M133.477,97.384
							c-0.814,0.523-4.233,2.794-6.153,5.261c-2.151,2.767-1.862,22.394,4.151,28.089c5.064,4.799,22.867,4.813,32.587,4.064
							l0.925-0.068c3.967-0.287,6.039-0.535,6.039-2.652c0-2.795-5.002-27.239-5.16-28.011c-1.456-5.267-3.882-4.798-3.908-4.794
							c-0.015,0.003-0.038,0.008-0.054,0.01C149.228,100.908,135.362,97.825,133.477,97.384z"/>
					</g>
				</g>
				<g>
					<path fill="#277ACC" d="M176.954,116.585c-0.255,0-0.477-0.191-0.51-0.45c-1.312-10.704-3.786-21.796-6.79-30.431
						c-1.654-4.754-3.728-8.785-6.164-11.98c-3.809-4.994-10.503-6.793-16.284-4.375c-2.915,1.219-5.588,2.685-7.949,4.354
						c-0.23,0.164-0.551,0.109-0.715-0.122c-0.164-0.232-0.108-0.552,0.123-0.716c2.421-1.713,5.162-3.215,8.146-4.463
						c6.21-2.598,13.405-0.666,17.495,4.699c2.503,3.282,4.628,7.409,6.317,12.266c3.027,8.701,5.521,19.869,6.841,30.642
						c0.034,0.282-0.166,0.538-0.448,0.572C176.996,116.584,176.975,116.585,176.954,116.585z"/>
					<path fill="#277ACC" d="M152.07,110.568c-8.316,0-19.361-0.796-23.481-4.699c-0.206-0.195-0.215-0.52-0.02-0.725
						c0.195-0.206,0.52-0.214,0.727-0.02c5.063,4.797,22.866,4.813,32.586,4.064c0.281-0.022,0.529,0.191,0.551,0.473
						c0.022,0.283-0.19,0.529-0.473,0.551C160.949,110.289,156.985,110.568,152.07,110.568z"/>
				</g>
			</g>
		</g>
	</g>
	<g>
		<g>
			<circle fill="none" stroke="#FFFFFF" stroke-miterlimit="10" cx="362.361" cy="103.7" r="5.515"/>
			<path fill="#6EA2E0" d="M362.361,109.598c-3.252,0-5.897-2.646-5.897-5.898s2.646-5.898,5.897-5.898s5.896,2.646,5.896,5.898
				S365.613,109.598,362.361,109.598z M362.361,98.567c-2.83,0-5.134,2.302-5.134,5.132c0,2.83,2.304,5.132,5.134,5.132
				s5.132-2.302,5.132-5.132C367.493,100.869,365.191,98.567,362.361,98.567z"/>
		</g>
		<g>
			<path fill="#6EA2E0" d="M595.001,5.227c-0.098,0-0.196-0.037-0.271-0.112l-1.464-1.462c-0.149-0.149-0.149-0.392,0-0.542
				c0.148-0.149,0.392-0.149,0.541,0l1.464,1.462c0.148,0.149,0.148,0.392,0,0.542C595.197,5.19,595.099,5.227,595.001,5.227z"/>
			<path fill="#6EA2E0" d="M600.122,10.344c-0.098,0-0.196-0.037-0.271-0.112l-1.464-1.462c-0.148-0.149-0.148-0.392,0-0.541
				c0.149-0.149,0.393-0.149,0.542,0l1.463,1.462c0.149,0.149,0.149,0.392,0,0.541C600.318,10.307,600.22,10.344,600.122,10.344z"/>
			<path fill="#6EA2E0" d="M593.538,10.344c-0.099,0-0.196-0.037-0.271-0.112c-0.149-0.149-0.149-0.392,0-0.541l1.464-1.462
				c0.148-0.149,0.392-0.149,0.541,0c0.148,0.149,0.148,0.392,0,0.541l-1.464,1.462C593.733,10.307,593.636,10.344,593.538,10.344z"
				/>
			<path fill="#6EA2E0" d="M598.659,5.227c-0.1,0-0.196-0.037-0.271-0.112c-0.148-0.15-0.148-0.392,0-0.542l1.464-1.462
				c0.149-0.149,0.393-0.149,0.541,0c0.149,0.15,0.149,0.392,0,0.542l-1.463,1.462C598.854,5.19,598.756,5.227,598.659,5.227z"/>
		</g>
		<g>
			<path fill="#6EA2E0" d="M619.188,46.542c-0.211,0-0.383-0.171-0.383-0.383l-0.001-2.068c0-0.211,0.171-0.383,0.382-0.383
				c0.002,0,0.002,0,0.002,0c0.211,0,0.383,0.171,0.383,0.382l0.001,2.069C619.571,46.37,619.4,46.542,619.188,46.542
				L619.188,46.542z"/>
			<path fill="#6EA2E0" d="M619.191,53.781c-0.211,0-0.384-0.171-0.384-0.383l-0.001-2.068c0-0.211,0.172-0.383,0.384-0.383
				c0.211,0,0.383,0.171,0.383,0.382l0.001,2.068C619.574,53.609,619.403,53.781,619.191,53.781z"/>
			<path fill="#6EA2E0" d="M616.604,49.126l-2.067-0.001c-0.211,0-0.383-0.171-0.383-0.383s0.172-0.382,0.383-0.382l2.067,0.001
				c0.213,0,0.385,0.171,0.385,0.383S616.815,49.126,616.604,49.126z"/>
			<path fill="#6EA2E0" d="M623.843,49.129l-2.067-0.001c-0.211,0-0.383-0.172-0.383-0.383s0.172-0.382,0.383-0.382l2.067,0.001
				c0.212,0,0.384,0.171,0.384,0.383S624.055,49.129,623.843,49.129z"/>
		</g>
		<path fill="#6EA2E0" d="M609.256,22.835c-1.528,0-2.771-1.243-2.771-2.771s1.242-2.771,2.771-2.771s2.771,1.243,2.771,2.771
			C612.026,21.593,610.784,22.835,609.256,22.835z M609.256,18.059c-1.104,0-2.006,0.9-2.006,2.005c0,1.106,0.9,2.006,2.006,2.006
			c1.106,0,2.006-0.9,2.006-2.006C611.262,18.959,610.361,18.059,609.256,18.059z"/>
	</g>
</g>
<rect y="300.382" fill="#B9CEEB" width="239.5" height="0.457"/>
</svg>
