<?xml version="1.0" encoding="iso-8859-1"?>
<!-- Generator: Adobe Illustrator 16.0.0, SVG Export Plug-In . SVG Version: 6.00 Build 0)  -->
<!DOCTYPE svg PUBLIC "-//W3C//DTD SVG 1.1//EN" "http://www.w3.org/Graphics/SVG/1.1/DTD/svg11.dtd">
<svg version="1.1" id="Layer_1" xmlns="http://www.w3.org/2000/svg" xmlns:xlink="http://www.w3.org/1999/xlink" x="0px" y="0px"
	 width="640px" height="300px" viewBox="0 0 640 300" style="enable-background:new 0 0 640 300;" xml:space="preserve">
<path style="fill:#EFF9FD;" d="M2.037,299.479c0,0,0.951-36.834,30.872-42.469c29.92-5.633,40.143,13.237,63.73,8.646
	s17.523-45.365,74.458-57.482c56.935-12.114,78.381,45.604,103.317,50.071c24.936,4.472,29.735-68.802,119.788-72.077
	c90.049-3.275,84.769,47.282,103.286,48.708c18.515,1.426,38.139-26.715,81.773-12.188c43.635,14.524,58.835,77.375,58.835,77.375"
	/>
<g>
	<path style="fill:#E2F3F7;" d="M553.732,82.781c3.757,1.141,7.529,2.24,11.309,3.316c-6.241,5.129-12.32,10.682-17.589,16.84
		C550.073,96.389,552.211,89.668,553.732,82.781z"/>
	<path style="fill:#E2F3F7;" d="M552.304,81.98c-1.772,7.31-3.963,14.41-6.767,21.363c-3.256-10.109-7.393-19.998-13.014-29.021
		c14.63-8.032,28.555-17.55,42.391-26.876c12.515-8.438,25.113-16.937,37.195-26.027c-19.624,19.87-39.729,39.436-58.559,60.044
		C553.128,81.224,552.449,81.356,552.304,81.98z"/>
	<path style="fill:#F6F6F6;" d="M574.91,45.855c-14.104,9.52-28.712,18.316-42.732,27.946c-0.075,0.05-0.098,0.113-0.109,0.185
		c-0.059,0.007-0.106,0.023-0.164,0.05c-7.31-2.176-14.736-4.316-22.193-5.97c17.965-8.201,35.398-17.686,53.237-26.173
		c16.535-7.864,33.196-15.441,49.954-22.798C600.245,28.015,587.77,37.184,574.91,45.855z"/>
	<path style="fill:#F6F6F6;" d="M614.633,20.717c-11.615,21.838-22.263,44.173-31.896,66.966c-0.212,0.49,0.038,0.892,0.407,1.098
		c-0.11,0.255-0.221,0.511-0.319,0.775c-9.256-3.105-18.778-5.985-28.371-7.801C575.131,62.099,594.703,41.138,614.633,20.717z"/>
	<path style="fill:#1D1D1B;" d="M565.041,86.098c-3.779-1.077-7.552-2.176-11.309-3.316c-1.521,6.887-3.659,13.608-6.28,20.156
		C552.721,96.78,558.8,91.227,565.041,86.098z M552.304,81.98c0.146-0.624,0.824-0.756,1.247-0.516
		c18.829-20.608,38.935-40.174,58.559-60.044c-12.082,9.09-24.681,17.589-37.195,26.027c-13.836,9.326-27.761,18.844-42.391,26.876
		c5.621,9.022,9.758,18.912,13.014,29.021C548.341,96.39,550.531,89.29,552.304,81.98z M509.711,68.067
		c7.457,1.653,14.884,3.794,22.193,5.97c0.058-0.027,0.105-0.043,0.164-0.05c0.012-0.072,0.034-0.135,0.109-0.185
		c14.021-9.63,28.628-18.426,42.732-27.946c12.859-8.671,25.335-17.84,37.992-26.759c-16.758,7.357-33.419,14.934-49.954,22.798
		C545.109,50.381,527.676,59.866,509.711,68.067z M614.633,20.717c-19.93,20.421-39.502,41.382-60.18,61.039
		c9.593,1.815,19.115,4.695,28.371,7.801c0.099-0.264,0.209-0.52,0.319-0.775c-0.369-0.206-0.619-0.608-0.407-1.098
		C592.37,64.89,603.018,42.555,614.633,20.717z M508.003,67.692c17.143-10.054,35.503-18.394,53.423-26.952
		c18.682-8.923,37.526-17.514,56.499-25.788c0.669-0.294,1.52,0.479,1.151,1.169c-12.602,23.329-24.096,47.218-34.426,71.639
		c0.147,0.959-0.129,2.071-0.82,2.76c-0.072,0.482-0.558,0.956-1.175,0.769c-5.271-1.649-10.574-3.164-15.88-4.689
		c-7.293,6.003-13.889,12.596-20.542,19.297c-0.016,0.033-0.031,0.064-0.047,0.106c-0.249,0.595-1.268,0.67-1.483-0.019
		c-3.271-10.631-7.715-20.654-12.567-30.637c-0.078,0.02-0.167,0.03-0.262,0.001c-7.802-2.004-15.72-4.125-23.346-6.734
		c-0.151,0.068-0.294,0.137-0.438,0.194c-0.487,0.221-0.924-0.471-0.583-0.805c0.017-0.193,0.165-0.382,0.392-0.34
		C507.931,67.681,507.972,67.686,508.003,67.692z"/>
</g>
<path style="fill:#1D1D1B;" d="M543.91,106.552c-5.698,18.033-15.362,35.4-26.152,50.879
	c-10.435,14.969-24.518,28.329-43.083,31.658c-4.851,0.871-9.771,0.849-14.456-0.022c8.543-8.31,15.152-18.683,15.887-30.737
	c0.858-14.12-9.334-24.215-23.443-22.244c-12.956,1.81-21.912,12.603-20.39,25.748c1.576,13.6,12.303,24.509,25.271,27.757
	c-8.044,7.334-17.813,12.991-27.431,17.587c-13.604,6.501-29.327,11.361-44.551,9.457c-7.54-0.943-14.759-3.788-20.568-8.749
	c-7.45-6.361-11.784-15.374-16.452-23.781c-4.343-7.823-9.188-15.466-16.623-20.7c-6.503-4.578-14.278-7.188-22.143-8.104
	c-19.105-2.229-37.55,5.589-53.648,15.128c-0.414,0.245-0.03,0.869,0.388,0.637c19.079-10.65,41.225-19.828,63.183-12.621
	c11.069,3.635,18.907,11.129,24.784,21.019c5.16,8.684,9.029,18.313,15.82,25.931c22.944,25.736,64.262,9.382,87.89-6.609
	c3.813-2.581,7.58-5.536,11.069-8.815c0.275,0.054,0.55,0.11,0.828,0.158c19.736,3.334,38.314-8.132,50.723-22.532
	c7.675-8.905,13.779-19.079,19.501-29.309c5.658-10.118,10.588-20.523,13.801-31.684C544.152,106.47,543.95,106.424,543.91,106.552z
	 M434.197,166.602c-4.642-15.454,6.099-30.099,22.358-29.816c7.817,0.136,14.82,4.429,17.265,12.086
	c2.886,9.042-0.194,19.054-4.852,26.936c-2.842,4.808-6.423,9.071-10.469,12.895C447.338,186.091,437.783,178.543,434.197,166.602z"
	/>
<path style="fill:#1D1D1B;" d="M575.748,95.003c-3.616-1.895-6.261-4.66-9.725-2.285c-3.114,2.136-5.933,7.093-8.214,10.109
	c-2.624,3.468-5.096,7.04-7.49,10.67c-0.183,0.278,0.239,0.565,0.432,0.291c3.113-4.461,6.363-8.815,9.813-13.022
	c1.392-1.695,4.517-6.631,6.303-7.301c2.538-0.952,6.079,1.531,8.322,2.651C575.819,96.431,576.38,95.334,575.748,95.003z"/>
<path style="fill:#1D1D1B;" d="M539.672,44.801c-21.996,9.787-43.733,20.561-65.213,31.433c-0.236,0.12-0.044,0.465,0.193,0.359
	c21.977-9.853,44.041-19.964,65.5-30.901C540.738,45.394,540.262,44.538,539.672,44.801z"/>
<g>
	<path style="fill:#F89A2A;" d="M67.634,223.26c-5.23,21.58-9.48,43.41-14.39,65.08c-3.47-3.22,0.98-14.72,1.77-18.119
		c1.24-5.36,2.49-10.73,3.74-16.101c2.4-10.37,4.85-20.739,7.29-31.11C66.574,223.09,67.104,223.18,67.634,223.26z"/>
	<path style="fill:#FBAD53;" d="M68.724,223.42c2.66,0.391,5.31,0.75,7.97,1.101c-0.03,0.02-0.06,0.04-0.07,0.09
		c-1.32,3.46-2.22,7.13-2.4,10.851c-0.02,0.359,0.52,0.35,0.55,0c0.4-3.69,1.03-7.23,2.19-10.761c0.02-0.06,0.01-0.11-0.02-0.149
		c1.33,0.18,2.66,0.359,3.99,0.52c-0.1,0.109-0.19,0.23-0.23,0.42c-2.8,13.63-5.6,27.28-7.86,41.01
		c-1.01,6.15-1.92,12.311-2.67,18.49c-0.54,4.45-0.84,4.891-5.36,4.8c-3.35-0.079-6.71-0.149-10.06-0.22
		C59.744,267.62,64.984,245.61,68.724,223.42z M72.224,248.57c-3.43,12.7-5.79,25.76-7.81,38.76c-0.08,0.5,0.69,0.721,0.77,0.21
		c2.1-13.04,4.79-25.94,7.29-38.909C72.504,248.471,72.274,248.41,72.224,248.57z M68.704,252.37c1.91-6.72,2.98-13.71,3.85-20.64
		c0.03-0.29-0.42-0.28-0.45,0c-0.9,6.93-2.34,13.72-3.66,20.57C68.414,252.471,68.654,252.54,68.704,252.37z M66.654,254.221
		c1.22-9.851,3.3-19.721,5.5-29.4c0.11-0.51-0.68-0.71-0.77-0.21c-1.67,9.87-4.24,19.61-5.08,29.61
		C66.284,254.45,66.624,254.44,66.654,254.221z M67.094,258.11c0.24,0.2,0.28,0.87,0.26,1.149c-0.06,0.92-0.76,1.61-1.69,1.59
		c-2.14-0.039-2.26-2.92-0.36-3.51c0.25-0.08,0.15-0.459-0.11-0.399c-0.74,0.149-1.25,0.6-1.53,1.149
		c0.19-2.24,0.33-4.479,0.42-6.72c0.01-0.26-0.4-0.26-0.41,0c-0.37,11.03-2.5,21.58-5.36,32.2c-0.01,0.04,0.04,0.05,0.05,0.02
		c2.76-7.629,4.34-15.649,5.14-23.729c0.21,0.68,0.72,1.271,1.54,1.5c2.31,0.64,3.92-2.3,2.16-3.899
		c-0.08-0.08-0.19-0.101-0.29-0.041c-0.74,0.381-1.09,1.15-0.92,1.961c0.05,0.199,0.34,0.119,0.31-0.08
		C66.254,258.971,66.534,257.65,67.094,258.11z M74.294,241c0.33-0.689,0.48-0.82,0.46-0.39c0,0.14,0,0.28,0,0.42
		c-0.01,0.33-0.04,0.66-0.11,0.979c-0.11,0.541-0.35,1.17-0.94,1.32c-0.89,0.24-1.44-0.779-1.42-1.52
		c0.01-0.94,0.73-1.76,1.27-2.461c0.1-0.119-0.06-0.299-0.17-0.18c-0.77,0.771-1.62,1.69-1.58,2.851c0.03,0.8,0.55,1.659,1.37,1.84
		c1.96,0.41,2.25-2.42,1.94-3.7c-0.02-0.061-0.07-0.12-0.14-0.13c-0.64-0.149-1.21,0.45-0.92,1.069
		C74.114,241.23,74.344,241.141,74.294,241z M77.264,232.141c-3.34,17.899-6.94,35.789-9.72,53.779c-0.02,0.141,0.18,0.2,0.21,0.061
		c3.78-17.801,6.75-35.801,9.97-53.71C77.784,231.961,77.314,231.83,77.264,232.141z"/>
	<path style="fill:#46C1D2;" d="M31.834,189.65c0.82-2.689,2.08-8.641,3.64-2.189c0.03,0.129,0.1,0.219,0.18,0.289
		c-2.48,8.79-5.06,17.57-7.28,26.43c-3.99-4.68-0.3-12.18,1.29-17.409C30.394,194.4,31.114,192.021,31.834,189.65z"/>
	<path style="fill:#46C1D2;" d="M128.894,205.891c2.11,2.17,7.94,6.67,6.601,10.43c-2.08-5.641-8.431-11.38-12.69-15.09
		c-0.09-0.08-0.18-0.12-0.27-0.16c-0.21-0.79-0.45-1.57-0.721-2.35C124.153,201.131,126.554,203.49,128.894,205.891z"/>
	<path style="fill:#46C1D2;" d="M121.024,198.95c0.25,0.72,0.52,1.44,0.82,2.149c-0.111,0.041-0.201,0.111-0.281,0.19
		c-0.09-0.06-0.189-0.11-0.319-0.13c-27.96-5.561-56.25-9.8-84.35-14.63c-0.13-0.021-0.26-0.021-0.39,0.01
		c-0.39-1.649-1.04-2.85-2.15-4.09c28.21,7.62,57.53,12.61,86.459,16.511C120.894,198.971,120.954,198.961,121.024,198.95z"/>
	<path style="fill:#93D6E1;" d="M121.604,202.49c3.039,2.71,13.779,11.33,10.67,15.54c-1.36,1.851-5.211,3.21-7.17,4.41
		c-2.701,1.67-5.4,3.33-8.07,5.03c-0.1-0.33-0.36-0.61-0.78-0.66c-14.85-1.53-29.67-3.04-44.45-5.141
		c-14.16-2.01-28.22-4.67-42.36-6.779c0.11-0.08,0.2-0.18,0.25-0.34c1.32-4.16,2.53-8.36,3.72-12.551c0.69-2.4,1.37-4.8,2.05-7.199
		c0.31-1.08,0.64-4.59,1.53-5.4c2.4-2.16,10.08,0.67,13.17,1.21c4.9,0.86,9.81,1.7,14.71,2.55c18.62,3.221,37.23,6.87,55.92,9.63
		C121.144,202.84,121.424,202.7,121.604,202.49z"/>
	<path style="fill:#1D1D1B;" d="M74.974,240.03c0.07,0.01,0.12,0.069,0.14,0.13c0.31,1.28,0.02,4.11-1.94,3.7
		c-0.82-0.181-1.34-1.04-1.37-1.84c-0.04-1.16,0.81-2.08,1.58-2.851c0.11-0.119,0.27,0.061,0.17,0.18
		c-0.54,0.701-1.26,1.521-1.27,2.461c-0.02,0.74,0.53,1.76,1.42,1.52c0.59-0.15,0.83-0.779,0.94-1.32
		c0.07-0.319,0.1-0.649,0.11-0.979c0-0.14,0-0.28,0-0.42c0.02-0.431-0.13-0.3-0.46,0.39c0.05,0.141-0.18,0.23-0.24,0.1
		C73.764,240.48,74.334,239.881,74.974,240.03z"/>
	<path style="fill:#1D1D1B;" d="M72.554,231.73c-0.87,6.93-1.94,13.92-3.85,20.64c-0.05,0.17-0.29,0.101-0.26-0.069
		c1.32-6.851,2.76-13.641,3.66-20.57C72.134,231.45,72.584,231.44,72.554,231.73z"/>
	<path style="fill:#1D1D1B;" d="M67.544,285.92c2.78-17.99,6.38-35.88,9.72-53.779c0.05-0.311,0.52-0.18,0.46,0.13
		c-3.22,17.909-6.19,35.909-9.97,53.71C67.724,286.12,67.524,286.061,67.544,285.92z"/>
	<path style="fill:#1D1D1B;" d="M72.154,224.82c-2.2,9.68-4.28,19.55-5.5,29.4c-0.03,0.22-0.37,0.229-0.35,0
		c0.84-10,3.41-19.74,5.08-29.61C71.474,224.11,72.264,224.311,72.154,224.82z"/>
	<path style="fill:#1D1D1B;" d="M72.474,248.631c-2.5,12.969-5.19,25.869-7.29,38.909c-0.08,0.511-0.85,0.29-0.77-0.21
		c2.02-13,4.38-26.06,7.81-38.76C72.274,248.41,72.504,248.471,72.474,248.631z"/>
	<path style="fill:#1D1D1B;" d="M67.354,259.26c0.02-0.279-0.02-0.949-0.26-1.149c-0.56-0.46-0.84,0.86-0.79,1.19
		c0.03,0.199-0.26,0.279-0.31,0.08c-0.17-0.811,0.18-1.58,0.92-1.961c0.1-0.06,0.21-0.039,0.29,0.041
		c1.76,1.6,0.15,4.539-2.16,3.899c-0.82-0.229-1.33-0.82-1.54-1.5c-0.8,8.08-2.38,16.101-5.14,23.729
		c-0.01,0.03-0.06,0.021-0.05-0.02c2.86-10.62,4.99-21.17,5.36-32.2c0.01-0.26,0.42-0.26,0.41,0c-0.09,2.24-0.23,4.479-0.42,6.72
		c0.28-0.55,0.79-1,1.53-1.149c0.26-0.06,0.36,0.319,0.11,0.399c-1.9,0.59-1.78,3.471,0.36,3.51
		C66.594,260.87,67.294,260.18,67.354,259.26z"/>
	<path style="fill:#1D1D1B;" d="M67.634,223.26c-0.53-0.08-1.06-0.17-1.59-0.25c-2.44,10.371-4.89,20.74-7.29,31.11
		c-1.25,5.37-2.5,10.74-3.74,16.101c-0.79,3.399-5.24,14.899-1.77,18.119C58.154,266.67,62.404,244.84,67.634,223.26z
		 M28.374,214.18c2.22-8.859,4.8-17.64,7.28-26.43c-0.08-0.07-0.15-0.16-0.18-0.289c-1.56-6.451-2.82-0.5-3.64,2.189
		c-0.72,2.37-1.44,4.75-2.17,7.12C28.074,202,24.384,209.5,28.374,214.18z M71.804,221.67c14.78,2.101,29.6,3.61,44.45,5.141
		c0.42,0.05,0.681,0.33,0.78,0.66c2.67-1.7,5.369-3.36,8.07-5.03c1.959-1.2,5.81-2.56,7.17-4.41c3.109-4.21-7.631-12.83-10.67-15.54
		c-0.181,0.21-0.461,0.35-0.811,0.3c-18.69-2.76-37.3-6.409-55.92-9.63c-4.9-0.85-9.81-1.689-14.71-2.55
		c-3.09-0.54-10.77-3.37-13.17-1.21c-0.89,0.811-1.22,4.32-1.53,5.4c-0.68,2.399-1.36,4.799-2.05,7.199
		c-1.19,4.19-2.4,8.391-3.72,12.551c-0.05,0.16-0.14,0.26-0.25,0.34C43.584,217,57.644,219.66,71.804,221.67z M135.494,216.32
		c1.34-3.76-4.49-8.26-6.601-10.43c-2.34-2.4-4.74-4.76-7.08-7.17c0.271,0.779,0.511,1.56,0.721,2.35c0.09,0.04,0.18,0.08,0.27,0.16
		C127.063,204.94,133.414,210.68,135.494,216.32z M121.845,201.1c-0.301-0.709-0.57-1.43-0.82-2.149
		c-0.07,0.011-0.131,0.021-0.211,0.011c-28.93-3.9-58.25-8.891-86.459-16.511c1.11,1.24,1.76,2.44,2.15,4.09
		c0.13-0.03,0.26-0.03,0.39-0.01c28.1,4.83,56.39,9.069,84.35,14.63c0.13,0.02,0.229,0.07,0.319,0.13
		C121.644,201.211,121.733,201.141,121.845,201.1z M135.664,217.891c-0.12,0.14-0.28,0.16-0.431,0.119
		c-2.049,2.03-5.279,3.41-7.709,4.871c-3.471,2.09-6.93,4.189-10.44,6.219c-0.521,0.301-0.979-0.109-1.03-0.56
		c-11.2-0.84-22.52-1.909-33.83-3.3c0.15,0.18,0.22,0.42,0.16,0.71c-4.41,21.49-8.77,43-11.12,64.83c-0.05,0.46-0.36,0.88-0.87,0.87
		c-5.58-0.12-11.15-0.24-16.73-0.36c-0.58-0.02-0.96-0.55-0.83-1.1c0.05-0.24,0.1-0.479,0.16-0.72c-2.29-1.08-2.65-3.221-2.32-5.881
		c0.84-6.779,3.13-13.67,4.67-20.33c3.12-13.479,6.21-26.97,9.28-40.47c-12.02-1.86-23.94-4.14-35.61-6.96
		c-0.21-0.05-0.31-0.18-0.34-0.34c-4.13-1.891-3.82-6.6-2.88-10.4c1.91-7.709,4.59-15.319,6.91-22.91
		c0.09-0.299,0.36-0.459,0.63-0.469c0.06-0.24,0.27-0.44,0.59-0.381c28.85,5.87,57.51,11.84,86.64,16.23
		c-0.069-0.461,0.641-0.631,0.811-0.15c0.02,0.07,0.05,0.141,0.07,0.21c0.08-0.01,0.16,0.021,0.229,0.08
		c4.66,3.89,9.31,8.28,13.171,12.979C136.685,212.93,137.674,215.471,135.664,217.891z M74.224,235.461
		c0.18-3.721,1.08-7.391,2.4-10.851c0.01-0.05,0.04-0.07,0.07-0.09c-2.66-0.351-5.31-0.71-7.97-1.101
		c-3.74,22.19-8.98,44.2-13.97,66.15c3.35,0.07,6.71,0.141,10.06,0.22c4.52,0.091,4.82-0.35,5.36-4.8
		c0.75-6.18,1.66-12.34,2.67-18.49c2.26-13.729,5.06-27.38,7.86-41.01c0.04-0.189,0.13-0.311,0.23-0.42
		c-1.33-0.16-2.66-0.34-3.99-0.52c0.03,0.039,0.04,0.09,0.02,0.149c-1.16,3.53-1.79,7.07-2.19,10.761
		C74.744,235.811,74.204,235.82,74.224,235.461z"/>
</g>
<g>
	<path style="fill:#FFFFFF;" d="M239.114,67.829c0.12-0.37-0.08-0.891-0.59-0.95c-26.28-3.1-52.939-4-79.36-2.57
		c-0.04-0.109-0.109-0.22-0.26-0.279c-2.29-0.94-3.479-2.601-3.569-4.99c-0.221-1.69,0.489-2.9,2.13-3.63
		c2.83-2.551,5.52-2.45,8.8-0.2c0.58,0.39,1.14-0.36,0.89-0.891c-4.08-8.479-2.51-21,8.65-22.59c11.109-1.58,17.72,8.41,18.71,18.19
		c0.07,0.74,1.21,0.76,1.16,0c-0.011-0.16-0.021-0.33-0.04-0.49c3.64-10.56,9.26-23.79,22.5-23.59c7.319,0.12,12.1,6.46,12.2,13.43
		c0.09,6.41-3.211,11.92-6.66,17.07c-0.48,0.71,0.649,1.34,1.14,0.66c0.01-0.01,0.021-0.03,0.03-0.04
		c0.069,0.189,0.29,0.34,0.529,0.2c7.54-4.46,16.561,2.25,13.94,10.729L239.114,67.829z"/>
	<path style="fill:#1D1D1B;" d="M154.774,55.719c2.061-3.939,6.87-4.18,10.51-2.54c-3.279-8.88-1.18-20.53,9.551-22.62
		c11.039-2.149,18.949,7.01,20.569,16.95c3.55-11.479,11.41-25.79,25.601-22.66c6.119,1.351,9.88,6.73,10.569,12.76
		c0.771,6.82-2.399,13.28-6.26,18.7c8.21-5.14,18.06,2.73,15.22,11.971c-0.239,0.779-1.47,0.439-1.229-0.341
		c0.01-0.02,0.01-0.029,0.01-0.05c2.62-8.479-6.4-15.189-13.94-10.729c-0.239,0.14-0.46-0.011-0.529-0.2
		c-0.01,0.01-0.021,0.03-0.03,0.04c-0.49,0.68-1.62,0.05-1.14-0.66c3.449-5.15,6.75-10.66,6.66-17.07
		c-0.101-6.97-4.881-13.31-12.2-13.43c-13.24-0.2-18.86,13.03-22.5,23.59c0.02,0.16,0.029,0.33,0.04,0.49
		c0.05,0.76-1.09,0.74-1.16,0c-0.99-9.78-7.601-19.771-18.71-18.19c-11.16,1.59-12.73,14.11-8.65,22.59
		c0.25,0.53-0.31,1.28-0.89,0.891c-3.28-2.25-5.97-2.351-8.8,0.2c-1.641,0.729-2.351,1.939-2.13,3.63
		c0.09,2.39,1.279,4.05,3.569,4.99c0.15,0.06,0.22,0.17,0.26,0.279c26.421-1.43,53.08-0.529,79.36,2.57
		c0.51,0.06,0.71,0.58,0.59,0.95c-0.069,0.22-0.27,0.38-0.59,0.35c-26.54-2.77-53.06-3.77-79.74-3.12
		c-0.229,0.01-0.34-0.149-0.35-0.33C154.725,63.669,152.965,59.188,154.774,55.719z"/>
</g>
<g>
	<circle style="fill:#EDEDED;" cx="4.644" cy="4.445" r="1.929"/>
	<circle style="fill:#EDEDED;" cx="4.644" cy="17.342" r="1.929"/>
	<circle style="fill:#EDEDED;" cx="4.644" cy="30.24" r="1.929"/>
	<circle style="fill:#EDEDED;" cx="4.644" cy="43.137" r="1.929"/>
	<circle style="fill:#EDEDED;" cx="4.644" cy="56.034" r="1.929"/>
	<circle style="fill:#EDEDED;" cx="4.644" cy="68.932" r="1.929"/>
	<circle style="fill:#EDEDED;" cx="15.049" cy="4.445" r="1.929"/>
	<circle style="fill:#EDEDED;" cx="15.049" cy="17.342" r="1.929"/>
	<circle style="fill:#EDEDED;" cx="15.049" cy="30.24" r="1.929"/>
	<circle style="fill:#EDEDED;" cx="15.049" cy="43.137" r="1.929"/>
	<circle style="fill:#EDEDED;" cx="15.049" cy="56.034" r="1.929"/>
	<circle style="fill:#EDEDED;" cx="15.049" cy="68.932" r="1.929"/>
	<circle style="fill:#EDEDED;" cx="25.455" cy="4.445" r="1.929"/>
	<circle style="fill:#EDEDED;" cx="25.455" cy="17.342" r="1.929"/>
	<circle style="fill:#EDEDED;" cx="25.455" cy="30.24" r="1.929"/>
	<circle style="fill:#EDEDED;" cx="25.455" cy="43.137" r="1.929"/>
	<circle style="fill:#EDEDED;" cx="25.455" cy="56.034" r="1.929"/>
	<circle style="fill:#EDEDED;" cx="25.455" cy="68.932" r="1.929"/>
	<circle style="fill:#EDEDED;" cx="35.861" cy="4.445" r="1.929"/>
	<circle style="fill:#EDEDED;" cx="35.861" cy="17.342" r="1.929"/>
	<circle style="fill:#EDEDED;" cx="35.861" cy="30.24" r="1.929"/>
	<circle style="fill:#EDEDED;" cx="35.861" cy="43.137" r="1.929"/>
	<circle style="fill:#EDEDED;" cx="35.861" cy="56.034" r="1.929"/>
	<circle style="fill:#EDEDED;" cx="35.861" cy="68.932" r="1.929"/>
	<circle style="fill:#EDEDED;" cx="46.267" cy="4.445" r="1.929"/>
	<circle style="fill:#EDEDED;" cx="46.267" cy="17.342" r="1.929"/>
	<circle style="fill:#EDEDED;" cx="46.267" cy="30.24" r="1.929"/>
	<circle style="fill:#EDEDED;" cx="46.267" cy="43.137" r="1.929"/>
	<circle style="fill:#EDEDED;" cx="46.267" cy="56.034" r="1.929"/>
	<circle style="fill:#EDEDED;" cx="46.267" cy="68.932" r="1.929"/>
	<circle style="fill:#EDEDED;" cx="56.672" cy="4.445" r="1.929"/>
	<circle style="fill:#EDEDED;" cx="56.672" cy="17.342" r="1.929"/>
	<circle style="fill:#EDEDED;" cx="56.672" cy="30.24" r="1.929"/>
	<circle style="fill:#EDEDED;" cx="56.672" cy="43.137" r="1.929"/>
	<circle style="fill:#EDEDED;" cx="56.672" cy="56.034" r="1.929"/>
	<circle style="fill:#EDEDED;" cx="56.672" cy="68.932" r="1.929"/>
</g>
<g>
	<path style="fill:#FFFFFF;" d="M116.904,82.581c0.619,1.53,0.06,3.12-1.08,4.18c-0.101-0.18-0.281-0.3-0.551-0.29
		c-22.28,1.141-44.56,2.17-66.86,2.94c0,0,0-0.011-0.01-0.011c-3.34-1.529-4.8-6.239-2.31-9.189c2.84-3.37,8-2.15,10.55,0.85
		c0.24,0.29,0.68,0.051,0.71-0.26c0.09-0.11,0.11-0.27-0.01-0.41c-5.38-6.27,0.7-14.89,7.5-16.479c7.83-1.83,14.86,3.66,15.19,11.62
		c0.03,0.55,0.67,0.689,0.98,0.409c0.23,0.011,0.47-0.17,0.39-0.47c-2.66-10.56,12.23-17.24,20.66-16.07
		c9.76,1.351,15.96,11.48,9.85,20.03c-0.13,0.181-0.11,0.38-0.02,0.54c-0.07,0.2,0.08,0.47,0.35,0.4
		C114.104,79.94,116.144,80.751,116.904,82.581z"/>
	<path style="fill:#1D1D1B;" d="M48.404,89.4c0.01,0,0.01,0.011,0.01,0.011c22.3-0.771,44.58-1.8,66.86-2.94
		c0.27-0.01,0.45,0.11,0.551,0.29c1.14-1.06,1.699-2.649,1.08-4.18c-0.761-1.83-2.801-2.641-4.661-2.21
		c-0.27,0.069-0.42-0.2-0.35-0.4c-0.09-0.16-0.11-0.359,0.02-0.54c6.11-8.55-0.09-18.68-9.85-20.03
		c-8.43-1.17-23.32,5.511-20.66,16.07c0.08,0.3-0.16,0.48-0.39,0.47c-0.31,0.28-0.95,0.141-0.98-0.409
		c-0.33-7.96-7.36-13.45-15.19-11.62c-6.8,1.59-12.88,10.21-7.5,16.479c0.12,0.141,0.1,0.3,0.01,0.41
		c-0.03,0.311-0.47,0.55-0.71,0.26c-2.55-3-7.71-4.22-10.55-0.85C43.604,83.161,45.063,87.871,48.404,89.4z M114.934,87.841
		c-22.21,1.38-44.46,2.11-66.71,2.33c-0.1,0-0.17-0.03-0.23-0.08c-4.26-1.3-5.58-7.27-2.84-10.61c2.44-2.97,6.88-3.02,9.95-1.05
		c-2.97-5.85,2.16-13.189,8.14-15.31c7.06-2.5,14.34,1.12,16.94,7.49c1.53-8.4,14.69-13.61,22.15-12.58
		c10.04,1.39,17.68,12.76,10.95,21.529c1.86-0.13,3.78,0.851,4.53,2.641c0.92,2.17-0.13,4.87-2.22,5.91
		C115.293,88.261,115.014,88.081,114.934,87.841z"/>
</g>
<g>
	<g>
		<circle style="fill:#52909D;" cx="80.513" cy="224.368" r="1.265"/>
		<circle style="fill:#52909D;" cx="91.739" cy="172.035" r="2.688"/>
		<circle style="fill:#52909D;" cx="140.276" cy="178.201" r="2.846"/>
		<circle style="fill:#52909D;" cx="51.422" cy="250.93" r="0.949"/>
		<circle style="fill:#52909D;" cx="74.031" cy="423.104" r="2.055"/>
		<circle style="fill:#52909D;" cx="33.083" cy="330.613" r="2.846"/>
		<circle style="fill:#52909D;" cx="236.877" cy="149.269" r="3.32"/>
		<circle style="fill:#52909D;" cx="221.066" cy="108.162" r="3.004"/>
		<circle style="fill:#52909D;" cx="347.707" cy="166.502" r="2.529"/>
		<circle style="fill:#52909D;" cx="417.272" cy="125.711" r="1.897"/>
		<circle style="fill:#52909D;" cx="437.825" cy="215.83" r="3.162"/>
		<circle style="fill:#52909D;" cx="479.249" cy="228.794" r="0.949"/>
		<circle style="fill:#52909D;" cx="405.415" cy="178.359" r="0.791"/>
		<circle style="fill:#52909D;" cx="486.047" cy="357.332" r="1.739"/>
		<circle style="fill:#52909D;" cx="463.913" cy="399.703" r="2.372"/>
		<circle style="fill:#52909D;" cx="476.561" cy="278.598" r="2.688"/>
		<circle style="fill:#52909D;" cx="259.802" cy="380.891" r="1.265"/>
		<circle style="fill:#52909D;" cx="108.395" cy="453.484" r="1.455"/>
		<circle style="fill:#52909D;" cx="228.12" cy="441.43" r="1.455"/>
		<circle style="fill:#52909D;" cx="294.426" cy="484.455" r="0.832"/>
		<circle style="fill:#52909D;" cx="196.734" cy="476.973" r="2.91"/>
		<circle style="fill:#52909D;" cx="417.478" cy="471.568" r="2.079"/>
		<circle style="fill:#52909D;" cx="470.273" cy="456.188" r="1.663"/>
		<circle style="fill:#52909D;" cx="342.857" cy="459.721" r="2.702"/>
	</g>
	<g>
		<circle style="fill:none;stroke:#52909D;stroke-miterlimit:10;" cx="360.109" cy="122.774" r="6.465"/>
		<circle style="fill:none;stroke:#52909D;stroke-miterlimit:10;" cx="376.66" cy="192.082" r="3.103"/>
		<circle style="fill:none;stroke:#52909D;stroke-miterlimit:10;" cx="445.709" cy="162.859" r="4.396"/>
		<circle style="fill:none;stroke:#52909D;stroke-miterlimit:10;" cx="410.926" cy="223.763" r="1.939"/>
		<circle style="fill:none;stroke:#52909D;stroke-miterlimit:10;" cx="367.221" cy="262.037" r="0.646"/>
		<circle style="fill:none;stroke:#52909D;stroke-miterlimit:10;" cx="481.01" cy="258.158" r="2.974"/>
		<circle style="fill:none;stroke:#52909D;stroke-miterlimit:10;" cx="485.535" cy="378.025" r="1.811"/>
		<circle style="fill:none;stroke:#52909D;stroke-miterlimit:10;" cx="249.553" cy="361.086" r="2.198"/>
		<circle style="fill:none;stroke:#52909D;stroke-miterlimit:10;" cx="31.93" cy="349.836" r="2.586"/>
		<circle style="fill:none;stroke:#52909D;stroke-miterlimit:10;" cx="51.068" cy="222.339" r="3.879"/>
		<circle style="fill:none;stroke:#52909D;stroke-miterlimit:10;" cx="71.886" cy="188.074" r="1.94"/>
		<circle style="fill:none;stroke:#52909D;stroke-miterlimit:10;" cx="148.823" cy="151.222" r="5.431"/>
		<circle style="fill:none;stroke:#52909D;stroke-miterlimit:10;" cx="183.477" cy="105.189" r="1.552"/>
		<circle style="fill:none;stroke:#52909D;stroke-miterlimit:10;" cx="105.376" cy="112.171" r="3.104"/>
		<circle style="fill:none;stroke:#52909D;stroke-miterlimit:10;" cx="295.456" cy="97.689" r="2.586"/>
		<circle style="fill:none;stroke:#52909D;stroke-miterlimit:10;" cx="262.001" cy="461.176" r="4.157"/>
		<circle style="fill:none;stroke:#52909D;stroke-miterlimit:10;" cx="391.704" cy="450.783" r="3.326"/>
		<circle style="fill:none;stroke:#52909D;stroke-miterlimit:10;" cx="153.915" cy="453.277" r="3.326"/>
		<circle style="fill:none;stroke:#52909D;stroke-miterlimit:10;" cx="64.745" cy="489.652" r="4.781"/>
		<circle style="fill:none;stroke:#52909D;stroke-miterlimit:10;" cx="369.673" cy="487.889" r="2.957"/>
		<circle style="fill:none;stroke:#52909D;stroke-miterlimit:10;" cx="408.113" cy="65.043" r="4.095"/>
		<circle style="fill:none;stroke:#52909D;stroke-miterlimit:10;" cx="128.112" cy="73.004" r="3.867"/>
		<circle style="fill:none;stroke:#52909D;stroke-miterlimit:10;" cx="52.595" cy="122.135" r="3.412"/>
	</g>
</g>
</svg>
