<?xml version="1.0" encoding="utf-8"?>
<!-- Generator: Adobe Illustrator 16.0.0, SVG Export Plug-In . SVG Version: 6.00 Build 0)  -->
<!DOCTYPE svg PUBLIC "-//W3C//DTD SVG 1.1//EN" "http://www.w3.org/Graphics/SVG/1.1/DTD/svg11.dtd">
<svg version="1.1" id="Layer_1" xmlns="http://www.w3.org/2000/svg" xmlns:xlink="http://www.w3.org/1999/xlink" x="0px" y="0px"
	 width="640px" height="300px" viewBox="0 0 640 300" enable-background="new 0 0 640 300" xml:space="preserve">
<g opacity="0.1">
	<g>
		<g>
			<path fill="#FFFFFF" d="M635.335,135.483l-97.141,25.91l-96.862-26.029c-0.182-0.049-0.182-0.306,0-0.354l98.005-26.181
				l96,26.382C635.476,135.25,635.476,135.445,635.335,135.483z"/>
			<path d="M538.194,162.094c-0.06,0-0.122-0.008-0.183-0.023l-96.863-26.028c-0.386-0.103-0.655-0.454-0.655-0.856
				c0-0.4,0.271-0.752,0.659-0.854l98.005-26.181c0.118-0.031,0.247-0.031,0.366,0.002l95.998,26.382
				c0.367,0.103,0.622,0.438,0.62,0.817s-0.259,0.712-0.626,0.811l-97.141,25.909C538.316,162.086,538.256,162.094,538.194,162.094z
				 M443.386,135.187l94.812,25.478l94.956-25.326l-93.817-25.782L443.386,135.187z M635.335,135.483h0.008H635.335z
				 M441.512,134.684h0.002C441.514,134.684,441.514,134.684,441.512,134.684z"/>
		</g>
		<g>
			<polygon fill="#FFFFFF" points="538.121,299.298 538.214,161.175 636.241,135.258 636.148,272.773 			"/>
			<polygon points="578.063,289.184 578.154,151.061 605.125,143.804 605.032,281.318 			"/>
			<path d="M538.121,300c-0.153,0-0.304-0.05-0.428-0.145c-0.175-0.135-0.274-0.34-0.274-0.559l0.093-138.125
				c0-0.318,0.215-0.596,0.523-0.677l98.023-25.919c0.214-0.055,0.437-0.01,0.609,0.125c0.172,0.132,0.272,0.337,0.272,0.556
				l-0.092,137.517c0,0.314-0.213,0.594-0.521,0.677l-98.025,26.524C538.244,299.992,538.183,300,538.121,300z M538.915,161.715
				l-0.091,136.665l96.621-26.146l0.091-136.064L538.915,161.715z"/>
		</g>
		<g>
			<polygon fill="#FFFFFF" points="538.121,299.298 538.214,161.175 441.073,135.094 440.98,272.771 			"/>
			<polygon points="471.296,142.796 471.203,280.119 497.149,288.204 497.24,150.813 			"/>
			<path d="M536.707,299.561c-0.188,0-0.377-0.023-0.564-0.074l-95.348-26.037c-0.304-0.083-0.517-0.361-0.517-0.68l0.091-136.849
				c0.002-0.42,0.192-0.805,0.523-1.062c0.334-0.254,0.754-0.337,1.161-0.229l96.341,25.866c0.309,0.083,0.521,0.359,0.521,0.679
				l-0.091,136.265c-0.002,0.666-0.307,1.281-0.837,1.686C537.614,299.412,537.164,299.561,536.707,299.561z M441.686,272.234
				l94.828,25.895c0.216,0.059,0.445,0.018,0.623-0.12c0.181-0.138,0.284-0.347,0.284-0.571l0.091-135.725l-95.736-25.703
				L441.686,272.234z M538.121,297.438h0.008H538.121z"/>
		</g>
	</g>
	<g>
		<g>
			<path fill="#FFFFFF" d="M471.688,161.256l19.302-6.701c1.814-0.632,3.635,0.938,3.273,2.829l-2.927,15.293
				c-0.472,2.464,2.575,4.009,4.282,2.173l31.878-34.244c1.286-1.381,0.635-3.633-1.188-4.116l-25.997-6.896
				c-0.832-0.221-1.719,0.002-2.347,0.588l-28.801,26.888C467.188,158.911,469.135,162.141,471.688,161.256z"/>
			<path d="M493.816,176.359c-0.493,0.002-0.996-0.117-1.476-0.357c-1.304-0.661-1.971-2.02-1.693-3.458l2.924-15.292
				c0.123-0.638-0.1-1.271-0.59-1.697c-0.491-0.424-1.15-0.551-1.765-0.337l-19.301,6.699c-1.692,0.592-3.125-0.265-3.79-1.372
				c-0.669-1.104-0.754-2.77,0.557-3.99l28.802-26.887c0.81-0.756,1.934-1.036,3.006-0.754l25.999,6.896
				c1.095,0.29,1.938,1.115,2.253,2.206c0.313,1.089,0.042,2.238-0.731,3.068l-31.878,34.242
				C495.502,176.006,494.671,176.359,493.816,176.359z M491.819,153.71c0.752,0,1.485,0.267,2.082,0.781
				c0.874,0.756,1.267,1.887,1.05,3.022l-2.925,15.295c-0.188,0.979,0.368,1.644,0.95,1.939c0.584,0.294,1.448,0.352,2.127-0.379
				l31.877-34.242c0.437-0.466,0.59-1.111,0.411-1.723c-0.175-0.612-0.647-1.075-1.265-1.237l-25.999-6.896
				c-0.604-0.162-1.231-0.002-1.686,0.422l-28.802,26.887c-0.788,0.734-0.661,1.664-0.313,2.24c0.346,0.576,1.113,1.117,2.127,0.77
				l19.303-6.701C491.107,153.77,491.466,153.71,491.819,153.71z M471.688,161.256h0.008H471.688z"/>
		</g>
		<g>
			<path fill="#FFFFFF" d="M571.905,85.027l-19.129,11.646c-1.357,0.827-3.091-0.184-3.04-1.772l0.655-20.52
				c0.065-2.096-2.727-2.869-3.747-1.036l-25.928,46.566c-0.563,1.016-0.147,2.299,0.905,2.788l23.056,10.707
				c0.924,0.428,2.02,0.097,2.551-0.771l27.424-44.858C575.745,85.988,573.697,83.936,571.905,85.027z"/>
			<path d="M545.521,134.297c-0.384,0-0.771-0.083-1.14-0.252l-23.056-10.707c-0.679-0.316-1.201-0.906-1.434-1.616
				c-0.229-0.712-0.153-1.498,0.209-2.151l25.93-46.566c0.617-1.111,1.854-1.624,3.08-1.291c1.226,0.339,2.021,1.421,1.98,2.691
				l-0.654,20.52c-0.017,0.483,0.225,0.918,0.644,1.163c0.418,0.245,0.915,0.239,1.328-0.014l19.13-11.646
				c1.086-0.661,2.419-0.501,3.317,0.401c0.898,0.899,1.058,2.231,0.395,3.317l-27.424,44.857
				C547.32,133.83,546.438,134.295,545.521,134.297z M548.364,73.016c-0.398,0-0.828,0.176-1.104,0.671l-25.929,46.568
				c-0.178,0.318-0.213,0.685-0.101,1.032c0.111,0.347,0.356,0.622,0.687,0.775l23.058,10.707c0.601,0.278,1.312,0.063,1.653-0.5
				l27.425-44.857c0.394-0.644,0.161-1.243-0.188-1.595c-0.349-0.349-0.949-0.582-1.594-0.189l0,0l-19.129,11.646
				c-0.861,0.524-1.896,0.533-2.767,0.023c-0.872-0.507-1.371-1.411-1.34-2.419l0.654-20.52c0.023-0.752-0.476-1.162-0.95-1.292
				C548.621,73.034,548.495,73.016,548.364,73.016z M571.905,85.027h0.006H571.905z"/>
		</g>
		<g>
			<g>
				<path fill="#FFFFFF" d="M522.963,138.528l15.753-13.093c0,0-7.055-36.886-37.214-42.186c-11.575-2.035-24.16,2.066-35.24,19.634
					C457.424,116.899,474.36,133.019,522.963,138.528z"/>
				<path d="M522.963,139.23c-0.025,0-0.051-0.002-0.079-0.006c-31.56-3.575-52.782-12.133-58.228-23.476
					c-2.076-4.321-1.726-8.899,1.012-13.238c9.896-15.695,21.994-22.406,35.956-19.954c30.284,5.322,37.711,42.374,37.782,42.747
					c0.047,0.252-0.046,0.509-0.243,0.673l-15.75,13.09C523.287,139.173,523.127,139.23,522.963,139.23z M496.156,83.474
					c-11.172,0-21.007,6.634-29.301,19.784c-2.503,3.966-2.815,7.964-0.936,11.881c5.215,10.865,25.918,19.117,56.825,22.657
					l15.192-12.629c-0.886-3.994-8.912-36.367-36.558-41.225C499.609,83.63,497.865,83.474,496.156,83.474z"/>
			</g>
			<g>
				<path fill="#FFFFFF" d="M522.963,138.528c0,0-5.201-33.054-34.554-39.929C459.058,91.725,443.31,129.498,522.963,138.528z"/>
				<path d="M522.963,139.23c-0.025,0-0.051-0.002-0.079-0.006c-45.86-5.197-55.996-19.056-58.224-24.772
					c-1.633-4.187-0.953-8.311,1.912-11.614c4.412-5.085,13.047-7.017,21.999-4.921c29.471,6.9,35.032,40.167,35.086,40.502
					c0.034,0.215-0.035,0.437-0.186,0.594C523.338,139.153,523.154,139.23,522.963,139.23z M481.487,98.483
					c-5.804,0-10.893,1.859-13.854,5.274c-2.509,2.891-3.101,6.508-1.666,10.184c1.363,3.5,5.197,8.718,15.715,13.696
					c9.955,4.712,23.55,8.104,40.41,10.083c-1.119-5.344-8.022-32.391-33.843-38.437C485.945,98.743,483.666,98.483,481.487,98.483z
					"/>
			</g>
		</g>
		<g>
			<g>
				<path fill="#FFFFFF" d="M523.139,137.977l17.867-16.996c0,0,21.843-23.104,43.948-13.264
					c12.848,5.72,17.195,18.081,18.399,28.667c0.014,0.099,0.024,0.197,0.034,0.294c0.756,7.425-3.915,14.329-11.017,16.621
					l-21.188,6.835C571.184,160.135,550.661,163.665,523.139,137.977z"/>
				<path d="M568.282,161.021c-6.72,0-23.949-2.302-45.623-22.53c-0.141-0.132-0.222-0.318-0.224-0.511
					c0-0.193,0.079-0.379,0.22-0.511l17.868-16.996c0.194-0.209,22.416-23.328,44.715-13.396
					c13.482,6.002,17.673,19.208,18.814,29.228l0.033,0.308c0.779,7.652-4.055,14.954-11.5,17.357l-21.187,6.835
					c-0.031,0.01-0.065,0.019-0.098,0.023C571.124,160.855,570.078,161.021,568.282,161.021z M524.165,137.969
					c26.026,24.006,45.791,21.633,46.856,21.479l21.135-6.817c6.815-2.201,11.246-8.878,10.531-15.879l-0.027-0.274
					c-1.102-9.671-5.116-22.386-17.992-28.119c-21.388-9.517-42.936,12.877-43.15,13.104L524.165,137.969z"/>
			</g>
			<g>
				<path fill="#FFFFFF" d="M523.139,137.977c0,0,22.824-22.214,45.568-9.337C599.528,146.091,575.71,184.038,523.139,137.977z"/>
				<path d="M566.672,160.688c-11.864,0-27.602-7.817-43.995-22.184c-0.146-0.128-0.233-0.313-0.239-0.509
					c-0.005-0.195,0.071-0.387,0.213-0.523c0.231-0.225,23.466-22.43,46.403-9.444c9.219,5.221,14.458,12.727,14.02,20.083
					c-0.296,4.972-3.276,8.999-8.174,11.044C572.44,160.184,569.682,160.688,566.672,160.688z M524.192,137.963
					c29.475,25.585,45.832,21.708,50.166,19.898c4.382-1.834,7.048-5.416,7.313-9.834c0.4-6.705-4.7-13.899-13.312-18.775
					C548.277,117.88,527.817,134.733,524.192,137.963z"/>
			</g>
		</g>
	</g>
</g>
<g opacity="0.4">
	<path fill="none" d="M279.817,231.396l-1.833-6.701l-7.576,0.345c-0.703-1.476-1.516-2.875-2.435-4.183l4.011-6.431l-4.937-4.887
		l-6.39,4.09c-1.332-0.913-2.735-1.714-4.198-2.396l0.261-7.586l-6.716-1.762l-3.486,6.729c-1.593-0.125-3.21-0.112-4.837,0.036
		l-3.563-6.7l-6.697,1.836l0.345,7.581c-1.475,0.701-2.873,1.516-4.18,2.436l-6.426-4.015l-4.882,4.94l4.086,6.396
		c-0.913,1.331-1.713,2.735-2.393,4.2l-7.581-0.262l-1.76,6.72l6.724,3.489c-0.125,1.595-0.112,3.213,0.035,4.84l-6.694,3.566
		l1.834,6.701l7.575-0.346c0.703,1.477,1.516,2.875,2.435,4.184l-4.011,6.43l4.937,4.887l6.39-4.09
		c1.33,0.914,2.734,1.715,4.197,2.396l-0.262,7.586l6.716,1.763l3.486-6.729c1.594,0.123,3.21,0.11,4.837-0.036l3.563,6.7
		l6.696-1.836l-0.344-7.581c1.475-0.702,2.873-1.518,4.181-2.436l6.425,4.013l4.882-4.938l-4.087-6.396
		c0.913-1.331,1.713-2.736,2.394-4.2l7.581,0.262l1.76-6.722l-6.724-3.488c0.125-1.595,0.112-3.213-0.034-4.84L279.817,231.396z
		 M248.978,254.79c-9.521,2.608-19.353-3-21.959-12.526c-2.607-9.529,2.998-19.367,12.519-21.977
		c9.521-2.607,19.352,3,21.959,12.527S258.499,252.182,248.978,254.79z"/>
	<path fill="#B9CEEB" d="M238.509,273.573c-0.032,0-0.065-0.005-0.097-0.013l-6.716-1.763c-0.174-0.046-0.292-0.205-0.286-0.384
		l0.253-7.334c-1.319-0.628-2.599-1.357-3.812-2.174l-6.176,3.953c-0.151,0.097-0.35,0.074-0.477-0.051l-4.936-4.888
		c-0.128-0.126-0.151-0.323-0.056-0.476l3.877-6.215c-0.82-1.19-1.563-2.467-2.211-3.801l-7.322,0.334
		c-0.178,0.012-0.341-0.109-0.388-0.283l-1.834-6.701c-0.047-0.172,0.032-0.355,0.19-0.439l6.471-3.445
		c-0.121-1.479-0.131-2.955-0.032-4.397l-6.5-3.371c-0.16-0.083-0.24-0.265-0.194-0.438l1.76-6.722
		c0.046-0.173,0.212-0.296,0.385-0.286l7.328,0.252c0.627-1.318,1.356-2.6,2.173-3.813l-3.951-6.182
		c-0.096-0.15-0.075-0.35,0.05-0.478l4.882-4.94c0.126-0.127,0.324-0.149,0.477-0.055l6.21,3.88
		c1.189-0.821,2.464-1.563,3.797-2.213l-0.333-7.328c-0.008-0.18,0.109-0.34,0.282-0.388l6.696-1.835
		c0.174-0.045,0.356,0.032,0.44,0.188l3.444,6.478c1.478-0.121,2.953-0.132,4.394-0.033l3.369-6.505
		c0.083-0.158,0.264-0.24,0.438-0.193l6.716,1.762c0.173,0.045,0.292,0.205,0.286,0.385l-0.253,7.334
		c1.319,0.627,2.6,1.357,3.813,2.174l6.176-3.953c0.152-0.096,0.349-0.074,0.478,0.051l4.936,4.887
		c0.127,0.127,0.151,0.324,0.055,0.477l-3.876,6.214c0.82,1.191,1.563,2.468,2.21,3.8l7.322-0.332
		c0.179-0.012,0.341,0.109,0.388,0.281l1.834,6.702c0.047,0.173-0.032,0.356-0.189,0.44l-6.472,3.445
		c0.121,1.479,0.132,2.953,0.033,4.397l6.499,3.37c0.16,0.082,0.241,0.266,0.195,0.438l-1.761,6.723
		c-0.045,0.174-0.201,0.31-0.385,0.287l-7.328-0.254c-0.627,1.32-1.357,2.603-2.172,3.814l3.95,6.182
		c0.096,0.151,0.076,0.35-0.05,0.477l-4.882,4.939c-0.126,0.129-0.324,0.151-0.477,0.057l-6.21-3.881
		c-1.189,0.82-2.464,1.563-3.797,2.213l0.333,7.328c0.008,0.179-0.109,0.34-0.282,0.388l-6.697,1.836
		c-0.173,0.045-0.356-0.032-0.44-0.19l-3.444-6.476c-1.477,0.122-2.953,0.132-4.393,0.032l-3.369,6.504
		C238.783,273.496,238.65,273.573,238.509,273.573z M232.187,271.135l6.123,1.605l3.345-6.457c0.071-0.137,0.22-0.217,0.371-0.207
		c1.56,0.123,3.166,0.111,4.772-0.033c0.15-0.016,0.3,0.066,0.373,0.202l3.419,6.428l6.105-1.672l-0.33-7.276
		c-0.007-0.152,0.079-0.295,0.218-0.363c1.456-0.693,2.844-1.502,4.125-2.402c0.126-0.089,0.292-0.094,0.424-0.012l6.164,3.852
		l4.452-4.504l-3.921-6.136c-0.083-0.132-0.081-0.298,0.006-0.425c0.897-1.31,1.691-2.703,2.361-4.145
		c0.064-0.14,0.199-0.23,0.361-0.222l7.273,0.25l1.605-6.128l-6.452-3.348c-0.137-0.07-0.218-0.217-0.206-0.369
		c0.122-1.563,0.111-3.172-0.034-4.775c-0.014-0.154,0.065-0.303,0.202-0.375l6.424-3.42l-1.672-6.11l-7.268,0.33
		c-0.152,0.013-0.298-0.077-0.365-0.219c-0.692-1.455-1.5-2.845-2.402-4.126c-0.088-0.127-0.093-0.293-0.011-0.424l3.848-6.172
		l-4.5-4.453l-6.132,3.925c-0.129,0.082-0.296,0.08-0.424-0.007c-1.309-0.898-2.704-1.694-4.142-2.362
		c-0.14-0.065-0.227-0.207-0.221-0.36l0.251-7.281l-6.123-1.604l-3.344,6.456c-0.071,0.137-0.217,0.223-0.371,0.206
		c-1.56-0.122-3.166-0.11-4.773,0.034c-0.152,0.013-0.3-0.064-0.373-0.201l-3.419-6.429l-6.104,1.673l0.331,7.275
		c0.006,0.153-0.08,0.297-0.219,0.362c-1.456,0.693-2.843,1.502-4.124,2.403c-0.126,0.09-0.293,0.094-0.424,0.012l-6.165-3.852
		l-4.451,4.504l3.921,6.137c0.083,0.129,0.08,0.296-0.006,0.424c-0.899,1.311-1.693,2.706-2.362,4.146
		c-0.065,0.14-0.199,0.239-0.361,0.222l-7.274-0.251l-1.605,6.128l6.453,3.348c0.136,0.069,0.218,0.217,0.206,0.369
		c-0.123,1.563-0.111,3.17,0.035,4.776c0.014,0.153-0.066,0.301-0.202,0.373l-6.424,3.422l1.672,6.108l7.269-0.33
		c0.155-0.012,0.297,0.08,0.364,0.219c0.693,1.457,1.501,2.847,2.402,4.128c0.088,0.126,0.093,0.293,0.011,0.424l-3.849,6.171
		l4.5,4.453l6.131-3.925c0.13-0.082,0.297-0.079,0.424,0.008c1.31,0.898,2.703,1.692,4.142,2.362
		c0.14,0.064,0.227,0.207,0.222,0.361L232.187,271.135z M244.229,255.816c-3.13,0-6.221-0.813-9.014-2.405
		c-4.237-2.417-7.279-6.341-8.567-11.047c-2.659-9.718,3.078-19.786,12.788-22.447c4.704-1.287,9.627-0.667,13.864,1.75
		c4.237,2.417,7.279,6.34,8.567,11.047c2.658,9.718-3.078,19.786-12.788,22.446C247.477,255.6,245.847,255.816,244.229,255.816z
		 M244.285,220.029c-1.55,0-3.11,0.207-4.646,0.628c-9.302,2.549-14.797,12.196-12.25,21.504c1.233,4.509,4.148,8.269,8.207,10.584
		c4.059,2.315,8.775,2.911,13.281,1.675c9.301-2.549,14.796-12.195,12.25-21.503c-1.233-4.51-4.148-8.269-8.207-10.584
		C250.245,220.809,247.283,220.029,244.285,220.029z M248.978,254.79h0.004H248.978z"/>
</g>
<g>
	<g>
		<path fill="#B9CEEB" d="M79.766,4.565c-0.044,0-0.088-0.008-0.131-0.023c-0.2-0.073-0.302-0.292-0.23-0.492l1.018-2.797
			c0.072-0.2,0.293-0.302,0.492-0.229c0.199,0.072,0.302,0.293,0.229,0.492l-1.018,2.797C80.07,4.468,79.922,4.565,79.766,4.565z"/>
		<path fill="#B9CEEB" d="M77.395,11.082c-0.043,0-0.088-0.008-0.131-0.024c-0.2-0.072-0.302-0.292-0.23-0.492l1.019-2.797
			c0.072-0.199,0.293-0.302,0.491-0.229c0.199,0.072,0.302,0.293,0.229,0.492l-1.018,2.797
			C77.699,10.985,77.551,11.082,77.395,11.082z"/>
		<path fill="#B9CEEB" d="M77.229,5.748c-0.043,0-0.088-0.007-0.131-0.023l-2.797-1.018C74.102,4.634,74,4.415,74.072,4.215
			c0.072-0.199,0.292-0.301,0.492-0.229l2.796,1.018c0.2,0.072,0.303,0.292,0.23,0.492C77.534,5.651,77.386,5.748,77.229,5.748z"/>
		<path fill="#B9CEEB" d="M83.746,8.12c-0.044,0-0.088-0.008-0.131-0.023l-2.797-1.018c-0.2-0.072-0.302-0.293-0.229-0.492
			c0.073-0.199,0.292-0.301,0.491-0.229l2.798,1.018c0.199,0.073,0.302,0.293,0.229,0.492C84.05,8.022,83.902,8.12,83.746,8.12z"/>
	</g>
	<path fill="#B9CEEB" d="M5.454,46.139c-0.537,0-1.074-0.101-1.589-0.3c-1.122-0.436-2.006-1.293-2.489-2.413
		c-0.986-2.287,0.036-4.966,2.279-5.974c1.08-0.485,2.282-0.516,3.384-0.088c1.122,0.436,2.006,1.292,2.489,2.413
		c0.986,2.287-0.037,4.966-2.28,5.974C6.674,46.009,6.064,46.139,5.454,46.139z M3.97,38.152c-1.862,0.836-2.71,3.066-1.889,4.969
		c0.401,0.93,1.133,1.641,2.063,2.002c0.908,0.353,1.899,0.327,2.791-0.072c1.863-0.837,2.711-3.066,1.89-4.97
		c-0.401-0.93-1.134-1.64-2.063-2.001C5.853,37.727,4.861,37.753,3.97,38.152z"/>
	<path fill="#B9CEEB" d="M54.958,16.206c-0.537,0-1.074-0.1-1.589-0.3c-1.122-0.438-2.006-1.292-2.488-2.413
		c-0.987-2.286,0.037-4.966,2.28-5.974c1.079-0.485,2.281-0.515,3.384-0.088c1.122,0.437,2.005,1.293,2.488,2.413
		c0.986,2.286-0.037,4.966-2.28,5.974C56.179,16.076,55.568,16.206,54.958,16.206z M54.956,7.899c-0.503,0-1.006,0.107-1.481,0.32
		c-1.863,0.837-2.71,3.066-1.889,4.969c0.4,0.93,1.133,1.641,2.062,2.002c0.908,0.353,1.899,0.327,2.792-0.073
		c1.862-0.837,2.71-3.066,1.889-4.969c-0.401-0.93-1.133-1.64-2.062-2.002C55.841,7.981,55.398,7.899,54.956,7.899z"/>
	<g>
		<path fill="#B9CEEB" d="M30.266,28.824c-0.096,0-0.191-0.035-0.266-0.106c-0.153-0.146-0.158-0.39-0.012-0.542l1.413-1.475
			c0.146-0.153,0.39-0.158,0.542-0.012c0.153,0.146,0.159,0.39,0.012,0.542l-1.412,1.474C30.468,28.784,30.367,28.824,30.266,28.824
			z"/>
		<path fill="#B9CEEB" d="M25.324,33.982c-0.096,0-0.191-0.035-0.266-0.107c-0.152-0.146-0.158-0.389-0.011-0.542l1.412-1.474
			c0.146-0.152,0.39-0.159,0.543-0.011c0.153,0.146,0.158,0.389,0.011,0.542l-1.412,1.473
			C25.526,33.942,25.425,33.982,25.324,33.982z"/>
		<path fill="#B9CEEB" d="M26.709,28.902c-0.097,0-0.194-0.037-0.269-0.11l-1.434-1.41c-0.151-0.149-0.152-0.392-0.004-0.543
			c0.149-0.151,0.392-0.153,0.543-0.004l1.433,1.41c0.151,0.149,0.152,0.392,0.004,0.543C26.908,28.864,26.808,28.902,26.709,28.902
			z"/>
		<path fill="#B9CEEB" d="M31.726,33.84c-0.098,0-0.195-0.037-0.27-0.11l-1.433-1.411c-0.151-0.149-0.153-0.392-0.004-0.542
			c0.149-0.151,0.393-0.153,0.543-0.004l1.433,1.411c0.151,0.148,0.153,0.391,0.004,0.542C31.924,33.802,31.825,33.84,31.726,33.84z
			"/>
	</g>
</g>
<g>
	<g>
		<g>
			<path fill="#B9CEEB" d="M471.872,299.092l-7.188,0.524l-133.28-0.524c-6.055,0-10.343-4.883-9.578-10.904l34.587-272.762
				c0.765-6.023,6.29-10.906,12.343-10.906l133.418-1.556c15.314,0,17.394,6.438,16.629,12.462l-34.588,272.762
				C483.451,294.209,477.925,299.092,471.872,299.092z"/>
			<path fill="#FFFFFF" d="M463.419,299.616H322.95c-6.053,0-10.341-4.907-9.577-10.962l34.588-274.112
				c0.764-6.053,6.29-10.96,12.344-10.96h140.47c6.053,0,10.341,4.908,9.575,10.96l-34.588,274.112
				C474.999,294.709,469.472,299.616,463.419,299.616z"/>
			<path fill="#6EA2E0" d="M464.813,291.947H323.589c-0.784,0-1.486-0.307-1.978-0.864c-0.496-0.563-0.714-1.308-0.614-2.099
				l33.024-261.731c0.2-1.58,1.648-2.866,3.23-2.866h141.225c0.783,0,1.485,0.307,1.978,0.864c0.496,0.563,0.715,1.307,0.614,2.098
				L468.043,289.08C467.844,290.662,466.395,291.947,464.813,291.947z M321.377,289.033l0.381,0.048
				c-0.072,0.569,0.08,1.101,0.43,1.494c0.343,0.39,0.841,0.604,1.4,0.604h141.226c1.208,0,2.314-0.984,2.469-2.195l33.024-261.731
				c0.071-0.569-0.081-1.1-0.43-1.494c-0.343-0.39-0.841-0.604-1.4-0.604H357.253c-1.209,0-2.315,0.984-2.469,2.194L321.759,289.08
				L321.377,289.033z"/>
			<path fill="#B9CEEB" d="M428.779,17.907c-1.202,0-2.278-0.469-3.029-1.321c-0.758-0.86-1.093-2.003-0.939-3.216
				c0.311-2.449,2.557-4.442,5.006-4.442c1.201,0,2.277,0.469,3.029,1.322c0.758,0.86,1.093,2.002,0.938,3.216
				C433.476,15.915,431.23,17.907,428.779,17.907z M429.815,9.695c-2.077,0-3.98,1.691-4.243,3.77
				c-0.125,0.992,0.142,1.92,0.753,2.614c0.604,0.684,1.476,1.061,2.454,1.061c2.077,0,3.98-1.691,4.243-3.77
				c0.125-0.992-0.144-1.92-0.754-2.613C431.666,10.072,430.795,9.695,429.815,9.695z"/>
			<path fill="#6EA2E0" d="M488.776,185.911c-0.018,0-0.033-0.001-0.05-0.002c-0.21-0.026-0.359-0.22-0.333-0.429L509.97,14.495
				c0.357-2.833-0.412-5.489-2.167-7.479c-1.732-1.966-4.229-3.049-7.028-3.049h-140.47c-5.856,0-11.223,4.766-11.963,10.625
				l-3.366,26.677c-0.025,0.21-0.219,0.359-0.429,0.333c-0.211-0.027-0.359-0.218-0.332-0.429l3.365-26.677
				C348.367,8.267,354.073,3.2,360.305,3.2h140.47c3.021,0,5.724,1.175,7.604,3.309c1.901,2.158,2.737,5.028,2.354,8.083
				l-21.576,170.985C489.132,185.771,488.966,185.911,488.776,185.911z"/>
			<path fill="#6EA2E0" d="M322.953,300c-3.025,0-5.726-1.175-7.608-3.311c-1.902-2.157-2.738-5.027-2.352-8.082l12.354-97.922
				c0.027-0.209,0.218-0.358,0.431-0.332c0.21,0.026,0.358,0.219,0.332,0.43l-12.355,97.921c-0.357,2.832,0.412,5.487,2.167,7.478
				c1.734,1.969,4.231,3.051,7.03,3.051l66.629-0.395c0,0,0.001,0,0.002,0c0.21,0,0.383,0.169,0.384,0.381
				c0.001,0.213-0.17,0.387-0.382,0.387L322.953,300z"/>
		</g>
		<g>
			<path fill="#6EA2E0" d="M343.209,237.539c-0.115,0-0.229-0.053-0.304-0.15c-0.13-0.168-0.1-0.408,0.069-0.537l29.55-22.74
				c0.17-0.129,0.409-0.098,0.539,0.068c0.129,0.168,0.098,0.41-0.069,0.539l-29.551,22.74
				C343.373,237.514,343.291,237.539,343.209,237.539z"/>
			<path fill="#6EA2E0" d="M377.487,211.16c-0.115,0-0.229-0.051-0.306-0.149c-0.13-0.168-0.098-0.409,0.07-0.538l12.521-9.637
				c0.17-0.128,0.409-0.097,0.539,0.07c0.129,0.168,0.098,0.408-0.07,0.539l-12.521,9.636
				C377.651,211.134,377.568,211.16,377.487,211.16z"/>
			<path fill="#6EA2E0" d="M337.07,257.492c-0.115,0-0.229-0.051-0.306-0.15c-0.129-0.168-0.098-0.408,0.07-0.537l14.375-11.063
				c0.167-0.131,0.408-0.1,0.538,0.068c0.129,0.17,0.098,0.41-0.07,0.539l-14.374,11.063
				C337.234,257.466,337.152,257.492,337.07,257.492z"/>
			<path fill="#6EA2E0" d="M358.203,241.229c-0.114,0-0.229-0.051-0.305-0.147c-0.13-0.169-0.099-0.41,0.069-0.539l25.666-19.751
				c0.168-0.129,0.408-0.098,0.538,0.07c0.129,0.166,0.098,0.408-0.07,0.537l-25.666,19.752
				C358.368,241.202,358.285,241.229,358.203,241.229z"/>
			<path fill="#6EA2E0" d="M366.617,255.957c-0.115,0-0.229-0.051-0.305-0.148c-0.13-0.168-0.1-0.41,0.068-0.539l21.355-16.435
				c0.168-0.128,0.407-0.097,0.538,0.069c0.128,0.17,0.097,0.41-0.07,0.539l-21.354,16.435
				C366.78,255.932,366.698,255.957,366.617,255.957z"/>
		</g>
	</g>
	<g>
		<g opacity="0.3">
			<path fill="#B9CEEB" d="M268.785,67.993h-15.917c-1.228,0-2.343-0.484-3.142-1.365c-0.828-0.914-1.214-2.133-1.086-3.434
				c0.253-2.592,2.523-4.702,5.06-4.702h15.917c1.228,0,2.343,0.486,3.142,1.365c0.827,0.914,1.213,2.133,1.087,3.434
				C273.59,65.884,271.32,67.993,268.785,67.993z M253.699,59.496c-2.034,0-3.856,1.703-4.061,3.795
				c-0.099,1.017,0.196,1.961,0.831,2.662c0.606,0.668,1.458,1.036,2.398,1.036h15.917c2.034,0,3.855-1.702,4.061-3.795
				c0.099-1.016-0.196-1.961-0.833-2.662c-0.605-0.668-1.457-1.035-2.397-1.035L253.699,59.496L253.699,59.496z"/>
			<path fill="#B9CEEB" d="M315.202,174.645h-77.728c-1.228,0-2.344-0.483-3.141-1.364c-0.829-0.913-1.216-2.134-1.087-3.437
				c0.254-2.592,2.523-4.701,5.06-4.701h77.728c1.228,0,2.343,0.486,3.142,1.366c0.828,0.913,1.214,2.134,1.087,3.435
				C320.008,172.534,317.738,174.645,315.202,174.645z M238.306,166.146c-2.035,0-3.857,1.703-4.062,3.797
				c-0.1,1.016,0.196,1.959,0.832,2.66c0.605,0.67,1.458,1.037,2.398,1.037h77.728c2.035,0,3.855-1.703,4.062-3.798
				c0.099-1.014-0.197-1.96-0.832-2.661c-0.606-0.666-1.457-1.035-2.399-1.035H238.306z"/>
			<path fill="#B9CEEB" d="M324.67,192.221h-90.314c-1.228,0-2.343-0.484-3.142-1.365c-0.828-0.914-1.215-2.131-1.086-3.435
				c0.253-2.591,2.523-4.702,5.06-4.702h90.314c1.227,0,2.343,0.485,3.141,1.366c0.829,0.913,1.216,2.134,1.088,3.435
				C329.476,190.111,327.207,192.221,324.67,192.221z M235.188,183.723c-2.034,0-3.857,1.703-4.061,3.797
				c-0.1,1.017,0.196,1.961,0.83,2.662c0.606,0.668,1.458,1.034,2.399,1.034h90.314c2.034,0,3.856-1.7,4.062-3.795
				c0.1-1.016-0.196-1.962-0.832-2.662c-0.604-0.667-1.457-1.036-2.396-1.036H235.188z"/>
			<path fill="#B9CEEB" d="M361.719,67.993h-68.066c-1.227,0-2.342-0.484-3.141-1.365c-0.827-0.914-1.213-2.133-1.086-3.434
				c0.253-2.592,2.523-4.702,5.06-4.702h68.064c1.23,0,2.345,0.486,3.145,1.365c0.828,0.914,1.215,2.133,1.087,3.434
				C366.525,65.884,364.257,67.993,361.719,67.993z M294.484,59.496c-2.035,0-3.856,1.703-4.06,3.795
				c-0.1,1.017,0.195,1.961,0.831,2.662c0.606,0.668,1.457,1.036,2.397,1.036h68.066c2.033,0,3.856-1.702,4.063-3.795
				c0.098-1.016-0.199-1.961-0.832-2.662c-0.607-0.668-1.459-1.035-2.4-1.035L294.484,59.496L294.484,59.496z"/>
		</g>
		<g>
			<path fill="#6EA2E0" d="M461.004,139.18l-326.321,2.189c-1.523,0.012-2.71-2.046-2.542-4.402l2.936-41.341
				c0.104-1.454,0.895-2.554,1.834-2.546l327.29,2.729c1.135,0.009,2.009,1.562,1.869,3.313l-2.955,37.14
				C462.983,137.922,462.08,139.171,461.004,139.18z"/>
			<path fill="#B9CEEB" d="M409.451,211.486h-23.033c-0.843,0-1.459-0.793-1.376-1.771l15.157-175.073
				c0.084-0.979,0.838-1.772,1.683-1.772h23.032c0.844,0,1.46,0.793,1.376,1.772l-15.155,175.073
				C411.05,210.693,410.294,211.486,409.451,211.486z"/>
			<g>
				<g>
					<g>
						<path d="M419.778,123.675c8.538,20.103,13.696,35.806,14.877,41.979c0.292,1.533-0.679,3.173-2.213,3.662
							c-2.317,0.738-4.615,1.1-6.895,1.119l-11.514-45.18L419.778,123.675z"/>
						<path d="M425.549,170.939c-0.229,0-0.429-0.156-0.484-0.379l-11.516-45.181c-0.066-0.267,0.088-0.536,0.353-0.608l5.745-1.581
							c0.244-0.067,0.496,0.057,0.596,0.288c8.576,20.192,13.738,35.968,14.906,42.08c0.346,1.809-0.775,3.668-2.552,4.234
							c-2.313,0.739-4.683,1.124-7.042,1.146C425.552,170.939,425.55,170.939,425.549,170.939z M414.643,125.609l11.297,44.318
							c2.129-0.056,4.264-0.423,6.353-1.091c1.279-0.406,2.118-1.794,1.871-3.088c-1.151-6.021-6.229-21.541-14.674-41.473
							L414.643,125.609z"/>
					</g>
					<g>
						<path fill="#FFFFFF" d="M417.62,124.07c4.855,30.543,9.795,46.104,13.79,45.577c-16.585,3.518-38.332,2.656-61.86-0.076
							c-2.189-0.254-3.635-2.238-3.287-4.521c1.953-12.785,8.238-25.818,17.237-39.003L417.62,124.07z"/>
						<path d="M405.469,172.479c-10.268,0-22.135-0.803-35.976-2.408c-1.163-0.137-2.189-0.715-2.887-1.627
							c-0.735-0.965-1.035-2.195-0.841-3.469c1.83-11.988,7.494-24.815,17.317-39.21c0.088-0.129,0.231-0.21,0.387-0.219
							l34.12-1.975c0.256-0.011,0.484,0.167,0.523,0.421c6.777,42.618,11.852,45.346,13.229,45.157
							c0.271-0.039,0.516,0.147,0.561,0.412c0.045,0.266-0.127,0.521-0.392,0.576C424.152,171.698,415.588,172.479,405.469,172.479z
							 M383.773,126.534c-9.651,14.185-15.219,26.81-17.015,38.591c-0.152,1.002,0.075,1.964,0.646,2.711
							c0.528,0.694,1.311,1.135,2.202,1.234c26.344,3.062,45.492,3.201,60.017,0.424c-4.934-4.061-9.4-25.938-12.43-44.896
							L383.773,126.534z"/>
					</g>
					<path d="M407.205,140.38c-0.001,0-0.002,0-0.003,0c-0.279-0.002-0.501-0.229-0.497-0.507l0.13-13.172
						c0.005-0.276,0.228-0.497,0.503-0.497c0.002,0,0.004,0,0.005,0c0.277,0.002,0.499,0.229,0.496,0.507l-0.131,13.173
						C407.705,140.157,407.48,140.38,407.205,140.38z"/>
					<path d="M390.075,139.458c-0.053,0-0.104-0.008-0.157-0.025c-0.263-0.087-0.405-0.369-0.32-0.633l4.026-12.251
						c0.086-0.263,0.37-0.405,0.635-0.321c0.264,0.089,0.404,0.372,0.319,0.635l-4.025,12.25
						C390.482,139.324,390.285,139.458,390.075,139.458z"/>
				</g>
				<g>
					<g>
						<path d="M420.655,109.647c11.439-20.511,18.899-36.472,21.003-42.712c0.521-1.55-0.176-3.155-1.6-3.583
							c-2.151-0.649-4.345-0.917-6.565-0.846l-18.209,45.789L420.655,109.647z"/>
						<path d="M420.657,110.15c-0.042,0-0.082-0.005-0.124-0.016l-5.372-1.353c-0.143-0.036-0.261-0.129-0.325-0.258
							c-0.066-0.128-0.073-0.279-0.021-0.414l18.211-45.789c0.073-0.185,0.25-0.31,0.449-0.315c2.313-0.078,4.572,0.216,6.729,0.866
							c0.762,0.229,1.388,0.754,1.761,1.477c0.419,0.816,0.481,1.817,0.168,2.749c-2.082,6.174-9.551,22.199-21.04,42.796
							C421.004,110.054,420.835,110.15,420.657,110.15z M415.959,107.948l4.446,1.119c11.35-20.377,18.722-36.193,20.776-42.292
							c0.229-0.675,0.188-1.392-0.11-1.967c-0.246-0.478-0.658-0.826-1.157-0.976c-1.948-0.587-3.991-0.875-6.077-0.832
							L415.959,107.948z"/>
					</g>
					<g>
						<path fill="#FFFFFF" d="M418.605,109.339c9.445-30.834,16.67-46.643,20.492-46.277c-15.67-2.856-37.061-1.113-60.479,2.58
							c-2.181,0.344-3.896,2.394-3.908,4.667c-0.062,12.748,4.079,25.566,10.846,38.429L418.605,109.339z"/>
						<path d="M418.605,109.841c-0.003,0-0.008,0-0.011,0l-33.051-0.603c-0.181-0.003-0.348-0.105-0.435-0.268
							c-7.395-14.056-10.96-26.703-10.903-38.666c0.013-2.511,1.915-4.779,4.332-5.16c27.361-4.314,46.633-5.133,60.649-2.578
							c0.266,0.048,0.444,0.296,0.405,0.563c-0.035,0.267-0.269,0.465-0.543,0.431c-1.316-0.135-6.753,2.795-19.967,45.924
							C419.021,109.697,418.825,109.841,418.605,109.841z M385.861,108.241l32.375,0.59c5.883-19.158,13.628-41.356,19.05-45.567
							c-13.755-2.169-32.454-1.248-58.591,2.874c-1.944,0.307-3.475,2.141-3.484,4.175C375.155,82.03,378.638,94.44,385.861,108.241
							z"/>
					</g>
					<path d="M408.961,107.615c-0.021,0-0.049-0.001-0.072-0.005c-0.272-0.04-0.465-0.294-0.426-0.568l1.897-13.209
						c0.04-0.274,0.289-0.464,0.568-0.425c0.273,0.039,0.465,0.294,0.425,0.569l-1.896,13.208
						C409.42,107.434,409.206,107.615,408.961,107.615z"/>
					<path d="M396.02,108.15c-0.239,0-0.451-0.173-0.494-0.418l-2.051-12.126c-0.045-0.273,0.14-0.533,0.41-0.579
						c0.277-0.046,0.534,0.138,0.58,0.412l2.051,12.126c0.045,0.273-0.139,0.532-0.412,0.578
						C396.075,108.147,396.048,108.15,396.02,108.15z"/>
				</g>
				<g>
					<path fill="#FFFFFF" d="M388.099,107.869h30.6c1.879,0,3.247,1.56,3.059,3.484l-1.135,11.604
						c-0.188,1.925-1.863,3.484-3.739,3.484h-30.6c-1.878,0-3.247-1.56-3.062-3.484l1.137-11.604
						C384.548,109.429,386.221,107.869,388.099,107.869z"/>
					<path d="M416.882,126.944h-30.6c-1.035,0-1.973-0.408-2.646-1.149c-0.693-0.768-1.021-1.793-0.914-2.886l1.137-11.604
						c0.214-2.171,2.115-3.938,4.239-3.938h30.601c1.032,0,1.972,0.408,2.644,1.148c0.695,0.769,1.021,1.794,0.915,2.887
						l-1.138,11.605C420.909,125.178,419.006,126.944,416.882,126.944z M388.099,108.371c-1.622,0-3.077,1.36-3.24,3.032
						l-1.136,11.605c-0.078,0.808,0.156,1.558,0.659,2.113c0.479,0.528,1.154,0.819,1.9,0.819h30.6c1.621,0,3.076-1.359,3.24-3.031
						l1.135-11.604c0.079-0.808-0.154-1.559-0.659-2.114c-0.479-0.528-1.153-0.82-1.898-0.82H388.099z"/>
				</g>
			</g>
		</g>
	</g>
</g>
<g>
	<g>
		<g>
			<g>
				<polygon fill="#FFFFFF" points="49.621,271.54 44.537,288.266 37.104,286.125 42.509,268.545 				"/>
				<path d="M44.537,288.648c-0.035,0-0.071-0.004-0.106-0.015l-7.433-2.142c-0.099-0.027-0.182-0.096-0.231-0.186
					c-0.049-0.091-0.06-0.197-0.029-0.296l5.405-17.579c0.032-0.104,0.106-0.189,0.205-0.236c0.099-0.045,0.211-0.047,0.311-0.006
					l7.112,2.996c0.181,0.075,0.276,0.275,0.218,0.465l-5.085,16.727C44.853,288.543,44.701,288.648,44.537,288.648z
					 M37.585,285.864l6.694,1.93l4.874-16.035l-6.402-2.694L37.585,285.864z"/>
			</g>
			<g>
				<path fill="#FFFFFF" d="M45.224,285.744l-7.413-2.352c-0.526-0.166-1.099,0-1.454,0.422c-1.164,1.391-3.688,4.701-4.631,8.303
					c-0.258,0.984,0.307,1.998,1.276,2.306l10.534,3.339c2.314,0.734,4.701,1.215,7.118,1.434c0,0,7.785,0.822,7.876-1.656
					c0.13-3.561-5.114-4.271-5.817-4.99c-2.695-2.759-5.515-5.333-6.551-6.268C45.891,286.036,45.572,285.855,45.224,285.744z"/>
				<path d="M53.394,299.718c-1.364,0-2.517-0.112-2.78-0.142c-2.435-0.221-4.856-0.707-7.193-1.448l-10.534-3.34
					c-1.167-0.371-1.84-1.586-1.531-2.769c0.974-3.718,3.617-7.147,4.708-8.451c0.456-0.543,1.188-0.756,1.864-0.541l7.413,2.352
					c0.403,0.128,0.767,0.335,1.079,0.617c1.081,0.975,3.885,3.537,6.568,6.283c0.125,0.128,0.68,0.338,1.169,0.523
					c1.819,0.689,4.863,1.846,4.757,4.749c-0.016,0.433-0.205,0.81-0.562,1.118C57.371,299.521,55.197,299.718,53.394,299.718z
					 M37.397,283.713c-0.284,0-0.557,0.124-0.745,0.35c-1.058,1.263-3.62,4.586-4.554,8.152c-0.206,0.785,0.243,1.596,1.021,1.842
					l10.533,3.34c2.285,0.726,4.652,1.201,7.037,1.416c1.574,0.166,5.915,0.358,7.16-0.722c0.195-0.17,0.29-0.35,0.298-0.567
					c0.086-2.353-2.531-3.346-4.262-4.002c-0.698-0.266-1.203-0.457-1.446-0.705c-2.668-2.73-5.458-5.28-6.534-6.25
					c-0.23-0.209-0.498-0.361-0.796-0.457l-7.414-2.35C37.596,283.729,37.496,283.713,37.397,283.713z"/>
			</g>
			<path d="M44.896,293.091c-0.113,0-0.224-0.05-0.3-0.146c-0.133-0.164-0.106-0.405,0.059-0.538l4.364-3.497
				c0.165-0.133,0.406-0.107,0.539,0.059c0.132,0.165,0.106,0.406-0.06,0.539l-4.363,3.499
				C45.064,293.063,44.98,293.091,44.896,293.091z"/>
			<path d="M47.222,295.688c-0.112,0-0.224-0.049-0.3-0.144c-0.132-0.166-0.106-0.407,0.06-0.54l4.364-3.498
				c0.165-0.133,0.406-0.105,0.54,0.061c0.132,0.164,0.105,0.406-0.06,0.539l-4.363,3.498
				C47.391,295.66,47.307,295.688,47.222,295.688z"/>
		</g>
		<g>
			<g>
				<polygon fill="#FFFFFF" points="91.708,275.732 91.354,287.67 82.949,287.667 83.539,275.202 				"/>
				<path d="M91.354,288.055L91.354,288.055l-8.404-0.004c-0.105,0-0.206-0.044-0.278-0.119c-0.073-0.076-0.11-0.179-0.105-0.283
					l0.589-12.463c0.005-0.104,0.05-0.201,0.127-0.27c0.077-0.068,0.175-0.102,0.28-0.098l8.17,0.531
					c0.207,0.012,0.365,0.188,0.359,0.395l-0.354,11.938C91.731,287.889,91.562,288.055,91.354,288.055z M83.352,287.283l7.63,0.003
					l0.332-11.195l-7.41-0.479L83.352,287.283z"/>
			</g>
			<g>
				<path fill="#FFFFFF" d="M91.024,287.491l-7.803-0.005c-0.553,0-1.052,0.336-1.262,0.852c-0.693,1.698-2.104,5.667-1.916,9.434
					c0.051,1.029,0.898,1.836,1.918,1.836l22.896,0.01c1.054,0,1.854-0.971,1.644-2.012c-0.252-1.248-1.122-2.89-3.631-4.363
					c-4.065-2.391-9.172-4.779-10.783-5.52C91.752,287.568,91.391,287.491,91.024,287.491z"/>
				<path d="M104.86,300c-0.001,0-0.002,0-0.002,0l-22.896-0.01c-1.229,0-2.24-0.967-2.302-2.199
					c-0.194-3.887,1.294-8.007,1.943-9.598c0.27-0.664,0.905-1.09,1.617-1.09c0,0,0,0,0.001,0l7.803,0.004
					c0.424,0,0.835,0.088,1.222,0.267c1.498,0.688,6.705,3.119,10.817,5.536c2.702,1.588,3.564,3.389,3.813,4.617
					c0.123,0.609-0.032,1.234-0.426,1.716C106.057,299.725,105.478,300,104.86,300z M83.22,287.871
					c-0.399,0-0.755,0.238-0.907,0.611c-0.629,1.543-2.074,5.535-1.887,9.27c0.041,0.825,0.715,1.471,1.535,1.471l22.896,0.01
					c0.001,0,0.001,0,0.002,0c0.386,0,0.75-0.174,0.997-0.476s0.345-0.694,0.269-1.077c-0.313-1.543-1.506-2.964-3.451-4.106
					c-4.081-2.399-9.258-4.816-10.748-5.5c-0.286-0.132-0.589-0.198-0.902-0.198L83.22,287.871L83.22,287.871z"/>
			</g>
			<path d="M92.818,294.698c-0.073,0-0.146-0.021-0.211-0.064c-0.177-0.116-0.226-0.354-0.109-0.53l3.115-4.713
				c0.117-0.177,0.355-0.226,0.532-0.108c0.177,0.118,0.226,0.354,0.108,0.532l-3.114,4.713
				C93.065,294.639,92.943,294.698,92.818,294.698z"/>
			<path d="M95.831,296.495c-0.073,0-0.146-0.021-0.211-0.063c-0.177-0.117-0.226-0.354-0.109-0.531l3.115-4.713
				c0.117-0.178,0.354-0.226,0.531-0.107c0.177,0.115,0.226,0.354,0.11,0.531l-3.115,4.712
				C96.077,296.436,95.955,296.495,95.831,296.495z"/>
		</g>
		<g>
			<path fill="#B9CEEB" d="M56.48,174.172c0,0-3.836,9.58-4.581,19.398c-0.745,9.82-10.94,69.095-13.994,84.029
				c0,0,6.843,3.828,10.742,3.2c0,0,22.026-43.87,25.615-76.55c3.589-32.682,2.541-30.07,2.541-30.07L56.48,174.172z"/>
			<path fill="#B9CEEB" d="M63.241,177.852c0,0-1.236,17.705,4.904,30.219c6.14,12.518,13.515,61.168,13.002,73.539
				c0,0,7.778,2.057,11.465,0.615c0,0,11.17-70.129-3.055-104.61L63.241,177.852z"/>
			<path fill="#FFFFFF" d="M71.889,221.702c-0.182,0-0.343-0.129-0.377-0.313c-0.009-0.052-0.972-5.149-3.288-9.244
				c-3.491-6.17-4.803-13.836-4.816-13.912c-0.034-0.209,0.106-0.405,0.315-0.441c0.21-0.032,0.407,0.105,0.442,0.314
				c0.012,0.076,1.304,7.61,4.727,13.662c2.38,4.207,3.335,9.269,3.374,9.48c0.039,0.209-0.099,0.409-0.307,0.447
				C71.935,221.7,71.912,221.702,71.889,221.702z"/>
		</g>
	</g>
	<g>
		<g>
			<g>
				<path fill="#FFFFFF" d="M63.858,134.699l-3.654-4.053c-1.576-4.023-5.964-7.506-9.651-9.76
					c-15.287-9.344-13.14-27.083-13.229-34.267l-5.818,0.901c0,0-14.321,37.253,20.939,55.06L63.858,134.699z"/>
				<path d="M52.445,142.964c-0.059,0-0.119-0.014-0.173-0.041c-18.375-9.28-23.14-23.895-23.902-34.522
					c-0.824-11.491,2.741-20.923,2.777-21.017c0.05-0.129,0.164-0.221,0.299-0.242l5.818-0.902c0.111-0.016,0.222,0.014,0.308,0.086
					c0.084,0.072,0.134,0.177,0.136,0.288c0.009,0.767-0.006,1.631-0.024,2.63c-0.143,8.064-0.409,23.076,13.07,31.314
					c2.888,1.766,7.986,5.391,9.782,9.882l3.607,4.002c0.074,0.082,0.109,0.192,0.097,0.301c-0.013,0.11-0.073,0.208-0.163,0.271
					l-11.414,7.881C52.597,142.941,52.521,142.964,52.445,142.964z M31.788,87.865c-0.51,1.434-3.402,10.116-2.651,20.508
					c0.75,10.38,5.404,24.646,23.277,33.762l10.867-7.503l-3.361-3.729c-0.031-0.034-0.056-0.074-0.072-0.117
					c-1.69-4.313-6.674-7.848-9.494-9.572C36.5,112.746,36.771,97.449,36.917,89.23c0.014-0.804,0.026-1.52,0.026-2.164
					L31.788,87.865z"/>
			</g>
			<g>
				<path fill="#FFFFFF" d="M33.543,88.235c-0.33-0.103-0.667-0.25-1.011-0.45c-1.662-0.959-3.804-4.03-2.941-6.03
					c1.235-2.865,7.821-2.264,9.054,0.28C40.138,85.118,36.877,89.275,33.543,88.235z"/>
				<path d="M34.596,88.779c-0.393,0-0.784-0.058-1.167-0.177c-0.363-0.113-0.729-0.275-1.088-0.483
					c-1.861-1.076-4.032-4.358-3.102-6.515c0.555-1.289,2.133-2.086,4.22-2.132c2.152-0.037,4.739,0.76,5.531,2.397
					c0.781,1.611,0.427,3.648-0.9,5.19C37.131,88.171,35.863,88.779,34.596,88.779z M33.657,87.869
					c1.582,0.494,3.026-0.354,3.851-1.311c1.128-1.31,1.438-3.019,0.792-4.354c-0.565-1.168-2.633-2.017-4.823-1.964
					c-1.779,0.04-3.1,0.663-3.533,1.668c-0.737,1.711,1.184,4.624,2.781,5.547C33.035,87.633,33.348,87.773,33.657,87.869z"/>
			</g>
		</g>
		<g>
			<g>
				<path fill="#FFFFFF" d="M121.954,122.184c15.94,10.41,6.924,43.157-17.73,31.718l-1.626-16.59
					c21.308,9.189,19.843-3.417,14.314-16.999L121.954,122.184z"/>
				<path d="M113.934,156.686c-3.073,0-6.376-0.813-9.872-2.435c-0.123-0.058-0.207-0.176-0.22-0.312l-1.626-16.591
					c-0.014-0.135,0.045-0.268,0.155-0.347c0.11-0.08,0.253-0.096,0.377-0.042c8.047,3.471,13.342,4.039,15.74,1.688
					c2.596-2.542,1.947-8.663-1.932-18.189c-0.058-0.141-0.026-0.303,0.08-0.412c0.106-0.108,0.268-0.145,0.41-0.092l5.042,1.871
					c0.027,0.01,0.052,0.022,0.076,0.038c8.892,5.807,10.042,18.401,5.539,26.52c-2.098,3.782-5.209,6.406-8.995,7.592
					C117.188,156.449,115.594,156.686,113.934,156.686z M104.584,153.646c9.662,4.4,18.043,2.302,22.447-5.637
					c4.331-7.807,3.251-19.898-5.251-25.482l-4.188-1.554c3.768,9.511,4.237,15.475,1.434,18.221
					c-2.616,2.564-7.847,2.146-15.983-1.278L104.584,153.646z"/>
			</g>
			<g>
				<path fill="#FFFFFF" d="M118.454,122.406c-0.36-0.113-0.731-0.275-1.107-0.493c-1.82-1.051-4.167-4.415-3.223-6.607
					c1.354-3.139,8.57-2.481,9.919,0.307C125.68,118.991,122.106,123.544,118.454,122.406z"/>
				<path d="M119.607,122.965c-0.427,0-0.852-0.063-1.268-0.193c-0.395-0.123-0.793-0.3-1.185-0.526
					c-2.028-1.172-4.394-4.745-3.382-7.091c0.602-1.399,2.318-2.263,4.591-2.313c2.333-0.065,5.165,0.825,6.026,2.604
					c0.849,1.752,0.462,3.968-0.982,5.646C122.364,122.303,120.985,122.965,119.607,122.965z M118.576,113.606
					c-0.066,0-0.13,0.001-0.196,0.003c-1.963,0.043-3.422,0.734-3.902,1.85c-0.815,1.89,1.3,5.105,3.061,6.123
					c0.343,0.198,0.689,0.352,1.03,0.458l0,0c1.75,0.546,3.347-0.39,4.258-1.447c1.246-1.447,1.588-3.334,0.873-4.812
					C123.09,114.524,120.91,113.606,118.576,113.606z"/>
			</g>
		</g>
		<g>
			<path fill="#B9CEEB" d="M106.354,137.717c-0.021-0.442-0.229-0.852-0.573-1.132c-1.237-1.006-5.72-3.245-9.574-5.451
				c-4.255-2.436-8.028-3.965-12.931-3.904l-16.598-0.9c-4.629-0.021-7.288-0.887-11.135-3.166c-4.494-2.661-7.341-6.42-8.473-7.66
				c-0.208-0.228-0.575-0.176-0.717,0.097l-9.679,18.516c0,0,7.482,6.831,17.351,14.422c0.313,0.241,0.728,7.794,0.685,8.188
				l-3.091,28.168c-0.256,1.955,43.557,5.104,43.43,3.064c-0.409-6.578-2.714-12.044-1.742-32.74
				c0.035-0.742,0.713-1.283,1.443-1.143c2.104,0.408,6.332,1.214,10.607,1.939c0.979,0.168,1.861-0.617,1.813-1.609
				L106.354,137.717z"/>
			<path d="M89.239,188.971c-11.419,0-35.346-1.972-37.669-3.525c-0.313-0.209-0.354-0.441-0.333-0.603l3.09-28.159
				c0.044-0.6-0.363-7.078-0.605-7.894c-9.735-7.493-17.232-14.323-17.307-14.391c-0.129-0.117-0.162-0.307-0.081-0.461
				l9.679-18.516c0.125-0.241,0.361-0.405,0.628-0.439c0.267-0.032,0.532,0.063,0.713,0.261c0.169,0.186,0.375,0.426,0.621,0.711
				c1.394,1.622,3.988,4.642,7.764,6.877c3.994,2.366,6.55,3.093,10.941,3.113l16.618,0.901c5.03-0.079,8.875,1.535,13.101,3.954
				c1.414,0.81,2.886,1.608,4.309,2.381c2.418,1.313,4.507,2.447,5.318,3.107c0.426,0.346,0.686,0.86,0.712,1.409l0.815,16.688
				c0.029,0.592-0.208,1.155-0.65,1.549c-0.442,0.39-1.03,0.559-1.611,0.459c-4.289-0.729-8.492-1.528-10.615-1.94
				c-0.239-0.046-0.476,0.011-0.667,0.161c-0.191,0.15-0.307,0.377-0.319,0.621c-0.707,15.037,0.331,22.082,1.088,27.225
				c0.291,1.971,0.542,3.672,0.654,5.475c0.008,0.131-0.026,0.375-0.344,0.558C94.503,188.826,92.328,188.971,89.239,188.971z
				 M52.011,184.823c0.904,0.651,8.519,1.806,21.247,2.714c12.697,0.906,20.384,0.84,21.398,0.318
				c-0.114-1.726-0.357-3.379-0.638-5.285c-0.762-5.174-1.806-12.26-1.096-27.371c0.022-0.469,0.245-0.901,0.612-1.189
				c0.364-0.285,0.833-0.398,1.288-0.312c2.12,0.411,6.316,1.211,10.599,1.938c0.352,0.061,0.705-0.042,0.972-0.278
				s0.411-0.576,0.394-0.935l-0.815-16.688c-0.015-0.332-0.172-0.643-0.431-0.853c-0.755-0.614-2.814-1.732-5.199-3.027
				c-1.427-0.774-2.902-1.576-4.323-2.389c-4.04-2.313-7.719-3.855-12.463-3.855c-0.091,0-0.182,0-0.273,0.001l-16.625-0.901
				c-4.476-0.02-7.229-0.802-11.31-3.219c-3.885-2.3-6.532-5.382-7.955-7.038c-0.238-0.277-0.44-0.513-0.605-0.694
				c-0.004-0.005-0.017-0.02-0.047-0.017c-0.014,0.001-0.034,0.009-0.047,0.033l-9.541,18.253
				c1.305,1.177,8.292,7.423,17.107,14.203c0.584,0.45,0.84,8.461,0.833,8.534L52.011,184.823z M52,184.925l-0.001,0.011
				C52,184.932,52,184.93,52,184.925z"/>
		</g>
	</g>
	<g>
		<g>
			<path fill="#FFFFFF" d="M70.855,114.663l-1.347,13.313c-0.189,1.63,1.049,3.076,2.688,3.14l3.972,0.154
				c1.606,0.063,2.938-1.23,2.925-2.838l-0.097-12.713L70.855,114.663z"/>
			<path d="M76.283,131.657c-0.042,0-0.086-0.001-0.129-0.003l-3.972-0.154c-0.888-0.035-1.729-0.442-2.307-1.117
				c-0.578-0.675-0.85-1.568-0.748-2.451l1.345-13.308c0.011-0.103,0.063-0.198,0.144-0.262c0.082-0.064,0.186-0.094,0.288-0.08
				l8.142,1.057c0.19,0.024,0.333,0.186,0.334,0.377l0.097,12.714c0.007,0.883-0.338,1.708-0.972,2.323
				C77.903,131.338,77.118,131.657,76.283,131.657z M71.197,115.094l-1.307,12.921c-0.08,0.687,0.123,1.348,0.568,1.869
				c0.445,0.521,1.068,0.822,1.753,0.849l3.972,0.153c0.671,0.029,1.306-0.217,1.788-0.684c0.482-0.467,0.745-1.095,0.739-1.766
				l-0.094-12.38L71.197,115.094z"/>
		</g>
		<path d="M77.262,98.272c-3.191,0.432-3.627,4.034-7.441,4.456c-1.747,0.193-2.625-0.456-4.173,0.288
			c-1.025,0.492-2.518,1.677-2.671,3.247c-0.195,1.999,1.996,2.432,4.233,6.28c1.572,2.702,1.667,4.512,2.917,4.708
			c1.264,0.198,1.831-1.547,3.228-1.435c1.808,0.146,2.043,3.164,3.952,4.065c1.202,0.568,3.722,0.452,7.279-2.211
			c0.577-0.431,0.764-1.213,0.443-1.858c-0.411-0.827-0.935-1.867-1.52-2.82c-2.786-4.54-4.754-5.307-4.366-6.698
			c0.596-2.132,4.509-1.736,4.812-3.451C84.266,101.061,80.539,97.829,77.262,98.272z"/>
		<g>
			<path fill="#FFFFFF" d="M72.873,106.953c0,0,2.804,5.892,3.88,7.364c1.077,1.473,5.889-1.515,5.889-1.515l0.119-1.062
				l0.575-0.375c0.178-0.116,0.295-0.307,0.316-0.519c0.021-0.212-0.054-0.422-0.205-0.572c-1.161-1.151-3.623-3.764-4.819-6.306
				C78.628,103.969,75.375,103.142,72.873,106.953z"/>
			<path d="M77.773,115.104c-0.562,0-1.035-0.157-1.33-0.561c-1.086-1.484-3.802-7.184-3.917-7.425
				c-0.058-0.122-0.049-0.264,0.025-0.376c2.621-3.994,6.026-3.183,6.17-3.145c0.111,0.028,0.204,0.104,0.253,0.208
				c1.188,2.526,3.712,5.175,4.742,6.196c0.235,0.234,0.35,0.556,0.316,0.884c-0.033,0.328-0.211,0.621-0.488,0.801l-0.424,0.275
				l-0.099,0.881c-0.013,0.117-0.079,0.221-0.179,0.284C82.195,113.53,79.546,115.104,77.773,115.104z M73.314,106.985
				c0.497,1.035,2.814,5.829,3.748,7.106c0.574,0.784,3.392-0.415,5.219-1.52l0.098-0.874c0.013-0.114,0.076-0.216,0.172-0.279
				l0.576-0.375c0.082-0.053,0.134-0.139,0.144-0.236c0.01-0.097-0.024-0.192-0.094-0.262c-1.285-1.273-3.589-3.753-4.811-6.237
				C77.713,104.213,75.314,104.085,73.314,106.985z"/>
		</g>
		<path fill="#FFFFFF" d="M73.886,111.743c0,0-2.213-2.71-3.233-1.442C69.633,111.569,72.144,114.49,73.886,111.743z"/>
	</g>
</g>
<g>
	<g>
		<circle fill="#FFFFFF" cx="26.11" cy="61.122" r="16.127"/>
		<path fill="#B9CEEB" d="M26.11,77.632c-9.104,0-16.511-7.406-16.511-16.51s7.407-16.511,16.511-16.511s16.51,7.407,16.51,16.511
			S35.214,77.632,26.11,77.632z M26.11,45.378c-8.681,0-15.744,7.063-15.744,15.744c0,8.681,7.063,15.743,15.744,15.743
			c8.681,0,15.743-7.063,15.743-15.743C41.853,52.441,34.791,45.378,26.11,45.378z"/>
	</g>
	<path fill="#B9CEEB" d="M26.199,69.234c-0.159,0.099-0.36,0.104-0.523,0.012c-1.421-0.794-8.015-4.767-7.757-9.963
		c0.273-5.492,6.233-4.54,7.704-1.837c0.056,0.103,0.166,0.164,0.282,0.158c0.117-0.006,0.219-0.079,0.264-0.187
		c0.721-1.735,3.053-2.992,5.25-2.168C34.036,56.232,36.697,62.729,26.199,69.234z"/>
</g>
<g>
	<g>
		<path fill="#263238" d="M640,299.613c0,0.213-143.281,0.387-319.984,0.387C143.249,300,0,299.826,0,299.613
			c0-0.215,143.249-0.387,320.016-0.387C496.719,299.229,640,299.398,640,299.613z"/>
	</g>
</g>
<g>
	<path fill="#FFFFFF" d="M158.202,118.937l1.197-7.004h3.546l-2.8,11.877h-3.128l-1.963-7.047l-1.977,7.047h-3.129l-2.799-11.877
		h3.545l1.175,7.167l1.887-7.167h2.579L158.202,118.937z"/>
	<path fill="#FFFFFF" d="M174.523,118.937l1.198-7.004h3.546l-2.8,11.877h-3.128l-1.965-7.047l-1.977,7.047h-3.129l-2.799-11.877
		h3.545l1.175,7.167l1.889-7.167h2.579L174.523,118.937z"/>
	<path fill="#FFFFFF" d="M190.847,118.937l1.196-7.004h3.546l-2.799,11.877h-3.13l-1.963-7.047l-1.977,7.047h-3.129l-2.798-11.877
		h3.544l1.175,7.167l1.889-7.167h2.58L190.847,118.937z"/>
	<path fill="#FFFFFF" d="M197.839,120.221c0.585,0,1.072,0.174,1.459,0.522c0.387,0.346,0.582,0.792,0.582,1.333
		c0,0.541-0.194,0.986-0.582,1.333c-0.387,0.347-0.874,0.521-1.459,0.521c-0.593,0-1.081-0.176-1.466-0.528
		c-0.384-0.351-0.576-0.793-0.576-1.328s0.192-0.977,0.576-1.328C196.757,120.396,197.247,120.221,197.839,120.221z"/>
	<path fill="#FFFFFF" d="M207.091,118.63l1.976-6.696h3.964l-4.841,13.864l-0.209,0.505c-0.688,1.537-1.901,2.305-3.645,2.305
		c-0.482,0-0.991-0.072-1.526-0.218v-2.636h0.482c0.519,0,0.916-0.073,1.191-0.224c0.274-0.15,0.479-0.42,0.61-0.808l0.296-0.791
		l-4.127-11.997h3.95L207.091,118.63z"/>
	<path fill="#FFFFFF" d="M213.358,117.762c0-1.185,0.23-2.242,0.693-3.166c0.459-0.926,1.123-1.638,1.987-2.136
		c0.862-0.498,1.875-0.748,3.04-0.748c1.778,0,3.179,0.552,4.204,1.653c1.025,1.101,1.536,2.6,1.536,4.494v0.131
		c0,1.853-0.514,3.321-1.542,4.408c-1.027,1.085-2.42,1.628-4.176,1.628c-1.689,0-3.047-0.507-4.072-1.521
		c-1.025-1.012-1.578-2.387-1.658-4.121L213.358,117.762z M217.058,117.991c0,1.099,0.172,1.904,0.517,2.415
		c0.344,0.512,0.852,0.767,1.525,0.767c1.318,0,1.991-1.013,2.02-3.04v-0.373c0-2.129-0.68-3.193-2.042-3.193
		c-1.237,0-1.907,0.918-2.009,2.753L217.058,117.991z"/>
	<path fill="#FFFFFF" d="M233.522,122.526c-0.783,1.001-1.839,1.503-3.171,1.503c-1.302,0-2.288-0.379-2.957-1.136
		c-0.669-0.757-1.006-1.845-1.006-3.266v-7.695h3.699v7.717c0,1.017,0.496,1.524,1.482,1.524c0.85,0,1.453-0.302,1.811-0.91v-8.332
		h3.721v11.877h-3.468L233.522,122.526z"/>
	<path fill="#FFFFFF" d="M246.309,115.28l-1.216-0.087c-1.165,0-1.911,0.366-2.24,1.098v7.519h-3.699v-11.877h3.468l0.12,1.526
		c0.623-1.163,1.49-1.746,2.603-1.746c0.395,0,0.738,0.043,1.032,0.131L246.309,115.28z"/>
	<path fill="#FFFFFF" d="M246.97,117.784c0-1.88,0.406-3.363,1.218-4.445c0.812-1.084,1.945-1.626,3.401-1.626
		c1.063,0,1.954,0.418,2.679,1.252v-6.016h3.71v16.859h-3.327l-0.187-1.273c-0.76,0.996-1.727,1.493-2.897,1.493
		c-1.413,0-2.533-0.542-3.36-1.624C247.383,121.321,246.97,119.782,246.97,117.784z M250.667,118.015c0,2.107,0.614,3.16,1.844,3.16
		c0.819,0,1.406-0.344,1.755-1.03v-4.522c-0.336-0.701-0.915-1.054-1.733-1.054c-1.142,0-1.761,0.922-1.856,2.766L250.667,118.015z"
		/>
	<path fill="#FFFFFF" d="M259.613,117.762c0-1.185,0.23-2.242,0.692-3.166c0.461-0.926,1.123-1.638,1.987-2.136
		c0.864-0.499,1.877-0.748,3.042-0.748c1.777,0,3.178,0.552,4.204,1.653c1.023,1.101,1.536,2.6,1.536,4.494v0.131
		c0,1.853-0.515,3.321-1.542,4.408c-1.027,1.085-2.42,1.628-4.176,1.628c-1.689,0-3.049-0.507-4.072-1.521
		c-1.024-1.012-1.578-2.387-1.658-4.121L259.613,117.762z M263.313,117.991c0,1.099,0.172,1.904,0.516,2.415
		c0.344,0.512,0.853,0.767,1.526,0.767c1.316,0,1.991-1.013,2.02-3.04v-0.373c0-2.129-0.683-3.193-2.042-3.193
		c-1.237,0-1.907,0.918-2.01,2.753L263.313,117.991z"/>
	<path fill="#FFFFFF" d="M276.199,111.933l0.122,1.394c0.842-1.075,1.971-1.613,3.392-1.613c1.5,0,2.513,0.597,3.041,1.789
		c0.806-1.192,1.968-1.789,3.49-1.789c2.409,0,3.644,1.455,3.71,4.369v7.728h-3.71v-7.497c0-0.607-0.103-1.049-0.307-1.328
		c-0.205-0.277-0.578-0.417-1.12-0.417c-0.729,0-1.277,0.327-1.636,0.976l0.011,0.153v8.113h-3.71v-7.476
		c0-0.623-0.098-1.072-0.296-1.351c-0.197-0.277-0.575-0.417-1.129-0.417c-0.711,0-1.252,0.327-1.625,0.977v8.266h-3.7v-11.877
		h3.469V111.933z"/>
	<path fill="#FFFFFF" d="M298.755,123.811c-0.131-0.242-0.25-0.597-0.352-1.065c-0.68,0.856-1.63,1.285-2.855,1.285
		c-1.119,0-2.07-0.336-2.853-1.015c-0.783-0.676-1.175-1.527-1.175-2.553c0-1.287,0.476-2.259,1.426-2.918
		c0.953-0.659,2.333-0.988,4.15-0.988h1.142v-0.629c0-1.095-0.473-1.645-1.418-1.645c-0.876,0-1.313,0.434-1.313,1.302h-3.702
		c0-1.146,0.489-2.077,1.467-2.795c0.976-0.716,2.221-1.076,3.738-1.076c1.514,0,2.709,0.37,3.588,1.11
		c0.878,0.738,1.327,1.751,1.351,3.04v5.256c0.016,1.092,0.183,1.925,0.503,2.503v0.187h-3.697V123.811z M296.438,121.395
		c0.461,0,0.845-0.099,1.147-0.296c0.303-0.198,0.523-0.422,0.653-0.671v-1.899h-1.077c-1.289,0-1.932,0.579-1.932,1.734
		c0,0.336,0.113,0.608,0.34,0.818C295.799,121.291,296.087,121.395,296.438,121.395z"/>
	<path fill="#FFFFFF" d="M303.969,108.871c0-0.528,0.19-0.959,0.572-1.295c0.38-0.335,0.872-0.504,1.48-0.504
		c0.606,0,1.104,0.167,1.481,0.504c0.381,0.337,0.57,0.769,0.57,1.295c0,0.525-0.189,0.958-0.57,1.294
		c-0.38,0.337-0.875,0.504-1.481,0.504c-0.608,0-1.103-0.167-1.48-0.504C304.16,109.829,303.969,109.398,303.969,108.871z
		 M307.898,123.811h-3.708v-11.877h3.708V123.811z"/>
	<path fill="#FFFFFF" d="M313.572,111.933l0.121,1.394c0.818-1.075,1.95-1.613,3.393-1.613c1.236,0,2.159,0.37,2.771,1.11
		c0.609,0.738,0.927,1.851,0.948,3.336v7.65h-3.71v-7.497c0-0.6-0.12-1.041-0.362-1.322c-0.24-0.282-0.681-0.423-1.316-0.423
		c-0.725,0-1.264,0.284-1.612,0.855v8.387h-3.701v-11.877H313.572L313.572,111.933z"/>
	<path fill="#FFFFFF" d="M325.143,120.221c0.585,0,1.07,0.174,1.459,0.522c0.39,0.346,0.583,0.792,0.583,1.333
		c0,0.541-0.196,0.986-0.583,1.333c-0.389,0.347-0.872,0.521-1.459,0.521c-0.593,0-1.081-0.176-1.467-0.528
		c-0.385-0.351-0.574-0.793-0.574-1.328s0.19-0.977,0.574-1.328C324.062,120.396,324.55,120.221,325.143,120.221z"/>
	<path fill="#FFFFFF" d="M334.669,121.175c0.52,0,0.923-0.14,1.208-0.422c0.285-0.282,0.423-0.674,0.418-1.179h3.467
		c0,1.302-0.466,2.372-1.399,3.206c-0.932,0.833-2.136,1.25-3.607,1.25c-1.725,0-3.086-0.542-4.081-1.624
		c-0.995-1.084-1.493-2.584-1.493-4.5v-0.154c0-1.2,0.222-2.258,0.665-3.177c0.441-0.919,1.082-1.625,1.915-2.119
		c0.834-0.494,1.823-0.741,2.965-0.741c1.542,0,2.769,0.428,3.677,1.285c0.905,0.855,1.359,2.016,1.359,3.479h-3.467
		c0-0.614-0.15-1.086-0.452-1.415c-0.299-0.331-0.702-0.494-1.205-0.494c-0.959,0-1.521,0.611-1.681,1.834
		c-0.052,0.389-0.077,0.921-0.077,1.603c0,1.193,0.144,2.019,0.427,2.48C333.594,120.945,334.047,121.175,334.669,121.175z"/>
	<path fill="#FFFFFF" d="M340.861,117.762c0-1.185,0.229-2.242,0.689-3.166c0.462-0.926,1.123-1.638,1.988-2.136
		c0.864-0.498,1.877-0.748,3.041-0.748c1.777,0,3.18,0.552,4.204,1.653c1.023,1.101,1.535,2.6,1.535,4.494v0.131
		c0,1.853-0.514,3.321-1.541,4.408c-1.028,1.085-2.421,1.628-4.178,1.628c-1.689,0-3.046-0.507-4.07-1.521
		c-1.025-1.012-1.579-2.387-1.658-4.121L340.861,117.762z M344.559,117.991c0,1.099,0.173,1.904,0.516,2.415
		c0.345,0.512,0.853,0.767,1.526,0.767c1.316,0,1.99-1.013,2.021-3.04v-0.373c0-2.129-0.684-3.193-2.042-3.193
		c-1.236,0-1.906,0.918-2.008,2.753L344.559,117.991z"/>
	<path fill="#FFFFFF" d="M357.444,111.933l0.122,1.394c0.842-1.075,1.971-1.613,3.393-1.613c1.5,0,2.512,0.597,3.039,1.789
		c0.808-1.192,1.969-1.789,3.491-1.789c2.407,0,3.644,1.455,3.71,4.369v7.728h-3.71v-7.497c0-0.607-0.103-1.049-0.309-1.328
		c-0.205-0.277-0.577-0.417-1.119-0.417c-0.731,0-1.276,0.327-1.636,0.976l0.012,0.153v8.113h-3.709v-7.476
		c0-0.623-0.099-1.072-0.296-1.351c-0.196-0.277-0.575-0.417-1.131-0.417c-0.711,0-1.252,0.327-1.626,0.977v8.266h-3.697v-11.877
		h3.466V111.933z"/>
</g>
</svg>
