<?xml version="1.0" encoding="utf-8"?>
<!-- Generator: Adobe Illustrator 16.0.0, SVG Export Plug-In . SVG Version: 6.00 Build 0)  -->
<!DOCTYPE svg PUBLIC "-//W3C//DTD SVG 1.1//EN" "http://www.w3.org/Graphics/SVG/1.1/DTD/svg11.dtd">
<svg version="1.1" id="Layer_1" xmlns="http://www.w3.org/2000/svg" xmlns:xlink="http://www.w3.org/1999/xlink" x="0px" y="0px"
	 width="640px" height="300px" viewBox="0 0 640 300" enable-background="new 0 0 640 300" xml:space="preserve">
<g>
	<g>
		<path fill="none" stroke="#B9CEEB" stroke-miterlimit="10" d="M168.377,97.728l-21.809,13.765l13.202,20.917
			c1.178,1.867,3.647,2.425,5.513,1.247l2.65-1.672c1.215-0.767,1.926-2.128,1.859-3.564L168.377,97.728z"/>
	</g>
	<g>
		<path fill="none" stroke="#EEE0FA" stroke-miterlimit="10" d="M143.11,114.191l-32.805-51.976l30.573-19.296
			c15.23-9.613,34.718-9.252,49.583,0.917l1.043,0.714c1.337,0.915,2.237,2.34,2.487,3.94l0,0
			c2.904,18.552-5.498,37.056-21.377,47.079L143.11,114.191z"/>
	</g>
	<g>
		<path fill="none" stroke="#B9CEEB" stroke-miterlimit="10" d="M174.391,58.107c-6.563-10.399-13.706-18.436-18.465-21.241
			c11.764-2.405,24.255-0.062,34.535,6.971l1.042,0.714c1.338,0.914,2.238,2.34,2.487,3.94c1.452,9.275,0.078,18.54-3.645,26.738
			c-1.308,2.881-2.907,5.631-4.775,8.203C184.896,77.844,180.766,68.208,174.391,58.107z"/>
	</g>
	<g>
		
			<ellipse transform="matrix(0.5337 0.8456 -0.8456 0.5337 133.6829 -65.7361)" fill="none" stroke="#331832" stroke-miterlimit="10" cx="126.454" cy="88.362" rx="30.732" ry="7.446"/>
	</g>
	<g>
		<g>
			<path fill="none" stroke="#EF8062" stroke-miterlimit="10" d="M108.641,114.43c0,0,2.378-4.068,13.288-8.588
				c10.909-4.521,9.8-21.204-2.316-22.407c-7.801-0.776-13.337,4.762-18.996,15.215c-2.799,5.167-12.145,8.525-12.145,8.525
				s5.554,4.07,11.388,3.563c6.32-0.548,10.026-3.533,10.026-3.533C106.18,110.19,108.641,114.43,108.641,114.43z"/>
		</g>
		<g>
			<path fill="none" stroke="#F5B27A" stroke-miterlimit="10" d="M107.067,101.904c0,0,4.656-5.143,7.054-8.753
				c2.398-3.61,9.172-5.145,9.631,0.694C124.211,99.683,107.067,101.904,107.067,101.904z"/>
		</g>
	</g>
	<g>
		<g>
			<path fill="#331832" d="M151.208,81.951c-3.033-0.915-5.608-2.868-7.317-5.576c-1.877-2.974-2.485-6.5-1.708-9.934
				c0.775-3.429,2.842-6.354,5.818-8.231l0,0c2.973-1.878,6.501-2.485,9.934-1.71c0.309,0.072,0.617,0.152,0.92,0.244
				c3.033,0.915,5.606,2.867,7.313,5.575c3.874,6.141,2.031,14.293-4.111,18.168c-2.973,1.877-6.502,2.485-9.933,1.706
				C151.814,82.125,151.509,82.042,151.208,81.951z M158.774,57.004c-0.297-0.089-0.595-0.17-0.901-0.237
				c-3.36-0.761-6.814-0.166-9.729,1.673l0,0c-2.911,1.836-4.937,4.702-5.696,8.063c-0.759,3.358-0.167,6.815,1.674,9.727
				c1.836,2.913,4.7,4.927,8.063,5.698c3.36,0.757,6.816,0.167,9.729-1.673c6.012-3.796,7.817-11.779,4.022-17.794
				C164.265,59.811,161.743,57.9,158.774,57.004z"/>
		</g>
	</g>
	<g>
		<g>
			<path fill="#331832" d="M160.27,77.651c-4.586,2.895-10.649,1.523-13.544-3.063c-0.936-1.483-1.425-3.121-1.504-4.756
				c-0.053-1.071,0.071-2.142,0.361-3.167c0.503-1.773,1.505-3.412,2.952-4.684c0.386-0.341,0.804-0.654,1.253-0.937
				c4.586-2.895,10.65-1.524,13.544,3.063c1.167,1.847,1.64,3.935,1.489,5.959c-0.063,0.861-0.24,1.712-0.525,2.527
				c-0.283,0.813-0.674,1.59-1.167,2.309C162.396,75.973,161.437,76.915,160.27,77.651z"/>
		</g>
		<g>
			<path fill="#764678" d="M164.821,70.066l-16.286-8.085c0.386-0.341,0.804-0.654,1.253-0.937
				c4.586-2.895,10.65-1.524,13.544,3.063C164.499,65.954,164.972,68.041,164.821,70.066z"/>
		</g>
		<g>
			<path fill="#764678" d="M163.128,74.902l-17.907-5.07c-0.053-1.071,0.071-2.142,0.361-3.167l18.713,5.928
				C164.013,73.406,163.622,74.183,163.128,74.902z"/>
		</g>
	</g>
	<g>
		<path fill="none" stroke="#B9CEEB" stroke-miterlimit="10" d="M135.805,46.121l-21.809,13.765l-13.203-20.917
			c-1.178-1.866-0.62-4.334,1.247-5.512l2.65-1.673c1.216-0.767,2.75-0.823,4.018-0.146L135.805,46.121z"/>
	</g>
	<g>
		<g>
			<circle fill="#331832" cx="172.89" cy="59.053" r="0.667"/>
		</g>
		<g>
			<circle fill="#331832" cx="167.251" cy="50.744" r="0.667"/>
		</g>
		<g>
			<circle fill="#331832" cx="178.684" cy="68.858" r="0.667"/>
		</g>
		<g>
			<circle fill="#331832" cx="160.442" cy="43.078" r="0.667"/>
		</g>
		<g>
			<circle fill="#331832" cx="180.597" cy="75.012" r="0.666"/>
		</g>
	</g>
	<g>
		<g>
			<circle fill="#331832" cx="136.539" cy="80.333" r="0.666"/>
		</g>
		<g>
			<circle fill="#331832" cx="130.9" cy="72.024" r="0.667"/>
		</g>
		<g>
			<circle fill="#331832" cx="142.333" cy="90.137" r="0.667"/>
		</g>
		<g>
			<circle fill="#331832" cx="124.09" cy="64.358" r="0.667"/>
		</g>
		<g>
			<circle fill="#331832" cx="144.246" cy="96.291" r="0.667"/>
		</g>
	</g>
	<g>
		<path fill="#331832" d="M152.271,108.349c-3.267-16.897-11.998-30.107-18.749-38.215c-7.314-8.781-13.937-13.626-14.002-13.676
			l0.159-0.217c0.067,0.046,6.718,4.913,14.054,13.722c6.771,8.13,15.529,21.379,18.805,38.339L152.271,108.349z"/>
	</g>
</g>
<g>
	<g>
		<path fill="#EEE0FA" d="M90.38,240.957l-0.157-0.259l-24.373-40.435l0.258-0.154L300.048,59.089l0.157,0.245l53.494,83.006
			l152.187-96.471L483.127,9.957l91.428,20.506l-0.065,0.29l-20.403,91.145l-0.388-0.617l-22.373-35.291L339.307,207.717
			l-0.162-0.249l-54.058-83.882L90.38,240.957z M66.676,200.472l23.908,39.659l194.693-117.362l0.156,0.245l54.055,83.878
			L531.512,85.165l22.307,35.182l20.02-89.43L484.41,10.864l22.306,35.186l-0.254,0.164l-152.945,96.952l-0.16-0.25l-53.498-83.011
			L66.676,200.472z"/>
	</g>
	<g>
		<polygon fill="none" stroke="#B9CEEB" stroke-miterlimit="10" points="574.276,49.026 483.848,28.745 506.382,64.293 
			353.688,161.088 300.034,77.832 66.343,218.705 90.563,258.882 285.263,141.513 339.478,225.64 531.498,103.915 554.031,139.459 
					"/>
	</g>
</g>
<g>
	<g>
		<path fill="#366F90" d="M319.223,103.83c0,0-31.575-2.691-61.462,20.341c-22.436,17.29,5.668,38.288-43.106,42.573
			c-41.008,3.602-67.286,31.497-67.286,31.497s0,23.076,32.511,25.991c24.758,2.22,10.618,23.051,34.65,21.217
			c24.031-1.834,34.022-8.776,39.4,1.31c7.82,14.669,26.043,8.663,26.043,8.663s-2.928-26.172,26.327-27.521
			c22.49-1.039,20.384-52.025,19.914-69.626C325.743,140.674,319.223,103.83,319.223,103.83z"/>
	</g>
	<g>
		<g>
			<g>
				<path fill="#331832" d="M264.756,193.586l2.034,0.397l1.886-9.653c0.304-1.939-0.665-3.858-2.409-4.776l-6.065-3.19
					c-1.92-1.004-4.299-0.531-5.666,1.131l-5.268,6.66l1.625,1.285l5.255-6.646c0.733-0.892,2.037-1.15,3.087-0.597l6.065,3.19
					c0.954,0.502,1.487,1.547,1.329,2.604L264.756,193.586z"/>
			</g>
		</g>
		<g>
			<path fill="#EF8062" d="M230.613,203.433l26.665,17.398c1.879,1.227,4.387,0.718,5.616-1.139l12.45-18.806
				c1.304-1.971,0.644-4.643-1.435-5.803l-33.557-18.74c-2.308-1.289-5.199-0.094-5.898,2.438l-5.559,20.146
				C228.425,200.635,229.12,202.459,230.613,203.433z"/>
		</g>
		<g>
			<polygon fill="#331832" points="272.836,204.782 249.073,199.184 249.037,199.143 233.433,182.135 233.691,181.899 
				249.259,198.866 272.917,204.446 			"/>
		</g>
		<g>
			<path fill="#331832" d="M247.884,200.655L247.884,200.655c0.646,0.34,1.45,0.093,1.786-0.55l0.589-1.128
				c0.336-0.643,0.082-1.445-0.564-1.785l0,0c-0.646-0.34-1.45-0.094-1.785,0.549l-0.589,1.128
				C246.984,199.513,247.238,200.315,247.884,200.655z"/>
		</g>
	</g>
	<g>
		<path fill="#FFB27D" d="M257.515,176.286c0.162-0.239,0.33-0.433,0.505-0.592c2.583-3.264,4.79-4.934,4.79-4.934l3.692,3.908
			c0.202-0.195,0.454-0.341,0.745-0.409c0.86-0.201,3.646-0.148,3.747,0.729c0.231,2.023-0.213,6.118-0.021,8.146
			c0.083,0.879,0.16,3.854-0.699,4.056c-0.747,0.175-1.927-2.157-2.356-3.337c-2.852,5.081-7.163,5.931-4.073,0.136
			c-0.005-0.002-0.012-0.005-0.018-0.009c-0.629,1.071-3.081,3.81-4.175,2.408c-0.966-1.237,0.314-2.386,1.331-4.159
			c-0.015-0.012-0.031-0.022-0.046-0.033c-1.586,1.623-3.175,2.941-4.143,1.705c-0.605-0.774,1.204-4.109,1.204-4.109
			s-2.044,2.966-2.919,1.555C254.257,180.019,256.404,177.93,257.515,176.286z"/>
	</g>
	<g>
		<g>
			<path fill="#FFB27D" d="M371.274,64.379c-0.493-1.865-0.634-5.847-1.089-7.726c-0.197-0.814-0.674-3.618,0.105-4.003
				c0.677-0.335,3.015,2.234,3.578,3.254c2.388-6.779,11.482,0.729,10.431,2.989l0,0c0,0,0,0,0,0
				c-0.221,0.474-0.415,0.888-0.559,1.201c-0.117,0.261-0.248,0.48-0.388,0.67c-1.981,3.684-3.828,5.767-3.828,5.767
				s-1.772,2.802-4.968,1.771C372.521,67.646,371.486,65.188,371.274,64.379z"/>
		</g>
		<g>
			<path fill="#FFB27D" d="M373.869,55.905c0,0,4.844-11.361,6.317-10.555c1.474,0.806-1.831,9.042-1.831,9.042L373.869,55.905z"/>
		</g>
		<g>
			<g>
				<path fill="#EC9C6C" d="M379.32,51.903c-0.854,0.106-1.985,2.499-1.985,2.499s-2.783,4.948-1.277,5.208s3.749-3.871,3.749-3.871
					s-2.566,5.813-1.063,5.598c1.502-0.215,3.95-4.563,3.95-4.563s-3.064,5.394-1.325,5.104c1.739-0.291,3.013-2.9,3.725-4.253
					c0.674-1.278-0.197-2.335-1.476-2.896c0,0-0.948-1.299-1.877-1.455c-0.356-0.06-0.505-0.507-0.715-0.651
					C380.625,52.347,379.966,51.822,379.32,51.903z"/>
			</g>
		</g>
	</g>
	<g>
		<path fill="#14A800" d="M296.421,114.623c0,0,3.891-11.643,25.396-10.083c16.563,1.201,31.644,13.421,31.334,28.388
			c-0.429,20.699-1.629,31.615-5.411,41.489c0,0-43.734-15.152-59.193-7.479c0,0,7.709-18.069,6.464-45.445
			C294.885,118.716,295.47,116.66,296.421,114.623z"/>
	</g>
	<g>
		<path fill="#14A800" d="M326.004,105.359c0,0,33.271-7.828,42.615-40.44c0.569-1.985,2.665-3.061,4.538-2.329l5.909,2.312
			c1.078,0.421,1.729,1.547,1.572,2.725c-0.838,6.279-4.811,26.415-22.825,50.186c-1.85,2.44-5.351,6.116-4.702,15.077
			L326.004,105.359z"/>
	</g>
	<g>
		<path fill="#331832" d="M288.506,166.899c-0.426,2.918,12.529,6.468,28.902,8.751c16.373,2.285,29.865,1.645,30.291-1.272
			c0.427-2.918-12.35-9.971-28.722-12.255C302.604,159.838,288.932,163.982,288.506,166.899z"/>
	</g>
	<g>
		<path fill="#FFB27D" d="M322.559,101.663l1.385-5.571l0.402-1.621l2.369-9.535l0.825,9.293l0.495,5.578l0.156,1.766
			c0.106,1.198,0.833,1.408,1.751,2.4c0.372,0.402,2.747,2.832,0.25,4.144c-3.111,1.635-9.166-0.192-11.566-2.919
			C318.644,105.191,322.11,103.463,322.559,101.663z"/>
	</g>
	<g>
		<g>
			<path fill="#5C305D" d="M330.513,78.491c0,0,1.562,1.737,2.373,4.531c0.812,2.795-4.915-2.065-4.915-2.065L330.513,78.491z"/>
		</g>
		<g>
			<path fill="#FFB27D" d="M333.562,83.591c-3.172-4.541-8.691-6.083-12.329-3.445c-3.637,2.639-4.014,8.458-0.842,12.999
				c3.172,4.541,8.692,6.083,12.329,3.444C336.356,93.951,336.733,88.132,333.562,83.591z"/>
		</g>
		<g>
			<path fill="#331832" d="M318.877,90.692l3.267-2.233c0.718-0.492,1.193-1.288,1.256-2.175c0.109-1.528,0.654-2.575,3.949-4.188
				c4.17-2.042,5.552-6.011,4.838-8.458c-0.729-2.497-3.621-2.898-5.112-0.719c-1.491,2.18-1.989-0.93-4.11-0.146
				c-3.963,1.463-3.117,4.771-6.188,6.302c-4.026,2.006-9.495,8.934-2.36,14.321L318.877,90.692z"/>
		</g>
		<g>
			<g>
				<path fill="#080435" d="M327.157,87.792c0.024-0.044,0.029-0.1,0.007-0.15c-0.036-0.086-0.134-0.126-0.217-0.09
					c-0.049,0.021-1.232,0.403-1.157,1.881c0.006,0.093,0.08,0.167,0.171,0.166c0.092-0.001,0.144-0.08,0.159-0.172
					c0.168-0.915,0.919-1.545,0.96-1.563C327.113,87.848,327.14,87.823,327.157,87.792z"/>
			</g>
		</g>
		<g>
			<path fill="#080435" d="M327.533,90.05c0.272,0.295,0.658,0.374,0.866,0.176c0.206-0.199,0.153-0.6-0.119-0.895
				c-0.271-0.295-0.658-0.374-0.864-0.175C327.21,89.354,327.262,89.754,327.533,90.05z"/>
		</g>
		<g>
			<g>
				<path fill="#080435" d="M332.286,84.461c0.03-0.024,0.047-0.065,0.039-0.116c-0.012-0.085-0.085-0.163-0.162-0.172
					c-0.046-0.006-1.125-0.247-1.387,0.969c-0.017,0.077,0.03,0.17,0.105,0.211c0.078,0.041,0.138,0.001,0.173-0.063
					c0.343-0.653,1.113-0.811,1.15-0.806C332.237,84.486,332.265,84.478,332.286,84.461z"/>
			</g>
		</g>
		<g>
			
				<ellipse transform="matrix(-0.9337 0.358 -0.358 -0.9337 673.4536 48.3785)" fill="#080435" cx="332.249" cy="86.522" rx="0.516" ry="0.73"/>
		</g>
		<g>
			<path fill="#5C305D" d="M314.417,93.396c0,0,5.178,4.039,8.772,2.605c0,0-4.866-2.583-0.385-8.165
				C322.805,87.836,317.05,89.829,314.417,93.396z"/>
		</g>
		<g>
			<path fill="#FFB27D" d="M320.733,93.763c0.975,0.086,1.814-0.566,1.876-1.457c0.063-0.891-0.678-1.682-1.651-1.769
				c-0.975-0.085-1.814,0.566-1.876,1.458C319.02,92.885,319.76,93.677,320.733,93.763z"/>
		</g>
		<g>
			<path fill="#5C305D" d="M322.805,87.836c0,0,1.877,4.717,3.2,5.088c1.323,0.371,7.33-2.397,9.478-4.941l0,0
				c1.549,2.845,0.915,6.434-1.577,8.385c-0.824,0.645-1.762,1.151-2.782,1.485l0,0c-2.08,0.68-4.353,0.863-6.089-0.536
				c-0.528-0.425-1.618-4.206-1.618-4.206s-0.786-2.14-2.458-2.574C320.958,90.538,321.626,88.631,322.805,87.836z"/>
		</g>
		<g>
			<path fill="#FFFFFF" d="M334.894,90.366c0,0-1.902,1.822-4.466,2.89c0,0,1.577,2.136,3.799,0.345
				C335.518,92.56,334.894,90.366,334.894,90.366z"/>
		</g>
		<g>
			<path fill="#331832" d="M325.755,72.994c-0.632,0-0.977-0.518-0.981-0.527l0.188-0.118c0.023,0.032,0.516,0.758,1.437,0.227
				l0.113,0.191C326.228,72.934,325.974,72.994,325.755,72.994z"/>
		</g>
		<g>
			<path fill="#FFFFFF" d="M327.888,80.288l-0.077-0.082c0.036-0.036,3.688-3.706,2.656-6.115c-0.295-0.689-0.631-1.066-1.03-1.157
				c-0.063-0.013-0.124-0.022-0.188-0.022c-0.575,0-1.178,0.54-1.72,1.021c-0.093,0.086-0.187,0.168-0.274,0.241l-0.072-0.082
				c0.089-0.077,0.179-0.159,0.271-0.24c0.557-0.495,1.18-1.048,1.793-1.048c0.072,0,0.143,0.005,0.215,0.023
				c0.436,0.095,0.798,0.494,1.108,1.22C331.633,76.527,328.042,80.134,327.888,80.288z"/>
		</g>
		<g>
			<path fill="#FFFFFF" d="M315.514,80.823l-0.041-0.109c4.557-1.692,5.313-5.257,5.318-5.29l0.109,0.019
				C320.895,75.479,320.13,79.109,315.514,80.823z"/>
		</g>
	</g>
	<g>
		<path fill="#14A800" d="M310.713,105.028c0,0-15.224,1.297-26.582,20.013c-11.357,18.716-23.971,46.219-23.357,47.415
			c0.613,1.197,7.272,6.593,10.683,6.231c3.41-0.362,24.196-40.329,30.862-45.499C308.985,128.019,310.713,105.028,310.713,105.028z
			"/>
	</g>
	<g>
		<path fill="#331832" d="M294.174,144.182l-0.209-0.136c3.269-5.199,8.212-10.879,8.261-10.938l0.187,0.163
			C302.362,133.326,297.434,138.997,294.174,144.182z"/>
	</g>
	<g>
		<path fill="#331832" d="M307.608,248.229c0,0-7.458,4.667-8.837,7.886c-1.378,3.218-2.811,12.607-5.634,9.011
			c-1.621-2.063-0.258-11.554-0.18-14.241c0.079-2.688-0.958-5.24,0.804-7.193c1.938-2.148,16.198-6.608,16.198-6.608
			s-2.429,3.876-2.438,5.963C307.507,246.054,307.608,248.229,307.608,248.229z"/>
	</g>
	<g>
		<path fill="#764678" d="M332.889,169.867c2.058,0.21,10.236,2.843,11.253,4.533c4.898,8.139,19.893,39.694,9.015,52.229
			c-6.622,7.632-27.781,20.037-42.607,24.205c-2.9,0.815-7.044-2.403-8.566-6.085c-2.096-5.068-0.108-8.063,4.636-11.14
			c5.951-3.858,12.155-8.513,22.836-17.284c1.589-1.305-9.554-20.88-13.36-28.021c-0.95-1.782,2.528-2.983,3.565-4.724l3.419-5.74
			c1.258-2.112,0.416-3.889,2.981-3.627L332.889,169.867z"/>
	</g>
	<g>
		<path fill="#331832" d="M259.113,274.334c0,0-3.272,8.167-2.488,11.579c0.785,3.412,5.164,11.841,0.763,10.602
			c-2.525-0.713-7.021-9.182-8.542-11.397c-1.521-2.219-3.863-3.669-3.592-6.284c0.299-2.879,9.187-14.888,9.187-14.888
			s0.324,4.563,1.546,6.254C257.749,272.636,259.113,274.334,259.113,274.334z"/>
	</g>
	<g>
		<path fill="#764678" d="M334.399,170.399l-64.103,101.279c-2.425,4.197-7.358,6.38-12.257,5.424l-2.136-0.417
			c-5.042-0.984-7.964-6.202-6.047-10.8l42.732-98.353C293.589,165.334,313.578,162.825,334.399,170.399z"/>
	</g>
	<g>
		<g>
			<path fill="#EF8062" d="M325.081,104.737c0,0,3.789-0.965,4.72,0.009c0.932,0.975-0.058,5.129-1.792,5.402
				C326.275,110.422,323.326,105.651,325.081,104.737z"/>
		</g>
		<g>
			<path fill="#EF8062" d="M325.79,109.336c-1.805,5.24-10.604,25.474-40.646,32.518c-1.93,0.453-3.732,1.367-5.237,2.694
				l-5.992,5.282c-1.081,0.953-0.948,2.707,0.264,3.459l7.152,4.434c2.45,1.517,5.375,2.043,8.186,1.426
				c9.726-2.133,35.906-16.366,40.566-50.927c0.199-1.476-1.132-0.489-2.57-0.306l0,0
				C326.723,108.016,326.056,108.566,325.79,109.336z"/>
		</g>
		<g>
			<path fill="#7DC5B6" d="M327.326,103.875c0,0-3.499-2.135-4.336-3.953c-0.835-1.818-7.812,3.338-7.8,4.559
				c0.011,1.22,9.093,7.208,9.737,6.391C325.572,110.056,328.438,105.099,327.326,103.875z"/>
		</g>
		<g>
			<path fill="#7DC5B6" d="M327.326,103.875c0,0,0.839-1.808,0.553-2.833c0,0-0.175-0.896,0.561-0.792s4.575,3.225,4.875,4.127
				c0.3,0.901,0.101,5.039-1.22,5.267c-1.318,0.228-4.177-4.395-4.518-4.855C327.236,104.327,327.326,103.875,327.326,103.875z"/>
		</g>
		<g>
			<path fill="#331832" d="M328.046,110.239c-0.013,0-0.026,0-0.04,0c-1.103-0.045-1.986-1.107-2.026-1.152l0.142-0.119
				c0.006,0.014,0.871,1.048,1.894,1.089c0.011,0,0.021,0,0.031,0c0.991,0,1.944-1.86,1.956-1.878l0.159,0.082
				C330.119,108.342,329.148,110.239,328.046,110.239z"/>
		</g>
	</g>
	<g>
		<path fill="#020202" d="M319.039,194.915c-0.043,0-0.083-0.014-0.123-0.032c-0.12-0.067-0.161-0.223-0.093-0.34
			c0.218-0.382,5.388-9.377,10.16-11.655c0.123-0.067,0.272-0.004,0.331,0.113c0.059,0.128,0.007,0.273-0.117,0.332
			c-4.633,2.214-9.89,11.363-9.943,11.455C319.209,194.869,319.125,194.915,319.039,194.915z"/>
	</g>
	<g>
		<g>
			<path fill="#331832" d="M327.007,154.022c-0.335,0.59-1.07,0.798-1.642,0.464c-0.57-0.331-0.761-1.08-0.426-1.669
				c0.336-0.591,0.983-0.948,1.554-0.616C327.302,152.672,327.343,153.433,327.007,154.022z"/>
		</g>
		<g>
			<path fill="#331832" d="M329.547,143.259c-0.336,0.59-1.07,0.797-1.642,0.465c-0.57-0.333-0.761-1.08-0.425-1.67
				s0.982-0.949,1.553-0.616C329.842,141.909,329.883,142.669,329.547,143.259z"/>
		</g>
		<g>
			<path fill="#331832" d="M332.309,131.032c-0.336,0.589-1.07,0.797-1.642,0.465c-0.57-0.333-0.762-1.081-0.426-1.67
				c0.336-0.59,0.983-0.949,1.554-0.616C332.603,129.681,332.645,130.442,332.309,131.032z"/>
		</g>
	</g>
</g>
<g>
	<g>
		<g>
			<polygon fill="none" stroke="#73B3CE" stroke-miterlimit="10" points="254.181,61.047 247.01,48.814 308.528,13.196 
				315.327,24.796 			"/>
		</g>
	</g>
	<g>
		<g>
			<g>
				<polygon fill="none" stroke="#73B3CE" stroke-miterlimit="10" points="302.312,6.884 318.684,34.813 324.457,12.666 				"/>
			</g>
		</g>
	</g>
</g>
<g>
	<path fill="#EEE0FA" d="M399.575,87.592l-8.028-13.696l0.265-0.149l63.952-37.028l-4.884-8.334l0.701,0.186l24.137,6.301
		l-0.077,0.291l-6.399,24.547l-5.838-9.958L399.575,87.592z M392.374,74.114l7.415,12.653l63.827-37.84l5.407,9.223l5.959-22.851
		l-22.851-5.961l4.457,7.599l-0.263,0.15L392.374,74.114z"/>
</g>
<g>
	<g>
		<g>
			<polygon fill="none" stroke="#B8D5DC" stroke-miterlimit="10" points="479.786,174.417 474.484,165.374 519.956,139.046 
				524.982,147.621 			"/>
		</g>
	</g>
	<g>
		<g>
			<g>
				<polygon fill="none" stroke="#B8D5DC" stroke-miterlimit="10" points="515.362,134.381 527.464,155.023 531.73,138.654 				"/>
			</g>
		</g>
	</g>
</g>
<g>
	<g>
		<path fill="#B9CEEB" d="M92.906,121.065c-6.07,8.391-10.502,19.551-7.189,29.92c2.625,8.21,10.627,15.409,19.602,14.9
			c7.841-0.444,13.703-7.887,13.52-15.552c-0.207-8.672-8.604-12.326-16.255-10.918c-10.094,1.858-19.25,9.341-26.679,16.01
			c-8.541,7.667-15.908,16.716-21.442,26.782c-10.476,19.054-13.905,41.642-6.471,62.369c7.68,21.416,25.742,39.442,48.719,43.03
			c0.521,0.08,0.554-0.739,0.037-0.819c-18.833-2.94-34.437-15.873-43.429-32.346c-9.288-17.017-10.843-36.7-5.215-55.173
			c5.728-18.795,18.014-35.275,33.311-47.427c7.07-5.618,16.276-12.549,25.848-11.955c11.24,0.697,13.507,13.299,6.879,20.813
			c-7.925,8.986-20.941,2.738-25.936-6.056c-6.11-10.758-1.276-23.921,5.396-33.145C93.908,121.075,93.214,120.638,92.906,121.065
			L92.906,121.065z"/>
	</g>
</g>
</svg>
