<?xml version="1.0" encoding="utf-8"?>
<!-- Generator: Adobe Illustrator 16.0.0, SVG Export Plug-In . SVG Version: 6.00 Build 0)  -->
<!DOCTYPE svg PUBLIC "-//W3C//DTD SVG 1.1//EN" "http://www.w3.org/Graphics/SVG/1.1/DTD/svg11.dtd">
<svg version="1.1" id="Layer_1" xmlns="http://www.w3.org/2000/svg" xmlns:xlink="http://www.w3.org/1999/xlink" x="0px" y="0px"
	 width="640px" height="300px" viewBox="0 0 640 300" enable-background="new 0 0 640 300" xml:space="preserve">
<path fill="#B9CEEB" d="M561.91,98.487c-5.698,18.033-15.362,35.4-26.152,50.88c-10.435,14.968-24.518,28.328-43.083,31.656
	c-4.851,0.871-9.771,0.85-14.456-0.021c8.543-8.311,15.152-18.684,15.89-30.735c0.855-14.12-9.335-24.215-23.443-22.244
	c-12.956,1.81-21.912,12.603-20.39,25.749c1.573,13.601,12.303,24.509,25.271,27.756c-8.044,7.334-17.813,12.992-27.431,17.589
	c-13.604,6.502-29.327,11.36-44.552,9.456c-7.539-0.942-14.761-3.786-20.567-8.747c-7.45-6.361-11.784-15.375-16.452-23.781
	c-4.343-7.823-9.188-15.467-16.623-20.7c-6.503-4.578-14.278-7.188-22.143-8.104c-19.105-2.229-37.55,5.59-53.648,15.129
	c-0.414,0.244-0.03,0.867,0.388,0.637c19.079-10.648,41.225-19.827,63.183-12.62c11.066,3.636,18.907,11.13,24.784,21.019
	c5.157,8.687,9.026,18.313,15.817,25.933c22.944,25.735,64.265,9.383,87.893-6.608c3.813-2.58,7.58-5.535,11.066-8.814
	c0.275,0.055,0.552,0.109,0.828,0.158c19.736,3.334,38.314-8.133,50.726-22.531c7.675-8.906,13.776-19.08,19.5-29.31
	c5.656-10.118,10.589-20.523,13.802-31.684C562.152,98.405,561.95,98.359,561.91,98.487z M452.197,158.537
	c-4.645-15.453,6.099-30.099,22.355-29.814c7.817,0.136,14.82,4.429,17.268,12.086c2.886,9.042-0.194,19.054-4.854,26.938
	c-2.842,4.808-6.423,9.069-10.469,12.896C465.338,178.025,455.783,170.479,452.197,158.537z"/>
<path fill="#799ECC" d="M3.037,300.494c0,0,0.951-31.785,30.872-36.646c29.92-4.861,40.143,11.422,63.73,7.461
	c23.587-3.963,17.523-39.146,74.458-49.604c56.935-10.451,78.381,39.354,103.317,43.209c24.936,3.858,29.735-59.371,119.788-62.197
	c90.049-2.827,84.769,40.802,103.286,42.031c18.515,1.231,38.139-23.054,81.771-10.519C623.896,246.762,639.095,301,639.095,301"/>
<g>
	<path fill="#E2F3F7" d="M571.732,74.717c3.757,1.141,7.526,2.24,11.309,3.316c-6.241,5.129-12.32,10.682-17.589,16.84
		C568.073,88.325,570.211,81.604,571.732,74.717z"/>
	<path fill="#E2F3F7" d="M570.304,73.916c-1.771,7.31-3.963,14.41-6.767,21.363c-3.256-10.109-7.396-19.998-13.014-29.021
		c14.63-8.032,28.555-17.55,42.391-26.876c12.515-8.438,25.113-16.937,37.195-26.027c-19.624,19.87-39.729,39.436-58.562,60.044
		C571.128,73.16,570.449,73.292,570.304,73.916z"/>
	<path fill="#B9CEEB" d="M592.91,37.791c-14.104,9.52-28.712,18.316-42.732,27.946c-0.075,0.05-0.098,0.113-0.106,0.185
		c-0.062,0.007-0.106,0.023-0.164,0.05c-7.313-2.176-14.736-4.316-22.193-5.97c17.965-8.201,35.398-17.686,53.237-26.173
		c16.535-7.864,33.193-15.441,49.954-22.798C618.245,19.951,605.77,29.12,592.91,37.791z"/>
	<path fill="#B9CEEB" d="M632.633,12.652c-11.615,21.838-22.263,44.173-31.896,66.966c-0.212,0.49,0.038,0.892,0.404,1.098
		c-0.107,0.255-0.221,0.511-0.316,0.775c-9.256-3.105-18.778-5.985-28.371-7.801C593.131,54.035,612.703,33.074,632.633,12.652z"/>
	<path fill="#85A9D3" d="M583.041,78.034c-3.779-1.077-7.552-2.176-11.309-3.316c-1.521,6.887-3.659,13.608-6.28,20.156
		C570.721,88.716,576.8,83.163,583.041,78.034z M570.304,73.916c0.146-0.624,0.824-0.756,1.247-0.516
		c18.829-20.608,38.938-40.174,58.562-60.044c-12.082,9.09-24.684,17.589-37.195,26.027c-13.836,9.326-27.761,18.844-42.391,26.876
		c5.618,9.022,9.758,18.912,13.014,29.021C566.341,88.326,568.531,81.226,570.304,73.916z M527.711,60.002
		c7.457,1.653,14.884,3.794,22.193,5.97c0.058-0.027,0.104-0.043,0.164-0.05c0.012-0.072,0.031-0.135,0.106-0.185
		c14.021-9.63,28.628-18.426,42.732-27.946c12.856-8.671,25.335-17.84,37.992-26.759c-16.761,7.357-33.421,14.934-49.954,22.798
		C563.109,42.316,545.676,51.802,527.711,60.002z M632.633,12.652c-19.93,20.421-39.502,41.382-60.18,61.039
		c9.593,1.815,19.115,4.695,28.371,7.801c0.099-0.264,0.209-0.52,0.316-0.775c-0.367-0.206-0.617-0.608-0.404-1.098
		C610.37,56.826,621.018,34.491,632.633,12.652z M526.003,59.627c17.144-10.054,35.503-18.394,53.423-26.952
		c18.685-8.923,37.526-17.514,56.499-25.788c0.669-0.294,1.521,0.479,1.151,1.169c-12.604,23.329-24.096,47.218-34.426,71.639
		c0.146,0.959-0.132,2.071-0.82,2.76c-0.072,0.482-0.56,0.956-1.175,0.769c-5.271-1.649-10.574-3.164-15.88-4.689
		c-7.293,6.003-13.892,12.596-20.542,19.297c-0.019,0.033-0.031,0.064-0.049,0.106c-0.25,0.595-1.269,0.67-1.481-0.019
		c-3.271-10.631-7.715-20.654-12.567-30.637c-0.078,0.02-0.167,0.03-0.262,0.001c-7.802-2.004-15.72-4.125-23.346-6.734
		c-0.151,0.068-0.294,0.137-0.438,0.194c-0.486,0.221-0.924-0.471-0.583-0.805c0.019-0.193,0.165-0.382,0.394-0.34
		C525.931,59.617,525.972,59.622,526.003,59.627z"/>
</g>
<path fill="#B9CEEB" d="M594.908,87.027c-3.616-1.895-6.261-4.66-9.725-2.285c-3.114,2.136-5.936,7.093-8.217,10.109
	c-2.624,3.468-5.096,7.04-7.487,10.67c-0.186,0.278,0.236,0.565,0.432,0.291c3.113-4.461,6.363-8.815,9.813-13.022
	c1.392-1.695,4.517-6.631,6.303-7.301c2.538-0.952,6.079,1.531,8.322,2.651C594.979,88.456,595.54,87.359,594.908,87.027z"/>
<path fill="#B9CEEB" d="M557.672,36.736c-21.996,9.787-43.73,20.561-65.213,31.433c-0.236,0.12-0.044,0.465,0.193,0.359
	c21.977-9.853,44.041-19.964,65.5-30.901C558.738,37.33,558.262,36.474,557.672,36.736z"/>
<g>
	<path fill="#F89A2A" d="M68.634,224.195c-5.23,21.58-9.48,43.41-14.39,65.08c-3.47-3.221,0.98-14.721,1.77-18.119
		c1.24-5.359,2.49-10.729,3.74-16.102c2.4-10.369,4.85-20.738,7.29-31.109C67.574,224.025,68.104,224.115,68.634,224.195z"/>
	<path fill="#FBAD53" d="M69.724,224.355c2.66,0.391,5.31,0.75,7.97,1.102c-0.03,0.021-0.06,0.039-0.07,0.09
		c-1.32,3.459-2.22,7.131-2.4,10.852c-0.02,0.357,0.52,0.353,0.55,0c0.4-3.688,1.03-7.229,2.19-10.76
		c0.02-0.063,0.01-0.111-0.02-0.149c1.33,0.182,2.66,0.358,3.99,0.521c-0.1,0.109-0.19,0.229-0.23,0.42
		c-2.8,13.631-5.6,27.279-7.86,41.01c-1.01,6.15-1.92,12.312-2.67,18.49c-0.54,4.449-0.84,4.891-5.36,4.801
		c-3.35-0.08-6.71-0.149-10.06-0.221C60.744,268.557,65.984,246.545,69.724,224.355z M73.224,249.506
		c-3.43,12.699-5.79,25.76-7.81,38.76c-0.08,0.5,0.69,0.721,0.77,0.211c2.1-13.041,4.79-25.94,7.29-38.91
		C73.504,249.406,73.274,249.346,73.224,249.506z M69.704,253.307c1.91-6.721,2.98-13.711,3.85-20.641c0.03-0.291-0.42-0.28-0.45,0
		c-0.9,6.93-2.34,13.72-3.66,20.568C69.414,253.406,69.654,253.477,69.704,253.307z M67.654,255.156c1.22-9.852,3.3-19.721,5.5-29.4
		c0.11-0.51-0.68-0.709-0.77-0.209c-1.67,9.869-4.24,19.609-5.08,29.609C67.284,255.386,67.624,255.375,67.654,255.156z
		 M68.094,259.045c0.24,0.201,0.28,0.871,0.26,1.148c-0.06,0.922-0.76,1.609-1.69,1.592c-2.14-0.039-2.26-2.922-0.36-3.512
		c0.25-0.08,0.15-0.459-0.11-0.398c-0.74,0.148-1.25,0.602-1.53,1.148c0.19-2.238,0.33-4.479,0.42-6.721
		c0.01-0.261-0.4-0.261-0.41,0c-0.37,11.028-2.5,21.58-5.36,32.198c-0.01,0.041,0.04,0.052,0.05,0.021
		c2.76-7.629,4.34-15.647,5.14-23.729c0.21,0.682,0.72,1.271,1.54,1.5c2.31,0.641,3.92-2.299,2.16-3.898
		c-0.08-0.08-0.19-0.102-0.29-0.041c-0.74,0.381-1.09,1.15-0.92,1.961c0.05,0.199,0.34,0.119,0.31-0.08
		C67.254,259.906,67.534,258.586,68.094,259.045z M75.294,241.936c0.33-0.688,0.48-0.819,0.46-0.391c0,0.141,0,0.281,0,0.42
		c-0.01,0.33-0.04,0.66-0.11,0.979c-0.11,0.541-0.35,1.173-0.94,1.32c-0.89,0.238-1.44-0.779-1.42-1.521
		c0.01-0.938,0.73-1.761,1.27-2.461c0.1-0.119-0.06-0.3-0.17-0.181c-0.77,0.771-1.62,1.689-1.58,2.853
		c0.03,0.799,0.55,1.657,1.37,1.84c1.96,0.41,2.25-2.42,1.94-3.698c-0.02-0.063-0.07-0.121-0.14-0.132
		c-0.64-0.147-1.21,0.449-0.92,1.068C75.114,242.166,75.344,242.076,75.294,241.936z M78.264,233.076
		c-3.34,17.898-6.94,35.789-9.72,53.779c-0.02,0.141,0.18,0.199,0.21,0.061c3.78-17.801,6.75-35.801,9.97-53.709
		C78.784,232.896,78.314,232.766,78.264,233.076z"/>
	<path fill="#B9CEEB" d="M32.834,190.586c0.82-2.689,2.08-8.643,3.64-2.189c0.03,0.129,0.1,0.22,0.18,0.289
		c-2.48,8.791-5.06,17.57-7.28,26.431c-3.99-4.681-0.3-12.181,1.29-17.408C31.394,195.336,32.114,192.957,32.834,190.586z"/>
	<path fill="#B9CEEB" d="M129.894,206.826c2.11,2.17,7.94,6.67,6.601,10.43c-2.08-5.641-8.431-11.379-12.69-15.09
		c-0.09-0.08-0.18-0.119-0.27-0.158c-0.21-0.79-0.45-1.57-0.721-2.352C125.153,202.066,127.554,204.426,129.894,206.826z"/>
	<path fill="#B9CEEB" d="M122.024,199.886c0.25,0.72,0.52,1.44,0.82,2.149c-0.111,0.041-0.201,0.109-0.281,0.188
		c-0.09-0.062-0.189-0.107-0.319-0.13c-27.96-5.563-56.25-9.801-84.35-14.631c-0.13-0.021-0.26-0.021-0.39,0.011
		c-0.39-1.646-1.04-2.851-2.15-4.09c28.21,7.618,57.53,12.608,86.459,16.512C121.894,199.906,121.954,199.896,122.024,199.886z"/>
	<path fill="#B9CEEB" d="M122.604,203.426c3.039,2.71,13.779,11.33,10.67,15.539c-1.36,1.852-5.211,3.211-7.17,4.41
		c-2.701,1.67-5.4,3.33-8.07,5.031c-0.1-0.33-0.36-0.611-0.78-0.66c-14.85-1.531-29.67-3.041-44.45-5.143
		c-14.16-2.011-28.22-4.67-42.36-6.777c0.11-0.08,0.2-0.182,0.25-0.342c1.32-4.158,2.53-8.359,3.72-12.551
		c0.69-2.398,1.37-4.801,2.05-7.199c0.31-1.08,0.64-4.59,1.53-5.398c2.4-2.16,10.08,0.67,13.17,1.209
		c4.9,0.859,9.81,1.701,14.71,2.551c18.62,3.221,37.23,6.87,55.92,9.631C122.144,203.775,122.424,203.636,122.604,203.426z"/>
	<path fill="#85A9D3" d="M75.974,240.965c0.07,0.012,0.12,0.07,0.14,0.131c0.31,1.279,0.02,4.109-1.94,3.699
		c-0.82-0.18-1.34-1.039-1.37-1.84c-0.04-1.16,0.81-2.08,1.58-2.852c0.11-0.119,0.27,0.063,0.17,0.182
		c-0.54,0.699-1.26,1.521-1.27,2.461c-0.02,0.738,0.53,1.76,1.42,1.52c0.59-0.149,0.83-0.779,0.94-1.32
		c0.07-0.317,0.1-0.647,0.11-0.979c0-0.141,0-0.279,0-0.42c0.02-0.432-0.13-0.301-0.46,0.391c0.05,0.142-0.18,0.229-0.24,0.101
		C74.764,241.416,75.334,240.816,75.974,240.965z"/>
	<path fill="#85A9D3" d="M73.554,232.666c-0.87,6.93-1.94,13.92-3.85,20.641c-0.05,0.17-0.29,0.101-0.26-0.07
		c1.32-6.851,2.76-13.641,3.66-20.569C73.134,232.386,73.584,232.375,73.554,232.666z"/>
	<path fill="#85A9D3" d="M68.544,286.855c2.78-17.99,6.38-35.881,9.72-53.779c0.05-0.311,0.52-0.18,0.46,0.131
		c-3.22,17.908-6.19,35.908-9.97,53.709C68.724,287.057,68.524,286.996,68.544,286.855z"/>
	<path fill="#85A9D3" d="M73.154,225.756c-2.2,9.68-4.28,19.551-5.5,29.4c-0.03,0.219-0.37,0.229-0.35,0
		c0.84-10,3.41-19.74,5.08-29.611C72.474,225.045,73.264,225.246,73.154,225.756z"/>
	<path fill="#85A9D3" d="M73.474,249.566c-2.5,12.969-5.19,25.869-7.29,38.908c-0.08,0.512-0.85,0.291-0.77-0.209
		c2.02-13,4.38-26.062,7.81-38.761C73.274,249.346,73.504,249.406,73.474,249.566z"/>
	<path fill="#85A9D3" d="M68.354,260.195c0.02-0.279-0.02-0.949-0.26-1.148c-0.56-0.461-0.84,0.859-0.79,1.189
		c0.03,0.199-0.26,0.279-0.31,0.08c-0.17-0.812,0.18-1.58,0.92-1.961c0.1-0.062,0.21-0.039,0.29,0.041
		c1.76,1.6,0.15,4.539-2.16,3.897c-0.82-0.229-1.33-0.819-1.54-1.5c-0.8,8.08-2.38,16.103-5.14,23.729
		c-0.01,0.029-0.06,0.021-0.05-0.021c2.86-10.618,4.99-21.17,5.36-32.197c0.01-0.262,0.42-0.262,0.41,0
		c-0.09,2.238-0.23,4.479-0.42,6.719c0.28-0.549,0.79-1,1.53-1.147c0.26-0.062,0.36,0.317,0.11,0.397
		c-1.9,0.593-1.78,3.474,0.36,3.513C67.594,261.807,68.294,261.115,68.354,260.195z"/>
	<path fill="#85A9D3" d="M68.634,224.195c-0.53-0.08-1.06-0.17-1.59-0.25c-2.44,10.371-4.89,20.74-7.29,31.109
		c-1.25,5.37-2.5,10.739-3.74,16.102c-0.79,3.398-5.24,14.898-1.77,18.119C59.154,267.605,63.404,245.775,68.634,224.195z
		 M29.374,215.115c2.22-8.859,4.8-17.641,7.28-26.43c-0.08-0.07-0.15-0.16-0.18-0.289c-1.56-6.451-2.82-0.5-3.64,2.188
		c-0.72,2.369-1.44,4.75-2.17,7.119C29.074,202.936,25.384,210.436,29.374,215.115z M72.804,222.605
		c14.78,2.102,29.6,3.608,44.45,5.141c0.42,0.051,0.681,0.33,0.78,0.66c2.67-1.699,5.369-3.359,8.07-5.029
		c1.959-1.199,5.81-2.561,7.17-4.409c3.109-4.212-7.631-12.829-10.67-15.54c-0.181,0.211-0.461,0.35-0.811,0.301
		c-18.69-2.761-37.3-6.41-55.92-9.631c-4.9-0.852-9.81-1.688-14.71-2.551c-3.09-0.539-10.77-3.369-13.17-1.211
		c-0.89,0.813-1.22,4.32-1.53,5.4c-0.68,2.398-1.36,4.799-2.05,7.199c-1.19,4.188-2.4,8.391-3.72,12.551
		c-0.05,0.16-0.14,0.26-0.25,0.34C44.584,217.936,58.644,220.596,72.804,222.605z M136.494,217.256c1.34-3.76-4.49-8.26-6.601-10.43
		c-2.34-2.4-4.74-4.762-7.08-7.17c0.271,0.777,0.511,1.56,0.721,2.35c0.09,0.039,0.18,0.08,0.27,0.16
		C128.063,205.875,134.414,211.615,136.494,217.256z M122.845,202.035c-0.301-0.709-0.57-1.43-0.82-2.146
		c-0.07,0.01-0.131,0.021-0.211,0.01c-28.93-3.897-58.25-8.892-86.459-16.51c1.11,1.238,1.76,2.438,2.15,4.09
		c0.13-0.03,0.26-0.03,0.39-0.011c28.1,4.829,56.39,9.067,84.35,14.63c0.13,0.021,0.229,0.068,0.319,0.131
		C122.644,202.146,122.733,202.076,122.845,202.035z M136.664,218.826c-0.12,0.142-0.28,0.16-0.431,0.119
		c-2.049,2.029-5.279,3.41-7.709,4.871c-3.471,2.09-6.93,4.188-10.44,6.219c-0.521,0.301-0.979-0.107-1.03-0.561
		c-11.2-0.84-22.52-1.908-33.83-3.3c0.15,0.181,0.22,0.421,0.16,0.71c-4.41,21.489-8.77,43-11.12,64.83
		c-0.05,0.46-0.36,0.881-0.87,0.87c-5.58-0.12-11.15-0.239-16.73-0.36c-0.58-0.021-0.96-0.55-0.83-1.101
		c0.05-0.239,0.1-0.479,0.16-0.719c-2.29-1.08-2.65-3.224-2.32-5.884c0.84-6.776,3.13-13.67,4.67-20.33
		c3.12-13.479,6.21-26.969,9.28-40.469c-12.02-1.858-23.94-4.143-35.61-6.961c-0.21-0.051-0.31-0.182-0.34-0.34
		c-4.13-1.893-3.82-6.602-2.88-10.4c1.91-7.709,4.59-15.317,6.91-22.907c0.09-0.302,0.36-0.459,0.63-0.472
		c0.06-0.237,0.27-0.438,0.59-0.381c28.85,5.87,57.51,11.84,86.64,16.229c-0.069-0.461,0.641-0.632,0.811-0.147
		c0.02,0.067,0.05,0.141,0.07,0.209c0.08-0.011,0.16,0.021,0.229,0.08c4.66,3.891,9.31,8.278,13.171,12.979
		C137.685,213.865,138.674,216.406,136.664,218.826z M75.224,236.396c0.18-3.722,1.08-7.392,2.4-10.853
		c0.01-0.049,0.04-0.069,0.07-0.09c-2.66-0.353-5.31-0.709-7.97-1.103c-3.74,22.189-8.98,44.2-13.97,66.148
		c3.35,0.07,6.71,0.143,10.06,0.223c4.52,0.09,4.82-0.352,5.36-4.801c0.75-6.182,1.66-12.342,2.67-18.49
		c2.26-13.729,5.06-27.38,7.86-41.01c0.04-0.189,0.13-0.313,0.23-0.422c-1.33-0.158-2.66-0.34-3.99-0.52
		c0.03,0.039,0.04,0.09,0.02,0.148c-1.16,3.53-1.79,7.069-2.19,10.762C75.744,236.746,75.204,236.756,75.224,236.396z"/>
</g>
<g>
	<path fill="none" stroke="#B9CEEB" stroke-miterlimit="10" d="M137.114,101.765c0.12-0.37-0.08-0.891-0.59-0.95
		c-26.28-3.1-52.939-4-79.36-2.57c-0.04-0.109-0.109-0.22-0.26-0.279c-2.29-0.94-3.479-2.601-3.569-4.99
		c-0.221-1.69,0.489-2.9,2.13-3.63c2.83-2.551,5.52-2.45,8.8-0.2c0.58,0.39,1.14-0.36,0.89-0.891c-4.08-8.479-2.51-21,8.65-22.59
		c11.109-1.58,17.72,8.41,18.71,18.19c0.07,0.74,1.21,0.76,1.16,0c-0.011-0.16-0.021-0.33-0.04-0.49
		c3.64-10.56,9.26-23.79,22.5-23.59c7.319,0.12,12.1,6.46,12.2,13.43c0.09,6.41-3.211,11.92-6.66,17.07
		c-0.48,0.71,0.649,1.34,1.14,0.66c0.01-0.01,0.021-0.03,0.03-0.04c0.069,0.189,0.29,0.34,0.529,0.2
		c7.54-4.46,16.561,2.25,13.94,10.729L137.114,101.765z"/>
	<path fill="none" stroke="#B9CEEB" stroke-miterlimit="10" d="M52.774,89.654c2.061-3.938,6.87-4.18,10.51-2.54
		c-3.279-8.88-1.18-20.53,9.551-22.62c8.935-1.739,21.053,19.932,20.569,16.95c3.55-11.479,11.41-25.79,25.601-22.66
		c6.119,1.351,9.88,6.73,10.569,12.76c0.771,6.82-2.399,13.28-6.26,18.7c8.21-5.14,18.06,2.73,15.22,11.971
		c-0.239,0.779-1.47,0.438-1.229-0.341c0.01-0.02,0.01-0.029,0.01-0.05c2.62-8.479-6.4-15.189-13.94-10.729
		c-0.239,0.14-0.46-0.011-0.529-0.2c-0.01,0.01-0.021,0.03-0.03,0.04c-0.49,0.68-1.62,0.05-1.14-0.66
		c3.449-5.15,6.75-10.66,6.66-17.07c-0.101-6.97-4.881-13.31-12.2-13.43c-13.24-0.2-18.86,13.03-22.5,23.59
		c0.02,0.16,0.029,0.33,0.04,0.49c0.05,0.76-1.09,0.74-1.16,0c-0.99-9.78-7.601-19.771-18.71-18.19
		c-11.16,1.59-12.73,14.11-8.65,22.59c0.25,0.53-0.31,1.28-0.89,0.891c-3.28-2.25-5.97-2.351-8.8,0.2
		c-1.641,0.729-2.351,1.939-2.13,3.63c0.09,2.39,1.279,4.05,3.569,4.99c0.15,0.06,0.22,0.17,0.26,0.279
		c26.421-1.43,53.08-0.529,79.36,2.57c0.51,0.06,0.71,0.58,0.59,0.95c-0.069,0.22-0.27,0.38-0.59,0.35
		c-26.54-2.771-53.06-3.771-79.74-3.12c-0.229,0.01-0.34-0.149-0.35-0.33C52.725,97.604,50.965,93.124,52.774,89.654z"/>
</g>
<g>
	<path fill="none" stroke="#B9CEEB" stroke-miterlimit="10" d="M75.904,27.517c0.619,1.53,0.06,3.12-1.08,4.18
		c-0.101-0.18-0.281-0.3-0.551-0.29c-22.28,1.141-44.56,2.17-66.86,2.94c0,0,0-0.011-0.01-0.011c-3.34-1.529-4.8-6.239-2.31-9.189
		c2.84-3.37,8-2.15,10.55,0.85c0.24,0.29,0.68,0.051,0.71-0.26c0.09-0.11,0.11-0.27-0.01-0.41c-5.38-6.27,0.7-14.89,7.5-16.479
		c7.83-1.83,14.86,3.66,15.19,11.62c0.03,0.55,0.67,0.689,0.98,0.409c0.23,0.011,0.47-0.17,0.39-0.47
		c-2.66-10.56,12.23-17.24,20.66-16.07c9.76,1.351,15.96,11.48,9.85,20.03c-0.13,0.181-0.11,0.38-0.02,0.54
		c-0.07,0.2,0.08,0.47,0.35,0.4C73.104,24.875,75.144,25.687,75.904,27.517z"/>
	<path fill="none" stroke="#B9CEEB" stroke-miterlimit="10" d="M7.404,34.335c0.01,0,0.01,0.011,0.01,0.011
		c22.3-0.771,44.58-1.8,66.86-2.94c0.27-0.01,0.45,0.11,0.551,0.29c1.14-1.06,1.699-2.649,1.08-4.18
		c-0.761-1.83-2.801-2.641-4.661-2.21c-0.27,0.069-0.42-0.2-0.35-0.4c-0.09-0.16-0.11-0.359,0.02-0.54
		c6.11-8.55-0.09-18.68-9.85-20.03c-8.43-1.17-23.32,5.511-20.66,16.07c0.08,0.3-0.16,0.479-0.39,0.47
		c-0.31,0.28-0.95,0.141-0.98-0.409c-0.33-7.96-7.36-13.45-15.19-11.62c-6.8,1.59-12.88,10.21-7.5,16.479
		c0.12,0.141,0.1,0.3,0.01,0.41c-0.03,0.311-0.47,0.55-0.71,0.26c-2.55-3-7.71-4.22-10.55-0.85
		C2.604,28.097,4.063,32.807,7.404,34.335z M73.934,32.776c-22.21,1.38-44.46,2.11-66.71,2.33c-0.1,0-0.17-0.03-0.23-0.08
		c-4.26-1.3-5.58-7.27-2.84-10.61c2.44-2.97,6.88-3.02,9.95-1.05c-2.97-5.85,2.16-13.189,8.14-15.31c7.06-2.5,14.34,1.12,16.94,7.49
		c1.53-8.4,14.69-13.61,22.15-12.58c10.04,1.39,17.68,12.76,10.95,21.529c1.86-0.13,3.78,0.851,4.53,2.641
		c0.92,2.17-0.13,4.87-2.22,5.91C74.293,33.196,74.014,33.017,73.934,32.776z"/>
</g>
<g opacity="0.4">
	<g>
		<circle fill="#B9CEEB" cx="208.054" cy="202.682" r="1.012"/>
		<circle fill="#B9CEEB" cx="217.039" cy="160.795" r="2.15"/>
		<circle fill="#B9CEEB" cx="255.887" cy="165.731" r="2.278"/>
		<circle fill="#B9CEEB" cx="184.77" cy="223.941" r="0.76"/>
		<circle fill="#B9CEEB" cx="333.204" cy="142.574" r="2.657"/>
		<circle fill="#B9CEEB" cx="320.549" cy="109.673" r="2.404"/>
		<circle fill="#B9CEEB" cx="421.91" cy="156.368" r="2.024"/>
		<circle fill="#B9CEEB" cx="477.59" cy="123.719" r="1.518"/>
		<circle fill="#B9CEEB" cx="494.039" cy="195.848" r="2.531"/>
		<circle fill="#B9CEEB" cx="527.194" cy="206.226" r="0.759"/>
		<circle fill="#B9CEEB" cx="468.099" cy="165.857" r="0.633"/>
		<circle fill="#B9CEEB" cx="525.043" cy="246.086" r="2.15"/>
	</g>
	<g>
		<circle fill="none" stroke="#52909D" stroke-miterlimit="10" cx="431.837" cy="121.367" r="5.175"/>
		<circle fill="none" stroke="#52909D" stroke-miterlimit="10" cx="445.084" cy="176.84" r="2.484"/>
		<circle fill="none" stroke="#52909D" stroke-miterlimit="10" cx="500.35" cy="153.452" r="3.519"/>
		<circle fill="none" stroke="#52909D" stroke-miterlimit="10" cx="472.51" cy="202.198" r="1.552"/>
		<circle fill="none" stroke="#52909D" stroke-miterlimit="10" cx="437.529" cy="232.832" r="0.518"/>
		<circle fill="none" stroke="#52909D" stroke-miterlimit="10" cx="528.604" cy="229.727" r="2.381"/>
		<circle fill="none" stroke="#52909D" stroke-miterlimit="10" cx="184.486" cy="201.058" r="3.104"/>
		<circle fill="none" stroke="#52909D" stroke-miterlimit="10" cx="201.149" cy="173.633" r="1.553"/>
		<circle fill="none" stroke="#52909D" stroke-miterlimit="10" cx="262.728" cy="144.136" r="4.346"/>
		<circle fill="none" stroke="#52909D" stroke-miterlimit="10" cx="290.464" cy="107.294" r="1.242"/>
		<circle fill="none" stroke="#52909D" stroke-miterlimit="10" cx="227.954" cy="112.882" r="2.484"/>
		<circle fill="none" stroke="#52909D" stroke-miterlimit="10" cx="380.09" cy="101.291" r="2.07"/>
		<circle fill="none" stroke="#52909D" stroke-miterlimit="10" cx="470.259" cy="75.162" r="3.278"/>
		<circle fill="none" stroke="#52909D" stroke-miterlimit="10" cx="246.151" cy="81.532" r="3.095"/>
		<circle fill="none" stroke="#52909D" stroke-miterlimit="10" cx="185.708" cy="120.856" r="2.731"/>
	</g>
</g>
<path fill="#B9CEEB" d="M542.139,70.031c-8.097,5.171-16.031,10.716-23.861,16.285c-0.086,0.062,0.011,0.186,0.098,0.13
	c8.086-5.196,16.189-10.5,24.006-16.092C542.595,70.203,542.355,69.893,542.139,70.031z"/>
<path fill="#B9CEEB" d="M536.827,84.662c-8.097,5.171-16.031,10.716-23.861,16.285c-0.086,0.062,0.011,0.186,0.098,0.13
	c8.086-5.196,16.189-10.5,24.006-16.092C537.283,84.833,537.044,84.523,536.827,84.662z"/>
<path fill="#B9CEEB" d="M517.934,107.994c-8.097,5.171-16.031,10.716-23.861,16.285c-0.086,0.062,0.011,0.186,0.098,0.13
	c8.086-5.196,16.189-10.5,24.006-16.092C518.39,108.166,518.15,107.856,517.934,107.994z"/>
<path fill="#B9CEEB" d="M505.823,73.294c-8.097,5.171-16.031,10.716-23.861,16.285c-0.086,0.062,0.011,0.186,0.098,0.13
	c8.086-5.196,16.189-10.5,24.006-16.092C506.279,73.465,506.04,73.156,505.823,73.294z"/>
</svg>
