<?xml version="1.0" encoding="utf-8"?>
<!-- Generator: Adobe Illustrator 16.0.0, SVG Export Plug-In . SVG Version: 6.00 Build 0)  -->
<!DOCTYPE svg PUBLIC "-//W3C//DTD SVG 1.1//EN" "http://www.w3.org/Graphics/SVG/1.1/DTD/svg11.dtd">
<svg version="1.1" id="Layer_1" xmlns="http://www.w3.org/2000/svg" xmlns:xlink="http://www.w3.org/1999/xlink" x="0px" y="0px"
	 width="640px" height="300px" viewBox="0 0 640 300" enable-background="new 0 0 640 300" xml:space="preserve">
<g opacity="0.3">
	<path fill="#B9CEEB" d="M639.921,300H0.452c-0.919,0-1.665-0.745-1.665-1.665c0-0.921,0.746-1.665,1.665-1.665h639.469
		c0.921,0,1.665,0.744,1.665,1.665C641.586,299.255,640.842,300,639.921,300z"/>
</g>
<g>
	<g opacity="0.1">
		<g>
			<path fill="#EDDFEE" d="M503.174,266.59c-73.504,0-133.295-59.809-133.295-133.333C369.879,59.791,429.67,0,503.174,0
				c73.505,0,133.295,59.791,133.295,133.256C636.469,206.781,576.679,266.59,503.174,266.59z M503.174,19.24
				c-62.905,0-114.074,51.148-114.074,114.016c0,62.926,51.169,114.113,114.074,114.113S617.23,196.182,617.23,133.256
				C617.229,70.389,566.079,19.24,503.174,19.24z"/>
		</g>
	</g>
	<g opacity="0.2">
		<g>
			<path fill="#B9CEEB" d="M562.338,150.598c1.843-5.106,3.021-10.353,3.761-15.688c1.785-12.269-1.651-23.303-8.069-33.635
				c-2.926-4.616-5.892-9.231-7.523-14.529c-3.493-11.722,3.421-21.976,15.614-22.736c-41.18-38.842-110.848-30.467-140.915,17.588
				c1.161,0.435,2.376,0.378,3.63,0.378c8.698,0,17.358-0.531,26.021-1.083c3.15-0.245,4.938,1.083,5.053,3.572
				c0.114,2.239-1.521,3.666-4.539,4.008c-2.187,0.17-4.313,0.417-6.497,0.55c-3.285,0.245-3.305,0.151-2.241,3.286
				c9.974,29.725,19.963,59.467,29.972,89.155c1.009,2.98,2.054,5.906,3.135,9.002c0.419-0.475,0.57-0.625,0.646-0.74
				c6.534-19.678,13.088-39.333,19.64-58.994c0.307-0.911,0.344-1.748,0-2.678c-4.558-12.401-9.038-24.787-13.521-37.226
				c-0.455-1.234-1.141-1.728-2.432-1.805c-2.659-0.114-5.302-0.343-7.901-0.627c-2.924-0.38-4.35-2.793-3.306-5.299
				c0.969-2.318,2.926-2.355,4.979-2.204c9.988,0.59,19.962,1.405,29.989,0.856c5.927-0.304,11.871-0.646,17.797-0.893
				c2.829-0.172,4.463,1.121,4.651,3.399c0.21,2.222-1.441,3.836-4.081,4.179c-2.263,0.209-4.521,0.456-6.8,0.589
				c-3.438,0.245-3.459,0.151-2.395,3.342c8.699,25.887,17.436,51.795,26.153,77.683c2.222,6.572,4.387,13.105,6.798,20.133
				c0.399-1.233,0.665-1.957,0.896-2.658C554.646,175.156,557.988,162.734,562.338,150.598z"/>
		</g>
		<g>
			<path fill="#B9CEEB" d="M513.354,164.539c-2.732-7.502-5.509-15.023-8.546-23.324c-9.384,27.258-18.5,53.732-27.653,80.209
				c-0.531,1.539-0.074,2.014,1.404,2.432c18.082,4.691,36.012,4.369,53.827-1.389c1.443-0.473,1.861-0.834,1.271-2.43
				C526.841,201.557,520.115,183.057,513.354,164.539z"/>
		</g>
		<g>
			<path fill="#B9CEEB" d="M462.339,217.588c-14.892-40.816-29.707-81.369-44.673-122.451
				C397.553,138.329,414.779,194.947,462.339,217.588z"/>
		</g>
		<g>
			<path fill="#B9CEEB" d="M596.813,127.787c-0.646-13.256-4.104-25.832-10.334-37.606c-1.348,0.247-0.684,1.063-0.605,1.767
				c0.721,11.965-1.215,23.475-5.166,34.738c-8.605,24.559-17.133,49.078-25.68,73.637c-1.597,4.502-3.076,9.079-4.823,14.112
				c7.749-4.463,14.243-9.479,19.94-15.442C589.139,179.107,598.161,155.346,596.813,127.787z"/>
		</g>
	</g>
</g>
<g>
	<path opacity="0.3" fill="#B9CEEB" d="M364.486,104.509h-24.918l-13.211,19.659h-7.338c-0.779,0-1.545,0.175-1.693,0.399
		c-0.083,0.133,0.049,0.249,0.332,0.324c0.556,0.158,0.822,0.391,0.64,0.656c-0.314,0.466-1.901,0.848-3.54,0.848
		c-1.637,0-2.708-0.382-2.394-0.848c0.184-0.266,0.766-0.498,1.528-0.656c0.399-0.075,0.689-0.191,0.773-0.324
		c0.149-0.225-0.357-0.399-1.146-0.399h-7.444l-1.445,2.119c-0.149,0.225-0.914,0.408-1.695,0.408c-0.44,0-0.806-0.058-1.021-0.158
		c-0.416-0.191-1.164-0.308-2.086-0.308c-1.637,0-3.224,0.382-3.548,0.847c-0.315,0.466,0.756,0.848,2.401,0.848
		c0.923,0,1.828-0.125,2.501-0.316c0.349-0.091,0.798-0.15,1.238-0.15c0.781,0,1.296,0.175,1.146,0.399l-1.446,2.127h7.445
		c0.788,0,1.546-0.183,1.702-0.407c0.083-0.124-0.05-0.24-0.34-0.316c-0.557-0.157-0.814-0.39-0.641-0.656
		c0.314-0.473,1.902-0.847,3.548-0.847c1.637,0,2.709,0.375,2.393,0.847c-0.183,0.266-0.764,0.499-1.535,0.656
		c-0.392,0.076-0.683,0.192-0.773,0.316c-0.149,0.225,0.366,0.407,1.146,0.407h7.378l-41.229,61.329h-18.57
		c-2.186,0-3.357-1.028-2.626-2.311c0.391-0.706,1.32-1.361,2.483-1.82c2.236-0.88,4.006-2.226,4.687-3.721
		c1.13-2.668-1.404-4.818-5.559-4.818c-4.146,0-8.6,2.15-10.037,4.818c-0.856,1.495-0.515,2.841,0.749,3.721
		c0.656,0.459,0.83,1.114,0.397,1.82c-0.789,1.28-3.223,2.311-5.408,2.311h-20.706l-11.018,12.072
		c-1.296,1.271-0.407,2.311,2.002,2.311c1.346,0,2.925-0.35,4.32-0.896c2.692-1.078,5.833-1.762,8.616-1.762
		c4.944,0,7.096,2.15,4.704,4.813c-2.493,2.658-8.85,4.813-14.109,4.813c-2.958,0-4.87-0.682-5.442-1.764
		c-0.291-0.547-1.205-0.896-2.592-0.896c-2.476,0-5.634,1.038-7.071,2.311l-14.864,12.072h25.558c2.701,0,3.689,1.03,2.193,2.311
		c-0.847,0.715-2.376,1.371-4.113,1.82c-3.431,0.881-6.63,2.227-8.558,3.723c-3.514,2.668-1.545,4.818,4.487,4.818
		c6.041,0,13.602-2.15,16.809-4.818c1.753-1.496,1.803-2.842,0.474-3.723c-0.673-0.449-0.664-1.105,0.149-1.82
		c1.43-1.278,4.753-2.311,7.453-2.311h23.356l-37.963,56.477h-31.433c-2.934,0-4.62-0.771-4.62-1.901
		c0-0.466,0.291-0.998,0.897-1.556c1.146-1.063,3.282-2.043,5.75-2.717c4.786-1.319,8.974-3.332,11.192-5.566
		c3.822-3.979,0.274-7.203-7.802-7.203c-8.068,0-17.964,3.225-22.218,7.203c-2.451,2.234-2.518,4.247-0.565,5.566
		c0.482,0.324,0.732,0.715,0.732,1.153c0,0.476-0.3,1.007-0.923,1.563c-2.168,1.912-7.303,3.457-11.441,3.457H121.36l-23.09,16.543
		H0l163.586-106.188h20.224c2.601,0,3.39,0.83,1.745,1.853c-0.922,0.574-2.492,1.099-4.229,1.465
		c-3.415,0.705-6.664,1.785-8.716,2.99c-3.698,2.136-2.102,3.862,3.623,3.862s13.228-1.729,16.701-3.862
		c1.919-1.205,2.185-2.285,1.064-2.99c-0.574-0.366-0.449-0.891,0.448-1.465c1.587-1.021,4.977-1.853,7.578-1.853h24.636
		l12.571-9.688c1.238-1.021,0.25-1.854-2.186-1.854c-1.361,0-2.957,0.274-4.37,0.717c-2.792,0.862-6.09,1.42-8.99,1.42
		c-5.16,0-6.996-1.735-4.179-3.863c2.742-2.135,8.899-3.862,13.827-3.862c2.774,0,4.619,0.548,5.25,1.412
		c0.324,0.438,1.238,0.714,2.567,0.714c2.393,0,5.26-0.822,6.398-1.854l9.954-9.688H236.43c-2.219,0-3.107-0.832-1.994-1.854
		c0.614-0.572,1.761-1.098,3.091-1.463c2.567-0.707,4.819-1.787,6.007-2.99c2.053-2.137,0.149-3.863-4.188-3.863
		c-4.337,0-9.647,1.729-11.932,3.863c-1.32,1.203-1.354,2.283-0.307,2.99c0.541,0.365,0.541,0.891-0.108,1.463
		c-1.155,1.021-3.913,1.854-6.14,1.854h-16.377l92.678-60.158h-24.91l64.245-15.014L364.486,104.509z"/>
	<path fill="#B9CEEB" d="M204.881,177.943c-3,2.127-9.663,3.863-14.814,3.863c-2.9,0-4.662-0.558-5.035-1.422
		c-0.2-0.439-1.03-0.715-2.393-0.715c-0.449,0-0.914,0.033-1.396,0.083l5.559-3.612c0.299,0.043,0.648,0.064,1.039,0.064
		c1.337,0,2.966-0.273,4.454-0.714c2.883-0.864,6.148-1.412,8.916-1.412C206.136,174.081,207.806,175.811,204.881,177.943z"/>
	<path fill="#B9CEEB" d="M271.551,205.688l-2.908,4.321c-0.082,0-0.175-0.009-0.258-0.009c-1.387,0-2.924,0.35-4.221,0.896
		c-2.567,1.08-5.774,1.763-8.731,1.763c-5.26,0-7.611-2.152-5.368-4.813c2.135-2.658,7.794-4.811,12.737-4.811
		c2.784,0,4.827,0.683,5.759,1.762c0.474,0.549,1.486,0.896,2.833,0.896C271.443,205.695,271.494,205.688,271.551,205.688z"/>
	<polygon fill="#FFFFFF" points="221.015,280.857 221.013,280.857 213.507,292.021 	"/>
</g>
<g>
	<g>
		<g>
			<g>
				<g>
					<g>
						<path fill="#EB9482" d="M323.061,297.457c-2.362-0.717-0.475-7.533,2.072-9.695c0.812-0.685,3.84-2.336,7.642-4.302
							c8.368-4.317,20.409-10.112,20.409-10.112l-11.631-43.728l42.353-0.959c0,0,12.728,41.021,12.729,43.592
							c0,0.158,0.002,0.317,0.002,0.476c-0.033,11.681-0.344,21.246-1.286,21.873C392.828,296.299,325.439,298.18,323.061,297.457z"
							/>
						<path fill="#EBEBEB" d="M323.059,297.454c2.382,0.728,69.771-1.152,72.291-2.854c0.941-0.627,1.252-10.188,1.287-21.871
							c-0.004-0.155-0.002-0.32-0.006-0.479c0-0.55-0.58-2.857-1.496-6.145l-43.549,1.224l1.6,6.021c0,0-12.045,5.795-20.414,10.106
							c-3.801,1.967-6.827,3.618-7.639,4.306C322.582,289.922,320.7,296.74,323.059,297.454z"/>
						<g>
							<path fill="#B9CEEB" d="M322.313,297.855c2.421,0.735,71.035-1.271,73.598-3.006c0.984-0.646,1.275-10.658,1.277-22.771
								c0-0.127-0.002-0.253-0.002-0.38l-44.282,0.801l0.039,0.75c0,0-25.921,12.517-28.537,14.724
								C321.809,290.172,319.891,297.128,322.313,297.855z"/>
							<g>
								<g>
									<path fill="#263238" d="M323.012,295.172c11.558-0.622,58.234-2.041,69.707-1.777c0.092,0.002,0.094,0.064,0.002,0.072
										c-11.442,0.867-58.129,1.907-69.705,1.895C322.771,295.361,322.768,295.186,323.012,295.172z"/>
									<path fill="#263238" d="M347.979,272.771c4.527-0.982,10.115-0.446,13.688,2.693c0.14,0.121-0.037,0.314-0.187,0.273
										c-4.53-1.283-8.753-2.069-13.468-2.395C347.682,273.322,347.654,272.841,347.979,272.771z"/>
									<path fill="#263238" d="M344.752,274.848c4.527-0.981,10.113-0.447,13.687,2.693c0.14,0.122-0.035,0.316-0.185,0.273
										c-4.533-1.283-8.752-2.068-13.467-2.396C344.455,275.398,344.428,274.917,344.752,274.848z"/>
									<path fill="#263238" d="M341.523,276.923c4.525-0.981,10.114-0.446,13.688,2.694c0.139,0.122-0.037,0.316-0.186,0.273
										c-4.531-1.283-8.752-2.07-13.468-2.396C341.227,277.475,341.201,276.993,341.523,276.923z"/>
									<g>
										<path fill="#263238" d="M344,269.439c3.291,2.408,7.512,3.309,11.311,4.59c0.396,0.134,0.695-0.241,0.697-0.59
											c0.074-0.017,0.137-0.073,0.104-0.166c-1.353-3.768-4.161-7.728-7.313-10.223c-1.946-1.539-5.312-2.552-7.025-0.035
											C340.146,265.396,342.078,268.032,344,269.439z M342.734,265.811c-0.949-4.97,4.489-2.504,5.879-1.312
											c0.893,0.767,1.709,1.655,2.487,2.535c1.634,1.845,2.972,3.886,4.403,5.876c-1.828-0.745-3.703-1.325-5.557-2.001
											C347.74,270.104,343.256,268.551,342.734,265.811z"/>
										<path fill="#263238" d="M371.104,265.895c-1.184-2.807-4.68-2.481-6.895-1.356c-3.584,1.819-7.125,5.146-9.195,8.565
											c-0.051,0.086-0.004,0.154,0.066,0.187c-0.064,0.34,0.154,0.771,0.566,0.716c3.979-0.503,8.293-0.548,11.997-2.257
											C369.807,270.75,372.223,268.548,371.104,265.895z M361.521,272.008c-1.949,0.295-3.902,0.492-5.843,0.859
											c1.799-1.666,3.517-3.401,5.479-4.887c0.938-0.707,1.914-1.418,2.939-1.991c1.602-0.894,7.418-2.231,5.502,2.452
											C368.549,271.023,363.846,271.656,361.521,272.008z"/>
									</g>
								</g>
							</g>
						</g>
					</g>
					<g>
						<path fill="#263238" d="M443.566,199.355c0,0,8.361,27.265-4.658,35.77c-8.695,5.68-48.004-0.732-49.803-5.518
							c-3.398-9.041-3.498-12.387-3.498-12.387l11.396,48.118l-49.234,1.962c0,0-10.369-39.783-9.188-82.352
							c0.437-15.738,21.426-21.086,36.34-13.684c14.459,7.178,40.564,27.5,40.564,27.5L443.566,199.355z"/>
						<g>
							<path fill="#37474F" d="M392.053,237.094c-2.836-6.421-2.699-8.978-9.895-28.951c-0.963-2.67-1.781-5.391-2.648-8.093
								c-0.901-2.801-1.953-5.587-2.653-8.446c-0.035-0.139-0.261-0.074-0.216,0.063c0.836,2.472,1.404,5.028,2.134,7.533
								c0.716,2.45,1.44,4.897,2.198,7.336c0.328,1.053,0.67,2.103,1.002,3.151c-0.139-0.217-0.277-0.432-0.409-0.644
								c-0.606-0.979-1.218-1.952-1.847-2.916c-1.299-1.983-2.856-3.839-4.004-5.915c-0.07-0.125-0.271-0.005-0.19,0.114
								c1.31,1.979,2.263,4.19,3.491,6.221c0.6,0.985,1.222,1.949,1.859,2.908c0.563,0.847,1.131,1.812,1.842,2.563
								c0.992,3.088,3.146,10.529,4.199,13.598c3.32,9.662,2.232,6.518,4.65,11.688
								C391.693,237.574,392.176,237.371,392.053,237.094z"/>
							<path fill="#37474F" d="M370.191,258.09c7.411-0.285,14.803-0.914,22.211-1.265c0.141-0.007,0.153-0.226,0.01-0.222
								c-7.389,0.164-14.777,0.084-22.166,0.379c-7.414,0.297-14.799,0.869-22.203,1.326c-0.188,0.012-0.213,0.305-0.016,0.301
								C355.416,258.418,362.803,258.375,370.191,258.09z"/>
							<path fill="#37474F" d="M388.293,255.104c-0.77-3.254-1.807-6.445-2.762-9.648c-0.957-3.207-1.914-6.413-2.898-9.612
								c-1.967-6.399-4.008-12.774-6.045-19.153c-1.156-3.621-2.396-7.222-3.617-10.819c-0.035-0.103-0.192-0.062-0.164,0.045
								c3.668,12.875,7.597,25.677,11.738,38.407c1.174,3.611,2.254,7.275,3.635,10.813
								C388.207,255.204,388.313,255.18,388.293,255.104z"/>
						</g>
						<path opacity="0.1" fill="#030405" enable-background="new    " d="M438.91,235.122c13.021-8.504,4.66-35.769,4.66-35.769
							l-23.666-0.49l-31.379,29.177c0.184,0.502,0.373,1.024,0.58,1.569C390.902,234.393,430.213,240.807,438.91,235.122z"/>
						<path opacity="0.1" fill="#030405" enable-background="new    " d="M347.492,266.195c0.176,0.729,0.276,1.104,0.276,1.104
							l49.235-1.961l-8.771-37.03L347.492,266.195z"/>
					</g>
				</g>
			</g>
			<g>
				<g>
					<path fill="#EB9482" d="M547.297,298.204c0.512,2.416-6.373,4.044-9.494,2.853c-0.99-0.38-3.896-2.238-7.449-4.623
						c-7.814-5.254-18.691-13.018-18.691-13.018l-36.129,3.205l-21.24-36.654c0,0,33.23-2.857,35.482-4.1
						c0.141-0.077,0.277-0.154,0.418-0.232c10.25-5.594,18.781-9.932,19.785-9.406C512.682,237.62,546.785,295.771,547.297,298.204z
						"/>
					<path fill="#EBEBEB" d="M483.449,247.003l20.098,37.136l8.115-0.723c0,0,10.879,7.759,18.695,13.018
						c3.553,2.379,6.447,4.239,7.443,4.623c3.121,1.196,10.006-0.438,9.496-2.854c-0.514-2.434-34.617-60.581-37.32-61.975
						c-0.997-0.521-9.541,3.813-19.785,9.407c-0.146,0.072-0.277,0.154-0.414,0.228C489.221,246.17,486.799,246.573,483.449,247.003
						z"/>
					<g>
						<path fill="#B9CEEB" d="M548.008,298.668c-0.52-2.477-35.326-61.643-38.082-63.051c-1.037-0.555-9.955,4.016-20.568,9.846
							c-0.111,0.063-0.223,0.124-0.33,0.188l22.025,38.42l0.643-0.396c0,0,23.449,16.688,26.646,17.919
							C541.516,302.811,548.535,301.141,548.008,298.668z"/>
						<g>
							<g>
								<path fill="#263238" d="M545.318,299.35c-6.111-9.83-29.836-50.054-35.133-60.232c-0.043-0.083,0.014-0.115,0.063-0.037
									c6.271,9.609,29.668,50.023,35.232,60.175C545.6,299.467,545.447,299.557,545.318,299.35z"/>
								<path fill="#263238" d="M513.662,288.256c-3.041-3.494-5.264-8.648-4.23-13.293c0.039-0.18,0.295-0.12,0.33,0.031
									c1.059,4.59,2.4,8.666,4.389,12.954C514.289,288.25,513.879,288.506,513.662,288.256z"/>
								<path fill="#263238" d="M517.035,290.084c-3.041-3.493-5.262-8.646-4.23-13.292c0.041-0.181,0.295-0.12,0.33,0.03
									c1.059,4.59,2.4,8.667,4.389,12.955C517.662,290.079,517.254,290.335,517.035,290.084z"/>
								<path fill="#263238" d="M520.41,291.913c-3.043-3.494-5.264-8.647-4.23-13.293c0.039-0.181,0.295-0.12,0.328,0.03
									c1.061,4.591,2.402,8.666,4.389,12.955C521.037,291.908,520.627,292.163,520.41,291.913z"/>
								<g>
									<path fill="#263238" d="M512.658,293.35c0.525-4.048-0.719-8.18-1.424-12.125c-0.074-0.41-0.547-0.492-0.854-0.328
										c-0.051-0.058-0.131-0.082-0.197-0.01c-2.646,2.998-4.766,7.369-5.434,11.334c-0.414,2.448,0.32,5.883,3.354,6.176
										C510.971,298.672,512.352,295.71,512.658,293.35z M510.088,296.205c-3.896,3.225-4.355-2.729-3.979-4.521
										c0.238-1.15,0.627-2.295,1.021-3.4c0.83-2.318,1.977-4.477,3.027-6.688c0.229,1.961,0.623,3.883,0.924,5.831
										C511.439,289.75,512.238,294.427,510.088,296.205z"/>
									<path fill="#263238" d="M496.498,271.303c-1.889,2.389,0.078,5.297,2.131,6.695c3.32,2.266,7.939,3.768,11.938,3.934
										c0.098,0.004,0.135-0.072,0.129-0.146c0.328-0.105,0.598-0.506,0.354-0.842c-2.355-3.243-4.475-7.004-7.756-9.428
										C501.377,270.1,498.285,269.043,496.498,271.303z M506.471,276.755c1.197,1.567,2.313,3.185,3.566,4.706
										c-2.326-0.773-4.674-1.441-6.922-2.45c-1.072-0.479-2.164-0.995-3.162-1.618c-1.553-0.971-5.527-5.426-0.5-6.002
										C502.225,271.07,505.043,274.889,506.471,276.755z"/>
								</g>
							</g>
						</g>
					</g>
				</g>
				<g>
					<path fill="#263238" d="M412.219,193.506c0,0-0.934,11.462-0.574,20.204c0,0-46.096,25.833-47.575,49.199
						c-0.524,8.276,1.013,23.712,17.396,30.306c18.311,7.368,118.107-0.861,118.107-0.861l-13.779-45.668l-44.082,1.256
						c0,0,31.246,4.074,34.043-16.75c2.6-19.354-9.801-39.193-9.801-39.193L412.219,193.506z"/>
					<g>
						<path fill="#37474F" d="M489.186,290.391c-1.252-5.271-2.467-10.57-3.846-15.809c-1.381-5.252-2.84-10.48-4.379-15.684
							c-0.434-1.469-0.881-2.935-1.322-4.399c-0.211-0.7-0.422-1.397-0.646-2.092c-0.229-0.699-0.408-1.429-0.703-2.097
							c-0.033-0.076-0.117-0.029-0.107,0.041c0.164,1.347,0.582,2.729,0.906,4.047c0.314,1.271,0.617,2.547,0.936,3.816
							c0.648,2.614,1.311,5.227,1.984,7.831c1.357,5.228,2.844,10.401,4.357,15.578c0.857,2.938,1.723,5.88,2.594,8.813
							C489.008,290.605,489.227,290.564,489.186,290.391z"/>
						<path fill="#37474F" d="M456.928,247.507c-3.578-0.155-7.16-0.171-10.742-0.142c-3.582,0.027-7.158,0.167-10.738,0.33
							c-3.576,0.217-7.152,0.457-10.713,0.879c-3.561,0.426-7.121,0.922-10.592,1.833l2.65-0.419l2.662-0.329
							c1.771-0.202,3.551-0.399,5.332-0.528c3.561-0.305,7.127-0.551,10.697-0.711c3.566-0.223,7.143-0.352,10.715-0.498
							L456.928,247.507z"/>
						<path fill="#37474F" d="M456.264,196.046c1.719,4.056,3.219,8.199,4.51,12.402c1.277,4.204,2.328,8.487,2.908,12.827
							c0.281,2.17,0.434,4.357,0.322,6.531c-0.115,2.159-0.48,4.338-1.414,6.254c-0.455,0.959-1.086,1.819-1.838,2.545
							c-0.779,0.728-1.652,1.356-2.57,1.916c-1.854,1.1-3.877,1.918-5.945,2.588c-4.156,1.317-8.494,2.063-12.834,2.703
							c-4.35,0.627-8.725,1.105-13.1,1.678c-4.371,0.57-8.756,1.222-13.053,2.406c-2.133,0.597-4.287,1.347-6.234,2.5
							c-1.943,1.141-3.723,2.482-5.371,4.035l-0.965,0.909l1.336-0.056l35.635-1.48l17.818-0.646
							c5.939-0.188,11.881-0.368,17.826-0.375c-5.943-0.181-11.891-0.104-17.836-0.044c-5.945,0.066-11.891,0.217-17.834,0.365
							l-17.828,0.515l-17.824,0.668l0.371,0.854c1.563-1.461,3.324-2.785,5.186-3.861c1.854-1.09,3.898-1.793,6.004-2.372
							c4.207-1.136,8.563-1.759,12.912-2.365c4.355-0.589,8.734-1.09,13.104-1.742c4.361-0.663,8.734-1.434,12.979-2.802
							c2.111-0.689,4.195-1.546,6.113-2.73c0.953-0.6,1.865-1.275,2.688-2.063c0.822-0.813,1.496-1.771,1.971-2.808
							c0.971-2.072,1.313-4.34,1.4-6.563c0.08-2.23-0.104-4.451-0.418-6.643c-0.631-4.387-1.813-8.66-3.182-12.852
							C459.711,204.158,458.113,200.044,456.264,196.046z"/>
						<path fill="#37474F" d="M417.301,192.88c-0.004-0.099-0.166-0.104-0.174-0.005c-0.141,1.6-0.441,10.718-0.621,14.156
							c-0.063,1.225,0.063,3.4-1.719,3.449c-1.41,0.037-2.154-1.479-2.344-2.67c-0.232-1.451,0.252-12.041,0.332-15.563
							c0.004-0.101-0.158-0.101-0.176-0.005c-0.549,3.542-1.488,14.785-1.072,16.347c0.328,1.224,0.992,2.375,2.26,2.755
							c0.023,0.008-0.156,1.652,0.176,4.152c0.016,0.113,0.373,0.135,0.398,0.042l0.008,0.002c-0.084-0.821,0.262-4.026,0.25-4.044
							c0.924-0.027,1.643-0.255,2.238-1.098C418.049,208.715,417.447,196.934,417.301,192.88z"/>
						<path fill="#37474F" d="M423.115,219.734c-1.301-0.842-2.645-1.605-3.992-2.354c-1.348-0.755-2.723-1.454-4.102-2.144
							c-1.391-0.674-2.781-1.342-4.205-1.941c-1.424-0.605-2.854-1.189-4.328-1.664c0.674,0.385,1.361,0.729,2.037,1.104
							l2.053,1.066c1.363,0.717,2.742,1.399,4.121,2.088c1.387,0.672,2.768,1.354,4.172,1.988l2.105,0.958
							C421.691,219.132,422.393,219.453,423.115,219.734z"/>
						<path fill="#37474F" d="M456.113,211.484c-2.482,0.061-10.207,0.729-13.984-2.282c-3.055-2.437-4.609-11.007-5.188-13.354
							c-0.029-0.115-0.197-0.072-0.197,0.037c-0.006,2.651,0.449,5.338,1.223,7.872c0.66,2.162,1.535,4.573,3.34,6.052
							c1.898,1.558,4.434,2.051,6.813,2.276c2.688,0.256,5.354,0.103,8.014-0.336C456.293,211.723,456.289,211.48,456.113,211.484z"
							/>
					</g>
				</g>
			</g>
		</g>
		<g>
			<g>
				<g>
					<path fill="#EB9482" d="M413.381,147.879c-2.795,13.794-4.756,37.612-15.105,44.4c-9.848,6.457-38.979-9.165-47.826-14.795
						c-3.209-2.041,12.262-24.702,15.905-23.408c6.866,2.438,21.853,11.275,23.429,10.365c1.637-0.953,5.704-9.064,15.059-24.242
						C410.512,130.999,416.533,132.327,413.381,147.879z"/>
					<g>
						<g>
							<path fill="#EB9482" d="M353.418,179.025c-3.082-0.846-16.863-5.959-20.379-8.239c-3.516-2.281-13.16-9.579-11.688-12.449
								c1.476-2.871,4.47-0.96,4.47-0.96s-3.584-3.727-1.838-6.48c1.745-2.751,6.307,0.373,6.307,0.373s-3.402-4.097-1.463-6.719
								c1.938-2.623,5.996,1.288,5.996,1.288s-3.285-3.6-0.777-5.088c3.014-1.791,8.32,5.529,12.393,7.756
								c0.925,0.506,19.468,8.916,19.468,8.916L353.418,179.025z"/>
							<g>
								<path fill="#263238" d="M334.469,145.511c3.914,5.373,6.558,7.048,12.642,9.464c0.116,0.047,0.073,0.234-0.056,0.196
									c-6.172-1.823-9.789-3.444-12.854-9.484C334.049,145.391,334.281,145.255,334.469,145.511z"/>
								<path fill="#263238" d="M329.986,150.836c4.553,5.227,7.401,7.066,13.588,10.064c0.088,0.043,0.024,0.194-0.068,0.16
									c-6.313-2.436-9.885-4.136-13.748-9.953C329.582,150.844,329.777,150.598,329.986,150.836z"/>
								<path fill="#263238" d="M326.139,157.52c4.775,4.742,7.813,6.896,14.191,9.037c0.15,0.049,0.09,0.273-0.066,0.237
									c-6.715-1.551-10.523-4.209-14.252-9.112C325.756,157.346,325.84,157.223,326.139,157.52z"/>
							</g>
						</g>
						<g>
							<g>
								<path fill="#455B65" d="M298.935,116.555l18.571-3.81c1.961-0.402,3.621,1.229,3.708,3.646l0,0
									c0.05,1.351-0.435,2.703-1.251,3.734c-1.597,2.013-2.561,4.773-2.458,7.613c0.182,5.048,3.645,8.451,7.733,7.613
									c4.088-0.839,7.256-5.603,7.071-10.65c-0.103-2.84-1.25-5.168-2.968-6.5c-0.879-0.683-1.45-1.819-1.5-3.171l0,0
									c-0.088-2.415,1.434-4.699,3.393-5.101l16.469-5.718l2.104,1.908l0.826,22.879c0.086,2.416,1.746,4.048,3.707,3.646l0,0
									c1.098-0.225,2.084-1.082,2.74-2.27c1.285-2.32,3.303-4.044,5.609-4.517c4.096-0.841,7.559,2.563,7.738,7.6
									c0.181,5.037-2.984,9.8-7.082,10.641c-2.307,0.473-4.418-0.404-5.85-2.167c-0.731-0.902-1.768-1.345-2.863-1.12l0,0
									c-1.961,0.402-3.479,2.686-3.394,5.101l0.825,22.88l-18.568,3.81c-1.961,0.401-3.621-1.229-3.707-3.646l0,0
									c-0.05-1.353,0.434-2.704,1.25-3.733c1.598-2.014,2.562-4.772,2.459-7.613c-0.186-5.049-3.646-8.45-7.734-7.612
									c-4.088,0.839-7.254,5.604-7.072,10.647c0.103,2.842,1.25,5.168,2.966,6.502c0.88,0.684,1.451,1.818,1.5,3.17l0,0
									c0.089,2.416-1.431,4.699-3.391,5.103l-18.571,3.812l-2.104-1.908l1.277-20.973c-0.087-2.414-1.747-4.048-3.707-3.646l0,0
									c-1.097,0.226-2.084,1.081-2.741,2.271c-1.284,2.319-3.303,4.045-5.607,4.518c-4.098,0.841-7.56-2.563-7.741-7.6
									c-0.183-5.039,2.985-9.803,7.082-10.643c2.306-0.473,4.418,0.404,5.85,2.167c0.732,0.902,1.767,1.345,2.863,1.12l0,0
									c1.96-0.402,3.479-2.687,3.392-5.102L298.935,116.555z"/>
								<path opacity="0.1" fill="#040303" enable-background="new    " d="M298.935,116.555l18.571-3.81
									c1.961-0.402,3.621,1.229,3.708,3.646l0,0c0.05,1.351-0.435,2.703-1.251,3.734c-1.597,2.013-2.561,4.773-2.458,7.613
									c0.182,5.048,3.645,8.451,7.733,7.613c4.088-0.839,7.256-5.603,7.071-10.65c-0.103-2.84-1.25-5.168-2.968-6.5
									c-0.879-0.683-1.45-1.819-1.5-3.171l0,0c-0.088-2.415,1.434-4.699,3.393-5.101l16.469-5.718l2.104,1.908l0.826,22.879
									c0.086,2.416,1.746,4.048,3.707,3.646l0,0c1.098-0.225,2.084-1.082,2.74-2.27c1.285-2.32,3.303-4.044,5.609-4.517
									c4.096-0.841,7.559,2.563,7.738,7.6c0.181,5.037-2.984,9.8-7.082,10.641c-2.307,0.473-4.418-0.404-5.85-2.167
									c-0.731-0.902-1.768-1.345-2.863-1.12l0,0c-1.961,0.402-3.479,2.686-3.394,5.101l0.825,22.88l-18.568,3.81
									c-1.961,0.401-3.621-1.229-3.707-3.646l0,0c-0.05-1.353,0.434-2.704,1.25-3.733c1.598-2.014,2.562-4.772,2.459-7.613
									c-0.186-5.049-3.646-8.45-7.734-7.612c-4.088,0.839-7.254,5.604-7.072,10.647c0.103,2.842,1.25,5.168,2.966,6.502
									c0.88,0.684,1.451,1.818,1.5,3.17l0,0c0.089,2.416-1.431,4.699-3.391,5.103l-18.571,3.812l-2.104-1.908l1.277-20.973
									c-0.087-2.414-1.747-4.048-3.707-3.646l0,0c-1.097,0.226-2.084,1.081-2.741,2.271c-1.284,2.319-3.303,4.045-5.607,4.518
									c-4.098,0.841-7.56-2.563-7.741-7.6c-0.183-5.039,2.985-9.803,7.082-10.643c2.306-0.473,4.418,0.404,5.85,2.167
									c0.732,0.902,1.767,1.345,2.863,1.12l0,0c1.96-0.402,3.479-2.687,3.392-5.102L298.935,116.555z"/>
							</g>
							<path fill="#B9CEEB" d="M296.832,114.646l18.571-3.81c1.961-0.402,3.62,1.229,3.708,3.645l0,0
								c0.049,1.352-0.435,2.704-1.251,3.735c-1.598,2.012-2.562,4.773-2.458,7.613c0.182,5.048,3.644,8.451,7.732,7.612
								c4.088-0.838,7.256-5.602,7.072-10.649c-0.102-2.84-1.25-5.168-2.967-6.501c-0.879-0.682-1.451-1.818-1.5-3.17l0,0
								c-0.088-2.415,1.432-4.699,3.391-5.101l18.572-3.81l0.826,22.879c0.086,2.416,1.746,4.048,3.707,3.646l0,0
								c1.098-0.226,2.084-1.082,2.739-2.27c1.284-2.32,3.304-4.044,5.608-4.518c4.097-0.84,7.56,2.563,7.74,7.601
								c0.182,5.036-2.984,9.8-7.082,10.641c-2.309,0.473-4.418-0.404-5.852-2.167c-0.73-0.903-1.766-1.346-2.862-1.12l0,0
								c-1.961,0.402-3.479,2.686-3.394,5.101l0.826,22.88l-18.57,3.811c-1.961,0.4-3.621-1.229-3.707-3.646l0,0
								c-0.049-1.352,0.436-2.704,1.25-3.733c1.599-2.014,2.563-4.772,2.459-7.613c-0.184-5.047-3.645-8.451-7.732-7.612
								c-4.087,0.839-7.254,5.603-7.073,10.649c0.103,2.841,1.25,5.168,2.968,6.501c0.88,0.683,1.451,1.819,1.5,3.17l0,0
								c0.089,2.416-1.43,4.698-3.391,5.103l-18.571,3.81l-0.826-22.88c-0.087-2.416-1.747-4.046-3.707-3.646l0,0
								c-1.097,0.226-2.084,1.081-2.741,2.271c-1.284,2.318-3.303,4.043-5.607,4.518c-4.098,0.841-7.56-2.563-7.741-7.6
								c-0.182-5.037,2.985-9.801,7.082-10.641c2.306-0.473,4.418,0.403,5.85,2.167c0.732,0.902,1.767,1.345,2.863,1.12l0,0
								c1.96-0.402,3.479-2.687,3.392-5.102L296.832,114.646z"/>
						</g>
						<g>
							<path fill="#EB9482" d="M370.438,156.956c0,0-4.288-7.142-6.866-9.863c-2.575-2.722-15.909-9.33-17.502-6.531
								c-2.054,3.613,4.894,8.945,8.638,11.112c0,0-4.761,8.355-0.604,13.262C358.26,169.84,370.438,156.956,370.438,156.956z"/>
							<path fill="#263238" d="M345.83,141.739c0.504,4.646,5.602,7.175,9.076,9.548c0.264,0.18,0.211,0.456,0.033,0.631
								c-1.762,3.637-3.188,9.275-1.102,12.994c0.063,0.109-0.084,0.211-0.16,0.109c-2.777-3.686-1.831-9.34,0.354-13.198
								c-3.601-2.378-8.604-5.137-8.246-10.081C345.787,141.714,345.826,141.71,345.83,141.739z"/>
						</g>
					</g>
				</g>
				<g>
					<g>
						<path fill="#37474F" d="M373.074,154.521l-13.594,29.617c0,0,31.729,16.438,39.695,10.531
							c9.182-6.803,15.199-31.77,15.467-51.969c0.188-13.978-7.557-10.811-11.93-2.205c-4.555,8.962-13.125,22.677-14.034,22.73
							C387.768,163.287,373.074,154.521,373.074,154.521z"/>
						<path fill="#FFFFFF" d="M379.092,190.105c-0.17-0.222-0.479-0.529-0.83-0.682c-0.701-0.318-1.602-0.13-2.17,0.45
							c-0.352,0.399-0.871,0.562-1.399,0.46c-0.25-0.029-0.5-0.141-0.761-0.352c-0.291-0.17-0.551-0.358-0.852-0.51
							c0.172,0.289,0.4,0.539,0.58,0.812c0.131,0.17,0.311,0.358,0.521,0.489c0.011,0.011,0.021,0.011,0.028,0.021
							c0.09,0.07,0.188,0.12,0.301,0.16c0.102,0.04,0.221,0.08,0.33,0.09c0.011,0,0.011,0,0.021,0
							c0.648,0.12,1.369-0.13,1.811-0.608c0.318-0.359,0.869-0.512,1.389-0.41c0.281,0.051,0.5,0.17,0.761,0.371
							c0.28,0.188,0.541,0.379,0.853,0.527C379.502,190.636,379.301,190.386,379.092,190.105z M375.512,155.977v-0.011
							c-0.291-0.17-0.561-0.33-0.811-0.47c0.279,0.18,0.539,0.37,0.84,0.52C375.531,156.006,375.521,155.986,375.512,155.977z
							 M372.66,155.416c0.33-0.29,0.811-0.4,1.271-0.311c0.091,0.021,0.17,0.041,0.25,0.068c-0.7-0.398-1.11-0.648-1.11-0.648
							L372.66,155.416z M399.65,162.396c-0.189-0.25-0.479-0.552-0.83-0.683c-0.699-0.317-1.619-0.14-2.182,0.438
							c-0.34,0.392-0.857,0.552-1.389,0.462c-0.28-0.052-0.5-0.142-0.762-0.353c-0.289-0.17-0.55-0.357-0.852-0.529
							c0.17,0.291,0.371,0.541,0.563,0.82c0.209,0.26,0.51,0.539,0.868,0.659c0.722,0.3,1.622,0.08,2.142-0.51
							c0.34-0.36,0.891-0.521,1.4-0.39c0.289,0.039,0.51,0.147,0.77,0.357c0.279,0.17,0.541,0.359,0.852,0.54
							C400.061,162.916,399.83,162.666,399.65,162.396z M391.951,179.426c-0.291-0.72-1.121-1.189-1.892-1.17
							c-0.489,0.03-0.989-0.25-1.278-0.689c-0.15-0.238-0.211-0.479-0.26-0.811c-0.091-0.33-0.143-0.648-0.23-0.96
							c-0.09,0.32-0.109,0.642-0.16,0.97c-0.061,0.301-0.061,0.74,0.09,1.07c0.271,0.721,1.063,1.23,1.851,1.23
							c0.53-0.03,1.011,0.209,1.319,0.647c0.17,0.24,0.25,0.472,0.302,0.79c0.062,0.33,0.108,0.648,0.22,0.979
							c0.092-0.34,0.121-0.648,0.17-0.988C392.131,180.176,392.102,179.756,391.951,179.426z M363.57,182.275
							c-0.289-0.721-1.119-1.199-1.89-1.181c-0.25,0.021-0.511-0.04-0.729-0.171l-0.312,0.682c0.312,0.199,0.67,0.301,1.041,0.301
							c0.538-0.03,1.021,0.21,1.319,0.647c0.17,0.24,0.26,0.48,0.31,0.791c0.062,0.341,0.11,0.649,0.222,0.979
							c0.09-0.342,0.119-0.65,0.17-0.99C363.752,183.016,363.711,182.605,363.57,182.275z M408.521,174.566
							c-0.352,0.379-0.9,0.528-1.41,0.43c-0.262-0.08-0.49-0.189-0.771-0.4c-0.291-0.17-0.541-0.359-0.818-0.529
							c0.158,0.302,0.367,0.541,0.549,0.812c0.189,0.261,0.488,0.562,0.83,0.688c0.721,0.319,1.621,0.142,2.18-0.438
							c0.25-0.26,0.561-0.42,0.91-0.47c0.068-0.23,0.141-0.471,0.201-0.7C409.58,173.886,408.922,174.126,408.521,174.566z
							 M376.111,169.096c-0.313-0.05-0.74-0.06-1.07,0.11c-0.721,0.28-1.24,1.04-1.24,1.851c0.041,0.521-0.209,1.021-0.649,1.319
							c-0.229,0.149-0.47,0.229-0.778,0.28c-0.33,0.09-0.649,0.14-0.979,0.229c0.33,0.08,0.649,0.12,0.989,0.17
							c0.313,0.041,0.74,0.03,1.07-0.13c0.721-0.3,1.188-1.108,1.17-1.89c-0.011-0.5,0.239-1,0.688-1.28
							c0.23-0.149,0.473-0.22,0.813-0.26c0.33-0.07,0.642-0.12,0.971-0.24C376.762,169.195,376.441,169.166,376.111,169.096z
							 M400.57,190.316c-0.299-0.051-0.74-0.041-1.068,0.107c-0.721,0.28-1.25,1.053-1.229,1.852c0.027,0.541-0.23,1.021-0.66,1.33
							c-0.23,0.141-0.473,0.25-0.803,0.291c-0.309,0.08-0.617,0.129-0.959,0.209c0.342,0.09,0.66,0.131,0.971,0.17
							c0.318,0.051,0.75,0.041,1.08-0.129c0.729-0.303,1.199-1.103,1.158-1.871c-0.02-0.51,0.262-0.989,0.723-1.289
							c0.229-0.15,0.459-0.23,0.799-0.28c0.33-0.06,0.641-0.11,0.961-0.22C401.221,190.416,400.91,190.386,400.57,190.316z
							 M405.762,143.166c-0.301-0.05-0.738-0.04-1.068,0.1c-0.723,0.28-1.25,1.061-1.23,1.86c0.029,0.53-0.229,1.01-0.66,1.33
							c-0.229,0.14-0.471,0.24-0.799,0.28c-0.311,0.08-0.621,0.13-0.961,0.22c0.34,0.08,0.66,0.12,0.971,0.17
							c0.318,0.05,0.75,0.04,1.08-0.14c0.729-0.3,1.199-1.09,1.16-1.86c-0.021-0.51,0.26-1,0.719-1.29
							c0.23-0.16,0.461-0.229,0.803-0.28c0.328-0.069,0.639-0.119,0.959-0.22C406.41,143.266,406.102,143.227,405.762,143.166z"/>
					</g>
					<path fill="#263238" d="M367.613,185.552c2.021-4.133,9.676-21.35,11.078-25.182c0.096-0.267-0.05-0.392-0.188-0.129
						c-6.354,12.241-9.276,21.069-11.053,25.226C367.408,185.57,367.563,185.657,367.613,185.552z"/>
					<path opacity="0.1" fill="#030405" enable-background="new    " d="M414.641,142.706c-0.26,20.2-6.277,45.16-15.459,51.97
						c-1.568,1.16-4.061,1.46-7.051,1.182l17.15-62.489C412.262,132.316,414.752,134.696,414.641,142.706z"/>
				</g>
			</g>
			<g>
				<g>
					<g>
						<path fill="#37474F" d="M474.832,204.322c0.002,0.005-65.506,8.945-65.506,8.951c0.4,1.224-7.613-39.354-3.299-74.504
							c0.895-7.286,12.488-9.407,18.117-6.825C448.811,143.261,474.732,203.755,474.832,204.322z"/>
					</g>
				</g>
				<path fill="#FFFFFF" d="M419.381,191.07c0.164,0.295,0.369,0.548,0.555,0.813c0.186,0.255,0.508,0.546,0.863,0.665
					c0.703,0.301,1.631,0.057,2.143-0.511c0.344-0.371,0.896-0.521,1.41-0.421c0.264,0.081,0.479,0.189,0.764,0.381
					c0.282,0.184,0.541,0.38,0.846,0.521c-0.193-0.287-0.391-0.533-0.574-0.787c-0.186-0.254-0.484-0.562-0.832-0.692
					c-0.703-0.335-1.625-0.146-2.182,0.442c-0.344,0.385-0.871,0.557-1.385,0.469c-0.281-0.047-0.521-0.156-0.787-0.346
					C419.922,191.409,419.664,191.227,419.381,191.07z M461.447,193.486c0.166,0.289,0.396,0.541,0.576,0.814
					c0.189,0.247,0.49,0.532,0.85,0.665c0.717,0.294,1.639,0.052,2.16-0.518c0.324-0.363,0.873-0.517,1.393-0.414
					c0.275,0.054,0.496,0.17,0.762,0.374c0.277,0.189,0.541,0.38,0.848,0.527c-0.172-0.289-0.369-0.543-0.582-0.814
					c-0.162-0.229-0.471-0.532-0.83-0.688c-0.697-0.313-1.6-0.125-2.162,0.457c-0.355,0.394-0.871,0.558-1.404,0.455
					c-0.254-0.027-0.496-0.144-0.76-0.354C462.01,193.826,461.746,193.636,461.447,193.486z M441.441,162.93
					c0.17,0.288,0.367,0.543,0.555,0.816c0.211,0.268,0.512,0.537,0.869,0.664c0.719,0.293,1.625,0.076,2.141-0.51
					c0.344-0.364,0.895-0.523,1.406-0.396c0.281,0.047,0.502,0.156,0.768,0.367c0.277,0.17,0.541,0.357,0.85,0.535
					c-0.172-0.297-0.398-0.549-0.582-0.815c-0.188-0.254-0.475-0.56-0.832-0.686c-0.697-0.314-1.619-0.14-2.178,0.437
					c-0.344,0.397-0.855,0.557-1.391,0.469c-0.281-0.054-0.494-0.144-0.76-0.354C442.002,163.289,441.738,163.1,441.441,162.93z
					 M417.201,136.322c0.172,0.295,0.369,0.542,0.563,0.815c0.205,0.274,0.514,0.538,0.871,0.664
					c0.717,0.301,1.617,0.077,2.141-0.51c0.344-0.364,0.893-0.522,1.412-0.395c0.27,0.055,0.488,0.164,0.756,0.375
					c0.281,0.169,0.549,0.359,0.846,0.528c-0.164-0.289-0.391-0.542-0.574-0.815c-0.189-0.254-0.473-0.56-0.83-0.687
					c-0.699-0.314-1.627-0.131-2.184,0.437c-0.344,0.405-0.852,0.556-1.385,0.469c-0.281-0.047-0.503-0.156-0.768-0.354
					C417.771,136.688,417.506,136.498,417.201,136.322z M415.174,156.08c0.279,0.722,1.043,1.238,1.854,1.236
					c0.529-0.035,1.008,0.211,1.318,0.649c0.15,0.234,0.252,0.472,0.305,0.782c0.063,0.333,0.117,0.65,0.225,0.962
					c0.066-0.313,0.098-0.637,0.144-0.972c0.079-0.316,0.048-0.73-0.125-1.063c-0.294-0.728-1.099-1.216-1.866-1.174
					c-0.52,0.016-0.996-0.245-1.287-0.693c-0.137-0.233-0.232-0.463-0.275-0.824c-0.068-0.316-0.121-0.631-0.225-0.961
					c-0.072,0.336-0.105,0.649-0.17,0.974C415.035,155.313,415.027,155.73,415.174,156.08z M444.715,179.26
					c0.271,0.723,1.059,1.231,1.848,1.23c0.537-0.036,1.018,0.21,1.32,0.65c0.17,0.232,0.252,0.471,0.303,0.788
					c0.063,0.332,0.113,0.646,0.227,0.976c0.086-0.336,0.117-0.649,0.17-0.985c0.045-0.321,0.014-0.735-0.133-1.065
					c-0.293-0.722-1.117-1.194-1.889-1.174c-0.494,0.033-0.994-0.253-1.279-0.693c-0.148-0.233-0.217-0.471-0.264-0.805
					c-0.09-0.332-0.141-0.648-0.229-0.961c-0.086,0.315-0.111,0.637-0.164,0.973C444.57,178.486,444.563,178.932,444.715,179.26z
					 M405.521,174.068c0.156,0.296,0.367,0.541,0.547,0.811c0.189,0.253,0.49,0.559,0.83,0.691c0.719,0.313,1.627,0.132,2.184-0.442
					c0.371-0.379,0.871-0.55,1.412-0.469c0.26,0.054,0.502,0.17,0.76,0.354c0.277,0.168,0.541,0.357,0.846,0.526
					c-0.186-0.288-0.391-0.542-0.582-0.813c-0.178-0.27-0.506-0.539-0.861-0.664c-0.703-0.295-1.625-0.052-2.135,0.51
					c-0.352,0.371-0.898,0.521-1.412,0.421c-0.262-0.074-0.482-0.185-0.77-0.394C406.057,174.43,405.799,174.238,405.521,174.068z
					 M425.777,174.891c0.336,0.086,0.656,0.118,0.99,0.17c0.316,0.047,0.738,0.035,1.066-0.131c0.723-0.294,1.197-1.104,1.176-1.889
					c-0.016-0.497,0.244-0.995,0.688-1.28c0.232-0.149,0.471-0.218,0.811-0.262c0.332-0.069,0.646-0.113,0.977-0.231
					c-0.336-0.063-0.65-0.098-0.986-0.162c-0.301-0.054-0.73-0.063-1.066,0.104c-0.721,0.279-1.236,1.044-1.234,1.854
					c0.035,0.518-0.211,1.016-0.652,1.319c-0.234,0.149-0.471,0.23-0.781,0.28C426.428,174.75,426.109,174.8,425.777,174.891z
					 M440.227,200.021c0.344,0.086,0.658,0.125,0.975,0.17c0.321,0.053,0.75,0.041,1.08-0.133c0.727-0.301,1.193-1.099,1.152-1.865
					c-0.016-0.512,0.268-0.996,0.723-1.289c0.232-0.156,0.463-0.23,0.803-0.281c0.332-0.063,0.645-0.113,0.961-0.219
					c-0.322-0.071-0.637-0.104-0.973-0.17c-0.303-0.053-0.736-0.041-1.066,0.104c-0.723,0.279-1.252,1.053-1.229,1.854
					c0.027,0.531-0.23,1.017-0.656,1.326c-0.236,0.146-0.471,0.246-0.805,0.289C440.877,199.889,440.564,199.938,440.227,200.021z
					 M418.961,211.566c0.35,0.072,0.664,0.104,0.98,0.178c0.154,0.021,0.34,0.023,0.521,0.006c0.197-0.025,0.387-0.072,0.555-0.159
					c0.729-0.293,1.197-1.097,1.154-1.873c-0.014-0.504,0.268-0.989,0.721-1.28c0.229-0.144,0.467-0.226,0.799-0.28
					c0.313-0.063,0.645-0.113,0.961-0.22c-0.322-0.071-0.656-0.104-0.973-0.155c-0.303-0.048-0.73-0.056-1.063,0.091
					c-0.729,0.279-1.252,1.045-1.229,1.85c0.029,0.536-0.229,1.021-0.666,1.326c-0.23,0.163-0.463,0.245-0.795,0.303
					C419.617,211.419,419.305,211.462,418.961,211.566z M430.391,151.052c0.322,0.079,0.639,0.104,0.975,0.177
					c0.32,0.047,0.734,0.016,1.064-0.146c0.723-0.278,1.195-1.104,1.174-1.874c-0.014-0.497,0.254-1.002,0.693-1.287
					c0.234-0.144,0.471-0.225,0.805-0.275c0.332-0.077,0.645-0.12,0.982-0.211c-0.344-0.086-0.658-0.118-0.994-0.17
					c-0.301-0.046-0.711-0.056-1.066,0.091c-0.723,0.272-1.23,1.064-1.229,1.849c0.035,0.537-0.211,1.021-0.652,1.327
					c-0.23,0.162-0.469,0.244-0.789,0.302C431.02,150.896,430.707,150.947,430.391,151.052z"/>
			</g>
			<g>
				<g>
					<path fill="#EB9482" d="M433.047,139.657c16.863,19.374,36.891,58.278,32.186,65.797c-5.244,8.374-28.494-17.878-28.307-19.365
						c0.145-1.125-7.219-24.993-12.85-42.369C418.453,126.359,428.877,134.866,433.047,139.657z"/>
					<g>
						<g>
							<path fill="#37474F" d="M436.756,186.105c-0.607-2.541-10.688-34.037-13.512-43.977c-2.824-9.937,0.545-12.747,9.787-3.229
								s28.455,39.111,32.369,55.208c3.77,15.506-3.664,16.516-13.561,8.856C443.742,196.697,436.756,186.105,436.756,186.105z"/>
							<path fill="#FFFFFF" d="M430.391,151.052c0.322,0.079,0.639,0.104,0.975,0.177c0.32,0.047,0.734,0.016,1.064-0.146
								c0.723-0.278,1.195-1.104,1.174-1.874c-0.014-0.497,0.254-1.002,0.693-1.287c0.234-0.144,0.471-0.225,0.805-0.275
								c0.332-0.077,0.645-0.12,0.982-0.211c-0.344-0.086-0.658-0.118-0.994-0.17c-0.301-0.046-0.711-0.056-1.066,0.091
								c-0.723,0.272-1.23,1.064-1.229,1.849c0.035,0.537-0.211,1.021-0.652,1.327c-0.23,0.162-0.469,0.244-0.789,0.302
								C431.02,150.896,430.707,150.947,430.391,151.052z M444.686,196.208l0.359,0.399c0.299-0.059,0.584-0.105,0.873-0.203
								c-0.322-0.071-0.637-0.104-0.973-0.17C444.863,196.217,444.781,196.212,444.686,196.208z M444.715,179.26
								c0.271,0.723,1.059,1.231,1.848,1.23c0.537-0.036,1.018,0.21,1.32,0.65c0.17,0.232,0.252,0.471,0.303,0.788
								c0.063,0.332,0.113,0.646,0.227,0.976c0.086-0.336,0.117-0.649,0.17-0.985c0.045-0.321,0.014-0.735-0.133-1.065
								c-0.293-0.722-1.117-1.194-1.889-1.174c-0.494,0.033-0.994-0.253-1.279-0.693c-0.148-0.233-0.217-0.471-0.264-0.805
								c-0.09-0.332-0.141-0.648-0.229-0.961c-0.086,0.315-0.111,0.637-0.164,0.973C444.57,178.486,444.563,178.932,444.715,179.26z
								 M422.291,136.922c0.227,0.063,0.42,0.166,0.65,0.351c0.281,0.169,0.549,0.359,0.846,0.528
								c-0.164-0.289-0.391-0.542-0.574-0.815c-0.191-0.254-0.473-0.56-0.83-0.687c-0.035-0.013-0.07-0.024-0.104-0.037
								C422.271,136.473,422.27,136.691,422.291,136.922z M441.441,162.93c0.17,0.288,0.367,0.543,0.555,0.816
								c0.211,0.268,0.512,0.537,0.869,0.664c0.719,0.293,1.625,0.076,2.141-0.51c0.344-0.364,0.895-0.523,1.406-0.396
								c0.281,0.047,0.502,0.156,0.768,0.367c0.277,0.17,0.541,0.357,0.85,0.535c-0.172-0.297-0.398-0.549-0.582-0.815
								c-0.188-0.254-0.475-0.56-0.832-0.686c-0.697-0.314-1.619-0.14-2.178,0.437c-0.344,0.397-0.855,0.557-1.391,0.469
								c-0.281-0.054-0.494-0.144-0.76-0.354C442.002,163.289,441.738,163.1,441.441,162.93z M461.447,193.486
								c0.166,0.289,0.396,0.541,0.576,0.814c0.189,0.247,0.49,0.532,0.85,0.665c0.717,0.294,1.639,0.052,2.16-0.518
								c0.104-0.119,0.23-0.212,0.381-0.276c-0.008-0.021-0.008-0.048-0.016-0.066c-0.057-0.229-0.115-0.461-0.178-0.696
								c-0.281,0.097-0.553,0.261-0.764,0.483c-0.357,0.394-0.871,0.558-1.404,0.457c-0.254-0.027-0.496-0.146-0.76-0.354
								C462.01,193.826,461.746,193.636,461.447,193.486z"/>
						</g>
						<g>
							<path fill="#263238" d="M438.039,190.177c-0.865-3.174-1.781-6.331-2.703-9.485s-1.885-6.297-2.824-9.446l-2.93-9.414
								l-1.502-4.695c-0.52-1.561-1.021-3.125-1.551-4.681c0.43,1.588,0.887,3.167,1.328,4.75l1.375,4.734l2.824,9.446
								c0.979,3.138,1.936,6.283,2.932,9.415C435.984,183.934,436.986,187.063,438.039,190.177z"/>
							<path fill="#263238" d="M428.631,159.791c-0.311-0.816-0.711-1.581-1.127-2.334c-0.213-0.374-0.428-0.746-0.656-1.109
								c-0.225-0.369-0.469-0.723-0.711-1.084c0.242,0.846,0.646,1.616,1.061,2.372
								C427.623,158.386,428.078,159.118,428.631,159.791z"/>
						</g>
					</g>
				</g>
				<g>
					<g>
						<path fill="#EB9482" d="M465.199,205.417c-4.332,5.938-14.602,7.129-43.307,12.163c-3.973,0.697-17.297-26.492-13.092-27.454
							c5.293-1.212,26.104-4.769,27.658-4.835C449.572,184.719,468.137,201.387,465.199,205.417z"/>
						<g>
							<path fill="#EB9482" d="M418.584,189.782c0,0-10.984-0.839-18.195-1.05c-4.021-0.116-10.936,0.297-13.93,1.563
								c-4.479,1.893-22.002,12.669-19.48,16.975c2.281,3.896,16.16-7.271,16.16-7.271s-15,10.031-11.391,14.22
								c3.611,4.188,17.615-10.519,17.615-10.519s-15.185,10.652-10.775,14.383c3.328,2.816,16.762-9.786,16.762-9.786
								s-12.984,9.248-9.686,12.293c3.646,3.365,16.775-7.491,16.775-7.491c9.689,6.328,16.895,5.379,21.938,4.094
								C425.6,216.876,418.584,189.782,418.584,189.782z"/>
							<g>
								<path fill="#263238" d="M388.105,196.193c-1.807,1.115-3.641,2.229-5.341,3.502c-1.698,1.271-3.354,2.604-4.929,4.027
									c-3.86,3.49-5.729,6.281-5.596,6.122c3.176-3.778,9.188-8.425,10.889-9.694c1.697-1.271,3.33-2.623,5.024-3.896
									C388.199,196.225,388.148,196.167,388.105,196.193z"/>
								<path fill="#263238" d="M392.809,202.247c-2.243,1.522-4.523,2.953-6.702,4.576c-2.166,1.614-4.078,3.336-6.128,5.096
									c-0.157,0.136-0.032,0.177,0.132,0.046c2.116-1.676,4.202-3.063,6.341-4.714c2.131-1.646,4.211-3.388,6.396-4.953
									C392.883,202.273,392.842,202.225,392.809,202.247z"/>
								<path fill="#263238" d="M397.777,206.717c-3.547,2.152-6.691,4.956-9.713,7.781c-0.15,0.141,0.018,0.174,0.18,0.039
									c3.18-2.646,5.654-4.746,9.607-7.697C397.914,206.794,397.852,206.672,397.777,206.717z"/>
							</g>
						</g>
					</g>
					<g>
						<path fill="#37474F" d="M412.02,188.885l24.5,28.395c0,0,25.137-5.407,28.996-11.83c2.543-4.229-15.873-21.834-30.313-20.102
							L412.02,188.885z"/>
						<path fill="#FFFFFF" d="M439.438,212.689c0.164,0.287,0.369,0.541,0.557,0.814c0.184,0.253,0.506,0.537,0.863,0.664
							c0.701,0.293,1.631,0.05,2.139-0.511c0.346-0.37,0.898-0.522,1.414-0.423c0.262,0.074,0.475,0.187,0.76,0.383
							c0.285,0.183,0.543,0.373,0.848,0.521c-0.191-0.296-0.391-0.533-0.572-0.787c-0.188-0.254-0.486-0.562-0.832-0.692
							c-0.705-0.335-1.627-0.152-2.184,0.442c-0.344,0.377-0.871,0.549-1.385,0.469c-0.281-0.055-0.523-0.163-0.787-0.354
							C439.979,213.027,439.721,212.838,439.438,212.689z M419.381,191.07c0.164,0.295,0.369,0.548,0.555,0.813
							c0.186,0.255,0.508,0.546,0.863,0.665c0.703,0.301,1.631,0.057,2.143-0.511c0.344-0.371,0.896-0.521,1.41-0.421
							c0.264,0.081,0.479,0.189,0.764,0.381c0.282,0.184,0.541,0.38,0.846,0.521c-0.193-0.287-0.391-0.533-0.574-0.787
							c-0.186-0.254-0.484-0.562-0.832-0.692c-0.703-0.335-1.625-0.146-2.182,0.442c-0.344,0.385-0.871,0.557-1.385,0.469
							c-0.281-0.047-0.521-0.156-0.787-0.346C419.922,191.409,419.664,191.227,419.381,191.07z M458.363,209.643
							c0.09,0.235,0.236,0.457,0.42,0.637c0.256-0.115,0.506-0.238,0.754-0.361c-0.242-0.116-0.445-0.301-0.604-0.542
							c-0.162-0.233-0.236-0.472-0.279-0.812c-0.07-0.332-0.113-0.646-0.227-0.955c-0.072,0.315-0.104,0.632-0.17,0.968
							C458.213,208.876,458.225,209.313,458.363,209.643z M440.227,200.021c0.344,0.086,0.658,0.125,0.975,0.17
							c0.321,0.053,0.75,0.041,1.08-0.133c0.727-0.301,1.193-1.099,1.152-1.865c-0.016-0.512,0.268-0.996,0.723-1.289
							c0.232-0.156,0.463-0.23,0.803-0.281c0.332-0.063,0.645-0.113,0.961-0.219c-0.322-0.071-0.637-0.104-0.973-0.17
							c-0.303-0.053-0.736-0.041-1.066,0.104c-0.723,0.279-1.252,1.053-1.229,1.854c0.027,0.531-0.23,1.017-0.656,1.326
							c-0.236,0.146-0.471,0.246-0.805,0.289C440.877,199.889,440.564,199.938,440.227,200.021z"/>
						<g>
							<path fill="#263238" d="M452.291,190.227c-2.289-1.729-8.75-5.781-17.107-4.9c-0.072,0.008-0.076,0.127-0.002,0.126
								c6.289-0.054,14.707,3.399,17.055,4.878C452.295,190.367,452.348,190.27,452.291,190.227z"/>
							<path fill="#263238" d="M443.463,212.744c-2.527-3.268-5.225-6.395-7.934-9.516c-2.709-3.123-5.412-6.252-8.199-9.31
								c-1.574-1.728-3.139-3.462-4.773-5.134c-0.043-0.043-0.127,0.019-0.088,0.066c2.521,3.264,5.211,6.404,7.895,9.539
								c2.688,3.142,5.412,6.256,8.162,9.344c1.555,1.744,3.141,3.461,4.773,5.134C443.379,212.953,443.537,212.839,443.463,212.744
								z"/>
							<path fill="#263238" d="M411.982,188.521c1.539-0.479,3.129-0.711,4.717-0.978c1.586-0.267,3.178-0.503,4.771-0.728
								c3.168-0.443,9.832-1.746,15.664-1.613c0.064,0.001-0.271,0.308-0.336,0.303c-2.773-0.205-22.754,3.359-24.391,3.443
								c0.063,0.107,0.123,0.217,0.17,0.336c0.031,0.081-0.051,0.184-0.135,0.124c-0.203-0.144-0.348-0.316-0.535-0.474
								C411.752,188.813,411.783,188.583,411.982,188.521z"/>
						</g>
					</g>
				</g>
				<g>
					<g>
						<path fill="#263238" d="M443.547,152.251c0,0,0.563,0.735,1.502,2.054c0.928,1.324,2.275,3.206,3.791,5.532
							c1.512,2.327,3.281,5.043,5.037,8.038s3.566,6.229,5.264,9.525c0.836,1.656,1.635,3.33,2.383,4.996
							c0.756,1.664,1.447,3.323,2.086,4.943c0.643,1.619,1.164,3.225,1.627,4.755c0.205,0.773,0.42,1.521,0.6,2.253
							c0.152,0.737,0.334,1.441,0.445,2.135c0.246,1.377,0.373,2.658,0.373,3.797c0.018,1.14-0.111,2.131-0.268,2.93
							c-0.109,0.393-0.209,0.743-0.295,1.048c-0.092,0.302-0.244,0.533-0.33,0.731c-0.188,0.39-0.291,0.598-0.291,0.598
							s0.084-0.216,0.242-0.619c0.068-0.205,0.197-0.439,0.264-0.746c0.064-0.305,0.139-0.654,0.221-1.048
							c0.104-0.794,0.17-1.767,0.086-2.88c-0.072-1.111-0.275-2.357-0.553-3.701c-0.137-0.674-0.344-1.363-0.52-2.082
							c-0.203-0.713-0.443-1.443-0.672-2.195c-0.514-1.494-1.1-3.053-1.738-4.651c-1.291-3.198-2.865-6.531-4.551-9.81
							c-1.646-3.297-3.408-6.539-5.123-9.543s-3.322-5.809-4.762-8.176C445.52,155.381,443.547,152.251,443.547,152.251z"/>
					</g>
					<g>
						<path fill="#263238" d="M445.43,153.396c0,0,0.213,0.248,0.482,0.646c0.123,0.206,0.303,0.426,0.416,0.706
							c0.131,0.271,0.252,0.568,0.375,0.867c0.238,0.6,0.426,1.22,0.545,1.688c0.119,0.469,0.158,0.791,0.158,0.791
							s-0.193-0.271-0.422-0.693c-0.23-0.422-0.512-0.988-0.736-1.577c-0.234-0.585-0.398-1.204-0.584-1.651
							C445.502,153.718,445.43,153.396,445.43,153.396z"/>
					</g>
				</g>
			</g>
			<g>
				<g>
					<g>
						<path fill="#EB9482" d="M411.451,142.381c3.164,0.58,9.484-3.437,11.484-8.017c0.139-0.314-0.604-3.429-1.324-7.256
							c-0.432-2.324-0.854-4.922-1.066-7.32c-0.041-0.493-14.717,5-14.717,5s1.93,4.896,2.276,9.079
							c0.024,0.35,0.021,0.678-0.017,0.993c0,0.046-0.01,0.102-0.006,0.165C407.945,136.922,408.066,141.762,411.451,142.381z"/>
					</g>
					<path fill="#263238" d="M408.086,134.86c0.002,0.048-0.004,0.106,0,0.164c0.475,0.022,0.988,0.003,1.545-0.057
						c8.838-0.987,10.186-12.279,10.383-15.128c-2.639,0.622-14.186,4.947-14.186,4.947s1.93,4.899,2.279,9.084
						C408.127,134.219,408.127,134.548,408.086,134.86z"/>
				</g>
				<g>
					<g>
						<path fill="#EB9482" d="M423.291,102.532c1.467,5.403-1.838,20.778-5.752,24.108c-5.674,4.827-14.725,5.025-18.766-1.74
							c-3.916-6.559,0.742-26.52,5.094-29.521C410.273,90.959,421.123,94.551,423.291,102.532z"/>
					</g>
					<g>
						<g>
							<path fill="#263238" d="M401.846,110.469c-0.002-0.042-0.09,0.035-0.098,0.078c-0.143,1.05-0.484,2.228-1.488,2.415
								c-0.031,0.006-0.037,0.059,0,0.06C401.439,113.055,401.877,111.485,401.846,110.469z"/>
							<path fill="#263238" d="M401.098,109.22c-1.656-0.412-2.359,2.936-0.822,3.315
								C401.785,112.911,402.486,109.564,401.098,109.22z"/>
						</g>
						<g>
							<path fill="#263238" d="M407.699,111.667c0.016-0.038,0.068,0.065,0.061,0.107c-0.236,1.032-0.34,2.255,0.531,2.787
								c0.027,0.017,0.014,0.068-0.02,0.057C407.156,114.229,407.307,112.606,407.699,111.667z"/>
							<path fill="#263238" d="M408.842,110.768c1.697,0.205,1.16,3.582-0.41,3.392C406.885,113.972,407.42,110.594,408.842,110.768
								z"/>
						</g>
						<path fill="#263238" d="M410.143,108.618c-0.445-0.177-0.828-0.414-1.254-0.635c-0.477-0.248-0.883-0.397-1.15-0.891
							c-0.146-0.265-0.018-0.688,0.229-0.853c0.566-0.384,1.229-0.225,1.816,0.052c0.637,0.299,1.051,0.692,1.354,1.326
							C411.434,108.232,410.73,108.852,410.143,108.618z"/>
						<path fill="#263238" d="M400.209,106.785c0.479,0.003,0.924-0.074,1.398-0.12c0.533-0.053,0.969-0.039,1.4-0.396
							c0.234-0.191,0.271-0.632,0.107-0.876c-0.385-0.568-1.059-0.667-1.705-0.631c-0.703,0.039-1.234,0.25-1.754,0.724
							C399.154,105.945,399.574,106.781,400.209,106.785z"/>
						<path fill="#263238" d="M407.203,121.271c-0.266,0.234-0.535,0.563-0.922,0.576c-0.369,0.013-0.793-0.175-1.123-0.323
							c-0.033-0.014-0.068,0.02-0.049,0.053c0.254,0.42,0.818,0.702,1.313,0.642c0.482-0.061,0.74-0.463,0.879-0.895
							C407.322,121.264,407.242,121.237,407.203,121.271z"/>
						<g>
							<g>
								<path fill="#263238" d="M406.676,117.865c-0.738,0.808-1.682,1.158-2.643,1.181c-0.432,0.013-0.867-0.047-1.289-0.158
									c-0.084-0.017-0.166-0.04-0.238-0.069c-0.076-0.022-0.143-0.043-0.225-0.074c-0.119-0.038-0.168-0.15-0.17-0.27l0.002-0.007
									c0.008-0.038,0.014-0.069,0.025-0.105c0,0,0,0,0.002-0.008l0.02-0.092c0.115-0.808,0.398-2.018,0.398-2.018
									c-0.318,0.098-1.932,0.519-1.836,0.102c0.799-3.442,1.684-7.271,3.201-10.528c0.045-0.109,0.217-0.054,0.188,0.06
									c-0.637,3.339-1.854,6.543-2.545,9.887c0.51-0.101,1.346-0.305,1.766-0.225c0.106,0.052-0.594,2.328-0.615,2.695
									c0,0-0.004,0.015,0,0.039c1.322,0.401,2.41,0.166,3.875-0.52C406.682,117.709,406.752,117.793,406.676,117.865z"/>
							</g>
						</g>
						<g>
							<path fill="#263238" d="M403.238,118.759c0,0,0.578,1.021,1.484,1.477c0.334,0.168,0.703,0.265,1.111,0.208
								c0.838-0.112,0.949-0.854,0.879-1.51c-0.055-0.538-0.242-1.02-0.242-1.02S405.152,118.876,403.238,118.759z"/>
							<path fill="#F499BA" d="M404.725,120.235c0.334,0.168,0.703,0.265,1.111,0.208c0.838-0.112,0.949-0.854,0.879-1.51
								C405.836,118.916,404.902,119.399,404.725,120.235z"/>
						</g>
					</g>
					<g>
						<path fill="#263238" d="M420.865,115.746c-2.439-0.243-2.215-5.855-2.215-5.855s-6.262,1.028-5.449-7.12
							c0,0-7.396,1.559-11.543-1.33c-3.545-2.47-4.83-9.112-1.623-12.606c1.807-1.97,6.404-3.443,12.256,3.629
							c0,0,9.188-4.905,11.205,5.733c0,0,4.35,1.035,4.393,5.383C427.955,110.44,422.971,115.956,420.865,115.746z"/>
						<path fill="#263238" d="M413.27,102.198c0.039-0.076,0.15-0.035,0.125,0.048c-0.604,1.939-1.234,4.051,0.15,5.827
							c1.348,1.726,3.523,2.447,5.586,1.64c0.121-0.047,0.203,0.136,0.084,0.182c-1.957,0.752-4.184,0.266-5.646-1.265
							C411.818,106.799,412.23,104.277,413.27,102.198z"/>
						<path fill="#263238" d="M420.824,114.469c3.547-1.346,6.42-3.894,7.146-7.783c0.348-1.852,0.24-3.826-0.764-5.442
							c-0.918-1.478-2.461-2.155-3.803-3.148c-0.039-0.028-0.007-0.089,0.039-0.073c8.637,3.26,5.463,14.978-2.486,16.88
							C420.707,114.962,420.58,114.561,420.824,114.469z"/>
						<path fill="#263238" d="M398.906,88.778c4.313-4.849,11.254-0.46,13.596,4.121c0.008,0.016-0.018,0.033-0.027,0.017
							c-2.195-3.493-7.176-7.243-11.385-5.156c-5.08,2.521-4.1,11.326,1.271,12.773c0.162,0.044,0.098,0.32-0.068,0.289
							C397.301,99.862,395.697,92.382,398.906,88.778z"/>
					</g>
					<g>
						<path fill="#EB9482" d="M418.486,115.202c0,0,3.75-4.817,5.953-3.456c2.201,1.361-0.793,8.47-3.508,9.324
							c-2.711,0.854-3.553-1.641-3.553-1.641L418.486,115.202z"/>
						<path fill="#263238" d="M423.529,113.762c0.043-0.001,0.049,0.06,0.012,0.072c-1.906,0.661-2.977,2.341-3.756,4.101
							c0.59-0.663,1.365-1.003,2.256-0.295c0.047,0.037-0.004,0.111-0.055,0.098c-0.756-0.203-1.314-0.099-1.863,0.487
							c-0.387,0.415-0.664,0.95-0.953,1.438c-0.096,0.162-0.393,0.058-0.318-0.132c0.008-0.014,0.014-0.028,0.02-0.042
							C418.943,117.106,420.963,113.871,423.529,113.762z"/>
					</g>
				</g>
				<path fill="#263238" d="M406.83,135.446c0.035,0.935,0.123,1.869,0.262,2.807c0.125,0.84,0.258,1.68,0.551,2.507
					c0.527,1.486,1.619,2.927,3.408,3.508c1.709,0.556,3.52,0.255,4.941-0.418c1.557-0.736,2.807-1.888,3.957-3.015
					c0.713-0.696,1.391-1.42,2.023-2.172c0.322-0.382,0.646-0.76,0.945-1.155c0.299-0.395,0.576-0.803,0.904-1.179
					c0.023-0.03,0.102,0.002,0.078,0.037c-0.645,0.901-2.59,3.77-3.225,4.464c-1.152,1.262-2.41,2.544-4.027,3.393
					c-1.527,0.803-3.381,1.183-5.294,0.721c-1.886-0.454-3.245-1.788-3.875-3.335c-0.388-0.949-0.526-1.95-0.601-2.919
					c-0.08-1.084-0.094-2.169-0.076-3.245C406.807,135.431,406.83,135.434,406.83,135.446z"/>
			</g>
		</g>
	</g>
</g>
<g>
	<g>
		<g>
			<g>
				<g>
					<path fill="#F7A9A0" d="M120.783,211.999c-1.494,0.483-44.152,0.11-45.771-0.933c-0.616-0.396-0.923-6.608-1.082-14.129
						c-0.035-1.627-3.254-27.802-3.254-27.802l28.517,0.171l2.241,27.793c0,0,16.268,7.446,17.92,8.779
						C120.996,207.213,122.277,211.514,120.783,211.999z"/>
					<path fill="#263238" d="M120.782,211.996c-1.493,0.486-44.149,0.109-45.768-0.934c-0.468-0.297-0.759-3.938-0.946-8.961
						c5.518,1.265,36.532,3.813,40.097,3.381c3.444-0.41-4.534-4.518-5.978-5.24c4.68,2.206,10.234,4.886,11.168,5.639
						C120.994,207.213,122.279,211.514,120.782,211.996z"/>
				</g>
				<g>
					<path fill="#37474F" d="M40.969,53.749c0,0-7.457,10.829-3.357,22.592c7.004,20.093,24.793,42.705,25.339,45.291
						c1.288,6.095,8.147,68.576,8.147,68.576l31.868-0.196c0,0-5.244-52.995-10.653-70.498
						c-2.954-9.556-19.828-35.754-27.109-48.538c-0.651-1.144,0.885-6.08,0.885-6.08L40.969,53.749z"/>
					<g>
						<path fill="#263238" d="M99.779,184.413c-4.947-0.097-19.925-0.511-26.521,0.024c-0.05,0.004-0.05,0.086,0,0.094
							c2.264,0.354,21.573,0.117,26.521,0.021C99.874,184.548,99.874,184.417,99.779,184.413z"/>
						<path fill="#263238" d="M35.656,68.531c2.129,3.43,4.376,6.791,6.554,10.192c2.179,3.403,4.349,6.81,6.49,10.236
							c4.279,6.847,8.443,13.764,12.528,20.721c1.917,3.265,3.739,6.558,5.039,10.107c1.288,3.515,2.149,7.168,2.773,10.849
							c0.629,3.705,1.029,7.445,1.402,11.183c0.398,3.979,0.79,7.961,1.184,11.94c0.809,8.144,1.616,16.287,2.424,24.433
							c0.1,1,0.197,1.998,0.283,2.996c0.013,0.148-0.249,0.174-0.266,0.027c-0.914-8.094-1.657-16.212-2.478-24.313
							c-0.409-4.035-0.817-8.068-1.227-12.104c-0.38-3.753-0.74-7.506-1.275-11.241c-0.527-3.669-1.224-7.322-2.294-10.879
							c-1.118-3.715-2.724-7.211-4.633-10.601c-3.909-6.936-8.052-13.757-12.195-20.562c-4.18-6.862-8.395-13.706-12.771-20.451
							c-0.541-0.832-1.086-1.661-1.647-2.481C35.505,68.524,35.616,68.464,35.656,68.531z"/>
					</g>
				</g>
			</g>
			<g>
				<g>
					<path fill="#F7A9A0" d="M43.1,212.206c-1.57-0.117-41.93-17.052-43.042-18.622c-0.037-0.052-0.058-0.154-0.059-0.3
						c0.025-1.396,19.325-36.429,19.325-36.429l26.383,10.857l-14.956,23.414c0,0,12.285,13.016,13.313,14.869
						C45.087,207.85,44.665,212.313,43.1,212.206z"/>
					<path fill="#F7A9A0" d="M44.067,205.994c1.019,1.857,0.6,6.318-0.964,6.209c-1.57-0.114-41.936-17.049-43.045-18.619
						c-0.037-0.055-0.054-0.158-0.054-0.305c0.006-0.454,2.074-4.498,4.851-9.736c5.723-10.801,14.474-26.686,14.474-26.686
						l26.381,10.857l-14.958,23.412c0,0,3.389,3.596,6.754,7.27l0.012,0.012C40.562,201.732,43.575,205.117,44.067,205.994z"/>
					<path fill="#263238" d="M43.103,212.203c-1.57-0.114-41.936-17.049-43.045-18.619c-0.037-0.055-0.054-0.158-0.054-0.305
						c0.006-0.454,2.074-4.498,4.851-9.736c6.966,7.331,34.461,20.689,35.365,20.314c0.933-0.396-2.472-5.114-2.701-5.449
						c3.044,3.324,6.057,6.709,6.549,7.586C45.085,207.854,44.667,212.313,43.103,212.203z"/>
				</g>
				<g>
					<path fill="#37474F" d="M34.641,187.466L7.278,174.491c0,0,35.296-53.025,35.618-57.048
						c0.285-3.565-15.495-34.806-16.021-43.86c-0.567-9.771,4.227-17.27,9.451-21.896l29.762,13.208c0,0-2.601,5.313-7.727,8.128
						c0,0,15.258,36.074,14.232,47.094C71.562,131.2,34.641,187.466,34.641,187.466z"/>
					<g>
						<path fill="#263238" d="M36.162,181.186c-3.795-1.938-2.676-1.438-6.493-3.332c-1.869-0.926-14.152-7-16.06-7.526
							c-0.042-0.013-0.077,0.063-0.042,0.086c1.602,1.166,13.998,7.003,15.885,7.887c3.857,1.813,2.772,1.247,6.65,3.013
							C36.175,181.34,36.233,181.221,36.162,181.186z"/>
						<g>
							<path fill="#263238" d="M62.795,73.317c-3.258,0.179-6.524,0.802-9.683,1.528c-0.125,0.029-0.097,0.21,0.034,0.194
								c3.234-0.414,6.511-0.76,9.715-1.345C63.112,73.648,63.044,73.303,62.795,73.317z"/>
							<path fill="#263238" d="M59.404,71.505c-0.38,0.471-0.72,0.979-1.032,1.496c-0.244,0.402-0.541,0.827-0.612,1.295
								c-0.015,0.091,0.104,0.132,0.169,0.086c0.406-0.291,0.673-0.766,0.962-1.161c0.337-0.458,0.684-0.91,1.006-1.377
								C60.112,71.533,59.639,71.212,59.404,71.505z"/>
							<path fill="#263238" d="M65.821,62.884c0.014-0.052-0.088-0.099-0.108-0.046c-0.627,1.724-1.324,3.19-2.099,4.735
								c-0.359,0.718-2.619,4.586-4.059,3.741c-0.242-0.142-0.294-0.401-0.213-0.741c0.097-0.41,0.454-0.829,0.678-1.192
								c0.495-0.802,0.956-1.619,1.371-2.459c0.773-1.568,1.39-3.192,1.758-4.897c0.011-0.056-0.082-0.084-0.103-0.031
								c-0.838,2.253-1.749,4.477-2.987,6.565c-0.594,1.004-1.846,2.391-0.561,3.027c1.31,0.648,3.206-1.743,3.649-2.424
								C64.386,67.261,65.237,65.04,65.821,62.884z"/>
						</g>
						<path fill="#263238" d="M58.824,74.197c1.06,2.32,1.988,4.63,2.978,6.94c0.967,2.258,1.869,4.542,2.745,6.837
							c1.769,4.637,3.347,9.354,4.724,14.122c0.681,2.359,1.305,4.735,1.866,7.125c0.563,2.396,1.113,4.817,1.329,7.275
							c0.216,2.465,0.009,4.896-0.706,7.269c-0.725,2.407-4.801,10.459-5.917,12.703c-0.684,1.375-0.909,1.185-0.578,0.491
							c0.938-1.965,6.537-13.883,6.426-18.922c-0.053-2.435-0.524-4.834-1.043-7.203c-0.532-2.417-1.134-4.82-1.795-7.206
							c-1.302-4.701-2.861-9.313-4.467-13.917c-0.899-2.58-1.866-5.135-2.779-7.709c-0.92-2.593-1.874-4.929-2.895-7.761
							C58.683,74.167,58.791,74.125,58.824,74.197z"/>
						<path fill="#263238" d="M36.385,66.3c0.534-0.19,1.268,0.145,1.809,0.243c0.694,0.125,1.396,0.205,2.101,0.237
							c0.694,0.033,1.394,0.013,2.086-0.045c0.692-0.059,1.399-0.136,2.004-0.503c1.021-0.619,1.882-1.722,2.58-2.673
							c0.767-1.044,1.565-2.247,2.029-3.462c0.027-0.074,0.135-0.021,0.11,0.052c-0.232,0.709-0.407,1.424-0.699,2.117
							c-0.275,0.651-0.629,1.272-1.003,1.871c-0.698,1.118-1.499,2.31-2.681,2.966c-1.239,0.687-2.826,0.625-4.199,0.529
							c-0.793-0.056-1.583-0.171-2.359-0.345c-0.562-0.125-1.505-0.227-1.857-0.725C36.244,66.472,36.28,66.338,36.385,66.3z"/>
						<path fill="#263238" d="M15.459,169.564c4.97-7.322,9.848-14.705,14.642-22.146c4.806-7.46,9.526-14.972,14.182-22.525
							c1.113-1.806,2.397-3.608,3.124-5.616c0.792-2.181,0.383-4.309-0.282-6.462c-1.221-3.948-2.755-7.793-4.415-11.575
							c-1.665-3.793-3.462-7.525-5.229-11.271c-1.752-3.715-3.62-7.445-4.936-11.342c-1.258-3.724-1.706-7.574-0.659-11.408
							c1.039-3.803,3.227-7.203,5.507-10.372c0.602-0.837,1.214-1.665,1.818-2.5c0.046-0.063,0.143,0.016,0.094,0.079
							c-2.51,3.303-4.962,6.801-6.458,10.697c-0.739,1.924-1.229,3.955-1.299,6.02c-0.072,2.096,0.296,4.18,0.889,6.184
							c1.152,3.896,3.002,7.596,4.724,11.263c1.76,3.751,3.569,7.479,5.263,11.259c1.705,3.804,3.297,7.663,4.594,11.626
							c0.579,1.764,1.224,3.612,1.161,5.494c-0.069,2.062-1.077,3.905-2.117,5.632c-4.532,7.514-9.231,14.93-13.987,22.306
							c-4.773,7.401-9.64,14.743-14.579,22.036c-0.623,0.923-1.247,1.839-1.872,2.756C15.546,169.816,15.381,169.678,15.459,169.564
							z"/>
					</g>
				</g>
			</g>
		</g>
		<g>
			<g>
				<path fill="#263238" d="M63.126,27.145c-1.211,7.039-2.338,14.299-2.456,21.447c-0.093,5.568,1.695,10.37,7.262,12.383
					c5.164,1.865,12.736,2.643,17.634-0.356c2.28-1.4,3.277-3.631,3.437-6.24c0.225-3.629-0.352-23.712-0.495-29.971
					c-0.079-3.811-0.142-7.672-0.9-11.434c-1.59-7.894-5.36-8.265-5.865-8.478c-0.417-0.341-3.158-1.963-7.419-1.128
					c-2.354,0.461-4.139,1.814-5.387,3.784C65.276,12.915,64.265,20.555,63.126,27.145z"/>
				<path fill="#263238" d="M82.795,5.686c4.283,2.639,4.791,7.706,5.375,12.263c0.812,6.342,1.518,12.702,1.914,19.085
					c0.191,3.069,0.313,6.144,0.343,9.219c0.029,2.943,0.237,6.104-0.297,9.013c-0.883,4.809-5.571,6.501-9.949,6.695
					c-0.212,0.008-0.237-0.314-0.024-0.332c2.502-0.202,5.079-0.593,7.11-2.198c2.604-2.058,2.685-5.127,2.757-8.186
					c0.126-5.204-0.045-10.412-0.403-15.603c-0.359-5.198-0.903-10.383-1.528-15.556c-0.595-4.924-0.7-11.328-5.334-14.331
					C82.716,5.73,82.75,5.658,82.795,5.686z"/>
				<path fill="#263238" d="M66.257,12.084c1.288-3.604,3.629-6.992,7.652-7.616c0.008-0.001,0.01,0.01,0.002,0.011
					c-5.226,1.024-7.091,6.39-8.294,10.913c-1.267,4.76-2.35,9.566-3.264,14.406c-0.879,4.655-1.665,9.36-2.118,14.079
					c-0.488,5.091-0.118,9.957,2.398,14.491c0.053,0.094-0.078,0.185-0.14,0.094c-2.564-3.729-3.003-8.508-2.735-12.904
					c0.352-5.789,1.401-11.598,2.516-17.282C63.332,22.876,64.401,17.277,66.257,12.084z"/>
			</g>
			<g>
				<g>
					<path fill="#F7A9A0" d="M65.213,32.2c-0.996,8.045,0.46,26.884,3.198,30.801c2.093,2.996,14.954,7.671,20.452,8.904
						c2.356,0.528,5.758-13.491,4.038-14.106c-5.322-1.903-13.827-5.426-15.252-6.312c-0.999-0.621-2.632-6.947-6.616-19.035
						C68.825,25.748,65.774,27.67,65.213,32.2z"/>
					<g>
						<path fill="#F7A9A0" d="M97.705,72.911c-0.945,0.027-0.938,0.523,0.412,1.523c1.363,1.016,7.542,3.82,6.376,5.896
							c-1.166,2.085-9.843-2.024-11.963-3.864c-2.124-1.835-4.902-5.558-4.902-5.558C89.476,71.369,94.065,72.056,97.705,72.911z"/>
						<path fill="#F7A9A0" d="M92.482,57.748c5.16,1.485,11.674,3.02,15.842,7.417c0.817,0.863,0.855,1.768,0.855,1.768
							c1.902,1.938,1.56,3.417,1.56,3.417c1.22,2.349,0.66,3.814,0.66,3.814s2.209,2.3,1.041,3.866
							c-1.304,1.76-4.151-1.814-6.92-2.821c-6.341-2.308-16.001-3.815-17.895-4.3L92.482,57.748z"/>
						<g>
							<path fill="#263238" d="M100.576,68.12c1.853,0.716,3.691,1.372,5.438,2.335c1.916,1.058,3.582,2.396,5.312,3.717
								c0.055,0.042,0.118-0.03,0.071-0.079c-2.754-2.887-6.915-5.142-10.789-6.058C100.514,68.013,100.484,68.084,100.576,68.12z"
								/>
							<path fill="#263238" d="M101.414,64.09c1.764,0.797,4.855,2.218,9.283,6.309c0.014,0.013,0.042-0.007,0.028-0.023
								c-2.521-3.039-5.583-5.062-9.273-6.37C101.337,63.965,101.296,64.037,101.414,64.09z"/>
							<path fill="#263238" d="M101.904,61.933c2.948,1.47,4.621,2.77,7.256,5.002c0.016,0.013,0.042-0.01,0.027-0.025
								c-2.73-2.853-4.043-3.577-7.247-5.085C101.83,61.773,101.788,61.875,101.904,61.933z"/>
						</g>
					</g>
				</g>
				<path fill="#B9CEEB" d="M86.353,72.863l5.01-16.599c0,0-11.865-4.631-13.505-5.437c-0.694-0.34-4.897-13.945-7.022-19.823
					c-1.397-3.868-5.21-5.635-6.227,2.243c-0.595,4.612-0.204,26.773,2.921,30.301C70.015,66.355,86.353,72.863,86.353,72.863z"/>
				<g>
					<path fill="#263238" d="M83.57,70.829c0.171-1.242,1.716-6.184,2.115-7.41c0.391-1.202,2.164-6.093,2.577-7.352
						c0.022-0.068,0.127-0.057,0.104,0.013c-0.388,1.253-1.773,6.264-2.159,7.494c-0.388,1.234-1.988,6.142-2.572,7.272
						C83.615,70.885,83.565,70.868,83.57,70.829z"/>
				</g>
				<path opacity="0.1" fill="#040303" enable-background="new    " d="M80.611,70.464c-4.96-2.145-11.575-5.214-13.079-6.918
					c-3.129-3.523-3.517-25.685-2.922-30.299c0.854-6.67,3.722-6.428,5.432-3.844L80.611,70.464z"/>
			</g>
			<g>
				<g>
					<path fill="#B9CEEB" d="M66.088,64.895l2.51-12.658c0,0,4.437-1.568,4.38-7.321c-0.026-2.647-1.277-12.999-4.263-17.087
						c-2.801-3.835-7.303-2.899-10.009-1.568c-5.298,2.609-12.828,9.938-22.379,25.427L66.088,64.895z"/>
				</g>
				<g>
					<path fill="#263238" d="M61.352,47.908c1.209,0.497,2.408,1.055,3.521,1.808c0.554,0.375,1.087,0.785,1.615,1.214
						c0.263,0.214,0.532,0.414,0.803,0.611c0.278,0.204,0.58,0.404,0.898,0.499c0.028,0.009,0.012,0.071-0.016,0.065
						c-0.317-0.066-0.619-0.13-0.92-0.255c-0.287-0.119-0.56-0.283-0.826-0.458c-0.564-0.372-1.114-0.783-1.675-1.163
						c-1.134-0.768-2.267-1.533-3.452-2.176C61.246,48.023,61.295,47.884,61.352,47.908z"/>
					<path fill="#263238" d="M57.858,48.727c1.068,0.107,2.139,0.287,3.17,0.563c0.52,0.139,1.025,0.319,1.526,0.521
						c0.239,0.096,0.477,0.198,0.712,0.305c0.26,0.116,0.503,0.285,0.764,0.397c0.027,0.011,0.012,0.074-0.016,0.064
						c-0.25-0.094-0.52-0.129-0.776-0.202c-0.257-0.073-0.513-0.15-0.77-0.224c-0.515-0.147-1.032-0.287-1.545-0.441
						c-1.028-0.309-2.056-0.603-3.097-0.861C57.771,48.834,57.803,48.721,57.858,48.727z"/>
				</g>
			</g>
			<g>
				<g>
					<path fill="#F7A9A0" d="M56.1,30.864c-2.751,10.287-4.666,29.604-3.128,33.081c1.362,3.079,13.611,8.578,19.24,10.563
						c2.105,0.744,7.011-15.776,4.744-16.526c-2.721-0.898-10.667-3.839-10.923-4.548c-0.281-0.779-1.649-13.859-3.315-22.142
						C61.207,23.785,57.14,26.974,56.1,30.864z"/>
					<g>
						<path fill="#F7A9A0" d="M84.472,59.852c4.845,1.946,5.79,3.189,10.75,2.66c3.256-0.347,4.875,1.582,2.045,3.477
							c-4.627,3.099-11.405,1.902-13.636,0.81L84.472,59.852z"/>
						<g>
							<g>
								<path fill="#FFC829" d="M73.069,90.53l9.417-11.514c0.994-1.215,2.644-1.221,3.683-0.012l0,0
									c0.582,0.676,0.851,1.625,0.79,2.58c-0.12,1.865,0.44,3.792,1.663,5.213c2.174,2.526,5.614,2.514,7.686-0.021
									c2.074-2.534,1.996-6.632-0.178-9.158c-1.223-1.421-2.854-2.04-4.415-1.85c-0.799,0.098-1.602-0.199-2.184-0.875l0,0
									c-1.04-1.208-1.077-3.173-0.083-4.389l7.394-11.422l2.025-0.091l9.851,11.447c1.04,1.209,2.69,1.204,3.684-0.012l0,0
									c0.557-0.68,0.789-1.631,0.691-2.584c-0.191-1.864,0.297-3.795,1.466-5.224c2.078-2.541,5.517-2.552,7.686-0.032
									c2.168,2.52,2.246,6.619,0.169,9.158c-1.17,1.429-2.777,2.059-4.345,1.879c-0.803-0.092-1.594,0.21-2.15,0.889l0,0
									c-0.995,1.214-0.958,3.18,0.082,4.389l9.853,11.447l-9.418,11.513c-0.995,1.215-2.643,1.222-3.684,0.013l0,0
									c-0.582-0.676-0.85-1.626-0.788-2.581c0.12-1.864-0.44-3.792-1.664-5.211c-2.173-2.527-5.613-2.515-7.686,0.02
									c-2.074,2.535-1.996,6.632,0.178,9.158c1.222,1.421,2.854,2.04,4.415,1.849c0.799-0.097,1.602,0.199,2.184,0.875l0,0
									c1.04,1.208,1.077,3.173,0.083,4.389l-9.417,11.512l-2.024,0.09l-7.829-11.537c-1.04-1.208-2.689-1.203-3.683,0.012l0,0
									c-0.557,0.679-0.789,1.631-0.692,2.584c0.19,1.865-0.297,3.795-1.465,5.225c-2.078,2.54-5.517,2.551-7.686,0.031
									c-2.17-2.521-2.247-6.619-0.169-9.157c1.169-1.43,2.776-2.06,4.344-1.88c0.803,0.091,1.595-0.209,2.151-0.889l0,0
									c0.994-1.216,0.957-3.18-0.083-4.389L73.069,90.53z"/>
								<path opacity="0.1" fill="#040303" enable-background="new    " d="M73.069,90.53l9.417-11.514
									c0.994-1.215,2.644-1.221,3.683-0.012l0,0c0.582,0.676,0.851,1.625,0.79,2.58c-0.12,1.865,0.44,3.792,1.663,5.213
									c2.174,2.526,5.614,2.514,7.686-0.021c2.074-2.534,1.996-6.632-0.178-9.158c-1.223-1.421-2.854-2.04-4.415-1.85
									c-0.799,0.098-1.602-0.199-2.184-0.875l0,0c-1.04-1.208-1.077-3.173-0.083-4.389l7.394-11.422l2.025-0.091l9.851,11.447
									c1.04,1.209,2.69,1.204,3.684-0.012l0,0c0.557-0.68,0.789-1.631,0.691-2.584c-0.191-1.864,0.297-3.795,1.466-5.224
									c2.078-2.541,5.517-2.552,7.686-0.032c2.168,2.52,2.246,6.619,0.169,9.158c-1.17,1.429-2.777,2.059-4.345,1.879
									c-0.803-0.092-1.594,0.21-2.15,0.889l0,0c-0.995,1.214-0.958,3.18,0.082,4.389l9.853,11.447l-9.418,11.513
									c-0.995,1.215-2.643,1.222-3.684,0.013l0,0c-0.582-0.676-0.85-1.626-0.788-2.581c0.12-1.864-0.44-3.792-1.664-5.211
									c-2.173-2.527-5.613-2.515-7.686,0.02c-2.074,2.535-1.996,6.632,0.178,9.158c1.222,1.421,2.854,2.04,4.415,1.849
									c0.799-0.097,1.602,0.199,2.184,0.875l0,0c1.04,1.208,1.077,3.173,0.083,4.389l-9.417,11.512l-2.024,0.09l-7.829-11.537
									c-1.04-1.208-2.689-1.203-3.683,0.012l0,0c-0.557,0.679-0.789,1.631-0.692,2.584c0.19,1.865-0.297,3.795-1.465,5.225
									c-2.078,2.54-5.517,2.551-7.686,0.031c-2.17-2.521-2.247-6.619-0.169-9.157c1.169-1.43,2.776-2.06,4.344-1.88
									c0.803,0.091,1.595-0.209,2.151-0.889l0,0c0.994-1.216,0.957-3.18-0.083-4.389L73.069,90.53z"/>
							</g>
							<path fill="#B9CEEB" d="M71.044,90.62l9.419-11.513c0.993-1.215,2.643-1.221,3.683-0.013l0,0
								c0.583,0.676,0.851,1.626,0.789,2.58c-0.119,1.865,0.44,3.792,1.665,5.213c2.173,2.525,5.612,2.514,7.686-0.021
								c2.073-2.534,1.996-6.633-0.178-9.158c-1.224-1.421-2.854-2.04-4.415-1.849c-0.798,0.097-1.602-0.198-2.185-0.875l0,0
								c-1.04-1.208-1.077-3.173-0.083-4.389l9.418-11.512l9.853,11.447c1.04,1.208,2.688,1.203,3.684-0.013l0,0
								c0.556-0.68,0.788-1.632,0.69-2.585c-0.191-1.864,0.297-3.794,1.466-5.223c2.078-2.541,5.517-2.552,7.686-0.032
								c2.169,2.521,2.247,6.619,0.169,9.158c-1.168,1.43-2.776,2.06-4.344,1.879c-0.803-0.092-1.594,0.209-2.151,0.889l0,0
								c-0.994,1.215-0.958,3.18,0.083,4.389l9.852,11.448l-9.418,11.512c-0.994,1.215-2.643,1.222-3.683,0.013l0,0
								c-0.583-0.677-0.851-1.625-0.789-2.581c0.119-1.864-0.44-3.792-1.664-5.213c-2.174-2.525-5.613-2.514-7.686,0.021
								c-2.073,2.535-1.996,6.632,0.178,9.158c1.223,1.422,2.854,2.04,4.415,1.85c0.799-0.099,1.603,0.198,2.184,0.874l0,0
								c1.041,1.209,1.078,3.174,0.083,4.39l-9.417,11.512L88.18,110.53c-1.04-1.208-2.689-1.203-3.684,0.012l0,0
								c-0.556,0.68-0.788,1.631-0.69,2.584c0.19,1.865-0.297,3.795-1.466,5.224c-2.078,2.54-5.518,2.552-7.687,0.031
								s-2.246-6.619-0.168-9.157c1.168-1.43,2.776-2.06,4.344-1.88c0.802,0.093,1.594-0.209,2.15-0.889l0,0
								c0.994-1.215,0.957-3.18-0.083-4.389L71.044,90.62z"/>
						</g>
						<g>
							<path fill="#F7A9A0" d="M70.078,57.344c0,0,6.646,0.088,12.014,1.65c3.713,1.081,11.527,4.333,14.379,15.514
								c0.677,2.653-0.24,6.913-2.919,2.982c-1.902-2.792-2.265-5.137-3.667-6.56c0,0-1.81,5.279-4.493,5.853
								c-1.2,0.257-4.49,0.88-7.12,1c0,0-0.179-0.565-0.306-1.315c0,0-2.558,0.299-5.754-1.96L70.078,57.344z"/>
						</g>
						<g>
							<path fill="#F7A9A0" d="M85.47,60.593c1.094,1.706,3.351,5.361,4.157,8.993c0.896,4.034,1.533,12.046-1.452,12.677
								c-2.188,0.462-2.701-2.575-2.701-2.575s-0.434,3.367-2.503,3.352c-1.884-0.013-2.14-2.387-2.14-2.387
								s-0.615,1.997-2.428,1.634c-2.18-0.436-0.534-4.551-2.361-6.901C75.631,74.858,85.47,60.593,85.47,60.593z"/>
							<g>
								<g>
									<path fill="#263238" d="M85.206,69.821c0.766,1.773,1.47,6.246,0.333,9.81c-0.026,0.081-0.101,0.104-0.093,0.026
										c0.42-4.19,0.002-8.155-0.277-9.827C85.165,69.807,85.198,69.801,85.206,69.821z"/>
								</g>
								<g>
									<path fill="#263238" d="M81.16,70.843c0.503,1.598,1.023,6.241-0.253,9.813c-0.029,0.081-0.106,0.1-0.095,0.021
										c0.619-4.359,0.487-8.14,0.309-9.827C81.12,70.826,81.154,70.822,81.16,70.843z"/>
								</g>
							</g>
						</g>
					</g>
					<g>
						<path fill="#263238" d="M85.333,60.221c0,0,0.308,0.122,0.846,0.334c0.535,0.22,1.309,0.512,2.238,0.848
							c0.927,0.334,2.031,0.689,3.224,0.905c0.603,0.118,1.19,0.115,1.849,0.053c0.648-0.047,1.31-0.101,1.98-0.12
							c0.669-0.007,1.349,0.006,2.022,0.168c0.333,0.084,0.677,0.21,0.962,0.459c0.295,0.238,0.452,0.649,0.452,0.986
							c0.003,0.761-0.451,1.295-0.862,1.701c-0.429,0.408-0.892,0.708-1.33,0.958c-0.88,0.496-1.688,0.736-2.249,0.883
							c-0.566,0.139-0.898,0.163-0.898,0.163s0.325-0.07,0.87-0.257c0.544-0.185,1.303-0.517,2.131-1.033
							c0.41-0.263,0.839-0.577,1.214-0.974c0.365-0.388,0.701-0.904,0.689-1.413c0.006-0.562-0.487-0.894-1.09-1.02
							c-0.597-0.135-1.253-0.138-1.902-0.125c-0.652,0.008-1.31,0.05-1.96,0.086c-0.638,0.053-1.341,0.044-1.956-0.091
							c-1.245-0.249-2.327-0.695-3.248-1.07C86.484,60.877,85.333,60.221,85.333,60.221z"/>
					</g>
					<g>
						<path fill="#263238" d="M92.268,65.716c0.661,0.81,1.25,1.678,1.803,2.568c0.555,0.89,1.061,1.813,1.494,2.773
							c0.212,0.482,0.421,0.966,0.601,1.464c0.182,0.496,0.353,0.999,0.484,1.514c0.274,1.022,0.477,2.098,0.354,3.206
							c-0.071,0.548-0.187,1.118-0.569,1.634c-0.186,0.253-0.5,0.485-0.873,0.536c-0.371,0.042-0.708-0.083-0.969-0.24
							c-0.524-0.328-0.875-0.771-1.194-1.215c-0.317-0.446-0.576-0.926-0.805-1.394c-0.464-0.963-0.878-1.9-1.359-2.817
							c-0.478-0.913-1.001-1.797-1.606-2.616l0.581-0.254c0.3,1.968,0.41,3.945,0.361,5.93c-0.031,0.99-0.127,1.987-0.38,2.954
							c-0.127,0.481-0.292,0.959-0.545,1.393c-0.126,0.215-0.274,0.423-0.463,0.588c-0.178,0.178-0.402,0.297-0.629,0.389
							c0.218-0.114,0.422-0.251,0.577-0.44c0.166-0.176,0.287-0.389,0.394-0.603c0.212-0.434,0.337-0.906,0.426-1.381
							c0.173-0.955,0.194-1.933,0.191-2.905c-0.021-1.948-0.277-3.899-0.576-5.816l-0.199-1.276l0.78,1.022
							c0.649,0.851,1.204,1.759,1.708,2.687c0.502,0.924,0.948,1.891,1.403,2.8c0.236,0.466,0.459,0.915,0.744,1.323
							c0.277,0.405,0.598,0.794,0.961,1.025c0.377,0.231,0.68,0.213,0.936-0.115c0.254-0.323,0.387-0.81,0.45-1.287
							c0.059-0.49,0.052-0.979-0.005-1.487c-0.076-0.494-0.137-1.005-0.258-1.502c-0.103-0.501-0.247-0.996-0.403-1.486
							c-0.153-0.492-0.336-0.974-0.523-1.457C94.366,69.322,93.409,67.465,92.268,65.716z"/>
					</g>
				</g>
				<g>
					<path fill="#B9CEEB" d="M69.534,76.323l7.131-18.979l-10.086-4.219c-0.913-6.386-2.739-19.154-4.032-23.475
						c-1.519-5.068-5.136-4.346-6.718,0.808c-3.616,11.788-4.838,31.724-3.573,34.534C54.07,69.02,69.534,76.323,69.534,76.323z"/>
					<g>
						<path fill="#263238" d="M67.321,72.813c0.222-1.25,1.98-6.194,2.432-7.422c0.442-1.202,2.428-6.087,2.896-7.346
							c0.026-0.069,0.131-0.052,0.106,0.018c-0.442,1.253-2.041,6.275-2.48,7.506c-0.441,1.234-2.253,6.144-2.889,7.266
							C67.364,72.873,67.314,72.854,67.321,72.813z"/>
						<g>
							<g>
								<path fill="#263238" d="M63.032,72.982c0,0-0.583-0.319-1.603-0.877c-1.013-0.571-2.449-1.407-4.128-2.486
									c-0.838-0.542-1.739-1.143-2.653-1.839c-0.455-0.353-0.914-0.725-1.361-1.139c-0.438-0.425-0.899-0.853-1.208-1.48
									c-0.493-1.223-0.581-2.56-0.652-3.866c-0.042-1.319-0.013-2.655,0.044-3.988c0.109-2.666,0.379-5.316,0.685-7.791
									c0.286-2.478,0.638-4.778,0.969-6.745c0.641-3.937,1.237-6.53,1.237-6.53s-0.308,2.638-0.769,6.596
									c-0.222,1.977-0.48,4.284-0.757,6.755c-0.253,2.473-0.491,5.112-0.67,7.75c-0.077,1.32-0.125,2.641-0.104,3.935
									c0.021,1.292,0.048,2.578,0.443,3.693c0.229,0.503,0.665,0.952,1.076,1.362c0.422,0.41,0.865,0.787,1.306,1.144
									c0.884,0.709,1.752,1.347,2.567,1.915c1.63,1.138,3.039,2.018,4.022,2.636C62.466,72.635,63.032,72.982,63.032,72.982z"/>
							</g>
							<g>
								<path fill="#263238" d="M53.854,39.229c0,0-0.046-0.122-0.092-0.307c-0.043-0.186-0.077-0.436-0.092-0.688
									c0.006-0.254-0.006-0.502,0.051-0.698c0.046-0.191,0.09-0.307,0.09-0.307s0.028,0.134,0.05,0.318
									c0.012,0.179,0.047,0.432,0.058,0.678c-0.003,0.248,0.007,0.498-0.018,0.687C53.879,39.101,53.854,39.229,53.854,39.229z"/>
							</g>
						</g>
						<g>
							<g>
								<path fill="#263238" d="M64.398,39.443c0.259,1.002,0.415,2.028,0.608,3.043l0.499,3.061
									c0.333,2.039,0.605,4.09,0.976,6.114l0.143,0.753l0.085,0.362c0.014,0.075,0.03,0.093,0.034,0.119l0.003,0.047
									c-0.051-0.031,0.035,0.018,0.045,0.022c0.454,0.263,0.91,0.445,1.366,0.653l2.835,1.22c1.896,0.821,3.795,1.637,5.682,2.486
									l0.019,0.008l-0.007,0.017l-0.199,0.474l0.162-0.488l0.011,0.025c-1.956-0.677-3.892-1.403-5.819-2.152
									c-0.969-0.374-1.911-0.769-2.882-1.177c-0.488-0.214-0.992-0.42-1.437-0.668c-0.171-0.051-0.247-0.354-0.281-0.455
									l-0.098-0.392l-0.148-0.769c-0.331-2.05-0.616-4.096-0.861-6.149l-0.36-3.08C64.655,41.493,64.579,40.46,64.398,39.443z"/>
							</g>
							<g>
								<path fill="#263238" d="M64.952,39.993c0,0,0.032,0.127,0.056,0.317c0.021,0.19,0.026,0.443,0.01,0.696
									c-0.036,0.252-0.053,0.501-0.132,0.689c-0.068,0.185-0.125,0.295-0.125,0.295s-0.012-0.137-0.013-0.322
									c0.009-0.18,0.003-0.436,0.021-0.683c0.033-0.247,0.052-0.497,0.099-0.682C64.912,40.117,64.952,39.993,64.952,39.993z"/>
							</g>
						</g>
					</g>
				</g>
			</g>
			<g>
				<path fill="#F7A9A0" d="M59.689,25.831c0,0,4.276,10.41,8.414,10.896c3.095,0.363,2.641-5.96,2.641-5.96
					S67.868,22.413,59.689,25.831z"/>
				<g>
					<g>
						<path fill="#F7A9A0" d="M63.889,26.512c-0.089,0.67,1.279,5.876,4.315,6.587c1.581,0.371,2.69-4.587,2.69-4.587l0.223-0.338
							l3.125-4.74L69.64,17.22l-0.682-0.851c0,0-0.77,1.353-1.712,3.047c-0.044,0.079-0.087,0.157-0.134,0.242
							c-0.055,0.094-0.11,0.182-0.158,0.274c-0.143,0.25-0.288,0.508-0.429,0.767c-0.107,0.197-0.213,0.389-0.318,0.599
							c-0.11,0.208-0.214,0.414-0.326,0.623C64.834,24.002,63.932,26.229,63.889,26.512z"/>
						<path fill="#263238" d="M67.247,19.416c-0.081,4.686,2.574,7.617,3.871,8.758l3.125-4.74l-4.602-6.214l-0.682-0.851
							C68.958,16.369,68.188,17.722,67.247,19.416z"/>
					</g>
					<g>
						<path fill="#F7A9A0" d="M84.791,18.808c-2.942,9.52-8.976,8.833-11.029,8.196c-1.862-0.578-8.132-2.782-6.19-12.555
							C69.514,4.676,74.87,3.034,79.201,4.131C83.532,5.227,87.732,9.288,84.791,18.808z"/>
						<g>
							<path fill="#263238" d="M83.48,17.559c-0.209-0.109-0.384-0.245-0.578-0.374c-0.22-0.146-0.411-0.239-0.517-0.493
								c-0.057-0.137,0.027-0.337,0.155-0.404c0.296-0.158,0.61-0.046,0.883,0.118c0.295,0.178,0.476,0.392,0.593,0.717
								C84.129,17.437,83.755,17.702,83.48,17.559z"/>
							<path fill="#263238" d="M77.563,14.257c0.223,0.078,0.44,0.112,0.668,0.166c0.257,0.062,0.456,0.137,0.714,0.04
								c0.138-0.052,0.225-0.25,0.188-0.39c-0.087-0.324-0.384-0.477-0.69-0.563c-0.333-0.093-0.612-0.08-0.929,0.058
								C77.208,13.701,77.271,14.155,77.563,14.257z"/>
							<g>
								<g>
									<path fill="#263238" d="M77.938,17.043c0.005-0.026-0.061,0.01-0.07,0.037c-0.225,0.641-0.59,1.335-1.244,1.324
										c-0.021-0.001-0.031,0.032-0.008,0.037C77.353,18.614,77.829,17.685,77.938,17.043z"/>
									<path fill="#263238" d="M77.63,16.163c-0.987-0.471-1.858,1.539-0.943,1.976C77.587,18.568,78.458,16.558,77.63,16.163z"/>
								</g>
								<path fill="#263238" d="M77.189,16.098c-0.225,0.038-0.483,0.164-0.705,0.094c-0.255-0.082-0.349-0.373-0.421-0.645
									c-0.007-0.028-0.033-0.018-0.045,0.009c-0.172,0.382-0.195,0.842,0.193,1.078c0.354,0.216,0.772-0.009,1.037-0.354
									C77.297,16.216,77.281,16.083,77.189,16.098z"/>
							</g>
							<g>
								<g>
									<path fill="#263238" d="M81.507,18.679c0.016-0.021,0.035,0.051,0.023,0.076c-0.299,0.608-0.539,1.357-0.073,1.816
										c0.015,0.014-0.001,0.044-0.021,0.032C80.798,20.198,81.126,19.208,81.507,18.679z"/>
									<path fill="#263238" d="M82.352,18.283c1.029,0.375,0.204,2.404-0.749,2.057C80.666,19.998,81.49,17.968,82.352,18.283z"/>
								</g>
								<path fill="#263238" d="M82.707,18.552c0.13,0.188,0.222,0.46,0.427,0.568c0.238,0.125,0.511-0.012,0.755-0.151
									c0.025-0.014,0.037,0.011,0.025,0.038c-0.152,0.391-0.464,0.729-0.904,0.618c-0.402-0.102-0.535-0.557-0.473-0.988
									C82.548,18.558,82.654,18.477,82.707,18.552z"/>
							</g>
							<path fill="#263238" d="M75.715,21.722c0.054,0.221,0.073,0.493,0.271,0.642c0.19,0.142,0.48,0.2,0.708,0.244
								c0.023,0.004,0.029,0.036,0.007,0.045c-0.288,0.127-0.689,0.067-0.925-0.147c-0.231-0.208-0.219-0.514-0.132-0.792
								C75.656,21.674,75.708,21.69,75.715,21.722z"/>
							<g>
								<path fill="#263238" d="M79.203,20.94c0,0-0.368,0.955-0.598,1.374c-0.022,0.04-0.134,0.002-0.28-0.068
									c-0.008-0.001-0.014,0-0.017-0.008c-0.803-0.293-1.406-0.959-1.522-1.811c-0.006-0.057,0.071-0.071,0.094-0.023
									c0.328,0.709,0.88,1.15,1.529,1.523c0.093-0.099,0.575-1.657,0.644-1.625c0.24,0.107,0.605,0.511,0.832,0.74
									c0.823-1.966,1.323-4.049,2.172-5.996c0.032-0.069,0.138-0.036,0.125,0.034c-0.371,2.22-1.268,4.504-2.066,6.557
									C80.019,21.895,79.332,21.104,79.203,20.94z"/>
							</g>
						</g>
						<g>
							<g>
								<path fill="#263238" d="M67.852,14.432c1.59,1.036,3.906-2.634,3.906-2.634s7.81,2.276,11.271-3.303
									c0,0-0.58,4.345,2.378,7.874c0,0,2.872-6.565-1.628-10.292c0,0-5.22-5.38-11.221-2.079
									C66.556,7.298,66.785,13.737,67.852,14.432z"/>
							</g>
							<path fill="#263238" d="M83.265,8.073c-0.337,0.942-0.915,1.8-1.622,2.526c-0.708,0.727-1.563,1.33-2.513,1.712
								c-0.229,0.114-0.483,0.166-0.724,0.251l-0.364,0.116c-0.125,0.028-0.25,0.05-0.376,0.072
								c-0.25,0.042-0.501,0.094-0.753,0.126c-0.254,0.016-0.507,0.025-0.76,0.032c-0.126,0.003-0.253,0.012-0.379,0.009
								l-0.378-0.031l-0.752-0.063c-0.495-0.09-0.984-0.206-1.466-0.327c0.502,0.02,0.993,0.09,1.485,0.104l0.739-0.001h0.368
								c0.122-0.008,0.243-0.027,0.365-0.041c0.243-0.029,0.485-0.057,0.727-0.079c0.24-0.041,0.476-0.101,0.713-0.151l0.356-0.076
								l0.344-0.115c0.226-0.085,0.466-0.135,0.681-0.246c0.904-0.352,1.713-0.908,2.447-1.544c0.366-0.322,0.702-0.679,1.013-1.06
								C82.734,8.912,83.013,8.504,83.265,8.073z"/>
						</g>
						<g>
							<g>
								<path fill="#F7A9A0" d="M69.159,15.032c0,0-0.842-3.701-2.442-3.514c-1.599,0.187-1.783,4.979-0.48,6.174
									c1.302,1.195,2.433,0.012,2.433,0.012L69.159,15.032z"/>
								<path fill="#263238" d="M66.699,12.893c-0.024-0.012-0.042,0.021-0.025,0.038c0.898,0.874,1.059,2.102,1.036,3.297
									c-0.159-0.528-0.505-0.923-1.194-0.76c-0.035,0.009-0.027,0.063,0.006,0.07c0.479,0.084,0.766,0.29,0.921,0.764
									c0.108,0.336,0.124,0.71,0.157,1.061c0.012,0.117,0.206,0.136,0.215,0.009c0-0.008,0-0.019,0.001-0.028
									C68.401,15.984,68.116,13.631,66.699,12.893z"/>
							</g>
						</g>
					</g>
				</g>
			</g>
		</g>
	</g>
</g>
</svg>
