<?xml version="1.0" encoding="iso-8859-1"?>
<!-- Generator: Adobe Illustrator 16.0.0, SVG Export Plug-In . SVG Version: 6.00 Build 0)  -->
<!DOCTYPE svg PUBLIC "-//W3C//DTD SVG 1.1//EN" "http://www.w3.org/Graphics/SVG/1.1/DTD/svg11.dtd">
<svg version="1.1" id="Layer_1" xmlns="http://www.w3.org/2000/svg" xmlns:xlink="http://www.w3.org/1999/xlink" x="0px" y="0px"
	 width="640px" height="300px" viewBox="0 0 640 300" style="enable-background:new 0 0 640 300;" xml:space="preserve">
<g>
	<path style="fill:#D0EBE6;" d="M639.921,300H0.452c-0.919,0-1.665-0.745-1.665-1.665c0-0.921,0.746-1.665,1.665-1.665h639.469
		c0.921,0,1.665,0.744,1.665,1.665C641.586,299.255,640.842,300,639.921,300z"/>
</g>
<g>
	<g>
		<g>
			<path style="fill:#EDDFEE;" d="M503.174,266.59c-73.504,0-133.295-59.809-133.295-133.333C369.879,59.791,429.67,0,503.174,0
				c73.505,0,133.295,59.791,133.295,133.256C636.469,206.781,576.679,266.59,503.174,266.59z M503.174,19.24
				c-62.905,0-114.075,51.148-114.075,114.016c0,62.925,51.17,114.113,114.075,114.113s114.056-51.188,114.056-114.113
				C617.229,70.389,566.079,19.24,503.174,19.24z"/>
		</g>
	</g>
	<g>
		<g>
			<path style="fill-rule:evenodd;clip-rule:evenodd;fill:#B9CEEB;" d="M562.338,150.597c1.843-5.107,3.021-10.352,3.761-15.689
				c1.785-12.269-1.653-23.303-8.071-33.635c-2.925-4.616-5.89-9.231-7.523-14.529c-3.493-11.722,3.421-21.976,15.614-22.736
				C524.94,25.167,455.272,33.542,425.205,81.597c1.161,0.435,2.376,0.378,3.63,0.378c8.698,0,17.358-0.531,26.02-1.083
				c3.152-0.245,4.939,1.083,5.053,3.572c0.114,2.239-1.52,3.666-4.539,4.008c-2.185,0.17-4.313,0.417-6.497,0.55
				c-3.285,0.245-3.305,0.151-2.241,3.286c9.973,29.725,19.963,59.468,29.972,89.155c1.007,2.98,2.052,5.906,3.133,9.002
				c0.419-0.475,0.572-0.625,0.646-0.74c6.534-19.678,13.088-39.335,19.639-58.994c0.306-0.911,0.343-1.748,0-2.678
				c-4.557-12.401-9.039-24.787-13.521-37.226c-0.455-1.234-1.141-1.728-2.432-1.805c-2.659-0.114-5.3-0.343-7.901-0.627
				c-2.924-0.38-4.35-2.793-3.306-5.299c0.969-2.318,2.926-2.355,4.979-2.204c9.988,0.59,19.962,1.405,29.989,0.856
				c5.927-0.304,11.871-0.646,17.797-0.893c2.829-0.172,4.463,1.121,4.651,3.399c0.21,2.222-1.441,3.836-4.081,4.179
				c-2.261,0.209-4.521,0.456-6.8,0.589c-3.437,0.245-3.458,0.151-2.393,3.342c8.699,25.887,17.435,51.795,26.153,77.683
				c2.222,6.572,4.387,13.105,6.798,20.133c0.4-1.234,0.665-1.957,0.896-2.658C554.646,175.156,557.988,162.734,562.338,150.597z"/>
		</g>
		<g>
			<path style="fill-rule:evenodd;clip-rule:evenodd;fill:#B9CEEB;" d="M513.354,164.539c-2.734-7.502-5.509-15.023-8.546-23.324
				c-9.384,27.258-18.5,53.732-27.655,80.209c-0.531,1.539-0.074,2.014,1.406,2.432c18.082,4.691,36.01,4.369,53.827-1.389
				c1.443-0.473,1.861-0.834,1.271-2.43C526.841,201.557,520.115,183.057,513.354,164.539z"/>
		</g>
		<g>
			<path style="fill-rule:evenodd;clip-rule:evenodd;fill:#B9CEEB;" d="M462.339,217.588
				c-14.892-40.816-29.707-81.369-44.673-122.451C397.553,138.329,414.779,194.947,462.339,217.588z"/>
		</g>
		<g>
			<path style="fill-rule:evenodd;clip-rule:evenodd;fill:#B9CEEB;" d="M596.812,127.787c-0.646-13.256-4.103-25.832-10.333-37.606
				c-1.348,0.247-0.684,1.063-0.607,1.767c0.721,11.965-1.215,23.475-5.166,34.738c-8.605,24.559-17.133,49.078-25.68,73.637
				c-1.595,4.502-3.076,9.08-4.823,14.113c7.749-4.463,14.243-9.479,19.942-15.443C589.139,179.107,598.161,155.346,596.812,127.787
				z"/>
		</g>
	</g>
</g>
<g>
	<path style="fill:#B9CEEB;" d="M364.486,104.509h-24.918l-13.211,19.659h-7.337c-0.78,0-1.545,0.175-1.694,0.399
		c-0.083,0.133,0.049,0.249,0.332,0.324c0.556,0.158,0.822,0.391,0.64,0.656c-0.315,0.466-1.902,0.848-3.54,0.848
		c-1.637,0-2.708-0.382-2.394-0.848c0.184-0.266,0.766-0.498,1.529-0.656c0.399-0.075,0.689-0.191,0.773-0.324
		c0.149-0.225-0.357-0.399-1.146-0.399h-7.445l-1.445,2.119c-0.149,0.225-0.914,0.408-1.695,0.408c-0.44,0-0.806-0.058-1.021-0.158
		c-0.416-0.191-1.164-0.308-2.086-0.308c-1.637,0-3.224,0.382-3.548,0.847c-0.315,0.466,0.756,0.848,2.401,0.848
		c0.923,0,1.828-0.125,2.501-0.316c0.349-0.091,0.798-0.15,1.238-0.15c0.781,0,1.296,0.175,1.146,0.399l-1.446,2.127h7.445
		c0.789,0,1.546-0.183,1.703-0.407c0.083-0.124-0.05-0.24-0.34-0.316c-0.557-0.157-0.815-0.39-0.641-0.656
		c0.315-0.473,1.902-0.847,3.548-0.847c1.637,0,2.709,0.375,2.393,0.847c-0.183,0.266-0.764,0.499-1.536,0.656
		c-0.391,0.076-0.682,0.192-0.773,0.316c-0.149,0.225,0.366,0.407,1.146,0.407h7.378l-41.228,61.329h-18.57
		c-2.186,0-3.357-1.03-2.626-2.311c0.391-0.706,1.32-1.362,2.483-1.82c2.236-0.88,4.006-2.226,4.687-3.721
		c1.13-2.668-1.404-4.819-5.559-4.819c-4.146,0-8.6,2.151-10.037,4.819c-0.856,1.495-0.515,2.841,0.749,3.721
		c0.656,0.458,0.83,1.114,0.397,1.82c-0.789,1.28-3.223,2.311-5.408,2.311h-20.706l-11.018,12.072
		c-1.296,1.271-0.407,2.31,2.002,2.31c1.346,0,2.925-0.349,4.32-0.897c2.692-1.079,5.833-1.762,8.616-1.762
		c4.944,0,7.096,2.152,4.704,4.811c-2.493,2.66-8.85,4.813-14.109,4.813c-2.958,0-4.87-0.682-5.442-1.763
		c-0.291-0.548-1.205-0.896-2.592-0.896c-2.476,0-5.634,1.038-7.071,2.31l-14.864,12.073h25.558c2.701,0,3.689,1.03,2.193,2.31
		c-0.847,0.714-2.376,1.371-4.113,1.819c-3.431,0.881-6.63,2.227-8.558,3.723c-3.514,2.668-1.545,4.819,4.487,4.819
		c6.041,0,13.602-2.151,16.809-4.819c1.753-1.496,1.803-2.842,0.474-3.723c-0.673-0.448-0.664-1.105,0.149-1.819
		c1.43-1.279,4.753-2.31,7.453-2.31h23.356l-37.963,56.476h-31.433c-2.934,0-4.62-0.772-4.62-1.902c0-0.466,0.291-0.998,0.897-1.555
		c1.146-1.063,3.282-2.044,5.75-2.717c4.786-1.32,8.974-3.332,11.192-5.567c3.822-3.979,0.274-7.203-7.802-7.203
		c-8.068,0-17.964,3.224-22.218,7.203c-2.451,2.235-2.518,4.247-0.565,5.567c0.482,0.324,0.732,0.714,0.732,1.154
		c0,0.474-0.3,1.006-0.923,1.563c-2.168,1.912-7.303,3.457-11.441,3.457H121.36l-23.09,16.543H0l163.586-106.188h20.224
		c2.601,0,3.39,0.83,1.745,1.852c-0.922,0.574-2.492,1.098-4.229,1.464c-3.415,0.705-6.664,1.785-8.716,2.99
		c-3.698,2.136-2.102,3.864,3.623,3.864c5.725,0,13.228-1.729,16.701-3.864c1.919-1.205,2.185-2.285,1.064-2.99
		c-0.574-0.366-0.449-0.89,0.448-1.464c1.587-1.021,4.977-1.852,7.578-1.852h24.636l12.571-9.688
		c1.238-1.022,0.25-1.854-2.186-1.854c-1.361,0-2.957,0.274-4.37,0.715c-2.792,0.864-6.09,1.421-8.99,1.421
		c-5.16,0-6.996-1.736-4.179-3.863c2.742-2.135,8.899-3.863,13.827-3.863c2.774,0,4.619,0.548,5.25,1.412
		c0.324,0.439,1.238,0.714,2.567,0.714c2.393,0,5.26-0.822,6.398-1.853l9.954-9.688H236.43c-2.219,0-3.107-0.832-1.994-1.854
		c0.614-0.573,1.761-1.097,3.091-1.462c2.567-0.707,4.819-1.787,6.007-2.991c2.053-2.136,0.149-3.864-4.188-3.864
		s-9.647,1.729-11.932,3.864c-1.32,1.204-1.354,2.284-0.307,2.991c0.541,0.365,0.541,0.889-0.108,1.462
		c-1.155,1.021-3.913,1.854-6.14,1.854h-16.377l92.678-60.158h-24.91l64.245-15.014L364.486,104.509z"/>
	<path style="fill:#FFC829;" d="M204.881,177.944c-3,2.127-9.663,3.863-14.814,3.863c-2.9,0-4.662-0.557-5.035-1.421
		c-0.2-0.44-1.03-0.715-2.393-0.715c-0.449,0-0.914,0.033-1.396,0.083l5.559-3.614c0.299,0.043,0.648,0.066,1.039,0.066
		c1.337,0,2.966-0.274,4.454-0.714c2.883-0.864,6.148-1.412,8.916-1.412C206.136,174.081,207.806,175.81,204.881,177.944z"/>
	<path style="fill:#FFC829;" d="M271.551,205.688l-2.908,4.321c-0.082,0-0.175-0.009-0.258-0.009c-1.387,0-2.924,0.349-4.221,0.896
		c-2.567,1.081-5.774,1.763-8.731,1.763c-5.26,0-7.611-2.152-5.368-4.813c2.135-2.658,7.794-4.811,12.737-4.811
		c2.784,0,4.827,0.683,5.759,1.762c0.474,0.549,1.486,0.897,2.833,0.897C271.443,205.695,271.494,205.688,271.551,205.688z"/>
	<polygon style="fill:#FFFFFF;" points="221.015,280.858 221.013,280.858 213.507,292.022 	"/>
</g>
<g>
	<g>
		<g>
			<g>
				<g>
					<g>
						<path style="fill:#EB9482;" d="M323.061,297.457c-2.364-0.717-0.475-7.533,2.072-9.695c0.811-0.685,3.84-2.336,7.641-4.302
							c8.369-4.318,20.41-10.112,20.41-10.112l-11.631-43.728l42.352-0.959c0,0,12.727,41.02,12.729,43.592
							c0,0.158,0.002,0.317,0.002,0.476c-0.033,11.679-0.344,21.246-1.287,21.873C392.828,296.299,325.439,298.18,323.061,297.457z"
							/>
						<path style="fill:#EBEBEB;" d="M323.059,297.454c2.381,0.727,69.771-1.152,72.291-2.854c0.941-0.627,1.252-10.19,1.287-21.871
							c-0.004-0.157-0.002-0.322-0.006-0.479c0-0.55-0.58-2.858-1.496-6.144l-43.549,1.223l1.6,6.021
							c0,0-12.045,5.795-20.414,10.106c-3.801,1.967-6.828,3.618-7.639,4.306C322.582,289.922,320.7,296.74,323.059,297.454z"/>
						<g>
							<path style="fill:#FFC829;" d="M322.313,297.855c2.42,0.737,71.035-1.269,73.596-3.006c0.986-0.644,1.277-10.658,1.279-22.77
								c0-0.127-0.002-0.253-0.002-0.38l-44.283,0.801l0.039,0.75c0,0-25.92,12.516-28.537,14.723
								C321.809,290.172,319.891,297.128,322.313,297.855z"/>
							<g>
								<g>
									<path style="fill:#263238;" d="M323.012,295.172c11.557-0.622,58.234-2.041,69.707-1.778
										c0.092,0.003,0.094,0.065,0.002,0.073c-11.443,0.867-58.129,1.907-69.705,1.895
										C322.771,295.361,322.768,295.186,323.012,295.172z"/>
									<path style="fill:#263238;" d="M347.979,272.771c4.527-0.982,10.115-0.446,13.688,2.695
										c0.139,0.121-0.037,0.315-0.186,0.274c-4.531-1.284-8.752-2.07-13.467-2.395
										C347.682,273.322,347.654,272.841,347.979,272.771z"/>
									<path style="fill:#263238;" d="M344.752,274.847c4.527-0.982,10.113-0.446,13.686,2.694
										c0.139,0.122-0.035,0.317-0.184,0.274c-4.533-1.284-8.752-2.069-13.467-2.395
										C344.455,275.398,344.428,274.917,344.752,274.847z"/>
									<path style="fill:#263238;" d="M341.523,276.923c4.527-0.982,10.115-0.446,13.688,2.694
										c0.139,0.122-0.037,0.316-0.186,0.274c-4.531-1.284-8.752-2.07-13.467-2.395
										C341.227,277.475,341.201,276.993,341.523,276.923z"/>
									<g>
										<path style="fill:#263238;" d="M344,269.439c3.291,2.409,7.512,3.309,11.311,4.591c0.395,0.133,0.695-0.242,0.697-0.59
											c0.074-0.016,0.137-0.074,0.104-0.167c-1.352-3.766-4.162-7.726-7.314-10.221c-1.947-1.541-5.311-2.552-7.027-0.036
											C340.146,265.396,342.078,268.032,344,269.439z M342.734,265.811c-0.949-4.97,4.49-2.505,5.879-1.312
											c0.893,0.766,1.709,1.655,2.488,2.535c1.633,1.845,2.971,3.886,4.404,5.876c-1.828-0.745-3.703-1.325-5.557-2.001
											C347.74,270.104,343.256,268.551,342.734,265.811z"/>
										<path style="fill:#263238;" d="M371.104,265.894c-1.184-2.806-4.68-2.482-6.895-1.357
											c-3.584,1.82-7.125,5.145-9.195,8.567c-0.051,0.085-0.004,0.154,0.066,0.185c-0.064,0.34,0.154,0.769,0.566,0.716
											c3.979-0.503,8.293-0.548,11.998-2.257C369.807,270.75,372.223,268.548,371.104,265.894z M361.521,272.008
											c-1.949,0.295-3.902,0.492-5.842,0.859c1.799-1.666,3.516-3.401,5.48-4.886c0.938-0.708,1.914-1.418,2.941-1.992
											c1.6-0.894,7.418-2.231,5.502,2.452C368.549,271.023,363.846,271.656,361.521,272.008z"/>
									</g>
								</g>
							</g>
						</g>
					</g>
					<g>
						<path style="fill:#263238;" d="M443.566,199.355c0,0,8.363,27.265-4.658,35.77c-8.695,5.679-48.004-0.732-49.803-5.518
							c-3.398-9.041-3.498-12.387-3.498-12.387l11.398,48.12l-49.236,1.962c0,0-10.369-39.784-9.188-82.352
							c0.436-15.738,21.426-21.086,36.34-13.683c14.459,7.179,40.564,27.5,40.564,27.5L443.566,199.355z"/>
						<g>
							<path style="fill:#37474F;" d="M392.053,237.094c-2.836-6.421-2.699-8.978-9.895-28.952c-0.963-2.67-1.781-5.39-2.648-8.092
								c-0.902-2.801-1.953-5.587-2.654-8.446c-0.035-0.139-0.26-0.074-0.215,0.062c0.836,2.471,1.404,5.03,2.133,7.533
								c0.715,2.451,1.441,4.898,2.199,7.336c0.328,1.053,0.67,2.102,1.002,3.152c-0.139-0.217-0.279-0.431-0.41-0.643
								c-0.607-0.979-1.217-1.952-1.846-2.916c-1.299-1.983-2.857-3.839-4.004-5.915c-0.07-0.125-0.271-0.005-0.191,0.114
								c1.309,1.979,2.262,4.19,3.492,6.221c0.598,0.985,1.221,1.949,1.859,2.908c0.563,0.847,1.131,1.811,1.842,2.564
								c0.992,3.088,3.145,10.53,4.199,13.597c3.32,9.662,2.232,6.518,4.65,11.687C391.693,237.574,392.176,237.371,392.053,237.094
								z"/>
							<path style="fill:#37474F;" d="M370.191,258.09c7.412-0.286,14.803-0.914,22.211-1.265c0.141-0.006,0.154-0.225,0.01-0.222
								c-7.389,0.165-14.777,0.084-22.166,0.379c-7.414,0.297-14.799,0.87-22.203,1.327c-0.189,0.012-0.213,0.305-0.016,0.3
								C355.416,258.418,362.803,258.375,370.191,258.09z"/>
							<path style="fill:#37474F;" d="M388.293,255.103c-0.77-3.254-1.807-6.446-2.762-9.649c-0.957-3.207-1.914-6.413-2.898-9.612
								c-1.967-6.4-4.008-12.776-6.045-19.154c-1.156-3.621-2.396-7.221-3.617-10.82c-0.035-0.103-0.193-0.062-0.164,0.045
								c3.668,12.875,7.596,25.677,11.738,38.408c1.174,3.611,2.254,7.275,3.635,10.814
								C388.207,255.204,388.313,255.179,388.293,255.103z"/>
						</g>
						<path style="opacity:0.1;fill:#030405;" d="M438.91,235.122c13.021-8.504,4.66-35.768,4.66-35.768l-23.666-0.491
							l-31.379,29.177c0.184,0.502,0.373,1.025,0.58,1.569C390.902,234.392,430.213,240.806,438.91,235.122z"/>
						<path style="opacity:0.1;fill:#030405;" d="M347.492,266.196c0.176,0.728,0.277,1.105,0.277,1.105l49.236-1.961l-8.77-37.032
							L347.492,266.196z"/>
					</g>
				</g>
			</g>
			<g>
				<g>
					<path style="fill:#EB9482;" d="M547.297,298.204c0.512,2.416-6.373,4.044-9.494,2.853c-0.99-0.38-3.896-2.239-7.449-4.623
						c-7.816-5.254-18.693-13.018-18.693-13.018l-36.129,3.205l-21.24-36.654c0,0,33.23-2.858,35.482-4.1
						c0.141-0.077,0.279-0.154,0.418-0.232c10.25-5.594,18.783-9.932,19.787-9.406C512.682,237.62,546.785,295.771,547.297,298.204z
						"/>
					<path style="fill:#EBEBEB;" d="M483.449,247.003l20.098,37.136l8.115-0.723c0,0,10.879,7.759,18.695,13.017
						c3.553,2.38,6.449,4.24,7.445,4.624c3.121,1.196,10.006-0.439,9.496-2.854c-0.514-2.434-34.617-60.581-37.32-61.975
						c-0.998-0.521-9.541,3.813-19.787,9.409c-0.145,0.072-0.277,0.154-0.414,0.226C489.221,246.17,486.799,246.573,483.449,247.003
						z"/>
					<g>
						<path style="fill:#FFC829;" d="M548.008,298.668c-0.52-2.477-35.326-61.643-38.082-63.051
							c-1.037-0.554-9.955,4.016-20.57,9.846c-0.111,0.063-0.221,0.124-0.33,0.187l22.027,38.421l0.641-0.396
							c0,0,23.451,16.688,26.646,17.919C541.516,302.811,548.535,301.14,548.008,298.668z"/>
						<g>
							<g>
								<path style="fill:#263238;" d="M545.318,299.349c-6.111-9.83-29.836-50.053-35.131-60.233
									c-0.043-0.083,0.012-0.115,0.063-0.037c6.271,9.61,29.668,50.024,35.232,60.175
									C545.6,299.467,545.447,299.556,545.318,299.349z"/>
								<path style="fill:#263238;" d="M513.662,288.256c-3.041-3.494-5.264-8.648-4.23-13.293c0.039-0.18,0.295-0.12,0.33,0.031
									c1.057,4.59,2.4,8.666,4.387,12.954C514.289,288.25,513.879,288.506,513.662,288.256z"/>
								<path style="fill:#263238;" d="M517.035,290.084c-3.041-3.493-5.262-8.647-4.23-13.292c0.041-0.18,0.295-0.12,0.33,0.03
									c1.057,4.59,2.4,8.667,4.387,12.955C517.662,290.079,517.254,290.335,517.035,290.084z"/>
								<path style="fill:#263238;" d="M520.41,291.913c-3.043-3.494-5.264-8.648-4.23-13.293c0.039-0.18,0.295-0.12,0.328,0.03
									c1.059,4.591,2.402,8.667,4.389,12.955C521.037,291.908,520.627,292.163,520.41,291.913z"/>
								<g>
									<path style="fill:#263238;" d="M512.658,293.349c0.527-4.047-0.719-8.179-1.424-12.125
										c-0.074-0.409-0.547-0.491-0.852-0.327c-0.051-0.058-0.131-0.083-0.197-0.01c-2.648,2.998-4.766,7.369-5.434,11.334
										c-0.414,2.448,0.32,5.882,3.352,6.175C510.971,298.672,512.352,295.71,512.658,293.349z M510.088,296.205
										c-3.898,3.225-4.357-2.729-3.98-4.521c0.24-1.152,0.627-2.296,1.023-3.402c0.83-2.318,1.975-4.475,3.027-6.688
										c0.229,1.96,0.623,3.883,0.924,5.832C511.439,289.75,512.238,294.427,510.088,296.205z"/>
									<path style="fill:#263238;" d="M496.498,271.303c-1.889,2.389,0.078,5.297,2.131,6.695
										c3.32,2.265,7.939,3.767,11.938,3.933c0.098,0.004,0.135-0.071,0.129-0.147c0.328-0.106,0.598-0.505,0.354-0.841
										c-2.357-3.244-4.475-7.004-7.756-9.428C501.377,270.1,498.285,269.043,496.498,271.303z M506.471,276.755
										c1.197,1.567,2.311,3.184,3.566,4.706c-2.326-0.773-4.674-1.442-6.922-2.45c-1.072-0.48-2.164-0.995-3.162-1.618
										c-1.553-0.971-5.527-5.426-0.5-6.003C502.225,271.07,505.043,274.888,506.471,276.755z"/>
								</g>
							</g>
						</g>
					</g>
				</g>
				<g>
					<path style="fill:#263238;" d="M412.219,193.506c0,0-0.934,11.462-0.574,20.204c0,0-46.096,25.833-47.576,49.199
						c-0.525,8.277,1.012,23.712,17.395,30.306c18.309,7.368,118.107-0.862,118.107-0.862l-13.779-45.668l-44.082,1.256
						c0,0,31.246,4.074,34.043-16.75c2.6-19.354-9.801-39.194-9.801-39.194L412.219,193.506z"/>
					<g>
						<path style="fill:#37474F;" d="M489.186,290.39c-1.252-5.271-2.467-10.569-3.846-15.808c-1.381-5.252-2.84-10.48-4.379-15.683
							c-0.434-1.47-0.881-2.934-1.322-4.4c-0.211-0.7-0.422-1.397-0.646-2.092c-0.229-0.699-0.408-1.429-0.703-2.097
							c-0.033-0.075-0.117-0.029-0.107,0.042c0.164,1.346,0.582,2.73,0.906,4.047c0.314,1.271,0.617,2.546,0.934,3.817
							c0.65,2.614,1.311,5.225,1.986,7.831c1.357,5.226,2.844,10.401,4.357,15.578c0.859,2.939,1.723,5.88,2.594,8.814
							C489.008,290.606,489.227,290.564,489.186,290.39z"/>
						<path style="fill:#37474F;" d="M456.928,247.507c-3.578-0.155-7.16-0.171-10.742-0.142c-3.582,0.028-7.16,0.167-10.74,0.33
							c-3.576,0.217-7.152,0.458-10.713,0.879c-3.559,0.426-7.121,0.922-10.59,1.833l2.65-0.419l2.662-0.329
							c1.773-0.202,3.551-0.399,5.332-0.528c3.561-0.305,7.127-0.551,10.697-0.711c3.568-0.223,7.143-0.351,10.715-0.498
							L456.928,247.507z"/>
						<path style="fill:#37474F;" d="M456.264,196.046c1.717,4.056,3.217,8.199,4.508,12.402c1.279,4.204,2.33,8.487,2.91,12.828
							c0.281,2.169,0.432,4.358,0.322,6.53c-0.115,2.161-0.482,4.338-1.414,6.254c-0.455,0.96-1.086,1.821-1.838,2.546
							c-0.779,0.727-1.652,1.357-2.57,1.915c-1.854,1.1-3.877,1.919-5.947,2.588c-4.156,1.319-8.494,2.064-12.834,2.703
							c-4.348,0.628-8.723,1.107-13.098,1.678c-4.371,0.571-8.756,1.222-13.053,2.406c-2.133,0.597-4.287,1.347-6.234,2.5
							c-1.945,1.141-3.723,2.484-5.371,4.036l-0.965,0.91l1.336-0.056l35.633-1.482l17.82-0.644
							c5.939-0.19,11.881-0.368,17.826-0.375c-5.943-0.18-11.891-0.104-17.836-0.044c-5.945,0.068-11.891,0.217-17.834,0.366
							l-17.828,0.514l-17.824,0.668l0.371,0.854c1.563-1.461,3.324-2.785,5.184-3.862c1.854-1.09,3.9-1.793,6.004-2.372
							c4.207-1.136,8.563-1.759,12.912-2.365c4.357-0.589,8.736-1.09,13.104-1.742c4.361-0.664,8.734-1.434,12.977-2.802
							c2.113-0.69,4.197-1.546,6.115-2.731c0.953-0.599,1.865-1.276,2.686-2.064c0.822-0.812,1.496-1.77,1.971-2.806
							c0.971-2.074,1.311-4.341,1.4-6.563c0.08-2.23-0.104-4.451-0.418-6.643c-0.631-4.387-1.811-8.66-3.18-12.85
							C459.711,204.158,458.113,200.044,456.264,196.046z"/>
						<path style="fill:#37474F;" d="M417.301,192.88c-0.004-0.099-0.166-0.104-0.174-0.005c-0.141,1.6-0.441,10.718-0.621,14.156
							c-0.064,1.225,0.063,3.401-1.719,3.449c-1.41,0.038-2.154-1.479-2.344-2.67c-0.232-1.451,0.252-12.04,0.332-15.563
							c0.004-0.101-0.158-0.101-0.174-0.005c-0.549,3.542-1.49,14.785-1.074,16.347c0.328,1.224,0.994,2.375,2.26,2.755
							c0.025,0.008-0.156,1.652,0.176,4.152c0.016,0.114,0.373,0.135,0.398,0.042l0.008,0.002c-0.084-0.821,0.262-4.026,0.25-4.044
							c0.924-0.027,1.643-0.255,2.238-1.098C418.049,208.715,417.447,196.934,417.301,192.88z"/>
						<path style="fill:#37474F;" d="M423.115,219.735c-1.301-0.843-2.643-1.606-3.992-2.355c-1.348-0.755-2.723-1.454-4.102-2.144
							c-1.389-0.674-2.781-1.342-4.205-1.941c-1.422-0.605-2.854-1.19-4.328-1.664c0.674,0.385,1.363,0.728,2.037,1.104l2.053,1.066
							c1.363,0.716,2.742,1.399,4.121,2.087c1.387,0.672,2.768,1.354,4.172,1.989l2.107,0.958
							C421.691,219.132,422.393,219.453,423.115,219.735z"/>
						<path style="fill:#37474F;" d="M456.113,211.485c-2.482,0.06-10.207,0.73-13.984-2.283
							c-3.055-2.437-4.609-11.007-5.189-13.354c-0.029-0.116-0.197-0.072-0.197,0.037c-0.006,2.651,0.449,5.338,1.223,7.872
							c0.66,2.162,1.535,4.573,3.34,6.052c1.898,1.556,4.432,2.05,6.811,2.276c2.688,0.256,5.355,0.102,8.014-0.336
							C456.293,211.722,456.289,211.48,456.113,211.485z"/>
					</g>
				</g>
			</g>
		</g>
		<g>
			<g>
				<g>
					<path style="fill:#EB9482;" d="M413.381,147.879c-2.795,13.794-4.756,37.612-15.107,44.401
						c-9.846,6.457-38.979-9.166-47.826-14.795c-3.209-2.042,12.262-24.703,15.906-23.409c6.867,2.438,21.852,11.276,23.428,10.366
						c1.637-0.954,5.705-9.065,15.059-24.243C410.512,130.999,416.533,132.327,413.381,147.879z"/>
					<g>
						<g>
							<path style="fill:#EB9482;" d="M353.418,179.025c-3.082-0.845-16.863-5.958-20.379-8.239s-13.16-9.579-11.688-12.449
								c1.475-2.871,4.469-0.96,4.469-0.96s-3.584-3.727-1.838-6.48s6.307,0.372,6.307,0.372s-3.402-4.096-1.463-6.718
								c1.938-2.623,5.996,1.288,5.996,1.288s-3.285-3.6-0.777-5.088c3.014-1.791,8.32,5.529,12.393,7.756
								c0.924,0.506,19.467,8.916,19.467,8.916L353.418,179.025z"/>
							<g>
								<path style="fill:#263238;" d="M334.469,145.511c3.914,5.373,6.557,7.047,12.641,9.464c0.117,0.046,0.074,0.234-0.055,0.196
									c-6.172-1.824-9.789-3.445-12.855-9.484C334.049,145.391,334.281,145.255,334.469,145.511z"/>
								<path style="fill:#263238;" d="M329.986,150.836c4.553,5.227,7.402,7.067,13.588,10.065c0.088,0.043,0.025,0.195-0.068,0.16
									c-6.313-2.435-9.885-4.135-13.748-9.954C329.582,150.844,329.777,150.597,329.986,150.836z"/>
								<path style="fill:#263238;" d="M326.139,157.52c4.775,4.742,7.813,6.896,14.191,9.036c0.15,0.05,0.09,0.274-0.066,0.238
									c-6.715-1.551-10.525-4.209-14.252-9.113C325.756,157.346,325.84,157.222,326.139,157.52z"/>
							</g>
						</g>
						<g>
							<g>
								<path style="fill:#455B65;" d="M298.935,116.555l18.571-3.81c1.961-0.402,3.621,1.229,3.708,3.646l0,0
									c0.049,1.351-0.434,2.703-1.251,3.734c-1.597,2.013-2.561,4.773-2.458,7.613c0.182,5.048,3.643,8.451,7.733,7.613
									c4.088-0.839,7.256-5.603,7.072-10.65c-0.102-2.84-1.25-5.168-2.967-6.5c-0.879-0.683-1.451-1.819-1.5-3.171l0,0
									c-0.088-2.415,1.432-4.699,3.391-5.101l16.469-5.718l2.104,1.908l0.826,22.879c0.086,2.416,1.746,4.048,3.707,3.646l0,0
									c1.098-0.225,2.084-1.082,2.74-2.27c1.285-2.32,3.303-4.044,5.609-4.517c4.096-0.841,7.559,2.563,7.74,7.6
									s-2.986,9.8-7.082,10.641c-2.307,0.473-4.418-0.404-5.85-2.167c-0.732-0.902-1.766-1.345-2.863-1.12l0,0
									c-1.961,0.402-3.479,2.686-3.393,5.101l0.826,22.88l-18.57,3.81c-1.961,0.401-3.621-1.23-3.707-3.646l0,0
									c-0.049-1.352,0.434-2.704,1.25-3.734c1.598-2.013,2.561-4.773,2.459-7.613c-0.184-5.048-3.645-8.451-7.734-7.613
									c-4.088,0.839-7.254,5.603-7.073,10.649c0.103,2.841,1.25,5.168,2.967,6.501c0.879,0.683,1.451,1.819,1.5,3.171l0,0
									c0.088,2.415-1.43,4.698-3.391,5.101l-18.571,3.81l-2.104-1.908l1.277-20.972c-0.087-2.415-1.747-4.047-3.707-3.645l0,0
									c-1.097,0.225-2.084,1.081-2.741,2.27c-1.284,2.32-3.303,4.044-5.607,4.517c-4.098,0.841-7.56-2.563-7.741-7.6
									c-0.183-5.037,2.985-9.801,7.082-10.641c2.306-0.473,4.418,0.404,5.85,2.167c0.732,0.902,1.767,1.345,2.863,1.12l0,0
									c1.96-0.402,3.479-2.687,3.392-5.102L298.935,116.555z"/>
								<path style="opacity:0.1;fill:#040303;" d="M298.935,116.555l18.571-3.81c1.961-0.402,3.621,1.229,3.708,3.646l0,0
									c0.049,1.351-0.434,2.703-1.251,3.734c-1.597,2.013-2.561,4.773-2.458,7.613c0.182,5.048,3.643,8.451,7.733,7.613
									c4.088-0.839,7.256-5.603,7.072-10.65c-0.102-2.84-1.25-5.168-2.967-6.5c-0.879-0.683-1.451-1.819-1.5-3.171l0,0
									c-0.088-2.415,1.432-4.699,3.391-5.101l16.469-5.718l2.104,1.908l0.826,22.879c0.086,2.416,1.746,4.048,3.707,3.646l0,0
									c1.098-0.225,2.084-1.082,2.74-2.27c1.285-2.32,3.303-4.044,5.609-4.517c4.096-0.841,7.559,2.563,7.74,7.6
									s-2.986,9.8-7.082,10.641c-2.307,0.473-4.418-0.404-5.85-2.167c-0.732-0.902-1.766-1.345-2.863-1.12l0,0
									c-1.961,0.402-3.479,2.686-3.393,5.101l0.826,22.88l-18.57,3.81c-1.961,0.401-3.621-1.23-3.707-3.646l0,0
									c-0.049-1.352,0.434-2.704,1.25-3.734c1.598-2.013,2.561-4.773,2.459-7.613c-0.184-5.048-3.645-8.451-7.734-7.613
									c-4.088,0.839-7.254,5.603-7.073,10.649c0.103,2.841,1.25,5.168,2.967,6.501c0.879,0.683,1.451,1.819,1.5,3.171l0,0
									c0.088,2.415-1.43,4.698-3.391,5.101l-18.571,3.81l-2.104-1.908l1.277-20.972c-0.087-2.415-1.747-4.047-3.707-3.645l0,0
									c-1.097,0.225-2.084,1.081-2.741,2.27c-1.284,2.32-3.303,4.044-5.607,4.517c-4.098,0.841-7.56-2.563-7.741-7.6
									c-0.183-5.037,2.985-9.801,7.082-10.641c2.306-0.473,4.418,0.404,5.85,2.167c0.732,0.902,1.767,1.345,2.863,1.12l0,0
									c1.96-0.402,3.479-2.687,3.392-5.102L298.935,116.555z"/>
							</g>
							<path style="fill:#455B65;" d="M296.832,114.646l18.571-3.81c1.961-0.402,3.62,1.229,3.708,3.645l0,0
								c0.049,1.352-0.434,2.704-1.251,3.735c-1.597,2.012-2.561,4.773-2.458,7.613c0.182,5.048,3.644,8.451,7.733,7.612
								c4.088-0.838,7.256-5.602,7.072-10.649c-0.102-2.84-1.25-5.168-2.967-6.501c-0.879-0.682-1.451-1.818-1.5-3.17l0,0
								c-0.088-2.415,1.432-4.699,3.391-5.101l18.572-3.81l0.826,22.879c0.086,2.416,1.746,4.048,3.707,3.646l0,0
								c1.098-0.226,2.084-1.082,2.74-2.27c1.285-2.32,3.303-4.044,5.609-4.518c4.096-0.84,7.559,2.563,7.74,7.601
								c0.182,5.036-2.984,9.8-7.082,10.641c-2.307,0.473-4.418-0.404-5.85-2.167c-0.732-0.903-1.766-1.346-2.863-1.12l0,0
								c-1.961,0.402-3.479,2.686-3.393,5.101l0.826,22.88l-18.57,3.81c-1.961,0.401-3.621-1.23-3.707-3.646l0,0
								c-0.049-1.352,0.434-2.704,1.25-3.734c1.598-2.013,2.561-4.773,2.459-7.614c-0.184-5.047-3.645-8.451-7.734-7.612
								c-4.087,0.839-7.254,5.603-7.073,10.649c0.103,2.841,1.25,5.168,2.968,6.501c0.88,0.683,1.451,1.819,1.5,3.17l0,0
								c0.088,2.416-1.43,4.699-3.391,5.102l-18.571,3.81l-0.826-22.88c-0.087-2.415-1.747-4.047-3.707-3.645l0,0
								c-1.097,0.225-2.084,1.081-2.741,2.27c-1.284,2.319-3.303,4.044-5.607,4.517c-4.098,0.841-7.56-2.563-7.741-7.6
								c-0.182-5.037,2.985-9.801,7.082-10.641c2.306-0.473,4.418,0.403,5.85,2.167c0.732,0.902,1.767,1.345,2.863,1.12l0,0
								c1.96-0.402,3.479-2.687,3.392-5.102L296.832,114.646z"/>
						</g>
						<g>
							<path style="fill:#EB9482;" d="M370.438,156.956c0,0-4.289-7.142-6.867-9.863c-2.576-2.722-15.91-9.33-17.502-6.531
								c-2.053,3.613,4.893,8.945,8.637,11.112c0,0-4.76,8.355-0.602,13.261C358.26,169.84,370.438,156.956,370.438,156.956z"/>
							<path style="fill:#263238;" d="M345.83,141.739c0.504,4.646,5.602,7.175,9.076,9.548c0.264,0.18,0.211,0.456,0.033,0.631
								c-1.76,3.636-3.186,9.276-1.1,12.994c0.061,0.109-0.084,0.211-0.16,0.109c-2.779-3.684-1.832-9.34,0.352-13.198
								c-3.6-2.378-8.602-5.137-8.246-10.081C345.787,141.714,345.826,141.71,345.83,141.739z"/>
						</g>
					</g>
				</g>
				<g>
					<g>
						<path style="fill:#37474F;" d="M373.074,154.522l-13.594,29.616c0,0,31.729,16.439,39.697,10.533
							c9.18-6.803,15.199-31.768,15.467-51.969c0.186-13.978-7.557-10.811-11.93-2.205c-4.555,8.962-13.125,22.677-14.035,22.732
							C387.768,163.287,373.074,154.522,373.074,154.522z"/>
						<path style="fill:#FFFFFF;" d="M379.092,190.106c-0.17-0.221-0.48-0.53-0.83-0.681c-0.701-0.319-1.602-0.13-2.17,0.45
							c-0.352,0.4-0.871,0.561-1.4,0.46c-0.25-0.03-0.5-0.14-0.76-0.35c-0.291-0.17-0.551-0.36-0.852-0.51
							c0.172,0.289,0.4,0.539,0.58,0.81c0.131,0.17,0.311,0.36,0.521,0.49c0.01,0.01,0.02,0.01,0.029,0.02
							c0.09,0.07,0.189,0.12,0.301,0.16c0.1,0.04,0.219,0.08,0.33,0.09c0.01,0,0.01,0,0.02,0c0.65,0.12,1.369-0.13,1.811-0.609
							c0.318-0.36,0.869-0.511,1.389-0.41c0.281,0.05,0.5,0.17,0.76,0.37c0.281,0.189,0.541,0.38,0.852,0.529
							C379.502,190.636,379.301,190.386,379.092,190.106z M375.512,155.977v-0.011c-0.291-0.17-0.561-0.33-0.811-0.47
							c0.279,0.18,0.539,0.37,0.84,0.52C375.531,156.006,375.521,155.986,375.512,155.977z M372.66,155.416
							c0.33-0.29,0.811-0.4,1.271-0.31c0.09,0.02,0.17,0.04,0.25,0.069c-0.701-0.399-1.111-0.649-1.111-0.649L372.66,155.416z
							 M399.65,162.396c-0.189-0.25-0.479-0.551-0.83-0.681c-0.699-0.319-1.619-0.14-2.18,0.44c-0.34,0.39-0.859,0.55-1.389,0.46
							c-0.281-0.05-0.5-0.14-0.762-0.351c-0.289-0.17-0.549-0.359-0.85-0.529c0.17,0.29,0.371,0.54,0.561,0.819
							c0.209,0.261,0.51,0.54,0.869,0.66c0.721,0.3,1.621,0.08,2.141-0.51c0.34-0.36,0.891-0.52,1.4-0.39
							c0.289,0.04,0.51,0.149,0.77,0.359c0.279,0.17,0.541,0.36,0.85,0.54C400.061,162.916,399.83,162.666,399.65,162.396z
							 M391.951,179.426c-0.291-0.72-1.121-1.189-1.891-1.17c-0.49,0.03-0.99-0.25-1.279-0.689c-0.15-0.24-0.211-0.48-0.26-0.811
							c-0.09-0.33-0.141-0.649-0.23-0.96c-0.09,0.32-0.109,0.641-0.16,0.97c-0.061,0.301-0.061,0.74,0.09,1.07
							c0.27,0.72,1.061,1.23,1.85,1.23c0.531-0.03,1.01,0.21,1.32,0.649c0.17,0.24,0.25,0.471,0.301,0.79
							c0.061,0.33,0.109,0.65,0.219,0.98c0.092-0.34,0.121-0.65,0.17-0.99C392.131,180.176,392.102,179.756,391.951,179.426z
							 M363.57,182.276c-0.289-0.721-1.119-1.2-1.889-1.181c-0.25,0.021-0.51-0.04-0.73-0.17l-0.311,0.681
							c0.311,0.199,0.67,0.3,1.041,0.3c0.539-0.03,1.02,0.21,1.32,0.649c0.17,0.24,0.26,0.48,0.309,0.79
							c0.061,0.341,0.111,0.65,0.221,0.98c0.09-0.34,0.119-0.65,0.17-0.99C363.752,183.016,363.711,182.606,363.57,182.276z
							 M408.521,174.566c-0.35,0.38-0.9,0.529-1.41,0.43c-0.26-0.08-0.49-0.19-0.77-0.4c-0.291-0.17-0.541-0.359-0.82-0.529
							c0.16,0.3,0.369,0.54,0.549,0.81c0.191,0.26,0.49,0.561,0.83,0.69c0.721,0.319,1.621,0.14,2.18-0.44
							c0.25-0.26,0.561-0.42,0.91-0.47c0.07-0.23,0.141-0.47,0.201-0.7C409.58,173.886,408.922,174.126,408.521,174.566z
							 M376.111,169.096c-0.311-0.05-0.74-0.06-1.07,0.11c-0.721,0.28-1.24,1.04-1.24,1.85c0.041,0.521-0.209,1.021-0.65,1.32
							c-0.229,0.15-0.469,0.23-0.779,0.28c-0.33,0.09-0.65,0.14-0.98,0.229c0.33,0.08,0.65,0.12,0.99,0.17
							c0.311,0.04,0.74,0.03,1.07-0.13c0.721-0.3,1.189-1.109,1.17-1.89c-0.01-0.5,0.24-1,0.689-1.28
							c0.23-0.149,0.471-0.22,0.811-0.26c0.33-0.07,0.641-0.12,0.971-0.24C376.762,169.196,376.441,169.166,376.111,169.096z
							 M400.57,190.316c-0.299-0.051-0.74-0.04-1.068,0.109c-0.721,0.28-1.25,1.051-1.23,1.851c0.029,0.54-0.23,1.02-0.66,1.33
							c-0.23,0.14-0.471,0.25-0.801,0.29c-0.309,0.08-0.619,0.13-0.959,0.21c0.34,0.09,0.66,0.13,0.969,0.17
							c0.32,0.05,0.75,0.04,1.08-0.13c0.73-0.301,1.201-1.101,1.16-1.87c-0.02-0.511,0.26-0.99,0.721-1.29
							c0.23-0.15,0.459-0.23,0.799-0.28c0.33-0.06,0.641-0.11,0.961-0.22C401.221,190.416,400.91,190.386,400.57,190.316z
							 M405.762,143.166c-0.301-0.05-0.74-0.04-1.07,0.1c-0.721,0.28-1.25,1.061-1.23,1.86c0.029,0.53-0.23,1.01-0.66,1.33
							c-0.23,0.14-0.471,0.24-0.799,0.28c-0.311,0.08-0.621,0.13-0.961,0.22c0.34,0.08,0.66,0.12,0.971,0.17
							c0.318,0.05,0.75,0.04,1.08-0.14c0.729-0.3,1.199-1.09,1.16-1.86c-0.021-0.51,0.26-1,0.719-1.29
							c0.23-0.16,0.461-0.229,0.801-0.28c0.33-0.069,0.639-0.119,0.959-0.22C406.41,143.266,406.102,143.227,405.762,143.166z"/>
					</g>
					<path style="fill:#263238;" d="M367.613,185.552c2.021-4.133,9.676-21.35,11.078-25.182c0.096-0.266-0.049-0.392-0.186-0.129
						c-6.355,12.241-9.277,21.07-11.053,25.226C367.408,185.57,367.563,185.657,367.613,185.552z"/>
					<path style="opacity:0.1;fill:#030405;" d="M414.641,142.706c-0.26,20.2-6.279,45.16-15.459,51.97
						c-1.57,1.16-4.061,1.46-7.051,1.181l17.15-62.49C412.262,132.316,414.752,134.696,414.641,142.706z"/>
				</g>
			</g>
			<g>
				<g>
					<g>
						<path style="fill:#37474F;" d="M474.832,204.322c0.002,0.005-65.506,8.946-65.506,8.951
							c0.402,1.224-7.613-39.354-3.299-74.504c0.895-7.286,12.49-9.407,18.119-6.825
							C448.811,143.261,474.732,203.755,474.832,204.322z"/>
					</g>
				</g>
				<path style="fill:#FFFFFF;" d="M419.381,191.07c0.164,0.295,0.369,0.548,0.555,0.815c0.184,0.254,0.506,0.545,0.863,0.665
					c0.703,0.3,1.631,0.056,2.141-0.511c0.344-0.371,0.898-0.522,1.412-0.421c0.262,0.081,0.477,0.19,0.762,0.381
					c0.283,0.183,0.541,0.38,0.846,0.521c-0.193-0.288-0.391-0.534-0.574-0.788c-0.186-0.254-0.486-0.56-0.832-0.692
					c-0.703-0.335-1.625-0.146-2.182,0.442c-0.344,0.385-0.871,0.557-1.385,0.469c-0.281-0.047-0.521-0.156-0.787-0.346
					C419.922,191.409,419.664,191.226,419.381,191.07z M461.447,193.487c0.166,0.289,0.398,0.541,0.576,0.815
					c0.191,0.247,0.492,0.532,0.85,0.665c0.717,0.294,1.639,0.05,2.16-0.518c0.324-0.363,0.873-0.515,1.393-0.414
					c0.275,0.054,0.496,0.17,0.762,0.374c0.277,0.19,0.541,0.38,0.846,0.528c-0.172-0.288-0.369-0.542-0.582-0.815
					c-0.162-0.227-0.471-0.532-0.83-0.686c-0.697-0.314-1.6-0.125-2.162,0.456c-0.357,0.393-0.871,0.557-1.404,0.456
					c-0.254-0.027-0.496-0.144-0.76-0.354C462.01,193.826,461.746,193.636,461.447,193.487z M441.441,162.93
					c0.17,0.288,0.369,0.542,0.555,0.816c0.211,0.267,0.512,0.537,0.869,0.664c0.719,0.293,1.625,0.077,2.141-0.51
					c0.344-0.364,0.893-0.523,1.406-0.395c0.281,0.047,0.502,0.156,0.768,0.367c0.277,0.17,0.541,0.359,0.848,0.535
					c-0.172-0.295-0.398-0.548-0.582-0.815c-0.186-0.254-0.473-0.56-0.832-0.686c-0.697-0.314-1.619-0.139-2.176,0.437
					c-0.344,0.397-0.857,0.556-1.391,0.468c-0.281-0.053-0.494-0.143-0.76-0.354C442.002,163.289,441.738,163.099,441.441,162.93z
					 M417.201,136.322c0.172,0.295,0.369,0.542,0.563,0.815c0.205,0.274,0.512,0.538,0.871,0.664
					c0.717,0.301,1.617,0.077,2.139-0.51c0.344-0.364,0.893-0.522,1.414-0.395c0.268,0.055,0.488,0.164,0.754,0.375
					c0.283,0.169,0.549,0.359,0.846,0.528c-0.164-0.289-0.391-0.542-0.574-0.815c-0.191-0.254-0.473-0.56-0.83-0.687
					c-0.699-0.314-1.627-0.131-2.184,0.437c-0.344,0.405-0.85,0.556-1.385,0.469c-0.281-0.047-0.502-0.156-0.766-0.354
					C417.771,136.688,417.506,136.498,417.201,136.322z M415.174,156.08c0.279,0.722,1.043,1.239,1.854,1.236
					c0.531-0.035,1.008,0.211,1.32,0.651c0.15,0.234,0.252,0.471,0.303,0.782c0.063,0.333,0.119,0.651,0.225,0.962
					c0.066-0.315,0.098-0.637,0.143-0.972c0.08-0.316,0.047-0.73-0.125-1.061c-0.293-0.728-1.098-1.216-1.867-1.174
					c-0.518,0.015-0.996-0.245-1.287-0.693c-0.137-0.235-0.232-0.464-0.275-0.824c-0.07-0.318-0.121-0.631-0.225-0.962
					c-0.072,0.336-0.105,0.65-0.17,0.973C415.035,155.313,415.027,155.73,415.174,156.08z M444.715,179.26
					c0.271,0.722,1.057,1.231,1.848,1.23c0.537-0.036,1.016,0.21,1.32,0.651c0.17,0.233,0.252,0.47,0.303,0.789
					c0.063,0.332,0.113,0.645,0.225,0.975c0.086-0.336,0.117-0.65,0.17-0.986c0.045-0.321,0.014-0.736-0.133-1.066
					c-0.293-0.721-1.117-1.195-1.887-1.174c-0.496,0.034-0.996-0.252-1.281-0.693c-0.148-0.234-0.217-0.471-0.262-0.804
					c-0.09-0.332-0.141-0.65-0.23-0.962c-0.086,0.316-0.111,0.638-0.164,0.973C444.57,178.487,444.563,178.931,444.715,179.26z
					 M405.521,174.069c0.158,0.295,0.369,0.541,0.547,0.81c0.191,0.253,0.492,0.559,0.83,0.692c0.719,0.313,1.627,0.131,2.184-0.443
					c0.371-0.379,0.871-0.55,1.412-0.469c0.26,0.054,0.502,0.17,0.76,0.354c0.277,0.169,0.541,0.359,0.846,0.528
					c-0.186-0.288-0.391-0.542-0.582-0.815c-0.178-0.268-0.506-0.538-0.863-0.664c-0.703-0.294-1.625-0.05-2.133,0.51
					c-0.352,0.371-0.9,0.522-1.414,0.421c-0.26-0.074-0.482-0.184-0.768-0.394C406.057,174.429,405.799,174.238,405.521,174.069z
					 M425.777,174.891c0.336,0.086,0.658,0.118,0.992,0.17c0.316,0.046,0.738,0.034,1.066-0.132
					c0.723-0.293,1.197-1.104,1.176-1.888c-0.016-0.497,0.244-0.995,0.686-1.28c0.234-0.149,0.471-0.218,0.811-0.262
					c0.332-0.07,0.645-0.113,0.975-0.231c-0.336-0.065-0.65-0.098-0.986-0.163c-0.301-0.053-0.73-0.062-1.066,0.104
					c-0.721,0.279-1.238,1.044-1.236,1.855c0.035,0.517-0.211,1.015-0.652,1.32c-0.234,0.149-0.471,0.23-0.781,0.28
					C426.428,174.75,426.109,174.8,425.777,174.891z M440.227,200.021c0.342,0.086,0.658,0.125,0.973,0.17
					c0.322,0.053,0.75,0.041,1.08-0.132c0.727-0.3,1.195-1.098,1.154-1.866c-0.016-0.511,0.266-0.996,0.721-1.289
					c0.234-0.156,0.463-0.23,0.803-0.281c0.332-0.063,0.645-0.113,0.961-0.218c-0.322-0.072-0.637-0.104-0.973-0.17
					c-0.301-0.054-0.736-0.041-1.066,0.104c-0.723,0.279-1.252,1.051-1.23,1.854c0.029,0.531-0.23,1.016-0.656,1.327
					c-0.236,0.144-0.471,0.245-0.805,0.289C440.877,199.888,440.564,199.937,440.227,200.021z M418.961,211.567
					c0.35,0.071,0.664,0.104,0.98,0.177c0.156,0.022,0.34,0.024,0.523,0.006c0.197-0.026,0.387-0.072,0.555-0.159
					c0.729-0.293,1.197-1.097,1.154-1.873c-0.014-0.504,0.266-0.989,0.721-1.281c0.229-0.143,0.465-0.225,0.797-0.281
					c0.313-0.063,0.645-0.113,0.961-0.218c-0.322-0.073-0.656-0.104-0.971-0.157c-0.303-0.046-0.732-0.055-1.063,0.091
					c-0.727,0.28-1.252,1.045-1.229,1.849c0.029,0.537-0.23,1.022-0.666,1.327c-0.232,0.163-0.463,0.245-0.795,0.302
					C419.617,211.419,419.305,211.462,418.961,211.567z M430.391,151.052c0.322,0.079,0.637,0.104,0.973,0.177
					c0.322,0.046,0.736,0.014,1.066-0.146c0.721-0.279,1.195-1.104,1.174-1.874c-0.014-0.497,0.252-1.002,0.693-1.287
					c0.234-0.144,0.471-0.225,0.805-0.275c0.332-0.077,0.643-0.12,0.982-0.211c-0.344-0.086-0.658-0.118-0.994-0.17
					c-0.301-0.046-0.711-0.056-1.068,0.091c-0.721,0.272-1.23,1.064-1.229,1.849c0.035,0.537-0.211,1.021-0.652,1.327
					c-0.232,0.163-0.469,0.244-0.789,0.302C431.02,150.897,430.707,150.947,430.391,151.052z"/>
			</g>
			<g>
				<g>
					<path style="fill:#EB9482;" d="M433.047,139.657c16.863,19.374,36.891,58.279,32.184,65.797
						c-5.244,8.374-28.494-17.878-28.305-19.365c0.143-1.125-7.219-24.993-12.85-42.369
						C418.453,126.359,428.877,134.866,433.047,139.657z"/>
					<g>
						<g>
							<path style="fill:#37474F;" d="M436.756,186.106c-0.609-2.541-10.688-34.038-13.512-43.976
								c-2.824-9.937,0.545-12.747,9.787-3.229s28.455,39.111,32.369,55.206c3.77,15.506-3.664,16.516-13.559,8.858
								C443.742,196.697,436.756,186.106,436.756,186.106z"/>
							<path style="fill:#FFFFFF;" d="M430.391,151.052c0.322,0.079,0.637,0.104,0.973,0.177c0.322,0.046,0.736,0.014,1.066-0.146
								c0.721-0.279,1.195-1.104,1.174-1.874c-0.014-0.497,0.252-1.002,0.693-1.287c0.234-0.144,0.471-0.225,0.805-0.275
								c0.332-0.077,0.643-0.12,0.982-0.211c-0.344-0.086-0.658-0.118-0.994-0.17c-0.301-0.046-0.711-0.056-1.068,0.091
								c-0.721,0.272-1.23,1.064-1.229,1.849c0.035,0.537-0.211,1.021-0.652,1.327c-0.232,0.163-0.469,0.244-0.789,0.302
								C431.02,150.897,430.707,150.947,430.391,151.052z M444.686,196.208l0.359,0.399c0.299-0.057,0.584-0.105,0.873-0.202
								c-0.322-0.072-0.637-0.104-0.973-0.17C444.863,196.217,444.781,196.212,444.686,196.208z M444.715,179.26
								c0.271,0.722,1.057,1.231,1.848,1.23c0.537-0.036,1.016,0.21,1.32,0.651c0.17,0.233,0.252,0.47,0.303,0.789
								c0.063,0.332,0.113,0.645,0.225,0.975c0.086-0.336,0.117-0.65,0.17-0.986c0.045-0.321,0.014-0.736-0.133-1.066
								c-0.293-0.721-1.117-1.195-1.887-1.174c-0.496,0.034-0.996-0.252-1.281-0.693c-0.148-0.234-0.217-0.471-0.262-0.804
								c-0.09-0.332-0.141-0.65-0.23-0.962c-0.086,0.316-0.111,0.638-0.164,0.973C444.57,178.487,444.563,178.931,444.715,179.26z
								 M422.291,136.922c0.227,0.063,0.42,0.166,0.65,0.351c0.283,0.169,0.549,0.359,0.846,0.528
								c-0.164-0.289-0.391-0.542-0.574-0.815c-0.191-0.254-0.473-0.56-0.83-0.687c-0.035-0.013-0.07-0.024-0.104-0.037
								C422.271,136.473,422.27,136.691,422.291,136.922z M441.441,162.93c0.17,0.288,0.369,0.542,0.555,0.816
								c0.211,0.267,0.512,0.537,0.869,0.664c0.719,0.293,1.625,0.077,2.141-0.51c0.344-0.364,0.893-0.523,1.406-0.395
								c0.281,0.047,0.502,0.156,0.768,0.367c0.277,0.17,0.541,0.359,0.848,0.535c-0.172-0.295-0.398-0.548-0.582-0.815
								c-0.186-0.254-0.473-0.56-0.832-0.686c-0.697-0.314-1.619-0.139-2.176,0.437c-0.344,0.397-0.857,0.556-1.391,0.468
								c-0.281-0.053-0.494-0.143-0.76-0.354C442.002,163.289,441.738,163.099,441.441,162.93z M461.447,193.487
								c0.166,0.289,0.398,0.541,0.576,0.815c0.191,0.247,0.492,0.532,0.85,0.665c0.717,0.294,1.639,0.05,2.16-0.518
								c0.105-0.119,0.232-0.211,0.381-0.276c-0.008-0.021-0.008-0.048-0.016-0.067c-0.055-0.23-0.115-0.461-0.176-0.697
								c-0.283,0.097-0.553,0.261-0.764,0.484c-0.357,0.393-0.871,0.557-1.404,0.456c-0.254-0.027-0.496-0.144-0.76-0.354
								C462.01,193.826,461.746,193.636,461.447,193.487z"/>
						</g>
						<g>
							<path style="fill:#263238;" d="M438.039,190.177c-0.865-3.174-1.781-6.331-2.703-9.486s-1.885-6.297-2.824-9.447l-2.93-9.414
								l-1.502-4.695c-0.518-1.561-1.02-3.125-1.551-4.681c0.43,1.588,0.887,3.167,1.328,4.75l1.375,4.735l2.826,9.447
								c0.979,3.138,1.934,6.283,2.93,9.415S436.986,187.063,438.039,190.177z"/>
							<path style="fill:#263238;" d="M428.631,159.791c-0.311-0.817-0.711-1.581-1.127-2.334c-0.213-0.374-0.428-0.746-0.656-1.11
								c-0.225-0.368-0.469-0.722-0.711-1.083c0.242,0.846,0.646,1.616,1.059,2.372
								C427.623,158.386,428.078,159.118,428.631,159.791z"/>
						</g>
					</g>
				</g>
				<g>
					<g>
						<path style="fill:#EB9482;" d="M465.199,205.417c-4.332,5.939-14.6,7.129-43.305,12.163
							c-3.973,0.697-17.297-26.492-13.092-27.454c5.293-1.212,26.104-4.768,27.658-4.835
							C449.572,184.719,468.137,201.387,465.199,205.417z"/>
						<g>
							<path style="fill:#EB9482;" d="M418.584,189.782c0,0-10.984-0.839-18.195-1.049c-4.021-0.117-10.936,0.296-13.93,1.562
								c-4.479,1.893-22.002,12.669-19.48,16.975c2.281,3.896,16.16-7.273,16.16-7.273s-15,10.033-11.391,14.22
								c3.611,4.188,17.615-10.519,17.615-10.519s-15.184,10.654-10.775,14.383c3.328,2.818,16.762-9.786,16.762-9.786
								s-12.986,9.248-9.686,12.293c3.646,3.365,16.775-7.492,16.775-7.492c9.691,6.329,16.895,5.379,21.939,4.093
								C425.6,216.876,418.584,189.782,418.584,189.782z"/>
							<g>
								<path style="fill:#263238;" d="M388.105,196.193c-1.805,1.115-3.639,2.231-5.34,3.503c-1.699,1.271-3.355,2.603-4.928,4.026
									c-3.861,3.492-5.73,6.283-5.596,6.123c3.176-3.778,9.189-8.424,10.889-9.695c1.697-1.27,3.33-2.623,5.025-3.894
									C388.199,196.225,388.148,196.167,388.105,196.193z"/>
								<path style="fill:#263238;" d="M392.809,202.247c-2.244,1.523-4.525,2.953-6.703,4.576
									c-2.166,1.614-4.078,3.336-6.127,5.096c-0.158,0.136-0.033,0.176,0.131,0.046c2.117-1.676,4.203-3.063,6.34-4.714
									c2.131-1.646,4.211-3.387,6.398-4.953C392.883,202.273,392.842,202.224,392.809,202.247z"/>
								<path style="fill:#263238;" d="M397.777,206.717c-3.547,2.152-6.691,4.956-9.713,7.781c-0.15,0.141,0.018,0.174,0.18,0.039
									c3.18-2.646,5.654-4.746,9.609-7.697C397.914,206.794,397.852,206.672,397.777,206.717z"/>
							</g>
						</g>
					</g>
					<g>
						<path style="fill:#37474F;" d="M412.02,188.885l24.5,28.395c0,0,25.135-5.409,28.996-11.832
							c2.543-4.229-15.873-21.834-30.313-20.101L412.02,188.885z"/>
						<path style="fill:#FFFFFF;" d="M439.438,212.689c0.164,0.288,0.369,0.542,0.555,0.816c0.184,0.253,0.506,0.537,0.863,0.664
							c0.703,0.293,1.631,0.05,2.139-0.511c0.346-0.37,0.9-0.522,1.414-0.421c0.262,0.074,0.475,0.185,0.76,0.381
							c0.285,0.183,0.543,0.373,0.848,0.521c-0.193-0.295-0.391-0.534-0.574-0.788c-0.186-0.254-0.486-0.56-0.832-0.692
							c-0.705-0.335-1.627-0.152-2.182,0.442c-0.344,0.378-0.871,0.55-1.385,0.469c-0.281-0.054-0.523-0.163-0.787-0.353
							C439.979,213.028,439.721,212.838,439.438,212.689z M419.381,191.07c0.164,0.295,0.369,0.548,0.555,0.815
							c0.184,0.254,0.506,0.545,0.863,0.665c0.703,0.3,1.631,0.056,2.141-0.511c0.344-0.371,0.898-0.522,1.412-0.421
							c0.262,0.081,0.477,0.19,0.762,0.381c0.283,0.183,0.541,0.38,0.846,0.521c-0.193-0.288-0.391-0.534-0.574-0.788
							c-0.186-0.254-0.486-0.56-0.832-0.692c-0.703-0.335-1.625-0.146-2.182,0.442c-0.344,0.385-0.871,0.557-1.385,0.469
							c-0.281-0.047-0.521-0.156-0.787-0.346C419.922,191.409,419.664,191.226,419.381,191.07z M458.363,209.643
							c0.09,0.235,0.238,0.456,0.42,0.636c0.256-0.116,0.506-0.239,0.754-0.362c-0.242-0.116-0.445-0.301-0.602-0.542
							c-0.164-0.234-0.238-0.471-0.281-0.811c-0.07-0.332-0.113-0.645-0.225-0.955c-0.074,0.316-0.105,0.631-0.17,0.967
							C458.213,208.876,458.225,209.312,458.363,209.643z M440.227,200.021c0.342,0.086,0.658,0.125,0.973,0.17
							c0.322,0.053,0.75,0.041,1.08-0.132c0.727-0.3,1.195-1.098,1.154-1.866c-0.016-0.511,0.266-0.996,0.721-1.289
							c0.234-0.156,0.463-0.23,0.803-0.281c0.332-0.063,0.645-0.113,0.961-0.218c-0.322-0.072-0.637-0.104-0.973-0.17
							c-0.301-0.054-0.736-0.041-1.066,0.104c-0.723,0.279-1.252,1.051-1.23,1.854c0.029,0.531-0.23,1.016-0.656,1.327
							c-0.236,0.144-0.471,0.245-0.805,0.289C440.877,199.888,440.564,199.937,440.227,200.021z"/>
						<g>
							<path style="fill:#263238;" d="M452.291,190.226c-2.289-1.729-8.75-5.781-17.107-4.901c-0.074,0.008-0.078,0.127-0.002,0.126
								c6.289-0.053,14.707,3.401,17.053,4.878C452.295,190.367,452.348,190.269,452.291,190.226z"/>
							<path style="fill:#263238;" d="M443.463,212.744c-2.527-3.267-5.225-6.395-7.934-9.516c-2.709-3.122-5.412-6.252-8.199-9.308
								c-1.574-1.726-3.139-3.462-4.773-5.134c-0.043-0.043-0.127,0.018-0.088,0.067c2.521,3.263,5.211,6.405,7.893,9.539
								c2.688,3.141,5.412,6.256,8.162,9.344c1.555,1.744,3.141,3.461,4.775,5.133C443.379,212.953,443.537,212.839,443.463,212.744
								z"/>
							<path style="fill:#263238;" d="M411.982,188.521c1.539-0.477,3.129-0.711,4.717-0.976c1.586-0.266,3.178-0.503,4.771-0.727
								c3.168-0.444,9.832-1.746,15.664-1.614c0.064,0.001-0.273,0.308-0.336,0.303c-2.775-0.205-22.754,3.359-24.391,3.443
								c0.063,0.108,0.123,0.217,0.17,0.336c0.031,0.081-0.051,0.184-0.135,0.124c-0.203-0.142-0.346-0.316-0.535-0.472
								C411.752,188.813,411.783,188.583,411.982,188.521z"/>
						</g>
					</g>
				</g>
				<g>
					<g>
						<path style="fill:#263238;" d="M443.547,152.251c0,0,0.563,0.735,1.502,2.053c0.928,1.325,2.275,3.207,3.791,5.533
							c1.512,2.327,3.281,5.043,5.037,8.038s3.566,6.229,5.264,9.526c0.836,1.655,1.633,3.33,2.381,4.996
							c0.756,1.663,1.449,3.323,2.086,4.944c0.643,1.619,1.164,3.224,1.627,4.754c0.205,0.774,0.42,1.521,0.6,2.253
							c0.152,0.738,0.334,1.442,0.445,2.134c0.246,1.377,0.373,2.659,0.373,3.798c0.018,1.139-0.111,2.13-0.266,2.929
							c-0.111,0.393-0.209,0.743-0.295,1.048c-0.092,0.302-0.244,0.533-0.33,0.731c-0.189,0.39-0.291,0.598-0.291,0.598
							s0.084-0.216,0.242-0.619c0.068-0.205,0.197-0.44,0.264-0.746c0.064-0.305,0.137-0.655,0.219-1.048
							c0.104-0.794,0.17-1.767,0.086-2.88c-0.072-1.112-0.275-2.357-0.553-3.701c-0.135-0.674-0.342-1.363-0.518-2.082
							c-0.203-0.713-0.443-1.443-0.672-2.196c-0.514-1.493-1.1-3.052-1.738-4.652c-1.291-3.198-2.865-6.531-4.551-9.808
							c-1.646-3.297-3.408-6.539-5.123-9.544c-1.715-3.004-3.322-5.808-4.762-8.175C445.52,155.381,443.547,152.251,443.547,152.251
							z"/>
					</g>
					<g>
						<path style="fill:#263238;" d="M445.43,153.396c0,0,0.213,0.248,0.482,0.647c0.123,0.206,0.303,0.426,0.416,0.706
							c0.131,0.271,0.252,0.569,0.375,0.867c0.238,0.6,0.426,1.22,0.545,1.688c0.119,0.47,0.158,0.792,0.158,0.792
							s-0.193-0.271-0.422-0.693c-0.23-0.423-0.51-0.99-0.736-1.579c-0.234-0.585-0.398-1.204-0.584-1.651
							C445.502,153.718,445.43,153.396,445.43,153.396z"/>
					</g>
				</g>
			</g>
			<g>
				<g>
					<g>
						<path style="fill:#EB9482;" d="M411.451,142.381c3.164,0.58,9.486-3.437,11.486-8.017c0.137-0.314-0.605-3.429-1.326-7.256
							c-0.43-2.324-0.852-4.922-1.066-7.32c-0.041-0.493-14.717,5-14.717,5s1.93,4.896,2.277,9.079
							c0.025,0.35,0.02,0.678-0.016,0.993c0,0.046-0.01,0.102-0.006,0.165C407.945,136.922,408.066,141.762,411.451,142.381z"/>
					</g>
					<path style="fill:#263238;" d="M408.086,134.86c0.002,0.048-0.004,0.106,0,0.164c0.475,0.022,0.988,0.003,1.545-0.057
						c8.838-0.987,10.184-12.279,10.383-15.128c-2.639,0.622-14.186,4.947-14.186,4.947s1.93,4.899,2.279,9.084
						C408.127,134.219,408.127,134.548,408.086,134.86z"/>
				</g>
				<g>
					<g>
						<path style="fill:#EB9482;" d="M423.291,102.532c1.467,5.403-1.838,20.778-5.752,24.108
							c-5.674,4.827-14.725,5.025-18.766-1.74c-3.916-6.559,0.744-26.52,5.094-29.521
							C410.273,90.959,421.123,94.551,423.291,102.532z"/>
					</g>
					<g>
						<g>
							<path style="fill:#263238;" d="M401.846,110.469c-0.002-0.042-0.09,0.035-0.098,0.078c-0.143,1.05-0.484,2.228-1.488,2.415
								c-0.031,0.006-0.037,0.059,0,0.06C401.439,113.055,401.877,111.485,401.846,110.469z"/>
							<path style="fill:#263238;" d="M401.098,109.22c-1.658-0.412-2.361,2.935-0.824,3.315
								C401.785,112.911,402.486,109.564,401.098,109.22z"/>
						</g>
						<g>
							<path style="fill:#263238;" d="M407.699,111.667c0.016-0.038,0.07,0.065,0.061,0.107c-0.238,1.032-0.34,2.255,0.531,2.787
								c0.027,0.017,0.014,0.068-0.02,0.057C407.156,114.229,407.307,112.606,407.699,111.667z"/>
							<path style="fill:#263238;" d="M408.842,110.768c1.697,0.205,1.16,3.582-0.41,3.392
								C406.885,113.972,407.42,110.594,408.842,110.768z"/>
						</g>
						<path style="fill:#263238;" d="M410.143,108.618c-0.447-0.177-0.83-0.414-1.254-0.635c-0.477-0.248-0.883-0.397-1.152-0.891
							c-0.146-0.265-0.016-0.688,0.229-0.853c0.566-0.384,1.229-0.225,1.816,0.052c0.637,0.299,1.051,0.692,1.355,1.326
							C411.434,108.232,410.73,108.852,410.143,108.618z"/>
						<path style="fill:#263238;" d="M400.209,106.785c0.479,0.003,0.924-0.074,1.398-0.12c0.535-0.053,0.969-0.039,1.402-0.396
							c0.234-0.191,0.271-0.632,0.107-0.876c-0.385-0.568-1.057-0.667-1.705-0.631c-0.703,0.039-1.234,0.25-1.754,0.724
							C399.154,105.945,399.574,106.781,400.209,106.785z"/>
						<path style="fill:#263238;" d="M407.203,121.271c-0.266,0.234-0.535,0.563-0.922,0.576c-0.369,0.013-0.793-0.175-1.123-0.323
							c-0.033-0.014-0.068,0.02-0.049,0.053c0.254,0.42,0.82,0.702,1.314,0.642c0.482-0.061,0.74-0.463,0.879-0.895
							C407.322,121.264,407.242,121.237,407.203,121.271z"/>
						<g>
							<g>
								<path style="fill:#263238;" d="M406.676,117.865c-0.738,0.808-1.682,1.158-2.643,1.181c-0.43,0.013-0.867-0.047-1.289-0.158
									c-0.084-0.017-0.166-0.04-0.238-0.069c-0.076-0.022-0.143-0.043-0.225-0.074c-0.119-0.038-0.168-0.15-0.17-0.27l0.002-0.007
									c0.008-0.038,0.014-0.069,0.027-0.105c0,0,0,0,0.002-0.008l0.018-0.092c0.115-0.808,0.4-2.018,0.4-2.018
									c-0.32,0.098-1.932,0.519-1.836,0.102c0.797-3.442,1.682-7.271,3.201-10.528c0.045-0.109,0.217-0.054,0.188,0.06
									c-0.635,3.339-1.854,6.543-2.545,9.887c0.51-0.101,1.346-0.305,1.766-0.225c0.107,0.052-0.594,2.328-0.615,2.695
									c0,0-0.004,0.015,0,0.039c1.322,0.401,2.41,0.166,3.875-0.52C406.682,117.709,406.752,117.793,406.676,117.865z"/>
							</g>
						</g>
						<g>
							<path style="fill:#263238;" d="M403.238,118.759c0,0,0.578,1.021,1.486,1.477c0.334,0.168,0.703,0.265,1.111,0.208
								c0.838-0.112,0.949-0.854,0.879-1.51c-0.055-0.538-0.242-1.02-0.242-1.02S405.152,118.876,403.238,118.759z"/>
							<path style="fill:#F499BA;" d="M404.725,120.235c0.334,0.168,0.703,0.265,1.111,0.208c0.838-0.112,0.949-0.854,0.879-1.51
								C405.836,118.916,404.902,119.399,404.725,120.235z"/>
						</g>
					</g>
					<g>
						<path style="fill:#263238;" d="M420.865,115.746c-2.439-0.243-2.215-5.855-2.215-5.855s-6.26,1.028-5.449-7.12
							c0,0-7.396,1.559-11.543-1.33c-3.545-2.47-4.83-9.112-1.623-12.606c1.807-1.97,6.404-3.443,12.256,3.629
							c0,0,9.188-4.905,11.205,5.733c0,0,4.35,1.035,4.393,5.383C427.955,110.44,422.971,115.956,420.865,115.746z"/>
						<path style="fill:#263238;" d="M413.27,102.198c0.039-0.076,0.15-0.035,0.125,0.048c-0.604,1.939-1.236,4.051,0.15,5.827
							c1.348,1.726,3.523,2.447,5.586,1.64c0.121-0.047,0.203,0.136,0.084,0.182c-1.957,0.752-4.184,0.266-5.646-1.265
							C411.818,106.799,412.23,104.277,413.27,102.198z"/>
						<path style="fill:#263238;" d="M420.824,114.469c3.547-1.346,6.42-3.894,7.146-7.783c0.346-1.852,0.24-3.826-0.764-5.442
							c-0.918-1.478-2.461-2.155-3.803-3.148c-0.039-0.028-0.006-0.089,0.039-0.073c8.637,3.26,5.463,14.978-2.486,16.88
							C420.707,114.962,420.58,114.561,420.824,114.469z"/>
						<path style="fill:#263238;" d="M398.906,88.778c4.314-4.849,11.254-0.46,13.596,4.121c0.008,0.016-0.018,0.033-0.027,0.017
							c-2.197-3.493-7.176-7.243-11.385-5.156c-5.08,2.521-4.1,11.326,1.271,12.773c0.162,0.044,0.098,0.32-0.068,0.289
							C397.301,99.862,395.697,92.382,398.906,88.778z"/>
					</g>
					<g>
						<path style="fill:#EB9482;" d="M418.486,115.202c0,0,3.75-4.817,5.953-3.456s-0.793,8.47-3.506,9.324
							c-2.711,0.854-3.553-1.641-3.553-1.641L418.486,115.202z"/>
						<path style="fill:#263238;" d="M423.529,113.762c0.043-0.001,0.049,0.06,0.012,0.072c-1.906,0.661-2.977,2.341-3.756,4.101
							c0.59-0.663,1.365-1.003,2.256-0.295c0.047,0.037-0.004,0.111-0.055,0.098c-0.756-0.203-1.314-0.099-1.863,0.487
							c-0.387,0.415-0.664,0.95-0.953,1.438c-0.096,0.162-0.393,0.058-0.318-0.132c0.006-0.014,0.012-0.028,0.018-0.042
							C418.943,117.106,420.963,113.871,423.529,113.762z"/>
					</g>
				</g>
				<path style="fill:#263238;" d="M406.83,135.446c0.035,0.935,0.123,1.869,0.262,2.807c0.125,0.84,0.258,1.68,0.551,2.507
					c0.527,1.486,1.619,2.927,3.408,3.508c1.709,0.556,3.518,0.255,4.941-0.418c1.557-0.736,2.807-1.888,3.957-3.015
					c0.713-0.696,1.391-1.42,2.025-2.172c0.322-0.382,0.646-0.76,0.945-1.155c0.299-0.395,0.576-0.803,0.904-1.179
					c0.025-0.03,0.102,0.002,0.078,0.037c-0.643,0.901-2.588,3.77-3.223,4.464c-1.154,1.262-2.41,2.544-4.029,3.393
					c-1.527,0.803-3.379,1.183-5.293,0.721c-1.885-0.454-3.246-1.788-3.875-3.335c-0.387-0.949-0.527-1.95-0.6-2.919
					c-0.08-1.084-0.094-2.169-0.076-3.245C406.807,135.431,406.83,135.434,406.83,135.446z"/>
			</g>
		</g>
	</g>
</g>
<g>
	<g>
		<g>
			<path style="fill:#263238;" d="M345.922,12.81c0,0-0.174-0.336-0.302-0.843c-0.136-0.506-0.231-1.183-0.248-1.861
				c-0.01-0.678,0.061-1.358,0.178-1.869c0.109-0.511,0.271-0.853,0.271-0.853s0.175,0.336,0.303,0.843
				c0.137,0.506,0.231,1.183,0.247,1.861c0.009,0.678-0.063,1.358-0.18,1.869C346.083,12.468,345.922,12.81,345.922,12.81z"/>
		</g>
		<g>
			<path style="fill:#263238;" d="M333.533,16.267c0,0-0.318-0.204-0.683-0.579c-0.371-0.37-0.793-0.908-1.146-1.487
				c-0.348-0.583-0.627-1.207-0.781-1.708c-0.16-0.497-0.191-0.875-0.191-0.875s0.319,0.204,0.684,0.578
				c0.371,0.37,0.792,0.909,1.145,1.488c0.348,0.583,0.626,1.208,0.78,1.708C333.501,15.89,333.533,16.267,333.533,16.267z"/>
		</g>
		<g>
			<path style="fill:#263238;" d="M324.531,25.455c0,0-0.378-0.018-0.88-0.16c-0.507-0.135-1.141-0.391-1.735-0.715
				c-0.593-0.331-1.146-0.731-1.529-1.089c-0.388-0.35-0.604-0.662-0.604-0.662s0.379,0.017,0.881,0.159
				c0.507,0.135,1.141,0.391,1.735,0.716c0.592,0.332,1.145,0.733,1.528,1.09C324.315,25.144,324.531,25.455,324.531,25.455z"/>
		</g>
		<g>
			<path style="fill:#263238;" d="M321.331,37.912c0,0-0.336,0.173-0.843,0.301c-0.506,0.136-1.184,0.232-1.861,0.249
				c-0.679,0.009-1.358-0.061-1.87-0.178c-0.511-0.109-0.853-0.271-0.853-0.271s0.336-0.174,0.843-0.303
				c0.506-0.137,1.183-0.231,1.861-0.247c0.679-0.009,1.358,0.063,1.869,0.18C320.989,37.751,321.331,37.912,321.331,37.912z"/>
		</g>
		<g>
			<path style="fill:#263238;" d="M324.788,50.301c0,0-0.204,0.318-0.579,0.682c-0.37,0.371-0.908,0.793-1.488,1.146
				c-0.582,0.347-1.206,0.626-1.707,0.78c-0.498,0.161-0.875,0.191-0.875,0.191s0.204-0.319,0.578-0.684
				c0.37-0.371,0.909-0.792,1.489-1.145c0.583-0.347,1.207-0.625,1.708-0.779C324.411,50.333,324.788,50.301,324.788,50.301z"/>
		</g>
		<g>
			<path style="fill:#263238;" d="M367.824,49.858c0,0,0.378,0.018,0.88,0.16c0.507,0.136,1.141,0.391,1.736,0.716
				c0.592,0.331,1.146,0.731,1.529,1.089c0.388,0.35,0.603,0.662,0.603,0.662s-0.378-0.017-0.881-0.159
				c-0.507-0.135-1.14-0.391-1.735-0.717c-0.592-0.332-1.145-0.733-1.528-1.09C368.04,50.168,367.824,49.858,367.824,49.858z"/>
		</g>
		<g>
			<path style="fill:#263238;" d="M371.024,37.4c0,0,0.336-0.173,0.843-0.301c0.506-0.136,1.184-0.232,1.861-0.249
				c0.679-0.009,1.358,0.061,1.869,0.178c0.512,0.109,0.854,0.271,0.854,0.271s-0.336,0.174-0.843,0.303
				c-0.506,0.137-1.183,0.231-1.861,0.247c-0.679,0.009-1.358-0.063-1.869-0.18C371.366,37.562,371.024,37.4,371.024,37.4z"/>
		</g>
		<g>
			<path style="fill:#263238;" d="M367.566,25.012c0,0,0.204-0.318,0.579-0.682c0.371-0.371,0.909-0.793,1.488-1.146
				c0.583-0.347,1.207-0.626,1.708-0.78c0.498-0.161,0.875-0.191,0.875-0.191s-0.204,0.319-0.578,0.684
				c-0.371,0.371-0.909,0.792-1.489,1.145c-0.583,0.347-1.208,0.625-1.709,0.779C367.943,24.98,367.566,25.012,367.566,25.012z"/>
		</g>
		<g>
			<path style="fill:#263238;" d="M358.38,16.011c0,0,0.018-0.378,0.16-0.88c0.136-0.506,0.391-1.141,0.716-1.736
				c0.331-0.592,0.73-1.146,1.089-1.53c0.35-0.388,0.661-0.603,0.661-0.603s-0.017,0.378-0.159,0.881
				c-0.135,0.507-0.391,1.14-0.717,1.735c-0.331,0.592-0.732,1.145-1.09,1.529C358.69,15.795,358.38,16.011,358.38,16.011z"/>
		</g>
	</g>
	<g>
		<g>
			<g style="opacity:0.5;">
				<path style="fill:#FFC829;" d="M367.262,38.921c-1.045,13.095-11.954,17.043-11.954,17.043c-0.802,1.991-1.85,7.054-1.85,7.054
					h-14.563c0,0-1.046-5.063-1.848-7.054c0,0-10.909-3.948-11.955-17.043c-0.727-9.099,5.753-22.55,21.006-22.553h0.158
					C361.509,16.372,367.989,29.823,367.262,38.921z"/>
			</g>
			<g style="opacity:0.7;">
				<path style="fill:#FFC829;" d="M365.462,38.988c-0.955,11.977-10.935,15.588-10.935,15.588c-0.733,1.821-1.69,8.443-1.69,8.443
					h-13.318c0,0-0.957-6.622-1.69-8.443c0,0-9.979-3.612-10.935-15.588c-0.666-8.322,5.261-20.625,19.212-20.628h0.145
					C360.201,18.362,366.127,30.666,365.462,38.988z"/>
			</g>
			<g>
				
					<line style="fill:none;stroke:#263238;stroke-width:3;stroke-miterlimit:10;" x1="342.638" y1="64.257" x2="338.357" y2="41.327"/>
				
					<line style="fill:none;stroke:#263238;stroke-width:3;stroke-miterlimit:10;" x1="349.726" y1="64.255" x2="353.998" y2="41.324"/>
				<path style="fill:none;stroke:#263238;stroke-miterlimit:10;" d="M338.723,42.202c0,0,0.848,4.49,2.882,4.49
					c2.033,0,3.937-6.693,1.269-6.693c-2.669,0-0.083,8.769,3.306,8.768c3.39,0,5.336-8.77,2.965-8.768
					c-2.373,0-1.623,6.989,1.639,6.988c1.75,0,3-4.502,3-4.502"/>
			</g>
			<g>
				<rect x="337.056" y="63.036" style="fill:#C7C7C6;" width="18.244" height="10.041"/>
				<g>
					<path style="fill:#C7C7C6;" d="M353.23,73.077c-1.072,1.902-3.129,3.604-7.053,3.604s-5.98-1.702-7.054-3.604H353.23z"/>
					<path style="fill:#A6A6A6;" d="M353.23,73.077c-0.307,0.543-0.693,1.069-1.181,1.543l-12.561-0.963
						c-0.134-0.192-0.256-0.384-0.365-0.581H353.23z"/>
				</g>
				<g>
					<polygon style="fill:#A6A6A6;" points="355.832,64.951 336.521,66.737 336.521,65.861 355.832,64.076 					"/>
					<polygon style="fill:#A6A6A6;" points="355.832,67.601 336.521,69.387 336.521,68.511 355.832,66.726 					"/>
					<polygon style="fill:#A6A6A6;" points="355.832,70.252 336.521,72.039 336.521,71.162 355.832,69.376 					"/>
				</g>
			</g>
			<g style="opacity:0.5;">
				<path style="fill:#FFFFFF;" d="M329.688,35.862c0.668,0.111,1.534-3.34,5.247-7.335c1.649-1.775,7.904-3.996,7.453-6.044
					c-0.451-2.049-6.031,0.058-8.839,3.31C329.032,31.026,329.073,35.759,329.688,35.862z"/>
				<path style="fill:#FFFFFF;" d="M362.602,36.581c1.23,0,1.231-1.913,0-1.913S361.37,36.581,362.602,36.581z"/>
				<path style="fill:#FFFFFF;" d="M356.581,50.961c0.672,0.512,3.938-2.499,5.41-6.094c1.221-2.984,1.431-6.757,0.61-6.976
					c-0.822-0.218-1.355,4.958-2.343,6.863C359.012,47.161,355.862,50.414,356.581,50.961z"/>
			</g>
		</g>
	</g>
</g>
<g>
	<g>
		<g>
			<g>
				<g>
					<path style="fill:#F7A9A0;" d="M120.783,211.999c-1.494,0.483-44.152,0.11-45.771-0.933c-0.616-0.394-0.923-6.608-1.082-14.129
						c-0.035-1.627-3.254-27.8-3.254-27.8l28.517,0.169l2.241,27.793c0,0,16.268,7.448,17.92,8.781
						C120.996,207.213,122.277,211.513,120.783,211.999z"/>
					<path style="fill:#263238;" d="M120.782,211.996c-1.493,0.486-44.149,0.11-45.768-0.933c-0.468-0.297-0.759-3.937-0.946-8.961
						c5.518,1.264,36.532,3.813,40.097,3.381c3.444-0.411-4.534-4.517-5.978-5.241c4.68,2.206,10.234,4.886,11.168,5.639
						C120.994,207.213,122.279,211.513,120.782,211.996z"/>
				</g>
				<g>
					<path style="fill:#37474F;" d="M40.969,53.749c0,0-7.457,10.829-3.357,22.592c7.004,20.093,24.793,42.705,25.339,45.291
						c1.288,6.095,8.147,68.576,8.147,68.576l31.868-0.196c0,0-5.244-52.995-10.653-70.498
						c-2.954-9.556-19.828-35.754-27.109-48.538c-0.651-1.144,0.885-6.08,0.885-6.08L40.969,53.749z"/>
					<g>
						<path style="fill:#263238;" d="M99.779,184.413c-4.947-0.097-19.925-0.511-26.521,0.024c-0.05,0.004-0.05,0.086,0,0.094
							c2.264,0.355,21.573,0.117,26.521,0.021C99.874,184.548,99.874,184.417,99.779,184.413z"/>
						<path style="fill:#263238;" d="M35.656,68.531c2.129,3.43,4.376,6.791,6.554,10.192c2.179,3.403,4.349,6.81,6.49,10.236
							c4.279,6.847,8.443,13.764,12.528,20.721c1.917,3.265,3.739,6.558,5.039,10.107c1.288,3.515,2.149,7.168,2.773,10.849
							c0.629,3.705,1.029,7.445,1.402,11.183c0.398,3.979,0.79,7.961,1.184,11.94c0.809,8.144,1.616,16.287,2.424,24.432
							c0.1,1.001,0.197,1.999,0.283,2.997c0.013,0.148-0.249,0.173-0.266,0.027c-0.914-8.094-1.657-16.212-2.478-24.313
							c-0.409-4.035-0.817-8.068-1.227-12.102c-0.38-3.753-0.74-7.506-1.275-11.241c-0.527-3.669-1.224-7.322-2.294-10.879
							c-1.118-3.715-2.724-7.211-4.633-10.601c-3.909-6.936-8.052-13.757-12.195-20.562c-4.18-6.862-8.395-13.706-12.771-20.451
							c-0.541-0.832-1.086-1.661-1.647-2.481C35.505,68.524,35.616,68.464,35.656,68.531z"/>
					</g>
				</g>
			</g>
			<g>
				<g>
					<path style="fill:#F7A9A0;" d="M43.1,212.206c-1.57-0.117-41.93-17.051-43.042-18.622c-0.037-0.052-0.058-0.155-0.059-0.3
						c0.025-1.396,19.325-36.429,19.325-36.429l26.383,10.859l-14.956,23.414c0,0,12.285,13.015,13.313,14.869
						C45.087,207.849,44.665,212.313,43.1,212.206z"/>
					<path style="fill:#F7A9A0;" d="M44.067,205.994c1.019,1.858,0.6,6.319-0.964,6.209c-1.57-0.114-41.936-17.048-43.045-18.619
						c-0.037-0.055-0.054-0.158-0.054-0.304c0.006-0.455,2.074-4.499,4.851-9.737c5.723-10.801,14.474-26.686,14.474-26.686
						l26.381,10.859l-14.958,23.412c0,0,3.389,3.595,6.754,7.269l0.012,0.011C40.562,201.733,43.575,205.117,44.067,205.994z"/>
					<path style="fill:#263238;" d="M43.103,212.203c-1.57-0.114-41.936-17.048-43.045-18.619c-0.037-0.055-0.054-0.158-0.054-0.304
						c0.006-0.455,2.074-4.499,4.851-9.737c6.966,7.331,34.461,20.69,35.365,20.314c0.933-0.395-2.472-5.114-2.701-5.449
						c3.044,3.325,6.057,6.709,6.549,7.586C45.085,207.853,44.667,212.313,43.103,212.203z"/>
				</g>
				<g>
					<path style="fill:#37474F;" d="M34.641,187.466L7.278,174.491c0,0,35.296-53.025,35.618-57.048
						c0.285-3.565-15.495-34.806-16.021-43.86c-0.567-9.771,4.227-17.27,9.451-21.896l29.762,13.208c0,0-2.601,5.313-7.727,8.128
						c0,0,15.258,36.074,14.232,47.094C71.562,131.2,34.641,187.466,34.641,187.466z"/>
					<g>
						<path style="fill:#263238;" d="M36.162,181.185c-3.795-1.937-2.676-1.439-6.493-3.332c-1.869-0.925-14.152-6.999-16.06-7.527
							c-0.042-0.011-0.077,0.063-0.042,0.086c1.602,1.166,13.998,7.003,15.885,7.887c3.857,1.813,2.772,1.247,6.65,3.012
							C36.175,181.34,36.233,181.22,36.162,181.185z"/>
						<g>
							<path style="fill:#263238;" d="M62.795,73.317c-3.258,0.179-6.524,0.802-9.683,1.528c-0.125,0.029-0.097,0.21,0.034,0.194
								c3.234-0.414,6.511-0.76,9.715-1.345C63.112,73.648,63.044,73.303,62.795,73.317z"/>
							<path style="fill:#263238;" d="M59.404,71.505c-0.38,0.471-0.72,0.979-1.032,1.496c-0.244,0.402-0.541,0.827-0.612,1.295
								c-0.015,0.091,0.104,0.132,0.169,0.086c0.406-0.291,0.673-0.766,0.962-1.161c0.337-0.458,0.684-0.91,1.006-1.377
								C60.112,71.533,59.639,71.212,59.404,71.505z"/>
							<path style="fill:#263238;" d="M65.821,62.884c0.014-0.052-0.088-0.099-0.108-0.046c-0.627,1.724-1.324,3.19-2.099,4.735
								c-0.359,0.718-2.619,4.586-4.059,3.741c-0.242-0.142-0.294-0.401-0.213-0.741c0.097-0.41,0.454-0.829,0.678-1.192
								c0.495-0.802,0.956-1.619,1.371-2.459c0.773-1.568,1.39-3.192,1.758-4.897c0.011-0.056-0.082-0.084-0.103-0.031
								c-0.838,2.253-1.749,4.477-2.987,6.565c-0.594,1.004-1.846,2.391-0.561,3.027c1.31,0.648,3.206-1.743,3.649-2.424
								C64.386,67.261,65.237,65.04,65.821,62.884z"/>
						</g>
						<path style="fill:#263238;" d="M58.824,74.197c1.06,2.32,1.988,4.63,2.978,6.94c0.967,2.258,1.869,4.542,2.745,6.837
							c1.769,4.637,3.347,9.354,4.724,14.122c0.681,2.359,1.305,4.735,1.866,7.125c0.563,2.396,1.113,4.817,1.329,7.275
							c0.216,2.465,0.009,4.896-0.706,7.269c-0.725,2.407-4.801,10.459-5.917,12.703c-0.684,1.375-0.909,1.185-0.578,0.491
							c0.938-1.965,6.537-13.883,6.426-18.922c-0.053-2.435-0.524-4.834-1.043-7.203c-0.532-2.417-1.134-4.82-1.795-7.206
							c-1.302-4.701-2.861-9.313-4.467-13.917c-0.899-2.58-1.866-5.135-2.779-7.709c-0.92-2.593-1.874-4.929-2.895-7.761
							C58.683,74.167,58.791,74.125,58.824,74.197z"/>
						<path style="fill:#263238;" d="M36.385,66.3c0.534-0.19,1.268,0.145,1.809,0.243c0.694,0.125,1.396,0.205,2.101,0.237
							c0.694,0.033,1.394,0.013,2.086-0.045c0.692-0.059,1.399-0.136,2.004-0.503c1.021-0.619,1.882-1.722,2.58-2.673
							c0.767-1.044,1.565-2.247,2.029-3.462c0.027-0.074,0.135-0.021,0.11,0.052c-0.232,0.709-0.407,1.424-0.699,2.117
							c-0.275,0.651-0.629,1.272-1.003,1.871c-0.698,1.118-1.499,2.31-2.681,2.966c-1.239,0.687-2.826,0.625-4.199,0.529
							c-0.793-0.056-1.583-0.171-2.359-0.345c-0.562-0.125-1.505-0.227-1.857-0.725C36.244,66.472,36.28,66.338,36.385,66.3z"/>
						<path style="fill:#263238;" d="M15.459,169.565c4.97-7.323,9.848-14.706,14.642-22.146c4.806-7.46,9.526-14.972,14.182-22.525
							c1.113-1.806,2.397-3.608,3.124-5.616c0.792-2.181,0.383-4.309-0.282-6.462c-1.221-3.948-2.755-7.793-4.415-11.575
							c-1.665-3.793-3.462-7.525-5.229-11.271c-1.752-3.715-3.62-7.445-4.936-11.342c-1.258-3.724-1.706-7.574-0.659-11.408
							c1.039-3.803,3.227-7.203,5.507-10.372c0.602-0.837,1.214-1.665,1.818-2.5c0.046-0.063,0.143,0.016,0.094,0.079
							c-2.51,3.303-4.962,6.801-6.458,10.697c-0.739,1.924-1.229,3.955-1.299,6.02c-0.072,2.096,0.296,4.18,0.889,6.184
							c1.152,3.896,3.002,7.596,4.724,11.263c1.76,3.751,3.569,7.479,5.263,11.259c1.705,3.804,3.297,7.663,4.594,11.626
							c0.579,1.764,1.224,3.612,1.161,5.494c-0.069,2.061-1.077,3.905-2.117,5.632c-4.532,7.514-9.231,14.93-13.987,22.306
							c-4.773,7.402-9.64,14.744-14.579,22.037c-0.623,0.922-1.247,1.838-1.872,2.755C15.546,169.816,15.381,169.678,15.459,169.565
							z"/>
					</g>
				</g>
			</g>
		</g>
		<g>
			<g>
				<path style="fill:#263238;" d="M63.126,27.145c-1.211,7.039-2.338,14.299-2.456,21.447c-0.093,5.568,1.695,10.37,7.262,12.383
					c5.164,1.865,12.736,2.643,17.634-0.356c2.28-1.4,3.277-3.631,3.437-6.24c0.225-3.629-0.352-23.712-0.495-29.971
					c-0.079-3.811-0.142-7.672-0.9-11.434c-1.59-7.894-5.36-8.265-5.865-8.478c-0.417-0.341-3.158-1.963-7.419-1.128
					c-2.354,0.461-4.139,1.814-5.387,3.784C65.276,12.915,64.265,20.555,63.126,27.145z"/>
				<path style="fill:#263238;" d="M82.795,5.686c4.283,2.639,4.791,7.706,5.375,12.263c0.812,6.342,1.518,12.702,1.914,19.085
					c0.191,3.069,0.313,6.144,0.343,9.219c0.029,2.943,0.237,6.104-0.297,9.013c-0.883,4.809-5.571,6.501-9.949,6.695
					c-0.212,0.008-0.237-0.314-0.024-0.332c2.502-0.202,5.079-0.593,7.11-2.198c2.604-2.058,2.685-5.127,2.757-8.186
					c0.126-5.204-0.045-10.412-0.403-15.603c-0.359-5.198-0.903-10.383-1.528-15.556c-0.595-4.924-0.7-11.328-5.334-14.331
					C82.716,5.73,82.75,5.658,82.795,5.686z"/>
				<path style="fill:#263238;" d="M66.257,12.084c1.288-3.604,3.629-6.992,7.652-7.616c0.008-0.001,0.01,0.01,0.002,0.011
					c-5.226,1.024-7.091,6.39-8.294,10.913c-1.267,4.76-2.35,9.566-3.264,14.406c-0.879,4.655-1.665,9.36-2.118,14.079
					c-0.488,5.091-0.118,9.957,2.398,14.491c0.053,0.094-0.078,0.185-0.14,0.094c-2.564-3.729-3.003-8.508-2.735-12.904
					c0.352-5.789,1.401-11.598,2.516-17.282C63.332,22.876,64.401,17.277,66.257,12.084z"/>
			</g>
			<g>
				<g>
					<path style="fill:#F7A9A0;" d="M65.213,32.2c-0.996,8.045,0.46,26.884,3.198,30.801c2.093,2.996,14.954,7.671,20.452,8.904
						c2.356,0.528,5.758-13.491,4.038-14.106c-5.322-1.903-13.827-5.426-15.252-6.312c-0.999-0.621-2.632-6.947-6.616-19.035
						C68.825,25.748,65.774,27.67,65.213,32.2z"/>
					<g>
						<path style="fill:#F7A9A0;" d="M97.705,72.911c-0.945,0.027-0.938,0.523,0.412,1.523c1.363,1.016,7.542,3.82,6.376,5.896
							c-1.166,2.085-9.843-2.024-11.963-3.864c-2.124-1.835-4.902-5.558-4.902-5.558C89.476,71.369,94.065,72.056,97.705,72.911z"/>
						<path style="fill:#F7A9A0;" d="M92.482,57.748c5.16,1.485,11.674,3.02,15.842,7.417c0.817,0.863,0.855,1.768,0.855,1.768
							c1.902,1.938,1.56,3.417,1.56,3.417c1.22,2.349,0.66,3.814,0.66,3.814s2.209,2.3,1.041,3.866
							c-1.304,1.76-4.151-1.814-6.92-2.821c-6.341-2.308-16.001-3.815-17.895-4.3L92.482,57.748z"/>
						<g>
							<path style="fill:#263238;" d="M100.576,68.12c1.853,0.716,3.691,1.372,5.438,2.335c1.916,1.058,3.582,2.396,5.312,3.717
								c0.055,0.042,0.118-0.03,0.071-0.079c-2.754-2.887-6.915-5.142-10.789-6.058C100.514,68.013,100.484,68.084,100.576,68.12z"
								/>
							<path style="fill:#263238;" d="M101.414,64.09c1.764,0.797,4.855,2.218,9.283,6.309c0.014,0.013,0.042-0.007,0.028-0.023
								c-2.521-3.039-5.583-5.062-9.273-6.37C101.337,63.965,101.296,64.037,101.414,64.09z"/>
							<path style="fill:#263238;" d="M101.904,61.933c2.948,1.47,4.621,2.77,7.256,5.002c0.016,0.013,0.042-0.01,0.027-0.025
								c-2.73-2.853-4.043-3.577-7.247-5.085C101.83,61.773,101.788,61.875,101.904,61.933z"/>
						</g>
					</g>
				</g>
				<path style="fill:#FFC829;" d="M86.353,72.863l5.01-16.599c0,0-11.865-4.631-13.505-5.437
					c-0.694-0.34-4.897-13.945-7.022-19.823c-1.397-3.868-5.21-5.635-6.227,2.243c-0.595,4.612-0.204,26.773,2.921,30.301
					C70.015,66.355,86.353,72.863,86.353,72.863z"/>
				<g>
					<path style="fill:#263238;" d="M83.57,70.829c0.171-1.242,1.716-6.184,2.115-7.41c0.391-1.202,2.164-6.093,2.577-7.352
						c0.022-0.068,0.127-0.057,0.104,0.013c-0.388,1.253-1.773,6.264-2.159,7.494c-0.388,1.234-1.988,6.142-2.572,7.272
						C83.615,70.885,83.565,70.868,83.57,70.829z"/>
				</g>
				<path style="opacity:0.1;fill:#040303;" d="M80.611,70.464c-4.96-2.145-11.575-5.214-13.079-6.918
					c-3.129-3.523-3.517-25.685-2.922-30.299c0.854-6.67,3.722-6.428,5.432-3.844L80.611,70.464z"/>
			</g>
			<g>
				<g>
					<path style="fill:#FFC829;" d="M66.088,64.895l2.51-12.658c0,0,4.437-1.568,4.38-7.321c-0.026-2.647-1.277-12.999-4.263-17.087
						c-2.801-3.835-7.303-2.899-10.009-1.568c-5.298,2.609-12.828,9.938-22.379,25.427L66.088,64.895z"/>
				</g>
				<g>
					<path style="fill:#263238;" d="M61.352,47.908c1.209,0.497,2.408,1.055,3.521,1.808c0.554,0.375,1.087,0.785,1.615,1.214
						c0.263,0.214,0.532,0.414,0.803,0.611c0.278,0.204,0.58,0.404,0.898,0.499c0.028,0.009,0.012,0.071-0.016,0.065
						c-0.317-0.066-0.619-0.13-0.92-0.255c-0.287-0.119-0.56-0.283-0.826-0.458c-0.564-0.372-1.114-0.783-1.675-1.163
						c-1.134-0.768-2.267-1.533-3.452-2.176C61.246,48.023,61.295,47.884,61.352,47.908z"/>
					<path style="fill:#263238;" d="M57.858,48.727c1.068,0.107,2.139,0.287,3.17,0.563c0.52,0.139,1.025,0.319,1.526,0.521
						c0.239,0.096,0.477,0.198,0.712,0.305c0.26,0.116,0.503,0.285,0.764,0.397c0.027,0.011,0.012,0.074-0.016,0.064
						c-0.25-0.094-0.52-0.129-0.776-0.202c-0.257-0.073-0.513-0.15-0.77-0.224c-0.515-0.147-1.032-0.287-1.545-0.441
						c-1.028-0.309-2.056-0.603-3.097-0.861C57.771,48.834,57.803,48.721,57.858,48.727z"/>
				</g>
			</g>
			<g>
				<g>
					<path style="fill:#F7A9A0;" d="M56.1,30.864c-2.751,10.287-4.666,29.605-3.128,33.081c1.362,3.079,13.611,8.578,19.24,10.563
						c2.105,0.744,7.011-15.776,4.744-16.526c-2.721-0.898-10.667-3.839-10.923-4.548c-0.281-0.779-1.649-13.859-3.315-22.142
						C61.207,23.785,57.14,26.974,56.1,30.864z"/>
					<g>
						<path style="fill:#F7A9A0;" d="M84.472,59.852c4.845,1.946,5.79,3.189,10.75,2.66c3.256-0.347,4.875,1.582,2.045,3.477
							c-4.627,3.099-11.405,1.902-13.636,0.81L84.472,59.852z"/>
						<g>
							<g>
								<path style="fill:#FFC829;" d="M73.069,90.53l9.417-11.514c0.994-1.215,2.644-1.221,3.683-0.012l0,0
									c0.582,0.676,0.851,1.625,0.79,2.58c-0.12,1.865,0.44,3.792,1.663,5.213c2.174,2.526,5.614,2.514,7.686-0.021
									c2.074-2.534,1.996-6.632-0.178-9.158c-1.223-1.421-2.854-2.04-4.415-1.85c-0.799,0.098-1.602-0.199-2.184-0.875l0,0
									c-1.04-1.208-1.077-3.173-0.083-4.389l7.394-11.422l2.025-0.091l9.851,11.447c1.04,1.209,2.69,1.204,3.684-0.012l0,0
									c0.557-0.68,0.789-1.631,0.691-2.584c-0.191-1.864,0.297-3.795,1.466-5.224c2.078-2.541,5.517-2.552,7.686-0.032
									c2.168,2.52,2.246,6.619,0.169,9.158c-1.17,1.429-2.777,2.059-4.345,1.879c-0.803-0.092-1.594,0.21-2.15,0.889l0,0
									c-0.995,1.214-0.958,3.18,0.082,4.389l9.853,11.447l-9.418,11.513c-0.995,1.215-2.643,1.222-3.684,0.013l0,0
									c-0.582-0.676-0.85-1.626-0.788-2.581c0.12-1.864-0.44-3.792-1.664-5.211c-2.173-2.527-5.613-2.515-7.686,0.02
									c-2.074,2.535-1.996,6.632,0.178,9.158c1.222,1.421,2.854,2.04,4.415,1.849c0.799-0.097,1.602,0.199,2.184,0.875l0,0
									c1.04,1.208,1.077,3.173,0.083,4.389l-9.417,11.512l-2.024,0.09l-7.829-11.537c-1.04-1.208-2.689-1.203-3.683,0.012l0,0
									c-0.557,0.679-0.789,1.631-0.692,2.584c0.19,1.865-0.297,3.795-1.465,5.225c-2.078,2.54-5.517,2.551-7.686,0.031
									c-2.17-2.521-2.247-6.619-0.169-9.157c1.169-1.43,2.776-2.06,4.344-1.88c0.803,0.091,1.595-0.209,2.151-0.889l0,0
									c0.994-1.216,0.957-3.18-0.083-4.389L73.069,90.53z"/>
								<path style="opacity:0.1;fill:#040303;" d="M73.069,90.53l9.417-11.514c0.994-1.215,2.644-1.221,3.683-0.012l0,0
									c0.582,0.676,0.851,1.625,0.79,2.58c-0.12,1.865,0.44,3.792,1.663,5.213c2.174,2.526,5.614,2.514,7.686-0.021
									c2.074-2.534,1.996-6.632-0.178-9.158c-1.223-1.421-2.854-2.04-4.415-1.85c-0.799,0.098-1.602-0.199-2.184-0.875l0,0
									c-1.04-1.208-1.077-3.173-0.083-4.389l7.394-11.422l2.025-0.091l9.851,11.447c1.04,1.209,2.69,1.204,3.684-0.012l0,0
									c0.557-0.68,0.789-1.631,0.691-2.584c-0.191-1.864,0.297-3.795,1.466-5.224c2.078-2.541,5.517-2.552,7.686-0.032
									c2.168,2.52,2.246,6.619,0.169,9.158c-1.17,1.429-2.777,2.059-4.345,1.879c-0.803-0.092-1.594,0.21-2.15,0.889l0,0
									c-0.995,1.214-0.958,3.18,0.082,4.389l9.853,11.447l-9.418,11.513c-0.995,1.215-2.643,1.222-3.684,0.013l0,0
									c-0.582-0.676-0.85-1.626-0.788-2.581c0.12-1.864-0.44-3.792-1.664-5.211c-2.173-2.527-5.613-2.515-7.686,0.02
									c-2.074,2.535-1.996,6.632,0.178,9.158c1.222,1.421,2.854,2.04,4.415,1.849c0.799-0.097,1.602,0.199,2.184,0.875l0,0
									c1.04,1.208,1.077,3.173,0.083,4.389l-9.417,11.512l-2.024,0.09l-7.829-11.537c-1.04-1.208-2.689-1.203-3.683,0.012l0,0
									c-0.557,0.679-0.789,1.631-0.692,2.584c0.19,1.865-0.297,3.795-1.465,5.225c-2.078,2.54-5.517,2.551-7.686,0.031
									c-2.17-2.521-2.247-6.619-0.169-9.157c1.169-1.43,2.776-2.06,4.344-1.88c0.803,0.091,1.595-0.209,2.151-0.889l0,0
									c0.994-1.216,0.957-3.18-0.083-4.389L73.069,90.53z"/>
							</g>
							<path style="fill:#FFC829;" d="M71.044,90.62l9.419-11.513c0.993-1.215,2.643-1.221,3.683-0.013l0,0
								c0.583,0.676,0.851,1.626,0.789,2.58c-0.119,1.865,0.44,3.792,1.665,5.213c2.173,2.525,5.612,2.514,7.686-0.021
								c2.073-2.534,1.996-6.633-0.178-9.158c-1.224-1.421-2.854-2.04-4.415-1.849c-0.798,0.097-1.602-0.198-2.185-0.875l0,0
								c-1.04-1.208-1.077-3.173-0.083-4.389l9.418-11.512l9.853,11.447c1.04,1.208,2.688,1.203,3.684-0.013l0,0
								c0.556-0.68,0.788-1.632,0.69-2.585c-0.191-1.864,0.297-3.794,1.466-5.223c2.078-2.541,5.517-2.552,7.686-0.032
								c2.169,2.52,2.247,6.619,0.169,9.158c-1.168,1.43-2.776,2.06-4.344,1.879c-0.803-0.092-1.594,0.209-2.151,0.889l0,0
								c-0.994,1.215-0.958,3.18,0.083,4.389l9.852,11.448l-9.418,11.512c-0.994,1.215-2.643,1.222-3.683,0.013l0,0
								c-0.583-0.677-0.851-1.625-0.789-2.581c0.119-1.864-0.44-3.792-1.664-5.213c-2.174-2.525-5.613-2.514-7.686,0.021
								c-2.073,2.535-1.996,6.632,0.178,9.158c1.223,1.422,2.854,2.04,4.415,1.85c0.799-0.099,1.603,0.198,2.184,0.874l0,0
								c1.041,1.209,1.078,3.174,0.083,4.39l-9.417,11.512L88.18,110.53c-1.04-1.208-2.689-1.203-3.684,0.012l0,0
								c-0.556,0.68-0.788,1.631-0.69,2.584c0.19,1.865-0.297,3.795-1.466,5.224c-2.078,2.54-5.518,2.552-7.687,0.031
								c-2.169-2.521-2.246-6.619-0.168-9.157c1.168-1.43,2.776-2.06,4.344-1.88c0.802,0.093,1.594-0.209,2.15-0.889l0,0
								c0.994-1.215,0.957-3.18-0.083-4.389L71.044,90.62z"/>
						</g>
						<g>
							<path style="fill:#F7A9A0;" d="M70.078,57.344c0,0,6.646,0.088,12.014,1.65c3.713,1.081,11.527,4.333,14.379,15.514
								c0.677,2.653-0.24,6.913-2.919,2.982c-1.902-2.792-2.265-5.137-3.667-6.56c0,0-1.81,5.279-4.493,5.853
								c-1.2,0.257-4.49,0.88-7.12,1c0,0-0.179-0.565-0.306-1.315c0,0-2.558,0.299-5.754-1.96L70.078,57.344z"/>
						</g>
						<g>
							<path style="fill:#F7A9A0;" d="M85.47,60.593c1.094,1.706,3.351,5.361,4.157,8.993c0.896,4.034,1.533,12.046-1.452,12.677
								c-2.188,0.462-2.701-2.575-2.701-2.575s-0.434,3.367-2.503,3.352c-1.884-0.013-2.14-2.387-2.14-2.387
								s-0.615,1.997-2.428,1.634c-2.18-0.436-0.534-4.551-2.361-6.901C75.631,74.858,85.47,60.593,85.47,60.593z"/>
							<g>
								<g>
									<path style="fill:#263238;" d="M85.206,69.821c0.766,1.773,1.47,6.246,0.333,9.81c-0.026,0.081-0.101,0.104-0.093,0.026
										c0.42-4.19,0.002-8.155-0.277-9.827C85.165,69.807,85.198,69.801,85.206,69.821z"/>
								</g>
								<g>
									<path style="fill:#263238;" d="M81.16,70.843c0.503,1.598,1.023,6.241-0.253,9.812c-0.029,0.081-0.106,0.1-0.095,0.021
										c0.619-4.359,0.487-8.14,0.309-9.827C81.12,70.826,81.154,70.822,81.16,70.843z"/>
								</g>
							</g>
						</g>
					</g>
					<g>
						<path style="fill:#263238;" d="M85.333,60.221c0,0,0.308,0.122,0.846,0.334c0.535,0.22,1.309,0.512,2.238,0.848
							c0.927,0.334,2.031,0.689,3.224,0.905c0.603,0.118,1.19,0.115,1.849,0.053c0.648-0.047,1.31-0.101,1.98-0.12
							c0.669-0.007,1.349,0.006,2.022,0.168c0.333,0.084,0.677,0.21,0.962,0.459c0.295,0.238,0.452,0.649,0.452,0.986
							c0.003,0.761-0.451,1.295-0.862,1.701c-0.429,0.408-0.892,0.708-1.33,0.958c-0.88,0.496-1.688,0.736-2.249,0.883
							c-0.566,0.139-0.898,0.163-0.898,0.163s0.325-0.07,0.87-0.257c0.544-0.185,1.303-0.517,2.131-1.033
							c0.41-0.263,0.839-0.577,1.214-0.974c0.365-0.388,0.701-0.904,0.689-1.413c0.006-0.562-0.487-0.894-1.09-1.02
							c-0.597-0.135-1.253-0.138-1.902-0.125c-0.652,0.008-1.31,0.05-1.96,0.086c-0.638,0.053-1.341,0.044-1.956-0.091
							c-1.245-0.249-2.327-0.695-3.248-1.07C86.484,60.877,85.333,60.221,85.333,60.221z"/>
					</g>
					<g>
						<path style="fill:#263238;" d="M92.268,65.716c0.661,0.81,1.25,1.678,1.803,2.568c0.555,0.89,1.061,1.813,1.494,2.773
							c0.212,0.482,0.421,0.966,0.601,1.464c0.182,0.496,0.353,0.999,0.484,1.514c0.274,1.022,0.477,2.098,0.354,3.206
							c-0.071,0.548-0.187,1.118-0.569,1.634c-0.186,0.253-0.5,0.485-0.873,0.536c-0.371,0.042-0.708-0.083-0.969-0.24
							c-0.524-0.328-0.875-0.771-1.194-1.215c-0.317-0.446-0.576-0.926-0.805-1.394c-0.464-0.963-0.878-1.9-1.359-2.817
							c-0.478-0.913-1.001-1.797-1.606-2.616l0.581-0.254c0.3,1.968,0.41,3.945,0.361,5.93c-0.031,0.99-0.127,1.987-0.38,2.954
							c-0.127,0.481-0.292,0.959-0.545,1.393c-0.126,0.215-0.274,0.423-0.463,0.588c-0.178,0.178-0.402,0.297-0.629,0.389
							c0.218-0.114,0.422-0.251,0.577-0.44c0.166-0.176,0.287-0.389,0.394-0.603c0.212-0.434,0.337-0.906,0.426-1.381
							c0.173-0.955,0.194-1.933,0.191-2.905c-0.021-1.948-0.277-3.899-0.576-5.816l-0.199-1.276l0.78,1.022
							c0.649,0.851,1.204,1.759,1.708,2.687c0.502,0.924,0.948,1.891,1.403,2.8c0.236,0.466,0.459,0.915,0.744,1.323
							c0.277,0.405,0.598,0.794,0.961,1.025c0.377,0.231,0.68,0.213,0.936-0.115c0.254-0.323,0.387-0.81,0.45-1.287
							c0.059-0.49,0.052-0.979-0.005-1.487c-0.076-0.494-0.137-1.005-0.258-1.502c-0.103-0.501-0.247-0.996-0.403-1.486
							c-0.153-0.492-0.336-0.974-0.523-1.457C94.366,69.322,93.409,67.465,92.268,65.716z"/>
					</g>
				</g>
				<g>
					<path style="fill:#FFC829;" d="M69.534,76.323l7.131-18.979l-10.086-4.219c-0.913-6.386-2.739-19.154-4.032-23.475
						c-1.519-5.068-5.136-4.346-6.718,0.808c-3.616,11.788-4.838,31.724-3.573,34.534C54.07,69.02,69.534,76.323,69.534,76.323z"/>
					<g>
						<path style="fill:#263238;" d="M67.321,72.813c0.222-1.25,1.98-6.194,2.432-7.422c0.442-1.202,2.428-6.087,2.896-7.346
							c0.026-0.069,0.131-0.052,0.106,0.018c-0.442,1.253-2.041,6.275-2.48,7.506c-0.441,1.234-2.253,6.144-2.889,7.266
							C67.364,72.873,67.314,72.854,67.321,72.813z"/>
						<g>
							<g>
								<path style="fill:#263238;" d="M63.032,72.982c0,0-0.583-0.319-1.603-0.877c-1.013-0.571-2.449-1.407-4.128-2.486
									c-0.838-0.542-1.739-1.143-2.653-1.839c-0.455-0.352-0.914-0.725-1.361-1.139c-0.438-0.425-0.899-0.853-1.208-1.48
									c-0.493-1.223-0.581-2.56-0.652-3.866c-0.042-1.319-0.013-2.655,0.044-3.988c0.109-2.666,0.379-5.316,0.685-7.791
									c0.286-2.478,0.638-4.778,0.969-6.745c0.641-3.937,1.237-6.53,1.237-6.53s-0.308,2.638-0.769,6.596
									c-0.222,1.977-0.48,4.284-0.757,6.755c-0.253,2.473-0.491,5.112-0.67,7.75c-0.077,1.32-0.125,2.641-0.104,3.935
									c0.021,1.292,0.048,2.578,0.443,3.693c0.229,0.503,0.665,0.952,1.076,1.362c0.422,0.41,0.865,0.787,1.306,1.144
									c0.884,0.709,1.752,1.347,2.567,1.915c1.63,1.138,3.039,2.018,4.022,2.636C62.466,72.635,63.032,72.982,63.032,72.982z"/>
							</g>
							<g>
								<path style="fill:#263238;" d="M53.854,39.229c0,0-0.046-0.122-0.092-0.307c-0.043-0.186-0.077-0.436-0.092-0.688
									c0.006-0.254-0.006-0.502,0.051-0.698c0.046-0.191,0.09-0.307,0.09-0.307s0.028,0.134,0.05,0.318
									c0.012,0.179,0.047,0.432,0.058,0.678c-0.003,0.248,0.007,0.498-0.018,0.687C53.879,39.101,53.854,39.229,53.854,39.229z"/>
							</g>
						</g>
						<g>
							<g>
								<path style="fill:#263238;" d="M64.398,39.443c0.259,1.002,0.415,2.028,0.608,3.043l0.499,3.061
									c0.333,2.039,0.605,4.09,0.976,6.114l0.143,0.753l0.085,0.362c0.014,0.075,0.03,0.093,0.034,0.119l0.003,0.047
									c-0.051-0.031,0.035,0.018,0.045,0.022c0.454,0.263,0.91,0.445,1.366,0.653l2.835,1.22c1.896,0.821,3.795,1.637,5.682,2.486
									l0.019,0.008l-0.007,0.017l-0.199,0.474l0.162-0.488l0.011,0.025c-1.956-0.677-3.892-1.403-5.819-2.152
									c-0.969-0.374-1.911-0.769-2.882-1.177c-0.488-0.214-0.992-0.42-1.437-0.668c-0.171-0.051-0.247-0.354-0.281-0.455
									l-0.098-0.392l-0.148-0.769c-0.331-2.05-0.616-4.096-0.861-6.149l-0.36-3.08C64.655,41.493,64.579,40.46,64.398,39.443z"/>
							</g>
							<g>
								<path style="fill:#263238;" d="M64.952,39.993c0,0,0.032,0.127,0.056,0.317c0.021,0.19,0.026,0.443,0.01,0.696
									c-0.036,0.252-0.053,0.501-0.132,0.689c-0.068,0.185-0.125,0.295-0.125,0.295s-0.012-0.137-0.013-0.322
									c0.009-0.18,0.003-0.436,0.021-0.683c0.033-0.247,0.052-0.497,0.099-0.682C64.912,40.117,64.952,39.993,64.952,39.993z"/>
							</g>
						</g>
					</g>
				</g>
			</g>
			<g>
				<path style="fill:#F7A9A0;" d="M59.689,25.831c0,0,4.276,10.41,8.414,10.896c3.095,0.363,2.641-5.96,2.641-5.96
					S67.868,22.413,59.689,25.831z"/>
				<g>
					<g>
						<path style="fill:#F7A9A0;" d="M63.889,26.512c-0.089,0.67,1.279,5.876,4.315,6.587c1.581,0.371,2.69-4.587,2.69-4.587
							l0.223-0.338l3.125-4.74l-4.602-6.214l-0.682-0.851c0,0-0.77,1.353-1.712,3.047c-0.044,0.079-0.087,0.157-0.134,0.242
							c-0.055,0.094-0.11,0.182-0.158,0.274c-0.143,0.25-0.288,0.508-0.429,0.767c-0.107,0.197-0.213,0.389-0.318,0.599
							c-0.11,0.208-0.214,0.414-0.326,0.623C64.834,24.002,63.932,26.229,63.889,26.512z"/>
						<path style="fill:#263238;" d="M67.247,19.416c-0.081,4.686,2.574,7.617,3.871,8.758l3.125-4.74l-4.602-6.214l-0.682-0.851
							C68.958,16.369,68.188,17.722,67.247,19.416z"/>
					</g>
					<g>
						<path style="fill:#F7A9A0;" d="M84.791,18.808c-2.942,9.52-8.976,8.833-11.029,8.196c-1.862-0.578-8.132-2.782-6.19-12.555
							C69.514,4.676,74.87,3.034,79.201,4.131C83.532,5.227,87.732,9.288,84.791,18.808z"/>
						<g>
							<path style="fill:#263238;" d="M83.48,17.559c-0.209-0.109-0.384-0.245-0.578-0.374c-0.22-0.146-0.411-0.239-0.517-0.493
								c-0.057-0.137,0.027-0.337,0.155-0.404c0.296-0.158,0.61-0.046,0.883,0.118c0.295,0.178,0.476,0.392,0.593,0.717
								C84.129,17.437,83.755,17.702,83.48,17.559z"/>
							<path style="fill:#263238;" d="M77.563,14.257c0.223,0.078,0.44,0.112,0.668,0.166c0.257,0.062,0.456,0.137,0.714,0.04
								c0.138-0.052,0.225-0.25,0.188-0.39c-0.087-0.324-0.384-0.477-0.69-0.563c-0.333-0.093-0.612-0.08-0.929,0.058
								C77.208,13.701,77.271,14.155,77.563,14.257z"/>
							<g>
								<g>
									<path style="fill:#263238;" d="M77.938,17.043c0.005-0.026-0.061,0.01-0.07,0.037c-0.225,0.641-0.59,1.335-1.244,1.324
										c-0.021-0.001-0.031,0.032-0.008,0.037C77.353,18.614,77.829,17.685,77.938,17.043z"/>
									<path style="fill:#263238;" d="M77.63,16.163c-0.987-0.471-1.858,1.539-0.943,1.976
										C77.587,18.568,78.458,16.558,77.63,16.163z"/>
								</g>
								<path style="fill:#263238;" d="M77.189,16.098c-0.225,0.038-0.483,0.164-0.705,0.094c-0.255-0.082-0.349-0.373-0.421-0.645
									c-0.007-0.028-0.033-0.018-0.045,0.009c-0.172,0.382-0.195,0.842,0.193,1.078c0.354,0.216,0.772-0.009,1.037-0.354
									C77.297,16.216,77.281,16.083,77.189,16.098z"/>
							</g>
							<g>
								<g>
									<path style="fill:#263238;" d="M81.507,18.679c0.016-0.021,0.035,0.051,0.023,0.076c-0.299,0.608-0.539,1.357-0.073,1.816
										c0.015,0.014-0.001,0.044-0.021,0.032C80.798,20.198,81.126,19.208,81.507,18.679z"/>
									<path style="fill:#263238;" d="M82.352,18.283c1.029,0.375,0.204,2.404-0.749,2.057
										C80.666,19.998,81.49,17.968,82.352,18.283z"/>
								</g>
								<path style="fill:#263238;" d="M82.707,18.552c0.13,0.187,0.222,0.46,0.427,0.568c0.238,0.125,0.511-0.012,0.755-0.151
									c0.025-0.014,0.037,0.011,0.025,0.038c-0.152,0.391-0.464,0.729-0.904,0.618c-0.402-0.102-0.535-0.557-0.473-0.988
									C82.548,18.558,82.654,18.477,82.707,18.552z"/>
							</g>
							<path style="fill:#263238;" d="M75.715,21.722c0.054,0.221,0.073,0.493,0.271,0.642c0.19,0.142,0.48,0.2,0.708,0.244
								c0.023,0.004,0.029,0.036,0.007,0.045c-0.288,0.127-0.689,0.067-0.925-0.147c-0.231-0.208-0.219-0.514-0.132-0.792
								C75.656,21.674,75.708,21.69,75.715,21.722z"/>
							<g>
								<path style="fill:#263238;" d="M79.203,20.94c0,0-0.368,0.955-0.598,1.374c-0.022,0.04-0.134,0.002-0.28-0.068
									c-0.008-0.001-0.014,0-0.017-0.008c-0.803-0.293-1.406-0.959-1.522-1.811c-0.006-0.057,0.071-0.071,0.094-0.023
									c0.328,0.709,0.88,1.15,1.529,1.523c0.093-0.099,0.575-1.657,0.644-1.625c0.24,0.107,0.605,0.511,0.832,0.74
									c0.823-1.966,1.323-4.049,2.172-5.996c0.032-0.069,0.138-0.036,0.125,0.034c-0.371,2.22-1.268,4.504-2.066,6.557
									C80.019,21.895,79.332,21.104,79.203,20.94z"/>
							</g>
						</g>
						<g>
							<g>
								<path style="fill:#263238;" d="M67.852,14.432c1.59,1.036,3.906-2.634,3.906-2.634s7.81,2.276,11.271-3.303
									c0,0-0.58,4.345,2.378,7.874c0,0,2.872-6.565-1.628-10.292c0,0-5.22-5.38-11.221-2.079
									C66.556,7.298,66.785,13.737,67.852,14.432z"/>
							</g>
							<path style="fill:#263238;" d="M83.265,8.073c-0.337,0.942-0.915,1.8-1.622,2.526c-0.708,0.727-1.563,1.33-2.513,1.712
								c-0.229,0.114-0.483,0.166-0.724,0.251l-0.364,0.116c-0.125,0.028-0.25,0.05-0.376,0.072
								c-0.25,0.042-0.501,0.094-0.753,0.126c-0.254,0.016-0.507,0.025-0.76,0.032c-0.126,0.003-0.253,0.012-0.379,0.009
								l-0.378-0.031l-0.752-0.063c-0.495-0.09-0.984-0.206-1.466-0.327c0.502,0.02,0.993,0.09,1.485,0.104l0.739-0.001h0.368
								c0.122-0.008,0.243-0.027,0.365-0.041c0.243-0.029,0.485-0.057,0.727-0.079c0.24-0.041,0.476-0.101,0.713-0.151l0.356-0.076
								l0.344-0.115c0.226-0.085,0.466-0.135,0.681-0.246c0.904-0.352,1.713-0.908,2.447-1.544c0.366-0.322,0.702-0.679,1.013-1.06
								C82.734,8.912,83.013,8.504,83.265,8.073z"/>
						</g>
						<g>
							<g>
								<path style="fill:#F7A9A0;" d="M69.159,15.032c0,0-0.842-3.701-2.442-3.514c-1.599,0.187-1.783,4.979-0.48,6.174
									c1.302,1.195,2.433,0.012,2.433,0.012L69.159,15.032z"/>
								<path style="fill:#263238;" d="M66.699,12.893c-0.024-0.012-0.042,0.021-0.025,0.038c0.898,0.874,1.059,2.102,1.036,3.297
									c-0.159-0.528-0.505-0.923-1.194-0.76c-0.035,0.009-0.027,0.063,0.006,0.07c0.479,0.084,0.766,0.29,0.921,0.764
									c0.108,0.336,0.124,0.71,0.157,1.061c0.012,0.117,0.206,0.136,0.215,0.009c0-0.008,0-0.019,0.001-0.028
									C68.401,15.984,68.116,13.631,66.699,12.893z"/>
							</g>
						</g>
					</g>
				</g>
			</g>
		</g>
	</g>
</g>
</svg>
