<?xml version="1.0" encoding="utf-8"?>
<!-- Generator: Adobe Illustrator 16.0.0, SVG Export Plug-In . SVG Version: 6.00 Build 0)  -->
<!DOCTYPE svg PUBLIC "-//W3C//DTD SVG 1.1//EN" "http://www.w3.org/Graphics/SVG/1.1/DTD/svg11.dtd">
<svg version="1.1" id="Layer_1" xmlns="http://www.w3.org/2000/svg" xmlns:xlink="http://www.w3.org/1999/xlink" x="0px" y="0px"
	 width="640px" height="300px" viewBox="0 0 640 300" enable-background="new 0 0 640 300" xml:space="preserve">
<g opacity="0.4">
	<path fill="none" stroke="#FFFFFF" stroke-miterlimit="10" d="M608.053,191.08c0.098-0.297-0.063-0.716-0.475-0.764
		c-21.134-2.492-42.572-3.217-63.819-2.066c-0.032-0.088-0.087-0.178-0.209-0.225c-1.842-0.758-2.797-2.094-2.87-4.014
		c-0.178-1.359,0.395-2.332,1.713-2.92c2.276-2.052,4.439-1.97,7.077-0.16c0.468,0.313,0.916-0.289,0.717-0.717
		c-3.281-6.818-2.02-16.888,6.956-18.166c8.933-1.271,14.25,6.764,15.046,14.627c0.056,0.596,0.973,0.611,0.933,0
		c-0.009-0.128-0.017-0.265-0.032-0.394c2.929-8.491,7.447-19.132,18.095-18.972c5.886,0.099,9.729,5.196,9.811,10.801
		c0.073,5.154-2.582,9.586-5.354,13.728c-0.387,0.572,0.521,1.077,0.916,0.531c0.009-0.009,0.019-0.022,0.024-0.031
		c0.055,0.152,0.233,0.272,0.425,0.16c6.063-3.586,13.318,1.81,11.211,8.628L608.053,191.08z"/>
	<path fill="#B9CEEB" d="M540.229,181.342c1.657-3.168,5.525-3.361,8.452-2.043c-2.637-7.141-0.948-16.51,7.682-18.189
		c8.877-1.729,15.237,5.638,16.541,13.631c2.854-9.23,9.176-20.739,20.588-18.223c4.92,1.088,7.945,5.412,8.499,10.26
		c0.62,5.484-1.929,10.682-5.034,15.039c6.604-4.133,14.523,2.195,12.239,9.627c-0.191,0.627-1.183,0.354-0.988-0.274
		c0.008-0.017,0.008-0.022,0.008-0.039c2.107-6.819-5.146-12.215-11.21-8.629c-0.19,0.113-0.37-0.008-0.425-0.16
		c-0.008,0.009-0.018,0.023-0.023,0.031c-0.396,0.547-1.304,0.041-0.918-0.53c2.773-4.142,5.43-8.572,5.355-13.727
		c-0.081-5.605-3.925-10.703-9.811-10.801c-10.647-0.16-15.167,10.479-18.095,18.971c0.017,0.128,0.022,0.265,0.032,0.395
		c0.04,0.61-0.877,0.596-0.933,0c-0.797-7.865-6.113-15.898-15.046-14.627c-8.976,1.278-10.238,11.346-6.957,18.166
		c0.2,0.426-0.249,1.028-0.716,0.717c-2.639-1.811-4.802-1.892-7.076,0.159c-1.319,0.589-1.892,1.561-1.714,2.921
		c0.072,1.92,1.028,3.256,2.87,4.012c0.121,0.049,0.178,0.138,0.209,0.226c21.247-1.149,42.687-0.425,63.819,2.065
		c0.41,0.049,0.571,0.468,0.475,0.765c-0.056,0.178-0.217,0.306-0.475,0.281c-21.343-2.229-42.669-3.031-64.125-2.509
		c-0.184,0.009-0.273-0.121-0.281-0.266C540.188,187.734,538.773,184.132,540.229,181.342z"/>
</g>
<g opacity="0.4">
	<path fill="none" stroke="#FFFFFF" stroke-miterlimit="10" d="M414.154,34.949c0.431,1.065,0.041,2.173-0.753,2.911
		c-0.07-0.125-0.195-0.209-0.385-0.202c-15.516,0.794-31.032,1.511-46.563,2.048c0,0,0-0.008-0.007-0.008
		c-2.326-1.065-3.343-4.345-1.608-6.399c1.979-2.347,5.571-1.498,7.347,0.592c0.169,0.202,0.476,0.035,0.494-0.181
		c0.064-0.077,0.077-0.188-0.006-0.286c-3.747-4.366,0.487-10.37,5.224-11.476c5.452-1.275,10.349,2.549,10.577,8.092
		c0.021,0.383,0.468,0.48,0.684,0.285c0.16,0.008,0.327-0.118,0.271-0.327c-1.853-7.354,8.518-12.006,14.389-11.192
		c6.798,0.941,11.113,7.995,6.859,13.95c-0.091,0.126-0.076,0.265-0.015,0.376c-0.048,0.139,0.056,0.327,0.245,0.278
		C412.203,33.11,413.624,33.674,414.154,34.949z"/>
	<path fill="#B9CEEB" d="M366.447,39.698c0.007,0,0.007,0.008,0.007,0.008c15.53-0.537,31.048-1.254,46.563-2.048
		c0.188-0.007,0.313,0.077,0.385,0.202c0.794-0.738,1.184-1.845,0.753-2.911c-0.531-1.274-1.951-1.839-3.246-1.539
		c-0.188,0.048-0.292-0.14-0.244-0.278c-0.063-0.112-0.076-0.25,0.015-0.376c4.254-5.955-0.063-13.009-6.86-13.95
		c-5.87-0.814-16.239,3.838-14.388,11.192c0.056,0.209-0.11,0.334-0.271,0.327c-0.217,0.195-0.662,0.098-0.684-0.285
		c-0.229-5.543-5.125-9.367-10.577-8.092c-4.735,1.107-8.971,7.11-5.225,11.476c0.084,0.099,0.071,0.209,0.007,0.286
		c-0.021,0.216-0.327,0.383-0.494,0.181c-1.774-2.089-5.368-2.939-7.348-0.592C363.104,35.353,364.122,38.633,366.447,39.698z
		 M412.781,38.612c-15.468,0.961-30.963,1.47-46.459,1.623c-0.069,0-0.118-0.021-0.159-0.056c-2.968-0.905-3.887-5.063-1.979-7.389
		c1.699-2.068,4.792-2.103,6.931-0.731c-2.068-4.074,1.504-9.186,5.669-10.663c4.917-1.741,9.986,0.78,11.797,5.216
		c1.064-5.85,10.229-9.479,15.427-8.761c6.991,0.968,12.313,8.886,7.625,14.994c1.295-0.091,2.632,0.593,3.154,1.839
		c0.642,1.511-0.09,3.391-1.546,4.116C413.032,38.904,412.837,38.78,412.781,38.612z"/>
</g>
<g opacity="0.4">
	<g>
		<circle fill="#52909D" cx="214.756" cy="55.994" r="1.265"/>
		<circle fill="#52909D" cx="225.981" cy="3.662" r="2.688"/>
		<circle fill="#52909D" cx="274.518" cy="9.828" r="2.846"/>
		<circle fill="#52909D" cx="185.665" cy="82.557" r="0.949"/>
		<circle fill="#52909D" cx="208.273" cy="254.73" r="2.055"/>
		<circle fill="#52909D" cx="167.325" cy="162.24" r="2.846"/>
		<circle fill="#52909D" cx="572.067" cy="47.457" r="3.162"/>
		<circle fill="#52909D" cx="613.491" cy="60.42" r="0.949"/>
		<circle fill="#52909D" cx="539.657" cy="9.986" r="0.791"/>
		<circle fill="#52909D" cx="620.289" cy="188.959" r="1.739"/>
		<circle fill="#52909D" cx="598.155" cy="231.33" r="2.372"/>
		<circle fill="#52909D" cx="610.803" cy="110.225" r="2.688"/>
		<circle fill="#52909D" cx="394.044" cy="212.518" r="1.265"/>
		<circle fill="#52909D" cx="242.637" cy="285.111" r="1.455"/>
		<circle fill="#52909D" cx="362.362" cy="273.057" r="1.455"/>
		<circle fill="#52909D" cx="604.516" cy="287.813" r="1.663"/>
		<circle fill="#52909D" cx="477.1" cy="291.348" r="2.702"/>
	</g>
	<g>
		<circle fill="none" stroke="#52909D" stroke-miterlimit="10" cx="510.902" cy="23.708" r="3.103"/>
		<circle fill="none" stroke="#52909D" stroke-miterlimit="10" cx="545.168" cy="55.389" r="1.939"/>
		<circle fill="none" stroke="#52909D" stroke-miterlimit="10" cx="501.463" cy="93.664" r="0.646"/>
		<circle fill="none" stroke="#52909D" stroke-miterlimit="10" cx="615.252" cy="89.785" r="2.974"/>
		<circle fill="none" stroke="#52909D" stroke-miterlimit="10" cx="619.777" cy="209.652" r="1.811"/>
		<circle fill="none" stroke="#52909D" stroke-miterlimit="10" cx="383.795" cy="192.713" r="2.198"/>
		<circle fill="none" stroke="#52909D" stroke-miterlimit="10" cx="166.173" cy="181.463" r="2.586"/>
		<circle fill="none" stroke="#52909D" stroke-miterlimit="10" cx="185.31" cy="53.965" r="3.879"/>
		<circle fill="none" stroke="#52909D" stroke-miterlimit="10" cx="206.128" cy="19.701" r="1.94"/>
		<circle fill="none" stroke="#52909D" stroke-miterlimit="10" cx="396.243" cy="292.803" r="4.157"/>
		<circle fill="none" stroke="#52909D" stroke-miterlimit="10" cx="525.946" cy="282.41" r="3.326"/>
		<circle fill="none" stroke="#52909D" stroke-miterlimit="10" cx="288.157" cy="284.904" r="3.326"/>
	</g>
</g>
<g id="Lines_1_">
	<g>
		<path fill="#B9CEEB" d="M226.766,166.121c-0.186-0.188-0.49-0.189-0.679-0.002c-0.188,0.188-0.191,0.492-0.003,0.68
			c0.897,0.902,1.807,1.805,2.73,2.705c0.081,0.08,0.183,0.125,0.287,0.137c0.14,0.015,0.285-0.033,0.392-0.145
			c0.186-0.189,0.183-0.494-0.008-0.678C228.566,167.918,227.658,167.021,226.766,166.121z"/>
		<path fill="#B9CEEB" d="M222.105,161.307c-0.182-0.192-0.485-0.201-0.68-0.021c-0.193,0.185-0.203,0.487-0.021,0.682
			c0.872,0.927,1.758,1.851,2.657,2.779c0.083,0.084,0.188,0.131,0.297,0.144c0.137,0.014,0.278-0.031,0.384-0.136
			c0.19-0.187,0.195-0.489,0.01-0.68C223.856,163.15,222.974,162.23,222.105,161.307z"/>
		<path fill="#B9CEEB" d="M231.55,170.811c-0.193-0.184-0.497-0.174-0.681,0.017c-0.185,0.192-0.176,0.498,0.016,0.682
			c0.919,0.88,1.852,1.759,2.796,2.638c0.079,0.071,0.178,0.114,0.279,0.127c0.145,0.014,0.294-0.037,0.4-0.152
			c0.18-0.193,0.17-0.498-0.025-0.68C233.396,172.564,232.466,171.688,231.55,170.811z"/>
		<path fill="#B9CEEB" d="M205.031,140.698c-0.154-0.217-0.455-0.266-0.67-0.112c-0.216,0.153-0.266,0.455-0.112,0.67
			c0.735,1.032,1.491,2.066,2.27,3.107c0.084,0.112,0.207,0.178,0.336,0.191c0.115,0.012,0.236-0.019,0.335-0.093
			c0.212-0.16,0.257-0.461,0.098-0.674C206.516,142.754,205.764,141.726,205.031,140.698z"/>
		<path fill="#B9CEEB" d="M217.584,156.365c-0.177-0.196-0.479-0.215-0.679-0.039c-0.198,0.177-0.216,0.48-0.041,0.68
			c0.844,0.949,1.703,1.9,2.578,2.854c0.083,0.089,0.193,0.142,0.306,0.151c0.131,0.013,0.268-0.028,0.373-0.125
			c0.196-0.179,0.21-0.485,0.029-0.679C219.279,158.258,218.424,157.311,217.584,156.365z"/>
		<path fill="#B9CEEB" d="M209.892,68.469c-1.266,0.387-2.495,0.818-3.655,1.281c-0.247,0.099-0.368,0.378-0.269,0.624
			c0.068,0.173,0.227,0.284,0.399,0.301c0.074,0.007,0.152-0.003,0.227-0.032c1.136-0.452,2.34-0.875,3.581-1.254
			c0.254-0.078,0.396-0.347,0.319-0.6C210.414,68.536,210.142,68.392,209.892,68.469z"/>
		<path fill="#B9CEEB" d="M201.274,135.165c-0.145-0.223-0.441-0.285-0.667-0.143c-0.224,0.146-0.286,0.441-0.142,0.665
			c0.687,1.061,1.397,2.131,2.132,3.203c0.082,0.121,0.212,0.193,0.348,0.207c0.109,0.011,0.222-0.016,0.319-0.083
			c0.219-0.15,0.275-0.448,0.125-0.667C202.66,137.282,201.955,136.22,201.274,135.165z"/>
		<path fill="#B9CEEB" d="M236.448,175.385c-0.192-0.176-0.498-0.166-0.679,0.033c-0.179,0.195-0.164,0.498,0.032,0.678
			c0.94,0.857,1.892,1.717,2.855,2.57c0.079,0.07,0.174,0.109,0.271,0.119c0.147,0.016,0.301-0.039,0.409-0.158
			c0.176-0.201,0.157-0.504-0.04-0.68C238.334,177.094,237.386,176.238,236.448,175.385z"/>
		<path fill="#B9CEEB" d="M209.024,146.068c-0.162-0.209-0.466-0.247-0.675-0.085c-0.21,0.163-0.248,0.465-0.085,0.675
			c0.777,1.003,1.571,2.01,2.386,3.017c0.084,0.104,0.202,0.164,0.325,0.176c0.122,0.012,0.249-0.021,0.35-0.104
			c0.207-0.167,0.238-0.469,0.071-0.676C210.59,148.067,209.797,147.068,209.024,146.068z"/>
		<path fill="#B9CEEB" d="M213.218,151.289c-0.17-0.205-0.474-0.232-0.677-0.063c-0.204,0.17-0.231,0.474-0.063,0.679
			c0.813,0.976,1.643,1.952,2.489,2.933c0.084,0.098,0.198,0.151,0.315,0.163c0.127,0.013,0.259-0.024,0.362-0.114
			c0.201-0.172,0.223-0.478,0.049-0.679C214.851,153.234,214.026,152.26,213.218,151.289z"/>
		<path fill="#B9CEEB" d="M276.487,206.492c-1.067-0.713-2.125-1.426-3.176-2.143c-0.218-0.148-0.519-0.095-0.669,0.125
			c-0.149,0.219-0.093,0.52,0.126,0.668c1.056,0.719,2.116,1.436,3.185,2.146c0.069,0.045,0.143,0.071,0.219,0.08
			c0.171,0.018,0.345-0.062,0.449-0.214C276.768,206.938,276.708,206.639,276.487,206.492z"/>
		<path fill="#B9CEEB" d="M282.098,210.16c-1.078-0.691-2.148-1.385-3.214-2.084c-0.22-0.141-0.52-0.084-0.666,0.137
			c-0.146,0.223-0.083,0.521,0.139,0.668c1.067,0.699,2.142,1.396,3.222,2.09c0.066,0.041,0.139,0.066,0.211,0.074
			c0.174,0.018,0.352-0.063,0.455-0.219C282.386,210.602,282.322,210.305,282.098,210.16z"/>
		<path fill="#B9CEEB" d="M197.788,129.459c-0.133-0.23-0.429-0.31-0.656-0.176c-0.23,0.132-0.31,0.425-0.178,0.656
			c0.629,1.096,1.286,2.2,1.97,3.308c0.082,0.133,0.217,0.212,0.361,0.227c0.103,0.01,0.208-0.013,0.3-0.069
			c0.227-0.14,0.296-0.437,0.157-0.662C199.063,131.643,198.412,130.549,197.788,129.459z"/>
		<path fill="#B9CEEB" d="M270.943,202.721c-1.053-0.729-2.098-1.463-3.135-2.199c-0.218-0.155-0.518-0.102-0.671,0.117
			c-0.153,0.215-0.102,0.517,0.114,0.668c1.041,0.738,2.089,1.474,3.146,2.205c0.069,0.049,0.146,0.076,0.225,0.084
			c0.168,0.019,0.34-0.055,0.443-0.205C271.216,203.174,271.161,202.873,270.943,202.721z"/>
		<path fill="#B9CEEB" d="M287.771,213.729c-1.09-0.672-2.174-1.348-3.251-2.024c-0.223-0.144-0.521-0.076-0.663,0.149
			s-0.075,0.521,0.149,0.662c1.08,0.683,2.167,1.359,3.259,2.031c0.064,0.041,0.133,0.063,0.204,0.07
			c0.177,0.018,0.358-0.064,0.458-0.225C288.067,214.168,287.997,213.869,287.771,213.729z"/>
		<path fill="#B9CEEB" d="M249.508,186.627c-0.994-0.809-1.98-1.623-2.955-2.438c-0.203-0.166-0.507-0.144-0.678,0.063
			c-0.169,0.201-0.142,0.508,0.061,0.678c0.978,0.816,1.966,1.631,2.963,2.441c0.076,0.064,0.165,0.1,0.256,0.107
			c0.155,0.016,0.315-0.045,0.421-0.177C249.746,187.098,249.714,186.795,249.508,186.627z"/>
		<path fill="#B9CEEB" d="M254.748,190.805c-1.011-0.789-2.013-1.582-3.005-2.375c-0.205-0.164-0.51-0.131-0.676,0.076
			c-0.165,0.209-0.131,0.51,0.076,0.678c0.995,0.793,1.999,1.586,3.014,2.379c0.073,0.06,0.16,0.09,0.247,0.101
			c0.158,0.017,0.322-0.047,0.428-0.185C254.994,191.271,254.957,190.969,254.748,190.805z"/>
		<path fill="#B9CEEB" d="M265.469,198.854c-1.039-0.752-2.071-1.504-3.095-2.26c-0.212-0.158-0.515-0.113-0.671,0.103
			c-0.159,0.215-0.112,0.514,0.102,0.67c1.026,0.76,2.061,1.514,3.103,2.266c0.071,0.054,0.152,0.08,0.234,0.089
			c0.165,0.018,0.333-0.054,0.438-0.197C265.734,199.307,265.685,199.008,265.469,198.854z"/>
		<path fill="#B9CEEB" d="M260.071,194.881c-1.027-0.77-2.043-1.541-3.052-2.316c-0.211-0.159-0.512-0.121-0.674,0.091
			c-0.162,0.211-0.123,0.512,0.089,0.674c1.011,0.774,2.032,1.551,3.059,2.321c0.074,0.056,0.156,0.084,0.241,0.093
			c0.163,0.018,0.328-0.05,0.433-0.188C260.326,195.342,260.283,195.041,260.071,194.881z"/>
		<path fill="#B9CEEB" d="M241.452,179.842c-0.198-0.17-0.502-0.152-0.679,0.049c-0.173,0.197-0.154,0.504,0.047,0.678
			c0.96,0.834,1.93,1.673,2.913,2.507c0.077,0.065,0.168,0.102,0.263,0.108c0.153,0.017,0.309-0.039,0.415-0.166
			c0.171-0.203,0.148-0.506-0.055-0.678C243.376,181.51,242.409,180.678,241.452,179.842z"/>
		<path fill="#B9CEEB" d="M194.639,123.567c-0.118-0.238-0.405-0.334-0.645-0.217c-0.237,0.118-0.335,0.406-0.218,0.646
			c0.557,1.125,1.152,2.274,1.771,3.419c0.079,0.147,0.222,0.236,0.375,0.251c0.093,0.009,0.189-0.008,0.277-0.056
			c0.233-0.126,0.319-0.419,0.194-0.652C195.78,125.822,195.189,124.682,194.639,123.567z"/>
		<path fill="#B9CEEB" d="M457.828,222.461c0.14,1.275,0.221,2.545,0.238,3.773c0.006,0.248,0.192,0.449,0.432,0.473
			c0.02,0.002,0.039,0.004,0.057,0.004c0.268-0.004,0.479-0.223,0.476-0.488c-0.021-1.26-0.103-2.561-0.244-3.865
			c-0.029-0.264-0.266-0.45-0.53-0.426C457.99,221.961,457.799,222.199,457.828,222.461z"/>
		<path fill="#B9CEEB" d="M453.684,206.9c0.069,0.172,0.228,0.281,0.396,0.299c0.076,0.008,0.154-0.006,0.229-0.035
			c0.246-0.098,0.366-0.381,0.267-0.627c-0.474-1.168-0.987-2.359-1.526-3.539c-0.109-0.24-0.396-0.344-0.638-0.236
			c-0.242,0.111-0.349,0.396-0.237,0.637C452.707,204.563,453.215,205.742,453.684,206.9z"/>
		<path fill="#B9CEEB" d="M447.787,194.924c0.081,0.143,0.221,0.225,0.369,0.24c0.098,0.01,0.196-0.01,0.288-0.063
			c0.229-0.132,0.31-0.427,0.177-0.656c-0.629-1.096-1.286-2.199-1.971-3.307c-0.14-0.229-0.437-0.298-0.662-0.158
			c-0.227,0.141-0.296,0.436-0.158,0.662C446.51,192.744,447.162,193.84,447.787,194.924z"/>
		<path fill="#B9CEEB" d="M444.301,189.221c0.084,0.127,0.216,0.203,0.356,0.217c0.105,0.013,0.214-0.014,0.31-0.071
			c0.225-0.146,0.285-0.443,0.144-0.666c-0.688-1.062-1.398-2.132-2.136-3.203c-0.147-0.22-0.448-0.272-0.668-0.125
			c-0.219,0.149-0.274,0.448-0.125,0.668C442.912,187.105,443.618,188.168,444.301,189.221z"/>
		<path fill="#B9CEEB" d="M437.304,177.732c-0.326-0.422-0.648-0.836-0.982-1.258l-0.283,1.194c0.17,0.217,0.34,0.435,0.506,0.651
			c0.084,0.109,0.206,0.171,0.332,0.185c0.119,0.013,0.24-0.021,0.342-0.1C437.43,178.244,437.467,177.943,437.304,177.732z"/>
		<path fill="#B9CEEB" d="M188.17,104.73c-0.044-0.261-0.296-0.434-0.555-0.394c-0.262,0.046-0.438,0.294-0.394,0.556
			c0.211,1.236,0.477,2.51,0.792,3.786c0.049,0.202,0.221,0.344,0.418,0.363c0.053,0.005,0.108,0.002,0.164-0.011
			c0.257-0.063,0.415-0.324,0.351-0.582C188.637,107.195,188.376,105.943,188.17,104.73z"/>
		<path fill="#B9CEEB" d="M187.11,95.755c0.266,0.017,0.495-0.183,0.512-0.449c0.024-0.356,0.054-0.713,0.089-1.064
			c0.092-0.912,0.222-1.813,0.389-2.68c0.05-0.261-0.121-0.514-0.382-0.563c-0.264-0.046-0.512,0.119-0.563,0.382
			c-0.171,0.895-0.307,1.825-0.401,2.765c-0.036,0.362-0.068,0.728-0.092,1.096c-0.017,0.26,0.175,0.486,0.431,0.512
			C187.1,95.754,187.105,95.754,187.11,95.755z"/>
		<path fill="#B9CEEB" d="M189.694,111.197c-0.078-0.255-0.347-0.397-0.598-0.324c-0.255,0.076-0.399,0.344-0.324,0.599
			c0.357,1.198,0.762,2.431,1.207,3.667c0.064,0.18,0.226,0.297,0.405,0.315c0.068,0.007,0.142,0,0.211-0.025
			c0.25-0.091,0.378-0.367,0.29-0.616C190.446,113.594,190.046,112.378,189.694,111.197z"/>
		<path fill="#B9CEEB" d="M187.777,101.915c-0.138-1.281-0.215-2.552-0.231-3.774c-0.003-0.266-0.229-0.479-0.488-0.476
			c-0.266,0.004-0.479,0.223-0.475,0.488c0.017,1.253,0.096,2.554,0.237,3.865c0.024,0.231,0.208,0.404,0.429,0.427
			c0.032,0.003,0.066,0.005,0.1-0.001C187.615,102.417,187.806,102.179,187.777,101.915z"/>
		<path fill="#B9CEEB" d="M197.759,74.426c-1.051,0.789-2.046,1.643-2.954,2.536c-0.188,0.186-0.192,0.49-0.005,0.68
			c0.081,0.083,0.186,0.13,0.294,0.141c0.137,0.014,0.279-0.032,0.385-0.136c0.878-0.863,1.839-1.688,2.857-2.453
			c0.213-0.159,0.255-0.46,0.095-0.673C198.273,74.308,197.97,74.268,197.759,74.426z"/>
		<path fill="#B9CEEB" d="M191.904,117.483c-0.101-0.249-0.381-0.364-0.625-0.266c-0.246,0.1-0.366,0.379-0.266,0.625
			c0.474,1.174,0.986,2.366,1.525,3.543c0.073,0.161,0.225,0.261,0.389,0.278c0.083,0.008,0.168-0.003,0.247-0.04
			c0.241-0.109,0.35-0.396,0.238-0.637C192.88,119.822,192.374,118.644,191.904,117.483z"/>
		<path fill="#B9CEEB" d="M219.344,67.38c0.037,0.004,0.076,0.004,0.115-0.002c1.024-0.143,2.077-0.267,3.138-0.372l0.843-0.952
			c-0.081-0.045-0.181-0.075-0.28-0.066c-1.296,0.117-2.585,0.263-3.834,0.438c-0.263,0.037-0.446,0.28-0.41,0.542
			C218.946,67.192,219.126,67.359,219.344,67.38z"/>
		<path fill="#B9CEEB" d="M188.168,89.139c0.03,0.008,0.06,0.014,0.089,0.017c0.226,0.021,0.441-0.116,0.509-0.341
			c0.359-1.213,0.805-2.398,1.322-3.523c0.111-0.241,0.006-0.527-0.236-0.638c-0.241-0.112-0.526-0.006-0.637,0.236
			c-0.538,1.165-0.998,2.395-1.372,3.651C187.768,88.796,187.914,89.063,188.168,89.139z"/>
		<path fill="#B9CEEB" d="M200.374,73.67c0.102,0.01,0.208-0.012,0.302-0.07c1.042-0.647,2.158-1.257,3.316-1.814
			c0.239-0.116,0.339-0.403,0.225-0.643c-0.116-0.24-0.405-0.338-0.642-0.225c-1.188,0.572-2.335,1.2-3.406,1.864
			c-0.226,0.14-0.295,0.436-0.155,0.662C200.096,73.577,200.23,73.655,200.374,73.67z"/>
		<path fill="#B9CEEB" d="M190.77,82.93c0.055,0.033,0.115,0.053,0.178,0.059c0.191,0.02,0.395-0.083,0.498-0.254
			c0.63-1.042,1.348-2.054,2.128-3.008c0.17-0.205,0.14-0.508-0.066-0.676c-0.204-0.167-0.508-0.14-0.676,0.067
			c-0.812,0.988-1.554,2.038-2.208,3.118c0,0.003-0.039,0.067-0.041,0.07C190.449,82.534,190.542,82.796,190.77,82.93z"/>
		<path fill="#B9CEEB" d="M212.756,68.642c0.054,0.005,0.109,0.002,0.165-0.011c1.192-0.297,2.443-0.565,3.718-0.798
			c0.262-0.048,0.434-0.298,0.388-0.56c-0.049-0.26-0.301-0.438-0.56-0.386c-1.295,0.236-2.566,0.509-3.779,0.811
			c-0.257,0.063-0.414,0.326-0.351,0.583C212.389,68.482,212.56,68.622,212.756,68.642z"/>
		<path fill="#B9CEEB" d="M406.089,257.568c-1.253-0.088-2.521-0.195-3.807-0.32c-0.266-0.025-0.501,0.17-0.526,0.432
			c-0.024,0.264,0.167,0.498,0.431,0.525l0,0c1.297,0.127,2.575,0.232,3.838,0.32c0.266,0.02,0.494-0.183,0.512-0.445
			C406.555,257.816,406.361,257.57,406.089,257.568z"/>
		<path fill="#B9CEEB" d="M412.766,257.846c-1.252-0.016-2.524-0.055-3.815-0.113c-0.267-0.012-0.491,0.193-0.502,0.459
			c-0.014,0.259,0.179,0.476,0.432,0.5c0.008,0,0.017,0.002,0.025,0.002c1.303,0.062,2.586,0.101,3.85,0.115
			c0.265,0.002,0.482-0.207,0.486-0.475C413.244,258.068,413.027,257.848,412.766,257.846z"/>
		<path fill="#B9CEEB" d="M419.443,257.713c-1.25,0.068-2.531,0.113-3.814,0.129c-0.265,0.006-0.479,0.223-0.475,0.488
			c0.004,0.246,0.19,0.449,0.432,0.475c0.021,0.002,0.038,0.004,0.057,0.004c1.295-0.021,2.593-0.065,3.853-0.135
			c0.267-0.016,0.469-0.242,0.455-0.508C419.935,257.9,419.697,257.699,419.443,257.713z"/>
		<path fill="#B9CEEB" d="M399.431,256.939c-1.249-0.148-2.515-0.314-3.79-0.496c-0.309-0.021-0.507,0.146-0.544,0.408
			c-0.037,0.266,0.146,0.51,0.407,0.547c1.283,0.184,2.557,0.35,3.814,0.496c0.003,0,0.006,0,0.009,0.002
			c0.261,0.024,0.495-0.16,0.525-0.422C399.884,257.211,399.695,256.971,399.431,256.939z"/>
		<path fill="#B9CEEB" d="M386.217,254.826c-1.236-0.246-2.485-0.506-3.746-0.783c-0.256-0.051-0.515,0.107-0.571,0.367
			c-0.058,0.26,0.106,0.518,0.366,0.572c1.266,0.276,2.521,0.541,3.766,0.789c0.016,0.002,0.029,0.004,0.046,0.006
			c0.244,0.024,0.471-0.142,0.52-0.385C386.646,255.131,386.477,254.877,386.217,254.826z"/>
		<path fill="#B9CEEB" d="M379.672,253.406c-1.229-0.283-2.469-0.588-3.719-0.902c-0.254-0.066-0.521,0.09-0.584,0.348
			c-0.066,0.258,0.09,0.519,0.348,0.584c1.256,0.318,2.5,0.619,3.736,0.91c0.021,0.004,0.041,0.008,0.063,0.01
			c0.236,0.023,0.461-0.133,0.518-0.369C380.091,253.727,379.93,253.469,379.672,253.406z"/>
		<path fill="#B9CEEB" d="M392.804,256.012c-1.244-0.197-2.501-0.414-3.768-0.647c-0.253-0.037-0.513,0.127-0.562,0.387
			c-0.048,0.263,0.124,0.51,0.386,0.562c1.273,0.231,2.538,0.451,3.79,0.651c0.01,0.002,0.019,0.002,0.028,0.004
			c0.25,0.023,0.481-0.149,0.521-0.401C393.246,256.303,393.066,256.055,392.804,256.012z"/>
		<path fill="#B9CEEB" d="M450.082,246.852c-0.88,0.859-1.844,1.683-2.863,2.445c-0.213,0.16-0.257,0.461-0.098,0.674
			c0.084,0.111,0.208,0.178,0.336,0.191c0.117,0.012,0.235-0.02,0.337-0.094c1.054-0.789,2.05-1.639,2.96-2.529
			c0.189-0.186,0.191-0.488,0.006-0.682C450.58,246.67,450.272,246.664,450.082,246.852z"/>
		<path fill="#B9CEEB" d="M456.311,213.523c0.062,0.006,0.124-0.002,0.188-0.021c0.255-0.076,0.398-0.344,0.322-0.599
			c-0.359-1.198-0.767-2.434-1.209-3.666c-0.093-0.25-0.37-0.375-0.616-0.288c-0.251,0.09-0.379,0.364-0.29,0.614
			c0.438,1.218,0.841,2.435,1.196,3.615C455.955,213.373,456.123,213.504,456.311,213.523z"/>
		<path fill="#B9CEEB" d="M457.858,220.043c0.042,0.004,0.086,0.004,0.13-0.004c0.261-0.043,0.438-0.293,0.392-0.555
			c-0.213-1.24-0.479-2.512-0.795-3.785c-0.063-0.258-0.323-0.412-0.583-0.352c-0.257,0.063-0.414,0.325-0.351,0.582
			c0.31,1.252,0.571,2.497,0.781,3.717C457.471,219.865,457.647,220.021,457.858,220.043z"/>
		<path fill="#B9CEEB" d="M454.902,241.424c-0.228-0.137-0.523-0.063-0.66,0.166l-0.074,0.123c-0.645,1.066-1.379,2.098-2.174,3.063
			c-0.17,0.205-0.143,0.511,0.063,0.679c0.076,0.063,0.167,0.098,0.261,0.106c0.153,0.017,0.313-0.043,0.418-0.174
			c0.827-0.998,1.586-2.068,2.256-3.176l0.078-0.129C455.205,241.855,455.129,241.559,454.902,241.424z"/>
		<path fill="#B9CEEB" d="M457.465,235.238c-0.248-0.074-0.522,0.07-0.598,0.324c-0.355,1.213-0.799,2.397-1.314,3.528
			c-0.108,0.244-0.003,0.527,0.238,0.638c0.049,0.022,0.1,0.035,0.152,0.041c0.197,0.02,0.396-0.086,0.484-0.277
			c0.534-1.172,0.991-2.402,1.36-3.654C457.864,235.58,457.719,235.314,457.465,235.238z"/>
		<path fill="#B9CEEB" d="M458.956,229.131c0.016-0.266-0.194-0.49-0.449-0.512c-0.265-0.018-0.495,0.184-0.513,0.449
			c-0.023,0.383-0.055,0.762-0.094,1.139c-0.089,0.883-0.216,1.762-0.375,2.607c-0.049,0.262,0.123,0.512,0.385,0.563
			c0.013,0.002,0.027,0.004,0.041,0.006c0.244,0.023,0.474-0.143,0.52-0.389c0.165-0.873,0.295-1.777,0.388-2.691
			C458.896,229.914,458.93,229.525,458.956,229.131z"/>
		<path fill="#B9CEEB" d="M444.877,250.889c-1.046,0.646-2.164,1.252-3.32,1.807c-0.24,0.113-0.342,0.402-0.227,0.642
			c0.075,0.158,0.225,0.256,0.385,0.271c0.086,0.009,0.173-0.006,0.256-0.047c1.188-0.567,2.336-1.19,3.411-1.854
			c0.227-0.142,0.296-0.437,0.157-0.662C445.399,250.818,445.102,250.748,444.877,250.889z"/>
		<path fill="#B9CEEB" d="M439.05,180.025c-0.157-0.211-0.461-0.256-0.671-0.099c-0.214,0.16-0.257,0.462-0.098,0.677
			c0.771,1.032,1.524,2.061,2.257,3.088c0.083,0.117,0.21,0.186,0.343,0.197c0.111,0.012,0.229-0.017,0.328-0.087
			c0.215-0.153,0.266-0.454,0.111-0.672C440.585,182.1,439.829,181.064,439.05,180.025z"/>
		<path fill="#B9CEEB" d="M432.621,255.836c-1.195,0.299-2.447,0.564-3.719,0.795c-0.262,0.047-0.436,0.299-0.389,0.561
			c0.04,0.216,0.219,0.369,0.426,0.392c0.044,0.004,0.088,0.004,0.135-0.004c1.293-0.236,2.563-0.509,3.778-0.81
			c0.259-0.063,0.414-0.324,0.352-0.58C433.139,255.93,432.879,255.775,432.621,255.836z"/>
		<path fill="#B9CEEB" d="M438.952,253.83c-1.134,0.451-2.339,0.873-3.581,1.25c-0.254,0.078-0.396,0.348-0.318,0.602
			c0.06,0.191,0.225,0.318,0.41,0.338c0.063,0.006,0.126,0,0.189-0.018c1.267-0.387,2.497-0.816,3.655-1.277
			c0.247-0.096,0.367-0.377,0.271-0.623C439.479,253.854,439.198,253.732,438.952,253.83z"/>
		<path fill="#B9CEEB" d="M450.03,196.969c-0.126-0.236-0.419-0.318-0.652-0.193s-0.319,0.418-0.192,0.652
			c0.619,1.146,1.212,2.281,1.758,3.387c0.075,0.154,0.226,0.248,0.384,0.267c0.087,0.008,0.177-0.004,0.262-0.047
			c0.236-0.117,0.336-0.406,0.218-0.646C451.254,199.273,450.658,198.123,450.03,196.969z"/>
		<path fill="#B9CEEB" d="M426.084,257.08c-1.222,0.17-2.496,0.314-3.787,0.428c-0.266,0.023-0.461,0.258-0.437,0.521
			c0.021,0.234,0.206,0.414,0.431,0.438c0.029,0.002,0.06,0.002,0.092,0c1.308-0.115,2.597-0.26,3.833-0.432
			c0.264-0.037,0.447-0.279,0.411-0.543C426.59,257.229,426.348,257.047,426.084,257.08z"/>
		<path fill="#B9CEEB" d="M323.052,232.982c-1.146-0.547-2.298-1.103-3.448-1.666c-0.239-0.121-0.527-0.019-0.644,0.219
			c-0.116,0.24-0.017,0.529,0.22,0.645c1.154,0.566,2.309,1.121,3.459,1.67c0.052,0.023,0.104,0.037,0.158,0.043
			c0.197,0.021,0.394-0.082,0.482-0.271C323.394,233.383,323.293,233.096,323.052,232.982z"/>
		<path fill="#B9CEEB" d="M317.029,230.043c-1.139-0.57-2.278-1.145-3.419-1.73c-0.239-0.123-0.526-0.028-0.648,0.207
			c-0.122,0.236-0.028,0.525,0.208,0.646c1.146,0.59,2.288,1.168,3.427,1.738c0.055,0.025,0.111,0.039,0.167,0.045
			c0.193,0.02,0.388-0.08,0.479-0.262C317.363,230.451,317.265,230.16,317.029,230.043z"/>
		<path fill="#B9CEEB" d="M373.178,251.783c-1.223-0.328-2.453-0.668-3.69-1.018c-0.265-0.068-0.521,0.073-0.596,0.33
			c-0.071,0.256,0.076,0.522,0.331,0.596c1.242,0.354,2.48,0.688,3.705,1.018c0.025,0.008,0.054,0.014,0.078,0.016
			c0.229,0.023,0.449-0.123,0.512-0.354C373.586,252.111,373.434,251.852,373.178,251.783z"/>
		<path fill="#B9CEEB" d="M329.131,235.805c-1.158-0.521-2.317-1.055-3.479-1.596c-0.241-0.115-0.527-0.01-0.64,0.229
			c-0.11,0.24-0.009,0.527,0.231,0.64c1.166,0.545,2.331,1.08,3.491,1.604c0.05,0.021,0.1,0.037,0.149,0.041
			c0.199,0.021,0.398-0.09,0.487-0.281C329.48,236.201,329.371,235.916,329.131,235.805z"/>
		<path fill="#B9CEEB" d="M305.149,223.83c-1.117-0.609-2.234-1.227-3.352-1.854c-0.232-0.127-0.525-0.047-0.655,0.186
			c-0.129,0.23-0.046,0.523,0.185,0.654c1.122,0.625,2.241,1.246,3.362,1.858c0.059,0.031,0.121,0.05,0.182,0.058
			c0.186,0.018,0.375-0.074,0.472-0.248C305.47,224.252,305.382,223.959,305.149,223.83z"/>
		<path fill="#B9CEEB" d="M299.295,220.566c-1.106-0.631-2.211-1.269-3.321-1.912c-0.228-0.133-0.522-0.057-0.657,0.172
			c-0.133,0.229-0.057,0.523,0.173,0.658c1.11,0.646,2.219,1.285,3.327,1.916c0.061,0.035,0.125,0.055,0.191,0.061
			c0.183,0.02,0.368-0.068,0.466-0.24C299.606,220.99,299.527,220.695,299.295,220.566z"/>
		<path fill="#B9CEEB" d="M311.063,226.992c-1.13-0.59-2.258-1.188-3.386-1.793c-0.233-0.127-0.526-0.035-0.65,0.195
			c-0.126,0.233-0.038,0.524,0.195,0.651c1.134,0.606,2.266,1.205,3.396,1.797c0.056,0.029,0.114,0.048,0.174,0.054
			c0.189,0.02,0.38-0.076,0.474-0.256C311.387,227.404,311.297,227.113,311.063,226.992z"/>
		<path fill="#B9CEEB" d="M293.508,217.199c-0.971-0.578-1.942-1.156-2.911-1.742l-0.375-0.229c-0.224-0.133-0.523-0.066-0.66,0.164
			c-0.137,0.229-0.063,0.524,0.165,0.662l0.373,0.225c0.973,0.588,1.945,1.172,2.919,1.748c0.062,0.037,0.127,0.057,0.198,0.063
			c0.18,0.019,0.363-0.065,0.461-0.229C293.811,217.631,293.735,217.336,293.508,217.199z"/>
		<path fill="#B9CEEB" d="M360.332,247.975c-1.205-0.393-2.418-0.797-3.635-1.211c-0.248-0.086-0.523,0.051-0.609,0.303
			c-0.086,0.25,0.049,0.521,0.302,0.607c1.221,0.416,2.436,0.82,3.646,1.211c0.034,0.014,0.066,0.02,0.102,0.023
			c0.221,0.021,0.434-0.111,0.505-0.33C360.722,248.328,360.583,248.055,360.332,247.975z"/>
		<path fill="#B9CEEB" d="M353.986,245.824c-1.195-0.422-2.396-0.854-3.603-1.299c-0.251-0.09-0.525,0.035-0.617,0.285
			c-0.091,0.25,0.035,0.526,0.285,0.619c1.211,0.444,2.416,0.879,3.615,1.301c0.035,0.014,0.074,0.021,0.111,0.024
			c0.216,0.021,0.428-0.104,0.502-0.317C354.368,246.186,354.238,245.912,353.986,245.824z"/>
		<path fill="#B9CEEB" d="M366.73,249.963c-1.216-0.359-2.438-0.73-3.663-1.113c-0.249-0.08-0.523,0.06-0.604,0.314
			c-0.079,0.254,0.063,0.523,0.316,0.602c1.231,0.387,2.457,0.76,3.675,1.119c0.03,0.01,0.06,0.016,0.091,0.02
			c0.226,0.021,0.441-0.116,0.508-0.344C367.129,250.309,366.982,250.039,366.73,249.963z"/>
		<path fill="#B9CEEB" d="M341.452,241.08c-1.178-0.475-2.356-0.959-3.542-1.455c-0.242-0.102-0.525,0.012-0.629,0.258
			c-0.104,0.244,0.014,0.523,0.258,0.629c1.188,0.498,2.371,0.982,3.554,1.463c0.042,0.017,0.087,0.027,0.132,0.031
			c0.207,0.021,0.411-0.096,0.493-0.299C341.816,241.461,341.699,241.182,341.452,241.08z"/>
		<path fill="#B9CEEB" d="M347.693,243.523c-1.188-0.451-2.379-0.91-3.573-1.379c-0.246-0.099-0.526,0.024-0.624,0.271
			c-0.096,0.246,0.025,0.526,0.271,0.625c1.201,0.469,2.396,0.93,3.586,1.383c0.04,0.017,0.08,0.025,0.121,0.029
			c0.211,0.021,0.418-0.103,0.497-0.31C348.066,243.895,347.941,243.617,347.693,243.523z"/>
		<path fill="#B9CEEB" d="M335.265,238.508c-1.167-0.502-2.337-1.01-3.511-1.531c-0.242-0.104-0.527,0.002-0.635,0.246
			c-0.106,0.242,0.003,0.527,0.246,0.635c1.177,0.521,2.351,1.031,3.521,1.533c0.047,0.021,0.093,0.031,0.142,0.035
			c0.204,0.021,0.405-0.09,0.489-0.287C335.622,238.893,335.508,238.611,335.265,238.508z"/>
	</g>
	<g>
		<path fill="#B9CEEB" d="M359.061,278.543c0,0,0,0-0.002,0c-1.252-0.131-2.547-0.322-3.848-0.57
			c-0.262-0.047-0.434-0.303-0.385-0.561c0.049-0.26,0.307-0.43,0.563-0.383c1.275,0.238,2.545,0.43,3.771,0.557
			c0.264,0.029,0.455,0.266,0.428,0.527C359.561,278.377,359.325,278.57,359.061,278.543z M361.944,278.748
			c-0.249-0.025-0.44-0.242-0.432-0.496c0.011-0.266,0.232-0.473,0.497-0.463c1.296,0.045,2.575,0.023,3.805-0.063
			c0.263-0.027,0.491,0.18,0.513,0.444c0.02,0.267-0.181,0.494-0.445,0.515c-1.262,0.092-2.575,0.11-3.905,0.063
			C361.967,278.75,361.955,278.75,361.944,278.748z M352.427,277.369c-0.021-0.002-0.044-0.008-0.066-0.014
			c-1.222-0.297-2.48-0.648-3.742-1.041c-0.254-0.082-0.396-0.353-0.316-0.604c0.08-0.256,0.355-0.396,0.604-0.317
			c1.242,0.391,2.481,0.735,3.684,1.03c0.258,0.062,0.415,0.322,0.354,0.578C352.884,277.24,352.662,277.393,352.427,277.369z
			 M368.672,278.354c-0.211-0.021-0.391-0.182-0.428-0.399c-0.041-0.263,0.137-0.509,0.396-0.552c1.269-0.209,2.51-0.491,3.694-0.85
			c0.25-0.076,0.521,0.064,0.599,0.32c0.077,0.254-0.065,0.521-0.32,0.6c-1.226,0.369-2.511,0.664-3.816,0.879
			C368.754,278.357,368.713,278.359,368.672,278.354z M345.971,275.412c-0.037-0.004-0.076-0.012-0.112-0.025
			c-1.184-0.424-2.399-0.896-3.617-1.402c-0.246-0.1-0.362-0.383-0.26-0.629c0.102-0.244,0.386-0.358,0.627-0.258
			c1.204,0.498,2.405,0.963,3.573,1.381c0.25,0.09,0.382,0.365,0.291,0.615C346.398,275.309,346.188,275.434,345.971,275.412z
			 M375.145,276.506c-0.168-0.016-0.322-0.125-0.395-0.291c-0.104-0.244,0.012-0.527,0.255-0.629
			c1.163-0.494,2.292-1.074,3.364-1.73c0.225-0.137,0.561-0.09,0.697,0.136c0.139,0.227,0.104,0.5-0.121,0.637l-0.252-0.41
			l0.188,0.451c-1.121,0.687-2.296,1.291-3.5,1.804C375.303,276.506,375.223,276.514,375.145,276.506z M339.727,272.863
			c-0.05-0.006-0.104-0.021-0.151-0.039c-1.146-0.523-2.32-1.088-3.492-1.68c-0.237-0.117-0.333-0.406-0.213-0.646
			c0.117-0.235,0.41-0.33,0.645-0.213c1.162,0.586,2.324,1.144,3.461,1.662c0.24,0.108,0.349,0.395,0.236,0.637
			C340.124,272.777,339.926,272.883,339.727,272.863z M333.684,269.857c-0.062-0.006-0.123-0.025-0.18-0.058
			c-1.121-0.602-2.256-1.241-3.377-1.896c-0.229-0.133-0.307-0.428-0.172-0.658c0.133-0.227,0.428-0.303,0.658-0.172
			c1.11,0.65,2.235,1.281,3.349,1.881c0.233,0.127,0.321,0.416,0.194,0.65C334.063,269.781,333.871,269.875,333.684,269.857z
			 M381.02,273.049c-0.127-0.014-0.246-0.074-0.329-0.184c-0.164-0.209-0.13-0.51,0.082-0.674c0.981-0.771,1.924-1.625,2.803-2.541
			c0.184-0.193,0.489-0.199,0.68-0.014c0.191,0.182,0.199,0.485,0.014,0.678c-0.907,0.949-1.887,1.838-2.903,2.633
			C381.262,273.029,381.138,273.061,381.02,273.049z M327.839,266.482c-0.069-0.006-0.139-0.029-0.203-0.068
			c-1.084-0.666-2.175-1.357-3.268-2.072c-0.224-0.146-0.285-0.445-0.141-0.666c0.146-0.221,0.446-0.285,0.666-0.139
			c1.086,0.711,2.168,1.398,3.244,2.059c0.229,0.141,0.297,0.437,0.159,0.662C328.197,266.418,328.018,266.5,327.839,266.482z
			 M322.178,262.809c-0.077-0.008-0.152-0.035-0.223-0.08c-1.053-0.719-2.108-1.459-3.167-2.223
			c-0.216-0.156-0.266-0.455-0.109-0.672c0.154-0.215,0.457-0.264,0.67-0.109c1.055,0.758,2.104,1.494,3.149,2.207
			c0.219,0.15,0.275,0.449,0.125,0.67C322.521,262.752,322.348,262.826,322.178,262.809z M385.764,268.273
			c-0.088-0.01-0.172-0.041-0.248-0.101c-0.209-0.164-0.246-0.465-0.082-0.676c0.76-0.974,1.48-2.022,2.146-3.131
			c0.136-0.226,0.433-0.3,0.66-0.162c0.228,0.135,0.301,0.433,0.164,0.657c-0.685,1.14-1.43,2.226-2.211,3.229
			C386.086,268.225,385.922,268.289,385.764,268.273z M316.688,258.887c-0.084-0.008-0.166-0.037-0.238-0.094
			c-1.023-0.76-2.048-1.543-3.075-2.346c-0.209-0.162-0.247-0.465-0.083-0.674c0.163-0.209,0.467-0.246,0.675-0.082
			c1.023,0.797,2.042,1.574,3.058,2.332c0.213,0.16,0.258,0.461,0.098,0.674C317.016,258.836,316.849,258.904,316.688,258.887z
			 M311.354,254.748c-0.089-0.01-0.178-0.043-0.253-0.104c-0.992-0.802-1.988-1.617-2.986-2.453
			c-0.204-0.172-0.229-0.476-0.06-0.681c0.17-0.202,0.478-0.227,0.678-0.061c0.994,0.834,1.983,1.646,2.974,2.442
			c0.208,0.168,0.238,0.471,0.073,0.678C311.671,254.701,311.511,254.764,311.354,254.748z M389.328,262.561
			c-0.057-0.006-0.113-0.022-0.166-0.051c-0.238-0.115-0.336-0.404-0.217-0.645c0.547-1.098,1.061-2.271,1.525-3.49
			c0.096-0.244,0.37-0.369,0.62-0.275c0.248,0.094,0.372,0.373,0.277,0.621c-0.478,1.244-1.003,2.447-1.563,3.574
			C389.715,262.48,389.521,262.58,389.328,262.561z M306.169,250.424c-0.095-0.01-0.187-0.045-0.266-0.111
			c-0.967-0.834-1.936-1.684-2.905-2.553c-0.2-0.174-0.216-0.479-0.038-0.678c0.177-0.199,0.482-0.215,0.679-0.039
			c0.966,0.865,1.929,1.709,2.894,2.541c0.201,0.172,0.224,0.475,0.05,0.678C306.476,250.385,306.319,250.439,306.169,250.424z
			 M391.822,256.295c-0.034-0.004-0.065-0.01-0.099-0.021c-0.253-0.08-0.395-0.35-0.313-0.602c0.369-1.172,0.707-2.414,1.008-3.686
			c0.061-0.262,0.322-0.418,0.578-0.359c0.259,0.061,0.42,0.322,0.356,0.58c-0.305,1.295-0.647,2.557-1.024,3.752
			C392.258,256.182,392.043,256.316,391.822,256.295z M301.125,245.939c-0.099-0.01-0.197-0.051-0.276-0.123
			c-0.943-0.863-1.886-1.74-2.83-2.635c-0.192-0.183-0.202-0.486-0.018-0.681c0.185-0.192,0.49-0.199,0.68-0.021
			c0.939,0.89,1.876,1.765,2.815,2.623c0.196,0.181,0.209,0.484,0.03,0.681C301.421,245.904,301.271,245.955,301.125,245.939z
			 M296.214,241.313c-0.104-0.012-0.206-0.057-0.286-0.135c-0.917-0.891-1.837-1.793-2.755-2.713c-0.188-0.186-0.187-0.492,0-0.68
			c0.19-0.188,0.492-0.184,0.681-0.002c0.915,0.918,1.83,1.818,2.745,2.705c0.19,0.182,0.195,0.488,0.009,0.68
			C296.501,241.275,296.355,241.326,296.214,241.313z M393.432,249.748c-0.012-0.002-0.024-0.006-0.038-0.006
			c-0.263-0.049-0.435-0.303-0.386-0.561c0.228-1.218,0.424-2.49,0.59-3.787c0.033-0.256,0.269-0.441,0.525-0.416
			c0.004,0,0.009,0.002,0.014,0.002c0.265,0.033,0.449,0.272,0.414,0.539c-0.166,1.311-0.368,2.602-0.598,3.836
			C393.906,249.604,393.679,249.771,393.432,249.748z M291.429,236.551c-0.108-0.012-0.213-0.059-0.296-0.143
			c-0.894-0.914-1.791-1.84-2.685-2.781c-0.183-0.191-0.175-0.498,0.018-0.682c0.193-0.182,0.496-0.174,0.679,0.018
			c0.89,0.938,1.783,1.861,2.675,2.77c0.186,0.191,0.181,0.494-0.007,0.683C291.708,236.518,291.565,236.564,291.429,236.551z
			 M286.767,231.672c-0.112-0.012-0.221-0.064-0.304-0.152c-0.873-0.934-1.746-1.883-2.618-2.842
			c-0.178-0.197-0.163-0.502,0.033-0.682c0.197-0.178,0.501-0.164,0.679,0.035c0.869,0.953,1.738,1.898,2.608,2.832
			c0.181,0.193,0.17,0.498-0.024,0.682C287.038,231.641,286.899,231.686,286.767,231.672z M282.22,226.68
			c-0.116-0.012-0.228-0.063-0.311-0.158c-0.852-0.955-1.702-1.924-2.552-2.899c-0.173-0.201-0.153-0.504,0.049-0.681
			c0.201-0.174,0.504-0.151,0.679,0.048c0.847,0.977,1.693,1.94,2.542,2.893c0.177,0.197,0.158,0.504-0.04,0.679
			C282.484,226.654,282.348,226.693,282.22,226.68z M277.788,221.59c-0.12-0.012-0.234-0.068-0.318-0.166
			c-0.831-0.977-1.658-1.961-2.488-2.955c-0.168-0.205-0.141-0.508,0.063-0.678c0.203-0.168,0.507-0.143,0.678,0.063
			c0.824,0.992,1.652,1.976,2.48,2.947c0.171,0.203,0.147,0.506-0.056,0.678C278.044,221.564,277.913,221.604,277.788,221.59z
			 M273.464,216.406c-0.124-0.012-0.24-0.07-0.324-0.176c-0.81-0.992-1.62-1.994-2.426-3.004c-0.167-0.209-0.132-0.513,0.075-0.679
			c0.209-0.166,0.511-0.131,0.677,0.076c0.804,1.01,1.61,2.008,2.419,2.998c0.168,0.205,0.138,0.508-0.068,0.676
			C273.714,216.385,273.587,216.418,273.464,216.406z M269.251,211.133c-0.126-0.012-0.247-0.072-0.332-0.18
			c-0.791-1.01-1.578-2.027-2.364-3.055c-0.163-0.209-0.122-0.515,0.089-0.674c0.209-0.162,0.514-0.123,0.675,0.088
			c0.783,1.022,1.57,2.041,2.357,3.047c0.163,0.209,0.126,0.51-0.083,0.674C269.492,211.115,269.369,211.145,269.251,211.133z
			 M265.142,205.779c-0.129-0.014-0.251-0.078-0.335-0.189c-0.771-1.025-1.54-2.061-2.304-3.102
			c-0.159-0.213-0.112-0.514,0.102-0.672c0.214-0.156,0.517-0.111,0.672,0.104c0.763,1.039,1.53,2.066,2.297,3.092
			c0.161,0.211,0.117,0.514-0.094,0.672C265.378,205.76,265.256,205.791,265.142,205.779z M261.136,200.346
			c-0.132-0.014-0.258-0.082-0.342-0.197c-0.751-1.037-1.499-2.086-2.245-3.141c-0.154-0.219-0.102-0.52,0.115-0.672
			c0.217-0.154,0.517-0.102,0.669,0.117c0.744,1.053,1.491,2.098,2.24,3.133c0.156,0.215,0.107,0.516-0.109,0.672
			C261.366,200.328,261.25,200.357,261.136,200.346z M257.234,194.838c-0.135-0.014-0.264-0.086-0.347-0.205
			c-0.731-1.053-1.461-2.113-2.188-3.182c-0.148-0.221-0.091-0.52,0.129-0.668c0.219-0.15,0.518-0.094,0.667,0.127
			c0.725,1.064,1.452,2.125,2.182,3.176c0.152,0.217,0.098,0.518-0.121,0.668C257.458,194.824,257.345,194.85,257.234,194.838z
			 M253.434,189.26c-0.137-0.014-0.269-0.088-0.352-0.211c-0.714-1.068-1.422-2.143-2.13-3.223c-0.146-0.223-0.083-0.52,0.14-0.666
			c0.222-0.145,0.521-0.082,0.666,0.139c0.706,1.078,1.414,2.15,2.125,3.215c0.146,0.221,0.088,0.521-0.132,0.666
			C253.653,189.248,253.542,189.27,253.434,189.26z M249.736,183.613c-0.14-0.014-0.274-0.09-0.357-0.221
			c-0.693-1.078-1.383-2.166-2.07-3.259c-0.142-0.225-0.074-0.522,0.151-0.661c0.223-0.144,0.52-0.078,0.662,0.149
			c0.685,1.09,1.374,2.174,2.065,3.25c0.144,0.226,0.08,0.522-0.144,0.666C249.95,183.602,249.842,183.625,249.736,183.613z
			 M246.14,177.908c-0.145-0.016-0.279-0.094-0.361-0.227l-0.898-1.464c-0.374-0.608-0.746-1.221-1.114-1.829
			c-0.138-0.229-0.065-0.525,0.162-0.662c0.229-0.14,0.524-0.063,0.66,0.162c0.37,0.608,0.74,1.221,1.115,1.827l0.896,1.459
			c0.138,0.228,0.068,0.521-0.158,0.662C246.347,177.895,246.241,177.918,246.14,177.908z M242.643,172.135
			c-0.146-0.016-0.284-0.1-0.365-0.236c-0.659-1.106-1.311-2.219-1.955-3.328c-0.133-0.229-0.055-0.522,0.175-0.657
			c0.229-0.136,0.524-0.058,0.658,0.174c0.642,1.106,1.292,2.215,1.949,3.322c0.136,0.229,0.061,0.522-0.168,0.657
			C242.845,172.121,242.743,172.145,242.643,172.135z M239.25,166.297c-0.149-0.014-0.29-0.098-0.37-0.238
			c-0.64-1.123-1.271-2.242-1.895-3.367c-0.129-0.229-0.045-0.524,0.188-0.651c0.231-0.129,0.525-0.045,0.653,0.188
			c0.621,1.119,1.252,2.235,1.89,3.356c0.132,0.229,0.052,0.522-0.179,0.654C239.447,166.291,239.347,166.307,239.25,166.297z
			 M235.96,160.405c-0.153-0.017-0.294-0.104-0.373-0.247c-0.62-1.135-1.231-2.266-1.836-3.398c-0.124-0.234-0.035-0.525,0.198-0.65
			c0.235-0.127,0.526-0.036,0.65,0.197c0.602,1.129,1.211,2.26,1.829,3.392c0.127,0.231,0.042,0.524-0.191,0.651
			C236.15,160.398,236.053,160.414,235.96,160.405z M232.779,154.453c-0.155-0.016-0.3-0.107-0.378-0.258
			c-0.599-1.146-1.189-2.289-1.77-3.432c-0.121-0.238-0.027-0.527,0.21-0.648c0.236-0.12,0.526-0.027,0.647,0.211
			c0.581,1.143,1.169,2.281,1.767,3.426c0.122,0.234,0.031,0.525-0.205,0.648C232.964,154.445,232.87,154.461,232.779,154.453z
			 M229.71,148.441c-0.159-0.016-0.306-0.11-0.384-0.265c-0.577-1.156-1.146-2.312-1.705-3.466c-0.116-0.24-0.016-0.526,0.224-0.643
			c0.236-0.117,0.525-0.016,0.642,0.224c0.559,1.151,1.125,2.302,1.701,3.457c0.119,0.238,0.022,0.526-0.215,0.645
			C229.888,148.434,229.798,148.45,229.71,148.441z M226.757,142.374c-0.164-0.017-0.313-0.115-0.388-0.272
			c-0.554-1.169-1.101-2.334-1.638-3.5c-0.112-0.241-0.006-0.526,0.235-0.638c0.24-0.111,0.527-0.007,0.639,0.235
			c0.536,1.16,1.08,2.324,1.632,3.488c0.115,0.24,0.012,0.527-0.227,0.641C226.928,142.368,226.841,142.382,226.757,142.374z
			 M223.919,136.249c-0.165-0.016-0.317-0.118-0.39-0.281c-0.531-1.179-1.054-2.356-1.567-3.531
			c-0.106-0.243,0.006-0.526,0.249-0.632c0.245-0.107,0.528,0.005,0.633,0.248c0.51,1.171,1.031,2.345,1.562,3.521
			c0.109,0.242,0.001,0.527-0.241,0.637C224.084,136.244,224,136.257,223.919,136.249z M221.208,130.068
			c-0.168-0.017-0.322-0.124-0.393-0.291c-0.508-1.191-1.007-2.378-1.494-3.564c-0.101-0.244,0.015-0.525,0.262-0.627
			c0.241-0.101,0.524,0.014,0.627,0.262c0.486,1.181,0.982,2.365,1.488,3.552c0.105,0.245-0.008,0.527-0.252,0.63
			C221.369,130.064,221.287,130.076,221.208,130.068z M218.628,123.829c-0.172-0.017-0.329-0.127-0.397-0.3
			c-0.483-1.203-0.955-2.4-1.416-3.595c-0.096-0.248,0.028-0.526,0.275-0.622c0.248-0.092,0.527,0.029,0.622,0.276
			c0.46,1.19,0.931,2.385,1.411,3.583c0.099,0.246-0.021,0.527-0.268,0.626C218.781,123.826,218.703,123.836,218.628,123.829z
			 M216.185,117.539c-0.176-0.018-0.336-0.132-0.403-0.31c-0.455-1.214-0.899-2.422-1.332-3.626c-0.09-0.251,0.04-0.526,0.289-0.615
			c0.252-0.091,0.525,0.039,0.616,0.289c0.432,1.2,0.875,2.405,1.329,3.614c0.094,0.248-0.033,0.527-0.281,0.619
			C216.33,117.537,216.257,117.546,216.185,117.539z M213.889,111.192c-0.18-0.019-0.342-0.137-0.406-0.321
			c-0.426-1.224-0.842-2.443-1.245-3.66c-0.084-0.251,0.053-0.524,0.305-0.607c0.251-0.086,0.523,0.053,0.607,0.304
			c0.402,1.21,0.816,2.425,1.242,3.645c0.088,0.251-0.045,0.525-0.297,0.612C214.026,111.191,213.957,111.199,213.889,111.192z
			 M211.747,104.79c-0.185-0.019-0.351-0.144-0.41-0.333c-0.397-1.235-0.781-2.465-1.152-3.688c-0.076-0.254,0.067-0.522,0.32-0.601
			c0.251-0.073,0.523,0.067,0.601,0.321c0.369,1.219,0.752,2.444,1.146,3.675c0.081,0.252-0.058,0.524-0.312,0.604
			C211.876,104.789,211.81,104.796,211.747,104.79z M209.771,98.335c-0.188-0.019-0.357-0.15-0.414-0.344
			c-0.363-1.248-0.713-2.487-1.05-3.72c-0.07-0.257,0.081-0.521,0.337-0.591c0.259-0.07,0.521,0.082,0.591,0.337
			c0.335,1.228,0.684,2.462,1.046,3.705c0.075,0.254-0.072,0.521-0.327,0.596C209.893,98.336,209.831,98.341,209.771,98.335z
			 M207.979,91.829c-0.194-0.02-0.365-0.158-0.417-0.357c-0.327-1.258-0.639-2.509-0.938-3.751c-0.063-0.257,0.095-0.517,0.355-0.58
			c0.26-0.064,0.518,0.096,0.58,0.354c0.297,1.237,0.609,2.481,0.934,3.734c0.067,0.257-0.087,0.519-0.344,0.585
			C208.091,91.831,208.033,91.834,207.979,91.829z M206.385,85.27c-0.2-0.02-0.375-0.165-0.422-0.373
			c-0.287-1.269-0.56-2.528-0.815-3.778c-0.053-0.26,0.114-0.514,0.374-0.568c0.266-0.052,0.515,0.115,0.569,0.375
			c0.255,1.244,0.526,2.497,0.812,3.761c0.057,0.259-0.105,0.516-0.365,0.574C206.486,85.272,206.435,85.275,206.385,85.27z
			 M205.01,78.662c-0.207-0.021-0.383-0.176-0.424-0.39c-0.243-1.28-0.468-2.55-0.678-3.807c-0.043-0.263,0.134-0.511,0.396-0.553
			c0.267-0.042,0.509,0.135,0.552,0.394c0.208,1.251,0.434,2.513,0.675,3.788c0.049,0.261-0.122,0.512-0.384,0.563
			C205.101,78.665,205.055,78.667,205.01,78.662z M203.882,72.008c-0.214-0.021-0.395-0.185-0.428-0.407
			c-0.192-1.291-0.368-2.57-0.523-3.833c-0.033-0.264,0.154-0.504,0.417-0.537c0.274-0.037,0.504,0.154,0.537,0.417
			c0.156,1.256,0.33,2.527,0.521,3.811c0.039,0.262-0.142,0.508-0.404,0.546C203.96,72.011,203.919,72.012,203.882,72.008z
			 M203.033,65.313c-0.222-0.022-0.405-0.198-0.429-0.428c-0.135-1.301-0.25-2.586-0.346-3.856c-0.02-0.264,0.178-0.496,0.444-0.515
			c0.258-0.027,0.495,0.178,0.515,0.444c0.093,1.259,0.208,2.535,0.342,3.827c0.029,0.264-0.164,0.501-0.428,0.528
			C203.098,65.316,203.064,65.316,203.033,65.313z M202.506,58.585c-0.231-0.023-0.418-0.213-0.431-0.455
			c-0.068-1.294-0.111-2.595-0.134-3.87c-0.005-0.265,0.207-0.483,0.471-0.489c0.242-0.013,0.484,0.206,0.489,0.473
			c0.023,1.263,0.068,2.555,0.134,3.838c0.014,0.265-0.19,0.491-0.456,0.504C202.555,58.588,202.531,58.587,202.506,58.585z
			 M202.361,51.837c-0.244-0.025-0.435-0.233-0.432-0.484c0.012-1.3,0.052-2.604,0.117-3.874c0.014-0.266,0.239-0.471,0.504-0.456
			c0.298,0.005,0.47,0.239,0.456,0.504c-0.063,1.257-0.102,2.547-0.114,3.836c-0.003,0.265-0.22,0.478-0.486,0.476
			C202.391,51.839,202.376,51.839,202.361,51.837z M202.671,45.099c-0.26-0.026-0.454-0.257-0.431-0.519
			c0.037-0.433,0.077-0.858,0.12-1.287c0.088-0.871,0.188-1.728,0.302-2.572c0.036-0.261,0.307-0.43,0.542-0.412
			c0.262,0.036,0.447,0.278,0.412,0.542c-0.113,0.833-0.212,1.679-0.299,2.539c-0.042,0.42-0.081,0.845-0.118,1.271
			c-0.023,0.265-0.255,0.46-0.519,0.438C202.677,45.099,202.673,45.099,202.671,45.099z M203.54,38.408
			c-0.013-0.001-0.025-0.002-0.038-0.004c-0.261-0.047-0.435-0.297-0.389-0.559c0.233-1.299,0.503-2.579,0.803-3.803
			c0.063-0.257,0.323-0.409,0.582-0.353c0.257,0.064,0.414,0.324,0.352,0.581c-0.295,1.204-0.562,2.462-0.79,3.742
			C204.016,38.263,203.788,38.433,203.54,38.408z M205.1,31.844c-0.031-0.003-0.063-0.008-0.093-0.019
			c-0.254-0.076-0.397-0.346-0.319-0.599c0.385-1.268,0.817-2.505,1.283-3.677c0.098-0.246,0.372-0.375,0.625-0.27
			c0.246,0.097,0.367,0.377,0.269,0.624c-0.455,1.148-0.878,2.359-1.256,3.601C205.539,31.73,205.323,31.867,205.1,31.844z
			 M207.529,25.557c-0.055-0.005-0.108-0.02-0.162-0.045c-0.239-0.115-0.339-0.402-0.224-0.642c0.577-1.198,1.209-2.35,1.879-3.424
			c0.141-0.225,0.437-0.293,0.662-0.154c0.226,0.141,0.294,0.437,0.153,0.662c-0.651,1.045-1.267,2.167-1.828,3.333
			C207.921,25.475,207.726,25.577,207.529,25.557z M280.711,29.1c-0.084-0.009-0.167-0.04-0.24-0.094
			c-1.038-0.779-2.072-1.537-3.103-2.272c-0.216-0.155-0.266-0.455-0.111-0.67c0.152-0.219,0.455-0.267,0.669-0.112
			c1.038,0.741,2.078,1.503,3.122,2.286c0.213,0.159,0.254,0.461,0.096,0.673C281.041,29.05,280.874,29.116,280.711,29.1z
			 M211.018,19.795c-0.085-0.009-0.168-0.039-0.243-0.096c-0.211-0.159-0.251-0.461-0.092-0.674
			c0.798-1.053,1.662-2.051,2.566-2.958c0.187-0.188,0.492-0.19,0.681-0.001c0.188,0.187,0.189,0.492,0.001,0.68
			c-0.873,0.878-1.709,1.841-2.48,2.862C211.345,19.746,211.179,19.812,211.018,19.795z M275.231,25.161
			c-0.079-0.008-0.155-0.036-0.224-0.082c-1.07-0.736-2.136-1.449-3.197-2.137c-0.223-0.144-0.286-0.442-0.142-0.665
			c0.146-0.224,0.443-0.287,0.665-0.142c1.068,0.694,2.141,1.41,3.218,2.148c0.219,0.15,0.274,0.451,0.124,0.669
			C275.573,25.104,275.4,25.178,275.231,25.161z M269.579,21.47c-0.07-0.007-0.141-0.03-0.205-0.07
			c-1.105-0.684-2.204-1.341-3.296-1.972c-0.231-0.132-0.31-0.427-0.177-0.657c0.135-0.23,0.43-0.308,0.657-0.176
			c1.102,0.635,2.209,1.297,3.323,1.988c0.225,0.139,0.294,0.436,0.154,0.663C269.938,21.406,269.758,21.488,269.579,21.47z
			 M215.688,14.947c-0.124-0.012-0.243-0.072-0.326-0.176c-0.167-0.207-0.135-0.509,0.072-0.676
			c0.902-0.729,1.859-1.406,2.843-2.006c0.124-0.077,0.251-0.155,0.381-0.231c0.229-0.131,0.523-0.057,0.658,0.173
			c0.134,0.229,0.057,0.523-0.173,0.658c-0.122,0.071-0.243,0.145-0.364,0.219c-0.949,0.581-1.87,1.231-2.742,1.935
			C215.936,14.927,215.808,14.959,215.688,14.947z M263.748,18.076c-0.062-0.006-0.124-0.026-0.183-0.057
			c-1.133-0.618-2.279-1.214-3.402-1.775c-0.238-0.118-0.335-0.407-0.216-0.644c0.118-0.239,0.403-0.334,0.646-0.217
			c1.134,0.566,2.291,1.167,3.435,1.791c0.233,0.128,0.32,0.42,0.193,0.654C264.124,18.001,263.935,18.094,263.748,18.076z
			 M221.42,11.427c-0.166-0.017-0.318-0.119-0.391-0.283c-0.108-0.242,0-0.527,0.243-0.635c1.178-0.528,2.417-0.978,3.685-1.341
			c0.253-0.07,0.521,0.075,0.595,0.332c0.073,0.255-0.075,0.521-0.331,0.595c-1.224,0.35-2.42,0.784-3.556,1.293
			C221.587,11.423,221.502,11.436,221.42,11.427z M257.722,15.042c-0.052-0.005-0.103-0.019-0.154-0.042
			c-1.18-0.543-2.363-1.058-3.517-1.528c-0.246-0.101-0.364-0.381-0.265-0.627c0.102-0.247,0.384-0.362,0.628-0.264
			c1.167,0.477,2.364,0.997,3.556,1.546c0.241,0.111,0.346,0.396,0.235,0.638C258.118,14.957,257.921,15.061,257.722,15.042z
			 M251.488,12.458c-0.039-0.004-0.078-0.012-0.117-0.027c-1.216-0.443-2.437-0.853-3.63-1.216
			c-0.254-0.076-0.397-0.346-0.321-0.598c0.077-0.256,0.348-0.403,0.6-0.32c1.21,0.368,2.449,0.782,3.681,1.232
			c0.25,0.091,0.378,0.367,0.288,0.617C251.912,12.356,251.702,12.48,251.488,12.458z M227.858,9.46
			c-0.209-0.021-0.387-0.177-0.424-0.394c-0.047-0.261,0.125-0.511,0.387-0.559c1.251-0.224,2.558-0.378,3.885-0.457
			c0.267-0.013,0.491,0.188,0.508,0.453c0.016,0.265-0.187,0.493-0.452,0.508c-1.289,0.074-2.557,0.223-3.77,0.441
			C227.946,9.463,227.901,9.464,227.858,9.46z M245.048,10.46c-0.024-0.002-0.047-0.007-0.071-0.011
			c-1.269-0.321-2.525-0.591-3.733-0.806c-0.262-0.046-0.436-0.296-0.389-0.559c0.047-0.259,0.281-0.438,0.559-0.389
			c1.229,0.22,2.508,0.496,3.8,0.82c0.257,0.065,0.413,0.327,0.349,0.584C245.502,10.333,245.281,10.483,245.048,10.46z
			 M234.575,8.959c-0.247-0.025-0.437-0.236-0.431-0.49c0.006-0.265,0.226-0.476,0.491-0.469c1.06,0.022,2.152,0.091,3.246,0.202
			l0.644,0.069c0.264,0.03,0.454,0.268,0.424,0.532c-0.03,0.262-0.264,0.451-0.526,0.425c-0.001,0-0.003,0-0.006-0.001l-0.632-0.067
			c-1.069-0.108-2.135-0.174-3.17-0.197C234.601,8.961,234.588,8.96,234.575,8.959z"/>
	</g>
</g>
<g>
	<g>
		<g>
			<g>
				<g>
					<polygon fill="#B9CEEB" points="245.162,143.001 295.018,158.086 306.383,194.616 329.572,165.034 371.468,174.366 
						459.181,46.554 					"/>
				</g>
			</g>
			<g opacity="0.5">
				<g>
					<polygon points="295.018,158.086 455.956,48.006 317.96,162.449 306.383,194.616 306.383,194.616 					"/>
				</g>
			</g>
		</g>
		<g opacity="0.8">
			<g>
				<polygon points="317.96,162.449 329.572,165.034 306.383,194.616 				"/>
			</g>
		</g>
	</g>
</g>
<g>
	<g>
		<g>
			<path fill="#B9CEEB" d="M124.94,228.085c-0.001-0.002-0.005,0.047-0.008,0.144c-0.002,0.099-0.006,0.242-0.011,0.431
				c-0.003,0.19-0.007,0.431-0.013,0.712c-0.004,0.285-0.016,0.611,0.005,0.992c0.013,0.379,0.028,0.802,0.045,1.267
				c0.02,0.468,0.078,0.984,0.122,1.539c0.103,1.116,0.289,2.407,0.569,3.854c0.575,2.889,1.639,6.412,3.445,10.14
				c1.815,3.707,4.357,7.61,7.635,11.091c1.638,1.73,3.438,3.398,5.411,4.823c1.967,1.435,4.099,2.678,6.353,3.458
				c0.563,0.201,1.132,0.352,1.707,0.484c0.571,0.102,1.148,0.201,1.729,0.303c0.579,0.064,1.16,0.105,1.747,0.16
				c0.585,0.035,1.167,0.015,1.758,0.025c2.349-0.052,4.71-0.451,7.059-1.099c4.707-1.288,9.351-3.563,14.153-5.877
				c4.83-2.257,9.735-4.856,14.737-7.556c20.004-10.847,37.831-21.352,50.597-29.271c6.389-3.941,11.483-7.309,14.996-9.648
				c1.751-1.186,3.095-2.134,4.011-2.769c0.456-0.32,0.802-0.565,1.039-0.731c0.115-0.082,0.202-0.146,0.262-0.19
				c0.059-0.042,0.087-0.066,0.086-0.069s-0.033,0.014-0.094,0.053c-0.062,0.039-0.153,0.097-0.271,0.172
				c-0.24,0.158-0.592,0.391-1.055,0.695c-0.926,0.618-2.288,1.527-4.042,2.7c-3.532,2.297-8.642,5.622-15.044,9.533
				c-12.791,7.853-30.633,18.315-50.633,29.157c-5.003,2.699-9.898,5.3-14.726,7.559c-4.803,2.32-9.433,4.598-14.116,5.891
				c-2.336,0.646-4.681,1.051-7.012,1.106c-0.585-0.011-1.163,0.015-1.743-0.022c-0.582-0.051-1.158-0.091-1.731-0.151
				c-0.577-0.099-1.147-0.196-1.713-0.296c-0.566-0.131-1.128-0.276-1.684-0.473c-2.226-0.766-4.341-1.992-6.293-3.404
				c-1.96-1.407-3.751-3.057-5.379-4.771c-3.262-3.439-5.797-7.306-7.612-10.979c-1.806-3.693-2.878-7.188-3.466-10.057
				c-0.287-1.438-0.48-2.725-0.592-3.837c-0.047-0.554-0.11-1.067-0.135-1.534c-0.021-0.466-0.042-0.888-0.059-1.267
				c-0.026-0.379-0.019-0.708-0.019-0.991c-0.001-0.283-0.001-0.521-0.001-0.716c-0.002-0.188-0.003-0.334-0.004-0.435
				C124.945,228.135,124.942,228.086,124.94,228.085z"/>
		</g>
	</g>
</g>
<g opacity="0.2">
	<g id="Pins">
		<path id="Pin_13_" fill="#B9CEEB" d="M92.757,270.005c-4.086-1.2-8.371,1.144-9.571,5.229c-2.055,7.016,3.396,15.826,3.396,15.826
			s9.347-4.469,11.405-11.486C99.185,275.486,96.843,271.205,92.757,270.005z M89.669,280.527c-1.979-0.58-3.11-2.655-2.532-4.633
			c0.58-1.979,2.656-3.113,4.635-2.533c1.978,0.582,3.114,2.654,2.532,4.634C93.724,279.975,91.648,281.109,89.669,280.527z"/>
		<path id="Pin_12_" fill="#B9CEEB" d="M99.12,168.834c-4.237-0.445-8.032,2.62-8.48,6.859c-0.771,7.268,6.171,14.959,6.171,14.959
			s8.397-6.065,9.167-13.336C106.424,173.08,103.351,169.281,99.12,168.834z M97.965,179.74c-2.051-0.213-3.537-2.053-3.321-4.104
			c0.216-2.053,2.055-3.536,4.106-3.319c2.052,0.215,3.537,2.057,3.321,4.105C101.852,178.473,100.015,179.962,97.965,179.74z"/>
		<path id="Pin_11_" fill="#B9CEEB" d="M21.322,190.417c-4.143,0.992-6.699,5.151-5.711,9.292
			c1.699,7.111,10.807,12.055,10.807,12.055s5.896-8.521,4.194-15.635C29.624,191.984,25.464,189.432,21.322,190.417z
			 M23.869,201.087c-2.004,0.481-4.021-0.758-4.5-2.764c-0.481-2.007,0.761-4.021,2.765-4.501c2.003-0.479,4.018,0.76,4.499,2.766
			C27.113,198.593,25.873,200.609,23.869,201.087z"/>
		<path id="Pin_10_" fill="#B9CEEB" d="M134.922,222.328c-3.973-1.532-8.437,0.445-9.968,4.421
			c-2.633,6.821,2.072,16.051,2.072,16.051s9.688-3.68,12.317-10.5C140.876,228.325,138.896,223.861,134.922,222.328z
			 M130.973,232.563c-1.925-0.74-2.882-2.904-2.139-4.83c0.742-1.924,2.905-2.881,4.831-2.139c1.922,0.742,2.88,2.904,2.136,4.824
			C135.061,232.35,132.902,233.307,130.973,232.563z"/>
	</g>
	<path id="Pin_1_" fill="#B9CEEB" d="M21.322,260.243c-4.143,0.991-6.698,5.151-5.71,9.291c1.699,7.112,10.806,12.055,10.806,12.055
		s5.897-8.521,4.194-15.634C29.624,261.811,25.463,259.256,21.322,260.243z M23.868,270.913c-2.003,0.479-4.02-0.759-4.499-2.765
		c-0.481-2.006,0.761-4.021,2.764-4.502c2.005-0.478,4.02,0.762,4.5,2.768C27.112,268.418,25.873,270.436,23.868,270.913z"/>
	<path id="Pin_2_" fill="#B9CEEB" d="M67.14,213.33c-4.143,0.993-6.698,5.152-5.71,9.291c1.698,7.113,10.806,12.057,10.806,12.057
		s5.897-8.521,4.195-15.635C75.442,214.898,71.282,212.346,67.14,213.33z M69.687,224.001c-2.003,0.479-4.02-0.76-4.5-2.765
		c-0.481-2.008,0.761-4.021,2.765-4.502c2.004-0.478,4.02,0.761,4.499,2.768C72.931,221.507,71.691,223.523,69.687,224.001z"/>
</g>
</svg>
