<?xml version="1.0" encoding="iso-8859-1"?>
<!-- Generator: Adobe Illustrator 16.0.0, SVG Export Plug-In . SVG Version: 6.00 Build 0)  -->
<!DOCTYPE svg PUBLIC "-//W3C//DTD SVG 1.1//EN" "http://www.w3.org/Graphics/SVG/1.1/DTD/svg11.dtd">
<svg version="1.1" id="Layer_1" xmlns="http://www.w3.org/2000/svg" xmlns:xlink="http://www.w3.org/1999/xlink" x="0px" y="0px"
	 width="640px" height="300px" viewBox="0 0 640 300" style="enable-background:new 0 0 640 300;" xml:space="preserve">
<g>
	<g>
		<g>
			<path style="fill:#263238;" d="M152.229,176.549c-0.005-0.004,0,0.09,0.02,0.273c0.024,0.189,0.057,0.461,0.1,0.82
				c0.048,0.365,0.109,0.82,0.176,1.355c0.074,0.541,0.139,1.164,0.308,1.881c0.149,0.717,0.315,1.516,0.5,2.396
				c0.195,0.883,0.504,1.852,0.789,2.896c0.61,2.098,1.497,4.51,2.685,7.199c2.413,5.361,6.337,11.83,12.33,18.527
				c6.007,6.658,14.043,13.539,23.938,19.459c4.941,2.945,10.305,5.734,16.061,8.027c5.744,2.311,11.877,4.225,18.203,5.236
				c1.581,0.266,3.165,0.432,4.757,0.564c1.572,0.072,3.164,0.143,4.763,0.213c1.583,0.002,3.166-0.041,4.769-0.061
				c1.592-0.055,3.158-0.215,4.758-0.318c6.334-0.59,12.596-1.842,18.754-3.561c12.34-3.43,24.215-8.717,36.508-14.115
				c12.386-5.291,24.87-11.254,37.588-17.424c50.845-24.77,95.904-48.439,128.052-66.143c16.099-8.821,28.865-16.277,37.663-21.454
				c4.38-2.614,7.731-4.696,10.019-6.092c1.136-0.704,2.001-1.242,2.59-1.605c0.285-0.182,0.501-0.32,0.65-0.417
				c0.146-0.094,0.216-0.146,0.212-0.152c-0.005-0.006-0.086,0.034-0.239,0.119c-0.157,0.088-0.385,0.216-0.681,0.383
				c-0.601,0.351-1.484,0.866-2.643,1.542c-2.319,1.367-5.73,3.378-10.123,5.97c-8.861,5.099-21.684,12.48-37.826,21.243
				c-32.237,17.579-77.351,41.173-128.184,65.937c-12.721,6.17-25.179,12.129-37.556,17.426
				c-12.291,5.408-24.13,10.697-36.402,14.129c-6.124,1.717-12.34,2.973-18.626,3.568c-1.583,0.104-3.139,0.27-4.718,0.324
				c-1.586,0.023-3.157,0.068-4.724,0.072c-1.588-0.068-3.161-0.135-4.721-0.203c-1.569-0.129-3.132-0.289-4.692-0.547
				c-6.244-0.986-12.326-2.871-18.026-5.148c-5.715-2.26-11.046-5.016-15.959-7.932c-9.842-5.85-17.845-12.658-23.843-19.252
				c-5.98-6.633-9.919-13.043-12.362-18.365c-1.203-2.672-2.109-5.072-2.742-7.16c-0.293-1.041-0.616-2.004-0.823-2.883
				c-0.197-0.881-0.376-1.678-0.535-2.393c-0.183-0.715-0.26-1.34-0.346-1.879c-0.086-0.537-0.16-0.99-0.217-1.357
				c-0.062-0.359-0.109-0.635-0.141-0.824C152.257,176.643,152.235,176.551,152.229,176.549z"/>
		</g>
	</g>
</g>
<g>
	<path style="fill:#FFFFFF;" d="M536.924,220.533c0.12-0.369-0.08-0.891-0.59-0.949c-26.28-3.1-52.939-4-79.36-2.57
		c-0.04-0.109-0.109-0.221-0.26-0.279c-2.29-0.941-3.479-2.602-3.569-4.99c-0.221-1.691,0.489-2.9,2.13-3.631
		c2.83-2.551,5.52-2.449,8.8-0.199c0.58,0.389,1.14-0.361,0.89-0.891c-4.08-8.48-2.51-21,8.65-22.59
		c11.109-1.58,17.72,8.41,18.71,18.189c0.07,0.74,1.21,0.76,1.16,0c-0.011-0.16-0.021-0.33-0.04-0.49
		c3.64-10.559,9.26-23.789,22.5-23.59c7.319,0.121,12.1,6.461,12.2,13.43c0.09,6.41-3.211,11.92-6.66,17.07
		c-0.48,0.711,0.649,1.34,1.14,0.66c0.01-0.01,0.021-0.029,0.03-0.039c0.069,0.189,0.29,0.34,0.529,0.199
		c7.54-4.459,16.561,2.25,13.94,10.73L536.924,220.533z"/>
	<path style="fill:#1D1D1B;" d="M452.584,208.424c2.061-3.939,6.87-4.18,10.51-2.541c-3.279-8.879-1.18-20.529,9.551-22.619
		c11.039-2.15,18.949,7.01,20.569,16.949c3.55-11.479,11.41-25.789,25.601-22.66c6.119,1.352,9.88,6.73,10.569,12.76
		c0.771,6.82-2.399,13.281-6.26,18.701c8.21-5.141,18.06,2.73,15.22,11.971c-0.239,0.779-1.47,0.439-1.229-0.342
		c0.01-0.02,0.01-0.029,0.01-0.049c2.62-8.48-6.4-15.189-13.94-10.73c-0.239,0.141-0.46-0.01-0.529-0.199
		c-0.01,0.01-0.021,0.029-0.03,0.039c-0.49,0.68-1.62,0.051-1.14-0.66c3.449-5.15,6.75-10.66,6.66-17.07
		c-0.101-6.969-4.881-13.309-12.2-13.43c-13.24-0.199-18.86,13.031-22.5,23.59c0.02,0.16,0.029,0.33,0.04,0.49
		c0.05,0.76-1.09,0.74-1.16,0c-0.99-9.779-7.601-19.77-18.71-18.189c-11.16,1.59-12.73,14.109-8.65,22.59
		c0.25,0.529-0.31,1.279-0.89,0.891c-3.28-2.25-5.97-2.352-8.8,0.199c-1.641,0.73-2.351,1.939-2.13,3.631
		c0.09,2.389,1.279,4.049,3.569,4.99c0.15,0.059,0.22,0.17,0.26,0.279c26.421-1.43,53.08-0.529,79.36,2.57
		c0.51,0.059,0.71,0.58,0.59,0.949c-0.069,0.221-0.27,0.381-0.59,0.35c-26.54-2.77-53.06-3.77-79.74-3.119
		c-0.229,0.01-0.34-0.15-0.35-0.33C452.534,216.373,450.774,211.893,452.584,208.424z"/>
</g>
<g>
	<path style="fill:#FFFFFF;" d="M408.44,89.563c0.619,1.53,0.06,3.12-1.08,4.18c-0.101-0.18-0.281-0.3-0.551-0.29
		c-22.279,1.141-44.561,2.17-66.86,2.94c0,0,0-0.011-0.01-0.011c-3.34-1.529-4.8-6.239-2.31-9.189c2.84-3.37,8-2.15,10.55,0.85
		c0.24,0.29,0.68,0.051,0.71-0.26c0.091-0.11,0.11-0.27-0.01-0.41c-5.38-6.27,0.7-14.89,7.5-16.479
		c7.83-1.83,14.859,3.66,15.189,11.62c0.03,0.55,0.67,0.689,0.98,0.409c0.23,0.011,0.47-0.17,0.391-0.47
		c-2.66-10.56,12.229-17.24,20.659-16.07c9.761,1.351,15.96,11.48,9.851,20.03c-0.131,0.181-0.11,0.38-0.021,0.54
		c-0.069,0.2,0.08,0.47,0.351,0.4C405.64,86.922,407.68,87.732,408.44,89.563z"/>
	<path style="fill:#1D1D1B;" d="M339.939,96.382c0.01,0,0.01,0.011,0.01,0.011c22.3-0.771,44.581-1.8,66.86-2.94
		c0.27-0.01,0.45,0.11,0.551,0.29c1.14-1.06,1.699-2.649,1.08-4.18c-0.761-1.83-2.801-2.641-4.66-2.21
		c-0.271,0.069-0.42-0.2-0.351-0.4c-0.09-0.16-0.11-0.359,0.021-0.54c6.109-8.55-0.09-18.68-9.851-20.03
		c-8.43-1.17-23.319,5.511-20.659,16.07c0.079,0.3-0.16,0.48-0.391,0.47c-0.311,0.28-0.95,0.141-0.98-0.409
		c-0.33-7.96-7.359-13.45-15.189-11.62c-6.8,1.59-12.88,10.21-7.5,16.479c0.12,0.141,0.101,0.3,0.01,0.41
		c-0.03,0.311-0.47,0.55-0.71,0.26c-2.55-3-7.71-4.22-10.55-0.85C335.14,90.143,336.6,94.853,339.939,96.382z M406.47,94.822
		c-22.21,1.38-44.46,2.11-66.71,2.33c-0.1,0-0.17-0.03-0.23-0.08c-4.26-1.3-5.58-7.27-2.84-10.61c2.44-2.97,6.881-3.02,9.95-1.05
		c-2.97-5.85,2.16-13.189,8.14-15.31c7.061-2.5,14.341,1.12,16.94,7.49c1.529-8.4,14.689-13.61,22.15-12.58
		c10.039,1.39,17.68,12.76,10.949,21.529c1.86-0.13,3.78,0.851,4.53,2.641c0.92,2.17-0.13,4.87-2.22,5.91
		C406.829,95.242,406.55,95.063,406.47,94.822z"/>
</g>
<g>
	<g>
		<circle style="fill:#52909D;" cx="214.756" cy="55.994" r="1.265"/>
		<circle style="fill:#52909D;" cx="225.981" cy="3.662" r="2.688"/>
		<circle style="fill:#52909D;" cx="274.518" cy="9.828" r="2.846"/>
		<circle style="fill:#52909D;" cx="185.665" cy="82.557" r="0.949"/>
		<circle style="fill:#52909D;" cx="208.273" cy="254.73" r="2.055"/>
		<circle style="fill:#52909D;" cx="167.325" cy="162.24" r="2.846"/>
		<circle style="fill:#52909D;" cx="371.119" cy="-19.105" r="3.32"/>
		<circle style="fill:#52909D;" cx="355.309" cy="-60.211" r="3.004"/>
		<circle style="fill:#52909D;" cx="481.949" cy="-1.872" r="2.529"/>
		<circle style="fill:#52909D;" cx="551.515" cy="-42.662" r="1.897"/>
		<circle style="fill:#52909D;" cx="572.067" cy="47.457" r="3.162"/>
		<circle style="fill:#52909D;" cx="613.491" cy="60.42" r="0.949"/>
		<circle style="fill:#52909D;" cx="539.657" cy="9.986" r="0.791"/>
		<circle style="fill:#52909D;" cx="620.289" cy="188.959" r="1.739"/>
		<circle style="fill:#52909D;" cx="598.155" cy="231.33" r="2.372"/>
		<circle style="fill:#52909D;" cx="610.803" cy="110.225" r="2.688"/>
		<circle style="fill:#52909D;" cx="394.044" cy="212.518" r="1.265"/>
		<circle style="fill:#52909D;" cx="242.637" cy="285.111" r="1.455"/>
		<circle style="fill:#52909D;" cx="362.362" cy="273.057" r="1.455"/>
		<circle style="fill:#52909D;" cx="428.668" cy="316.082" r="0.832"/>
		<circle style="fill:#52909D;" cx="330.976" cy="308.6" r="2.91"/>
		<circle style="fill:#52909D;" cx="551.72" cy="303.195" r="2.079"/>
		<circle style="fill:#52909D;" cx="604.516" cy="287.814" r="1.663"/>
		<circle style="fill:#52909D;" cx="477.1" cy="291.348" r="2.702"/>
	</g>
	<g>
		<circle style="fill:none;stroke:#52909D;stroke-miterlimit:10;" cx="494.351" cy="-45.599" r="6.465"/>
		<circle style="fill:none;stroke:#52909D;stroke-miterlimit:10;" cx="510.902" cy="23.708" r="3.103"/>
		<circle style="fill:none;stroke:#52909D;stroke-miterlimit:10;" cx="579.951" cy="-5.514" r="4.396"/>
		<circle style="fill:none;stroke:#52909D;stroke-miterlimit:10;" cx="545.168" cy="55.389" r="1.939"/>
		<circle style="fill:none;stroke:#52909D;stroke-miterlimit:10;" cx="501.463" cy="93.664" r="0.646"/>
		<circle style="fill:none;stroke:#52909D;stroke-miterlimit:10;" cx="615.252" cy="89.785" r="2.974"/>
		<circle style="fill:none;stroke:#52909D;stroke-miterlimit:10;" cx="619.777" cy="209.652" r="1.811"/>
		<circle style="fill:none;stroke:#52909D;stroke-miterlimit:10;" cx="383.795" cy="192.713" r="2.198"/>
		<circle style="fill:none;stroke:#52909D;stroke-miterlimit:10;" cx="166.173" cy="181.463" r="2.586"/>
		<circle style="fill:none;stroke:#52909D;stroke-miterlimit:10;" cx="185.31" cy="53.965" r="3.879"/>
		<circle style="fill:none;stroke:#52909D;stroke-miterlimit:10;" cx="206.128" cy="19.701" r="1.94"/>
		<circle style="fill:none;stroke:#52909D;stroke-miterlimit:10;" cx="283.065" cy="-17.152" r="5.431"/>
		<circle style="fill:none;stroke:#52909D;stroke-miterlimit:10;" cx="317.719" cy="-63.185" r="1.551"/>
		<circle style="fill:none;stroke:#52909D;stroke-miterlimit:10;" cx="239.618" cy="-56.202" r="3.104"/>
		<circle style="fill:none;stroke:#52909D;stroke-miterlimit:10;" cx="429.698" cy="-70.685" r="2.586"/>
		<circle style="fill:none;stroke:#52909D;stroke-miterlimit:10;" cx="396.243" cy="292.803" r="4.157"/>
		<circle style="fill:none;stroke:#52909D;stroke-miterlimit:10;" cx="525.946" cy="282.41" r="3.326"/>
		<circle style="fill:none;stroke:#52909D;stroke-miterlimit:10;" cx="288.157" cy="284.904" r="3.326"/>
		<circle style="fill:none;stroke:#52909D;stroke-miterlimit:10;" cx="198.987" cy="321.279" r="4.781"/>
		<circle style="fill:none;stroke:#52909D;stroke-miterlimit:10;" cx="503.915" cy="319.516" r="2.957"/>
		<circle style="fill:none;stroke:#52909D;stroke-miterlimit:10;" cx="542.355" cy="-103.331" r="4.095"/>
		<circle style="fill:none;stroke:#52909D;stroke-miterlimit:10;" cx="262.354" cy="-95.369" r="3.867"/>
		<circle style="fill:none;stroke:#52909D;stroke-miterlimit:10;" cx="186.837" cy="-46.238" r="3.412"/>
	</g>
</g>
<g id="Lines_1_">
	<g>
		<path style="fill:#FAFBFB;" d="M51.275,162.27c-0.203-0.169-0.507-0.141-0.676,0.065c-0.169,0.205-0.141,0.509,0.065,0.677
			c0.983,0.808,1.979,1.614,2.988,2.418c0.088,0.07,0.194,0.106,0.299,0.106c0.141,0,0.281-0.062,0.376-0.182
			c0.166-0.208,0.132-0.511-0.076-0.675C53.246,163.877,52.253,163.074,51.275,162.27z"/>
		<path style="fill:#FAFBFB;" d="M46.156,157.946c-0.201-0.174-0.503-0.152-0.679,0.047c-0.174,0.203-0.153,0.505,0.047,0.68
			c0.96,0.834,1.934,1.665,2.922,2.498c0.09,0.076,0.2,0.112,0.31,0.112c0.137,0,0.274-0.059,0.368-0.171
			c0.171-0.204,0.145-0.508-0.058-0.679C48.083,159.605,47.113,158.777,46.156,157.946z"/>
		<path style="fill:#FAFBFB;" d="M56.505,166.456c-0.211-0.165-0.512-0.125-0.676,0.083c-0.164,0.21-0.125,0.513,0.084,0.676
			c1.003,0.783,2.019,1.565,3.046,2.343c0.086,0.065,0.189,0.098,0.291,0.098c0.145,0,0.289-0.065,0.383-0.19
			c0.16-0.211,0.119-0.513-0.093-0.674C58.517,168.015,57.505,167.237,56.505,166.456z"/>
		<path style="fill:#FAFBFB;" d="M27.102,139.152c-0.175-0.201-0.479-0.219-0.678-0.044c-0.2,0.174-0.219,0.479-0.044,0.678
			c0.835,0.953,1.691,1.907,2.569,2.864c0.095,0.103,0.224,0.156,0.354,0.156c0.116,0,0.233-0.042,0.325-0.126
			c0.195-0.18,0.209-0.484,0.029-0.68C28.785,141.049,27.934,140.101,27.102,139.152z"/>
		<path style="fill:#FAFBFB;" d="M41.162,153.483c-0.196-0.179-0.499-0.166-0.68,0.028c-0.179,0.196-0.167,0.501,0.028,0.681
			c0.935,0.859,1.885,1.72,2.851,2.579c0.091,0.08,0.206,0.121,0.319,0.121c0.132,0,0.264-0.055,0.359-0.162
			c0.177-0.197,0.16-0.503-0.039-0.678C43.038,155.195,42.093,154.339,41.162,153.483z"/>
		<path style="fill:#EBEBEB;" d="M24.7,66.799c-1.221,0.512-2.4,1.064-3.508,1.641c-0.236,0.123-0.328,0.413-0.205,0.648
			c0.085,0.165,0.254,0.259,0.427,0.259c0.075,0,0.151-0.018,0.222-0.054c1.085-0.564,2.241-1.105,3.437-1.607
			c0.245-0.103,0.36-0.385,0.257-0.629C25.226,66.813,24.941,66.697,24.7,66.799z"/>
		<path style="fill:#FAFBFB;" d="M22.809,134.023c-0.166-0.207-0.467-0.239-0.677-0.075c-0.208,0.167-0.24,0.468-0.075,0.676
			c0.79,0.987,1.604,1.98,2.442,2.973c0.094,0.112,0.231,0.171,0.367,0.171c0.11,0,0.22-0.038,0.31-0.114
			c0.203-0.171,0.229-0.474,0.057-0.677C24.401,135.99,23.593,135.005,22.809,134.023z"/>
		<path style="fill:#FAFBFB;" d="M61.837,170.515c-0.209-0.155-0.512-0.115-0.673,0.101c-0.158,0.212-0.113,0.513,0.1,0.671
			c1.021,0.76,2.055,1.519,3.099,2.272c0.085,0.062,0.184,0.092,0.282,0.092c0.148,0,0.296-0.07,0.391-0.2
			c0.155-0.216,0.106-0.516-0.108-0.672C63.885,172.027,62.856,171.271,61.837,170.515z"/>
		<path style="fill:#FAFBFB;" d="M31.613,144.095c-0.182-0.192-0.488-0.199-0.68-0.017c-0.193,0.183-0.2,0.488-0.017,0.68
			c0.874,0.92,1.765,1.842,2.677,2.762c0.094,0.095,0.217,0.143,0.341,0.143c0.122,0,0.245-0.046,0.338-0.139
			c0.189-0.187,0.19-0.491,0.003-0.68C33.371,145.927,32.483,145.012,31.613,144.095z"/>
		<path style="fill:#FAFBFB;" d="M36.309,148.869c-0.19-0.187-0.495-0.183-0.68,0.006c-0.186,0.19-0.183,0.494,0.006,0.681
			c0.907,0.89,1.83,1.779,2.77,2.668c0.093,0.088,0.212,0.132,0.33,0.132c0.128,0,0.255-0.051,0.349-0.15
			c0.183-0.193,0.174-0.498-0.019-0.681C38.129,150.641,37.211,149.754,36.309,148.869z"/>
		<path style="fill:#FAFBFB;" d="M104.792,197.453c-1.133-0.601-2.257-1.205-3.375-1.813c-0.232-0.126-0.526-0.041-0.653,0.192
			c-0.127,0.233-0.041,0.525,0.193,0.652c1.122,0.609,2.249,1.216,3.384,1.817c0.073,0.038,0.149,0.057,0.226,0.057
			c0.172,0,0.338-0.095,0.425-0.256C105.116,197.868,105.027,197.577,104.792,197.453z"/>
		<path style="fill:#FAFBFB;" d="M110.742,200.541c-1.142-0.58-2.276-1.163-3.406-1.751c-0.233-0.119-0.526-0.031-0.649,0.203
			c-0.123,0.236-0.031,0.526,0.205,0.649c1.132,0.59,2.271,1.177,3.415,1.758c0.07,0.034,0.145,0.051,0.218,0.051
			c0.175,0,0.344-0.096,0.43-0.262C111.073,200.952,110.979,200.662,110.742,200.541z"/>
		<path style="fill:#FAFBFB;" d="M18.769,128.696c-0.155-0.216-0.458-0.266-0.67-0.11c-0.216,0.154-0.266,0.454-0.111,0.671
			c0.735,1.027,1.5,2.06,2.291,3.094c0.095,0.124,0.237,0.189,0.382,0.189c0.103,0,0.205-0.033,0.292-0.099
			c0.212-0.162,0.251-0.463,0.09-0.674C20.257,130.74,19.499,129.717,18.769,128.696z"/>
		<path style="fill:#FAFBFB;" d="M98.898,194.257c-1.121-0.62-2.234-1.245-3.34-1.873c-0.232-0.134-0.525-0.051-0.656,0.182
			c-0.131,0.23-0.05,0.525,0.18,0.654c1.11,0.63,2.226,1.256,3.351,1.879c0.074,0.041,0.153,0.061,0.232,0.061
			c0.169,0,0.333-0.089,0.421-0.248C99.215,194.68,99.13,194.387,98.898,194.257z"/>
		<path style="fill:#FAFBFB;" d="M116.744,203.524c-1.152-0.561-2.298-1.123-3.438-1.691c-0.236-0.119-0.526-0.023-0.645,0.216
			c-0.118,0.238-0.022,0.526,0.215,0.645c1.143,0.57,2.292,1.134,3.446,1.695c0.068,0.033,0.139,0.048,0.21,0.048
			c0.178,0,0.35-0.099,0.433-0.269C117.083,203.929,116.983,203.641,116.744,203.524z"/>
		<path style="fill:#FAFBFB;" d="M75.958,180.392c-1.07-0.705-2.133-1.415-3.184-2.128c-0.219-0.146-0.519-0.091-0.669,0.129
			c-0.148,0.219-0.09,0.519,0.129,0.668c1.054,0.715,2.119,1.426,3.193,2.133c0.082,0.056,0.174,0.081,0.266,0.081
			c0.155,0,0.309-0.077,0.401-0.216C76.241,180.837,76.179,180.538,75.958,180.392z"/>
		<path style="fill:#FAFBFB;" d="M81.59,184.024c-1.085-0.684-2.162-1.372-3.228-2.062c-0.221-0.143-0.52-0.079-0.665,0.144
			c-0.144,0.223-0.08,0.52,0.143,0.665c1.069,0.69,2.148,1.38,3.237,2.066c0.079,0.052,0.168,0.074,0.256,0.074
			c0.159,0,0.316-0.078,0.407-0.225C81.882,184.464,81.814,184.166,81.59,184.024z"/>
		<path style="fill:#FAFBFB;" d="M93.064,190.957c-1.109-0.642-2.211-1.288-3.306-1.937c-0.227-0.137-0.524-0.061-0.658,0.168
			c-0.136,0.229-0.06,0.523,0.168,0.657c1.097,0.652,2.202,1.3,3.315,1.943c0.075,0.044,0.159,0.064,0.241,0.064
			c0.166,0,0.327-0.087,0.416-0.24C93.373,191.383,93.294,191.089,93.064,190.957z"/>
		<path style="fill:#FAFBFB;" d="M87.295,187.547c-1.099-0.663-2.188-1.329-3.269-1.999c-0.226-0.14-0.522-0.069-0.662,0.156
			c-0.14,0.226-0.071,0.522,0.156,0.661c1.084,0.671,2.177,1.339,3.276,2.005c0.079,0.046,0.164,0.068,0.249,0.068
			c0.163,0,0.321-0.082,0.412-0.231C87.594,187.979,87.522,187.684,87.295,187.547z"/>
		<path style="fill:#FAFBFB;" d="M67.262,174.449c-0.214-0.15-0.515-0.102-0.67,0.115c-0.153,0.215-0.103,0.517,0.114,0.67
			c1.039,0.735,2.088,1.471,3.149,2.202c0.083,0.058,0.178,0.083,0.273,0.083c0.153,0,0.303-0.07,0.396-0.206
			c0.15-0.22,0.096-0.52-0.123-0.67C69.344,175.916,68.298,175.183,67.262,174.449z"/>
		<path style="fill:#FAFBFB;" d="M15.046,123.149c-0.141-0.225-0.437-0.292-0.663-0.152c-0.225,0.141-0.293,0.438-0.153,0.664
			c0.667,1.063,1.374,2.148,2.105,3.225c0.093,0.138,0.244,0.212,0.398,0.212c0.093,0,0.187-0.027,0.27-0.083
			c0.219-0.149,0.276-0.449,0.128-0.668C16.407,125.278,15.705,124.202,15.046,123.149z"/>
		<path style="fill:#EBEBEB;" d="M286.82,195.169c0.267,1.255,0.475,2.511,0.616,3.731c0.03,0.246,0.237,0.427,0.477,0.427
			c0.019,0,0.038-0.001,0.056-0.003c0.265-0.03,0.454-0.27,0.423-0.533c-0.146-1.251-0.358-2.537-0.63-3.82
			c-0.055-0.261-0.31-0.423-0.57-0.372C286.931,194.655,286.765,194.911,286.82,195.169z"/>
		<path style="fill:#EBEBEB;" d="M281.137,180.101c0.086,0.164,0.253,0.258,0.425,0.258c0.076,0,0.153-0.02,0.224-0.056
			c0.235-0.124,0.326-0.416,0.201-0.65c-0.588-1.117-1.219-2.25-1.873-3.369c-0.135-0.229-0.429-0.304-0.659-0.172
			c-0.229,0.134-0.306,0.429-0.172,0.658C279.931,177.875,280.554,178.997,281.137,180.101z"/>
		<path style="fill:#EBEBEB;" d="M274.071,168.778c0.094,0.132,0.241,0.201,0.391,0.201c0.098,0,0.195-0.029,0.28-0.091
			c0.216-0.153,0.266-0.454,0.11-0.67c-0.736-1.028-1.5-2.06-2.292-3.094c-0.161-0.212-0.464-0.251-0.674-0.091
			c-0.211,0.162-0.251,0.464-0.091,0.676C272.581,166.736,273.34,167.761,274.071,168.778z"/>
		<path style="fill:#EBEBEB;" d="M270.03,163.452c0.096,0.119,0.235,0.181,0.376,0.181c0.107,0,0.212-0.036,0.301-0.104
			c0.208-0.167,0.24-0.471,0.075-0.678c-0.791-0.986-1.605-1.979-2.445-2.971c-0.17-0.203-0.474-0.228-0.677-0.058
			c-0.203,0.171-0.229,0.475-0.057,0.677C268.436,161.486,269.245,162.472,270.03,163.452z"/>
		<path style="fill:#EBEBEB;" d="M261.917,152.723c-0.367-0.388-0.73-0.767-1.104-1.153l-0.163,1.218
			c0.191,0.199,0.381,0.397,0.569,0.598c0.094,0.1,0.222,0.149,0.349,0.149c0.119,0,0.237-0.044,0.33-0.132
			C262.093,153.22,262.1,152.916,261.917,152.723z"/>
		<path style="fill:#EBEBEB;" d="M6.721,105.055c-0.07-0.255-0.338-0.402-0.591-0.336c-0.256,0.072-0.407,0.336-0.336,0.592
			c0.334,1.209,0.726,2.45,1.167,3.687c0.069,0.196,0.254,0.32,0.452,0.32c0.054,0,0.108-0.009,0.162-0.028
			c0.25-0.088,0.38-0.364,0.291-0.614C7.433,107.46,7.048,106.241,6.721,105.055z"/>
		<path style="fill:#EBEBEB;" d="M4.767,96.231c0.266-0.01,0.474-0.232,0.465-0.498c-0.012-0.357-0.018-0.715-0.018-1.068
			c0-0.917,0.039-1.826,0.118-2.705c0.024-0.265-0.172-0.499-0.436-0.522c-0.267-0.02-0.498,0.17-0.522,0.437
			c-0.081,0.907-0.122,1.846-0.122,2.791c0,0.364,0.005,0.731,0.018,1.1c0.009,0.261,0.222,0.466,0.48,0.466
			C4.757,96.231,4.762,96.231,4.767,96.231z"/>
		<path style="fill:#EBEBEB;" d="M8.886,111.336c-0.103-0.246-0.385-0.361-0.627-0.263c-0.246,0.102-0.363,0.382-0.263,0.628
			c0.476,1.157,1.002,2.343,1.569,3.528c0.082,0.173,0.254,0.273,0.434,0.273c0.069,0,0.141-0.015,0.208-0.047
			c0.239-0.115,0.34-0.402,0.226-0.642C9.874,113.646,9.354,112.476,8.886,111.336z"/>
		<path style="fill:#EBEBEB;" d="M6.048,102.293c-0.266-1.261-0.47-2.517-0.608-3.732c-0.03-0.264-0.276-0.453-0.533-0.424
			c-0.264,0.03-0.454,0.269-0.423,0.533c0.142,1.245,0.351,2.531,0.623,3.821c0.048,0.228,0.247,0.382,0.47,0.382
			c0.032,0,0.066-0.002,0.099-0.011C5.937,102.809,6.103,102.553,6.048,102.293z"/>
		<path style="fill:#EBEBEB;" d="M13.225,73.942c-0.967,0.89-1.871,1.839-2.685,2.819c-0.169,0.204-0.142,0.507,0.063,0.677
			c0.089,0.074,0.198,0.111,0.307,0.111c0.138,0,0.275-0.06,0.37-0.174c0.787-0.947,1.661-1.864,2.597-2.727
			c0.196-0.179,0.208-0.483,0.027-0.679C13.725,73.773,13.419,73.763,13.225,73.942z"/>
		<path style="fill:#EBEBEB;" d="M11.715,117.369c-0.125-0.237-0.416-0.324-0.649-0.202c-0.235,0.124-0.326,0.414-0.202,0.649
			c0.589,1.121,1.218,2.255,1.872,3.372c0.089,0.153,0.25,0.238,0.415,0.238c0.083,0,0.167-0.021,0.242-0.065
			c0.229-0.133,0.308-0.429,0.173-0.658C12.92,119.598,12.298,118.477,11.715,117.369z"/>
		<path style="fill:#EBEBEB;" d="M33.995,64.769c0.037,0,0.076-0.004,0.114-0.014c1.005-0.245,2.04-0.474,3.085-0.684l0.743-1.032
			c-0.085-0.037-0.188-0.056-0.285-0.038c-1.278,0.246-2.546,0.521-3.771,0.82c-0.258,0.063-0.416,0.323-0.353,0.581
			C33.581,64.621,33.777,64.769,33.995,64.769z"/>
		<path style="fill:#EBEBEB;" d="M5.157,89.542c0.031,0.005,0.061,0.008,0.091,0.008c0.227,0,0.427-0.16,0.472-0.391
			c0.236-1.243,0.561-2.466,0.963-3.638c0.086-0.251-0.047-0.525-0.299-0.611c-0.251-0.087-0.524,0.047-0.61,0.299
			c-0.418,1.213-0.753,2.483-0.999,3.77C4.724,89.241,4.896,89.492,5.157,89.542z"/>
		<path style="fill:#EBEBEB;" d="M15.751,72.928c0.102,0,0.206-0.033,0.293-0.1c0.972-0.748,2.021-1.467,3.118-2.137
			c0.226-0.139,0.297-0.435,0.159-0.662c-0.14-0.227-0.437-0.296-0.661-0.16c-1.125,0.688-2.203,1.428-3.202,2.196
			c-0.21,0.162-0.25,0.464-0.088,0.674C15.465,72.863,15.607,72.928,15.751,72.928z"/>
		<path style="fill:#EBEBEB;" d="M7.123,83.104c0.058,0.027,0.12,0.041,0.183,0.041c0.192,0,0.385-0.123,0.47-0.303
			c0.523-1.1,1.135-2.179,1.816-3.206c0.148-0.221,0.088-0.52-0.134-0.666c-0.219-0.146-0.52-0.088-0.666,0.134
			c-0.708,1.064-1.342,2.183-1.885,3.324c0,0.003-0.032,0.071-0.033,0.074C6.764,82.742,6.883,82.993,7.123,83.104z"/>
		<path style="fill:#EBEBEB;" d="M27.567,66.684c0.054,0,0.109-0.009,0.163-0.028c1.156-0.415,2.374-0.807,3.619-1.167
			c0.256-0.074,0.402-0.34,0.33-0.596c-0.075-0.254-0.343-0.405-0.596-0.328c-1.265,0.365-2.502,0.764-3.678,1.185
			c-0.25,0.089-0.379,0.366-0.291,0.615C27.186,66.562,27.37,66.684,27.567,66.684z"/>
		<path style="fill:#EBEBEB;" d="M238.86,235.284c-1.255,0.039-2.529,0.06-3.82,0.063c-0.266,0.002-0.481,0.219-0.48,0.482
			c0.001,0.266,0.216,0.48,0.481,0.48h0c1.302-0.003,2.585-0.026,3.849-0.066c0.266-0.007,0.475-0.229,0.465-0.494
			C239.348,235.484,239.131,235.26,238.86,235.284z"/>
		<path style="fill:#EBEBEB;" d="M245.531,234.892c-1.247,0.11-2.519,0.199-3.809,0.27c-0.265,0.015-0.469,0.241-0.454,0.506
			c0.014,0.259,0.226,0.454,0.48,0.454c0.009,0,0.017,0,0.026,0c1.302-0.07,2.582-0.16,3.841-0.271
			c0.264-0.024,0.46-0.256,0.437-0.522C246.03,235.065,245.791,234.868,245.531,234.892z"/>
		<path style="fill:#EBEBEB;" d="M252.161,234.09c-1.236,0.193-2.507,0.366-3.781,0.512c-0.264,0.031-0.454,0.269-0.424,0.533
			c0.028,0.244,0.236,0.427,0.477,0.427c0.019,0,0.038,0,0.056-0.002c1.286-0.15,2.573-0.324,3.819-0.519
			c0.264-0.041,0.443-0.288,0.402-0.55C252.669,234.228,252.413,234.052,252.161,234.09z"/>
		<path style="fill:#EBEBEB;" d="M232.172,235.326c-1.258-0.021-2.534-0.06-3.82-0.113c-0.309,0.01-0.49,0.196-0.501,0.461
			c-0.01,0.267,0.196,0.491,0.46,0.502c1.296,0.054,2.578,0.092,3.845,0.112c0.003,0,0.006,0,0.009,0
			c0.262,0,0.477-0.209,0.481-0.471C232.65,235.551,232.438,235.331,232.172,235.326z"/>
		<path style="fill:#EBEBEB;" d="M218.813,234.548c-1.256-0.12-2.525-0.255-3.805-0.404c-0.26-0.024-0.502,0.159-0.533,0.423
			s0.158,0.503,0.423,0.532c1.285,0.149,2.561,0.286,3.824,0.408c0.016,0,0.031,0.002,0.047,0.002c0.244,0,0.454-0.188,0.478-0.436
			C219.271,234.809,219.076,234.573,218.813,234.548z"/>
		<path style="fill:#FAFBFB;" d="M212.159,233.792c-1.253-0.16-2.516-0.338-3.791-0.527c-0.259-0.041-0.508,0.143-0.546,0.406
			c-0.04,0.262,0.142,0.506,0.405,0.546c1.281,0.19,2.549,0.365,3.808,0.53c0.021,0.002,0.042,0.004,0.063,0.004
			c0.238,0,0.445-0.178,0.477-0.419C212.608,234.068,212.422,233.827,212.159,233.792z"/>
		<path style="fill:#EBEBEB;" d="M225.486,235.069c-1.258-0.073-2.53-0.163-3.814-0.268c-0.255-0.012-0.497,0.176-0.519,0.439
			c-0.021,0.266,0.175,0.497,0.439,0.52c1.292,0.104,2.571,0.194,3.836,0.27c0.01,0,0.019,0,0.029,0
			c0.252,0,0.465-0.197,0.479-0.452C225.954,235.312,225.751,235.084,225.486,235.069z"/>
		<path style="fill:#EBEBEB;" d="M281.557,220.214c-0.789,0.943-1.666,1.857-2.604,2.72c-0.195,0.179-0.209,0.484-0.029,0.679
			c0.095,0.103,0.225,0.157,0.354,0.157c0.117,0,0.232-0.043,0.325-0.128c0.969-0.89,1.875-1.836,2.692-2.813
			c0.17-0.203,0.142-0.504-0.062-0.678C282.034,219.983,281.728,220.008,281.557,220.214z"/>
		<path style="fill:#EBEBEB;" d="M284.415,186.428c0.061,0,0.123-0.013,0.184-0.038c0.246-0.101,0.362-0.382,0.261-0.626
			c-0.477-1.159-1.006-2.345-1.571-3.527c-0.115-0.239-0.405-0.337-0.641-0.225c-0.241,0.113-0.341,0.401-0.227,0.641
			c0.558,1.165,1.08,2.336,1.552,3.477C284.046,186.315,284.226,186.428,284.415,186.428z"/>
		<path style="fill:#EBEBEB;" d="M286.608,192.761c0.042,0,0.086-0.005,0.129-0.018c0.255-0.069,0.406-0.336,0.334-0.591
			c-0.336-1.213-0.729-2.451-1.17-3.686c-0.09-0.25-0.363-0.377-0.615-0.291c-0.25,0.089-0.38,0.365-0.291,0.614
			c0.433,1.214,0.82,2.429,1.151,3.619C286.204,192.622,286.396,192.761,286.608,192.761z"/>
		<path style="fill:#EBEBEB;" d="M285.809,214.329c-0.238-0.113-0.526-0.009-0.639,0.232l-0.062,0.13
			c-0.535,1.126-1.161,2.226-1.856,3.265c-0.149,0.221-0.09,0.52,0.13,0.668c0.083,0.055,0.176,0.08,0.269,0.08
			c0.155,0,0.307-0.074,0.399-0.214c0.723-1.077,1.371-2.217,1.926-3.386l0.064-0.136
			C286.154,214.728,286.049,214.441,285.809,214.329z"/>
		<path style="fill:#EBEBEB;" d="M287.739,207.918c-0.254-0.048-0.513,0.122-0.562,0.384c-0.232,1.241-0.555,2.466-0.954,3.642
			c-0.085,0.253,0.05,0.525,0.301,0.61c0.051,0.018,0.103,0.025,0.155,0.025c0.2,0,0.387-0.125,0.456-0.324
			c0.414-1.22,0.746-2.489,0.987-3.773C288.171,208.219,287.999,207.969,287.739,207.918z"/>
		<path style="fill:#EBEBEB;" d="M288.611,201.694c-0.011-0.267-0.243-0.47-0.498-0.466c-0.266,0.01-0.474,0.232-0.465,0.498
			c0.014,0.383,0.021,0.764,0.021,1.143c0,0.887-0.038,1.773-0.112,2.632c-0.022,0.264,0.173,0.497,0.438,0.52
			c0.014,0.002,0.028,0.002,0.042,0.002c0.246,0,0.457-0.188,0.478-0.439c0.077-0.884,0.116-1.798,0.116-2.716
			C288.631,202.478,288.624,202.087,288.611,201.694z"/>
		<path style="fill:#EBEBEB;" d="M276.783,224.751c-0.976,0.746-2.027,1.463-3.123,2.131c-0.228,0.138-0.299,0.435-0.161,0.66
			c0.091,0.149,0.249,0.232,0.41,0.232c0.086,0,0.172-0.023,0.25-0.072c1.125-0.684,2.205-1.42,3.208-2.188
			c0.211-0.162,0.251-0.463,0.091-0.675C277.296,224.629,276.993,224.59,276.783,224.751z"/>
		<path style="fill:#EBEBEB;" d="M263.884,154.83c-0.178-0.195-0.484-0.209-0.678-0.03c-0.196,0.181-0.209,0.484-0.029,0.68
			c0.872,0.951,1.725,1.898,2.555,2.847c0.094,0.108,0.228,0.163,0.361,0.163c0.112,0,0.226-0.039,0.318-0.119
			c0.198-0.176,0.218-0.479,0.043-0.679C265.619,156.738,264.763,155.784,263.884,154.83z"/>
		<path style="fill:#EBEBEB;" d="M265.085,230.903c-1.159,0.415-2.378,0.806-3.621,1.164c-0.254,0.072-0.402,0.339-0.329,0.596
			c0.062,0.21,0.253,0.346,0.462,0.346c0.044,0,0.088-0.006,0.133-0.019c1.263-0.363,2.5-0.762,3.679-1.182
			c0.25-0.089,0.38-0.364,0.291-0.613C265.609,230.944,265.336,230.817,265.085,230.903z"/>
		<path style="fill:#EBEBEB;" d="M271.183,228.272c-1.083,0.563-2.24,1.103-3.438,1.603c-0.245,0.103-0.358,0.386-0.257,0.63
			c0.078,0.184,0.255,0.295,0.443,0.295c0.063,0,0.125-0.013,0.186-0.036c1.222-0.513,2.403-1.063,3.51-1.637
			c0.236-0.121,0.328-0.413,0.207-0.648C271.709,228.243,271.418,228.151,271.183,228.272z"/>
		<path style="fill:#EBEBEB;" d="M276.507,170.587c-0.149-0.222-0.449-0.274-0.668-0.127c-0.22,0.148-0.276,0.447-0.126,0.668
			c0.731,1.076,1.433,2.15,2.087,3.194c0.091,0.146,0.249,0.225,0.409,0.225c0.087,0,0.175-0.022,0.255-0.072
			c0.224-0.14,0.294-0.438,0.152-0.664C277.956,172.757,277.247,171.672,276.507,170.587z"/>
		<path style="fill:#EBEBEB;" d="M258.705,232.795c-1.198,0.292-2.451,0.563-3.725,0.805c-0.261,0.05-0.432,0.303-0.382,0.563
			c0.045,0.231,0.247,0.391,0.472,0.391c0.03,0,0.06-0.002,0.091-0.007c1.289-0.247,2.558-0.52,3.771-0.815
			c0.258-0.063,0.417-0.323,0.354-0.582C259.223,232.893,258.964,232.737,258.705,232.795z"/>
		<path style="fill:#FAFBFB;" d="M153.777,219.144c-1.197-0.429-2.396-0.865-3.598-1.311c-0.251-0.096-0.527,0.034-0.619,0.282
			c-0.091,0.25,0.036,0.527,0.284,0.619c1.205,0.447,2.408,0.884,3.608,1.314c0.053,0.019,0.108,0.027,0.162,0.027
			c0.198,0,0.382-0.121,0.453-0.317C154.157,219.508,154.028,219.232,153.777,219.144z"/>
		<path style="fill:#FAFBFB;" d="M147.49,216.823c-1.189-0.453-2.381-0.911-3.575-1.38c-0.25-0.097-0.527,0.024-0.624,0.273
			c-0.097,0.246,0.025,0.524,0.272,0.622c1.199,0.47,2.393,0.932,3.584,1.384c0.056,0.021,0.114,0.03,0.171,0.03
			c0.194,0,0.377-0.118,0.45-0.309C147.863,217.195,147.737,216.917,147.49,216.823z"/>
		<path style="fill:#FAFBFB;" d="M205.534,232.826c-1.249-0.203-2.507-0.418-3.774-0.642c-0.269-0.041-0.511,0.127-0.559,0.388
			c-0.046,0.263,0.128,0.513,0.39,0.56c1.271,0.227,2.536,0.439,3.788,0.642c0.026,0.005,0.053,0.007,0.079,0.007
			c0.23,0,0.435-0.167,0.473-0.403C205.974,233.113,205.796,232.869,205.534,232.826z"/>
		<path style="fill:#FAFBFB;" d="M160.108,221.344c-1.204-0.405-2.412-0.818-3.623-1.24c-0.251-0.091-0.525,0.042-0.612,0.293
			c-0.087,0.25,0.044,0.525,0.294,0.612c1.215,0.425,2.427,0.84,3.635,1.246c0.051,0.017,0.103,0.026,0.153,0.026
			c0.201,0,0.388-0.128,0.457-0.329C160.495,221.702,160.359,221.429,160.108,221.344z"/>
		<path style="fill:#FAFBFB;" d="M135.047,211.833c-1.172-0.495-2.346-0.998-3.521-1.509c-0.244-0.103-0.527,0.006-0.633,0.249
			c-0.105,0.243,0.007,0.526,0.25,0.634c1.179,0.51,2.354,1.016,3.531,1.513c0.062,0.024,0.125,0.037,0.187,0.037
			c0.187,0,0.366-0.11,0.444-0.294C135.408,212.219,135.292,211.937,135.047,211.833z"/>
		<path style="fill:#FAFBFB;" d="M128.896,209.171c-1.164-0.516-2.327-1.039-3.496-1.57c-0.24-0.109-0.525-0.004-0.637,0.237
			c-0.109,0.241-0.003,0.527,0.239,0.638c1.169,0.533,2.337,1.057,3.502,1.574c0.064,0.028,0.13,0.041,0.196,0.041
			c0.184,0,0.359-0.106,0.44-0.286C129.248,209.563,129.139,209.278,128.896,209.171z"/>
		<path style="fill:#FAFBFB;" d="M141.248,214.386c-1.183-0.475-2.365-0.956-3.549-1.445c-0.246-0.103-0.528,0.017-0.628,0.26
			c-0.102,0.246,0.015,0.526,0.26,0.628c1.188,0.492,2.374,0.974,3.558,1.448c0.059,0.025,0.119,0.036,0.179,0.036
			c0.19,0,0.371-0.114,0.446-0.303C141.612,214.763,141.493,214.483,141.248,214.386z"/>
		<path style="fill:#FAFBFB;" d="M122.8,206.401c-1.024-0.477-2.048-0.956-3.071-1.442l-0.396-0.189
			c-0.236-0.11-0.527-0.013-0.64,0.23c-0.114,0.239-0.011,0.527,0.23,0.64l0.393,0.187c1.027,0.488,2.053,0.972,3.08,1.447
			c0.065,0.031,0.133,0.044,0.203,0.044c0.181,0,0.355-0.102,0.436-0.275C123.145,206.8,123.04,206.514,122.8,206.401z"/>
		<path style="fill:#FAFBFB;" d="M192.371,230.324c-1.238-0.27-2.485-0.551-3.736-0.84c-0.256-0.061-0.517,0.103-0.577,0.361
			c-0.061,0.258,0.101,0.516,0.361,0.575c1.255,0.292,2.505,0.572,3.748,0.841c0.035,0.009,0.069,0.013,0.103,0.013
			c0.221,0,0.42-0.154,0.469-0.379C192.795,230.637,192.63,230.38,192.371,230.324z"/>
		<path style="fill:#FAFBFB;" d="M185.843,228.821c-1.232-0.299-2.47-0.608-3.714-0.93c-0.259-0.066-0.52,0.088-0.586,0.346
			c-0.065,0.256,0.089,0.519,0.346,0.586c1.249,0.321,2.492,0.632,3.727,0.933c0.038,0.009,0.077,0.013,0.114,0.013
			c0.217,0,0.415-0.147,0.468-0.366C186.259,229.142,186.102,228.883,185.843,228.821z"/>
		<path style="fill:#FAFBFB;" d="M198.937,231.662c-1.244-0.235-2.497-0.483-3.756-0.741c-0.255-0.055-0.515,0.111-0.568,0.373
			c-0.053,0.261,0.114,0.515,0.375,0.568c1.265,0.261,2.521,0.509,3.769,0.746c0.031,0.006,0.061,0.008,0.092,0.008
			c0.226,0,0.427-0.159,0.471-0.392C199.368,231.966,199.196,231.713,198.937,231.662z"/>
		<path style="fill:#FAFBFB;" d="M172.896,225.357c-1.219-0.354-2.441-0.719-3.67-1.093c-0.251-0.077-0.522,0.064-0.6,0.319
			c-0.077,0.254,0.066,0.521,0.32,0.6c1.231,0.377,2.458,0.741,3.682,1.099c0.044,0.013,0.09,0.019,0.134,0.019
			c0.208,0,0.4-0.137,0.461-0.346C173.297,225.7,173.152,225.434,172.896,225.357z"/>
		<path style="fill:#FAFBFB;" d="M179.35,227.162c-1.226-0.329-2.457-0.666-3.693-1.014c-0.254-0.072-0.521,0.079-0.593,0.335
			c-0.071,0.254,0.077,0.52,0.333,0.593c1.241,0.346,2.476,0.686,3.705,1.016c0.042,0.011,0.083,0.017,0.124,0.017
			c0.212,0,0.406-0.142,0.464-0.357C179.76,227.495,179.607,227.231,179.35,227.162z"/>
		<path style="fill:#FAFBFB;" d="M166.482,223.418c-1.211-0.382-2.427-0.771-3.647-1.171c-0.251-0.082-0.524,0.055-0.606,0.307
			c-0.082,0.253,0.055,0.524,0.308,0.607c1.223,0.4,2.442,0.791,3.657,1.173c0.049,0.015,0.096,0.022,0.144,0.022
			c0.205,0,0.395-0.131,0.459-0.337C166.876,223.766,166.735,223.496,166.482,223.418z"/>
	</g>
	<g>
		<path style="fill:#EBEBEB;" d="M194.171,260.867c0,0,0,0-0.002,0c-1.26-0.005-2.568-0.066-3.887-0.181
			c-0.265-0.022-0.461-0.258-0.438-0.521c0.022-0.263,0.262-0.458,0.521-0.437c1.293,0.11,2.575,0.172,3.808,0.177
			c0.266,0.002,0.48,0.218,0.479,0.482C194.651,260.653,194.436,260.867,194.171,260.867z M197.06,260.782
			c-0.25,0-0.462-0.197-0.479-0.451c-0.016-0.264,0.184-0.493,0.449-0.51c1.294-0.084,2.565-0.234,3.778-0.443
			c0.259-0.055,0.508,0.129,0.555,0.391c0.046,0.262-0.13,0.511-0.392,0.556c-1.246,0.217-2.551,0.369-3.879,0.456
			C197.082,260.782,197.071,260.782,197.06,260.782z M187.452,260.363c-0.023,0-0.045-0.002-0.068-0.006
			c-1.245-0.174-2.533-0.397-3.828-0.661c-0.261-0.055-0.428-0.309-0.375-0.569c0.054-0.262,0.314-0.43,0.568-0.376
			c1.275,0.263,2.544,0.483,3.769,0.655c0.263,0.035,0.445,0.28,0.409,0.542C187.894,260.189,187.688,260.363,187.452,260.363z
			 M203.714,259.716c-0.212,0-0.407-0.142-0.465-0.356c-0.068-0.256,0.084-0.52,0.34-0.589c1.24-0.333,2.447-0.74,3.59-1.215
			c0.242-0.1,0.525,0.013,0.628,0.259c0.102,0.245-0.014,0.525-0.26,0.629c-1.181,0.49-2.43,0.912-3.709,1.256
			C203.796,259.711,203.756,259.716,203.714,259.716z M180.833,259.063c-0.038,0-0.077-0.004-0.116-0.014
			c-1.219-0.303-2.477-0.65-3.74-1.031c-0.254-0.076-0.398-0.345-0.321-0.6c0.077-0.254,0.348-0.397,0.599-0.32
			c1.247,0.375,2.49,0.717,3.694,1.016c0.257,0.065,0.415,0.326,0.351,0.584C181.247,258.918,181.05,259.063,180.833,259.063z
			 M209.969,257.229c-0.169,0-0.334-0.092-0.421-0.251c-0.128-0.233-0.042-0.525,0.19-0.652c1.107-0.607,2.173-1.299,3.173-2.058
			c0.21-0.158,0.549-0.146,0.708,0.064c0.161,0.212,0.155,0.487-0.056,0.647l-0.292-0.383l0.231,0.43
			c-1.047,0.794-2.155,1.513-3.302,2.143C210.127,257.212,210.048,257.229,209.969,257.229z M174.364,257.153
			c-0.05,0-0.104-0.008-0.155-0.024c-1.191-0.406-2.418-0.85-3.643-1.32c-0.248-0.094-0.372-0.371-0.277-0.621
			c0.094-0.246,0.375-0.369,0.621-0.276c1.214,0.466,2.427,0.905,3.609,1.307c0.25,0.085,0.386,0.357,0.3,0.61
			C174.751,257.027,174.564,257.153,174.364,257.153z M168.051,254.768c-0.062,0-0.125-0.013-0.185-0.038
			c-1.175-0.487-2.369-1.009-3.55-1.548c-0.241-0.11-0.348-0.395-0.237-0.638c0.11-0.24,0.396-0.344,0.638-0.237
			c1.17,0.535,2.354,1.051,3.52,1.535c0.245,0.104,0.361,0.383,0.259,0.629C168.419,254.655,168.239,254.768,168.051,254.768z
			 M215.468,253.199c-0.127,0-0.253-0.049-0.347-0.148c-0.184-0.191-0.179-0.495,0.014-0.679c0.9-0.865,1.752-1.81,2.534-2.81
			c0.164-0.21,0.467-0.247,0.675-0.082c0.209,0.162,0.247,0.466,0.082,0.674c-0.809,1.036-1.693,2.017-2.626,2.91
			C215.707,253.156,215.587,253.199,215.468,253.199z M161.897,251.996c-0.07,0-0.141-0.015-0.209-0.048
			c-1.145-0.554-2.3-1.131-3.459-1.735c-0.236-0.122-0.328-0.413-0.205-0.648c0.122-0.235,0.415-0.329,0.648-0.204
			c1.152,0.597,2.298,1.173,3.434,1.723c0.241,0.116,0.34,0.403,0.225,0.643C162.247,251.897,162.076,251.996,161.897,251.996z
			 M155.896,248.908c-0.077,0-0.156-0.02-0.23-0.058c-1.119-0.61-2.243-1.24-3.373-1.894c-0.231-0.134-0.31-0.427-0.176-0.657
			c0.132-0.229,0.428-0.308,0.656-0.176c1.124,0.648,2.243,1.275,3.354,1.881c0.233,0.127,0.319,0.419,0.192,0.652
			C156.232,248.816,156.067,248.908,155.896,248.908z M219.71,247.973c-0.089,0-0.176-0.023-0.257-0.074
			c-0.225-0.143-0.292-0.439-0.149-0.664c0.657-1.043,1.269-2.162,1.82-3.33c0.112-0.238,0.4-0.34,0.64-0.228s0.343,0.4,0.229,0.639
			c-0.566,1.201-1.198,2.357-1.876,3.433C220.025,247.893,219.869,247.973,219.71,247.973z M150.041,245.556
			c-0.085,0-0.17-0.021-0.247-0.069c-1.094-0.654-2.192-1.33-3.294-2.026c-0.225-0.141-0.292-0.438-0.15-0.662
			c0.141-0.224,0.44-0.291,0.663-0.151c1.098,0.691,2.19,1.363,3.276,2.016c0.228,0.137,0.303,0.432,0.165,0.66
			C150.362,245.472,150.203,245.556,150.041,245.556z M144.319,241.973c-0.09,0-0.182-0.025-0.263-0.078
			c-1.068-0.697-2.141-1.41-3.218-2.142c-0.22-0.15-0.276-0.449-0.127-0.67c0.149-0.219,0.452-0.273,0.668-0.127
			c1.073,0.729,2.139,1.439,3.204,2.133c0.223,0.146,0.284,0.443,0.14,0.666C144.63,241.895,144.477,241.973,144.319,241.973z
			 M222.683,241.931c-0.056,0-0.114-0.011-0.17-0.032c-0.248-0.093-0.374-0.369-0.28-0.621c0.434-1.147,0.827-2.366,1.169-3.625
			c0.069-0.253,0.332-0.405,0.589-0.336c0.256,0.068,0.408,0.333,0.338,0.589c-0.349,1.286-0.752,2.535-1.196,3.713
			C223.061,241.812,222.877,241.931,222.683,241.931z M138.727,238.19c-0.095,0-0.191-0.027-0.276-0.085
			c-1.046-0.733-2.095-1.481-3.146-2.247c-0.216-0.155-0.263-0.456-0.106-0.672c0.156-0.215,0.458-0.262,0.672-0.106
			c1.048,0.763,2.091,1.507,3.134,2.238c0.217,0.151,0.27,0.45,0.117,0.669C139.028,238.12,138.878,238.19,138.727,238.19z
			 M224.537,235.447c-0.034,0-0.066-0.002-0.099-0.011c-0.26-0.054-0.427-0.308-0.373-0.568c0.25-1.203,0.461-2.471,0.633-3.767
			c0.034-0.266,0.279-0.448,0.54-0.415c0.263,0.035,0.449,0.278,0.414,0.541c-0.174,1.319-0.39,2.609-0.645,3.836
			C224.96,235.292,224.76,235.447,224.537,235.447z M133.259,234.234c-0.1,0-0.201-0.031-0.287-0.096
			c-1.025-0.764-2.051-1.543-3.08-2.338c-0.209-0.161-0.249-0.463-0.086-0.673c0.164-0.212,0.468-0.248,0.675-0.088
			c1.024,0.79,2.044,1.566,3.064,2.327c0.213,0.159,0.257,0.462,0.098,0.674C133.55,234.168,133.406,234.234,133.259,234.234z
			 M127.909,230.121c-0.105,0-0.21-0.034-0.298-0.105c-1.002-0.793-2.007-1.599-3.013-2.422c-0.206-0.167-0.235-0.471-0.068-0.676
			c0.17-0.206,0.471-0.233,0.677-0.07c1.002,0.821,2.003,1.624,3.002,2.415c0.208,0.163,0.243,0.467,0.077,0.676
			C128.191,230.057,128.051,230.121,127.909,230.121z M225.483,228.771c-0.013,0-0.026-0.002-0.039-0.002
			c-0.266-0.022-0.463-0.255-0.44-0.518c0.103-1.234,0.172-2.521,0.208-3.826c0.007-0.259,0.221-0.467,0.481-0.467
			c0.004,0,0.008,0,0.013,0c0.266,0.007,0.475,0.228,0.467,0.494c-0.035,1.321-0.106,2.626-0.211,3.877
			C225.941,228.58,225.731,228.771,225.483,228.771z M122.671,225.863c-0.109,0-0.218-0.037-0.309-0.112
			c-0.981-0.819-1.966-1.651-2.95-2.498c-0.201-0.172-0.224-0.477-0.05-0.679c0.174-0.2,0.476-0.223,0.677-0.05
			c0.979,0.843,1.96,1.671,2.939,2.487c0.204,0.171,0.23,0.474,0.061,0.679C122.946,225.803,122.808,225.863,122.671,225.863z
			 M117.543,221.476c-0.113,0-0.226-0.042-0.318-0.12c-0.962-0.843-1.925-1.699-2.889-2.566c-0.197-0.178-0.213-0.483-0.035-0.681
			c0.178-0.197,0.481-0.214,0.679-0.034c0.96,0.863,1.919,1.716,2.879,2.558c0.199,0.174,0.219,0.479,0.044,0.679
			C117.81,221.419,117.676,221.476,117.543,221.476z M112.519,216.966c-0.116,0-0.233-0.043-0.325-0.127
			c-0.943-0.865-1.886-1.743-2.83-2.631c-0.193-0.183-0.203-0.486-0.02-0.681c0.183-0.193,0.487-0.202,0.681-0.021
			c0.94,0.887,1.879,1.762,2.819,2.624c0.196,0.179,0.208,0.484,0.029,0.679C112.779,216.913,112.648,216.966,112.519,216.966z
			 M107.599,212.346c-0.121,0-0.24-0.045-0.334-0.135c-0.924-0.887-1.846-1.783-2.771-2.69c-0.188-0.187-0.191-0.492-0.005-0.681
			c0.185-0.188,0.49-0.192,0.681-0.005c0.919,0.903,1.841,1.798,2.763,2.683c0.191,0.185,0.197,0.489,0.013,0.681
			C107.852,212.295,107.725,212.346,107.599,212.346z M102.778,207.621c-0.124,0-0.246-0.047-0.34-0.143
			c-0.905-0.905-1.811-1.821-2.715-2.746c-0.187-0.19-0.183-0.495,0.007-0.681c0.192-0.187,0.495-0.182,0.681,0.008
			c0.901,0.924,1.803,1.836,2.707,2.74c0.188,0.188,0.188,0.492,0,0.679C103.024,207.574,102.901,207.621,102.778,207.621z
			 M98.057,202.797c-0.127,0-0.253-0.048-0.348-0.147c-0.888-0.925-1.773-1.858-2.658-2.802c-0.183-0.192-0.173-0.498,0.021-0.68
			c0.191-0.181,0.499-0.174,0.68,0.021c0.882,0.94,1.767,1.873,2.651,2.795c0.183,0.192,0.176,0.495-0.015,0.679
			C98.295,202.755,98.176,202.797,98.057,202.797z M93.432,197.881c-0.13,0-0.258-0.052-0.353-0.155
			c-0.87-0.943-1.738-1.895-2.603-2.854c-0.179-0.196-0.163-0.501,0.034-0.679s0.502-0.163,0.679,0.036
			c0.863,0.957,1.729,1.903,2.595,2.845c0.181,0.194,0.168,0.499-0.026,0.679C93.665,197.838,93.547,197.881,93.432,197.881z
			 M88.902,192.877c-0.133,0-0.265-0.056-0.36-0.163c-0.851-0.956-1.7-1.925-2.549-2.9c-0.175-0.201-0.153-0.505,0.047-0.679
			c0.201-0.175,0.504-0.152,0.678,0.048c0.846,0.974,1.694,1.938,2.543,2.894c0.177,0.198,0.158,0.502-0.041,0.68
			C89.129,192.837,89.016,192.877,88.902,192.877z M84.468,187.788c-0.136,0-0.271-0.059-0.366-0.169
			c-0.833-0.975-1.665-1.957-2.495-2.947c-0.17-0.205-0.143-0.507,0.061-0.678c0.203-0.172,0.506-0.144,0.677,0.061
			c0.828,0.986,1.658,1.969,2.489,2.939c0.173,0.202,0.149,0.506-0.053,0.678C84.69,187.751,84.579,187.788,84.468,187.788z
			 M80.128,182.618c-0.138,0-0.276-0.06-0.371-0.174c-0.817-0.991-1.63-1.989-2.442-2.993c-0.167-0.207-0.135-0.51,0.072-0.677
			c0.207-0.166,0.51-0.134,0.676,0.071c0.811,1.003,1.622,1.998,2.437,2.985c0.168,0.206,0.14,0.509-0.065,0.677
			C80.344,182.584,80.236,182.618,80.128,182.618z M75.883,177.371c-0.141,0-0.282-0.063-0.377-0.183
			c-0.798-1.004-1.594-2.017-2.387-3.036c-0.163-0.209-0.126-0.512,0.084-0.674c0.207-0.164,0.51-0.128,0.674,0.084
			c0.791,1.017,1.585,2.026,2.381,3.027c0.165,0.209,0.131,0.512-0.077,0.677C76.094,177.337,75.989,177.371,75.883,177.371z
			 M71.733,172.054c-0.145,0-0.287-0.065-0.382-0.189l-1.04-1.364c-0.433-0.57-0.864-1.141-1.292-1.711
			c-0.16-0.213-0.117-0.515,0.095-0.674c0.214-0.161,0.515-0.115,0.673,0.095c0.429,0.57,0.858,1.14,1.292,1.708l1.038,1.361
			c0.16,0.211,0.121,0.513-0.09,0.675C71.938,172.021,71.835,172.054,71.733,172.054z M67.675,166.66
			c-0.146,0-0.292-0.069-0.387-0.197c-0.767-1.037-1.527-2.077-2.278-3.116c-0.156-0.215-0.107-0.516,0.108-0.672
			c0.215-0.157,0.516-0.108,0.672,0.107c0.75,1.037,1.508,2.074,2.272,3.11c0.158,0.214,0.113,0.515-0.101,0.673
			C67.875,166.628,67.775,166.66,67.675,166.66z M63.715,161.194c-0.15,0-0.298-0.069-0.392-0.201
			c-0.749-1.054-1.49-2.105-2.223-3.16c-0.152-0.217-0.097-0.518,0.121-0.668c0.217-0.152,0.518-0.098,0.669,0.12
			c0.73,1.051,1.47,2.101,2.217,3.15c0.154,0.217,0.104,0.516-0.113,0.671C63.909,161.166,63.812,161.194,63.715,161.194z
			 M59.85,155.66c-0.153,0-0.303-0.073-0.396-0.208c-0.73-1.066-1.452-2.132-2.167-3.198c-0.147-0.221-0.088-0.52,0.132-0.667
			c0.221-0.149,0.52-0.089,0.667,0.132c0.712,1.063,1.431,2.127,2.159,3.189c0.15,0.219,0.095,0.519-0.125,0.668
			C60.039,155.634,59.944,155.66,59.85,155.66z M56.089,150.056c-0.156,0-0.309-0.076-0.402-0.217
			c-0.71-1.079-1.412-2.159-2.105-3.238c-0.144-0.224-0.079-0.521,0.144-0.666c0.223-0.143,0.521-0.08,0.665,0.145
			c0.692,1.078,1.392,2.153,2.101,3.231c0.145,0.222,0.084,0.52-0.138,0.666C56.272,150.03,56.18,150.056,56.089,150.056z
			 M52.433,144.383c-0.16,0-0.315-0.079-0.408-0.225c-0.69-1.092-1.372-2.185-2.044-3.278c-0.139-0.227-0.069-0.522,0.158-0.662
			c0.223-0.14,0.521-0.069,0.661,0.158c0.671,1.09,1.35,2.178,2.039,3.269c0.142,0.225,0.075,0.521-0.15,0.663
			C52.609,144.358,52.521,144.383,52.433,144.383z M48.886,138.642c-0.164,0-0.322-0.083-0.413-0.232
			c-0.668-1.107-1.329-2.212-1.98-3.317c-0.135-0.229-0.059-0.523,0.17-0.659c0.228-0.134,0.524-0.06,0.659,0.17
			c0.649,1.101,1.307,2.204,1.974,3.307c0.138,0.227,0.065,0.523-0.162,0.66C49.056,138.619,48.971,138.642,48.886,138.642z
			 M45.449,132.832c-0.165,0-0.327-0.086-0.416-0.241c-0.647-1.12-1.285-2.239-1.913-3.356c-0.13-0.231-0.047-0.524,0.184-0.654
			c0.233-0.131,0.526-0.048,0.655,0.183c0.625,1.115,1.261,2.23,1.907,3.347c0.133,0.23,0.054,0.524-0.176,0.657
			C45.613,132.811,45.531,132.832,45.449,132.832z M42.133,126.954c-0.169,0-0.333-0.091-0.42-0.25
			c-0.625-1.134-1.24-2.265-1.844-3.396c-0.125-0.233-0.038-0.524,0.198-0.651c0.23-0.124,0.523-0.038,0.65,0.198
			c0.602,1.126,1.214,2.255,1.836,3.385c0.129,0.233,0.045,0.525-0.188,0.652C42.292,126.934,42.212,126.954,42.133,126.954z
			 M38.94,121.005c-0.173,0-0.34-0.094-0.426-0.259c-0.601-1.148-1.19-2.292-1.769-3.435c-0.12-0.237-0.025-0.526,0.212-0.646
			c0.237-0.116,0.527-0.024,0.646,0.212c0.577,1.138,1.165,2.28,1.763,3.424c0.123,0.234,0.032,0.526-0.204,0.649
			C39.092,120.987,39.015,121.005,38.94,121.005z M35.879,114.991c-0.177,0-0.348-0.098-0.432-0.268
			c-0.575-1.162-1.138-2.32-1.689-3.475c-0.115-0.24-0.013-0.527,0.226-0.641c0.242-0.116,0.526-0.014,0.642,0.226
			c0.55,1.151,1.111,2.305,1.684,3.463c0.118,0.237,0.02,0.527-0.217,0.644C36.023,114.975,35.951,114.991,35.879,114.991z
			 M32.958,108.906c-0.181,0-0.354-0.102-0.436-0.278c-0.547-1.175-1.083-2.347-1.606-3.516c-0.109-0.242,0-0.527,0.243-0.635
			c0.241-0.111,0.526,0,0.635,0.242c0.521,1.164,1.055,2.331,1.601,3.502c0.113,0.241,0.008,0.527-0.234,0.639
			C33.095,108.892,33.027,108.906,32.958,108.906z M30.185,102.751c-0.186,0-0.363-0.108-0.441-0.29
			c-0.519-1.189-1.024-2.375-1.516-3.555c-0.101-0.245,0.014-0.526,0.259-0.629c0.242-0.098,0.527,0.014,0.629,0.259
			c0.49,1.176,0.994,2.356,1.509,3.542c0.106,0.243-0.005,0.527-0.25,0.632C30.314,102.738,30.249,102.751,30.185,102.751z
			 M27.573,96.527c-0.189,0-0.37-0.114-0.446-0.301c-0.487-1.205-0.959-2.403-1.418-3.596c-0.095-0.248,0.028-0.526,0.276-0.622
			c0.251-0.096,0.527,0.029,0.622,0.276c0.457,1.188,0.927,2.381,1.412,3.581c0.1,0.246-0.02,0.526-0.266,0.626
			C27.694,96.516,27.633,96.527,27.573,96.527z M25.137,90.233c-0.195,0-0.379-0.12-0.451-0.314
			c-0.451-1.219-0.887-2.432-1.309-3.638c-0.088-0.25,0.043-0.524,0.295-0.612c0.252-0.09,0.525,0.044,0.612,0.294
			c0.42,1.201,0.855,2.408,1.304,3.622c0.092,0.249-0.035,0.525-0.284,0.617C25.249,90.224,25.192,90.233,25.137,90.233z
			 M22.894,83.867c-0.201,0-0.389-0.127-0.457-0.329c-0.412-1.234-0.81-2.459-1.19-3.677c-0.079-0.254,0.062-0.523,0.315-0.603
			c0.259-0.079,0.524,0.063,0.604,0.315c0.378,1.212,0.774,2.432,1.184,3.661c0.083,0.252-0.053,0.524-0.305,0.608
			C22.995,83.859,22.945,83.867,22.894,83.867z M20.864,77.43c-0.208,0-0.399-0.136-0.461-0.345c-0.37-1.249-0.722-2.49-1.057-3.72
			c-0.069-0.257,0.082-0.521,0.339-0.59c0.261-0.069,0.52,0.083,0.589,0.337c0.333,1.224,0.683,2.457,1.051,3.701
			c0.076,0.255-0.069,0.522-0.325,0.597C20.955,77.424,20.909,77.43,20.864,77.43z M19.075,70.923c-0.215,0-0.411-0.144-0.466-0.362
			c-0.321-1.265-0.623-2.52-0.905-3.761c-0.059-0.259,0.103-0.517,0.361-0.576c0.269-0.064,0.517,0.103,0.576,0.361
			c0.281,1.234,0.581,2.481,0.9,3.739c0.065,0.257-0.09,0.52-0.347,0.584C19.153,70.918,19.113,70.923,19.075,70.923z
			 M17.559,64.346c-0.223,0-0.423-0.156-0.47-0.383c-0.265-1.281-0.508-2.548-0.73-3.802c-0.046-0.261,0.127-0.511,0.39-0.557
			c0.254-0.053,0.511,0.127,0.557,0.39c0.219,1.244,0.461,2.501,0.724,3.773c0.055,0.26-0.113,0.515-0.373,0.568
			C17.624,64.343,17.591,64.346,17.559,64.346z M16.361,57.705c-0.233,0-0.438-0.17-0.475-0.409
			c-0.197-1.281-0.371-2.571-0.521-3.837c-0.032-0.263,0.157-0.502,0.42-0.534c0.239-0.037,0.502,0.156,0.534,0.421
			c0.149,1.254,0.323,2.535,0.518,3.806c0.04,0.262-0.14,0.507-0.403,0.547C16.41,57.703,16.386,57.705,16.361,57.705z
			 M15.54,51.006c-0.245,0-0.456-0.188-0.478-0.438c-0.118-1.295-0.209-2.597-0.272-3.866c-0.013-0.266,0.191-0.492,0.456-0.504
			c0.297-0.024,0.492,0.191,0.504,0.456c0.063,1.257,0.154,2.544,0.271,3.828c0.023,0.264-0.171,0.498-0.436,0.522
			C15.57,51.005,15.555,51.006,15.54,51.006z M15.174,44.27c-0.262,0-0.477-0.21-0.481-0.473c-0.007-0.434-0.01-0.862-0.01-1.292
			c0-0.875,0.014-1.738,0.043-2.59c0.01-0.263,0.262-0.458,0.498-0.464c0.265,0.01,0.473,0.232,0.464,0.498
			c-0.029,0.841-0.043,1.692-0.043,2.556c0,0.423,0.004,0.849,0.01,1.276c0.003,0.266-0.208,0.484-0.473,0.488
			C15.179,44.27,15.176,44.27,15.174,44.27z M15.367,37.526c-0.013,0-0.025,0-0.038,0c-0.264-0.021-0.462-0.252-0.443-0.517
			c0.102-1.316,0.242-2.616,0.418-3.864c0.038-0.262,0.281-0.439,0.544-0.409c0.262,0.038,0.444,0.281,0.408,0.543
			c-0.173,1.227-0.312,2.506-0.411,3.802C15.826,37.334,15.616,37.526,15.367,37.526z M16.262,30.839
			c-0.031,0-0.063-0.002-0.094-0.009c-0.261-0.05-0.43-0.304-0.378-0.564c0.256-1.3,0.562-2.574,0.908-3.787
			c0.073-0.255,0.333-0.41,0.595-0.331c0.255,0.072,0.403,0.339,0.33,0.594c-0.338,1.188-0.637,2.436-0.889,3.709
			C16.687,30.681,16.486,30.839,16.262,30.839z M18.049,24.34c-0.055,0-0.11-0.009-0.165-0.029c-0.25-0.09-0.378-0.366-0.288-0.616
			c0.454-1.25,0.968-2.459,1.527-3.596c0.117-0.237,0.405-0.335,0.643-0.219c0.239,0.117,0.337,0.405,0.219,0.643
			c-0.543,1.105-1.043,2.283-1.485,3.5C18.43,24.219,18.246,24.34,18.049,24.34z M91.218,20.531c-0.085,0-0.171-0.022-0.249-0.069
			c-1.11-0.671-2.215-1.321-3.314-1.95c-0.231-0.132-0.311-0.426-0.178-0.656c0.13-0.233,0.426-0.311,0.655-0.178
			c1.107,0.633,2.218,1.287,3.335,1.961c0.228,0.137,0.299,0.433,0.163,0.66C91.54,20.448,91.381,20.531,91.218,20.531z
			 M20.943,18.258c-0.086,0-0.172-0.022-0.251-0.071c-0.226-0.137-0.297-0.434-0.16-0.661c0.689-1.128,1.448-2.207,2.257-3.201
			c0.167-0.205,0.471-0.238,0.677-0.069c0.206,0.167,0.237,0.47,0.069,0.676c-0.78,0.961-1.516,2.003-2.181,3.096
			C21.263,18.176,21.104,18.258,20.943,18.258z M85.37,17.161c-0.079,0-0.158-0.02-0.231-0.059c-1.138-0.625-2.27-1.227-3.395-1.805
			c-0.236-0.121-0.329-0.411-0.208-0.647c0.123-0.238,0.412-0.33,0.647-0.208c1.132,0.583,2.271,1.188,3.417,1.815
			c0.233,0.128,0.318,0.421,0.19,0.653C85.705,17.07,85.54,17.161,85.37,17.161z M79.377,14.055c-0.071,0-0.143-0.016-0.211-0.049
			c-1.168-0.57-2.327-1.113-3.477-1.632c-0.243-0.108-0.351-0.394-0.242-0.636c0.111-0.243,0.397-0.35,0.636-0.241
			c1.16,0.522,2.328,1.07,3.505,1.645c0.238,0.116,0.337,0.404,0.22,0.644C79.727,13.956,79.556,14.055,79.377,14.055z
			 M25.103,12.966c-0.124,0-0.249-0.048-0.342-0.143c-0.187-0.188-0.185-0.493,0.004-0.68c0.825-0.817,1.709-1.585,2.628-2.281
			c0.116-0.089,0.235-0.18,0.356-0.268c0.214-0.154,0.515-0.109,0.672,0.106c0.156,0.214,0.109,0.515-0.106,0.672
			c-0.114,0.083-0.227,0.168-0.34,0.254c-0.886,0.673-1.737,1.412-2.534,2.2C25.348,12.921,25.224,12.966,25.103,12.966z
			 M73.235,11.262c-0.062,0-0.126-0.013-0.188-0.038c-1.189-0.501-2.389-0.98-3.563-1.425c-0.249-0.094-0.374-0.371-0.28-0.619
			c0.094-0.25,0.368-0.373,0.621-0.28c1.185,0.449,2.396,0.932,3.597,1.438c0.245,0.104,0.36,0.386,0.257,0.631
			C73.601,11.151,73.423,11.262,73.235,11.262z M30.454,8.889c-0.167,0-0.328-0.086-0.417-0.242
			c-0.132-0.23-0.052-0.524,0.178-0.656c1.119-0.643,2.307-1.215,3.532-1.703c0.245-0.095,0.526,0.022,0.625,0.27
			c0.098,0.246-0.022,0.526-0.27,0.625c-1.182,0.471-2.329,1.023-3.408,1.643C30.619,8.868,30.536,8.889,30.454,8.889z
			 M66.935,8.847c-0.052,0-0.104-0.008-0.157-0.026c-1.228-0.422-2.457-0.816-3.652-1.168c-0.255-0.076-0.4-0.343-0.326-0.598
			c0.076-0.255,0.346-0.399,0.598-0.325c1.209,0.357,2.452,0.755,3.693,1.182c0.251,0.086,0.384,0.359,0.298,0.611
			C67.321,8.723,67.135,8.847,66.935,8.847z M60.474,6.902c-0.039,0-0.079-0.004-0.119-0.015c-1.254-0.319-2.51-0.604-3.734-0.846
			c-0.26-0.05-0.43-0.304-0.379-0.563c0.051-0.262,0.306-0.436,0.565-0.379c1.241,0.245,2.515,0.533,3.786,0.857
			c0.258,0.066,0.413,0.327,0.348,0.585C60.885,6.758,60.689,6.902,60.474,6.902z M36.662,6.287c-0.21,0-0.402-0.137-0.462-0.349
			c-0.073-0.255,0.074-0.521,0.33-0.594c1.222-0.349,2.507-0.633,3.819-0.844c0.265-0.04,0.508,0.137,0.551,0.4
			c0.042,0.262-0.137,0.509-0.399,0.551c-1.275,0.203-2.522,0.478-3.707,0.817C36.75,6.281,36.705,6.287,36.662,6.287z
			 M53.866,5.559c-0.024,0-0.047-0.002-0.072-0.004c-1.295-0.192-2.572-0.335-3.795-0.428c-0.265-0.02-0.463-0.251-0.443-0.517
			c0.021-0.263,0.236-0.465,0.517-0.443c1.245,0.095,2.545,0.242,3.863,0.435c0.262,0.039,0.444,0.284,0.406,0.546
			C54.305,5.387,54.1,5.559,53.866,5.559z M43.295,5.115c-0.248,0-0.458-0.191-0.478-0.444c-0.021-0.264,0.177-0.496,0.441-0.516
			c1.057-0.084,2.15-0.125,3.25-0.125l0.648,0.004c0.265,0.004,0.478,0.222,0.475,0.487c-0.004,0.263-0.218,0.475-0.481,0.475
			c-0.001,0-0.003,0-0.006,0l-0.635-0.004c-1.075,0-2.142,0.041-3.174,0.122C43.321,5.115,43.308,5.115,43.295,5.115z"/>
	</g>
</g>
<g id="Pins">
	<path id="Pin_13_" style="fill:#AC6CAD;" d="M184.77,135.544c-1.758-0.516-3.6,0.492-4.116,2.249
		c-0.884,3.017,1.46,6.806,1.46,6.806s4.02-1.921,4.905-4.94C187.534,137.902,186.527,136.06,184.77,135.544z M183.442,140.07
		c-0.851-0.25-1.338-1.142-1.089-1.993s1.142-1.339,1.993-1.089c0.851,0.25,1.339,1.142,1.089,1.993
		C185.186,139.832,184.293,140.32,183.442,140.07z"/>
	<path id="Pin_12_" style="fill:#AC6CAD;" d="M214.082,94.003c-1.822-0.193-3.454,1.127-3.647,2.949
		c-0.332,3.126,2.654,6.435,2.654,6.435s3.611-2.61,3.942-5.737C217.223,95.829,215.902,94.196,214.082,94.003z M213.585,98.694
		c-0.882-0.093-1.521-0.884-1.428-1.766s0.884-1.521,1.766-1.428c0.882,0.093,1.521,0.884,1.428,1.766
		C215.257,98.148,214.467,98.788,213.585,98.694z"/>
	<path id="Pin_11_" style="fill:#AC6CAD;" d="M141.674,83.217c-1.782,0.426-2.881,2.215-2.456,3.996
		c0.73,3.059,4.647,5.183,4.647,5.183s2.536-3.664,1.804-6.723C145.244,83.891,143.455,82.792,141.674,83.217z M142.769,87.805
		c-0.862,0.207-1.729-0.326-1.935-1.189c-0.207-0.862,0.327-1.729,1.189-1.935c0.862-0.206,1.728,0.327,1.935,1.189
		C144.164,86.733,143.631,87.6,142.769,87.805z"/>
	<path id="Pin_10_" style="fill:#AC6CAD;" d="M228.699,136.88c-1.709-0.659-3.628,0.192-4.287,1.901
		c-1.132,2.934,0.891,6.903,0.891,6.903s4.166-1.583,5.297-4.516C231.26,139.459,230.408,137.54,228.699,136.88z M227.001,141.281
		c-0.828-0.319-1.24-1.249-0.92-2.077c0.319-0.828,1.249-1.239,2.077-0.92c0.827,0.319,1.239,1.249,0.919,2.076
		C228.759,141.189,227.83,141.601,227.001,141.281z"/>
	<path id="Pin_9_" style="fill:#AC6CAD;" d="M142.639,195.63c-1.614,0.864-2.222,2.876-1.357,4.49
		c1.486,2.771,5.814,3.827,5.814,3.827s1.518-4.188,0.033-6.961C146.264,195.373,144.254,194.766,142.639,195.63z M144.867,199.787
		c-0.781,0.419-1.754,0.125-2.174-0.656c-0.418-0.781-0.124-1.755,0.657-2.174c0.783-0.419,1.756-0.125,2.174,0.658
		C145.943,198.396,145.649,199.369,144.867,199.787z"/>
	<path id="Pin_7_" style="fill:#AC6CAD;" d="M38.801,86.253c-1.801,0.333-2.991,2.063-2.658,3.864
		c0.572,3.092,4.375,5.415,4.375,5.415s2.719-3.529,2.147-6.621C42.332,87.109,40.602,85.92,38.801,86.253z M39.659,90.892
		c-0.872,0.161-1.71-0.415-1.871-1.288c-0.162-0.872,0.415-1.709,1.287-1.871c0.872-0.162,1.71,0.414,1.871,1.287
		C41.107,89.892,40.531,90.73,39.659,90.892z"/>
	<path id="Pin_8_" style="fill:#AC6CAD;" d="M79.668,66.059c-1.831-0.058-3.362,1.379-3.42,3.209
		c-0.1,3.144,3.121,6.222,3.121,6.222s3.409-2.869,3.509-6.011C82.937,67.648,81.499,66.117,79.668,66.059z M79.519,70.773
		c-0.887-0.028-1.583-0.77-1.554-1.656c0.028-0.886,0.77-1.582,1.656-1.554c0.887,0.028,1.583,0.769,1.554,1.656
		C81.147,70.106,80.405,70.802,79.519,70.773z"/>
	<path id="Pin_5_" style="fill:#AC6CAD;" d="M50.752,141.509c-1.481,1.077-1.809,3.151-0.732,4.633
		c1.849,2.543,6.282,2.999,6.282,2.999s0.932-4.356-0.917-6.899C54.308,140.759,52.233,140.431,50.752,141.509z M53.526,145.324
		c-0.717,0.521-1.722,0.363-2.244-0.354c-0.521-0.717-0.362-1.723,0.354-2.244c0.718-0.521,1.722-0.362,2.244,0.355
		C54.402,143.798,54.244,144.802,53.526,145.324z"/>
</g>
<g>
	<g>
		<g>
			<g>
				<g>
					<polygon style="fill:#E7515B;" points="489.053,91.483 512.394,97.283 518.482,113.865 528.49,99.686 548.027,103.017 
						585.513,42.042 					"/>
				</g>
			</g>
			<g style="opacity:0.5;">
				<g>
					<polygon points="512.394,97.283 584.06,42.786 523.075,98.763 518.482,113.865 518.482,113.865 					"/>
				</g>
			</g>
		</g>
		<g style="opacity:0.8;">
			<g>
				<polygon points="523.075,98.763 528.49,99.686 518.482,113.865 				"/>
			</g>
		</g>
	</g>
</g>
</svg>
