<?xml version="1.0" encoding="utf-8"?>
<!-- Generator: Adobe Illustrator 16.0.0, SVG Export Plug-In . SVG Version: 6.00 Build 0)  -->
<!DOCTYPE svg PUBLIC "-//W3C//DTD SVG 1.1//EN" "http://www.w3.org/Graphics/SVG/1.1/DTD/svg11.dtd">
<svg version="1.1" id="Layer_1" xmlns="http://www.w3.org/2000/svg" xmlns:xlink="http://www.w3.org/1999/xlink" x="0px" y="0px"
	 width="640px" height="300px" viewBox="0 0 640 300" enable-background="new 0 0 640 300" xml:space="preserve">
<g>
	<g>
		<circle fill="#52909D" cx="86.107" cy="183.15" r="1.266"/>
		<circle fill="#52909D" cx="97.332" cy="130.816" r="2.688"/>
		<circle fill="#52909D" cx="145.87" cy="136.982" r="2.846"/>
		<circle fill="#52909D" cx="242.471" cy="108.049" r="3.32"/>
		<circle fill="#52909D" cx="226.66" cy="66.943" r="3.004"/>
	</g>
	<g>
		<circle fill="none" stroke="#52909D" stroke-miterlimit="10" cx="56.661" cy="181.121" r="3.879"/>
		<circle fill="none" stroke="#52909D" stroke-miterlimit="10" cx="77.48" cy="146.855" r="1.939"/>
		<circle fill="none" stroke="#52909D" stroke-miterlimit="10" cx="154.417" cy="110.002" r="5.431"/>
		<circle fill="none" stroke="#52909D" stroke-miterlimit="10" cx="189.07" cy="63.969" r="1.552"/>
		<circle fill="none" stroke="#52909D" stroke-miterlimit="10" cx="110.97" cy="70.952" r="3.104"/>
		<circle fill="none" stroke="#52909D" stroke-miterlimit="10" cx="133.705" cy="31.785" r="3.867"/>
		<circle fill="none" stroke="#52909D" stroke-miterlimit="10" cx="58.189" cy="80.916" r="3.412"/>
	</g>
</g>
<g>
	<path fill="#415C92" d="M424.704,108.91c0.637,0,1.272,0,1.908,0"/>
	<g>
		<path fill="#415C92" d="M424.704,113.199c0.637,0,1.272,0,1.908,0c2.245,0,4.396-1.973,4.292-4.289
			c-0.104-2.325-1.885-4.293-4.292-4.293c-0.636,0-1.271,0-1.908,0c-2.249,0-4.399,1.973-4.294,4.293
			C420.512,111.231,422.295,113.199,424.704,113.199L424.704,113.199z"/>
	</g>
</g>
<g>
	<path fill="#415C92" d="M310.253,238.301"/>
	<g>
		<path fill="#415C92" d="M310.253,240.121c2.341,0,2.345-3.639,0-3.639C307.912,236.482,307.908,240.121,310.253,240.121
			L310.253,240.121z"/>
	</g>
</g>
<g>
	<g>
		<g>
			<g>
				<g>
					<g>
						<rect x="82.195" y="214.934" fill="none" stroke="#E0E0E0" stroke-miterlimit="10" width="93.476" height="12.487"/>
					</g>
				</g>
			</g>
		</g>
		<g>
			<g>
				<g>
					<g>
						<g>
							<ellipse fill="#FAFBFB" cx="94.931" cy="221.3" rx="0.587" ry="5.851"/>
						</g>
					</g>
				</g>
			</g>
		</g>
		<g>
			<g>
				<g>
					<g>
						<g>
							<ellipse fill="#FAFBFB" cx="92.895" cy="221.045" rx="0.587" ry="5.851"/>
						</g>
					</g>
				</g>
			</g>
		</g>
		<g>
			<g>
				<g>
					<g>
						<g>
							<ellipse fill="#FAFBFB" cx="168.442" cy="221.3" rx="0.587" ry="5.851"/>
						</g>
					</g>
				</g>
			</g>
		</g>
		<g>
			<g>
				<g>
					<g>
						<g>
							<ellipse fill="#FAFBFB" cx="166.408" cy="221.045" rx="0.588" ry="5.851"/>
						</g>
					</g>
				</g>
			</g>
		</g>
		<g>
			<g>
				<g>
					<g>
						<g>
							<ellipse fill="none" stroke="#FAFBFB" stroke-miterlimit="10" cx="130.287" cy="221.554" rx="23.911" ry="0.589"/>
						</g>
					</g>
				</g>
			</g>
		</g>
	</g>
	<g>
		<g>
			<g>
				<g>
					<g>
						<rect x="81.791" y="271.155" fill="none" stroke="#E0E0E0" stroke-miterlimit="10" width="93.476" height="24.976"/>
					</g>
				</g>
			</g>
		</g>
		<g>
			<g>
				<g>
					<g>
						<g>
							<path fill="none" stroke="#FAFBFB" stroke-miterlimit="10" d="M176.462,289.104c0.01,0.021-0.163,0.114-0.506,0.294
								c-0.344,0.177-0.865,0.418-1.558,0.712c-1.39,0.567-3.487,1.371-6.337,1.813c-2.803,0.398-6.563,0.513-10.282-1.459
								c-1.827-0.977-3.563-2.458-4.884-4.427c-1.292-1.962-2.123-4.526-1.701-7.193c0.225-1.327,0.779-2.637,1.719-3.718
								c0.916-1.082,2.381-1.885,3.943-1.794c1.565,0.071,2.98,0.97,3.963,2.138c0.989,1.174,1.667,2.673,1.808,4.259
								c0.371,3.167-0.965,6.451-3.222,8.853c-2.223,2.487-5.548,4.003-8.982,4.393c-3.458,0.408-7.034-0.14-10.428-1.294
								c-3.394-1.167-6.744-3.074-9.11-6.122c-1.16-1.515-1.999-3.398-2.123-5.393c-0.173-1.988,0.463-4.125,1.99-5.611
								c0.759-0.738,1.823-1.234,2.926-1.279c1.102-0.053,2.167,0.308,3.054,0.86c1.803,1.124,2.956,3.035,3.441,5.039
								c0.878,4.085-0.74,8.336-3.688,11.003c-2.955,2.688-6.828,3.883-10.522,4.283c-3.721,0.375-7.461,0.1-10.909-1.071
								c-3.433-1.144-6.524-3.405-8.3-6.456c-1.809-2.98-2.4-6.752-1.04-9.923c0.639-1.568,2.083-2.961,3.812-3.225
								c1.687-0.313,3.41,0.15,4.708,1.14c2.64,2.091,3.08,5.681,2.228,8.41c-0.865,2.81-2.754,4.963-4.711,6.638
								c-3.996,3.374-8.726,4.833-12.818,4.979c-4.136,0.146-7.615-0.998-10.156-2.311c-2.563-1.334-4.25-2.849-5.294-3.922
								c-0.517-0.551-0.892-0.985-1.12-1.297c-0.235-0.313-0.347-0.47-0.33-0.483c0.119-0.165,1.871,2.728,6.95,5.296
								c2.522,1.219,5.927,2.26,9.923,2.056c3.956-0.201,8.509-1.677,12.306-4.95c1.868-1.626,3.625-3.701,4.384-6.26
								c0.762-2.475,0.268-5.678-1.945-7.377c-1.079-0.815-2.565-1.197-3.93-0.931c-1.386,0.233-2.483,1.284-3.056,2.655
								c-1.179,2.776-0.663,6.213,1.021,8.953c1.651,2.802,4.482,4.871,7.735,5.945c3.246,1.095,6.858,1.357,10.419,0.991
								c3.539-0.383,7.168-1.54,9.861-4.002c2.657-2.385,4.11-6.297,3.327-9.87c-0.424-1.752-1.427-3.384-2.915-4.31
								c-1.459-0.965-3.367-0.935-4.559,0.28c-1.207,1.162-1.79,2.972-1.63,4.678c0.105,1.734,0.826,3.392,1.883,4.776
								c2.143,2.785,5.324,4.637,8.552,5.756c3.268,1.128,6.686,1.65,9.939,1.28c3.245-0.361,6.28-1.731,8.354-4.022
								c2.107-2.21,3.325-5.213,3.01-8.04c-0.227-2.747-2.321-5.429-4.848-5.596c-1.245-0.082-2.438,0.527-3.245,1.465
								c-0.822,0.927-1.341,2.101-1.551,3.281c-0.406,2.409,0.315,4.786,1.508,6.647c1.215,1.868,2.851,3.305,4.574,4.258
								c3.488,1.925,7.154,1.906,9.905,1.581c2.803-0.365,4.906-1.085,6.314-1.579C175.721,289.376,176.444,289.062,176.462,289.104
								z"/>
						</g>
					</g>
				</g>
			</g>
		</g>
	</g>
	<g>
		<g>
			<g>
				<g>
					<g>
						<rect x="90.139" y="227.781" fill="none" stroke="#EBEBEB" stroke-miterlimit="10" width="85.126" height="43.332"/>
					</g>
				</g>
			</g>
		</g>
		<g>
			<g>
				<g>
					<g>
						<g>
							<ellipse fill="#E0E0E0" cx="104.284" cy="250.239" rx="0.587" ry="20.973"/>
						</g>
					</g>
				</g>
			</g>
		</g>
		<g>
			<g>
				<g>
					<g>
						<g>
							<ellipse fill="#E0E0E0" cx="110.738" cy="249.434" rx="0.588" ry="20.704"/>
						</g>
					</g>
				</g>
			</g>
		</g>
		<g>
			<g>
				<g>
					<g>
						<g>
							<ellipse fill="#E0E0E0" cx="165.643" cy="249.14" rx="0.587" ry="21.803"/>
						</g>
					</g>
				</g>
			</g>
		</g>
		<g>
			<g>
				<g>
					<g>
						<g>
							<ellipse fill="#E0E0E0" cx="158.059" cy="249.164" rx="0.588" ry="21.24"/>
						</g>
					</g>
				</g>
			</g>
		</g>
	</g>
</g>
<g>
	<g>
		<g>
			<g>
				<g>
					<path fill="#263238" d="M31.11,271.581c-0.01-0.005,0.05-0.147,0.175-0.422c0.14-0.3,0.327-0.698,0.566-1.208
						c0.481-1.067,1.107-2.686,1.665-4.836c1.102-4.301,1.486-10.871-0.143-18.676c-0.756-3.908-1.975-8.103-3.463-12.545
						c-1.467-4.451-3.17-9.178-4.561-14.281c-1.375-5.094-2.461-10.624-2.251-16.422c0.211-5.811,1.931-11.604,3.821-17.377
						c1.887-5.779,3.839-11.432,4.424-17.112c0.662-5.673-0.553-11.241-3.138-15.806c-2.503-4.61-5.651-8.558-8.009-12.644
						c-2.395-4.071-3.891-8.259-4.814-12.152c-1.788-7.852-1.162-14.468-0.305-18.827c0.93-4.384,1.965-6.649,1.965-6.649
						c0.01,0.004-0.029,0.153-0.117,0.441c-0.098,0.315-0.229,0.737-0.396,1.274c-0.348,1.12-0.796,2.793-1.222,4.978
						c-0.782,4.351-1.337,10.921,0.488,18.686c0.941,3.852,2.444,7.983,4.83,11.999c2.352,4.037,5.515,7.965,8.067,12.631
						c2.639,4.613,3.907,10.364,3.234,16.126c-0.588,5.779-2.555,11.469-4.438,17.239c-1.891,5.769-3.59,11.503-3.805,17.214
						c-0.215,5.708,0.844,11.188,2.197,16.254c1.369,5.081,3.051,9.809,4.5,14.271c1.47,4.457,2.674,8.685,3.406,12.619
						c1.586,7.86,1.134,14.5-0.047,18.813c-0.598,2.16-1.264,3.771-1.782,4.829c-0.263,0.5-0.468,0.894-0.622,1.187
						C31.196,271.453,31.118,271.586,31.11,271.581z"/>
				</g>
			</g>
		</g>
		<g>
			<g>
				<g>
					<path fill="#CEF2CF" d="M23.399,144.286c0,0-4.786-15.303,3.799-24.264c0.301-0.314,0.832-0.166,0.91,0.263
						C28.566,122.813,29.14,130.511,23.399,144.286z"/>
				</g>
			</g>
			<g>
				<g>
					<g>
						<path fill="#263238" d="M26.267,125.122c0.081,0.016-0.057,1.093-0.322,2.823c-0.314,1.944-0.684,4.228-1.092,6.75
							c-0.4,2.522-0.764,4.805-1.072,6.749c-0.262,1.729-0.418,2.801-0.506,2.794c-0.078-0.006-0.07-1.095,0.086-2.845
							c0.158-1.749,0.467-4.154,0.9-6.795c0.432-2.641,0.892-5.019,1.266-6.731C25.901,126.154,26.185,125.105,26.267,125.122z"/>
					</g>
				</g>
			</g>
		</g>
		<g>
			<g>
				<g>
					<path fill="#CEF2CF" d="M29.021,180.381c0,0,2.928-15.766,14.705-19.671c0.414-0.137,0.813,0.243,0.682,0.658
						C43.631,163.816,40.537,170.889,29.021,180.381z"/>
				</g>
			</g>
			<g>
				<g>
					<g>
						<path fill="#263238" d="M40.519,164.781c0.063,0.053-0.561,0.938-1.605,2.346c-1.188,1.571-2.582,3.417-4.122,5.455
							c-1.534,2.043-2.922,3.891-4.104,5.465c-1.04,1.405-1.681,2.279-1.755,2.232c-0.065-0.041,0.451-1,1.406-2.478
							c0.958-1.471,2.355-3.45,3.974-5.585c1.616-2.132,3.136-4.018,4.269-5.354C39.712,165.523,40.454,164.729,40.519,164.781z"/>
					</g>
				</g>
			</g>
		</g>
		<g>
			<g>
				<g>
					<path fill="#CEF2CF" d="M25.838,219.932c0,0-1.778-15.937,8.358-23.095c0.355-0.251,0.849-0.004,0.843,0.433
						C35.007,199.837,34.101,207.503,25.838,219.932z"/>
				</g>
			</g>
			<g>
				<g>
					<g>
						<path fill="#263238" d="M32.309,201.665c0.077,0.03-0.263,1.062-0.854,2.71c-0.68,1.85-1.479,4.02-2.359,6.418
							c-0.875,2.398-1.666,4.571-2.34,6.421c-0.588,1.646-0.945,2.669-1.03,2.646c-0.075-0.021,0.141-1.088,0.627-2.773
							c0.489-1.688,1.251-3.986,2.181-6.498c0.927-2.51,1.832-4.756,2.527-6.363C31.753,202.609,32.232,201.634,32.309,201.665z"/>
					</g>
				</g>
			</g>
		</g>
		<g>
			<g>
				<g>
					<path fill="#CEF2CF" d="M34.71,259.712c0,0-1.205-15.989,9.181-22.778c0.364-0.238,0.848,0.025,0.827,0.461
						C44.593,239.959,43.413,247.588,34.71,259.712z"/>
				</g>
			</g>
			<g>
				<g>
					<g>
						<path fill="#263238" d="M41.831,241.689c0.076,0.033-0.301,1.052-0.951,2.678c-0.746,1.824-1.621,3.964-2.588,6.328
							c-0.959,2.367-1.828,4.51-2.568,6.334c-0.645,1.625-1.04,2.634-1.124,2.604c-0.073-0.021,0.18-1.083,0.726-2.752
							c0.55-1.668,1.393-3.938,2.412-6.416c1.017-2.475,2.002-4.688,2.754-6.271C41.242,242.613,41.756,241.654,41.831,241.689z"/>
					</g>
				</g>
			</g>
		</g>
		<g>
			<g>
				<g>
					<path fill="#CEF2CF" d="M16.521,130.841c0,0-14.213-7.423-14.491-19.829c-0.01-0.436,0.47-0.705,0.828-0.458
						C4.972,112.015,10.824,117.047,16.521,130.841z"/>
				</g>
			</g>
			<g>
				<g>
					<g>
						<path fill="#263238" d="M4.981,115.273c0.068-0.046,0.733,0.812,1.771,2.223c1.154,1.597,2.509,3.471,4.007,5.541
							c1.502,2.065,2.862,3.934,4.021,5.526c1.037,1.406,1.686,2.274,1.618,2.331c-0.059,0.051-0.824-0.724-1.952-2.069
							c-1.127-1.348-2.611-3.265-4.174-5.438c-1.564-2.171-2.922-4.176-3.87-5.651C5.454,116.262,4.912,115.32,4.981,115.273z"/>
					</g>
				</g>
			</g>
		</g>
		<g>
			<g>
				<g>
					<path fill="#CEF2CF" d="M31.784,163.707c0,0-14.639-6.546-15.67-18.912c-0.036-0.434,0.427-0.733,0.799-0.508
						C19.11,145.617,25.259,150.284,31.784,163.707z"/>
				</g>
			</g>
			<g>
				<g>
					<g>
						<path fill="#263238" d="M19.319,148.87c0.065-0.051,0.781,0.765,1.902,2.11c1.249,1.522,2.715,3.312,4.336,5.287
							c1.625,1.973,3.096,3.752,4.349,5.271c1.122,1.341,1.821,2.168,1.758,2.229c-0.056,0.053-0.866-0.674-2.075-1.947
							c-1.205-1.274-2.805-3.102-4.496-5.174c-1.693-2.07-3.17-3.989-4.205-5.404C19.851,149.827,19.253,148.92,19.319,148.87z"/>
					</g>
				</g>
			</g>
		</g>
		<g>
			<g>
				<g>
					<path fill="#CEF2CF" d="M23.36,200.367c0,0-10.049-12.494-5.336-23.973c0.166-0.403,0.715-0.459,0.943-0.088
						C20.318,178.491,23.666,185.445,23.36,200.367z"/>
				</g>
			</g>
			<g>
				<g>
					<g>
						<path fill="#263238" d="M19.022,181.48c0.081-0.017,0.348,1.037,0.732,2.746c0.418,1.926,0.909,4.186,1.451,6.683
							c0.55,2.493,1.047,4.751,1.471,6.674c0.389,1.704,0.635,2.759,0.55,2.785c-0.073,0.022-0.465-0.994-0.96-2.681
							c-0.492-1.687-1.085-4.035-1.646-6.652c-0.563-2.615-1.004-4.997-1.282-6.729C19.06,182.576,18.94,181.496,19.022,181.48z"/>
					</g>
				</g>
			</g>
		</g>
		<g>
			<g>
				<g>
					<path fill="#CEF2CF" d="M33.316,243.509c0,0-14.525-6.791-15.349-19.173c-0.029-0.436,0.438-0.727,0.807-0.494
						C20.95,225.208,27.019,229.979,33.316,243.509z"/>
				</g>
			</g>
			<g>
				<g>
					<g>
						<path fill="#263238" d="M21.103,228.464c0.066-0.049,0.77,0.778,1.867,2.144c1.223,1.543,2.66,3.355,4.246,5.358
							c1.592,1.997,3.033,3.806,4.26,5.345c1.1,1.358,1.785,2.197,1.721,2.258c-0.057,0.056-0.855-0.688-2.042-1.979
							c-1.185-1.296-2.752-3.146-4.409-5.248c-1.658-2.1-3.102-4.044-4.113-5.476C21.618,229.432,21.036,228.514,21.103,228.464z"/>
					</g>
				</g>
			</g>
		</g>
		<g>
			<g>
				<g>
					<g>
						<path fill="#263238" d="M62.249,180.467c0.014,0.001,0.02,0.121,0.018,0.354c-0.006,0.279-0.015,0.615-0.025,1.024
							c-0.042,0.964-0.1,2.265-0.172,3.888c-0.187,3.418-0.447,8.187-0.76,13.888l-0.001,0.014l-0.003,0.021
							c-1.037,5.802-3.992,12.229-7.962,18.477c-2.911,4.601-5.964,8.781-8.596,12.67c-2.649,3.88-4.886,7.472-6.444,10.653
							c-1.569,3.179-2.482,5.909-3.016,7.816c-0.255,0.957-0.447,1.705-0.557,2.218c-0.12,0.509-0.193,0.772-0.213,0.771
							c-0.021-0.004,0.012-0.275,0.094-0.795c0.072-0.521,0.229-1.277,0.45-2.252c0.467-1.938,1.325-4.714,2.859-7.941
							c1.522-3.232,3.738-6.875,6.368-10.776c2.614-3.917,5.65-8.104,8.547-12.683c3.947-6.213,6.888-12.545,7.963-18.254
							l-0.004,0.03c0.4-5.694,0.734-10.456,0.975-13.871c0.131-1.618,0.236-2.918,0.314-3.879c0.041-0.405,0.074-0.741,0.102-1.021
							C62.214,180.584,62.235,180.466,62.249,180.467z"/>
					</g>
				</g>
			</g>
			<g>
				<g>
					<g>
						<path fill="#CEF2CF" d="M53.601,216.934c0,0,6.15-14.808-1.587-24.508c-0.272-0.341-0.813-0.24-0.93,0.18
							C50.398,195.08,49.131,202.693,53.601,216.934z"/>
					</g>
				</g>
				<g>
					<g>
						<g>
							<path fill="#263238" d="M52.479,197.588c0.082-0.009,0.271,1.063,0.488,2.803c0.217,1.738,0.461,4.148,0.652,6.816
								c0.192,2.67,0.281,5.093,0.281,6.85c-0.004,1.756-0.095,2.842-0.172,2.84c-0.088,0-0.148-1.082-0.252-2.826
								c-0.132-1.965-0.285-4.271-0.456-6.817c-0.179-2.549-0.339-4.854-0.477-6.819C52.437,198.682,52.397,197.598,52.479,197.588z
								"/>
						</g>
					</g>
				</g>
				<g opacity="0.3">
					<g>
						<path d="M53.601,216.934c0,0,6.15-14.808-1.587-24.508c-0.272-0.341-0.813-0.24-0.93,0.18
							C50.398,195.08,49.131,202.693,53.601,216.934z"/>
					</g>
				</g>
			</g>
			<g>
				<g>
					<g>
						<path fill="#CEF2CF" d="M34.546,252.617c0,0,4.932-15.258-3.568-24.301c-0.299-0.316-0.83-0.172-0.912,0.256
							C29.583,231.096,28.937,238.787,34.546,252.617z"/>
					</g>
				</g>
				<g>
					<g>
						<g>
							<path fill="#263238" d="M31.86,233.426c0.082-0.016,0.356,1.036,0.714,2.754c0.358,1.715,0.796,4.098,1.202,6.741
								c0.409,2.646,0.695,5.054,0.836,6.804c0.139,1.752,0.137,2.84,0.059,2.846c-0.087,0.008-0.234-1.065-0.479-2.799
								c-0.29-1.944-0.631-4.23-1.007-6.76c-0.385-2.525-0.732-4.813-1.028-6.76C31.906,234.52,31.779,233.441,31.86,233.426z"/>
						</g>
					</g>
				</g>
				<g opacity="0.3">
					<g>
						<path d="M34.546,252.617c0,0,4.932-15.258-3.568-24.301c-0.299-0.316-0.83-0.172-0.912,0.256
							C29.583,231.096,28.937,238.787,34.546,252.617z"/>
					</g>
				</g>
			</g>
			<g>
				<g>
					<g>
						<path fill="#CEF2CF" d="M61.435,198.838c0,0,13.136-9.195,11.811-21.533c-0.047-0.435-0.559-0.641-0.881-0.349
							C70.458,178.678,65.302,184.423,61.435,198.838z"/>
					</g>
				</g>
				<g opacity="0.3">
					<g>
						<path d="M61.435,198.838c0,0,13.136-9.195,11.811-21.533c-0.047-0.435-0.559-0.641-0.881-0.349
							C70.458,178.678,65.302,184.423,61.435,198.838z"/>
					</g>
				</g>
				<g>
					<g>
						<g>
							<path fill="#263238" d="M70.868,181.91c0.074,0.037-0.342,1.042-1.092,2.626c-0.749,1.585-1.836,3.749-3.107,6.104
								c-1.27,2.354-2.494,4.446-3.437,5.931c-0.945,1.479-1.604,2.348-1.669,2.305c-0.074-0.048,0.456-0.992,1.305-2.521
								c0.943-1.729,2.05-3.758,3.273-6c1.217-2.246,2.318-4.278,3.258-6.014C70.245,182.811,70.794,181.874,70.868,181.91z"/>
						</g>
					</g>
				</g>
			</g>
			<g>
				<g>
					<g>
						<path fill="#CEF2CF" d="M39.843,237.49c0,0,15.844-2.471,20.088-14.131c0.148-0.409-0.22-0.819-0.639-0.699
							C56.823,223.365,49.664,226.254,39.843,237.49z"/>
					</g>
				</g>
				<g opacity="0.3">
					<g>
						<path d="M39.843,237.49c0,0,15.844-2.471,20.088-14.131c0.148-0.409-0.22-0.819-0.639-0.699
							C56.823,223.365,49.664,226.254,39.843,237.49z"/>
					</g>
				</g>
				<g>
					<g>
						<g>
							<path fill="#263238" d="M55.768,226.449c0.05,0.064-0.765,0.783-2.137,1.877c-1.37,1.093-3.3,2.557-5.478,4.109
								c-2.178,1.558-4.199,2.896-5.697,3.812c-1.502,0.913-2.475,1.401-2.514,1.334c-0.045-0.075,0.847-0.688,2.281-1.688
								c1.607-1.137,3.495-2.471,5.581-3.941c2.082-1.479,3.968-2.82,5.572-3.965C54.812,226.98,55.718,226.383,55.768,226.449z"/>
						</g>
					</g>
				</g>
			</g>
		</g>
	</g>
	<g>
		<g>
			<polygon fill="#455B65" points="24.729,266.646 20.107,297.752 48.908,297.752 45.175,266.646 			"/>
		</g>
	</g>
	<g>
		<g>
			<g>
				<ellipse fill="#263238" cx="34.712" cy="276.285" rx="11.613" ry="0.3"/>
			</g>
		</g>
	</g>
	<g>
		<g>
			<g>
				<ellipse fill="#263238" cx="34.902" cy="278.761" rx="11.995" ry="0.3"/>
			</g>
		</g>
	</g>
</g>
<g>
	<g>
		<path fill="#FFFFFF" d="M457.943,162.738h-0.992c0-0.823-0.671-1.487-1.489-1.487s-1.487,0.667-1.487,1.487h-0.994
			c0-1.367,1.113-2.481,2.481-2.481C456.831,160.257,457.943,161.371,457.943,162.738z"/>
	</g>
</g>
<g>
	<g>
		<rect x="418.911" y="247.604" fill="#37474F" width="218.211" height="50.396"/>
		<g>
			<rect x="428.096" y="255.929" fill="#7A91C9" width="124.208" height="4.257"/>
			<rect x="428.096" y="263.303" fill="#7A91C9" width="124.208" height="4.25"/>
			<rect x="428.096" y="270.674" fill="#7A91C9" width="124.208" height="4.253"/>
			<rect x="428.096" y="278.045" fill="#7A91C9" width="124.208" height="4.255"/>
			<rect x="428.096" y="285.42" fill="#7A91C9" width="124.208" height="4.256"/>
		</g>
		<g>
			<path fill="#ECDEED" d="M570.73,255.923c2.331,0,4.221,1.892,4.221,4.219c0,2.333-1.89,4.223-4.221,4.223
				c-2.329,0-4.221-1.89-4.221-4.223C566.51,257.814,568.401,255.923,570.73,255.923z"/>
			<circle fill="#ECDEED" cx="584.636" cy="260.146" r="4.218"/>
			<circle fill="#ECDEED" cx="598.542" cy="260.146" r="4.218"/>
			<path fill="#EAEAEA" d="M612.446,255.923c2.331,0,4.221,1.892,4.221,4.219c0,2.333-1.89,4.223-4.221,4.223
				c-2.329,0-4.219-1.89-4.219-4.223C608.228,257.814,610.117,255.923,612.446,255.923z"/>
			<path fill="#ECDEED" d="M626.354,255.923c2.329,0,4.22,1.892,4.22,4.219c0,2.333-1.891,4.223-4.22,4.223
				c-2.331,0-4.221-1.89-4.221-4.223C622.134,257.814,624.023,255.923,626.354,255.923z"/>
			<path fill="#EAEAEA" d="M570.73,268.582c2.331,0,4.221,1.89,4.221,4.223c0,2.327-1.89,4.217-4.221,4.217
				c-2.329,0-4.221-1.89-4.221-4.217C566.51,270.472,568.401,268.582,570.73,268.582z"/>
			<circle fill="#ECDEED" cx="584.636" cy="272.802" r="4.22"/>
			<circle fill="#ECDEED" cx="598.542" cy="272.802" r="4.22"/>
			<path fill="#EAEAEA" d="M612.446,268.582c2.331,0,4.221,1.89,4.221,4.223c0,2.327-1.89,4.217-4.221,4.217
				c-2.329,0-4.219-1.89-4.219-4.217C608.228,270.472,610.117,268.582,612.446,268.582z"/>
			<path fill="#EAEAEA" d="M626.354,268.582c2.329,0,4.22,1.89,4.22,4.223c0,2.327-1.891,4.217-4.22,4.217
				c-2.331,0-4.221-1.89-4.221-4.217C622.134,270.472,624.023,268.582,626.354,268.582z"/>
			<circle fill="#ECDEED" cx="570.73" cy="285.458" r="4.218"/>
			<circle fill="#EAEAEA" cx="584.636" cy="285.458" r="4.218"/>
			<circle fill="#ECDEED" cx="598.542" cy="285.458" r="4.218"/>
			<path fill="#ECDEED" d="M612.446,281.239c2.331,0,4.219,1.89,4.219,4.218c0,2.327-1.888,4.219-4.219,4.219
				c-2.327,0-4.217-1.892-4.217-4.219C608.229,283.129,610.119,281.239,612.446,281.239z"/>
			<circle fill="#ECDEED" cx="626.354" cy="285.458" r="4.218"/>
		</g>
		<rect x="558.511" y="255.929" fill="#263238" width="2.428" height="33.747"/>
	</g>
	<g>
		<rect x="418.911" y="186.868" fill="#37474F" width="218.211" height="50.392"/>
		<g>
			<rect x="428.096" y="195.188" fill="#7A91C9" width="124.208" height="4.255"/>
			<rect x="428.096" y="202.564" fill="#7A91C9" width="124.208" height="4.254"/>
			<rect x="428.096" y="209.938" fill="#7A91C9" width="124.208" height="4.252"/>
			<rect x="428.096" y="217.31" fill="#7A91C9" width="124.208" height="4.254"/>
			<rect x="428.096" y="224.685" fill="#7A91C9" width="124.208" height="4.25"/>
		</g>
		<g>
			<circle fill="#EAEAEA" cx="570.73" cy="199.407" r="4.218"/>
			<circle fill="#ECDEED" cx="584.636" cy="199.407" r="4.218"/>
			<circle fill="#ECDEED" cx="598.542" cy="199.407" r="4.218"/>
			<path fill="#EAEAEA" d="M612.446,195.188c2.331,0,4.219,1.89,4.219,4.218c0,2.327-1.888,4.219-4.219,4.219
				c-2.327,0-4.217-1.892-4.217-4.219C608.229,197.078,610.119,195.188,612.446,195.188z"/>
			<circle fill="#ECDEED" cx="626.354" cy="199.407" r="4.218"/>
			<circle fill="#ECDEED" cx="570.73" cy="212.069" r="4.222"/>
			<circle fill="#ECDEED" cx="584.636" cy="212.069" r="4.217"/>
			<circle fill="#EAEAEA" cx="598.542" cy="212.069" r="4.217"/>
			<path fill="#EAEAEA" d="M612.446,207.847c2.333,0,4.223,1.89,4.223,4.222c0,2.333-1.89,4.223-4.223,4.223
				c-2.329,0-4.221-1.89-4.221-4.223C608.226,209.736,610.117,207.847,612.446,207.847z"/>
			<path fill="#ECDEED" d="M626.354,207.847c2.329,0,4.223,1.89,4.223,4.222c0,2.333-1.894,4.223-4.223,4.223
				c-2.333,0-4.223-1.89-4.223-4.223C622.132,209.736,624.021,207.847,626.354,207.847z"/>
			<path fill="#ECDEED" d="M570.73,220.5c2.331,0,4.221,1.89,4.221,4.223c0,2.327-1.89,4.217-4.221,4.217
				c-2.329,0-4.221-1.89-4.221-4.217C566.51,222.39,568.401,220.5,570.73,220.5z"/>
			<path fill="#EAEAEA" d="M584.636,220.504c2.33,0,4.215,1.89,4.215,4.219c0,2.327-1.885,4.212-4.215,4.212
				c-2.328,0-4.214-1.885-4.214-4.212C580.422,222.394,582.308,220.504,584.636,220.504z"/>
			<circle fill="#ECDEED" cx="598.542" cy="224.719" r="4.215"/>
			<path fill="#ECDEED" d="M612.446,220.5c2.331,0,4.221,1.89,4.221,4.223c0,2.327-1.89,4.217-4.221,4.217
				c-2.329,0-4.219-1.89-4.219-4.217C608.228,222.39,610.117,220.5,612.446,220.5z"/>
			<path fill="#EAEAEA" d="M626.354,220.5c2.329,0,4.22,1.89,4.22,4.223c0,2.327-1.891,4.217-4.22,4.217
				c-2.331,0-4.221-1.89-4.221-4.217C622.134,222.39,624.023,220.5,626.354,220.5z"/>
		</g>
		<rect x="558.511" y="195.188" fill="#263238" width="2.428" height="33.746"/>
	</g>
	<g>
		<rect x="418.911" y="126.131" fill="#37474F" width="218.211" height="50.389"/>
		<g>
			<rect x="428.096" y="134.454" fill="#7A91C9" width="124.208" height="4.254"/>
			<rect x="428.096" y="141.825" fill="#7A91C9" width="124.208" height="4.259"/>
			<rect x="428.096" y="149.203" fill="#7A91C9" width="124.208" height="4.258"/>
			<rect x="428.096" y="156.57" fill="#7A91C9" width="124.208" height="4.259"/>
			<rect x="428.096" y="163.945" fill="#7A91C9" width="124.208" height="4.255"/>
		</g>
		<g>
			<circle fill="#EAEAEA" cx="570.73" cy="138.672" r="4.218"/>
			<circle fill="#ECDEED" cx="584.636" cy="138.672" r="4.218"/>
			<circle fill="#EAEAEA" cx="598.542" cy="138.672" r="4.218"/>
			<path fill="#ECDEED" d="M612.446,134.454c2.331,0,4.219,1.89,4.219,4.218c0,2.329-1.888,4.218-4.219,4.218
				c-2.327,0-4.217-1.889-4.217-4.218C608.229,136.343,610.119,134.454,612.446,134.454z"/>
			<circle fill="#ECDEED" cx="626.354" cy="138.672" r="4.218"/>
			<circle fill="#ECDEED" cx="570.73" cy="151.327" r="4.223"/>
			<circle fill="#EAEAEA" cx="584.636" cy="151.326" r="4.218"/>
			<circle fill="#EAEAEA" cx="598.542" cy="151.326" r="4.218"/>
			<path fill="#ECDEED" d="M612.446,147.104c2.333,0,4.223,1.892,4.223,4.223s-1.89,4.223-4.223,4.223
				c-2.329,0-4.221-1.892-4.221-4.223S610.117,147.104,612.446,147.104z"/>
			<path fill="#EAEAEA" d="M626.354,147.104c2.329,0,4.223,1.892,4.223,4.223s-1.894,4.223-4.223,4.223
				c-2.333,0-4.223-1.892-4.223-4.223S624.021,147.104,626.354,147.104z"/>
			<path fill="#EAEAEA" d="M570.73,159.762c2.331,0,4.221,1.888,4.221,4.221c0,2.33-1.89,4.218-4.221,4.218
				c-2.329,0-4.221-1.888-4.221-4.218C566.51,161.649,568.401,159.762,570.73,159.762z"/>
			<circle fill="#ECDEED" cx="584.636" cy="163.982" r="4.218"/>
			<circle fill="#ECDEED" cx="598.542" cy="163.982" r="4.218"/>
			<path fill="#EAEAEA" d="M612.446,159.762c2.331,0,4.221,1.888,4.221,4.221c0,2.33-1.89,4.218-4.221,4.218
				c-2.329,0-4.219-1.888-4.219-4.218C608.228,161.649,610.117,159.762,612.446,159.762z"/>
			<path fill="#ECDEED" d="M626.354,159.762c2.329,0,4.22,1.888,4.22,4.221c0,2.33-1.891,4.218-4.22,4.218
				c-2.331,0-4.221-1.888-4.221-4.218C622.134,161.649,624.023,159.762,626.354,159.762z"/>
		</g>
		<rect x="558.511" y="134.454" fill="#263238" width="2.428" height="33.742"/>
	</g>
	<g>
		<rect x="418.911" y="65.394" fill="#37474F" width="218.211" height="50.392"/>
		<g>
			<rect x="428.096" y="73.721" fill="#7A91C9" width="124.208" height="4.252"/>
			<rect x="428.096" y="81.089" fill="#7A91C9" width="124.208" height="4.259"/>
			<rect x="428.096" y="88.464" fill="#7A91C9" width="124.208" height="4.256"/>
			<rect x="428.096" y="95.837" fill="#7A91C9" width="124.208" height="4.257"/>
			<rect x="428.096" y="103.21" fill="#7A91C9" width="124.208" height="4.252"/>
		</g>
		<g>
			<path fill="#ECDEED" d="M570.73,73.718c2.331,0,4.216,1.883,4.216,4.22c0,2.325-1.885,4.215-4.216,4.215
				c-2.327,0-4.217-1.89-4.217-4.215C566.514,75.602,568.403,73.718,570.73,73.718z"/>
			<circle fill="#ECDEED" cx="584.636" cy="77.935" r="4.214"/>
			<circle fill="#ECDEED" cx="598.542" cy="77.935" r="4.214"/>
			<path fill="#ECDEED" d="M612.446,73.718c2.331,0,4.223,1.883,4.223,4.22c0,2.325-1.892,4.215-4.223,4.215
				c-2.325,0-4.217-1.89-4.217-4.215C608.229,75.602,610.119,73.718,612.446,73.718z"/>
			<path fill="#EAEAEA" d="M626.354,73.718c2.327,0,4.22,1.883,4.22,4.22c0,2.325-1.893,4.215-4.22,4.215
				c-2.331,0-4.221-1.89-4.221-4.215C622.134,75.602,624.023,73.718,626.354,73.718z"/>
			<circle fill="#EAEAEA" cx="570.73" cy="90.594" r="4.218"/>
			<circle fill="#EAEAEA" cx="584.636" cy="90.594" r="4.218"/>
			<circle fill="#ECDEED" cx="598.542" cy="90.594" r="4.218"/>
			<path fill="#EAEAEA" d="M612.446,86.376c2.331,0,4.219,1.887,4.219,4.217c0,2.328-1.888,4.218-4.219,4.218
				c-2.327,0-4.217-1.89-4.217-4.218C608.229,88.264,610.119,86.376,612.446,86.376z"/>
			<circle fill="#ECDEED" cx="626.354" cy="90.594" r="4.218"/>
			<circle fill="#ECDEED" cx="570.73" cy="103.245" r="4.218"/>
			<circle fill="#ECDEED" cx="584.636" cy="103.245" r="4.218"/>
			<circle fill="#EAEAEA" cx="598.542" cy="103.245" r="4.218"/>
			<path fill="#ECDEED" d="M612.446,99.027c2.331,0,4.219,1.888,4.219,4.218s-1.888,4.218-4.219,4.218
				c-2.327,0-4.217-1.888-4.217-4.218S610.119,99.027,612.446,99.027z"/>
			<circle fill="#EAEAEA" cx="626.354" cy="103.245" r="4.218"/>
		</g>
		<rect x="558.511" y="73.721" fill="#263238" width="2.428" height="33.742"/>
	</g>
	<g>
		<rect x="418.911" y="4.658" fill="#37474F" width="218.211" height="50.394"/>
		<g>
			<rect x="428.096" y="12.98" fill="#7A91C9" width="124.208" height="4.252"/>
			<rect x="428.096" y="20.354" fill="#7A91C9" width="124.208" height="4.254"/>
			<rect x="428.096" y="27.725" fill="#7A91C9" width="124.208" height="4.259"/>
			<rect x="428.096" y="35.102" fill="#7A91C9" width="124.208" height="4.257"/>
			<rect x="428.096" y="42.473" fill="#7A91C9" width="124.208" height="4.257"/>
		</g>
		<g>
			<circle fill="#ECDEED" cx="570.73" cy="17.198" r="4.22"/>
			<circle fill="#ECDEED" cx="584.636" cy="17.198" r="4.22"/>
			<circle fill="#ECDEED" cx="598.542" cy="17.198" r="4.22"/>
			<circle fill="#ECDEED" cx="612.446" cy="17.198" r="4.22"/>
			<circle fill="#EAEAEA" cx="626.354" cy="17.198" r="4.22"/>
			<circle fill="#EAEAEA" cx="570.73" cy="29.854" r="4.22"/>
			<circle fill="#ECDEED" cx="584.636" cy="29.856" r="4.218"/>
			<circle fill="#ECDEED" cx="598.542" cy="29.856" r="4.218"/>
			<circle fill="#EAEAEA" cx="612.446" cy="29.854" r="4.22"/>
			<circle fill="#ECDEED" cx="626.354" cy="29.854" r="4.22"/>
			<path fill="#EAEAEA" d="M570.73,38.29c2.331,0,4.221,1.89,4.221,4.217c0,2.333-1.89,4.223-4.221,4.223
				c-2.329,0-4.221-1.89-4.221-4.223C566.51,40.18,568.401,38.29,570.73,38.29z"/>
			<path fill="#EAEAEA" d="M584.636,38.29c2.332,0,4.22,1.89,4.22,4.217c0,2.333-1.888,4.223-4.22,4.223
				c-2.33,0-4.218-1.89-4.218-4.223C580.418,40.18,582.306,38.29,584.636,38.29z"/>
			<path fill="#ECDEED" d="M598.542,38.29c2.331,0,4.221,1.89,4.221,4.217c0,2.333-1.89,4.223-4.221,4.223
				c-2.329,0-4.22-1.89-4.22-4.223C594.322,40.18,596.213,38.29,598.542,38.29z"/>
			<path fill="#ECDEED" d="M612.446,38.29c2.331,0,4.221,1.89,4.221,4.217c0,2.333-1.89,4.223-4.221,4.223
				c-2.329,0-4.219-1.89-4.219-4.223C608.228,40.18,610.117,38.29,612.446,38.29z"/>
			<path fill="#EAEAEA" d="M626.354,38.29c2.329,0,4.22,1.89,4.22,4.217c0,2.333-1.891,4.223-4.22,4.223
				c-2.331,0-4.221-1.89-4.221-4.223C622.134,40.18,624.023,38.29,626.354,38.29z"/>
		</g>
		<rect x="558.511" y="12.98" fill="#263238" width="2.428" height="33.749"/>
	</g>
	<g>
		<rect x="418.911" y="4.658" fill="#7A91C9" width="218.211" height="50.394"/>
		<g>
			<rect x="439.261" y="24.304" fill="#FFFFFF" width="110.661" height="11.109"/>
			<rect x="439.261" y="24.304" fill="#ECDEED" width="67.848" height="11.109"/>
		</g>
		<g>
			<circle fill="#ECDEED" cx="571.007" cy="29.854" r="5.858"/>
			<circle fill="#FFFFFF" cx="593.453" cy="29.856" r="5.861"/>
			<circle fill="#FFFFFF" cx="615.896" cy="29.854" r="5.858"/>
		</g>
	</g>
	<g>
		<rect x="418.911" y="65.394" fill="#7A91C9" width="218.211" height="50.392"/>
		<g>
			<rect x="439.261" y="85.035" fill="#FFFFFF" width="110.661" height="11.116"/>
			<rect x="439.261" y="85.035" fill="#ECDEED" width="92.229" height="11.116"/>
		</g>
		<g>
			<circle fill="#ECDEED" cx="571.007" cy="90.588" r="5.855"/>
			<circle fill="#FFFFFF" cx="593.453" cy="90.59" r="5.857"/>
			<circle fill="#FFFFFF" cx="615.896" cy="90.588" r="5.855"/>
		</g>
	</g>
	<g>
		<rect x="418.911" y="126.131" fill="#7A91C9" width="218.211" height="50.389"/>
		<g>
			<rect x="439.261" y="145.765" fill="#FFFFFF" width="110.661" height="11.119"/>
			<rect x="439.261" y="145.765" fill="#ECDEED" width="75.735" height="11.119"/>
		</g>
		<g>
			<circle fill="#ECDEED" cx="571.007" cy="151.329" r="5.854"/>
			<circle fill="#FFFFFF" cx="593.453" cy="151.327" r="5.857"/>
			<circle fill="#FFFFFF" cx="615.896" cy="151.329" r="5.854"/>
		</g>
	</g>
	<g>
		<rect x="418.911" y="186.868" fill="#7A91C9" width="218.211" height="50.392"/>
		<g>
			<rect x="439.261" y="206.508" fill="#FFFFFF" width="110.661" height="11.113"/>
			<rect x="439.261" y="206.508" fill="#ECDEED" width="39.996" height="11.113"/>
		</g>
		<g>
			<circle fill="#ECDEED" cx="571.007" cy="212.063" r="5.855"/>
			<circle fill="#FFFFFF" cx="593.453" cy="212.065" r="5.857"/>
			<circle fill="#FFFFFF" cx="615.896" cy="212.063" r="5.855"/>
		</g>
	</g>
	<g>
		<rect x="418.911" y="247.604" fill="#7A91C9" width="218.211" height="50.396"/>
		<g>
			<rect x="439.261" y="267.242" fill="#FFFFFF" width="110.661" height="11.114"/>
			<rect x="439.261" y="267.242" fill="#ECDEED" width="78.442" height="11.114"/>
		</g>
		<g>
			<circle fill="#ECDEED" cx="571.007" cy="272.801" r="5.855"/>
			<circle fill="#FFFFFF" cx="593.453" cy="272.801" r="5.855"/>
			<circle fill="#FFFFFF" cx="615.896" cy="272.801" r="5.855"/>
		</g>
	</g>
</g>
<g>
	<path fill="none" stroke="#263238" stroke-miterlimit="10" d="M615.341,78.486"/>
</g>
<g>
	<g>
		<g>
			<path fill="#D8E5F5" d="M383.605,215.479c9.789-8.852,19.576-17.701,29.365-26.551c1.451-1.311-0.699-3.451-2.143-2.145
				c-9.789,8.85-19.579,17.699-29.367,26.55C380.012,214.645,382.161,216.783,383.605,215.479L383.605,215.479z"/>
		</g>
	</g>
	<g>
		<g>
			<path fill="#D8E5F5" d="M416.795,229.018c9.788-8.85,19.576-17.699,29.366-26.549c1.45-1.312-0.699-3.449-2.144-2.143
				c-9.791,8.848-19.578,17.697-29.367,26.547C413.2,228.186,415.35,230.324,416.795,229.018L416.795,229.018z"/>
		</g>
	</g>
	<g>
		<g>
			<path fill="#D8E5F5" d="M380.73,239.048c20.519-20.006,41.033-40.012,61.549-60.018c1.4-1.364-0.744-3.507-2.143-2.146
				c-20.517,20.007-41.033,40.013-61.549,60.019C377.189,238.27,379.333,240.411,380.73,239.048L380.73,239.048z"/>
		</g>
	</g>
</g>
<g>
	<g>
		<polygon fill="#776E43" points="387.531,224.163 389.833,283.102 302.394,283.102 299.78,226.503 299.725,225.293 		"/>
		<g>
			<polygon fill="#FFABA1" points="350.169,281.848 322.854,264.442 313.025,291.476 339.884,297.32 			"/>
			<path fill="#D3BBA3" d="M397.289,297.119h-58.979l3.961-21.901c0,0,25.018-10.777,52.363,5.226
				C394.635,280.443,401.374,288.682,397.289,297.119z"/>
			<path fill="#373F45" d="M355.377,291.886c-0.273,0-0.494-0.222-0.494-0.493v-13.429c0-0.271,0.222-0.492,0.494-0.492
				c0.271,0,0.49,0.221,0.49,0.492v13.429C355.867,291.664,355.648,291.886,355.377,291.886z"/>
			<path fill="#373F45" d="M359.188,291.886c-0.273,0-0.493-0.222-0.493-0.493v-13.429c0-0.271,0.221-0.492,0.493-0.492
				c0.271,0,0.49,0.221,0.49,0.492v13.429C359.679,291.664,359.457,291.886,359.188,291.886z"/>
			<path fill="#8C865C" d="M336.744,259.779l-16.567,37.34c0,0-46.076-9.714-78.124-29.762
				c-11.198-7.004-14.812-21.651-8.142-33.051c0.095-0.165,0.191-0.328,0.287-0.485c5.7-9.528,17.242-13.845,27.877-10.655
				C279.106,228.266,310.875,239.68,336.744,259.779z"/>
		</g>
		<g>
			<polygon fill="#FFABA1" points="335.418,281.848 362.732,264.442 372.563,291.476 345.701,297.32 			"/>
			<path fill="#FFFFFF" d="M288.925,297.119h58.351l-3.962-20.692c0,0-21.576-12.556-47.344-2.89
				C295.971,273.539,292.536,280.88,288.925,297.119z"/>
			<path fill="#373F45" d="M330.211,291.886c-0.271,0-0.492-0.222-0.492-0.493v-13.429c0-0.271,0.221-0.492,0.492-0.492
				c0.272,0,0.494,0.221,0.494,0.492v13.429C330.705,291.664,330.483,291.886,330.211,291.886z"/>
			<path fill="#373F45" d="M326.4,291.886c-0.273,0-0.493-0.222-0.493-0.493v-13.429c0-0.271,0.221-0.492,0.493-0.492
				c0.271,0,0.492,0.221,0.492,0.492v13.429C326.893,291.664,326.673,291.886,326.4,291.886z"/>
			<path fill="#8C865C" d="M348.842,259.779l16.57,37.34c0,0,46.075-9.714,78.121-29.762c11.199-7.004,14.812-21.651,8.142-33.051
				c-0.095-0.165-0.189-0.328-0.286-0.485c-5.701-9.528-17.241-13.845-27.877-10.655
				C406.479,228.266,374.713,239.68,348.842,259.779z"/>
		</g>
	</g>
	<g>
		<path fill="#F6E8D4" d="M280.578,238.278l-4.627-0.812c-8.288-1.455-13.509-9.72-11.301-17.839
			c2.107-7.74,5.146-17.22,9.117-25.426c3.897-8.06,11.347-13.833,20.135-15.545c18.531-3.604,56.196-8.532,95.06,0.462
			c8.004,1.854,14.838,7.073,18.673,14.337c3.294,6.238,7.153,14.628,9.844,23.873c2.55,8.764-2.792,17.874-11.652,20.064
			l-20.694-4.492L280.578,238.278z"/>
		<path fill="#FFABA1" d="M269.541,221.162c-0.341,1.224-0.546,2.553-0.559,3.998c-0.061,6.511,4.094,12.323,10.17,14.665
			l30.339,8.095l6.604-22.528l-31.224-11.827C278.524,211.161,271.358,214.623,269.541,221.162z"/>
		<path fill="#FFABA1" d="M411.646,228.272c-0.425,1.197-1.02,2.408-1.837,3.598c-3.681,5.369-10.417,7.751-16.739,6.187
			l-30.575-7.563l8.573-25.435l32.367,8.207C410.016,214.928,413.905,221.87,411.646,228.272z"/>
	</g>
	<g>
		<rect x="303.17" y="196.204" fill="#373F45" width="78.748" height="47.21"/>
		<rect x="303.17" y="244.702" fill="#373F45" width="78.748" height="4.831"/>
		<path fill="#41494D" d="M346.822,222.612h-8.56c-0.273,0-0.493-0.221-0.493-0.493v-8.559c0-0.274,0.221-0.493,0.493-0.493h8.56
			c0.272,0,0.492,0.223,0.492,0.493v8.559C347.316,222.392,347.095,222.612,346.822,222.612z M338.756,221.626h7.573v-7.574h-7.573
			V221.626z"/>
		<path fill="#41494D" d="M378.508,200.488h-71.929c-0.273,0-0.493-0.221-0.493-0.49c0-0.273,0.221-0.494,0.493-0.494h71.929
			c0.273,0,0.493,0.221,0.493,0.494C379.001,200.271,378.779,200.488,378.508,200.488z"/>
	</g>
	<g>
		
			<ellipse transform="matrix(0.5954 0.8034 -0.8034 0.5954 261.6036 -198.4807)" fill="#FFABA1" cx="327.871" cy="160.503" rx="5.291" ry="4.502"/>
		
			<ellipse transform="matrix(0.5107 -0.8598 0.8598 0.5107 37.8515 384.6044)" fill="#FFABA1" cx="356.813" cy="159.048" rx="5.291" ry="4.503"/>
		<path fill="#373F45" d="M355.505,151.049c-0.387-7.452-6.743-13.178-14.195-12.793l0,0c-7.452,0.388-13.181,6.742-12.794,14.194
			l0.455,8.746l26.987-1.4L355.505,151.049z"/>
		<path fill="#FFABA1" d="M341.449,186.59L341.449,186.59c-5.217-0.239-9.254-4.663-9.015-9.88l0.878-19.109l18.893,0.868
			l-0.877,19.108C351.089,182.794,346.665,186.828,341.449,186.59z"/>
		<path fill="#FFABA1" d="M355.416,159.263c0.43,8.42-5.033,15.546-12.199,15.907c-7.168,0.365-13.324-6.166-13.752-14.587
			c-0.43-8.421,5.031-13.23,12.199-13.594C348.832,146.624,354.988,150.841,355.416,159.263z"/>
		<path fill="#373F45" d="M342.639,175.678c-3.395,0-6.635-1.466-9.184-4.171c-0.186-0.196-0.176-0.507,0.021-0.694
			s0.51-0.178,0.696,0.021c2.497,2.647,5.7,4.02,9.02,3.845c3.319-0.17,6.368-1.854,8.582-4.74c0.167-0.218,0.476-0.257,0.689-0.088
			c0.216,0.164,0.257,0.474,0.092,0.688c-2.394,3.12-5.702,4.94-9.315,5.128C343.041,175.672,342.84,175.678,342.639,175.678z"/>
		<path fill="#373F45" d="M355.414,163.844c-0.028,0-0.06-0.002-0.088-0.008c-0.268-0.048-0.445-0.305-0.397-0.572
			c0.236-1.297,0.321-2.634,0.253-3.976c-0.061-1.198-0.244-2.382-0.541-3.52c-0.07-0.263,0.089-0.531,0.353-0.602
			c0.263-0.066,0.531,0.089,0.601,0.353c0.315,1.203,0.507,2.453,0.572,3.718c0.072,1.418-0.018,2.831-0.268,4.203
			C355.855,163.678,355.65,163.844,355.414,163.844z"/>
		<path fill="#373F45" d="M329.861,165.051c-0.215,0-0.413-0.143-0.475-0.359c-0.375-1.316-0.6-2.689-0.672-4.084
			c-0.066-1.288,0.003-2.576,0.203-3.829c0.044-0.268,0.294-0.453,0.563-0.407c0.271,0.041,0.452,0.295,0.41,0.563
			c-0.19,1.188-0.254,2.403-0.192,3.624c0.067,1.318,0.279,2.618,0.635,3.864c0.075,0.261-0.076,0.534-0.338,0.608
			C329.951,165.043,329.906,165.051,329.861,165.051z"/>
		<g>
			<path fill="#FFFFFF" d="M351.764,157.992c-0.784-0.025-2.22,0.161-2.963,0.401c-0.717,0.23-1.338,0.653-2.004,1.308
				c-0.992,0.922-1.52,1.878-1.52,1.878s1.391,0.514,3.068,0.416c0.58-0.029,0.992-0.833,1.596-1.06
				c0.742-0.277,1.584-0.007,2.107-0.457c1.139-0.98,1.742-2.084,1.742-2.084S352.938,158.082,351.764,157.992z"/>
			<g>
				<g>
					<g>
						<g>
							<defs>
								<path id="SVGID_1_" d="M345.277,161.58c0,0,2.52,0.93,4.871,0.049c2.352-0.879,3.643-3.234,3.643-3.234
									s-2.52-0.928-4.871-0.05C346.568,159.225,345.277,161.58,345.277,161.58z"/>
							</defs>
							<clipPath id="SVGID_2_">
								<use xlink:href="#SVGID_1_"  overflow="visible"/>
							</clipPath>
							<circle clip-path="url(#SVGID_2_)" fill="#373F45" cx="349.534" cy="161.112" r="2.76"/>
						</g>
					</g>
				</g>
			</g>
		</g>
		<g>
			<path fill="#FFFFFF" d="M334.215,157.992c0.785-0.025,2.219,0.161,2.964,0.401c0.716,0.23,1.339,0.653,2.003,1.308
				c0.99,0.922,1.52,1.878,1.52,1.878s-1.391,0.514-3.066,0.416c-0.582-0.029-0.992-0.833-1.598-1.06
				c-0.741-0.277-1.586-0.007-2.107-0.457c-1.138-0.98-1.743-2.084-1.743-2.084S333.039,158.082,334.215,157.992z"/>
			<g>
				<g>
					<g>
						<g>
							<defs>
								<path id="SVGID_3_" d="M340.701,161.58c0,0-2.52,0.93-4.871,0.049c-2.353-0.879-3.646-3.234-3.646-3.234
									s2.521-0.928,4.873-0.05C339.41,159.225,340.701,161.58,340.701,161.58z"/>
							</defs>
							<clipPath id="SVGID_4_">
								<use xlink:href="#SVGID_3_"  overflow="visible"/>
							</clipPath>
							<circle clip-path="url(#SVGID_4_)" fill="#373F45" cx="336.445" cy="161.112" r="2.758"/>
						</g>
					</g>
				</g>
			</g>
		</g>
		<path fill="#373F45" d="M343.342,166.046c-0.148,0-0.293-0.069-0.391-0.193c-0.166-0.217-0.126-0.524,0.09-0.689
			c0.282-0.218,0.439-0.428,0.443-0.587c0.003-0.102-0.059-0.196-0.206-0.402c-0.177-0.242-0.394-0.546-0.489-1.013
			c-0.086-0.414-0.051-0.851,0.105-1.296c0.09-0.256,0.371-0.392,0.628-0.302c0.257,0.086,0.392,0.37,0.302,0.631
			c-0.096,0.275-0.119,0.533-0.07,0.772c0.053,0.261,0.178,0.432,0.324,0.633c0.178,0.249,0.4,0.559,0.393,0.998
			c-0.01,0.481-0.288,0.937-0.829,1.347C343.553,166.013,343.447,166.046,343.342,166.046z"/>
		<path fill="#373F45" d="M341.322,168.165c-0.557,0-1.389-0.112-2.2-0.633c-0.517-0.332-0.956-0.794-1.272-1.337
			c-0.139-0.231-0.061-0.533,0.175-0.674c0.235-0.139,0.537-0.059,0.677,0.176c0.236,0.409,0.568,0.754,0.957,1.003
			c0.741,0.481,1.51,0.5,1.902,0.473c0.271-0.02,0.51,0.18,0.531,0.453c0.021,0.271-0.182,0.508-0.452,0.529
			C341.547,168.16,341.442,168.165,341.322,168.165z"/>
		<g>
			<path fill="#373F45" d="M341.02,144.851c0,0,24.322-23.907,9.97-30.493C338.667,108.698,339.924,140.172,341.02,144.851z"/>
			<path fill="#373F45" d="M340.965,144.358c0,0,7.572-40.083-8.062-37.839C319.481,108.446,337.508,141.021,340.965,144.358z"/>
			<path fill="#373F45" d="M338.979,142.578c0,0-7.632-28.544-18.629-17.209C310.91,135.103,334.203,142.053,338.979,142.578z"/>
			<path fill="#373F45" d="M335.324,141.583c0,0-10.445-4.859-10.828,0.465C324.168,146.617,333.974,142.483,335.324,141.583z"/>
		</g>
	</g>
</g>
<rect y="298.674" fill="#B3F1FF" width="640" height="1.221"/>
</svg>
