<?xml version="1.0" encoding="iso-8859-1"?>
<!-- Generator: Adobe Illustrator 16.0.0, SVG Export Plug-In . SVG Version: 6.00 Build 0)  -->
<!DOCTYPE svg PUBLIC "-//W3C//DTD SVG 1.1//EN" "http://www.w3.org/Graphics/SVG/1.1/DTD/svg11.dtd">
<svg version="1.1" id="Layer_1" xmlns="http://www.w3.org/2000/svg" xmlns:xlink="http://www.w3.org/1999/xlink" x="0px" y="0px"
	 width="640px" height="300px" viewBox="0 0 640 300" style="enable-background:new 0 0 640 300;" xml:space="preserve">
<g>
	<g>
		<circle style="fill:#52909D;" cx="70.385" cy="162.819" r="1.265"/>
		<circle style="fill:#52909D;" cx="81.611" cy="110.486" r="2.688"/>
		<circle style="fill:#52909D;" cx="130.148" cy="116.652" r="2.846"/>
		<circle style="fill:#52909D;" cx="41.294" cy="189.381" r="0.949"/>
		<circle style="fill:#52909D;" cx="63.903" cy="361.555" r="2.055"/>
		<circle style="fill:#52909D;" cx="22.955" cy="269.064" r="2.846"/>
		<circle style="fill:#52909D;" cx="226.749" cy="87.72" r="3.32"/>
		<circle style="fill:#52909D;" cx="210.938" cy="46.613" r="3.004"/>
		<circle style="fill:#52909D;" cx="337.579" cy="104.953" r="2.529"/>
		<circle style="fill:#52909D;" cx="407.145" cy="64.163" r="1.897"/>
		<circle style="fill:#52909D;" cx="427.697" cy="154.281" r="3.162"/>
		<circle style="fill:#52909D;" cx="469.121" cy="167.245" r="0.949"/>
		<circle style="fill:#52909D;" cx="395.287" cy="116.811" r="0.791"/>
		<circle style="fill:#52909D;" cx="475.919" cy="295.783" r="1.739"/>
		<circle style="fill:#52909D;" cx="453.785" cy="338.154" r="2.372"/>
		<circle style="fill:#52909D;" cx="466.433" cy="217.049" r="2.688"/>
		<circle style="fill:#52909D;" cx="249.674" cy="319.342" r="1.265"/>
		<circle style="fill:#52909D;" cx="98.267" cy="391.936" r="1.455"/>
		<circle style="fill:#52909D;" cx="217.992" cy="379.881" r="1.455"/>
		<circle style="fill:#52909D;" cx="284.298" cy="422.906" r="0.832"/>
		<circle style="fill:#52909D;" cx="186.605" cy="415.424" r="2.91"/>
		<circle style="fill:#52909D;" cx="407.35" cy="410.02" r="2.079"/>
		<circle style="fill:#52909D;" cx="460.146" cy="394.639" r="1.663"/>
		<circle style="fill:#52909D;" cx="332.729" cy="398.172" r="2.702"/>
	</g>
	<g>
		<circle style="fill:none;stroke:#52909D;stroke-miterlimit:10;" cx="349.981" cy="61.226" r="6.465"/>
		<circle style="fill:none;stroke:#52909D;stroke-miterlimit:10;" cx="366.532" cy="130.533" r="3.103"/>
		<circle style="fill:none;stroke:#52909D;stroke-miterlimit:10;" cx="435.581" cy="101.311" r="4.396"/>
		<circle style="fill:none;stroke:#52909D;stroke-miterlimit:10;" cx="400.798" cy="162.214" r="1.939"/>
		<circle style="fill:none;stroke:#52909D;stroke-miterlimit:10;" cx="357.093" cy="200.488" r="0.646"/>
		<circle style="fill:none;stroke:#52909D;stroke-miterlimit:10;" cx="470.882" cy="196.609" r="2.974"/>
		<circle style="fill:none;stroke:#52909D;stroke-miterlimit:10;" cx="475.407" cy="316.477" r="1.811"/>
		<circle style="fill:none;stroke:#52909D;stroke-miterlimit:10;" cx="239.425" cy="299.537" r="2.198"/>
		<circle style="fill:none;stroke:#52909D;stroke-miterlimit:10;" cx="21.802" cy="288.287" r="2.586"/>
		<circle style="fill:none;stroke:#52909D;stroke-miterlimit:10;" cx="40.94" cy="160.79" r="3.879"/>
		<circle style="fill:none;stroke:#52909D;stroke-miterlimit:10;" cx="61.758" cy="126.525" r="1.94"/>
		<circle style="fill:none;stroke:#52909D;stroke-miterlimit:10;" cx="138.695" cy="89.673" r="5.431"/>
		<circle style="fill:none;stroke:#52909D;stroke-miterlimit:10;" cx="173.349" cy="43.64" r="1.552"/>
		<circle style="fill:none;stroke:#52909D;stroke-miterlimit:10;" cx="95.248" cy="50.623" r="3.104"/>
		<circle style="fill:none;stroke:#52909D;stroke-miterlimit:10;" cx="285.328" cy="36.14" r="2.586"/>
		<circle style="fill:none;stroke:#52909D;stroke-miterlimit:10;" cx="251.873" cy="399.627" r="4.157"/>
		<circle style="fill:none;stroke:#52909D;stroke-miterlimit:10;" cx="381.576" cy="389.234" r="3.326"/>
		<circle style="fill:none;stroke:#52909D;stroke-miterlimit:10;" cx="143.787" cy="391.729" r="3.326"/>
		<circle style="fill:none;stroke:#52909D;stroke-miterlimit:10;" cx="54.617" cy="428.104" r="4.781"/>
		<circle style="fill:none;stroke:#52909D;stroke-miterlimit:10;" cx="359.545" cy="426.34" r="2.957"/>
		<circle style="fill:none;stroke:#52909D;stroke-miterlimit:10;" cx="397.985" cy="3.494" r="4.095"/>
		<circle style="fill:none;stroke:#52909D;stroke-miterlimit:10;" cx="117.984" cy="11.456" r="3.867"/>
		<circle style="fill:none;stroke:#52909D;stroke-miterlimit:10;" cx="42.467" cy="60.586" r="3.412"/>
	</g>
</g>
<g>
	<g>
		<g>
			<path style="fill:#7CC46A;" d="M100.056,288.896c-0.631-2.063-2.076-3.992-4.128-4.652c-2.053-0.662-4.657,0.341-5.296,2.398
				c-1.889-1.576-4.782-0.325-6.3,1.612c-2.454,3.131-0.558,8.26-0.148,8.594c0.442,0.358,1.642,0.297,1.642,0.297l18.364-0.103
				c0,0,3.368-0.247,4.923-0.866c3.129-1.247,5.257-6.632,3.243-9.331c-1.372-1.841-4.08-2.231-6.269-1.532
				C103.9,286.012,101.779,287.38,100.056,288.896"/>
		</g>
		<g>
			<path style="fill:#51AA50;" d="M85.563,297.758c-0.465,0-1.295-0.063-1.762-0.441c-0.72-0.584-2.55-6.113,0.054-9.437
				c1.097-1.397,2.739-2.368,4.289-2.532c0.809-0.092,1.563,0.05,2.221,0.393c0.395-0.708,1.019-1.304,1.812-1.715
				c1.208-0.629,2.68-0.766,3.938-0.359c1.825,0.587,3.356,2.131,4.217,4.205c1.788-1.45,3.741-2.551,5.571-3.136
				c2.193-0.701,5.3-0.452,6.939,1.747c0.944,1.268,1.163,3.14,0.599,5.139c-0.674,2.384-2.284,4.394-4.103,5.118
				c-1.623,0.648-4.964,0.897-5.105,0.908l-18.403,0.104C85.769,297.753,85.677,297.758,85.563,297.758z M88.614,286.535
				c-0.112,0-0.227,0.004-0.344,0.018c-1.215,0.128-2.575,0.943-3.461,2.076c-2.155,2.75-0.545,7.336-0.193,7.797
				c0.081,0.06,0.688,0.142,1.176,0.112l18.393-0.103c-0.008,0,3.254-0.245,4.704-0.822c1.458-0.58,2.818-2.318,3.385-4.321
				c0.461-1.633,0.313-3.122-0.403-4.083c-1.283-1.725-3.804-1.892-5.598-1.318c-1.909,0.61-3.975,1.839-5.815,3.46
				c-0.154,0.137-0.368,0.186-0.565,0.131c-0.199-0.058-0.355-0.211-0.416-0.407c-0.647-2.119-2.044-3.709-3.734-4.255
				c-0.953-0.306-2.079-0.2-3.006,0.281c-0.762,0.396-1.303,1.007-1.524,1.722c-0.061,0.194-0.214,0.345-0.408,0.402
				c-0.192,0.057-0.403,0.014-0.56-0.116C89.787,286.727,89.238,286.535,88.614,286.535z"/>
		</g>
	</g>
	<g>
		<g>
			<g>
				<path style="fill:#51AA50;" d="M80.744,288.202c-0.525,1.021-0.752,2.133-0.627,3.277c0.063,0.575,0.973,0.582,0.91,0
					c-0.108-0.989,0.046-1.933,0.501-2.818C81.796,288.141,81.011,287.679,80.744,288.202L80.744,288.202z"/>
			</g>
		</g>
	</g>
	<g>
		<g>
			<g>
				<path style="fill:#51AA50;" d="M78.09,288.931c-0.286,1.027-0.307,2.056-0.078,3.097c0.125,0.573,1.002,0.331,0.877-0.239
					c-0.194-0.885-0.163-1.745,0.078-2.615C79.124,288.606,78.247,288.366,78.09,288.931L78.09,288.931z"/>
			</g>
		</g>
	</g>
	<g>
		<g>
			<g>
				<path style="fill:#51AA50;" d="M83.191,287.085c0.585,0,0.587-0.908,0-0.908C82.606,286.177,82.605,287.085,83.191,287.085
					L83.191,287.085z"/>
			</g>
		</g>
	</g>
	<g>
		<g>
			<g>
				<path style="fill:#51AA50;" d="M85.769,291.481c0,0.27,0,0.539,0,0.809c0,0.585,0.91,0.585,0.91,0c0-0.27,0-0.539,0-0.809
					C86.679,290.895,85.769,290.895,85.769,291.481L85.769,291.481z"/>
			</g>
		</g>
	</g>
	<g>
		<g>
			<g>
				<path style="fill:#51AA50;" d="M101.129,292.896c0,0.135,0,0.27,0,0.404c0,0.584,0.909,0.587,0.909,0c0-0.135,0-0.27,0-0.404
					C102.038,292.311,101.129,292.309,101.129,292.896L101.129,292.896z"/>
			</g>
		</g>
	</g>
	<g>
		<g>
			<g>
				<path style="fill:#51AA50;" d="M99.442,291.802c0.067,0.068,0.135,0.135,0.202,0.203c0.415,0.413,1.059-0.229,0.644-0.645
					c-0.066-0.066-0.134-0.135-0.201-0.201C99.672,290.744,99.028,291.388,99.442,291.802L99.442,291.802z"/>
			</g>
		</g>
	</g>
</g>
<g>
	<path style="fill:#415C92;" d="M196.854,271.754h-30.786c-0.67,0-1.213-0.541-1.213-1.213c0-0.669,0.543-1.212,1.213-1.212h30.786
		c0.669,0,1.212,0.543,1.212,1.212C198.066,271.213,197.523,271.754,196.854,271.754z"/>
</g>
<g>
	<g>
		<path style="fill:#FFFFFF;" d="M467.949,164.981h-0.879c0-0.728-0.592-1.318-1.319-1.318c-0.727,0-1.317,0.591-1.317,1.318h-0.881
			c0-1.212,0.986-2.199,2.198-2.199C466.964,162.782,467.949,163.77,467.949,164.981z"/>
	</g>
</g>
<g>
	<g>
		<path style="fill:#FFFFFF;" d="M471.094,113.784h-0.879c0-0.728-0.592-1.32-1.319-1.32s-1.318,0.593-1.318,1.32h-0.88
			c0-1.213,0.987-2.2,2.198-2.2C470.108,111.584,471.094,112.571,471.094,113.784z"/>
	</g>
</g>
<g>
	<g>
		<g>
			<path style="fill:#415C92;" d="M361.64,291.696h-41.844l0.71-1.684c2.743-6.509,3.027-12.083,2.609-18.448l-0.084-1.288
				l35.278-0.109l0.009,1.208c0.03,4.115,1.145,13.461,2.819,18.741L361.64,291.696z M323.406,289.271h34.963
				c-1.346-5.09-2.261-12.446-2.442-16.672l-30.316,0.094C325.897,278.338,325.553,283.475,323.406,289.271z"/>
		</g>
	</g>
</g>
<g>
	<g>
		<g>
			<path style="fill:#415C92;" d="M307.765,272.578c-31.768,0-57.502-0.173-58.632-0.577c-2.719-0.969-6.272-4.737-6.321-7.411
				c-0.103-5.787-0.352-13.671-0.64-22.799c-0.87-27.524-2.061-65.217-0.516-86.076c0.282-3.8,3.421-6.736,7.174-6.736
				c0.041,0,0.08,0,0.12,0l183.15,0.272c3.873,0.066,6.98,3.192,7.07,7.117c0.14,6.092,0.338,12.319,0.538,18.631
				c0.838,26.423,1.705,53.749-1.222,79.588c-0.115,1.019-0.166,2.145-0.219,3.309c-0.246,5.42-0.554,12.169-7.541,13.548
				C427.312,272.117,359.53,272.578,307.765,272.578z M248.845,150.928c-2.749,0-5.038,2.15-5.245,4.932
				c-1.538,20.755-0.349,58.39,0.52,85.868c0.29,9.136,0.539,17.026,0.642,22.827c0.03,1.688,2.849,4.832,5.026,5.609
				c3.899,0.797,176.087,0.207,180.563-0.633c5.486-1.085,5.732-6.493,5.972-11.726c0.055-1.213,0.109-2.38,0.229-3.441
				c2.91-25.695,2.045-52.95,1.209-79.305c-0.2-6.316-0.397-12.548-0.539-18.646c-0.065-2.873-2.326-5.162-5.146-5.213
				l-183.142-0.273C248.903,150.928,248.875,150.928,248.845,150.928z"/>
		</g>
	</g>
</g>
<g>
	<g>
		<path style="fill-rule:evenodd;clip-rule:evenodd;fill:#B9CEEB;" d="M426.977,155.557l-172.561-0.229
			c-3.104-0.046-5.709,2.083-5.942,4.863c-1.933,23.096,0.702,71.285,1.092,90.68c0.038,1.891,3.123,4.725,5.346,5.426
			c2.616,0.827,166.603,0.204,170.612-0.497c7.197-1.257,5.972-8.626,6.576-13.345c3.415-26.675,1.317-55.67,0.637-81.76
			C432.663,157.87,430.123,155.604,426.977,155.557z"/>
	</g>
</g>
<g>
	<g>
		<g>
			<path style="fill:#415C92;" d="M376.609,298.335h-71.8c-2.85,0-4.34-2.24-4.34-4.455c0-2.216,1.49-4.461,4.34-4.461h71.8
				c2.85,0,4.34,2.241,4.34,4.456S379.459,298.335,376.609,298.335z M304.809,291.367c-1.886,0-2.391,1.581-2.391,2.513
				s0.505,2.505,2.391,2.505h71.8c1.887,0,2.391-1.578,2.391-2.51s-0.504-2.508-2.391-2.508H304.809z"/>
		</g>
	</g>
</g>
<g>
	<g>
		<g>
			<g>
				<g>
					<path style="fill-rule:evenodd;clip-rule:evenodd;fill:#415C92;" d="M254.806,263.279
						C254.382,263.279,254.382,263.279,254.806,263.279"/>
				</g>
			</g>
		</g>
		<g>
			<g>
				<g>
					<g>
						<path style="fill:#415C92;" d="M254.806,265.784c3.225,0,3.229-5.013,0-5.013
							C251.582,260.771,251.576,265.784,254.806,265.784L254.806,265.784z"/>
					</g>
				</g>
			</g>
		</g>
	</g>
	<g>
		<g>
			<g>
				<g>
					<path style="fill-rule:evenodd;clip-rule:evenodd;fill:#415C92;" d="M264.909,263.279
						C264.485,263.279,264.485,263.279,264.909,263.279"/>
				</g>
			</g>
		</g>
		<g>
			<g>
				<g>
					<g>
						<path style="fill:#415C92;" d="M264.909,265.784c3.225,0,3.229-5.013,0-5.013
							C261.684,260.771,261.679,265.784,264.909,265.784L264.909,265.784z"/>
					</g>
				</g>
			</g>
		</g>
	</g>
	<g>
		<g>
			<g>
				<g>
					<path style="fill-rule:evenodd;clip-rule:evenodd;fill:#415C92;" d="M275.011,263.279
						C274.588,263.279,274.588,263.279,275.011,263.279"/>
				</g>
			</g>
		</g>
		<g>
			<g>
				<g>
					<g>
						<path style="fill:#415C92;" d="M275.011,265.784c3.225,0,3.23-5.013,0-5.013C271.787,260.771,271.781,265.784,275.011,265.784
							L275.011,265.784z"/>
					</g>
				</g>
			</g>
		</g>
	</g>
</g>
<g>
	<g>
		<g>
			<g>
				<path style="fill-rule:evenodd;clip-rule:evenodd;fill:#415C92;" d="M340.708,152.891
					C340.51,152.891,340.51,152.891,340.708,152.891"/>
			</g>
		</g>
	</g>
	<g>
		<g>
			<g>
				<g>
					<path style="fill:#415C92;" d="M340.708,154.065c1.515,0,1.517-2.351,0-2.351C339.196,151.715,339.194,154.065,340.708,154.065
						L340.708,154.065z"/>
				</g>
			</g>
		</g>
	</g>
</g>
<g>
	<g>
		<polygon style="fill:#B9CEEB;" points="581.507,293.573 556.767,293.573 566.282,262.319 571.992,262.319 		"/>
	</g>
	<g>
		<rect x="554.723" y="293.573" style="fill:#B9CEEB;" width="28.829" height="3.57"/>
	</g>
	<g>
		<polygon style="fill:#415C92;" points="559.146,285.759 556.767,293.573 581.507,293.573 579.129,285.759 		"/>
	</g>
	<g>
		<polygon style="fill:#415C92;" points="561.525,277.945 576.75,277.945 574.37,270.133 563.903,270.133 		"/>
	</g>
</g>
<g id="XMLID_11_">
	<g id="XMLID_493_">
		<path style="fill:#B9CEEB;" d="M591.624,296.942h5.491v-21.258h28.18v21.258h5.49v-21.258h5.813v-16.974h-4.638v-1.566h-7.999
			v1.566h-24.965v-1.566h-7.999v1.566h-5.092v16.974h5.718V296.942z M634.826,260.485v0.071l-3.384,13.355h-6.039l3.401-13.427
			H634.826z M619.077,273.912h-6.039l3.402-13.427h6.038L619.077,273.912z M606.713,273.912h-6.04l3.401-13.427h6.04
			L606.713,273.912z M591.71,260.485h6.039l-3.402,13.427h-6.038L591.71,260.485z"/>
	</g>
</g>
<g>
	<g>
		<g>
			<path style="fill:#B9CEEB;" d="M283.298,89.146l1.644-1.647c0.336-0.331,0.336-0.872,0-1.207l-1.432-1.431
				c-0.33-0.333-0.418-0.939-0.192-1.351l1.167-2.834c0.132-0.454,0.628-0.823,1.096-0.823h2.028c0.471,0,0.853-0.383,0.853-0.849
				v-2.332c0-0.472-0.382-0.851-0.853-0.851h-2.028c-0.468,0-0.964-0.369-1.096-0.821l-1.167-2.833
				c-0.226-0.413-0.138-1.021,0.192-1.355l1.432-1.43c0.336-0.334,0.336-0.875,0-1.204l-1.644-1.651
				c-0.333-0.333-0.875-0.333-1.206,0l-1.434,1.433c-0.333,0.332-0.939,0.419-1.35,0.196l-2.837-1.169
				c-0.451-0.134-0.819-0.624-0.819-1.096v-2.028c0-0.468-0.381-0.855-0.852-0.855h-2.328c-0.473,0-0.854,0.387-0.854,0.855v2.028
				c0,0.472-0.368,0.962-0.819,1.096l-2.837,1.169c-0.41,0.223-1.02,0.136-1.35-0.196l-1.436-1.431
				c-0.331-0.334-0.872-0.334-1.202,0l-1.651,1.649c-0.333,0.329-0.333,0.869,0,1.204l1.433,1.43
				c0.332,0.335,0.42,0.942,0.195,1.355l-1.168,2.833c-0.132,0.452-0.627,0.821-1.095,0.821h-2.031
				c-0.467,0-0.852,0.379-0.852,0.851v2.332c0,0.466,0.384,0.849,0.852,0.849h2.031c0.468,0,0.963,0.369,1.095,0.823l1.168,2.834
				c0.225,0.413,0.137,1.017-0.195,1.351l-1.433,1.431c-0.333,0.334-0.333,0.875,0,1.207l1.651,1.647
				c0.33,0.335,0.871,0.335,1.202,0l1.436-1.432c0.33-0.331,0.939-0.418,1.353-0.192l2.834,1.167
				c0.451,0.13,0.819,0.624,0.819,1.094v2.032c0,0.466,0.382,0.851,0.854,0.851h2.328c0.47,0,0.852-0.385,0.852-0.851v-2.032
				c0-0.471,0.368-0.964,0.819-1.094l2.837-1.167c0.411-0.226,1.017-0.139,1.35,0.192l1.434,1.432
				C282.423,89.481,282.965,89.481,283.298,89.146z M273.635,84.641c-3.758,0-6.805-3.049-6.805-6.804
				c0-3.758,3.047-6.803,6.805-6.803c3.758,0,6.805,3.045,6.805,6.803C280.44,81.592,277.394,84.641,273.635,84.641z"/>
		</g>
	</g>
	<g>
		<g>
			<path style="fill:#B9CEEB;" d="M299.034,95.576l-0.416-1.381c-0.086-0.28-0.381-0.438-0.66-0.355l-1.2,0.366
				c-0.28,0.084-0.64-0.047-0.798-0.295l-1.208-1.464c-0.203-0.203-0.263-0.582-0.124-0.839l0.592-1.106
				c0.139-0.258,0.041-0.579-0.212-0.717l-1.272-0.681c-0.256-0.139-0.578-0.039-0.716,0.217l-0.595,1.106
				c-0.137,0.255-0.483,0.417-0.766,0.359l-1.893-0.191c-0.288,0.002-0.598-0.222-0.68-0.502l-0.366-1.201
				c-0.082-0.277-0.378-0.438-0.656-0.351l-1.383,0.413c-0.283,0.087-0.437,0.38-0.353,0.663l0.367,1.2
				c0.084,0.281-0.048,0.635-0.297,0.794l-1.466,1.21c-0.201,0.207-0.582,0.259-0.837,0.124l-1.109-0.594
				c-0.253-0.137-0.577-0.042-0.713,0.217l-0.684,1.269c-0.134,0.259-0.04,0.582,0.216,0.717l1.107,0.597
				c0.259,0.137,0.419,0.481,0.36,0.765l-0.188,1.889c0,0.292-0.224,0.603-0.505,0.682l-1.201,0.367
				c-0.281,0.083-0.439,0.381-0.354,0.659l0.418,1.379c0.083,0.282,0.38,0.438,0.661,0.353l1.203-0.363
				c0.276-0.082,0.632,0.05,0.791,0.292l1.209,1.468c0.206,0.204,0.261,0.583,0.125,0.838l-0.595,1.106
				c-0.135,0.256-0.039,0.577,0.218,0.718l1.27,0.678c0.257,0.137,0.578,0.041,0.717-0.214l0.595-1.109
				c0.134-0.259,0.483-0.417,0.766-0.36l1.888,0.192c0.296,0,0.602,0.223,0.684,0.505l0.363,1.199c0.084,0.28,0.383,0.44,0.66,0.353
				l1.381-0.417c0.277-0.084,0.437-0.381,0.357-0.658l-0.366-1.201c-0.087-0.277,0.043-0.64,0.288-0.796l1.469-1.207
				c0.203-0.208,0.583-0.264,0.839-0.128l1.106,0.594c0.258,0.142,0.583,0.042,0.717-0.214l0.68-1.272
				c0.14-0.253,0.039-0.578-0.217-0.716l-1.109-0.595c-0.257-0.141-0.418-0.481-0.357-0.763l0.192-1.896
				c-0.002-0.288,0.225-0.598,0.501-0.681l1.202-0.363C298.959,96.149,299.118,95.855,299.034,95.576z M293.747,99.533
				c-1.099,2.055-3.66,2.827-5.708,1.727c-2.053-1.101-2.826-3.657-1.727-5.705c1.099-2.059,3.66-2.83,5.71-1.729
				C294.071,94.928,294.845,97.482,293.747,99.533z"/>
		</g>
	</g>
</g>
<g>
	<path style="fill:#415C92;" d="M367.891,122.213h-38.119c-0.67,0-1.213-0.543-1.213-1.212c0-0.67,0.543-1.213,1.213-1.213h38.119
		c0.669,0,1.212,0.542,1.212,1.213C369.103,121.669,368.56,122.213,367.891,122.213z"/>
</g>
<g>
	<path style="fill:#415C92;" d="M290.287,139.529h-61.574c-0.669,0-1.212-0.543-1.212-1.213c0-0.669,0.543-1.212,1.212-1.212h61.574
		c0.669,0,1.212,0.543,1.212,1.212C291.499,138.985,290.956,139.529,290.287,139.529z"/>
</g>
<g>
	<path style="fill:#415C92;" d="M585.509,172.315h-61.572c-0.67,0-1.213-0.544-1.213-1.213s0.543-1.213,1.213-1.213h61.572
		c0.671,0,1.213,0.544,1.213,1.213S586.18,172.315,585.509,172.315z"/>
</g>
<g>
	<path style="fill:#D0EBE6;" d="M639.921,300H0.452c-0.919,0-1.665-0.745-1.665-1.665c0-0.921,0.746-1.665,1.665-1.665h639.469
		c0.921,0,1.665,0.744,1.665,1.665C641.586,299.255,640.842,300,639.921,300z"/>
</g>
<g>
	<g>
		<g>
			<path style="fill:#B9CEEB;" d="M438.835,106.982c-2.611,0-5.066,1.016-6.914,2.864c-3.149,3.149-3.775,8.03-1.522,11.867
				l0.161,0.271l-9.902,9.901c-0.013,0.014-0.48,0.467-0.487,1.126c-0.005,0.498,0.246,1.003,0.748,1.504
				c0.532,0.531,1.089,0.801,1.654,0.801c0.681,0,1.161-0.393,1.166-0.396l9.876-9.881l0.274,0.161
				c1.495,0.878,3.206,1.342,4.95,1.342c2.611,0,5.066-1.017,6.913-2.863c3.813-3.814,3.813-10.018,0-13.832
				C443.905,107.999,441.448,106.982,438.835,106.982z M438.835,123.638c-3.79,0-6.874-3.084-6.875-6.875
				c0.001-3.791,3.087-6.877,6.878-6.877l0,0c3.792,0,6.876,3.085,6.876,6.877C445.714,120.554,442.629,123.638,438.835,123.638z"/>
		</g>
	</g>
	<g>
		<g>
			<path style="fill:#B9CEEB;" d="M435.211,118.192h7.082v-1.812h-7.082V118.192z"/>
		</g>
	</g>
</g>
<g>
	<g>
		<path style="fill:#415C92;" d="M257.227,297.301c-0.669,0-1.212-0.541-1.212-1.213v-93.396c0-0.67,0.543-1.213,1.212-1.213
			c0.67,0,1.213,0.543,1.213,1.213v93.396C258.439,296.76,257.896,297.301,257.227,297.301z"/>
	</g>
	<g>
		<path style="fill:#415C92;" d="M278.932,297.301c-0.67,0-1.213-0.541-1.213-1.213v-93.396c0-0.67,0.542-1.213,1.213-1.213
			c0.669,0,1.212,0.543,1.212,1.213v93.396C280.144,296.76,279.601,297.301,278.932,297.301z"/>
	</g>
	<g>
		<path style="fill:#415C92;" d="M278.932,210.288h-21.705c-0.669,0-1.212-0.544-1.212-1.213s0.543-1.213,1.212-1.213h21.705
			c0.669,0,1.212,0.544,1.212,1.213S279.601,210.288,278.932,210.288z"/>
	</g>
	<g>
		<path style="fill:#415C92;" d="M278.932,220.958h-21.705c-0.669,0-1.212-0.542-1.212-1.213c0-0.669,0.543-1.213,1.212-1.213
			h21.705c0.669,0,1.212,0.544,1.212,1.213C280.144,220.416,279.601,220.958,278.932,220.958z"/>
	</g>
	<g>
		<path style="fill:#415C92;" d="M278.932,231.628h-21.705c-0.669,0-1.212-0.542-1.212-1.213c0-0.669,0.543-1.213,1.212-1.213
			h21.705c0.669,0,1.212,0.544,1.212,1.213C280.144,231.086,279.601,231.628,278.932,231.628z"/>
	</g>
	<g>
		<path style="fill:#415C92;" d="M278.932,242.298h-21.705c-0.669,0-1.212-0.542-1.212-1.213c0-0.669,0.543-1.213,1.212-1.213
			h21.705c0.669,0,1.212,0.544,1.212,1.213C280.144,241.756,279.601,242.298,278.932,242.298z"/>
	</g>
	<g>
		<path style="fill:#415C92;" d="M278.932,252.968h-21.705c-0.669,0-1.212-0.542-1.212-1.213c0-0.669,0.543-1.213,1.212-1.213
			h21.705c0.669,0,1.212,0.544,1.212,1.213C280.144,252.426,279.601,252.968,278.932,252.968z"/>
	</g>
	<g>
		<path style="fill:#415C92;" d="M278.932,263.638h-21.705c-0.669,0-1.212-0.541-1.212-1.213c0-0.669,0.543-1.213,1.212-1.213
			h21.705c0.669,0,1.212,0.544,1.212,1.213C280.144,263.097,279.601,263.638,278.932,263.638z"/>
	</g>
	<g>
		<path style="fill:#415C92;" d="M278.932,274.308h-21.705c-0.669,0-1.212-0.541-1.212-1.213c0-0.669,0.543-1.213,1.212-1.213
			h21.705c0.669,0,1.212,0.544,1.212,1.213C280.144,273.767,279.601,274.308,278.932,274.308z"/>
	</g>
	<g>
		<path style="fill:#415C92;" d="M278.932,284.978h-21.705c-0.669,0-1.212-0.544-1.212-1.213c0-0.672,0.543-1.213,1.212-1.213
			h21.705c0.669,0,1.212,0.541,1.212,1.213C280.144,284.434,279.601,284.978,278.932,284.978z"/>
	</g>
</g>
<g>
	<g>
		<path style="fill:#415C92;" d="M227.667,207.223c-0.669,0-1.212-0.543-1.212-1.212v-4.721c0-0.672,0.543-1.213,1.212-1.213
			c0.67,0,1.213,0.541,1.213,1.213v4.721C228.88,206.68,228.337,207.223,227.667,207.223z"/>
	</g>
	<g>
		<path style="fill:#415C92;" d="M230.028,204.861h-4.721c-0.669,0-1.212-0.541-1.212-1.213c0-0.669,0.543-1.212,1.212-1.212h4.721
			c0.67,0,1.213,0.543,1.213,1.212C231.241,204.32,230.698,204.861,230.028,204.861z"/>
	</g>
</g>
<g>
	<g>
		<path style="fill:#415C92;" d="M336.726,38.333c-0.671,0-1.213-0.543-1.213-1.213v-4.722c0-0.669,0.542-1.212,1.213-1.212
			c0.669,0,1.213,0.543,1.213,1.212v4.722C337.938,37.79,337.395,38.333,336.726,38.333z"/>
	</g>
	<g>
		<path style="fill:#415C92;" d="M339.086,35.972h-4.721c-0.671,0-1.213-0.543-1.213-1.213c0-0.669,0.542-1.212,1.213-1.212h4.721
			c0.67,0,1.213,0.543,1.213,1.212C340.299,35.429,339.756,35.972,339.086,35.972z"/>
	</g>
</g>
<g>
	<g>
		<path style="fill:#415C92;" d="M374.954,282.794c-0.109,0-0.222-0.016-0.334-0.046l-4.54-1.295
			c-0.644-0.185-1.016-0.856-0.832-1.5c0.184-0.645,0.856-1.01,1.498-0.834l4.54,1.295c0.645,0.186,1.018,0.856,0.833,1.501
			C375.968,282.447,375.481,282.794,374.954,282.794z"/>
	</g>
	<g>
		<path style="fill:#415C92;" d="M372.035,284.415c-0.109,0-0.222-0.014-0.333-0.045c-0.645-0.186-1.017-0.854-0.834-1.498
			l1.297-4.541c0.186-0.644,0.856-1.012,1.499-0.833c0.645,0.185,1.019,0.854,0.833,1.498l-1.297,4.54
			C373.049,284.07,372.563,284.415,372.035,284.415z"/>
	</g>
</g>
<g>
	<g>
		<path style="fill:#415C92;" d="M351.101,140.177c-0.109,0-0.222-0.015-0.332-0.047l-4.54-1.296
			c-0.645-0.185-1.019-0.856-0.834-1.5c0.186-0.645,0.854-1.017,1.498-0.833l4.54,1.297c0.645,0.184,1.018,0.855,0.834,1.5
			C352.113,139.83,351.628,140.177,351.101,140.177z"/>
	</g>
	<g>
		<path style="fill:#415C92;" d="M348.184,141.799c-0.11,0-0.222-0.016-0.334-0.048c-0.644-0.183-1.018-0.854-0.833-1.498
			l1.297-4.541c0.183-0.644,0.852-1.016,1.498-0.833c0.645,0.184,1.017,0.855,0.834,1.5l-1.298,4.539
			C349.196,141.452,348.711,141.799,348.184,141.799z"/>
	</g>
</g>
<g>
	<g>
		<g>
			<circle style="fill:#B9CEEB;" cx="575.013" cy="90.534" r="16.846"/>
		</g>
	</g>
	<g>
		<g>
			<g>
				<circle style="fill:#FFFFFF;" cx="575.013" cy="90.534" r="12.62"/>
			</g>
		</g>
		<g>
			<g>
				<g>
					<path style="fill:#415C92;" d="M575.014,103.643c-7.229,0-13.109-5.881-13.109-13.109c0-7.227,5.881-13.107,13.109-13.107
						c7.228,0,13.107,5.88,13.107,13.107C588.121,97.762,582.241,103.643,575.014,103.643z M575.014,78.402
						c-6.689,0-12.132,5.442-12.132,12.132c0,6.69,5.442,12.131,12.132,12.131c6.688,0,12.131-5.441,12.131-12.131
						C587.145,83.844,581.702,78.402,575.014,78.402z"/>
				</g>
			</g>
		</g>
	</g>
	<g>
		<g>
			<g>
				<path style="fill:#415C92;" d="M575.014,91.022c-0.27,0-0.489-0.218-0.489-0.489v-6.424c0-0.27,0.22-0.489,0.489-0.489
					s0.488,0.219,0.488,0.489v6.424C575.502,90.804,575.283,91.022,575.014,91.022z"/>
			</g>
		</g>
		<g>
			<g>
				<path style="fill:#415C92;" d="M582.541,91.022h-7.527c-0.27,0-0.489-0.218-0.489-0.489c0-0.27,0.22-0.488,0.489-0.488h7.527
					c0.27,0,0.488,0.218,0.488,0.488C583.029,90.804,582.811,91.022,582.541,91.022z"/>
			</g>
		</g>
	</g>
	<g>
		<g>
			<g>
				<circle style="fill:#415C92;" cx="575.013" cy="79.339" r="0.498"/>
			</g>
		</g>
		<g>
			<g>
				<circle style="fill:#415C92;" cx="582.929" cy="82.618" r="0.498"/>
			</g>
		</g>
		<g>
			<g>
				<circle style="fill:#415C92;" cx="586.209" cy="90.534" r="0.499"/>
			</g>
		</g>
		<g>
			<g>
				<circle style="fill:#415C92;" cx="582.929" cy="98.45" r="0.498"/>
			</g>
		</g>
		<g>
			<g>
				<circle style="fill:#415C92;" cx="575.013" cy="101.729" r="0.498"/>
			</g>
		</g>
		<g>
			<g>
				<circle style="fill:#415C92;" cx="567.097" cy="98.45" r="0.498"/>
			</g>
		</g>
		<g>
			<g>
				<circle style="fill:#415C92;" cx="563.818" cy="90.534" r="0.499"/>
			</g>
		</g>
		<g>
			<g>
				<circle style="fill:#415C92;" cx="567.097" cy="82.618" r="0.498"/>
			</g>
		</g>
	</g>
	<g>
		<g>
			<g>
				<path style="fill:#415C92;" d="M599.655,84.101h-7.072c-0.27,0-0.489-0.218-0.489-0.487c0-0.271,0.22-0.489,0.489-0.489h7.072
					c0.271,0,0.489,0.218,0.489,0.489C600.145,83.883,599.926,84.101,599.655,84.101z"/>
			</g>
		</g>
		<g>
			<g>
				<path style="fill:#415C92;" d="M599.655,97.944h-7.072c-0.27,0-0.489-0.219-0.489-0.489s0.22-0.489,0.489-0.489h7.072
					c0.271,0,0.489,0.219,0.489,0.489S599.926,97.944,599.655,97.944z"/>
			</g>
		</g>
		<g>
			<g>
				<path style="fill:#415C92;" d="M608.449,91.024h-13.213c-0.27,0-0.487-0.218-0.487-0.489c0-0.27,0.218-0.487,0.487-0.487h13.213
					c0.27,0,0.487,0.218,0.487,0.487C608.937,90.807,608.719,91.024,608.449,91.024z"/>
			</g>
		</g>
	</g>
</g>
<g>
	<g>
		<rect x="396.597" y="277.945" style="fill:#FFFFFF;" width="7.813" height="7.813"/>
		<path style="fill:#415C92;" d="M405.017,286.366h-9.026v-9.026h9.026V286.366z M397.203,285.153h6.601v-6.601h-6.601V285.153z"/>
	</g>
	<g>
		<g>
			<g>
				<path style="fill:#415C92;" d="M414.299,279.663h-7.073c-0.27,0-0.488-0.217-0.488-0.486c0-0.272,0.219-0.489,0.488-0.489h7.073
					c0.27,0,0.488,0.217,0.488,0.489C414.787,279.446,414.568,279.663,414.299,279.663z"/>
			</g>
		</g>
		<g>
			<g>
				<path style="fill:#415C92;" d="M416.956,285.019h-9.559c-0.365,0-0.66-0.22-0.66-0.489s0.295-0.488,0.66-0.488h9.559
					c0.364,0,0.66,0.219,0.66,0.488S417.32,285.019,416.956,285.019z"/>
			</g>
		</g>
		<g>
			<g>
				<path style="fill:#415C92;" d="M420.438,282.191h-13.213c-0.27,0-0.488-0.22-0.488-0.489s0.219-0.488,0.488-0.488h13.213
					c0.27,0,0.487,0.219,0.487,0.488S420.708,282.191,420.438,282.191z"/>
			</g>
		</g>
	</g>
</g>
<g>
	<g>
		<g>
			<path style="fill:#B7E2E7;" d="M183.799,96.371c-0.003,0.047-0.004,0.064-0.045,0.121c-0.031,0.052-0.074,0.114-0.119,0.168
				c-0.023,0.028-0.045,0.051-0.073,0.08c-0.029,0.031-0.059,0.059-0.09,0.084c-0.031,0.025-0.063,0.047-0.094,0.065
				c-0.029,0.016-0.076,0.047-0.112,0.06c-0.077,0.032-0.149,0.036-0.212,0.02c-0.061-0.023-0.12-0.057-0.174-0.101
				c-0.054-0.043-0.1-0.107-0.164-0.156c-0.061-0.054-0.13-0.072-0.201-0.135c-0.036-0.03-0.069-0.04-0.107-0.081
				c-0.036-0.033-0.073-0.068-0.112-0.105c-0.011-0.012-0.054-0.072-0.058-0.099c0.008-0.168,0.004-0.368-0.006-0.569
				c-0.009-0.201-0.026-0.411-0.043-0.621c-0.034-0.421-0.079-0.849-0.112-1.302l-0.017-0.292l-0.006-0.294l-0.007-0.533
				l-0.022-1.065c-0.021-0.707-0.055-1.408-0.119-2.1c-0.068-0.691-0.155-1.375-0.298-2.049c-0.131-0.678-0.305-1.34-0.529-1.974
				c-0.075-0.213-0.149-0.427-0.242-0.63l-0.132-0.31c-0.043-0.104-0.099-0.199-0.148-0.299c0,0-0.053-0.127-0.141-0.341
				c-0.051-0.103-0.112-0.227-0.181-0.366c-0.035-0.07-0.071-0.145-0.109-0.223c-0.041-0.075-0.089-0.15-0.135-0.231
				c-0.176-0.324-0.43-0.677-0.681-1.016c-0.25-0.335-0.557-0.641-0.857-0.935c-0.257-0.24-0.474-0.451-0.639-0.632
				c-0.162-0.188-0.281-0.333-0.349-0.46c-0.142-0.246-0.127-0.349-0.022-0.35c0.054-0.001,0.131,0.021,0.226,0.063
				c0.047,0.021,0.1,0.046,0.155,0.076c0.059,0.027,0.123,0.059,0.189,0.093c0.264,0.142,0.612,0.319,0.999,0.548
				c-0.032-0.033,0.176,0.086,0.514,0.32c0.166,0.123,0.372,0.268,0.57,0.456c0.051,0.046,0.103,0.093,0.155,0.14
				c0.048,0.048,0.097,0.098,0.146,0.147c0.098,0.1,0.199,0.203,0.299,0.304c0.104,0.1,0.19,0.217,0.283,0.327
				c0.091,0.111,0.181,0.221,0.268,0.327c0.162,0.221,0.303,0.434,0.429,0.616c0.119,0.186,0.206,0.346,0.272,0.457
				c0.064,0.112,0.102,0.175,0.102,0.175c0.186,0.402,0.361,0.81,0.501,1.225c0.253,0.72,0.445,1.452,0.587,2.183
				c0.155,0.731,0.25,1.475,0.324,2.211c0.069,0.738,0.104,1.472,0.126,2.201l0.023,1.088l0.008,0.543l0.005,0.244l0.014,0.246
				c0.029,0.409,0.075,0.841,0.111,1.28c0.018,0.221,0.036,0.442,0.046,0.673C183.804,95.875,183.812,96.107,183.799,96.371z"/>
		</g>
	</g>
	<g>
		<g>
			<path style="fill:#B7E2E7;" d="M157.962,81.427c0.02-0.028,0.026-0.039,0.083-0.056c0.171-0.066,0.432-0.128,0.691-0.068
				c0.252,0.063,0.508,0.253,0.553,0.838c0.001,0.02-0.004,0.108-0.021,0.144c-0.525,0.783-1.081,1.428-1.52,2.1l-0.133,0.203
				l-0.112,0.194c-0.036,0.067-0.079,0.123-0.11,0.2l-0.098,0.221l-0.099,0.22l-0.091,0.231c-0.059,0.154-0.125,0.306-0.174,0.463
				c-0.221,0.624-0.388,1.264-0.492,1.914c-0.034,0.162-0.046,0.325-0.069,0.488c-0.024,0.161-0.037,0.33-0.048,0.498
				c-0.023,0.331-0.055,0.687-0.066,1.022c-0.029,0.675-0.024,1.358,0.012,2.04c0.022,0.467,0.061,0.934,0.107,1.399
				c0,0,0.006,0.145,0.016,0.387c0.007,0.243,0.029,0.582,0.052,0.974c0.053,0.783,0.157,1.767,0.28,2.58
				c0.063,0.341,0.114,0.624,0.156,0.856c0.038,0.233,0.071,0.411,0.085,0.547c0.027,0.273-0.015,0.372-0.115,0.335
				c-0.097-0.037-0.253-0.21-0.433-0.481c-0.084-0.136-0.176-0.297-0.271-0.476c-0.087-0.181-0.177-0.378-0.268-0.588
				c0.004,0.048-0.083-0.182-0.217-0.558c-0.063-0.189-0.131-0.415-0.207-0.659c-0.066-0.246-0.144-0.51-0.209-0.778
				c-0.132-0.535-0.249-1.081-0.322-1.495c-0.078-0.412-0.117-0.691-0.117-0.691c-0.042-0.424-0.072-0.848-0.094-1.274
				c-0.038-0.724-0.044-1.451-0.013-2.183c0.013-0.368,0.043-0.715,0.07-1.086c0.013-0.183,0.026-0.366,0.053-0.553
				c0.026-0.186,0.042-0.374,0.079-0.558c0.119-0.74,0.308-1.468,0.557-2.173c0.056-0.178,0.129-0.351,0.196-0.524l0.104-0.261
				l0.117-0.262c0.078-0.175,0.15-0.348,0.26-0.525l0.152-0.264l0.156-0.239C156.953,82.752,157.527,82.082,157.962,81.427z"/>
		</g>
	</g>
	<g>
		<g>
			<path style="fill:#B7E2E7;" d="M157.841,99.093c-0.026,0.043-0.033,0.058-0.101,0.094c-0.111,0.07-0.253,0.136-0.409,0.163
				c-0.151,0.027-0.313,0.003-0.413-0.079c-0.049-0.043-0.092-0.095-0.128-0.156c-0.035-0.06-0.059-0.133-0.089-0.207
				c-0.057-0.146-0.132-0.299-0.203-0.496c-0.005-0.012-0.019-0.079-0.011-0.104c0.078-0.132,0.157-0.309,0.237-0.498
				c0.081-0.191,0.163-0.396,0.27-0.625c0.028-0.058,0.058-0.118,0.092-0.181l0.057-0.101c0.02-0.036,0.034-0.051,0.051-0.078
				l0.197-0.288c0.133-0.189,0.258-0.39,0.399-0.568l0.528-0.663l0.547-0.626c0.366-0.408,0.72-0.784,1.105-1.205l0.283-0.308
				l0.303-0.294c0.204-0.192,0.401-0.396,0.612-0.574l0.314-0.275c0.062-0.053,0.315-0.282,0.51-0.428l1.222-0.958l0.077-0.061
				l0.038-0.03l0.02-0.015c0.004,0.002,0.006,0.014,0.009,0.02l0.069,0.183l0.138,0.365l0.27,0.718
				c0.047,0.116,0.083,0.246,0.122,0.373l0.115,0.381l0.074,0.254l0.054,0.19l0.109,0.362c0.038,0.119,0.081,0.225,0.12,0.339
				c0.018,0.058,0.044,0.105,0.067,0.158l0.063,0.142l0.005,0.012c0.001,0.001-0.002,0,0.005,0.001l0.092,0.003
				c0.072,0.002,0.145,0.003,0.214,0.011c0.28,0.024,0.566,0.042,0.837,0.076l1.6,0.186c0.232,0.024,0.458,0.039,0.688,0.058
				c0.225,0.008,0.449,0.017,0.672,0.02c0,0,0.136,0.006,0.364,0.015c0.225,0.024,0.563-0.008,0.947-0.014
				c0.192-0.008,0.399-0.005,0.612-0.021c0.214-0.021,0.434-0.042,0.655-0.064c0.222-0.024,0.448-0.03,0.666-0.066
				c0.219-0.031,0.435-0.06,0.64-0.085c0.174-0.024,0.333-0.046,0.479-0.067c0.145-0.024,0.275-0.043,0.394-0.059
				c0.236-0.031,0.421-0.046,0.559-0.047c0.277-0.001,0.368,0.052,0.322,0.147c-0.047,0.094-0.233,0.228-0.51,0.383
				c-0.277,0.156-0.643,0.335-1.066,0.491c0.047-0.004-0.182,0.082-0.555,0.212c-0.184,0.072-0.416,0.125-0.662,0.196
				c-0.249,0.067-0.515,0.139-0.784,0.212c-0.275,0.05-0.552,0.102-0.813,0.15c-0.131,0.023-0.258,0.046-0.378,0.068
				c-0.061,0.011-0.119,0.021-0.176,0.032c-0.059,0.005-0.116,0.011-0.171,0.016c-0.22,0.021-0.405,0.038-0.534,0.049
				c-0.128,0.005-0.201,0.007-0.201,0.007c-0.445-0.007-0.879-0.041-1.305-0.082l-1.608-0.187c-0.264-0.033-0.515-0.046-0.771-0.069
				c-0.064-0.007-0.126-0.008-0.189-0.01l-0.313-0.01l-0.399-0.015l-0.2-0.01c-0.015-0.003-0.037,0.005-0.046-0.007l-0.025-0.044
				l-0.05-0.087l-0.197-0.35l-0.099-0.175c-0.032-0.058-0.07-0.12-0.089-0.168l-0.102-0.227c-0.03-0.071-0.066-0.143-0.09-0.213
				c-0.05-0.141-0.106-0.285-0.149-0.423l-0.125-0.411l-0.095-0.333l-0.394,0.345c-0.201,0.168-0.376,0.354-0.564,0.53l-0.277,0.268
				l-0.263,0.287c-0.341,0.374-0.725,0.782-1.077,1.175l-0.515,0.59l-0.478,0.6c-0.126,0.161-0.229,0.329-0.345,0.493l-0.17,0.247
				c-0.012,0.019-0.033,0.045-0.038,0.057l-0.022,0.04l-0.054,0.108c-0.076,0.161-0.156,0.358-0.243,0.565
				C158.075,98.63,157.98,98.851,157.841,99.093z"/>
		</g>
	</g>
	<g>
		<g>
			<path style="fill:#B7E2E7;" d="M178.206,79.506c-0.004,0.039-0.006,0.053-0.048,0.099c-0.253,0.33-0.862,0.755-1.457-0.122
				c-0.011-0.017-0.049-0.091-0.052-0.127c0.087-0.849,0.142-1.698,0.19-2.547c0.18-3.559-0.061-7.132-0.928-10.559
				c-0.43-1.713-1.013-3.386-1.735-5c-0.09-0.202-0.175-0.406-0.271-0.605l-0.295-0.594l-0.295-0.595
				c-0.103-0.196-0.213-0.389-0.319-0.583c-0.215-0.386-0.419-0.784-0.661-1.142l-0.349-0.55l-0.174-0.275l-0.195-0.262
				l-0.391-0.524c-0.133-0.173-0.252-0.355-0.401-0.517c-0.286-0.332-0.568-0.668-0.856-0.996l-0.899-0.936
				c-0.066-0.073-0.171-0.169-0.261-0.257c-0.097-0.089-0.174-0.182-0.259-0.272c-0.172-0.184-0.315-0.366-0.471-0.549
				c-0.295-0.369-0.58-0.738-0.852-1.128c-0.069-0.094-0.136-0.2-0.204-0.3c-0.068-0.098-0.134-0.207-0.199-0.318
				c-0.058-0.09-0.156-0.271-0.208-0.405c-0.029-0.07-0.049-0.13-0.073-0.195l-0.059-0.175l-0.11-0.334l-0.001-0.002
				c-0.001-0.001-0.004-0.001-0.004,0.001c-0.005,0.058,0.012-0.22-0.017,0.51c-0.012,0.14-0.021,0.285-0.081,0.501l-0.031,0.093
				l-0.02,0.052l-0.031,0.079l-0.063,0.158c-0.018,0.049-0.046,0.111-0.076,0.174l-0.087,0.185c-0.059,0.13-0.118,0.227-0.177,0.34
				c-0.482,0.867-1.051,1.604-1.584,2.332c-0.268,0.362-0.53,0.719-0.769,1.077c-0.243,0.362-0.451,0.707-0.644,1.09
				c-0.405,0.803-0.829,1.601-1.199,2.412c-0.445,0.904-0.825,1.829-1.22,2.749l-0.52,1.393l-0.13,0.348l-0.103,0.355l-0.205,0.71
				c-0.526,1.91-0.868,3.879-1.022,5.86c-0.038,0.495-0.054,0.993-0.082,1.489c-0.01,0.497-0.008,0.994-0.013,1.492l0.052,1.427
				c0.039,0.348,0.06,0.691,0.113,1.041c0,0,0.01,0.144,0.026,0.384c0.011,0.241,0.05,0.581,0.083,0.973
				c0.079,0.786,0.202,1.789,0.271,2.63c0.074,0.711,0.086,1.181,0.058,1.457c-0.027,0.276-0.092,0.358-0.181,0.3
				c-0.179-0.117-0.449-0.79-0.732-1.622c0.005,0.091-0.305-0.907-0.594-1.959c-0.072-0.263-0.144-0.527-0.203-0.781
				c-0.059-0.253-0.123-0.488-0.162-0.695c-0.084-0.414-0.141-0.692-0.141-0.692l-0.056-0.546c-0.016-0.182-0.042-0.366-0.043-0.543
				l-0.022-0.586l-0.027-0.748l0.005-0.745l0.005-0.745l0.037-0.744l0.038-0.745l0.07-0.742c0.188-1.98,0.552-3.938,1.1-5.859
				l0.208-0.721c0.07-0.241,0.169-0.469,0.252-0.704c0.176-0.465,0.343-0.937,0.528-1.397l0.583-1.361l0.146-0.34l0.158-0.333
				l0.315-0.667c0.383-0.837,0.81-1.639,1.22-2.454c0.214-0.427,0.475-0.859,0.738-1.249c0.264-0.395,0.539-0.768,0.809-1.134
				c0.539-0.731,1.074-1.438,1.472-2.157c0.045-0.087,0.104-0.185,0.137-0.262l0.058-0.122c0.02-0.039,0.04-0.079,0.061-0.136
				l0.063-0.158l0.031-0.079l0.008-0.02c-0.053-0.024,0.514,0.185,0.253,0.087l-0.04-0.017c-0.054-0.021-0.108-0.037-0.164-0.051
				l-0.051-0.016v-0.001v-0.002c0,0,0.002-0.003,0.002-0.01c0.002-0.01,0.004-0.02,0.006-0.038c0.004-0.03,0.008-0.071,0.011-0.116
				c0.006-0.088,0.009-0.191,0.011-0.299l0.003-0.213c0.003-0.113,0.004-0.226,0.01-0.338c0.01-0.224,0.03-0.445,0.072-0.644
				c0.044-0.198,0.109-0.37,0.193-0.511c0.085-0.141,0.183-0.256,0.311-0.348c0.125-0.094,0.291-0.168,0.463-0.197
				c0.085-0.016,0.169-0.017,0.253-0.015c0.086,0.011,0.174,0.021,0.259,0.041c0.167,0.045,0.332,0.091,0.48,0.182
				c0.301,0.168,0.564,0.465,0.76,0.858c0.055,0.091,0.089,0.203,0.135,0.304c0.022,0.051,0.042,0.104,0.062,0.156l0.05,0.144
				l0.108,0.331l0.049,0.146c0.016,0.041,0.032,0.088,0.046,0.123c0.032,0.077,0.042,0.094,0.104,0.197
				c0.05,0.084,0.1,0.169,0.162,0.257c0.06,0.087,0.113,0.174,0.178,0.262c0.246,0.353,0.515,0.701,0.785,1.039
				c0.138,0.162,0.275,0.337,0.414,0.482c0.069,0.075,0.137,0.157,0.208,0.22c0.072,0.069,0.134,0.126,0.222,0.219l0.985,1.023
				c0.31,0.352,0.61,0.709,0.916,1.064c0.157,0.173,0.289,0.37,0.432,0.556l0.421,0.565l0.209,0.283l0.189,0.299l0.379,0.597
				c0.264,0.396,0.475,0.804,0.7,1.209c0.111,0.203,0.225,0.404,0.333,0.609l0.309,0.623l0.309,0.623
				c0.1,0.209,0.189,0.423,0.284,0.635c0.757,1.693,1.371,3.454,1.824,5.255c0.912,3.605,1.159,7.344,0.974,11.016
				C178.351,77.76,178.294,78.636,178.206,79.506z"/>
		</g>
	</g>
	<g>
		<g>
			<path style="fill:#B7E2E7;" d="M183.615,96.197c0.022,0.035,0.03,0.047,0.027,0.111c0.002,0.054,0,0.112-0.006,0.172
				c-0.002,0.014-0.004,0.03-0.006,0.045v0.001v0l0.044,0.552l-0.001,0.002l-0.006,0.008l-0.012,0.016l-0.025,0.032
				c-0.017,0.021-0.034,0.04-0.052,0.059l-0.027,0.027l-0.036,0.033c-0.042,0.04-0.089,0.074-0.139,0.101
				c-0.025,0.014-0.05,0.026-0.075,0.035c-0.024,0.01-0.048,0.018-0.086,0.026c-0.068,0.014-0.143,0.016-0.21,0.006
				c-0.03-0.005-0.073-0.014-0.087-0.021c-0.017-0.007-0.034-0.016-0.05-0.024c-0.032-0.018-0.063-0.038-0.089-0.06
				c-0.034-0.026-0.032-0.035-0.043-0.051c-0.009-0.014-0.017-0.028-0.024-0.042c-0.019-0.031-0.016-0.049-0.018-0.069
				c0-0.019-0.002-0.04,0.002-0.056c0.016-0.065,0.053-0.111,0.087-0.166c0.029-0.059,0.067-0.114,0.117-0.164
				c0.05-0.049,0.106-0.098,0.195-0.118l0.061-0.02c0.022-0.005,0.042-0.013,0.058-0.024l0.025-0.017
				c0.013-0.015-0.031,0.036-0.024,0.028l-0.011,0.01l-0.023,0.022c-0.015,0.016-0.029,0.032-0.042,0.05
				c-0.014,0.017-0.027,0.036-0.04,0.056l-0.018,0.029l-0.01,0.011c-0.012,0.015-0.021,0.038-0.023,0.058
				c-0.002,0-0.004,0.006-0.002,0.011c-0.004-0.017-0.015-0.03-0.029-0.037c-0.017-0.011-0.057-0.047-0.09-0.062
				c-0.018-0.009-0.036-0.016-0.055-0.021l-0.015-0.004l-0.007-0.002h-0.002c-0.478,0.821-0.133,0.227-0.24,0.411l-0.001,0
				l-0.011-0.002c-0.056-0.011-0.116-0.025-0.177-0.042c-0.019-0.005-0.092-0.037-0.116-0.061c-0.433-0.673-0.95-1.291-1.535-1.853
				l-0.137-0.136c-0.329-0.312-0.685-0.602-1.046-0.888c0,0-0.108-0.094-0.29-0.252c-0.179-0.161-0.442-0.378-0.745-0.632
				c-0.608-0.504-1.407-1.133-2.039-1.7c-0.546-0.464-0.875-0.805-1.041-1.028c-0.167-0.222-0.173-0.327-0.068-0.343
				c0.105-0.017,0.322,0.052,0.605,0.179c0.287,0.124,0.642,0.303,1.03,0.505c-0.068-0.061,0.841,0.444,1.782,0.984
				c0.47,0.273,0.944,0.561,1.297,0.792c0.176,0.117,0.324,0.214,0.427,0.283c0.102,0.072,0.16,0.113,0.16,0.113
				c0.339,0.267,0.671,0.549,0.99,0.848l0.157,0.15C182.511,94.702,183.113,95.417,183.615,96.197z"/>
		</g>
	</g>
	<g>
		<g>
			<path style="fill:#B7E2E7;" d="M174.633,90.573c0.001-0.006,0.001-0.008,0.04-0.012c0.227-0.024,0.805-0.072,1.454,0.158
				c0.012,0.004,0.054,0.023,0.06,0.032c-0.001,0.005-0.008,0.054-0.02,0.138c-0.013,0.082-0.023,0.205-0.051,0.336
				c-0.028,0.134-0.056,0.291-0.093,0.454c-0.041,0.161-0.081,0.333-0.126,0.501c-0.092,0.335-0.193,0.662-0.271,0.903
				c-0.08,0.24-0.133,0.399-0.133,0.399s-0.292,0.361-0.616,0.565c-0.482,0.37-0.742,0.064-0.813-0.294
				c-0.021,0.01-0.028-0.192-0.032-0.395c-0.002-0.203-0.004-0.406-0.004-0.406s0.049-0.149,0.123-0.374
				c0.035-0.112,0.075-0.243,0.119-0.382c0.04-0.14,0.082-0.289,0.124-0.438c0.037-0.148,0.073-0.296,0.107-0.435
				c0.028-0.137,0.054-0.266,0.076-0.377C174.616,90.727,174.629,90.582,174.633,90.573z"/>
		</g>
	</g>
	<g>
		<g>
			<path style="fill:#B7E2E7;" d="M167.868,62.42c-0.025-0.001-0.032-0.006-0.066-0.041c-0.113-0.112-0.303-0.285-0.412-0.526
				c-0.052-0.119-0.078-0.26-0.035-0.418c0.046-0.156,0.157-0.347,0.423-0.518c0.019-0.015,0.114-0.058,0.164-0.06
				c0.582,0.022,1.188,0.243,1.643,0.619c0.464,0.368,0.782,0.854,0.987,1.358c0.235,0.596,0.321,1.231,0.255,1.866
				c-0.068,0.632-0.306,1.277-0.745,1.802c-0.108,0.132-0.232,0.251-0.359,0.364l-0.198,0.155l-0.188,0.125
				c-0.125,0.083-0.249,0.166-0.395,0.233l-0.21,0.105c-0.07,0.035-0.151,0.059-0.226,0.088l-0.229,0.082l-0.245,0.055
				c-0.161,0.043-0.334,0.051-0.505,0.064c-0.085,0.009-0.173,0-0.259-0.004c-0.086-0.007-0.173-0.008-0.259-0.022
				c-0.169-0.035-0.344-0.06-0.504-0.125c-0.317-0.097-0.594-0.267-0.853-0.446c-0.246-0.194-0.474-0.406-0.656-0.646
				c0,0-0.115-0.149-0.259-0.42c-0.14-0.272-0.308-0.666-0.391-1.143c-0.085-0.475-0.088-1.038,0.079-1.582
				c0.096-0.269,0.212-0.534,0.394-0.755c0.167-0.229,0.388-0.401,0.6-0.535c0.372-0.22,0.708-0.279,0.967-0.304
				c0.262-0.01,0.456,0.002,0.595,0.044c0.277,0.07,0.338,0.153,0.265,0.228c-0.037,0.039-0.106,0.079-0.201,0.118
				c-0.047,0.019-0.101,0.038-0.159,0.057c-0.057,0.024-0.119,0.05-0.185,0.077c-0.261,0.103-0.575,0.255-0.792,0.498
				c0.036-0.011-0.106,0.104-0.229,0.344c-0.015,0.03-0.03,0.062-0.046,0.095c-0.014,0.035-0.023,0.073-0.037,0.111
				c-0.03,0.072-0.039,0.162-0.059,0.25c-0.019,0.183-0.031,0.384,0.008,0.593c0.058,0.417,0.252,0.821,0.43,1.081
				c0.092,0.129,0.173,0.23,0.237,0.292c0.059,0.068,0.098,0.099,0.098,0.099c0.205,0.223,0.443,0.386,0.691,0.469
				c0.301,0.11,0.626,0.086,0.968-0.038c0.042-0.017,0.086-0.026,0.128-0.048l0.127-0.066c0.043-0.023,0.086-0.038,0.129-0.067
				l0.128-0.086l0.129-0.084l0.101-0.079c0.062-0.056,0.122-0.111,0.173-0.176c0.211-0.253,0.35-0.595,0.39-0.969
				c0.039-0.373-0.015-0.769-0.153-1.116c-0.12-0.293-0.296-0.551-0.513-0.72C168.396,62.522,168.148,62.434,167.868,62.42z"/>
		</g>
	</g>
	<g>
		<g>
			<path style="fill:#B7E2E7;" d="M174.181,98.318c-0.021-0.016-0.027-0.022-0.037-0.069c-0.038-0.156-0.103-0.394-0.078-0.659
				c0.014-0.129,0.061-0.265,0.177-0.38c0.116-0.111,0.318-0.219,0.635-0.225c0.023-0.001,0.129,0.008,0.17,0.032
				c0.475,0.323,0.839,0.741,1.106,1.175c0.271,0.435,0.466,0.888,0.619,1.342c0.314,0.953,0.452,1.917,0.486,2.882
				c0.008,0.241,0.009,0.482,0.002,0.724c0,0.096-0.009,0.217-0.017,0.325l-0.023,0.334l-0.012,0.167l-0.021,0.16l-0.042,0.318
				l-0.021,0.159l-0.028,0.147l-0.058,0.295c-0.018,0.102-0.042,0.189-0.064,0.278l-0.069,0.268
				c-0.047,0.174-0.104,0.32-0.155,0.481c-0.056,0.146-0.113,0.282-0.17,0.422l-0.64,1.502l-0.186,0.435l-0.215,0.504l-0.093,0.217
				c-0.001,0.002-0.004,0.016-0.005,0.007l-0.004-0.031l-0.007-0.063l-0.015-0.124l-0.029-0.25l-0.119-0.999l-0.06-0.499
				l-0.015-0.125l-0.007-0.063l-0.007-0.042l-0.025-0.156l-0.103-0.624l-0.103-0.623l-0.051-0.312l-0.026-0.156
				c-0.012-0.056-0.005-0.091-0.046-0.178l-0.188-0.455l-0.093-0.228c-0.001-0.004,0,0,0,0l0.008,0.013c0,0.001,0,0,0,0
				l-0.002-0.002l0,0.002l-0.03,0.238c-0.106,0.766-0.233,1.529-0.392,2.287c-0.285,1.346-0.651,2.679-1.139,3.979
				c-0.241,0.651-0.523,1.29-0.828,1.92l-0.425,0.777c-0.074,0.133-0.14,0.258-0.221,0.398l-0.25,0.427l-0.25,0.427l-0.125,0.213
				c-0.01,0.016-0.021,0.041-0.031,0.048l-0.037-0.049l-0.074-0.099l-0.589-0.785c-0.103-0.135-0.183-0.251-0.274-0.375l-0.265-0.37
				l-0.265-0.369l-0.151-0.221c-0.195-0.283-0.383-0.569-0.568-0.858c-0.37-0.577-0.726-1.166-1.058-1.77
				c-0.339-0.599-0.643-1.221-0.938-1.848c-0.279-0.636-0.553-1.276-0.77-1.944c-0.058-0.165-0.115-0.331-0.162-0.501l-0.037-0.127
				l-0.019-0.063l0,0v0l-0.001-0.005c0-0.004,0-0.009-0.002-0.003l-0.002,0.005l-0.308,0.551l-0.549,0.978l-0.493,0.811
				l-0.493,0.811c-0.005,0.007-0.011,0.02-0.015,0.022l-0.008-0.029l-0.016-0.058l-0.031-0.115l-0.063-0.231l-0.124-0.462
				l-0.244-0.914l-0.12-0.451c-0.039-0.152-0.083-0.296-0.113-0.461l-0.198-0.966c-0.016-0.077-0.037-0.174-0.04-0.212l-0.018-0.132
				l-0.036-0.265c-0.088-0.707-0.125-1.434-0.059-2.175c0.067-0.739,0.243-1.497,0.587-2.204c0.077-0.18,0.189-0.345,0.287-0.516
				c0.104-0.167,0.227-0.324,0.345-0.481c0.256-0.301,0.534-0.585,0.844-0.82c0.083-0.063,0.165-0.128,0.25-0.189l0.26-0.167
				c0.171-0.118,0.356-0.202,0.535-0.3c0.181-0.092,0.367-0.166,0.551-0.249l0.42-0.152c0.162-0.06,0.327-0.099,0.49-0.149
				c0.164-0.052,0.328-0.083,0.492-0.123s0.328-0.07,0.493-0.099c0,0,0.634-0.086,1.473-0.075c0.839,0.003,1.877,0.101,2.714,0.265
				c0.712,0.119,1.165,0.244,1.421,0.352c0.257,0.105,0.317,0.191,0.236,0.259c-0.162,0.139-0.888,0.197-1.752,0.25
				c0.09,0.025-0.948,0.03-1.978,0.151c-0.258,0.03-0.515,0.06-0.754,0.101c-0.241,0.034-0.461,0.08-0.65,0.118
				c-0.19,0.034-0.343,0.077-0.452,0.103c-0.108,0.027-0.17,0.042-0.17,0.042c-0.128,0.023-0.251,0.057-0.376,0.085
				c-0.126,0.025-0.249,0.061-0.37,0.098l-0.183,0.053c-0.03,0.009-0.062,0.017-0.09,0.028l-0.129,0.047
				c-0.543,0.19-1.047,0.446-1.47,0.777c-0.904,0.676-1.369,1.743-1.472,2.936c-0.054,0.595-0.025,1.215,0.053,1.838l0.052,0.382
				l-0.077,0.146l-0.04,0.076l-0.004,0.01l0.029-0.056l0.06-0.115c0.042-0.077,0.078-0.155,0.111-0.234
				c0.035-0.081,0.07-0.153,0.104-0.241l0.102-0.266l0.203-0.53c0.266-0.705,0.553-1.423,0.792-2.11l0.374-1.04l0.187-0.521
				l0.09-0.251l0.011-0.031l0.005-0.016c0.002-0.003,0.004-0.016,0.004-0.004l0.008,0.073l0.017,0.147l0.278,2.508
				c0.025,0.217,0.048,0.452,0.076,0.656l0.091,0.566l0.091,0.566l0.045,0.283c0.016,0.093,0.028,0.194,0.05,0.272
				c0.039,0.168,0.078,0.336,0.128,0.495l0.085,0.294c0.042,0.153,0.094,0.304,0.147,0.456c0.197,0.608,0.452,1.203,0.711,1.795
				c0.276,0.586,0.561,1.17,0.883,1.738c0.314,0.572,0.653,1.132,1.007,1.684c0.177,0.276,0.357,0.55,0.543,0.82l0.158,0.231
				l0.044,0.063l0.068-0.131c0.279-0.577,0.54-1.166,0.764-1.773c0.455-1.212,0.802-2.473,1.073-3.751
				c0.15-0.72,0.271-1.446,0.372-2.176l0.042-0.328c0.024-0.186,0.046-0.373,0.065-0.564c0.039-0.38,0.065-0.778,0.099-1.166
				l0.093-1.164l0.022-0.29l0.011-0.145c0.002-0.01,0.001-0.028,0.004-0.032l0.02,0.018l0.038,0.036l0.335,0.317l0.841,0.794
				l0.2,0.189c0.066,0.066,0.135,0.119,0.199,0.204l0.391,0.47c0.065,0.08,0.132,0.152,0.194,0.238
				c0.062,0.089,0.125,0.174,0.185,0.267l0.172,0.308l0.042,0.075l-0.068-0.121l-0.135-0.242l-0.021-0.037l-0.001-0.64
				c-0.029-0.837-0.154-1.676-0.407-2.437c-0.122-0.364-0.274-0.708-0.461-1.007C174.647,98.722,174.42,98.482,174.181,98.318z"/>
		</g>
	</g>
</g>
<g>
	<g>
		<rect x="160.642" y="163.289" style="fill:#FFFFFF;" width="7.813" height="7.813"/>
		<path style="fill:#415C92;" d="M169.062,171.709h-9.025v-9.025h9.025V171.709z M161.249,170.496h6.6v-6.601h-6.6V170.496z"/>
	</g>
	<g>
		<g>
			<g>
				<path style="fill:#415C92;" d="M150.753,165.007h7.073c0.271,0,0.488-0.218,0.488-0.488c0-0.27-0.218-0.488-0.488-0.488h-7.073
					c-0.27,0-0.488,0.219-0.488,0.488C150.265,164.789,150.483,165.007,150.753,165.007z"/>
			</g>
		</g>
		<g>
			<g>
				<path style="fill:#415C92;" d="M148.096,170.361h9.56c0.364,0,0.659-0.218,0.659-0.487c0-0.271-0.295-0.489-0.659-0.489h-9.56
					c-0.365,0-0.66,0.219-0.66,0.489C147.436,170.144,147.731,170.361,148.096,170.361z"/>
			</g>
		</g>
		<g>
			<g>
				<path style="fill:#415C92;" d="M144.614,167.533h13.212c0.271,0,0.488-0.218,0.488-0.488c0-0.27-0.218-0.487-0.488-0.487
					h-13.212c-0.27,0-0.488,0.218-0.488,0.487C144.126,167.315,144.345,167.533,144.614,167.533z"/>
			</g>
		</g>
	</g>
</g>
<g>
	<g>
		<rect x="107.477" y="192.647" style="fill:#405C92;" width="2.426" height="104.295"/>
	</g>
	<g>
		<path style="fill:#B9CEEB;" d="M108.957,205.268h-0.533c-3.958,0-7.195-3.238-7.195-7.193v-9.638c0-3.957,3.237-7.194,7.195-7.194
			h0.533c3.957,0,7.195,3.237,7.195,7.194v9.638C116.152,202.029,112.914,205.268,108.957,205.268z"/>
	</g>
	<g>
		<g>
			<path style="fill:#405C92;" d="M118.456,198.289c0.854,0.137,1.706,0.273,2.561,0.411c0.572,0.094,0.818-0.784,0.241-0.877
				c-0.854-0.138-1.706-0.274-2.56-0.411C118.125,197.32,117.88,198.197,118.456,198.289L118.456,198.289z"/>
		</g>
	</g>
	<g>
		<g>
			<path style="fill:#405C92;" d="M118.368,192.732c0.67-0.119,1.335-0.135,2.01-0.071c0.583,0.055,0.579-0.854,0-0.908
				c-0.759-0.072-1.5-0.031-2.252,0.103C117.551,191.956,117.795,192.833,118.368,192.732L118.368,192.732z"/>
		</g>
	</g>
	<g>
		<g>
			<path style="fill:#405C92;" d="M118.091,187.669c0.654-0.26,1.308-0.519,1.962-0.778c0.538-0.213,0.304-1.093-0.241-0.877
				c-0.654,0.26-1.309,0.518-1.963,0.778C117.312,187.005,117.546,187.886,118.091,187.669L118.091,187.669z"/>
		</g>
	</g>
	<g>
		<g>
			<path style="fill:#405C92;" d="M95.791,199.136c0.671-0.094,1.321-0.249,1.963-0.468c0.55-0.188,0.313-1.066-0.242-0.877
				c-0.642,0.219-1.292,0.374-1.963,0.468C94.972,198.339,95.218,199.216,95.791,199.136L95.791,199.136z"/>
		</g>
	</g>
	<g>
		<g>
			<path style="fill:#405C92;" d="M94.61,192.671c0.843,0.022,1.656,0.148,2.468,0.379c0.563,0.157,0.805-0.72,0.241-0.879
				c-0.886-0.249-1.789-0.384-2.709-0.409C94.025,191.746,94.025,192.654,94.61,192.671L94.61,192.671z"/>
		</g>
	</g>
	<g>
		<g>
			<path style="fill:#405C92;" d="M95.405,185.188c0.654,0.211,1.309,0.418,1.964,0.627c0.559,0.179,0.798-0.699,0.241-0.877
				c-0.655-0.209-1.31-0.416-1.965-0.627C95.087,184.134,94.848,185.012,95.405,185.188L95.405,185.188z"/>
		</g>
	</g>
	<g>
		<polygon style="fill:#415C92;" points="103.03,298.355 104.647,284.415 112.53,284.415 114.349,298.155 		"/>
	</g>
</g>
<g>
	<g>
		<g>
			<g>
				<path style="fill:#7CC46A;" d="M64.915,231.618c-0.359-2.217-1.928-7.936-5.382-6.125c-5.589,2.931,1.152,14.055-5.583,16.017
					c-0.36-4.436-1.313-7.491-3.315-7.309c-4.129,0.375-3.032,9.98-3.099,12.141c-0.067,2.154-0.174,4.36-0.271,6.589
					c-4.859,0.873-3.899-11.8-6.853-13.552c-4.595-2.725-5.571,3.348-5.445,6.152c0.215,4.773,1.499,10.485,5.982,13.021
					c1.479,0.836,4.084,1.781,6.114,1.609c-0.021,3.816,0.142,7.612,0.772,11.232c0.007,0.038,0.071,0.038,0.078,0
					c0.001-0.003,0.001-0.005,0.001-0.01l2.722,0.148c0,0.017-0.002,0.032-0.002,0.051c-0.025,1.196,1.844,1.196,1.861,0
					c0.033-2.305,1.448-13.614,1.618-23.199c2.174,0.324,4.907-0.688,6.472-1.836C65.224,243.145,65.767,236.888,64.915,231.618z"/>
			</g>
			<g>
				<path style="fill:#51AA50;" d="M51.55,272.996c-0.275,0-0.549-0.07-0.785-0.212c-0.292-0.176-0.495-0.443-0.588-0.761
					l-2.006-0.107l-0.73,0.023l-0.112-0.459c-0.536-3.074-0.785-6.514-0.782-10.782c-2.234-0.002-4.684-1.037-5.851-1.697
					c-4.782-2.704-6.036-8.804-6.244-13.446c-0.084-1.866,0.31-5.729,2.399-6.982c1.06-0.635,2.347-0.514,3.823,0.363
					c1.429,0.846,1.973,3.449,2.604,6.461c0.853,4.077,1.621,7.016,3.491,7.062l0.044-1.002c0.078-1.731,0.155-3.446,0.207-5.13
					c0.01-0.329-0.007-0.836-0.03-1.457c-0.13-3.782-0.373-10.82,3.598-11.182c0.613-0.06,1.172,0.121,1.658,0.532
					c1.107,0.932,1.816,3.086,2.159,6.575c2.509-1.119,2.379-4.026,2.231-7.356c-0.15-3.366-0.305-6.849,2.657-8.402
					c0.962-0.502,1.879-0.543,2.727-0.118c2.469,1.233,3.316,6.07,3.405,6.618l0,0c0.653,4.04,0.933,11.417-4.535,15.43
					c-1.524,1.116-4.092,2.101-6.272,1.984c-0.14,6.26-0.782,13.152-1.211,17.759c-0.214,2.31-0.385,4.132-0.395,4.881
					c-0.008,0.525-0.266,0.968-0.709,1.215C52.071,272.935,51.811,272.996,51.55,272.996z M48.274,270.886l2.893,0.158l-0.014,0.502
					c-0.007,0.24,0.079,0.315,0.145,0.354c0.143,0.084,0.354,0.087,0.503,0.002c0.119-0.066,0.176-0.171,0.179-0.329
					c0.011-0.787,0.174-2.537,0.4-4.96c0.439-4.728,1.105-11.874,1.218-18.238l0.01-0.587l0.582,0.087
					c2.006,0.297,4.636-0.677,6.09-1.743c5.024-3.686,4.742-10.624,4.126-14.431l0,0c-0.27-1.67-1.212-5.043-2.847-5.86
					c-0.542-0.272-1.126-0.235-1.786,0.109c-2.381,1.249-2.248,4.257-2.105,7.442c0.156,3.504,0.333,7.476-3.572,8.612l-0.607,0.176
					l-0.051-0.63c-0.359-4.419-1.207-5.997-1.855-6.541c-0.274-0.23-0.56-0.324-0.899-0.294c-2.999,0.271-2.77,6.922-2.659,10.117
					c0.022,0.65,0.04,1.183,0.029,1.527c-0.053,1.686-0.13,3.405-0.208,5.144l-0.083,1.863l-0.406,0.073
					c-3.326,0.594-4.261-3.88-5.088-7.834c-0.533-2.541-1.083-5.168-2.12-5.784c-1.126-0.667-2.057-0.79-2.766-0.363
					c-1.54,0.923-1.982,4.2-1.899,6.05c0.197,4.38,1.349,10.122,5.721,12.593c1.509,0.852,3.975,1.694,5.817,1.546l0.563-0.048
					l-0.003,0.564C47.556,264.426,47.777,267.849,48.274,270.886z"/>
			</g>
		</g>
		<g>
			<g>
				<g>
					<path style="fill:#415C92;" d="M59.567,297.166H39.826c-1.053,0-1.894-0.689-2.093-1.713l-4.482-23.01l1.86-0.362l4.482,23.009
						c0.035,0.181,0.184,0.181,0.233,0.181h19.742c0.048,0,0.199,0,0.233-0.181l4.447-23.009l1.86,0.358l-4.446,23.012
						C61.463,296.477,60.621,297.166,59.567,297.166z"/>
				</g>
			</g>
		</g>
		<g>
			<g>
				<g>
					<path style="fill:#B9CEEB;" d="M33.451,265.04h32.768c0.559,0,1.016,0.616,1.016,1.372v4.981c0,0.758-0.458,1.375-1.016,1.375
						H33.451c-0.559,0-1.016-0.617-1.016-1.375v-4.981C32.436,265.656,32.893,265.04,33.451,265.04z"/>
				</g>
				<g>
					<path style="fill:#415C92;" d="M66.219,273.284H33.451c-0.844,0-1.532-0.85-1.532-1.891v-4.981
						c0-1.041,0.688-1.889,1.532-1.889h32.768c0.845,0,1.532,0.848,1.532,1.889v4.981C67.751,272.435,67.064,273.284,66.219,273.284
						z M33.451,265.556c-0.235,0-0.499,0.365-0.499,0.856v4.981c0,0.49,0.264,0.858,0.499,0.858h32.768c0.236,0,0.5-0.368,0.5-0.858
						v-4.981c0-0.491-0.264-0.856-0.5-0.856H33.451z"/>
				</g>
			</g>
			<g>
				<g>
					<path style="fill:#B9CEEB;" d="M66.219,273.2H33.451c-0.798,0-1.447-0.812-1.447-1.807v-4.981c0-0.995,0.649-1.804,1.447-1.804
						h32.768c0.798,0,1.448,0.809,1.448,1.804v4.981C67.667,272.389,67.017,273.2,66.219,273.2z M33.451,265.472
						c-0.276,0-0.584,0.386-0.584,0.94v4.981c0,0.555,0.308,0.943,0.584,0.943h32.768c0.276,0,0.584-0.389,0.584-0.943v-4.981
						c0-0.555-0.308-0.94-0.584-0.94H33.451z"/>
				</g>
				<g>
					<path style="fill:#415C92;" d="M66.219,273.716H33.451c-1.082,0-1.962-1.041-1.962-2.322v-4.981c0-1.278,0.88-2.32,1.962-2.32
						h32.768c1.083,0,1.964,1.042,1.964,2.32v4.981C68.183,272.675,67.301,273.716,66.219,273.716z M33.51,265.987
						c-0.047,0.051-0.126,0.196-0.126,0.425v4.981c0,0.265,0.106,0.418,0.146,0.442l32.689-0.016
						c-0.039-0.009,0.068-0.162,0.068-0.427v-4.981c0-0.265-0.107-0.415-0.146-0.443L33.51,265.987z"/>
				</g>
			</g>
		</g>
	</g>
	<g>
		<g>
			<path style="fill:#51AA50;" d="M37.024,245.479c0.539,0.069,1.078,0.138,1.617,0.206c0.579,0.073,0.573-0.836,0-0.909
				c-0.539-0.068-1.078-0.14-1.617-0.208C36.445,244.494,36.451,245.406,37.024,245.479L37.024,245.479z"/>
		</g>
	</g>
	<g>
		<g>
			<path style="fill:#51AA50;" d="M39.402,238.326c0,0.27,0,0.539,0,0.809c0,0.584,0.91,0.584,0.91,0c0-0.27,0-0.539,0-0.809
				C40.312,237.741,39.402,237.739,39.402,238.326L39.402,238.326z"/>
		</g>
	</g>
	<g>
		<g>
			<path style="fill:#51AA50;" d="M42.548,246.667c0.395-0.222,0.789-0.441,1.183-0.66c0.512-0.286,0.054-1.071-0.459-0.786
				c-0.394,0.22-0.789,0.441-1.183,0.66C41.578,246.164,42.036,246.95,42.548,246.667L42.548,246.667z"/>
		</g>
	</g>
	<g>
		<g>
			<path style="fill:#51AA50;" d="M37.877,257.131c0.475-0.333,0.95-0.665,1.425-0.998c0.476-0.333,0.022-1.121-0.459-0.785
				c-0.475,0.333-0.95,0.664-1.424,0.998C36.942,256.677,37.396,257.467,37.877,257.131L37.877,257.131z"/>
		</g>
	</g>
	<g>
		<g>
			<path style="fill:#51AA50;" d="M34.468,249.309c0.337,0.133,0.675,0.266,1.014,0.397c0.545,0.215,0.781-0.664,0.241-0.877
				c-0.337-0.132-0.675-0.265-1.013-0.397C34.165,248.22,33.928,249.099,34.468,249.309L34.468,249.309z"/>
		</g>
	</g>
	<g>
		<g>
			<path style="fill:#51AA50;" d="M41.07,253.531c0.217,0.017,0.345,0.119,0.479,0.279c0.373,0.452,1.013-0.194,0.643-0.642
				c-0.292-0.354-0.671-0.515-1.121-0.546C40.486,252.582,40.488,253.49,41.07,253.531L41.07,253.531z"/>
		</g>
	</g>
	<g>
		<g>
			<path style="fill:#51AA50;" d="M43.065,257.812c-0.099,0.637-0.029,1.179,0.222,1.772c0.228,0.536,1.011,0.073,0.785-0.459
				c-0.146-0.348-0.188-0.701-0.13-1.071C44.031,257.48,43.155,257.233,43.065,257.812L43.065,257.812z"/>
		</g>
	</g>
	<g>
		<g>
			<path style="fill:#51AA50;" d="M47.817,257.979c0.268,0.07,0.537,0.144,0.805,0.214c0.566,0.151,0.808-0.726,0.242-0.877
				c-0.268-0.07-0.537-0.144-0.805-0.214C47.493,256.95,47.251,257.827,47.817,257.979L47.817,257.979z"/>
		</g>
	</g>
	<g>
		<g>
			<path style="fill:#51AA50;" d="M50.721,249.037c-0.047,0.519,0.147,0.989,0.543,1.322c0.445,0.377,1.092-0.265,0.644-0.642
				c-0.232-0.196-0.305-0.382-0.278-0.681C51.684,248.455,50.773,248.459,50.721,249.037L50.721,249.037z"/>
		</g>
	</g>
	<g>
		<g>
			<path style="fill:#51AA50;" d="M49.566,242.54c-0.264,0.36-0.311,0.729-0.234,1.157c0.101,0.576,0.978,0.334,0.877-0.239
				c-0.029-0.186,0.019-0.338,0.143-0.459C50.698,242.526,49.91,242.071,49.566,242.54L49.566,242.54z"/>
		</g>
	</g>
	<g>
		<g>
			<path style="fill:#51AA50;" d="M54.561,245.198c0,0.27,0,0.539,0,0.809c0,0.584,0.91,0.584,0.91,0c0-0.27,0-0.539,0-0.809
				C55.47,244.611,54.561,244.611,54.561,245.198L54.561,245.198z"/>
		</g>
	</g>
	<g>
		<g>
			<path style="fill:#51AA50;" d="M46.095,243.771c0.202,0.135,0.404,0.27,0.606,0.404c0.489,0.326,0.944-0.461,0.459-0.785
				c-0.202-0.135-0.404-0.27-0.606-0.404C46.066,242.661,45.61,243.448,46.095,243.771L46.095,243.771z"/>
		</g>
	</g>
	<g>
		<g>
			<path style="fill:#51AA50;" d="M47.617,236.225c0.176,0.206,0.263,0.416,0.284,0.686c0.045,0.58,0.955,0.585,0.91,0
				c-0.04-0.521-0.21-0.932-0.55-1.329C47.879,235.136,47.238,235.782,47.617,236.225L47.617,236.225z"/>
		</g>
	</g>
	<g>
		<g>
			<path style="fill:#51AA50;" d="M49.913,233.476c0,0.404,0,0.809,0,1.212c0,0.585,0.91,0.587,0.91,0c0-0.403,0-0.808,0-1.212
				C50.822,232.891,49.913,232.889,49.913,233.476L49.913,233.476z"/>
		</g>
	</g>
	<g>
		<g>
			<path style="fill:#51AA50;" d="M55.535,238.817c0.131,0.139,0.263,0.276,0.394,0.415c0.405,0.425,1.047-0.219,0.644-0.644
				c-0.131-0.137-0.263-0.276-0.394-0.413C55.774,237.751,55.132,238.395,55.535,238.817L55.535,238.817z"/>
		</g>
	</g>
	<g>
		<g>
			<path style="fill:#51AA50;" d="M56.438,233.397c0.403,0.023,0.806,0.046,1.209,0.071c0.585,0.031,0.583-0.877,0-0.911
				c-0.403-0.023-0.806-0.046-1.209-0.069C55.853,232.454,55.855,233.365,56.438,233.397L56.438,233.397z"/>
		</g>
	</g>
	<g>
		<g>
			<path style="fill:#51AA50;" d="M57.726,226.117c0.269,0.27,0.539,0.539,0.809,0.809c0.414,0.413,1.057-0.229,0.643-0.645
				c-0.27-0.27-0.539-0.539-0.808-0.809C57.955,225.06,57.311,225.701,57.726,226.117L57.726,226.117z"/>
		</g>
	</g>
	<g>
		<g>
			<path style="fill:#51AA50;" d="M61.23,223.773c0,0.471,0,0.943,0,1.416c0,0.585,0.91,0.585,0.91,0c0-0.473,0-0.945,0-1.416
				C62.14,223.189,61.23,223.187,61.23,223.773L61.23,223.773z"/>
		</g>
	</g>
	<g>
		<g>
			<path style="fill:#51AA50;" d="M62.879,232.285c0.134-0.203,0.267-0.406,0.401-0.609c0.323-0.489-0.464-0.945-0.785-0.459
				c-0.134,0.203-0.267,0.406-0.401,0.609C61.771,232.315,62.558,232.771,62.879,232.285L62.879,232.285z"/>
		</g>
	</g>
	<g>
		<g>
			<path style="fill:#51AA50;" d="M59.796,241.218c0.338-0.133,0.676-0.266,1.014-0.396c0.541-0.21,0.305-1.09-0.241-0.877
				c-0.338,0.13-0.677,0.263-1.015,0.396C59.014,240.548,59.249,241.43,59.796,241.218L59.796,241.218z"/>
		</g>
	</g>
	<g>
		<g>
			<path style="fill:#51AA50;" d="M63.821,239.947c0.336-0.068,0.673-0.139,1.009-0.21c0.572-0.116,0.331-0.993-0.242-0.877
				c-0.336,0.071-0.673,0.142-1.009,0.21C63.007,239.189,63.249,240.066,63.821,239.947L63.821,239.947z"/>
		</g>
	</g>
	<g>
		<g>
			<path style="fill:#51AA50;" d="M61.23,244.187c0,0.068,0,0.135,0,0.203c0,0.585,0.91,0.585,0.91,0c0-0.068,0-0.135,0-0.203
				C62.14,243.602,61.23,243.602,61.23,244.187L61.23,244.187z"/>
		</g>
	</g>
	<g>
		<g>
			<path style="fill:#51AA50;" d="M53.42,258.113c0.202-0.135,0.404-0.27,0.606-0.404c0.485-0.324,0.03-1.112-0.459-0.786
				c-0.202,0.135-0.404,0.27-0.606,0.404C52.477,257.649,52.932,258.438,53.42,258.113L53.42,258.113z"/>
		</g>
	</g>
	<g>
		<g>
			<path style="fill:#51AA50;" d="M52.89,261.466c0.362-0.35,0.75-0.551,1.237-0.665c0.57-0.132,0.329-1.009-0.242-0.877
				c-0.632,0.148-1.17,0.448-1.639,0.897C51.824,261.228,52.467,261.87,52.89,261.466L52.89,261.466z"/>
		</g>
	</g>
	<g>
		<g>
			<path style="fill:#51AA50;" d="M49.144,262.012c0.068,0.135,0.137,0.27,0.205,0.401c0.266,0.523,1.05,0.062,0.785-0.459
				c-0.068-0.135-0.137-0.267-0.205-0.401C49.664,261.031,48.878,261.49,49.144,262.012L49.144,262.012z"/>
		</g>
	</g>
	<g>
		<g>
			<path style="fill:#51AA50;" d="M45.681,262.989c0.51,0.265,1.008,0.331,1.57,0.219c0.573-0.116,0.331-0.993-0.242-0.877
				c-0.319,0.064-0.583,0.022-0.87-0.128C45.621,261.934,45.161,262.72,45.681,262.989L45.681,262.989z"/>
		</g>
	</g>
	<g>
		<g>
			<path style="fill:#51AA50;" d="M53.199,254.363c0.605-0.076,1.211-0.151,1.816-0.229c0.573-0.071,0.58-0.982,0-0.909
				c-0.605,0.075-1.21,0.153-1.816,0.229C52.626,253.524,52.619,254.436,53.199,254.363L53.199,254.363z"/>
		</g>
	</g>
</g>
<g>
	<g>
		<g>
			<path style="fill:#D8E5F5;" d="M306.059,214.509c9.788-8.851,19.576-17.7,29.365-26.55c1.451-1.311-0.699-3.451-2.143-2.145
				c-9.789,8.85-19.579,17.699-29.367,26.55C302.464,213.675,304.613,215.814,306.059,214.509L306.059,214.509z"/>
		</g>
	</g>
	<g>
		<g>
			<path style="fill:#D8E5F5;" d="M339.247,228.049c9.788-8.85,19.576-17.699,29.366-26.549c1.45-1.312-0.699-3.449-2.144-2.143
				c-9.79,8.848-19.578,17.697-29.367,26.547C335.652,227.216,337.801,229.355,339.247,228.049L339.247,228.049z"/>
		</g>
	</g>
	<g>
		<g>
			<path style="fill:#D8E5F5;" d="M303.183,238.079c20.518-20.006,41.033-40.012,61.549-60.018c1.399-1.364-0.745-3.507-2.143-2.144
				c-20.517,20.005-41.033,40.011-61.549,60.017C299.641,237.301,301.786,239.442,303.183,238.079L303.183,238.079z"/>
		</g>
	</g>
</g>
<g>
	<g>
		<g>
			<g>
				<g>
					<rect x="395.938" y="51.45" style="fill:#415C92;" width="1.319" height="84.702"/>
				</g>
			</g>
			<g>
				<g>
					<circle style="fill:#415C92;" cx="396.597" cy="136.152" r="5.376"/>
				</g>
			</g>
			<g>
				<g>
					<path style="fill:#415C92;" d="M396.672,154.19c-0.089,0-1.845-0.018-3.126-1.296c-0.854-0.853-1.288-2.038-1.288-3.522
						c0-0.393,0.319-0.711,0.712-0.711s0.711,0.318,0.711,0.711c0,1.092,0.294,1.938,0.872,2.516c0.859,0.857,2.106,0.88,2.119,0.88
						c2.008,0,3.639-1.633,3.639-3.638c0-2.006-1.631-3.638-3.638-3.638c-0.393,0-0.711-0.318-0.711-0.711v-3.953
						c0-0.393,0.318-0.711,0.711-0.711c0.394,0,0.712,0.319,0.712,0.711v3.292c2.455,0.347,4.349,2.462,4.349,5.011
						C401.733,151.921,399.464,154.19,396.672,154.19C396.673,154.19,396.673,154.19,396.672,154.19z"/>
				</g>
			</g>
		</g>
		<g>
			<g>
				<g>
					<path style="fill:#415C92;" d="M368.436,157.501c-0.271-0.047-0.496-0.265-0.538-0.554c-0.053-0.36,0.196-0.696,0.557-0.749
						l29.103-4.286c0.361-0.055,0.696,0.195,0.749,0.556c0.053,0.359-0.196,0.695-0.557,0.748l-29.103,4.289
						C368.574,157.514,368.505,157.514,368.436,157.501z"/>
				</g>
			</g>
			<g>
				<g>
					<path style="fill:#415C92;" d="M424.301,167.186c-0.064-0.012-0.13-0.032-0.191-0.063l-26.762-13.974
						c-0.323-0.168-0.448-0.568-0.279-0.89c0.169-0.323,0.566-0.45,0.891-0.28l26.76,13.973c0.323,0.168,0.449,0.567,0.28,0.89
						C424.863,167.103,424.576,167.233,424.301,167.186z"/>
				</g>
			</g>
			<g>
				<path style="fill:#FFFFFF;" d="M422.118,223.055l-71.275-12.386c-3.735-0.648-6.236-4.202-5.587-7.936l7.131-41.04
					c0.649-3.734,4.203-6.235,7.938-5.587l71.274,12.386c3.734,0.648,6.236,4.202,5.587,7.936l-7.13,41.04
					C429.405,221.202,425.854,223.705,422.118,223.055z"/>
				<path style="fill:#415C92;" d="M423.091,224.027c-0.456,0-0.916-0.039-1.381-0.119l-70.772-12.298
					c-2.112-0.368-3.955-1.535-5.19-3.289c-1.234-1.754-1.711-3.882-1.344-5.995l7.044-40.537c0.758-4.359,4.924-7.291,9.283-6.534
					l70.772,12.299c2.112,0.365,3.957,1.533,5.191,3.287c1.233,1.753,1.711,3.882,1.345,5.994l-7.044,40.537
					C430.316,221.271,426.917,224.027,423.091,224.027z M359.354,156.954c-2.962,0-5.591,2.131-6.114,5.146l-7.044,40.537
					c-0.284,1.636,0.086,3.282,1.04,4.639c0.955,1.356,2.38,2.259,4.014,2.542l70.774,12.298c3.368,0.59,6.592-1.681,7.179-5.054
					l7.045-40.537c0.283-1.635-0.086-3.281-1.041-4.637c-0.954-1.356-2.381-2.259-4.014-2.544l-70.773-12.298
					C360.062,156.984,359.705,156.954,359.354,156.954z"/>
			</g>
			<g>
				<path style="fill:#B9CEEB;" d="M421.583,218.612l-68.738-11.944c-2.386-0.416-3.984-2.686-3.57-5.072l6.513-37.475
					c0.414-2.387,2.685-3.985,5.071-3.57l68.737,11.944c2.387,0.414,3.984,2.685,3.57,5.07l-6.512,37.478
					C426.24,217.427,423.969,219.025,421.583,218.612z"/>
				<path style="fill:#415C92;" d="M422.213,219.563c-0.314,0-0.631-0.027-0.944-0.082l-68.42-11.89
					c-1.435-0.249-2.688-1.044-3.527-2.233c-0.839-1.192-1.163-2.641-0.914-4.077l6.456-37.155c0.514-2.964,3.341-4.96,6.311-4.441
					l68.418,11.888c2.965,0.516,4.958,3.345,4.443,6.311l-6.457,37.154c-0.25,1.437-1.042,2.69-2.235,3.53
					C424.413,219.22,423.327,219.563,422.213,219.563z M421.578,217.688c0.957,0.164,1.924-0.051,2.718-0.61
					c0.794-0.557,1.324-1.395,1.489-2.352l6.457-37.155c0.344-1.976-0.985-3.864-2.961-4.207l-68.418-11.89
					c-1.974-0.34-3.864,0.986-4.208,2.962l-6.455,37.155c-0.167,0.96,0.05,1.923,0.609,2.718c0.559,0.795,1.394,1.325,2.352,1.489
					L421.578,217.688z"/>
			</g>
			<g>
				<polygon style="fill:#FFFFFF;" points="388.975,212.946 406.762,196.645 416.604,217.747 				"/>
				<path style="fill:#415C92;" d="M417.646,218.541l-29.99-5.209l19.306-17.692L417.646,218.541z M390.294,212.561l25.27,4.389
					l-9.003-19.3L390.294,212.561z"/>
			</g>
			<g>
				<polygon style="fill:#FFFFFF;" points="353.805,206.835 385.338,177.934 402.79,215.347 				"/>
				<path style="fill:#415C92;" d="M403.831,216.142l-51.345-8.921l33.052-30.292L403.831,216.142z M355.124,206.449l46.625,8.101
					l-16.611-35.61L355.124,206.449z"/>
			</g>
			<g>
				<circle style="fill:#FFFFFF;" cx="418.49" cy="182.657" r="4.409"/>
				<path style="fill:#415C92;" d="M418.499,187.676c-0.288,0-0.579-0.025-0.869-0.075c-2.726-0.474-4.556-3.076-4.082-5.801
					c0.229-1.32,0.958-2.473,2.055-3.243c1.094-0.771,2.423-1.071,3.746-0.841c1.319,0.229,2.472,0.96,3.242,2.055
					s1.069,2.427,0.839,3.747c-0.229,1.319-0.958,2.471-2.054,3.242C420.521,187.36,419.523,187.676,418.499,187.676z
					 M418.48,178.854c-0.776,0-1.533,0.237-2.181,0.694c-0.831,0.585-1.384,1.458-1.559,2.46c-0.173,1,0.054,2.01,0.637,2.84
					c0.586,0.83,1.46,1.384,2.46,1.558c0.995,0.173,2.009-0.052,2.84-0.637s1.384-1.459,1.559-2.459l0,0
					c0.358-2.067-1.029-4.04-3.097-4.398C418.921,178.872,418.7,178.854,418.48,178.854z"/>
			</g>
		</g>
		<g>
			<g>
				<rect x="385.024" y="48.601" style="fill:#B9CEEB;" width="66.098" height="7.273"/>
			</g>
		</g>
		<g>
			<g>
				<g>
					<g>
						<g>
							<g>
								<path style="fill:#A2BFE4;" d="M508.563,198.979H486.62V4.967h21.943V198.979z M488.79,196.807h17.603V7.137H488.79V196.807
									z"/>
							</g>
						</g>
						<g>
							<g>
								<g>
									<path style="fill:#A2BFE4;" d="M508.288,26.262h-21.394V4.87h21.394V26.262z M489.094,24.063h16.995V7.069h-16.995V24.063z
										"/>
								</g>
							</g>
							<g>
								<g>
									
										<rect x="484.019" y="14.467" transform="matrix(0.7071 0.7071 -0.7071 0.7071 156.7342 -347.278)" style="fill:#A2BFE4;" width="27.144" height="2.199"/>
								</g>
							</g>
							<g>
								<g>
									
										<rect x="496.492" y="1.994" transform="matrix(0.7071 0.7071 -0.7071 0.7071 156.7481 -347.291)" style="fill:#A2BFE4;" width="2.199" height="27.144"/>
								</g>
							</g>
						</g>
						<g>
							<g>
								<g>
									<path style="fill:#A2BFE4;" d="M508.288,45.456h-21.394V24.063h21.394V45.456z M489.094,43.256h16.995V26.262h-16.995
										V43.256z"/>
								</g>
							</g>
							<g>
								<g>
									
										<rect x="484.019" y="33.66" transform="matrix(0.7071 0.7071 -0.7071 0.7071 170.315 -341.6652)" style="fill:#A2BFE4;" width="27.145" height="2.199"/>
								</g>
							</g>
							<g>
								<g>
									
										<rect x="496.492" y="21.188" transform="matrix(0.7069 0.7073 -0.7073 0.7069 170.438 -341.7721)" style="fill:#A2BFE4;" width="2.199" height="27.144"/>
								</g>
							</g>
						</g>
						<g>
							<g>
								<g>
									<path style="fill:#A2BFE4;" d="M508.288,64.649h-21.394V43.256h21.394V64.649z M489.094,62.45h16.995V45.456h-16.995V62.45
										z"/>
								</g>
							</g>
							<g>
								<g>
									
										<rect x="484.019" y="52.853" transform="matrix(0.7071 0.7071 -0.7071 0.7071 183.8763 -336.0359)" style="fill:#A2BFE4;" width="27.144" height="2.199"/>
								</g>
							</g>
							<g>
								<g>
									
										<rect x="496.492" y="40.38" transform="matrix(0.7071 0.7071 -0.7071 0.7071 183.8912 -336.0479)" style="fill:#A2BFE4;" width="2.199" height="27.145"/>
								</g>
							</g>
						</g>
						<g>
							<g>
								<g>
									<path style="fill:#A2BFE4;" d="M508.288,83.843h-21.394V62.45h21.394V83.843z M489.094,81.644h16.995V64.649h-16.995
										V81.644z"/>
								</g>
							</g>
							<g>
								<g>
									
										<rect x="484.019" y="72.047" transform="matrix(0.7071 0.7071 -0.7071 0.7071 197.4635 -330.4261)" style="fill:#A2BFE4;" width="27.145" height="2.199"/>
								</g>
							</g>
							<g>
								<g>
									
										<rect x="496.492" y="59.574" transform="matrix(0.707 0.7072 -0.7072 0.707 197.5269 -330.4732)" style="fill:#A2BFE4;" width="2.199" height="27.145"/>
								</g>
							</g>
						</g>
						<g>
							<g>
								<g>
									<path style="fill:#A2BFE4;" d="M508.288,103.036h-21.394V81.644h21.394V103.036z M489.094,100.836h16.995V83.843h-16.995
										V100.836z"/>
								</g>
							</g>
							<g>
								<g>
									
										<rect x="484.019" y="91.24" transform="matrix(0.7071 0.7071 -0.7071 0.7071 211.0193 -324.7935)" style="fill:#A2BFE4;" width="27.144" height="2.199"/>
								</g>
							</g>
							<g>
								<g>
									
										<rect x="496.492" y="78.768" transform="matrix(0.707 0.7072 -0.7072 0.707 211.1008 -324.8495)" style="fill:#A2BFE4;" width="2.199" height="27.144"/>
								</g>
							</g>
						</g>
						<g>
							<g>
								<g>
									<path style="fill:#A2BFE4;" d="M508.288,122.229h-21.394v-21.393h21.394V122.229z M489.094,120.03h16.995v-16.994h-16.995
										V120.03z"/>
								</g>
							</g>
							<g>
								<g>
									
										<rect x="484.019" y="110.433" transform="matrix(0.7071 0.7071 -0.7071 0.7071 224.5959 -319.176)" style="fill:#A2BFE4;" width="27.144" height="2.199"/>
								</g>
							</g>
							<g>
								<g>
									
										<rect x="496.492" y="97.961" transform="matrix(0.7069 0.7073 -0.7073 0.7069 224.7421 -319.2686)" style="fill:#A2BFE4;" width="2.199" height="27.144"/>
								</g>
							</g>
						</g>
						<g>
							<g>
								<g>
									<path style="fill:#A2BFE4;" d="M508.288,141.422h-21.394V120.03h21.394V141.422z M489.094,139.223h16.995v-16.994h-16.995
										V139.223z"/>
								</g>
							</g>
							<g>
								<g>
									
										<rect x="484.019" y="129.626" transform="matrix(0.7071 0.7071 -0.7071 0.7071 238.1613 -313.5516)" style="fill:#A2BFE4;" width="27.144" height="2.199"/>
								</g>
							</g>
							<g>
								<g>
									
										<rect x="496.492" y="117.154" transform="matrix(0.707 0.7072 -0.7072 0.707 238.248 -313.6022)" style="fill:#A2BFE4;" width="2.199" height="27.144"/>
								</g>
							</g>
						</g>
						<g>
							<g>
								<g>
									<path style="fill:#A2BFE4;" d="M508.288,160.615h-21.394v-21.393h21.394V160.615z M489.094,158.416h16.995v-16.994h-16.995
										V158.416z"/>
								</g>
							</g>
							<g>
								<g>
									
										<rect x="484.019" y="148.819" transform="matrix(0.7071 0.7071 -0.7071 0.7071 251.7323 -307.9305)" style="fill:#A2BFE4;" width="27.144" height="2.199"/>
								</g>
							</g>
							<g>
								<g>
									
										<rect x="496.492" y="136.347" transform="matrix(0.7071 0.7071 -0.7071 0.7071 251.7498 -307.9399)" style="fill:#A2BFE4;" width="2.199" height="27.144"/>
								</g>
							</g>
						</g>
						<g>
							<g>
								<g>
									<path style="fill:#A2BFE4;" d="M508.288,179.809h-21.394v-21.393h21.394V179.809z M489.094,177.61h16.995v-16.995h-16.995
										V177.61z"/>
								</g>
							</g>
							<g>
								<g>
									
										<rect x="484.019" y="168.013" transform="matrix(0.7071 0.7071 -0.7071 0.7071 265.3096 -302.3124)" style="fill:#A2BFE4;" width="27.144" height="2.199"/>
								</g>
							</g>
							<g>
								<g>
									
										<rect x="496.492" y="155.54" transform="matrix(0.7071 0.7071 -0.7071 0.7071 265.3216 -302.3183)" style="fill:#A2BFE4;" width="2.199" height="27.144"/>
								</g>
							</g>
						</g>
						<g>
							<g>
								<g>
									<path style="fill:#A2BFE4;" d="M508.288,199.001h-21.394V177.61h21.394V199.001z M489.094,196.802h16.995v-16.993h-16.995
										V196.802z"/>
								</g>
							</g>
							<g>
								<g>
									
										<rect x="484.019" y="187.206" transform="matrix(0.7071 0.7071 -0.7071 0.7071 278.881 -296.6912)" style="fill:#A2BFE4;" width="27.144" height="2.199"/>
								</g>
							</g>
							<g>
								<g>
									
										<rect x="496.492" y="174.734" transform="matrix(0.7069 0.7073 -0.7073 0.7069 279.0456 -296.7654)" style="fill:#A2BFE4;" width="2.199" height="27.144"/>
								</g>
							</g>
						</g>
					</g>
					<g>
						<g>
							<g>
								<g>
									<path style="fill:#A2BFE4;" d="M546.479,45.166h-21.392V23.774h21.392V45.166z M527.285,42.967h16.994V25.973h-16.994
										V42.967z"/>
								</g>
							</g>
							<g>
								<g>
									
										<rect x="534.683" y="20.898" transform="matrix(0.7076 0.7067 -0.7067 0.7076 181.048 -368.537)" style="fill:#A2BFE4;" width="2.2" height="27.145"/>
								</g>
							</g>
							<g>
								<g>
									
										<rect x="522.211" y="33.37" transform="matrix(0.7071 0.7071 -0.7071 0.7071 181.2908 -368.7506)" style="fill:#A2BFE4;" width="27.144" height="2.2"/>
								</g>
							</g>
						</g>
						<g>
							<g>
								<g>
									<path style="fill:#A2BFE4;" d="M527.285,45.166h-21.392V23.774h21.392V45.166z M508.092,42.967h16.995V25.973h-16.995
										V42.967z"/>
								</g>
							</g>
							<g>
								<g>
									
										<rect x="515.489" y="20.898" transform="matrix(0.7073 0.7069 -0.7069 0.7073 175.5569 -355.0801)" style="fill:#A2BFE4;" width="2.199" height="27.144"/>
								</g>
							</g>
							<g>
								<g>
									
										<rect x="503.017" y="33.37" transform="matrix(0.7071 0.7071 -0.7071 0.7071 175.6792 -355.1871)" style="fill:#A2BFE4;" width="27.144" height="2.2"/>
								</g>
							</g>
						</g>
						<g>
							<g>
								<path style="fill:#A2BFE4;" d="M508.092,45.166h-21.393V23.774h21.393V45.166z M488.898,42.967h16.995V25.973h-16.995
									V42.967z"/>
							</g>
						</g>
						<g>
							<g>
								<g>
									<path style="fill:#A2BFE4;" d="M488.898,45.166h-21.393V23.774h21.393V45.166z M469.705,42.967h16.994V25.973h-16.994
										V42.967z"/>
								</g>
							</g>
							<g>
								<g>
									
										<rect x="477.103" y="20.898" transform="matrix(0.7073 0.7069 -0.7069 0.7073 164.3225 -327.9458)" style="fill:#A2BFE4;" width="2.199" height="27.144"/>
								</g>
							</g>
							<g>
								<g>
									
										<rect x="464.631" y="33.37" transform="matrix(0.7071 0.7071 -0.7071 0.7071 164.4363 -328.0443)" style="fill:#A2BFE4;" width="27.144" height="2.2"/>
								</g>
							</g>
						</g>
						<g>
							<g>
								<g>
									<path style="fill:#A2BFE4;" d="M469.705,45.166h-21.392V23.774h21.392V45.166z M450.512,42.967h16.994V25.973h-16.994
										V42.967z"/>
								</g>
							</g>
							<g>
								<g>
									
										<rect x="457.909" y="20.898" transform="matrix(0.7071 0.7071 -0.7071 0.7071 158.8145 -314.4722)" style="fill:#A2BFE4;" width="2.199" height="27.144"/>
								</g>
							</g>
							<g>
								<g>
									
										<rect x="445.437" y="33.37" transform="matrix(0.7071 0.7071 -0.7071 0.7071 158.8145 -314.4722)" style="fill:#A2BFE4;" width="27.144" height="2.199"/>
								</g>
							</g>
						</g>
						<g>
							<g>
								<g>
									<path style="fill:#A2BFE4;" d="M450.512,45.166h-21.393V23.774h21.393V45.166z M431.318,42.967h16.995V25.973h-16.995
										V42.967z"/>
								</g>
							</g>
							<g>
								<g>
									<path style="fill:#A2BFE4;" d="M430.219,45.166h-19.193c-0.444,0-0.845-0.267-1.017-0.679
										c-0.169-0.411-0.075-0.883,0.239-1.198l19.192-19.194l1.556,1.555l-17.315,17.316h16.082l18.872-18.872l1.555,1.555
										l-19.193,19.193C430.791,45.05,430.511,45.166,430.219,45.166z"/>
								</g>
							</g>
							<g>
								<g>
									
										<rect x="426.243" y="33.37" transform="matrix(0.7071 0.7071 -0.7071 0.7071 153.1844 -300.8932)" style="fill:#A2BFE4;" width="27.144" height="2.2"/>
								</g>
							</g>
						</g>
					</g>
				</g>
				<g>
					<g>
						<g>
							<path style="fill:#A2BFE4;" d="M508.61,220.371h-21.99v-21.393h21.99V220.371z M488.88,218.172h17.469v-16.994H488.88
								V218.172z"/>
						</g>
					</g>
					<g>
						<g>
							<polygon style="fill:#A2BFE4;" points="506.681,220.049 486.951,200.855 488.549,199.301 508.279,218.493 							"/>
						</g>
					</g>
					<g>
						<g>
							<polygon style="fill:#A2BFE4;" points="488.549,220.049 486.951,218.493 506.681,199.301 508.279,200.855 							"/>
						</g>
					</g>
				</g>
				<g>
					<g>
						<g>
							<path style="fill:#A2BFE4;" d="M508.61,297.144h-21.99v-21.393h21.99V297.144z M488.88,294.943h17.469V277.95H488.88V294.943
								z"/>
						</g>
					</g>
					<g>
						<g>
							<polygon style="fill:#A2BFE4;" points="506.681,296.821 486.951,277.628 488.549,276.073 508.279,295.266 							"/>
						</g>
					</g>
					<g>
						<g>
							<polygon style="fill:#A2BFE4;" points="488.549,296.821 486.951,295.266 506.681,276.073 508.279,277.628 							"/>
						</g>
					</g>
				</g>
			</g>
			<g>
				<g>
					<g>
						<path style="fill:#A2BFE4;" d="M508.61,237.744h-21.99v-21.393h21.99V237.744z M488.88,235.547h17.469v-16.996H488.88V235.547
							z"/>
					</g>
				</g>
				<g>
					<g>
						<polygon style="fill:#A2BFE4;" points="506.681,237.424 486.951,218.229 488.549,216.673 508.279,235.866 						"/>
					</g>
				</g>
				<g>
					<g>
						<polygon style="fill:#A2BFE4;" points="488.549,237.424 486.951,235.866 506.681,216.673 508.279,218.229 						"/>
					</g>
				</g>
			</g>
			<g>
				<g>
					<g>
						<path style="fill:#A2BFE4;" d="M508.61,256.937h-21.99v-21.39h21.99V256.937z M488.88,254.739h17.469v-16.995H488.88V254.739z
							"/>
					</g>
				</g>
				<g>
					<g>
						<polygon style="fill:#A2BFE4;" points="506.681,256.617 486.951,237.422 488.549,235.869 508.279,255.062 						"/>
					</g>
				</g>
				<g>
					<g>
						<polygon style="fill:#A2BFE4;" points="488.549,256.617 486.951,255.062 506.681,235.869 508.279,237.422 						"/>
					</g>
				</g>
			</g>
			<g>
				<g>
					<g>
						<path style="fill:#A2BFE4;" d="M508.61,276.132h-21.99v-21.393h21.99V276.132z M488.88,273.933h17.469v-16.996H488.88V273.933
							z"/>
					</g>
				</g>
				<g>
					<g>
						<polygon style="fill:#A2BFE4;" points="506.681,275.811 486.951,256.614 488.549,255.062 508.279,274.255 						"/>
					</g>
				</g>
				<g>
					<g>
						<polygon style="fill:#A2BFE4;" points="488.549,275.811 486.951,274.255 506.681,255.062 508.279,256.614 						"/>
					</g>
				</g>
			</g>
		</g>
	</g>
</g>
<g>
	<path style="fill:#415C92;" d="M263.204,119.461"/>
	<g>
		<path style="fill:#415C92;" d="M263.204,121.279c2.341,0,2.345-3.638,0-3.638C260.863,117.641,260.859,121.279,263.204,121.279
			L263.204,121.279z"/>
	</g>
</g>
<g>
	<path style="fill:#415C92;" d="M460.464,81.463"/>
	<g>
		<path style="fill:#415C92;" d="M460.464,83.283c2.341,0,2.345-3.639,0-3.639C458.123,79.645,458.118,83.283,460.464,83.283
			L460.464,83.283z"/>
	</g>
</g>
<g>
	<path style="fill:#415C92;" d="M542.117,211.624c0.27,0,0.539,0,0.809,0"/>
	<g>
		<path style="fill:#415C92;" d="M542.117,213.441c0.27,0,0.539,0,0.809,0c0.951,0,1.862-0.836,1.818-1.817
			c-0.044-0.986-0.799-1.82-1.818-1.82c-0.27,0-0.539,0-0.809,0c-0.953,0-1.864,0.836-1.819,1.82
			C540.341,212.608,541.097,213.441,542.117,213.441L542.117,213.441z"/>
	</g>
</g>
<g>
	<path style="fill:#415C92;" d="M191.253,238.301"/>
	<g>
		<path style="fill:#415C92;" d="M191.253,240.121c2.341,0,2.345-3.638,0-3.638C188.912,236.483,188.908,240.121,191.253,240.121
			L191.253,240.121z"/>
	</g>
</g>
<g>
	<path style="fill:#415C92;" d="M365.067,63.678"/>
	<g>
		<path style="fill:#415C92;" d="M365.067,65.497c2.341,0,2.346-3.638,0-3.638C362.727,61.859,362.723,65.497,365.067,65.497
			L365.067,65.497z"/>
	</g>
</g>
</svg>
