<?xml version="1.0" encoding="utf-8"?>
<!-- Generator: Adobe Illustrator 16.0.0, SVG Export Plug-In . SVG Version: 6.00 Build 0)  -->
<!DOCTYPE svg PUBLIC "-//W3C//DTD SVG 1.1//EN" "http://www.w3.org/Graphics/SVG/1.1/DTD/svg11.dtd">
<svg version="1.1" id="Layer_1" xmlns="http://www.w3.org/2000/svg" xmlns:xlink="http://www.w3.org/1999/xlink" x="0px" y="0px"
	 width="640px" height="300px" viewBox="0 0 640 300" enable-background="new 0 0 640 300" xml:space="preserve">
<g opacity="0.3">
	<g>
		<circle fill="#52909D" cx="70.385" cy="162.819" r="1.265"/>
		<circle fill="#52909D" cx="41.294" cy="189.381" r="0.949"/>
		<circle fill="#52909D" cx="22.955" cy="269.064" r="2.846"/>
		<circle fill="#52909D" cx="56.579" cy="104.953" r="2.529"/>
		<circle fill="#52909D" cx="407.145" cy="64.163" r="1.897"/>
		<circle fill="#52909D" cx="427.697" cy="154.281" r="3.162"/>
		<circle fill="#52909D" cx="469.121" cy="167.245" r="0.949"/>
		<circle fill="#52909D" cx="395.287" cy="116.811" r="0.791"/>
		<circle fill="#52909D" cx="475.919" cy="295.783" r="1.739"/>
		<circle fill="#52909D" cx="466.433" cy="217.049" r="2.688"/>
	</g>
	<g>
		<circle fill="none" stroke="#52909D" stroke-miterlimit="10" cx="68.981" cy="61.226" r="6.465"/>
		<circle fill="none" stroke="#52909D" stroke-miterlimit="10" cx="85.532" cy="130.533" r="3.103"/>
		<circle fill="none" stroke="#52909D" stroke-miterlimit="10" cx="400.798" cy="162.214" r="1.938"/>
		<circle fill="none" stroke="#52909D" stroke-miterlimit="10" cx="357.093" cy="200.488" r="0.646"/>
		<circle fill="none" stroke="#52909D" stroke-miterlimit="10" cx="470.882" cy="196.609" r="2.974"/>
		<circle fill="none" stroke="#52909D" stroke-miterlimit="10" cx="239.425" cy="299.537" r="2.198"/>
		<circle fill="none" stroke="#52909D" stroke-miterlimit="10" cx="21.802" cy="288.287" r="2.586"/>
		<circle fill="none" stroke="#52909D" stroke-miterlimit="10" cx="40.94" cy="160.79" r="3.879"/>
		<path fill="none" stroke="#52909D" stroke-miterlimit="10" d="M144.126,89.673"/>
		<circle fill="none" stroke="#52909D" stroke-miterlimit="10" cx="173.349" cy="43.64" r="1.552"/>
		<circle fill="none" stroke="#52909D" stroke-miterlimit="10" cx="397.985" cy="3.494" r="4.095"/>
		<circle fill="none" stroke="#52909D" stroke-miterlimit="10" cx="9.984" cy="10.456" r="3.867"/>
	</g>
</g>
<g>
	<g>
		<g>
			<path fill="#7CC46A" d="M51.056,288.896c-0.631-2.063-2.076-3.992-4.128-4.652c-2.053-0.662-4.657,0.341-5.296,2.398
				c-1.889-1.576-4.782-0.326-6.3,1.61c-2.454,3.131-0.558,8.261-0.148,8.595c0.442,0.357,1.642,0.297,1.642,0.297l18.364-0.104
				c0,0,3.368-0.247,4.923-0.866c3.129-1.245,5.257-6.632,3.243-9.329c-1.372-1.843-4.08-2.231-6.269-1.533
				C54.9,286.012,52.779,287.38,51.056,288.896"/>
		</g>
		<g>
			<path fill="#51AA50" d="M36.563,297.758c-0.465,0-1.295-0.063-1.762-0.441c-0.72-0.584-2.55-6.111,0.054-9.437
				c1.097-1.397,2.739-2.368,4.289-2.532c0.809-0.092,1.563,0.051,2.221,0.395c0.395-0.708,1.019-1.305,1.812-1.717
				c1.208-0.629,2.68-0.766,3.938-0.357c1.825,0.587,3.356,2.131,4.217,4.205c1.788-1.45,3.741-2.553,5.571-3.137
				c2.193-0.7,5.3-0.451,6.939,1.746c0.944,1.27,1.163,3.142,0.599,5.141c-0.674,2.384-2.284,4.395-4.103,5.118
				c-1.623,0.647-4.964,0.896-5.105,0.907l-18.403,0.104C36.769,297.753,36.677,297.758,36.563,297.758z M39.614,286.535
				c-0.112,0-0.227,0.004-0.344,0.018c-1.215,0.129-2.575,0.943-3.461,2.076c-2.155,2.75-0.545,7.336-0.193,7.797
				c0.081,0.061,0.688,0.143,1.176,0.112l18.393-0.103c-0.008,0,3.254-0.246,4.704-0.822c1.458-0.58,2.818-2.318,3.385-4.321
				c0.461-1.633,0.313-3.122-0.403-4.083c-1.283-1.725-3.804-1.893-5.598-1.318c-1.909,0.61-3.975,1.84-5.815,3.461
				c-0.154,0.137-0.368,0.187-0.565,0.131c-0.199-0.059-0.355-0.211-0.416-0.406c-0.647-2.119-2.044-3.709-3.734-4.256
				c-0.953-0.307-2.079-0.199-3.006,0.281c-0.762,0.396-1.303,1.006-1.524,1.722c-0.061,0.194-0.214,0.346-0.408,0.401
				c-0.192,0.059-0.403,0.015-0.56-0.115C40.787,286.727,40.238,286.535,39.614,286.535z"/>
		</g>
	</g>
	<g>
		<g>
			<g>
				<path fill="#51AA50" d="M31.744,288.202c-0.525,1.021-0.752,2.133-0.627,3.276c0.063,0.576,0.973,0.582,0.91,0
					c-0.108-0.988,0.046-1.934,0.501-2.817C32.796,288.141,32.011,287.68,31.744,288.202L31.744,288.202z"/>
			</g>
		</g>
	</g>
	<g>
		<g>
			<g>
				<path fill="#51AA50" d="M29.09,288.932c-0.286,1.026-0.307,2.055-0.078,3.096c0.125,0.574,1.002,0.332,0.877-0.237
					c-0.194-0.886-0.163-1.745,0.078-2.615C30.124,288.605,29.247,288.366,29.09,288.932L29.09,288.932z"/>
			</g>
		</g>
	</g>
	<g>
		<g>
			<g>
				<path fill="#51AA50" d="M34.191,287.085c0.585,0,0.587-0.908,0-0.908C33.606,286.177,33.605,287.085,34.191,287.085
					L34.191,287.085z"/>
			</g>
		</g>
	</g>
	<g>
		<g>
			<g>
				<path fill="#51AA50" d="M36.769,291.48c0,0.271,0,0.539,0,0.81c0,0.585,0.91,0.585,0.91,0c0-0.271,0-0.539,0-0.81
					C37.679,290.895,36.769,290.895,36.769,291.48L36.769,291.48z"/>
			</g>
		</g>
	</g>
	<g>
		<g>
			<g>
				<path fill="#51AA50" d="M52.129,292.896c0,0.135,0,0.27,0,0.402c0,0.584,0.909,0.588,0.909,0c0-0.135,0-0.271,0-0.402
					C53.038,292.311,52.129,292.309,52.129,292.896L52.129,292.896z"/>
			</g>
		</g>
	</g>
	<g>
		<g>
			<g>
				<path fill="#51AA50" d="M50.442,291.802c0.067,0.068,0.135,0.136,0.202,0.203c0.415,0.413,1.059-0.229,0.644-0.646
					c-0.066-0.065-0.134-0.135-0.201-0.2C50.672,290.744,50.028,291.389,50.442,291.802L50.442,291.802z"/>
			</g>
		</g>
	</g>
</g>
<g>
	<g>
		<path fill="#FFFFFF" d="M467.949,164.98h-0.879c0-0.729-0.594-1.317-1.319-1.317s-1.317,0.591-1.317,1.317h-0.881
			c0-1.211,0.986-2.198,2.198-2.198C466.964,162.782,467.949,163.77,467.949,164.98z"/>
	</g>
</g>
<g>
	<g>
		<path fill="#FFFFFF" d="M468.896,111.584c1.212,0,2.196,0.987,2.196,2.2h-0.879c0-0.728-0.592-1.32-1.317-1.32"/>
	</g>
</g>
<g>
	<g>
		<g>
			<path fill="#415C92" d="M361.64,291.695h-41.844l0.71-1.684c2.743-6.51,3.027-12.082,2.609-18.447l-0.084-1.289l35.276-0.108
				l0.011,1.208c0.028,4.115,1.145,13.461,2.817,18.741L361.64,291.695z M323.406,289.271h34.963
				c-1.346-5.09-2.261-12.446-2.442-16.672l-30.314,0.094C325.897,278.338,325.553,283.475,323.406,289.271z"/>
		</g>
	</g>
</g>
<g>
	<g>
		<g>
			<path fill="#415C92" d="M307.765,272.578c-31.768,0-57.5-0.174-58.632-0.577c-2.719-0.969-6.272-4.737-6.321-7.411
				c-0.103-5.787-0.352-13.671-0.64-22.799c-0.87-27.523-2.061-65.217-0.516-86.076c0.282-3.8,3.421-6.736,7.174-6.736
				c0.041,0,0.08,0,0.12,0l183.148,0.272c3.873,0.066,6.98,3.192,7.07,7.117c0.14,6.092,0.338,12.319,0.538,18.631
				c0.838,26.423,1.705,53.749-1.222,79.588c-0.115,1.019-0.166,2.146-0.221,3.31c-0.245,5.42-0.554,12.168-7.541,13.547
				C427.313,272.117,359.53,272.578,307.765,272.578z M248.845,150.928c-2.749,0-5.038,2.15-5.245,4.932
				c-1.538,20.757-0.349,58.392,0.52,85.869c0.29,9.137,0.539,17.025,0.642,22.826c0.03,1.688,2.849,4.832,5.026,5.609
				c3.899,0.797,176.087,0.207,180.563-0.633c5.486-1.086,5.732-6.493,5.974-11.727c0.055-1.214,0.107-2.381,0.229-3.44
				c2.91-25.695,2.045-52.95,1.209-79.306c-0.199-6.315-0.396-12.549-0.539-18.646c-0.063-2.873-2.324-5.162-5.146-5.213
				l-183.142-0.273C248.903,150.928,248.875,150.928,248.845,150.928z"/>
		</g>
	</g>
</g>
<g>
	<g>
		<path fill="#B9CEEB" d="M426.977,155.557l-172.561-0.229c-3.104-0.046-5.709,2.083-5.942,4.863
			c-1.933,23.096,0.702,71.285,1.092,90.68c0.038,1.891,3.123,4.725,5.346,5.426c2.616,0.827,166.603,0.204,170.612-0.497
			c7.195-1.257,5.972-8.626,6.574-13.345c3.415-26.676,1.317-55.67,0.639-81.76C432.663,157.87,430.123,155.604,426.977,155.557z"/>
	</g>
</g>
<g>
	<g>
		<g>
			<path fill="#415C92" d="M376.609,298.335h-71.8c-2.85,0-4.34-2.239-4.34-4.455s1.49-4.461,4.34-4.461h71.8
				c2.85,0,4.34,2.241,4.34,4.456S379.459,298.335,376.609,298.335z M304.809,291.367c-1.886,0-2.391,1.581-2.391,2.513
				c0,0.933,0.505,2.505,2.391,2.505h71.8c1.887,0,2.391-1.578,2.391-2.51s-0.504-2.508-2.391-2.508H304.809z"/>
		</g>
	</g>
</g>
<g>
	<g>
		<g>
			<g>
				<g>
					<path fill="#415C92" d="M254.806,263.279C254.382,263.279,254.382,263.279,254.806,263.279"/>
				</g>
			</g>
		</g>
		<g>
			<g>
				<g>
					<g>
						<path fill="#415C92" d="M254.806,265.784c3.225,0,3.229-5.013,0-5.013C251.582,260.771,251.576,265.784,254.806,265.784
							L254.806,265.784z"/>
					</g>
				</g>
			</g>
		</g>
	</g>
	<g>
		<g>
			<g>
				<g>
					<path fill="#415C92" d="M264.909,263.279C264.485,263.279,264.485,263.279,264.909,263.279"/>
				</g>
			</g>
		</g>
		<g>
			<g>
				<g>
					<g>
						<path fill="#415C92" d="M264.909,265.784c3.225,0,3.229-5.013,0-5.013C261.684,260.771,261.679,265.784,264.909,265.784
							L264.909,265.784z"/>
					</g>
				</g>
			</g>
		</g>
	</g>
	<g>
		<g>
			<g>
				<g>
					<path fill="#415C92" d="M275.011,263.279C274.588,263.279,274.588,263.279,275.011,263.279"/>
				</g>
			</g>
		</g>
		<g>
			<g>
				<g>
					<g>
						<path fill="#415C92" d="M275.011,265.784c3.225,0,3.23-5.013,0-5.013C271.787,260.771,271.781,265.784,275.011,265.784
							L275.011,265.784z"/>
					</g>
				</g>
			</g>
		</g>
	</g>
</g>
<g>
	<g>
		<g>
			<g>
				<path fill="#415C92" d="M340.708,152.891C340.51,152.891,340.51,152.891,340.708,152.891"/>
			</g>
		</g>
	</g>
	<g>
		<g>
			<g>
				<g>
					<path fill="#415C92" d="M340.708,154.064c1.515,0,1.517-2.352,0-2.352C339.196,151.715,339.194,154.064,340.708,154.064
						L340.708,154.064z"/>
				</g>
			</g>
		</g>
	</g>
</g>
<g>
	<g>
		<polygon fill="#B9CEEB" points="581.507,293.573 556.767,293.573 566.282,262.318 571.992,262.318 		"/>
	</g>
	<g>
		<rect x="554.723" y="293.573" fill="#B9CEEB" width="28.829" height="3.569"/>
	</g>
	<g>
		<polygon fill="#415C92" points="559.146,285.759 556.767,293.573 581.507,293.573 579.129,285.759 		"/>
	</g>
	<g>
		<polygon fill="#415C92" points="561.525,277.945 576.75,277.945 574.37,270.133 563.903,270.133 		"/>
	</g>
</g>
<g id="XMLID_11_">
	<g id="XMLID_493_">
		<path fill="#B9CEEB" d="M591.624,296.941h5.491v-21.258h28.18v21.258h5.49v-21.258h5.813V258.71h-4.638v-1.565h-7.999v1.565
			h-24.965v-1.565h-7.999v1.565h-5.092v16.974h5.718L591.624,296.941L591.624,296.941z M634.826,260.484v0.072l-3.384,13.354h-6.039
			l3.399-13.428h6.023V260.484z M619.077,273.912h-6.039l3.402-13.428h6.038L619.077,273.912z M606.713,273.912h-6.04l3.401-13.428
			h6.04L606.713,273.912z M591.71,260.484h6.039l-3.402,13.428h-6.038L591.71,260.484z"/>
	</g>
</g>
<g>
	<path fill="#D0EBE6" d="M639.921,300H0.452c-0.919,0-1.665-0.745-1.665-1.665c0-0.921,0.746-1.665,1.665-1.665h639.469
		c0.921,0,1.665,0.744,1.665,1.665C641.586,299.255,640.842,300,639.921,300z"/>
</g>
<g>
	<g>
		<g>
			<path fill="#B9CEEB" d="M420.658,131.885c-0.015,0.014-0.48,0.467-0.487,1.126c-0.005,0.498,0.246,1.003,0.748,1.504
				c0.532,0.531,1.089,0.801,1.654,0.801c0.681,0,1.161-0.393,1.166-0.396"/>
		</g>
	</g>
</g>
<g opacity="0.3">
	<g>
		<path fill="#415C92" d="M257.227,297.301c-0.669,0-1.212-0.541-1.212-1.213v-93.396c0-0.67,0.543-1.213,1.212-1.213
			c0.67,0,1.213,0.543,1.213,1.213v93.396C258.439,296.76,257.896,297.301,257.227,297.301z"/>
	</g>
	<g>
		<path fill="#415C92" d="M278.932,297.301c-0.67,0-1.213-0.541-1.213-1.213v-93.396c0-0.67,0.542-1.213,1.213-1.213
			c0.669,0,1.212,0.543,1.212,1.213v93.396C280.144,296.76,279.601,297.301,278.932,297.301z"/>
	</g>
	<g>
		<path fill="#415C92" d="M278.932,210.288h-21.705c-0.669,0-1.212-0.544-1.212-1.213s0.543-1.214,1.212-1.214h21.705
			c0.669,0,1.212,0.545,1.212,1.214S279.601,210.288,278.932,210.288z"/>
	</g>
	<g>
		<path fill="#415C92" d="M278.932,220.958h-21.705c-0.669,0-1.212-0.542-1.212-1.213c0-0.669,0.543-1.213,1.212-1.213h21.705
			c0.669,0,1.212,0.544,1.212,1.213C280.144,220.416,279.601,220.958,278.932,220.958z"/>
	</g>
	<g>
		<path fill="#415C92" d="M278.932,231.628h-21.705c-0.669,0-1.212-0.542-1.212-1.213c0-0.669,0.543-1.213,1.212-1.213h21.705
			c0.669,0,1.212,0.544,1.212,1.213C280.144,231.086,279.601,231.628,278.932,231.628z"/>
	</g>
	<g>
		<path fill="#415C92" d="M278.932,242.298h-21.705c-0.669,0-1.212-0.542-1.212-1.213c0-0.669,0.543-1.213,1.212-1.213h21.705
			c0.669,0,1.212,0.544,1.212,1.213C280.144,241.756,279.601,242.298,278.932,242.298z"/>
	</g>
	<g>
		<path fill="#415C92" d="M278.932,252.968h-21.705c-0.669,0-1.212-0.542-1.212-1.213c0-0.669,0.543-1.213,1.212-1.213h21.705
			c0.669,0,1.212,0.544,1.212,1.213C280.144,252.426,279.601,252.968,278.932,252.968z"/>
	</g>
	<g>
		<path fill="#415C92" d="M278.932,263.639h-21.705c-0.669,0-1.212-0.541-1.212-1.214c0-0.669,0.543-1.213,1.212-1.213h21.705
			c0.669,0,1.212,0.544,1.212,1.213C280.144,263.098,279.601,263.639,278.932,263.639z"/>
	</g>
	<g>
		<path fill="#415C92" d="M278.932,274.309h-21.705c-0.669,0-1.212-0.541-1.212-1.213c0-0.67,0.543-1.214,1.212-1.214h21.705
			c0.669,0,1.212,0.544,1.212,1.214C280.144,273.768,279.601,274.309,278.932,274.309z"/>
	</g>
	<g>
		<path fill="#415C92" d="M278.932,284.979h-21.705c-0.669,0-1.212-0.545-1.212-1.213c0-0.673,0.543-1.214,1.212-1.214h21.705
			c0.669,0,1.212,0.541,1.212,1.214C280.144,284.434,279.601,284.979,278.932,284.979z"/>
	</g>
</g>
<g>
	<g>
		<path fill="#415C92" d="M227.667,207.223c-0.669,0-1.212-0.543-1.212-1.212v-4.721c0-0.672,0.543-1.213,1.212-1.213
			c0.67,0,1.213,0.541,1.213,1.213v4.721C228.88,206.68,228.337,207.223,227.667,207.223z"/>
	</g>
	<g>
		<path fill="#415C92" d="M230.028,204.861h-4.721c-0.669,0-1.212-0.541-1.212-1.213c0-0.67,0.543-1.213,1.212-1.213h4.721
			c0.67,0,1.213,0.543,1.213,1.213C231.241,204.32,230.698,204.861,230.028,204.861z"/>
	</g>
</g>
<g>
	<g>
		<path fill="#415C92" d="M55.726,38.333c-0.671,0-1.213-0.543-1.213-1.213v-4.722c0-0.669,0.542-1.212,1.213-1.212
			c0.669,0,1.214,0.543,1.214,1.212v4.722C56.938,37.79,56.395,38.333,55.726,38.333z"/>
	</g>
	<g>
		<path fill="#415C92" d="M58.086,35.972h-4.721c-0.671,0-1.213-0.543-1.213-1.213c0-0.669,0.542-1.212,1.213-1.212h4.721
			c0.67,0,1.213,0.543,1.213,1.212C59.299,35.429,58.756,35.972,58.086,35.972z"/>
	</g>
</g>
<g>
	<g>
		<path fill="#415C92" d="M374.954,282.794c-0.109,0-0.222-0.017-0.334-0.046l-4.54-1.295c-0.646-0.186-1.016-0.855-0.832-1.5
			s0.854-1.01,1.498-0.834l4.54,1.295c0.645,0.186,1.018,0.855,0.833,1.501C375.968,282.447,375.481,282.794,374.954,282.794z"/>
	</g>
	<g>
		<path fill="#415C92" d="M372.035,284.415c-0.109,0-0.222-0.015-0.333-0.045c-0.646-0.187-1.019-0.854-0.834-1.498l1.297-4.541
			c0.186-0.644,0.854-1.013,1.499-0.833c0.645,0.186,1.019,0.854,0.833,1.498l-1.297,4.54
			C373.049,284.07,372.563,284.415,372.035,284.415z"/>
	</g>
</g>
<g>
	<g>
		<rect x="396.597" y="277.945" fill="#FFFFFF" width="7.813" height="7.813"/>
		<path fill="#415C92" d="M405.017,286.366h-9.024v-9.026h9.024V286.366z M397.203,285.152h6.601v-6.602h-6.601V285.152z"/>
	</g>
	<g>
		<g>
			<g>
				<path fill="#415C92" d="M414.299,279.663h-7.073c-0.27,0-0.486-0.218-0.486-0.486c0-0.272,0.219-0.489,0.486-0.489h7.073
					c0.271,0,0.488,0.217,0.488,0.489C414.787,279.445,414.568,279.663,414.299,279.663z"/>
			</g>
		</g>
		<g>
			<g>
				<path fill="#415C92" d="M416.956,285.02h-9.559c-0.365,0-0.66-0.221-0.66-0.49c0-0.269,0.295-0.486,0.66-0.486h9.559
					c0.364,0,0.66,0.219,0.66,0.486C417.616,284.799,417.32,285.02,416.956,285.02z"/>
			</g>
		</g>
		<g>
			<g>
				<path fill="#415C92" d="M420.438,282.191h-13.213c-0.27,0-0.486-0.221-0.486-0.489s0.219-0.488,0.486-0.488h13.213
					c0.271,0,0.487,0.22,0.487,0.488S420.708,282.191,420.438,282.191z"/>
			</g>
		</g>
	</g>
</g>
<g>
	<g>
		<g>
			<path fill="#B7E2E7" d="M183.799,96.371c-0.003,0.047-0.004,0.064-0.045,0.121c-0.031,0.052-0.074,0.114-0.119,0.168
				c-0.023,0.028-0.045,0.051-0.073,0.08c-0.029,0.031-0.059,0.059-0.09,0.084c-0.031,0.025-0.063,0.047-0.094,0.065
				c-0.029,0.016-0.076,0.047-0.112,0.06c-0.077,0.032-0.149,0.036-0.212,0.02c-0.061-0.023-0.12-0.057-0.174-0.101
				c-0.054-0.043-0.1-0.107-0.164-0.156c-0.061-0.054-0.13-0.072-0.201-0.135c-0.036-0.03-0.069-0.04-0.107-0.081
				c-0.036-0.033-0.073-0.068-0.112-0.105c-0.011-0.012-0.054-0.072-0.058-0.099c0.008-0.168,0.004-0.368-0.006-0.569
				c-0.009-0.201-0.026-0.411-0.043-0.621c-0.034-0.421-0.079-0.849-0.112-1.302l-0.017-0.292l-0.006-0.294l-0.007-0.533
				l-0.022-1.065c-0.021-0.707-0.055-1.408-0.119-2.1c-0.068-0.691-0.155-1.375-0.298-2.049c-0.131-0.678-0.305-1.34-0.529-1.974
				c-0.075-0.213-0.149-0.427-0.242-0.63l-0.132-0.31c-0.043-0.104-0.099-0.199-0.148-0.299c0,0-0.053-0.127-0.141-0.341
				c-0.051-0.103-0.112-0.227-0.181-0.366c-0.035-0.07-0.071-0.145-0.109-0.223c-0.041-0.075-0.089-0.15-0.135-0.231
				c-0.176-0.324-0.43-0.677-0.681-1.016c-0.25-0.335-0.557-0.641-0.857-0.935c-0.257-0.24-0.474-0.451-0.639-0.632
				c-0.162-0.188-0.281-0.333-0.349-0.46c-0.142-0.246-0.127-0.349-0.022-0.35c0.054-0.001,0.131,0.021,0.226,0.063
				c0.047,0.021,0.1,0.046,0.155,0.076c0.059,0.027,0.123,0.059,0.189,0.093c0.264,0.142,0.612,0.319,0.999,0.548
				c-0.032-0.033,0.176,0.086,0.514,0.32c0.166,0.123,0.372,0.268,0.57,0.456c0.051,0.046,0.103,0.093,0.155,0.14
				c0.048,0.048,0.097,0.098,0.146,0.147c0.098,0.1,0.199,0.203,0.299,0.304c0.104,0.1,0.19,0.217,0.283,0.327
				c0.091,0.111,0.181,0.221,0.268,0.327c0.162,0.221,0.303,0.434,0.429,0.616c0.119,0.186,0.206,0.346,0.272,0.457
				c0.064,0.112,0.102,0.175,0.102,0.175c0.186,0.402,0.361,0.81,0.501,1.225c0.253,0.72,0.445,1.452,0.587,2.183
				c0.155,0.731,0.25,1.475,0.324,2.211c0.069,0.738,0.104,1.472,0.126,2.201l0.023,1.088l0.008,0.543l0.005,0.244l0.014,0.246
				c0.029,0.409,0.075,0.841,0.111,1.28c0.018,0.221,0.036,0.442,0.046,0.673C183.804,95.875,183.812,96.107,183.799,96.371z"/>
		</g>
	</g>
	<g>
		<g>
			<path fill="#B7E2E7" d="M157.962,81.427c0.02-0.028,0.026-0.039,0.083-0.056c0.171-0.066,0.432-0.128,0.691-0.068
				c0.252,0.063,0.508,0.253,0.553,0.838c0.001,0.02-0.004,0.108-0.021,0.144c-0.525,0.783-1.081,1.428-1.52,2.1l-0.133,0.203
				l-0.112,0.194c-0.036,0.067-0.079,0.123-0.11,0.2l-0.098,0.221l-0.099,0.22l-0.091,0.231c-0.059,0.154-0.125,0.306-0.174,0.463
				c-0.221,0.624-0.388,1.264-0.492,1.914c-0.034,0.162-0.046,0.325-0.069,0.488c-0.024,0.161-0.037,0.33-0.048,0.498
				c-0.023,0.331-0.055,0.687-0.066,1.022c-0.029,0.675-0.024,1.358,0.012,2.04c0.022,0.467,0.061,0.934,0.107,1.399
				c0,0,0.006,0.145,0.016,0.387c0.007,0.243,0.029,0.582,0.052,0.974c0.053,0.783,0.157,1.767,0.28,2.58
				c0.063,0.341,0.114,0.624,0.156,0.856c0.038,0.233,0.071,0.411,0.085,0.547c0.027,0.273-0.015,0.372-0.115,0.335
				c-0.097-0.037-0.253-0.21-0.433-0.481c-0.084-0.136-0.176-0.297-0.271-0.476c-0.087-0.181-0.177-0.378-0.268-0.588
				c0.004,0.048-0.083-0.182-0.217-0.558c-0.063-0.189-0.131-0.415-0.207-0.659c-0.066-0.246-0.144-0.51-0.209-0.778
				c-0.132-0.535-0.249-1.081-0.322-1.495c-0.078-0.412-0.117-0.691-0.117-0.691c-0.042-0.424-0.072-0.848-0.094-1.274
				c-0.038-0.724-0.044-1.451-0.013-2.183c0.013-0.368,0.043-0.715,0.07-1.086c0.013-0.183,0.026-0.366,0.053-0.553
				c0.026-0.186,0.042-0.374,0.079-0.558c0.119-0.74,0.308-1.468,0.557-2.173c0.056-0.178,0.129-0.351,0.196-0.524l0.104-0.261
				l0.117-0.262c0.078-0.175,0.15-0.348,0.26-0.525l0.152-0.264l0.156-0.239C156.953,82.752,157.527,82.082,157.962,81.427z"/>
		</g>
	</g>
	<g>
		<g>
			<path fill="#B7E2E7" d="M157.841,99.093c-0.026,0.043-0.033,0.058-0.101,0.094c-0.111,0.07-0.253,0.136-0.409,0.163
				c-0.151,0.027-0.313,0.003-0.413-0.079c-0.049-0.043-0.092-0.095-0.128-0.156c-0.035-0.06-0.059-0.133-0.089-0.207
				c-0.057-0.146-0.132-0.299-0.203-0.496c-0.005-0.012-0.019-0.079-0.011-0.104c0.078-0.132,0.157-0.309,0.237-0.498
				c0.081-0.191,0.163-0.396,0.27-0.625c0.028-0.058,0.058-0.118,0.092-0.181l0.057-0.101c0.02-0.036,0.034-0.051,0.051-0.078
				l0.197-0.288c0.133-0.189,0.258-0.39,0.399-0.568l0.528-0.663l0.547-0.626c0.366-0.408,0.72-0.784,1.105-1.205l0.283-0.308
				l0.303-0.294c0.204-0.192,0.401-0.396,0.612-0.574l0.314-0.275c0.062-0.053,0.315-0.282,0.51-0.428l1.222-0.958l0.077-0.061
				l0.038-0.03l0.02-0.015c0.004,0.002,0.006,0.014,0.009,0.02l0.069,0.183l0.138,0.365l0.27,0.718
				c0.047,0.116,0.083,0.246,0.122,0.373l0.115,0.381l0.074,0.254l0.054,0.19l0.109,0.362c0.038,0.119,0.081,0.225,0.12,0.339
				c0.018,0.058,0.044,0.105,0.067,0.158l0.063,0.142l0.005,0.012c0.001,0.001-0.002,0,0.005,0.001l0.092,0.003
				c0.072,0.002,0.145,0.003,0.214,0.011c0.28,0.024,0.566,0.042,0.837,0.076l1.6,0.186c0.232,0.024,0.458,0.039,0.688,0.058
				c0.225,0.008,0.449,0.017,0.672,0.02c0,0,0.136,0.006,0.364,0.015c0.225,0.024,0.563-0.008,0.947-0.014
				c0.192-0.008,0.399-0.005,0.612-0.021c0.214-0.021,0.434-0.042,0.655-0.064c0.222-0.024,0.448-0.03,0.666-0.066
				c0.219-0.031,0.435-0.06,0.64-0.085c0.174-0.024,0.333-0.046,0.479-0.067c0.145-0.024,0.275-0.043,0.394-0.059
				c0.236-0.031,0.421-0.046,0.559-0.047c0.277-0.001,0.368,0.052,0.322,0.147c-0.047,0.094-0.233,0.228-0.51,0.383
				c-0.277,0.156-0.643,0.335-1.066,0.491c0.047-0.004-0.182,0.082-0.555,0.212c-0.184,0.072-0.416,0.125-0.662,0.196
				c-0.249,0.067-0.515,0.139-0.784,0.212c-0.275,0.05-0.552,0.102-0.813,0.15c-0.131,0.023-0.258,0.046-0.378,0.068
				c-0.061,0.011-0.119,0.021-0.176,0.032c-0.059,0.005-0.116,0.011-0.171,0.016c-0.22,0.021-0.405,0.038-0.534,0.049
				c-0.128,0.005-0.201,0.007-0.201,0.007c-0.445-0.007-0.879-0.041-1.305-0.082l-1.608-0.187c-0.264-0.033-0.515-0.046-0.771-0.069
				c-0.064-0.007-0.126-0.008-0.189-0.01l-0.313-0.01l-0.399-0.015l-0.2-0.01c-0.015-0.003-0.037,0.005-0.046-0.007l-0.025-0.044
				l-0.05-0.087l-0.197-0.35l-0.099-0.175c-0.032-0.058-0.07-0.12-0.089-0.168l-0.102-0.227c-0.03-0.071-0.066-0.143-0.09-0.213
				c-0.05-0.141-0.106-0.285-0.149-0.423l-0.125-0.411l-0.095-0.333l-0.394,0.345c-0.201,0.168-0.376,0.354-0.564,0.53l-0.277,0.268
				l-0.263,0.287c-0.341,0.374-0.725,0.782-1.077,1.175l-0.515,0.59l-0.478,0.6c-0.126,0.161-0.229,0.329-0.345,0.493l-0.17,0.247
				c-0.012,0.019-0.033,0.045-0.038,0.057l-0.022,0.04l-0.054,0.108c-0.076,0.161-0.156,0.358-0.243,0.565
				C158.075,98.63,157.98,98.851,157.841,99.093z"/>
		</g>
	</g>
	<g>
		<g>
			<path fill="#B7E2E7" d="M178.206,79.506c-0.004,0.039-0.006,0.053-0.048,0.099c-0.253,0.33-0.862,0.755-1.457-0.122
				c-0.011-0.017-0.049-0.091-0.052-0.127c0.087-0.849,0.142-1.698,0.19-2.547c0.18-3.559-0.061-7.132-0.928-10.559
				c-0.43-1.713-1.013-3.386-1.735-5c-0.09-0.202-0.175-0.406-0.271-0.605l-0.295-0.594l-0.295-0.595
				c-0.103-0.196-0.213-0.389-0.319-0.583c-0.215-0.386-0.419-0.784-0.661-1.142l-0.349-0.55l-0.174-0.275l-0.195-0.262
				l-0.391-0.524c-0.133-0.173-0.252-0.355-0.401-0.517c-0.286-0.332-0.568-0.668-0.856-0.996l-0.899-0.936
				c-0.066-0.073-0.171-0.169-0.261-0.257c-0.097-0.089-0.174-0.182-0.259-0.272c-0.172-0.184-0.315-0.366-0.471-0.549
				c-0.295-0.369-0.58-0.738-0.852-1.128c-0.069-0.094-0.136-0.2-0.204-0.3c-0.068-0.098-0.134-0.207-0.199-0.318
				c-0.058-0.09-0.156-0.271-0.208-0.405c-0.029-0.07-0.049-0.13-0.073-0.195l-0.059-0.175l-0.11-0.334l-0.001-0.002
				c-0.001-0.001-0.004-0.001-0.004,0.001c-0.005,0.058,0.012-0.22-0.017,0.51c-0.012,0.14-0.021,0.285-0.081,0.501l-0.031,0.093
				l-0.02,0.052l-0.031,0.079l-0.063,0.158c-0.018,0.049-0.046,0.111-0.076,0.174l-0.087,0.185c-0.059,0.13-0.118,0.227-0.177,0.34
				c-0.482,0.867-1.051,1.604-1.584,2.332c-0.268,0.362-0.53,0.719-0.769,1.077c-0.243,0.362-0.451,0.707-0.644,1.09
				c-0.405,0.803-0.829,1.601-1.199,2.412c-0.445,0.904-0.825,1.829-1.22,2.749l-0.52,1.393l-0.13,0.348l-0.103,0.355l-0.205,0.71
				c-0.526,1.91-0.868,3.879-1.022,5.86c-0.038,0.495-0.054,0.993-0.082,1.489c-0.01,0.497-0.008,0.994-0.013,1.492l0.052,1.427
				c0.039,0.348,0.06,0.691,0.113,1.041c0,0,0.01,0.144,0.026,0.384c0.011,0.241,0.05,0.581,0.083,0.973
				c0.079,0.786,0.202,1.789,0.271,2.63c0.074,0.711,0.086,1.181,0.058,1.457c-0.027,0.276-0.092,0.358-0.181,0.3
				c-0.179-0.117-0.449-0.79-0.732-1.622c0.005,0.091-0.305-0.907-0.594-1.959c-0.072-0.263-0.144-0.527-0.203-0.781
				c-0.059-0.253-0.123-0.488-0.162-0.695c-0.084-0.414-0.141-0.692-0.141-0.692l-0.056-0.546c-0.016-0.182-0.042-0.366-0.043-0.543
				l-0.022-0.586l-0.027-0.748l0.005-0.745l0.005-0.745l0.037-0.744l0.038-0.745l0.07-0.742c0.188-1.98,0.552-3.938,1.1-5.859
				l0.208-0.721c0.07-0.241,0.169-0.469,0.252-0.704c0.176-0.465,0.343-0.937,0.528-1.397l0.583-1.361l0.146-0.34l0.158-0.333
				l0.315-0.667c0.383-0.837,0.81-1.639,1.22-2.454c0.214-0.427,0.475-0.859,0.738-1.249c0.264-0.395,0.539-0.768,0.809-1.134
				c0.539-0.731,1.074-1.438,1.472-2.157c0.045-0.087,0.104-0.185,0.137-0.262l0.058-0.122c0.02-0.039,0.04-0.079,0.061-0.136
				l0.063-0.158l0.031-0.079l0.008-0.021c-0.053-0.024,0.514,0.185,0.253,0.087l-0.04-0.017c-0.054-0.021-0.108-0.037-0.164-0.051
				l-0.051-0.016v-0.001v-0.002c0,0,0.002-0.003,0.002-0.01c0.002-0.01,0.004-0.02,0.006-0.038c0.004-0.03,0.008-0.071,0.011-0.116
				c0.006-0.088,0.009-0.191,0.011-0.299l0.003-0.213c0.003-0.113,0.004-0.226,0.01-0.338c0.01-0.224,0.03-0.445,0.072-0.644
				c0.044-0.198,0.109-0.37,0.193-0.511c0.085-0.141,0.183-0.256,0.311-0.348c0.125-0.094,0.291-0.168,0.463-0.197
				c0.085-0.016,0.169-0.017,0.253-0.015c0.086,0.011,0.174,0.021,0.259,0.041c0.167,0.045,0.332,0.091,0.48,0.182
				c0.301,0.168,0.564,0.465,0.76,0.858c0.055,0.091,0.089,0.203,0.135,0.304c0.022,0.051,0.042,0.104,0.062,0.156l0.05,0.144
				l0.108,0.331l0.049,0.146c0.016,0.041,0.032,0.088,0.046,0.123c0.032,0.077,0.042,0.094,0.104,0.197
				c0.05,0.084,0.1,0.169,0.162,0.257c0.06,0.087,0.113,0.174,0.178,0.262c0.246,0.353,0.515,0.701,0.785,1.039
				c0.138,0.162,0.275,0.337,0.414,0.482c0.069,0.075,0.137,0.157,0.208,0.22c0.072,0.069,0.134,0.126,0.222,0.219l0.985,1.023
				c0.31,0.352,0.61,0.709,0.916,1.064c0.157,0.173,0.289,0.37,0.432,0.556l0.421,0.565l0.209,0.283l0.189,0.299l0.379,0.597
				c0.264,0.396,0.475,0.804,0.7,1.209c0.111,0.203,0.225,0.404,0.333,0.609l0.309,0.623l0.309,0.623
				c0.1,0.209,0.189,0.423,0.284,0.635c0.757,1.693,1.371,3.454,1.824,5.255c0.912,3.605,1.159,7.344,0.974,11.016
				C178.351,77.76,178.294,78.636,178.206,79.506z"/>
		</g>
	</g>
	<g>
		<g>
			<path fill="#B7E2E7" d="M183.615,96.197c0.022,0.035,0.03,0.047,0.027,0.111c0.002,0.054,0,0.112-0.006,0.172
				c-0.002,0.014-0.004,0.03-0.006,0.045v0.001l0,0l0.044,0.552l-0.001,0.002l-0.006,0.008l-0.012,0.016l-0.025,0.032
				c-0.017,0.021-0.034,0.04-0.052,0.059l-0.027,0.027l-0.036,0.033c-0.042,0.04-0.089,0.074-0.139,0.101
				c-0.025,0.014-0.05,0.026-0.075,0.035c-0.024,0.01-0.048,0.018-0.086,0.026c-0.068,0.014-0.143,0.016-0.21,0.006
				c-0.03-0.005-0.073-0.014-0.087-0.021c-0.017-0.007-0.034-0.016-0.05-0.024c-0.032-0.018-0.063-0.038-0.089-0.06
				c-0.034-0.026-0.032-0.035-0.043-0.051c-0.009-0.014-0.017-0.028-0.024-0.042c-0.019-0.031-0.016-0.049-0.018-0.069
				c0-0.021-0.002-0.04,0.002-0.056c0.016-0.065,0.053-0.111,0.087-0.166c0.029-0.059,0.067-0.114,0.117-0.164
				c0.05-0.049,0.106-0.098,0.195-0.118l0.061-0.02c0.022-0.005,0.042-0.013,0.058-0.024l0.025-0.017
				c0.013-0.015-0.031,0.036-0.024,0.028l-0.011,0.01l-0.023,0.022c-0.015,0.016-0.029,0.032-0.042,0.05
				c-0.014,0.017-0.027,0.036-0.04,0.056l-0.018,0.029l-0.01,0.011c-0.012,0.015-0.021,0.038-0.023,0.058
				c-0.002,0-0.004,0.006-0.002,0.011c-0.004-0.017-0.015-0.03-0.029-0.037c-0.017-0.011-0.057-0.047-0.09-0.062
				c-0.018-0.009-0.036-0.016-0.055-0.021l-0.015-0.004l-0.007-0.002h-0.002c-0.478,0.821-0.133,0.227-0.24,0.411h-0.001
				l-0.011-0.002c-0.056-0.011-0.116-0.025-0.177-0.042c-0.019-0.005-0.092-0.037-0.116-0.061c-0.433-0.673-0.95-1.291-1.535-1.853
				l-0.137-0.136c-0.329-0.312-0.685-0.602-1.046-0.888c0,0-0.108-0.094-0.29-0.252c-0.179-0.161-0.442-0.378-0.745-0.632
				c-0.608-0.504-1.407-1.133-2.039-1.7c-0.546-0.464-0.875-0.805-1.041-1.028c-0.167-0.222-0.173-0.327-0.068-0.343
				c0.105-0.017,0.322,0.052,0.605,0.179c0.287,0.124,0.642,0.303,1.03,0.505c-0.068-0.061,0.841,0.444,1.782,0.984
				c0.47,0.273,0.944,0.561,1.297,0.792c0.176,0.117,0.324,0.214,0.427,0.283c0.102,0.072,0.16,0.113,0.16,0.113
				c0.339,0.267,0.671,0.549,0.99,0.848l0.157,0.15C182.511,94.702,183.113,95.417,183.615,96.197z"/>
		</g>
	</g>
	<g>
		<g>
			<path fill="#B7E2E7" d="M174.633,90.573c0.001-0.006,0.001-0.008,0.04-0.012c0.227-0.024,0.805-0.072,1.454,0.158
				c0.012,0.004,0.054,0.023,0.06,0.032c-0.001,0.005-0.008,0.054-0.02,0.138c-0.013,0.082-0.023,0.205-0.051,0.336
				c-0.028,0.134-0.056,0.291-0.093,0.454c-0.041,0.161-0.081,0.333-0.126,0.501c-0.092,0.335-0.193,0.662-0.271,0.903
				c-0.08,0.24-0.133,0.399-0.133,0.399s-0.292,0.361-0.616,0.565c-0.482,0.37-0.742,0.064-0.813-0.294
				c-0.021,0.01-0.028-0.192-0.032-0.395c-0.002-0.203-0.004-0.406-0.004-0.406s0.049-0.149,0.123-0.374
				c0.035-0.112,0.075-0.243,0.119-0.382c0.04-0.14,0.082-0.289,0.124-0.438c0.037-0.148,0.073-0.296,0.107-0.435
				c0.028-0.137,0.054-0.266,0.076-0.377C174.616,90.727,174.629,90.582,174.633,90.573z"/>
		</g>
	</g>
	<g>
		<g>
			<path fill="#B7E2E7" d="M167.868,62.42c-0.025-0.001-0.032-0.006-0.066-0.041c-0.113-0.112-0.303-0.285-0.412-0.526
				c-0.052-0.119-0.078-0.26-0.035-0.418c0.046-0.156,0.157-0.347,0.423-0.518c0.019-0.015,0.114-0.058,0.164-0.06
				c0.582,0.022,1.188,0.243,1.643,0.619c0.464,0.368,0.782,0.854,0.987,1.358c0.235,0.596,0.321,1.231,0.255,1.866
				c-0.068,0.632-0.306,1.277-0.745,1.802c-0.108,0.132-0.232,0.251-0.359,0.364l-0.198,0.155l-0.188,0.125
				c-0.125,0.083-0.249,0.166-0.395,0.233l-0.21,0.105c-0.07,0.035-0.151,0.059-0.226,0.088l-0.229,0.082l-0.245,0.055
				c-0.161,0.043-0.334,0.051-0.505,0.064c-0.085,0.009-0.173,0-0.259-0.004c-0.086-0.007-0.173-0.008-0.259-0.022
				c-0.169-0.035-0.344-0.06-0.504-0.125c-0.317-0.097-0.594-0.267-0.853-0.446c-0.246-0.194-0.474-0.406-0.656-0.646
				c0,0-0.115-0.149-0.259-0.42c-0.14-0.272-0.308-0.666-0.391-1.143c-0.085-0.475-0.088-1.038,0.079-1.582
				c0.096-0.269,0.212-0.534,0.394-0.755c0.167-0.229,0.388-0.401,0.6-0.535c0.372-0.22,0.708-0.279,0.967-0.304
				c0.262-0.01,0.456,0.002,0.595,0.044c0.277,0.07,0.338,0.153,0.265,0.228c-0.037,0.039-0.106,0.079-0.201,0.118
				c-0.047,0.019-0.101,0.038-0.159,0.057c-0.057,0.024-0.119,0.05-0.185,0.077c-0.261,0.103-0.575,0.255-0.792,0.498
				c0.036-0.011-0.106,0.104-0.229,0.344c-0.015,0.03-0.03,0.062-0.046,0.095c-0.014,0.035-0.023,0.073-0.037,0.111
				c-0.03,0.072-0.039,0.162-0.059,0.25c-0.019,0.183-0.031,0.384,0.008,0.593c0.058,0.417,0.252,0.821,0.43,1.081
				c0.092,0.129,0.173,0.23,0.237,0.292c0.059,0.068,0.098,0.099,0.098,0.099c0.205,0.223,0.443,0.386,0.691,0.469
				c0.301,0.11,0.626,0.086,0.968-0.038c0.042-0.017,0.086-0.026,0.128-0.048l0.127-0.066c0.043-0.023,0.086-0.038,0.129-0.067
				l0.128-0.086l0.129-0.084l0.101-0.079c0.062-0.056,0.122-0.111,0.173-0.176c0.211-0.253,0.35-0.595,0.39-0.969
				c0.039-0.373-0.015-0.769-0.153-1.116c-0.12-0.293-0.296-0.551-0.513-0.72C168.396,62.522,168.148,62.434,167.868,62.42z"/>
		</g>
	</g>
	<g>
		<g>
			<path fill="#B7E2E7" d="M174.181,98.318c-0.021-0.016-0.027-0.022-0.037-0.069c-0.038-0.156-0.103-0.394-0.078-0.659
				c0.014-0.129,0.061-0.265,0.177-0.38c0.116-0.111,0.318-0.219,0.635-0.225c0.023-0.001,0.129,0.008,0.17,0.032
				c0.475,0.323,0.839,0.741,1.106,1.175c0.271,0.435,0.466,0.888,0.619,1.342c0.314,0.953,0.452,1.917,0.486,2.882
				c0.008,0.241,0.009,0.482,0.002,0.724c0,0.096-0.009,0.217-0.017,0.325l-0.023,0.334l-0.012,0.167l-0.021,0.16l-0.042,0.318
				l-0.021,0.159l-0.028,0.147l-0.058,0.295c-0.018,0.102-0.042,0.189-0.064,0.278l-0.069,0.268
				c-0.047,0.174-0.104,0.32-0.155,0.481c-0.056,0.146-0.113,0.282-0.17,0.422l-0.64,1.502l-0.186,0.435l-0.215,0.504l-0.093,0.217
				c-0.001,0.002-0.004,0.016-0.005,0.007l-0.004-0.031l-0.007-0.063l-0.015-0.124l-0.029-0.25l-0.119-0.999l-0.06-0.499
				l-0.015-0.125l-0.007-0.063l-0.007-0.042l-0.025-0.156l-0.103-0.624l-0.103-0.623l-0.051-0.312l-0.026-0.156
				c-0.012-0.056-0.005-0.091-0.046-0.178l-0.188-0.455l-0.093-0.228c-0.001-0.004,0,0,0,0l0.008,0.013c0,0.001,0,0,0,0
				l-0.002-0.002v0.002l-0.03,0.238c-0.106,0.766-0.233,1.529-0.392,2.287c-0.285,1.346-0.651,2.679-1.139,3.979
				c-0.241,0.651-0.523,1.29-0.828,1.92l-0.425,0.777c-0.074,0.133-0.14,0.258-0.221,0.398l-0.25,0.427l-0.25,0.427l-0.125,0.213
				c-0.01,0.016-0.021,0.041-0.031,0.048l-0.037-0.049l-0.074-0.099l-0.589-0.785c-0.103-0.135-0.183-0.251-0.274-0.375l-0.265-0.37
				l-0.265-0.369l-0.151-0.221c-0.195-0.283-0.383-0.569-0.568-0.858c-0.37-0.577-0.726-1.166-1.058-1.77
				c-0.339-0.599-0.643-1.221-0.938-1.848c-0.279-0.636-0.553-1.276-0.77-1.944c-0.058-0.165-0.115-0.331-0.162-0.501l-0.037-0.127
				l-0.019-0.063l0,0l0,0l-0.001-0.005c0-0.004,0-0.009-0.002-0.003l-0.002,0.005l-0.308,0.551l-0.549,0.978l-0.493,0.811
				l-0.493,0.811c-0.005,0.007-0.011,0.02-0.015,0.022l-0.008-0.029l-0.016-0.058l-0.031-0.115l-0.063-0.231l-0.124-0.462
				l-0.244-0.914l-0.12-0.451c-0.039-0.152-0.083-0.296-0.113-0.461l-0.198-0.966c-0.016-0.077-0.037-0.174-0.04-0.212l-0.018-0.132
				l-0.036-0.265c-0.088-0.707-0.125-1.434-0.059-2.175c0.067-0.739,0.243-1.497,0.587-2.204c0.077-0.18,0.189-0.345,0.287-0.516
				c0.104-0.167,0.227-0.324,0.345-0.481c0.256-0.301,0.534-0.585,0.844-0.82c0.083-0.063,0.165-0.128,0.25-0.189l0.26-0.167
				c0.171-0.118,0.356-0.202,0.535-0.3c0.181-0.092,0.367-0.166,0.551-0.249l0.42-0.152c0.162-0.06,0.327-0.099,0.49-0.149
				c0.164-0.052,0.328-0.083,0.492-0.123c0.164-0.04,0.328-0.07,0.493-0.099c0,0,0.634-0.086,1.473-0.075
				c0.839,0.003,1.877,0.101,2.714,0.265c0.712,0.119,1.165,0.244,1.421,0.352c0.257,0.105,0.317,0.191,0.236,0.259
				c-0.162,0.139-0.888,0.197-1.752,0.25c0.09,0.025-0.948,0.03-1.978,0.151c-0.258,0.03-0.515,0.06-0.754,0.101
				c-0.241,0.034-0.461,0.08-0.65,0.118c-0.19,0.034-0.343,0.077-0.452,0.103c-0.108,0.027-0.17,0.042-0.17,0.042
				c-0.128,0.023-0.251,0.057-0.376,0.085c-0.126,0.025-0.249,0.061-0.37,0.098l-0.183,0.053c-0.03,0.009-0.062,0.017-0.09,0.028
				l-0.129,0.047c-0.543,0.19-1.047,0.446-1.47,0.777c-0.904,0.676-1.369,1.743-1.472,2.936c-0.054,0.595-0.025,1.215,0.053,1.838
				l0.052,0.382l-0.077,0.146l-0.04,0.076l-0.004,0.01l0.029-0.056l0.06-0.115c0.042-0.077,0.078-0.155,0.111-0.234
				c0.035-0.081,0.07-0.153,0.104-0.241l0.102-0.266l0.203-0.53c0.266-0.705,0.553-1.423,0.792-2.11l0.374-1.04l0.187-0.521
				l0.09-0.251l0.011-0.031l0.005-0.016c0.002-0.003,0.004-0.016,0.004-0.004l0.008,0.073l0.017,0.147l0.278,2.508
				c0.025,0.217,0.048,0.452,0.076,0.656l0.091,0.566l0.091,0.566l0.045,0.283c0.016,0.093,0.028,0.194,0.05,0.272
				c0.039,0.168,0.078,0.336,0.128,0.495l0.085,0.294c0.042,0.153,0.094,0.304,0.147,0.456c0.197,0.608,0.452,1.203,0.711,1.795
				c0.276,0.586,0.561,1.17,0.883,1.738c0.314,0.572,0.653,1.132,1.007,1.684c0.177,0.276,0.357,0.55,0.543,0.82l0.158,0.231
				l0.044,0.063l0.068-0.131c0.279-0.577,0.54-1.166,0.764-1.773c0.455-1.212,0.802-2.473,1.073-3.751
				c0.15-0.72,0.271-1.446,0.372-2.176l0.042-0.328c0.024-0.186,0.046-0.373,0.065-0.564c0.039-0.38,0.065-0.778,0.099-1.166
				l0.093-1.164l0.022-0.29l0.011-0.145c0.002-0.01,0.001-0.028,0.004-0.032l0.02,0.018l0.038,0.036l0.335,0.317l0.841,0.794
				l0.2,0.189c0.066,0.066,0.135,0.119,0.199,0.204l0.391,0.47c0.065,0.08,0.132,0.152,0.194,0.238
				c0.062,0.089,0.125,0.174,0.185,0.267l0.172,0.308l0.042,0.075l-0.068-0.121l-0.135-0.242l-0.021-0.037l-0.001-0.64
				c-0.029-0.837-0.154-1.676-0.407-2.437c-0.122-0.364-0.274-0.708-0.461-1.007C174.647,98.722,174.42,98.482,174.181,98.318z"/>
		</g>
	</g>
</g>
<g>
	<g>
		<rect x="160.642" y="163.289" fill="#FFFFFF" width="7.813" height="7.813"/>
		<path fill="#415C92" d="M169.062,171.709h-9.025v-9.025h9.025V171.709z M161.249,170.496h6.6v-6.602h-6.6V170.496z"/>
	</g>
	<g>
		<g>
			<g>
				<path fill="#415C92" d="M150.753,165.007h7.073c0.271,0,0.488-0.218,0.488-0.487c0-0.271-0.218-0.487-0.488-0.487h-7.073
					c-0.27,0-0.488,0.219-0.488,0.487C150.265,164.789,150.483,165.007,150.753,165.007z"/>
			</g>
		</g>
		<g>
			<g>
				<path fill="#415C92" d="M148.096,170.361h9.56c0.364,0,0.659-0.219,0.659-0.487c0-0.271-0.295-0.489-0.659-0.489h-9.56
					c-0.365,0-0.66,0.219-0.66,0.489S147.731,170.361,148.096,170.361z"/>
			</g>
		</g>
		<g>
			<g>
				<path fill="#415C92" d="M144.614,167.533h13.212c0.271,0,0.488-0.219,0.488-0.488s-0.218-0.486-0.488-0.486h-13.212
					c-0.27,0-0.488,0.217-0.488,0.486S144.345,167.533,144.614,167.533z"/>
			</g>
		</g>
	</g>
</g>
<g>
	<g>
		<rect x="58.477" y="192.646" fill="#405C92" width="2.426" height="104.295"/>
	</g>
	<g>
		<path fill="#B9CEEB" d="M59.957,205.268h-0.533c-3.958,0-7.195-3.236-7.195-7.191v-9.639c0-3.957,3.237-7.193,7.195-7.193h0.533
			c3.957,0,7.195,3.236,7.195,7.193v9.639C67.152,202.029,63.914,205.268,59.957,205.268z"/>
	</g>
	<g>
		<g>
			<path fill="#405C92" d="M69.456,198.289c0.854,0.137,1.706,0.273,2.561,0.411c0.572,0.094,0.818-0.784,0.241-0.877
				c-0.854-0.138-1.706-0.274-2.56-0.411C69.125,197.32,68.88,198.197,69.456,198.289L69.456,198.289z"/>
		</g>
	</g>
	<g>
		<g>
			<path fill="#405C92" d="M69.368,192.732c0.67-0.119,1.335-0.135,2.01-0.071c0.583,0.055,0.579-0.854,0-0.908
				c-0.759-0.071-1.5-0.03-2.252,0.103C68.551,191.956,68.795,192.833,69.368,192.732L69.368,192.732z"/>
		</g>
	</g>
	<g>
		<g>
			<path fill="#405C92" d="M69.091,187.669c0.654-0.26,1.308-0.519,1.962-0.778c0.538-0.213,0.304-1.093-0.241-0.877
				c-0.654,0.26-1.309,0.52-1.963,0.778C68.312,187.005,68.546,187.886,69.091,187.669L69.091,187.669z"/>
		</g>
	</g>
	<g>
		<g>
			<path fill="#405C92" d="M46.791,199.136c0.671-0.094,1.321-0.249,1.963-0.468c0.55-0.188,0.313-1.066-0.242-0.877
				c-0.642,0.219-1.292,0.374-1.963,0.468C45.972,198.339,46.218,199.216,46.791,199.136L46.791,199.136z"/>
		</g>
	</g>
	<g>
		<g>
			<path fill="#405C92" d="M45.61,192.671c0.843,0.022,1.656,0.147,2.468,0.379c0.563,0.157,0.805-0.72,0.241-0.879
				c-0.886-0.249-1.789-0.384-2.709-0.409C45.025,191.746,45.025,192.654,45.61,192.671L45.61,192.671z"/>
		</g>
	</g>
	<g>
		<g>
			<path fill="#405C92" d="M46.405,185.188c0.654,0.211,1.309,0.418,1.964,0.627c0.559,0.181,0.798-0.697,0.241-0.877
				c-0.655-0.209-1.31-0.416-1.965-0.627C46.087,184.134,45.848,185.012,46.405,185.188L46.405,185.188z"/>
		</g>
	</g>
	<g>
		<polygon fill="#415C92" points="54.03,298.355 55.647,284.415 63.53,284.415 65.349,298.154 		"/>
	</g>
</g>
<g>
	<g>
		<g>
			<path fill="#D8E5F5" d="M306.059,214.509c9.788-8.851,19.576-17.7,29.365-26.55c1.451-1.311-0.699-3.451-2.143-2.145
				c-9.789,8.85-19.579,17.699-29.367,26.55C302.464,213.675,304.613,215.814,306.059,214.509L306.059,214.509z"/>
		</g>
	</g>
	<g>
		<g>
			<path fill="#D8E5F5" d="M339.247,228.049c9.788-8.85,19.576-17.699,29.366-26.549c1.45-1.313-0.699-3.449-2.146-2.143
				c-9.79,8.848-19.578,17.697-29.367,26.547C335.652,227.216,337.801,229.355,339.247,228.049L339.247,228.049z"/>
		</g>
	</g>
	<g>
		<g>
			<path fill="#D8E5F5" d="M303.183,238.079c20.518-20.006,41.033-40.013,61.549-60.019c1.397-1.363-0.745-3.508-2.145-2.145
				c-20.517,20.005-41.033,40.011-61.549,60.018C299.641,237.301,301.786,239.441,303.183,238.079L303.183,238.079z"/>
		</g>
	</g>
</g>
<g opacity="0.2">
	<g>
		<g>
			<g>
				<g>
					<rect x="395.938" y="51.45" fill="#415C92" width="1.319" height="84.702"/>
				</g>
			</g>
			<g>
				<g>
					<circle fill="#415C92" cx="396.597" cy="136.152" r="5.376"/>
				</g>
			</g>
			<g>
				<g>
					<path fill="#415C92" d="M396.672,154.189c-0.089,0-1.845-0.019-3.126-1.295c-0.854-0.854-1.288-2.039-1.288-3.522
						c0-0.393,0.319-0.711,0.712-0.711c0.395,0,0.711,0.318,0.711,0.711c0,1.092,0.294,1.938,0.872,2.517
						c0.859,0.856,2.106,0.879,2.119,0.879c2.008,0,3.639-1.633,3.639-3.638c0-2.006-1.631-3.638-3.638-3.638
						c-0.393,0-0.711-0.318-0.711-0.711v-3.953c0-0.393,0.318-0.711,0.711-0.711c0.396,0,0.712,0.319,0.712,0.711v3.292
						c2.455,0.347,4.351,2.462,4.351,5.011C401.733,151.921,399.464,154.189,396.672,154.189
						C396.673,154.189,396.673,154.189,396.672,154.189z"/>
				</g>
			</g>
		</g>
		<g>
			<g>
				<g>
					<path fill="#415C92" d="M368.436,157.501c-0.271-0.047-0.494-0.265-0.536-0.554c-0.055-0.36,0.194-0.696,0.557-0.749
						l29.103-4.286c0.361-0.055,0.696,0.195,0.749,0.556c0.055,0.359-0.194,0.695-0.557,0.748l-29.103,4.289
						C368.574,157.514,368.505,157.514,368.436,157.501z"/>
				</g>
			</g>
			<g>
				<g>
					<path fill="#415C92" d="M424.301,167.186c-0.063-0.012-0.13-0.03-0.189-0.063l-26.764-13.975
						c-0.321-0.168-0.446-0.567-0.277-0.891c0.169-0.322,0.564-0.449,0.891-0.279l26.76,13.974c0.323,0.168,0.449,0.567,0.28,0.89
						C424.863,167.104,424.576,167.232,424.301,167.186z"/>
				</g>
			</g>
			<g>
				<path fill="#FFFFFF" d="M422.118,223.055l-71.275-12.386c-3.733-0.647-6.234-4.202-5.587-7.937l7.131-41.039
					c0.649-3.734,4.203-6.235,7.938-5.588l71.272,12.387c3.734,0.648,6.236,4.201,5.587,7.936l-7.13,41.04
					C429.405,221.202,425.854,223.705,422.118,223.055z"/>
				<path fill="#415C92" d="M423.091,224.027c-0.456,0-0.916-0.039-1.381-0.119l-70.772-12.299c-2.11-0.367-3.953-1.534-5.188-3.289
					c-1.234-1.754-1.711-3.881-1.344-5.994l7.044-40.537c0.758-4.359,4.924-7.291,9.283-6.534l70.771,12.299
					c2.112,0.365,3.957,1.533,5.191,3.287c1.231,1.753,1.711,3.882,1.345,5.994l-7.044,40.537
					C430.316,221.271,426.917,224.027,423.091,224.027z M359.354,156.954c-2.962,0-5.591,2.131-6.112,5.146l-7.044,40.537
					c-0.284,1.637,0.086,3.282,1.04,4.639c0.955,1.356,2.38,2.261,4.014,2.543l70.774,12.299c3.366,0.59,6.592-1.682,7.179-5.055
					l7.045-40.537c0.283-1.635-0.086-3.28-1.041-4.637c-0.954-1.355-2.381-2.26-4.014-2.545l-70.773-12.298
					C360.063,156.984,359.705,156.954,359.354,156.954z"/>
			</g>
			<g>
				<path fill="#B9CEEB" d="M421.583,218.611l-68.738-11.943c-2.386-0.416-3.982-2.686-3.568-5.072l6.513-37.475
					c0.414-2.387,2.685-3.985,5.071-3.57l68.735,11.944c2.389,0.414,3.984,2.685,3.57,5.069l-6.512,37.479
					C426.24,217.427,423.969,219.025,421.583,218.611z"/>
				<path fill="#415C92" d="M422.213,219.563c-0.313,0-0.631-0.025-0.944-0.082l-68.42-11.89c-1.435-0.249-2.688-1.044-3.525-2.233
					c-0.839-1.19-1.163-2.641-0.914-4.075l6.456-37.155c0.514-2.964,3.341-4.96,6.311-4.439l68.418,11.888
					c2.965,0.516,4.958,3.345,4.443,6.311l-6.457,37.154c-0.25,1.437-1.042,2.69-2.235,3.53
					C424.413,219.221,423.327,219.563,422.213,219.563z M421.578,217.688c0.957,0.164,1.924-0.051,2.718-0.608
					s1.324-1.396,1.489-2.353l6.457-37.155c0.344-1.976-0.985-3.863-2.961-4.206l-68.418-11.891
					c-1.976-0.341-3.864,0.985-4.208,2.961l-6.455,37.155c-0.167,0.96,0.05,1.923,0.607,2.718c0.561,0.795,1.396,1.325,2.354,1.489
					L421.578,217.688z"/>
			</g>
			<g>
				<polygon fill="#FFFFFF" points="388.975,212.945 406.762,196.645 416.604,217.747 				"/>
				<path fill="#415C92" d="M417.646,218.541l-29.99-5.209l19.306-17.691L417.646,218.541z M390.294,212.561l25.271,4.391
					l-9.005-19.301L390.294,212.561z"/>
			</g>
			<g>
				<polygon fill="#FFFFFF" points="353.805,206.835 385.338,177.934 402.79,215.348 				"/>
				<path fill="#415C92" d="M403.831,216.143l-51.345-8.922l33.052-30.291L403.831,216.143z M355.124,206.449l46.625,8.101
					l-16.611-35.61L355.124,206.449z"/>
			</g>
			<g>
				<circle fill="#FFFFFF" cx="418.49" cy="182.657" r="4.409"/>
				<path fill="#415C92" d="M418.499,187.676c-0.288,0-0.579-0.025-0.869-0.074c-2.726-0.475-4.556-3.076-4.082-5.802
					c0.229-1.319,0.958-2.473,2.055-3.243c1.096-0.771,2.425-1.07,3.746-0.841c1.319,0.229,2.474,0.96,3.242,2.056
					c0.771,1.096,1.069,2.428,0.839,3.746c-0.229,1.319-0.958,2.473-2.054,3.242C420.521,187.359,419.523,187.676,418.499,187.676z
					 M418.48,178.854c-0.776,0-1.533,0.237-2.183,0.694c-0.831,0.585-1.384,1.458-1.559,2.46c-0.173,1,0.054,2.01,0.637,2.84
					c0.586,0.83,1.46,1.385,2.46,1.56c0.995,0.173,2.009-0.054,2.84-0.638c0.831-0.586,1.384-1.459,1.561-2.459l0,0
					c0.356-2.066-1.029-4.041-3.099-4.397C418.921,178.872,418.7,178.854,418.48,178.854z"/>
			</g>
		</g>
		<g>
			<g>
				<rect x="385.024" y="48.601" fill="#B9CEEB" width="66.098" height="7.273"/>
			</g>
		</g>
		<g>
			<g>
				<g>
					<g>
						<g>
							<g>
								<path fill="#A2BFE4" d="M508.563,198.979H486.62V4.967h21.942V198.979L508.563,198.979z M488.79,196.807h17.603V7.137
									H488.79V196.807z"/>
							</g>
						</g>
						<g>
							<g>
								<g>
									<path fill="#A2BFE4" d="M508.288,26.262h-21.396V4.87h21.396V26.262z M489.094,24.063h16.995V7.069h-16.995V24.063z"/>
								</g>
							</g>
							<g>
								<g>
									
										<rect x="484.001" y="14.484" transform="matrix(0.7071 0.7071 -0.7071 0.7071 156.7544 -347.2726)" fill="#A2BFE4" width="27.144" height="2.199"/>
								</g>
							</g>
							<g>
								<g>
									
										<rect x="496.503" y="1.983" transform="matrix(0.7074 0.7068 -0.7068 0.7074 156.5732 -347.1413)" fill="#A2BFE4" width="2.199" height="27.145"/>
								</g>
							</g>
						</g>
						<g>
							<g>
								<g>
									<path fill="#A2BFE4" d="M508.288,45.456h-21.396V24.063h21.396V45.456z M489.094,43.256h16.995V26.262h-16.995V43.256z"/>
								</g>
							</g>
							<g>
								<g>
									
										<rect x="484.014" y="33.664" transform="matrix(0.7071 0.7071 -0.7071 0.7071 170.3215 -341.665)" fill="#A2BFE4" width="27.145" height="2.199"/>
								</g>
							</g>
							<g>
								<g>
									
										<rect x="496.497" y="21.183" transform="matrix(0.707 0.7072 -0.7072 0.707 170.3774 -341.7254)" fill="#A2BFE4" width="2.199" height="27.144"/>
								</g>
							</g>
						</g>
						<g>
							<g>
								<g>
									<path fill="#A2BFE4" d="M508.288,64.649h-21.396V43.256h21.396V64.649z M489.094,62.45h16.995V45.456h-16.995V62.45z"/>
								</g>
							</g>
							<g>
								<g>
									
										<rect x="484.004" y="52.866" transform="matrix(0.7071 0.7071 -0.7071 0.7071 183.8956 -336.0335)" fill="#A2BFE4" width="27.144" height="2.199"/>
								</g>
							</g>
							<g>
								<g>
									
										<rect x="496.485" y="40.385" transform="matrix(0.707 0.7072 -0.7072 0.707 183.9543 -336.0912)" fill="#A2BFE4" width="2.199" height="27.145"/>
								</g>
							</g>
						</g>
						<g>
							<g>
								<g>
									<path fill="#A2BFE4" d="M508.288,83.843h-21.396V62.45h21.396V83.843z M489.094,81.644h16.995V64.649h-16.995V81.644z"/>
								</g>
							</g>
							<g>
								<g>
									
										<rect x="484.019" y="72.048" transform="matrix(0.7071 0.7071 -0.7071 0.7071 197.4739 -330.4332)" fill="#A2BFE4" width="27.144" height="2.199"/>
								</g>
							</g>
							<g>
								<g>
									
										<rect x="496.492" y="59.574" transform="matrix(0.707 0.7072 -0.7072 0.707 197.5272 -330.4735)" fill="#A2BFE4" width="2.199" height="27.145"/>
								</g>
							</g>
						</g>
						<g>
							<g>
								<g>
									<path fill="#A2BFE4" d="M508.288,103.036h-21.396V81.644h21.396V103.036z M489.094,100.836h16.995V83.843h-16.995V100.836z
										"/>
								</g>
							</g>
							<g>
								<g>
									
										<rect x="484.015" y="91.243" transform="matrix(0.7071 0.7071 -0.7071 0.7071 211.0359 -324.8002)" fill="#A2BFE4" width="27.144" height="2.2"/>
								</g>
							</g>
							<g>
								<g>
									
										<rect x="496.492" y="78.768" transform="matrix(0.707 0.7072 -0.7072 0.707 211.1006 -324.8495)" fill="#A2BFE4" width="2.199" height="27.144"/>
								</g>
							</g>
						</g>
						<g>
							<g>
								<g>
									<path fill="#A2BFE4" d="M508.288,122.229h-21.396v-21.393h21.396V122.229z M489.094,120.03h16.995v-16.994h-16.995V120.03z
										"/>
								</g>
							</g>
							<g>
								<g>
									
										<rect x="484.009" y="110.44" transform="matrix(0.7071 0.7071 -0.7071 0.7071 224.6082 -319.1739)" fill="#A2BFE4" width="27.144" height="2.199"/>
								</g>
							</g>
							<g>
								<g>
									
										<rect x="496.486" y="97.966" transform="matrix(0.7069 0.7073 -0.7073 0.7069 224.7437 -319.2632)" fill="#A2BFE4" width="2.198" height="27.144"/>
								</g>
							</g>
						</g>
						<g>
							<g>
								<g>
									<path fill="#A2BFE4" d="M508.288,141.422h-21.396V120.03h21.396V141.422z M489.094,139.223h16.995v-16.994h-16.995V139.223
										z"/>
								</g>
							</g>
							<g>
								<g>
									
										<rect x="484.003" y="129.635" transform="matrix(0.7071 0.7071 -0.7071 0.7071 238.1794 -313.5472)" fill="#A2BFE4" width="27.144" height="2.199"/>
								</g>
							</g>
							<g>
								<g>
									
										<rect x="496.492" y="117.154" transform="matrix(0.707 0.7072 -0.7072 0.707 238.2478 -313.6023)" fill="#A2BFE4" width="2.199" height="27.144"/>
								</g>
							</g>
						</g>
						<g>
							<g>
								<g>
									<path fill="#A2BFE4" d="M508.288,160.615h-21.396v-21.393h21.396V160.615z M489.094,158.416h16.995v-16.994h-16.995
										V158.416z"/>
								</g>
							</g>
							<g>
								<g>
									
										<rect x="484.008" y="148.825" transform="matrix(0.7071 0.7071 -0.7071 0.7071 251.7447 -307.9268)" fill="#A2BFE4" width="27.143" height="2.2"/>
								</g>
							</g>
							<g>
								<g>
									
										<rect x="496.491" y="136.347" transform="matrix(0.7071 0.7071 -0.7071 0.7071 251.7495 -307.9397)" fill="#A2BFE4" width="2.199" height="27.144"/>
								</g>
							</g>
						</g>
						<g>
							<g>
								<g>
									<path fill="#A2BFE4" d="M508.288,179.809h-21.396v-21.393h21.396V179.809z M489.094,177.609h16.995v-16.994h-16.995
										V177.609z"/>
								</g>
							</g>
							<g>
								<g>
									
										<rect x="483.995" y="168.025" transform="matrix(0.7071 0.7071 -0.7071 0.7071 265.3352 -302.3038)" fill="#A2BFE4" width="27.144" height="2.199"/>
								</g>
							</g>
							<g>
								<g>
									
										<rect x="496.478" y="155.548" transform="matrix(0.7067 0.7076 -0.7076 0.7067 265.6192 -302.4524)" fill="#A2BFE4" width="2.2" height="27.144"/>
								</g>
							</g>
						</g>
						<g>
							<g>
								<g>
									<path fill="#A2BFE4" d="M508.288,199.001h-21.396v-21.392h21.396V199.001z M489.094,196.802h16.995v-16.993h-16.995
										V196.802z"/>
								</g>
							</g>
							<g>
								<g>
									
										<rect x="484.007" y="187.212" transform="matrix(0.7071 0.7071 -0.7071 0.7071 278.8939 -296.6864)" fill="#A2BFE4" width="27.144" height="2.199"/>
								</g>
							</g>
							<g>
								<g>
									
										<rect x="496.495" y="174.69" transform="matrix(0.7067 0.7076 -0.7076 0.7067 279.1686 -296.8491)" fill="#A2BFE4" width="2.199" height="27.145"/>
								</g>
							</g>
						</g>
					</g>
					<g>
						<g>
							<g>
								<g>
									<path fill="#A2BFE4" d="M546.479,45.166h-21.392V23.774h21.392V45.166z M527.285,42.967h16.994V25.973h-16.994V42.967z"/>
								</g>
							</g>
							<g>
								<g>
									
										<rect x="534.682" y="20.895" transform="matrix(0.7078 0.7064 -0.7064 0.7078 180.9217 -368.4257)" fill="#A2BFE4" width="2.201" height="27.149"/>
								</g>
							</g>
							<g>
								<g>
									
										<rect x="522.2" y="33.379" transform="matrix(0.7071 0.7071 -0.7071 0.7071 181.2942 -368.7407)" fill="#A2BFE4" width="27.144" height="2.2"/>
								</g>
							</g>
						</g>
						<g>
							<g>
								<g>
									<path fill="#A2BFE4" d="M527.285,45.166h-21.394V23.774h21.394V45.166z M508.092,42.967h16.995V25.973h-16.995V42.967z"/>
								</g>
							</g>
							<g>
								<g>
									
										<rect x="515.489" y="20.897" transform="matrix(0.7074 0.7068 -0.7068 0.7074 175.4955 -355.027)" fill="#A2BFE4" width="2.199" height="27.144"/>
								</g>
							</g>
							<g>
								<g>
									
										<rect x="503.016" y="33.37" transform="matrix(0.7071 0.7071 -0.7071 0.7071 175.6843 -355.1914)" fill="#A2BFE4" width="27.144" height="2.2"/>
								</g>
							</g>
						</g>
						<g>
							<g>
								<path fill="#A2BFE4" d="M508.092,45.166h-21.393V23.774h21.393V45.166z M488.898,42.967h16.993V25.973h-16.993V42.967z"/>
							</g>
						</g>
						<g>
							<g>
								<g>
									<path fill="#A2BFE4" d="M488.898,45.166h-21.395V23.774h21.395V45.166z M469.705,42.967h16.994V25.973h-16.994V42.967z"/>
								</g>
							</g>
							<g>
								<g>
									
										<rect x="477.099" y="20.903" transform="matrix(0.7073 0.7069 -0.7069 0.7073 164.3244 -327.9413)" fill="#A2BFE4" width="2.198" height="27.144"/>
								</g>
							</g>
							<g>
								<g>
									
										<rect x="464.631" y="33.37" transform="matrix(0.7071 0.7071 -0.7071 0.7071 164.4409 -328.0483)" fill="#A2BFE4" width="27.144" height="2.2"/>
								</g>
							</g>
						</g>
						<g>
							<g>
								<g>
									<path fill="#A2BFE4" d="M469.705,45.166h-21.394V23.774h21.394V45.166z M450.512,42.967h16.994V25.973h-16.994V42.967z"/>
								</g>
							</g>
							<g>
								<g>
									
										<rect x="457.909" y="20.897" transform="matrix(0.7071 0.7071 -0.7071 0.7071 158.8138 -314.4725)" fill="#A2BFE4" width="2.199" height="27.144"/>
								</g>
							</g>
							<g>
								<g>
									
										<rect x="445.438" y="33.371" transform="matrix(0.7071 0.7071 -0.7071 0.7071 158.8192 -314.4767)" fill="#A2BFE4" width="27.144" height="2.199"/>
								</g>
							</g>
						</g>
						<g>
							<g>
								<g>
									<path fill="#A2BFE4" d="M450.512,45.166h-21.393V23.774h21.393V45.166z M431.318,42.967h16.993V25.973h-16.993V42.967z"/>
								</g>
							</g>
							<g>
								<g>
									<path fill="#A2BFE4" d="M430.219,45.166h-19.191c-0.444,0-0.847-0.267-1.019-0.679c-0.169-0.411-0.075-0.883,0.239-1.198
										l19.192-19.194l1.556,1.555l-17.315,17.316h16.082l18.872-18.872l1.557,1.555l-19.193,19.193
										C430.791,45.05,430.511,45.166,430.219,45.166z"/>
								</g>
							</g>
							<g>
								<g>
									
										<rect x="426.235" y="33.377" transform="matrix(0.7071 0.7071 -0.7071 0.7071 153.1996 -300.8962)" fill="#A2BFE4" width="27.144" height="2.2"/>
								</g>
							</g>
						</g>
					</g>
				</g>
				<g>
					<g>
						<g>
							<path fill="#A2BFE4" d="M508.61,220.371h-21.99v-21.393h21.99V220.371z M488.88,218.172h17.469v-16.994H488.88V218.172z"/>
						</g>
					</g>
					<g>
						<g>
							<polygon fill="#A2BFE4" points="506.681,220.049 486.951,200.855 488.549,199.301 508.279,218.493 							"/>
						</g>
					</g>
					<g>
						<g>
							<polygon fill="#A2BFE4" points="488.549,220.049 486.951,218.493 506.681,199.301 508.279,200.855 							"/>
						</g>
					</g>
				</g>
				<g>
					<g>
						<g>
							<path fill="#A2BFE4" d="M508.61,297.145h-21.99v-21.394h21.99V297.145z M488.88,294.943h17.469V277.95H488.88V294.943z"/>
						</g>
					</g>
					<g>
						<g>
							<polygon fill="#A2BFE4" points="506.681,296.82 486.951,277.628 488.549,276.073 508.279,295.266 							"/>
						</g>
					</g>
					<g>
						<g>
							<polygon fill="#A2BFE4" points="488.549,296.82 486.951,295.266 506.681,276.073 508.279,277.628 							"/>
						</g>
					</g>
				</g>
			</g>
			<g>
				<g>
					<g>
						<path fill="#A2BFE4" d="M508.61,237.744h-21.99v-21.393h21.99V237.744z M488.88,235.547h17.469v-16.996H488.88V235.547z"/>
					</g>
				</g>
				<g>
					<g>
						<polygon fill="#A2BFE4" points="506.681,237.424 486.951,218.229 488.549,216.673 508.279,235.866 						"/>
					</g>
				</g>
				<g>
					<g>
						<polygon fill="#A2BFE4" points="488.549,237.424 486.951,235.866 506.681,216.673 508.279,218.229 						"/>
					</g>
				</g>
			</g>
			<g>
				<g>
					<g>
						<path fill="#A2BFE4" d="M508.61,256.938h-21.99v-21.391h21.99V256.938z M488.88,254.739h17.469v-16.995H488.88V254.739z"/>
					</g>
				</g>
				<g>
					<g>
						<polygon fill="#A2BFE4" points="506.681,256.617 486.951,237.422 488.549,235.869 508.279,255.063 						"/>
					</g>
				</g>
				<g>
					<g>
						<polygon fill="#A2BFE4" points="488.549,256.617 486.951,255.063 506.681,235.869 508.279,237.422 						"/>
					</g>
				</g>
			</g>
			<g>
				<g>
					<g>
						<path fill="#A2BFE4" d="M508.61,276.132h-21.99v-21.394h21.99V276.132z M488.88,273.934h17.469v-16.996H488.88V273.934z"/>
					</g>
				</g>
				<g>
					<g>
						<polygon fill="#A2BFE4" points="506.681,275.811 486.951,256.614 488.549,255.063 508.279,274.255 						"/>
					</g>
				</g>
				<g>
					<g>
						<polygon fill="#A2BFE4" points="488.549,275.811 486.951,274.255 506.681,255.063 508.279,256.614 						"/>
					</g>
				</g>
			</g>
		</g>
	</g>
</g>
<g>
	<path fill="#415C92" d="M542.117,211.624c0.27,0,0.539,0,0.809,0"/>
	<g>
		<path fill="#415C92" d="M542.117,213.441c0.27,0,0.539,0,0.809,0c0.951,0,1.862-0.836,1.818-1.817
			c-0.044-0.985-0.799-1.819-1.818-1.819c-0.27,0-0.539,0-0.809,0c-0.953,0-1.864,0.836-1.819,1.819
			C540.341,212.607,541.097,213.441,542.117,213.441L542.117,213.441z"/>
	</g>
</g>
<g>
	<path fill="#415C92" d="M191.253,238.301"/>
	<g>
		<path fill="#415C92" d="M191.253,240.121c2.341,0,2.345-3.639,0-3.639C188.912,236.482,188.908,240.121,191.253,240.121
			L191.253,240.121z"/>
	</g>
</g>
<g>
	<path fill="#415C92" d="M84.067,63.678"/>
	<g>
		<path fill="#415C92" d="M84.067,65.497c2.341,0,2.346-3.638,0-3.638C81.727,61.859,81.723,65.497,84.067,65.497L84.067,65.497z"/>
	</g>
</g>
</svg>
