<?xml version="1.0" encoding="utf-8"?>
<!-- Generator: Adobe Illustrator 16.0.0, SVG Export Plug-In . SVG Version: 6.00 Build 0)  -->
<!DOCTYPE svg PUBLIC "-//W3C//DTD SVG 1.1//EN" "http://www.w3.org/Graphics/SVG/1.1/DTD/svg11.dtd">
<svg version="1.1" id="Layer_1" xmlns="http://www.w3.org/2000/svg" xmlns:xlink="http://www.w3.org/1999/xlink" x="0px" y="0px"
	 width="640px" height="300px" viewBox="0 0 640 300" enable-background="new 0 0 640 300" xml:space="preserve">
<g>
	<g>
		<circle fill="#52909D" cx="210.861" cy="171.768" r="1.265"/>
		<circle fill="#52909D" cx="222.086" cy="119.434" r="2.688"/>
		<circle fill="#52909D" cx="270.624" cy="125.6" r="2.846"/>
		<circle fill="#52909D" cx="181.77" cy="198.328" r="0.949"/>
		<circle fill="#52909D" cx="163.43" cy="278.012" r="2.846"/>
		<circle fill="#52909D" cx="367.225" cy="96.667" r="3.32"/>
		<circle fill="#52909D" cx="351.414" cy="55.561" r="3.004"/>
		<circle fill="#52909D" cx="478.055" cy="113.9" r="2.529"/>
		<circle fill="#52909D" cx="547.62" cy="73.11" r="1.897"/>
		<circle fill="#52909D" cx="568.173" cy="163.229" r="3.162"/>
		<circle fill="#52909D" cx="609.596" cy="176.193" r="0.949"/>
		<circle fill="#52909D" cx="535.762" cy="125.758" r="0.791"/>
		<circle fill="#52909D" cx="606.908" cy="225.996" r="2.688"/>
	</g>
	<g>
		<circle fill="none" stroke="#52909D" stroke-miterlimit="10" cx="490.457" cy="70.173" r="6.465"/>
		<circle fill="none" stroke="#52909D" stroke-miterlimit="10" cx="507.007" cy="139.48" r="3.103"/>
		<circle fill="none" stroke="#52909D" stroke-miterlimit="10" cx="576.057" cy="110.258" r="4.396"/>
		<circle fill="none" stroke="#52909D" stroke-miterlimit="10" cx="541.273" cy="171.162" r="1.939"/>
		<circle fill="none" stroke="#52909D" stroke-miterlimit="10" cx="497.568" cy="209.436" r="0.646"/>
		<circle fill="none" stroke="#52909D" stroke-miterlimit="10" cx="611.357" cy="205.557" r="2.974"/>
		<circle fill="none" stroke="#52909D" stroke-miterlimit="10" cx="162.278" cy="297.234" r="2.586"/>
		<circle fill="none" stroke="#52909D" stroke-miterlimit="10" cx="181.415" cy="169.738" r="3.879"/>
		<circle fill="none" stroke="#52909D" stroke-miterlimit="10" cx="202.234" cy="135.473" r="1.94"/>
		<circle fill="none" stroke="#52909D" stroke-miterlimit="10" cx="279.171" cy="98.62" r="5.431"/>
		<circle fill="none" stroke="#52909D" stroke-miterlimit="10" cx="313.824" cy="52.587" r="1.552"/>
		<circle fill="none" stroke="#52909D" stroke-miterlimit="10" cx="235.724" cy="59.57" r="3.104"/>
		<circle fill="none" stroke="#52909D" stroke-miterlimit="10" cx="425.803" cy="45.087" r="2.586"/>
		<circle fill="none" stroke="#52909D" stroke-miterlimit="10" cx="538.461" cy="12.441" r="4.095"/>
		<circle fill="none" stroke="#52909D" stroke-miterlimit="10" cx="258.459" cy="20.403" r="3.867"/>
		<circle fill="none" stroke="#52909D" stroke-miterlimit="10" cx="182.943" cy="69.534" r="3.412"/>
	</g>
</g>
<g>
	<path fill="#415C92" d="M196.854,271.754h-30.786c-0.67,0-1.213-0.541-1.213-1.213c0-0.669,0.543-1.212,1.213-1.212h30.786
		c0.669,0,1.212,0.543,1.212,1.212C198.066,271.213,197.523,271.754,196.854,271.754z"/>
</g>
<g>
	<g>
		<path fill="#FFFFFF" d="M467.949,164.98h-0.879c0-0.728-0.593-1.317-1.319-1.317s-1.317,0.591-1.317,1.317h-0.881
			c0-1.211,0.986-2.198,2.198-2.198C466.964,162.782,467.949,163.77,467.949,164.98z"/>
	</g>
</g>
<g>
	<g>
		<path fill="#FFFFFF" d="M471.094,113.784h-0.879c0-0.728-0.592-1.32-1.318-1.32c-0.728,0-1.318,0.593-1.318,1.32h-0.88
			c0-1.213,0.986-2.2,2.198-2.2S471.094,112.571,471.094,113.784z"/>
	</g>
</g>
<g>
	<g>
		<g>
			<g>
				<g>
					<path fill="#415C92" d="M254.806,263.279C254.382,263.279,254.382,263.279,254.806,263.279"/>
				</g>
			</g>
		</g>
		<g>
			<g>
				<g>
					<g>
						<path fill="#415C92" d="M254.806,265.784c3.225,0,3.229-5.013,0-5.013C251.582,260.771,251.576,265.784,254.806,265.784
							L254.806,265.784z"/>
					</g>
				</g>
			</g>
		</g>
	</g>
	<g>
		<g>
			<g>
				<g>
					<path fill="#415C92" d="M264.909,263.279C264.485,263.279,264.485,263.279,264.909,263.279"/>
				</g>
			</g>
		</g>
		<g>
			<g>
				<g>
					<g>
						<path fill="#415C92" d="M264.909,265.784c3.225,0,3.229-5.013,0-5.013C261.684,260.771,261.679,265.784,264.909,265.784
							L264.909,265.784z"/>
					</g>
				</g>
			</g>
		</g>
	</g>
	<g>
		<g>
			<g>
				<g>
					<path fill="#415C92" d="M275.011,263.279C274.588,263.279,274.588,263.279,275.011,263.279"/>
				</g>
			</g>
		</g>
		<g>
			<g>
				<g>
					<g>
						<path fill="#415C92" d="M275.011,265.784c3.225,0,3.23-5.013,0-5.013C271.787,260.771,271.781,265.784,275.011,265.784
							L275.011,265.784z"/>
					</g>
				</g>
			</g>
		</g>
	</g>
</g>
<g>
	<g>
		<g>
			<g>
				<path fill="#415C92" d="M340.708,152.891C340.51,152.891,340.51,152.891,340.708,152.891"/>
			</g>
		</g>
	</g>
	<g>
		<g>
			<g>
				<g>
					<path fill="#415C92" d="M340.708,154.064c1.515,0,1.517-2.351,0-2.351C339.196,151.715,339.194,154.064,340.708,154.064
						L340.708,154.064z"/>
				</g>
			</g>
		</g>
	</g>
</g>
<g>
	<path fill="#415C92" d="M290.287,139.529h-61.574c-0.669,0-1.212-0.543-1.212-1.213c0-0.669,0.543-1.212,1.212-1.212h61.574
		c0.669,0,1.212,0.543,1.212,1.212S290.956,139.529,290.287,139.529z"/>
</g>
<g>
	<path fill="#415C92" d="M585.509,172.314h-61.572c-0.67,0-1.213-0.543-1.213-1.213c0-0.668,0.543-1.213,1.213-1.213h61.572
		c0.671,0,1.213,0.545,1.213,1.213C586.722,171.771,586.18,172.314,585.509,172.314z"/>
</g>
<g>
	<g>
		<path fill="#415C92" d="M227.667,207.223c-0.669,0-1.212-0.543-1.212-1.212v-4.721c0-0.672,0.543-1.213,1.212-1.213
			c0.67,0,1.213,0.541,1.213,1.213v4.721C228.88,206.68,228.337,207.223,227.667,207.223z"/>
	</g>
	<g>
		<path fill="#415C92" d="M230.028,204.861h-4.721c-0.669,0-1.212-0.541-1.212-1.213c0-0.67,0.543-1.213,1.212-1.213h4.721
			c0.67,0,1.213,0.543,1.213,1.213C231.241,204.32,230.698,204.861,230.028,204.861z"/>
	</g>
</g>
<g>
	<g>
		<path fill="#415C92" d="M336.726,38.333c-0.671,0-1.213-0.543-1.213-1.213v-4.722c0-0.669,0.542-1.212,1.213-1.212
			c0.669,0,1.214,0.543,1.214,1.212v4.722C337.938,37.79,337.395,38.333,336.726,38.333z"/>
	</g>
	<g>
		<path fill="#415C92" d="M339.086,35.972h-4.721c-0.671,0-1.213-0.543-1.213-1.213c0-0.669,0.542-1.212,1.213-1.212h4.721
			c0.67,0,1.213,0.543,1.213,1.212C340.299,35.429,339.756,35.972,339.086,35.972z"/>
	</g>
</g>
<g>
	<g>
		<path fill="#415C92" d="M351.101,140.177c-0.108,0-0.222-0.015-0.332-0.047l-4.54-1.296c-0.645-0.185-1.019-0.856-0.834-1.5
			c0.187-0.645,0.854-1.017,1.498-0.833l4.54,1.297c0.646,0.184,1.019,0.855,0.834,1.5
			C352.113,139.83,351.628,140.177,351.101,140.177z"/>
	</g>
	<g>
		<path fill="#415C92" d="M348.184,141.799c-0.109,0-0.222-0.016-0.334-0.048c-0.644-0.183-1.018-0.854-0.833-1.498l1.298-4.541
			c0.183-0.644,0.852-1.016,1.497-0.833c0.646,0.184,1.018,0.855,0.834,1.5l-1.298,4.539
			C349.196,141.452,348.711,141.799,348.184,141.799z"/>
	</g>
</g>
<g>
	<g>
		<g>
			<path fill="#D8E5F5" d="M186.606,215.479c9.788-8.852,19.576-17.701,29.365-26.551c1.451-1.311-0.699-3.451-2.143-2.145
				c-9.789,8.85-19.579,17.699-29.367,26.55C183.012,214.645,185.161,216.783,186.606,215.479L186.606,215.479z"/>
		</g>
	</g>
	<g>
		<g>
			<path fill="#D8E5F5" d="M219.795,229.018c9.788-8.85,19.576-17.699,29.366-26.549c1.45-1.312-0.699-3.449-2.144-2.143
				c-9.79,8.848-19.578,17.697-29.367,26.547C216.2,228.186,218.349,230.324,219.795,229.018L219.795,229.018z"/>
		</g>
	</g>
	<g>
		<g>
			<path fill="#D8E5F5" d="M183.731,239.048c20.518-20.006,41.033-40.012,61.549-60.018c1.399-1.364-0.745-3.507-2.143-2.145
				c-20.517,20.005-41.033,40.011-61.549,60.017C180.189,238.27,182.333,240.411,183.731,239.048L183.731,239.048z"/>
		</g>
	</g>
</g>
<g>
	<path fill="#415C92" d="M263.204,119.461"/>
	<g>
		<path fill="#415C92" d="M263.204,121.279c2.341,0,2.345-3.638,0-3.638C260.863,117.641,260.859,121.279,263.204,121.279
			L263.204,121.279z"/>
	</g>
</g>
<g>
	<path fill="#415C92" d="M460.464,81.463"/>
	<g>
		<path fill="#415C92" d="M460.464,83.283c2.341,0,2.345-3.639,0-3.639C458.123,79.645,458.118,83.283,460.464,83.283
			L460.464,83.283z"/>
	</g>
</g>
<g>
	<path fill="#415C92" d="M542.117,211.624c0.27,0,0.539,0,0.809,0"/>
	<g>
		<path fill="#415C92" d="M542.117,213.441c0.27,0,0.539,0,0.809,0c0.951,0,1.862-0.836,1.818-1.817
			c-0.044-0.985-0.799-1.819-1.818-1.819c-0.27,0-0.539,0-0.809,0c-0.953,0-1.864,0.836-1.819,1.819
			C540.341,212.607,541.097,213.441,542.117,213.441L542.117,213.441z"/>
	</g>
</g>
<g>
	<path fill="#415C92" d="M191.253,238.301"/>
	<g>
		<path fill="#415C92" d="M191.253,240.121c2.341,0,2.345-3.639,0-3.639C188.912,236.482,188.908,240.121,191.253,240.121
			L191.253,240.121z"/>
	</g>
</g>
<g>
	<path fill="#415C92" d="M365.067,63.678"/>
	<g>
		<path fill="#415C92" d="M365.067,65.497c2.341,0,2.346-3.638,0-3.638C362.727,61.859,362.723,65.497,365.067,65.497
			L365.067,65.497z"/>
	</g>
</g>
<g>
	<rect x="247.039" y="79.198" fill="#F1F9FA" width="90.85" height="214.505"/>
	<g>
		<path fill="#BC8271" d="M335.545,285.025h-80.459c-0.17,0-0.309-0.14-0.309-0.31V269.87c0-0.17,0.139-0.31,0.309-0.31h80.459
			c0.17,0,0.307,0.14,0.307,0.31v14.846C335.852,284.887,335.715,285.025,335.545,285.025z M255.394,284.408h79.842V270.18h-79.842
			V284.408z"/>
		<path fill="#D3BBA3" d="M296.13,279.588c-1.285,0-2.33-1.047-2.33-2.332s1.045-2.33,2.33-2.33c1.285,0,2.332,1.045,2.332,2.33
			S297.416,279.588,296.13,279.588z M296.13,275.541c-0.945,0-1.714,0.77-1.714,1.715s0.769,1.715,1.714,1.715
			c0.945,0,1.715-0.77,1.715-1.715S297.076,275.541,296.13,275.541z"/>
		<rect x="259.394" y="275.455" fill="#F2E6DC" width="20.041" height="3.711"/>
		<rect x="311.388" y="275.455" fill="#F2E6DC" width="20.04" height="3.711"/>
	</g>
	<g>
		<path fill="#BC8271" d="M335.32,265.652h-80.458c-0.17,0-0.309-0.139-0.309-0.31v-14.846c0-0.17,0.139-0.308,0.309-0.308h80.458
			c0.172,0,0.309,0.138,0.309,0.308v14.846C335.629,265.514,335.492,265.652,335.32,265.652z M255.171,265.035h79.842v-14.229
			h-79.842V265.035L255.171,265.035z"/>
		<path fill="#D3BBA3" d="M295.908,260.215c-1.285,0-2.33-1.047-2.33-2.332s1.045-2.33,2.33-2.33c1.285,0,2.331,1.045,2.331,2.33
			S297.193,260.215,295.908,260.215z M295.908,256.17c-0.945,0-1.714,0.768-1.714,1.713s0.769,1.715,1.714,1.715
			c0.945,0,1.715-0.77,1.715-1.715S296.853,256.17,295.908,256.17z"/>
		<rect x="259.171" y="256.082" fill="#F2E6DC" width="20.041" height="3.713"/>
		<rect x="311.166" y="256.082" fill="#F2E6DC" width="20.04" height="3.711"/>
	</g>
	<g>
		<path fill="#BC8271" d="M335.32,246.279h-80.458c-0.17,0-0.309-0.139-0.309-0.309v-14.847c0-0.17,0.139-0.308,0.309-0.308h80.458
			c0.172,0,0.309,0.138,0.309,0.308v14.847C335.629,246.141,335.492,246.279,335.32,246.279z M255.171,245.662h79.842v-14.229
			h-79.842V245.662L255.171,245.662z"/>
		<path fill="#D3BBA3" d="M295.908,240.842c-1.285,0-2.33-1.047-2.33-2.332s1.045-2.33,2.33-2.33c1.285,0,2.331,1.045,2.331,2.33
			S297.193,240.842,295.908,240.842z M295.908,236.797c-0.945,0-1.714,0.77-1.714,1.713c0,0.945,0.769,1.715,1.714,1.715
			c0.945,0,1.715-0.77,1.715-1.715C297.623,237.566,296.853,236.797,295.908,236.797z"/>
		<rect x="259.171" y="236.709" fill="#F2E6DC" width="20.041" height="3.713"/>
		<rect x="311.166" y="236.709" fill="#F2E6DC" width="20.04" height="3.711"/>
	</g>
	<g>
		<path fill="#84534E" d="M335.768,227.129H255.31c-0.17,0-0.309-0.137-0.309-0.309v-14.844c0-0.17,0.139-0.31,0.309-0.31h80.458
			c0.171,0,0.31,0.14,0.31,0.31v14.844C336.076,226.992,335.938,227.129,335.768,227.129z M255.619,226.512h79.84v-14.227h-79.84
			V226.512L255.619,226.512z"/>
		<g>
			<circle fill="#D3BBA3" cx="329.624" cy="219.9" r="2.022"/>
			<circle fill="#D3BBA3" cx="322.927" cy="219.658" r="2.023"/>
			<circle fill="#BC8271" cx="316.246" cy="219.658" r="2.023"/>
		</g>
		<path fill="#D87355" d="M262.027,225.311c-0.17,0-0.309-0.137-0.309-0.309v-11.133c0-0.17,0.139-0.309,0.309-0.309
			s0.309,0.139,0.309,0.309v11.133C262.335,225.174,262.197,225.311,262.027,225.311z"/>
		<path fill="#D87355" d="M258.91,225.311c-0.17,0-0.308-0.137-0.308-0.309v-6.273c0-0.17,0.138-0.309,0.308-0.309
			c0.171,0,0.309,0.139,0.309,0.309v6.273C259.218,225.174,259.081,225.311,258.91,225.311z"/>
		<path fill="#D87355" d="M268.373,218.311c-0.17,0-0.309-0.137-0.309-0.309v-4.021c0-0.17,0.139-0.309,0.309-0.309
			s0.309,0.139,0.309,0.309v4.021C268.681,218.174,268.542,218.311,268.373,218.311z"/>
		<path fill="#D87355" d="M265.255,225.422c-0.17,0-0.308-0.137-0.308-0.309V213.98c0-0.17,0.138-0.31,0.308-0.31
			c0.171,0,0.309,0.14,0.309,0.31v11.133C265.564,225.285,265.426,225.422,265.255,225.422z"/>
		<path fill="#D87355" d="M274.607,221.646c-0.17,0-0.309-0.138-0.309-0.31v-7.69c0-0.17,0.139-0.31,0.309-0.31
			c0.171,0,0.309,0.14,0.309,0.31v7.69C274.916,221.51,274.778,221.646,274.607,221.646z"/>
		<path fill="#D87355" d="M271.492,225.088c-0.171,0-0.309-0.137-0.309-0.309v-11.133c0-0.17,0.138-0.31,0.309-0.31
			c0.17,0,0.308,0.14,0.308,0.31v11.133C271.799,224.951,271.662,225.088,271.492,225.088z"/>
		<path fill="#D87355" d="M280.953,218.311c-0.17,0-0.309-0.137-0.309-0.307v-4.246c0-0.17,0.139-0.309,0.309-0.309
			c0.171,0,0.309,0.139,0.309,0.309v4.246C281.261,218.174,281.124,218.311,280.953,218.311z"/>
		<path fill="#D87355" d="M277.837,225.199c-0.171,0-0.309-0.137-0.309-0.309v-11.134c0-0.17,0.138-0.309,0.309-0.309
			c0.17,0,0.308,0.139,0.308,0.309v11.134C278.145,225.063,278.007,225.199,277.837,225.199z"/>
	</g>
	<g>
		<path fill="#84534E" d="M335.988,209.207H255.53c-0.171,0-0.309-0.139-0.309-0.309v-14.847c0-0.17,0.138-0.309,0.309-0.309h80.458
			c0.17,0,0.309,0.139,0.309,0.309v14.847C336.297,209.068,336.158,209.207,335.988,209.207z M255.838,208.59h79.841v-14.229
			h-79.841V208.59z"/>
		<g>
			<circle fill="#BC8271" cx="329.845" cy="201.977" r="2.022"/>
			<circle fill="#D3BBA3" cx="323.147" cy="201.736" r="2.022"/>
			<circle fill="#D3BBA3" cx="316.466" cy="201.736" r="2.022"/>
		</g>
		<path fill="#D87355" d="M262.248,207.389c-0.171,0-0.309-0.139-0.309-0.309v-11.133c0-0.172,0.138-0.309,0.309-0.309
			c0.17,0,0.309,0.137,0.309,0.309v11.133C262.556,207.25,262.417,207.389,262.248,207.389z"/>
		<path fill="#D87355" d="M259.13,207.389c-0.17,0-0.309-0.139-0.309-0.309v-8.225c0-0.17,0.139-0.31,0.309-0.31
			s0.309,0.14,0.309,0.31v8.225C259.439,207.25,259.3,207.389,259.13,207.389z"/>
		<path fill="#D87355" d="M268.593,207.5c-0.17,0-0.309-0.139-0.309-0.309v-11.133c0-0.173,0.139-0.31,0.309-0.31
			c0.17,0,0.309,0.137,0.309,0.31v11.133C268.902,207.361,268.763,207.5,268.593,207.5z"/>
		<path fill="#D87355" d="M265.476,207.5c-0.17,0-0.309-0.139-0.309-0.309v-4.42c0-0.17,0.139-0.308,0.309-0.308
			c0.171,0,0.309,0.138,0.309,0.308v4.42C265.785,207.361,265.647,207.5,265.476,207.5z"/>
		<path fill="#D87355" d="M274.828,207.166c-0.17,0-0.309-0.139-0.309-0.309v-11.135c0-0.171,0.139-0.308,0.309-0.308
			c0.171,0,0.309,0.137,0.309,0.308v11.135C275.136,207.027,274.999,207.166,274.828,207.166z"/>
		<path fill="#D87355" d="M271.711,207.166c-0.171,0-0.309-0.139-0.309-0.309v-3.359c0-0.17,0.138-0.309,0.309-0.309
			s0.309,0.139,0.309,0.309v3.359C272.02,207.027,271.882,207.166,271.711,207.166z"/>
		<path fill="#D87355" d="M281.173,201.195c-0.17,0-0.309-0.139-0.309-0.31v-5.051c0-0.172,0.139-0.31,0.309-0.31
			c0.171,0,0.309,0.138,0.309,0.31v5.051C281.482,201.057,281.344,201.195,281.173,201.195z"/>
		<path fill="#D87355" d="M278.057,207.277c-0.17,0-0.309-0.139-0.309-0.31v-8.692c0-0.17,0.139-0.31,0.309-0.31
			c0.171,0,0.309,0.14,0.309,0.31v8.692C278.366,207.139,278.228,207.277,278.057,207.277z"/>
	</g>
	<g>
		<path fill="#84534E" d="M335.766,189.945h-80.458c-0.171,0-0.309-0.139-0.309-0.31v-14.844c0-0.171,0.138-0.31,0.309-0.31h80.458
			c0.17,0,0.31,0.139,0.31,0.31v14.844C336.074,189.807,335.936,189.945,335.766,189.945z M255.617,189.328h79.84V175.1h-79.84
			V189.328z"/>
		<g>
			<circle fill="#D3BBA3" cx="329.622" cy="182.717" r="2.022"/>
			<circle fill="#BC8271" cx="322.925" cy="182.475" r="2.023"/>
			<circle fill="#BC8271" cx="316.244" cy="182.475" r="2.023"/>
		</g>
		<path fill="#D87355" d="M262.025,179.729c-0.17,0-0.309-0.139-0.309-0.309v-2.734c0-0.17,0.139-0.309,0.309-0.309
			s0.309,0.139,0.309,0.309v2.734C262.333,179.59,262.195,179.729,262.025,179.729z"/>
		<path fill="#D87355" d="M258.908,188.127c-0.17,0-0.308-0.137-0.308-0.309v-11.133c0-0.17,0.138-0.31,0.308-0.31
			c0.171,0,0.309,0.14,0.309,0.31v11.133C259.216,187.99,259.079,188.127,258.908,188.127z"/>
		<path fill="#D87355" d="M268.371,183.354c-0.17,0-0.309-0.138-0.309-0.309v-6.248c0-0.171,0.139-0.309,0.309-0.309
			s0.309,0.138,0.309,0.309v6.248C268.679,183.216,268.541,183.354,268.371,183.354z"/>
		<path fill="#D87355" d="M265.253,188.238c-0.17,0-0.308-0.137-0.308-0.309v-11.134c0-0.171,0.138-0.31,0.308-0.31
			c0.171,0,0.309,0.139,0.309,0.31v11.134C265.562,188.102,265.424,188.238,265.253,188.238z"/>
		<path fill="#D87355" d="M274.605,187.904c-0.17,0-0.309-0.137-0.309-0.31v-11.133c0-0.17,0.139-0.31,0.309-0.31
			c0.171,0,0.309,0.14,0.309,0.31v11.133C274.914,187.768,274.776,187.904,274.605,187.904z"/>
		<path fill="#D87355" d="M271.49,187.904c-0.171,0-0.309-0.137-0.309-0.31v-11.133c0-0.17,0.138-0.31,0.309-0.31
			c0.17,0,0.308,0.14,0.308,0.31v11.133C271.797,187.768,271.66,187.904,271.49,187.904z"/>
		<path fill="#D87355" d="M280.951,184.949c-0.17,0-0.309-0.137-0.309-0.309v-8.066c0-0.17,0.139-0.309,0.309-0.309
			c0.171,0,0.309,0.139,0.309,0.309v8.066C281.259,184.813,281.122,184.949,280.951,184.949z"/>
		<path fill="#D87355" d="M277.835,188.016c-0.171,0-0.309-0.139-0.309-0.309v-8.287c0-0.171,0.138-0.309,0.309-0.309
			c0.17,0,0.308,0.138,0.308,0.309v8.287C278.143,187.877,278.005,188.016,277.835,188.016z"/>
	</g>
	<g>
		<path fill="#84534E" d="M335.539,126.263h-80.458c-0.171,0-0.309-0.138-0.309-0.309v-14.845c0-0.17,0.138-0.308,0.309-0.308
			h80.458c0.17,0,0.309,0.138,0.309,0.308v14.845C335.848,126.125,335.709,126.263,335.539,126.263z M255.389,125.646h79.841
			v-14.228h-79.841V125.646z"/>
		<g>
			<circle fill="#BC8271" cx="329.396" cy="119.033" r="2.022"/>
			<circle fill="#D3BBA3" cx="322.698" cy="118.792" r="2.023"/>
			<circle fill="#D3BBA3" cx="316.017" cy="118.792" r="2.022"/>
		</g>
		<path fill="#D87355" d="M261.798,124.444c-0.171,0-0.309-0.138-0.309-0.308v-11.134c0-0.17,0.138-0.309,0.309-0.309
			c0.17,0,0.309,0.138,0.309,0.309v11.134C262.107,124.307,261.968,124.444,261.798,124.444z"/>
		<path fill="#D87355" d="M258.681,124.444c-0.17,0-0.309-0.138-0.309-0.308v-8.224c0-0.171,0.139-0.309,0.309-0.309
			c0.171,0,0.309,0.138,0.309,0.309v8.224C258.99,124.307,258.852,124.444,258.681,124.444z"/>
		<path fill="#D87355" d="M268.144,124.556c-0.17,0-0.309-0.138-0.309-0.309v-11.134c0-0.17,0.139-0.309,0.309-0.309
			s0.309,0.138,0.309,0.309v11.134C268.453,124.418,268.314,124.556,268.144,124.556z"/>
		<path fill="#D87355" d="M265.027,124.556c-0.17,0-0.309-0.138-0.309-0.309v-4.419c0-0.17,0.139-0.309,0.309-0.309
			c0.171,0,0.309,0.138,0.309,0.309v4.419C265.335,124.418,265.198,124.556,265.027,124.556z"/>
		<path fill="#D87355" d="M274.378,124.222c-0.17,0-0.309-0.138-0.309-0.308V112.78c0-0.171,0.139-0.309,0.309-0.309
			c0.171,0,0.309,0.138,0.309,0.309v11.133C274.687,124.084,274.549,124.222,274.378,124.222z"/>
		<path fill="#D87355" d="M271.262,124.222c-0.171,0-0.309-0.138-0.309-0.308v-3.36c0-0.17,0.138-0.308,0.309-0.308
			c0.171,0,0.309,0.138,0.309,0.308v3.36C271.571,124.084,271.433,124.222,271.262,124.222z"/>
		<path fill="#D87355" d="M280.724,118.251c-0.17,0-0.309-0.138-0.309-0.309v-5.052c0-0.17,0.139-0.309,0.309-0.309
			c0.171,0,0.309,0.138,0.309,0.309v5.052C281.033,118.113,280.895,118.251,280.724,118.251z"/>
		<path fill="#D87355" d="M277.609,124.333c-0.171,0-0.309-0.138-0.309-0.309v-8.692c0-0.171,0.138-0.309,0.309-0.309
			c0.17,0,0.308,0.138,0.308,0.309v8.692C277.917,124.195,277.779,124.333,277.609,124.333z"/>
	</g>
	<g>
		<path fill="#84534E" d="M335.316,107.002h-80.458c-0.17,0-0.309-0.138-0.309-0.309V91.849c0-0.17,0.139-0.309,0.309-0.309h80.458
			c0.17,0,0.309,0.138,0.309,0.309v14.845C335.625,106.864,335.486,107.002,335.316,107.002z M255.167,106.385h79.84V92.157h-79.84
			V106.385L255.167,106.385z"/>
		<g>
			<circle fill="#D3BBA3" cx="329.174" cy="99.772" r="2.023"/>
			<circle fill="#BC8271" cx="322.475" cy="99.531" r="2.023"/>
			<circle fill="#BC8271" cx="315.795" cy="99.531" r="2.022"/>
		</g>
		<path fill="#D87355" d="M261.576,96.784c-0.17,0-0.309-0.138-0.309-0.308v-2.734c0-0.171,0.139-0.309,0.309-0.309
			s0.309,0.138,0.309,0.309v2.734C261.884,96.646,261.746,96.784,261.576,96.784z"/>
		<path fill="#D87355" d="M258.458,105.184c-0.17,0-0.309-0.138-0.309-0.309V93.742c0-0.171,0.139-0.309,0.309-0.309
			c0.171,0,0.309,0.138,0.309,0.309v11.133C258.767,105.045,258.629,105.184,258.458,105.184z"/>
		<path fill="#D87355" d="M267.921,100.41c-0.17,0-0.309-0.138-0.309-0.309v-6.249c0-0.17,0.139-0.309,0.309-0.309
			s0.309,0.138,0.309,0.309v6.249C268.23,100.272,268.091,100.41,267.921,100.41z"/>
		<path fill="#D87355" d="M264.804,105.295c-0.17,0-0.308-0.138-0.308-0.309V93.853c0-0.17,0.138-0.309,0.308-0.309
			c0.171,0,0.309,0.138,0.309,0.309v11.133C265.113,105.157,264.975,105.295,264.804,105.295z"/>
		<path fill="#D87355" d="M274.157,104.961c-0.171,0-0.31-0.138-0.31-0.309V93.519c0-0.17,0.139-0.309,0.31-0.309
			c0.17,0,0.308,0.138,0.308,0.309v11.133C274.464,104.823,274.327,104.961,274.157,104.961z"/>
		<path fill="#D87355" d="M271.041,104.961c-0.171,0-0.309-0.138-0.309-0.309V93.519c0-0.17,0.138-0.309,0.309-0.309
			c0.17,0,0.308,0.138,0.308,0.309v11.133C271.348,104.823,271.21,104.961,271.041,104.961z"/>
		<path fill="#D87355" d="M280.502,102.006c-0.171,0-0.309-0.138-0.309-0.309V93.63c0-0.17,0.138-0.308,0.309-0.308
			c0.17,0,0.308,0.138,0.308,0.308v8.067C280.81,101.868,280.672,102.006,280.502,102.006z"/>
		<path fill="#D87355" d="M277.386,105.072c-0.171,0-0.309-0.138-0.309-0.309v-8.288c0-0.17,0.138-0.309,0.309-0.309
			c0.17,0,0.309,0.138,0.309,0.309v8.288C277.695,104.934,277.556,105.072,277.386,105.072z"/>
	</g>
	<g>
		<rect x="255.544" y="159.146" fill="#F2E6DC" width="80.012" height="7.125"/>
		<circle fill="#E7D0BF" cx="259.255" cy="162.855" r="1.336"/>
		<circle fill="#E7D0BF" cx="332.439" cy="162.708" r="1.336"/>
	</g>
	<g>
		<rect x="255.248" y="146.676" fill="#F2E6DC" width="80.012" height="7.125"/>
		<circle fill="#E7D0BF" cx="258.958" cy="150.386" r="1.336"/>
		<circle fill="#E7D0BF" cx="332.143" cy="150.238" r="1.336"/>
	</g>
	<g>
		<rect x="255.099" y="134.504" fill="#F2E6DC" width="80.012" height="7.125"/>
		<circle fill="#E7D0BF" cx="258.81" cy="138.214" r="1.336"/>
		<circle fill="#E7D0BF" cx="331.994" cy="138.065" r="1.336"/>
	</g>
	<path fill="#373F45" d="M339.564,294.689h-93.521c-0.171,0-0.309-0.14-0.309-0.31V78.392c0-0.17,0.138-0.308,0.309-0.308h93.521
		c0.172,0,0.309,0.138,0.309,0.308v215.989C339.873,294.551,339.736,294.689,339.564,294.689z M246.352,294.072h92.904V78.701
		h-92.904V294.072L246.352,294.072z"/>
</g>
<g>
	<rect x="343.146" y="79.198" fill="#F1F9FA" width="90.851" height="214.505"/>
	<g>
		<path fill="#BC8271" d="M431.653,285.025h-80.46c-0.17,0-0.31-0.14-0.31-0.31V269.87c0-0.17,0.14-0.31,0.31-0.31h80.46
			c0.17,0,0.307,0.14,0.307,0.31v14.846C431.96,284.887,431.823,285.025,431.653,285.025z M351.502,284.408h79.843V270.18h-79.843
			V284.408z"/>
		<path fill="#D3BBA3" d="M392.238,279.588c-1.285,0-2.33-1.047-2.33-2.332s1.045-2.33,2.33-2.33s2.332,1.045,2.332,2.33
			S393.523,279.588,392.238,279.588z M392.238,275.541c-0.945,0-1.713,0.77-1.713,1.715s0.768,1.715,1.713,1.715
			c0.944,0,1.715-0.77,1.715-1.715S393.184,275.541,392.238,275.541z"/>
		<rect x="355.502" y="275.455" fill="#F2E6DC" width="20.041" height="3.711"/>
		<rect x="407.496" y="275.455" fill="#F2E6DC" width="20.04" height="3.711"/>
	</g>
	<g>
		<path fill="#BC8271" d="M431.429,265.652h-80.458c-0.17,0-0.309-0.139-0.309-0.31v-14.846c0-0.17,0.139-0.308,0.309-0.308h80.458
			c0.172,0,0.31,0.138,0.31,0.308v14.846C431.737,265.514,431.601,265.652,431.429,265.652z M351.279,265.035h79.843v-14.229
			h-79.843V265.035z"/>
		<path fill="#D3BBA3" d="M392.016,260.215c-1.284,0-2.33-1.047-2.33-2.332s1.046-2.33,2.33-2.33c1.285,0,2.332,1.045,2.332,2.33
			S393.301,260.215,392.016,260.215z M392.016,256.17c-0.944,0-1.713,0.768-1.713,1.713s0.769,1.715,1.713,1.715
			c0.945,0,1.716-0.77,1.716-1.715S392.961,256.17,392.016,256.17z"/>
		<rect x="355.279" y="256.082" fill="#F2E6DC" width="20.041" height="3.713"/>
		<rect x="407.273" y="256.082" fill="#F2E6DC" width="20.04" height="3.711"/>
	</g>
	<g>
		<path fill="#BC8271" d="M431.429,246.279h-80.458c-0.17,0-0.309-0.139-0.309-0.309v-14.847c0-0.17,0.139-0.308,0.309-0.308h80.458
			c0.172,0,0.31,0.138,0.31,0.308v14.847C431.737,246.141,431.601,246.279,431.429,246.279z M351.279,245.662h79.843v-14.229
			h-79.843V245.662z"/>
		<path fill="#D3BBA3" d="M392.016,240.842c-1.284,0-2.33-1.047-2.33-2.332s1.046-2.33,2.33-2.33c1.285,0,2.332,1.045,2.332,2.33
			S393.301,240.842,392.016,240.842z M392.016,236.797c-0.944,0-1.713,0.77-1.713,1.713c0,0.945,0.769,1.715,1.713,1.715
			c0.945,0,1.716-0.77,1.716-1.715C393.73,237.566,392.961,236.797,392.016,236.797z"/>
		<rect x="355.279" y="236.709" fill="#F2E6DC" width="20.041" height="3.713"/>
		<rect x="407.273" y="236.709" fill="#F2E6DC" width="20.04" height="3.711"/>
	</g>
	<g>
		<path fill="#84534E" d="M431.876,227.129h-80.458c-0.17,0-0.309-0.137-0.309-0.309v-14.844c0-0.17,0.139-0.31,0.309-0.31h80.458
			c0.17,0,0.309,0.14,0.309,0.31v14.844C432.185,226.992,432.046,227.129,431.876,227.129z M351.727,226.512h79.842v-14.227h-79.842
			V226.512z"/>
		<g>
			<circle fill="#D3BBA3" cx="425.732" cy="219.9" r="2.022"/>
			<circle fill="#D3BBA3" cx="419.035" cy="219.658" r="2.023"/>
			<circle fill="#BC8271" cx="412.354" cy="219.658" r="2.022"/>
		</g>
		<path fill="#D87355" d="M358.135,225.311c-0.17,0-0.309-0.137-0.309-0.309v-11.133c0-0.17,0.139-0.309,0.309-0.309
			s0.31,0.139,0.31,0.309v11.133C358.443,225.174,358.305,225.311,358.135,225.311z"/>
		<path fill="#D87355" d="M355.018,225.311c-0.17,0-0.307-0.137-0.307-0.309v-6.273c0-0.17,0.137-0.309,0.307-0.309
			c0.173,0,0.31,0.139,0.31,0.309v6.273C355.326,225.174,355.189,225.311,355.018,225.311z"/>
		<path fill="#D87355" d="M364.48,218.311c-0.171,0-0.31-0.137-0.31-0.309v-4.021c0-0.17,0.139-0.309,0.31-0.309
			c0.17,0,0.309,0.139,0.309,0.309v4.021C364.789,218.174,364.65,218.311,364.48,218.311z"/>
		<path fill="#D87355" d="M361.363,225.422c-0.17,0-0.308-0.137-0.308-0.309V213.98c0-0.17,0.138-0.31,0.308-0.31
			c0.172,0,0.309,0.14,0.309,0.31v11.133C361.672,225.285,361.535,225.422,361.363,225.422z"/>
		<path fill="#D87355" d="M370.715,221.646c-0.17,0-0.309-0.138-0.309-0.31v-7.69c0-0.17,0.139-0.31,0.309-0.31
			c0.172,0,0.31,0.14,0.31,0.31v7.69C371.023,221.51,370.887,221.646,370.715,221.646z"/>
		<path fill="#D87355" d="M367.6,225.088c-0.17,0-0.309-0.137-0.309-0.309v-11.133c0-0.17,0.139-0.31,0.309-0.31
			s0.31,0.14,0.31,0.31v11.133C367.908,224.951,367.77,225.088,367.6,225.088z"/>
		<path fill="#D87355" d="M377.061,218.311c-0.17,0-0.309-0.137-0.309-0.307v-4.246c0-0.17,0.139-0.309,0.309-0.309
			c0.173,0,0.31,0.139,0.31,0.309v4.246C377.369,218.174,377.232,218.311,377.061,218.311z"/>
		<path fill="#D87355" d="M373.945,225.199c-0.17,0-0.31-0.137-0.31-0.309v-11.134c0-0.17,0.14-0.309,0.31-0.309
			s0.309,0.139,0.309,0.309v11.134C374.254,225.063,374.115,225.199,373.945,225.199z"/>
	</g>
	<g>
		<path fill="#84534E" d="M432.097,209.207h-80.458c-0.17,0-0.309-0.139-0.309-0.309v-14.847c0-0.17,0.139-0.309,0.309-0.309h80.458
			c0.17,0,0.31,0.139,0.31,0.309v14.847C432.405,209.068,432.267,209.207,432.097,209.207z M351.947,208.59h79.841v-14.229h-79.841
			V208.59z"/>
		<g>
			<circle fill="#BC8271" cx="425.953" cy="201.977" r="2.022"/>
			<circle fill="#D3BBA3" cx="419.256" cy="201.736" r="2.022"/>
			<circle fill="#D3BBA3" cx="412.575" cy="201.736" r="2.022"/>
		</g>
		<path fill="#D87355" d="M358.355,207.389c-0.171,0-0.31-0.139-0.31-0.309v-11.133c0-0.172,0.139-0.309,0.31-0.309
			c0.17,0,0.309,0.137,0.309,0.309v11.133C358.664,207.25,358.525,207.389,358.355,207.389z"/>
		<path fill="#D87355" d="M355.238,207.389c-0.17,0-0.31-0.139-0.31-0.309v-8.225c0-0.17,0.14-0.31,0.31-0.31s0.309,0.14,0.309,0.31
			v8.225C355.547,207.25,355.408,207.389,355.238,207.389z"/>
		<path fill="#D87355" d="M364.701,207.5c-0.17,0-0.31-0.139-0.31-0.309v-11.133c0-0.173,0.14-0.31,0.31-0.31
			s0.309,0.137,0.309,0.31v11.133C365.01,207.361,364.871,207.5,364.701,207.5z"/>
		<path fill="#D87355" d="M361.584,207.5c-0.17,0-0.309-0.139-0.309-0.309v-4.42c0-0.17,0.139-0.308,0.309-0.308
			c0.172,0,0.309,0.138,0.309,0.308v4.42C361.893,207.361,361.756,207.5,361.584,207.5z"/>
		<path fill="#D87355" d="M370.936,207.166c-0.17,0-0.309-0.139-0.309-0.309v-11.135c0-0.171,0.139-0.308,0.309-0.308
			c0.173,0,0.31,0.137,0.31,0.308v11.135C371.244,207.027,371.107,207.166,370.936,207.166z"/>
		<path fill="#D87355" d="M367.82,207.166c-0.172,0-0.31-0.139-0.31-0.309v-3.359c0-0.17,0.138-0.309,0.31-0.309
			c0.17,0,0.309,0.139,0.309,0.309v3.359C368.129,207.027,367.99,207.166,367.82,207.166z"/>
		<path fill="#D87355" d="M377.281,201.195c-0.17,0-0.31-0.139-0.31-0.31v-5.051c0-0.172,0.14-0.31,0.31-0.31
			c0.172,0,0.309,0.138,0.309,0.31v5.051C377.59,201.057,377.453,201.195,377.281,201.195z"/>
		<path fill="#D87355" d="M374.166,207.277c-0.17,0-0.309-0.139-0.309-0.31v-8.692c0-0.17,0.139-0.31,0.309-0.31
			s0.309,0.14,0.309,0.31v8.692C374.475,207.139,374.336,207.277,374.166,207.277z"/>
	</g>
	<g>
		<path fill="#84534E" d="M431.874,189.945h-80.458c-0.17,0-0.309-0.139-0.309-0.31v-14.844c0-0.171,0.139-0.31,0.309-0.31h80.458
			c0.17,0,0.309,0.139,0.309,0.31v14.844C432.183,189.807,432.044,189.945,431.874,189.945z M351.725,189.328h79.842V175.1h-79.842
			V189.328z"/>
		<g>
			<circle fill="#D3BBA3" cx="425.73" cy="182.717" r="2.022"/>
			<circle fill="#BC8271" cx="419.033" cy="182.475" r="2.023"/>
			<circle fill="#BC8271" cx="412.353" cy="182.475" r="2.022"/>
		</g>
		<path fill="#D87355" d="M358.133,179.729c-0.17,0-0.309-0.139-0.309-0.309v-2.734c0-0.17,0.139-0.309,0.309-0.309
			s0.31,0.139,0.31,0.309v2.734C358.441,179.59,358.303,179.729,358.133,179.729z"/>
		<path fill="#D87355" d="M355.016,188.127c-0.17,0-0.307-0.137-0.307-0.309v-11.133c0-0.17,0.137-0.31,0.307-0.31
			c0.172,0,0.31,0.14,0.31,0.31v11.133C355.324,187.99,355.188,188.127,355.016,188.127z"/>
		<path fill="#D87355" d="M364.479,183.354c-0.17,0-0.309-0.138-0.309-0.309v-6.248c0-0.171,0.139-0.309,0.309-0.309
			c0.171,0,0.31,0.138,0.31,0.309v6.248C364.787,183.216,364.648,183.354,364.479,183.354z"/>
		<path fill="#D87355" d="M361.361,188.238c-0.17,0-0.308-0.137-0.308-0.309v-11.134c0-0.171,0.138-0.31,0.308-0.31
			c0.172,0,0.309,0.139,0.309,0.31v11.134C361.67,188.102,361.533,188.238,361.361,188.238z"/>
		<path fill="#D87355" d="M370.713,187.904c-0.17,0-0.309-0.137-0.309-0.31v-11.133c0-0.17,0.139-0.31,0.309-0.31
			c0.172,0,0.31,0.14,0.31,0.31v11.133C371.021,187.768,370.885,187.904,370.713,187.904z"/>
		<path fill="#D87355" d="M367.598,187.904c-0.17,0-0.309-0.137-0.309-0.31v-11.133c0-0.17,0.139-0.31,0.309-0.31
			s0.31,0.14,0.31,0.31v11.133C367.906,187.768,367.768,187.904,367.598,187.904z"/>
		<path fill="#D87355" d="M377.059,184.949c-0.17,0-0.309-0.137-0.309-0.309v-8.066c0-0.17,0.139-0.309,0.309-0.309
			c0.173,0,0.31,0.139,0.31,0.309v8.066C377.367,184.813,377.23,184.949,377.059,184.949z"/>
		<path fill="#D87355" d="M373.943,188.016c-0.17,0-0.31-0.139-0.31-0.309v-8.287c0-0.171,0.14-0.309,0.31-0.309
			s0.309,0.138,0.309,0.309v8.287C374.252,187.877,374.113,188.016,373.943,188.016z"/>
	</g>
	<g>
		<path fill="#84534E" d="M431.647,126.263h-80.458c-0.171,0-0.31-0.138-0.31-0.309v-14.845c0-0.17,0.139-0.308,0.31-0.308h80.458
			c0.17,0,0.309,0.138,0.309,0.308v14.845C431.956,126.125,431.817,126.263,431.647,126.263z M351.498,125.646h79.841v-14.228
			h-79.841V125.646z"/>
		<g>
			<circle fill="#BC8271" cx="425.504" cy="119.033" r="2.022"/>
			<circle fill="#D3BBA3" cx="418.806" cy="118.792" r="2.023"/>
			<circle fill="#D3BBA3" cx="412.126" cy="118.792" r="2.022"/>
		</g>
		<path fill="#D87355" d="M357.906,124.444c-0.17,0-0.31-0.138-0.31-0.308v-11.134c0-0.17,0.14-0.309,0.31-0.309
			s0.309,0.138,0.309,0.309v11.134C358.215,124.307,358.076,124.444,357.906,124.444z"/>
		<path fill="#D87355" d="M354.789,124.444c-0.17,0-0.309-0.138-0.309-0.308v-8.224c0-0.171,0.139-0.309,0.309-0.309
			c0.172,0,0.309,0.138,0.309,0.309v8.224C355.098,124.307,354.961,124.444,354.789,124.444z"/>
		<path fill="#D87355" d="M364.252,124.556c-0.17,0-0.309-0.138-0.309-0.309v-11.134c0-0.17,0.139-0.309,0.309-0.309
			s0.309,0.138,0.309,0.309v11.134C364.561,124.418,364.422,124.556,364.252,124.556z"/>
		<path fill="#D87355" d="M361.135,124.556c-0.17,0-0.309-0.138-0.309-0.309v-4.419c0-0.17,0.139-0.309,0.309-0.309
			c0.172,0,0.31,0.138,0.31,0.309v4.419C361.443,124.418,361.307,124.556,361.135,124.556z"/>
		<path fill="#D87355" d="M370.486,124.222c-0.17,0-0.31-0.138-0.31-0.308V112.78c0-0.171,0.14-0.309,0.31-0.309
			c0.172,0,0.309,0.138,0.309,0.309v11.133C370.795,124.084,370.658,124.222,370.486,124.222z"/>
		<path fill="#D87355" d="M367.371,124.222c-0.172,0-0.309-0.138-0.309-0.308v-3.36c0-0.17,0.137-0.308,0.309-0.308
			c0.17,0,0.309,0.138,0.309,0.308v3.36C367.68,124.084,367.541,124.222,367.371,124.222z"/>
		<path fill="#D87355" d="M376.832,118.251c-0.17,0-0.309-0.138-0.309-0.309v-5.052c0-0.17,0.139-0.309,0.309-0.309
			c0.172,0,0.309,0.138,0.309,0.309v5.052C377.141,118.113,377.004,118.251,376.832,118.251z"/>
		<path fill="#D87355" d="M373.717,124.333c-0.17,0-0.309-0.138-0.309-0.309v-8.692c0-0.171,0.139-0.309,0.309-0.309
			s0.31,0.138,0.31,0.309v8.692C374.025,124.195,373.887,124.333,373.717,124.333z"/>
	</g>
	<g>
		<path fill="#84534E" d="M431.425,107.002h-80.458c-0.17,0-0.309-0.138-0.309-0.309V91.849c0-0.17,0.139-0.309,0.309-0.309h80.458
			c0.17,0,0.31,0.138,0.31,0.309v14.845C431.733,106.864,431.595,107.002,431.425,107.002z M351.275,106.385h79.841V92.157h-79.841
			V106.385z"/>
		<g>
			<circle fill="#D3BBA3" cx="425.282" cy="99.772" r="2.023"/>
			<circle fill="#BC8271" cx="418.583" cy="99.531" r="2.023"/>
			<circle fill="#BC8271" cx="411.903" cy="99.531" r="2.022"/>
		</g>
		<path fill="#D87355" d="M357.684,96.784c-0.17,0-0.309-0.138-0.309-0.308v-2.734c0-0.171,0.139-0.309,0.309-0.309
			s0.31,0.138,0.31,0.309v2.734C357.992,96.646,357.854,96.784,357.684,96.784z"/>
		<path fill="#D87355" d="M354.566,105.184c-0.17,0-0.31-0.138-0.31-0.309V93.742c0-0.171,0.14-0.309,0.31-0.309
			c0.172,0,0.309,0.138,0.309,0.309v11.133C354.875,105.045,354.738,105.184,354.566,105.184z"/>
		<path fill="#D87355" d="M364.029,100.41c-0.17,0-0.31-0.138-0.31-0.309v-6.249c0-0.17,0.14-0.309,0.31-0.309
			s0.309,0.138,0.309,0.309v6.249C364.338,100.272,364.199,100.41,364.029,100.41z"/>
		<path fill="#D87355" d="M360.912,105.295c-0.17,0-0.307-0.138-0.307-0.309V93.853c0-0.17,0.137-0.309,0.307-0.309
			c0.172,0,0.309,0.138,0.309,0.309v11.133C361.221,105.157,361.084,105.295,360.912,105.295z"/>
		<path fill="#D87355" d="M370.266,104.961c-0.172,0-0.311-0.138-0.311-0.309V93.519c0-0.17,0.139-0.309,0.311-0.309
			c0.17,0,0.308,0.138,0.308,0.309v11.133C370.572,104.823,370.436,104.961,370.266,104.961z"/>
		<path fill="#D87355" d="M367.148,104.961c-0.171,0-0.31-0.138-0.31-0.309V93.519c0-0.17,0.14-0.309,0.31-0.309
			s0.309,0.138,0.309,0.309v11.133C367.457,104.823,367.318,104.961,367.148,104.961z"/>
		<path fill="#D87355" d="M376.611,102.006c-0.172,0-0.31-0.138-0.31-0.309V93.63c0-0.17,0.138-0.308,0.31-0.308
			c0.17,0,0.307,0.138,0.307,0.308v8.067C376.918,101.868,376.781,102.006,376.611,102.006z"/>
		<path fill="#D87355" d="M373.494,105.072c-0.17,0-0.31-0.138-0.31-0.309v-8.288c0-0.17,0.14-0.309,0.31-0.309
			s0.309,0.138,0.309,0.309v8.288C373.803,104.934,373.664,105.072,373.494,105.072z"/>
	</g>
	<g>
		<rect x="351.652" y="159.146" fill="#F2E6DC" width="80.013" height="7.125"/>
		<circle fill="#E7D0BF" cx="355.363" cy="162.855" r="1.336"/>
		<circle fill="#E7D0BF" cx="428.548" cy="162.708" r="1.336"/>
	</g>
	<g>
		<rect x="351.355" y="146.676" fill="#F2E6DC" width="80.013" height="7.125"/>
		<circle fill="#E7D0BF" cx="355.066" cy="150.386" r="1.336"/>
		<circle fill="#E7D0BF" cx="428.251" cy="150.238" r="1.336"/>
	</g>
	<g>
		<rect x="351.207" y="134.504" fill="#F2E6DC" width="80.013" height="7.125"/>
		<circle fill="#E7D0BF" cx="354.918" cy="138.214" r="1.336"/>
		<circle fill="#E7D0BF" cx="428.103" cy="138.065" r="1.336"/>
	</g>
	<path fill="#373F45" d="M435.673,294.689h-93.521c-0.17,0-0.31-0.14-0.31-0.31V78.392c0-0.17,0.14-0.308,0.31-0.308h93.521
		c0.172,0,0.31,0.138,0.31,0.308v215.989C435.981,294.551,435.845,294.689,435.673,294.689z M342.461,294.072h92.903V78.701h-92.903
		V294.072z"/>
</g>
<g>
	<rect x="439.284" y="79.198" fill="#F1F9FA" width="90.851" height="214.505"/>
	<g>
		<path fill="#BC8271" d="M527.791,285.025h-80.46c-0.17,0-0.309-0.14-0.309-0.31V269.87c0-0.17,0.139-0.31,0.309-0.31h80.46
			c0.17,0,0.307,0.14,0.307,0.31v14.846C528.098,284.887,527.961,285.025,527.791,285.025z M447.64,284.408h79.844V270.18H447.64
			V284.408z"/>
		<path fill="#D3BBA3" d="M488.376,279.588c-1.285,0-2.33-1.047-2.33-2.332s1.045-2.33,2.33-2.33s2.332,1.045,2.332,2.33
			S489.661,279.588,488.376,279.588z M488.376,275.541c-0.945,0-1.713,0.77-1.713,1.715s0.768,1.715,1.713,1.715
			s1.715-0.77,1.715-1.715S489.321,275.541,488.376,275.541z"/>
		<rect x="451.64" y="275.455" fill="#F2E6DC" width="20.041" height="3.711"/>
		<rect x="503.634" y="275.455" fill="#F2E6DC" width="20.04" height="3.711"/>
	</g>
	<g>
		<path fill="#BC8271" d="M527.566,265.652h-80.458c-0.171,0-0.31-0.139-0.31-0.31v-14.846c0-0.17,0.139-0.308,0.31-0.308h80.458
			c0.172,0,0.309,0.138,0.309,0.308v14.846C527.875,265.514,527.738,265.652,527.566,265.652z M447.417,265.035h79.843v-14.229
			h-79.843V265.035z"/>
		<path fill="#D3BBA3" d="M488.153,260.215c-1.285,0-2.33-1.047-2.33-2.332s1.045-2.33,2.33-2.33c1.284,0,2.332,1.045,2.332,2.33
			S489.438,260.215,488.153,260.215z M488.153,256.17c-0.945,0-1.713,0.768-1.713,1.713s0.768,1.715,1.713,1.715
			c0.944,0,1.715-0.77,1.715-1.715S489.099,256.17,488.153,256.17z"/>
		<rect x="451.417" y="256.082" fill="#F2E6DC" width="20.041" height="3.713"/>
		<rect x="503.411" y="256.082" fill="#F2E6DC" width="20.04" height="3.711"/>
	</g>
	<g>
		<path fill="#BC8271" d="M527.566,246.279h-80.458c-0.171,0-0.31-0.139-0.31-0.309v-14.847c0-0.17,0.139-0.308,0.31-0.308h80.458
			c0.172,0,0.309,0.138,0.309,0.308v14.847C527.875,246.141,527.738,246.279,527.566,246.279z M447.417,245.662h79.843v-14.229
			h-79.843V245.662z"/>
		<path fill="#D3BBA3" d="M488.153,240.842c-1.285,0-2.33-1.047-2.33-2.332s1.045-2.33,2.33-2.33c1.284,0,2.332,1.045,2.332,2.33
			S489.438,240.842,488.153,240.842z M488.153,236.797c-0.945,0-1.713,0.77-1.713,1.713c0,0.945,0.768,1.715,1.713,1.715
			c0.944,0,1.715-0.77,1.715-1.715C489.868,237.566,489.099,236.797,488.153,236.797z"/>
		<rect x="451.417" y="236.709" fill="#F2E6DC" width="20.041" height="3.713"/>
		<rect x="503.411" y="236.709" fill="#F2E6DC" width="20.04" height="3.711"/>
	</g>
	<g>
		<path fill="#84534E" d="M528.014,227.129h-80.458c-0.17,0-0.309-0.137-0.309-0.309v-14.844c0-0.17,0.139-0.31,0.309-0.31h80.458
			c0.17,0,0.31,0.14,0.31,0.31v14.844C528.322,226.992,528.184,227.129,528.014,227.129z M447.864,226.512h79.841v-14.227h-79.841
			V226.512z"/>
		<g>
			<circle fill="#D3BBA3" cx="521.87" cy="219.9" r="2.022"/>
			<circle fill="#D3BBA3" cx="515.172" cy="219.658" r="2.023"/>
			<circle fill="#BC8271" cx="508.492" cy="219.658" r="2.022"/>
		</g>
		<path fill="#D87355" d="M454.272,225.311c-0.171,0-0.31-0.137-0.31-0.309v-11.133c0-0.17,0.139-0.309,0.31-0.309
			c0.17,0,0.309,0.139,0.309,0.309v11.133C454.581,225.174,454.442,225.311,454.272,225.311z"/>
		<path fill="#D87355" d="M451.155,225.311c-0.17,0-0.308-0.137-0.308-0.309v-6.273c0-0.17,0.138-0.309,0.308-0.309
			c0.172,0,0.309,0.139,0.309,0.309v6.273C451.464,225.174,451.327,225.311,451.155,225.311z"/>
		<path fill="#D87355" d="M460.618,218.311c-0.17,0-0.31-0.137-0.31-0.309v-4.021c0-0.17,0.14-0.309,0.31-0.309
			s0.309,0.139,0.309,0.309v4.021C460.927,218.174,460.788,218.311,460.618,218.311z"/>
		<path fill="#D87355" d="M457.501,225.422c-0.17,0-0.307-0.137-0.307-0.309V213.98c0-0.17,0.137-0.31,0.307-0.31
			c0.172,0,0.309,0.14,0.309,0.31v11.133C457.81,225.285,457.673,225.422,457.501,225.422z"/>
		<path fill="#D87355" d="M466.853,221.646c-0.17,0-0.309-0.138-0.309-0.31v-7.69c0-0.17,0.139-0.31,0.309-0.31
			c0.173,0,0.31,0.14,0.31,0.31v7.69C467.161,221.51,467.024,221.646,466.853,221.646z"/>
		<path fill="#D87355" d="M463.737,225.088c-0.17,0-0.31-0.137-0.31-0.309v-11.133c0-0.17,0.14-0.31,0.31-0.31
			s0.309,0.14,0.309,0.31v11.133C464.046,224.951,463.907,225.088,463.737,225.088z"/>
		<path fill="#D87355" d="M473.198,218.311c-0.17,0-0.31-0.137-0.31-0.307v-4.246c0-0.17,0.14-0.309,0.31-0.309
			c0.172,0,0.309,0.139,0.309,0.309v4.246C473.507,218.174,473.37,218.311,473.198,218.311z"/>
		<path fill="#D87355" d="M470.083,225.199c-0.17,0-0.309-0.137-0.309-0.309v-11.134c0-0.17,0.139-0.309,0.309-0.309
			s0.309,0.139,0.309,0.309v11.134C470.392,225.063,470.253,225.199,470.083,225.199z"/>
	</g>
	<g>
		<path fill="#84534E" d="M528.234,209.207h-80.458c-0.17,0-0.31-0.139-0.31-0.309v-14.847c0-0.17,0.14-0.309,0.31-0.309h80.458
			c0.17,0,0.309,0.139,0.309,0.309v14.847C528.543,209.068,528.404,209.207,528.234,209.207z M448.085,208.59h79.841v-14.229
			h-79.841V208.59L448.085,208.59z"/>
		<g>
			<circle fill="#BC8271" cx="522.091" cy="201.977" r="2.022"/>
			<circle fill="#D3BBA3" cx="515.394" cy="201.736" r="2.022"/>
			<circle fill="#D3BBA3" cx="508.713" cy="201.736" r="2.022"/>
		</g>
		<path fill="#D87355" d="M454.493,207.389c-0.17,0-0.31-0.139-0.31-0.309v-11.133c0-0.172,0.14-0.309,0.31-0.309
			s0.309,0.137,0.309,0.309v11.133C454.802,207.25,454.663,207.389,454.493,207.389z"/>
		<path fill="#D87355" d="M451.376,207.389c-0.17,0-0.309-0.139-0.309-0.309v-8.225c0-0.17,0.139-0.31,0.309-0.31
			s0.309,0.14,0.309,0.31v8.225C451.685,207.25,451.546,207.389,451.376,207.389z"/>
		<path fill="#D87355" d="M460.839,207.5c-0.17,0-0.309-0.139-0.309-0.309v-11.133c0-0.173,0.139-0.31,0.309-0.31
			s0.31,0.137,0.31,0.31v11.133C461.147,207.361,461.009,207.5,460.839,207.5z"/>
		<path fill="#D87355" d="M457.722,207.5c-0.17,0-0.309-0.139-0.309-0.309v-4.42c0-0.17,0.139-0.308,0.309-0.308
			c0.172,0,0.31,0.138,0.31,0.308v4.42C458.03,207.361,457.894,207.5,457.722,207.5z"/>
		<path fill="#D87355" d="M467.073,207.166c-0.17,0-0.31-0.139-0.31-0.309v-11.135c0-0.171,0.14-0.308,0.31-0.308
			c0.172,0,0.309,0.137,0.309,0.308v11.135C467.382,207.027,467.245,207.166,467.073,207.166z"/>
		<path fill="#D87355" d="M463.958,207.166c-0.172,0-0.309-0.139-0.309-0.309v-3.359c0-0.17,0.137-0.309,0.309-0.309
			c0.17,0,0.309,0.139,0.309,0.309v3.359C464.267,207.027,464.128,207.166,463.958,207.166z"/>
		<path fill="#D87355" d="M473.419,201.195c-0.17,0-0.309-0.139-0.309-0.31v-5.051c0-0.172,0.139-0.31,0.309-0.31
			c0.172,0,0.309,0.138,0.309,0.31v5.051C473.728,201.057,473.591,201.195,473.419,201.195z"/>
		<path fill="#D87355" d="M470.304,207.277c-0.17,0-0.309-0.139-0.309-0.31v-8.692c0-0.17,0.139-0.31,0.309-0.31
			s0.31,0.14,0.31,0.31v8.692C470.612,207.139,470.474,207.277,470.304,207.277z"/>
	</g>
	<g>
		<path fill="#84534E" d="M528.012,189.945h-80.458c-0.17,0-0.309-0.139-0.309-0.31v-14.844c0-0.171,0.139-0.31,0.309-0.31h80.458
			c0.17,0,0.31,0.139,0.31,0.31v14.844C528.32,189.807,528.182,189.945,528.012,189.945z M447.862,189.328h79.841V175.1h-79.841
			V189.328z"/>
		<g>
			<circle fill="#D3BBA3" cx="521.868" cy="182.717" r="2.022"/>
			<circle fill="#BC8271" cx="515.17" cy="182.475" r="2.023"/>
			<circle fill="#BC8271" cx="508.49" cy="182.475" r="2.022"/>
		</g>
		<path fill="#D87355" d="M454.271,179.729c-0.171,0-0.31-0.139-0.31-0.309v-2.734c0-0.17,0.139-0.309,0.31-0.309
			c0.17,0,0.309,0.139,0.309,0.309v2.734C454.579,179.59,454.44,179.729,454.271,179.729z"/>
		<path fill="#D87355" d="M451.153,188.127c-0.17,0-0.308-0.137-0.308-0.309v-11.133c0-0.17,0.138-0.31,0.308-0.31
			c0.172,0,0.309,0.14,0.309,0.31v11.133C451.462,187.99,451.325,188.127,451.153,188.127z"/>
		<path fill="#D87355" d="M460.616,183.354c-0.17,0-0.31-0.138-0.31-0.309v-6.248c0-0.171,0.14-0.309,0.31-0.309
			s0.309,0.138,0.309,0.309v6.248C460.925,183.216,460.786,183.354,460.616,183.354z"/>
		<path fill="#D87355" d="M457.499,188.238c-0.17,0-0.307-0.137-0.307-0.309v-11.134c0-0.171,0.137-0.31,0.307-0.31
			c0.172,0,0.309,0.139,0.309,0.31v11.134C457.808,188.102,457.671,188.238,457.499,188.238z"/>
		<path fill="#D87355" d="M466.851,187.904c-0.17,0-0.309-0.137-0.309-0.31v-11.133c0-0.17,0.139-0.31,0.309-0.31
			c0.173,0,0.31,0.14,0.31,0.31v11.133C467.159,187.768,467.022,187.904,466.851,187.904z"/>
		<path fill="#D87355" d="M463.735,187.904c-0.17,0-0.31-0.137-0.31-0.31v-11.133c0-0.17,0.14-0.31,0.31-0.31s0.309,0.14,0.309,0.31
			v11.133C464.044,187.768,463.905,187.904,463.735,187.904z"/>
		<path fill="#D87355" d="M473.196,184.949c-0.17,0-0.31-0.137-0.31-0.309v-8.066c0-0.17,0.14-0.309,0.31-0.309
			c0.172,0,0.309,0.139,0.309,0.309v8.066C473.505,184.813,473.368,184.949,473.196,184.949z"/>
		<path fill="#D87355" d="M470.081,188.016c-0.17,0-0.309-0.139-0.309-0.309v-8.287c0-0.171,0.139-0.309,0.309-0.309
			s0.309,0.138,0.309,0.309v8.287C470.39,187.877,470.251,188.016,470.081,188.016z"/>
	</g>
	<g>
		<path fill="#84534E" d="M527.785,126.263h-80.458c-0.17,0-0.31-0.138-0.31-0.309v-14.845c0-0.17,0.14-0.308,0.31-0.308h80.458
			c0.17,0,0.309,0.138,0.309,0.308v14.845C528.094,126.125,527.955,126.263,527.785,126.263z M447.636,125.646h79.841v-14.228
			h-79.841V125.646z"/>
		<g>
			<circle fill="#BC8271" cx="521.642" cy="119.033" r="2.022"/>
			<circle fill="#D3BBA3" cx="514.944" cy="118.792" r="2.023"/>
			<circle fill="#D3BBA3" cx="508.264" cy="118.792" r="2.022"/>
		</g>
		<path fill="#D87355" d="M454.044,124.444c-0.17,0-0.309-0.138-0.309-0.308v-11.134c0-0.17,0.139-0.309,0.309-0.309
			s0.309,0.138,0.309,0.309v11.134C454.353,124.307,454.214,124.444,454.044,124.444z"/>
		<path fill="#D87355" d="M450.927,124.444c-0.17,0-0.309-0.138-0.309-0.308v-8.224c0-0.171,0.139-0.309,0.309-0.309
			c0.172,0,0.31,0.138,0.31,0.309v8.224C451.235,124.307,451.099,124.444,450.927,124.444z"/>
		<path fill="#D87355" d="M460.39,124.556c-0.17,0-0.309-0.138-0.309-0.309v-11.134c0-0.17,0.139-0.309,0.309-0.309
			s0.31,0.138,0.31,0.309v11.134C460.698,124.418,460.56,124.556,460.39,124.556z"/>
		<path fill="#D87355" d="M457.272,124.556c-0.171,0-0.31-0.138-0.31-0.309v-4.419c0-0.17,0.139-0.309,0.31-0.309
			c0.172,0,0.309,0.138,0.309,0.309v4.419C457.581,124.418,457.444,124.556,457.272,124.556z"/>
		<path fill="#D87355" d="M466.624,124.222c-0.17,0-0.309-0.138-0.309-0.308V112.78c0-0.171,0.139-0.309,0.309-0.309
			c0.172,0,0.309,0.138,0.309,0.309v11.133C466.933,124.084,466.796,124.222,466.624,124.222z"/>
		<path fill="#D87355" d="M463.509,124.222c-0.172,0-0.309-0.138-0.309-0.308v-3.36c0-0.17,0.137-0.308,0.309-0.308
			c0.17,0,0.31,0.138,0.31,0.308v3.36C463.817,124.084,463.679,124.222,463.509,124.222z"/>
		<path fill="#D87355" d="M472.97,118.251c-0.17,0-0.309-0.138-0.309-0.309v-5.052c0-0.17,0.139-0.309,0.309-0.309
			c0.172,0,0.31,0.138,0.31,0.309v5.052C473.278,118.113,473.142,118.251,472.97,118.251z"/>
		<path fill="#D87355" d="M469.854,124.333c-0.17,0-0.309-0.138-0.309-0.309v-8.692c0-0.171,0.139-0.309,0.309-0.309
			c0.171,0,0.31,0.138,0.31,0.309v8.692C470.163,124.195,470.024,124.333,469.854,124.333z"/>
	</g>
	<g>
		<path fill="#84534E" d="M527.563,107.002h-80.457c-0.171,0-0.31-0.138-0.31-0.309V91.849c0-0.17,0.139-0.309,0.31-0.309h80.457
			c0.171,0,0.31,0.138,0.31,0.309v14.845C527.871,106.864,527.732,107.002,527.563,107.002z M447.413,106.385h79.841V92.157h-79.841
			V106.385L447.413,106.385z"/>
		<g>
			<circle fill="#D3BBA3" cx="521.42" cy="99.772" r="2.023"/>
			<circle fill="#BC8271" cx="514.721" cy="99.531" r="2.023"/>
			<circle fill="#BC8271" cx="508.041" cy="99.531" r="2.022"/>
		</g>
		<path fill="#D87355" d="M453.821,96.784c-0.17,0-0.31-0.138-0.31-0.308v-2.734c0-0.171,0.14-0.309,0.31-0.309
			s0.309,0.138,0.309,0.309v2.734C454.13,96.646,453.991,96.784,453.821,96.784z"/>
		<path fill="#D87355" d="M450.704,105.184c-0.17,0-0.31-0.138-0.31-0.309V93.742c0-0.171,0.14-0.309,0.31-0.309
			c0.172,0,0.309,0.138,0.309,0.309v11.133C451.013,105.045,450.876,105.184,450.704,105.184z"/>
		<path fill="#D87355" d="M460.167,100.41c-0.17,0-0.309-0.138-0.309-0.309v-6.249c0-0.17,0.139-0.309,0.309-0.309
			s0.309,0.138,0.309,0.309v6.249C460.476,100.272,460.337,100.41,460.167,100.41z"/>
		<path fill="#D87355" d="M457.05,105.295c-0.17,0-0.307-0.138-0.307-0.309V93.853c0-0.17,0.137-0.309,0.307-0.309
			c0.172,0,0.31,0.138,0.31,0.309v11.133C457.358,105.157,457.222,105.295,457.05,105.295z"/>
		<path fill="#D87355" d="M466.403,104.961c-0.172,0-0.312-0.138-0.312-0.309V93.519c0-0.17,0.14-0.309,0.312-0.309
			c0.17,0,0.307,0.138,0.307,0.309v11.133C466.71,104.823,466.573,104.961,466.403,104.961z"/>
		<path fill="#D87355" d="M463.286,104.961c-0.17,0-0.31-0.138-0.31-0.309V93.519c0-0.17,0.14-0.309,0.31-0.309
			s0.309,0.138,0.309,0.309v11.133C463.595,104.823,463.456,104.961,463.286,104.961z"/>
		<path fill="#D87355" d="M472.749,102.006c-0.172,0-0.309-0.138-0.309-0.309V93.63c0-0.17,0.137-0.308,0.309-0.308
			c0.17,0,0.307,0.138,0.307,0.308v8.067C473.056,101.868,472.919,102.006,472.749,102.006z"/>
		<path fill="#D87355" d="M469.632,105.072c-0.17,0-0.309-0.138-0.309-0.309v-8.288c0-0.17,0.139-0.309,0.309-0.309
			s0.31,0.138,0.31,0.309v8.288C469.94,104.934,469.802,105.072,469.632,105.072z"/>
	</g>
	<g>
		<rect x="447.79" y="159.146" fill="#F2E6DC" width="80.013" height="7.125"/>
		<circle fill="#E7D0BF" cx="451.501" cy="162.855" r="1.336"/>
		<circle fill="#E7D0BF" cx="524.686" cy="162.708" r="1.336"/>
	</g>
	<g>
		<rect x="447.493" y="146.676" fill="#F2E6DC" width="80.013" height="7.125"/>
		<circle fill="#E7D0BF" cx="451.204" cy="150.386" r="1.336"/>
		<circle fill="#E7D0BF" cx="524.389" cy="150.238" r="1.336"/>
	</g>
	<g>
		<rect x="447.345" y="134.504" fill="#F2E6DC" width="80.014" height="7.125"/>
		<circle fill="#E7D0BF" cx="451.056" cy="138.214" r="1.336"/>
		<circle fill="#E7D0BF" cx="524.24" cy="138.065" r="1.336"/>
	</g>
	<path fill="#373F45" d="M531.811,294.689H438.29c-0.17,0-0.309-0.14-0.309-0.31V78.392c0-0.17,0.139-0.308,0.309-0.308h93.521
		c0.173,0,0.31,0.138,0.31,0.308v215.989C532.119,294.551,531.982,294.689,531.811,294.689z M438.599,294.072h92.903V78.701h-92.903
		V294.072z"/>
</g>
<g>
	<g>
		<polygon fill="#776E43" points="202.408,234.038 204.305,282.604 132.254,282.604 130.1,235.966 130.054,234.969 		"/>
		<g>
			<polygon fill="#85534E" points="171.621,281.57 149.113,267.229 141.014,289.504 163.146,294.32 			"/>
			<path fill="#D3BBA3" d="M210.449,294.154h-48.6l3.265-18.047c0,0,20.614-8.881,43.147,4.306
				C208.262,280.413,213.814,287.202,210.449,294.154z"/>
			<path fill="#373F45" d="M175.912,289.842c-0.225,0-0.406-0.183-0.406-0.406V278.37c0-0.224,0.182-0.405,0.406-0.405
				s0.405,0.182,0.405,0.405v11.065C176.317,289.659,176.136,289.842,175.912,289.842z"/>
			<path fill="#373F45" d="M179.053,289.842c-0.225,0-0.406-0.183-0.406-0.406V278.37c0-0.224,0.182-0.405,0.406-0.405
				c0.223,0,0.404,0.182,0.404,0.405v11.065C179.457,289.659,179.275,289.842,179.053,289.842z"/>
			<path fill="#8C865C" d="M160.559,263.386l-13.652,30.769c0,0-37.967-8.004-64.375-24.525
				c-9.227-5.771-12.205-17.842-6.709-27.236c0.079-0.135,0.158-0.269,0.237-0.4c4.697-7.852,14.207-11.408,22.971-8.78
				C113.064,237.418,139.242,246.823,160.559,263.386z"/>
		</g>
		<g>
			<polygon fill="#85534E" points="159.466,281.57 181.973,267.229 190.073,289.504 167.94,294.32 			"/>
			<path fill="#FFFFFF" d="M121.155,294.154h48.082l-3.265-17.051c0,0-17.779-10.344-39.012-2.381
				C126.961,274.725,124.131,280.773,121.155,294.154z"/>
			<path fill="#373F45" d="M155.176,289.842c-0.225,0-0.406-0.183-0.406-0.406V278.37c0-0.224,0.182-0.405,0.406-0.405
				c0.224,0,0.406,0.182,0.406,0.405v11.065C155.582,289.659,155.4,289.842,155.176,289.842z"/>
			<path fill="#373F45" d="M152.035,289.842c-0.225,0-0.406-0.183-0.406-0.406V278.37c0-0.224,0.182-0.405,0.406-0.405
				c0.224,0,0.406,0.182,0.406,0.405v11.065C152.441,289.659,152.26,289.842,152.035,289.842z"/>
			<path fill="#8C865C" d="M170.528,263.386l13.653,30.769c0,0,37.967-8.004,64.373-24.525c9.229-5.771,12.206-17.842,6.71-27.236
				c-0.079-0.135-0.157-0.269-0.237-0.4c-4.697-7.852-14.207-11.408-22.971-8.78C218.021,237.418,191.845,246.823,170.528,263.386z"
				/>
		</g>
	</g>
	<g>
		<path fill="#D87355" d="M114.277,245.669L110.464,245c-6.829-1.199-11.132-8.009-9.312-14.699
			c1.736-6.378,4.24-14.189,7.512-20.951c3.211-6.642,9.35-11.4,16.592-12.81c15.27-2.97,46.306-7.03,78.33,0.381
			c6.596,1.527,12.226,5.828,15.387,11.813c2.715,5.141,5.894,12.054,8.111,19.672c2.101,7.222-2.301,14.729-9.602,16.533
			l-17.052-3.701L114.277,245.669z"/>
		<path fill="#85534E" d="M105.182,231.564c-0.281,1.009-0.45,2.105-0.461,3.295c-0.05,5.365,3.374,10.154,8.381,12.084l25,6.67
			l5.442-18.563l-25.729-9.746C112.585,223.324,106.68,226.177,105.182,231.564z"/>
		<path fill="#85534E" d="M222.279,237.424c-0.35,0.986-0.84,1.984-1.513,2.965c-3.034,4.424-8.585,6.387-13.794,5.098
			l-25.194-6.233l7.065-20.959l26.67,6.761C220.936,226.428,224.14,232.148,222.279,237.424z"/>
	</g>
	<g>
		<rect x="132.893" y="210.999" fill="#373F45" width="64.889" height="38.901"/>
		<rect x="132.893" y="250.962" fill="#373F45" width="64.889" height="3.981"/>
		<path fill="#41494D" d="M168.863,232.76h-7.053c-0.225,0-0.406-0.182-0.406-0.406v-7.053c0-0.226,0.182-0.406,0.406-0.406h7.053
			c0.225,0,0.406,0.182,0.406,0.406v7.053C169.27,232.578,169.088,232.76,168.863,232.76z M162.217,231.947h6.24v-6.241h-6.24
			V231.947z"/>
		<path fill="#41494D" d="M194.973,214.529h-59.271c-0.225,0-0.406-0.182-0.406-0.404c0-0.225,0.182-0.407,0.406-0.407h59.271
			c0.225,0,0.406,0.183,0.406,0.407S195.197,214.529,194.973,214.529z"/>
	</g>
	<g>
		
			<ellipse transform="matrix(-0.5954 -0.8034 0.8034 -0.5954 98.597 412.8184)" fill="#85534E" cx="153.244" cy="181.583" rx="4.36" ry="3.71"/>
		
			<ellipse transform="matrix(-0.5107 0.8598 -0.8598 -0.5107 422.6308 120.2124)" fill="#85534E" cx="177.107" cy="180.372" rx="4.36" ry="3.71"/>
		<path fill="#373F45" d="M176.018,173.791c-0.319-6.141-5.557-10.859-11.697-10.542l0,0c-6.141,0.319-10.861,5.556-10.542,11.696
			l0.374,7.207l22.238-1.154L176.018,173.791z"/>
		<path fill="#85534E" d="M164.436,203.077L164.436,203.077c-4.299-0.197-7.625-3.843-7.428-8.142l0.723-15.746l15.568,0.715
			l-0.723,15.746C172.379,199.949,168.734,203.273,164.436,203.077z"/>
		<path fill="#85534E" d="M175.945,180.559c0.354,6.938-4.148,12.809-10.053,13.108c-5.906,0.301-10.979-5.081-11.332-12.021
			c-0.354-6.938,4.146-10.901,10.053-11.201C170.519,170.145,175.592,173.619,175.945,180.559z"/>
		<path fill="#373F45" d="M165.416,194.085c-2.797,0-5.468-1.208-7.567-3.437c-0.153-0.162-0.146-0.418,0.017-0.572
			c0.163-0.154,0.42-0.146,0.574,0.018c2.057,2.182,4.697,3.311,7.432,3.168c2.735-0.14,5.247-1.527,7.072-3.906
			c0.137-0.179,0.392-0.211,0.568-0.074c0.178,0.136,0.212,0.391,0.076,0.568c-1.973,2.571-4.699,4.071-7.676,4.224
			C165.747,194.08,165.582,194.085,165.416,194.085z"/>
		<path fill="#373F45" d="M175.943,184.334c-0.023,0-0.049-0.002-0.073-0.007c-0.22-0.039-0.366-0.251-0.327-0.472
			c0.195-1.068,0.265-2.17,0.209-3.275c-0.051-0.987-0.201-1.963-0.447-2.9c-0.057-0.217,0.074-0.438,0.291-0.496
			c0.217-0.055,0.438,0.073,0.495,0.291c0.26,0.991,0.418,2.021,0.472,3.063c0.059,1.168-0.015,2.333-0.221,3.463
			C176.307,184.197,176.137,184.334,175.943,184.334z"/>
		<path fill="#373F45" d="M154.887,185.328c-0.177,0-0.34-0.117-0.391-0.296c-0.309-1.085-0.494-2.216-0.553-3.365
			c-0.055-1.062,0.002-2.123,0.167-3.155c0.036-0.221,0.242-0.373,0.464-0.336c0.223,0.034,0.373,0.243,0.338,0.465
			c-0.156,0.977-0.209,1.98-0.158,2.986c0.055,1.086,0.23,2.157,0.523,3.184c0.062,0.215-0.063,0.44-0.279,0.502
			C154.961,185.322,154.924,185.328,154.887,185.328z"/>
		<g>
			<path fill="#FFFFFF" d="M172.935,179.512c-0.646-0.021-1.829,0.133-2.442,0.331c-0.59,0.189-1.102,0.538-1.651,1.077
				c-0.817,0.76-1.251,1.548-1.251,1.548s1.145,0.423,2.527,0.343c0.479-0.026,0.818-0.687,1.316-0.873
				c0.611-0.229,1.305-0.006,1.736-0.377c0.938-0.808,1.436-1.717,1.436-1.717S173.902,179.586,172.935,179.512z"/>
			<g>
				<g>
					<defs>
						<path id="SVGID_1_" d="M167.59,182.469c0,0,2.076,0.766,4.014,0.04c1.938-0.725,3.002-2.665,3.002-2.665
							s-2.076-0.765-4.014-0.041C168.654,180.527,167.59,182.469,167.59,182.469z"/>
					</defs>
					<clipPath id="SVGID_2_">
						<use xlink:href="#SVGID_1_"  overflow="visible"/>
					</clipPath>
					<circle clip-path="url(#SVGID_2_)" fill="#373F45" cx="171.098" cy="182.083" r="2.274"/>
				</g>
			</g>
		</g>
		<g>
			<path fill="#FFFFFF" d="M158.475,179.512c0.646-0.021,1.828,0.133,2.442,0.331c0.59,0.189,1.103,0.538,1.651,1.077
				c0.816,0.76,1.252,1.548,1.252,1.548s-1.146,0.423-2.527,0.343c-0.48-0.026-0.818-0.687-1.317-0.873
				c-0.611-0.229-1.306-0.006-1.737-0.377c-0.937-0.808-1.436-1.717-1.436-1.717S157.506,179.586,158.475,179.512z"/>
			<g>
				<g>
					<defs>
						<path id="SVGID_3_" d="M163.82,182.469c0,0-2.077,0.766-4.015,0.04c-1.938-0.725-3.003-2.665-3.003-2.665
							s2.077-0.765,4.015-0.041C162.756,180.527,163.82,182.469,163.82,182.469z"/>
					</defs>
					<clipPath id="SVGID_4_">
						<use xlink:href="#SVGID_3_"  overflow="visible"/>
					</clipPath>
					<circle clip-path="url(#SVGID_4_)" fill="#373F45" cx="160.312" cy="182.083" r="2.272"/>
				</g>
			</g>
		</g>
		<path fill="#373F45" d="M165.995,186.148c-0.122,0-0.241-0.056-0.321-0.159c-0.137-0.179-0.104-0.433,0.074-0.568
			c0.232-0.18,0.362-0.353,0.365-0.483c0.002-0.084-0.048-0.162-0.17-0.332c-0.145-0.201-0.324-0.451-0.403-0.834
			c-0.071-0.342-0.042-0.701,0.087-1.07c0.074-0.211,0.306-0.322,0.517-0.248c0.212,0.072,0.323,0.305,0.249,0.518
			c-0.079,0.227-0.098,0.441-0.058,0.637c0.044,0.215,0.147,0.357,0.267,0.523c0.147,0.205,0.33,0.46,0.324,0.822
			c-0.008,0.396-0.238,0.77-0.684,1.111C166.169,186.121,166.082,186.148,165.995,186.148z"/>
		<path fill="#373F45" d="M164.331,187.895c-0.458,0-1.144-0.093-1.813-0.523c-0.425-0.275-0.787-0.654-1.048-1.1
			c-0.114-0.192-0.05-0.441,0.144-0.556c0.194-0.114,0.442-0.048,0.557,0.146c0.195,0.335,0.469,0.621,0.789,0.826
			c0.611,0.396,1.244,0.412,1.568,0.388c0.223-0.015,0.42,0.149,0.438,0.373c0.017,0.224-0.15,0.419-0.373,0.437
			C164.516,187.891,164.43,187.895,164.331,187.895z"/>
		<g>
			<path fill="#373F45" d="M164.082,168.684c0,0,20.042-19.7,8.215-25.128C162.143,138.893,163.179,164.828,164.082,168.684z"/>
			<path fill="#373F45" d="M164.037,168.277c0,0,6.239-33.029-6.643-31.18C146.334,138.685,161.188,165.527,164.037,168.277z"/>
			<path fill="#373F45" d="M162.401,166.811c0,0-6.289-23.521-15.351-14.181C139.271,160.65,158.465,166.378,162.401,166.811z"/>
			<path fill="#373F45" d="M159.389,165.99c0,0-8.608-4.004-8.922,0.383C150.196,170.139,158.276,166.732,159.389,165.99z"/>
		</g>
	</g>
</g>
<g>
	<g>
		<g>
			<g>
				<g>
					<g>
						<rect x="60.034" y="247.225" fill="#E0E0E0" width="56.302" height="7.521"/>
					</g>
				</g>
			</g>
		</g>
		<g>
			<g>
				<g>
					<g>
						<g>
							<ellipse fill="#FAFBFB" cx="67.705" cy="251.059" rx="0.354" ry="3.524"/>
						</g>
					</g>
				</g>
			</g>
		</g>
		<g>
			<g>
				<g>
					<g>
						<g>
							<ellipse fill="#FAFBFB" cx="66.479" cy="250.906" rx="0.354" ry="3.524"/>
						</g>
					</g>
				</g>
			</g>
		</g>
		<g>
			<g>
				<g>
					<g>
						<g>
							<ellipse fill="#FAFBFB" cx="111.982" cy="251.059" rx="0.354" ry="3.524"/>
						</g>
					</g>
				</g>
			</g>
		</g>
		<g>
			<g>
				<g>
					<g>
						<g>
							<ellipse fill="#FAFBFB" cx="110.757" cy="250.906" rx="0.354" ry="3.524"/>
						</g>
					</g>
				</g>
			</g>
		</g>
		<g>
			<g>
				<g>
					<g>
						<g>
							<ellipse fill="#FAFBFB" cx="89.001" cy="251.212" rx="14.402" ry="0.354"/>
						</g>
					</g>
				</g>
			</g>
		</g>
	</g>
	<g>
		<g>
			<g>
				<g>
					<g>
						<rect x="59.791" y="281.088" fill="#E0E0E0" width="56.302" height="15.043"/>
					</g>
				</g>
			</g>
		</g>
		<g>
			<g>
				<g>
					<g>
						<g>
							<path fill="#FAFBFB" d="M116.813,291.898c0.006,0.013-0.098,0.07-0.305,0.177s-0.521,0.252-0.938,0.429
								c-0.837,0.342-2.101,0.826-3.817,1.092c-1.688,0.24-3.953,0.309-6.193-0.879c-1.1-0.588-2.146-1.48-2.942-2.666
								c-0.778-1.182-1.278-2.727-1.024-4.333c0.135-0.799,0.469-1.588,1.035-2.239c0.551-0.653,1.434-1.135,2.375-1.08
								c0.943,0.043,1.795,0.584,2.387,1.287c0.596,0.707,1.004,1.61,1.089,2.565c0.223,1.907-0.581,3.886-1.941,5.332
								c-1.339,1.498-3.341,2.411-5.41,2.646c-2.083,0.246-4.237-0.084-6.281-0.781c-2.044-0.703-4.062-1.85-5.487-3.688
								c-0.699-0.912-1.204-2.046-1.279-3.248c-0.104-1.197,0.279-2.484,1.199-3.379c0.457-0.445,1.098-0.744,1.762-0.771
								c0.664-0.032,1.305,0.185,1.84,0.518c1.086,0.676,1.78,1.828,2.072,3.035c0.529,2.46-0.445,5.021-2.221,6.627
								c-1.78,1.619-4.113,2.339-6.338,2.58c-2.241,0.225-4.494,0.059-6.571-0.646c-2.067-0.688-3.929-2.05-4.999-3.887
								c-1.089-1.795-1.445-4.068-0.626-5.977c0.385-0.944,1.255-1.783,2.296-1.942c1.016-0.19,2.054,0.09,2.836,0.685
								c1.59,1.26,1.855,3.422,1.342,5.067c-0.521,1.692-1.659,2.989-2.838,3.998c-2.407,2.032-5.256,2.911-7.721,2.999
								c-2.491,0.088-4.586-0.6-6.117-1.391c-1.544-0.803-2.56-1.715-3.189-2.363c-0.311-0.332-0.537-0.594-0.674-0.782
								c-0.142-0.187-0.209-0.284-0.199-0.291c0.072-0.099,1.127,1.642,4.186,3.19c1.519,0.736,3.57,1.363,5.977,1.24
								c2.383-0.121,5.125-1.01,7.412-2.983c1.125-0.979,2.184-2.229,2.641-3.772c0.459-1.49,0.161-3.42-1.172-4.443
								c-0.65-0.491-1.545-0.721-2.367-0.56c-0.835,0.14-1.496,0.774-1.841,1.599c-0.71,1.672-0.399,3.742,0.615,5.392
								c0.995,1.688,2.7,2.935,4.659,3.582c1.955,0.659,4.131,0.817,6.276,0.597c2.131-0.232,4.317-0.928,5.939-2.41
								c1.601-1.437,2.476-3.793,2.004-5.947c-0.255-1.053-0.859-2.038-1.755-2.594c-0.879-0.582-2.028-0.563-2.746,0.168
								c-0.727,0.701-1.078,1.791-0.982,2.818c0.063,1.045,0.498,2.043,1.134,2.877c1.291,1.678,3.207,2.793,5.151,3.467
								c1.968,0.678,4.027,0.994,5.986,0.771c1.955-0.218,3.783-1.043,5.032-2.423c1.269-1.331,2.003-3.139,1.813-4.842
								c-0.137-1.655-1.398-3.269-2.92-3.371c-0.75-0.049-1.468,0.318-1.954,0.882c-0.495,0.558-0.808,1.266-0.934,1.976
								c-0.245,1.452,0.19,2.883,0.908,4.004c0.732,1.125,1.717,1.99,2.755,2.565c2.101,1.159,4.309,1.149,5.966,0.952
								c1.688-0.219,2.955-0.654,3.803-0.951C116.366,292.063,116.802,291.873,116.813,291.898z"/>
						</g>
					</g>
				</g>
			</g>
		</g>
	</g>
	<g>
		<g>
			<g>
				<g>
					<g>
						<rect x="64.819" y="254.963" fill="#EBEBEB" width="51.273" height="26.1"/>
					</g>
				</g>
			</g>
		</g>
		<g>
			<g>
				<g>
					<g>
						<g>
							<ellipse fill="#E0E0E0" cx="73.339" cy="268.49" rx="0.354" ry="12.632"/>
						</g>
					</g>
				</g>
			</g>
		</g>
		<g>
			<g>
				<g>
					<g>
						<g>
							<ellipse fill="#E0E0E0" cx="77.226" cy="268.004" rx="0.354" ry="12.47"/>
						</g>
					</g>
				</g>
			</g>
		</g>
		<g>
			<g>
				<g>
					<g>
						<g>
							<ellipse fill="#E0E0E0" cx="110.296" cy="267.828" rx="0.354" ry="13.132"/>
						</g>
					</g>
				</g>
			</g>
		</g>
		<g>
			<g>
				<g>
					<g>
						<g>
							<ellipse fill="#E0E0E0" cx="105.728" cy="267.842" rx="0.354" ry="12.793"/>
						</g>
					</g>
				</g>
			</g>
		</g>
	</g>
</g>
<g>
	<g>
		<g>
			<g>
				<g>
					<path fill="#263238" d="M31.11,269.581c-0.01-0.005,0.05-0.147,0.175-0.422c0.14-0.3,0.327-0.698,0.566-1.208
						c0.481-1.067,1.107-2.686,1.665-4.836c1.102-4.301,1.486-10.871-0.143-18.676c-0.756-3.908-1.975-8.101-3.463-12.545
						c-1.467-4.451-3.17-9.176-4.561-14.281c-1.375-5.094-2.461-10.624-2.251-16.422c0.211-5.809,1.931-11.604,3.821-17.377
						c1.887-5.779,3.839-11.43,4.424-17.112c0.662-5.673-0.553-11.241-3.138-15.806c-2.503-4.61-5.651-8.556-8.009-12.642
						c-2.395-4.071-3.891-8.259-4.814-12.152c-1.788-7.852-1.162-14.468-0.305-18.827c0.93-4.384,1.965-6.649,1.965-6.649
						c0.01,0.004-0.029,0.153-0.117,0.441c-0.098,0.315-0.229,0.737-0.396,1.274c-0.348,1.12-0.796,2.793-1.222,4.978
						c-0.782,4.351-1.337,10.921,0.488,18.686c0.941,3.852,2.444,7.983,4.83,11.999c2.352,4.037,5.515,7.965,8.067,12.631
						c2.639,4.613,3.907,10.364,3.234,16.126c-0.588,5.779-2.555,11.467-4.438,17.239c-1.891,5.767-3.59,11.503-3.805,17.214
						c-0.215,5.708,0.844,11.186,2.197,16.254c1.369,5.081,3.051,9.807,4.5,14.271c1.47,4.457,2.674,8.684,3.406,12.619
						c1.586,7.861,1.134,14.5-0.047,18.813c-0.598,2.16-1.264,3.772-1.782,4.829c-0.263,0.5-0.468,0.893-0.622,1.186
						C31.196,269.453,31.118,269.586,31.11,269.581z"/>
				</g>
			</g>
		</g>
		<g>
			<g>
				<g>
					<path fill="#E7515B" d="M23.399,142.286c0,0-4.786-15.303,3.799-24.264c0.301-0.314,0.832-0.166,0.91,0.263
						C28.566,120.813,29.14,128.511,23.399,142.286z"/>
				</g>
			</g>
			<g>
				<g>
					<g>
						<path fill="#263238" d="M26.267,123.122c0.081,0.016-0.057,1.093-0.322,2.823c-0.314,1.944-0.684,4.228-1.092,6.75
							c-0.4,2.522-0.764,4.805-1.072,6.749c-0.262,1.729-0.418,2.801-0.506,2.794c-0.078-0.006-0.07-1.095,0.086-2.845
							c0.158-1.749,0.467-4.154,0.9-6.795c0.432-2.641,0.892-5.019,1.266-6.731C25.901,124.154,26.185,123.105,26.267,123.122z"/>
					</g>
				</g>
			</g>
		</g>
		<g>
			<g>
				<g>
					<path fill="#E7515B" d="M29.021,178.381c0,0,2.928-15.766,14.705-19.671c0.414-0.137,0.813,0.243,0.682,0.658
						C43.631,161.816,40.537,168.889,29.021,178.381z"/>
				</g>
			</g>
			<g>
				<g>
					<g>
						<path fill="#263238" d="M40.519,162.781c0.063,0.053-0.561,0.939-1.605,2.346c-1.188,1.571-2.582,3.417-4.122,5.455
							c-1.534,2.043-2.922,3.891-4.104,5.465c-1.04,1.405-1.681,2.279-1.755,2.232c-0.065-0.041,0.451-1,1.406-2.476
							c0.958-1.471,2.355-3.452,3.974-5.585c1.616-2.132,3.136-4.018,4.269-5.355C39.712,163.523,40.454,162.729,40.519,162.781z"/>
					</g>
				</g>
			</g>
		</g>
		<g>
			<g>
				<g>
					<path fill="#E7515B" d="M25.838,217.932c0,0-1.778-15.937,8.358-23.095c0.355-0.251,0.849-0.004,0.843,0.433
						C35.007,197.837,34.101,205.503,25.838,217.932z"/>
				</g>
			</g>
			<g>
				<g>
					<g>
						<path fill="#263238" d="M32.309,199.665c0.077,0.03-0.263,1.062-0.854,2.71c-0.68,1.85-1.479,4.02-2.359,6.418
							c-0.875,2.398-1.666,4.571-2.34,6.421c-0.588,1.646-0.945,2.669-1.03,2.646c-0.075-0.021,0.141-1.088,0.627-2.775
							c0.489-1.688,1.251-3.988,2.181-6.498c0.927-2.51,1.832-4.756,2.527-6.365C31.753,200.609,32.232,199.634,32.309,199.665z"/>
					</g>
				</g>
			</g>
		</g>
		<g>
			<g>
				<g>
					<path fill="#E7515B" d="M34.71,257.712c0,0-1.205-15.989,9.181-22.778c0.364-0.238,0.848,0.025,0.827,0.461
						C44.593,237.959,43.413,245.588,34.71,257.712z"/>
				</g>
			</g>
			<g>
				<g>
					<g>
						<path fill="#263238" d="M41.831,239.689c0.076,0.033-0.301,1.052-0.951,2.678c-0.746,1.824-1.621,3.964-2.588,6.328
							c-0.959,2.367-1.828,4.51-2.568,6.334c-0.645,1.625-1.04,2.634-1.124,2.606c-0.073-0.022,0.18-1.083,0.726-2.752
							c0.55-1.668,1.393-3.94,2.412-6.416c1.017-2.475,2.002-4.687,2.754-6.271C41.242,240.613,41.756,239.654,41.831,239.689z"/>
					</g>
				</g>
			</g>
		</g>
		<g>
			<g>
				<g>
					<path fill="#E7515B" d="M16.521,128.841c0,0-14.213-7.423-14.491-19.829c-0.01-0.436,0.47-0.705,0.828-0.458
						C4.972,110.015,10.824,115.047,16.521,128.841z"/>
				</g>
			</g>
			<g>
				<g>
					<g>
						<path fill="#263238" d="M4.981,113.273c0.068-0.046,0.733,0.812,1.771,2.223c1.154,1.597,2.509,3.471,4.007,5.541
							c1.502,2.065,2.862,3.934,4.021,5.526c1.037,1.406,1.686,2.274,1.618,2.331c-0.059,0.051-0.824-0.724-1.952-2.069
							c-1.127-1.348-2.611-3.265-4.174-5.438c-1.564-2.171-2.922-4.176-3.87-5.651C5.454,114.262,4.912,113.32,4.981,113.273z"/>
					</g>
				</g>
			</g>
		</g>
		<g>
			<g>
				<g>
					<path fill="#E7515B" d="M31.784,161.707c0,0-14.639-6.546-15.67-18.912c-0.036-0.434,0.427-0.733,0.799-0.508
						C19.11,143.617,25.259,148.284,31.784,161.707z"/>
				</g>
			</g>
			<g>
				<g>
					<g>
						<path fill="#263238" d="M19.319,146.87c0.065-0.051,0.781,0.765,1.902,2.11c1.249,1.523,2.715,3.312,4.336,5.288
							c1.625,1.971,3.096,3.752,4.349,5.271c1.122,1.341,1.821,2.168,1.758,2.229c-0.056,0.053-0.866-0.674-2.075-1.947
							c-1.205-1.276-2.805-3.102-4.496-5.174c-1.693-2.072-3.17-3.991-4.205-5.406C19.851,147.827,19.253,146.92,19.319,146.87z"/>
					</g>
				</g>
			</g>
		</g>
		<g>
			<g>
				<g>
					<path fill="#E7515B" d="M23.36,198.367c0,0-10.049-12.494-5.336-23.973c0.166-0.403,0.715-0.459,0.943-0.088
						C20.318,176.491,23.666,183.445,23.36,198.367z"/>
				</g>
			</g>
			<g>
				<g>
					<g>
						<path fill="#263238" d="M19.022,179.48c0.081-0.015,0.348,1.037,0.732,2.746c0.418,1.926,0.909,4.186,1.451,6.683
							c0.55,2.493,1.047,4.751,1.471,6.674c0.389,1.704,0.635,2.759,0.55,2.785c-0.073,0.022-0.465-0.994-0.96-2.681
							c-0.492-1.685-1.085-4.035-1.646-6.652c-0.563-2.615-1.004-4.997-1.282-6.729C19.06,180.576,18.94,179.496,19.022,179.48z"/>
					</g>
				</g>
			</g>
		</g>
		<g>
			<g>
				<g>
					<path fill="#E7515B" d="M33.316,241.509c0,0-14.525-6.791-15.349-19.173c-0.029-0.436,0.438-0.727,0.807-0.494
						C20.95,223.208,27.019,227.979,33.316,241.509z"/>
				</g>
			</g>
			<g>
				<g>
					<g>
						<path fill="#263238" d="M21.103,226.464c0.066-0.049,0.77,0.778,1.867,2.144c1.223,1.543,2.66,3.355,4.246,5.358
							c1.592,1.997,3.033,3.806,4.26,5.345c1.1,1.358,1.785,2.197,1.721,2.258c-0.057,0.054-0.855-0.688-2.042-1.981
							c-1.185-1.296-2.752-3.146-4.409-5.248c-1.658-2.1-3.102-4.044-4.113-5.476C21.618,227.432,21.036,226.514,21.103,226.464z"/>
					</g>
				</g>
			</g>
		</g>
		<g>
			<g>
				<g>
					<g>
						<path fill="#263238" d="M62.249,178.467c0.014,0.001,0.02,0.121,0.018,0.354c-0.006,0.279-0.015,0.615-0.025,1.024
							c-0.042,0.964-0.1,2.265-0.172,3.888c-0.187,3.418-0.447,8.185-0.76,13.886l-0.001,0.014l-0.003,0.021
							c-1.037,5.802-3.992,12.231-7.962,18.477c-2.911,4.6-5.964,8.781-8.596,12.67c-2.649,3.879-4.886,7.471-6.444,10.653
							c-1.569,3.179-2.482,5.909-3.016,7.817c-0.255,0.957-0.447,1.705-0.557,2.217c-0.12,0.509-0.193,0.774-0.213,0.771
							c-0.021-0.004,0.012-0.276,0.094-0.795c0.072-0.521,0.229-1.278,0.45-2.252c0.467-1.937,1.325-4.714,2.859-7.942
							c1.522-3.233,3.738-6.875,6.368-10.777c2.614-3.917,5.65-8.104,8.547-12.682c3.947-6.213,6.888-12.545,7.963-18.255
							l-0.004,0.032c0.4-5.695,0.734-10.456,0.975-13.871c0.131-1.62,0.236-2.918,0.314-3.879c0.041-0.407,0.074-0.742,0.102-1.021
							C62.214,178.584,62.235,178.466,62.249,178.467z"/>
					</g>
				</g>
			</g>
			<g>
				<g>
					<g>
						<path fill="#E7515B" d="M53.601,214.934c0,0,6.15-14.808-1.587-24.508c-0.272-0.341-0.813-0.24-0.93,0.18
							C50.398,193.08,49.131,200.693,53.601,214.934z"/>
					</g>
				</g>
				<g>
					<g>
						<g>
							<path fill="#263238" d="M52.479,195.588c0.082-0.009,0.271,1.063,0.488,2.803c0.217,1.738,0.461,4.148,0.652,6.816
								c0.192,2.67,0.281,5.093,0.281,6.85c-0.004,1.756-0.095,2.842-0.172,2.84c-0.088,0-0.148-1.082-0.252-2.826
								c-0.132-1.965-0.285-4.271-0.456-6.819c-0.179-2.549-0.339-4.854-0.477-6.821C52.437,196.682,52.397,195.598,52.479,195.588z
								"/>
						</g>
					</g>
				</g>
				<g opacity="0.3">
					<g>
						<path d="M53.601,214.934c0,0,6.15-14.808-1.587-24.508c-0.272-0.341-0.813-0.24-0.93,0.18
							C50.398,193.08,49.131,200.693,53.601,214.934z"/>
					</g>
				</g>
			</g>
			<g>
				<g>
					<g>
						<path fill="#E7515B" d="M34.546,250.617c0,0,4.932-15.258-3.568-24.301c-0.299-0.316-0.83-0.172-0.912,0.256
							C29.583,229.096,28.937,236.787,34.546,250.617z"/>
					</g>
				</g>
				<g>
					<g>
						<g>
							<path fill="#263238" d="M31.86,231.426c0.082-0.016,0.356,1.036,0.714,2.754c0.358,1.715,0.796,4.098,1.202,6.741
								c0.409,2.646,0.695,5.054,0.836,6.804c0.139,1.752,0.137,2.84,0.059,2.846c-0.087,0.006-0.234-1.067-0.479-2.799
								c-0.29-1.946-0.631-4.232-1.007-6.76c-0.385-2.525-0.732-4.813-1.028-6.76C31.906,232.52,31.779,231.441,31.86,231.426z"/>
						</g>
					</g>
				</g>
				<g opacity="0.3">
					<g>
						<path d="M34.546,250.617c0,0,4.932-15.258-3.568-24.301c-0.299-0.316-0.83-0.172-0.912,0.256
							C29.583,229.096,28.937,236.787,34.546,250.617z"/>
					</g>
				</g>
			</g>
			<g>
				<g>
					<g>
						<path fill="#E7515B" d="M61.435,196.838c0,0,13.136-9.195,11.811-21.533c-0.047-0.435-0.559-0.641-0.881-0.349
							C70.458,176.678,65.302,182.423,61.435,196.838z"/>
					</g>
				</g>
				<g opacity="0.3">
					<g>
						<path d="M61.435,196.838c0,0,13.136-9.195,11.811-21.533c-0.047-0.435-0.559-0.641-0.881-0.349
							C70.458,176.678,65.302,182.423,61.435,196.838z"/>
					</g>
				</g>
				<g>
					<g>
						<g>
							<path fill="#263238" d="M70.868,179.91c0.074,0.037-0.342,1.042-1.092,2.626c-0.749,1.585-1.836,3.749-3.107,6.104
								c-1.27,2.355-2.494,4.448-3.437,5.931c-0.945,1.479-1.604,2.348-1.669,2.305c-0.074-0.048,0.456-0.992,1.305-2.521
								c0.943-1.729,2.05-3.758,3.273-6c1.217-2.246,2.318-4.278,3.258-6.012C70.245,180.811,70.794,179.874,70.868,179.91z"/>
						</g>
					</g>
				</g>
			</g>
			<g>
				<g>
					<g>
						<path fill="#E7515B" d="M39.843,235.49c0,0,15.844-2.471,20.088-14.131c0.148-0.409-0.22-0.819-0.639-0.699
							C56.823,221.365,49.664,224.254,39.843,235.49z"/>
					</g>
				</g>
				<g opacity="0.3">
					<g>
						<path d="M39.843,235.49c0,0,15.844-2.471,20.088-14.131c0.148-0.409-0.22-0.819-0.639-0.699
							C56.823,221.365,49.664,224.254,39.843,235.49z"/>
					</g>
				</g>
				<g>
					<g>
						<g>
							<path fill="#263238" d="M55.768,224.449c0.05,0.064-0.765,0.783-2.137,1.877c-1.37,1.093-3.3,2.557-5.478,4.109
								c-2.178,1.558-4.199,2.896-5.697,3.812c-1.502,0.913-2.475,1.401-2.514,1.334c-0.045-0.075,0.847-0.688,2.281-1.688
								c1.607-1.137,3.495-2.471,5.581-3.943c2.082-1.48,3.968-2.82,5.572-3.963C54.812,224.98,55.718,224.383,55.768,224.449z"/>
						</g>
					</g>
				</g>
			</g>
		</g>
	</g>
	<g>
		<g>
			<polygon fill="#455B65" points="24.729,264.646 20.107,295.752 48.908,295.752 45.175,264.646 			"/>
		</g>
	</g>
	<g>
		<g>
			<g>
				<ellipse fill="#263238" cx="34.712" cy="274.285" rx="11.613" ry="0.3"/>
			</g>
		</g>
	</g>
	<g>
		<g>
			<g>
				<ellipse fill="#263238" cx="34.902" cy="276.761" rx="11.995" ry="0.3"/>
			</g>
		</g>
	</g>
</g>
</svg>
