<?xml version="1.0" encoding="utf-8"?>
<!-- Generator: Adobe Illustrator 16.0.0, SVG Export Plug-In . SVG Version: 6.00 Build 0)  -->
<!DOCTYPE svg PUBLIC "-//W3C//DTD SVG 1.1//EN" "http://www.w3.org/Graphics/SVG/1.1/DTD/svg11.dtd">
<svg version="1.1" id="Layer_1" xmlns="http://www.w3.org/2000/svg" xmlns:xlink="http://www.w3.org/1999/xlink" x="0px" y="0px"
	 width="640px" height="300px" viewBox="0 0 640 300" enable-background="new 0 0 640 300" xml:space="preserve">
<g>
	<g>
		<g>
			<path fill="#B9CEEB" d="M41.046,299.559h157.122c9.432,0,16.488-8.514,14.588-17.6l-23.837-113.964
				c-2.005-9.584-10.583-16.462-20.532-16.462H33.614L41.046,299.559z"/>
			<path d="M41.046,300h157.122c4.629,0,8.963-2.023,11.89-5.552c2.928-3.531,4.072-8.115,3.139-12.579l-23.838-113.963
				c-2.037-9.743-10.857-16.814-20.972-16.814H33.614c-0.122,0-0.24,0.051-0.324,0.137c-0.086,0.088-0.131,0.207-0.124,0.328
				l7.433,148.023C40.609,299.814,40.807,300,41.046,300z M168.387,151.975c9.689,0,18.139,6.775,20.092,16.109l23.837,113.964
				c0.879,4.202-0.198,8.519-2.955,11.843c-2.754,3.32-6.834,5.227-11.192,5.227H41.475l-7.388-147.143H168.387z"/>
		</g>
		<g>
			<path fill="#6EA2E0" d="M20.93,299.559h30.49c9.432,0,16.489-8.514,14.589-17.6L39.753,156.436
				c-0.597-2.854-3.151-4.901-6.113-4.901h-7.841c-3.252,0-5.958,2.454-6.222,5.641L8.836,286.654
				C8.261,293.605,13.84,299.559,20.93,299.559z"/>
			<path d="M20.93,300h30.49c4.631,0,8.964-2.023,11.89-5.552c2.929-3.531,4.072-8.115,3.14-12.579L40.193,156.348
				c-0.638-3.046-3.393-5.256-6.554-5.256h-7.841c-3.46,0-6.388,2.655-6.67,6.047L8.389,286.619
				c-0.286,3.438,0.914,6.859,3.291,9.396C14.055,298.547,17.425,300,20.93,300z M33.64,151.975c2.736,0,5.122,1.914,5.674,4.551
				l26.255,125.522c0.879,4.202-0.198,8.519-2.954,11.843c-2.756,3.32-6.836,5.227-11.194,5.227H20.93
				c-3.302,0-6.352-1.314-8.59-3.701c-2.206-2.354-3.32-5.533-3.056-8.725L20.023,157.21c0.245-2.937,2.78-5.233,5.775-5.233h7.842
				V151.975z"/>
		</g>
		<g>
			<path d="M30.646,295.545H51.42c3.264,0,6.318-1.427,8.382-3.915c2.062-2.487,2.868-5.719,2.21-8.862l-8.618-41.205
				c-0.051-0.238-0.287-0.393-0.532-0.345c-0.242,0.05-0.399,0.284-0.35,0.522l8.619,41.203c0.603,2.885-0.135,5.847-2.026,8.127
				c-1.891,2.281-4.692,3.59-7.685,3.59H30.646c-0.249,0-0.45,0.197-0.45,0.441S30.397,295.545,30.646,295.545z"/>
			<path d="M20.93,295.545c0.247,0,0.449-0.197,0.449-0.441s-0.202-0.442-0.449-0.442c-2.022,0-3.891-0.806-5.26-2.267
				c-1.371-1.461-2.036-3.357-1.871-5.342l2.448-29.508c0.021-0.242-0.164-0.456-0.411-0.477c-0.244-0.021-0.464,0.162-0.485,0.404
				l-2.446,29.508c-0.186,2.23,0.561,4.365,2.104,6.013C16.551,294.639,18.653,295.545,20.93,295.545z"/>
			<path d="M22.61,175.833c0.231,0,0.429-0.175,0.447-0.405l0.511-6.148c0.021-0.243-0.164-0.457-0.411-0.478
				c-0.249-0.021-0.465,0.162-0.484,0.404l-0.511,6.149c-0.021,0.242,0.164,0.457,0.412,0.477
				C22.586,175.832,22.599,175.833,22.61,175.833z"/>
			<path d="M42.517,192.197c0.028,0,0.06-0.002,0.09-0.01c0.243-0.049,0.399-0.282,0.35-0.521l-7.2-34.423
				c-0.205-0.983-1.097-1.697-2.116-1.697H25.8c-1.118,0-2.064,0.857-2.155,1.952l-0.335,4.028c-0.02,0.242,0.164,0.455,0.412,0.477
				c0.245,0.021,0.465-0.161,0.484-0.404l0.335-4.027c0.053-0.641,0.605-1.143,1.259-1.143h7.841c0.596,0,1.116,0.418,1.236,0.992
				l7.199,34.424C42.12,192.053,42.307,192.197,42.517,192.197z"/>
		</g>
		<path d="M62.454,211.798h123.021c0.247,0,0.449-0.198,0.449-0.442c0-0.242-0.202-0.44-0.449-0.44H62.454
			c-3.454,0-6.423-2.31-7.218-5.613L44.39,160.279c-0.057-0.237-0.298-0.385-0.54-0.328c-0.241,0.056-0.391,0.294-0.334,0.531
			l10.844,45.023C55.254,209.21,58.581,211.798,62.454,211.798z"/>
		<g>
			<path fill="#6EA2E0" d="M109.935,211.355l3.446,13.672c0.557,2.313,2.657,3.945,5.074,3.945h24.365
				c2.652,0,4.574-2.488,3.863-5.002l-3.568-12.615H109.935z"/>
			<path d="M118.454,229.415h24.366c1.405,0,2.699-0.631,3.551-1.731c0.851-1.101,1.123-2.496,0.746-3.828l-3.568-12.617
				c-0.054-0.19-0.231-0.323-0.434-0.323h-33.181c-0.138,0-0.268,0.063-0.354,0.17c-0.085,0.106-0.115,0.246-0.082,0.378
				l3.445,13.672C113.551,227.652,115.816,229.415,118.454,229.415z M142.773,211.798l3.478,12.293
				c0.301,1.063,0.083,2.179-0.597,3.06c-0.678,0.879-1.711,1.382-2.834,1.382h-24.366c-2.217,0-4.124-1.483-4.636-3.606
				l-3.31-13.127L142.773,211.798L142.773,211.798z"/>
		</g>
		<path d="M73.68,288.551h130.692c0.248,0,0.449-0.197,0.449-0.441s-0.201-0.441-0.449-0.441H73.68
			c-0.247,0-0.449,0.197-0.449,0.441S73.433,288.551,73.68,288.551z"/>
		<g>
			<g>
				<path fill="#B9CEEB" d="M137.343,146.36h10.201c2.756,0,4.99,2.198,4.99,4.91h-20.183
					C132.352,148.558,134.586,146.36,137.343,146.36z"/>
				<path d="M132.352,151.71h20.183c0.248,0,0.45-0.196,0.45-0.44c0-2.951-2.441-5.35-5.44-5.35h-10.201c-3,0-5.44,2.399-5.44,5.35
					C131.902,151.514,132.104,151.71,132.352,151.71z M152.063,150.827h-19.24c0.227-2.256,2.166-4.025,4.52-4.025h10.201
					C149.896,146.802,151.837,148.571,152.063,150.827z"/>
			</g>
			<g>
				<path d="M55.582,146.36h10.201c2.756,0,4.99,2.198,4.99,4.91H50.592C50.592,148.558,52.826,146.36,55.582,146.36z"/>
				<path d="M50.592,151.71h20.182c0.248,0,0.449-0.196,0.449-0.44c0-2.951-2.439-5.35-5.439-5.35H55.582
					c-2.999,0-5.44,2.399-5.44,5.35C50.142,151.514,50.344,151.71,50.592,151.71z M70.303,150.827h-19.24
					c0.227-2.256,2.167-4.025,4.52-4.025h10.201C68.137,146.802,70.076,148.571,70.303,150.827z"/>
			</g>
			<g>
				<path fill="#B9CEEB" d="M58.244,146.096l-1.644-9.603c-1.166-6.811,3.504-12.332,10.428-12.332h61.174
					c6.926,0,13.484,5.521,14.65,12.332l1.644,9.603h-4.682l-1.278-7.474c-0.908-5.301-6.013-9.598-11.402-9.598h-57.37
					c-5.39,0-9.023,4.297-8.116,9.598l1.279,7.474L58.244,146.096L58.244,146.096z"/>
				<path d="M58.244,146.538h4.683c0.132,0,0.258-0.057,0.343-0.156c0.086-0.1,0.122-0.23,0.101-0.359l-1.279-7.474
					c-0.422-2.459,0.159-4.76,1.638-6.477c1.445-1.681,3.589-2.606,6.035-2.606h57.37c5.172,0,10.087,4.141,10.959,9.229
					l1.278,7.475c0.037,0.213,0.225,0.368,0.443,0.368h4.682c0.133,0,0.258-0.057,0.344-0.156c0.086-0.1,0.121-0.23,0.1-0.359
					l-1.645-9.603c-1.197-7.003-7.969-12.701-15.093-12.701H67.028c-3.449,0-6.48,1.316-8.537,3.706
					c-2.096,2.437-2.926,5.684-2.333,9.142l1.643,9.604C57.838,146.383,58.025,146.538,58.244,146.538z M62.396,145.655h-3.771
					l-1.581-9.235c-0.547-3.198,0.211-6.189,2.134-8.425c1.883-2.188,4.67-3.392,7.851-3.392h61.174
					c6.706,0,13.077,5.367,14.207,11.963l1.557,9.088h-3.771l-1.216-7.106c-0.941-5.495-6.255-9.966-11.846-9.966h-57.37
					c-2.715,0-5.103,1.037-6.722,2.919c-1.651,1.919-2.304,4.474-1.838,7.194L62.396,145.655z"/>
			</g>
			<g>
				<path fill="#6EA2E0" d="M70.067,120.185h53.736c2.165,0,4.217,1.726,4.582,3.856l0.789,4.617
					c0.365,2.13-1.096,3.856-3.261,3.856H72.178c-2.166,0-4.217-1.726-4.581-3.856l-0.791-4.617
					C66.441,121.911,67.901,120.185,70.067,120.185z"/>
				<path d="M72.178,132.956h53.736c1.17,0,2.203-0.45,2.905-1.267c0.715-0.831,0.999-1.934,0.799-3.104l-0.791-4.617
					c-0.398-2.33-2.652-4.225-5.023-4.225H70.067c-1.171,0-2.203,0.45-2.905,1.266c-0.716,0.832-0.999,1.935-0.799,3.105l0.79,4.617
					C67.552,131.061,69.807,132.956,72.178,132.956z M123.804,120.626c1.951,0,3.809,1.565,4.138,3.488l0.791,4.616
					c0.154,0.91-0.058,1.758-0.6,2.388c-0.528,0.615-1.317,0.954-2.219,0.954H72.178c-1.953,0-3.809-1.565-4.138-3.488l-0.791-4.617
					c-0.154-0.91,0.058-1.758,0.6-2.388c0.528-0.615,1.315-0.954,2.219-0.954L123.804,120.626L123.804,120.626z"/>
			</g>
			<path d="M102.988,132.956h22.926c1.17,0,2.203-0.45,2.905-1.267c0.715-0.831,0.999-1.934,0.799-3.104l-0.791-4.617
				c-0.398-2.33-2.652-4.225-5.023-4.225H105.88c-0.248,0-0.449,0.198-0.449,0.442s0.201,0.441,0.449,0.441h17.924
				c1.951,0,3.809,1.565,4.138,3.488l0.791,4.616c0.154,0.91-0.058,1.758-0.6,2.388c-0.528,0.615-1.317,0.954-2.219,0.954h-22.926
				c-0.249,0-0.449,0.198-0.449,0.441C102.539,132.758,102.739,132.956,102.988,132.956z"/>
		</g>
		<path d="M51.708,288.551c0.156,0,0.309-0.08,0.391-0.224c0.123-0.212,0.049-0.481-0.168-0.603L31.095,276.05V160.379
			c0-0.244-0.2-0.441-0.448-0.441c-0.249,0-0.45,0.197-0.45,0.441v115.928c0,0.158,0.087,0.305,0.228,0.385l21.062,11.803
			C51.557,288.531,51.633,288.551,51.708,288.551z"/>
	</g>
	<g>
		<path d="M52.529,148.641c0,0-9.376,3.435-13.052,0.542c-3.677-2.893,5.698-7.774,7.903-7.412
			C49.588,142.132,52.529,148.641,52.529,148.641z"/>
		<g>
			<g>
				<polygon fill="#FFFFFF" points="99.643,222.35 90.818,237.535 86.039,231.027 93.759,216.203 				"/>
				<path d="M90.818,237.979c0.009,0,0.017,0,0.023-0.002c0.152-0.007,0.291-0.092,0.366-0.222l8.824-15.187
					c0.098-0.17,0.073-0.381-0.063-0.521l-5.883-6.146c-0.1-0.104-0.244-0.155-0.391-0.135c-0.145,0.021-0.27,0.107-0.336,0.235
					l-7.722,14.825c-0.076,0.146-0.063,0.324,0.036,0.46l4.779,6.507C90.538,237.909,90.675,237.979,90.818,237.979z
					 M99.087,222.414l-8.313,14.309l-4.209-5.733l7.304-14.026L99.087,222.414z"/>
			</g>
			<path d="M93.874,235.219c-2.326,4.719-8.216,16.159-13.892,21.645c-1.384,1.337-3.723,0.716-4.219-1.129
				c-1.776-6.605-2.959-20.367,3.659-31.215c0,0,3.146-0.36,9.027,0.724l-1.308,5.423l0.722-0.507
				c1.087-0.765,2.564-0.699,3.578,0.155l1.695,1.429C94.158,232.604,94.461,234.029,93.874,235.219z"/>
			<path fill="#FFFFFF" d="M79.054,255.333c0.053,0,0.106-0.01,0.159-0.028c0.231-0.087,0.35-0.342,0.261-0.57
				c-5.023-13.058,1.761-28.437,1.829-28.59c0.101-0.224-0.002-0.484-0.229-0.582c-0.227-0.1-0.491,0.002-0.592,0.226
				c-0.07,0.157-7,15.866-1.848,29.261C78.701,255.225,78.873,255.333,79.054,255.333z"/>
			<path fill="#FFFFFF" d="M90.45,242.238c0.148,0,0.291-0.071,0.377-0.201c0.136-0.205,0.076-0.479-0.132-0.611l-4.411-2.814
				c-0.209-0.133-0.486-0.073-0.622,0.131c-0.136,0.205-0.075,0.479,0.132,0.611l4.413,2.813
				C90.282,242.215,90.366,242.238,90.45,242.238z"/>
			<path fill="#FFFFFF" d="M88.245,246.092c0.134,0,0.268-0.059,0.356-0.172c0.151-0.193,0.114-0.472-0.083-0.62l-4.044-3.053
				c-0.196-0.147-0.479-0.112-0.63,0.081c-0.15,0.193-0.114,0.471,0.083,0.62L87.972,246
				C88.054,246.063,88.149,246.092,88.245,246.092z"/>
			<g>
				<path fill="#FFFFFF" d="M127.584,222.711c0,0.361,8.087,17.719,8.087,17.719l-9.191,0.723l-6.249-14.825L127.584,222.711z"/>
				<path d="M126.479,241.593c0.013,0,0.023,0,0.036-0.001l9.191-0.724c0.146-0.013,0.278-0.093,0.352-0.218
					c0.074-0.123,0.082-0.275,0.021-0.406c-3.122-6.7-7.823-16.875-8.054-17.609c-0.021-0.123-0.097-0.232-0.206-0.299
					c-0.134-0.081-0.298-0.089-0.438-0.02l-7.354,3.615c-0.21,0.104-0.304,0.35-0.213,0.563l6.249,14.823
					C126.134,241.486,126.299,241.593,126.479,241.593z M134.994,240.038l-8.224,0.647l-5.966-14.147l6.543-3.218
					C127.843,224.525,129.496,228.232,134.994,240.038z"/>
			</g>
			<path d="M127.215,236.813c0,0,1.838-4.338,6.617-2.168c0,0,8.773,12.463,12.035,22.754c0.921,2.91-2.117,5.533-4.942,4.278
				c-6.611-2.938-16.973-9.1-22.9-20.524c0,0,1.838-4.7,4.779-6.87L127.215,236.813z"/>
			<path fill="#FFFFFF" d="M143.17,258.98c0.377,0,0.601-0.028,0.655-0.037c0.245-0.035,0.415-0.26,0.378-0.502
				c-0.035-0.24-0.263-0.408-0.509-0.373c-0.102,0.015-9.868,1.123-23.101-16.814c-0.146-0.197-0.427-0.242-0.628-0.1
				c-0.2,0.145-0.245,0.421-0.1,0.617C131.667,257.77,140.706,258.98,143.17,258.98z"/>
			<path fill="#FFFFFF" d="M135.671,249.186c0.077,0,0.156-0.019,0.227-0.06l4.412-2.53c0.213-0.123,0.287-0.395,0.161-0.604
				c-0.125-0.212-0.4-0.282-0.614-0.159l-4.412,2.529c-0.215,0.123-0.287,0.395-0.161,0.604
				C135.367,249.107,135.517,249.186,135.671,249.186z"/>
			<path fill="#FFFFFF" d="M133.466,245.932c0.071,0,0.145-0.017,0.212-0.053l4.779-2.529c0.219-0.117,0.301-0.385,0.183-0.6
				c-0.117-0.215-0.39-0.296-0.608-0.18l-4.779,2.529c-0.219,0.116-0.3,0.385-0.183,0.6
				C133.15,245.848,133.305,245.932,133.466,245.932z"/>
			<g>
				<path fill="#7B92CA" d="M80.524,135.211c0,0,23.963,4.208,41.23,22.016c4.358,4.496,5.898,10.965,4.028,16.896
					c-3.836,12.173-12.188,34.4-26.141,51.119l-10.663-9.039c0,0,2.574-20.971,9.559-33.987c6.987-13.017-33.822-41.22-33.822-41.22
					L80.524,135.211z"/>
				<path d="M99.643,225.686c0.012,0,0.025-0.002,0.038-0.002c0.12-0.012,0.231-0.068,0.31-0.16
					c14.071-16.858,22.469-39.357,26.223-51.269c1.918-6.085,0.334-12.728-4.133-17.333c-17.172-17.707-41.235-22.104-41.477-22.146
					c-0.079-0.014-0.16-0.007-0.235,0.021l-15.81,5.786c-0.156,0.057-0.267,0.194-0.289,0.357c-0.021,0.163,0.051,0.324,0.188,0.418
					c0.405,0.28,40.405,28.125,33.684,40.651c-6.943,12.939-9.582,33.931-9.607,34.142c-0.019,0.146,0.039,0.291,0.152,0.388
					l10.662,9.039C99.431,225.646,99.535,225.686,99.643,225.686z M80.563,135.668c1.844,0.354,24.521,5.008,40.867,21.863
					c4.24,4.375,5.746,10.683,3.924,16.462c-3.708,11.767-11.97,33.916-25.769,50.618l-10.13-8.588
					c0.309-2.33,3.007-21.539,9.479-33.604c6.663-12.415-27.72-37.384-33.269-41.301L80.563,135.668z"/>
			</g>
			<g>
				<path fill="#7B92CA" d="M130.524,225.965l-12.5,3.616c0,0-22.794-47.365-29.412-54.235
					c-6.617-6.869-19.484-18.078-33.088-22.056c-13.603-3.978-13.603-14.102-13.603-14.102l23.162-6.508
					c0,0,32.353,13.74,43.014,29.288C118.759,177.516,130.524,225.965,130.524,225.965z"/>
				<path d="M118.024,230.023c0.041,0,0.084-0.008,0.126-0.02l12.501-3.615c0.229-0.065,0.364-0.299,0.309-0.527
					c-0.117-0.484-11.904-48.706-22.49-64.143c-10.611-15.475-42.884-29.307-43.208-29.445c-0.096-0.041-0.201-0.047-0.302-0.019
					l-23.161,6.508c-0.193,0.055-0.325,0.228-0.325,0.425c0,0.104,0.158,10.5,13.923,14.525
					c15.189,4.441,29.015,17.913,32.89,21.938c6.492,6.74,29.104,53.646,29.332,54.121
					C117.694,229.927,117.854,230.023,118.024,230.023z M129.986,225.66l-11.721,3.391c-2.23-4.623-22.958-47.396-29.326-54.009
					c-3.914-4.063-17.884-17.672-33.286-22.176c-11.761-3.438-13.108-11.612-13.262-13.351l22.66-6.367
					c2.374,1.029,32.57,14.334,42.673,29.065C117.703,176.766,128.816,220.934,129.986,225.66z"/>
			</g>
		</g>
		<g>
			<g>
				<path fill="#FFFFFF" d="M23.173,101.946c6.249-12.293,16.543-14.101,16.543-14.101l17.648-1.446
					c5.518-0.367,11.384,2.985,13.562,7.985l16.217,37.211c0,0-3.31,8.678-18.015,10.124c-14.705,1.446-24.815,0.542-29.595,6.328
					c-3.151,3.813-3.052-21.623-1.239-41.742L23.173,101.946z"/>
				<path d="M38.939,148.874c0.267,0,0.594-0.127,0.941-0.548c3.583-4.336,10.499-4.801,20.071-5.444
					c2.771-0.186,5.909-0.397,9.221-0.723c14.813-1.457,18.251-10.044,18.391-10.408c0.041-0.106,0.037-0.225-0.008-0.329
					L71.34,94.209c-2.217-5.087-8.235-8.634-14.007-8.251L39.68,87.405c-0.147,0.024-10.631,1.995-16.91,14.344
					c-0.059,0.117-0.062,0.254-0.009,0.374c0.054,0.12,0.158,0.21,0.285,0.248l14.768,4.256
					c-1.266,14.311-2.312,40.943,0.798,42.182C38.706,148.847,38.816,148.874,38.939,148.874z M86.652,131.595
					c-0.538,1.155-4.425,8.392-17.569,9.686c-3.296,0.324-6.429,0.535-9.191,0.72c-9.8,0.659-16.88,1.134-20.708,5.769
					c-0.164,0.199-0.252,0.22-0.253,0.221c-0.039-0.021-1.398-0.698-1.453-14.09c-0.032-8.106,0.44-18.407,1.264-27.555
					c0.02-0.21-0.116-0.403-0.32-0.463l-14.603-4.209c6.1-11.535,15.878-13.375,15.978-13.393L57.4,86.839
					c5.398-0.359,11.04,2.959,13.113,7.719L86.652,131.595z"/>
			</g>
			<g>
				<path fill="#FFFFFF" d="M70.367,133.991l-8.088-3.616l-6.251,2.531c0,0-33.874-3.339-18.881-26.932
					c0.064-0.102-11.437-3.296-11.437-3.296s-13.664,32.036,29.584,32.759c0,0,2.205,0.723,5.146-0.724
					C63.382,133.268,68.529,136.161,70.367,133.991z"/>
				<path d="M56.767,136.062c0.978,0,2.332-0.193,3.875-0.952c1.248-0.614,3.022-0.354,4.739-0.103
					c2.155,0.316,4.19,0.614,5.331-0.733c0.09-0.106,0.124-0.247,0.094-0.381c-0.032-0.134-0.125-0.247-0.252-0.304l-8.088-3.616
					c-0.114-0.051-0.243-0.053-0.357-0.006l-6.144,2.488c-1.455-0.167-16.795-2.124-21.078-10.706
					c-2.11-4.231-1.223-9.459,2.642-15.54c0.076-0.118,0.089-0.266,0.038-0.395c-0.107-0.273-0.133-0.339-11.733-3.561
					c-0.22-0.06-0.449,0.049-0.536,0.254c-0.054,0.125-5.276,12.656,1.111,22.274c4.723,7.112,14.418,10.845,28.815,11.097
					C55.416,135.931,55.964,136.062,56.767,136.062z M62.621,133.846c-0.854,0-1.664,0.12-2.38,0.473
					c-2.722,1.337-4.786,0.705-4.808,0.698c-0.042-0.014-0.087-0.021-0.132-0.022c-14.116-0.236-23.585-3.835-28.142-10.697
					c-5.532-8.33-1.964-18.995-1.177-21.085c3.741,1.041,8.91,2.498,10.493,2.991c-3.793,6.163-4.599,11.522-2.396,15.936
					c4.696,9.407,21.202,11.137,21.903,11.206c0.075,0.006,0.147-0.003,0.216-0.031l6.071-2.458l7.254,3.243
					c-0.933,0.484-2.437,0.264-4.013,0.033C64.543,133.991,63.557,133.846,62.621,133.846z"/>
			</g>
		</g>
		<g>
			<path fill="#B9CEEB" d="M101.197,136.86H69.31l23.639-35.757c0.738-1.117,2.027-1.795,3.41-1.795h25.879
				c1.644,0,2.643,1.73,1.764,3.058L101.197,136.86z"/>
			<g>
				<path fill="#FFFFFF" d="M107.554,111.847c-1.036,1.567-3.265,2.838-4.979,2.838c-1.711,0-2.261-1.271-1.224-2.838
					c1.035-1.567,3.265-2.838,4.977-2.838C108.041,109.009,108.59,110.28,107.554,111.847z"/>
				<path d="M102.575,115.126c1.877,0,4.229-1.334,5.354-3.039c0.623-0.943,0.765-1.876,0.387-2.561
					c-0.342-0.619-1.048-0.959-1.988-0.959c-1.875,0-4.228,1.334-5.354,3.039c-0.623,0.943-0.765,1.876-0.386,2.561
					C100.931,114.786,101.636,115.126,102.575,115.126z M106.328,109.451c0.596,0,1.021,0.177,1.198,0.498
					c0.216,0.391,0.088,0.995-0.35,1.658c-0.945,1.429-3.053,2.637-4.602,2.637c-0.595,0-1.021-0.177-1.196-0.498
					c-0.217-0.391-0.089-0.995,0.35-1.657C102.673,110.659,104.779,109.451,106.328,109.451z"/>
			</g>
			<path d="M98.952,139.55H49.897c-1.302,0-2.355-1.037-2.355-2.315v-0.605h53.765v0.605
				C101.307,138.513,100.253,139.55,98.952,139.55z"/>
		</g>
		<g>
			<path fill="#253238" d="M36.408,3.237C22.907-0.956,5.45,18.094,8.966,33.762c0.97,4.321-0.104,10.857,4.713,13.245
				c8.544,4.233,13.918-0.892,16.111,2.512c1.902,2.952-4.857,7.206-4.044,13.378c1.209,9.171,17.952,13.599,19.853,14.102
				c1.419,0.375,21.4,5.395,30.881-5.062c2.284-2.518,5.279-7.391,3.678-10.486c-1.527-2.951-6.216-2.317-7.353-5.423
				c-0.987-2.691,2.155-4.196,1.838-7.231c-0.612-5.852-12.909-6.154-14.338-12.293c-1.144-4.908,5.999-7.793,4.779-12.655
				c-0.983-3.92-6.126-4.024-14.338-9.039C40.912,8.804,41.521,4.826,36.408,3.237z"/>
			<g>
				<path fill="#FFFFFF" d="M51.479,85.314c0.329-0.161,4.752-5.294,7.341-8.317c-0.196-0.839-0.167-1.107-0.097-2.379
					c0,0-1.341-1.321-0.803-3.037c0.626-1.994,2.551-0.394,2.551-0.394s0.891-1.533,4.244,1.11s6.895-0.572,6.895-0.572
					s-0.001,1.98-1.772,4.385c-0.977,1.328-1.142,3.081-1.188,4.72l-1.879-0.266c-1.033,1.205-1.802,1.795-3.223,2.374
					c0,0-1.124-0.203-2.288-1.151l-2.059,4.611l2.1,1.085c0,0,0.474,2.892-5.041,3.615c-5.514,0.724-9.926-3.615-9.926-3.615
					S49.275,86.399,51.479,85.314z"/>
				<path d="M54.993,91.624c0.435,0,0.876-0.027,1.326-0.086c2.349-0.308,3.972-1.038,4.828-2.169
					c0.745-0.985,0.604-1.916,0.597-1.955c-0.022-0.137-0.109-0.256-0.234-0.321L59.781,86.2l1.661-3.723
					c1.059,0.715,1.98,0.888,2.023,0.896c0.086,0.015,0.174,0.006,0.254-0.026c1.384-0.563,2.197-1.139,3.232-2.31l1.634,0.231
					c0.128,0.018,0.256-0.018,0.353-0.099c0.099-0.081,0.157-0.2,0.16-0.325c0.046-1.607,0.211-3.261,1.103-4.474
					c1.835-2.493,1.858-4.558,1.858-4.644c0.001-0.175-0.104-0.333-0.269-0.404c-0.163-0.071-0.353-0.04-0.484,0.079
					c-0.135,0.12-3.305,2.922-6.31,0.552c-1.595-1.257-2.909-1.8-3.907-1.613c-0.288,0.053-0.503,0.161-0.661,0.271
					c-0.411-0.262-1.131-0.612-1.82-0.415c-0.526,0.152-0.902,0.574-1.116,1.255c-0.506,1.609,0.406,2.894,0.772,3.325l-0.001,0.019
					c-0.058,1.012-0.077,1.381,0.07,2.084c-5.898,6.887-6.912,7.911-7.084,8.055c-2.156,1.057-5.045,2.125-5.074,2.136
					c-0.143,0.053-0.248,0.173-0.282,0.32c-0.031,0.146,0.015,0.299,0.123,0.406C46.188,87.965,49.972,91.624,54.993,91.624z
					 M60.858,87.754c-0.016,0.237-0.1,0.658-0.451,1.111c-0.703,0.906-2.157,1.527-4.207,1.796
					c-4.154,0.545-7.714-1.958-9.018-3.027c1.011-0.391,2.944-1.161,4.5-1.926c0.148-0.073,0.46-0.227,7.481-8.428
					c0.09-0.106,0.126-0.248,0.094-0.383c-0.172-0.732-0.157-0.959-0.097-2.054l0.012-0.202c0.007-0.125-0.041-0.247-0.131-0.336
					c-0.046-0.046-1.141-1.163-0.691-2.594c0.119-0.38,0.292-0.604,0.512-0.667c0.416-0.12,1.068,0.272,1.318,0.481
					c0.103,0.084,0.236,0.12,0.369,0.098c0.131-0.023,0.246-0.102,0.312-0.216l0,0c0.001,0,0.12-0.16,0.438-0.207
					c0.411-0.061,1.366,0.047,3.137,1.442c2.552,2.012,5.212,0.903,6.567,0.066c-0.189,0.761-0.608,1.894-1.528,3.144
					c-0.938,1.274-1.182,2.881-1.256,4.471l-1.383-0.195c-0.154-0.022-0.308,0.036-0.408,0.152
					c-0.985,1.147-1.685,1.677-2.919,2.195c-0.301-0.08-1.122-0.344-1.962-1.028c-0.109-0.089-0.254-0.122-0.392-0.09
					c-0.136,0.032-0.25,0.125-0.307,0.252l-2.06,4.611c-0.094,0.212-0.006,0.461,0.203,0.568L60.858,87.754z"/>
			</g>
			<g>
				<path fill="#FFFFFF" d="M61.26,81.788l-0.606-0.538L61.26,81.788z"/>
				<path d="M61.26,82.229c0.122,0,0.244-0.049,0.334-0.146c0.166-0.182,0.151-0.461-0.033-0.624l-0.606-0.538
					c-0.184-0.164-0.468-0.149-0.635,0.032c-0.166,0.182-0.151,0.461,0.033,0.625l0.606,0.537
					C61.044,82.191,61.152,82.229,61.26,82.229z"/>
			</g>
		</g>
	</g>
</g>
<g opacity="0.5">
	<path fill="#B9CEEB" d="M573.158,297.986h-20.083c-2.563,0-4.995-1.129-6.676-3.094c-1.725-2.02-2.475-4.688-2.058-7.324
		l41.514-262.896c0.691-4.384,4.365-7.566,8.731-7.566h20.094c2.563,0,4.996,1.127,6.677,3.094c1.725,2.019,2.474,4.688,2.057,7.327
		l-41.521,262.89C581.199,294.803,577.527,297.986,573.158,297.986z M587.793,24.979L546.28,287.872
		c-0.326,2.071,0.26,4.165,1.609,5.745c1.309,1.529,3.197,2.408,5.186,2.408h20.083c3.396,0,6.256-2.488,6.797-5.912l41.521-262.891
		c0.328-2.074-0.258-4.166-1.608-5.746c-1.308-1.532-3.196-2.408-5.187-2.408h-20.094C591.192,19.068,588.334,21.555,587.793,24.979
		z"/>
	<path fill="#B9CEEB" d="M514.663,297.986H494.57c-2.557,0-4.984-1.125-6.665-3.082c-1.724-2.012-2.479-4.672-2.073-7.307
		l30.133-195.41l0.97,0.148l-0.97-0.148c0.68-4.404,4.354-7.604,8.738-7.604h20.102c2.558,0,4.986,1.125,6.666,3.083
		c1.725,2.009,2.479,4.671,2.072,7.308L523.4,290.386C522.723,294.79,519.048,297.986,514.663,297.986z M524.703,86.549
		c-3.409,0-6.271,2.496-6.799,5.936l-30.133,195.412c-0.319,2.069,0.272,4.156,1.622,5.73c1.307,1.523,3.193,2.398,5.177,2.398
		h20.093c3.41,0,6.269-2.496,6.799-5.938l30.142-195.412c0.32-2.067-0.271-4.153-1.621-5.73c-1.308-1.522-3.192-2.396-5.178-2.396
		H524.703z"/>
	<path fill="#B9CEEB" d="M456.201,297.986h-20.092c-2.559,0-4.988-1.125-6.668-3.086c-1.726-2.012-2.478-4.676-2.068-7.313
		l22.488-144.799c0.684-4.399,4.356-7.593,8.735-7.593h20.102c2.558,0,4.987,1.125,6.667,3.088c1.725,2.009,2.479,4.676,2.068,7.31
		l-22.498,144.802C464.252,294.795,460.578,297.986,456.201,297.986z M451.8,143.088l-22.487,144.805
		c-0.321,2.065,0.269,4.155,1.619,5.732c1.307,1.525,3.193,2.4,5.179,2.4h20.092c3.401,0,6.264-2.494,6.797-5.933l22.498-144.801
		c0.321-2.069-0.271-4.159-1.619-5.733c-1.307-1.527-3.195-2.403-5.179-2.403h-20.102
		C455.192,137.157,452.334,139.653,451.8,143.088z"/>
	<path fill="#B9CEEB" d="M397.744,297.986h-20.086c-2.563,0-4.994-1.129-6.674-3.094c-1.725-2.018-2.474-4.687-2.06-7.322
		l14.828-94.19c0.689-4.387,4.362-7.573,8.732-7.573h20.094c2.563,0,4.995,1.127,6.675,3.094c1.724,2.018,2.474,4.687,2.061,7.322
		l-14.839,94.192C405.785,294.803,402.113,297.986,397.744,297.986z M392.486,187.768c-3.399,0-6.258,2.488-6.795,5.916
		l-14.828,94.193c-0.327,2.068,0.262,4.163,1.61,5.742c1.308,1.527,3.197,2.406,5.185,2.406h20.086c3.396,0,6.256-2.488,6.795-5.916
		l14.838-94.193c0.325-2.066-0.263-4.161-1.612-5.743c-1.308-1.526-3.195-2.405-5.185-2.405H392.486L392.486,187.768z
		 M384.723,193.53h0.01H384.723z"/>
	<path fill="#B9CEEB" d="M339.166,297.986h-20.123c-2.535,0-4.953-1.11-6.63-3.041c-1.72-1.981-2.494-4.62-2.123-7.236l7.452-52.577
		c0.624-4.397,4.388-7.712,8.753-7.712h20.133c2.537,0,4.952,1.11,6.631,3.041c1.72,1.98,2.493,4.62,2.123,7.237l-7.461,52.579
		C347.297,294.672,343.533,297.986,339.166,297.986z M319.683,235.404l-7.45,52.58c-0.292,2.055,0.313,4.121,1.661,5.676
		c1.307,1.501,3.183,2.365,5.149,2.365h20.123c3.396,0,6.324-2.592,6.813-6.024l7.461-52.579c0.29-2.052-0.313-4.121-1.663-5.675
		c-1.306-1.505-3.182-2.366-5.148-2.366h-20.133C323.098,229.381,320.17,231.973,319.683,235.404z"/>
</g>
<g>
	<g>
		<path fill="#B9CEEB" d="M640,299.386c0,0.214-143.281,0.388-319.984,0.388C143.25,299.771,0,299.598,0,299.386
			C0,299.172,143.249,299,320.016,299C496.719,299,640,299.172,640,299.386z"/>
	</g>
</g>
</svg>
