<?xml version="1.0" encoding="utf-8"?>
<!-- Generator: Adobe Illustrator 16.0.0, SVG Export Plug-In . SVG Version: 6.00 Build 0)  -->
<!DOCTYPE svg PUBLIC "-//W3C//DTD SVG 1.1//EN" "http://www.w3.org/Graphics/SVG/1.1/DTD/svg11.dtd">
<svg version="1.1" id="Layer_1" xmlns="http://www.w3.org/2000/svg" xmlns:xlink="http://www.w3.org/1999/xlink" x="0px" y="0px"
	 width="640px" height="300px" viewBox="0 0 640 300" enable-background="new 0 0 640 300" xml:space="preserve">
<g>
	<g>
		<path fill="#263238" d="M640,299.243c0,0.213-143.281,0.387-319.984,0.387C143.249,299.63,0,299.456,0,299.243
			c0-0.214,143.249-0.386,320.016-0.386C496.719,298.857,640,299.029,640,299.243z"/>
	</g>
</g>
<path opacity="0.4" fill="none" stroke="#B9CEEB" stroke-miterlimit="10" enable-background="new    " d="M466.326,232.563
	l-15.131-26.224l-8.023,4.642c-2.367,1.36-5.264,1.23-7.547-0.258c-1.266-0.824-2.573-1.58-3.925-2.268
	c-2.422-1.23-3.979-3.68-3.979-6.396v-9.267h-30.289v9.267c0,2.717-1.555,5.166-3.979,6.396c-1.351,0.688-2.66,1.443-3.92,2.268
	c-2.28,1.488-5.188,1.618-7.547,0.258l-8.029-4.642l-15.131,26.224l8.064,4.646c2.36,1.36,3.663,3.955,3.525,6.676
	c-0.037,0.74-0.055,1.483-0.055,2.231c0,0.744,0.018,1.486,0.055,2.228c0.138,2.71-1.156,5.292-3.502,6.651l-8.089,4.669
	l15.131,26.224l8.052-4.637c2.364-1.363,5.263-1.23,7.547,0.261c1.256,0.821,2.563,1.575,3.906,2.263
	c2.416,1.231,3.971,3.68,3.971,6.396v9.267h30.289v-9.267c0-2.716,1.554-5.163,3.976-6.396c1.343-0.688,2.646-1.44,3.901-2.263
	c2.283-1.491,5.189-1.624,7.547-0.261l8.052,4.637l15.131-26.224l-8.052-4.646c-2.356-1.356-3.649-3.94-3.513-6.658
	c0.036-0.74,0.056-1.489,0.056-2.243c0-0.748-0.02-1.491-0.056-2.231c-0.138-2.721,1.165-5.314,3.521-6.683L466.326,232.563z
	 M437.376,246.114c0,13.694-11.096,24.786-24.786,24.786c-13.696,0-24.814-11.092-24.814-24.786
	c0-13.698,11.118-24.813,24.814-24.813C426.28,221.302,437.376,232.416,437.376,246.114z"/>
<g opacity="0.4">
	<g>
		<line fill="none" stroke="#C7C7C7" stroke-miterlimit="10" x1="19.646" y1="53.336" x2="19.646" y2="0"/>
		<g>
			<polygon fill="#B9CEEB" points="38.167,71.189 36.677,74.463 2.612,74.463 1.126,71.189 15.629,61.15 23.664,61.15 			"/>
			<polygon fill="#DBDBDB" points="24.67,51.479 23.664,61.15 15.629,61.15 14.623,51.479 			"/>
			<polygon fill="#DBDBDB" points="38.166,71.19 36.676,74.465 2.61,74.465 1.125,71.19 			"/>
		</g>
	</g>
	<g>
		<line fill="none" stroke="#C7C7C7" stroke-miterlimit="10" x1="96.454" y1="53.336" x2="96.454" y2="0"/>
		<g>
			<polygon fill="#B9CEEB" points="114.975,71.189 113.485,74.463 79.419,74.463 77.934,71.189 92.437,61.15 100.471,61.15 			"/>
			<polygon fill="#DBDBDB" points="101.478,51.479 100.471,61.15 92.437,61.15 91.43,51.479 			"/>
			<polygon fill="#DBDBDB" points="114.973,71.19 113.483,74.465 79.417,74.465 77.932,71.19 			"/>
		</g>
	</g>
	<g>
		<line fill="none" stroke="#C7C7C7" stroke-miterlimit="10" x1="59.413" y1="42.772" x2="59.413" y2="0"/>
		<g>
			<polygon fill="#B9CEEB" points="77.934,60.625 76.444,63.899 42.378,63.899 40.893,60.625 55.396,50.586 63.431,50.586 			"/>
			<polygon fill="#DBDBDB" points="64.437,40.914 63.431,50.586 55.396,50.586 54.39,40.914 			"/>
			<polygon fill="#DBDBDB" points="77.932,60.626 76.442,63.901 42.376,63.901 40.891,60.626 			"/>
		</g>
	</g>
</g>
<g>
	<g>
		<g>
			<g>
				<polygon fill="#6EA2E0" points="513.021,70.294 497.614,63.676 427.748,194.984 280.497,194.984 223.729,299 185.491,299 
					259.091,164.128 406.109,164.128 466.639,50.362 456.27,45.903 451.24,43.743 442.469,36.284 498.936,1.494 507.709,8.953 				
					"/>
			</g>
		</g>
		<g opacity="0.1">
			<g>
				<polygon points="513.021,70.294 497.614,63.676 427.748,194.984 280.497,194.984 223.729,299 185.491,299 259.091,164.128 
					406.109,164.128 466.639,50.362 456.27,45.903 451.24,43.743 442.469,36.284 498.936,1.494 507.709,8.953 				"/>
			</g>
		</g>
	</g>
	<g>
		<g>
			<polygon fill="#B9CEEB" points="504.24,62.835 488.842,56.217 418.969,187.523 271.717,187.523 210.879,299 172.642,299 
				250.311,156.668 397.331,156.668 456.27,45.903 457.866,42.903 442.469,36.284 498.936,1.494 			"/>
		</g>
	</g>
</g>
<g>
	<g>
		<g>
			<path fill="#263238" d="M598.021,234.307c0.197-2.877,0.55-5.758,1.219-8.565c0.604-2.535,1.461-5.13,3.061-7.226
				c1.461-1.914,3.561-3.438,5.999-3.738c2.351-0.286,4.557,0.761,6.313,2.24c2.178,1.834,3.846,4.262,5.411,6.615
				c1.75,2.633,3.239,5.367,4.673,8.18c0.048,0.093-0.096,0.172-0.142,0.078c-1.183-2.377-2.637-4.686-4.18-6.846
				c-1.457-2.039-3.015-4.07-4.813-5.826c-1.611-1.574-3.661-3.047-5.998-3.121c-2.325-0.074-4.472,1.232-5.87,3.023
				c-1.566,2.004-2.362,4.506-2.959,6.945c-0.654,2.676-0.981,5.412-1.204,8.156c-0.459,5.641-0.584,11.317-0.712,16.977
				c-0.072,3.201-0.115,6.404-0.146,9.607c-0.015,1.623-0.026,3.243-0.04,4.866c-0.012,1.563,0.07,3.148-0.187,4.693
				c-0.053,0.315-0.569,0.284-0.622-0.015c-0.258-1.463-0.195-2.967-0.216-4.446c-0.021-1.539-0.04-3.076-0.055-4.615
				c-0.026-2.99-0.042-5.979-0.033-8.972C597.54,246.32,597.612,240.295,598.021,234.307z"/>
			<g>
				<path fill="#B9CEEB" d="M606.086,230.053c0.299-1.596,0.838-3.676,1.747-4.912c1.634-2.221,3.397-1.254,1.767,1.205
					c-1.779,2.687-2.036,4.807-2.294,6.064c0,0,2.747,3.924,6.062,5.855c-0.143-1.509-0.566-3.828-0.273-6.066
					c0.638-4.846,3.568-4.572,2.844-0.725c-0.581,3.088-0.82,6.364-0.662,7.786c0.995,0.755,2.691,1.402,3.542,1.734
					c-0.19-0.562-0.393-1.234-0.615-2.054c-1.176-4.344,1.721-5.7,1.813-3.256c0.07,2.01,0.851,5.123,1.127,6.164
					c1.591,0.533,2.908,0.898,3.714,1.183c3.349,1.176,5.435,3.713,5.435,3.713c1.519-1.351,2.744-2.988,3.703-4.791
					c-1.015-0.871-2.614-2.168-4.836-3.736c-4.166-2.938-2.717-6.651,0.589-4.344c2.384,1.666,4.229,4.752,5.068,6.338
					c1.148-2.744,1.754-5.756,1.89-8.674c-3.272-3.07-11.363-7.353-8.924-7.353c2.192,0,7.104,3.219,8.906,4.461
					c-0.049-0.867-0.142-1.711-0.277-2.521c-3.081-2.021-13.095-5.162-11.499-6.065c1.753-0.99,8.738,2.244,10.853,3.268
					c-0.464-1.502-1.09-2.811-1.852-3.834c-4.259-5.701-11.938-7.664-15.286-6.578c-2.37,0.77-1.678,6.783-2.188,6.578
					C606.914,215.662,602.584,218.371,606.086,230.053z M629.428,229.393c0.675-0.815,3.801,1.586,2.896,2.898
					C631.42,233.602,628.557,230.438,629.428,229.393z M613.099,224.264c0.821,0.523-0.393,3.563-1.659,2.644
					C610.359,226.121,612.271,223.736,613.099,224.264z"/>
				<path fill="#263238" d="M614.345,225.195c0.432-0.85,0.879-1.695,1.369-2.512c0.467-0.777,0.964-1.605,1.573-2.281
					c-0.136-0.166-0.269-0.338-0.407-0.502c-0.056-0.066,0.042-0.16,0.101-0.094c0.159,0.182,0.312,0.368,0.467,0.553
					c0.029,0.018,0.055,0.043,0.064,0.078c0.589,0.705,1.144,1.432,1.672,2.174c0.937,0.197,1.861,0.498,2.767,0.801
					c0.935,0.313,1.859,0.637,2.768,1.02c0.097,0.041,0.048,0.197-0.047,0.156c-0.897-0.398-1.811-0.785-2.744-1.1
					c-0.881-0.297-1.776-0.527-2.672-0.779c0.291,0.41,0.576,0.824,0.851,1.244c1.678,0.482,3.317,1.248,4.891,1.994
					c1.653,0.785,3.243,1.697,4.826,2.613c0.089,0.053,0.005,0.188-0.085,0.137c-1.551-0.928-3.165-1.719-4.801-2.484
					c-1.53-0.717-3.116-1.307-4.66-1.988c3.889,6.068,6.222,13.07,9.339,19.555c0.045,0.095-0.104,0.173-0.143,0.078
					c-0.952-2.274-2.049-4.489-3.085-6.727c-0.931-2.008-1.839-4.027-2.771-6.033c-0.272-0.59-0.554-1.176-0.838-1.76
					c0.169,3.24,0.102,6.537,0.632,9.74c0.019,0.115-0.15,0.137-0.159,0.02c-0.225-3.465-0.834-6.873-0.811-10.356
					c0-0.021,0.015-0.029,0.02-0.046c-0.66-1.323-1.363-2.631-2.122-3.899c-1.289,3.031-2.644,6.111-3.244,9.369
					c-0.019,0.101-0.182,0.056-0.154-0.047c0.876-3.267,1.688-6.535,3.262-9.554c-0.831-1.373-1.737-2.696-2.738-3.946
					c-0.432,0.807-0.986,1.567-1.478,2.338c-0.48,0.754-0.951,1.512-1.396,2.287c-0.948,1.655-1.781,3.346-2.432,5.141
					c-0.036,0.099-0.195,0.048-0.154-0.047C612.743,228.607,613.496,226.871,614.345,225.195z"/>
			</g>
		</g>
		<g>
			<path fill="#263238" d="M583.692,232.574c2.495-2.504,5.396-5.787,9.252-5.781c3.723,0.006,6.462,3.004,8.036,6.096
				c1.646,3.232,2.235,6.896,2.7,10.455c0.559,4.262,0.865,8.559,0.986,12.855c0.068,2.387,0.06,4.775,0,7.162
				c-0.06,2.408-0.118,4.852-0.547,7.227c-0.07,0.387-0.688,0.4-0.711-0.016c-0.111-2.01-0.031-4.029-0.021-6.039
				c0.012-1.982-0.02-3.963-0.093-5.943c-0.146-4.004-0.438-8.002-0.909-11.982c-0.409-3.477-0.735-7.051-1.775-10.409
				c-0.938-3.027-2.697-6.492-5.77-7.822c-4.188-1.815-8.282,1.5-11.024,4.301C583.745,232.75,583.619,232.648,583.692,232.574z"/>
			<g>
				<path fill="#B9CEEB" d="M570.962,238.166v0.006c0.019,0.512,0.049,1.016,0.082,1.512c1.14-0.803,2.571-1.529,4.091-1.695
					c3.541-0.377,3.315,2.316,0.949,2.431c-2.257,0.106-3.771,0.49-4.859,0.974c0.578,4.678,1.863,8.438,2.058,8.487
					c0.192,0.045,4.522-0.267,9.356-1.185c-0.88-1.877-2.885-4.368-1.863-4.569c1.048-0.209,2.141,2.019,2.706,4.399
					c2.332-0.473,4.734-1.088,6.808-1.873c-1.559-1.35-3.966-3.026-3.046-3.741c0.919-0.72,2.831,1.647,3.976,3.364
					c1.139-0.485,2.148-1.028,2.942-1.641c-2.101-3.084-7.215-3.711-6.548-5.939c0.683-2.272,5.455,0.863,7.603,4.99
					c2.524-2.617,3.264-6.319,2.998-9.485c-2.197-0.255-6.428,0.209-6.121-1.371c0.288-1.502,3.362-1.277,5.864-0.354
					c-0.309-1.437-0.83-2.658-1.469-3.479c-2.317-2.976-9.388,0.81-9.388,0.81s0.758-7.107-1.939-8.337
					c-1.556-0.704-4.296-0.698-7.048,0.921c1.543,0.129,3.408,0.616,4.156,1.688c0.961,1.365-0.553,2.109-1.515,1.479
					c-0.676-0.447-1.942-1.854-4.225-2.039c-0.887,0.736-1.752,1.67-2.553,2.826c-0.262,0.367-0.504,0.756-0.745,1.176
					c2.224-0.924,5.167-1.397,8.276,0.148c3.065,1.523,1.354,4.705-1.285,3.469c-2.607-1.221-5.147-2.453-7.943-1.752
					c-1.025,2.365-1.366,5.168-1.345,7.924c1.05-0.758,2.599-1.666,4.541-2.178c3.048-0.801,3.969,1.02,0.621,1.359
					C573.972,236.703,572.183,237.48,570.962,238.166z M574.669,233.273c-0.211-0.986,1.951-1.271,2.312-0.472
					C577.279,233.486,574.874,234.262,574.669,233.273z M593.158,238.742c0.203-0.539,1.649,0.074,1.519,0.744
					C594.497,240.383,592.961,239.279,593.158,238.742z M582.951,242.205c1.053-0.42,2.698,2.199,1.551,2.799
					C583.354,245.604,582.09,242.551,582.951,242.205z"/>
				<path fill="#263238" d="M573.694,249.34c1.589-2.656,3.157-5.326,4.824-7.934c0.777-1.213,1.592-2.402,2.437-3.57
					c-0.127-0.025-0.256-0.063-0.379-0.09c-0.21-0.043-0.421-0.084-0.632-0.121c-0.488-0.084-0.979-0.154-1.474-0.205
					c-0.464-0.047-0.928-0.072-1.395-0.078c-0.484-0.006-1.015-0.021-1.49,0.078c-0.061,0.014-0.068-0.08-0.012-0.078
					c0.494,0.02,1.003-0.047,1.501-0.053c0.481-0.008,0.966,0.006,1.445,0.035c0.454,0.025,0.903,0.07,1.353,0.139
					c0.248,0.039,0.495,0.082,0.741,0.131c0.146,0.029,0.301,0.051,0.444,0.096c0.86-1.184,1.753-2.344,2.676-3.479
					c-2.783-1.279-5.648-2.334-8.692-2.775c-0.051-0.008-0.031-0.086,0.02-0.078c3.033,0.484,6.075,1.271,8.82,2.677
					c0.507-0.623,1.019-1.244,1.531-1.861c0.575-0.69,1.189-1.364,1.709-2.1c0.033-0.05,0.104,0.006,0.063,0.047
					c-0.721,0.771-1.373,1.618-2.016,2.469c0.005,0.002,0.01-0.002,0.015,0.002c1.147,0.767,2.202,1.683,3.232,2.597
					c1.056,0.936,2.088,1.903,3.089,2.897c0.037,0.037-0.019,0.097-0.056,0.06c-0.99-0.982-2.018-1.922-3.091-2.814
					c-1.072-0.893-2.202-1.711-3.281-2.594c-0.006-0.006-0.004-0.012-0.008-0.017c-0.247,0.326-0.492,0.65-0.74,0.974
					c-0.124,0.162-0.249,0.324-0.373,0.485c-0.007,0.017-0.016,0.025-0.027,0.035c-0.412,0.537-0.824,1.078-1.231,1.619
					c0.5,0.67,0.869,1.461,1.228,2.215c0.355,0.748,0.665,1.522,0.95,2.304c0.591,1.61,0.987,3.293,1.324,4.975
					c0.011,0.051-0.067,0.074-0.076,0.023c-0.319-1.675-0.844-3.289-1.446-4.88c-0.31-0.811-0.66-1.604-1.021-2.393
					c-0.33-0.72-0.729-1.408-1.038-2.136c-0.356,0.476-0.711,0.949-1.061,1.429c-0.102,0.139-0.197,0.28-0.298,0.422
					c0.016,0.03,0.005,0.069-0.035,0.071c-0.006,0-0.011,0-0.017,0c-1.092,1.523-2.13,3.082-3.14,4.66
					c0.068,0.103,0.099,0.228,0.139,0.347c0.064,0.19,0.126,0.385,0.182,0.577c0.113,0.39,0.205,0.783,0.277,1.183
					c0.067,0.375,0.121,0.752,0.158,1.131c0.041,0.418,0.001,0.88,0.095,1.285c0.015,0.063-0.088,0.067-0.078,0.002
					c0.063-0.379-0.034-0.819-0.087-1.198c-0.058-0.41-0.135-0.818-0.229-1.222c-0.086-0.364-0.185-0.729-0.292-1.088
					c-0.056-0.181-0.112-0.356-0.175-0.535c-0.032-0.094-0.078-0.192-0.109-0.293c-0.474,0.74-0.941,1.483-1.402,2.233
					c-0.914,1.484-1.82,2.976-2.731,4.459C573.769,249.48,573.649,249.414,573.694,249.34z"/>
			</g>
		</g>
		<g>
			<path fill="#263238" d="M598.188,269.73c0.041-1.506,0.279-3.021,0.442-4.519c0.163-1.502,0.333-3.006,0.494-4.508
				c0.31-2.897,0.481-5.861,1.163-8.703c0.586-2.442,1.663-4.785,3.54-6.508c0.95-0.871,2.157-1.586,3.472-1.656
				c1.345-0.071,2.584,0.394,3.688,1.138c1.255,0.848,2.223,2.049,3.1,3.266c0.904,1.256,1.703,2.555,2.418,3.926
				c0.026,0.053-0.055,0.084-0.084,0.035c-1.318-2.287-3.137-4.26-5.229-5.859c-0.965-0.736-2.069-1.291-3.297-1.375
				c-1.218-0.082-2.303,0.498-3.195,1.275c-1.756,1.525-2.771,3.77-3.376,5.973c-0.718,2.613-0.949,5.361-1.309,8.039
				c-0.213,1.592-0.416,3.186-0.625,4.777c-0.21,1.584-0.342,3.209-0.678,4.77C598.639,270.139,598.179,270.068,598.188,269.73z"/>
			<g>
				<path fill="#B9CEEB" d="M605.59,258.043c0.435,0.607,0.988,1.158,1.637,1.672c-0.246-1.469-0.547-4.076,0.195-5.467
					c1.15-2.156,2.514-1.08,1.828,0.795c-0.99,2.678-1.119,4.486-1.107,5.316c1.459,0.961,3.219,1.736,4.998,2.358
					c-0.157-0.723-0.258-1.618-0.166-2.573c0.23-2.306,1.996-2.263,1.537,0.137c-0.2,1.037-0.242,2.035-0.241,2.818
					c4.028,1.264,7.791,1.756,7.791,1.756c1.5-1.998,2.552-3.916,3.225-5.738c-1.877-0.471-5.679-0.578-5.598-1.92
					c0.107-1.805,3.791-0.416,5.943,0.895c0.53-1.729,0.716-3.359,0.651-4.857c-0.842-0.274-2.396-0.616-5.178-0.856
					c-3.866-0.334-3.677-2.524-0.875-2.476c2.066,0.037,4.682,1.304,5.921,1.959c-0.809-5.256-4.817-8.627-8.033-8.754
					c-5.406-0.219-3.462,6.511-3.462,6.511s-3.662-2.578-7.12-2.511C604.088,247.182,601.894,252.9,605.59,258.043z M620.03,248.318
					c-0.121-0.758,2.292-0.939,2.418,0.031C622.592,249.439,620.152,249.088,620.03,248.318z M623.911,256.211
					c-0.049-0.494,0.992-0.582,1.228,0.041C625.297,256.658,623.953,256.699,623.911,256.211z M610.93,256.672
					c0.815,0.113,1.278,3.027-0.124,2.971C609.736,259.598,610.239,256.572,610.93,256.672z"/>
				<g>
					<path fill="#263238" d="M612.058,259.906c0.136-0.361,0.255-0.73,0.368-1.102c-0.104,0.375-0.198,0.752-0.268,1.129
						C612.144,260.008,612.031,259.979,612.058,259.906z"/>
					<path fill="#263238" d="M613.485,255.225c0.253-0.748,0.536-1.483,0.827-2.219c0.154-0.391,0.314-0.779,0.486-1.164
						c0.146-0.324,0.266-0.693,0.482-0.975c-0.166-0.311-0.321-0.625-0.438-0.945c-0.012-0.029,0.027-0.053,0.049-0.027
						c0.412,0.48,0.731,1.086,1.055,1.633c0.149,0.257,0.293,0.515,0.438,0.771c0.305,0.018,0.612,0.086,0.91,0.141
						c0.324,0.06,0.646,0.125,0.969,0.197c0.321,0.072,0.644,0.146,0.965,0.225c0.316,0.076,0.635,0.183,0.957,0.23
						c0.075,0.012,0.045,0.129-0.026,0.1c-0.32-0.129-0.675-0.188-1.011-0.262c-0.313-0.068-0.622-0.123-0.938-0.168
						c-0.314-0.045-0.629-0.082-0.943-0.115c-0.236-0.022-0.479-0.035-0.716-0.057c0.128,0.227,0.264,0.449,0.389,0.68
						c0.02,0.035,0.036,0.072,0.057,0.107c0.261-0.021,0.521,0.047,0.777,0.092c0.278,0.051,0.558,0.104,0.834,0.164
						c0.564,0.125,1.127,0.26,1.684,0.414c1.169,0.326,2.325,0.699,3.479,1.078c0.063,0.02,0.022,0.119-0.04,0.096
						c-1.146-0.391-2.315-0.703-3.495-0.969c-0.555-0.125-1.106-0.252-1.661-0.367c-0.278-0.059-0.556-0.119-0.833-0.178
						c-0.215-0.045-0.439-0.07-0.646-0.143c0.597,1.1,1.155,2.215,1.67,3.354c1.121,2.479,2.065,5.037,3.026,7.582
						c0.024,0.063-0.073,0.104-0.096,0.041c-0.898-2.545-2.034-4.992-3.222-7.412c-0.216-0.438-0.438-0.879-0.656-1.315
						c-0.019,0.09-0.04,0.178-0.058,0.268c-0.057,0.301-0.108,0.602-0.159,0.904c-0.102,0.604-0.203,1.205-0.295,1.811
						c-0.182,1.223-0.478,2.516-0.436,3.758c0.002,0.078-0.117,0.072-0.104,0c0.098-0.6,0.098-1.225,0.135-1.83
						c0.039-0.633,0.086-1.266,0.16-1.895c0.069-0.607,0.146-1.215,0.248-1.818c0.05-0.301,0.104-0.602,0.157-0.902
						c0.041-0.219,0.05-0.467,0.17-0.653c-0.316-0.636-0.631-1.271-0.95-1.906c-0.301-0.594-0.604-1.186-0.913-1.774
						c-0.13-0.25-0.272-0.502-0.411-0.756c-0.079,0.313-0.238,0.612-0.358,0.91c-0.138,0.342-0.276,0.682-0.417,1.021
						c-0.311,0.756-0.599,1.518-0.888,2.278c-0.408,1.082-0.859,2.189-1.196,3.314C612.835,257.439,613.114,256.314,613.485,255.225
						z"/>
					<path fill="#263238" d="M612.426,258.805c0.025-0.086,0.055-0.174,0.079-0.262
						C612.479,258.631,612.453,258.719,612.426,258.805z"/>
				</g>
			</g>
		</g>
	</g>
	<g>
		<g>
			<polygon fill="#37474F" points="589.148,266.805 589.528,274.852 590.507,295.594 611.907,295.594 612.886,274.852 
				613.267,266.805 			"/>
			<polygon fill="#263238" points="589.148,266.805 589.389,271.895 612.998,272.465 613.267,266.805 			"/>
		</g>
		<rect x="587.627" y="263.549" fill="#37474F" width="27.16" height="6.508"/>
		<g>
			<rect x="606.418" y="295.594" fill="#37474F" width="3.757" height="3.406"/>
			<rect x="606.418" y="295.594" fill="#263238" width="3.757" height="1.703"/>
		</g>
		<g>
			<rect x="592.239" y="295.594" fill="#37474F" width="3.753" height="3.406"/>
			<rect x="592.239" y="295.594" fill="#263238" width="3.753" height="1.703"/>
		</g>
	</g>
</g>
<g>
	<g>
		<path fill="#263238" d="M406.209,42.533c0,0,8.095-5.08,17.938,1.233c11.701,7.507,7.395,37.218,8.393,39.777
			c0.995,2.56,2.329,3.061,3.05,5.37c0.719,2.31-1.259,4.059-1.415,4.921c-0.158,0.863,2.983,4.904,2.983,4.904
			s-13.961,4.837-23.181,4.15c-9.221-0.688-20.045-5.245-20.045-5.245s1.729-2.807,1.574-4.038c-0.15-1.233-1.954-2.717-2.104-4.966
			s3.29-5.351,3.521-6.59c0.233-1.24,0.124-23.29,1.329-31.273C399.462,42.793,406.209,42.533,406.209,42.533z"/>
		<path fill="#263238" d="M393.398,97.054c0.66-0.925,1.303-1.874,1.665-2.951c0.078-0.268,0.146-0.567,0.061-0.866
			c-0.668-1.75-2.612-3.166-2.51-5.123c0.264-1.518,1.71-2.891,2.646-4.143c0.526-0.713,1.162-1.465,1.209-2.39
			c-0.01-0.327-0.101-0.579-0.094-0.863c0.246-9.906,1.189-18.485,1.748-27.821c0.178-2.173,0.503-4.396,1.612-6.364
			c-1.27,1.904-1.694,4.158-2,6.333c-0.962,9.363-1.907,17.946-2.069,27.941c-0.007,0.265,0.092,0.553,0.1,0.776
			c-0.042,0.745-0.601,1.411-1.048,2.054c-0.971,1.37-2.398,2.757-2.616,4.44c-0.063,2.09,1.938,3.455,2.778,5.217
			c0.084,0.236,0.045,0.501-0.018,0.763C394.566,95.11,393.981,96.102,393.398,97.054L393.398,97.054z"/>
		<path fill="#263238" d="M437.727,97.51c-0.727-1.079-1.741-2.425-2.365-3.525l-0.019-0.039c0.052-0.178,0.2-0.35,0.309-0.525
			c0.984-1.382,1.751-3.042,1.352-4.715c-0.384-1.971-2.111-3.496-3.051-5.171c-0.679-1.154-0.739-2.402-0.859-3.672
			c-1.007-10.863,1.5-29.238-8.729-36.229c-1.165-0.782-2.481-1.374-3.866-1.753c1.354,0.449,2.622,1.093,3.74,1.901
			c9.713,7.292,6.973,25.314,8.171,36.137c0.123,1.307,0.247,2.711,0.989,3.87c1.05,1.761,2.696,3.051,3.162,5.004
			c0.321,1.234-0.025,2.526-0.634,3.656c-0.228,0.444-0.519,0.852-0.753,1.298c-0.035,0.067-0.07,0.147-0.056,0.237
			C435.851,95.235,436.844,96.347,437.727,97.51L437.727,97.51z"/>
	</g>
	<g>
		<g>
			<g>
				<path fill="#FFABA1" d="M189.371,187.1c2.289,0.67,67.609,0.229,70.084-1.201c0.269-0.158,0.042-2.741,0.613-9.474
					c0.03-0.319,1.443-1.631,3.663-3.489c8.334-6.974,28.011-21.771,28.011-21.771l-33.995-23.871l-29.901,29.318l-7.777,7.621
					c0,0-25.966,12.623-28.504,14.453C189.047,180.521,187.083,186.43,189.371,187.1z"/>
				<path fill="#263238" d="M189.369,187.104c2.291,0.664,67.613,0.228,70.087-1.203c0.268-0.161,0.042-2.743,0.615-9.474
					c-9.25,1.704-58.803,6.356-60.836,1.175c-0.797-2.037,6.373-6.16,7.669-6.888c-6.852,3.397-14.063,7.05-15.341,7.97
					C189.05,180.521,187.084,186.432,189.369,187.104z"/>
			</g>
			<g>
				<path fill="#F6E8D4" d="M238.59,143.074l5.313,4.911l26.514,24.507c0,0,33.147-24.122,42.831-32.022
					c0.313-0.255,41.558,23.171,70.926,26.69c22.516,2.699,37.249-5.57,44.898-24.671l-37.704-12.931
					c-31.687-12.238-67.752-32.389-88.665-29.111C279.99,104.009,238.59,143.074,238.59,143.074z"/>
				<g>
					<g>
						<path fill="#37474F" d="M246.35,140.832c5.427,4.757,3.94,3.326,9.311,8.133c2.628,2.354,15.868,14.151,17.913,16.713
							c0.045,0.055-0.042,0.133-0.105,0.092c-2.82-1.873-15.773-13.927-18.353-16.321c-5.271-4.896-3.701-3.538-8.915-8.484
							C246.102,140.871,246.248,140.744,246.35,140.832z"/>
					</g>
				</g>
				<path fill="#37474F" d="M248.12,151.883l22.293,20.609c0,0,33.153-24.122,42.836-32.02c0.311-0.257,41.56,23.168,70.923,26.69
					c22.519,2.695,37.25-5.576,44.896-24.672l-37.699-12.935c-4.198-1.624-8.466-3.38-12.771-5.203
					C346.542,131.176,276.286,145.96,248.12,151.883z"/>
			</g>
		</g>
		<g>
			<g>
				<path fill="#FFABA1" d="M227.506,248.621c2.405-0.08,63.533-20.779,65.305-22.889c0.192-0.233-1.013-2.586-3.065-9.08
					c-0.096-0.312,0.728-1.979,2.095-4.412c5.141-9.133,17.917-29.131,17.917-29.131l-41.078-11.844l-16.789,36.797l-4.368,9.568
					c0,0-19.515,19.906-21.193,22.411C224.674,242.55,225.1,248.703,227.506,248.621z"/>
				<path fill="#263238" d="M227.504,248.625c2.406-0.087,63.537-20.781,65.31-22.893c0.189-0.236-1.015-2.588-3.064-9.08
					c-8.026,4.472-52.739,24.224-56.639,19.992c-1.532-1.664,3.613-7.76,4.549-8.845c-5.124,5.316-10.487,10.983-11.332,12.242
					C224.674,242.547,225.102,248.704,227.504,248.625z"/>
			</g>
			<g>
				<path fill="#F6E8D4" d="M428.559,116.736c0,0,9.021,24.066,4.2,33.668c-5.245,10.446-14.123,13.561-25.059,16.214
					c-30.229,7.333-70.136-12.063-80.396-10.063c-5.264,1.023-27.289,49.721-27.289,49.721l-42.006-14.396
					c4.741-8.805,30.262-67.072,52.996-75.828c15.562-5.992,68.863,7.866,69.651,7.159c1.286-1.154,6.771-6.792,6.771-6.792
					L428.559,116.736z"/>
				<g>
					<path fill="#37474F" d="M262.715,186.823c5.052,1.383,9.992,3.104,14.93,4.747c4.918,1.637,9.825,3.299,14.701,5.02
						c2.769,0.979,5.528,1.969,8.253,3.029c0.068,0.025,0.024,0.113-0.046,0.094c-5.036-1.445-9.986-3.093-14.937-4.736
						c-4.918-1.632-9.823-3.297-14.706-5.008c-2.766-0.968-5.555-1.928-8.256-3.021
						C262.568,186.911,262.623,186.798,262.715,186.823z"/>
					<path fill="#37474F" d="M403.359,122.488c-0.004-0.136,0.233-0.128,0.258-0.004c0.658,3.481,2.803,6.916,5.855,9.154
						c3.499,2.568,8.127,3.586,12.364,4.746c0.407,0.111,0.228,0.683-0.183,0.639c-2.496-0.267-5.018-0.832-7.393-1.585
						c-2.164-0.685-4.228-1.646-5.924-3.053C405.214,129.794,403.394,126.323,403.359,122.488z"/>
					<path fill="#37474F" d="M381.146,125.596c0.598-0.92,1.267-1.81,1.897-2.712c1.493-2.13,2.994-4.273,4.586-6.348
						c0.15-0.197,0.537,0.007,0.401,0.219c-1.033,1.637-2.149,3.237-3.242,4.845c-0.562,0.824-1.122,1.646-1.688,2.465
						c-0.531,0.766-1.215,1.544-1.564,2.392c-0.363,0.884,0.388,1.506,1.349,1.48c0.861-0.023,1.584-0.509,2.168-1.036
						c1.322-1.201,2.263-2.802,3.301-4.199c0.638-0.853,1.272-1.708,1.922-2.552c0.689-0.9,1.44-1.765,2.129-2.663
						c0.044-0.058,0.155,0.001,0.117,0.064c-0.574,0.959-1.089,1.954-1.664,2.917c-0.574,0.96-1.162,1.915-1.764,2.863
						c-0.566,0.897-1.162,1.782-1.782,2.653c-0.522,0.74-1.138,1.474-1.91,2.021c-1.246,0.886-3.579,1.331-4.543-0.154
						C380.383,127.119,380.708,126.274,381.146,125.596z"/>
					<path fill="#37474F" d="M297.323,196.802c5.423-11.353,20.703-40.825,24.722-46.319c0.798-1.092,2.126-1.845,3.599-2.064
						c1.602-0.236,3.221,0.28,4.743,0.65c1.82,0.443,3.64,0.887,5.457,1.331c3.738,0.913,7.477,1.823,11.211,2.739
						c7.008,1.715,14.004,3.485,21.037,5.121c6.27,1.457,12.611,2.75,19.063,3.348c12.316,1.139,26.397-0.528,35.313-9.035
						c4.12-3.934,6.213-8.983,6.467-14.342c0.252-5.348-1.102-10.662-2.809-15.75c-0.414-1.231-0.855-2.454-1.313-3.673
						c-0.022-0.062,0.078-0.1,0.104-0.037c3.853,9.35,7.303,20.59,1.552,29.935c-6.109,9.925-19.533,13.777-31.439,13.938
						c-13.347,0.181-26.353-3.473-39.095-6.598c-7.424-1.82-14.846-3.643-22.268-5.468c-1.802-0.442-3.595-0.936-5.411-1.322
						c-1.876-0.396-3.771-0.441-4.958,0.993c-3.945,4.768-24.918,45.256-25.668,46.671
						C297.537,197.093,297.24,196.979,297.323,196.802z"/>
					<path fill="#37474F" d="M352.498,117.844c-10.002-1.967-20.172-3.471-30.475-3.589c-2.573-0.009-5.163,0.096-7.727,0.517
						c-1.27,0.213-2.578,0.504-3.771,1.006c-1.201,0.481-2.334,1.074-3.411,1.732c-4.283,2.677-7.791,6.143-11.046,9.712
						c-3.221,3.611-6.138,7.421-8.898,11.311c-2.747,3.898-5.36,7.872-7.785,11.934c-4.884,8.11-9.294,16.441-13.219,24.948
						c2.162-4.176,4.36-8.332,6.69-12.431c2.3-4.108,4.693-8.178,7.208-12.182c5.033-7.995,10.381-15.874,16.787-23.014
						c3.198-3.548,6.65-6.988,10.783-9.601c2.077-1.292,4.331-2.295,6.825-2.65c2.479-0.41,5.026-0.555,7.571-0.59
						c5.097-0.065,10.205,0.328,15.285,0.849C342.397,116.312,347.459,117.016,352.498,117.844z"/>
				</g>
			</g>
		</g>
	</g>
	<g>
		<g>
			<path fill="#D3766A" d="M414.932,84.082c-8.582,13.169-22.032,28.063-26.2,29.92c-5.271,2.348-30.772,0.601-32.155,0.353
				c-3.419-0.634-1.579-21.691,2.107-21.154c5.611,0.817,20.927,3.712,22.474,2.963c1.608-0.787,13.108-7.8,25.269-15.962
				C414.819,74.561,420.26,75.911,414.932,84.082z"/>
			<g>
				<path fill="#FFABA1" d="M357.885,114.587c-0.435,0.064-6.597,0.968-10.187,0.897c-2.68-0.053-10.386-0.393-10.612-3.049
					c-0.158-1.811,4.398-2.092,7.617-2.356c1.695-0.136,4.036-1.026,3.896-2.018c-0.242-1.732-4.635-1.3-7.636-0.691
					c-5.803,1.179-13.952,3.946-16.17,0.863c-0.835-1.166,1.02-2.334,3.471-3.301c-3.738,0.879-7.574,1.382-8.561,0.122
					c-0.567-0.72-0.358-1.43,0.336-2.111c-1.063,0.009-1.896-0.286-2.293-1.018c-0.682-1.242,0.306-2.512,1.921-3.643
					c-0.345-0.134-0.608-0.388-0.732-0.805c-1.12-3.553,12.596-8.976,16.594-8.718c11.769,0.75,23.153,4.441,23.153,4.441
					C361.906,97.504,357.896,114.583,357.885,114.587z"/>
				<g>
					<path fill="#263238" d="M344.947,100.984c-2.705-0.365-5.547-0.214-8.188,0.466c-3.351,0.863-5.866,2.271-8.872,3.554
						c-0.08,0.035-0.021,0.146,0.057,0.112c1.433-0.61,7.241-2.78,8.706-3.234c2.683-0.831,5.468-1.158,8.294-0.856
						C344.974,101.029,344.979,100.987,344.947,100.984z"/>
					<path fill="#263238" d="M344.366,96.232c-3.124-0.104-6.324-0.222-9.423,0.248c-3.391,0.514-6.44,2.052-9.424,3.517
						c-1.792,0.881-3.563,1.795-5.309,2.748c-0.072,0.04-0.02,0.15,0.057,0.111c3.04-1.525,6.132-2.972,9.271-4.329
						c2.951-1.276,6.01-2.026,9.283-2.204c1.844-0.099,3.691-0.07,5.537-0.042C344.395,96.281,344.401,96.233,344.366,96.232z"/>
					<path fill="#263238" d="M342.567,91.713c-2.978-0.273-5.57-0.52-8.518,0.128c-3.9,0.858-8.114,2.97-9.597,3.721
						c-1.637,0.831-3.242,1.708-4.833,2.61c-0.064,0.037,0.005,0.139,0.071,0.103c3.592-1.937,7.341-3.682,11.182-5.185
						c1.835-0.719,3.745-1.257,5.743-1.442c1.975-0.182,3.973-0.039,5.947,0.083C342.578,91.731,342.58,91.713,342.567,91.713z"/>
				</g>
			</g>
		</g>
		<g>
			<path fill="#455A64" d="M359.088,91.667l0.045,25.808c0,0,24.331,0.572,29.793-2.233c5.461-2.805,20.126-21.101,25.799-30.374
				c5.673-9.273,0.02-10.6-7.279-5.803c-7.298,4.796-25.323,16.327-26.15,16.455C380.467,95.647,359.088,91.667,359.088,91.667z"/>
			<path fill="#263238" d="M364.919,107.649c-0.031-3.051-0.092-6.102,0.004-9.153c0.054-1.734,0.097-3.469,0.169-5.203
				c0.002-0.066,0.127-0.071,0.131-0.004c0.166,3.06,0.325,6.13,0.337,9.197c0.012,3.051,0.052,6.102,0.018,9.154
				c-0.02,1.736-0.096,3.464-0.231,5.197c-0.002,0.034-0.064,0.038-0.068,0.001C364.995,113.782,364.951,110.719,364.919,107.649z"
				/>
			<path opacity="0.1" enable-background="new    " d="M359.126,114.908l0.007,2.567c0,0,24.333,0.568,29.793-2.229
				c5.461-2.806,20.126-21.103,25.801-30.378c4.146-6.78,2.238-9.316-1.938-8.31C399.334,85.986,373.925,103.897,359.126,114.908z"
				/>
		</g>
	</g>
	<g>
		<path fill="#EBEBEB" d="M433.164,133.64l-54.541-14.581L388,105.665c0,0-1.809-7.068,0.667-9.975
			c3.155-3.705,12.603-12.069,17.822-15.084c12.716-7.346,19.146-0.572,20.805,2.714C433.617,95.869,433.164,133.64,433.164,133.64z
			"/>
		<g>
			<path fill="#455A64" d="M424.087,79.332c0,0-9.777,11.19-12.873,13.502c-3.095,2.313-11.041,5.77-11.041,5.77
				s1.925-7.693,4.132-11.771c2.209-4.079,8.4-9.036,8.4-9.036s-1.237,0.09-3.574,1.209c-6.07,2.905-17.733,11.437-20.921,16.761
				c-2.093,3.5-0.782,9.629-0.782,9.629l-12.272,15.81l7.728,4.813l5.794-3.296l2.604,6.219l45.313,6.865l-2.925-14.275
				c0,0-1.865-27.044-4.109-33.479C426.99,80.686,424.087,79.332,424.087,79.332z"/>
			<g>
				<path fill="#263238" d="M402.818,108.919c-2.263-0.817-4.569-1.574-6.941-2.085c-1.183-0.252-2.368-0.456-3.566-0.636
					c-0.595-0.091-1.185-0.197-1.774-0.308c-0.609-0.115-1.25-0.256-1.811-0.502c-0.053-0.022-0.091,0.045-0.041,0.07
					c0.528,0.267,1.035,0.521,1.601,0.725c0.537,0.193,1.102,0.334,1.662,0.46c1.193,0.267,2.4,0.484,3.601,0.741
					c2.417,0.517,4.833,1.035,7.204,1.708C402.859,109.123,402.926,108.958,402.818,108.919z"/>
				<path fill="#263238" d="M407.131,113.153c-1.67-0.999-3.416-1.938-5.202-2.76c-0.896-0.414-1.813-0.777-2.749-1.12
					c-0.443-0.165-0.893-0.321-1.343-0.474c-0.497-0.167-1.02-0.275-1.513-0.448c-0.05-0.018-0.091,0.049-0.039,0.069
					c0.46,0.177,0.89,0.421,1.337,0.623c0.448,0.201,0.9,0.398,1.349,0.6c0.902,0.401,1.796,0.811,2.702,1.207
					c1.812,0.788,3.604,1.589,5.381,2.435C407.152,113.332,407.218,113.205,407.131,113.153z"/>
			</g>
		</g>
		<g>
			<g>
				<path fill="#455A64" d="M429.357,82.81c15.211,14.534,28.885,40.648,25.07,46.625c-4.249,6.658-26.188-14.031-25.485-15.011
					c0.596-0.832-1.958-10.292-5.604-23.837C419.631,76.807,425.597,79.216,429.357,82.81z"/>
			</g>
			<g>
				<g>
					<path fill="#D3766A" d="M454.429,129.435c-3.628,4.436-13.201,5.091-37.134,8.775c-3.313,0.509-13.601-19.527-10.097-20.234
						c4.415-0.893,21.766-3.491,23.061-3.537C441.184,114.049,456.889,126.428,454.429,129.435z"/>
					<g>
						<path fill="#FFABA1" d="M411.989,117.101c0,0-10.128,1.155-15.24,3.242c-6.845,2.794-11.476,7.74-13.274,9.917
							c-3.761,4.548-9.354,17.874-5.362,19.993c3.61,1.917,8.563-11.966,8.563-11.966s-7.646,13.406-2.827,14.994
							c4.822,1.59,9.549-14.819,9.549-14.819s-7.513,13.933-2.253,14.865c3.975,0.703,9.188-13.941,9.188-13.941
							s-6.365,12.015-2.311,12.897c4.477,0.976,10.231-12.272,10.231-12.272c10.727,0.687,16.144-2.931,19.653-5.915
							C428.759,133.37,411.989,117.101,411.989,117.101z"/>
						<g>
							<path fill="#263238" d="M388.988,133.496c-0.961,1.545-1.946,3.104-2.751,4.722c-0.808,1.616-1.55,3.261-2.184,4.938
								c-1.559,4.114-1.815,6.91-1.778,6.738c0.872-4.046,3.656-9.875,4.463-11.491c0.803-1.615,1.518-3.265,2.319-4.879
								C389.078,133.481,389.011,133.459,388.988,133.496z"/>
							<path fill="#263238" d="M395.539,136.004c-1.134,2.021-2.341,3.991-3.374,6.056c-1.029,2.059-1.806,4.09-2.674,6.204
								c-0.067,0.164,0.053,0.144,0.127-0.018c0.963-2.083,2.029-3.94,3.018-6.012c0.988-2.065,1.892-4.18,2.958-6.21
								C395.61,135.993,395.556,135.974,395.539,136.004z"/>
							<path fill="#263238" d="M401.591,137.247c-1.909,3.01-3.197,6.334-4.372,9.618c-0.058,0.164,0.094,0.121,0.164-0.042
								c1.387-3.222,2.446-5.758,4.324-9.515C401.735,137.25,401.63,137.184,401.591,137.247z"/>
						</g>
					</g>
				</g>
				<g>
					<g>
						<path fill="#455A64" d="M407.557,116.143c0,0,16.592,23.078,16.867,23.077c0.275,0,27.506-4.574,30.005-9.785
							c2.497-5.209-14.509-15.231-24.141-15.029C420.662,114.606,407.557,116.143,407.557,116.143z"/>
						<path fill="#263238" d="M416.217,116.387c0.699,0.774,5.824,8.347,6.897,10.013c1.073,1.667,5.536,8.441,6.482,10.242
							c0.043,0.078-0.069,0.146-0.131,0.073c-1.303-1.609-5.827-8.432-6.957-10.108c-1.133-1.679-6.02-9.267-6.427-10.166
							C416.05,116.366,416.169,116.334,416.217,116.387z"/>
					</g>
					<g>
						<path fill="#263238" d="M440.782,116.912c-1.85-0.915-7.091-3.073-12.267-2.518c-0.06,0.007-0.06,0.07,0.001,0.07
							c4.261,0.011,10.337,1.73,12.225,2.506C440.791,116.99,440.829,116.936,440.782,116.912z"/>
						<g>
							<g>
								<path fill="#263238" d="M408.58,117.566l-1.081-1.381l-0.071-0.092l0.119-0.02c1.771-0.291,3.542-0.593,5.322-0.818
									c1.777-0.245,3.562-0.456,5.345-0.667c1.787-0.181,3.575-0.35,5.368-0.476c1.79-0.154,3.588-0.225,5.384-0.313l-0.354,0.429
									c-0.272-1.703-0.567-3.411-0.899-5.109c-0.164-0.85-0.323-1.701-0.507-2.546l-0.521-2.544l-0.554-2.537
									c-0.18-0.848-0.41-1.682-0.604-2.526c-0.194-0.844-0.389-1.689-0.625-2.522l-0.664-2.516
									c0.57,1.637,1.155,3.275,1.635,4.945c0.24,0.834,0.495,1.666,0.71,2.507l0.653,2.522c0.421,1.686,0.797,3.382,1.14,5.085
									c0.355,1.701,0.672,3.407,0.97,5.125l0.07,0.408l-0.426,0.022c-1.786,0.093-3.574,0.123-5.36,0.261
									c-1.787,0.1-3.569,0.26-5.354,0.401c-3.572,0.283-7.14,0.639-10.707,1.007l0.048-0.111L408.58,117.566z"/>
							</g>
							<g>
								<path fill="#263238" d="M426.379,101.494c0,0-0.224-0.233-0.514-0.622c-0.281-0.398-0.644-0.965-0.956-1.562
									c-0.309-0.582-0.563-1.185-0.737-1.648c-0.172-0.463-0.251-0.791-0.251-0.791s0.222,0.254,0.501,0.662
									c0.28,0.407,0.629,0.965,0.929,1.543c0.301,0.56,0.548,1.152,0.731,1.618C426.278,101.159,426.379,101.494,426.379,101.494z
									"/>
							</g>
						</g>
						<g>
							<path fill="#263238" d="M432.524,137.682c0,0-0.391,0.158-0.984,0.335c-0.595,0.177-1.395,0.388-2.202,0.543
								c-0.808,0.161-1.625,0.268-2.241,0.328s-1.036,0.06-1.036,0.06s0.391-0.158,0.984-0.336c0.595-0.177,1.395-0.387,2.202-0.542
								c0.808-0.161,1.625-0.267,2.242-0.328C432.105,137.683,432.524,137.682,432.524,137.682z"/>
						</g>
					</g>
				</g>
			</g>
		</g>
		<g>
			<path fill="#263238" d="M423.761,80.445c-0.651,3.465-1.22,6.94-1.778,10.416l0.286-0.22c-2.347-0.114-4.692-0.178-7.043-0.269
				l-0.396-0.016l0.047,0.359c0.188,1.46,0.361,2.921,0.576,4.378l0.213-0.329c-2.921,1.131-5.864,2.217-8.77,3.386
				c-2.912,1.147-5.818,2.312-8.698,3.529c2.985-0.991,5.948-2.034,8.901-3.094c2.967-1.04,5.893-2.162,8.837-3.238l0.243-0.089
				l-0.029-0.24c-0.178-1.462-0.394-2.918-0.597-4.377l-0.352,0.344c2.35,0.052,4.698,0.132,7.049,0.161l0.261,0.003l0.026-0.224
				C422.98,87.436,423.41,83.945,423.761,80.445z"/>
			<path fill="#263238" d="M411.097,78.943c-1.603,0.774-2.728,1.332-4.305,2.146c-1.573,0.816-3.162,1.607-4.718,2.452
				l-0.319,0.173l0.244,0.258l1.796,1.901l0.1-0.471c-1.22,0.565-2.446,1.117-3.653,1.705l-0.164,0.079l-0.021,0.157
				c-0.334,2.386-0.725,4.765-1.016,7.157c-0.314,2.388-0.61,4.778-0.843,7.178c0.502-2.366,0.94-4.738,1.362-7.113
				c0.445-2.373,0.792-4.757,1.192-7.135l-0.187,0.236c1.226-0.554,2.432-1.145,3.646-1.723l0.382-0.182l-0.282-0.289l-1.829-1.875
				l-0.076,0.431c1.554-0.845,3.07-1.744,4.605-2.617C408.544,80.537,409.588,79.858,411.097,78.943z"/>
			<path fill="#263238" d="M398.196,101.678c-0.709,1-1.428,1.996-2.104,3.013c-0.691,1.009-1.356,2.032-2.021,3.056l-0.009,0.015
				l-0.01,0.021c-0.966,2.427-1.862,4.876-2.785,7.318c-0.899,2.449-1.774,4.905-2.605,7.375c1.036-2.406,2.028-4.826,2.996-7.253
				c0.948-2.434,1.917-4.862,2.818-7.31l-0.018,0.034c0.647-1.031,1.292-2.065,1.908-3.113
				C397.004,103.795,397.594,102.734,398.196,101.678z"/>
			<path fill="#263238" d="M398.87,104.224c0.244,0.028,0.501,0.152,0.658,0.36c0.161,0.209,0.199,0.492,0.112,0.743
				c-0.09,0.248-0.308,0.456-0.57,0.542c-0.266,0.086-0.556,0.053-0.771-0.052c-0.449-0.226-0.55-0.681-0.43-1.001
				C397.983,104.491,398.359,104.171,398.87,104.224z M397.964,105.308c0.117,0.133,0.293,0.197,0.448,0.2
				c0.327-0.004,0.486-0.225,0.542-0.38c0.055-0.157,0.064-0.417-0.194-0.594c-0.128-0.078-0.312-0.118-0.493-0.072
				c-0.183,0.048-0.331,0.185-0.396,0.353C397.815,104.985,397.848,105.174,397.964,105.308z"/>
			<path fill="#263238" d="M395.265,111.021c0.243,0.026,0.501,0.151,0.659,0.36c0.16,0.208,0.2,0.492,0.114,0.741
				c-0.093,0.249-0.313,0.457-0.574,0.542c-0.266,0.086-0.553,0.053-0.769-0.053c-0.448-0.225-0.551-0.68-0.431-1.001
				C394.378,111.288,394.753,110.968,395.265,111.021z M394.357,112.104c0.117,0.132,0.292,0.197,0.446,0.199
				c0.329-0.005,0.488-0.225,0.545-0.381c0.055-0.156,0.065-0.416-0.196-0.592c-0.126-0.078-0.311-0.119-0.492-0.073
				c-0.183,0.049-0.33,0.187-0.396,0.353C394.21,111.781,394.241,111.97,394.357,112.104z"/>
			<path fill="#263238" d="M392.568,117.416c0.243,0.027,0.504,0.152,0.66,0.36c0.159,0.209,0.2,0.494,0.113,0.744
				c-0.092,0.247-0.311,0.456-0.572,0.542c-0.266,0.085-0.555,0.053-0.771-0.053c-0.449-0.224-0.549-0.679-0.429-1
				C391.681,117.686,392.058,117.365,392.568,117.416z M391.663,118.502c0.116,0.132,0.293,0.195,0.447,0.199
				c0.33-0.005,0.485-0.226,0.543-0.381c0.055-0.156,0.067-0.416-0.195-0.592c-0.128-0.08-0.312-0.12-0.494-0.073
				c-0.181,0.048-0.328,0.187-0.393,0.353C391.516,118.177,391.547,118.366,391.663,118.502z"/>
		</g>
	</g>
	<g>
		<g>
			<g>
				<g>
					<rect x="323.847" y="120.227" fill="#C7C7C7" width="63.271" height="2.546"/>
				</g>
				<g>
					<polygon fill="#A6A6A6" points="323.847,120.227 323.847,122.772 366.856,122.772 364.688,120.227 					"/>
				</g>
			</g>
			<g>
				<g>
					<polygon fill="#A6A6A6" points="358.157,122.774 302.779,122.774 294.766,87.66 350.144,87.66 					"/>
				</g>
				<g>
					<polygon fill="#C7C7C7" points="355.567,122.774 300.191,122.774 292.178,87.66 347.555,87.66 					"/>
				</g>
				<path fill="#FFFFFF" d="M318.88,103.91c-0.058,1.658,1.178,3.243,2.759,3.54c1.581,0.297,2.91-0.807,2.969-2.466
					c0.059-1.659-1.177-3.245-2.76-3.542C320.268,101.146,318.938,102.25,318.88,103.91z"/>
			</g>
		</g>
	</g>
	<g>
		<g>
			<path fill="#FFABA1" d="M421.861,78.328c-0.168,0.935-4.582,7.222-9.279,7.325c-1.527,0.031-2.091-7.465-2.091-7.465
				l-0.183-0.544l-2.542-7.629l9.669-6.492l1.4-0.867c0,0,0.544,2.129,1.191,4.785c0.028,0.124,0.061,0.247,0.092,0.378
				c0.04,0.149,0.082,0.291,0.112,0.431c0.102,0.396,0.203,0.8,0.298,1.205c0.071,0.308,0.144,0.607,0.205,0.933
				c0.072,0.325,0.137,0.642,0.208,0.967C421.575,74.576,421.925,77.93,421.861,78.328z"/>
			<path fill="#263238" d="M420.028,67.44c-1.983,6.328-7.269,9.194-9.72,10.203l-2.542-7.629l9.669-6.492l1.4-0.867
				C418.837,62.656,419.381,64.785,420.028,67.44z"/>
		</g>
		<g>
			<path fill="#FFABA1" d="M395.002,58.861c-0.849,13.955,8.357,15.988,11.705,16.149c3.041,0.146,13.412,0.297,15.86-13.505
				c2.446-13.802-4.506-18.568-11.438-19.232C404.198,41.606,395.852,44.905,395.002,58.861z"/>
			<path fill="#263238" d="M421.976,62.292c-2.538,0.277-3.356-4.499-3.356-4.499s-5.175,0.217-7.209-6.403
				c0,0,0.263,3.109,2.56,5.44c0,0-9.166-0.51-13.343-7.222c0,0,1.704,3.436,3.202,4.622c0,0-3.875-0.809-5.879-3.529
				c0,0-1.403,4.024-2.58,5.167c0,0-0.414-14.931,14.451-13.987c0,0,9.6,0.234,13.247,6.692
				C426.713,55.03,421.976,62.292,421.976,62.292z"/>
			<g>
				<g>
					<path fill="#FFABA1" d="M420.032,62.456c0,0,3.239-4.458,5.478-3.435c2.24,1.024-0.084,7.418-2.639,8.357
						s-3.567-1.168-3.567-1.168L420.032,62.456z"/>
					<path fill="#263238" d="M424.794,60.839c0.042-0.004,0.051,0.048,0.017,0.062c-1.791,0.712-2.689,2.25-3.303,3.834
						c0.519-0.618,1.239-0.969,2.157-0.419c0.048,0.03,0.007,0.097-0.044,0.089c-0.749-0.122-1.279,0.01-1.762,0.559
						c-0.344,0.388-0.567,0.874-0.809,1.317c-0.079,0.148-0.374,0.079-0.316-0.09c0.003-0.013,0.009-0.025,0.015-0.039
						C420.627,64.077,422.318,61.12,424.794,60.839z"/>
				</g>
			</g>
			<g>
				<path fill="#263238" d="M396.942,58.112c0.356-0.056,0.681-0.162,1.029-0.249c0.395-0.1,0.721-0.143,0.997-0.435
					c0.146-0.157,0.118-0.457-0.038-0.602c-0.362-0.335-0.879-0.321-1.358-0.219c-0.521,0.111-0.892,0.316-1.216,0.697
					C396.043,57.674,396.469,58.185,396.942,58.112z"/>
				<path fill="#263238" d="M407.53,57.497c-0.365-0.02-0.696-0.093-1.055-0.146c-0.404-0.06-0.731-0.07-1.042-0.333
					c-0.168-0.141-0.175-0.444-0.037-0.603c0.32-0.369,0.835-0.406,1.323-0.352c0.532,0.059,0.923,0.227,1.293,0.573
					C408.372,56.973,408.012,57.523,407.53,57.497z"/>
				<g>
					<g>
						<path fill="#263238" d="M405.277,61.082c0.009-0.036,0.084,0.043,0.084,0.082c0,0.945,0.178,2.029,1.14,2.315
							c0.028,0.009,0.027,0.057-0.007,0.053C405.328,63.418,405.109,61.979,405.277,61.082z"/>
						<path fill="#263238" d="M406.183,60.069c1.687-0.163,1.926,2.881,0.363,3.031C405.008,63.249,404.77,60.206,406.183,60.069z"
							/>
					</g>
					<path fill="#263238" d="M406.86,60.188c0.309,0.153,0.622,0.439,0.98,0.448c0.416,0.01,0.701-0.328,0.948-0.652
						c0.023-0.033,0.056-0.009,0.06,0.032c0.056,0.583-0.146,1.196-0.836,1.327c-0.629,0.12-1.125-0.368-1.331-0.943
						C406.643,60.293,406.734,60.127,406.86,60.188z"/>
				</g>
				<g>
					<g>
						<path fill="#263238" d="M399.431,61.254c-0.01-0.036-0.075,0.05-0.072,0.089c0.117,0.939,0.072,2.033-0.849,2.412
							c-0.027,0.013-0.021,0.06,0.014,0.053C399.667,63.58,399.708,62.127,399.431,61.254z"/>
						<path fill="#263238" d="M398.409,60.335c-1.694,0.004-1.563,3.052,0.009,3.049C399.965,63.381,399.833,60.333,398.409,60.335z
							"/>
					</g>
					<path fill="#263238" d="M397.713,60.561c-0.262,0.171-0.514,0.474-0.832,0.504c-0.372,0.035-0.66-0.285-0.911-0.593
						c-0.025-0.031-0.053-0.005-0.052,0.035c0.009,0.583,0.25,1.183,0.876,1.273c0.571,0.082,0.968-0.433,1.097-1.018
						C397.916,60.652,397.816,60.492,397.713,60.561z"/>
				</g>
				<path fill="#263238" d="M406.405,68.49c-0.207,0.257-0.396,0.595-0.769,0.681c-0.354,0.083-0.807,0.002-1.159-0.063
					c-0.033-0.006-0.063,0.03-0.036,0.055c0.337,0.316,0.945,0.453,1.411,0.304c0.455-0.146,0.619-0.546,0.658-0.949
					C406.518,68.461,406.435,68.453,406.405,68.49z"/>
				<g>
					<path fill="#263238" d="M401.61,65.539c0,0-0.039,1.424,0.043,2.086c0.009,0.062,0.189,0.073,0.441,0.061
						c0.011,0.002,0.019,0.006,0.027-0.002c1.325,0.051,2.581-0.485,3.251-1.518c0.044-0.07-0.059-0.129-0.12-0.081
						c-0.89,0.739-1.942,1.012-3.092,1.146c-0.074-0.178,0.158-2.438,0.041-2.434c-0.406,0.01-1.168,0.336-1.629,0.509
						c-0.013-2.969,0.504-5.916,0.442-8.873c-0.005-0.105-0.176-0.12-0.196-0.022c-0.786,3.054-0.854,6.471-0.932,9.538
						C399.876,66.331,401.332,65.68,401.61,65.539z"/>
				</g>
				<g>
					<path fill="#263238" d="M402.162,67.358c0,0,0.764,0.852,1.77,1.132c0.369,0.104,0.767,0.138,1.175,0.024
						c0.837-0.23,0.825-0.929,0.646-1.522c-0.148-0.487-0.422-0.901-0.422-0.901S404.139,67.176,402.162,67.358z"/>
					<path fill="#FF9BBC" d="M403.932,68.49c0.369,0.104,0.767,0.138,1.175,0.024c0.837-0.23,0.825-0.929,0.646-1.522
						C404.846,67.109,403.973,67.695,403.932,68.49z"/>
				</g>
			</g>
		</g>
		<g>
			<path fill="#EBEBEB" d="M410.491,78.188l1.683,5.917l9.58-7.416l1.109,2.406c0,0-9.813,11.808-9.746,11.297l-1.445-5.238
				l-4.421,2.64l2.205-8.273L410.491,78.188z"/>
			<path fill="#263238" d="M408.085,83.649c0.414-1.355,0.788-2.73,1.274-4.066c0.016-0.048,0.104-0.054,0.104,0.006
				c0.003,1.383-1.614,6.558-1.896,7.818c0.007-0.004,0.014-0.008,0.02-0.011c0.188-0.115,4.063-2.292,4.084-2.241
				c0.376,0.858,1.444,4.676,1.498,5.015c1.588-1.547,7.832-9.728,9.614-11.139c0.052-0.041,0.125,0.014,0.079,0.063
				c-1.472,1.672-9.69,11.806-9.777,11.765c-0.073,0.032-1.406-4.672-1.497-5.532c-0.688,0.503-4.676,3.029-4.642,2.823
				C407.189,86.761,407.668,85.006,408.085,83.649z"/>
		</g>
	</g>
</g>
</svg>
