<?xml version="1.0" encoding="utf-8"?>
<!-- Generator: Adobe Illustrator 16.0.0, SVG Export Plug-In . SVG Version: 6.00 Build 0)  -->
<!DOCTYPE svg PUBLIC "-//W3C//DTD SVG 1.1//EN" "http://www.w3.org/Graphics/SVG/1.1/DTD/svg11.dtd">
<svg version="1.1" id="Layer_1" xmlns="http://www.w3.org/2000/svg" xmlns:xlink="http://www.w3.org/1999/xlink" x="0px" y="0px"
	 width="640px" height="300px" viewBox="0 0 640 300" enable-background="new 0 0 640 300" xml:space="preserve">
<g>
	<g>
		<path fill="#263238" d="M640,299.999c0,0.213-143.281,0.387-319.984,0.387C143.25,300.386,0,300.21,0,299.999
			c0-0.214,143.249-0.386,320.016-0.386C496.719,299.613,640,299.785,640,299.999z"/>
	</g>
</g>
<g>
	<g>
		<g>
			<path fill="none" stroke="#1D4354" stroke-miterlimit="10" d="M326.333,200.184l-11.092-2.018
				c-5.829-1.001-5.832-9.37-0.004-10.377c8.775-1.516,15.054-6.18,18.843-12.199c0.104-0.447,0.241-0.865,0.396-1.261
				c1.529-6.89,2.571-13.8,3.162-20.69c-0.007-0.033-0.011-0.066-0.008-0.098c-2.31-9.92-9.805-18.645-22.481-20.792L56.517,89.104
				c-5.7,4.209-11.102,9.373-16.574,17.485c-4.802,7.12-8.308,14.507-10.853,21.726l215.41,36.673
				c3.626,0.617,3.645,5.818,0.025,6.464c-32.983,5.878-32.803,53.255,0.224,58.882l57.389,10.042
				C311.931,228.564,320.167,215.126,326.333,200.184z"/>
			<path fill="#6EA2E0" d="M302.137,240.768c-0.022,0-0.045-0.002-0.068-0.007l-57.389-10.043
				c-17.332-2.952-25.14-17.059-25.188-29.729c-0.048-12.671,7.652-26.837,24.963-29.921c1.653-0.295,2.389-1.646,2.384-2.856
				s-0.75-2.558-2.405-2.839L29.024,128.7c-0.114-0.019-0.213-0.087-0.271-0.187c-0.058-0.099-0.07-0.219-0.031-0.327
				c2.776-7.87,6.442-15.209,10.898-21.814c4.902-7.267,10.042-12.689,16.666-17.581c0.085-0.063,0.194-0.089,0.296-0.071
				l258.63,43.645c11.661,1.975,20.185,9.858,22.798,21.087c0.01,0.04,0.014,0.082,0.009,0.123c0.008,0.034,0.012,0.063,0.009,0.098
				c-0.6,6.983-1.665,13.963-3.17,20.741c-0.005,0.02-0.011,0.039-0.019,0.059c-0.159,0.406-0.283,0.803-0.38,1.207
				c-0.01,0.041-0.026,0.081-0.049,0.117c-2.924,4.646-8.611,10.563-19.106,12.377c-2.796,0.482-4.046,2.762-4.045,4.807
				c0.001,2.043,1.253,4.32,4.049,4.803l11.097,2.017c0.114,0.021,0.216,0.093,0.271,0.196c0.057,0.104,0.063,0.229,0.02,0.336
				c-6.02,14.584-14.182,28.141-24.257,40.295C302.363,240.716,302.252,240.768,302.137,240.768z M29.613,128.009l214.953,36.595
				c2.102,0.358,3.048,2.069,3.054,3.605s-0.928,3.254-3.027,3.628c-16.865,3.005-24.367,16.806-24.32,29.149
				c0.047,12.343,7.653,26.084,24.54,28.963l57.168,10.004c9.857-11.924,17.865-25.201,23.806-39.475l-10.616-1.93
				c-3.24-0.556-4.691-3.197-4.692-5.57c-0.002-2.371,1.448-5.015,4.691-5.574c10.171-1.756,15.696-7.467,18.545-11.969
				c0.101-0.41,0.227-0.811,0.386-1.221c1.49-6.722,2.549-13.64,3.144-20.564c-0.002-0.022-0.004-0.045-0.005-0.067
				c-2.554-10.888-10.833-18.531-22.157-20.449L56.615,89.517c-6.484,4.811-11.532,10.149-16.349,17.291
				C35.931,113.236,32.348,120.367,29.613,128.009z"/>
		</g>
		<path fill="none" d="M110.71,285.27c13.047,5.881,26.741,10.116,40.488,12.364c47.926,7.837,99.87-7.879,136.924-42.411
			L110.71,285.27z"/>
		<path fill="#6EA2E0" d="M175.747,300c-5.198,0-10.391-0.259-15.56-0.784c-0.214-0.021-0.371-0.213-0.349-0.428
			c0.022-0.214,0.215-0.368,0.428-0.349c45.258,4.598,92.491-11.32,126.628-42.613l-176.118,29.828
			c-0.212,0.035-0.414-0.107-0.45-0.319c-0.035-0.213,0.107-0.414,0.32-0.45l177.411-30.047c0.171-0.029,0.338,0.059,0.415,0.212
			c0.076,0.154,0.042,0.341-0.084,0.458C257.888,283.932,216.712,300,175.747,300z"/>
	</g>
</g>
<g>
	<g>
		<polygon fill="#FFFFFF" points="118.745,107.869 129.117,75.241 216.098,90.012 		"/>
		<g>
			<g>
				<polygon fill="#FFFFFF" points="138.982,16.939 222.648,31.47 306.241,16.921 221.699,2.215 				"/>
				<polygon fill="#1B6CBC" points="171.458,10.95 255.124,25.48 273.881,22.485 189.339,7.778 				"/>
				<g>
					<polygon fill="#1B6CBC" points="222.632,154.621 222.632,31.35 138.638,16.888 138.638,139.821 					"/>
					<path fill="#6EA2E0" d="M222.632,155.02c-0.023,0-0.046-0.002-0.069-0.006l-83.993-14.801c-0.19-0.033-0.33-0.198-0.33-0.392
						v-29.086c0-0.22,0.178-0.398,0.398-0.398c0.22,0,0.398,0.179,0.398,0.398v28.752l83.198,14.66V31.685l-83.198-14.324v54.113
						c0,0.22-0.178,0.398-0.398,0.398c-0.22,0-0.398-0.178-0.398-0.398V16.888c0-0.117,0.052-0.229,0.143-0.304
						c0.089-0.076,0.207-0.108,0.323-0.088L222.7,30.957c0.191,0.033,0.33,0.199,0.33,0.393v123.271
						c0,0.117-0.052,0.229-0.142,0.304C222.815,154.986,222.725,155.02,222.632,155.02z"/>
					<g>
						<g>
							<path d="M207.51,122.391c-0.023,0-0.047-0.002-0.069-0.006l-54.29-9.662c-0.19-0.033-0.329-0.198-0.329-0.391v-32.86
								c0-0.219,0.179-0.397,0.399-0.397c0.219,0,0.397,0.178,0.397,0.397v32.527l53.494,9.52V88.554
								c0-0.22,0.177-0.398,0.398-0.398c0.22,0,0.398,0.178,0.398,0.398v33.439c0,0.118-0.052,0.229-0.143,0.305
								C207.694,122.359,207.603,122.391,207.51,122.391z"/>
							<g>
								<path d="M158.87,107.296c-0.22,0-0.398-0.178-0.398-0.398V80.294c0-0.22,0.178-0.398,0.398-0.398
									c0.219,0,0.397,0.179,0.397,0.398v26.604C159.267,107.119,159.089,107.296,158.87,107.296z"/>
								<path d="M164.129,107.47c-0.22,0-0.398-0.178-0.398-0.397V81.187c0-0.22,0.178-0.398,0.398-0.398
									c0.22,0,0.398,0.178,0.398,0.398v25.885C164.527,107.292,164.349,107.47,164.129,107.47z"/>
								<path d="M169.687,109.041c-0.22,0-0.398-0.178-0.398-0.397V82.006c0-0.22,0.179-0.397,0.398-0.397
									c0.219,0,0.398,0.178,0.398,0.397v26.637C170.084,108.863,169.906,109.041,169.687,109.041z"/>
								<path d="M173.292,109.623c-0.22,0-0.398-0.178-0.398-0.398V82.588c0-0.22,0.178-0.398,0.398-0.398s0.398,0.179,0.398,0.398
									v26.637C173.69,109.445,173.512,109.623,173.292,109.623z"/>
								<path d="M180.503,110.292c-0.22,0-0.398-0.178-0.398-0.398V83.891c0-0.22,0.178-0.398,0.398-0.398
									c0.22,0,0.398,0.178,0.398,0.398v26.002C180.901,110.113,180.724,110.292,180.503,110.292z"/>
								<path d="M187.714,111.949c-0.22,0-0.397-0.178-0.397-0.398V85.192c0-0.22,0.177-0.398,0.397-0.398
									c0.22,0,0.398,0.178,0.398,0.398v26.359C188.113,111.771,187.935,111.949,187.714,111.949z"/>
								<path d="M194.927,112.123c-0.221,0-0.398-0.178-0.398-0.397V86.343c0-0.219,0.178-0.397,0.398-0.397
									c0.219,0,0.397,0.178,0.397,0.397v25.382C195.324,111.945,195.146,112.123,194.927,112.123z"/>
								<path d="M202.137,114.276c-0.219,0-0.397-0.179-0.397-0.398V87.639c0-0.22,0.178-0.398,0.397-0.398
									c0.221,0,0.399,0.178,0.399,0.398v26.239C202.536,114.097,202.357,114.276,202.137,114.276z"/>
							</g>
						</g>
						<path fill="#FFFFFF" d="M207.51,88.694c-0.221,0-0.398-0.179-0.398-0.398v-24.9l-53.494-9.301v24.961
							c0,0.22-0.178,0.398-0.397,0.398c-0.22,0-0.399-0.178-0.399-0.398V53.62c0-0.117,0.053-0.228,0.142-0.304
							c0.09-0.075,0.209-0.108,0.324-0.087l54.29,9.44c0.191,0.033,0.33,0.198,0.33,0.393v25.234
							C207.908,88.516,207.73,88.694,207.51,88.694z"/>
						<g>
							<path fill="#FFFFFF" d="M158.87,80.66c-0.22,0-0.398-0.179-0.398-0.398V61.658c0-0.22,0.178-0.398,0.398-0.398
								c0.219,0,0.397,0.179,0.397,0.398v18.604C159.267,80.481,159.089,80.66,158.87,80.66z"/>
							<path fill="#FFFFFF" d="M162.736,80.834V63.316c0-0.77,0.624-1.393,1.393-1.393s1.393,0.624,1.393,1.393v17.932
								L162.736,80.834z"/>
							<path fill="#FFFFFF" d="M169.687,82.405c-0.22,0-0.398-0.178-0.398-0.398V63.402c0-0.219,0.179-0.398,0.398-0.398
								c0.219,0,0.398,0.179,0.398,0.398v18.604C170.084,82.227,169.906,82.405,169.687,82.405z"/>
							<path fill="#FFFFFF" d="M173.292,82.986c-0.22,0-0.398-0.178-0.398-0.398V63.984c0-0.219,0.178-0.397,0.398-0.397
								s0.398,0.178,0.398,0.397v18.604C173.69,82.808,173.512,82.986,173.292,82.986z"/>
							<path fill="#FFFFFF" d="M179.11,83.654V66.137c0-0.77,0.624-1.393,1.393-1.393s1.393,0.623,1.393,1.393v17.991L179.11,83.654
								z"/>
							<path fill="#FFFFFF" d="M187.714,85.313c-0.22,0-0.397-0.178-0.397-0.398V66.31c0-0.219,0.177-0.397,0.397-0.397
								c0.22,0,0.398,0.178,0.398,0.397v18.604C188.113,85.134,187.935,85.313,187.714,85.313z"/>
							<path fill="#FFFFFF" d="M193.534,86.203V67.968c0-0.769,0.624-1.393,1.393-1.393c0.769,0,1.393,0.624,1.393,1.393v18.516
								L193.534,86.203z"/>
							<path fill="#FFFFFF" d="M202.137,88.036c-0.219,0-0.397-0.178-0.397-0.397V68.636c0-0.219,0.178-0.398,0.397-0.398
								c0.221,0,0.399,0.179,0.399,0.398v19.002C202.536,87.858,202.357,88.036,202.137,88.036z"/>
						</g>
					</g>
				</g>
				<g>
					<g>
						<polygon fill="#6EA2E0" points="222.632,154.621 222.632,31.35 305.897,16.87 305.897,139.893 						"/>
						<path fill="#6EA2E0" d="M222.632,155.02c-0.093,0-0.184-0.033-0.256-0.095c-0.09-0.075-0.142-0.187-0.142-0.304V31.35
							c0-0.193,0.139-0.359,0.33-0.393l83.265-14.479c0.116-0.021,0.235,0.012,0.325,0.087c0.089,0.076,0.142,0.187,0.142,0.305
							v123.023c0,0.193-0.139,0.358-0.329,0.392l-83.265,14.729C222.678,155.018,222.655,155.02,222.632,155.02z M223.03,31.685
							v122.461l82.47-14.586V17.343L223.03,31.685z"/>
					</g>
					<polygon fill="#1B6CBC" points="273.997,23.16 273.997,35.696 256.674,38.627 256.674,26.176 					"/>
				</g>
				<path fill="#6EA2E0" d="M222.648,31.869c-0.023,0-0.045-0.002-0.069-0.006l-83.665-14.531c-0.19-0.033-0.33-0.198-0.33-0.391
					s0.138-0.358,0.328-0.393l82.717-14.725c0.045-0.008,0.092-0.008,0.138,0l84.542,14.707c0.191,0.033,0.33,0.198,0.33,0.392
					c0,0.194-0.139,0.359-0.33,0.393l-83.593,14.549C222.693,31.867,222.671,31.869,222.648,31.869z M141.281,16.935l81.367,14.131
					L303.92,16.92L221.7,2.619L141.281,16.935z"/>
			</g>
		</g>
		<path d="M118.745,108.267c-0.113,0-0.223-0.048-0.299-0.135c-0.092-0.104-0.124-0.25-0.081-0.383l10.373-32.628
			c0.06-0.189,0.254-0.307,0.446-0.272l86.981,14.772c0.19,0.032,0.33,0.196,0.332,0.389c0.001,0.193-0.137,0.359-0.326,0.394
			l-97.354,17.857C118.792,108.265,118.768,108.267,118.745,108.267z M129.392,75.69l-10.067,31.668l94.485-17.331L129.392,75.69z"
			/>
	</g>
	<g>
		<g>
			<g>
				<g>
					<polygon fill="#FFFFFF" points="11.928,268.256 9.71,280.855 16.261,281.625 18.933,269.796 					"/>
					<path d="M16.261,282.023c-0.015,0-0.032,0-0.047-0.002l-6.55-0.77c-0.108-0.014-0.208-0.07-0.272-0.158
						c-0.066-0.088-0.092-0.199-0.073-0.307l2.217-12.602c0.019-0.105,0.081-0.201,0.171-0.262s0.2-0.081,0.307-0.058l7.004,1.538
						c0.104,0.022,0.194,0.086,0.251,0.176c0.056,0.09,0.076,0.197,0.052,0.301l-2.671,11.831
						C16.607,281.896,16.445,282.023,16.261,282.023z M10.175,280.511l5.776,0.679l2.505-11.092l-6.209-1.361L10.175,280.511z"/>
				</g>
				<g>
					<g>
						<path fill="#FFFFFF" d="M16.973,278.896c-2.14,0.861-4.59,0.308-6.154-1.389l-0.822-0.895
							c-0.285-0.309-0.784-0.271-1.02,0.076l-4.616,6.806c-0.829,1.112-0.709,2.806,0.292,3.776c1.303,1.265,3.288,2.972,5.692,4.34
							c4.535,2.578,8.451,8.074,13.092,6.746s4.86-1.664,5.384-3.129c0.525-1.468-2.158-4.362-5.852-7.731
							c-2.259-2.06-4.452-6.511-5.148-8.241C17.686,278.922,17.307,278.764,16.973,278.896z"/>
						<path d="M22.006,298.958c-2.765,0.001-5.298-2.042-7.761-4.03c-1.324-1.066-2.694-2.172-4.097-2.97
							c-2.472-1.405-4.504-3.169-5.773-4.399c-1.131-1.099-1.281-3.026-0.334-4.301l4.607-6.79c0.18-0.267,0.469-0.434,0.792-0.458
							c0.318-0.023,0.631,0.1,0.85,0.336l0.822,0.895c1.442,1.564,3.738,2.08,5.712,1.289c0.261-0.106,0.547-0.104,0.805,0.007
							c0.258,0.11,0.457,0.313,0.561,0.573c0.722,1.798,2.906,6.142,5.047,8.096c4.755,4.335,6.481,6.7,5.958,8.159
							c-0.604,1.69-1.038,2.057-5.649,3.379C23.024,298.891,22.512,298.958,22.006,298.958z M9.518,276.805
							c-0.007,0-0.013,0-0.019,0c-0.046,0.002-0.132,0.021-0.192,0.11l-4.617,6.804c-0.727,0.979-0.614,2.438,0.24,3.268
							c1.236,1.201,3.213,2.916,5.612,4.281c1.459,0.83,2.854,1.953,4.204,3.043c2.881,2.322,5.601,4.52,8.582,3.666
							c4.555-1.306,4.652-1.576,5.119-2.881c0.557-1.556-4.187-5.883-5.746-7.304c-2.423-2.21-4.658-6.914-5.25-8.388
							c-0.024-0.063-0.072-0.11-0.134-0.137c-0.063-0.026-0.132-0.027-0.196-0.002c-2.281,0.916-4.93,0.319-6.595-1.488
							l-0.822-0.894C9.641,276.816,9.566,276.805,9.518,276.805z"/>
					</g>
					<g>
						<path fill="#FFFFFF" d="M28.857,295.672c0,0-3.776,2.771-8.906-0.088c-3.417-1.906-16.017-12.521-16.017-12.521l-1.095,1.488
							c-0.556,0.756-0.635,2.191,0.073,2.813c3.198,2.801,12.582,10.183,17.525,11.646C28.039,301.26,28.857,295.672,28.857,295.672
							z"/>
						<path d="M23.722,299.943c-1.021,0-2.154-0.185-3.398-0.553c-5.369-1.591-15.307-9.656-17.675-11.729
							c-0.888-0.779-0.8-2.438-0.131-3.347l1.096-1.489c0.065-0.091,0.165-0.147,0.273-0.16c0.112-0.013,0.219,0.021,0.304,0.091
							c0.125,0.105,12.607,10.613,15.953,12.479c4.852,2.705,8.441,0.143,8.477,0.115c0.129-0.096,0.303-0.103,0.441-0.02
							c0.137,0.083,0.211,0.24,0.188,0.398c-0.012,0.086-0.331,2.123-2.237,3.34C26.105,299.65,25.004,299.943,23.722,299.943z
							 M4.003,283.639l-0.844,1.148c-0.443,0.602-0.515,1.813,0.015,2.275c3.47,3.039,12.663,10.168,17.376,11.564
							c2.568,0.762,4.596,0.688,6.024-0.221c0.86-0.547,1.34-1.307,1.601-1.895c-1.469,0.686-4.57,1.563-8.418-0.582
							C16.612,294.178,6.043,285.352,4.003,283.639z"/>
					</g>
				</g>
			</g>
			<g>
				<g>
					<polygon fill="#FFFFFF" points="47.397,270.829 44.186,288.229 51.398,291.827 55.488,272.895 					"/>
					<path d="M51.398,292.225c-0.061,0-0.122-0.014-0.178-0.041l-7.212-3.598c-0.159-0.08-0.246-0.254-0.214-0.429l3.211-17.4
						c0.02-0.108,0.084-0.204,0.177-0.264c0.092-0.062,0.207-0.078,0.313-0.052l8.091,2.067c0.208,0.054,0.336,0.261,0.291,0.47
						l-4.09,18.932c-0.026,0.121-0.106,0.222-0.217,0.275C51.516,292.212,51.457,292.225,51.398,292.225z M44.632,288.007
						l6.485,3.235l3.901-18.057l-7.307-1.867L44.632,288.007z"/>
				</g>
				<g>
					<g>
						<path fill="#FFFFFF" d="M43.103,287.029c-0.255,1.664-2.199,4.896-2.264,7.671c-0.041,1.739,1.241,3.227,2.958,3.468
							c4.849,0.688,17.386,1.361,26.781,0.62c0.644-0.052,1.785-0.509,2.121-2.118c1.127-5.402-8.227-6.845-18.453-10.898
							c-0.401-0.158-0.857-0.074-1.17,0.225l-1.12,1.064c-1.123,1.066-2.77,1.354-4.182,0.727l-3.352-1.485
							C43.851,286.047,43.197,286.408,43.103,287.029z"/>
						<path d="M61.235,299.511c-7.032,0-14.003-0.454-17.494-0.946c-1.926-0.272-3.345-1.938-3.3-3.873
							c0.042-1.776,0.822-3.73,1.449-5.301c0.391-0.979,0.728-1.824,0.819-2.422l0,0c0.064-0.42,0.314-0.779,0.686-0.98
							c0.369-0.202,0.802-0.221,1.187-0.051l3.353,1.485c1.269,0.563,2.738,0.308,3.746-0.651l1.121-1.064
							c0.422-0.398,1.045-0.521,1.592-0.305c2.387,0.945,4.682,1.734,6.901,2.496c7.112,2.441,12.73,4.373,11.794,8.854
							c-0.35,1.681-1.555,2.359-2.479,2.433C67.693,299.415,64.457,299.511,61.235,299.511z M43.496,287.089
							c-0.105,0.688-0.458,1.572-0.867,2.595c-0.635,1.592-1.354,3.395-1.392,5.026c-0.036,1.532,1.088,2.849,2.615,3.065
							c5.055,0.716,17.47,1.346,26.694,0.615c0.236-0.019,1.428-0.191,1.763-1.802c0.792-3.796-4.269-5.532-11.273-7.938
							c-2.229-0.767-4.533-1.559-6.937-2.51c-0.259-0.104-0.552-0.046-0.75,0.143l-1.121,1.064
							c-1.242,1.182-3.054,1.495-4.617,0.803l-3.352-1.485c-0.156-0.069-0.332-0.063-0.482,0.021
							C43.626,286.768,43.523,286.917,43.496,287.089z"/>
					</g>
					<g>
						<path fill="#FFFFFF" d="M40.631,293.973c0,0-0.009,0.282-0.013,0.418c-0.041,1.742,1.242,3.229,2.958,3.471
							c4.85,0.687,17.583,2.293,26.978,1.552c0.644-0.052,1.81-1.132,2.146-2.742c0.103-0.493,0.054-1.385,0.054-1.385l-0.667,0.024
							c-9.488,0.355-18.991,0.012-28.429-1.029L40.631,293.973z"/>
						<path d="M65.246,300c-8.332,0-17.602-1.162-21.726-1.746c-1.927-0.271-3.344-1.938-3.3-3.872
							c0.003-0.137,0.013-0.421,0.013-0.421c0.004-0.111,0.053-0.215,0.136-0.286c0.083-0.073,0.192-0.108,0.302-0.097l3.027,0.309
							c9.391,1.034,18.936,1.381,28.375,1.025l0.666-0.025c0.005,0,0.01,0,0.015,0c0.21,0,0.386,0.166,0.397,0.377
							c0.002,0.039,0.05,0.949-0.062,1.488c-0.357,1.713-1.606,2.986-2.503,3.057C68.896,299.943,67.094,300,65.246,300z
							 M41.016,294.413c-0.029,1.526,1.094,2.837,2.615,3.053c5.013,0.708,17.668,2.279,26.892,1.55
							c0.389-0.031,1.467-0.894,1.787-2.426c0.048-0.232,0.059-0.598,0.057-0.893l-0.265,0.011
							c-9.479,0.354-19.063,0.007-28.488-1.032L41.016,294.413z"/>
					</g>
				</g>
			</g>
			<g>
				<path fill="#1D4354" d="M37.748,170.587c0.207,0.96-3.049,7.589-2.518,14.101c0.833,10.205,1.489,15.504-3.986,25.646
					c-5.282,9.781-14.816,19.122-21.628,59.832c-0.341,2.04,1.222,3.903,3.291,3.931l5.231,0.062
					c1.286,0.017,2.467-0.699,3.051-1.847c3.44-6.76,14.062-26.752,18.217-34.252c4.881-8.806,18.788-30.844,19.597-41.404
					c0.764-9.956,0.064-24.19-0.019-25.789c-0.004-0.083-0.072-0.149-0.157-0.154L37.748,170.587z"/>
				<path fill="#1D4354" d="M67.132,168.217c0,0,12.384,25.771,4.966,56.807c-5.365,22.447-12.979,47.465-15.425,54.598
					c-0.479,1.396-1.795,2.329-3.271,2.322l-5.715-0.024c-2.063-0.009-3.655-1.815-3.4-3.864c1.47-11.851,5.998-50.217,5.667-59.492
					c-0.543-15.287-5.038-20.642-5.819-31.398c-0.852-11.721,2.406-18.729,2.406-18.729L67.132,168.217z"/>
				<path fill="#FFFFFF" d="M49.142,223.01c-0.012,0-0.024-0.001-0.037-0.002c-0.219-0.021-0.381-0.214-0.36-0.433
					c1.061-11.482-1.209-17.923-3.213-23.604c-1.455-4.127-2.829-8.023-2.628-13.171c0.009-0.22,0.204-0.393,0.413-0.382
					c0.22,0.008,0.391,0.193,0.382,0.413c-0.195,4.993,1.093,8.646,2.583,12.875c2.031,5.758,4.332,12.285,3.255,23.942
					C49.519,222.855,49.346,223.01,49.142,223.01z"/>
			</g>
		</g>
		<g>
			<g>
				<g>
					<path d="M129.084,104.443c2.215,1.822,1.061,3.503,0.29,4.138l-6.491,5.342c-2.955,2.273-3.213,3.203-4.306,5.191l-7.42,13.499
						c-1.45,2.637-3.091,5.164-4.911,7.561l-1.944,2.561c-0.589,0.776-1.647,1.022-2.519,0.586c-0.873-0.437-1.31-1.432-1.041-2.37
						l0.543-1.896c0.699-2.438,1.548-4.831,2.542-7.165l6.866-16.107l0.278-1.577c0.753-6.12,4.967-9.657,4.967-9.657
						C122.261,98.906,129.084,104.443,129.084,104.443z"/>
					<g>
						<path fill="#FFFFFF" d="M129.084,104.443c0,0-3.026-2.451-6.914-2.425c-1.368,0.143-2.724,0.667-3.875,1.839
							c-0.111,0.114-2.466,3.418-2.838,4.536c-0.729,2.19,1.03,3.187,2.896,2.627c5.319-1.596,9.761-4.717,11.375-5.942
							C129.554,104.868,129.344,104.657,129.084,104.443z"/>
						<path d="M117.351,111.57c-0.753,0-1.425-0.246-1.878-0.712c-0.603-0.621-0.743-1.542-0.394-2.592
							c0.395-1.186,2.758-4.511,2.933-4.689c1.106-1.127,2.492-1.785,4.118-1.956c0.023,0,0.047,0,0.069,0
							c3.989,0,7.009,2.409,7.136,2.512c0,0.001,0.001,0.001,0.002,0.001c0.267,0.22,0.495,0.444,0.697,0.688
							c0.07,0.083,0.102,0.191,0.089,0.299c-0.011,0.108-0.067,0.206-0.155,0.271c-1.671,1.27-6.14,4.398-11.5,6.007
							C118.086,111.515,117.709,111.57,117.351,111.57z M122.229,102.415c-0.019,0-0.037,0-0.057,0
							c-1.398,0.148-2.62,0.728-3.594,1.72c-0.221,0.264-2.412,3.38-2.744,4.383c-0.256,0.765-0.183,1.383,0.208,1.786
							c0.454,0.467,1.314,0.598,2.195,0.333c4.897-1.47,9.042-4.245,10.897-5.616c-0.094-0.091-0.194-0.181-0.302-0.271
							C128.77,104.702,125.874,102.415,122.229,102.415z"/>
					</g>
					
						<ellipse transform="matrix(0.7988 -0.6015 0.6015 0.7988 -39.7194 93.8821)" cx="120.511" cy="106.329" rx="3.059" ry="1.173"/>
					<path d="M102.687,143.933c-0.366,0-0.736-0.083-1.082-0.256c-1.043-0.521-1.567-1.714-1.246-2.834l0.543-1.896
						c0.701-2.446,1.563-4.872,2.56-7.21l6.848-16.066l0.27-1.531c0.759-6.185,4.926-9.745,5.104-9.893
						c6.49-5.794,13.581-0.168,13.65-0.111c0.001,0,0.002,0.001,0.003,0.001c0.95,0.782,1.432,1.631,1.432,2.523
						c0,1.198-0.875,2.01-1.143,2.23l-6.491,5.342c-2.542,1.955-3.031,2.874-3.842,4.395c-0.114,0.214-0.235,0.439-0.367,0.681
						l-7.421,13.499c-1.455,2.646-3.117,5.207-4.942,7.61l-1.944,2.561C104.148,143.595,103.425,143.933,102.687,143.933z
						 M122.261,102.396c-1.888,0-3.995,0.61-6.057,2.451c-0.05,0.043-4.115,3.526-4.837,9.409l-0.281,1.597
						c-0.005,0.03-0.014,0.059-0.025,0.087l-6.866,16.108c-0.984,2.309-1.834,4.704-2.527,7.118l-0.543,1.896
						c-0.215,0.752,0.137,1.553,0.837,1.903c0.699,0.35,1.55,0.152,2.023-0.472l1.944-2.561c1.802-2.373,3.444-4.9,4.88-7.512
						l7.421-13.499c0.13-0.238,0.25-0.46,0.362-0.672c0.832-1.561,1.382-2.591,4.049-4.643l6.481-5.333
						c0.412-0.338,0.852-0.941,0.852-1.615c0-0.643-0.383-1.285-1.14-1.908C128.647,104.602,125.85,102.396,122.261,102.396z"/>
				</g>
				<g>
					<path fill="#FFFFFF" d="M119.248,121.445c-0.783-1.246-1.857-0.609-1.857-0.609s-3.622,2.116-5.204,1.942
						c-2.737-0.302-2.747-3.249-2.682-4.343c0.032-0.543-0.434-0.999-0.974-0.929c-0.668,0.088-1.854,1.584-2.673,2.708
						c-1.599,2.19-0.863,5.432-1.825,7.057c-1.157,1.952-5.934,6.422-10.427,9.161c-5.462,3.329-9.151,0.339-13.098-2.887
						c-2.648-2.165-4.972-6.342-9.668-9.366c-3.276-2.11-14.192,5.812-11.135,8.926c3.438,3.501,17.306,19.772,26.456,17.682
						c7.308-1.67,18.755-14.658,21.756-17.71c1.858-1.406,4.167-1.276,5.7-1.9c1.703-0.693,3.182-1.002,3.562-5.396
						C117.249,124.979,120.29,123.104,119.248,121.445z"/>
					<path d="M84.469,151.369c-8.213,0.001-18.86-11.387-23.594-16.449c-0.593-0.634-1.084-1.159-1.454-1.536
						c-1.075-1.096-0.815-2.745,0.731-4.644c2.514-3.088,8.4-6.509,10.903-4.896c2.962,1.908,4.964,4.23,6.731,6.278
						c1.07,1.242,1.996,2.314,2.974,3.115c3.97,3.245,7.399,6.048,12.639,2.855c4.287-2.612,9.135-7.073,10.291-9.024
						c0.371-0.626,0.468-1.603,0.569-2.636c0.144-1.463,0.306-3.122,1.278-4.453c1.775-2.433,2.505-2.81,2.942-2.867
						c0.371-0.048,0.739,0.071,1.014,0.327c0.283,0.264,0.431,0.635,0.408,1.02c-0.099,1.662,0.226,3.691,2.329,3.923
						c1.199,0.134,3.984-1.32,4.959-1.89c0.485-0.287,1.613-0.504,2.395,0.74c0.852,1.356-0.441,2.758-1.296,3.687
						c-0.29,0.314-0.687,0.745-0.713,0.898c-0.376,4.367-1.894,4.968-3.5,5.604l-0.308,0.124c-0.584,0.238-1.253,0.369-1.962,0.507
						c-1.234,0.241-2.511,0.491-3.625,1.324c-0.372,0.38-0.872,0.909-1.475,1.547c-4.527,4.792-13.945,14.764-20.455,16.25
						C85.672,151.307,85.076,151.369,84.469,151.369z M69.425,124.216c-2.439,0-6.583,2.482-8.656,5.027
						c-0.727,0.894-1.797,2.548-0.78,3.583c0.373,0.38,0.869,0.91,1.467,1.55c4.991,5.337,16.669,17.837,24.616,16.022
						c6.274-1.433,15.93-11.656,20.054-16.021c0.619-0.655,1.129-1.195,1.507-1.579c0.013-0.014,0.027-0.026,0.043-0.039
						c1.266-0.958,2.706-1.239,3.976-1.487c0.669-0.131,1.301-0.255,1.815-0.463l0.314-0.126c1.49-0.59,2.666-1.057,3-4.936
						c0.036-0.407,0.407-0.81,0.92-1.367c0.949-1.03,1.696-1.946,1.207-2.723c-0.56-0.892-1.24-0.523-1.317-0.479
						c-0.384,0.224-3.78,2.178-5.451,1.996c-2.095-0.231-3.201-1.966-3.036-4.762c0.008-0.147-0.049-0.289-0.156-0.391
						c-0.06-0.055-0.184-0.144-0.368-0.12c-0.141,0.019-0.731,0.257-2.403,2.548c-0.843,1.155-0.988,2.632-1.128,4.061
						c-0.11,1.124-0.214,2.185-0.676,2.964c-1.228,2.071-6.109,6.584-10.561,9.298c-5.723,3.486-9.706,0.23-13.557-2.919
						c-1.033-0.844-2.024-1.994-3.073-3.211c-1.732-2.007-3.694-4.284-6.56-6.129C70.307,124.309,69.898,124.216,69.425,124.216z"/>
				</g>
			</g>
			<g>
				<path fill="#FFFFFF" d="M81.314,130.974c-4.384-3.241-8.258-8.867-10.941-11.459c-2.828-2.733-7.282-4.489-11.183-4.99
					c-8.432-1.081-19.065-0.016-24.396,3.502c-6.715,4.432-5.725,11.563-4.312,14.785c0.726,1.656,3.477,8.57,4.195,10.582
					c4.464,12.5,2.449,22.295,1.358,30.613c-0.15,1.148,0.597,2.173,1.701,2.523c5.827,1.854,12.748,3.104,31.514-1.462
					c1.165-0.282,1.826-1.514,1.436-2.646c-4.862-14.107-1.895-18.714-0.268-26.369l2.14,1.167c3.696,1.361,7.132-4.447,8.657-7.491
					C83.238,135.697,83.552,132.628,81.314,130.974z"/>
				<path d="M48.389,178.617c-4.726,0.001-7.867-0.784-10.771-1.708c-1.334-0.425-2.147-1.64-1.975-2.954
					c0.104-0.79,0.215-1.594,0.329-2.409c1.097-7.872,2.339-16.794-1.667-28.018c-0.726-2.03-3.473-8.932-4.185-10.556
					c-1.559-3.553-2.373-10.77,4.457-15.277c5.604-3.699,16.651-4.592,24.666-3.564c4.362,0.559,8.734,2.512,11.409,5.098
					c0.959,0.928,2.034,2.196,3.278,3.665c2.259,2.667,4.821,5.69,7.623,7.761c2.287,1.691,2.294,4.718,0.021,9.254
					c-1.746,3.486-5.259,9.121-9.151,7.686c-0.018-0.007-0.035-0.014-0.053-0.023l-1.673-0.914c-0.252,1.128-0.531,2.196-0.8,3.232
					c-1.513,5.812-2.819,10.831,1.169,22.404c0.224,0.649,0.164,1.367-0.166,1.97c-0.327,0.6-0.892,1.033-1.552,1.194
					C59.733,177.795,53.229,178.617,48.389,178.617z M52.677,114.526c-6.577,0-13.609,1.158-17.663,3.833
					c-6.388,4.216-5.625,10.968-4.167,14.293c0.716,1.633,3.477,8.568,4.206,10.608c4.073,11.406,2.815,20.434,1.707,28.396
					c-0.113,0.813-0.226,1.616-0.329,2.403c-0.121,0.926,0.465,1.785,1.427,2.092c5.769,1.834,12.503,3.104,31.299-1.469
					c0.449-0.107,0.819-0.393,1.042-0.801c0.222-0.406,0.263-0.892,0.112-1.331c-4.067-11.8-2.668-17.174-1.187-22.862
					c0.308-1.187,0.627-2.414,0.905-3.719c0.026-0.123,0.109-0.226,0.223-0.279c0.114-0.052,0.247-0.047,0.357,0.013l2.114,1.153
					c0.315,0.112,0.629,0.165,0.942,0.165c3.092,0,6.009-5.101,7.196-7.47c2.072-4.132,2.142-6.833,0.216-8.257
					c-2.876-2.126-5.469-5.186-7.757-7.886c-1.23-1.452-2.292-2.707-3.224-3.607c-2.558-2.472-6.756-4.342-10.957-4.881
					C57.132,114.663,54.931,114.526,52.677,114.526z"/>
			</g>
		</g>
		<g>
			<g>
				<path fill="#253238" d="M63.879,90.507c0.248-0.765,0.138-1.597-0.292-2.276c-1.263-1.998-4.387-5.824-9.602-5.433
					c-7.353,0.551-9.9,3.966-11.054,9.828c-0.811,4.116,0.848,10.212,3.789,11.749c4.243,2.218,7.85-0.571,7.85-0.571l8.904-12.048
					L63.879,90.507z"/>
				<path fill="#253238" d="M45.577,90.794l1.846-4.635c0,0-4.196-3.559-9.068-3.001c-4.961,0.567-10.595,5.328-9.895,13.972
					c0.364,4.491-3.417,6.735-7,10.084c-0.769,0.718-1.578,1.392-2.394,2.055c-5.889,4.794-4.871,9.968-4.871,9.968
					c0.287-1.043,0.996-1.946,1.841-2.699c-1.163,7.736,4.623,15.949,12.142,17.628c7.116,1.588,15.901-3.025,17.839-8.444
					c1.88-5.261,0.599-12.882-1.938-18.679C41.543,101.244,39.951,93.459,45.577,90.794z"/>
			</g>
			<g>
				<g>
					<path fill="#FFFFFF" d="M63.511,89.932c0,0,0.742,2.544,0.206,4.405c-0.4,1.387,0.648,3.233,1.348,3.993
						c0.196,0.213,0.135,0.554-0.122,0.689l-0.899,0.444c-0.332,0.174-0.55,0.507-0.576,0.882c-0.089,1.299-0.375,4.306-0.954,5.047
						c-0.949,1.215-4.927-0.131-5.782-0.39c-0.088-0.027,0.005,9.249,0.005,9.249c-0.028,1.669-0.448,2.812-1.448,3.677
						c-2.23,1.93-9.319,2.628-9.853-0.583c-0.073-0.444-0.491-0.743-0.223-1.104c1.019-1.376,1.974-3.023,2.309-5.344
						c0.433-3.007,0.045-6.381,0.045-6.381s1.822,0.044,3.698-1.786c1.623-1.584,2.599-3.739,2.2-4.439
						c-0.913-1.603-1.507-3.147-0.19-4.347c1.259-1.148,2.487-0.223,3.065,0.47c0.796,0.954,4.296,0.373,5.802-2.255
						C63.646,89.53,63.511,89.932,63.511,89.932z"/>
					<path d="M49.657,119.956c-0.947,0-1.845-0.122-2.574-0.385c-1.169-0.422-1.874-1.169-2.04-2.161
						c-0.017-0.102-0.072-0.21-0.131-0.325c-0.125-0.244-0.335-0.654-0.019-1.081c0.916-1.237,1.896-2.817,2.234-5.164
						c0.42-2.921,0.048-6.245,0.044-6.279c-0.014-0.114,0.024-0.229,0.102-0.313c0.077-0.085,0.17-0.134,0.304-0.129h0.001
						c0.058,0,1.711-0.018,3.408-1.673c1.629-1.59,2.368-3.545,2.132-3.958c-0.962-1.689-1.642-3.444-0.112-4.837
						c0.512-0.466,1.069-0.681,1.659-0.642c0.975,0.066,1.709,0.827,1.979,1.151c0.139,0.166,0.56,0.337,1.293,0.273
						c1.28-0.113,2.97-0.921,3.857-2.472c1.485-2.59,1.492-2.587,1.88-2.413c0.124,0.055,0.206,0.176,0.229,0.308
						c0.091,0.327,0.73,2.739,0.196,4.592c-0.336,1.166,0.552,2.846,1.258,3.614c0.178,0.192,0.253,0.451,0.208,0.71
						c-0.044,0.259-0.204,0.478-0.437,0.6L64.22,99.82c-0.202,0.107-0.339,0.315-0.355,0.553c-0.089,1.296-0.368,4.407-1.038,5.265
						c-0.898,1.15-3.482,0.579-5.727-0.105c-0.024,1.421,0.004,5.741,0.034,8.713c-0.031,1.835-0.52,3.06-1.586,3.982
						C54.308,119.302,51.85,119.956,49.657,119.956z M48.002,104.88c0.088,0.998,0.264,3.632-0.087,6.073
						c-0.365,2.537-1.465,4.285-2.382,5.524c-0.012,0.052,0.048,0.168,0.088,0.245c0.076,0.148,0.171,0.333,0.208,0.558
						c0.117,0.701,0.629,1.219,1.524,1.542c2.35,0.848,6.249,0.039,7.675-1.195c0.891-0.772,1.284-1.784,1.311-3.384
						c-0.095-9.373-0.066-9.395,0.152-9.56c0.101-0.076,0.234-0.099,0.355-0.063l0.207,0.064c3.853,1.202,4.879,0.806,5.147,0.462
						c0.354-0.454,0.704-2.394,0.871-4.83c0.036-0.516,0.33-0.966,0.789-1.207l0.907-0.449l0.298-0.332l-0.293,0.27
						c-0.794-0.863-1.887-2.813-1.438-4.373c0.312-1.082,0.155-2.442-0.008-3.313c-0.191,0.319-0.461,0.779-0.841,1.441
						c-1.101,1.923-3.101,2.748-4.478,2.869c-0.894,0.078-1.614-0.124-1.974-0.557c-0.206-0.245-0.754-0.821-1.423-0.867
						c-0.368-0.025-0.719,0.117-1.069,0.436c-1.057,0.963-0.681,2.189,0.268,3.855c0.584,1.025-0.727,3.417-2.268,4.922
						C50.109,104.413,48.698,104.782,48.002,104.88z"/>
				</g>
				<path d="M55.146,99.361c-1.198,0-2.212-0.891-2.837-2.529c-0.079-0.205,0.024-0.435,0.23-0.513
					c0.204-0.079,0.435,0.023,0.514,0.229c0.334,0.878,1.106,2.299,2.518,1.963c0.211-0.049,0.428,0.082,0.479,0.295
					c0.051,0.213-0.081,0.428-0.295,0.479C55.547,99.336,55.344,99.361,55.146,99.361z"/>
			</g>
		</g>
	</g>
</g>
<g>
	<g>
		<g>
			<polygon fill="none" points="576.198,299.525 523.14,299.525 523.14,202.33 573.313,193.971 			"/>
		</g>
		<g>
			<path fill="#B9CEEB" d="M576.198,300H523.14c-0.263,0-0.476-0.211-0.476-0.475v-97.194c0-0.233,0.168-0.431,0.396-0.47
				l50.173-8.359c0.135-0.021,0.272,0.016,0.38,0.104c0.106,0.086,0.17,0.215,0.174,0.354l2.887,105.553
				c0.003,0.129-0.045,0.254-0.135,0.346C576.449,299.95,576.326,300,576.198,300z M523.615,299.049h52.094l-2.858-104.519
				l-49.234,8.202L523.615,299.049L523.615,299.049z"/>
		</g>
	</g>
	<g>
		<g>
			<polygon fill="none" points="637.124,299.525 573.313,299.525 573.313,193.971 637.124,201.107 			"/>
		</g>
		<g>
			<path fill="#6EA2E0" d="M637.124,300h-63.813c-0.264,0-0.476-0.211-0.476-0.475V193.971c0-0.135,0.058-0.264,0.158-0.354
				c0.102-0.092,0.236-0.133,0.37-0.119l63.813,7.137c0.241,0.027,0.423,0.231,0.423,0.475v98.416
				C637.6,299.789,637.387,300,637.124,300z M573.787,299.049h62.861v-97.516l-62.861-7.029V299.049z"/>
		</g>
	</g>
	<g>
		<g>
			<polygon fill="#6EA2E0" points="555.828,196.885 540.184,199.49 540.184,221.469 555.828,219.918 			"/>
		</g>
		<g>
			<path fill="#B9CEEB" d="M540.184,221.945c-0.116,0-0.23-0.045-0.318-0.123c-0.101-0.092-0.156-0.219-0.156-0.354V199.49
				c0-0.232,0.168-0.432,0.397-0.471l15.645-2.605c0.137-0.021,0.278,0.016,0.386,0.105c0.106,0.09,0.168,0.224,0.168,0.363v23.033
				c0,0.244-0.186,0.449-0.429,0.473l-15.646,1.553C540.214,221.943,540.199,221.945,540.184,221.945z M540.658,199.895v21.049
				l14.692-1.455v-22.042L540.658,199.895z"/>
		</g>
	</g>
	<g>
		<g>
			<path fill="#FFFFFF" d="M548.006,216.195v-18.008V216.195z"/>
		</g>
		<g>
			<path fill="#B9CEEB" d="M548.006,216.672c-0.263,0-0.476-0.213-0.476-0.477v-18.008c0-0.265,0.213-0.478,0.476-0.478
				s0.477,0.213,0.477,0.478v18.008C548.481,216.459,548.269,216.672,548.006,216.672z"/>
		</g>
	</g>
</g>
<g>
	<g>
		<g>
			<polygon fill="#FFFFFF" points="491.673,299.525 461.061,299.525 461.061,242.311 484.586,235.332 			"/>
		</g>
		<g>
			<path fill="#6EA2E0" d="M491.673,300h-30.612c-0.263,0-0.476-0.211-0.476-0.475v-57.215c0-0.211,0.139-0.396,0.341-0.457
				l23.525-6.978c0.133-0.039,0.28-0.019,0.397,0.06c0.116,0.078,0.193,0.205,0.209,0.346l7.087,64.191
				c0.016,0.135-0.027,0.271-0.118,0.369C491.938,299.943,491.808,300,491.673,300z M461.536,299.049h29.604l-6.966-63.099
				l-22.64,6.714L461.536,299.049L461.536,299.049z"/>
		</g>
	</g>
	<g>
		<g>
			<polygon fill="#6EA2E0" points="548.778,299.525 484.586,299.525 484.586,235.332 548.778,242.113 			"/>
		</g>
		<g>
			<path fill="#6EA2E0" d="M548.778,300h-64.192c-0.264,0-0.476-0.211-0.476-0.475v-64.193c0-0.135,0.057-0.264,0.156-0.354
				c0.102-0.09,0.234-0.133,0.368-0.119l64.192,6.781c0.242,0.024,0.425,0.229,0.425,0.473v57.412
				C549.253,299.789,549.041,300,548.778,300z M485.063,299.049h63.24v-56.508l-63.24-6.68V299.049L485.063,299.049z"/>
		</g>
	</g>
	<g>
		<g>
			<rect x="491.673" y="280.459" fill="#FFFFFF" width="31.467" height="12.18"/>
		</g>
		<g>
			<path fill="#6EA2E0" d="M523.14,293.115h-31.467c-0.264,0-0.476-0.213-0.476-0.477v-12.181c0-0.265,0.212-0.478,0.476-0.478
				h31.467c0.264,0,0.477,0.213,0.477,0.478v12.181C523.615,292.902,523.402,293.115,523.14,293.115z M492.147,292.164h30.517
				v-11.23h-30.517V292.164z"/>
		</g>
	</g>
</g>
</svg>
