<?xml version="1.0" encoding="iso-8859-1"?>
<!-- Generator: Adobe Illustrator 16.0.0, SVG Export Plug-In . SVG Version: 6.00 Build 0)  -->
<!DOCTYPE svg PUBLIC "-//W3C//DTD SVG 1.1//EN" "http://www.w3.org/Graphics/SVG/1.1/DTD/svg11.dtd">
<svg version="1.1" id="Layer_1" xmlns="http://www.w3.org/2000/svg" xmlns:xlink="http://www.w3.org/1999/xlink" x="0px" y="0px"
	 width="640px" height="300px" viewBox="0 0 640 300" style="enable-background:new 0 0 640 300;" xml:space="preserve">
<g style="opacity:0.04;">
	<path style="fill:#000018;" d="M244.906,138.461c-1.714-1.197-3.898-1.197-5.615,0.002l-76.434,53.264
		c-1.088,0.76-2.47,0.76-3.558,0L43.746,111.289c-2.09-1.453-2.09-4.834,0-6.292l87.432-60.86c0.977-0.682,1.565-1.866,1.565-3.146
		V24.973c0-2.918-2.893-4.694-5.124-3.146L8.145,104.996c-2.094,1.458-2.094,4.839,0,6.292l140.977,98.138l9.875,6.767
		c1.078,0.736,2.437,0.736,3.517,0l43.388-29.732l0.033,0.063l34.428-23.968c1.088-0.755,2.472-0.755,3.558,0l34.492,24.01
		c2.092,1.458,2.092,4.835,0,6.288l-115.758,80.586c-0.974,0.68-1.567,1.866-1.567,3.145v16.018c0,2.92,2.896,4.696,5.124,3.144
		l147.805-102.892c2.09-1.453,2.09-4.83,0-6.288L244.906,138.461z"/>
	<path style="fill:#1CB24B;" d="M117.661,135.113l41.639-28.986c1.088-0.755,2.47-0.755,3.555,0l41.699,29.029
		c1.08,0.75,2.45,0.755,3.535,0.009l11.597-7.944c2.108-1.444,2.12-4.842,0.02-6.302l-47.598-33.137
		c-0.978-0.679-1.569-1.867-1.569-3.144V36.614c0-2.916,2.895-4.692,5.122-3.144l102.751,71.526c2.092,1.458,2.092,4.839,0,6.292
		l-8.047,5.601l0.1,0.18l-5.783,3.96c-2.109,1.446-2.118,4.842-0.02,6.304l11.378,7.914c1.085,0.757,2.467,0.757,3.552,0
		l34.424-23.96c2.09-1.453,2.09-4.834,0-6.292L162.854-0.225c-1.085-0.757-2.467-0.757-3.555,0l-6.092,4.241
		c-0.979,0.682-1.567,1.869-1.567,3.146v3.766V29.89v30.57h-0.023v24.178c0,1.277-0.589,2.465-1.565,3.144l-47.454,33.035
		c-2.094,1.456-2.09,4.836,0,6.29l11.509,8.006C115.191,135.868,116.573,135.868,117.661,135.113"/>
	<path style="fill:#1CB24B;" d="M117.599,244.269l-73.853-51.41c-2.092-1.458-2.092-4.835,0-6.293l13.42-9.341
		c2.09-1.453,2.09-4.834,0-6.292l-11.511-8.006c-1.087-0.755-2.468-0.755-3.552,0L8.145,186.565c-2.09,1.458-2.09,4.835,0,6.293
		l134.048,93.313v-2.127v-22.656v-31.262c0-1.244-0.56-2.402-1.49-3.091l-12.779-9.437c-2.223-1.638-5.2,0.129-5.2,3.092v20.434
		C122.723,244.045,119.826,245.821,117.599,244.269"/>
</g>
<g>
	<path style="fill:#D0EBE6;" d="M641.134,300.253H1.665c-0.919,0-1.665-0.745-1.665-1.665c0-0.921,0.746-1.665,1.665-1.665h639.469
		c0.921,0,1.665,0.744,1.665,1.665C642.799,299.508,642.055,300.253,641.134,300.253z"/>
</g>
<g>
	<path style="fill:#FFFFFF;" d="M508.334,90.785c-27.712-26.598-60.172-33.459-68.754-34.861
		c5.777-15.963,14.71-39.698,16.934-43.214c0.716-0.099,2.178-0.252,4.336-0.252c6.306,0,19.797,1.342,39.314,10.337
		c28.184,12.988,35.729,27.599,37.211,31.171L508.334,90.785z"/>
	<path style="fill:#A3C5E8;" d="M460.852,14.208c6.168,0,19.383,1.325,38.61,10.183c25.498,11.748,33.738,24.884,35.909,29.328
		l-27.221,34.51c-16.38-15.272-34.035-23.708-46.246-28.148c-8.659-3.149-15.749-4.763-19.998-5.544
		c6.385-17.574,13.334-35.665,15.668-40.187C458.333,14.278,459.429,14.208,460.852,14.208 M460.852,10.706
		c-3.43,0-5.191,0.371-5.191,0.371c-2.004,0.684-18.421,46.279-18.421,46.279s38.97,4.07,71.26,36.009l30.821-39.078
		c0,0-5.143-17.741-38.455-33.089C481.344,12.202,467.739,10.706,460.852,10.706"/>
	<path style="fill:none;stroke:#2A1E17;stroke-linecap:round;stroke-linejoin:round;stroke-miterlimit:10;" d="M442.96,60.897
		c0,0,38.317,3.961,61.928,26.156"/>
	<polygon style="fill:#A3C5E8;" points="476.049,58.982 490.343,30.521 505.034,60.202 	"/>
	<polygon style="fill:none;stroke:#2A1E17;stroke-linecap:round;stroke-linejoin:round;stroke-miterlimit:10;" points="
		478.828,58.575 493.123,30.115 507.813,59.796 	"/>
	<path style="fill:none;stroke:#2A1E17;stroke-linecap:round;stroke-linejoin:round;stroke-miterlimit:10;" d="M465.409,8.976
		c0,0,42.962,3.964,69.668,36.463"/>
	<path style="fill:#2A1E17;" d="M487.361,135.104c-2.361-1.776-3.909-2.967-3.909-2.967c0.654-0.894,10.993-12.172,16.978-21.261
		C500.43,110.876,488.326,135.832,487.361,135.104"/>
	<path style="fill:none;stroke:#2A1E17;stroke-linecap:round;stroke-linejoin:round;stroke-miterlimit:10;" d="M340.867,52.895
		c1.151,1.966,1.662,1.179,4.989,0.917c3.327-0.261,8.06,2.227,9.724,6.418c1.66,4.193,1.15,4.848,0.255,5.372
		s-7.292,1.31-7.548,2.62"/>
	<polygon style="fill:#F58660;" points="427.051,266.113 424.072,260.953 413.498,278.999 416.272,281.188 	"/>
	<path style="fill:#F58660;" d="M356.842,221.358c0,0-5.479-9.118-3.129-13.59l17.479,1.914L356.842,221.358z"/>
	<path style="fill:#010101;" d="M356.842,221.358l1.047,2.465l-3.229,12.896c-0.408,1.624,0.118,3.342,1.358,4.439l15.985-24.198
		c1.519-2.299,1.174-5.389-0.813-7.277l-3.57-3.396L356.842,221.358z"/>
	<path style="fill:#2B1E33;" d="M348.287,68.222c5.006-0.121,11.35-0.446,10.08-4.344c-1.27-3.897-6.025-13.641-16.811-10.717
		c0,0-3.805,3.247,0.952,9.094C347.268,68.101,348.287,68.222,348.287,68.222"/>
	<path style="fill:#7B92CA;" d="M373.623,209.9c0,0-8.545-25.835-1.314-37.179c5.967-9.361,25.465,5.866,28.135,7.917l13.951-25.798
		c0,0-3.221-4.622-11.128-9.149c-7.906-4.525-40.567-18.081-55.916,6.716c-5.673,9.166-5.759,48.494,5.118,63.568L373.623,209.9z"/>
	<path style="fill:none;stroke:#2A1E17;stroke-linecap:round;stroke-linejoin:round;stroke-miterlimit:10;" d="M373.623,209.9
		c0,0-8.545-25.835-1.314-37.179c5.967-9.361,25.465,5.866,28.135,7.917"/>
	<path style="fill:#7B92CA;" d="M414.395,154.841c-6.346,6.839-25.154,40.154-29.385,56.077
		c-5.656,21.296-3.53,38.961,27.566,73.548l15.031-22.419c0,0-10.568-16.434-8.595-31.926c2.854-22.409,18.429-44.14,26.308-57.922
		L414.395,154.841z"/>
	<polygon style="fill:#2A1E17;" points="416.781,157.737 441.786,177.83 449.258,166.199 	"/>
	<path style="fill:#F58A68;" d="M560.395,136.609c3.901,0.856,6.873,2.376,8.912,4.563c2.043,2.185,1.113,3.326,0.371,3.992
		c-0.741,0.665-3.62-0.095-6.127-2.378C561.044,140.507,560.395,136.609,560.395,136.609"/>
	<path style="fill:#F58660;" d="M483.452,132.137c0.654-0.894,10.993-12.172,16.978-21.261c0,0,18.094,20.759,20.056,21.428
		c0.73,0.248,5.166,0.19,10.673,0.131c9.31-0.099,21.684-0.193,24.421,1.208c4.36,2.231,6.977,3.349,8.065,6.474
		c1.091,3.125,1.52,5.165-1.089,5.356c-3.052,0.226-5.013-3.793-5.013-3.793s-2.494,1.542-8.938,4.019
		c0,0-23.185,9.216-38.682,4.758C505.691,149.239,483.452,132.137,483.452,132.137"/>
	<path style="fill:#F58660;" d="M342.914,49.228c-1.99,0.775-3.199,1.702-2.047,3.667c1.151,1.966,1.662,1.179,4.988,0.917
		c3.328-0.261,8.061,2.227,9.725,6.418c1.662,4.193,1.15,4.848,0.255,5.372s-7.292,1.31-7.548,2.62
		c-0.256,1.31,2.591,5.178,8.477,4.915l1.407-0.262c0,0,12.376,12.378,14.168,14.21c1.79,1.836,14.953,10.967,22.203,12.822
		c5.512,1.41,16.677-0.409,23.386-1.75c3.261-0.65,5.467-1.188,5.467-1.188s-5.034-9.287-6.059-23.567
		c0,0-12.045,1.981-20.049,3.779c0,0-18.682-10.663-27.764-15.378c0,0-7.932-9.956-11.641-11.266
		C354.172,49.228,345.601,48.179,342.914,49.228"/>
	<path style="fill:#2A1E17;" d="M417.928,98.158c3.26-0.65,5.467-1.188,5.467-1.188s-6.091-7.862-7.115-22.141
		c0,0-2.751,3.039-1.896,11.126C415.46,96.119,417.928,98.158,417.928,98.158"/>
	<path style="fill:#FFF7CA;" d="M415.986,73.23c0,0,0.168,17.45,4.734,24.728l1.637-0.671c0,0-21.515,25.774-28.473,42.613
		c-1.138,2.755,44.669,32.718,51.436,32.298c0,0,22.319-34.882,29.952-45.221l8.204,6.511c0,0,16.09-16.686,16.953-22.612
		c0,0-15.541-19.365-28.255-25.036c-12.716-5.669-24.077-15.384-37.735-15.121C422.616,70.949,415.986,73.23,415.986,73.23"/>
	<polygon style="fill:#2A1E17;" points="483.477,133.489 475.272,126.978 476.579,123.331 	"/>
	<path style="fill:#F58660;" d="M495.955,64.49c-1.437,4.575-5.584,17.808-10.21,19.443c-4.63,1.633-9.446-0.418-9.446-0.418
		l-4.929,2.583c-0.549,1.69-4.441,3.145-9.463,3.343c-3.718,0.146-5.983-4.745-4.882-8.285c0.507-1.626,2.393-9.64,2.393-9.64
		s3.989-15.03,7.658-18.135c3.669-3.104,7.117-6.178,16.912-2.124C498.986,57.465,495.955,64.49,495.955,64.49"/>
	<path style="fill:#2B1E33;" d="M466.223,65.142c-0.657,2.809-3.513,8.427-5.376,7.416c-1.866-1.012-2.524-3.595-1.208-8.54
		c1.317-4.943,2.414-16.18,6.145-18.203c3.732-2.022,5.377,0.337,5.377,0.337s-1.645-8.202,3.184-9.326c0,0,1.645-0.787,0.987,4.833
		c0,0,1.864-5.17,7.9-4.496c6.034,0.675,8.12,9.327,8.12,9.327s0.438-2.359,3.181-2.359c2.743,0,6.912,4.157,5.927,8.764
		c0,0,7.021-2.25,10.753,3.483c3.73,5.73,3.291,12.022-5.706,14.494c-9.408,2.585-9.328-8.652-10.755-10.113
		c-1.427-1.459-2.961-3.146-8.229-1.123c-5.267,2.021-10.752-3.933-10.752-3.933s-0.877,7.191-1.756,7.866
		c-0.88,0.675-2.633,1.573-2.194-1.798c0.44-3.37,0.988-3.033,0.658-3.932s-1.815-3.734-4.938-1.236
		C464.028,59.412,466.223,65.142,466.223,65.142"/>
	<path style="fill:none;stroke:#2B1E33;stroke-linecap:round;stroke-linejoin:round;stroke-miterlimit:10;" d="M467.717,66.4
		c-2.092-1.8-3.545-4.972-1.703-8.145c1.842-3.171,4.855-3.601,5.776-2.401c0.922,1.199,1.277,3.224,0.413,5.622"/>
	<path style="fill:#010101;" d="M416.272,281.188l1.048,2.462l-3.229,12.896c-0.405,1.626,0.121,3.342,1.359,4.438l15.985-24.196
		c1.52-2.299,1.176-5.388-0.812-7.276l-3.571-3.397L416.272,281.188z"/>
	<path style="fill:none;stroke:#2B1E33;stroke-linecap:round;stroke-linejoin:round;stroke-miterlimit:10;" d="M471.16,46.152
		c0,0-1.224-4.077-4.893-5.149"/>
	
		<line style="fill:none;stroke:#2A1E17;stroke-linecap:round;stroke-linejoin:round;stroke-miterlimit:10;" x1="393.385" y1="138.67" x2="437.67" y2="75.323"/>
	<path style="fill:none;stroke:#2A1E17;stroke-linecap:round;stroke-linejoin:round;stroke-miterlimit:10;" d="M455.924,79.754
		c-1.595,2.125-2.321,11.266,5.02,11.859c7.34,0.593,12.032-2.709,12.032-2.709"/>
	<path style="fill:none;stroke:#2A1E17;stroke-linecap:round;stroke-linejoin:round;stroke-miterlimit:10;" d="M357.883,50.537
		c0,0,5.061,6.861,5.856,9.305"/>
	<path style="fill:none;stroke:#2A1E17;stroke-linecap:round;stroke-linejoin:round;stroke-miterlimit:10;" d="M547.424,142.518
		c0,0,3.383,2.851,10.119-0.837c2.441-1.339,0.702-4.505-2.388-3.713c-3.093,0.793-6.766-0.396-6.766-0.396"/>
	<path style="fill:none;stroke:#2A1E17;stroke-linecap:round;stroke-linejoin:round;stroke-miterlimit:10;" d="M561.556,137.004
		c0,0,3.244,3.875,3.154,6.179"/>
	<path style="fill:none;stroke:#2A1E17;stroke-linecap:round;stroke-linejoin:round;stroke-miterlimit:10;" d="M513.801,136.583
		c0,0,2.935-4.004,6.685-4.278"/>
	<path style="fill:none;stroke:#2A1E17;stroke-linecap:round;stroke-linejoin:round;stroke-miterlimit:10;" d="M390.084,83.651
		c0,0,1.713-5.463,7.203-6.468"/>
	<path style="fill:none;stroke:#2A1E17;stroke-linecap:round;stroke-linejoin:round;stroke-miterlimit:10;" d="M404.955,166.565
		l-6.547,12.825c0,0-21.587,37.406-14.261,61.575"/>
	<path style="fill:none;stroke:#2A1E17;stroke-linecap:round;stroke-linejoin:round;stroke-miterlimit:10;" d="M424.081,209.482
		l21.239-37.283c0,0,27.84-41.346,30.688-47.179l9.823-18.611"/>
	<path style="fill:none;stroke:#2A1E17;stroke-linecap:round;stroke-linejoin:round;stroke-miterlimit:10;" d="M396.349,142.641
		c0,0,37.771,28.2,48.972,29.559"/>
	<path style="fill:none;stroke:#2A1E17;stroke-linecap:round;stroke-linejoin:round;stroke-miterlimit:10;" d="M415.986,73.23
		c0,0-0.033,17.697,4.625,24.952"/>
	<path style="fill:none;stroke:#2A1E17;stroke-linecap:round;stroke-linejoin:round;stroke-miterlimit:10;" d="M499.219,108.072
		c-1.186,7.294-16.955,22.613-16.955,22.613"/>
	<path style="fill:#2A1E17;" d="M383.813,196.616c0,1.269-1.005,2.297-2.244,2.297c-1.238,0-2.242-1.028-2.242-2.297
		c0-1.268,1.004-2.296,2.242-2.296C382.808,194.32,383.813,195.349,383.813,196.616"/>
	<polygon style="fill:none;stroke:#2A1E17;stroke-linecap:round;stroke-linejoin:round;stroke-miterlimit:10;" points="
		591.998,245.967 590.757,237.185 598.076,242.166 594.246,243.02 	"/>
	<path style="fill:none;stroke:#2A1E17;stroke-linecap:round;stroke-linejoin:round;stroke-miterlimit:10;" d="M349.328,96.004
		c-13.867-12.527-36.779,18.713,47.063,118.146c48.366,57.36,86.367,62.504,91.517,42.548c9.234-35.802-24.119-44.853-11.708-30.828
		c18.044,20.391,69.376,24.697,107.626,5.668c37.742-18.773,14.542-47.93,12.2-49.632"/>
	<path style="fill:#2A1E17;" d="M586.672,231.36c0,1.271-1.002,2.297-2.241,2.297c-1.241,0-2.243-1.026-2.243-2.297
		c0-1.269,1.002-2.296,2.243-2.296C585.67,229.064,586.672,230.092,586.672,231.36"/>
	
		<line style="fill:none;stroke:#2A1E17;stroke-linecap:round;stroke-linejoin:round;stroke-miterlimit:10;" x1="551.792" y1="250.105" x2="618.273" y2="211.737"/>
	<path style="fill:#2A1E17;" d="M352.953,97.861c0,1.269-1.005,2.298-2.243,2.298c-1.239,0-2.244-1.03-2.244-2.298
		c0-1.268,1.005-2.297,2.244-2.297C351.948,95.564,352.953,96.594,352.953,97.861"/>
	<path style="fill:#F26D68;" d="M412.709,50.445c0,2.722-2.153,4.929-4.811,4.929s-4.812-2.207-4.812-4.929
		c0-2.72,2.154-4.925,4.812-4.925S412.709,47.725,412.709,50.445"/>
	<path style="fill:#A3C5E8;" d="M320.585,12.864c-1.169,0-2.118,0.97-2.118,2.167c0,1.196,0.949,2.166,2.118,2.166
		c1.167,0,2.114-0.969,2.114-2.166C322.699,13.834,321.752,12.864,320.585,12.864"/>
	<path style="fill:#F9D8B1;" d="M606.131,279.719c0,1.196-0.949,2.168-2.118,2.168c-1.167,0-2.115-0.972-2.115-2.168
		s0.948-2.166,2.115-2.166C605.182,277.553,606.131,278.522,606.131,279.719"/>
	<path style="fill:#2B1E33;" d="M566.22,181.897L543.48,170.97c-1.835-0.882-1.803-3.563,0.052-4.401l42.305-19.061
		c0.6-0.269,1.282-0.273,1.882-0.008l29.058,12.772L566.22,181.897z"/>
	<path style="fill:#C6CBCB;" d="M564.812,145.984c0.058,9.636,1.408,35.914,1.408,35.914l50.557-21.627l-1.132-36.564
		c-0.072-2.245-2.348-3.694-4.343-2.762l-43.531,20.313C565.961,142.101,564.8,143.948,564.812,145.984"/>
	<path style="fill:none;stroke:#2A1E17;stroke-linecap:round;stroke-linejoin:round;stroke-miterlimit:10;" d="M566.22,181.897
		l50.557-21.626l-1.132-36.565c0,0-0.337-3.993-4.343-2.762"/>
	
		<line style="fill:none;stroke:#2A1E17;stroke-linecap:round;stroke-linejoin:round;stroke-miterlimit:10;" x1="590.69" y1="155.615" x2="594.104" y2="147.354"/>
	
		<line style="fill:none;stroke:#2A1E17;stroke-linecap:round;stroke-linejoin:round;stroke-miterlimit:10;" x1="594.104" y1="155.615" x2="597.518" y2="147.354"/>
	<path style="fill:#F26D68;" d="M331.818,243.57c0,1.197-0.946,2.166-2.115,2.166s-2.115-0.969-2.115-2.166
		c0-1.195,0.946-2.164,2.115-2.164S331.818,242.375,331.818,243.57"/>
	<path style="fill:#F26D68;" d="M510.99,254.302c0,1.662-1.317,3.009-2.939,3.009c-1.625,0-2.94-1.347-2.94-3.009
		s1.315-3.009,2.94-3.009C509.673,251.293,510.99,252.64,510.99,254.302"/>
	<path style="fill:#FFF7DC;" d="M351.625,275.687c3.441,1.689,13.455,5.954,26.708,5.864c0.728-0.005,1.288,0.651,1.196,1.388
		l-1.846,15c-0.066,0.534-0.458,0.961-0.977,1.06c-3.742,0.721-18.832,2.84-30.119-6.961c-0.354-0.305-0.494-0.799-0.375-1.255
		l3.73-14.299C350.139,275.736,350.943,275.352,351.625,275.687"/>
	<path style="fill:none;stroke:#2A1E17;stroke-linecap:round;stroke-linejoin:round;stroke-miterlimit:10;" d="M352.951,280.095
		c0,0,6.521,9.382,8.846,10.726s14.879-6.318,14.879-6.318"/>
	
		<line style="fill:none;stroke:#2A1E17;stroke-linecap:round;stroke-linejoin:round;stroke-miterlimit:10;" x1="367.943" y1="289.512" x2="374.794" y2="296.723"/>
	
		<line style="fill:none;stroke:#2A1E17;stroke-linecap:round;stroke-linejoin:round;stroke-miterlimit:10;" x1="358.428" y1="288.122" x2="350.416" y2="290.354"/>
	<rect x="553.718" y="98.256" style="fill:#FFE0C0;" width="7.654" height="7.836"/>
	<polygon style="fill:#A3C5E8;" points="554.755,203.96 557.031,207.996 559.305,212.029 554.755,212.029 550.207,212.029 
		552.482,207.996 	"/>
	<path style="fill:none;stroke:#2A1E17;stroke-linecap:round;stroke-linejoin:round;stroke-miterlimit:10;" d="M370.828,25.234
		l0.593-18.315c-0.063-1.709,0.618-2.254,1.646-2.487c4.858-1.101,19.628-4.472,35.692,0.39c2.076,0.629,2.01,1.754,1.977,2.768
		l-0.575,17.46c-0.04,1.282-1.349,2.21-2.811,1.992c-4.689-0.704-11.069-0.921-17.547-0.865c-6.693,0.059-12.657,0.568-16.831,1.391
		C371.379,27.88,370.783,26.666,370.828,25.234z"/>
	<path style="fill:none;stroke:#2A1E17;stroke-linecap:round;stroke-linejoin:round;stroke-miterlimit:10;" d="M376.234,22.556
		l9.35-11.207l10.35,10.458C392.365,20.618,376.234,22.556,376.234,22.556z"/>
	<polyline style="fill:none;stroke:#2A1E17;stroke-linecap:round;stroke-linejoin:round;stroke-miterlimit:10;" points="
		391.314,16.537 398.874,10.343 405.244,14.998 405.481,22.276 395.934,21.808 	"/>
	<path style="fill:none;stroke:#2A1E17;stroke-linecap:round;stroke-linejoin:round;stroke-miterlimit:10;" d="M380.303,10.231
		c0.1,0.883-0.641,1.645-1.65,1.702c-1.01,0.057-1.909-0.613-2.008-1.497c-0.098-0.882,0.641-1.644,1.65-1.702
		C379.305,8.679,380.205,9.349,380.303,10.231z"/>
	<path style="fill:none;stroke:#2A1E17;stroke-linecap:round;stroke-linejoin:round;stroke-miterlimit:10;" d="M551.625,263.183
		l6.272,11.86c0.66,1.062,0.428,1.666-0.142,2.205c-2.688,2.551-10.846,10.314-22.815,13.34c-1.546,0.391-1.913-0.35-2.258-1.005
		l-5.978-11.311c-0.438-0.83,0.058-1.918,1.065-2.335c3.233-1.338,7.364-3.628,11.458-6.13c4.231-2.584,7.835-5.178,10.188-7.29
		C550.312,261.712,551.134,262.257,551.625,263.183z"/>
	<path style="fill:none;stroke:#2A1E17;stroke-linecap:round;stroke-linejoin:round;stroke-miterlimit:10;" d="M549.163,266.941
		l-1.871,10.679l-10.371-2.706C539.621,274.315,549.163,266.941,549.163,266.941z"/>
	<polyline style="fill:none;stroke:#2A1E17;stroke-linecap:round;stroke-linejoin:round;stroke-miterlimit:10;" points="
		541.768,276.507 539.217,283.317 533.481,282.785 530.686,278.254 536.921,274.914 	"/>
	<path style="fill:none;stroke:#2A1E17;stroke-linecap:round;stroke-linejoin:round;stroke-miterlimit:10;" d="M551.052,276.318
		c-0.381-0.521-0.19-1.287,0.434-1.707c0.618-0.42,1.434-0.338,1.815,0.185c0.385,0.522,0.191,1.287-0.43,1.711
		C552.248,276.926,551.436,276.843,551.052,276.318z"/>
	<path style="fill:#FFFFFF;" d="M521.092,60.721l25.483,19.973c0.559,0.438,1.359,0.32,1.776-0.259l3.848-5.339
		c0.402-0.558,0.303-1.34-0.226-1.771L526.85,52.739c-0.562-0.46-1.383-0.345-1.805,0.251l-4.206,5.952
		C520.438,59.509,520.551,60.298,521.092,60.721"/>
	<path style="fill:none;stroke:#2A1E17;stroke-linecap:round;stroke-linejoin:round;stroke-miterlimit:10;" d="M521.092,60.721
		l25.483,19.973c0.559,0.438,1.359,0.32,1.776-0.259l3.848-5.339c0.402-0.558,0.303-1.34-0.226-1.771L526.85,52.739
		c-0.562-0.46-1.383-0.345-1.805,0.251l-4.206,5.952C520.438,59.509,520.551,60.298,521.092,60.721z"/>
	<polygon style="fill:#F26D68;" points="522.978,59.83 529.158,64.27 532.804,59.814 526.624,54.535 	"/>
	<polygon style="fill:#F9D8B1;" points="531.486,66.002 537.673,71.029 540.988,66.85 534.762,61.675 	"/>
	<polygon style="fill:#A3C5E8;" points="539.755,72.96 545.935,77.4 548.879,73.527 543.023,68.512 	"/>
	<path style="fill:#FFFFFF;" d="M571.937,32.8l5.808,49.968c0.125,1.096,1.107,1.872,2.175,1.723l9.834-1.377
		c1.024-0.144,1.757-1.091,1.657-2.147l-4.769-50.218c-0.105-1.123-1.105-1.926-2.195-1.762l-10.873,1.628
		C572.538,30.768,571.813,31.738,571.937,32.8"/>
	<path style="fill:none;stroke:#2A1E17;stroke-linecap:round;stroke-linejoin:round;stroke-miterlimit:10;" d="M571.937,32.8
		l5.808,49.968c0.125,1.096,1.107,1.872,2.175,1.723l9.834-1.377c1.024-0.144,1.757-1.091,1.657-2.147l-4.769-50.218
		c-0.105-1.123-1.105-1.926-2.195-1.762l-10.873,1.628C572.538,30.768,571.813,31.738,571.937,32.8z"/>
	<polygon style="fill:#F26D68;" points="574.908,33.968 576.746,45.655 585.42,44.994 584.477,32.41 	"/>
	<polygon style="fill:#91BA83;" points="577.375,50.119 578.596,62.442 586.617,61.707 585.511,49.179 	"/>
	<polygon style="fill:#F9D8B1;" points="578.748,66.844 580.589,78.531 587.883,77.704 587.006,65.769 	"/>
	<path style="fill:#FFFFFF;" d="M559.263,43.438l16.079,48.401c0.276,0.83,1.165,1.268,1.971,0.971l10.071-3.713
		c0.774-0.285,1.192-1.147,0.944-1.951l-15.1-48.879c-0.264-0.855-1.176-1.31-1.996-0.999l-11.052,4.191
		C559.4,41.756,558.994,42.633,559.263,43.438"/>
	<path style="fill:none;stroke:#2A1E17;stroke-linecap:round;stroke-linejoin:round;stroke-miterlimit:10;" d="M559.263,43.438
		l16.079,48.401c0.276,0.83,1.165,1.268,1.971,0.971l10.071-3.713c0.774-0.285,1.192-1.147,0.944-1.951l-15.1-48.879
		c-0.264-0.855-1.176-1.31-1.996-0.999l-11.052,4.191C559.4,41.756,558.994,42.633,559.263,43.438z"/>
	<polygon style="fill:#A3C5E8;" points="562.526,44.32 566.701,55.36 575.047,52.868 571.57,40.76 	"/>
	<polygon style="fill:#F58660;" points="568.222,59.593 571.917,71.387 579.614,68.959 575.99,56.942 	"/>
	<polygon style="fill:#F9D8B1;" points="572.96,75.661 577.134,86.701 584.101,84.337 580.822,72.849 	"/>
	<path style="fill:#7B92CA;" d="M438.073,125.424h-81.202c-2.59,0-4.689-2.15-4.689-4.801v-11.248c0-2.651,2.1-4.803,4.689-4.803
		h81.202c2.591,0,4.69,2.151,4.69,4.803v11.248C442.764,123.274,440.664,125.424,438.073,125.424"/>
	<path style="fill:#FFFFFF;" d="M407.65,113.887h-44.269c-0.856,0-1.548-0.711-1.548-1.588c0-0.875,0.691-1.585,1.548-1.585h44.269
		c0.855,0,1.549,0.711,1.549,1.585C409.199,113.175,408.506,113.887,407.65,113.887"/>
	
		<line style="fill:none;stroke:#2A1E17;stroke-linecap:round;stroke-linejoin:round;stroke-miterlimit:10;" x1="362.275" y1="117.996" x2="437.53" y2="117.996"/>
	<path style="fill:#91BA83;" d="M325.055,66.788l-1.28-1.438l-4.243,3.967l1.282,1.437c0.541,0.606,1.458,0.649,2.05,0.095
		l2.1-1.963C325.554,68.333,325.596,67.393,325.055,66.788"/>
	<path style="fill:none;stroke:#2A1E17;stroke-linecap:round;stroke-linejoin:round;stroke-miterlimit:10;" d="M317.659,57.488
		l6.039,6.77c0.313,0.35,0.287,0.894-0.054,1.213l-4.172,3.903c-0.343,0.32-0.872,0.295-1.185-0.055l-6.038-6.77
		c-0.313-0.349-0.289-0.893,0.053-1.212l4.173-3.902C316.815,57.114,317.346,57.138,317.659,57.488z"/>
	<rect x="298.352" y="93.312" style="fill:#F26D68;" width="7.587" height="7.093"/>
	<polyline style="fill:none;stroke:#2A1E17;stroke-linecap:round;stroke-linejoin:round;stroke-miterlimit:10;" points="
		298.352,88.747 298.352,93.312 293.813,93.312 	"/>
	<rect x="548.298" y="13.206" style="fill:#F9D8B1;" width="7.589" height="7.094"/>
	<polyline style="fill:none;stroke:#2A1E17;stroke-linecap:round;stroke-linejoin:round;stroke-miterlimit:10;" points="
		548.298,8.64 548.298,13.204 543.76,13.204 	"/>
	<path style="fill:none;stroke:#2A1E17;stroke-linecap:round;stroke-linejoin:round;stroke-miterlimit:10;" d="M339.355,56.596
		c-94.53-31.97-159.707,48.365,21.484,150.053c14.268,8.007,35.373,9.595,35.373,9.595"/>
</g>
<g>
	<g>
		<g>
			<path style="fill:#7CC46A;" d="M37.254,287.432c-0.771-2.522-2.539-4.883-5.049-5.69c-2.511-0.81-5.696,0.417-6.477,2.934
				c-2.311-1.928-5.85-0.397-7.705,1.972c-3.002,3.829-0.683,10.103-0.182,10.511c0.541,0.438,2.008,0.363,2.008,0.363l22.46-0.126
				c0,0,4.119-0.302,6.021-1.06c3.827-1.524,6.43-8.11,3.967-11.412c-1.679-2.251-4.99-2.729-7.667-1.874
				C41.956,283.903,39.361,285.576,37.254,287.432"/>
		</g>
		<g>
			<path style="fill:#51AA50;" d="M19.528,298.27c-0.568,0-1.584-0.077-2.155-0.54c-0.88-0.715-3.118-7.477,0.066-11.541
				c1.341-1.71,3.35-2.896,5.245-3.098c0.989-0.112,1.912,0.062,2.716,0.48c0.482-0.866,1.246-1.595,2.216-2.098
				c1.478-0.769,3.277-0.937,4.817-0.439c2.231,0.718,4.104,2.606,5.157,5.144c2.187-1.774,4.575-3.12,6.813-3.836
				c2.683-0.857,6.481-0.553,8.487,2.137c1.154,1.551,1.422,3.84,0.731,6.285c-0.823,2.915-2.793,5.373-5.017,6.26
				c-1.985,0.793-6.071,1.098-6.244,1.11l-22.508,0.127C19.78,298.263,19.668,298.27,19.528,298.27z M23.261,284.543
				c-0.138,0-0.277,0.005-0.421,0.022c-1.485,0.156-3.149,1.153-4.232,2.539c-2.636,3.363-0.667,8.972-0.236,9.535
				c0.099,0.073,0.841,0.174,1.438,0.138l22.495-0.125c-0.01,0,3.979-0.3,5.753-1.006c1.783-0.71,3.447-2.836,4.14-5.285
				c0.563-1.997,0.384-3.818-0.493-4.994c-1.569-2.108-4.652-2.313-6.846-1.612c-2.336,0.747-4.861,2.249-7.113,4.231
				c-0.188,0.168-0.45,0.228-0.691,0.16c-0.243-0.07-0.435-0.258-0.509-0.498c-0.792-2.592-2.5-4.536-4.567-5.203
				c-1.165-0.374-2.542-0.245-3.676,0.344c-0.932,0.483-1.594,1.231-1.864,2.105c-0.074,0.237-0.262,0.422-0.499,0.492
				c-0.235,0.069-0.494,0.017-0.685-0.143C24.695,284.777,24.023,284.543,23.261,284.543z"/>
		</g>
	</g>
	<g>
		<g>
			<g>
				<path style="fill:#51AA50;" d="M13.635,286.582c-0.643,1.248-0.919,2.608-0.767,4.009c0.077,0.703,1.189,0.712,1.113,0
					c-0.133-1.21,0.057-2.364,0.612-3.447C14.922,286.507,13.961,285.942,13.635,286.582L13.635,286.582z"/>
			</g>
		</g>
	</g>
	<g>
		<g>
			<g>
				<path style="fill:#51AA50;" d="M10.389,287.474c-0.35,1.256-0.375,2.514-0.096,3.787c0.153,0.701,1.226,0.404,1.073-0.293
					c-0.238-1.082-0.2-2.134,0.095-3.198C11.653,287.077,10.581,286.783,10.389,287.474L10.389,287.474z"/>
			</g>
		</g>
	</g>
	<g>
		<g>
			<g>
				<path style="fill:#51AA50;" d="M16.628,285.216c0.716,0,0.718-1.11,0-1.11C15.913,284.105,15.912,285.216,16.628,285.216
					L16.628,285.216z"/>
			</g>
		</g>
	</g>
	<g>
		<g>
			<g>
				<path style="fill:#51AA50;" d="M19.78,290.593c0,0.33,0,0.659,0,0.989c0,0.715,1.113,0.715,1.113,0c0-0.33,0-0.659,0-0.989
					C20.894,289.875,19.78,289.875,19.78,290.593L19.78,290.593z"/>
			</g>
		</g>
	</g>
	<g>
		<g>
			<g>
				<path style="fill:#51AA50;" d="M38.566,292.322c0,0.165,0,0.33,0,0.494c0,0.715,1.111,0.718,1.111,0c0-0.164,0-0.329,0-0.494
					C39.678,291.606,38.566,291.604,38.566,292.322L38.566,292.322z"/>
			</g>
		</g>
	</g>
	<g>
		<g>
			<g>
				<path style="fill:#51AA50;" d="M36.504,290.984c0.082,0.084,0.164,0.165,0.247,0.249c0.508,0.505,1.295-0.28,0.787-0.789
					c-0.081-0.081-0.164-0.164-0.246-0.245C36.784,289.691,35.997,290.479,36.504,290.984L36.504,290.984z"/>
			</g>
		</g>
	</g>
</g>
<g>
	<g>
		<rect x="46.33" y="169.717" style="fill:#405C92;" width="2.967" height="127.555"/>
	</g>
	<g>
		<path style="fill:#B9CEEB;" d="M48.141,185.151h-0.652c-4.841,0-8.8-3.961-8.8-8.798v-11.787c0-4.84,3.959-8.799,8.8-8.799h0.652
			c4.839,0,8.8,3.959,8.8,8.799v11.787C56.94,181.19,52.979,185.151,48.141,185.151z"/>
	</g>
	<g>
		<g>
			<path style="fill:#405C92;" d="M59.758,176.616c1.044,0.167,2.087,0.335,3.132,0.503c0.699,0.114,1.001-0.959,0.295-1.072
				c-1.044-0.169-2.087-0.336-3.131-0.503C59.353,175.432,59.053,176.504,59.758,176.616L59.758,176.616z"/>
		</g>
	</g>
	<g>
		<g>
			<path style="fill:#405C92;" d="M59.65,169.82c0.819-0.146,1.633-0.165,2.458-0.087c0.713,0.066,0.708-1.044,0-1.111
				c-0.928-0.088-1.835-0.038-2.754,0.126C58.65,168.871,58.949,169.943,59.65,169.82L59.65,169.82z"/>
		</g>
	</g>
	<g>
		<g>
			<path style="fill:#405C92;" d="M59.312,163.628c0.8-0.318,1.599-0.635,2.399-0.952c0.658-0.261,0.371-1.337-0.295-1.072
				c-0.801,0.317-1.601,0.633-2.401,0.951C58.358,162.815,58.645,163.893,59.312,163.628L59.312,163.628z"/>
		</g>
	</g>
	<g>
		<g>
			<path style="fill:#405C92;" d="M32.038,177.651c0.82-0.114,1.616-0.304,2.4-0.571c0.673-0.229,0.384-1.305-0.296-1.073
				c-0.785,0.268-1.58,0.458-2.401,0.572C31.036,176.677,31.337,177.75,32.038,177.651L32.038,177.651z"/>
		</g>
	</g>
	<g>
		<g>
			<path style="fill:#405C92;" d="M30.594,169.745c1.031,0.027,2.025,0.182,3.019,0.464c0.688,0.191,0.983-0.881,0.295-1.075
				c-1.083-0.305-2.188-0.47-3.313-0.501C29.879,168.614,29.879,169.725,30.594,169.745L30.594,169.745z"/>
		</g>
	</g>
	<g>
		<g>
			<path style="fill:#405C92;" d="M31.566,160.594c0.8,0.258,1.601,0.512,2.401,0.767c0.684,0.219,0.976-0.854,0.295-1.072
				c-0.801-0.256-1.602-0.509-2.402-0.767C31.177,159.304,30.884,160.378,31.566,160.594L31.566,160.594z"/>
		</g>
	</g>
	<g>
		<polygon style="fill:#415C92;" points="40.892,299 42.869,281.95 52.511,281.95 54.734,298.755 		"/>
	</g>
</g>
</svg>
