<svg xmlns="http://www.w3.org/2000/svg" version="1.1" xmlns:xlink="http://www.w3.org/1999/xlink" xmlns:svgjs="http://svgjs.com/svgjs" width="512" height="512" x="0" y="0" viewBox="0 0 498.816 498.816" style="enable-background:new 0 0 512 512" xml:space="preserve" class=""><g><path fill="#ffffff" d="M498.121 116.301C494.567-7.715 421.757 2.954 323.774 9.01c-72.223 7.251-144.654-5.597-217.109-.034-60.586 3.283-85.657 34.559-92.036 57.111-11.778 4.688-8.987 24.967-9.455 35.624-.775 13.105-1.306 51.762-2.183 65.546-2.68 89.797-7.918 181.297 8.238 270.218 10.1 34.865 47.226 50.397 80.526 53.385 93.738 5.03 190.962.15 284.714-2.59 43.042-.224 115.092-1.799 105.18-63.705-3.327-14.17-25.174-8.377-21.119 5.518 5.378 16.546-9.851 29.581-24.877 34.454-91.244 11.747-187.665 7.948-279.793 8.173-40.814-1.927-98.519 6.088-121.427-35.767-17.497-87.703-8.07-179.294-3.903-268.312 1.384-13.68 2.826-52.312 3.953-65.755.436-8.783 3.417-25.587-3.093-33.476 5.971-18.135 21.85-30.605 40.634-35.832 62.848-16.946 128.97-2.245 193.36-1.108 45.601 4.451 181.658-22.858 194.208 33.564 16.478 58.185 7.505 122.84 6.873 182.834 1.825 15.7-7.993 83.292 10.12 84.622 14.941-.451 6.973-34.421 11.004-45.457 5.815-56.962 13.611-114.234 10.532-171.722z" data-original="#ffffff" class=""></path><path fill="#ffffff" d="M395.427 212.984c-11.228-38.918-35.412-75.224-71.463-94.973-18.599-10.501-39.591-16.337-60.79-18.369-.052-.007-.102-.006-.154-.011-35.731-5.322-73.731-.547-105.409 17.856-78.866 43.952-79.936 156.512-28.111 222.042 33.464 46.936 95.791 65.432 150.581 50.492 15.643-4.053 31.134-9.04 45.94-16.385 13.414-1.656 31.842-19.493 39.727-25.997 35.189-34.306 44.254-88.858 29.679-134.655zm-78.086 146.109c-.378.31-.723.652-1.039 1.017-20.357 5.23-60.356 25.085-98.782 14.477C85.119 343.418 88.848 135.576 230.315 120.39c8.651-3.726 22.809-.554 32.105-3.893 85.539 5.438 133.749 103.47 102.45 179.203-9.465 25.371-26.289 46.234-47.529 63.393z" data-original="#ffffff" class=""></path><path fill="#ffffff" d="M306.374 246.01c-13.872-3.198-12.589 33.971-38.566 43.314-65.743 31.907-97.833-57.383-39.949-90.009 8.762-4.785 17.963-6.969 28.129-7.597 35.04-23.349-53.037-32.716-75.254 12.923-40.234 57.036 24.243 134.674 87.467 104.926 18.325-5.995 59.309-47.125 38.173-63.557z" data-original="#ffffff" class=""></path><path fill="#ffffff" d="M422.328 97.242c-1.038-11.718-10.394-23.321-22.968-22.685-9.626-.606-19.017 5.468-22.015 14.763-5.884 15.986 7.471 37.169 25.474 33.727 12.637-1.34 21.428-13.434 19.509-25.805z" data-original="#ffffff" class=""></path></g></svg>