<svg xmlns="http://www.w3.org/2000/svg" version="1.1" xmlns:xlink="http://www.w3.org/1999/xlink" xmlns:svgjs="http://svgjs.com/svgjs" width="512" height="512" x="0" y="0" viewBox="0 0 226.826 226.826" style="enable-background:new 0 0 512 512" xml:space="preserve" class=""><g><path d="M191.762 185.452c15.813 56.697-96.94 43.589-122.608 27.822-22.184-13.659-30.938-36.439-33.23-61.51-1.971-21.038-1.283-42.489-1.65-63.619-.321-18.609-1.971-37.997 1.146-56.514C38.216 15.176 47.566-3.616 67.504.601c22.413 4.721 26.447 29.93 23.513 49.089 24.017-.871 49.135-1.1 71.915 4.033 14.209 3.163 26.126 12.421 26.355 28.005.55 40.151-65.452 32.863-96.344 26.584.046 17.28-1.329 35.155 7.471 48.447 9.488 4.767 21.909 5.592 30.847 5.913 21.404.642 52.801-4.858 60.501 22.78z" style="" fill="#ffffff" data-original="#ffffff" class=""></path></g></svg>