<?xml version="1.0" encoding="utf-8"?>
<!-- Generator: Adobe Illustrator 16.0.0, SVG Export Plug-In . SVG Version: 6.00 Build 0)  -->
<!DOCTYPE svg PUBLIC "-//W3C//DTD SVG 1.1//EN" "http://www.w3.org/Graphics/SVG/1.1/DTD/svg11.dtd">
<svg version="1.1" id="Layer_1" xmlns="http://www.w3.org/2000/svg" xmlns:xlink="http://www.w3.org/1999/xlink" x="0px" y="0px"
	 width="750px" height="750px" viewBox="0 0 750 750" enable-background="new 0 0 750 750" xml:space="preserve">
<g>
	<g>
		<g>
			<path fill="#253238" d="M458.544,246.915c-4.712-1.954-8.104-4.712-13.93-4.37c-13.465,0.79-22.472,17.114-25.126,21.64
				c-14.45,24.636-59.447,72.636-105.361,90.072c-46.177,17.54-100.352,6.848-139.023-18.132
				c-15.222-9.835-77.056-49.775-69.036-110.465c5.454-41.265,41.33-77.974,77.934-82.362c40.595-4.866,50.226,33.839,96.296,32.997
				c51.989-0.949,73.764-50.859,109.167-38.311c22.479,7.967,23.125,30.491,48.708,34.538c12.546,1.985,31.155-1.066,46.027-10.556
				c10.729-6.846,15.761-14.649,23.533-13.237c7.975,1.449,12.313,11.416,14.707,16.914c2.635,6.05,16.695,38.35-3.677,63.559
				C503.111,248.572,475.17,253.809,458.544,246.915z"/>
		</g>
		<g>
			<path fill="none" d="M265.367,364.313c-31.197,0-63.778-9.254-91.093-26.9c-64.362-41.578-73.441-83.831-69.724-111.956
				c5.493-41.56,41.054-79.1,79.271-83.684c20.923-2.509,33.7,6.147,47.235,15.31c13.137,8.892,26.75,18.091,49.217,17.677
				c25.113-0.458,43.203-12.651,59.164-23.41c17.075-11.509,31.828-21.447,50.543-14.813c10.659,3.777,16.556,10.672,22.255,17.339
				c6.606,7.725,12.847,15.02,26.181,17.13c11.475,1.818,29.828-0.675,44.962-10.334c3.44-2.194,6.321-4.522,8.861-6.573
				c5.502-4.447,9.849-7.951,15.771-6.882c8.778,1.596,13.37,12.141,15.837,17.807c6.378,14.646,14.349,42.574-3.887,65.141
				c-16.406,20.295-44.96,25.229-62.001,18.164c-0.001,0-0.001,0-0.001,0c-1.236-0.514-2.37-1.072-3.47-1.612
				c-3.128-1.542-5.82-2.879-9.781-2.644c-12.146,0.713-20.746,15.479-23.569,20.331l-0.325,0.556
				c-13.268,22.62-58.021,72.457-106.138,90.729C299.412,361.488,282.599,364.313,265.367,364.313z M190.846,144.411
				c-2.127,0-4.341,0.131-6.661,0.409c-36.289,4.351-71.366,41.463-76.596,81.039c-3.601,27.247,5.334,68.271,68.346,108.978
				c41.615,26.882,95.645,33.941,137.647,17.987c47.405-18.003,91.504-67.12,104.582-89.416l0.32-0.546
				c3.03-5.204,12.254-21.04,26.041-21.849c4.757-0.278,8.094,1.364,11.317,2.953c1.054,0.519,2.145,1.055,3.289,1.531
				c16.093,6.672,43.417,1.331,58.44-17.26c17.218-21.307,9.56-47.979,3.463-61.982c-2.24-5.146-6.408-14.715-13.576-16.019
				c-4.544-0.82-8.211,2.143-13.295,6.249c-2.604,2.103-5.555,4.487-9.138,6.771c-15.812,10.094-35.05,12.687-47.092,10.778
				c-14.451-2.285-21.354-10.359-28.031-18.165c-5.439-6.362-11.063-12.938-20.951-16.442c-17.263-6.124-31.414,3.419-47.801,14.465
				c-16.314,10.997-34.804,23.458-60.824,23.935c-23.421,0.404-37.458-9.043-50.992-18.206
				C217.818,151.828,206.862,144.411,190.846,144.411z"/>
		</g>
	</g>
	<g>
		<g>
			<path d="M568.082,193.065l51.354,52.424c3.764,3.841,9.293,4.525,12.352,1.528l5.036-4.935c3.06-2.997,2.49-8.54-1.27-12.38
				l-51.356-52.425L568.082,193.065z"/>
		</g>
		<g>
			<ellipse transform="matrix(0.8976 -0.4409 0.4409 0.8976 9.2747 316.8524)" cx="686.512" cy="138.467" rx="14.579" ry="23.851"/>
		</g>
		<g>
			<path d="M552.307,191.836l10.229,20.822c1.573,3.207,6.945,3.795,11.997,1.314L558.6,181.538
				C553.549,184.02,550.732,188.63,552.307,191.836z"/>
		</g>
		<g>
			<g>
				<path fill="#FFFFFF" d="M669.923,123.12c-5.08,17.372-14.354,33.543-27.444,46.885c-19.947,20.332-46.655,31.958-74.396,33.35
					l5.743,11.69l122.368-17.982l8.099-3.978L669.923,123.12z"/>
			</g>
		</g>
		<g>
			<g>
				<polygon fill="#FFFFFF" points="655.015,92.772 646.92,96.75 557.893,182.611 573.825,215.045 696.193,197.063 704.292,193.085 
									"/>
			</g>
			<g>
				<path d="M573.823,216.578c-0.578,0-1.115-0.328-1.375-0.858l-15.934-32.433c-0.294-0.597-0.167-1.316,0.314-1.779l89.024-85.862
					c0.116-0.111,0.245-0.202,0.389-0.272l8.098-3.978c0.364-0.178,0.787-0.206,1.171-0.074c0.384,0.131,0.702,0.411,0.882,0.776
					l49.274,100.313c0.372,0.759,0.061,1.679-0.699,2.052l-8.099,3.977c-0.144,0.07-0.297,0.119-0.452,0.141l-122.37,17.981
					C573.972,216.572,573.896,216.578,573.823,216.578z M559.762,182.939l14.945,30.425l121.025-17.784l6.507-3.196l-47.924-97.558
					l-6.506,3.194L559.762,182.939z"/>
			</g>
		</g>
		<g>
			<g>
				<path fill="#FFFFFF" d="M708.174,196.841l-6.759,3.321c-2.921,1.435-6.427-0.025-7.483-3.101
					c-11.839-34.434-27.937-67.29-48.414-98.523c-1.78-2.715-0.789-6.375,2.126-7.808l6.752-3.317
					c2.422-1.189,5.35-0.41,6.856,1.826c21.448,31.832,38.018,65.522,49.673,101.081
					C711.761,192.875,710.584,195.657,708.174,196.841z"/>
			</g>
			<g>
				<path d="M699.039,202.247c-0.896,0-1.796-0.173-2.639-0.522c-1.844-0.761-3.271-2.278-3.919-4.165
					c-11.796-34.313-28.03-67.346-48.247-98.182c-1.09-1.665-1.415-3.722-0.891-5.639c0.521-1.912,1.844-3.51,3.624-4.384
					l6.755-3.319c3.093-1.52,6.875-0.511,8.8,2.345c21.455,31.84,38.232,65.978,49.857,101.462c1.069,3.261-0.449,6.86-3.532,8.374
					l-6.758,3.321C701.131,202.009,700.086,202.247,699.039,202.247z M656.767,88.396c-0.573,0-1.151,0.126-1.693,0.393
					l-6.754,3.319c-1.006,0.494-1.723,1.361-2.017,2.44c-0.295,1.071-0.111,2.219,0.501,3.15
					c20.354,31.05,36.698,64.312,48.576,98.865c0.365,1.054,1.161,1.901,2.189,2.326c1.037,0.427,2.162,0.392,3.168-0.104
					l6.759-3.32c1.718-0.844,2.566-2.85,1.971-4.667c-11.54-35.215-28.19-69.097-49.487-100.704
					C659.243,89.003,658.021,88.396,656.767,88.396z"/>
			</g>
		</g>
	</g>
	<g>
		<g>
			<path fill="#FFFFFF" d="M651.801,232.957c-7.517-16.363-32.129-19.875-32.129-19.875l-15.513,20.525
				c5.364,4.872,11.696-0.608,11.696-0.608l1.63,6.012c7.471,0.829,10.506-12.689,10.506-12.689s9.174,15.718,14.574,18.045
				c1.468,0.632,2.821,0.075,4.017-1.063c26.608,10.594,40.032,33.729,35.238,50.652c-4.018,14.186-20.479,22.736-33.413,24.564
				c-27.384,3.868-58.264-19.661-58.264-19.661l-53.42,70.597c0,0,121.075,69.616,191.794-8.58
				C778.076,306.082,711.505,247.772,651.801,232.957z"/>
		</g>
		<g>
			<path d="M640.341,399.502c-10.997,0-22.521-1.162-34.532-3.507c-38.909-7.588-69.544-25.033-69.851-25.209
				c-0.381-0.218-0.651-0.592-0.738-1.023c-0.087-0.432,0.015-0.878,0.282-1.231l53.419-70.596c0.245-0.326,0.61-0.539,1.016-0.593
				c0.403-0.062,0.812,0.052,1.137,0.297c0.304,0.231,30.69,23.085,57.117,19.363c13.204-1.865,28.489-10.524,32.155-23.462
				c4.257-15.026-7.347-37.68-33.484-48.468c-1.961,1.453-3.719,1.217-4.903,0.703c-4.363-1.88-10.446-10.871-13.49-15.719
				c-1.559,4.332-5.022,11.144-11.15,10.479c-0.626-0.071-1.146-0.514-1.312-1.122l-1.06-3.913
				c-3.039,1.741-7.784,2.903-11.817-0.759c-0.586-0.533-0.671-1.427-0.191-2.06l15.513-20.525c0.335-0.446,0.889-0.676,1.438-0.594
				c1.025,0.147,24.879,3.729,32.987,20.083c37.709,9.567,81.252,37.567,92.039,72.923c6.04,19.794,0.764,39.621-15.26,57.338
				C707.164,386.776,676.687,399.5,640.341,399.502z M539.015,368.969c6.616,3.562,33.927,17.502,67.46,24.032
				c35.268,6.865,84.872,6.688,120.905-33.152c15.479-17.114,20.392-35.412,14.603-54.385c-10.523-34.485-53.52-61.83-90.551-71.019
				c-0.454-0.113-0.831-0.425-1.025-0.849c-6.295-13.702-25.702-18.034-30.073-18.847l-14.021,18.552
				c4.03,2.371,8.343-1.292,8.543-1.463c0.397-0.348,0.944-0.462,1.45-0.307c0.503,0.155,0.894,0.556,1.032,1.065l1.321,4.88
				c5.261-0.688,7.812-11.378,7.836-11.492c0.139-0.615,0.639-1.083,1.262-1.179c0.626-0.094,1.241,0.197,1.56,0.742
				c2.482,4.251,9.813,15.667,13.858,17.41c0.32,0.139,1.065,0.462,2.349-0.763c0.433-0.416,1.069-0.538,1.626-0.317
				c28.697,11.428,40.916,35.666,36.149,52.496c-4.214,14.862-20.929,23.722-34.678,25.663
				c-24.915,3.517-52.027-14.644-58.167-19.046L539.015,368.969z"/>
		</g>
	</g>
	<g>
		<g>
			<path fill="#FFFFFF" d="M367.811,325.578L340.97,220.202c-113.554-23.685-213.776,38.138-234.902,52.358
				c-7.046-5.251-26.357-18.918-38.488-20.481c0,0,0.887,7.539,6.641,9.442c0,0-14.5-2.334-26.289,0.005
				c0,0,3.429,7.795,9.988,7.723l-13.366,5.36c0,0,2.655,7.863,12.397,6.087c9.742-1.776,17.269-5.772,17.269-5.772
				s11.752,11.393,19.484,13.404c0,0-6.199,18.73-0.443,23.258c0,0,10.877-13.303,14.427-27.396
				C302.835,268.463,367.811,325.578,367.811,325.578z"/>
		</g>
		<g>
			<path d="M367.811,327.112c-0.363,0-0.724-0.129-1.012-0.379c-0.161-0.144-16.632-14.299-56.606-26.367
				c-36.791-11.108-101.544-22.655-201.3-14.732c-3.838,13.842-14.001,26.384-14.444,26.925c-0.529,0.646-1.478,0.749-2.134,0.235
				c-5.604-4.408-1.983-18.595-0.528-23.469c-6.746-2.519-15.221-10.106-17.841-12.549c-2.389,1.15-8.804,3.986-16.718,5.429
				c-8.735,1.597-13.062-3.953-14.126-7.104c-0.261-0.772,0.127-1.612,0.882-1.914l9.083-3.644c-4.258-2.325-6.421-7.132-6.539-7.4
				c-0.188-0.425-0.171-0.914,0.044-1.326c0.214-0.413,0.604-0.706,1.061-0.795c7.448-1.479,15.831-1.154,21.218-0.678
				c-2.293-3.106-2.766-6.855-2.794-7.088c-0.055-0.469,0.109-0.937,0.444-1.268c0.336-0.334,0.802-0.482,1.275-0.432
				c11.929,1.537,30.171,14.105,38.338,20.128c21.378-14.222,122.089-75.575,235.168-51.983c0.575,0.119,1.029,0.554,1.173,1.122
				l26.841,105.375c0.167,0.652-0.111,1.334-0.684,1.686C368.364,327.037,368.087,327.112,367.811,327.112z M172.397,279.948
				c65.178,0,110.425,8.918,138.978,17.571c30.337,9.191,47.086,19.381,53.861,24.165L339.72,221.51
				c-113.172-23.144-213.74,39.498-232.796,52.323c-0.539,0.363-1.25,0.347-1.772-0.043c-5.484-4.088-23.465-16.984-35.552-19.786
				c0.654,2.073,2.095,5.066,5.104,6.06c0.758,0.25,1.197,1.043,1.009,1.82c-0.189,0.775-0.938,1.28-1.735,1.149
				c-0.133-0.022-12.698-1.994-23.65-0.366c1.319,2.031,3.95,5.032,7.578,5.048c0.004,0,0.01,0,0.016,0
				c0.73,0,1.362,0.517,1.504,1.233c0.144,0.726-0.249,1.449-0.934,1.723l-11.828,4.744c1.157,1.842,4.024,4.867,10.015,3.773
				c9.373-1.711,16.752-5.581,16.825-5.62c0.586-0.31,1.309-0.208,1.785,0.254c0.116,0.112,11.552,11.136,18.804,13.021
				c0.41,0.106,0.757,0.378,0.961,0.75c0.203,0.374,0.241,0.813,0.109,1.216c-2.012,6.087-4.021,16.171-1.935,20.315
				c2.855-3.817,10.228-14.401,12.975-25.309c0.16-0.638,0.709-1.1,1.364-1.154C131.063,280.769,152.647,279.948,172.397,279.948z"
				/>
		</g>
	</g>
	<g>
		<path fill="#F6E8D4" d="M334.69,215.503l28.708,117.429l-56.625,171.345l233.633,11.685l-0.329-134.532l65.265-87.473
			c0,0-78.784-16.061-127.224-39.393C425.548,229.242,404.675,221.589,334.69,215.503z"/>
	</g>
	<g>
		<g>
			<g>
				<path fill="#FFFFFF" d="M549.341,218.762l-7.648-16.411c1.72-1.968,3.392-6.861-1.38-8.876s-17.408-17.849-17.408-17.849
					c-14.283-11.851-14.419,8.286-23.058,11.429c-5.978,2.174-8.69,6.5-4.992,14.174c3.7,7.674-1.419,4.378-6.35,2.847
					c-4.932-1.531-7.714,0.781-3.979,7.696c1.938,3.588,5.512,6.078,8.509,7.652L457.081,246
					c6.19,20.327,44.145,19.077,44.145,19.077l21.403-30.199c10.139-0.723,24.316-8.823,26.439-12.101
					C549.848,221.575,549.945,220.06,549.341,218.762z"/>
			</g>
			<g>
				<path d="M499.707,266.63c-7.447,0-38.3-1.162-44.093-20.183c-0.189-0.621,0.032-1.295,0.556-1.679l34.064-25.183
					c-3.245-2.033-5.612-4.409-7.059-7.087c-2.179-4.03-2.504-7.02-0.969-8.887c0.76-0.922,2.645-2.274,6.753-1
					c0.917,0.284,1.844,0.629,2.719,0.955c0.871,0.324,2.076,0.773,2.83,0.942c-0.115-0.466-0.389-1.272-1.035-2.614
					c-1.942-4.032-2.346-7.512-1.194-10.342c1.072-2.631,3.44-4.628,7.044-5.939c2.594-0.945,4.467-4.047,6.278-7.049
					c2.2-3.642,4.474-7.408,8.4-8.074c2.858-0.485,6.091,0.81,9.882,3.954c0.08,0.068,0.155,0.143,0.221,0.223
					c4.981,6.244,13.567,16.027,16.803,17.395c2.665,1.123,3.594,2.97,3.905,4.323c0.502,2.187-0.244,4.514-1.34,6.154l7.257,15.573
					c0.836,1.79,0.696,3.845-0.374,5.497c-2.308,3.561-16.29,11.661-26.887,12.734l-20.99,29.62
					c-0.278,0.392-0.724,0.63-1.203,0.646C501.111,266.615,500.563,266.63,499.707,266.63z M458.894,246.568
					c6.199,16.465,36.366,17,41.531,16.988l20.953-29.565c0.266-0.374,0.685-0.611,1.142-0.643
					c9.828-0.701,23.435-8.584,25.262-11.406c0.493-0.76,0.556-1.707,0.17-2.534l-7.649-16.412c-0.257-0.551-0.164-1.201,0.237-1.66
					c0.869-0.993,1.615-2.827,1.284-4.264c-0.221-0.966-0.91-1.681-2.108-2.188c-4.879-2.058-16.188-16.029-17.909-18.18
					c-2.965-2.436-5.42-3.508-7.291-3.191c-2.541,0.43-4.36,3.444-6.286,6.633c-2.087,3.459-4.245,7.033-7.857,8.346
					c-2.754,1.002-4.52,2.42-5.251,4.214c-0.811,1.993-0.435,4.635,1.116,7.854c1.35,2.799,1.997,4.937,0.773,6.281
					c-1.349,1.483-3.579,0.65-6.399-0.404c-0.826-0.307-1.696-0.631-2.56-0.898c-2.031-0.633-3.141-0.386-3.475,0.019
					c-0.461,0.563-0.4,2.336,1.3,5.481c1.798,3.332,5.272,5.66,7.871,7.025c0.467,0.246,0.775,0.713,0.814,1.24
					c0.04,0.526-0.192,1.038-0.617,1.35L458.894,246.568z"/>
			</g>
		</g>
		<g>
			<path d="M522.296,236.415c-11.678,0-15.079-9.194-15.111-9.288c-0.283-0.797,0.134-1.675,0.93-1.958
				c0.8-0.278,1.674,0.131,1.956,0.927c0.12,0.324,2.792,7.251,12.224,7.251c0.112,0,0.231,0,0.336-0.003
				c0.836,0,1.519,0.67,1.532,1.51c0.016,0.845-0.661,1.542-1.509,1.557C522.533,236.414,522.414,236.415,522.296,236.415z"/>
		</g>
	</g>
</g>
<g>
	<g>
		<g>
			<polygon fill="#1D4354" points="234.3,747.403 50.242,747.403 50.242,410.238 224.286,381.24 			"/>
		</g>
		<g>
			<path fill="#B9CEEB" d="M234.298,749.054H50.241c-0.912,0-1.649-0.738-1.649-1.65V410.239c0-0.808,0.583-1.496,1.379-1.628
				l174.044-28.998c0.468-0.075,0.951,0.052,1.32,0.355c0.368,0.304,0.587,0.75,0.601,1.227l10.014,366.162
				c0.01,0.445-0.157,0.878-0.467,1.196C235.17,748.873,234.745,749.054,234.298,749.054z M51.892,745.754h180.712l-9.916-362.575
				L51.892,411.636V745.754z"/>
		</g>
	</g>
	<g>
		<g>
			<polygon fill="#F7F5EB" points="445.65,747.403 224.286,747.403 224.286,381.24 445.65,405.998 			"/>
		</g>
		<g>
			<path fill="#B9CEEB" d="M445.651,749.054H224.285c-0.913,0-1.649-0.738-1.649-1.65V381.241c0-0.469,0.2-0.917,0.548-1.23
				c0.351-0.313,0.819-0.457,1.285-0.41l221.364,24.758c0.835,0.093,1.466,0.801,1.466,1.64v341.405
				C447.3,748.315,446.562,749.054,445.651,749.054z M225.936,745.754H444v-338.28l-218.064-24.388V745.754z"/>
		</g>
	</g>
	<g>
		<g>
			<polygon fill="#FFFFFF" points="163.636,391.345 109.365,400.389 109.365,476.631 163.636,471.248 			"/>
		</g>
		<g>
			<path fill="#B9CEEB" d="M109.366,478.278c-0.408,0-0.802-0.149-1.107-0.424c-0.346-0.314-0.542-0.759-0.542-1.225v-76.241
				c0-0.808,0.583-1.496,1.379-1.628l54.27-9.043c0.477-0.074,0.968,0.054,1.337,0.369c0.371,0.312,0.583,0.773,0.583,1.258v79.903
				c0,0.848-0.644,1.559-1.488,1.644l-54.271,5.381C109.473,478.276,109.419,478.278,109.366,478.278z M111.016,401.785v73.023
				l50.969-5.055v-76.461L111.016,401.785z"/>
		</g>
	</g>
	<g>
		<g>
			<path fill="#FFFFFF" d="M136.5,458.338v-62.471V458.338z"/>
		</g>
		<g>
			<path fill="#B9CEEB" d="M136.501,459.987c-0.912,0-1.65-0.737-1.65-1.649v-62.474c0-0.911,0.738-1.647,1.65-1.647
				c0.912,0,1.65,0.736,1.65,1.647v62.474C138.152,459.25,137.413,459.987,136.501,459.987z"/>
		</g>
	</g>
</g>
<g>
	<g>
		<g>
			<polygon fill="#B9CEEB" points="452.537,748.202 336.767,748.202 336.767,531.821 425.734,505.434 			"/>
		</g>
		<g>
			<path fill="none" d="M452.537,750H336.767c-0.993,0-1.798-0.805-1.798-1.798V531.82c0-0.795,0.524-1.498,1.289-1.725
				l88.968-26.386c0.503-0.151,1.061-0.071,1.508,0.226c0.442,0.294,0.732,0.771,0.791,1.303l26.802,242.766
				c0.055,0.508-0.107,1.017-0.448,1.396C453.535,749.781,453.047,750,452.537,750z M338.566,746.403h111.961L424.185,507.77
				l-85.619,25.393V746.403z"/>
		</g>
	</g>
	<g>
		<g>
			<polygon fill="#1D4354" points="668.502,748.202 425.734,748.202 425.734,505.434 668.502,531.079 			"/>
		</g>
		<g>
			<path fill="none" d="M668.501,750H425.735c-0.993,0-1.799-0.805-1.799-1.798V505.434c0-0.51,0.217-0.995,0.596-1.336
				c0.379-0.342,0.885-0.506,1.393-0.451l242.765,25.644c0.917,0.097,1.609,0.867,1.609,1.788v217.124
				C670.299,749.195,669.495,750,668.501,750z M427.534,746.403h239.168V532.697l-239.168-25.265V746.403z"/>
		</g>
	</g>
	<g>
		<g>
			<rect x="452.537" y="676.094" fill="#FFFFFF" width="119.005" height="46.067"/>
		</g>
		<g>
			<path fill="none" d="M571.539,723.959H452.537c-0.995,0-1.8-0.804-1.8-1.798v-46.067c0-0.995,0.805-1.799,1.8-1.799h119.002
				c0.994,0,1.801,0.804,1.801,1.799v46.067C573.34,723.155,572.533,723.959,571.539,723.959z M454.335,720.362H569.74v-42.471
				H454.335V720.362z"/>
		</g>
	</g>
</g>
</svg>
