<?xml version="1.0" encoding="utf-8"?>
<!-- Generator: Adobe Illustrator 16.0.0, SVG Export Plug-In . SVG Version: 6.00 Build 0)  -->
<!DOCTYPE svg PUBLIC "-//W3C//DTD SVG 1.1//EN" "http://www.w3.org/Graphics/SVG/1.1/DTD/svg11.dtd">
<svg version="1.1" id="Layer_1" xmlns="http://www.w3.org/2000/svg" xmlns:xlink="http://www.w3.org/1999/xlink" x="0px" y="0px"
	 width="750px" height="750px" viewBox="0 0 750 750" enable-background="new 0 0 750 750" xml:space="preserve">
<g id="Discipline_1_">
	<g>
		<path fill="#253238" d="M182.072,271.22c19.37,40.425,2.506,88.881-37.663,108.232c-40.17,19.349-88.436,2.264-107.804-38.161
			s-2.506-88.882,37.664-108.231C114.438,213.71,162.704,230.795,182.072,271.22z"/>
		<g>
			<g>
				<path fill="#FFFFFF" d="M168.146,266.804c22.915,38.525,10.464,88.299-27.809,111.172
					c-38.273,22.872-87.876,10.184-110.791-28.342s-10.464-88.299,27.809-111.172C95.628,215.589,145.231,228.278,168.146,266.804z"
					/>
				<path fill="#253238" d="M99.282,390.342c-6.704,0-13.452-0.835-20.125-2.522c-21.27-5.38-39.184-18.767-50.439-37.692
					c-23.151-38.92-10.526-89.385,28.142-112.494c18.663-11.152,40.564-14.355,61.677-9.013c21.27,5.379,39.182,18.765,50.439,37.69
					c23.149,38.921,10.524,89.386-28.144,112.494C128.069,386.433,113.786,390.342,99.282,390.342z M98.413,228.028
					c-14.162,0-28.102,3.815-40.563,11.263c-37.756,22.564-50.081,71.842-27.474,109.851c10.992,18.48,28.484,31.553,49.254,36.807
					c20.61,5.213,41.992,2.089,60.212-8.801c37.756-22.563,50.081-71.842,27.475-109.851c-10.992-18.48-28.485-31.551-49.253-36.806
					C111.549,228.844,104.957,228.028,98.413,228.028z"/>
			</g>
			<path fill="#253238" d="M142.857,333.034c-0.156,0-0.313-0.038-0.459-0.117l-41.907-22.71c-1.573-0.852-2.75-2.256-3.316-3.955
				l-11.333-34.078c-0.168-0.506,0.105-1.052,0.611-1.22c0.506-0.167,1.053,0.105,1.22,0.611l11.333,34.079
				c0.409,1.231,1.263,2.249,2.403,2.867l41.908,22.71c0.468,0.253,0.643,0.84,0.388,1.308
				C143.531,332.852,143.2,333.034,142.857,333.034z"/>
			<g>
				<path fill="#253238" d="M69.916,250.351c1.463,2.46,0.668,5.639-1.776,7.099c-2.444,1.461-5.611,0.65-7.074-1.81
					c-1.464-2.46-0.668-5.638,1.775-7.098S68.453,247.891,69.916,250.351z"/>
				<path fill="#253238" d="M45.037,272.525c2.489,1.4,3.384,4.558,2,7.053c-1.385,2.495-4.525,3.382-7.015,1.982
					c-2.489-1.4-3.384-4.558-1.999-7.053C39.408,272.013,42.548,271.125,45.037,272.525z"/>
				<path fill="#253238" d="M35.081,303.659c2.848-0.035,5.194,2.256,5.239,5.117c0.045,2.86-2.227,5.208-5.075,5.243
					s-5.193-2.256-5.239-5.117C29.961,306.041,32.233,303.693,35.081,303.659z"/>
				<path fill="#253238" d="M41.336,337.062c2.444-1.46,5.611-0.65,7.074,1.81c1.464,2.46,0.669,5.638-1.775,7.099
					c-2.443,1.46-5.611,0.65-7.074-1.81C38.098,341.701,38.893,338.522,41.336,337.062z"/>
				<path fill="#253238" d="M64.012,361.526c1.384-2.495,4.525-3.382,7.014-1.982c2.489,1.401,3.384,4.558,2,7.053
					s-4.525,3.382-7.014,1.982C63.522,367.179,62.626,364.021,64.012,361.526z"/>
				<path fill="#253238" d="M95.65,372.15c-0.045-2.86,2.227-5.208,5.075-5.242c2.848-0.035,5.193,2.255,5.239,5.116
					c0.045,2.861-2.227,5.208-5.075,5.243C98.041,377.302,95.696,375.011,95.65,372.15z"/>
				<path fill="#253238" d="M128.281,365.482c-1.463-2.46-0.668-5.639,1.775-7.099c2.444-1.46,5.612-0.65,7.075,1.81
					s0.668,5.638-1.776,7.099S129.744,367.942,128.281,365.482z"/>
				<path fill="#253238" d="M153.159,343.308c-2.489-1.4-3.384-4.558-1.999-7.053c1.384-2.495,4.525-3.382,7.014-1.981
					c2.489,1.4,3.384,4.557,2,7.052C158.789,343.821,155.648,344.708,153.159,343.308z"/>
				<path fill="#253238" d="M163.115,312.175c-2.848,0.035-5.193-2.256-5.238-5.116c-0.046-2.861,2.227-5.208,5.075-5.243
					c2.848-0.035,5.193,2.256,5.238,5.117C168.236,309.792,165.963,312.14,163.115,312.175z"/>
				<path fill="#253238" d="M156.355,279.376c-2.444,1.46-5.611,0.65-7.075-1.81c-1.463-2.46-0.667-5.638,1.776-7.099
					c2.443-1.46,5.611-0.65,7.074,1.81C159.594,274.738,158.799,277.917,156.355,279.376z"/>
				<path fill="#253238" d="M134.186,254.307c-1.385,2.495-4.526,3.382-7.015,1.982c-2.489-1.4-3.384-4.558-1.999-7.053
					c1.384-2.495,4.525-3.382,7.014-1.982C134.675,248.654,135.57,251.812,134.186,254.307z"/>
				<path fill="#253238" d="M102.546,243.683c0.046,2.86-2.227,5.208-5.075,5.243c-2.848,0.035-5.193-2.256-5.238-5.116
					c-0.045-2.861,2.227-5.208,5.075-5.243C100.156,238.532,102.501,240.822,102.546,243.683z"/>
			</g>
		</g>
	</g>
	<g>
		<g>
			<path fill="#FFFFFF" d="M386.16,109.512c-0.256-5.587-4.723-10.163-10.304-10.542c-3.517-0.239-6.713,1.164-8.9,3.517
				c-0.556,0.599-1.338,0.935-2.155,0.935c-1.633,0-2.957-1.323-2.957-2.956v-0.549h-0.018V77.469h-22.448v0.014h-0.549
				c-1.633,0-2.957,1.324-2.957,2.957c0,0.817,0.336,1.599,0.935,2.155c2.353,2.187,3.756,5.383,3.517,8.901
				c-0.379,5.58-4.954,10.047-10.541,10.304c-6.363,0.292-11.614-4.78-11.614-11.079c0-3.21,1.364-6.101,3.543-8.126
				c0.599-0.556,0.936-1.338,0.936-2.155c0-1.633-1.324-2.957-2.957-2.957h-0.548v-0.014h-22.448v57.206
				c0,4.378,3.549,7.927,7.927,7.927h57.206v-22.448h0.018v-0.549c0-1.633,1.324-2.957,2.957-2.957c0.817,0,1.6,0.336,2.155,0.935
				c2.025,2.179,4.916,3.543,8.126,3.543C381.381,121.126,386.453,115.875,386.16,109.512z"/>
			<path fill="#253238" d="M361.826,143.566h-57.206c-4.903,0-8.893-3.989-8.893-8.892V77.469c0-0.533,0.432-0.965,0.965-0.965
				h22.449c0.056,0,0.112,0.005,0.166,0.014h0.382c2.162,0,3.921,1.76,3.921,3.922c0,1.085-0.453,2.128-1.243,2.862
				c-2.056,1.911-3.235,4.614-3.235,7.419c0,2.792,1.113,5.394,3.133,7.323c2.019,1.928,4.683,2.925,7.472,2.792
				c5.138-0.237,9.275-4.28,9.623-9.406c0.209-3.074-0.961-6.037-3.211-8.127c-0.79-0.735-1.243-1.778-1.243-2.863
				c0-2.162,1.76-3.922,3.922-3.922h0.385c0.053-0.009,0.107-0.014,0.163-0.014h22.449c0.533,0,0.966,0.432,0.966,0.965v22.266
				c0.011,0.059,0.018,0.121,0.018,0.183v0.549c0,1.098,0.894,1.992,1.992,1.992c0.549,0,1.077-0.229,1.447-0.628
				c2.489-2.677,6.02-4.069,9.672-3.823c6.106,0.415,10.924,5.342,11.204,11.46c0.152,3.331-1.027,6.489-3.323,8.893
				c-2.298,2.405-5.395,3.73-8.72,3.73c-3.339,0-6.558-1.403-8.833-3.851c-0.37-0.399-0.897-0.626-1.447-0.626
				c-1.099,0-1.992,0.893-1.992,1.991v0.549c0,0.063-0.007,0.125-0.018,0.186v22.263
				C362.792,143.135,362.359,143.566,361.826,143.566z M297.658,78.434v56.241c0,3.839,3.124,6.961,6.962,6.961h56.241v-21.483
				c0-0.063,0.007-0.125,0.018-0.186v-0.363c0-2.162,1.76-3.922,3.923-3.922c1.084,0,2.128,0.454,2.862,1.243
				c1.91,2.056,4.613,3.235,7.418,3.235c2.793,0,5.394-1.113,7.324-3.133c1.928-2.02,2.919-4.673,2.79-7.471
				c-0.234-5.138-4.279-9.275-9.405-9.623c-3.071-0.21-6.038,0.961-8.127,3.21c-0.734,0.791-1.778,1.244-2.862,1.244
				c-2.163,0-3.923-1.759-3.923-3.921V100.1c-0.011-0.059-0.018-0.12-0.018-0.183V78.434h-21.321
				c-0.053,0.01-0.107,0.015-0.163,0.015h-0.548c-1.098,0-1.991,0.893-1.991,1.991c0,0.55,0.229,1.079,0.627,1.45
				c2.677,2.488,4.071,6.013,3.823,9.672c-0.416,6.105-5.344,10.921-11.461,11.203c-3.349,0.144-6.49-1.028-8.893-3.324
				c-2.405-2.298-3.73-5.394-3.73-8.719c0-3.339,1.404-6.559,3.851-8.833c0.399-0.371,0.627-0.898,0.627-1.449
				c0-1.098-0.894-1.991-1.992-1.991h-0.548c-0.057,0-0.112-0.005-0.167-0.015H297.658z"/>
		</g>
		<g>
			<path fill="#FFFFFF" d="M403.232,77.469c-1.279-0.325-2.227-1.481-2.227-2.862c0-0.817,0.337-1.6,0.935-2.156
				c2.354-2.187,3.755-5.383,3.517-8.9c-0.38-5.58-4.954-10.047-10.541-10.304c-6.363-0.292-11.614,4.78-11.614,11.079
				c0,3.21,1.364,6.101,3.544,8.126c0.598,0.556,0.935,1.338,0.935,2.155c0,1.381-0.947,2.537-2.228,2.862h-23.727v22.449h0.018
				v0.549c0,1.633,1.324,2.956,2.957,2.956c0.817,0,1.6-0.336,2.155-0.935c2.188-2.353,5.384-3.756,8.9-3.517
				c5.581,0.379,10.048,4.954,10.304,10.542c0.293,6.363-4.779,11.614-11.078,11.614c-3.21,0-6.101-1.364-8.126-3.543
				c-0.556-0.599-1.338-0.935-2.155-0.935c-1.633,0-2.957,1.324-2.957,2.957v0.549h-0.018v22.448h57.206
				c4.378,0,7.927-3.549,7.927-7.927V77.469H403.232z"/>
			<path fill="#253238" d="M419.032,143.566h-57.206c-0.533,0-0.965-0.432-0.965-0.965v-22.448c0-0.063,0.007-0.125,0.018-0.186
				v-0.363c0-2.162,1.76-3.922,3.923-3.922c1.084,0,2.128,0.454,2.862,1.243c1.91,2.056,4.613,3.235,7.418,3.235
				c2.793,0,5.394-1.113,7.324-3.133c1.928-2.02,2.919-4.673,2.79-7.471c-0.234-5.138-4.279-9.275-9.405-9.623
				c-3.071-0.21-6.038,0.961-8.127,3.21c-0.734,0.791-1.778,1.244-2.862,1.244c-2.163,0-3.923-1.759-3.923-3.921V100.1
				c-0.011-0.059-0.018-0.12-0.018-0.183V77.469c0-0.533,0.432-0.965,0.965-0.965h23.594c0.826-0.259,1.395-1.024,1.395-1.897
				c0-0.551-0.228-1.078-0.626-1.449c-2.448-2.275-3.852-5.494-3.852-8.832c0-3.325,1.324-6.422,3.731-8.72
				c2.401-2.295,5.539-3.471,8.891-3.324c6.118,0.281,11.046,5.098,11.462,11.202c0.249,3.659-1.145,7.185-3.823,9.673
				c-0.398,0.371-0.628,0.899-0.628,1.449c0,0.874,0.568,1.639,1.395,1.897h23.595c0.533,0,0.965,0.432,0.965,0.965v57.206
				C427.924,139.578,423.935,143.566,419.032,143.566z M362.792,141.636h56.24c3.839,0,6.962-3.123,6.962-6.961V78.434h-22.762
				c-0.08,0-0.161-0.01-0.238-0.03c-1.739-0.442-2.955-2.004-2.955-3.797c0-1.085,0.453-2.128,1.244-2.862
				c2.25-2.092,3.421-5.054,3.211-8.128c-0.35-5.126-4.485-9.169-9.622-9.405c-2.797-0.131-5.452,0.862-7.472,2.791
				c-2.021,1.931-3.133,4.531-3.133,7.324c0,2.804,1.179,5.507,3.234,7.418c0.79,0.734,1.243,1.777,1.243,2.862
				c0,1.794-1.215,3.356-2.955,3.797c-0.077,0.02-0.157,0.03-0.237,0.03h-22.761v21.301c0.011,0.059,0.018,0.121,0.018,0.183v0.549
				c0,1.098,0.894,1.992,1.992,1.992c0.549,0,1.077-0.229,1.447-0.628c2.489-2.677,6.02-4.069,9.672-3.823
				c6.106,0.415,10.924,5.342,11.204,11.46c0.152,3.331-1.027,6.489-3.323,8.893c-2.298,2.405-5.395,3.73-8.72,3.73
				c-3.339,0-6.558-1.403-8.833-3.851c-0.37-0.399-0.897-0.626-1.447-0.626c-1.099,0-1.992,0.893-1.992,1.991v0.549
				c0,0.063-0.007,0.125-0.018,0.186V141.636z"/>
		</g>
		<g>
			<path fill="#FFFFFF" d="M419.032,12.336h-57.206v23.538c-0.254,1.375-1.457,2.416-2.905,2.416c-0.816,0-1.6-0.337-2.155-0.936
				c-2.188-2.354-5.384-3.756-8.9-3.517c-5.58,0.379-10.047,4.954-10.304,10.541c-0.292,6.364,4.779,11.614,11.079,11.614
				c3.209,0,6.1-1.363,8.125-3.543c0.556-0.598,1.339-0.935,2.155-0.935c1.448,0,2.651,1.042,2.905,2.416v23.538h23.727
				c1.28-0.325,2.228-1.481,2.228-2.862c0-0.817-0.337-1.6-0.935-2.155c-2.18-2.025-3.544-4.916-3.544-8.126
				c0-6.298,5.251-11.371,11.614-11.079c5.587,0.257,10.161,4.724,10.541,10.304c0.238,3.517-1.163,6.713-3.517,8.9
				c-0.598,0.556-0.935,1.339-0.935,2.156c0,1.381,0.947,2.537,2.227,2.862h23.727V20.263
				C426.959,15.885,423.41,12.336,419.032,12.336z"/>
			<path fill="#253238" d="M426.959,78.434h-23.727c-0.08,0-0.161-0.01-0.238-0.03c-1.739-0.442-2.955-2.004-2.955-3.797
				c0-1.085,0.453-2.128,1.244-2.862c2.25-2.092,3.421-5.054,3.211-8.128c-0.35-5.126-4.485-9.169-9.622-9.405
				c-2.797-0.131-5.452,0.862-7.472,2.791c-2.021,1.931-3.133,4.531-3.133,7.324c0,2.804,1.179,5.507,3.234,7.418
				c0.79,0.734,1.243,1.777,1.243,2.862c0,1.794-1.215,3.356-2.955,3.797c-0.077,0.02-0.157,0.03-0.237,0.03h-23.727
				c-0.533,0-0.965-0.431-0.965-0.965V54.028c-0.205-0.902-1.008-1.548-1.94-1.548c-0.551,0-1.078,0.229-1.447,0.627
				c-2.274,2.449-5.494,3.852-8.833,3.852c-3.326,0-6.423-1.325-8.719-3.73c-2.297-2.404-3.477-5.563-3.325-8.893
				c0.282-6.119,5.098-11.045,11.204-11.46c3.659-0.243,7.185,1.145,9.672,3.823c0.37,0.398,0.897,0.627,1.448,0.627
				c0.933,0,1.735-0.647,1.94-1.549V12.336c0-0.534,0.432-0.965,0.965-0.965h57.206c4.902,0,8.892,3.988,8.892,8.892v57.206
				C427.924,78.002,427.492,78.434,426.959,78.434z M403.364,76.504h22.63V20.263c0-3.839-3.123-6.961-6.962-6.961h-56.24v22.572
				c0,0.06-0.006,0.118-0.017,0.176c-0.345,1.856-1.966,3.205-3.854,3.205c-1.085,0-2.128-0.453-2.862-1.244
				c-2.09-2.249-5.059-3.418-8.127-3.21c-5.126,0.348-9.17,4.484-9.406,9.622c-0.128,2.799,0.862,5.452,2.792,7.472
				c1.93,2.02,4.531,3.133,7.324,3.133c2.805,0,5.508-1.179,7.418-3.234c0.733-0.791,1.776-1.244,2.862-1.244
				c1.889,0,3.51,1.348,3.854,3.205c0.011,0.059,0.017,0.117,0.017,0.176v22.574h22.628c0.826-0.259,1.395-1.024,1.395-1.897
				c0-0.551-0.228-1.078-0.626-1.449c-2.448-2.275-3.852-5.494-3.852-8.832c0-3.325,1.324-6.422,3.731-8.72
				c2.401-2.295,5.539-3.471,8.891-3.324c6.118,0.281,11.046,5.098,11.462,11.202c0.249,3.659-1.145,7.185-3.823,9.673
				c-0.398,0.371-0.628,0.899-0.628,1.449C401.97,75.48,402.538,76.245,403.364,76.504z"/>
		</g>
		<g>
			<path fill="#253238" d="M347.865,33.838c3.517-0.239,6.713,1.163,8.9,3.517c0.556,0.599,1.339,0.936,2.155,0.936
				c1.448,0,2.651-1.042,2.905-2.416V12.336h-57.206c-4.377,0-7.927,3.549-7.927,7.927v57.206h22.448v0.014h0.548
				c1.633,0,2.957,1.324,2.957,2.957c0,0.817-0.337,1.599-0.936,2.155c-2.179,2.025-3.543,4.916-3.543,8.126
				c0,6.298,5.251,11.371,11.614,11.079c5.587-0.257,10.162-4.724,10.541-10.304c0.239-3.518-1.164-6.714-3.517-8.901
				c-0.599-0.556-0.935-1.338-0.935-2.155c0-1.633,1.323-2.957,2.957-2.957h0.549v-0.014h22.448V53.931
				c-0.254-1.375-1.457-2.416-2.905-2.416c-0.816,0-1.6,0.337-2.155,0.935c-2.025,2.18-4.916,3.543-8.125,3.543
				c-6.3,0-11.372-5.25-11.079-11.614C337.818,38.792,342.285,34.217,347.865,33.838z"/>
			<path fill="#253238" d="M329.253,102.777c-3.119,0-6.054-1.174-8.319-3.337c-2.405-2.298-3.73-5.394-3.73-8.719
				c0-3.339,1.404-6.559,3.851-8.833c0.399-0.371,0.627-0.898,0.627-1.449c0-1.098-0.894-1.991-1.992-1.991h-0.548
				c-0.057,0-0.112-0.005-0.167-0.015h-22.283c-0.534,0-0.965-0.431-0.965-0.965V20.263c0-4.903,3.989-8.892,8.893-8.892h57.206
				c0.533,0,0.966,0.432,0.966,0.965v23.538c0,0.06-0.006,0.118-0.017,0.176c-0.345,1.856-1.966,3.205-3.854,3.205
				c-1.085,0-2.128-0.453-2.862-1.244c-2.09-2.249-5.059-3.418-8.127-3.21c0,0,0,0,0,0c-5.126,0.348-9.169,4.484-9.405,9.622
				c-0.128,2.799,0.862,5.452,2.792,7.472c1.93,2.02,4.531,3.133,7.324,3.133c2.805,0,5.508-1.179,7.418-3.234
				c0.733-0.791,1.776-1.244,2.862-1.244c1.889,0,3.51,1.348,3.854,3.205c0.011,0.059,0.017,0.117,0.017,0.176v23.539
				c0,0.534-0.433,0.965-0.966,0.965h-22.286c-0.053,0.01-0.107,0.015-0.163,0.015h-0.548c-1.098,0-1.991,0.893-1.991,1.991
				c0,0.55,0.229,1.079,0.627,1.45c2.677,2.488,4.071,6.013,3.823,9.672c-0.416,6.105-5.344,10.921-11.461,11.203
				C329.635,102.772,329.444,102.777,329.253,102.777z M319.309,76.518h0.382c2.162,0,3.921,1.76,3.921,3.922
				c0,1.085-0.453,2.128-1.243,2.862c-2.056,1.911-3.235,4.614-3.235,7.419c0,2.792,1.113,5.394,3.133,7.323
				c2.019,1.928,4.683,2.925,7.472,2.792c5.138-0.237,9.275-4.28,9.623-9.406c0.209-3.074-0.961-6.037-3.211-8.127
				c-0.79-0.735-1.243-1.778-1.243-2.863c0-2.162,1.76-3.922,3.922-3.922h0.385c0.053-0.009,0.107-0.014,0.163-0.014h21.484V54.028
				c-0.205-0.902-1.008-1.548-1.94-1.548c-0.551,0-1.078,0.229-1.447,0.627c-2.274,2.449-5.494,3.852-8.833,3.852
				c-3.326,0-6.423-1.325-8.719-3.73c-2.297-2.404-3.477-5.563-3.325-8.893c0.282-6.119,5.098-11.045,11.204-11.46
				c3.65-0.247,7.183,1.144,9.672,3.823c0.37,0.398,0.897,0.627,1.448,0.627c0.933,0,1.735-0.647,1.94-1.549V13.302h-56.241
				c-3.839,0-6.962,3.122-6.962,6.961v56.241h21.484C319.199,76.504,319.254,76.509,319.309,76.518z M347.865,33.838h0.01H347.865z"
				/>
		</g>
	</g>
	<g>
		<g>
			<g>
				<g>
					<path fill="#F6E8D4" d="M529.739,532.01c0,0-17.561-106.853-27.899-136.548c-6.191-17.781-79.099-48.708-79.099-48.708
						s-4.191-10.344-13.175-12.776c-8.982-2.431-38.617-4.133-38.617-4.133s-34.408,1.702-43.39,4.133
						c-8.982,2.432-13.176,12.776-13.176,12.776s-72.907,30.927-79.098,48.708c-10.339,29.695-27.899,136.548-27.899,136.548
						l52.301,29.142c0,0-4.268,43.035,2.795,47.508c5.661,3.585,17.427,6.079,43.795,12.181
						c0.296,0.068,115.533,1.617,115.903,1.394c10.156-2.495,45.824-9.37,52.462-13.574c7.063-4.473,2.796-47.508,2.796-47.508
						L529.739,532.01z"/>
					<path fill="#253238" d="M418.762,623.203c-5.61,0-19.538-0.147-54.573-0.592c-5.907-0.076-57.723-0.738-58.128-0.83
						l-6.586-1.521c-22.111-5.1-32.204-7.427-37.509-10.786c-7.082-4.485-3.936-41.107-3.299-47.787l-51.75-28.833
						c-0.356-0.199-0.548-0.599-0.482-1c0.175-1.07,17.692-107.277,27.94-136.71c6.101-17.522,73.106-46.492,79.276-49.127
						c0.873-1.951,5.199-10.682,13.656-12.971c8.981-2.432,42.185-4.096,43.595-4.166c0.033-0.002,0.067-0.001,0.104,0.001
						c1.214,0.07,29.837,1.734,38.814,4.165c8.457,2.289,12.784,11.02,13.655,12.971c6.17,2.635,73.176,31.604,79.276,49.127
						c10.248,29.433,27.765,135.64,27.94,136.71c0.065,0.401-0.127,0.801-0.482,1l-51.749,28.833
						c0.636,6.68,3.782,43.302-3.3,47.787c-5.171,3.275-26.25,7.861-41.642,11.209c-4.644,1.012-8.654,1.884-11.108,2.486
						l-0.008-0.035C422.045,623.176,421.169,623.203,418.762,623.203z M306.406,619.88c3.078,0.07,111.901,1.582,115.61,1.399
						c2.484-0.607,6.478-1.476,11.092-2.481c14.391-3.13,36.138-7.861,41.019-10.953c4.777-3.026,3.978-30.188,2.351-46.599
						c-0.038-0.382,0.154-0.75,0.49-0.938l51.709-28.81c-1.514-9.119-17.98-107.664-27.749-135.718
						c-5.98-17.181-77.837-47.83-78.563-48.137c-0.234-0.1-0.421-0.29-0.518-0.526c-0.04-0.099-4.13-9.933-12.532-12.208
						c-8.61-2.33-36.967-4.015-38.369-4.098c-1.515,0.076-34.513,1.764-43.134,4.098c-8.423,2.281-12.493,12.109-12.533,12.208
						c-0.096,0.236-0.282,0.426-0.518,0.526c-0.726,0.307-72.583,30.958-78.564,48.137c-9.768,28.055-26.236,126.599-27.748,135.718
						l51.708,28.81c0.336,0.188,0.529,0.557,0.491,0.938c-1.626,16.41-2.427,43.572,2.351,46.599
						c5.027,3.183,15.019,5.486,36.91,10.535L306.406,619.88z"/>
				</g>
				<path fill="#253238" d="M266.841,554.815c-0.064,0-0.128-0.006-0.194-0.02c-0.522-0.106-0.858-0.616-0.751-1.138l19.94-97.704
					c0.106-0.522,0.618-0.858,1.138-0.753c0.522,0.107,0.859,0.617,0.752,1.139l-19.941,97.704
					C267.693,554.501,267.292,554.815,266.841,554.815z"/>
				<path fill="#253238" d="M470.285,554.815c-0.45,0-0.853-0.314-0.945-0.771l-19.941-97.704c-0.106-0.521,0.23-1.031,0.752-1.139
					c0.518-0.105,1.033,0.23,1.139,0.753l19.941,97.704c0.106,0.521-0.23,1.031-0.752,1.138
					C470.413,554.81,470.349,554.815,470.285,554.815z"/>
				<g>
					<path fill="#FFFFFF" d="M333.548,343.56c0,0-13.03,3.414-12.718,18.765c0.313,15.351,8.4,204.335-14.553,258.516
						c0,0,44.403,18.865,115.903,3.789c0,0-17.539-61.849-21.433-116.58c-3.895-54.731,14.295-145.913,4.513-157.702
						C395.479,338.558,333.548,343.56,333.548,343.56z"/>
					<path fill="#253238" d="M368.24,631.39c-38.981,0-62.021-9.525-62.34-9.661c-0.491-0.209-0.719-0.774-0.512-1.265
						c9.621-22.707,19.975-84.779,14.673-251.53c-0.1-3.15-0.172-5.395-0.196-6.59c-0.324-15.927,13.299-19.681,13.437-19.718
						c0.057-0.014,0.112-0.023,0.168-0.028c2.548-0.205,62.546-4.904,72.534,7.133c5.388,6.494,2.897,33.688-0.257,68.115
						c-2.757,30.095-5.882,64.204-4.037,90.135c3.844,54.008,21.225,115.768,21.398,116.385c0.074,0.258,0.036,0.532-0.101,0.762
						c-0.14,0.229-0.366,0.391-0.628,0.446C402.067,629.856,383.868,631.39,368.24,631.39z M307.546,620.3
						c6.589,2.479,49.112,16.914,113.429,3.595c-2.258-8.206-17.602-65.345-21.188-115.777c-1.856-26.088,1.274-60.28,4.039-90.447
						c2.99-32.64,5.572-60.827,0.693-66.707c-9.185-11.069-68.115-6.655-70.804-6.448c-1.141,0.327-12.204,3.859-11.919,17.789
						c0.024,1.191,0.095,3.429,0.195,6.568C326.157,499.927,321.163,586.795,307.546,620.3z"/>
				</g>
			</g>
			<g>
				<g>
					<path fill="#FFFFFF" d="M339.826,300.657l-3.924,46.097c-4.635,2.174-7.761,6.084-9.589,11.487
						c-1.629,4.814-0.906,10.118,1.831,14.4l28.846,45.132c3.362,5.262,11.036,5.293,14.441,0.06l29.49-45.323
						c4.307-6.618,3.586-15.443-2.009-21.013c-1.586-1.579-3.506-2.972-5.823-3.943l-2.049-46.896H339.826z"/>
					<path fill="#253238" d="M364.229,422.703c-0.015,0-0.028,0-0.041,0c-3.261-0.015-6.258-1.663-8.013-4.411L327.33,373.16
						c-2.944-4.607-3.648-10.158-1.932-15.229c1.884-5.564,5.109-9.532,9.589-11.804l3.877-45.552c0.042-0.5,0.46-0.883,0.961-0.883
						h51.214c0.517,0,0.941,0.408,0.965,0.923l2.022,46.296c2.033,0.935,3.903,2.245,5.566,3.901
						c5.836,5.812,6.734,15.157,2.136,22.224l-29.49,45.323C370.467,421.081,367.475,422.703,364.229,422.703z M340.712,301.623
						l-3.849,45.214c-0.03,0.343-0.24,0.646-0.552,0.792c-4.309,2.021-7.281,5.594-9.085,10.922
						c-1.527,4.513-0.897,9.46,1.73,13.571l28.846,45.133c1.401,2.191,3.791,3.508,6.393,3.519c0.012,0,0.022,0,0.034,0
						c2.589,0,4.978-1.294,6.392-3.468l29.491-45.322c4.103-6.305,3.312-14.633-1.881-19.802c-1.639-1.632-3.495-2.89-5.516-3.738
						c-0.345-0.145-0.575-0.474-0.591-0.848l-2.009-45.972H340.712z M335.901,346.754h0.01H335.901z"/>
				</g>
				<g>
					<path fill="#FFFFFF" d="M398.115,278.225l0.037-25.06c0,0-2.487-17.638-22.436-17.638c-19.949,0-39.892,13.129-39.892,13.129
						c0.088,3.505-1.689,29.568-1.689,29.568s-3.639-1.727-6.565,0.326c-2.927,2.052-1.341,17.687,8.33,19.897l6.13,18.575
						c1.681,5.094,5.834,8.984,11.027,10.328l2.841,0.735c5.434,1.405,11.122,1.515,16.606,0.318l7.205-1.572
						c5.725-1.25,10.286-5.57,11.843-11.219l4.899-17.777c0,0,6.944,0.115,7.763-6.928
						C405.032,283.864,406.656,274.773,398.115,278.225z"/>
					<path fill="#253238" d="M364.876,330.187c-3.106,0-6.213-0.39-9.22-1.167l-2.841-0.735c-5.535-1.433-9.909-5.53-11.702-10.959
						l-5.964-18.072c-6.933-1.949-8.997-9.837-9.472-12.258c-0.711-3.63-0.573-7.895,1.339-9.235
						c2.228-1.562,4.752-1.261,6.242-0.861c0.353-5.251,1.676-25.237,1.601-28.218c-0.008-0.334,0.157-0.647,0.435-0.83
						c0.824-0.543,20.414-13.29,40.422-13.29c20.551,0,23.364,18.283,23.391,18.468c0.007,0.045,0.01,0.09,0.01,0.136l-0.034,23.697
						c2.058-0.603,3.637-0.457,4.806,0.441c2.69,2.06,2.054,7.324,1.438,12.414l-0.154,1.301c-0.663,5.714-5.145,7.519-7.978,7.754
						l-4.713,17.096c-1.657,6.013-6.473,10.575-12.567,11.904l-7.205,1.572C370.139,329.907,367.508,330.187,364.876,330.187z
						 M330.917,278.514c-0.901,0-1.896,0.198-2.792,0.826c-0.711,0.5-1.317,3.38-0.553,7.283c0.429,2.194,2.315,9.461,8.543,10.884
						c0.33,0.076,0.596,0.318,0.701,0.638l6.129,18.575c1.586,4.803,5.457,8.428,10.354,9.696l2.84,0.735
						c5.263,1.36,10.851,1.468,16.159,0.309l7.205-1.572c5.392-1.177,9.652-5.213,11.118-10.532l4.9-17.777
						c0.117-0.425,0.511-0.719,0.946-0.709c0.309,0.015,6.083-0.016,6.787-6.074l0.156-1.309c0.499-4.126,1.119-9.261-0.697-10.651
						c-0.811-0.622-2.236-0.524-4.236,0.283c-0.298,0.12-0.636,0.086-0.902-0.094c-0.266-0.18-0.425-0.48-0.425-0.801l0.035-24.987
						c-0.204-1.3-3.024-16.745-21.47-16.745c-17.832,0-35.913,10.81-38.924,12.693c-0.055,5.021-1.625,28.083-1.693,29.105
						c-0.021,0.319-0.2,0.605-0.475,0.767c-0.277,0.161-0.616,0.174-0.902,0.039C333.705,279.087,332.448,278.514,330.917,278.514z"
						/>
				</g>
				<path fill="#253238" d="M345.398,246.498c0,0-12.889,17.162-11.262,31.727c0,0-15.636-20.92,4.876-38.517
					c0,0-15.025-15.597-4.233-21.427c10.792-5.829,15.372,10.872,24.808,7.989c9.437-2.882,18.144-2.953,26.212-0.604
					s7.942,13.846,11.205,16.415c3.262,2.569,16.091,9.619,1.11,36.145c0,0-5.273-10.342-5.875-20.429
					c-0.602-10.086,3.049-13.875-7.589-12.438S348.253,250.88,345.398,246.498z"/>
			</g>
			<g>
				<path fill="#253238" d="M176.213,663.866c-53.878-49.663-25.99-81.695-25.99-81.695s24.068-38.992,108.53,11.982
					c84.462,50.974,166.215,32.022,184.703,24.383c18.487-7.642,83.089-55.672,119.493-58.37
					c20.257-1.501,44.502,13.73,23.232,54.899c-43.985,85.136-163.439,94.849-163.439,94.849s-57.906,10.878-117.392,0.341
					C305.351,710.255,230.091,713.53,176.213,663.866z"/>
				<path fill="#FFFFFF" d="M398.286,673.418c-0.266,0-0.533-0.11-0.723-0.327l-2.802-3.177c-0.176-0.2-0.262-0.464-0.236-0.73
					c0.024-0.265,0.159-0.508,0.37-0.671l89.067-68.728c0.425-0.326,1.029-0.246,1.354,0.174c0.325,0.423,0.247,1.028-0.175,1.354
					l-88.252,68.098l2.12,2.403c0.353,0.399,0.313,1.009-0.086,1.362C398.742,673.339,398.515,673.418,398.286,673.418z"/>
				<path fill="#FFFFFF" d="M317.231,670.241c-0.064,0-0.128-0.006-0.192-0.02c-0.522-0.105-0.86-0.615-0.755-1.138l1.229-6.047
					c-3.315-2.643-24.363-19.342-58.148-44.19c-36.726-27.011-44.73-32.509-44.806-32.563c-0.439-0.301-0.552-0.901-0.252-1.341
					c0.3-0.438,0.901-0.554,1.341-0.252c0.077,0.054,8.108,5.57,44.861,32.6c36.755,27.033,58.457,44.436,58.672,44.609
					c0.282,0.227,0.414,0.591,0.341,0.944l-1.346,6.624C318.084,669.926,317.681,670.241,317.231,670.241z"/>
				<g>
					<g>
						<path fill="#FFFFFF" d="M397.808,677.686c0,0-48.586,19.338-68.222,20.781c-19.636,1.444-54.131,10.532-58.078,12.168
							c-3.948,1.636-2.764,9.97,2.757,11.916c0,0-1.578,7.073,3.549,9.439c0,0-0.387,7.25,6.708,8.161c0,0-2.209,3.907,6.975,4.742
							c9.184,0.834,27.465-2.129,35.954-5.776c8.489-3.646,40.1-25.573,40.1-25.573l44.427-13.61L397.808,677.686z"/>
						<path fill="#253238" d="M295.022,746c-1.309,0-2.522-0.047-3.613-0.146c-4.196-0.382-6.794-1.472-7.722-3.24
							c-0.31-0.592-0.389-1.185-0.353-1.697c-5.001-1.167-6.418-5.586-6.492-8.34c-4.14-2.343-3.919-7.439-3.656-9.427
							c-3.3-1.565-4.89-5.146-4.967-7.99c-0.069-2.605,1.021-4.63,2.918-5.416c3.743-1.552,38.265-10.76,58.376-12.239
							c19.264-1.417,67.45-20.523,67.935-20.716c0.43-0.173,0.922-0.015,1.171,0.378l14.172,22.247
							c0.16,0.255,0.194,0.569,0.091,0.853c-0.104,0.283-0.334,0.5-0.623,0.589l-44.283,13.567
							c-2.474,1.714-31.847,22.016-40.146,25.581C320.133,743.312,304.898,746,295.022,746z M397.422,678.876
							c-6.413,2.525-49.3,19.196-67.766,20.554c-19.933,1.466-54.082,10.564-57.778,12.098c-1.129,0.467-1.775,1.806-1.727,3.579
							c0.065,2.418,1.481,5.493,4.435,6.535c0.46,0.161,0.727,0.642,0.623,1.118c-0.057,0.258-1.339,6.346,3.011,8.354
							c0.359,0.166,0.581,0.534,0.56,0.93c-0.014,0.255-0.234,6.368,5.866,7.15c0.32,0.042,0.597,0.238,0.741,0.524
							c0.144,0.288,0.134,0.629-0.024,0.908c-0.02,0.041-0.264,0.549,0.049,1.116c0.352,0.641,1.622,1.777,6.174,2.189
							c8.908,0.813,27.15-2.12,35.486-5.701c8.303-3.566,39.616-25.261,39.93-25.479c0.082-0.059,0.173-0.102,0.269-0.131
							l43.213-13.24L397.422,678.876z"/>
					</g>
					<path fill="#253238" d="M278.208,721.444c-0.451,0-0.856-0.318-0.946-0.778c-0.103-0.523,0.237-1.029,0.76-1.134l6.508-1.282
						c0.532-0.102,1.031,0.239,1.134,0.762c0.103,0.522-0.237,1.03-0.76,1.134l-6.509,1.281
						C278.333,721.439,278.27,721.444,278.208,721.444z"/>
				</g>
				<g>
					<g>
						<path fill="#FFFFFF" d="M313.722,677.686c0,0,48.587,19.338,68.222,20.781c19.636,1.444,54.131,10.532,58.077,12.168
							c3.948,1.636,2.765,9.97-2.757,11.916c0,0,1.577,7.073-3.55,9.439c0,0,0.388,7.25-6.708,8.161c0,0,2.21,3.907-6.975,4.742
							c-9.184,0.834-27.465-2.129-35.954-5.776c-8.489-3.646-40.1-25.573-40.1-25.573l-44.426-13.61L313.722,677.686z"/>
						<path fill="#253238" d="M416.507,746c-9.876,0-25.11-2.688-32.811-5.996c-8.298-3.565-37.67-23.867-40.145-25.581
							l-44.284-13.567c-0.289-0.089-0.518-0.306-0.623-0.589c-0.104-0.283-0.069-0.598,0.092-0.853l14.171-22.247
							c0.249-0.393,0.74-0.552,1.172-0.378c0.484,0.192,48.672,19.299,67.936,20.716c20.109,1.479,54.633,10.688,58.374,12.239
							c1.898,0.786,2.988,2.811,2.919,5.416c-0.077,2.845-1.666,6.425-4.967,7.99c0.265,1.987,0.484,7.084-3.655,9.427
							c-0.075,2.754-1.492,7.173-6.493,8.34c0.036,0.513-0.042,1.105-0.352,1.697c-0.929,1.769-3.526,2.858-7.723,3.24
							C419.03,745.953,417.814,746,416.507,746z M301.046,699.381l43.214,13.24c0.096,0.029,0.186,0.072,0.268,0.131
							c0.315,0.218,31.627,21.912,39.931,25.479c8.335,3.581,26.573,6.514,35.485,5.701c4.763-0.433,5.914-1.691,6.187-2.213
							c0.3-0.572,0.039-1.088,0.036-1.093c-0.159-0.279-0.167-0.62-0.024-0.908c0.145-0.286,0.422-0.482,0.741-0.524
							c6.135-0.787,5.881-6.893,5.866-7.15c-0.021-0.396,0.2-0.764,0.56-0.93c4.37-2.016,3.025-8.288,3.014-8.353
							c-0.107-0.476,0.16-0.956,0.62-1.119c2.954-1.042,4.37-4.117,4.435-6.534c0.048-1.774-0.598-3.113-1.727-3.58
							c-3.696-1.533-37.846-10.632-57.778-12.098c-18.465-1.357-61.353-18.028-67.765-20.554L301.046,699.381z"/>
					</g>
					<path fill="#253238" d="M433.321,721.444c-0.063,0-0.125-0.005-0.188-0.018l-6.509-1.281c-0.523-0.104-0.863-0.611-0.761-1.134
						c0.103-0.523,0.614-0.862,1.134-0.762l6.508,1.282c0.524,0.104,0.863,0.61,0.762,1.134
						C434.177,721.126,433.772,721.444,433.321,721.444z"/>
				</g>
			</g>
			<g>
				<path fill="#FFFFFF" d="M157.421,519.013l83.087,19.761c18.332,4.36,29.853,22.53,25.978,40.971
					c-3.333,15.862-20.972,24.07-35.254,16.406l-76.634-41.124c-7.908-4.243-17.375-4.423-25.438-0.482l-38.216,18.679
					c0,0-0.441-5.905,5.617-12.062c6.058-6.156,18.357-11.243,18.357-11.243s-35.002,11.681-47.99-3.311
					c0,0,2.846-5.555,12.737-5.504l-12.737-8.622c0,0,2.894-8.957,12.563-5.749c9.669,3.207,31.42-0.925,31.42-0.925
					s-20.632-6.233-16.719-26.208c3.913-19.974,21.709-17.049,21.709-17.049l0.115,1.665c0.313,4.553-1.366,8.901-4.192,12.483
					c-0.984,1.247-1.546,3.236-0.914,6.406c1.771,8.876,5.123,11.998,11.693,10.458c9.017-2.113,7.332-8.393,4.471-13.149
					c-3.111-5.172-5.174-10.905-5.996-16.886l-0.118-0.854c0,0,10.617-7.575,18.248,11.938c2.137,5.464,3.728,9.596,4.911,12.714
					C146.346,513.186,151.323,517.563,157.421,519.013z"/>
				<path fill="#253238" d="M242.703,600.028c-4.092,0-8.173-1.013-11.928-3.027l-76.634-41.125
					c-7.613-4.085-16.795-4.26-24.558-0.464L91.367,574.09c-0.287,0.138-0.626,0.131-0.903-0.03
					c-0.278-0.159-0.459-0.446-0.482-0.766c-0.02-0.258-0.403-6.414,5.89-12.81c2.683-2.726,6.499-5.222,9.985-7.184
					c-11.501,2.444-30.548,4.452-39.658-6.061c-0.257-0.297-0.309-0.722-0.129-1.073c0.114-0.223,2.637-4.959,10.673-5.876
					l-10.355-7.011c-0.355-0.24-0.509-0.688-0.377-1.096c0.055-0.17,1.386-4.175,5.197-6.106c2.46-1.249,5.35-1.336,8.588-0.262
					c7.107,2.356,21.22,0.589,27.632-0.403c-5.817-2.8-17.236-10.404-14.182-25.998c4.046-20.654,22.626-17.851,22.813-17.816
					c0.442,0.073,0.776,0.439,0.807,0.885l0.115,1.665c0.313,4.557-1.208,9.103-4.398,13.149c-0.978,1.238-1.222,3.129-0.725,5.619
					c0.982,4.92,2.404,7.833,4.475,9.166c1.502,0.966,3.482,1.146,6.052,0.54c3.02-0.707,4.92-1.939,5.649-3.664
					c1.042-2.468-0.396-5.737-1.785-8.047c-3.228-5.368-5.289-11.172-6.124-17.253l-0.117-0.854
					c-0.049-0.355,0.103-0.708,0.394-0.917c0.149-0.107,3.707-2.587,8.311-1.217c4.568,1.359,8.402,5.932,11.398,13.591
					c1.926,4.927,3.58,9.207,4.913,12.723c2.114,5.567,6.832,9.714,12.621,11.09l83.087,19.76
					c18.984,4.516,30.713,23.011,26.699,42.108c-1.653,7.86-6.776,14.313-14.06,17.702
					C249.952,599.235,246.323,600.028,242.703,600.028z M141.404,550.755c4.704,0,9.403,1.144,13.649,3.421l76.634,41.125
					c6.537,3.507,14.143,3.726,20.87,0.594c6.727-3.131,11.458-9.089,12.985-16.35c3.796-18.064-7.298-35.562-25.257-39.833
					l-83.086-19.76c-6.412-1.524-11.637-6.116-13.979-12.284c-1.331-3.509-2.983-7.783-4.907-12.703
					c-2.721-6.958-6.22-11.258-10.12-12.434c-2.854-0.863-5.207,0.112-6.188,0.638l0.032,0.228c0.8,5.819,2.773,11.378,5.867,16.521
					c2.355,3.917,2.998,7.213,1.907,9.794c-0.981,2.323-3.332,3.935-6.986,4.793c-3.107,0.728-5.571,0.467-7.537-0.798
					c-2.541-1.636-4.232-4.943-5.323-10.412c-0.613-3.069-0.242-5.49,1.102-7.192c2.889-3.662,4.268-7.75,3.987-11.821l-0.06-0.866
					c-3.351-0.286-16.577-0.354-19.854,16.372c-3.703,18.899,15.243,24.854,16.05,25.097c0.426,0.129,0.708,0.531,0.686,0.975
					c-0.024,0.444-0.348,0.814-0.784,0.897c-0.898,0.172-22.109,4.141-31.903,0.895c-2.731-0.905-5.123-0.857-7.109,0.15
					c-2.263,1.146-3.471,3.253-3.963,4.32l12.09,8.185c0.352,0.238,0.507,0.679,0.38,1.084c-0.125,0.405-0.498,0.681-0.921,0.681
					c-0.045-0.014-0.091-0.001-0.137,0c-7.301,0-10.413,3.144-11.387,4.441c12.801,13.519,46.131,2.604,46.47,2.492
					c0.491-0.168,1.028,0.091,1.209,0.577c0.182,0.487-0.054,1.03-0.536,1.229c-0.12,0.05-12.19,5.085-18.038,11.028
					c-3.886,3.949-4.958,7.76-5.245,9.793l36.732-17.954C132.727,551.727,137.067,550.755,141.404,550.755z"/>
			</g>
			<g>
				<path fill="#FFFFFF" d="M579.704,519.013l-83.086,19.761c-18.333,4.36-29.854,22.53-25.978,40.971
					c3.332,15.862,20.972,24.07,35.253,16.406l76.635-41.124c7.908-4.243,17.375-4.423,25.438-0.482l38.216,18.679
					c0,0,0.442-5.905-5.615-12.062c-6.059-6.156-18.358-11.243-18.358-11.243s35.002,11.681,47.989-3.311
					c0,0-2.845-5.555-12.737-5.504l12.737-8.622c0,0-2.894-8.957-12.563-5.749c-9.669,3.207-31.419-0.925-31.419-0.925
					s20.631-6.233,16.719-26.208c-3.914-19.974-21.71-17.049-21.71-17.049l-0.114,1.665c-0.315,4.553,1.365,8.901,4.191,12.483
					c0.983,1.247,1.546,3.236,0.914,6.406c-1.771,8.876-5.123,11.998-11.694,10.458c-9.017-2.113-7.331-8.393-4.47-13.149
					c3.111-5.172,5.172-10.905,5.994-16.886l0.118-0.854c0,0-10.617-7.575-18.248,11.938c-2.137,5.464-3.728,9.596-4.911,12.714
					C590.78,513.186,585.802,517.563,579.704,519.013z"/>
				<path fill="#253238" d="M494.423,600.028c-3.62,0-7.248-0.792-10.666-2.383c-7.284-3.389-12.409-9.842-14.062-17.703
					c-4.015-19.098,7.715-37.593,26.698-42.108l83.089-19.76c5.787-1.376,10.505-5.522,12.62-11.09
					c1.348-3.554,3.002-7.835,4.914-12.723c2.995-7.659,6.83-12.231,11.396-13.591c4.608-1.368,8.161,1.11,8.311,1.217
					c0.29,0.208,0.444,0.562,0.396,0.916l-0.116,0.855c-0.838,6.083-2.899,11.887-6.125,17.253c-1.39,2.31-2.827,5.579-1.785,8.047
					c0.729,1.725,2.629,2.957,5.649,3.664c2.572,0.604,4.551,0.426,6.052-0.54c2.071-1.333,3.493-4.246,4.474-9.166
					c0.497-2.49,0.253-4.381-0.725-5.619c-3.189-4.047-4.711-8.593-4.397-13.148l0.114-1.666c0.031-0.445,0.365-0.812,0.807-0.885
					c0.188-0.034,18.767-2.838,22.814,17.816c3.054,15.594-8.364,23.197-14.182,25.998c6.412,0.992,20.527,2.76,27.631,0.403
					c3.237-1.074,6.128-0.987,8.589,0.262c3.812,1.932,5.142,5.937,5.196,6.106c0.132,0.408-0.021,0.855-0.377,1.096l-10.355,7.011
					c8.037,0.917,10.56,5.653,10.673,5.876c0.181,0.352,0.129,0.776-0.13,1.073c-9.106,10.513-28.155,8.506-39.656,6.062
					c3.486,1.961,7.301,4.457,9.984,7.183c6.292,6.396,5.91,12.552,5.891,12.81c-0.023,0.319-0.204,0.606-0.481,0.766
					c-0.28,0.161-0.617,0.168-0.904,0.03l-38.216-18.678c-7.762-3.796-16.943-3.622-24.56,0.464l-76.633,41.125
					C502.597,599.016,498.514,600.028,494.423,600.028z M579.929,519.952l-83.088,19.76c-17.959,4.271-29.054,21.769-25.257,39.833
					c1.527,7.261,6.26,13.221,12.986,16.351c6.724,3.129,14.329,2.91,20.868-0.595l76.634-41.125c8.16-4.378,18-4.563,26.318-0.499
					l36.723,17.949c-0.296-2.042-1.377-5.867-5.236-9.788c-5.852-5.947-17.917-10.979-18.037-11.028
					c-0.481-0.198-0.719-0.742-0.536-1.229c0.182-0.488,0.719-0.745,1.209-0.577c0.341,0.112,33.678,11.021,46.471-2.493
					c-0.975-1.301-4.159-4.474-11.519-4.44c0,0-0.003,0-0.005,0c-0.423,0-0.796-0.275-0.921-0.681
					c-0.126-0.405,0.029-0.846,0.38-1.084l12.088-8.185c-0.498-1.07-1.719-3.191-3.978-4.329c-1.981-0.999-4.368-1.044-7.092-0.142
					c-9.793,3.247-31.006-0.723-31.903-0.895c-0.437-0.083-0.76-0.453-0.783-0.896s0.258-0.846,0.684-0.976
					c0.808-0.245,19.748-6.231,16.052-25.097c-3.275-16.726-16.496-16.669-19.854-16.372l-0.06,0.868
					c-0.281,4.069,1.098,8.157,3.986,11.819c1.344,1.702,1.715,4.123,1.103,7.192c-1.092,5.469-2.782,8.776-5.323,10.412
					c-1.964,1.265-4.428,1.525-7.536,0.798c-3.654-0.858-6.006-2.47-6.986-4.793c-1.09-2.581-0.448-5.877,1.908-9.794
					c3.092-5.141,5.065-10.698,5.866-16.521l0.03-0.228c-0.976-0.524-3.332-1.501-6.188-0.638
					c-3.898,1.176-7.397,5.476-10.118,12.434c-1.911,4.882-3.562,9.156-4.908,12.703
					C591.564,513.836,586.339,518.428,579.929,519.952z"/>
			</g>
		</g>
	</g>
	<g>
		<g>
			<g>
				<path fill="#FFFFFF" d="M697.62,368.469h25.578c2.118,0,3.837-1.718,3.837-3.836V226.33c0-2.361-1.915-4.275-4.276-4.275
					h-64.812L697.62,368.469z"/>
				<path fill="#253238" d="M723.198,369.434H697.62c-0.533,0-0.966-0.432-0.966-0.965c0-0.534,0.433-0.965,0.966-0.965h25.578
					c1.584,0,2.871-1.288,2.871-2.873V226.33c0-1.826-1.485-3.311-3.311-3.311h-64.812c-0.533,0-0.965-0.432-0.965-0.965
					s0.432-0.965,0.965-0.965h64.812c2.89,0,5.241,2.352,5.241,5.241v138.302C728,367.28,725.847,369.434,723.198,369.434z"/>
			</g>
			<g>
				<path fill="#FFFFFF" d="M696.791,374.741c-0.273,1.384-1.487,2.381-2.897,2.381H544.444c-1.86,0-3.258-1.7-2.896-3.526
					l29.714-149.201c0.274-1.384,1.487-2.381,2.898-2.381h149.447c1.862,0,3.26,1.701,2.897,3.527L696.791,374.741z"/>
				<path fill="#253238" d="M693.894,378.087H544.444c-1.177,0-2.28-0.521-3.026-1.431c-0.748-0.909-1.045-2.093-0.817-3.248
					l29.716-149.202c0.361-1.829,1.977-3.158,3.844-3.158h149.447c1.178,0,2.281,0.522,3.028,1.432
					c0.748,0.91,1.046,2.093,0.817,3.248L697.738,374.93C697.375,376.76,695.759,378.087,693.894,378.087z M574.16,222.979
					c-0.946,0-1.768,0.674-1.951,1.602l-29.715,149.203c-0.115,0.585,0.036,1.186,0.415,1.647c0.378,0.46,0.938,0.726,1.535,0.726
					h149.449c0.946,0,1.767-0.674,1.951-1.604l29.716-149.201c0.114-0.584-0.037-1.185-0.415-1.646
					c-0.38-0.462-0.939-0.727-1.538-0.727H574.16z"/>
			</g>
		</g>
		<g>
			<path fill="#253238" d="M582.188,318.132h-17.326c-0.288,0-0.561-0.128-0.744-0.35c-0.183-0.221-0.258-0.514-0.204-0.796
				l3.127-16.431c0.087-0.455,0.485-0.784,0.949-0.784h17.325c0.287,0,0.561,0.128,0.744,0.349c0.183,0.222,0.259,0.514,0.204,0.797
				l-3.128,16.43C583.05,317.803,582.65,318.132,582.188,318.132z M566.027,316.202h15.361l2.762-14.5h-15.362L566.027,316.202z"/>
			<polygon fill="#FFFFFF" points="584.354,317.167 587.481,300.736 604.807,300.736 601.68,317.167 			"/>
			<path fill="#253238" d="M621.171,318.132h-17.326c-0.287,0-0.56-0.128-0.743-0.35c-0.183-0.221-0.259-0.514-0.204-0.796
				l3.128-16.431c0.087-0.455,0.484-0.784,0.948-0.784H624.3c0.287,0,0.56,0.128,0.743,0.349c0.183,0.222,0.258,0.514,0.203,0.797
				l-3.127,16.43C622.032,317.803,621.635,318.132,621.171,318.132z M605.012,316.202h15.361l2.76-14.5h-15.361L605.012,316.202z"/>
			<polygon fill="#FFFFFF" points="623.336,317.167 626.465,300.736 643.791,300.736 640.662,317.167 			"/>
			<path fill="#253238" d="M660.153,318.132h-17.325c-0.287,0-0.56-0.128-0.744-0.35c-0.182-0.221-0.258-0.514-0.204-0.796
				l3.129-16.431c0.086-0.455,0.483-0.784,0.947-0.784h17.326c0.287,0,0.56,0.128,0.743,0.349c0.183,0.222,0.258,0.514,0.205,0.797
				l-3.128,16.43C661.015,317.803,660.618,318.132,660.153,318.132z M643.994,316.202h15.362l2.759-14.5h-15.361L643.994,316.202z"
				/>
			<polygon fill="#FFFFFF" points="662.319,317.167 665.448,300.736 682.773,300.736 679.646,317.167 			"/>
			<path fill="#253238" d="M699.138,318.132h-17.327c-0.287,0-0.561-0.128-0.743-0.35c-0.184-0.221-0.259-0.514-0.205-0.796
				l3.129-16.431c0.087-0.455,0.485-0.784,0.948-0.784h17.325c0.288,0,0.561,0.128,0.744,0.349c0.184,0.222,0.259,0.514,0.205,0.797
				l-3.129,16.43C699.999,317.803,699.601,318.132,699.138,318.132z M682.977,316.202h15.362l2.761-14.5h-15.361L682.977,316.202z"
				/>
			<polygon fill="#FFFFFF" points="561.396,335.532 564.525,319.102 581.852,319.102 578.722,335.532 			"/>
			<path fill="#253238" d="M598.213,336.497h-17.325c-0.288,0-0.56-0.128-0.743-0.35c-0.183-0.222-0.258-0.514-0.204-0.796
				l3.128-16.43c0.087-0.455,0.483-0.784,0.948-0.784h17.326c0.288,0,0.56,0.128,0.744,0.35c0.182,0.222,0.258,0.514,0.204,0.796
				l-3.13,16.431C599.075,336.168,598.678,336.497,598.213,336.497z M582.054,334.567h15.361l2.763-14.5h-15.363L582.054,334.567z"
				/>
			<polygon fill="#FFFFFF" points="600.38,335.532 603.508,319.102 620.834,319.102 617.706,335.532 			"/>
			<path fill="#253238" d="M637.197,336.497h-17.326c-0.287,0-0.561-0.128-0.743-0.35c-0.184-0.222-0.259-0.514-0.205-0.796
				l3.128-16.43c0.087-0.455,0.485-0.784,0.948-0.784h17.325c0.288,0,0.562,0.128,0.744,0.35c0.184,0.222,0.259,0.514,0.204,0.796
				l-3.127,16.431C638.059,336.168,637.66,336.497,637.197,336.497z M621.037,334.567h15.361l2.761-14.5h-15.361L621.037,334.567z"
				/>
			<polygon fill="#FFFFFF" points="639.363,335.532 642.49,319.102 659.816,319.102 656.688,335.532 			"/>
			<path fill="#253238" d="M676.18,336.497h-17.325c-0.288,0-0.56-0.128-0.744-0.35c-0.183-0.222-0.259-0.514-0.204-0.796
				l3.128-16.43c0.087-0.455,0.484-0.784,0.948-0.784h17.326c0.287,0,0.56,0.128,0.743,0.35c0.183,0.222,0.258,0.514,0.205,0.796
				l-3.128,16.431C677.041,336.168,676.645,336.497,676.18,336.497z M660.021,334.567h15.362l2.759-14.5H662.78L660.021,334.567z"/>
			<polygon fill="#FFFFFF" points="678.346,335.532 681.475,319.102 698.8,319.102 695.672,335.532 			"/>
			<path fill="#253238" d="M589.117,281.401h-17.325c-0.288,0-0.56-0.128-0.743-0.349c-0.184-0.222-0.259-0.514-0.205-0.796
				l3.128-16.431c0.087-0.456,0.484-0.784,0.948-0.784h17.326c0.287,0,0.56,0.128,0.743,0.35c0.183,0.221,0.259,0.514,0.205,0.796
				l-3.129,16.432C589.979,281.072,589.581,281.401,589.117,281.401z M572.958,279.471h15.361l2.762-14.501h-15.362L572.958,279.471
				z"/>
			<polygon fill="#FFFFFF" points="591.292,280.418 594.421,263.988 611.746,263.988 608.617,280.418 			"/>
			<path fill="#253238" d="M628.102,281.401h-17.326c-0.288,0-0.561-0.128-0.744-0.349c-0.184-0.222-0.258-0.514-0.204-0.796
				l3.128-16.431c0.087-0.456,0.484-0.784,0.948-0.784h17.325c0.287,0,0.561,0.128,0.744,0.35c0.183,0.221,0.259,0.514,0.204,0.796
				l-3.128,16.432C628.963,281.072,628.564,281.401,628.102,281.401z M611.94,279.471h15.362l2.761-14.501h-15.362L611.94,279.471z"
				/>
			<polygon fill="#FFFFFF" points="630.267,280.436 633.396,264.005 650.722,264.005 647.593,280.436 			"/>
			<path fill="#253238" d="M667.084,281.401h-17.326c-0.287,0-0.56-0.128-0.743-0.349c-0.183-0.222-0.258-0.514-0.205-0.796
				l3.129-16.431c0.087-0.456,0.484-0.784,0.948-0.784h17.326c0.287,0,0.56,0.128,0.743,0.35c0.183,0.221,0.258,0.514,0.204,0.796
				l-3.128,16.432C667.945,281.072,667.548,281.401,667.084,281.401z M650.925,279.471h15.361l2.76-14.501h-15.361L650.925,279.471z
				"/>
			<polygon fill="#FFFFFF" points="669.25,280.436 672.378,264.005 689.704,264.005 686.575,280.436 			"/>
			<path fill="#253238" d="M706.066,281.401h-17.325c-0.287,0-0.56-0.128-0.743-0.349c-0.183-0.222-0.258-0.514-0.204-0.796
				l3.127-16.431c0.087-0.456,0.484-0.784,0.948-0.784h17.326c0.287,0,0.56,0.128,0.743,0.35c0.183,0.221,0.259,0.514,0.205,0.796
				l-3.128,16.432C706.929,281.072,706.531,281.401,706.066,281.401z M689.907,279.471h15.362l2.76-14.501h-15.361L689.907,279.471z
				"/>
			<polygon fill="#FFFFFF" points="568.327,298.801 571.455,282.371 588.781,282.371 585.652,298.801 			"/>
			<polygon fill="#FFFFFF" points="587.818,298.801 590.947,282.371 608.272,282.371 605.144,298.801 			"/>
			<polygon fill="#FFFFFF" points="607.31,298.801 610.438,282.371 627.765,282.371 624.636,298.801 			"/>
			<path fill="#253238" d="M644.128,299.767h-17.326c-0.288,0-0.561-0.128-0.744-0.35s-0.258-0.514-0.204-0.796l3.129-16.431
				c0.086-0.456,0.484-0.784,0.947-0.784h17.326c0.287,0,0.561,0.128,0.743,0.35c0.184,0.221,0.259,0.514,0.205,0.796l-3.13,16.432
				C644.988,299.438,644.591,299.767,644.128,299.767z M627.967,297.836h15.361l2.763-14.501h-15.361L627.967,297.836z"/>
			<polygon fill="#FFFFFF" points="646.293,298.801 649.421,282.371 666.747,282.371 663.619,298.801 			"/>
			<polygon fill="#FFFFFF" points="685.046,298.801 688.174,282.371 705.499,282.371 702.371,298.801 			"/>
			<path fill="#253238" d="M683.11,299.767h-17.325c-0.288,0-0.561-0.128-0.744-0.35s-0.259-0.514-0.205-0.796l3.13-16.431
				c0.087-0.456,0.484-0.784,0.947-0.784h17.326c0.287,0,0.56,0.128,0.743,0.35c0.184,0.221,0.259,0.514,0.205,0.796l-3.129,16.432
				C683.972,299.438,683.574,299.767,683.11,299.767z M666.95,297.836h15.361l2.762-14.501h-15.361L666.95,297.836z"/>
		</g>
		<g>
			<path fill="#253238" d="M602.8,222.688c-0.532,0-0.964-0.432-0.964-0.965c0-2.633-0.854-5.12-2.47-7.191
				c-0.327-0.42-0.253-1.027,0.168-1.355c0.421-0.326,1.027-0.253,1.355,0.167c1.881,2.414,2.876,5.311,2.876,8.378
				C603.766,222.256,603.334,222.688,602.8,222.688z"/>
			<path fill="#253238" d="M590.127,235.362c-7.521,0-13.64-6.118-13.64-13.64c0-7.52,6.118-13.639,13.64-13.639
				c2.85,0,5.579,0.87,7.894,2.516c0.436,0.309,0.536,0.912,0.229,1.346c-0.311,0.433-0.913,0.537-1.347,0.228
				c-1.986-1.413-4.329-2.159-6.775-2.159c-6.457,0-11.709,5.252-11.709,11.708c0,6.457,5.252,11.71,11.709,11.71
				c0.533,0,0.964,0.432,0.964,0.965S590.66,235.362,590.127,235.362z"/>
			<path fill="#253238" d="M619.78,222.688c-0.534,0-0.966-0.432-0.966-0.965c0-2.698-0.892-5.232-2.578-7.329
				c-0.332-0.416-0.267-1.023,0.147-1.357c0.415-0.334,1.024-0.267,1.357,0.147c1.937,2.409,3.003,5.441,3.003,8.539
				C620.744,222.256,620.313,222.688,619.78,222.688z"/>
			<path fill="#253238" d="M607.105,235.362c-7.52,0-13.639-6.118-13.639-13.64c0-7.52,6.119-13.639,13.639-13.639
				c2.691,0,5.294,0.783,7.529,2.265c0.444,0.294,0.565,0.893,0.271,1.337c-0.297,0.443-0.895,0.566-1.338,0.271
				c-1.918-1.271-4.152-1.942-6.463-1.942c-6.455,0-11.708,5.252-11.708,11.708c0,6.457,5.253,11.71,11.708,11.71
				c0.533,0,0.966,0.432,0.966,0.965S607.639,235.362,607.105,235.362z"/>
			<path fill="#253238" d="M636.758,222.688c-0.533,0-0.965-0.432-0.965-0.965c0-2.705-0.943-5.342-2.655-7.426
				c-0.338-0.412-0.278-1.02,0.134-1.358c0.41-0.34,1.021-0.277,1.356,0.133c1.997,2.428,3.096,5.501,3.096,8.651
				C637.724,222.256,637.292,222.688,636.758,222.688z"/>
			<path fill="#253238" d="M624.085,235.362c-7.521,0-13.639-6.118-13.639-13.64c0-7.52,6.118-13.639,13.639-13.639
				c2.805,0,5.5,0.845,7.792,2.443c0.437,0.305,0.543,0.907,0.239,1.344c-0.305,0.437-0.906,0.543-1.344,0.24
				c-1.966-1.372-4.279-2.096-6.688-2.096c-6.456,0-11.708,5.252-11.708,11.708c0,6.457,5.252,11.71,11.708,11.71
				c0.534,0,0.965,0.432,0.965,0.965S624.619,235.362,624.085,235.362z"/>
			<path fill="#253238" d="M653.739,222.688c-0.534,0-0.966-0.432-0.966-0.965c0-2.741-0.968-5.407-2.724-7.507
				c-0.343-0.409-0.288-1.018,0.12-1.359c0.412-0.344,1.02-0.287,1.359,0.121c2.048,2.447,3.174,5.553,3.174,8.746
				C654.703,222.256,654.272,222.688,653.739,222.688z"/>
			<path fill="#253238" d="M641.063,235.362c-7.52,0-13.639-6.118-13.639-13.64c0-7.52,6.119-13.639,13.639-13.639
				c2.733,0,5.37,0.806,7.626,2.329c0.442,0.299,0.559,0.898,0.261,1.34c-0.299,0.441-0.898,0.557-1.34,0.26
				c-1.938-1.308-4.201-1.999-6.547-1.999c-6.456,0-11.708,5.252-11.708,11.708c0,6.457,5.252,11.71,11.708,11.71
				c0.533,0,0.966,0.432,0.966,0.965S641.597,235.362,641.063,235.362z"/>
			<path fill="#253238" d="M670.717,222.688c-0.533,0-0.965-0.432-0.965-0.965c0-2.672-0.876-5.188-2.533-7.274
				c-0.332-0.417-0.263-1.024,0.154-1.356c0.417-0.331,1.024-0.261,1.356,0.155c1.933,2.431,2.953,5.362,2.953,8.475
				C671.683,222.256,671.25,222.688,670.717,222.688z"/>
			<path fill="#253238" d="M658.044,235.362c-7.521,0-13.64-6.118-13.64-13.64c0-7.52,6.118-13.639,13.64-13.639
				c2.723,0,5.35,0.8,7.6,2.313c0.443,0.298,0.561,0.898,0.264,1.339c-0.297,0.442-0.896,0.562-1.339,0.263
				c-1.932-1.299-4.188-1.985-6.524-1.985c-6.457,0-11.709,5.252-11.709,11.708c0,6.457,5.252,11.71,11.709,11.71
				c0.533,0,0.965,0.432,0.965,0.965S658.577,235.362,658.044,235.362z"/>
			<path fill="#253238" d="M687.696,222.688c-0.533,0-0.966-0.432-0.966-0.965c0-2.657-0.867-5.162-2.508-7.244
				c-0.33-0.418-0.259-1.025,0.16-1.355c0.42-0.329,1.026-0.257,1.355,0.16c1.912,2.425,2.923,5.344,2.923,8.439
				C688.661,222.256,688.229,222.688,687.696,222.688z"/>
			<path fill="#253238" d="M675.022,235.362c-7.52,0-13.639-6.118-13.639-13.64c0-7.52,6.119-13.639,13.639-13.639
				c2.659,0,5.235,0.767,7.453,2.215c0.446,0.292,0.572,0.89,0.28,1.336c-0.29,0.447-0.89,0.572-1.336,0.28
				c-1.902-1.243-4.114-1.9-6.397-1.9c-6.456,0-11.709,5.252-11.709,11.708c0,6.457,5.253,11.71,11.709,11.71
				c0.533,0,0.966,0.432,0.966,0.965S675.556,235.362,675.022,235.362z"/>
			<path fill="#253238" d="M704.676,222.688c-0.533,0-0.965-0.432-0.965-0.965c0-2.688-0.934-5.313-2.631-7.395
				c-0.336-0.413-0.273-1.021,0.139-1.358c0.415-0.337,1.022-0.272,1.359,0.139c1.975,2.424,3.063,5.483,3.063,8.614
				C705.642,222.256,705.209,222.688,704.676,222.688z"/>
			<path fill="#253238" d="M692.002,235.362c-7.521,0-13.639-6.118-13.639-13.64c0-7.52,6.117-13.639,13.639-13.639
				c2.646,0,5.215,0.76,7.426,2.198c0.448,0.29,0.574,0.888,0.284,1.334c-0.291,0.447-0.889,0.576-1.335,0.283
				c-1.898-1.233-4.103-1.885-6.375-1.885c-6.457,0-11.708,5.252-11.708,11.708c0,6.457,5.251,11.71,11.708,11.71
				c0.533,0,0.965,0.432,0.965,0.965S692.535,235.362,692.002,235.362z"/>
			<path fill="#253238" d="M708.981,235.362c-7.521,0-13.64-6.118-13.64-13.64c0-7.52,6.119-13.639,13.64-13.639
				s13.639,6.119,13.639,13.639c0,0.534-0.432,0.965-0.965,0.965s-0.966-0.432-0.966-0.965c0-6.456-5.252-11.708-11.708-11.708
				c-6.457,0-11.71,5.252-11.71,11.708c0,6.457,5.253,11.71,11.71,11.71c0.533,0,0.966,0.432,0.966,0.965
				S709.515,235.362,708.981,235.362z"/>
			<path fill="#253238" d="M590.371,237.678c-0.927,0-1.818-0.391-2.444-1.074c-0.36-0.392-0.334-1.003,0.059-1.364
				c0.391-0.359,1.003-0.333,1.364,0.059c0.265,0.29,0.627,0.449,1.021,0.449c0.765,0,1.387-0.622,1.387-1.386
				s-0.622-1.386-1.387-1.386c-0.447,0-0.855,0.207-1.119,0.568c-0.313,0.431-0.917,0.526-1.348,0.211
				c-0.431-0.314-0.526-0.918-0.212-1.348c0.622-0.854,1.624-1.362,2.679-1.362c1.828,0,3.317,1.488,3.317,3.317
				S592.199,237.678,590.371,237.678z"/>
			<path fill="#253238" d="M607.058,237.678c-0.928,0-1.817-0.391-2.444-1.074c-0.36-0.392-0.334-1.003,0.06-1.364
				c0.39-0.359,1.001-0.333,1.363,0.059c0.265,0.29,0.628,0.449,1.021,0.449c0.764,0,1.387-0.622,1.387-1.386
				s-0.623-1.386-1.387-1.386c-0.447,0-0.857,0.207-1.12,0.569c-0.315,0.432-0.92,0.524-1.349,0.21
				c-0.432-0.315-0.523-0.919-0.21-1.349c0.623-0.853,1.624-1.361,2.679-1.361c1.828,0,3.316,1.488,3.316,3.317
				S608.886,237.678,607.058,237.678z"/>
			<path fill="#253238" d="M623.742,237.678c-0.926,0-1.816-0.391-2.443-1.074c-0.359-0.392-0.334-1.003,0.06-1.364
				c0.391-0.359,1.002-0.333,1.363,0.059c0.266,0.29,0.629,0.449,1.021,0.449c0.766,0,1.387-0.622,1.387-1.386
				s-0.621-1.386-1.387-1.386c-0.446,0-0.855,0.207-1.119,0.569c-0.315,0.432-0.92,0.524-1.349,0.21
				c-0.431-0.315-0.524-0.919-0.21-1.349c0.623-0.853,1.625-1.361,2.678-1.361c1.829,0,3.317,1.488,3.317,3.317
				S625.571,237.678,623.742,237.678z"/>
			<path fill="#253238" d="M640.907,237.678c-0.926,0-1.817-0.391-2.443-1.074c-0.36-0.392-0.334-1.003,0.059-1.364
				c0.391-0.359,1.002-0.333,1.364,0.059c0.266,0.29,0.628,0.449,1.021,0.449c0.765,0,1.387-0.622,1.387-1.386
				s-0.622-1.386-1.387-1.386c-0.446,0-0.855,0.207-1.12,0.569c-0.315,0.432-0.919,0.524-1.349,0.21
				c-0.43-0.315-0.523-0.919-0.209-1.349c0.622-0.853,1.624-1.361,2.678-1.361c1.829,0,3.316,1.488,3.316,3.317
				S642.736,237.678,640.907,237.678z"/>
			<path fill="#253238" d="M657.77,237.678c-0.927,0-1.816-0.391-2.444-1.074c-0.359-0.392-0.333-1.003,0.061-1.364
				c0.389-0.359,1.001-0.333,1.362,0.059c0.266,0.29,0.628,0.449,1.021,0.449c0.765,0,1.387-0.622,1.387-1.386
				s-0.622-1.386-1.387-1.386c-0.447,0-0.856,0.207-1.12,0.569c-0.313,0.432-0.919,0.524-1.348,0.21
				c-0.432-0.315-0.524-0.919-0.211-1.349c0.624-0.853,1.625-1.361,2.679-1.361c1.829,0,3.316,1.488,3.316,3.317
				S659.599,237.678,657.77,237.678z"/>
			<path fill="#253238" d="M675.438,237.678c-0.928,0-1.817-0.391-2.444-1.074c-0.36-0.392-0.334-1.003,0.059-1.364
				c0.391-0.359,1.003-0.333,1.364,0.059c0.265,0.29,0.628,0.449,1.021,0.449c0.765,0,1.385-0.622,1.385-1.386
				s-0.62-1.386-1.385-1.386c-0.448,0-0.856,0.207-1.12,0.569c-0.316,0.432-0.92,0.524-1.35,0.21
				c-0.431-0.315-0.524-0.919-0.21-1.349c0.623-0.853,1.625-1.361,2.68-1.361c1.829,0,3.315,1.488,3.315,3.317
				S677.268,237.678,675.438,237.678z"/>
			<path fill="#253238" d="M692.124,237.678c-0.928,0-1.818-0.391-2.444-1.074c-0.36-0.392-0.334-1.003,0.059-1.364
				c0.391-0.359,1.004-0.333,1.364,0.059c0.265,0.29,0.627,0.449,1.021,0.449c0.764,0,1.387-0.622,1.387-1.386
				s-0.623-1.386-1.387-1.386c-0.447,0-0.855,0.207-1.12,0.568c-0.312,0.431-0.916,0.526-1.347,0.211
				c-0.431-0.314-0.526-0.918-0.212-1.348c0.622-0.854,1.624-1.362,2.679-1.362c1.828,0,3.317,1.488,3.317,3.317
				S693.952,237.678,692.124,237.678z"/>
			<path fill="#253238" d="M708.81,237.678c-0.926,0-1.816-0.391-2.443-1.074c-0.36-0.392-0.334-1.003,0.06-1.364
				c0.391-0.359,1.002-0.333,1.363,0.059c0.265,0.29,0.628,0.449,1.021,0.449c0.765,0,1.387-0.622,1.387-1.386
				s-0.622-1.386-1.387-1.386c-0.446,0-0.855,0.207-1.119,0.569c-0.315,0.432-0.919,0.524-1.349,0.21
				c-0.431-0.315-0.523-0.919-0.21-1.349c0.623-0.853,1.624-1.361,2.678-1.361c1.829,0,3.317,1.488,3.317,3.317
				S710.639,237.678,708.81,237.678z"/>
		</g>
	</g>
	<g>
		<path fill="#253238" d="M70.822,694.005c-1.108,0-2.233-0.252-3.289-0.787c-1.74-0.882-3.032-2.389-3.639-4.242
			s-0.455-3.831,0.427-5.571c1.819-3.589,6.219-5.033,9.813-3.211c1.74,0.881,3.031,2.388,3.638,4.241s0.455,3.831-0.427,5.571
			C76.061,692.541,73.488,694.005,70.822,694.005z M70.842,681.335c-1.96,0-3.854,1.076-4.799,2.942
			c-1.338,2.641-0.279,5.88,2.362,7.22c2.638,1.336,5.879,0.278,7.219-2.363c1.338-2.642,0.278-5.881-2.363-7.22
			C72.486,681.521,71.658,681.335,70.842,681.335z M65.183,683.841h0.009H65.183z"/>
		<path fill="#253238" d="M719.252,452.588c-1.109,0-2.234-0.254-3.288-0.788c-3.591-1.819-5.031-6.222-3.211-9.813
			c1.819-3.59,6.222-5.034,9.813-3.212c3.589,1.82,5.03,6.223,3.21,9.814C724.491,451.125,721.917,452.588,719.252,452.588z
			 M719.273,439.918c-1.96,0-3.854,1.077-4.799,2.942c-1.339,2.641-0.279,5.88,2.361,7.219c2.643,1.339,5.88,0.277,7.22-2.362
			c1.339-2.643,0.278-5.88-2.363-7.22C720.917,440.104,720.09,439.918,719.273,439.918z M713.613,442.423h0.01H713.613z"/>
		<g>
			<path fill="#253238" d="M629.782,162.251c-0.19,0-0.383-0.055-0.551-0.173l-3.024-2.106c-0.437-0.305-0.546-0.906-0.239-1.343
				c0.304-0.438,0.904-0.547,1.343-0.24l3.024,2.105c0.438,0.305,0.546,0.906,0.239,1.343
				C630.388,162.107,630.088,162.251,629.782,162.251z"/>
			<path fill="#253238" d="M640.366,169.62c-0.19,0-0.382-0.056-0.55-0.173l-3.023-2.105c-0.438-0.305-0.546-0.906-0.24-1.343
				c0.303-0.438,0.904-0.546,1.343-0.24l3.023,2.105c0.438,0.304,0.546,0.906,0.24,1.343
				C640.972,169.476,640.672,169.62,640.366,169.62z"/>
			<path fill="#253238" d="M628.866,171.715c-0.188,0-0.379-0.054-0.546-0.169c-0.439-0.302-0.55-0.903-0.248-1.342l2.087-3.037
				c0.302-0.439,0.903-0.551,1.342-0.249c0.438,0.302,0.55,0.903,0.248,1.343l-2.086,3.036
				C629.475,171.569,629.174,171.715,628.866,171.715z"/>
			<path fill="#253238" d="M636.172,161.087c-0.189,0-0.379-0.054-0.546-0.169c-0.439-0.303-0.55-0.903-0.249-1.342l2.088-3.037
				c0.304-0.439,0.903-0.55,1.342-0.249c0.439,0.303,0.55,0.903,0.248,1.342l-2.087,3.037
				C636.78,160.941,636.479,161.087,636.172,161.087z"/>
		</g>
		<g>
			<path fill="#253238" d="M39.125,646.808c-0.011,0-0.022,0-0.034-0.001c-0.533-0.018-0.95-0.465-0.931-0.997l0.174-5.089
				c0.019-0.533,0.469-0.961,0.997-0.931c0.533,0.018,0.95,0.465,0.931,0.997l-0.174,5.088
				C40.07,646.396,39.642,646.808,39.125,646.808z"/>
			<path fill="#253238" d="M38.517,664.619c-0.011,0-0.022,0-0.034,0c-0.533-0.019-0.95-0.465-0.931-0.998l0.173-5.089
				c0.017-0.532,0.461-0.972,0.997-0.931c0.533,0.019,0.95,0.465,0.931,0.998l-0.173,5.088
				C39.463,664.209,39.034,664.619,38.517,664.619z"/>
			<path fill="#253238" d="M32.545,652.99c-0.009,0-0.019,0-0.028,0l-5.091-0.144c-0.533-0.015-0.953-0.459-0.938-0.992
				c0.015-0.533,0.442-0.954,0.992-0.938l5.091,0.145c0.533,0.015,0.953,0.459,0.938,0.992
				C33.494,652.575,33.065,652.99,32.545,652.99z"/>
			<path fill="#253238" d="M50.36,653.491c-0.009,0-0.019,0-0.028,0l-5.089-0.143c-0.532-0.016-0.953-0.459-0.938-0.993
				c0.015-0.532,0.476-0.926,0.993-0.938l5.089,0.144c0.533,0.015,0.953,0.458,0.938,0.992
				C51.309,653.077,50.88,653.491,50.36,653.491z"/>
		</g>
		<g>
			<path fill="#253238" d="M627.896,137.461c-0.264,0-0.525-0.107-0.717-0.318c-25.876-28.693-57.235-53.016-93.207-72.291
				c-0.471-0.252-0.646-0.837-0.396-1.308c0.253-0.468,0.837-0.644,1.308-0.395c36.169,19.382,67.703,43.841,93.729,72.7
				c0.357,0.396,0.325,1.007-0.07,1.363C628.357,137.379,628.126,137.461,627.896,137.461z"/>
			<path fill="#253238" d="M593.551,129.392c-0.247,0-0.494-0.095-0.682-0.282c-33.529-33.484-74.82-59.275-122.726-76.655
				c-0.502-0.182-0.76-0.736-0.58-1.237c0.183-0.502,0.736-0.758,1.237-0.578c48.174,17.478,89.702,43.419,123.434,77.104
				c0.376,0.377,0.376,0.988,0,1.366C594.046,129.297,593.798,129.392,593.551,129.392z"/>
		</g>
		<g>
			<path fill="#253238" d="M97.385,198.404c-0.642,0-1.295-0.099-1.939-0.308c-1.601-0.52-2.902-1.63-3.667-3.129
				c-0.764-1.499-0.898-3.206-0.379-4.805c1.071-3.301,4.625-5.121,7.933-4.045c1.6,0.519,2.902,1.63,3.666,3.129
				c0.764,1.499,0.898,3.205,0.379,4.804C102.517,196.709,100.041,198.404,97.385,198.404z M97.393,187.739
				c-1.842,0-3.558,1.175-4.156,3.019c-0.361,1.109-0.267,2.293,0.263,3.333c0.53,1.038,1.433,1.809,2.542,2.169
				c2.291,0.743,4.757-0.515,5.501-2.805c0.36-1.109,0.267-2.293-0.263-3.333c-0.53-1.038-1.433-1.809-2.542-2.169
				C98.291,187.808,97.839,187.739,97.393,187.739z"/>
			<path fill="#253238" d="M114.284,171.942c-0.201,0-0.402-0.063-0.576-0.191c-0.427-0.318-0.516-0.923-0.197-1.351
				c30.639-41.111,62.583-64.694,83.986-77.24c23.23-13.617,39.46-17.554,39.622-17.592c0.515-0.124,1.038,0.197,1.161,0.717
				c0.124,0.518-0.198,1.039-0.716,1.161c-0.636,0.151-64.297,16.007-122.504,94.107C114.87,171.808,114.58,171.942,114.284,171.942
				z"/>
			<path fill="#253238" d="M132.519,123.217c-0.245,0-0.489-0.092-0.678-0.278c-0.38-0.375-0.384-0.985-0.01-1.365
				c60.831-61.703,117.583-70.165,118.15-70.243c0.521-0.083,1.015,0.295,1.087,0.822c0.073,0.529-0.295,1.016-0.823,1.089
				c-0.561,0.078-56.704,8.486-117.04,69.688C133.017,123.121,132.767,123.217,132.519,123.217z"/>
			<path fill="#253238" d="M251.16,79.442c-0.073,0-0.148-0.008-0.222-0.025c-0.322-0.077-0.583-0.312-0.69-0.625l-4.387-12.724
				c-0.109-0.315-0.047-0.664,0.164-0.924c0.209-0.259,0.543-0.384,0.87-0.349c6.122,0.78,15.711,1.455,15.808,1.462
				c0.378,0.027,0.707,0.273,0.838,0.629c0.131,0.356,0.042,0.757-0.23,1.022l-11.475,11.256
				C251.653,79.345,251.41,79.442,251.16,79.442z M248.187,66.897l3.388,9.821l8.862-8.692
				C257.584,67.806,252.399,67.382,248.187,66.897z"/>
		</g>
	</g>
</g>
</svg>
