<?xml version="1.0" encoding="utf-8"?>
<!-- Generator: Adobe Illustrator 16.0.0, SVG Export Plug-In . SVG Version: 6.00 Build 0)  -->
<!DOCTYPE svg PUBLIC "-//W3C//DTD SVG 1.1//EN" "http://www.w3.org/Graphics/SVG/1.1/DTD/svg11.dtd">
<svg version="1.1" id="Layer_1" xmlns="http://www.w3.org/2000/svg" xmlns:xlink="http://www.w3.org/1999/xlink" x="0px" y="0px"
	 width="750px" height="750px" viewBox="0 0 750 750" enable-background="new 0 0 750 750" xml:space="preserve">
<g opacity="0.05">
	<path fill="#000018" d="M578.17,338.986c-4.082-2.855-9.293-2.855-13.392,0.014L382.413,466.081c-2.592,1.813-5.883,1.813-8.488,0
		L98.231,274.157c-4.992-3.468-4.992-11.534,0-15.018l208.595-145.2c2.328-1.625,3.748-4.45,3.748-7.509V68.213
		c0-6.954-6.909-11.198-12.223-7.51L13.278,259.14c-4.977,3.484-4.977,11.549,0,15.018L349.642,508.31l23.565,16.146
		c2.575,1.756,5.812,1.756,8.387,0l103.517-70.947l0.087,0.161l82.144-57.188c2.59-1.801,5.898-1.801,8.49,0l82.29,57.274
		c4.992,3.483,4.992,11.532,0,15.002L381.93,661.034c-2.326,1.624-3.73,4.448-3.73,7.507v38.22c0,6.968,6.908,11.198,12.222,7.495
		l352.638-245.497c4.994-3.47,4.994-11.519,0-15.002L578.17,338.986z"/>
	<path fill="#1CB24B" d="M274.581,331.009l99.344-69.161c2.605-1.8,5.896-1.8,8.488,0l99.491,69.249
		c2.573,1.801,5.839,1.814,8.43,0.028l27.664-18.955c5.034-3.439,5.064-11.547,0.057-15.032l-113.567-79.069
		c-2.327-1.61-3.746-4.449-3.746-7.495V95.994c0-6.952,6.908-11.197,12.22-7.508L658.12,259.14c4.992,3.484,4.992,11.549,0,15.018
		l-19.204,13.365l0.234,0.425l-13.791,9.456c-5.033,3.454-5.063,11.549-0.042,15.047l27.136,18.882c2.592,1.801,5.888,1.801,8.478,0
		l82.127-57.174c4.994-3.468,4.994-11.534,0-15.018L382.413,8.098c-2.592-1.8-5.883-1.8-8.488,0l-14.536,10.114
		c-2.328,1.624-3.732,4.464-3.732,7.51v8.985v45.245v72.938h-0.059v57.685c0,3.045-1.406,5.885-3.731,7.495l-113.235,78.821
		c-4.976,3.47-4.976,11.55,0,15.004l27.474,19.116C268.697,332.809,271.99,332.809,274.581,331.009"/>
	<path fill="#1CB24B" d="M274.434,591.434L98.216,468.774c-4.977-3.485-4.977-11.534,0-15.019l32.027-22.277
		c4.992-3.472,4.992-11.535,0-15.019l-27.459-19.103c-2.591-1.801-5.885-1.801-8.476,0l-81.017,56.397
		c-4.99,3.483-4.99,11.532,0,15.019l319.822,222.633v-5.065v-54.056v-74.592c0-2.971-1.331-5.735-3.557-7.376l-30.503-22.514
		c-5.298-3.906-12.397,0.309-12.397,7.378v48.757C286.657,590.906,279.748,595.137,274.434,591.434"/>
</g>
<g>
	<g>
		<path fill="#F9B384" d="M322.618,143.249c0.185,0.788,0.369,1.576,0.535,2.327c0,0.037,0.019,0.055,0.037,0.073
			c3.101,12.827,5.832,21.567,10.926,29.85l17.79-16.785l-9.725-18.269l-0.627-1.154v-0.019l-0.019-0.037l-0.129,0.037l-2.03,0.422
			L322.618,143.249z"/>
		<path fill="#F9B384" d="M319.295,129.725c0.038,0.568,0.093,1.136,0.167,1.704c0.22,1.741,0.571,3.537,0.995,5.296
			c0.277,1.172,0.591,2.345,0.923,3.463c0.388,1.337,0.813,2.62,1.218,3.793c0.111,0.293,0.204,0.586,0.296,0.861
			c0.073,0.256,0.166,0.495,0.258,0.733c0,0.037,0.019,0.055,0.037,0.073c0.129,0.348,0.241,0.678,0.37,1.008
			c0,0.037,0.019,0.073,0.038,0.11c0.091,0.275,0.202,0.531,0.295,0.788c0.646,1.704,1.107,2.749,1.107,2.749
			c6.884-1.118,11.885-4.764,15.446-9.474c0.37-0.477,0.72-0.953,1.052-1.448c0.018-0.037,0.036-0.055,0.055-0.091v-0.019
			c4.576-6.743,6.644-15.172,7.584-21.494c0.019-0.073,0.019-0.128,0.037-0.202c0.333-2.291,0.517-4.306,0.628-5.827
			c0.11-1.723-1.273-3.17-3.009-3.152l-2.695,0.037l-2.952-4.947l-20.78,9.199c0,0-0.923,4.306-1.163,10.151
			C319.112,125.107,319.13,127.379,319.295,129.725z"/>
		<path fill="#E28B6D" d="M332.546,132.529l6.829,7.165l2.178-0.403v-0.019c4.576-6.743,6.644-15.172,7.584-21.494l-5.277,1.228
			c-0.24,3.445-3.119,10.5-3.119,10.5L332.546,132.529z"/>
		<path fill="#E28B6D" d="M341.774,118.786c2.16,1.777,5.702-0.11,7.4-1.209c0.333-2.291,0.517-4.306,0.628-5.827
			c0.11-1.723-1.273-3.17-3.009-3.152l-2.695,0.037C344.099,108.634,339.098,116.568,341.774,118.786z"/>
		<path fill="#F9B384" d="M319.205,123.034l0.9-0.115l15.609-3.559l5.022,10.149l-7.469,3.442c2.291,0.792,5.252,2.595,8.228,6.435
			c-3.64,5.39-8.917,9.684-16.493,10.916c0,0-5.064-11.585-5.708-20.568C319.125,127.373,319.119,125.104,319.205,123.034z
			 M331.019,132.388c-0.442-1.465-0.427-3.787,3.05-5.297l-4.55,0.321l-0.61,4.893C328.909,132.305,329.705,132.171,331.019,132.388
			z"/>
	</g>
	<path fill="#1F3C88" d="M320.588,159.465c16.831,42.366,48.813,90.925,79.134,124c11.129,12.13,22.018,22.172,31.854,29.081
		l16.221-41.542l2.03-5.204l-5.093-4.526l-0.924-0.825l-58.777-52.206l-38.22-62.724L320.588,159.465z"/>
	<g>
		<polygon fill="#F9B384" points="406.7,680.631 445.003,682.174 451.028,708.805 415.091,714.385 		"/>
		<polygon fill="#D3DFFF" points="382.016,747.652 415.091,714.385 451.028,708.805 459.751,747.365 		"/>
		<polygon fill="#708CD5" points="435.618,723.699 453.38,720.264 453.027,718.463 435.265,721.898 		"/>
		<polygon fill="#708CD5" points="415.239,732.117 415.966,730.432 404.662,725.621 403.935,727.307 		"/>
		<polygon fill="#708CD5" points="408.087,738.529 408.814,736.844 397.511,732.035 396.784,733.721 		"/>
	</g>
	<path fill="#102048" d="M491.603,418.25l-67.004,123.826l35.145,148.623l-65.313-0.363l-36.211-117.273
		c-5.978-19.361-4.542-40.232,4.033-58.607l39.278-84.156L491.603,418.25z"/>
	<g>
		<path fill="#A11C20" d="M500.264,391.359c43.239,57.281,100.153,89.514,163.583,109.781c-1.273-2.273-2.344-4.564-3.119-6.854
			c-2.381-6.963-2.123-14.092,3.119-21.459l1.938-19.936l-116.598-85.539l-27.867,18.654L500.264,391.359z"/>
		<path fill="#A11C20" d="M727.326,366.061c-22.674,43.74-23.887,104.423-63.485,106.777L479.347,354.71l54.284-93.496l147.7,57.891
			L727.326,366.061z"/>
		<path opacity="0.3" fill="#611113" d="M660.728,494.287c-2.381-6.963-2.123-14.092,3.119-21.459
			c-34.873-17.492-76.366-45.271-120.528-77.199C579.521,432.01,617.842,465.869,660.728,494.287z"/>
		<path fill="#E1272C" d="M495.41,371.85c41.46,72.042,111.3,104.646,202.117,131.218l-27.331,17.953
			c-8.951,5.879-20.624,5.723-29.418-0.389c-57.117-39.684-109.436-79.818-149.255-121.123L495.41,371.85z"/>
		<path fill="#E1272C" d="M479.216,260.572c53.293-23.698,140.047,16.639,225.996,55.438c19.646,8.869,33.554,26.868,37.102,48.004
			L750,409.801C699.471,333.256,593.601,281.731,479.216,260.572z"/>
	</g>
	<path fill="#F9B384" d="M442.094,262.264c0.239,7.971,0.572,14.66,0.499,15.942l30.874,4.746l17.698-12.864
		c-8.415-9.547-12.327-31.334-17.199-50.208l-19.396,11.489l-12.586,7.44C441.651,245.149,441.817,254.33,442.094,262.264z"/>
	<path fill="#E28B6D" d="M442.094,262.264c9.246-5.516,21.224-13.926,26.686-32.965l-14.21,2.071l-12.586,7.44
		C441.651,245.149,441.817,254.33,442.094,262.264z"/>
	<path fill="#F9B384" d="M423.731,216.143c-0.203,4.251,0.332,8.136,1.477,11.563c6.072,18.342,29.029,23.363,45.971-0.11
		l1.42-36.245l-11.976-10.243l-38.94,14.934l2.436,15.997C423.916,213.448,423.768,214.805,423.731,216.143z"/>
	<path fill="#708CD5" d="M380.179,398.311c6.047-41.167,33.254-102.488,62.19-128.324l13.604,27.016l-39.518,110.635
		L380.179,398.311z"/>
	<path fill="#FFFFFF" d="M399.613,398.311c9.171-42.074,21.595-86.193,42.756-128.324c10.688,12.222,42.108-11.578,42.108-11.578
		l16.194,13.83L457.917,416.75L399.613,398.311z"/>
	<g>
		<polygon fill="#F9B384" points="359.881,544.109 393.136,532.959 401.208,552.381 369.382,569.41 		"/>
		<polygon fill="#D3DFFF" points="349.948,611.004 369.382,569.41 401.208,552.381 415.594,586.99 		"/>
		<polygon fill="#708CD5" points="374.832,585.104 375.326,583.34 364.252,580.285 363.758,582.049 		"/>
		<polygon fill="#708CD5" points="370.833,593.35 371.328,591.586 360.254,588.531 359.76,590.295 		"/>
		<polygon fill="#708CD5" points="386.872,572.824 405.941,563.357 405.116,561.719 386.047,571.186 		"/>
	</g>
	<path fill="#1F3C88" d="M457.053,374.296c-45.831,3.26-92.949,11.385-134.877,29.432c-22.594,9.725-30.095,40.5-19.79,62.709
		l41.517,89.465l60.246-18.654l-38.297-79.158c115.743,3.43,128.414-38.787,128.414-38.787L457.053,374.296z"/>
	<path fill="#708CD5" d="M435.026,401.309c15.096,26.846,37.111,41.598,64.314,51.895l3.101-27.34l5.684-50.172l8.747-77.328
		l-5.831-27.413l-26.557-12.534C455.325,288.963,445.877,357.221,435.026,401.309z"/>
	<path fill="#102048" d="M469.913,211.282c-0.51-9.915-3.275-15.216-10.711-18.283c-14.119,12.772-40.179,12.312-53.213,0.534
		c4.707-1.629,8.145-2.823,11.535-6.337c1.945-2.016,2.922-3.359,5.439-8.343c9.052-17.924,42.85-19.143,47.618-1.888
		c20.915,10.079,10.812,25.36,7.397,34.648L469.913,211.282z"/>
	<g>
		<path fill="#E28B6D" d="M462.888,327.499l-2.382-17.262l-10.688-5.468c0,0-5.3,0.888-3.069,7.691
			C448.981,319.264,462.888,327.499,462.888,327.499"/>
		<path fill="#F9B384" d="M469.625,331.56l-6.737-4.061l-8.682-14.353l-11.646-5.788c-0.688-0.342-1.522-0.032-1.816,0.674
			c-1.474,1.244-2.286,3.047-2.298,5.53c-2.621,2.173-3.118,4.611-1.939,7.257c-3.612,1.522-4.967,3.395-3.902,5.644
			c-1.623,2.639-2.578,5.171-1.934,8.264l17.918,12.856l17.602,6.467L469.625,331.56z"/>
	</g>
	<path opacity="0.3" fill="#1F3C88" d="M463.963,357.569c7.29,29.539,19.839,52.646,38.479,68.294l5.684-50.172L463.963,357.569z"/>
	<path fill="#708CD5" d="M484.478,258.408l36.705,4.349c12.843,1.521,23.688,10.113,28.135,22.173
		c11.244,30.502,18.864,63.182,20.688,91.239c1.156,17.793-15.384,31.633-32.912,27.766c-28.76-6.344-52.262-24.805-73.13-46.363
		l3.455-29.588l58.734,27.873L484.478,258.408z"/>
	<path fill="#F9B384" d="M464.486,217.833c2.229,4.827,5.87,8.096,10.587,5.95c4.715-2.147,10.539-9.003,7.516-15.62
		c-2.21-4.836-8.916-5.124-13.633-2.977C464.24,207.332,462.258,213.005,464.486,217.833z"/>
	<path fill="#1F3C88" d="M507.311,311.02c1.323,3.82,2.749,7.6,4.198,11.37c1.429,3.778,2.977,7.508,4.459,11.265l4.686,11.174
		c1.617,3.702,3.242,7.4,4.997,11.047l0.668-0.269c-1.302-3.829-2.732-7.607-4.172-11.38l-4.484-11.254
		c-1.575-3.72-3.083-7.466-4.71-11.164c-1.607-3.706-3.24-7.402-4.973-11.058L507.311,311.02z"/>
	<path fill="#1F3C88" d="M526.024,355.303c-4.787-2.477-9.593-4.918-14.434-7.286c-4.824-2.4-9.704-4.684-14.555-7.032
		l-14.658-6.814c-4.913-2.217-9.828-4.426-14.805-6.511l-0.311,0.647c4.766,2.522,9.592,4.92,14.422,7.31l14.565,7.008
		c4.892,2.259,9.755,4.582,14.671,6.789c4.902,2.24,9.839,4.406,14.793,6.536L526.024,355.303z"/>
	<g opacity="0.3">
		<path fill="#1F3C88" d="M463.785,279.354c-3.005,2.392-6.755,3.635-10.435,3.394c-3.678-0.248-7.215-1.937-9.93-4.65l-0.57,0.438
			c2.125,3.49,6.178,5.792,10.387,6.032c4.208,0.244,8.487-1.541,11.059-4.709L463.785,279.354z"/>
		<path fill="#1F3C88" d="M436.929,368.123c-2.32-2.3-4.387-4.814-6.134-7.525c-1.729-2.721-3.228-5.587-4.302-8.618
			c-1.127-3.008-1.915-6.14-2.34-9.329c-0.455-3.186-0.522-6.428-0.287-9.675l-0.713-0.104c-0.73,3.247-0.881,6.621-0.602,9.957
			c0.307,3.334,1.064,6.631,2.227,9.78c1.213,3.125,2.746,6.146,4.727,8.857c1.961,2.72,4.285,5.183,6.948,7.197L436.929,368.123z"
			/>
		<path fill="#1F3C88" d="M432.48,369.012c-2.626-1.828-5.146-3.683-7.49-5.764c-2.359-2.063-4.526-4.305-6.726-6.629l-0.592,0.411
			c1.48,2.905,3.637,5.444,6.105,7.589c2.483,2.127,5.297,3.91,8.37,5.029L432.48,369.012z"/>
	</g>
	<path fill="#E28B6D" d="M471.044,214.896c0.283-0.86,0.664-1.651,1.161-2.353c0.507-0.689,1.073-1.333,1.779-1.796
		c1.364-1,3.075-1.444,4.887-1.481l0.1-0.528c-0.931-0.357-1.968-0.414-2.974-0.262c-1.002,0.173-1.976,0.571-2.817,1.169
		c-0.813,0.629-1.526,1.396-1.979,2.304c-0.463,0.896-0.727,1.892-0.693,2.877L471.044,214.896z"/>
	<path fill="#102048" d="M450.158,203.15c3.135-0.855,3.944,4.555,3.464,6.53c-0.451,1.851-1.966,2.386-3.264,0.905
		C449.165,209.225,447.411,203.9,450.158,203.15z"/>
	<path fill="#102048" d="M430.021,206.595c0.406-1.703,2.346-2.322,3.425-0.951c0.47,0.596,0.682,1.384,0.802,2.16
		c0.182,1.181,0.506,2.658,0.096,3.871c-0.512,1.521-1.912,2.207-2.949,0.767C430.389,211.012,429.601,208.391,430.021,206.595z"/>
	<path fill="#102048" d="M440.913,209.126c0.029,1.43,0.11,2.866,0.07,4.245c-0.045,0.675-0.07,1.388-0.269,1.843
		c-0.202,0.5-0.573,0.996-1.042,1.506c-0.463,0.515-0.987,1.071-1.44,1.773c-0.229,0.345-0.399,0.754-0.538,1.187
		c-0.121,0.447-0.188,1.058,0.112,1.613c0.299,0.551,0.767,0.817,1.136,0.99c0.385,0.179,0.75,0.296,1.095,0.406
		c0.711,0.186,1.339,0.383,1.903,0.704l0.457-0.5c-0.538-0.627-1.278-0.979-1.907-1.322c-0.63-0.287-1.305-0.68-1.315-0.929
		c-0.063-0.157,0.104-0.744,0.48-1.235c0.334-0.509,0.828-0.989,1.318-1.555c0.48-0.566,1.03-1.223,1.308-2.091
		c0.284-0.913,0.224-1.672,0.169-2.426c-0.127-1.499-0.422-2.923-0.869-4.329L440.913,209.126z"/>
	<path fill="#FFFFFF" d="M451.474,222.241l-12.803,6.185C440.862,232.663,450.666,232.205,451.474,222.241z"/>
	<path opacity="0.4" fill="#FC8879" d="M425.208,227.705c0.351,0.073,0.72,0.11,1.088,0.11c3.396,0,6.146-2.73,6.146-6.102
		s-2.75-6.12-6.146-6.12c-0.922,0-1.789,0.201-2.564,0.55C423.528,220.394,424.063,224.278,425.208,227.705z"/>
	<ellipse opacity="0.4" fill="#FC8879" cx="459.662" cy="217.889" rx="6.151" ry="6.108"/>
</g>
<g>
	<path fill="#C6EAE9" d="M418.754,61.985c-5.281-4.608-11.068-12.316-16.984-20.803c3.809-0.57,7.045-1.484,8.789-3.297
		c4.143,8.897,8.525,14.458,15.08,21.578C422.963,58.582,421.26,61.141,418.754,61.985z"/>
	<path fill="#FBD682" d="M111.129,256.511c-4.755-4.15-9.968-11.091-15.295-18.733c3.429-0.515,6.344-1.337,7.915-2.97
		c3.73,8.013,7.679,13.02,13.582,19.432C114.921,253.445,113.386,255.75,111.129,256.511z"/>
	<path fill="#FBD682" d="M197.871,190.992c2.079-4.771,5.958-10.352,10.289-16.136c0.847,2.926,1.825,5.358,3.147,6.494
		c-4.813,4.44-7.583,8.63-11.007,14.738C200.477,193.861,198.71,192.856,197.871,190.992z"/>
	<path fill="#EE6F57" d="M416.889,355.412c2.309-5.298,6.615-11.494,11.426-17.917c0.939,3.249,2.025,5.949,3.494,7.21
		c-5.346,4.93-8.422,9.584-12.223,16.365C419.783,358.599,417.82,357.482,416.889,355.412z"/>
	<path fill="#708CD5" d="M520.996,63.848c2.309-5.298,6.615-11.495,11.424-17.917c0.939,3.25,2.025,5.95,3.494,7.21
		c-5.344,4.931-8.42,9.583-12.223,16.366C523.891,67.034,521.928,65.918,520.996,63.848z"/>
	<path fill="#708CD5" d="M20.436,232.678c-2.079-4.771-5.958-10.353-10.289-16.137C9.3,219.468,8.323,221.898,7,223.034
		c4.813,4.44,7.583,8.631,11.007,14.738C17.83,235.547,19.596,234.542,20.436,232.678z"/>
	<path fill="#D3DFFF" d="M283.86,150.606c-2.308-5.298-6.615-11.495-11.425-17.917c-0.94,3.249-2.026,5.949-3.494,7.21
		c5.344,4.93,8.421,9.583,12.223,16.365C280.967,153.793,282.928,152.676,283.86,150.606z"/>
	<path fill="#F5C7BE" d="M489.678,148.281c-6.613,1.586-15.852,2.289-25.75,2.769c1.846-2.664,3.096-5.095,2.777-6.921
		c9.148,0.817,15.938,0.177,25.195-1.246C489.641,144.254,490.541,146.345,489.678,148.281z"/>
	<path fill="#C6EAE9" d="M93.345,99.213c5.955,2.188,14.275,3.155,23.19,3.817c-1.664-3.672-2.789-7.026-2.502-9.543
		c-8.238,1.127-14.353,0.245-22.689-1.717C93.378,93.66,92.567,96.543,93.345,99.213z"/>
	<path fill="#EE6F57" d="M296.463,71.308c-6.695,3.968-16.417,7.03-26.9,9.865c1.333-4.748,2.082-8.993,1.3-11.92
		c9.992-0.552,17.107-3.006,26.673-7.254C295.449,64.714,296.919,67.955,296.463,71.308z"/>
	<path fill="#C6EAE9" d="M433.912,254.364c5.002,3.354,10.732,9.333,16.645,15.972c-3.248,0.956-5.969,2.14-7.313,3.923
		c-4.412-7.21-8.727-11.498-15.066-16.875C430.578,257.823,431.818,255.399,433.912,254.364z"/>
	<path fill="#FBD682" d="M347.911,259.612c5.003,3.355,10.732,9.334,16.644,15.973c-3.247,0.956-5.968,2.14-7.312,3.923
		c-4.413-7.21-8.728-11.498-15.066-16.875C344.577,263.073,345.817,260.648,347.911,259.612z"/>
	<path fill="#F5C7BE" d="M128.879,156.81c5.632,3.776,12.082,10.507,18.737,17.98c-3.655,1.076-6.718,2.408-8.23,4.415
		c-4.968-8.116-9.825-12.943-16.961-18.996C125.127,160.705,126.522,157.976,128.879,156.81z"/>
	<path fill="#F5C7BE" d="M493.375,221.954c4.164-3.85,8.459-10.593,12.789-18.064c-3.393-0.925-6.32-2.119-8.031-4.018
		c-2.734,8.04-6.018,12.885-11.045,18.993C489.344,218.296,491.094,220.899,493.375,221.954z"/>
	<path fill="#EE6F57" d="M635.496,210.132c2.078-4.771,5.957-10.353,10.287-16.136c0.848,2.926,1.826,5.358,3.148,6.494
		c-4.814,4.44-7.584,8.63-11.008,14.738C638.102,213.002,636.336,211.996,635.496,210.132z"/>
	<path fill="#D3DFFF" d="M584.162,123.022c-1.73,6.875-5.664,15.318-10.152,24.156c-1.738-3.626-3.545-6.563-5.531-7.694
		c5.408-7.198,8.174-13.499,11.396-22.511C580.111,119.96,582.656,120.796,584.162,123.022z"/>
	<path fill="#D3DFFF" d="M531.535,271.784c1.268,5.034,4.148,11.218,7.434,17.69c1.273-2.656,2.598-4.808,4.053-5.635
		c-3.961-5.272-5.988-9.886-8.346-16.486C534.5,269.541,532.637,270.153,531.535,271.784z"/>
	<path fill="#FBD682" d="M687.975,111.609c-5.631,3.776-12.082,10.507-18.736,17.98c3.654,1.076,6.719,2.408,8.23,4.415
		c4.969-8.116,9.824-12.943,16.961-18.996C691.729,115.504,690.332,112.775,687.975,111.609z"/>
</g>
<g>
	
		<rect x="61.162" y="665.261" transform="matrix(0.0746 0.9972 -0.9972 0.0746 796.5955 474.2012)" fill="#102048" width="163.259" height="2.113"/>
	
		<rect x="55.44" y="568.457" transform="matrix(0.9324 0.3615 -0.3615 0.9324 242.9492 24.3104)" fill="#102048" width="2.11" height="186.162"/>
	
		<rect x="130.264" y="660.626" transform="matrix(0.3613 0.9325 -0.9325 0.3613 759.7408 214.2233)" fill="#102048" width="186.47" height="2.11"/>
	<path fill="#89A6A5" d="M281.662,561.465l-145.008-25.043l-24.576,41.657l90.113,9.388l79.717-21.133
		C284.641,565.61,284.455,561.947,281.662,561.465z"/>
	<path fill="#C6EAE9" d="M281.516,566.531c-25.614,17.722-89.986,41.326-149.027,42.83c-51.036,1.3-99.573-23.74-110.691-83.777
		c-8.171-44.12-14.973-92.99-14.115-117.72c0.22-6.398,5.639-11.383,12.039-11.22l60.159,1.523
		c18.275,0.461,35.033,10.16,44.641,25.713C157.084,476.586,155.37,602.907,281.516,566.531z"/>
	<path fill="none" stroke="#102048" stroke-width="2.8939" stroke-miterlimit="10" d="M104.069,748.684"/>
	<path fill="none" stroke="#102048" stroke-width="2.8939" stroke-miterlimit="10" d="M135.617,588.826"/>
</g>
<rect y="748.568" fill="#B3F1FF" width="750" height="1.432"/>
</svg>
