<?xml version="1.0" encoding="utf-8"?>
<!-- Generator: Adobe Illustrator 16.0.0, SVG Export Plug-In . SVG Version: 6.00 Build 0)  -->
<!DOCTYPE svg PUBLIC "-//W3C//DTD SVG 1.1//EN" "http://www.w3.org/Graphics/SVG/1.1/DTD/svg11.dtd">
<svg version="1.1" id="Layer_1" xmlns="http://www.w3.org/2000/svg" xmlns:xlink="http://www.w3.org/1999/xlink" x="0px" y="0px"
	 width="750px" height="750px" viewBox="0 0 750 750" enable-background="new 0 0 750 750" xml:space="preserve">
<g>
	<path fill="#6EA2E0" d="M576.981,531.93V395.983c0-12.883,10.931-23.333,23.135-23.333h57.374c12.208,0,21.973,10.45,21.973,23.333
		V531.93h14.817V391.217c0-19.455-13.338-34.618-31.781-34.618h-67.392c-18.443,0-32.942,15.163-32.942,34.618V531.93H576.981z"/>
	<g>
		<path fill="#1D4354" d="M572.965,749h-8.332c-4.647,0-8.413-3.767-8.413-8.411v-28.991h25.155v28.991
			C581.375,745.233,577.61,749,572.965,749z"/>
		<path fill="#1D4354" d="M691.295,748.955h-8.332c-4.646,0-8.411-3.765-8.411-8.412v-28.991h25.155v28.991
			C699.707,745.19,695.942,748.955,691.295,748.955z"/>
	</g>
	<g>
		<path fill="#F7F5EB" d="M708.381,728.991H547.546c-14.001,0-25.351-11.35-25.351-25.351V473.093
			c0-14.001,11.35-25.353,25.351-25.353h160.835c14.002,0,25.352,11.352,25.352,25.353v230.548
			C733.732,717.642,722.383,728.991,708.381,728.991z"/>
		<path fill="#6EA2E0" d="M708.381,730.225H547.546c-14.658,0-26.585-11.926-26.585-26.584V473.093
			c0-14.659,11.927-26.586,26.585-26.586h160.835c14.659,0,26.587,11.927,26.587,26.586v230.548
			C734.968,718.299,723.04,730.225,708.381,730.225z M547.546,448.976c-13.298,0-24.116,10.818-24.116,24.117v230.548
			c0,13.297,10.818,24.115,24.116,24.115h160.835c13.299,0,24.117-10.818,24.117-24.115V473.093
			c0-13.299-10.818-24.117-24.117-24.117H547.546z"/>
	</g>
	<g>
		<path fill="#6EA2E0" d="M581.424,705.942c-4.252,0-7.712-3.619-7.712-8.069V481.786c0-4.446,3.46-8.063,7.712-8.063
			c4.253,0,7.714,3.616,7.714,8.063v216.087C589.138,702.323,585.677,705.942,581.424,705.942z M581.424,476.192
			c-2.891,0-5.242,2.51-5.242,5.594v216.087c0,3.088,2.352,5.6,5.242,5.6c2.893,0,5.244-2.512,5.244-5.6V481.786
			C586.668,478.702,584.316,476.192,581.424,476.192z"/>
		<path fill="#6EA2E0" d="M627.961,705.942c-4.25,0-7.71-3.619-7.71-8.069V481.786c0-4.446,3.46-8.063,7.71-8.063
			c4.255,0,7.716,3.616,7.716,8.063v216.087C635.677,702.323,632.216,705.942,627.961,705.942z M627.961,476.192
			c-2.89,0-5.241,2.51-5.241,5.594v216.087c0,3.088,2.352,5.6,5.241,5.6c2.894,0,5.245-2.512,5.245-5.6V481.786
			C633.206,478.702,630.854,476.192,627.961,476.192z"/>
		<path fill="#6EA2E0" d="M674.499,705.942c-4.25,0-7.709-3.619-7.709-8.069V481.786c0-4.446,3.459-8.063,7.709-8.063
			c4.255,0,7.716,3.616,7.716,8.063v216.087C682.215,702.323,678.754,705.942,674.499,705.942z M674.499,476.192
			c-2.889,0-5.24,2.51-5.24,5.594v216.087c0,3.088,2.352,5.6,5.24,5.6c2.893,0,5.246-2.512,5.246-5.6V481.786
			C679.745,478.702,677.392,476.192,674.499,476.192z"/>
	</g>
</g>
<g>
	<g>
		<g>
			<path fill="#FFFFFF" d="M258.87,616.495c0.275,1.142-13.131,62.487-13.131,62.487l30.814-5.157l9.283-51.868L258.87,616.495z"/>
			<path d="M245.739,680.311c-0.359,0-0.709-0.147-0.961-0.413c-0.304-0.317-0.429-0.767-0.334-1.197
				c5.179-23.704,12.909-59.655,13.101-62.133c-0.019-0.364,0.112-0.727,0.371-0.993c0.313-0.327,0.78-0.471,1.219-0.381
				l26.964,5.464c0.708,0.144,1.171,0.824,1.044,1.534l-9.283,51.867c-0.099,0.552-0.534,0.981-1.088,1.075l-30.813,5.158
				C245.886,680.304,245.813,680.311,245.739,680.311z M259.957,618.068c-0.665,3.972-3.214,16.741-12.502,59.281l27.957-4.679
				l8.89-49.67L259.957,618.068z"/>
		</g>
		<g>
			<g>
				<path fill="#FFFFFF" d="M262.102,658.859c-1.886-1.584-4.58-3.132-8.01-3.278c-5.164-0.221-9.873,3.012-12.011,7.763
					c-5.343,11.874-19.433,44.96-23.415,71.998c-1.407,9.558,5.803,17.329,17.039,11.067c18.415-10.262,43.959-33.821,57.331-68.614
					c1.535-3.993,0.987-8.512-1.533-11.956c-2.059-2.815-4.851-6.227-8.094-9.132c-3.1-2.775-7.761-2.816-10.975-0.174l-2.895,2.381
					C267.367,660.699,264.255,660.671,262.102,658.859z"/>
				<path d="M228.116,750c-2.8,0-4.813-0.971-6.033-1.811c-3.722-2.571-5.535-7.569-4.729-13.04
					c3.968-26.946,17.769-59.573,23.518-72.351c2.408-5.347,7.707-8.775,13.28-8.544c3.126,0.135,6.17,1.376,8.805,3.589
					c0,0,0,0,0,0.001c1.659,1.396,4.075,1.413,5.741,0.044l2.896-2.381c3.766-3.097,9.111-3.007,12.702,0.213
					c2.797,2.504,5.582,5.646,8.281,9.333c2.782,3.806,3.418,8.748,1.7,13.217c-13.349,34.733-38.675,58.572-57.924,69.298
					C233.104,749.378,230.358,750,228.116,750z M253.606,656.898c-4.307,0-8.412,2.764-10.314,6.989
					c-5.703,12.676-19.392,45.032-23.313,71.649c-0.657,4.464,0.728,8.474,3.614,10.468c2.913,2.011,6.985,1.743,11.467-0.753
					c18.844-10.503,43.645-33.862,56.738-67.933c1.393-3.626,0.881-7.623-1.367-10.697c-2.588-3.541-5.248-6.542-7.906-8.925
					c-2.611-2.339-6.498-2.399-9.249-0.14l-2.895,2.381c-2.654,2.182-6.495,2.157-9.133-0.063c-2.212-1.86-4.64-2.859-7.212-2.97
					C253.893,656.901,253.75,656.898,253.606,656.898z"/>
			</g>
			<path d="M225.682,739.229c-0.069,0-0.118-0.002-0.149-0.002c-0.732-0.027-1.305-0.642-1.278-1.374
				c0.026-0.73,0.636-1.298,1.366-1.278c0.327,0.031,26.119-0.236,57.507-62.272c0.332-0.653,1.13-0.918,1.784-0.586
				c0.654,0.33,0.916,1.129,0.585,1.782C254.022,737.706,228.104,739.229,225.682,739.229z"/>
			<path d="M245.398,704.95c-0.162,0-0.326-0.029-0.487-0.094l-14.608-5.763c-0.683-0.27-1.017-1.04-0.749-1.723
				c0.27-0.682,1.037-1.017,1.723-0.747l14.607,5.764c0.681,0.271,1.016,1.041,0.748,1.722
				C246.427,704.632,245.927,704.95,245.398,704.95z"/>
			<path d="M250.517,693.76c-0.161,0-0.324-0.029-0.481-0.091l-17.133-6.667c-0.683-0.267-1.021-1.036-0.756-1.719
				c0.264-0.684,1.036-1.021,1.717-0.756l17.133,6.668c0.683,0.267,1.021,1.035,0.756,1.718
				C251.549,693.439,251.048,693.76,250.517,693.76z"/>
		</g>
		<g>
			<path fill="#FFFFFF" d="M390.355,616.329c0.223,0.464,1.935,7.664,3.27,19.801c2.224,20.219-20.405,38.94-20.405,38.94
				l53.602-7.228l-2.049-46.788L390.355,616.329z"/>
			<path d="M373.22,676.397c-0.521,0-1.001-0.307-1.216-0.795c-0.237-0.542-0.087-1.177,0.37-1.556
				c0.22-0.182,22.05-18.51,19.931-37.771c-1.243-11.318-2.87-18.601-3.174-19.439c-0.212-0.441-0.15-0.929,0.138-1.323
				c0.288-0.394,0.79-0.565,1.268-0.5l34.417,4.727c0.636,0.086,1.117,0.615,1.146,1.256l2.049,46.79
				c0.029,0.685-0.469,1.281-1.149,1.373l-53.602,7.227C373.337,676.394,373.278,676.397,373.22,676.397z M392.133,617.912
				c0.708,3.137,1.863,9.456,2.811,18.074c1.778,16.169-11.395,31.082-17.689,37.202l48.189-6.497l-1.948-44.474L392.133,617.912z"
				/>
		</g>
		<g>
			<g>
				<path fill="#FFFFFF" d="M405.755,656.631c-2.93-1.539-5.19-3.698-8.59-4.268c-5.119-0.861-9.191,1.783-11.862,6.219
					c-6.68,11.088-24.494,42.082-31.55,68.35c-2.495,9.285,3.798,17.872,15.706,13.071c19.513-7.87,47.648-28.013,64.944-60.787
					c1.985-3.762,1.305-8-0.161-12.024c-1.296-3.56-6.573-15.695-9.471-18.973C422,645.084,415.035,661.511,405.755,656.631z"/>
				<path d="M363.044,742.712c-2.872,0-5.39-0.889-7.38-2.652c-3.395-3.006-4.619-8.169-3.195-13.472
					c7.034-26.183,24.509-56.759,31.695-68.69c3.196-5.308,7.891-7.74,13.22-6.843c2.607,0.438,4.582,1.694,6.49,2.908
					c0.803,0.512,1.635,1.041,2.496,1.494c4.41,2.317,8.213-1.028,12.373-5.299c2.071-2.124,3.574-3.668,5.194-3.668
					c0.021,0,0.042,0,0.062,0.001c0.678,0.017,1.289,0.31,1.764,0.848c3.113,3.521,8.512,16.071,9.725,19.398
					c1.923,5.281,1.951,9.565,0.088,13.099c-17.268,32.72-45.221,53.171-65.622,61.397
					C367.505,742.222,365.177,742.712,363.044,742.712z M395.248,653.525c-4.371,0-7.174,3.028-8.81,5.741
					c-7.127,11.835-24.458,42.153-31.406,68.011c-1.161,4.324-0.246,8.461,2.391,10.796c2.676,2.37,6.773,2.62,11.538,0.698
					c19.966-8.051,47.335-28.087,64.267-60.176c1.516-2.871,1.441-6.352-0.234-10.95c-1.48-4.065-6.57-15.458-9.154-18.476
					c-0.648,0.227-2.109,1.728-3.194,2.841c-3.579,3.673-8.987,9.224-15.509,5.795l0,0c-0.96-0.504-1.838-1.063-2.688-1.604
					c-1.762-1.122-3.428-2.183-5.504-2.531C396.354,653.571,395.788,653.525,395.248,653.525z"/>
			</g>
			<path d="M361.646,731.726c-0.866,0-1.377-0.072-1.513-0.094c-0.723-0.116-1.215-0.796-1.099-1.521
				c0.117-0.721,0.785-1.214,1.515-1.1c0.342,0.05,26.049,2.999,64.39-54.482c0.405-0.609,1.232-0.774,1.84-0.367
				c0.61,0.407,0.775,1.229,0.369,1.841C392.428,728.056,367.873,731.726,361.646,731.726z"/>
			<path d="M384,700.186c-0.215,0-0.431-0.052-0.631-0.159l-13.889-7.52c-0.646-0.349-0.885-1.154-0.537-1.799
				c0.352-0.645,1.159-0.884,1.799-0.536l13.891,7.52c0.645,0.349,0.885,1.154,0.535,1.799
				C384.928,699.935,384.471,700.186,384,700.186z"/>
			<path d="M390.377,689.746c-0.198,0-0.4-0.044-0.591-0.14l-15.021-7.482c-0.655-0.327-0.922-1.123-0.596-1.78
				c0.328-0.655,1.124-0.924,1.781-0.596l15.021,7.482c0.655,0.327,0.922,1.125,0.596,1.78
				C391.333,689.478,390.864,689.746,390.377,689.746z"/>
		</g>
		<g>
			<path fill="#7B92CA" d="M535.593,380.454c0,0-187.638-8.143-208.149,10.905c-27.825,25.839-75.627,240.943-75.627,240.943
				l46.153,12.94c0,0,69.542-176.532,86.772-176.532s179.688-5.799,179.688-5.799L535.593,380.454z"/>
			<path fill="#7B92CA" d="M572.504,374.527c0,0,24.745,72.65,5.054,85.9c-19.691,13.252-161.642,12.125-156.718,10.469
				c4.922-1.657,12.694,118.954,12.694,165.333l-44.693,1.725c0,0-71.224-186.525-63.547-207.353
				c13.736-37.26,119.464-45.796,153.296-50.777C485.557,378.797,572.504,374.527,572.504,374.527z"/>
			<path fill="#FFFFFF" d="M348.897,533.123c-0.563,0-1.083-0.359-1.264-0.923c-1.608-5.019-3.206-9.956-4.771-14.79
				c-13.177-40.716-23.584-72.876-18.829-87.226c8.987-27.122,64.817-38.733,106.03-45.109c0.733-0.111,1.403,0.385,1.516,1.107
				c0.111,0.726-0.385,1.403-1.108,1.516c-23.349,3.611-94.401,14.603-103.917,43.32c-4.483,13.525,6.323,46.915,18.834,85.574
				c1.564,4.837,3.164,9.775,4.771,14.799c0.225,0.697-0.16,1.444-0.859,1.668C349.167,533.103,349.03,533.123,348.897,533.123z"/>
		</g>
	</g>
	<g>
		<path fill="#253238" d="M437.016,45.34c13.01-12.685,32.354-15.354,46.891-11.777c18.398,4.527,27.678,18.868,34.219,28.981
			c11.567,17.878,5.98,24.353,15.073,34.738c16.1,18.393,55.158,6.216,74.173,20.342c45.692,33.942,20.786,90.046-19.716,116.53
			c-27.01,17.662-63.751,7.446-73.747,4.668c-30.34-8.434-80.607-24.959-85.475-64.422c-3.271-26.533,26.791-47.808,10.641-69.926
			c-4.113-5.633-7.521-7.161-10.576-14.206C423.537,78.833,422.421,59.571,437.016,45.34z"/>
		<path fill="#253238" d="M484.504,48.468c-6.913-5.051-2.538-19.949,1.886-27.988c1.657-3.013,9.076-16.491,18.833-15.968
			c10.021,0.537,19.617,15.692,16.039,27.699C516.791,47.221,492.604,54.389,484.504,48.468z"/>
	</g>
	<g>
		<g>
			<path fill="#1D4354" d="M532.186,157.246c0,0,34.697-15.208,55.647,128.982c0,0-35.927,77.518-36.561,88.411
				c-0.635,10.895-95.118,6.16-95.118,6.16l-2.158-162.358l-22.041-1.06l4.723-38.139c2.934-11.115,15.305-19.106,23.614-22.076
				L532.186,157.246z"/>
			<path d="M498.564,383.15c-21.746,0-42.256-1.014-42.477-1.024c-0.699-0.036-1.252-0.609-1.262-1.311l-2.14-161.108l-20.794-1
				c-0.371-0.018-0.715-0.188-0.952-0.471c-0.238-0.282-0.347-0.651-0.302-1.018l4.724-38.14c0.007-0.058,0.018-0.118,0.034-0.175
				c2.85-10.807,14.671-19.492,24.449-22.987c0.143-0.051,0.295-0.077,0.446-0.077l71.659,0.08c1.132-0.38,5.325-1.4,11.122,1.819
				c13.612,7.555,32.655,35.947,46.072,128.299c0.038,0.255,0,0.516-0.108,0.749c-12.39,26.733-35.951,79.514-36.441,87.932
				c-0.139,2.408-0.468,8.05-49.109,8.415C501.844,383.144,500.202,383.15,498.564,383.15z M457.465,379.533
				c5.177,0.235,25.67,1.097,46.01,0.944c43.923-0.331,46.418-4.985,46.472-5.916c0.626-10.75,33.544-82.108,36.517-88.534
				c-13.901-95.387-33.837-119.801-44.488-125.865c-5.561-3.164-9.119-1.758-9.269-1.696c-0.161,0.067-0.347,0.106-0.521,0.106
				l-71.662-0.081c-9.075,3.308-19.914,11.24-22.538,21.002l-4.538,36.63l20.612,0.991c0.702,0.034,1.255,0.606,1.265,1.308
				L457.465,379.533z"/>
		</g>
		<g>
			<path fill="#FFFFFF" d="M461.283,149.873c0,0-0.305,0.079-0.871,0.264c-5.246,1.719-33.042,12.623-50.984,55.472
				c-15.478,36.962-69.732,31.629-69.732,31.629l0.447,35.731c0,0,85.645,10.586,112.588-15.396
				C454.415,255.949,461.283,149.873,461.283,149.873z"/>
			<path d="M379.092,276.496c-20.717,0-37.566-2.019-39.112-2.209c-0.658-0.082-1.156-0.637-1.164-1.301l-0.447-35.731
				c-0.005-0.377,0.151-0.739,0.43-0.994c0.278-0.255,0.652-0.382,1.027-0.343c0.534,0.053,53.464,4.799,68.378-30.82
				c18.133-43.304,46.329-54.431,51.797-56.221c0.62-0.203,0.951-0.287,0.951-0.287c0.414-0.105,0.852-0.007,1.178,0.264
				c0.327,0.271,0.506,0.682,0.479,1.106c-0.016,0.265-1.738,26.83-3.645,53.25c-3.891,53.952-4.68,54.709-5.312,55.319
				C438.445,273.191,405.603,276.496,379.092,276.496z M341.456,271.783c10.225,1.118,85.464,8.431,110.166-14.987
				c1.322-4.705,5.564-64.362,8.211-105.053c-7.077,2.583-32.409,14.329-49.18,54.379c-14.223,33.966-60.709,33.044-69.611,32.54
				L341.456,271.783z"/>
		</g>
		<g>
			<path fill="#F6E8D4" d="M412.229,379.212l21.005-198.843c1.394-9.31,9.321-20.744,17.101-25.939
				c3.05-2.037,6.683-3.712,10.949-4.557c0,0,2.604,220.957,2.668,229.193L412.229,379.212z"/>
			<path d="M412.229,380.538c-0.046,0-0.092-0.002-0.142-0.008c-0.728-0.076-1.257-0.729-1.179-1.459l21.006-198.842
				c1.408-9.427,9.174-21.219,17.683-26.903c3.519-2.35,7.364-3.949,11.429-4.754c0.387-0.077,0.788,0.023,1.094,0.271
				c0.307,0.249,0.486,0.621,0.491,1.016c0.026,2.209,2.606,221.053,2.669,229.197c0.006,0.732-0.586,1.332-1.317,1.338
				c-0.003,0-0.008,0-0.011,0c-0.728,0-1.321-0.588-1.326-1.317c-0.06-7.764-2.41-207.258-2.648-227.545
				c-3.146,0.809-6.136,2.151-8.904,4.002c-7.83,5.229-15.243,16.458-16.526,25.031l-20.999,198.787
				C413.476,380.032,412.898,380.538,412.229,380.538z"/>
		</g>
		<path d="M502.127,266.429c-0.208,0-0.42-0.05-0.617-0.153c-23.873-12.582-25.399-46.413-25.453-47.846
			c-0.027-0.732,0.545-1.349,1.277-1.375c0.705-0.034,1.347,0.543,1.375,1.276c0.013,0.336,1.533,33.737,24.037,45.597
			c0.65,0.342,0.899,1.146,0.557,1.793C503.064,266.17,502.604,266.429,502.127,266.429z"/>
		<g>
			<path d="M531.549,572.901c-0.018,0-0.029,0-0.045,0c-8.226-0.005-15.205-5.628-16.97-13.675
				c-7.124-32.476-24.497-116.517-31.958-195.383c-3.933-41.547,5.735-104.179,27.22-176.356c0.444-1.493,0.765-2.563,0.934-3.169
				c6.198-22.208,19.431-32.44,19.991-32.865c0.271-0.205,0.611-0.298,0.946-0.262c0.311,0.034,31.227,3.713,46.527,31.132
				c14.769,26.466,36.373,85.988,35.11,109.36c-1.283,23.763-16.06,39.377-26.847,50.779c-6.278,6.635-11.237,11.875-10.646,15.824
				c0.865,5.785,8.56,35.161,30.386,73.18c10.436,18.182,15.591,46.413,17.735,61.625c1.728,12.244,4.282,38.178,1.161,40.181
				c-2.856,1.834-6.007,3.98-9.343,6.254C595.083,553.61,566.777,572.901,531.549,572.901z M531.914,153.904
				c-2.267,1.911-13.284,11.982-18.629,31.128c-0.171,0.613-0.494,1.699-0.943,3.212c-21.392,71.859-31.024,134.132-27.125,175.349
				c7.449,78.722,24.797,162.638,31.91,195.063c1.496,6.821,7.408,11.588,14.379,11.591c0.014,0,0.028,0,0.043,0
				c34.411,0,62.324-19.023,82.708-32.914c3.272-2.23,6.368-4.34,9.2-6.163c1.818-4.767-1.988-67.767-19.561-98.382
				c-22.033-38.38-29.827-68.218-30.711-74.108c-0.781-5.226,4.305-10.601,11.344-18.041c10.508-11.102,24.893-26.308,26.124-49.097
				c1.136-21.02-18.953-79.566-34.773-107.924C562.348,159.373,536.001,154.519,531.914,153.904z"/>
			<path fill="#F6E8D4" d="M531.523,152.511c0,0,30.37,3.321,45.513,30.46c15.144,27.139,36.147,86.38,34.942,108.642
				c-2.04,37.783-39.268,54.923-37.479,66.871c0.868,5.8,8.529,35.288,30.547,73.644c18.132,31.587,22.285,98.132,19.33,100.029
				c-19.915,12.782-52.161,39.436-92.873,39.416c-7.522-0.003-14.047-5.219-15.673-12.633
				c-6.499-29.621-24.388-115.452-31.935-195.222c-6.536-69.082,25.716-170.465,28.111-179.043
				C518.156,162.642,531.523,152.511,531.523,152.511z"/>
		</g>
		<path d="M542.083,280.858c-0.433,0-0.856-0.211-1.112-0.6c-0.4-0.613-0.229-1.435,0.384-1.837c1.727-1.13,6.978-4.568,9.226-9.391
			c6.665-14.297-7.437-63.041-7.58-63.531c-0.205-0.704,0.197-1.441,0.9-1.646c0.706-0.206,1.44,0.199,1.647,0.902
			c0.596,2.043,14.521,50.204,7.438,65.397c-2.568,5.508-8.295,9.257-10.178,10.491
			C542.585,280.789,542.332,280.858,542.083,280.858z"/>
		<path d="M447.354,291.418c-0.69,0-1.273-0.535-1.323-1.235c-2.577-37.189-0.395-70.776-0.372-71.111
			c0.048-0.73,0.701-1.283,1.413-1.235c0.729,0.049,1.284,0.682,1.236,1.412c-0.022,0.333-2.194,33.75,0.372,70.752
			c0.051,0.73-0.502,1.365-1.232,1.415C447.416,291.417,447.385,291.418,447.354,291.418z"/>
		<path d="M551.197,416.91c-26.689,0-40.57-24.9-40.735-25.206c-0.351-0.646-0.111-1.448,0.532-1.799
			c0.644-0.35,1.449-0.11,1.8,0.532c0.78,1.434,19.53,34.945,56.367,20.076c0.675-0.273,1.451,0.054,1.728,0.733
			c0.273,0.681-0.054,1.453-0.734,1.728C563.252,415.762,556.929,416.91,551.197,416.91z"/>
		<g>
			<g>
				<g>
					<path fill="#FFFFFF" d="M389.336,289.613l-22.052-0.211c-3.498-0.006-5.628-2.657-7.376-5.789l-26.869-56.025
						c-1.886-4.727,2.455-9.436,7.399-9.428l22.051,0.211c3.497,0.005,6.026,2.784,7.376,5.788l26.869,56.024
						C399.016,284.51,394.279,289.62,389.336,289.613z"/>
					<path d="M389.347,290.939c-0.007,0-0.012,0-0.024,0l-22.052-0.211c-4.355-0.007-6.841-3.46-8.521-6.468l-26.906-56.099
						c-0.98-2.449-0.675-5.056,0.802-7.231c1.717-2.528,4.697-4.098,7.781-4.098c0.004,0,0.01,0,0.015,0l22.062,0.211
						c3.517,0.006,6.727,2.461,8.573,6.571l26.855,55.995c1.07,2.031,0.942,4.473-0.375,6.656
						C395.865,289.062,392.568,290.939,389.347,290.939z M389.344,288.285c0.002,0,0.003,0,0.003,0c2.29,0,4.73-1.393,5.938-3.392
						c0.483-0.803,1.166-2.403,0.275-4.091l-26.891-56.07c-0.542-1.203-2.543-5.029-6.183-5.035l-22.062-0.21
						c-0.002,0-0.005,0-0.009,0c-2.173,0-4.365,1.151-5.575,2.934c-0.988,1.456-1.192,3.117-0.57,4.675l26.833,55.943
						c1.984,3.551,3.788,5.031,6.182,5.035L389.344,288.285z"/>
				</g>
			</g>
			<g>
				<path fill="#FFFFFF" d="M340.581,244.291l2.847,6.241c1.143,2.603,3.808,4.276,6.427,3.033l18.291-7.521
					c2.95-1.399,6.484,0.077,7.506,3.177c2.086,6.33,3.407,14.889-24.884,26.355c-17.281,7.005-17.899-11.97-15.08-23.544
					C336.938,246.899,340.581,244.291,340.581,244.291z"/>
				<path d="M344.084,278.421c-2.517,0-4.655-0.752-6.396-2.256c-5.276-4.555-5.454-15.561-3.29-24.447
					c1.35-5.547,5.246-8.388,5.41-8.506c0.324-0.23,0.732-0.305,1.115-0.203c0.383,0.102,0.7,0.37,0.865,0.731l2.849,6.24
					c0.524,1.197,1.428,2.121,2.425,2.493c0.741,0.278,1.491,0.241,2.225-0.107l18.357-7.55c1.698-0.808,3.738-0.846,5.53-0.079
					c1.774,0.76,3.137,2.243,3.739,4.068c2.477,7.516,2.74,16.496-25.645,28.001C348.61,277.883,346.213,278.421,344.084,278.421z
					 M340.134,246.507c-1.047,1.131-2.488,3.094-3.157,5.839c-1.909,7.84-1.957,18.009,2.445,21.811
					c2.4,2.071,6.052,2.134,10.847,0.189c28.462-11.537,25.747-19.784,24.123-24.711c-0.368-1.118-1.172-1.991-2.263-2.459
					c-1.095-0.468-2.339-0.445-3.412,0.066l-18.358,7.549c-1.323,0.63-2.808,0.697-4.227,0.167
					c-1.679-0.627-3.108-2.047-3.918-3.896L340.134,246.507z"/>
			</g>
		</g>
		<g>
			<path fill="#FFFFFF" d="M460.609,240.489c0,0,35.414,34.084,58.868,47.841c14.067,8.25,15.985-1.696,27.649,5.373
				c15.706,9.519,24.126,17.867,4.404,43.924c-16.762,22.149-46.28,2.35-98.32-72.292c-2.439-3.498-6.425-5.666-10.588-6.597
				c-5.213-1.167-12.794-5.294-16.283-18.989c0,0-24.67,3.5-26.844-8.522l37.049-5.897c4.965-0.88,10.042,0.756,13.559,4.369
				L460.609,240.489z"/>
			<path d="M536.118,347.502c-0.13,0-0.261-0.001-0.393-0.004c-18.569-0.362-45.135-26.229-83.603-81.403
				c-2.063-2.957-5.539-5.109-9.79-6.061c-5.739-1.285-13.265-5.611-16.976-18.828c-5.138,0.553-25.057,1.929-27.168-9.742
				c-0.063-0.351,0.018-0.713,0.225-1.004c0.205-0.291,0.521-0.486,0.873-0.542l37.049-5.898c5.377-0.953,10.893,0.822,14.72,4.754
				l10.489,10.773c0.899,0.864,35.74,34.228,58.604,47.639c6.911,4.053,10.5,3.489,14.295,2.893
				c3.619-0.567,7.359-1.154,13.371,2.489c7.406,4.488,14.761,9.526,16.26,17.363c1.388,7.255-2.263,16.31-11.483,28.497
				C548.032,344.451,542.494,347.502,536.118,347.502z M426.343,238.423c0.597,0,1.133,0.405,1.284,0.999
				c3.259,12.796,10.111,16.864,15.287,18.022c4.899,1.097,8.943,3.63,11.385,7.133c37.422,53.673,64.072,79.928,81.479,80.268
				c5.704,0.121,10.529-2.511,14.695-8.017c8.737-11.545,12.231-19.933,10.995-26.398c-1.175-6.133-6.399-10.361-15.029-15.592
				c-5.179-3.139-8.146-2.676-11.585-2.137c-3.896,0.612-8.319,1.305-16.047-3.226c-23.322-13.679-58.762-47.688-59.117-48.03
				c-0.011-0.01-0.021-0.021-0.031-0.03l-10.504-10.79c-3.213-3.301-7.842-4.792-12.378-3.988l-35.604,5.668
				c3.53,9.047,24.76,6.162,24.982,6.13C426.219,238.427,426.28,238.423,426.343,238.423z"/>
		</g>
	</g>
	<g>
		<path fill="#FFFFFF" d="M471.068,123.003c-2.834,1.42-6.292,0.933-8.536-1.304c-2.647-2.636-4.774-5.441-6.503-8.281l-3.285,0.067
			c-1.051,0.021-1.926-0.799-1.973-1.848l-0.438-9.9c-0.08-1.841-0.605-3.626-1.439-5.27c-1.586-3.121-2.279-5.822-2.468-8.086
			c-0.394-4.769,3.856-13.336,8.157-15.436c5.826-2.845,16.342-4.38,21.836,3.878c2.357,3.546,6.189,6.091,8.51,5.68
			c2.182-0.387,3.076-2.255,4.154-4.191c2.006-3.606,6.993-6.993,11.784-1.295c3.616,4.299,2.673,8.338,0.712,11.949
			c-1.756,3.235-2.483,8.825-1.643,12.408l7.104,30.266c1.825,7.78,7.387,14.149,14.849,17.009l7.604,2.914
			c0,0-8.394,25.48-42.033,24.759c-25.672-0.551-25.168-23.076-25.168-23.076l3.371-1.487c8.925-3.937,13.068-13.546,10.914-23.059
			l-2.83-7.322L471.068,123.003z"/>
		<path d="M488.84,177.664c-0.463,0-0.933-0.005-1.407-0.016c-13.899-0.298-20.369-6.929-23.35-12.439
			c-3.214-5.941-3.122-11.747-3.117-11.991c0.012-0.516,0.32-0.978,0.792-1.185l3.372-1.488
			c8.021-3.538,12.194-12.353,10.174-21.458l-2.222-5.753l-1.326,0.803c-0.031,0.019-0.063,0.036-0.094,0.051
			c-3.386,1.698-7.432,1.075-10.066-1.549c-2.363-2.356-4.48-5.003-6.297-7.879l-2.529,0.05c-1.723,0.054-3.244-1.331-3.323-3.115
			l-0.437-9.9c-0.07-1.578-0.507-3.169-1.299-4.728c-1.504-2.964-2.382-5.85-2.607-8.578c-0.42-5.091,3.902-14.298,8.898-16.737
			c7.501-3.665,18.063-3.872,23.523,4.335c2.172,3.267,5.583,5.391,7.172,5.108c1.352-0.24,1.997-1.301,3.02-3.156l0.207-0.374
			c1.232-2.214,3.678-4.689,6.849-4.994c1.759-0.168,4.428,0.297,7.112,3.49c4.443,5.284,2.62,10.2,0.861,13.437
			c-1.594,2.933-2.289,8.186-1.517,11.471l7.104,30.266c1.727,7.36,6.973,13.369,14.031,16.073l7.604,2.914
			c0.662,0.253,1.008,0.981,0.786,1.655C530.669,152.239,521.905,177.664,488.84,177.664z M463.637,154.104
			c0.194,3.976,2.301,20.428,23.853,20.891c28.446,0.617,38.192-17.724,40.288-22.669l-6.359-2.438
			c-7.883-3.021-13.74-9.729-15.669-17.946l-7.104-30.265c-0.927-3.951-0.151-9.813,1.769-13.346
			c2.267-4.17,2.098-7.299-0.563-10.461c-1.557-1.854-3.188-2.715-4.824-2.557c-2.15,0.207-3.922,2.091-4.784,3.643l-0.202,0.366
			c-1.037,1.882-2.213,4.015-4.881,4.487c-3.182,0.565-7.508-2.736-9.846-6.252c-5.266-7.916-15.482-5.699-20.148-3.419
			c-3.625,1.769-7.783,9.695-7.416,14.133c0.195,2.384,0.98,4.939,2.328,7.595c0.964,1.898,1.496,3.854,1.582,5.812l0.438,9.899
			c0.016,0.327,0.276,0.572,0.617,0.581l3.287-0.067c0.47-0.021,0.916,0.233,1.16,0.637c1.795,2.946,3.916,5.648,6.308,8.031
			c1.812,1.806,4.603,2.237,6.958,1.079l2.631-1.595c0.336-0.203,0.748-0.248,1.117-0.121c0.371,0.126,0.668,0.411,0.81,0.777
			l2.829,7.322c0.025,0.061,0.044,0.123,0.058,0.186c2.354,10.394-2.446,20.495-11.672,24.565L463.637,154.104z M471.068,123.003
			h0.012H471.068z"/>
	</g>
</g>
<rect x="25.158" y="746.167" opacity="0.2" fill="#1D4354" width="724.842" height="4.919"/>
</svg>
