<?xml version="1.0" encoding="utf-8"?>
<!-- Generator: Adobe Illustrator 16.0.0, SVG Export Plug-In . SVG Version: 6.00 Build 0)  -->
<!DOCTYPE svg PUBLIC "-//W3C//DTD SVG 1.1//EN" "http://www.w3.org/Graphics/SVG/1.1/DTD/svg11.dtd">
<svg version="1.1" id="Layer_1" xmlns="http://www.w3.org/2000/svg" xmlns:xlink="http://www.w3.org/1999/xlink" x="0px" y="0px"
	 width="750px" height="750px" viewBox="0 0 750 750" enable-background="new 0 0 750 750" xml:space="preserve">
<g id="Background_Simple" display="none">
	<path display="inline" fill="#E0E0E0" d="M607.298,278.353c-23.915-32.642-66.104-52.993-105.771-44.999
		c-52.397,10.56-85.782,63.545-135.4,83.422c-48.852,19.569-104.3,4.006-156.557,10.225c-22.771,2.709-46.142,10.339-61.454,27.409
		c-14.762,16.458-20.041,39.574-19.929,61.682c0.307,60.609,42.444,130.646,98.932,152.613l9.26,1.615
		c50.609,6.417,158.528,5.771,209.184-0.271c50.656-6.046,112.663-40.645,146.196-79.089c23.477-26.909,37.188-61.575,41.62-97.006
		C638.403,353.804,631.213,310.995,607.298,278.353z"/>
</g>
<g id="Post_service_tracking_1_">
	<g>
		<path fill="#1D4354" d="M174.264,733.321c-0.382,0-0.738-0.244-0.863-0.627c-0.157-0.478,0.104-0.988,0.581-1.144
			c4.7-1.536,464.451-151.785,570.415-193.871H32.412c-0.501,0-0.909-0.404-0.909-0.908c0-0.502,0.408-0.907,0.909-0.907h716.68
			c0.437,0,0.811,0.309,0.893,0.732c0.083,0.426-0.146,0.854-0.55,1.017c-97.063,39.51-570.122,194.106-574.889,195.662
			C174.453,733.306,174.357,733.321,174.264,733.321z"/>
	</g>
	<g>
		<path fill="#1D4354" d="M329.007,190.519c-2.013,0-3.883-1.125-4.804-2.991l-4.651-9.43c-0.599-1.213-1.828-2.021-3.187-1.974
			c-1.789,0.024-3.632-0.037-5.462-0.17c-1.338-0.08-2.639,0.604-3.311,1.784l-5.199,9.153c-1.239,2.183-3.794,3.203-6.213,2.487
			l-8.13-2.416c-2.423-0.72-3.993-2.971-3.819-5.473l0.729-10.482c0.093-1.347-0.611-2.641-1.794-3.296
			c-1.581-0.876-3.132-1.822-4.612-2.808c-1.126-0.75-2.611-0.789-3.783-0.104l-9.111,5.343c-2.173,1.273-4.9,0.892-6.634-0.93
			l-5.825-6.119c-1.739-1.827-1.966-4.558-0.551-6.639l5.926-8.72c0.759-1.119,0.809-2.574,0.128-3.709
			c-0.921-1.538-1.792-3.139-2.59-4.757c-0.585-1.192-1.824-1.982-3.214-1.938l-10.613,0.109c-0.019,0-0.038,0-0.057,0
			c-2.501,0-4.644-1.677-5.225-4.097l-1.959-8.186c-0.585-2.443,0.595-4.918,2.868-6.019l9.512-4.604
			c1.223-0.591,2.003-1.827,1.988-3.146c-0.021-1.786,0.038-3.608,0.168-5.416c0.097-1.32-0.609-2.603-1.801-3.269l-9.239-5.158
			c-2.206-1.229-3.238-3.768-2.513-6.175l2.432-8.056c0.726-2.4,2.993-3.942,5.512-3.784l10.579,0.729
			c1.362,0.103,2.675-0.604,3.337-1.777c0.88-1.56,1.832-3.098,2.829-4.569c0.753-1.108,0.793-2.571,0.102-3.728l-5.396-9.034
			c-1.29-2.161-0.906-4.873,0.936-6.595l6.172-5.77c1.836-1.716,4.582-1.938,6.675-0.542l8.804,5.877
			c1.133,0.757,2.612,0.81,3.765,0.131c1.558-0.915,3.174-1.778,4.798-2.563c1.201-0.58,1.967-1.825,1.953-3.172l-0.119-10.517
			c-0.027-2.509,1.671-4.664,4.13-5.241l8.259-1.937c2.458-0.576,4.947,0.595,6.059,2.844l4.651,9.43
			c0.593,1.202,1.828,1.973,3.152,1.973c0.013,0,0.021,0,0.035,0c1.805-0.022,3.642,0.039,5.46,0.17
			c1.344,0.088,2.639-0.603,3.309-1.783l5.199-9.153c1.24-2.182,3.796-3.202,6.214-2.486l8.13,2.416
			c2.423,0.721,3.994,2.97,3.818,5.473l-0.724,10.483c-0.094,1.348,0.61,2.641,1.796,3.297c1.58,0.876,3.132,1.821,4.609,2.807
			c1.125,0.75,2.611,0.791,3.784,0.103l9.112-5.342c2.172-1.275,4.898-0.892,6.634,0.929l5.826,6.12
			c1.738,1.825,1.966,4.554,0.552,6.637l-5.928,8.724c-0.757,1.115-0.803,2.58-0.112,3.731c0.914,1.528,1.776,3.113,2.562,4.709
			c0.591,1.195,1.839,1.962,3.188,1.962c0.013,0,0.024,0,0.038,0l10.613-0.11c2.536-0.007,4.697,1.659,5.281,4.099l1.96,8.185
			c0.584,2.442-0.595,4.917-2.866,6.018l-9.515,4.603c-1.221,0.592-2.003,1.825-1.986,3.146c0.021,1.786-0.038,3.607-0.169,5.415
			c-0.099,1.32,0.608,2.604,1.801,3.27l9.238,5.156c2.205,1.231,3.236,3.772,2.513,6.177l-2.433,8.057
			c-0.725,2.4-2.988,3.938-5.512,3.785l-10.578-0.729c-1.36-0.096-2.673,0.603-3.335,1.777c-0.884,1.565-1.836,3.103-2.831,4.568
			c-0.751,1.108-0.792,2.571-0.101,3.728l5.396,9.034c1.289,2.162,0.906,4.873-0.936,6.595l-6.172,5.771
			c-1.837,1.716-4.582,1.94-6.676,0.54l-8.808-5.875c-1.132-0.759-2.618-0.803-3.786-0.119c-1.537,0.904-3.133,1.758-4.75,2.539
			c-1.216,0.587-1.991,1.837-1.977,3.183l0.118,10.518c0.026,2.509-1.671,4.665-4.131,5.241l-8.258,1.938
			C329.843,190.47,329.421,190.517,329.007,190.519z M316.399,174.309c2.01,0,3.883,1.167,4.781,2.985l4.651,9.43
			c0.734,1.491,2.389,2.264,4.014,1.879l8.258-1.936c1.625-0.379,2.748-1.801,2.731-3.454l-0.119-10.518
			c-0.022-2.047,1.154-3.944,3.002-4.837c1.572-0.76,3.126-1.591,4.62-2.469c1.764-1.034,4.008-0.968,5.715,0.172l8.808,5.877
			c1.388,0.928,3.21,0.782,4.426-0.357l6.173-5.77c1.211-1.132,1.465-2.917,0.617-4.337l-5.396-9.034
			c-1.053-1.76-0.991-3.989,0.156-5.679c0.966-1.424,1.894-2.918,2.751-4.44c1.004-1.78,2.992-2.824,5.042-2.697l10.578,0.729
			c1.668,0.125,3.17-0.912,3.648-2.498l2.435-8.056c0.476-1.582-0.208-3.253-1.661-4.065l-9.238-5.156
			c-1.806-1.008-2.876-2.966-2.729-4.987c0.131-1.756,0.186-3.526,0.167-5.263c-0.021-2.02,1.158-3.905,3.013-4.802l9.515-4.604
			c1.497-0.726,2.275-2.354,1.89-3.961l-1.959-8.184c-0.383-1.597-1.803-2.705-3.459-2.705c-0.013,0-0.024,0-0.037,0l-10.614,0.109
			c-0.018,0-0.037,0-0.057,0c-2.037,0-3.922-1.164-4.816-2.977c-0.764-1.551-1.603-3.092-2.492-4.579
			c-1.049-1.756-0.983-3.987,0.171-5.685l5.926-8.722c0.931-1.37,0.781-3.164-0.363-4.365l-5.826-6.121
			c-1.147-1.206-2.958-1.459-4.396-0.616l-9.114,5.343c-1.769,1.038-4.01,0.974-5.709-0.159c-1.437-0.958-2.945-1.877-4.483-2.729
			c-1.799-0.996-2.867-2.964-2.725-5.012l0.728-10.482c0.114-1.649-0.923-3.131-2.523-3.607l-8.13-2.415
			c-1.607-0.479-3.299,0.2-4.117,1.643l-5.198,9.152c-1.015,1.787-2.989,2.858-5.019,2.697c-1.77-0.127-3.554-0.187-5.312-0.164
			c-1.994,0.021-3.93-1.153-4.835-2.987l-4.652-9.429c-0.734-1.489-2.385-2.266-4.015-1.88l-8.258,1.936
			c-1.625,0.382-2.747,1.802-2.729,3.454l0.118,10.517c0.023,2.048-1.146,3.943-2.979,4.828c-1.581,0.764-3.151,1.601-4.667,2.492
			c-1.749,1.028-3.982,0.956-5.693-0.187l-8.804-5.878c-1.389-0.926-3.209-0.78-4.427,0.357l-6.172,5.769
			c-1.212,1.133-1.466,2.916-0.617,4.337l5.397,9.035c1.051,1.759,0.989,3.988-0.157,5.679c-0.971,1.43-1.895,2.924-2.751,4.442
			c-1.003,1.779-2.984,2.831-5.043,2.696l-10.578-0.729c-1.669-0.119-3.169,0.912-3.648,2.497l-2.431,8.056
			c-0.478,1.582,0.205,3.253,1.659,4.065l9.238,5.157c1.805,1.007,2.875,2.965,2.729,4.988c-0.129,1.756-0.185,3.525-0.165,5.262
			c0.021,2.019-1.16,3.903-3.013,4.801l-9.511,4.603c-1.5,0.726-2.278,2.354-1.894,3.962l1.959,8.185
			c0.386,1.609,1.845,2.703,3.497,2.705l10.612-0.109c2.059-0.021,3.97,1.138,4.862,2.952c0.775,1.576,1.623,3.132,2.518,4.626
			c1.042,1.741,0.969,3.963-0.186,5.663l-5.926,8.721c-0.93,1.369-0.781,3.165,0.363,4.367l5.826,6.118
			c1.149,1.207,2.958,1.46,4.399,0.616l9.113-5.343c1.769-1.039,4.01-0.975,5.708,0.157c1.439,0.96,2.947,1.878,4.485,2.729
			c1.799,0.996,2.869,2.964,2.726,5.012l-0.729,10.481c-0.115,1.648,0.924,3.131,2.523,3.607l8.13,2.416
			c1.604,0.479,3.297-0.2,4.118-1.642l5.199-9.153c1.016-1.786,2.982-2.86,5.021-2.697c1.778,0.128,3.563,0.188,5.312,0.166
			C316.364,174.309,316.38,174.309,316.399,174.309z M315.584,147.623c-0.435,0-0.867-0.007-1.303-0.022
			c-20.583-0.694-36.77-17.858-36.083-38.261c0.688-20.401,17.978-36.448,38.578-35.742c20.583,0.693,36.771,17.856,36.083,38.259
			c-0.334,9.886-4.529,19.046-11.819,25.798C334.073,144.111,325.076,147.623,315.584,147.623z M315.493,75.392
			c-19.042,0-34.838,15.014-35.478,34.011c-0.655,19.402,14.746,35.723,34.329,36.383c9.484,0.303,18.531-3.04,25.462-9.461
			c6.932-6.42,10.923-15.13,11.238-24.526c0.655-19.402-14.744-35.724-34.327-36.383C316.307,75.399,315.899,75.392,315.493,75.392z
			"/>
		<path fill="#1D4354" d="M376.15,296.303c-0.328,0-0.66-0.039-0.991-0.117l-6.018-1.439c-1.905-0.456-3.216-2.133-3.186-4.08
			l0.119-7.665c0.015-0.89-0.496-1.715-1.298-2.105c-1.19-0.579-2.364-1.208-3.487-1.873c-0.769-0.454-1.748-0.428-2.5,0.067
			l-6.426,4.25c-1.628,1.076-3.754,0.893-5.172-0.442l-4.484-4.229c-1.423-1.342-1.712-3.447-0.704-5.119l3.974-6.586
			c0.46-0.762,0.442-1.72-0.045-2.443c-0.737-1.092-1.438-2.229-2.084-3.38c-0.429-0.763-1.284-1.223-2.188-1.161l-7.726,0.498
			c-1.959,0.134-3.707-1.087-4.26-2.951l-1.749-5.885c-0.556-1.869,0.254-3.835,1.97-4.782l6.747-3.728
			c0.783-0.434,1.253-1.273,1.199-2.14c-0.084-1.304-0.116-2.641-0.09-3.97c0.017-0.872-0.495-1.689-1.304-2.085l-6.933-3.393
			c-1.761-0.862-2.666-2.786-2.204-4.678l1.454-5.965c0.457-1.868,2.113-3.16,4.044-3.16c0.021,0,0.043,0,0.064,0l7.734,0.115
			c0.012,0,0.022,0,0.032,0c0.893,0,1.714-0.502,2.104-1.29c0.584-1.182,1.222-2.347,1.891-3.458
			c0.455-0.756,0.43-1.719-0.066-2.454l-4.286-6.368c-1.093-1.622-0.908-3.739,0.448-5.149l4.27-4.445
			c1.35-1.406,3.464-1.692,5.144-0.698l6.646,3.935c0.776,0.458,1.752,0.44,2.485-0.046c1.11-0.736,2.259-1.43,3.412-2.065
			c0.769-0.423,1.229-1.271,1.171-2.156l-0.5-7.656c-0.125-1.943,1.1-3.684,2.979-4.232l5.938-1.736
			c1.877-0.547,3.854,0.252,4.808,1.948l3.761,6.688c0.437,0.777,1.284,1.248,2.17,1.188c1.325-0.084,2.672-0.117,4.005-0.092
			c0.888,0.014,1.717-0.491,2.115-1.292l3.425-6.871c0.868-1.742,2.804-2.641,4.706-2.186l6.019,1.44
			c1.905,0.456,3.216,2.134,3.188,4.08l-0.12,7.665c-0.013,0.889,0.496,1.716,1.3,2.106c1.192,0.58,2.366,1.208,3.486,1.871
			c0.769,0.454,1.751,0.428,2.499-0.066l6.43-4.25c1.627-1.076,3.754-0.895,5.172,0.443l4.481,4.229
			c1.426,1.342,1.715,3.446,0.706,5.119l-3.975,6.589c-0.46,0.761-0.438,1.725,0.058,2.458c0.73,1.084,1.427,2.208,2.063,3.346
			c0.435,0.774,1.299,1.245,2.195,1.178l7.728-0.498c1.96-0.127,3.706,1.087,4.26,2.952l1.748,5.885
			c0.556,1.868-0.254,3.835-1.97,4.782l-6.747,3.728c-0.783,0.434-1.254,1.274-1.198,2.14c0.085,1.308,0.116,2.643,0.09,3.97
			c-0.017,0.871,0.496,1.689,1.304,2.086l6.937,3.394c1.757,0.861,2.664,2.785,2.201,4.678l-1.452,5.965
			c-0.458,1.868-2.116,3.159-4.048,3.159c-0.02,0-0.04,0-0.062,0l-7.733-0.115c-0.869-0.025-1.744,0.492-2.137,1.289
			c-0.588,1.186-1.224,2.347-1.893,3.458c-0.455,0.756-0.429,1.719,0.066,2.455l4.286,6.369c1.093,1.62,0.905,3.738-0.448,5.149
			l-4.27,4.444c-1.349,1.405-3.462,1.693-5.145,0.699l-6.646-3.936c-0.775-0.458-1.757-0.436-2.502,0.058
			c-1.095,0.725-2.229,1.412-3.38,2.044c-0.778,0.43-1.245,1.28-1.185,2.165l0.499,7.657c0.126,1.942-1.102,3.683-2.979,4.232
			l-5.938,1.736c-1.878,0.548-3.854-0.253-4.809-1.949l-3.759-6.686c-0.438-0.778-1.286-1.256-2.169-1.188
			c-1.325,0.084-2.673,0.116-4.006,0.092c-0.896,0.008-1.718,0.49-2.115,1.292l-3.427,6.873
			C379.148,295.44,377.701,296.303,376.15,296.303z M360.098,276.886c0.733,0,1.469,0.191,2.116,0.576
			c1.082,0.638,2.211,1.245,3.357,1.802c1.434,0.697,2.345,2.175,2.32,3.767l-0.117,7.665c-0.02,1.089,0.719,2.03,1.791,2.285
			l6.017,1.44c1.078,0.258,2.17-0.249,2.657-1.229l3.428-6.872c0.712-1.425,2.194-2.324,3.774-2.299
			c1.284,0.025,2.578-0.004,3.854-0.087c1.569-0.097,3.091,0.728,3.869,2.111l3.759,6.685c0.537,0.956,1.653,1.407,2.715,1.097
			l5.939-1.736c1.057-0.31,1.748-1.285,1.677-2.37l-0.499-7.657c-0.104-1.585,0.729-3.106,2.122-3.875
			c1.105-0.609,2.2-1.272,3.254-1.968c1.319-0.874,3.06-0.917,4.428-0.106l6.647,3.937c0.951,0.561,2.146,0.399,2.908-0.394
			l4.269-4.445c0.76-0.788,0.862-1.971,0.253-2.876l-4.288-6.369c-0.889-1.319-0.933-3.049-0.113-4.406
			c0.643-1.068,1.256-2.187,1.818-3.325c0.694-1.403,2.152-2.3,3.729-2.3c0.021,0,0.04,0,0.061,0l7.736,0.115
			c0.012,0,0.021,0,0.033,0c1.092,0,2.024-0.725,2.28-1.775l1.457-5.963c0.258-1.057-0.252-2.132-1.236-2.617l-6.936-3.392
			c-1.438-0.707-2.35-2.179-2.321-3.751c0.024-1.278-0.005-2.563-0.086-3.819c-0.103-1.564,0.734-3.075,2.134-3.847l6.748-3.728
			c0.962-0.531,1.416-1.632,1.104-2.675l-1.748-5.884c-0.312-1.048-1.299-1.734-2.4-1.659l-7.729,0.498
			c-1.602,0.096-3.122-0.723-3.896-2.102c-0.614-1.093-1.281-2.177-1.984-3.22c-0.887-1.317-0.929-3.047-0.107-4.411l3.977-6.588
			c0.563-0.933,0.399-2.11-0.396-2.86l-4.483-4.229c-0.803-0.754-2.005-0.858-2.925-0.249l-6.429,4.25
			c-1.324,0.877-3.063,0.92-4.425,0.117c-1.078-0.639-2.207-1.245-3.355-1.804c-1.434-0.696-2.346-2.175-2.32-3.767l0.118-7.665
			c0.017-1.089-0.721-2.029-1.791-2.286l-6.02-1.438c-1.077-0.26-2.17,0.248-2.656,1.229l-3.427,6.872
			c-0.712,1.426-2.189,2.289-3.774,2.297c-1.284-0.021-2.58,0.006-3.854,0.088c-1.573,0.098-3.091-0.726-3.869-2.109l-3.761-6.687
			c-0.537-0.954-1.655-1.405-2.714-1.095l-5.939,1.735c-1.057,0.31-1.746,1.284-1.675,2.372l0.497,7.654
			c0.106,1.586-0.723,3.103-2.105,3.867c-1.111,0.612-2.215,1.281-3.282,1.988c-1.313,0.869-3.046,0.908-4.417,0.096l-6.646-3.935
			c-0.95-0.563-2.145-0.401-2.906,0.392l-4.271,4.445c-0.756,0.788-0.859,1.971-0.25,2.876l4.287,6.369
			c0.887,1.318,0.933,3.049,0.114,4.407c-0.644,1.067-1.255,2.186-1.818,3.325c-0.703,1.422-2.22,2.315-3.791,2.3l-7.734-0.114
			c-1.107-0.033-2.057,0.711-2.316,1.774l-1.454,5.964c-0.259,1.058,0.251,2.133,1.237,2.616l6.934,3.392
			c1.439,0.706,2.349,2.178,2.32,3.752c-0.025,1.28,0.004,2.563,0.086,3.818c0.101,1.565-0.735,3.075-2.131,3.848l-6.75,3.727
			c-0.961,0.532-1.416,1.632-1.106,2.675l1.749,5.885c0.313,1.047,1.306,1.731,2.402,1.658l7.727-0.498
			c1.59-0.1,3.12,0.716,3.889,2.085c0.623,1.107,1.296,2.202,2.006,3.254c0.882,1.307,0.918,3.033,0.094,4.396l-3.972,6.586
			c-0.563,0.934-0.401,2.109,0.393,2.86l4.485,4.229c0.801,0.753,2.003,0.856,2.924,0.248l6.427-4.25
			C358.484,277.116,359.292,276.886,360.098,276.886z M386.194,265.056c-14.902,0-27.168-11.861-27.469-26.698
			c-0.146-7.278,2.573-14.18,7.662-19.432c5.087-5.25,11.933-8.223,19.272-8.372c0.189-0.003,0.38-0.006,0.568-0.006
			c14.901,0,27.171,11.861,27.47,26.697c0.146,7.28-2.574,14.181-7.662,19.433c-5.088,5.249-11.934,8.223-19.272,8.371
			C386.574,265.053,386.384,265.056,386.194,265.056z M386.229,212.366c-0.176,0-0.353,0.001-0.531,0.005
			c-6.856,0.139-13.251,2.916-18.003,7.819c-4.75,4.9-7.291,11.34-7.153,18.132c0.28,13.848,11.738,24.917,25.655,24.917
			c0.177,0,0.354-0.002,0.532-0.005c6.857-0.138,13.253-2.917,18.003-7.818c4.751-4.901,7.288-11.341,7.153-18.131
			C411.604,223.436,400.146,212.366,386.229,212.366z"/>
	</g>
	<g>
		<g>
			<path fill="#1D4354" d="M52.94,668.697c9.308,2.22,18.935-0.085,28.442-1.187l234.073-24.203
				c12.023-1.252,21.068-11.473,20.78-23.487L322.965,64.848l-12.492-3.089c-10.271-2.448-20.889-3.134-31.392-2.029L44.928,84.697
				c-11.354,1.199-19.969,10.721-19.969,22.072v541.182c0,8.256,5.693,15.433,13.768,17.357L52.94,668.697z"/>
			<g>
				<path fill="#B9CEEB" d="M317.244,646.406L66.811,672.693c-11.966,1.254-22.387-8.131-22.387-20.162V111.473
					c0-10.375,7.835-19.077,18.154-20.16l250.433-26.286c11.966-1.255,22.388,8.128,22.388,20.16v541.06
					C335.398,636.622,327.563,645.323,317.244,646.406z"/>
				<path fill="#1D4354" d="M64.703,673.708c-5.206,0-10.276-1.923-14.18-5.438c-4.452-4.01-7.004-9.746-7.004-15.736v-541.06
					c0-10.874,8.153-19.929,18.967-21.062l250.432-26.286c5.958-0.626,11.928,1.315,16.381,5.324
					c4.454,4.01,7.006,9.746,7.006,15.737v541.06c0,10.874-8.152,19.927-18.966,21.063l-0.095-0.901l0.095,0.901L66.906,673.595
					C66.171,673.672,65.437,673.708,64.703,673.708z M315.121,65.825c-0.67,0-1.342,0.036-2.014,0.105L62.675,92.216
					c-9.887,1.037-17.341,9.316-17.341,19.257v541.059c0,5.477,2.334,10.723,6.405,14.387c4.071,3.668,9.529,5.438,14.979,4.871
					l250.433-26.285c9.886-1.037,17.34-9.314,17.34-19.258V85.187c0-5.478-2.334-10.722-6.405-14.389
					C324.515,67.585,319.88,65.825,315.121,65.825z"/>
			</g>
			<path fill="#1D4354" d="M64.707,673.708c-5.212,0-10.28-1.923-14.184-5.438c-4.452-4.01-7.004-9.746-7.004-15.736v-541.06
				c0-10.874,8.153-19.929,18.967-21.062l250.432-26.286c5.958-0.626,11.928,1.315,16.381,5.324
				c4.454,4.01,7.006,9.746,7.006,15.737V308.15c0,0.501-0.405,0.909-0.906,0.909s-0.909-0.408-0.909-0.909V85.187
				c0-5.478-2.335-10.722-6.408-14.389c-4.069-3.666-9.529-5.434-14.976-4.868L62.675,92.216
				c-9.887,1.037-17.341,9.316-17.341,19.257v541.059c0,5.477,2.334,10.723,6.405,14.387c4.071,3.668,9.529,5.438,14.979,4.871
				l108.305-12.428c0.495-0.064,0.949,0.3,1.005,0.801c0.058,0.497-0.301,0.947-0.798,1.005L66.915,673.595
				C66.178,673.669,65.441,673.708,64.707,673.708z"/>
			<path fill="#1D4354" d="M317.243,647.313c-0.458,0-0.854-0.347-0.902-0.813c-0.052-0.498,0.31-0.945,0.81-0.998
				c9.886-1.035,17.34-9.314,17.34-19.257V308.15c0-0.501,0.407-0.908,0.909-0.908s0.908,0.406,0.908,0.908v318.097
				c0,10.874-8.153,19.928-18.968,21.062C317.307,647.313,317.275,647.313,317.243,647.313z"/>
			<g>
				<path fill="none" d="M321.938,98.883v516.1c0,9.414-7.11,17.307-16.473,18.295L78.193,657.132
					c-10.851,1.136-20.313-7.383-20.313-18.298V122.737c0-9.415,7.11-17.308,16.48-18.287l74.65-7.836v6.248
					c0,7.064,6.119,12.575,13.146,11.839l57.997-6.084c6.056-0.636,10.659-5.748,10.659-11.841v-8.753l70.808-7.428
					C312.484,79.452,321.938,87.968,321.938,98.883z"/>
				<path fill="#1D4354" d="M76.289,658.14c-4.747,0-9.371-1.759-12.932-4.965c-4.057-3.655-6.386-8.882-6.386-14.339v-516.1
					c0-9.908,7.435-18.159,17.296-19.189l74.647-7.836c0.256-0.031,0.512,0.055,0.702,0.228c0.192,0.171,0.301,0.417,0.301,0.675
					v6.248c0,3.109,1.325,6.086,3.637,8.169s5.411,3.095,8.507,2.767l57.995-6.083c5.616-0.591,9.848-5.293,9.848-10.939v-8.752
					c0-0.465,0.352-0.855,0.813-0.903l70.809-7.427c5.433-0.572,10.872,1.194,14.929,4.846c4.059,3.655,6.388,8.882,6.388,14.344
					v516.1c0,9.902-7.431,18.156-17.286,19.198L78.289,658.035C77.622,658.105,76.953,658.14,76.289,658.14z M148.103,97.621
					l-73.646,7.732c-8.932,0.934-15.668,8.407-15.668,17.384v516.1c0,4.943,2.108,9.678,5.785,12.99
					c3.677,3.312,8.607,4.919,13.525,4.403l227.271-23.854c8.926-0.944,15.658-8.423,15.658-17.394V98.882
					c0-4.947-2.11-9.683-5.786-12.995c-3.676-3.31-8.607-4.906-13.522-4.391l-69.996,7.342v7.936
					c0,6.578-4.932,12.057-11.474,12.744l-57.996,6.083c-3.606,0.38-7.218-0.798-9.913-3.226c-2.693-2.425-4.237-5.894-4.237-9.518
					L148.103,97.621L148.103,97.621z"/>
			</g>
		</g>
		<g>
			<g>
				<path fill="#FFFFFF" d="M296.644,617.921L85.673,640.614c-7.051,0.758-13.192-4.909-13.192-12.177V339.27
					c0-6.266,4.617-11.521,10.698-12.174l210.971-22.693c7.051-0.759,13.191,4.908,13.191,12.175v289.169
					C307.341,612.013,302.726,617.268,296.644,617.921z"/>
				<path fill="#1D4354" d="M84.435,641.588c-3.104,0-6.136-1.154-8.487-3.266c-2.78-2.497-4.375-6.1-4.375-9.884V339.27
					c0-6.75,4.947-12.371,11.508-13.078L294.053,303.5c3.551-0.385,7.137,0.78,9.823,3.194c2.779,2.497,4.374,6.099,4.374,9.881
					v289.171c0,6.75-4.948,12.37-11.509,13.076l-210.97,22.692C85.324,641.563,84.879,641.588,84.435,641.588z M295.431,305.242
					c-0.392,0-0.786,0.02-1.183,0.063L83.276,327.997c-5.637,0.608-9.887,5.453-9.887,11.272v289.168
					c0,3.271,1.375,6.379,3.772,8.531c2.338,2.1,5.325,3.07,8.415,2.74l210.971-22.692c5.636-0.604,9.887-5.452,9.887-11.271
					v-289.17c0-3.268-1.375-6.377-3.771-8.531C300.625,306.216,298.093,305.242,295.431,305.242z"/>
			</g>
			<g>
				<polygon fill="#FFFFFF" points="179.119,630.205 88.156,546.953 117.133,513.703 208.096,596.956 				"/>
				<path fill="#1D4354" d="M179.119,631.114c-0.227,0-0.445-0.085-0.612-0.239l-90.963-83.252c-0.363-0.332-0.395-0.895-0.07-1.266
					l28.976-33.251c0.161-0.188,0.389-0.298,0.633-0.311c0.243-0.013,0.484,0.07,0.665,0.236l90.963,83.251
					c0.363,0.335,0.394,0.896,0.07,1.267l-28.978,33.251c-0.16,0.188-0.388,0.296-0.633,0.311
					C179.153,631.112,179.136,631.114,179.119,631.114z M89.423,546.882l89.622,82.027l27.783-31.881l-89.623-82.026L89.423,546.882
					z"/>
			</g>
			<g>
				<path fill="#FFFFFF" d="M280.922,332.797l26.847,24.573v-22.416l-15.979-14.627l11.843-13.59
					c-2.408-2.143-5.643-3.318-9.102-2.946l-11.257,1.21l-3.651,4.191l-3.713-3.4l-21.915,2.358l14.762,13.511l-29.2,33.507
					l-32.602-29.84l12.765-14.65l-24.135,2.597l-1.114,1.277l-21.282,2.289l10.729,9.82l-29.2,33.507l-32.695-29.924l8.708-9.993
					l-24.136,2.597l-1.114,1.277l-13.098,1.409l6.604,6.044L73.35,360.996v7.354l-1.297-1.189v22.417l31.729,29.041L73.349,453.54
					v25.099l42.601-48.884l32.604,29.839l-76.5,87.785v25.1L160.72,470.73l32.696,29.925L74.783,636.786
					c2.459,3.067,6.318,4.891,10.511,4.438l8.268-0.893l112.023-128.546l32.695,29.926l-79.868,91.647l24.135-2.598l67.899-77.915
					l32.695,29.926L247.4,623.788l24.134-2.596l23.776-27.283l12.458,11.4v-22.415l-1.591-1.454l1.591-1.824v-25.102l-13.758,15.788
					l-32.697-29.925l29.201-33.506l17.253,15.79v-22.416l-6.387-5.844l6.387-7.329v-25.101l-18.555,21.292l-32.694-29.923
					l29.199-33.507l22.05,20.18V417.6l-11.183-10.234l11.183-12.832v-25.1l-23.351,26.797l-32.697-29.925L280.922,332.797z
					 M196.085,337.799l32.602,29.838l-29.2,33.507l-32.603-29.838L196.085,337.799z M81.955,376.223l29.2-33.508l32.695,29.926
					l-29.199,33.506L81.955,376.223z M126.818,417.282l29.2-33.507l32.603,29.839l-29.2,33.507L126.818,417.282z M171.589,458.258
					l29.201-33.507l32.695,29.924l-29.2,33.506L171.589,458.258z M278.349,495.734l-29.202,33.51l-32.695-29.926l29.2-33.509
					L278.349,495.734z M273.552,408.699l-29.2,33.506l-32.696-29.924l29.2-33.508L273.552,408.699z"/>
				<path fill="#1D4354" d="M84.04,642.201c-3.835,0-7.485-1.755-9.966-4.848c-0.274-0.342-0.265-0.834,0.024-1.164l118.053-135.467
					l-31.355-28.698L72.739,573.071c-0.249,0.287-0.649,0.389-1.003,0.255c-0.355-0.133-0.59-0.475-0.59-0.853v-25.098
					c0-0.221,0.08-0.435,0.224-0.6l75.918-87.114l-31.264-28.612l-41.988,48.183c-0.249,0.282-0.649,0.388-1.003,0.252
					c-0.354-0.134-0.59-0.472-0.59-0.851v-25.098c0-0.219,0.08-0.434,0.224-0.601l29.851-34.253l-31.076-28.44
					c-0.188-0.174-0.294-0.415-0.294-0.67v-22.413c0-0.36,0.213-0.686,0.541-0.832c0.246-0.108,0.521-0.101,0.755,0.013v-5.347
					c0-0.219,0.08-0.431,0.224-0.596l25.054-28.749l-5.95-5.446c-0.264-0.24-0.36-0.613-0.25-0.954
					c0.111-0.338,0.411-0.581,0.767-0.619l12.744-1.371l0.879-1.009c0.15-0.172,0.358-0.281,0.587-0.306l24.135-2.596
					c0.368-0.042,0.729,0.151,0.903,0.483c0.173,0.331,0.124,0.734-0.121,1.016l-8.127,9.325l31.356,28.697l28.006-32.136
					l-10.076-9.224c-0.264-0.239-0.361-0.613-0.25-0.951c0.111-0.34,0.411-0.581,0.766-0.62l20.927-2.251l0.879-1.01
					c0.151-0.172,0.359-0.281,0.587-0.307l24.135-2.595c0.37-0.042,0.728,0.152,0.901,0.483c0.173,0.332,0.125,0.734-0.12,1.016
					l-12.184,13.979l31.263,28.613l28.007-32.137l-14.109-12.913c-0.263-0.242-0.361-0.614-0.25-0.953
					c0.112-0.34,0.412-0.583,0.766-0.622l21.915-2.357c0.259-0.027,0.518,0.057,0.711,0.233l3.027,2.771l3.041-3.489
					c0.15-0.172,0.36-0.283,0.587-0.306l11.257-1.209c3.588-0.386,7.07,0.739,9.804,3.17c0.371,0.332,0.407,0.899,0.08,1.273
					l-11.261,12.923l15.327,14.03c0.188,0.172,0.294,0.415,0.294,0.67v22.415c0,0.359-0.213,0.686-0.541,0.832
					c-0.33,0.145-0.714,0.082-0.979-0.162l-26.161-23.944l-28.006,32.136l31.356,28.698l22.74-26.096
					c0.249-0.284,0.649-0.386,1.002-0.252c0.354,0.133,0.589,0.471,0.589,0.85v25.1c0,0.219-0.078,0.432-0.222,0.598l-10.604,12.166
					l10.53,9.638c0.19,0.173,0.294,0.416,0.294,0.67v22.414c0,0.358-0.211,0.688-0.542,0.832c-0.329,0.146-0.712,0.082-0.979-0.162
					l-21.364-19.555l-28.006,32.139l31.355,28.697l17.944-20.589c0.249-0.285,0.647-0.386,1.001-0.253
					c0.354,0.133,0.59,0.472,0.59,0.85v25.1c0,0.22-0.08,0.431-0.223,0.598l-5.805,6.659l5.732,5.249
					c0.189,0.17,0.295,0.414,0.295,0.668v22.419c0,0.359-0.211,0.686-0.541,0.829c-0.331,0.146-0.714,0.083-0.979-0.16
					l-16.567-15.163l-28.006,32.138l31.356,28.696l13.147-15.084c0.249-0.285,0.648-0.387,1.001-0.254
					c0.354,0.134,0.589,0.471,0.589,0.849v25.103c0,0.218-0.079,0.431-0.222,0.596l-1.009,1.157l0.936,0.857
					c0.19,0.171,0.295,0.414,0.295,0.667v22.418c0,0.358-0.212,0.686-0.541,0.83c-0.33,0.146-0.713,0.081-0.979-0.16l-11.771-10.773
					l-23.165,26.582c-0.15,0.173-0.359,0.282-0.587,0.307l-24.135,2.596c-0.374,0.041-0.729-0.152-0.902-0.481
					c-0.172-0.333-0.125-0.735,0.12-1.017l35.161-40.348l-31.356-28.698l-67.29,77.215c-0.15,0.172-0.359,0.281-0.587,0.308
					l-24.135,2.596c-0.375,0.035-0.729-0.152-0.903-0.483c-0.173-0.332-0.124-0.733,0.121-1.017l79.285-90.979l-31.356-28.698
					L94.246,640.933c-0.15,0.171-0.36,0.281-0.587,0.306l-8.268,0.892C84.94,642.177,84.487,642.201,84.04,642.201z M75.981,636.791
					c2.373,2.591,5.762,3.903,9.216,3.532l7.914-0.854L204.9,511.193c0.162-0.188,0.39-0.3,0.635-0.313
					c0.24-0.012,0.483,0.071,0.665,0.236l32.695,29.924c0.363,0.332,0.394,0.895,0.071,1.266l-78.345,89.9l21.478-2.309
					l67.667-77.647c0.161-0.186,0.389-0.296,0.634-0.311c0.241-0.014,0.483,0.07,0.664,0.237l32.695,29.924
					c0.364,0.332,0.395,0.894,0.071,1.267l-34.22,39.267l21.477-2.309l23.543-27.018c0.161-0.184,0.39-0.296,0.633-0.309
					c0.243-0.013,0.483,0.068,0.663,0.235l10.937,10.011V583.29l-1.295-1.183c-0.365-0.334-0.396-0.896-0.072-1.269l1.367-1.569
					V556.94l-12.167,13.961c-0.161,0.185-0.389,0.296-0.633,0.31c-0.249,0.012-0.485-0.072-0.665-0.237l-32.696-29.923
					c-0.364-0.334-0.395-0.896-0.071-1.267l29.2-33.507c0.161-0.187,0.39-0.295,0.633-0.312c0.243-0.016,0.484,0.069,0.665,0.236
					l15.733,14.399v-19.953l-6.093-5.578c-0.364-0.331-0.395-0.894-0.071-1.266l6.166-7.072V464.4l-16.962,19.463
					c-0.16,0.186-0.389,0.296-0.634,0.312c-0.243,0.013-0.483-0.071-0.664-0.236l-32.696-29.926
					c-0.363-0.332-0.396-0.894-0.07-1.266l29.199-33.507c0.161-0.186,0.389-0.295,0.634-0.312c0.241-0.015,0.483,0.071,0.664,0.237
					l20.53,18.791v-19.953l-10.889-9.969c-0.363-0.332-0.395-0.894-0.072-1.268l10.961-12.576v-22.334l-21.76,24.966
					c-0.161,0.188-0.389,0.3-0.634,0.311c-0.245,0.014-0.483-0.068-0.664-0.233l-32.696-29.924
					c-0.363-0.333-0.394-0.895-0.071-1.266l29.2-33.508c0.162-0.186,0.39-0.296,0.634-0.309c0.24-0.02,0.483,0.07,0.664,0.236
					l25.327,23.181v-19.954l-15.688-14.357c-0.364-0.333-0.394-0.895-0.072-1.265l11.231-12.887
					c-2.227-1.689-4.934-2.451-7.708-2.153l-10.903,1.173l-3.418,3.922c-0.161,0.185-0.389,0.296-0.633,0.31
					c-0.246,0.007-0.485-0.07-0.665-0.236l-3.412-3.122l-19.508,2.098l13.279,12.154c0.363,0.333,0.395,0.895,0.071,1.266
					l-29.2,33.507c-0.161,0.186-0.39,0.296-0.634,0.311c-0.239,0.012-0.482-0.072-0.664-0.238l-32.604-29.84
					c-0.363-0.332-0.395-0.895-0.071-1.265l11.243-12.901l-21.477,2.309l-0.878,1.011c-0.15,0.172-0.36,0.281-0.588,0.306
					l-19.281,2.074l9.245,8.462c0.363,0.333,0.395,0.894,0.071,1.266L155.4,360.769c-0.161,0.184-0.39,0.296-0.634,0.308
					c-0.245,0.006-0.484-0.069-0.664-0.235l-32.695-29.926c-0.365-0.333-0.395-0.895-0.072-1.265l7.186-8.246l-21.477,2.311
					l-0.879,1.009c-0.15,0.172-0.359,0.281-0.587,0.308l-11.098,1.194l5.12,4.686c0.364,0.333,0.396,0.895,0.072,1.266
					L74.259,361.34v7.012c0,0.358-0.213,0.685-0.542,0.829c-0.246,0.11-0.52,0.104-0.756-0.01v20.009l31.435,28.77
					c0.364,0.333,0.395,0.895,0.072,1.267L74.26,453.881v22.335l41.007-47.057c0.161-0.186,0.389-0.296,0.634-0.312
					c0.248-0.008,0.483,0.07,0.664,0.237l32.604,29.839c0.364,0.333,0.395,0.896,0.071,1.268l-76.28,87.526v22.333l87.076-99.921
					c0.161-0.185,0.389-0.296,0.634-0.311c0.239-0.01,0.484,0.072,0.664,0.237l32.695,29.924c0.363,0.334,0.395,0.896,0.071,1.266
					L75.981,636.791z M249.146,530.153c-0.227,0-0.444-0.086-0.612-0.241l-32.695-29.923c-0.363-0.333-0.395-0.896-0.072-1.268
					l29.2-33.506c0.161-0.187,0.389-0.3,0.634-0.312c0.241-0.016,0.482,0.067,0.664,0.235l32.696,29.923
					c0.364,0.334,0.395,0.896,0.071,1.268l-29.201,33.507c-0.161,0.188-0.39,0.297-0.634,0.313
					C249.182,530.149,249.164,530.153,249.146,530.153z M217.719,499.248l31.355,28.699l28.007-32.141l-31.356-28.698
					L217.719,499.248z M204.284,489.09c-0.226,0-0.444-0.083-0.613-0.238l-32.695-29.923c-0.365-0.332-0.395-0.896-0.072-1.267
					l29.199-33.507c0.161-0.185,0.39-0.297,0.633-0.311c0.24-0.013,0.484,0.071,0.664,0.237l32.695,29.923
					c0.364,0.331,0.395,0.896,0.072,1.268l-29.201,33.507c-0.16,0.184-0.389,0.296-0.633,0.311
					C204.319,489.09,204.301,489.09,204.284,489.09z M172.854,458.188l31.356,28.696l28.007-32.136l-31.357-28.699L172.854,458.188z
					 M159.421,448.03c-0.226,0-0.445-0.085-0.613-0.239l-32.604-29.839c-0.364-0.333-0.395-0.896-0.071-1.268l29.2-33.505
					c0.161-0.188,0.389-0.298,0.634-0.311c0.245-0.012,0.483,0.07,0.664,0.236l32.603,29.84c0.363,0.331,0.395,0.895,0.072,1.266
					l-29.201,33.508c-0.161,0.185-0.389,0.294-0.634,0.31C159.456,448.029,159.438,448.03,159.421,448.03z M128.084,417.21
					l31.263,28.614l28.006-32.139l-31.263-28.612L128.084,417.21z M244.352,443.114c-0.227,0-0.445-0.085-0.614-0.239
					l-32.694-29.924c-0.363-0.332-0.395-0.895-0.072-1.266l29.2-33.506c0.161-0.186,0.389-0.297,0.634-0.312
					c0.24-0.017,0.483,0.069,0.664,0.235l32.695,29.925c0.363,0.332,0.395,0.895,0.072,1.267l-29.2,33.507
					c-0.162,0.187-0.39,0.297-0.634,0.311C244.385,443.112,244.368,443.114,244.352,443.114z M212.922,412.211l31.356,28.697
					l28.006-32.139l-31.355-28.696L212.922,412.211z M114.65,407.053c-0.225,0-0.446-0.083-0.613-0.236l-32.696-29.926
					c-0.363-0.332-0.395-0.896-0.071-1.268l29.2-33.506c0.161-0.184,0.389-0.297,0.634-0.31c0.239-0.012,0.483,0.073,0.664,0.238
					l32.696,29.923c0.364,0.332,0.395,0.895,0.072,1.268l-29.2,33.505c-0.161,0.186-0.39,0.297-0.634,0.312
					C114.685,407.053,114.668,407.053,114.65,407.053z M83.222,376.148l31.355,28.699l28.006-32.138l-31.355-28.698L83.222,376.148z
					 M199.487,402.055c-0.225,0-0.445-0.085-0.613-0.237l-32.603-29.841c-0.363-0.331-0.396-0.895-0.072-1.266l29.201-33.508
					c0.161-0.184,0.389-0.296,0.634-0.31c0.242-0.017,0.483,0.071,0.663,0.237l32.603,29.84c0.364,0.332,0.395,0.895,0.072,1.266
					l-29.2,33.509c-0.162,0.184-0.389,0.296-0.634,0.309C199.522,402.055,199.505,402.055,199.487,402.055z M168.151,371.233
					l31.262,28.613l28.006-32.137l-31.263-28.614L168.151,371.233z"/>
			</g>
		</g>
		<g>
			<circle fill="#1D4354" cx="110.233" cy="259.457" r="8.014"/>
			<g>
				<path fill="none" stroke="#1D4354" stroke-miterlimit="10" d="M110.233,142.047c-18.41,0-33.333,14.88-33.333,33.236
					c0,4.589,2.083,11.006,5.207,18.053c7.877,17.758,22.371,39.504,26.804,46.002c0.634,0.932,2.007,0.933,2.642,0.002
					c6.187-9.071,32.013-47.898,32.013-64.056C143.565,156.927,128.641,142.047,110.233,142.047z"/>
				<ellipse fill="none" stroke="#1D4354" stroke-miterlimit="10" cx="110.231" cy="175.942" rx="18.049" ry="17.996"/>
			</g>
		</g>
		<g>
			<g>
				<g>
					<path fill="#FFFFFF" d="M240.641,125.451c34.914-4.906,63.062,21.688,62.992,59.372c-0.07,37.566-28.332,72.089-63.246,76.996
						c-34.913,4.907-63.165-21.673-63.096-59.24C177.362,164.896,205.727,130.358,240.641,125.451z"/>
					<path fill="#1D4354" d="M232.153,263.31c-13.262,0-25.65-4.538-35.535-13.147c-12.895-11.231-20.271-28.575-20.234-47.587
						c0.07-38.061,28.839-73.063,64.13-78.023c16.329-2.293,31.874,2.148,43.771,12.508c12.908,11.241,20.291,28.65,20.255,47.763
						c-0.07,38-28.793,72.943-64.025,77.894C237.699,263.113,234.907,263.31,232.153,263.31z M240.767,126.351
						c-34.432,4.838-62.499,39.036-62.567,76.229c-0.035,18.484,7.113,35.329,19.61,46.212
						c11.535,10.046,26.612,14.353,42.45,12.127c34.374-4.83,62.395-38.969,62.463-76.1c0.034-18.585-7.121-35.493-19.632-46.391
						C271.598,128.421,256.567,124.129,240.767,126.351z"/>
				</g>
			</g>
			<g>
				<path fill="#1D4354" d="M225.457,225.619l-0.021,10.685c0,1.028-0.774,1.978-1.727,2.111l-5.048,0.71
					c-0.953,0.134-1.729-0.597-1.727-1.625l0.02-10.685L225.457,225.619z"/>
				<path fill="#1D4354" d="M263.84,220.224l-0.021,10.685c-0.002,1.029-0.782,1.978-1.734,2.112l-5.048,0.71
					c-0.953,0.134-1.723-0.598-1.72-1.626l0.02-10.686L263.84,220.224z"/>
				<g>
					<path fill="#FFFFFF" d="M264.942,148.168c2.291-0.322,4.142,1.428,4.137,3.9l-0.122,64.87c0,1.414-1.074,2.717-2.39,2.902
						l-2.728,0.383l-8.503,1.195l-29.879,4.2l-8.503,1.196l-2.728,0.383c-1.317,0.186-2.384-0.818-2.381-2.232l0.118-63.064
						c0.005-3.47,2.622-6.656,5.837-7.107L264.942,148.168z"/>
					<path fill="#1D4354" d="M213.912,228.127c-0.71,0-1.377-0.246-1.912-0.711c-0.678-0.59-1.065-1.484-1.063-2.452l0.118-63.066
						c0.007-3.902,2.977-7.493,6.619-8.004l47.141-6.625c1.319-0.186,2.58,0.178,3.55,1.023c1.033,0.9,1.626,2.278,1.623,3.778
						l-0.122,64.869c-0.003,1.882-1.398,3.551-3.172,3.8l-52.341,7.357C214.205,228.118,214.057,228.127,213.912,228.127z
						 M265.067,149.067l-47.141,6.625c-2.782,0.392-5.051,3.177-5.057,6.211l-0.117,63.064c-0.001,0.449,0.155,0.832,0.439,1.079
						c0.246,0.213,0.561,0.301,0.907,0.252l52.341-7.357c0.871-0.122,1.607-1.039,1.609-2.005l0.121-64.87
						c0-0.988-0.354-1.843-1-2.406C266.603,149.167,265.856,148.957,265.067,149.067z"/>
				</g>
				<g>
					<path fill="#FFFFFF" d="M258.071,205.777c2.387-0.334,4.31,1.483,4.307,4.058c-0.005,2.567-1.937,4.925-4.323,5.262
						c-2.385,0.334-4.315-1.481-4.312-4.048C253.747,208.473,255.685,206.112,258.071,205.777z"/>
					<path fill="#1D4354" d="M257.486,216.044c-1.107,0-2.146-0.381-2.978-1.105c-1.067-0.929-1.678-2.346-1.674-3.892
						c0.005-3.006,2.299-5.772,5.111-6.168l0,0c1.362-0.193,2.662,0.182,3.664,1.054c1.068,0.93,1.677,2.353,1.674,3.905
						c-0.005,3.002-2.296,5.764-5.104,6.159C257.947,216.028,257.715,216.044,257.486,216.044z M258.198,206.676
						c-1.951,0.276-3.544,2.238-3.548,4.375c-0.002,1.033,0.371,1.928,1.049,2.518c0.601,0.523,1.391,0.747,2.228,0.629
						c1.949-0.274,3.538-2.232,3.542-4.364c0.001-1.041-0.373-1.939-1.052-2.531C259.82,206.781,259.029,206.558,258.198,206.676z"
						/>
				</g>
				<g>
					<path fill="#FFFFFF" d="M222.779,210.737c2.386-0.335,4.317,1.48,4.312,4.056c-0.005,2.567-1.943,4.928-4.328,5.264
						c-2.386,0.335-4.31-1.482-4.306-4.049C218.462,213.432,220.393,211.072,222.779,210.737z"/>
					<path fill="#1D4354" d="M222.195,221.004c-1.106,0-2.143-0.381-2.974-1.104c-1.064-0.928-1.674-2.347-1.672-3.896
						c0.005-3.005,2.296-5.771,5.104-6.167c1.368-0.193,2.669,0.184,3.672,1.058c1.067,0.93,1.678,2.35,1.675,3.898
						c-0.006,3.001-2.299,5.765-5.111,6.16C222.654,220.989,222.425,221.004,222.195,221.004z M223.337,211.605
						c-0.142,0-0.286,0.01-0.432,0.031c-1.948,0.273-3.537,2.234-3.541,4.372c0,1.036,0.371,1.933,1.049,2.523
						c0.598,0.52,1.386,0.744,2.221,0.625c1.953-0.273,3.543-2.232,3.547-4.365c0.002-1.037-0.372-1.934-1.051-2.527
						C224.636,211.834,224.011,211.605,223.337,211.605z"/>
				</g>
				<g>
					<path fill="#FFFFFF" d="M258.19,169.335c2.342-0.329,4.244,1.452,4.239,3.987l-0.039,20.688
						c-0.005,2.536-1.915,4.852-4.257,5.181l-35.386,4.974c-2.351,0.33-4.251-1.451-4.247-3.986l0.039-20.686
						c0.004-2.536,1.913-4.853,4.262-5.183L258.19,169.335z"/>
					<path fill="#1D4354" d="M222.189,205.113c-1.098,0-2.124-0.379-2.945-1.094c-1.052-0.916-1.654-2.318-1.65-3.843l0.039-20.687
						c0.006-2.963,2.27-5.689,5.044-6.081l35.388-4.973c1.342-0.189,2.632,0.181,3.622,1.043c1.053,0.916,1.655,2.318,1.652,3.845
						L263.3,194.01c-0.005,2.963-2.266,5.689-5.038,6.079l-35.386,4.973C222.644,205.097,222.415,205.113,222.189,205.113z
						 M258.316,170.234l-35.387,4.974c-1.917,0.27-3.479,2.192-3.483,4.285l-0.038,20.687c-0.002,1.015,0.362,1.892,1.026,2.471
						c0.588,0.513,1.363,0.731,2.186,0.615l35.386-4.973c1.912-0.269,3.471-2.19,3.475-4.284l0.039-20.687
						c0.001-1.015-0.363-1.895-1.027-2.472C259.906,170.338,259.133,170.117,258.316,170.234z"/>
				</g>
				<g>
					<path fill="#FFFFFF" d="M253.357,156.177c1.963-0.275,3.545,1.221,3.542,3.333c-0.004,2.12-1.593,4.063-3.555,4.338
						l-25.677,3.608c-1.964,0.276-3.546-1.221-3.542-3.34c0.005-2.112,1.593-4.054,3.557-4.33L253.357,156.177z"/>
					<path fill="#1D4354" d="M227.202,168.397c-0.951,0-1.84-0.327-2.552-0.948c-0.912-0.795-1.437-2.012-1.433-3.335
						c0.004-2.59,1.91-4.886,4.338-5.229l25.676-3.608c1.169-0.167,2.285,0.158,3.146,0.907c0.912,0.795,1.434,2.008,1.431,3.328
						c-0.004,2.594-1.91,4.894-4.336,5.235l-25.677,3.608C227.595,168.384,227.395,168.397,227.202,168.397z M253.483,157.076
						l-25.676,3.609c-1.5,0.211-2.771,1.782-2.775,3.432c0,0.809,0.287,1.507,0.81,1.963c0.456,0.396,1.058,0.565,1.698,0.477
						l25.676-3.609c1.527-0.214,2.771-1.756,2.775-3.44c0.002-0.805-0.286-1.499-0.809-1.953
						C254.725,157.156,254.121,156.982,253.483,157.076z"/>
				</g>
			</g>
		</g>
		<path fill="#1D4354" d="M75.243,306.132c-0.223,0-0.439-0.082-0.607-0.232c-0.191-0.172-0.301-0.418-0.301-0.675v-18.16
			c0-0.465,0.351-0.854,0.813-0.903l85.354-9.081c0.258-0.027,0.512,0.055,0.703,0.228c0.192,0.172,0.302,0.418,0.302,0.675v18.161
			c0,0.464-0.351,0.854-0.811,0.902l-85.355,9.08C75.306,306.131,75.274,306.132,75.243,306.132z M76.15,287.88v16.334l83.539-8.885
			v-16.335L76.15,287.88z M160.597,296.145h0.008H160.597z"/>
	</g>
	<g>
		<g>
			<g>
				<path fill="#FFFFFF" d="M536.915,376.543l105.964,18.523l104.949-18.385c0.181-0.031,0.181-0.293,0-0.324l-106.151-18.586
					L536.915,376.543z"/>
				<path fill="#1D4354" d="M642.879,395.977c-0.053,0-0.104-0.006-0.157-0.015l-105.963-18.526
					c-0.434-0.076-0.751-0.453-0.752-0.893c0-0.441,0.314-0.816,0.748-0.896l104.762-18.771c0.104-0.02,0.212-0.018,0.316,0
					l106.151,18.588c0.515,0.092,0.887,0.533,0.887,1.057c0,0.521-0.372,0.965-0.884,1.057l-104.951,18.389
					C642.982,395.971,642.932,395.977,642.879,395.977z M542.126,376.529l100.753,17.613l100.608-17.625l-101.81-17.826
					L542.126,376.529z"/>
			</g>
			<g>
				<polygon fill="#FFFFFF" points="642.86,552.066 642.86,394.913 536.479,376.477 536.479,533.199 				"/>
				<path fill="#1D4354" d="M642.86,552.975c-0.055,0-0.107-0.005-0.159-0.014l-106.38-18.868c-0.436-0.077-0.749-0.452-0.749-0.894
					V376.477c0-0.268,0.117-0.522,0.322-0.694c0.204-0.173,0.472-0.247,0.739-0.2l106.38,18.438
					c0.438,0.075,0.753,0.451,0.753,0.895v157.153c0,0.27-0.117,0.521-0.324,0.694C643.276,552.898,643.07,552.975,642.86,552.975z
					 M537.388,532.438l104.563,18.546V395.677l-104.563-18.12V532.438z"/>
			</g>
			<g>
				<polygon fill="#121424" points="642.86,552.066 642.86,394.913 748.315,376.453 748.315,533.291 				"/>
				<path fill="#1D4354" d="M642.86,552.975c-0.214,0-0.421-0.073-0.584-0.213c-0.206-0.174-0.324-0.427-0.324-0.694V394.913
					c0-0.44,0.314-0.817,0.751-0.896l105.456-18.459c0.263-0.047,0.536,0.026,0.741,0.198c0.205,0.175,0.323,0.431,0.323,0.696
					V533.29c0,0.438-0.315,0.815-0.749,0.894L643.018,552.96C642.966,552.97,642.911,552.975,642.86,552.975z M643.768,395.676
					v155.309l103.641-18.454V377.535L643.768,395.676z"/>
			</g>
		</g>
		<g>
			<g>
				<path fill="#FFFFFF" d="M530.284,254.152l79.865,13.962l78.974-13.835c0.159-0.028,0.159-0.261,0-0.289l-79.881-13.986
					L530.284,254.152z"/>
				<path fill="#1D4354" d="M610.149,269.023c-0.053,0-0.104-0.005-0.155-0.013l-79.865-13.962
					c-0.435-0.077-0.751-0.452-0.752-0.893c0-0.441,0.315-0.818,0.748-0.896l78.96-14.149c0.104-0.019,0.211-0.019,0.316,0
					l79.878,13.987c0.507,0.089,0.872,0.527,0.871,1.042c0,0.513-0.369,0.949-0.875,1.036l-78.97,13.835
					C610.255,269.018,610.201,269.023,610.149,269.023z M535.493,254.143l74.656,13.049l74.531-13.057l-75.437-13.209
					L535.493,254.143z M688.965,253.384c-0.001,0-0.002,0-0.004,0H688.965z"/>
			</g>
			<g>
				<polygon fill="#FFFFFF" points="610.134,386.445 610.134,267.998 529.956,254.104 529.956,372.225 				"/>
				<polygon fill="#1D4354" points="578.927,278.179 578.927,262.901 558.663,259.39 558.663,274.584 				"/>
				<path fill="#1D4354" d="M610.134,387.354c-0.054,0-0.105-0.006-0.159-0.014l-80.177-14.222c-0.435-0.077-0.75-0.453-0.75-0.893
					V254.104c0-0.268,0.118-0.522,0.323-0.694c0.205-0.174,0.474-0.247,0.739-0.201l80.18,13.895
					c0.434,0.075,0.752,0.454,0.752,0.895v118.448c0,0.269-0.118,0.521-0.325,0.695
					C610.552,387.277,610.345,387.354,610.134,387.354z M530.864,371.464l78.359,13.897V268.762l-78.359-13.58V371.464z"/>
			</g>
			<g>
				<polygon fill="#121424" points="610.134,386.445 610.134,267.998 689.617,254.085 689.617,372.293 				"/>
				<path fill="#1D4354" d="M610.134,387.354c-0.211,0-0.418-0.072-0.582-0.211c-0.207-0.177-0.327-0.429-0.327-0.697V267.998
					c0-0.44,0.319-0.818,0.754-0.895l79.482-13.914c0.262-0.046,0.535,0.028,0.739,0.2c0.207,0.173,0.325,0.427,0.325,0.695v118.209
					c0,0.439-0.315,0.816-0.748,0.893l-79.484,14.152C610.241,387.348,610.188,387.354,610.134,387.354z M611.042,268.762v116.599
					l77.666-13.828V255.166L611.042,268.762z"/>
			</g>
		</g>
		<g>
			<g>
				<path fill="#FFFFFF" d="M366.04,364.944l130.577,22.828l129.529-22.693c0.185-0.03,0.184-0.292,0-0.326l-131.012-22.941
					L366.04,364.944z"/>
				<path fill="#1D4354" d="M496.616,388.682c-0.054,0-0.104-0.006-0.157-0.014l-130.576-22.829c-0.434-0.078-0.75-0.455-0.75-0.894
					s0.314-0.818,0.749-0.895l129.095-23.132c0.104-0.02,0.213-0.019,0.316-0.001l131.011,22.94c0.516,0.09,0.888,0.535,0.888,1.058
					s-0.372,0.968-0.888,1.058l-129.529,22.695C496.721,388.676,496.667,388.682,496.616,388.682z M371.25,364.934l125.365,21.916
					l125.199-21.935l-126.681-22.182L371.25,364.934z"/>
			</g>
			<g>
				<polygon fill="#FFFFFF" points="496.591,581.238 496.591,387.582 365.503,364.864 365.503,557.989 				"/>
				<polygon fill="#1D4354" points="445.321,400.059 445.321,378.536 416.772,373.589 416.772,394.996 				"/>
				<path fill="#1D4354" d="M496.59,582.146c-0.053,0-0.104-0.007-0.157-0.017l-131.09-23.248c-0.433-0.078-0.747-0.454-0.747-0.894
					V364.864c0-0.268,0.117-0.523,0.323-0.694c0.206-0.173,0.471-0.246,0.74-0.199l131.087,22.716
					c0.436,0.076,0.753,0.453,0.753,0.896v193.656c0,0.269-0.119,0.521-0.324,0.695C497.01,582.073,496.801,582.146,496.59,582.146z
					 M366.41,557.227l129.271,22.929V388.348L366.41,365.943V557.227L366.41,557.227z"/>
			</g>
			<g>
				<g>
					<polygon fill="#B9CEEB" points="496.591,581.238 496.591,387.582 626.545,364.834 626.545,558.104 					"/>
					<path fill="#1D4354" d="M496.59,582.146c-0.212,0-0.419-0.073-0.584-0.213c-0.204-0.175-0.324-0.429-0.324-0.695V387.582
						c0-0.439,0.316-0.818,0.753-0.896l129.951-22.745c0.267-0.045,0.537,0.027,0.741,0.199c0.207,0.172,0.323,0.428,0.323,0.697
						v193.267c0,0.438-0.315,0.815-0.748,0.892L496.75,582.132C496.697,582.141,496.644,582.146,496.59,582.146z M497.499,388.344
						v191.812l128.138-22.815V365.917L497.499,388.344z"/>
				</g>
			</g>
		</g>
		<g>
			<path fill="#1D4354" d="M463.889,507.417c-0.043,0-0.087-0.005-0.131-0.01l-66.89-9.727c-0.447-0.063-0.778-0.445-0.778-0.896
				v-72.382c0-0.265,0.113-0.515,0.313-0.685c0.197-0.173,0.462-0.254,0.722-0.214l66.891,9.453
				c0.447,0.062,0.779,0.446,0.779,0.898v72.653c0,0.264-0.113,0.515-0.313,0.686C464.314,507.338,464.104,507.417,463.889,507.417z
				 M397.906,495.997l65.075,9.461v-70.815l-65.075-9.194V495.997z"/>
			<g>
				<path fill="#1D4354" d="M405.991,489.031c-0.502,0-0.906-0.406-0.906-0.908V434.7c0-0.502,0.404-0.908,0.906-0.908
					c0.504,0,0.908,0.406,0.908,0.908v53.423C406.899,488.625,406.493,489.031,405.991,489.031z"/>
				<path fill="#1D4354" d="M414.188,490.511c-0.504,0-0.907-0.405-0.907-0.907v-53.425c0-0.502,0.403-0.907,0.907-0.907
					c0.5,0,0.907,0.405,0.907,0.907v53.425C415.095,490.104,414.688,490.511,414.188,490.511z"/>
				<path fill="#1D4354" d="M422.381,491.991c-0.502,0-0.909-0.406-0.909-0.906V437.66c0-0.502,0.407-0.909,0.909-0.909
					s0.907,0.407,0.907,0.909v53.425C423.288,491.584,422.883,491.991,422.381,491.991z"/>
				<path fill="#1D4354" d="M430.575,493.471c-0.502,0-0.908-0.406-0.908-0.908V439.14c0-0.503,0.406-0.908,0.908-0.908
					c0.5,0,0.907,0.405,0.907,0.908v53.423C431.482,493.063,431.075,493.471,430.575,493.471z"/>
				<path fill="#1D4354" d="M442.061,492.837c-0.503,0-0.907-0.405-0.907-0.908v-50.37c0-0.502,0.404-0.906,0.907-0.906
					c0.502,0,0.906,0.404,0.906,0.906v50.37C442.967,492.432,442.563,492.837,442.061,492.837z"/>
				<path fill="#1D4354" d="M455.158,497.911c-0.5,0-0.907-0.406-0.907-0.909v-53.423c0-0.502,0.407-0.909,0.907-0.909
					c0.501,0,0.908,0.407,0.908,0.909v53.423C456.066,497.505,455.659,497.911,455.158,497.911z"/>
			</g>
		</g>
	</g>
	<g>
		<path fill="none" stroke="#1D4354" stroke-miterlimit="10" d="M440.696,166.286c0,25.933,41.331,88.255,51.232,102.813
			c1.017,1.495,3.212,1.492,4.229-0.003c7.093-10.427,30.289-45.331,42.896-73.834c5-11.309,8.334-21.61,8.334-28.976
			c0-29.462-23.883-53.346-53.344-53.346C464.581,112.94,440.696,136.824,440.696,166.286z"/>
		<circle fill="none" stroke="#1D4354" stroke-miterlimit="10" cx="494.043" cy="166.286" r="24.392"/>
	</g>
	<g>
		<g>
			<g>
				<g>
					<path fill="#FFFFFF" d="M218.95,696.924l2.672,28.357c0.089,0.797-0.445,1.528-1.152,1.572l-14.08,0.871
						c-0.607,0.037-1.13-0.451-1.215-1.138l-2.616-25.77L218.95,696.924z"/>
					<path fill="#1D4354" d="M206.32,728.635c-1.039,0-1.906-0.811-2.047-1.935l-2.619-25.79c-0.045-0.452,0.25-0.87,0.694-0.977
						l16.394-3.893c0.255-0.064,0.524-0.01,0.738,0.144c0.214,0.154,0.351,0.392,0.375,0.653l2.671,28.357
						c0.073,0.645-0.125,1.311-0.541,1.81c-0.379,0.451-0.897,0.72-1.458,0.755l-14.08,0.869
						C206.404,728.634,206.362,728.635,206.32,728.635z M203.541,701.518l2.537,24.979c0.024,0.199,0.148,0.307,0.254,0.321
						l14.081-0.871c0.081-0.004,0.146-0.069,0.178-0.107c0.099-0.117,0.146-0.289,0.126-0.457l-2.576-27.336L203.541,701.518z"/>
				</g>
				<g>
					<path fill="#FFFFFF" d="M223.842,717.939c0.936,3.35,2.906,12.789,3.731,18.466c0.517,3.563-1.735,6.938-5.18,7.867
						c-9.742,2.637-33.032,2.521-52.421,3.378c-1.328,0.061-3.775-0.59-4.864-3.807c-3.69-10.913,16.689-14.292,36.833-25.387
						c0.395-0.218,0.878-0.196,1.245,0.064c0.231,0.165,0.526,0.366,0.875,0.59c3.503,2.228,9.329,2.231,12.888,0.092l4.018-2.416
						C222.068,716.126,223.493,716.692,223.842,717.939z"/>
					<path fill="#1D4354" d="M169.803,748.563c-1.918,0-4.446-1.146-5.555-4.427c-2.838-8.395,6.582-12.475,19.617-18.118
						c5.422-2.348,11.566-5.01,17.639-8.354c0.71-0.393,1.557-0.345,2.211,0.12c0.221,0.16,0.502,0.352,0.833,0.562
						c3.179,2.022,8.643,2.059,11.933,0.081l4.018-2.416c0.771-0.465,1.689-0.539,2.522-0.208c0.835,0.331,1.453,1.021,1.697,1.895
						c0.97,3.475,2.932,12.919,3.754,18.58c0.581,4.003-1.929,7.814-5.841,8.873c-7.349,1.985-21.873,2.42-37.25,2.878
						c-5.116,0.154-10.406,0.312-15.368,0.529C169.942,748.561,169.874,748.563,169.803,748.563z M202.517,719.217
						c-0.045,0-0.093,0.011-0.138,0.037c-6.146,3.384-12.334,6.064-17.792,8.43c-12.146,5.26-20.921,9.06-18.619,15.869
						c1.067,3.156,3.492,3.198,3.962,3.192c4.976-0.221,10.273-0.379,15.395-0.532c15.267-0.456,29.688-0.887,36.83-2.815
						c3.025-0.819,4.967-3.769,4.518-6.86c-0.791-5.449-2.759-14.958-3.707-18.354c-0.089-0.319-0.314-0.57-0.619-0.692
						c-0.3-0.118-0.634-0.093-0.914,0.075l-4.018,2.417c-3.878,2.333-10.088,2.283-13.843-0.104
						c-0.364-0.23-0.673-0.443-0.915-0.617C202.617,719.231,202.567,719.217,202.517,719.217z"/>
				</g>
				<g>
					<path fill="#FFFFFF" d="M228.16,738.979c0.02,0.1,0.033,0.169,0.038,0.197c0.517,3.563-2.866,5.753-6.102,7.271
						c-9.598,4.507-48.362,1.926-49.859,1.822c-0.03-0.003-0.051-0.003-0.083-0.003c-0.483,0.009-5.403,0.009-6.822-3.051
						c-0.176-0.381-0.284-0.914-0.351-1.416c-0.108-0.815-0.052-1.649,0.128-2.456c0.147-0.654,0.793-1.064,1.441-0.899
						c7.195,1.84,23.995,2.45,40.783,0.602c11.162-1.229,16.01-3.662,18.597-5.211c0.705-0.422,1.607-0.012,1.768,0.801
						C227.831,737.313,227.995,738.138,228.16,738.979z"/>
					<path fill="#1D4354" d="M196.538,750c-12.003,0-23.483-0.767-24.362-0.824c-0.627-0.009-6.015-0.015-7.667-3.579
						c-0.194-0.416-0.333-0.966-0.428-1.679c-0.119-0.892-0.07-1.824,0.142-2.771c0.126-0.564,0.465-1.042,0.953-1.343
						c0.482-0.296,1.05-0.385,1.597-0.242c6.67,1.705,23.116,2.487,40.46,0.577c10.685-1.177,15.521-3.465,18.23-5.085
						c0.581-0.349,1.298-0.393,1.916-0.116c0.625,0.276,1.076,0.847,1.209,1.518l0.462,2.348c0.024,0.122,0.039,0.206,0.044,0.245
						c0.622,4.29-3.477,6.747-6.614,8.221C217.908,749.415,207.022,750,196.538,750z M172.146,747.359
						c0.03,0,0.124,0.001,0.143,0.005c13.814,0.938,41.91,1.79,49.422-1.737c4.212-1.978,5.935-3.928,5.587-6.32l-0.029-0.15
						c0-0.001,0-0.001,0-0.004l-0.461-2.343c-0.026-0.131-0.115-0.189-0.165-0.212c-0.058-0.026-0.146-0.044-0.246,0.018
						c-2.854,1.706-7.925,4.117-18.964,5.334c-17.556,1.93-34.282,1.119-41.108-0.626c-0.087-0.021-0.155,0.006-0.198,0.03
						c-0.04,0.021-0.107,0.078-0.132,0.188c-0.167,0.74-0.204,1.461-0.114,2.139c0.09,0.682,0.211,1.018,0.274,1.152
						c1.189,2.566,5.778,2.518,5.985,2.527C172.141,747.359,172.144,747.359,172.146,747.359z"/>
				</g>
				<path fill="#1D4354" d="M200.559,728.185c-0.191,0-0.385-0.063-0.549-0.188l-5.881-4.479c-0.399-0.304-0.476-0.872-0.171-1.271
					c0.304-0.399,0.871-0.475,1.271-0.171l5.881,4.477c0.399,0.305,0.476,0.874,0.172,1.271
					C201.104,728.06,200.833,728.185,200.559,728.185z"/>
				<path fill="#1D4354" d="M192.746,731.388c-0.189,0-0.381-0.061-0.545-0.182l-5.144-3.861c-0.401-0.302-0.482-0.871-0.182-1.271
					c0.301-0.401,0.871-0.483,1.271-0.183l5.145,3.861c0.4,0.301,0.482,0.869,0.181,1.271
					C193.294,731.263,193.022,731.388,192.746,731.388z"/>
			</g>
			<g>
				<path fill="#FFFFFF" d="M254.563,470.003c0,0,9.612,19.236,12.845,39.499c3.01,18.866,14.079,96.544,41.053,158.85
					c3.058,7.063-0.473,14.414-7.994,16.053c-3.009,0.656-4.27-0.415-6.875-1.684c-1.344-0.65-3.568-2.582-3.568-2.582
					s-47.752-39.905-67.222-144.621c-12.523-67.351-10.439-62.007-10.439-62.007L254.563,470.003z"/>
				<path fill="#FFFFFF" d="M241.157,478.807c0,0,5.605,36.552-4.996,63.596c-10.195,26.003-16.705,127.943-12.906,157.395
					c0.24,1.854-1.045,3.545-2.896,3.807c-4.637,0.65-12.999,1.535-18.719,0.467c-1.052-0.197-1.897-0.969-2.16-2.008
					c-3.775-14.941-35.093-150.014-13.012-219.231L241.157,478.807z"/>
				<path fill="#1D4354" d="M230.439,573.836c-0.02,0-0.037-0.002-0.055-0.002c-0.5-0.028-0.882-0.459-0.852-0.961
					c0.007-0.131,0.859-13.372,7.148-28.082c1.216-2.845,2.22-6.083,2.984-9.629c0.106-0.491,0.586-0.805,1.079-0.696
					c0.491,0.104,0.803,0.59,0.697,1.078c-0.788,3.661-1.828,7.01-3.089,9.96c-6.168,14.425-6.997,27.35-7.006,27.479
					C231.314,573.463,230.916,573.836,230.439,573.836z"/>
				<path fill="#1D4354" d="M214.903,539.226c-1.383,0-2.773-0.286-4.073-0.868l-10.03-4.492c-3.375-1.512-5.479-4.874-5.361-8.569
					l0.629-19.737c0.03-0.905,0.438-1.767,1.121-2.36c0.687-0.599,1.603-0.89,2.505-0.789c11.9,1.26,23.068,0.087,28.668-0.726l0,0
					c0.976-0.142,1.956,0.158,2.685,0.824c0.727,0.664,1.114,1.611,1.06,2.596l-1.111,20.669c-0.146,2.747-1.511,5.25-3.741,6.862
					l-6.494,4.697C219.036,538.582,216.976,539.226,214.903,539.226z M199.343,504.205c-0.353,0-0.688,0.125-0.959,0.361
					c-0.31,0.267-0.486,0.641-0.499,1.051l-0.63,19.735c-0.093,2.956,1.588,5.646,4.288,6.854l10.029,4.494
					c2.656,1.188,5.771,0.868,8.126-0.838l6.494-4.699c1.784-1.288,2.874-3.29,2.993-5.488l1.111-20.671
					c0.023-0.437-0.148-0.859-0.474-1.156c-0.324-0.297-0.763-0.426-1.201-0.364c-5.682,0.821-17.021,2.013-29.119,0.729
					C199.449,504.207,199.396,504.205,199.343,504.205z"/>
				<path fill="#1D4354" d="M264.185,536.264c-0.518,0-1.038-0.12-1.521-0.364l-11.042-5.611c-1.011-0.514-1.687-1.494-1.809-2.617
					l-2.49-22.995c-0.193-1.779,1.041-3.385,2.81-3.66l10.434-1.646c0.492-0.078,0.96,0.261,1.038,0.755
					c0.079,0.496-0.259,0.961-0.755,1.039l-10.438,1.646c-0.809,0.128-1.371,0.86-1.283,1.673l2.491,22.991
					c0.055,0.515,0.363,0.96,0.823,1.195l11.046,5.612c0.506,0.257,1.107,0.214,1.571-0.113l2.629-1.777
					c0.416-0.282,0.981-0.173,1.262,0.243c0.28,0.415,0.171,0.979-0.245,1.261l-2.612,1.766
					C265.526,536.058,264.858,536.264,264.185,536.264z"/>
				<path fill="#1D4354" d="M208.081,705.473c-2.337,0-4.625-0.141-6.608-0.512c-1.401-0.263-2.529-1.313-2.873-2.677
					c-0.368-1.454-36.459-146.181-12.997-219.73c0.113-0.354,0.429-0.604,0.8-0.629l25.68-1.891c-1.092-7.217-0.905-7.267-0.034-7.5
					c0.185-0.049,0.398-0.041,0.599,0.041l41.842-3.478c0.364-0.032,0.722,0.167,0.888,0.499
					c0.096,0.194,9.711,19.594,12.929,39.763c0.174,1.093,0.375,2.382,0.604,3.852c3.714,23.789,15.017,96.183,40.385,154.78
					c1.601,3.698,1.553,7.704-0.135,10.993c-1.659,3.233-4.678,5.474-8.5,6.307c-2.849,0.619-4.382-0.174-6.325-1.178
					c-0.354-0.185-0.73-0.376-1.139-0.577c-1.434-0.696-3.672-2.63-3.767-2.712c-0.361-0.303-36.941-31.568-58.964-108.589
					c-5.934,39.819-9.226,104.823-6.308,127.441c0.301,2.335-1.346,4.497-3.67,4.823
					C217.452,704.928,212.672,705.473,208.081,705.473z M187.149,483.69c-22.928,73.244,12.847,216.702,13.212,218.149
					c0.174,0.689,0.728,1.201,1.446,1.335c5.622,1.053,13.958,0.155,18.426-0.474c1.344-0.188,2.296-1.439,2.122-2.79
					c-3.097-24.009,0.478-91.914,6.957-132.104c0.068-0.425,0.421-0.739,0.848-0.765c0.426-0.037,0.813,0.256,0.924,0.668
					c21.713,79.372,59.147,111.415,59.521,111.729c0.606,0.524,2.372,1.971,3.383,2.464c0.424,0.204,0.814,0.404,1.18,0.595
					c1.869,0.965,2.9,1.498,5.104,1.017c3.282-0.714,5.864-2.619,7.271-5.36c1.438-2.804,1.468-6.243,0.084-9.442
					c-25.461-58.81-36.79-131.375-40.513-155.222c-0.229-1.468-0.43-2.756-0.604-3.847c-2.874-18.008-10.921-35.403-12.493-38.684
					l-40.846,3.393c0.07,0.848,0.28,2.634,0.853,6.377c0.04,0.251-0.028,0.507-0.187,0.704c-0.158,0.197-0.391,0.32-0.644,0.34
					L187.149,483.69z"/>
			</g>
			<g>
				<g>
					<path fill="#FFFFFF" d="M302.488,699.649c-1.735-7.938-2.457-9.56-6.39-15.628c-2.924-4.511,3.856-11.518,7.362-12.104
						c5.841-1.313,4.937,0.56,11.799,9.033l5.367,6.365C320.626,687.315,304.006,706.582,302.488,699.649z"/>
					<path fill="#1D4354" d="M304.052,702.053c-0.215,0-0.418-0.021-0.609-0.072c-0.663-0.168-1.522-0.675-1.841-2.137
						c-1.744-7.967-2.479-9.482-6.266-15.327c-1.101-1.7-1.147-3.817-0.133-6.122c1.495-3.395,5.358-6.91,8.106-7.373
						c4.922-1.105,5.815,0.133,8.775,4.237c0.974,1.349,2.185,3.026,3.88,5.123l5.355,6.346c0.287,0.344,0.284,0.844-0.007,1.182
						C319.208,690.347,308.859,702.053,304.052,702.053z M303.375,699.454c0.147,0.673,0.414,0.74,0.514,0.769
						c2.416,0.615,10.352-7.001,15.541-12.917l-4.865-5.769c-1.739-2.146-2.967-3.85-3.954-5.217
						c-2.914-4.041-3.153-4.373-6.955-3.52c-1.989,0.337-5.43,3.228-6.792,6.323c-0.768,1.744-0.769,3.225-0.005,4.404
						C300.922,689.796,301.652,691.581,303.375,699.454z"/>
				</g>
				<path fill="#1D4354" d="M304.052,702.053c-0.215,0-0.418-0.021-0.609-0.072c-0.663-0.168-1.522-0.675-1.841-2.137
					c-1.505-6.879-3.294-10.563-6.274-15.343c-0.266-0.425-0.135-0.984,0.29-1.25c0.425-0.265,0.985-0.134,1.25,0.289
					c3.089,4.956,4.944,8.779,6.506,15.914c0.147,0.673,0.414,0.74,0.514,0.767c2.41,0.605,10.35-6.994,15.54-12.913l-4.591-5.396
					c-2.054-2.537-4.253-5.862-5.233-7.43c-0.266-0.426-0.138-0.985,0.289-1.253c0.426-0.265,0.986-0.137,1.252,0.291
					c0.892,1.427,3.102,4.774,5.09,7.231l5.081,5.974c0.291,0.341,0.289,0.844-0.002,1.184
					C319.208,690.347,308.859,702.052,304.052,702.053z"/>
				<g>
					<path fill="#FFFFFF" d="M301.507,696.679l6.605-10.366c3.081-4.836,9.803-5.67,13.973-1.732l7.888,6.379
						c0,0,1.568,4.459,1.147,7.36c-0.547,3.778-1.661,9.17-3.909,14.532c-3.458,8.25-13.144,24.882-16.593,30.727
						c-0.724,1.223-2.565,2.456-3.872,1.898c-1.553-0.661-3.172-1.875-4.742-3.293c-2.427-2.194-1.816-12.678-1.092-19.98
						c0.464-4.682-0.16-16.6-0.45-21.509C300.38,699.277,300.745,697.874,301.507,696.679z"/>
					<path fill="#1D4354" d="M307.45,746.521c-0.358,0-0.717-0.063-1.062-0.211c-1.493-0.636-3.126-1.765-4.994-3.455
						c-0.783-0.709-3.161-2.857-1.387-20.742c0.458-4.62-0.165-16.481-0.452-21.366c-0.097-1.613,0.313-3.19,1.185-4.558
						l6.603-10.365c1.615-2.536,4.251-4.202,7.234-4.571c2.979-0.367,5.944,0.604,8.129,2.667l7.837,6.333
						c0.13,0.104,0.229,0.244,0.285,0.404c0.066,0.188,1.635,4.702,1.188,7.788c-0.533,3.685-1.654,9.232-3.969,14.756
						c-3.428,8.18-12.787,24.288-16.648,30.836C310.706,745.212,309.059,746.521,307.45,746.521z M301.507,696.679l0.766,0.486
						c-0.664,1.043-0.976,2.245-0.904,3.476c0.292,4.928,0.917,16.901,0.447,21.65c-1.519,15.32,0.051,18.543,0.797,19.219
						c1.715,1.553,3.182,2.576,4.488,3.133c0.756,0.322,2.182-0.589,2.735-1.527c3.844-6.516,13.153-22.537,16.538-30.615
						c2.241-5.347,3.331-10.734,3.847-14.313c0.332-2.288-0.72-5.754-1.024-6.688l-7.684-6.211
						c-1.841-1.736-4.268-2.537-6.712-2.229c-2.441,0.302-4.602,1.667-5.925,3.739l-6.604,10.367L301.507,696.679z"/>
				</g>
				<path fill="#1D4354" d="M300.907,709.28c-0.392,0-0.754-0.256-0.871-0.652c-0.141-0.479,0.133-0.986,0.615-1.127l7.271-2.14
					c0.48-0.146,0.986,0.133,1.128,0.612c0.143,0.48-0.134,0.986-0.615,1.127l-7.271,2.143
					C301.078,709.268,300.992,709.28,300.907,709.28z"/>
				<path fill="#1D4354" d="M301.567,715.792c-0.392,0-0.754-0.256-0.871-0.651c-0.142-0.479,0.134-0.984,0.615-1.128l7.271-2.14
					c0.483-0.145,0.986,0.136,1.127,0.614c0.143,0.481-0.134,0.986-0.615,1.13l-7.272,2.137
					C301.738,715.78,301.652,715.792,301.567,715.792z"/>
				<g>
					<path fill="#FFFFFF" d="M309.588,745.961c-0.747,0.013-1.456-0.094-2.104-0.303c-2.195-0.713-7.684-2.241-7.214-10.075
						c0.483-8.123,6.579-12.365,10.986-17.768c3.362-4.124,2.711-21.103,3.731-24.448c1.83-5.994,10.521-7.052,14.986-2.409
						c2.82,2.932,3.266,9.404,3.079,14.174c-0.341,8.928-5.265,26.775-11.735,35.47
						C318.159,744.844,313.189,745.896,309.588,745.961z"/>
					<path fill="#1D4354" d="M309.454,746.87c-0.78,0-1.537-0.116-2.25-0.351l-0.194-0.062c-2.227-0.717-8.143-2.616-7.646-10.931
						c0.391-6.571,4.257-10.711,7.995-14.715c1.079-1.154,2.193-2.349,3.191-3.573c2.033-2.493,2.502-10.774,2.844-16.82
						c0.192-3.392,0.345-6.074,0.724-7.318c0.865-2.836,3.167-4.895,6.312-5.646c3.669-0.88,7.673,0.251,10.2,2.876
						c3.264,3.395,3.489,10.752,3.332,14.835c-0.331,8.586-5.137,26.872-11.917,35.979c-3.611,4.853-9.345,5.668-12.441,5.726
						C309.553,746.87,309.505,746.87,309.454,746.87z M322.954,688.974c-0.703,0-1.409,0.081-2.103,0.246
						c-2.504,0.601-4.323,2.208-4.997,4.414c-0.314,1.033-0.477,3.877-0.646,6.892c-0.375,6.646-0.845,14.914-3.249,17.864
						c-1.037,1.271-2.174,2.49-3.273,3.667c-3.681,3.939-7.158,7.663-7.511,13.581c-0.412,6.908,4.014,8.331,6.391,9.095
						l0.198,0.063c0.566,0.183,1.175,0.267,1.807,0.26l0,0c2.762-0.051,7.868-0.767,11.017-4.995
						c6.575-8.831,11.238-26.605,11.56-34.963c0.246-6.459-0.782-11.382-2.827-13.509
						C327.705,689.911,325.353,688.974,322.954,688.974z"/>
				</g>
				<path fill="#1D4354" d="M309.462,746.87c-1.958,0-3.743-0.738-4.915-2.034c-1.067-1.182-1.544-2.746-1.346-4.404
					c1.017-8.473,5.532-12.963,10.311-17.716c3.661-3.64,4.419-16.356,4.784-22.471c0.137-2.277,0.208-3.397,0.344-3.933
					c0.646-2.535,3.85-4.94,7.146-5.364c3.066-0.395,5.692,0.948,7.205,3.686c0.24,0.438,0.082,0.991-0.358,1.233
					c-0.438,0.241-0.992,0.083-1.233-0.354c-1.47-2.669-3.735-2.977-5.385-2.766c-2.799,0.361-5.204,2.401-5.613,4.013
					c-0.101,0.392-0.188,1.875-0.291,3.595c-0.408,6.82-1.166,19.52-5.315,23.646c-4.748,4.724-8.848,8.799-9.79,16.645
					c-0.138,1.147,0.17,2.177,0.891,2.972c0.848,0.938,2.168,1.461,3.676,1.435c0.813-0.015,1.617-0.08,2.392-0.194
					c0.492-0.066,0.959,0.271,1.033,0.766s-0.271,0.959-0.766,1.032c-0.852,0.125-1.735,0.197-2.626,0.216
					C309.556,746.87,309.509,746.87,309.462,746.87z"/>
			</g>
		</g>
		<g>
			<g>
				<polygon fill="#FFFFFF" points="235.554,343.161 231.235,319.457 211.925,324.425 214.589,340.927 				"/>
				<path fill="#1D4354" d="M235.554,344.068c-0.032,0-0.064-0.001-0.097-0.006l-20.964-2.232c-0.408-0.044-0.736-0.354-0.801-0.759
					l-2.665-16.501c-0.075-0.464,0.215-0.908,0.669-1.024l19.311-4.969c0.243-0.063,0.503-0.022,0.715,0.114
					c0.212,0.135,0.358,0.354,0.404,0.601l4.319,23.704c0.052,0.281-0.033,0.57-0.228,0.782
					C236.046,343.965,235.805,344.068,235.554,344.068z M215.375,340.098l19.068,2.03l-3.925-21.547l-17.565,4.518L215.375,340.098z
					"/>
			</g>
			<g>
				<path fill="#1D4354" d="M215.323,287.538c6.902,0.937,7.841,8.729,16.09,9.644c3.779,0.42,5.678-0.984,9.026,0.625
					c2.219,1.064,5.446,3.629,5.775,7.024c0.42,4.323-4.32,5.257-9.162,13.578c-3.4,5.843-3.607,9.757-6.312,10.18
					c-2.734,0.428-3.957-3.349-6.979-3.105c-3.912,0.313-4.422,6.841-8.549,8.79c-2.602,1.227-8.05,0.97-15.742-4.79
					c-1.247-0.934-1.651-2.624-0.958-4.021c0.89-1.787,2.024-4.037,3.29-6.096c6.031-9.816,10.287-11.473,9.448-14.483
					c-1.285-4.611-9.75-3.756-10.402-7.466C200.17,293.563,208.235,286.576,215.323,287.538z"/>
				<g>
					<path fill="#FFFFFF" d="M226.529,307.585l-1.836-0.954c0,0-5.956,12.428-8.284,15.611c-2.33,3.185-12.735-3.284-12.735-3.284
						l-0.255-2.295l-1.245-0.811c-0.386-0.251-0.637-0.664-0.684-1.122c-0.045-0.458,0.117-0.913,0.444-1.237
						c2.511-2.489,7.838-8.136,10.429-13.634C212.363,299.858,221.122,299.339,226.529,307.585z"/>
					<path fill="#1D4354" d="M227.202,308.194c-0.395-0.05-0.883-0.068-1.428-0.182c-0.544-0.111-1.077-0.332-1.511-0.556
						l1.27-0.424c-1.138,2.385-2.278,4.76-3.481,7.111c-1.203,2.354-2.417,4.696-3.778,7.007c-0.358,0.587-0.687,1.131-1.151,1.762
						c-0.308,0.396-0.737,0.694-1.164,0.873c-0.431,0.179-0.856,0.255-1.258,0.29c-1.604,0.089-2.944-0.333-4.25-0.768
						c-2.592-0.932-4.942-2.171-7.261-3.571c-0.249-0.15-0.399-0.409-0.427-0.677c-0.075-0.768-0.178-1.53-0.229-2.3l0.398,0.649
						c-0.361-0.265-0.696-0.568-1.044-0.854c-0.069-0.06-0.201-0.155-0.323-0.279c-0.118-0.114-0.216-0.246-0.308-0.376
						c-0.179-0.268-0.301-0.568-0.365-0.878c-0.128-0.62,0.021-1.295,0.419-1.793c0.235-0.276,0.34-0.356,0.51-0.539l0.463-0.475
						c1.236-1.271,2.412-2.598,3.528-3.969c1.119-1.371,2.173-2.787,3.144-4.248c0.972-1.46,1.87-2.962,2.587-4.525l0.007-0.017
						c0.142-0.306,0.441-0.492,0.757-0.501c1.582-0.045,2.996,0.176,4.446,0.533c1.431,0.361,2.819,0.899,4.122,1.606
						c1.306,0.701,2.514,1.58,3.601,2.586c0.529,0.518,1.046,1.049,1.506,1.626c0.243,0.278,0.454,0.579,0.679,0.873l0.083,0.109
						c0.037,0.052,0.098,0.143,0.144,0.221c0.098,0.165,0.191,0.361,0.25,0.575C227.265,307.523,227.216,307.937,227.202,308.194z
						 M225.856,306.976c-0.214-0.03-0.462,0.095-0.536,0.246c-0.041,0.069-0.046,0.123-0.049,0.142
						c-0.002,0.007,0.007,0.022-0.007,0.004l-0.076-0.099c-0.207-0.261-0.402-0.532-0.625-0.779
						c-0.422-0.514-0.892-0.982-1.373-1.438c-0.967-0.903-2.04-1.693-3.204-2.325c-1.161-0.638-2.405-1.127-3.691-1.46
						c-1.267-0.331-2.655-0.524-3.88-0.504l0.764-0.517c-1.647,3.333-3.893,6.215-6.268,8.932c-1.201,1.35-2.433,2.663-3.697,3.947
						l-0.9,0.903c-0.163,0.2-0.24,0.478-0.177,0.732c0.029,0.127,0.097,0.244,0.188,0.333c0.042,0.046,0.1,0.079,0.152,0.108
						l0.225,0.106c0.401,0.204,0.814,0.387,1.202,0.611c0.214,0.123,0.35,0.332,0.385,0.56l0.015,0.089
						c0.119,0.762,0.185,1.528,0.281,2.292l-0.428-0.677c2.194,1.3,4.539,2.503,6.914,3.325c1.175,0.394,2.429,0.714,3.468,0.633
						c0.518-0.047,0.878-0.204,1.058-0.443c0.315-0.431,0.679-1.007,1.004-1.543c1.313-2.225,2.528-4.556,3.723-6.887
						c1.189-2.336,2.379-4.681,3.528-7.036l0.006-0.012c0.225-0.459,0.779-0.651,1.238-0.426l0.027,0.013
						c0.176,0.094,0.258,0.192,0.325,0.399C225.514,306.406,225.639,306.708,225.856,306.976z"/>
				</g>
				<path fill="#FFFFFF" d="M222.611,316.674c0,0,4.789-5.859,6.993-3.116C231.81,316.301,226.377,322.62,222.611,316.674z"/>
			</g>
		</g>
		<g>
			<g>
				<path fill="#FFFFFF" d="M303.445,495.643c0,0-1.494,14.745,1.076,20.074c2.571,5.33,19.28,15.521,19.28,15.521
					s5.065-3.235,0-7.371c-5.064-4.139-7.11-7.579-7.11-7.579s1.036-15.688-1.235-18.942
					C313.183,494.088,303.445,495.643,303.445,495.643z"/>
				<path fill="#1D4354" d="M323.803,532.144c-0.164,0-0.329-0.044-0.474-0.133c-0.691-0.422-16.968-10.393-19.625-15.899
					c-2.652-5.497-1.223-19.949-1.161-20.563c0.042-0.409,0.354-0.74,0.76-0.804c1.055-0.169,10.371-1.539,12.896,2.077
					c2.279,3.263,1.58,16.599,1.417,19.224c0.542,0.813,2.625,3.735,6.759,7.112c1.807,1.478,2.675,3.056,2.579,4.691
					c-0.147,2.515-2.563,4.084-2.665,4.148C324.141,532.097,323.971,532.144,323.803,532.144z M304.286,496.438
					c-0.252,2.966-1.066,14.489,1.054,18.886c1.938,4.021,13.469,11.755,18.406,14.813c0.521-0.448,1.336-1.317,1.396-2.396
					c0.056-1.021-0.589-2.088-1.916-3.171c-5.13-4.191-7.229-7.671-7.315-7.818c-0.093-0.157-0.137-0.339-0.125-0.523
					c0.393-5.94,0.448-16.183-1.074-18.359C313.383,495.96,307.89,495.964,304.286,496.438z"/>
			</g>
			<g>
				<path fill="#FFFFFF" d="M117.522,292.989l1.173-7.807c0.332-2.203-0.083-4.455-1.179-6.396l-11.179-19.812
					c-0.47-0.831-1.618-1.01-2.28-0.322c-1.12,1.167-2.219,3.301-0.627,6.647l2.63,5.003c0.581,1.107,0.26,2.456-0.728,3.221
					c-1.525,1.183-3.525,3.294-3.949,6.44c-1.15,8.535,8.229,14.687,8.229,14.687L117.522,292.989z"/>
				<path fill="#1D4354" d="M109.613,295.559c-0.176,0-0.35-0.051-0.498-0.149c-0.402-0.262-9.845-6.568-8.633-15.566
					c0.462-3.421,2.589-5.715,4.293-7.037c0.648-0.502,0.85-1.376,0.48-2.081l-2.629-5.003c-1.91-4.011-0.333-6.542,0.775-7.698
					c0.508-0.528,1.217-0.779,1.954-0.685c0.743,0.093,1.405,0.538,1.772,1.188l11.178,19.812c1.189,2.108,1.645,4.585,1.286,6.979
					l-1.172,7.805c-0.057,0.375-0.34,0.676-0.712,0.753l-7.91,1.663C109.738,295.552,109.675,295.559,109.613,295.559z
					 M105.06,259.137c-0.098,0-0.233,0.026-0.347,0.146c-1.393,1.45-1.549,3.345-0.461,5.628l2.613,4.973
					c0.78,1.483,0.37,3.317-0.974,4.36c-1.435,1.114-3.227,3.031-3.606,5.844c-0.948,7.025,5.985,12.477,7.528,13.596l6.907-1.451
					l1.08-7.181c0.299-1.995-0.083-4.059-1.073-5.815l-11.179-19.813c-0.124-0.221-0.333-0.27-0.418-0.28
					C105.107,259.138,105.084,259.137,105.06,259.137z M117.522,292.989h0.009H117.522z"/>
			</g>
			<path fill="#1D4354" d="M318.82,498.184h-19.344c0,0-4.184-68.691-41.05-90.921l2.814-55.238
				C261.24,352.024,338.526,395.02,318.82,498.184z"/>
			<g>
				<path fill="#FFFFFF" d="M257.952,422.26l14.453,68.675c0,0-58.856,10.095-79.366,6.408c-20.51-3.684-22.909-9.092-22.909-9.092
					l8.67-75.529L257.952,422.26z"/>
				<path fill="#1D4354" d="M205.02,499.068c-4.727,0-8.893-0.246-12.143-0.831c-20.396-3.662-23.312-9.021-23.577-9.619
					c-0.065-0.148-0.091-0.311-0.073-0.471l8.67-75.528c0.028-0.241,0.15-0.46,0.34-0.61c0.189-0.147,0.428-0.219,0.671-0.188
					l79.152,9.538c0.386,0.047,0.7,0.335,0.781,0.715l14.451,68.672c0.051,0.244,0.001,0.494-0.138,0.698
					c-0.138,0.203-0.354,0.343-0.597,0.384C270.532,492.176,230.009,499.068,205.02,499.068z M171.067,488.045
					c0.656,0.89,4.685,5.272,22.13,8.406c18.72,3.359,70.526-4.995,78.123-6.257l-14.124-67.11l-77.598-9.351L171.067,488.045z"/>
			</g>
			<path fill="#1D4354" d="M231.553,342.693l29.687,9.33l12.842,98.322c0.614,4.692-2.089,9.194-6.529,10.83
				c-14.222,5.24-47.818,14.495-94.213,7.329c-4.847-0.751-8.457-4.877-8.579-9.779c-0.412-16.481-0.715-53.473,3.947-74.724
				c0,0-65.453-0.058-61.666-88.515l13.69-3.738c0,0,23.009,51.989,62.721,49.976C183.455,341.725,210.046,335.935,231.553,342.693z
				"/>
			<g>
				<path fill="#FFFFFF" d="M206.2,340.589c0,0,25.719-2.45,46.176,1.595c12.125,2.397,35.126,11.341,17.571,29.387
					c-17.555,18.048-29.639,16.332-35.428,6.234C228.732,367.709,218.408,344.353,206.2,340.589z"/>
				<path fill="#1D4354" d="M246.373,386.219c-0.608,0-1.205-0.037-1.792-0.111c-4.478-0.564-8.23-3.279-10.851-7.852
					c-0.988-1.722-2.128-3.869-3.334-6.139c-5.847-11.007-14.685-27.643-24.465-30.659c-0.415-0.128-0.68-0.531-0.636-0.961
					c0.043-0.431,0.387-0.771,0.818-0.811c0.258-0.026,26.085-2.416,46.438,1.608c3.481,0.689,21.006,4.642,24.191,14.866
					c1.523,4.889-0.544,10.287-6.146,16.045C261.642,381.412,253.314,386.219,246.373,386.219z M209.816,341.228
					c9.067,5.342,16.843,19.981,22.185,30.037c1.199,2.259,2.333,4.392,3.305,6.088c2.326,4.06,5.611,6.463,9.502,6.955
					c6.702,0.836,15.16-3.781,24.487-13.369c5.101-5.244,7.025-10.036,5.714-14.241c-2.233-7.166-13.683-11.817-22.81-13.621
					C236.541,339.978,217.551,340.734,209.816,341.228z"/>
			</g>
			<path fill="#1D4354" d="M259.725,363.545c-6.634,0-14.325-3.24-23.217-9.744c-7.381-5.397-9.486-5.599-9.744-5.6
				c-0.408,0.108-0.849-0.078-1.047-0.47c-0.225-0.448-0.044-0.994,0.403-1.219c1.335-0.675,5.406,1.397,11.458,5.822
				c14.145,10.346,24.538,12.14,32.707,5.645c0.391-0.311,0.963-0.246,1.276,0.147c0.312,0.391,0.246,0.963-0.146,1.276
				C267.942,362.16,264.059,363.545,259.725,363.545z M226.934,348.136C226.933,348.136,226.933,348.136,226.934,348.136
				C226.933,348.136,226.933,348.136,226.934,348.136z M226.935,348.136L226.935,348.136L226.935,348.136z M226.937,348.135
				c0,0,0,0-0.002,0.001C226.937,348.135,226.937,348.135,226.937,348.135z"/>
		</g>
	</g>
	<g>
		<path fill="#1D4354" d="M517.868,672.82c-1.271,0-2.542-0.237-3.763-0.711c-2.653-1.033-4.745-3.063-5.888-5.71
			c-2.334-5.412,0.086-11.753,5.395-14.138c2.557-1.146,5.398-1.221,8.008-0.207c2.656,1.033,4.748,3.06,5.889,5.709
			c2.336,5.412-0.085,11.753-5.394,14.139C520.754,672.513,519.313,672.82,517.868,672.82z M514.357,653.92
			c-4.409,1.98-6.415,7.257-4.473,11.759c0.95,2.199,2.682,3.882,4.881,4.738c2.149,0.835,4.496,0.774,6.604-0.172
			c4.41-1.979,6.415-7.257,4.473-11.759c-0.95-2.201-2.684-3.884-4.881-4.736C518.813,652.914,516.465,652.972,514.357,653.92z"/>
		<path fill="#1D4354" d="M711.202,210.414c-4.192,0-7.604-3.41-7.604-7.602c0-4.191,3.411-7.603,7.604-7.603
			c4.19,0,7.603,3.411,7.603,7.603C718.805,207.003,715.394,210.414,711.202,210.414z M711.202,197.025
			c-3.19,0-5.785,2.595-5.785,5.787c0,3.19,2.595,5.787,5.785,5.787c3.188,0,5.786-2.597,5.786-5.787
			C716.989,199.621,714.392,197.025,711.202,197.025z"/>
		<g>
			<path fill="#1D4354" d="M400.381,14.101c-0.103,0-0.207-0.017-0.309-0.054c-0.474-0.168-0.717-0.689-0.549-1.161l1.491-4.14
				c0.17-0.471,0.69-0.719,1.163-0.547c0.473,0.171,0.716,0.69,0.545,1.162l-1.488,4.14
				C401.101,13.87,400.751,14.101,400.381,14.101z"/>
			<path fill="#1D4354" d="M395.163,28.592c-0.104,0-0.207-0.017-0.31-0.054c-0.473-0.169-0.717-0.69-0.547-1.162l1.491-4.14
				c0.169-0.471,0.688-0.72,1.161-0.547c0.473,0.169,0.717,0.69,0.548,1.162l-1.491,4.14
				C395.883,28.362,395.535,28.592,395.163,28.592z"/>
			<path fill="#1D4354" d="M393.445,17.365c-0.107,0-0.215-0.019-0.321-0.058l-4.058-1.53c-0.469-0.175-0.706-0.7-0.527-1.169
				c0.176-0.47,0.697-0.709,1.169-0.529l4.058,1.53c0.471,0.175,0.707,0.7,0.527,1.169
				C394.157,17.141,393.813,17.365,393.445,17.365z"/>
			<path fill="#1D4354" d="M407.646,22.717c-0.106,0-0.216-0.019-0.32-0.059l-4.058-1.528c-0.47-0.176-0.707-0.701-0.529-1.169
				c0.177-0.469,0.698-0.707,1.17-0.53l4.059,1.529c0.469,0.175,0.707,0.7,0.529,1.169
				C408.357,22.493,408.013,22.717,407.646,22.717z"/>
		</g>
		<g>
			<path fill="#1D4354" d="M684.171,185.876c-0.294,0-0.581-0.142-0.758-0.403c-52.5-78.564-166.402-134.027-167.547-134.577
				c-0.45-0.217-0.643-0.761-0.423-1.211c0.218-0.453,0.762-0.642,1.213-0.426c0.284,0.139,29.127,14.101,64.094,37.628
				c32.295,21.726,76.583,56.291,104.177,97.577c0.276,0.417,0.165,0.981-0.251,1.259
				C684.519,185.827,684.344,185.876,684.171,185.876z"/>
			<path fill="#1D4354" d="M702.773,185.588c-0.317,0-0.626-0.167-0.793-0.464C666.107,121.128,570.447,62.685,569.485,62.102
				c-0.432-0.259-0.566-0.818-0.308-1.248c0.259-0.426,0.817-0.563,1.247-0.305c0.967,0.585,97.031,59.272,133.138,123.688
				c0.245,0.438,0.091,0.991-0.348,1.236C703.075,185.551,702.924,185.588,702.773,185.588z"/>
			<path fill="#1D4354" d="M476.147,54.323c-0.016,0-0.027,0-0.041,0c-0.303-0.015-0.572-0.175-0.731-0.43l-12.144-19.63
				c-0.185-0.296-0.182-0.67,0.005-0.963c0.187-0.292,0.52-0.453,0.868-0.417l24.888,2.799c0.324,0.038,0.604,0.245,0.731,0.544
				c0.128,0.3,0.087,0.646-0.109,0.907l-12.741,16.832C476.699,54.191,476.432,54.323,476.147,54.323z M465.759,34.897
				l10.465,16.916l10.979-14.502L465.759,34.897z"/>
		</g>
		<g>
			<path fill="#1D4354" d="M473.709,677.144c-0.044,0-0.087-0.003-0.132-0.009c-0.495-0.072-0.841-0.534-0.769-1.029l0.808-5.537
				c0.071-0.495,0.532-0.851,1.028-0.766c0.495,0.07,0.842,0.532,0.768,1.029l-0.809,5.534
				C474.542,676.817,474.152,677.144,473.709,677.144z"/>
			<path fill="#1D4354" d="M470.889,696.515c-0.044,0-0.088-0.003-0.134-0.011c-0.494-0.071-0.839-0.532-0.767-1.029l0.806-5.534
				c0.072-0.495,0.533-0.851,1.028-0.768c0.497,0.071,0.844,0.532,0.77,1.028l-0.807,5.535
				C471.722,696.188,471.332,696.515,470.889,696.515z"/>
			<path fill="#1D4354" d="M465.784,683.048c-0.042,0-0.088-0.002-0.135-0.011l-5.533-0.81c-0.495-0.071-0.839-0.532-0.767-1.029
				c0.071-0.497,0.531-0.841,1.029-0.768l5.535,0.811c0.496,0.071,0.84,0.534,0.766,1.029
				C466.616,682.723,466.229,683.048,465.784,683.048z"/>
			<path fill="#1D4354" d="M485.154,685.886c-0.046,0-0.09-0.003-0.135-0.011l-5.533-0.811c-0.497-0.071-0.84-0.533-0.77-1.027
				c0.073-0.498,0.534-0.848,1.031-0.77l5.534,0.812c0.495,0.074,0.84,0.533,0.767,1.029
				C485.985,685.561,485.596,685.886,485.154,685.886z"/>
		</g>
	</g>
</g>
</svg>
