<?xml version="1.0" encoding="utf-8"?>
<!-- Generator: Adobe Illustrator 16.0.0, SVG Export Plug-In . SVG Version: 6.00 Build 0)  -->
<!DOCTYPE svg PUBLIC "-//W3C//DTD SVG 1.1//EN" "http://www.w3.org/Graphics/SVG/1.1/DTD/svg11.dtd">
<svg version="1.1" id="Layer_1" xmlns="http://www.w3.org/2000/svg" xmlns:xlink="http://www.w3.org/1999/xlink" x="0px" y="0px"
	 width="750px" height="750px" viewBox="0 0 750 750" enable-background="new 0 0 750 750" xml:space="preserve">
<rect y="748.568" fill="#B3F1FF" width="750" height="1.432"/>
<g>
	<g>
		<path fill="#EBEBEB" d="M7.252,439.554l11.541-0.177l11.54-0.125l11.541-0.096l11.541-0.048l0.444-0.003l0.001,0.447l0.054,19.508
			l0.001,0.501l-0.501-0.002l-23.081-0.063c-7.694-0.005-15.387-0.112-23.081-0.164l-0.276-0.001l0.003-0.271l0.119-9.754
			L7.252,439.554z M7.252,439.554l0.154,9.754l0.119,9.754l-0.273-0.271c7.694-0.052,15.387-0.159,23.081-0.164l23.081-0.063
			l-0.5,0.499l0.054-19.508l0.446,0.445l-11.541-0.048l-11.541-0.096l-11.54-0.125L7.252,439.554z"/>
	</g>
	<rect x="440.739" y="269.667" fill="none" stroke="#EBEBEB" stroke-miterlimit="10" width="46.162" height="19.506"/>
	<g>
		<path fill="#EBEBEB" d="M466.489,245.07l11.54-0.177l11.541-0.125l11.54-0.096l11.541-0.048l0.443-0.002l0.001,0.448l0.055,19.506
			l0.002,0.501l-0.501-0.001l-23.081-0.063c-7.693-0.005-15.389-0.112-23.081-0.164l-0.276-0.002l0.004-0.271l0.119-9.753
			L466.489,245.07z M466.489,245.07l0.152,9.753l0.119,9.753l-0.271-0.273c7.692-0.051,15.388-0.159,23.081-0.164l23.081-0.063
			l-0.499,0.5l0.054-19.506l0.445,0.446l-11.541-0.048l-11.54-0.096l-11.541-0.125L466.489,245.07z"/>
	</g>
	<g>
		<path fill="#EBEBEB" d="M414.989,245.07l11.54-0.177l11.541-0.125l11.54-0.096l11.541-0.048l0.443-0.002l0.001,0.448l0.055,19.506
			l0.002,0.501l-0.501-0.001l-23.081-0.063c-7.693-0.005-15.389-0.112-23.081-0.164l-0.276-0.002l0.004-0.271l0.119-9.753
			L414.989,245.07z M414.989,245.07l0.152,9.753l0.119,9.753l-0.271-0.273c7.692-0.051,15.388-0.159,23.081-0.164l23.081-0.063
			l-0.499,0.5l0.054-19.506l0.445,0.446l-11.541-0.048l-11.54-0.096l-11.541-0.125L414.989,245.07z"/>
	</g>
	<g>
		<path fill="#EBEBEB" d="M717.305,77.715l-11.541,0.177l-11.54,0.125l-11.54,0.096l-11.541,0.048l-0.443,0.002l-0.001-0.448
			l-0.054-19.507l-0.003-0.501l0.501,0.001l23.081,0.063c7.693,0.005,15.389,0.112,23.081,0.164l0.276,0.002l-0.004,0.271
			l-0.119,9.753L717.305,77.715z M717.305,77.715l-0.152-9.753l-0.119-9.753l0.271,0.273c-7.692,0.051-15.388,0.159-23.081,0.164
			l-23.081,0.063l0.499-0.5l-0.054,19.507l-0.445-0.446l11.541,0.048l11.54,0.096l11.54,0.125L717.305,77.715z"/>
	</g>
	<rect x="696.894" y="82.806" fill="none" stroke="#EBEBEB" stroke-miterlimit="10" width="46.161" height="19.506"/>
	<g>
		<path fill="#EBEBEB" d="M53.414,77.736l-11.541,0.177l-11.54,0.125l-11.541,0.096l-11.54,0.048l-0.444,0.001l-0.001-0.447
			L6.752,58.23l-0.001-0.501l0.501,0.001l23.081,0.063c7.693,0.005,15.387,0.112,23.081,0.164l0.276,0.002l-0.003,0.271
			l-0.119,9.753L53.414,77.736z M53.414,77.736l-0.154-9.753l-0.119-9.753l0.273,0.273c-7.694,0.051-15.387,0.159-23.081,0.164
			L7.252,58.729l0.5-0.5L7.698,77.736L7.252,77.29l11.541,0.048l11.541,0.096l11.54,0.125L53.414,77.736z"/>
	</g>
	<rect x="528.485" y="576.071" fill="none" stroke="#EBEBEB" stroke-miterlimit="10" width="46.161" height="19.506"/>
	<g>
		<path fill="#EBEBEB" d="M696.894,446.84l11.54-0.177l11.54-0.125l11.541-0.096l11.54-0.049l0.444-0.002l0.001,0.447l0.054,19.506
			l0.002,0.501l-0.501-0.002l-23.08-0.063c-7.693-0.005-15.388-0.112-23.081-0.164l-0.275-0.001l0.004-0.271l0.119-9.753
			L696.894,446.84z M696.894,446.84l0.153,9.753l0.119,9.753l-0.271-0.271c7.692-0.053,15.387-0.159,23.08-0.164l23.08-0.063
			l-0.499,0.499l0.055-19.506l0.444,0.445l-11.54-0.048l-11.541-0.097l-11.54-0.125L696.894,446.84z"/>
	</g>
	<rect x="153.451" y="673.287" fill="#EBEBEB" width="46.162" height="19.508"/>
	<g>
		<path fill="#EBEBEB" d="M554.235,551.474l11.54-0.177l11.541-0.125l11.539-0.096l11.541-0.048l0.444-0.002l0.001,0.446
			l0.054,19.508l0.003,0.501l-0.502-0.003l-23.08-0.063c-7.693-0.005-15.389-0.112-23.081-0.164l-0.276-0.001l0.004-0.271
			l0.119-9.755L554.235,551.474z M554.235,551.474l0.152,9.753l0.119,9.755l-0.271-0.272c7.692-0.052,15.388-0.159,23.081-0.164
			l23.081-0.063l-0.499,0.499l0.054-19.508l0.445,0.445l-11.541-0.048l-11.54-0.096l-11.541-0.125L554.235,551.474z"/>
	</g>
</g>
<g>
	<path fill="none" stroke="#EBEBEB" stroke-miterlimit="10" d="M35.187,245.438c2.099-1.304,4.727-1.232,6.841,0.044
		c0.575,0.347,1.162,0.683,1.758,1.001c0.604,0.323,1.211,0.63,1.821,0.919c2.225,1.052,3.732,3.193,3.809,5.652l0.261,8.417
		l27.412-0.851l-0.26-8.473c-0.076-2.458,1.301-4.683,3.46-5.861c1.166-0.637,2.301-1.338,3.399-2.098
		c2.044-1.413,4.677-1.651,6.868-0.477l7.401,3.966l12.966-24.177l-7.402-3.968c-2.189-1.175-3.447-3.5-3.401-5.986
		c0.025-1.336-0.021-2.667-0.133-3.992c-0.211-2.451,0.878-4.828,2.969-6.125l7.201-4.469l-14.458-23.307l-7.189,4.455
		c-2.058,1.275-4.647,1.265-6.714,0.007c-0.604-0.366-1.221-0.72-1.85-1.058c-0.63-0.337-1.265-0.657-1.906-0.957
		c-2.202-1.032-3.647-3.195-3.721-5.625l-0.253-8.423l-27.413,0.851l0.266,8.393c0.077,2.419-1.193,4.697-3.32,5.851
		c-1.277,0.693-2.516,1.462-3.713,2.3c-1.976,1.386-4.575,1.503-6.702,0.362l-7.398-3.968L12.82,202.022l7.397,3.968
		c2.193,1.174,3.451,3.503,3.401,5.992c-0.026,1.338,0.017,2.673,0.129,4c0.208,2.455-0.888,4.835-2.982,6.132l-7.181,4.447
		l14.457,23.306L35.187,245.438z M40.836,204.819c5.307-13.833,22.073-18.896,34.147-10.306c8.219,5.848,11.507,16.789,7.89,26.205
		c-5.313,13.832-22.036,18.879-34.114,10.294C40.538,225.169,37.224,214.237,40.836,204.819z"/>
	<path fill="none" stroke="#EBEBEB" stroke-miterlimit="10" d="M737.488,403.171l-9.604-16.644l-5.092,2.943
		c-1.498,0.866-3.34,0.781-4.79-0.162c-0.801-0.523-1.631-1.002-2.487-1.438c-1.536-0.781-2.527-2.334-2.527-4.061v-5.881H693.77
		v5.881c0,1.727-0.988,3.278-2.525,4.061c-0.858,0.436-1.688,0.914-2.489,1.438c-1.448,0.943-3.29,1.028-4.789,0.162l-5.093-2.943
		l-9.604,16.644l5.117,2.944c1.5,0.862,2.326,2.512,2.237,4.238c-0.023,0.471-0.036,0.941-0.036,1.415s0.013,0.944,0.036,1.413
		c0.089,1.722-0.732,3.358-2.224,4.223l-5.132,2.964l9.604,16.641l5.106-2.944c1.5-0.863,3.342-0.778,4.791,0.169
		c0.797,0.521,1.623,1.001,2.477,1.435c1.536,0.783,2.523,2.334,2.523,4.059v5.883h19.218v-5.883c0-1.725,0.986-3.274,2.522-4.059
		c0.854-0.434,1.681-0.914,2.478-1.435c1.448-0.947,3.292-1.032,4.791-0.169l5.105,2.944l9.604-16.641l-5.109-2.949
		c-1.494-0.861-2.315-2.502-2.229-4.225c0.022-0.473,0.035-0.946,0.035-1.426c0-0.474-0.013-0.944-0.035-1.415
		c-0.089-1.729,0.736-3.376,2.235-4.239L737.488,403.171z M719.118,411.77c0,8.69-7.041,15.729-15.732,15.729
		c-8.689,0-15.747-7.039-15.747-15.729c0-8.691,7.058-15.745,15.747-15.745C712.077,396.023,719.118,403.077,719.118,411.77z"/>
	<path fill="none" stroke="#EBEBEB" stroke-miterlimit="10" d="M207.389,84.519l-9.604-16.642l-5.092,2.942
		c-1.498,0.866-3.342,0.782-4.791-0.162c-0.8-0.523-1.631-1.003-2.489-1.438c-1.537-0.782-2.526-2.335-2.526-4.06v-5.882h-19.22
		v5.882c0,1.725-0.987,3.278-2.526,4.06c-0.858,0.436-1.687,0.916-2.489,1.438c-1.447,0.944-3.291,1.027-4.787,0.162l-5.094-2.942
		l-9.603,16.642l5.116,2.946c1.501,0.864,2.325,2.509,2.237,4.238c-0.024,0.47-0.034,0.941-0.034,1.415
		c0,0.474,0.01,0.945,0.034,1.414c0.088,1.721-0.732,3.358-2.223,4.221l-5.129,2.964l9.603,16.643l5.107-2.945
		c1.498-0.865,3.34-0.78,4.791,0.167c0.796,0.521,1.624,1.001,2.475,1.435c1.536,0.783,2.523,2.334,2.523,4.059v5.882h19.22v-5.882
		c0-1.725,0.987-3.275,2.523-4.059c0.853-0.434,1.679-0.914,2.476-1.435c1.45-0.947,3.292-1.032,4.79-0.167l5.109,2.945
		l9.604-16.643l-5.111-2.949c-1.495-0.861-2.315-2.502-2.229-4.225c0.024-0.471,0.036-0.946,0.036-1.425
		c0-0.473-0.012-0.945-0.036-1.415c-0.088-1.729,0.737-3.375,2.235-4.241L207.389,84.519z M189.017,93.118
		c0,8.69-7.04,15.731-15.73,15.731c-8.692,0-15.747-7.041-15.747-15.731c0-8.691,7.055-15.746,15.747-15.746
		C181.978,77.372,189.017,84.426,189.017,93.118z"/>
</g>
<g>
	<path fill="none" stroke="#DBDBDB" stroke-miterlimit="10" d="M84.182,450.832v297.583h179.893V450.832H84.182z M100.515,561.122
		H247.74v77.469H100.515V561.122z M100.515,465.21H247.74v77.467H100.515V465.21z"/>
	<rect x="2.834" y="450.832" fill="none" stroke="#EBEBEB" stroke-miterlimit="10" width="81.341" height="297.576"/>
	<rect x="212.751" y="465.203" fill="none" stroke="#EBEBEB" stroke-miterlimit="10" width="34.987" height="77.464"/>
	<g>
		
			<rect x="100.514" y="655.877" fill="none" stroke="#EBEBEB" stroke-width="0.5" stroke-miterlimit="10" width="146.306" height="73.857"/>
		<g>
			<rect x="159.137" y="676.654" fill="#EBEBEB" width="29.06" height="10.621"/>
		</g>
	</g>
	<rect x="212.751" y="561.131" fill="none" stroke="#EBEBEB" stroke-miterlimit="10" width="34.987" height="77.464"/>
	<g>
		<rect x="120.653" y="567.173" fill="none" stroke="#A6A6A6" stroke-miterlimit="10" width="24.613" height="71.418"/>
		<rect x="120.653" y="611.714" fill="none" stroke="#DBDBDB" stroke-miterlimit="10" width="24.613" height="15.41"/>
		<rect x="120.653" y="590.172" fill="none" stroke="#DBDBDB" stroke-miterlimit="10" width="24.613" height="9.143"/>
	</g>
	<g>
		<rect x="70.835" y="390.984" fill="none" stroke="#EBEBEB" stroke-miterlimit="10" width="62.201" height="59.771"/>
		<rect x="47.196" y="390.984" fill="none" stroke="#C7C7C7" stroke-miterlimit="10" width="23.639" height="59.771"/>
		<polygon fill="#C7C7C7" points="133.036,420.87 70.835,420.87 119.413,422.409 		"/>
		<polygon fill="#C7C7C7" points="70.835,443.535 133.036,443.535 84.458,445.073 		"/>
		<polygon fill="#C7C7C7" points="133.036,404.163 93.637,404.163 128.661,405.419 		"/>
		<polygon fill="#C7C7C7" points="70.835,434.736 110.234,434.736 75.21,435.992 		"/>
		<polygon fill="#C7C7C7" points="118.116,397.512 73.676,397.512 81.083,398.265 		"/>
		<polygon fill="#C7C7C7" points="126.991,427.279 82.552,427.279 89.958,428.032 		"/>
		<polygon fill="#EBEBEB" points="99.662,409.855 70.835,409.855 65.685,411.863 		"/>
		<polygon fill="#EBEBEB" points="140.979,409.855 112.151,409.855 107.001,411.863 		"/>
		<polygon fill="#EBEBEB" points="103.988,436.72 132.814,436.72 137.966,438.729 		"/>
		<polygon fill="#C7C7C7" points="70.835,429.896 47.686,429.896 42.536,431.905 		"/>
		<polygon fill="#C7C7C7" points="62.755,420.87 44.803,420.87 47.196,419.229 		"/>
	</g>
	<g>
		<rect x="142.608" y="482.905" fill="#EBEBEB" width="62.202" height="59.771"/>
		<rect x="118.969" y="482.905" fill="none" stroke="#C7C7C7" stroke-miterlimit="10" width="23.64" height="59.771"/>
		<polygon fill="#C7C7C7" points="204.81,512.792 142.608,512.792 191.186,514.329 		"/>
		<polygon fill="#C7C7C7" points="142.608,535.457 204.81,535.457 156.232,536.994 		"/>
		<polygon fill="#C7C7C7" points="204.81,496.085 165.41,496.085 200.435,497.341 		"/>
		<polygon fill="#C7C7C7" points="142.608,526.658 182.008,526.658 146.985,527.912 		"/>
		<polygon fill="#C7C7C7" points="189.889,489.432 145.45,489.432 152.856,490.185 		"/>
		<polygon fill="#C7C7C7" points="198.765,519.199 154.326,519.199 161.731,519.954 		"/>
		<polygon fill="#EBEBEB" points="171.435,501.775 142.608,501.775 137.458,503.784 		"/>
		<polygon fill="#EBEBEB" points="212.751,501.775 183.925,501.775 178.775,503.784 		"/>
		<polygon fill="#EBEBEB" points="175.762,528.64 204.588,528.64 209.74,530.648 		"/>
		<polygon fill="#C7C7C7" points="142.608,521.818 119.459,521.818 114.31,523.827 		"/>
		<polygon fill="#C7C7C7" points="134.529,512.792 116.577,512.792 118.969,511.149 		"/>
	</g>
	<g>
		<rect x="100.514" y="562.401" fill="none" stroke="#EBEBEB" stroke-miterlimit="10" width="20.139" height="76.188"/>
		<g>
			<circle fill="#FFFFFF" cx="110.582" cy="573.237" r="4.193"/>
			<circle fill="#A6A6A6" cx="110.582" cy="573.238" r="2.398"/>
		</g>
		<rect x="100.514" y="608.052" fill="none" stroke="#FFFFFF" stroke-miterlimit="10" width="20.139" height="18.539"/>
	</g>
	<g>
		<rect x="145.266" y="622.864" fill="#C7C7C7" width="76.19" height="15.837"/>
		<g>
			<circle fill="#FFFFFF" cx="156.103" cy="630.784" r="4.193"/>
			<path fill="#A6A6A6" d="M158.5,630.784c0-1.325-1.073-2.399-2.397-2.399c-1.324,0-2.397,1.074-2.397,2.399
				c0,1.322,1.073,2.396,2.397,2.396C157.427,633.18,158.5,632.106,158.5,630.784z"/>
		</g>
		<rect x="190.917" y="622.864" fill="#FFFFFF" width="18.539" height="15.837"/>
	</g>
</g>
<g>
	<g>
		<g>
			<g>
				<g>
					<polygon fill="none" stroke="#C7C7C7" stroke-miterlimit="10" points="405.527,153.421 493.311,107.384 459.328,47.837 
						371.544,93.874 					"/>
					<polygon fill="none" stroke="#C7C7C7" stroke-miterlimit="10" points="424.791,57.936 455.808,41.67 459.328,47.837 
						426.529,65.038 					"/>
				</g>
			</g>
		</g>
		<g>
			<g>
				<g>
					<polygon fill="none" stroke="#DBDBDB" stroke-miterlimit="10" points="405.619,153.374 493.402,107.336 468.073,49.669 
						380.291,95.706 					"/>
					<polygon fill="none" stroke="#DBDBDB" stroke-miterlimit="10" points="434.434,59.964 465.451,43.697 468.073,49.669 
						435.274,66.87 					"/>
				</g>
			</g>
		</g>
	</g>
	<g>
		<g>
			<g>
				<g>
					<polygon fill="none" stroke="#DBDBDB" stroke-miterlimit="10" points="463.882,176.027 583.402,155.677 566.396,73.558 
						446.873,93.908 					"/>
					<polygon fill="none" stroke="#DBDBDB" stroke-miterlimit="10" points="522.402,72.244 564.634,65.053 566.396,73.558 
						521.738,81.161 					"/>
				</g>
			</g>
		</g>
		<g>
			<g>
				<g>
					<polygon fill="none" stroke="#EBEBEB" stroke-miterlimit="10" points="464.006,176.005 583.528,155.654 575.876,78.997 
						456.354,99.347 					"/>
					<polygon fill="none" stroke="#EBEBEB" stroke-miterlimit="10" points="532.852,78.249 575.083,71.058 575.876,78.997 
						531.219,86.601 					"/>
				</g>
			</g>
		</g>
	</g>
</g>
<g>
	<path fill="#263238" d="M2.834,748.415c0,0,46.54-0.107,116.35-0.269c69.81-0.063,162.89-0.146,255.969-0.23
		c93.08,0.084,186.159,0.167,255.97,0.229c69.81,0.162,116.35,0.271,116.35,0.271s-46.54,0.107-116.35,0.271
		c-69.811,0.063-162.89,0.146-255.97,0.229c-93.08-0.084-186.159-0.168-255.969-0.23C49.375,748.521,2.834,748.415,2.834,748.415z"
		/>
</g>
<path fill="none" stroke="#EEE0FA" stroke-miterlimit="10" d="M511.446,166.713c0,15.093,11.678,27.454,26.503,28.55v0.08H700.1
	c18.589,0,33.649-15.063,33.649-33.649c0-17.526-13.393-31.937-30.505-33.509c-0.969-30.456-25.96-54.86-56.655-54.86
	c-24.437,0-45.265,15.458-53.226,37.13c-4.528-2.286-9.628-3.56-15.045-3.56c-17.892,0-32.522,13.949-33.587,31.569
	c-1.511-0.252-3.067-0.381-4.655-0.381C524.269,138.083,511.446,150.905,511.446,166.713z"/>
<path opacity="0.1" fill="none" stroke="#EEE0FA" stroke-miterlimit="10" enable-background="new    " d="M511.446,166.713
	c0,15.093,11.678,27.454,26.503,28.55v0.08H700.1c18.589,0,33.649-15.063,33.649-33.649c0-17.526-13.393-31.937-30.505-33.509
	c-0.969-30.456-25.96-54.86-56.655-54.86c-24.437,0-45.265,15.458-53.226,37.13c-4.528-2.286-9.628-3.56-15.045-3.56
	c-17.892,0-32.522,13.949-33.587,31.569c-1.511-0.252-3.067-0.381-4.655-0.381C524.269,138.083,511.446,150.905,511.446,166.713z"/>
<path fill="none" stroke="#B9CEEB" stroke-miterlimit="10" d="M495.278,166.713c0,15.093,11.679,27.454,26.501,28.55v0.08h162.151
	c18.588,0,33.65-15.063,33.65-33.649c0-17.526-13.396-31.937-30.505-33.509c-0.969-30.456-25.961-54.86-56.657-54.86
	c-24.434,0-45.264,15.458-53.225,37.13c-4.526-2.286-9.627-3.56-15.044-3.56c-17.892,0-32.523,13.949-33.588,31.569
	c-1.51-0.252-3.066-0.381-4.654-0.381C508.101,138.083,495.278,150.905,495.278,166.713z"/>
<g>
	<path fill="#EEE0FA" d="M626.03,233.927h-23.032c-4.295,0-7.776-3.479-7.776-7.777v-30.806h38.585v30.806
		C633.807,230.447,630.325,233.927,626.03,233.927z"/>
	<rect x="605.4" y="233.927" fill="#7B92CA" width="18.228" height="5.636"/>
	<circle fill="#FFFFFF" cx="607.655" cy="220.89" r="3.478"/>
	<circle fill="#EEE0FA" cx="621.374" cy="220.89" r="3.478"/>
	<polygon fill="#FFFFFF" points="616.473,200.926 612.304,207.121 614.368,207.121 612.304,212.483 616.725,206.035 
		614.427,206.035 	"/>
</g>
<path fill="none" stroke="#EEE0FA" stroke-width="3" stroke-miterlimit="10" d="M614.515,239.563v265.606
	c0,4.456-3.613,8.069-8.068,8.069h-60.4"/>
<g>
	<rect x="226.229" y="319.97" fill="none" stroke="#263238" stroke-miterlimit="10" width="113.625" height="428.445"/>
	<g>
		<rect x="339.854" y="319.97" fill="none" stroke="#37474F" stroke-miterlimit="10" width="209.112" height="428.445"/>
	</g>
	<g>
		<rect x="355.534" y="692.846" fill="#37474F" width="180.367" height="41.654"/>
		<g>
			<rect x="363.126" y="699.727" fill="#7B92CA" width="102.667" height="3.517"/>
			<rect x="363.126" y="705.821" fill="#7B92CA" width="102.667" height="3.516"/>
			<rect x="363.126" y="711.916" fill="#7B92CA" width="102.667" height="3.516"/>
			<rect x="363.126" y="718.011" fill="#7B92CA" width="102.667" height="3.517"/>
			<rect x="363.126" y="724.105" fill="#7B92CA" width="102.667" height="3.515"/>
		</g>
		<g>
			<circle fill="#EEE0FA" cx="481.023" cy="703.213" r="3.487"/>
			<circle fill="#EEE0FA" cx="492.518" cy="703.213" r="3.486"/>
			<circle fill="#EEE0FA" cx="504.012" cy="703.213" r="3.486"/>
			<circle fill="#EBEBEB" cx="515.506" cy="703.213" r="3.487"/>
			<circle fill="#EEE0FA" cx="527" cy="703.213" r="3.487"/>
			<circle fill="#EBEBEB" cx="481.023" cy="713.673" r="3.487"/>
			<circle fill="#EEE0FA" cx="492.518" cy="713.673" r="3.486"/>
			<circle fill="#EEE0FA" cx="504.012" cy="713.673" r="3.486"/>
			<circle fill="#EBEBEB" cx="515.506" cy="713.673" r="3.487"/>
			<circle fill="#EBEBEB" cx="527" cy="713.673" r="3.487"/>
			<circle fill="#EEE0FA" cx="481.023" cy="724.134" r="3.487"/>
			<circle fill="#EBEBEB" cx="492.518" cy="724.134" r="3.486"/>
			<circle fill="#EEE0FA" cx="504.012" cy="724.134" r="3.486"/>
			<circle fill="#EEE0FA" cx="515.506" cy="724.134" r="3.487"/>
			<circle fill="#EEE0FA" cx="527" cy="724.134" r="3.487"/>
		</g>
		<rect x="470.923" y="699.727" fill="#263238" width="2.009" height="27.895"/>
	</g>
	<g>
		<rect x="355.534" y="642.645" fill="#37474F" width="180.367" height="41.653"/>
		<g>
			<rect x="363.126" y="649.523" fill="#7B92CA" width="102.667" height="3.516"/>
			<rect x="363.126" y="655.618" fill="#7B92CA" width="102.667" height="3.516"/>
			<rect x="363.126" y="661.713" fill="#7B92CA" width="102.667" height="3.516"/>
			<rect x="363.126" y="667.808" fill="#7B92CA" width="102.667" height="3.516"/>
			<rect x="363.126" y="673.901" fill="#7B92CA" width="102.667" height="3.516"/>
		</g>
		<g>
			<circle fill="#EBEBEB" cx="481.023" cy="653.01" r="3.487"/>
			<circle fill="#EEE0FA" cx="492.518" cy="653.01" r="3.486"/>
			<circle fill="#EEE0FA" cx="504.012" cy="653.01" r="3.486"/>
			<circle fill="#EBEBEB" cx="515.506" cy="653.01" r="3.487"/>
			<circle fill="#EEE0FA" cx="527" cy="653.01" r="3.487"/>
			<circle fill="#EEE0FA" cx="481.023" cy="663.472" r="3.487"/>
			<circle fill="#EEE0FA" cx="492.518" cy="663.472" r="3.486"/>
			<circle fill="#EBEBEB" cx="504.012" cy="663.472" r="3.486"/>
			<circle fill="#EBEBEB" cx="515.506" cy="663.472" r="3.487"/>
			<circle fill="#EEE0FA" cx="527" cy="663.472" r="3.487"/>
			<circle fill="#EEE0FA" cx="481.023" cy="673.931" r="3.487"/>
			<circle fill="#EBEBEB" cx="492.518" cy="673.931" r="3.486"/>
			<circle fill="#EEE0FA" cx="504.012" cy="673.931" r="3.486"/>
			<circle fill="#EEE0FA" cx="515.506" cy="673.931" r="3.487"/>
			<circle fill="#EBEBEB" cx="527" cy="673.931" r="3.487"/>
		</g>
		<rect x="470.923" y="649.523" fill="#263238" width="2.009" height="27.894"/>
	</g>
	<g>
		<rect x="355.534" y="592.441" fill="#37474F" width="180.367" height="41.652"/>
		<g>
			<rect x="363.126" y="599.322" fill="#7B92CA" width="102.667" height="3.516"/>
			<rect x="363.126" y="605.415" fill="#7B92CA" width="102.667" height="3.517"/>
			<rect x="363.126" y="611.512" fill="#7B92CA" width="102.667" height="3.516"/>
			<rect x="363.126" y="617.604" fill="#7B92CA" width="102.667" height="3.518"/>
			<rect x="363.126" y="623.698" fill="#7B92CA" width="102.667" height="3.516"/>
		</g>
		<g>
			<circle fill="#EBEBEB" cx="481.023" cy="602.809" r="3.487"/>
			<circle fill="#EEE0FA" cx="492.518" cy="602.809" r="3.486"/>
			<circle fill="#EBEBEB" cx="504.012" cy="602.809" r="3.486"/>
			<circle fill="#EEE0FA" cx="515.506" cy="602.809" r="3.487"/>
			<circle fill="#EEE0FA" cx="527" cy="602.809" r="3.487"/>
			<circle fill="#EEE0FA" cx="481.023" cy="613.269" r="3.487"/>
			<circle fill="#EBEBEB" cx="492.518" cy="613.269" r="3.486"/>
			<circle fill="#EBEBEB" cx="504.012" cy="613.269" r="3.486"/>
			<circle fill="#EEE0FA" cx="515.506" cy="613.269" r="3.487"/>
			<circle fill="#EBEBEB" cx="527" cy="613.269" r="3.487"/>
			<circle fill="#EBEBEB" cx="481.023" cy="623.728" r="3.487"/>
			<circle fill="#EEE0FA" cx="492.518" cy="623.728" r="3.486"/>
			<circle fill="#EEE0FA" cx="504.012" cy="623.728" r="3.486"/>
			<circle fill="#EBEBEB" cx="515.506" cy="623.728" r="3.487"/>
			<circle fill="#EEE0FA" cx="527" cy="623.728" r="3.487"/>
		</g>
		<rect x="470.923" y="599.322" fill="#263238" width="2.009" height="27.892"/>
	</g>
	<g>
		<rect x="355.534" y="542.238" fill="#37474F" width="180.367" height="41.652"/>
		<g>
			<rect x="363.126" y="549.119" fill="#7B92CA" width="102.667" height="3.516"/>
			<rect x="363.126" y="555.214" fill="#7B92CA" width="102.667" height="3.515"/>
			<rect x="363.126" y="561.308" fill="#7B92CA" width="102.667" height="3.517"/>
			<rect x="363.126" y="567.402" fill="#7B92CA" width="102.667" height="3.516"/>
			<rect x="363.126" y="573.497" fill="#7B92CA" width="102.667" height="3.516"/>
		</g>
		<g>
			<circle fill="#EEE0FA" cx="481.023" cy="552.605" r="3.487"/>
			<circle fill="#EEE0FA" cx="492.518" cy="552.605" r="3.486"/>
			<circle fill="#EEE0FA" cx="504.012" cy="552.605" r="3.486"/>
			<circle fill="#EEE0FA" cx="515.506" cy="552.605" r="3.487"/>
			<circle fill="#EBEBEB" cx="527" cy="552.605" r="3.487"/>
			<circle fill="#EBEBEB" cx="481.023" cy="563.066" r="3.487"/>
			<circle fill="#EBEBEB" cx="492.518" cy="563.066" r="3.486"/>
			<circle fill="#EEE0FA" cx="504.012" cy="563.066" r="3.486"/>
			<circle fill="#EBEBEB" cx="515.506" cy="563.066" r="3.487"/>
			<circle fill="#EEE0FA" cx="527" cy="563.066" r="3.487"/>
			<circle fill="#EEE0FA" cx="481.023" cy="573.526" r="3.487"/>
			<circle fill="#EEE0FA" cx="492.518" cy="573.526" r="3.486"/>
			<circle fill="#EBEBEB" cx="504.012" cy="573.526" r="3.486"/>
			<circle fill="#EEE0FA" cx="515.506" cy="573.526" r="3.487"/>
			<circle fill="#EBEBEB" cx="527" cy="573.526" r="3.487"/>
		</g>
		<rect x="470.923" y="549.119" fill="#263238" width="2.009" height="27.894"/>
	</g>
	<g>
		<rect x="355.534" y="492.036" fill="#37474F" width="180.367" height="41.654"/>
		<g>
			<rect x="363.126" y="498.916" fill="#7B92CA" width="102.667" height="3.517"/>
			<rect x="363.126" y="505.011" fill="#7B92CA" width="102.667" height="3.516"/>
			<rect x="363.126" y="511.104" fill="#7B92CA" width="102.667" height="3.517"/>
			<rect x="363.126" y="517.199" fill="#7B92CA" width="102.667" height="3.516"/>
			<rect x="363.126" y="523.294" fill="#7B92CA" width="102.667" height="3.516"/>
		</g>
		<g>
			<circle fill="#EEE0FA" cx="481.023" cy="502.402" r="3.487"/>
			<circle fill="#EEE0FA" cx="492.518" cy="502.402" r="3.486"/>
			<circle fill="#EEE0FA" cx="504.012" cy="502.402" r="3.486"/>
			<circle fill="#EEE0FA" cx="515.506" cy="502.402" r="3.487"/>
			<circle fill="#EBEBEB" cx="527" cy="502.402" r="3.487"/>
			<circle fill="#EBEBEB" cx="481.023" cy="512.863" r="3.487"/>
			<circle fill="#EEE0FA" cx="492.518" cy="512.863" r="3.486"/>
			<circle fill="#EEE0FA" cx="504.012" cy="512.863" r="3.486"/>
			<circle fill="#EBEBEB" cx="515.506" cy="512.863" r="3.487"/>
			<circle fill="#EEE0FA" cx="527" cy="512.863" r="3.487"/>
			<circle fill="#EBEBEB" cx="481.023" cy="523.323" r="3.487"/>
			<circle fill="#EBEBEB" cx="492.518" cy="523.323" r="3.486"/>
			<circle fill="#EEE0FA" cx="504.012" cy="523.323" r="3.486"/>
			<circle fill="#EEE0FA" cx="515.506" cy="523.323" r="3.487"/>
			<circle fill="#EBEBEB" cx="527" cy="523.323" r="3.487"/>
		</g>
		<rect x="470.923" y="498.916" fill="#263238" width="2.009" height="27.894"/>
	</g>
	<g>
		<rect x="355.534" y="441.833" fill="#37474F" width="180.367" height="41.654"/>
		<g>
			<rect x="363.126" y="448.714" fill="#7B92CA" width="102.667" height="3.517"/>
			<rect x="363.126" y="454.809" fill="#7B92CA" width="102.667" height="3.517"/>
			<rect x="363.126" y="460.903" fill="#7B92CA" width="102.667" height="3.516"/>
			<rect x="363.126" y="466.998" fill="#7B92CA" width="102.667" height="3.516"/>
			<rect x="363.126" y="473.093" fill="#7B92CA" width="102.667" height="3.516"/>
		</g>
		<g>
			<circle fill="#EBEBEB" cx="481.023" cy="452.201" r="3.487"/>
			<circle fill="#EEE0FA" cx="492.518" cy="452.201" r="3.486"/>
			<circle fill="#EEE0FA" cx="504.012" cy="452.201" r="3.486"/>
			<circle fill="#EBEBEB" cx="515.506" cy="452.201" r="3.487"/>
			<circle fill="#EEE0FA" cx="527" cy="452.201" r="3.487"/>
			<circle fill="#EEE0FA" cx="481.023" cy="462.66" r="3.487"/>
			<circle fill="#EBEBEB" cx="492.518" cy="462.66" r="3.486"/>
			<circle fill="#EEE0FA" cx="504.012" cy="462.66" r="3.486"/>
			<circle fill="#EEE0FA" cx="515.506" cy="462.66" r="3.487"/>
			<circle fill="#EBEBEB" cx="527" cy="462.66" r="3.487"/>
			<circle fill="#EEE0FA" cx="481.023" cy="473.121" r="3.487"/>
			<circle fill="#EEE0FA" cx="492.518" cy="473.121" r="3.486"/>
			<circle fill="#EBEBEB" cx="504.012" cy="473.121" r="3.486"/>
			<circle fill="#EBEBEB" cx="515.506" cy="473.121" r="3.487"/>
			<circle fill="#EEE0FA" cx="527" cy="473.121" r="3.487"/>
		</g>
		<rect x="470.923" y="448.714" fill="#263238" width="2.009" height="27.895"/>
	</g>
	<g>
		<rect x="355.534" y="341.429" fill="#7B92CA" width="180.367" height="41.653"/>
		<g>
			<rect x="372.354" y="357.663" fill="#FFFFFF" width="91.467" height="9.186"/>
			<rect x="372.354" y="357.663" fill="#EEE0FA" width="56.08" height="9.186"/>
		</g>
		<g>
			<circle fill="#EEE0FA" cx="481.252" cy="362.255" r="4.841"/>
			<circle fill="#FFFFFF" cx="499.804" cy="362.255" r="4.842"/>
			<circle fill="#FFFFFF" cx="518.354" cy="362.255" r="4.841"/>
		</g>
	</g>
	<g>
		<rect x="355.534" y="391.632" fill="#7B92CA" width="180.367" height="41.653"/>
		<g>
			<rect x="372.354" y="407.865" fill="#FFFFFF" width="91.467" height="9.185"/>
			<rect x="372.354" y="407.865" fill="#EEE0FA" width="73.362" height="9.185"/>
		</g>
		<g>
			<circle fill="#EEE0FA" cx="481.252" cy="412.459" r="4.841"/>
			<circle fill="#FFFFFF" cx="499.804" cy="412.459" r="4.842"/>
			<circle fill="#FFFFFF" cx="518.354" cy="412.459" r="4.841"/>
		</g>
	</g>
	<g>
		<rect x="355.534" y="441.833" fill="#7B92CA" width="180.367" height="41.654"/>
		<g>
			<rect x="372.354" y="458.067" fill="#FFFFFF" width="91.467" height="9.186"/>
			<rect x="372.354" y="458.067" fill="#EEE0FA" width="15.43" height="9.186"/>
		</g>
		<g>
			<circle fill="#EEE0FA" cx="481.252" cy="462.66" r="4.841"/>
			<circle fill="#FFFFFF" cx="499.804" cy="462.66" r="4.842"/>
			<circle fill="#FFFFFF" cx="518.354" cy="462.66" r="4.841"/>
		</g>
	</g>
	<g>
		<rect x="355.534" y="492.036" fill="#7B92CA" width="180.367" height="41.654"/>
		<g>
			<rect x="372.354" y="508.271" fill="#FFFFFF" width="91.467" height="9.186"/>
			<rect x="372.354" y="508.271" fill="#EEE0FA" width="56.08" height="9.186"/>
		</g>
		<g>
			<circle fill="#EEE0FA" cx="481.252" cy="512.863" r="4.841"/>
			<circle fill="#FFFFFF" cx="499.804" cy="512.863" r="4.842"/>
			<circle fill="#FFFFFF" cx="518.354" cy="512.863" r="4.841"/>
		</g>
	</g>
	<g>
		<rect x="355.534" y="542.238" fill="#7B92CA" width="180.367" height="41.652"/>
		<g>
			<rect x="372.354" y="558.474" fill="#FFFFFF" width="91.467" height="9.186"/>
			<rect x="372.354" y="558.474" fill="#EEE0FA" width="76.234" height="9.186"/>
		</g>
		<g>
			<circle fill="#EEE0FA" cx="481.252" cy="563.064" r="4.841"/>
			<circle fill="#FFFFFF" cx="499.804" cy="563.064" r="4.842"/>
			<circle fill="#FFFFFF" cx="518.354" cy="563.064" r="4.841"/>
		</g>
	</g>
	<g>
		<rect x="355.534" y="592.441" fill="#7B92CA" width="180.367" height="41.652"/>
		<g>
			<rect x="372.354" y="608.675" fill="#FFFFFF" width="91.467" height="9.188"/>
			<rect x="372.354" y="608.675" fill="#EEE0FA" width="62.604" height="9.188"/>
		</g>
		<g>
			<circle fill="#EEE0FA" cx="481.252" cy="613.269" r="4.841"/>
			<circle fill="#FFFFFF" cx="499.804" cy="613.269" r="4.842"/>
			<circle fill="#FFFFFF" cx="518.354" cy="613.269" r="4.841"/>
		</g>
	</g>
	<g>
		<rect x="355.534" y="642.645" fill="#7B92CA" width="180.367" height="41.652"/>
		<g>
			<rect x="372.354" y="658.878" fill="#FFFFFF" width="91.467" height="9.185"/>
			<rect x="372.354" y="658.878" fill="#EEE0FA" width="33.062" height="9.185"/>
		</g>
		<g>
			<circle fill="#EEE0FA" cx="481.252" cy="663.472" r="4.841"/>
			<circle fill="#FFFFFF" cx="499.804" cy="663.472" r="4.842"/>
			<circle fill="#FFFFFF" cx="518.354" cy="663.472" r="4.841"/>
		</g>
	</g>
	<g>
		<rect x="355.534" y="692.846" fill="#7B92CA" width="180.367" height="41.654"/>
		<g>
			<rect x="372.354" y="709.08" fill="#FFFFFF" width="91.467" height="9.186"/>
			<rect x="372.354" y="709.08" fill="#EEE0FA" width="64.838" height="9.186"/>
		</g>
		<g>
			<circle fill="#EEE0FA" cx="481.252" cy="713.673" r="4.841"/>
			<circle fill="#FFFFFF" cx="499.804" cy="713.673" r="4.842"/>
			<circle fill="#FFFFFF" cx="518.354" cy="713.673" r="4.841"/>
		</g>
	</g>
	<g>
		<rect x="268.722" y="306.761" fill="none" stroke="#263238" stroke-miterlimit="10" width="237.751" height="13.209"/>
	</g>
</g>
<g>
	<polygon fill="none" stroke="#EEE0FA" stroke-miterlimit="10" points="546.457,748.415 709.947,748.415 692.048,635.404 
		528.559,635.404 	"/>
	<polygon fill="none" stroke="#EEE0FA" stroke-miterlimit="10" points="632.428,623.698 690.194,623.698 692.048,635.404 
		630.963,635.404 	"/>
</g>
<g opacity="0.1">
	<polygon fill="none" stroke="#EEE0FA" stroke-miterlimit="10" points="546.457,748.415 709.947,748.415 692.048,635.404 
		528.559,635.404 	"/>
	<polygon fill="none" stroke="#000000" stroke-miterlimit="10" points="632.428,623.698 690.194,623.698 692.048,635.404 
		630.963,635.404 	"/>
</g>
<g>
	<g>
		<g>
			<polygon fill="none" stroke="#B9CEEB" stroke-miterlimit="10" points="546.379,748.415 709.869,748.415 722.479,644.779 
				558.988,644.779 			"/>
			<polygon fill="none" stroke="#B9CEEB" stroke-miterlimit="10" points="666.019,634.047 723.784,634.047 722.479,644.779 
				661.394,644.779 			"/>
		</g>
	</g>
</g>
<g>
	<g>
		<g>
			<g>
				<g>
					<path fill="#F7A9A0" d="M103.21,748.1c3.951,1.291,119.776,0.24,124.041-2.526c1.64-1.025-6.906-110.832-6.906-110.832
						l-73.7,0.479l7.674,73.476c0,0-42.978,19.706-47.35,23.243C102.635,735.465,99.259,746.827,103.21,748.1z"/>
					<path fill="#F6E8D4" d="M103.21,748.102c3.944,1.284,119.78,0.235,124.039-2.535c0.516-0.313,0.807-11.447-0.851-25.975
						c-21.042,3.257-96.137,13.825-101.929,10.318c-4.038-2.443-0.392-6.137,2.976-8.61c-9.629,4.648-18.616,9.126-20.48,10.646
						C102.629,735.467,99.264,746.833,103.21,748.102z"/>
					<path opacity="0.1" fill="#020100" enable-background="new    " d="M159.865,748.415c31.644-0.401,65.14-1.388,67.391-2.854
						c0.502-0.302,0.803-11.439-0.865-25.976c-6.997,1.086-19.964,2.976-34.378,4.886L159.865,748.415z"/>
				</g>
				<g>
					<path fill="#7B92CA" d="M148.568,691.033h81.2c0,0-15.286-172.896-14.647-176.205c0.811-4.244,5.604-23.44,11.988-48.519
						c1.999-7.849,4.155-16.265,6.397-24.99c6.054-23.596,12.729-49.382,18.542-71.818c8.726-33.615,15.539-59.73,15.539-59.73
						H198.77c0,0-8.021,25.423-18.127,58.504c-16.472,53.761-38.48,127.751-40.653,145.741
						C136.473,543.063,148.568,691.033,148.568,691.033z"/>
					<g>
						<g>
							<path fill="#263238" d="M152.166,677.179c12.402-0.259,8.837-0.358,21.241-0.479c6.07-0.061,45.957-0.406,51.626,0.533
								c0.126,0.021,0.126,0.23,0,0.252c-5.672,0.938-45.556,0.593-51.626,0.534c-12.404-0.12-8.839-0.222-21.241-0.479
								C151.932,677.536,151.932,677.184,152.166,677.179z"/>
						</g>
						<path fill="#263238" d="M199.842,503.236c2.664-11.739,6.641-23.241,10.104-34.764c7.038-23.411,14.133-46.805,21.243-70.193
							c3.553-11.695,7.112-23.389,10.709-35.07c1.816-5.899,3.628-11.799,5.477-17.688c1.808-5.763,3.864-11.478,5.494-17.292
							c0.664-2.365,1.026-1.066,0.177,1.939c-1.712,6.055-3.403,12.119-5.17,18.159c-3.497,11.964-7.021,23.922-10.558,35.875
							c-7.04,23.789-14.174,47.552-21.302,71.313c-3.574,11.914-7.172,23.82-10.749,35.733c-1.709,5.692-3.383,11.418-4.391,17.286
							c-1.048,6.118-1.103,12.31-0.715,18.493c0.778,12.422,2.216,24.829,3.364,37.222c1.151,12.421,2.3,24.842,3.449,37.262
							c2.288,24.72,3.514,32.679,5.739,57.401c0.281,3.133,0.557,6.267,0.796,9.404c0.082,1.048-1.506,0.969-1.615-0.041
							c-2.676-24.441-3.662-32.204-5.958-56.684c-2.283-24.358-4.566-48.719-6.844-73.078c-0.57-6.114-1.222-12.242-1.226-18.391
							C197.862,514.421,198.581,508.795,199.842,503.236z"/>
					</g>
				</g>
				<path fill="#263238" d="M206.583,309.771c4.779,36.962,13.883,106.262,20.526,156.54c15.522-60.918,40.479-156.54,40.479-156.54
					H206.583z"/>
			</g>
			<g>
				<g>
					<g>
						<path fill="#F7A9A0" d="M183.649,749.452c3.951,1.292,119.776,0.241,124.042-2.528c1.638-1.022-1.82-110.83-1.82-110.83
							l-73.7,0.479l2.586,73.476c0,0-42.978,19.705-47.348,23.244C183.072,736.818,179.698,748.18,183.649,749.452z"/>
						<path fill="#F6E8D4" d="M183.647,749.453c3.946,1.285,119.78,0.234,124.039-2.534c0.519-0.313,0.531-11.163,0.313-25.974
							c-21.042,3.257-97.299,13.822-103.093,10.315c-4.038-2.44-0.392-6.137,2.976-8.609c-9.629,4.649-18.614,9.128-20.478,10.646
							C183.069,736.82,179.702,748.186,183.647,749.453z"/>
					</g>
				</g>
				<g>
					<path fill="#7B92CA" d="M200.995,309.771c0,0,1.587,32.928,9.125,59.004c0.603,2.155,1.26,4.276,1.966,6.313
						c0,0,7.846,2.848,19.834,10.194c0,0,0.793,26.492,1.586,56.037c0.88,33.026-4.239,69.868-4.428,77.681
						c-0.689,29.235,2.868,171.706,2.868,171.706l81.184,0.327c0,0-13.888-161.234-13.786-171.946
						c0.157-17.212-5.906-136.968-4.881-139.651c13.066-34.177-4.21-69.665-4.21-69.665H200.995L200.995,309.771z"/>
					<g>
						<path fill="#263238" d="M234.729,676.265c12.402-0.206,8.839-0.32,21.243-0.388c6.07-0.034,45.957-0.212,51.623,0.752
							c0.126,0.021,0.126,0.231,0,0.252c-5.676,0.916-45.56,0.398-51.626,0.313c-12.404-0.172-8.842-0.257-21.241-0.568
							C234.494,676.62,234.496,676.269,234.729,676.265z"/>
						<g>
							<path fill="#263238" d="M208.71,373.127c8.083,3.211,15.825,7.594,23.21,12.155c0.289,0.18,0.071,0.631-0.244,0.478
								c-7.833-3.805-15.829-7.468-23.442-11.7C207.638,373.728,208.09,372.88,208.71,373.127z"/>
						</g>
						<path fill="#263238" d="M220.931,362.083c-0.25-3.714-0.531-7.427-0.858-11.135c-0.744-8.454-1.625-16.945-3.107-25.308
							c-0.116-0.654-1.038-0.407-0.984,0.218c0.572,6.571,1.321,13.129,1.938,19.698c0.609,6.505,1.403,13.102,1.519,19.637
							c0.034,1.971-0.099,5.312-2.516,5.856c-3.251,0.729-4.787-3.541-5.567-5.87c-1.947-5.824-3.134-11.842-4.076-17.899
							c-1.069-6.891-1.634-13.878-2.298-20.816c-0.024-0.25-0.439-0.213-0.439,0.037c-0.046,13.779,0.155,28.185,5.3,41.194
							c1.002,2.535,2.763,5.109,5.701,5.449c0.047,0.005,0.092,0,0.14,0.005c-0.019,0.078-0.051,0.153-0.038,0.24
							c0.056,0.388,0.162,0.765,0.23,1.151c0.049,0.324,0.114,0.645,0.192,0.963c0.136,0.669,0.235,1.345,0.403,2.009
							c0.155,0.611,0.976,0.446,0.999-0.113c0.153-0.071,0.283-0.188,0.286-0.404c0.014-1.335-0.425-2.661-0.896-3.899
							c1.604-0.286,2.88-1.428,3.558-2.996C221.503,367.604,221.108,364.708,220.931,362.083z"/>
						<path fill="#263238" d="M286.24,379.436c0.671-5.698,2.218-11.351,3.544-16.933c2.998-12.613,0.98-29.766-2.257-42.086
							c-0.085-0.323,0.448-0.444,0.546-0.124c3.241,10.499,5.596,25.662,4.336,36.689c-0.596,5.236-4.813,21.153-4.682,26.845
							c0.261,11.21-0.631,106.794,0.126,145.814c0.496,25.607,5.798,111.484,6.61,137.086c0.009,0.235-0.383,0.223-0.396-0.01
							c-2.976-45.641-6.835-92.278-7.45-136.999C286.022,486.236,285.508,385.648,286.24,379.436z"/>
						<path fill="#263238" d="M246.163,323.22c0.359,3.922,0.507,7.865,1.086,11.771c0.514,3.464,1.641,6.912,4.389,9.52
							c2.465,2.339,5.781,4.189,9.148,5.199c4.462,1.334,18.027,1.362,22.645,0.703c1.165-0.167,1.052,0.725-1.14,1.207
							c-2.454,0.538-12.45,1.093-14.971,1.089c-2.487,0-4.856,0.036-7.3-0.507c-4.057-0.904-7.8-2.591-10.594-5.518
							c-2.855-2.987-4.046-6.835-4.356-10.668c-0.344-4.256-0.017-8.597,0.49-12.809
							C245.597,322.901,246.135,322.907,246.163,323.22z"/>
					</g>
				</g>
			</g>
		</g>
	</g>
	<g>
		<path fill="#263238" d="M294.486,170.83c1.297,6.375,2.62,12.778,3.673,19.211c0.644,3.931,1.037,7.843,1.321,11.78
			c-1.02,1.481-2.29,2.956-3.868,4.391c-0.062-1.004-0.136-1.999-0.205-2.976c-0.325-4.718-1.032-9.322-1.789-13.975
			c-0.022-0.158-0.227-0.092-0.204,0.066c0.621,4.801,0.911,9.704,1.149,14.552c0.053,1.054,0.075,2.115,0.087,3.17
			c-1.272,1.069-2.712,2.111-4.358,3.112c-0.029-1.159-0.08-2.318-0.124-3.452c-0.102-2.68-0.257-5.353-0.485-8.025
			c-0.449-5.276-1.202-10.483-2.192-15.661c-0.039-0.216-0.308-0.117-0.279,0.092c0.717,5.371,1.258,10.792,1.634,16.208
			c0.177,2.563,0.318,5.138,0.405,7.705c0.039,1.233,0.039,2.472,0.051,3.716c-2.472,1.415-5.361,2.746-8.738,3.951
			c-8.607,3.073-18.135,2.921-27.061,1.553c-7.64-1.18-15.199-4.062-21.715-9.101c2.04-4.114,3.367-8.878,4.194-13.347
			c0.022-0.149-0.155-0.202-0.201-0.064c-0.94,2.967-1.988,5.876-3.149,8.733c-0.546,1.343-1.151,2.647-1.753,3.956
			c-0.099-0.078-0.189-0.157-0.286-0.235c-0.626-0.518-1.287-1.067-1.942-1.672c1.168-2.679,2.079-5.55,2.95-8.34
			c1.253-4.002,2.274-8.059,2.86-12.259c0.041-0.276-0.286-0.387-0.364-0.118c-1.18,3.911-2.261,7.856-3.491,11.749
			c-0.867,2.737-1.898,5.417-2.831,8.13c-1.896-1.914-3.514-4.259-3.596-7.279c-0.061-2.489,0.884-4.803,1.624-7.051
			c0.845-2.521,1.556-5.097,2.154-7.712c1.241-5.385,1.97-10.935,2.164-16.517c0.177-5.175-0.42-10.359-0.153-15.529
			c0.221-4.435,1.379-8.614,4.05-11.767c2.272-2.68,5.167-4.396,8.197-5.444c0.041-0.131,14.576-15.985,34.991-7.758
			c16.667,6.716,26.174,59.197,26.186,64.519c0,3.138-0.592,7.055-2.889,11.059c-0.257-3.329-0.733-6.643-1.265-9.847
			c-1.1-6.663-2.761-13.13-4.471-19.618C294.708,170.535,294.44,170.62,294.486,170.83z"/>
		<g>
			<g>
				<path fill="#F7A9A0" d="M256.521,216.072c-31.091,27.514-65.37,46.206-78.148,41.197c-12.887-5.053-40.993-51.666-42.318-65.8
					c-0.575-6.1,34.277-30.667,37.772-25.127c4.106,6.508,19.897,45.334,22.737,48.168c2.058,2.059,31.017-10.134,53.063-16.784
					C263.683,193.488,272.92,201.561,256.521,216.072z"/>
			</g>
			<g>
				<g>
					<path fill="#F6E8D4" d="M228.74,241.625l-4.564-36.351c0,0,17.192-6.595,27.223-8.902c13.272-3.052,20.311,1.12,10.527,14.647
						C255.379,220.069,228.74,241.625,228.74,241.625z"/>
					<path fill="#FFFFFF" d="M227.804,203.917c-0.272,0.897-0.449,1.815-0.507,2.792c0.763-1.015,1.309-2.109,1.759-3.241
						C228.605,203.624,228.195,203.779,227.804,203.917z M259.727,212.296c-0.626-1.307-1.309-2.559-2.305-3.69
						c0.194,1.503,0.703,2.833,1.289,4.161c0.216,0.449,0.431,0.899,0.685,1.328c0.274-0.292,0.526-0.565,0.742-0.839
						C260,212.923,259.863,212.609,259.727,212.296z"/>
					<path fill="#263238" d="M231.723,237.501c-0.298-5.335-0.672-10.653-1.284-15.965c-0.305-2.649-0.648-5.291-1.033-7.93
						c-0.386-2.635-1.042-5.238-1.387-7.874c-0.019-0.145-0.252-0.105-0.225,0.039c0.484,2.612,0.617,5.315,0.957,7.95
						c0.34,2.646,0.671,5.291,0.984,7.94c0.623,5.288,1.26,10.579,1.764,15.88C231.512,237.69,231.729,237.646,231.723,237.501z"/>
				</g>
				<path opacity="0.1" fill="#020100" enable-background="new    " d="M261.933,211.026c-6.563,9.046-33.189,30.595-33.189,30.595
					l-3.204-25.398l39.325-19.145C267.58,199.287,267.13,203.839,261.933,211.026z"/>
			</g>
			<g>
				<path fill="#F7A9A0" d="M119.668,172.702c4.059,8.856,19.441,23.721,24.532,25.879c5.09,2.159,31.231-23.154,30.605-28.794
					c-0.628-5.638-16.602-34.396-25.481-38.862C140.441,126.462,115.464,163.528,119.668,172.702z"/>
				<g>
					<path fill="#F7A9A0" d="M172.946,164.412c0,0-0.783-12.649,2.288-23.38c2.583-9.023,7.436-22.133,2.635-23.702
						c-9.855-3.223-21.947,29.47-21.947,29.47s-3.02,15.282,6.462,19.341C168.331,168.685,172.946,164.412,172.946,164.412z"/>
				</g>
				<g>
					<path fill="#F7A9A0" d="M161.604,140.538c-0.587,5.127-6.294,1.5-6.294,1.5s6.955,7.203,4.304,12.255
						c-2.567,4.862-9.305,0.235-9.792-0.088c0.364,0.383,6.582,7.167,3.395,11.971c-3.316,4.988-9.281-0.817-9.666-1.195
						c0.229,0.472,3.17,6.749-0.079,9.847c-5.589,5.322-13.551-10.522-19.56-12.235c0,0-4.065,9.852-4.243,10.11
						c0,0-7.885-14.918-5.121-22.892c1.456-4.205,5.662-3.677,5.662-3.677s-3.074-4.53-0.684-8.39
						c1.23-1.978,5.492-1.767,5.492-1.767s-2.31-3.729,0.031-7.031c1.857-2.64,5.842-2.019,5.842-2.019s-0.557-4.61,2.218-6.688
						C138.698,116.028,162.853,129.557,161.604,140.538z"/>
					<g>
						<path fill="#263238" d="M131.536,126.929c-0.083-0.038-0.046-0.164,0.046-0.138c9.029,2.511,18.181,8.037,24.056,15.41
							c0.192,0.242-0.117,0.659-0.379,0.434C147.75,136.193,140.57,131.074,131.536,126.929z"/>
						<path fill="#263238" d="M124.926,135.859c-0.099-0.044-0.027-0.208,0.085-0.175c9.29,2.637,19.428,9.145,25.199,18.442
							c0.197,0.32,0.054,0.803-0.201,0.453C145.703,148.688,133.077,139.55,124.926,135.859z"/>
						<path fill="#263238" d="M143.729,165.769c-5.878-8.701-13.955-14.643-23.127-19.552c-0.119-0.063-0.017-0.225,0.097-0.199
							c5.141,1.18,10.662,4.918,14.71,8.19c3.878,3.136,6.749,6.741,8.625,11.355C144.104,165.743,143.853,165.954,143.729,165.769z
							"/>
					</g>
					<path fill="#263238" d="M155.483,142.029c0.231,0.291-0.446,0.308-0.225,0.606c0.933,1.253,5.9,9.273,3.694,11.814
						c-1.774,2.031-5.735,1.059-7.109,0.088l-3.456-2.441l2.397,3.495c1.049,1.525,1.938,3.284,2.428,5.056
						c0.494,1.769,0.516,3.662-0.405,5.048c-0.935,1.467-2.502,2.16-4.137,1.645c-1.638-0.443-3.243-1.638-4.5-2.92l-3.512-3.58
						l2.138,4.512c0.579,1.222,1.043,2.601,1.29,3.946c0.239,1.345,0.255,2.744-0.252,3.861c-0.494,1.097-1.595,1.934-2.744,1.934
						c-1.212,0.017-2.509-0.667-3.674-1.433c-2.359-1.597-4.406-3.722-6.541-5.727c-1.061-1.015-2.125-2.033-3.239-3
						c-1.119-0.94-2.292-1.941-3.727-2.341c1.375,0.543,2.404,1.639,3.449,2.637c1.027,1.039,2.005,2.128,2.986,3.221
						c1.961,2.182,3.963,4.358,6.374,6.198c1.226,0.867,2.584,1.766,4.351,1.861c1.822,0.082,3.449-1.151,4.161-2.7
						c0.73-1.578,0.678-3.258,0.441-4.78c-0.266-1.546-0.72-2.979-1.372-4.416l-1.374,0.93c1.474,1.525,3.105,2.839,5.281,3.503
						c1.069,0.318,2.353,0.32,3.466-0.17c1.12-0.487,1.956-1.311,2.567-2.271c1.26-2.002,1.1-4.426,0.516-6.391
						c-0.603-2.019-1.551-3.815-2.756-5.519l-1.059,1.054c1.789,1.173,6.098,2.746,9.244-0.061
						C163.742,151.416,156.849,143.404,155.483,142.029z"/>
					<path fill="#263238" d="M155.31,142.037c1.059,0.383,2.125,0.657,3.092,0.688c0.967,0.037,1.774-0.356,2.196-1.034
						c0.443-0.67,0.511-1.706,0.474-2.732c-0.068-1.037-0.194-2.123-0.368-3.243c0.693,0.904,1.209,1.941,1.483,3.076
						c0.264,1.119,0.363,2.439-0.369,3.675c-0.407,0.586-0.957,1.035-1.607,1.28c-0.659,0.221-1.341,0.233-1.946,0.092
						C157.046,143.578,156.065,142.882,155.31,142.037z"/>
				</g>
			</g>
		</g>
		<g>
			<path fill="#F6E8D4" d="M216.136,263.259l-20.681,52.081c0,0,75.157,1.597,98.294,1.347c0,0,14.537-84.472-8.634-112.849
				c-11.59-14.193-21.71-13.386-31.543-4.533c-2.489,2.24-35.342,27.258-39.134,41.218
				C211.122,252.84,216.136,263.259,216.136,263.259z"/>
			<g>
				<path fill="#263238" d="M232.554,260.683c4.698,0.524,9.414,1.21,13.99,2.426c2.276,0.606,4.509,1.311,6.738,2.066
					c1.113,0.378,2.23,0.715,3.354,1.049c1.154,0.344,2.396,0.664,3.604,0.713c0.109,0.005,0.104,0.167-0.005,0.168
					c-1.176,0.022-2.302,0.041-3.475-0.095c-1.115-0.126-2.222-0.375-3.308-0.654c-2.315-0.591-4.602-1.289-6.91-1.903
					c-4.658-1.241-9.313-2.48-14.05-3.382C232.274,261.03,232.332,260.657,232.554,260.683z"/>
				<path fill="#263238" d="M220.855,264.76c3.871-0.361,7.82-0.542,11.709-0.46c1.958,0.041,3.895,0.194,5.839,0.4
					c0.93,0.097,1.855,0.212,2.782,0.338c1.018,0.14,2.019,0.416,3.037,0.538c0.107,0.014,0.105,0.179-0.003,0.17
					c-0.963-0.088-1.948-0.017-2.918-0.049c-0.972-0.031-1.944-0.07-2.918-0.104c-1.949-0.064-3.898-0.105-5.846-0.189
					c-3.9-0.167-7.785-0.293-11.688-0.325C220.637,265.08,220.656,264.779,220.855,264.76z"/>
			</g>
			<path fill="#FFFFFF" d="M255.389,250.431c-1.367-0.489-2.734-0.899-4.239-0.977c1.191,0.917,2.501,1.505,3.849,2.012
				c1.347,0.488,2.715,0.899,4.22,0.977C258.028,251.544,256.717,250.94,255.389,250.431z M274.946,303.646
				c-1.369-0.468-2.736-0.878-4.241-0.957c1.192,0.899,2.501,1.505,3.849,2.012c1.348,0.489,2.715,0.88,4.218,0.978
				C277.582,304.761,276.274,304.174,274.946,303.646z M223.214,226.872c-0.118,0.136-0.235,0.252-0.333,0.39
				c0.373,0.058,0.725,0.097,1.096,0.118C223.722,227.184,223.468,227.027,223.214,226.872z M234.624,303.646
				c-1.348-0.468-2.736-0.878-4.22-0.957c1.173,0.899,2.48,1.505,3.829,2.012c1.349,0.489,2.734,0.88,4.22,0.978
				C237.261,304.761,235.952,304.174,234.624,303.646z M286.96,218.157c-1.348-0.488-2.715-0.878-4.22-0.975
				c1.192,0.916,2.501,1.503,3.849,2.031c1.347,0.468,2.715,0.878,4.22,0.957C289.617,219.271,288.308,218.667,286.96,218.157z
				 M272.444,193.778c-0.272,0.565-0.507,1.151-0.742,1.738c-0.468,1.347-0.878,2.736-0.957,4.239
				c0.899-1.192,1.505-2.501,2.012-3.849c0.215-0.586,0.41-1.192,0.548-1.798C273.012,193.972,272.736,193.875,272.444,193.778z
				 M255.175,286.513c-0.47,1.369-0.878,2.736-0.957,4.241c0.898-1.193,1.505-2.501,2.012-3.849
				c0.487-1.348,0.878-2.715,0.977-4.219C256.288,283.878,255.703,285.185,255.175,286.513z M274.105,237.478
				c-0.489,1.349-0.878,2.736-0.978,4.222c0.919-1.192,1.505-2.502,2.033-3.831c0.468-1.348,0.878-2.734,0.977-4.239
				C275.219,234.822,274.633,236.129,274.105,237.478z M213.231,315.7c0.293,0,0.565,0,0.858,0.019
				c0.138-0.604,0.235-1.21,0.276-1.855C213.916,314.449,213.545,315.076,213.231,315.7z M288.583,286.123
				c-1.291,0.625-2.561,1.31-3.674,2.305c1.484-0.196,2.833-0.703,4.142-1.289c1.289-0.606,2.559-1.291,3.672-2.305
				C291.238,285.049,289.89,285.536,288.583,286.123z M233.803,277.918c-1.291,0.606-2.561,1.309-3.674,2.307
				c1.484-0.216,2.833-0.725,4.142-1.291c1.289-0.626,2.559-1.309,3.672-2.305C236.459,276.823,235.11,277.332,233.803,277.918z
				 M245.583,230.447c-1.291,0.623-2.561,1.308-3.674,2.305c1.485-0.197,2.833-0.705,4.142-1.27
				c1.289-0.626,2.559-1.311,3.672-2.305C248.239,229.371,246.891,229.878,245.583,230.447z M256.152,313.981
				c0.118,0.86,0.332,1.66,0.625,2.443c0.352,0,0.703,0,1.035,0.019C257.364,315.583,256.836,314.763,256.152,313.981z
				 M210.378,291.222c-0.606-1.289-1.308-2.559-2.285-3.673c0.194,1.486,0.703,2.833,1.27,4.144
				c0.625,1.289,1.307,2.559,2.305,3.672C211.473,293.879,210.964,292.531,210.378,291.222z M229.29,253.126
				c-0.606-1.289-1.309-2.559-2.286-3.672c0.196,1.486,0.703,2.833,1.27,4.142c0.626,1.291,1.309,2.559,2.305,3.674
				C230.385,255.783,229.875,254.437,229.29,253.126z M274.594,265.962c-0.625-1.309-1.309-2.561-2.307-3.674
				c0.197,1.486,0.705,2.814,1.291,4.144c0.606,1.289,1.309,2.54,2.305,3.672C275.688,268.618,275.18,267.271,274.594,265.962z
				 M259.727,212.296c-0.626-1.307-1.309-2.559-2.305-3.69c0.194,1.503,0.703,2.833,1.289,4.161c0.606,1.289,1.309,2.54,2.305,3.672
				C260.82,214.954,260.313,213.607,259.727,212.296z"/>
		</g>
		<g>
			<g>
				<g>
					<path fill="#F7A9A0" d="M299.801,216.327c17.385,21.147,36.385,59.078,30.833,78.47
						c-5.345,18.679-88.415,16.023-102.479,14.024c-6.081-0.861,0.81-42.839,7.357-42.381c10.8,0.754,55.031-2.995,55.828-2.991
						c0,0-6.772-19.938-11.812-41.548C272.668,192.491,287.508,201.37,299.801,216.327z"/>
					<g>
						<path fill="#263238" d="M290.921,263.064c0,0,1.255,0.343,3.067,1.059c0.907,0.355,1.951,0.803,3.063,1.299
							c1.091,0.54,2.27,1.09,3.401,1.729c0.563,0.324,1.127,0.647,1.682,0.965c0.563,0.305,1.084,0.659,1.593,0.996
							c1.01,0.683,1.967,1.297,2.729,1.906c1.533,1.208,2.51,2.057,2.51,2.057s-1.126-0.658-2.749-1.709
							c-0.794-0.551-1.814-1.053-2.837-1.692c-1.022-0.641-2.172-1.228-3.29-1.866c-1.113-0.648-2.277-1.204-3.331-1.796
							c-1.083-0.535-2.068-1.092-2.943-1.506C292.08,263.642,290.921,263.064,290.921,263.064z"/>
					</g>
					<g>
						<g>
							<g>
								<rect x="211.795" y="287.14" fill="#C7C7C7" width="107.206" height="4.808"/>
								<rect x="211.795" y="287.14" fill="#A6A6A6" width="53.958" height="4.808"/>
							</g>
							<g>
								<polygon fill="#C7C7C7" points="259.948,291.944 155.466,291.944 141.807,220.983 246.289,220.983 								"/>
								<path fill="#FFFFFF" d="M207.237,256.463c0.308,3.514-2.29,6.36-5.803,6.36c-3.513,0-6.609-2.846-6.917-6.36
									c-0.306-3.512,2.292-6.36,5.804-6.36C203.834,250.103,206.929,252.951,207.237,256.463z"/>
							</g>
						</g>
						<g>
							<path fill="#F7A9A0" d="M247.74,295.861c-7.073,3.563-15.759,12.318-21.588,13.154c-5.262,0.756-7.218-3.582-7.218-3.582
								s-2.771,5.897-8.187,5.785c-2.785-0.058-5.139-4.559-5.139-4.559s-2.428,4.63-7.237,4.234
								c-3.831-0.317-5.616-4.779-5.616-4.779s-4.399,3.354-8.199,1.781c-7.705-3.19-8.471-36.176,3.562-41.553
								c5.607-2.506,5.359,5.562,5.359,5.562s3.161-11.515,9.957-11.845c6.796-0.333,5.838,10.129,5.838,10.129
								s3.163-11.13,10.243-10.764c7.371,0.383,4.622,10.682,4.622,10.682s4.801-7.451,10.158-5.928
								c8.844,2.513-1.774,19.409,0.114,26.619l11.784,0.347L247.74,295.861z"/>
							<path fill="#F7A9A0" d="M237.524,302.005c6.994-2.789,10.15,2.235,17.385,1.51c8.039-0.805,5.715-10.284-8.301-12.364
								l-12.199-0.354L237.524,302.005z"/>
							<g>
								<path fill="#263238" d="M192.371,305.45c0.01,0.109-0.14,0.146-0.17,0.036c-2.896-10.788-2.771-23.529,1.236-34.025
									c0.133-0.346,0.749-0.283,0.678,0.126C192.052,283.197,191.148,293.663,192.371,305.45z"/>
								<path fill="#263238" d="M205.543,306.823c0.014,0.126-0.199,0.151-0.235,0.017c-2.921-11.132-2.387-25.478,3.657-37.035
									c0.208-0.396,0.79-0.543,0.585-0.07C206.116,277.726,204.389,296.218,205.543,306.823z"/>
								<path fill="#263238" d="M224.842,269.401c-5.368,11.305-6.569,23.193-6.05,35.582c0.007,0.162-0.221,0.155-0.264,0.022
									c-1.905-5.992-1.415-13.922-0.509-20.061c0.865-5.88,2.83-11.011,6.428-15.73
									C224.584,269.03,224.956,269.159,224.842,269.401z"/>
							</g>
							<g>
								<path fill="#263238" d="M227.458,308.716c0,0,0.199-0.069,0.571-0.2c0.368-0.142,0.908-0.351,1.57-0.671
									c1.332-0.624,3.138-1.704,5.175-3.19c1.022-0.738,2.107-1.568,3.308-2.394c0.606-0.405,1.231-0.826,1.977-1.125
									c0.784-0.333,1.65-0.166,2.426-0.04c3.137,0.625,6.294,1.847,9.597,2.254c1.628,0.197,3.326,0.226,4.752-0.376
									c0.706-0.303,1.308-0.789,1.723-1.414c0.207-0.328,0.363-0.629,0.509-1.02c0.06-0.178,0.095-0.344,0.147-0.516l0.072-0.538
									c0.091-1.47-0.82-2.755-1.823-3.702c-1.023-0.964-2.197-1.666-3.304-2.235c-1.112-0.572-2.189-0.983-3.147-1.33
									c-0.962-0.339-1.823-0.576-2.539-0.738c-1.433-0.331-2.282-0.34-2.282-0.34s0.85-0.071,2.313,0.183
									c1.454,0.252,3.536,0.738,5.854,1.817c1.152,0.544,2.382,1.218,3.506,2.204c1.103,0.949,2.167,2.409,2.093,4.177
									c-0.019,0.213-0.047,0.426-0.079,0.64c-0.057,0.211-0.11,0.437-0.177,0.638c-0.082,0.194-0.137,0.353-0.24,0.579
									c-0.106,0.188-0.207,0.381-0.32,0.567c-0.476,0.738-1.198,1.334-2.011,1.692c-1.648,0.727-3.46,0.639-5.142,0.42
									c-1.7-0.234-3.345-0.668-4.945-1.118c-1.603-0.44-3.153-0.962-4.666-1.314c-0.752-0.149-1.502-0.32-2.154-0.049
									c-0.673,0.252-1.304,0.651-1.905,1.037c-1.193,0.816-2.321,1.588-3.363,2.3c-2.096,1.42-3.952,2.45-5.313,3.026
									c-0.68,0.291-1.23,0.476-1.605,0.601C227.66,308.655,227.458,308.716,227.458,308.716z"/>
							</g>
						</g>
					</g>
				</g>
				<g>
					<g>
						<path fill="#F6E8D4" d="M320.4,240.504l-37.868,1.355c0,0-5.211-18.318-6.663-28.862c-1.924-13.953,2.805-17.937,15.839-6.612
							C300.431,213.961,320.4,240.504,320.4,240.504z"/>
						<path fill="#FFFFFF" d="M305.172,237.658c-1.588-0.252-3.044-0.802-4.469-1.42c-1.411-0.647-2.792-1.369-4.038-2.383
							c1.59,0.252,3.044,0.8,4.469,1.42C302.545,235.925,303.924,236.644,305.172,237.658z M295.974,210.583
							c-1.382,0.199-2.693,0.613-3.974,1.089c-1.447,0.577-2.867,1.219-4.169,2.155c1.599-0.16,3.09-0.623,4.549-1.161
							c1.304-0.518,2.579-1.086,3.776-1.895C296.095,210.709,296.035,210.646,295.974,210.583z"/>
					</g>
					<path fill="#263238" d="M286.277,241.756c-0.409-0.06-3.429-0.097-3.708-0.015c-0.558-2.171-1.089-4.348-1.671-6.512
						c-0.293-1.081-0.603-2.161-0.928-3.231c-0.359-1.182-0.705-2.543-1.023-3.587c-0.051-0.164-0.262-0.12-0.228,0.051
						c0.277,1.397,0.529,2.433,0.776,3.643c0.175,0.854,0.378,1.706,0.585,2.557c-0.109-0.203-0.218-0.405-0.32-0.603
						c-0.559-1.1-1.202-2.133-1.696-3.267c-0.061-0.138-0.279-0.034-0.213,0.102c0.543,1.105,0.938,2.268,1.462,3.379
						c0.385,0.82,0.746,1.728,1.267,2.492c0.439,1.837,0.722,3.95,1.26,5.717c0.053,0.172,4.048-0.5,4.448-0.593
						C286.359,241.877,286.342,241.764,286.277,241.756z"/>
					<path fill="#263238" d="M316.428,237.052c-5.523-0.184-11.039-0.288-16.566-0.146c-2.756,0.07-13.755,0.926-16.503,1.039
						c-0.15,0.007-0.133,0.228,0.021,0.235c3.401,0.187,14.324-0.184,17.08-0.262c5.503-0.157,10.481-0.599,15.987-0.63
						C316.602,237.285,316.576,237.056,316.428,237.052z"/>
				</g>
			</g>
		</g>
		<g>
			<g>
				<g>
					<path fill="#F7A9A0" d="M276.175,203.701c-0.909,1.643-12.54,10.676-20.469,8.02c-2.581-0.87,1.536-15.171,1.536-15.171
						l0.061-1.124l0.889-15.75l20.562-6.231l2.935-0.763c0,0-0.527,4.292-1.237,9.63c-0.033,0.249-0.063,0.496-0.101,0.761
						c-0.032,0.303-0.06,0.589-0.102,0.872c-0.095,0.798-0.198,1.614-0.315,2.424c-0.087,0.616-0.168,1.215-0.284,1.86
						c-0.099,0.65-0.208,1.279-0.307,1.929C278.229,196.539,276.55,203.001,276.175,203.701z"/>
					<path fill="#263238" d="M281.681,172.68c0,0-0.521,4.288-1.236,9.641c-0.019,0.243-0.053,0.487-0.088,0.749
						c-0.034,0.313-0.068,0.592-0.104,0.872c-0.104,0.802-0.209,1.621-0.315,2.424c-0.085,0.627-0.173,1.219-0.296,1.864
						c-0.087,0.646-0.208,1.272-0.296,1.936c-0.347,2.022-0.766,4.045-1.168,5.892c-11.574-0.087-18.6-8.263-20.326-10.546
						l0.332-5.839l20.57-6.224L281.681,172.68z"/>
				</g>
				<g>
					<path fill="#F7A9A0" d="M295.746,157.864c2.111,27.605-14.185,31.988-20.139,32.436c-5.403,0.407-23.855,1.106-28.808-26.132
						c-4.952-27.24,7.215-36.947,19.526-38.533C278.635,124.052,293.635,130.26,295.746,157.864z"/>
					<g>
						<path fill="#263238" d="M289.753,151.295c-0.661-0.033-1.263-0.172-1.91-0.271c-0.732-0.112-1.326-0.126-1.895-0.647
							c-0.305-0.281-0.323-0.889-0.08-1.212c0.569-0.749,1.498-0.834,2.383-0.735c0.964,0.107,1.675,0.436,2.353,1.125
							C291.262,150.224,290.622,151.337,289.753,151.295z"/>
						<path fill="#263238" d="M271.361,154.461c0.652-0.102,1.236-0.305,1.87-0.471c0.716-0.191,1.306-0.268,1.814-0.848
							c0.276-0.31,0.228-0.916-0.048-1.21c-0.646-0.687-1.58-0.673-2.451-0.479c-0.943,0.208-1.617,0.611-2.216,1.369
							C269.747,153.557,270.501,154.596,271.361,154.461z"/>
						<g>
							<g>
								<path fill="#263238" d="M275.93,159.386c-0.021-0.072-0.143,0.099-0.136,0.177c0.181,1.893,0.068,4.093-1.609,4.832
									c-0.053,0.024-0.041,0.119,0.022,0.105C276.284,164.073,276.403,161.153,275.93,159.386z"/>
								<path fill="#263238" d="M274.109,157.514c-3.066-0.041-2.918,6.096-0.075,6.132
									C276.829,163.68,276.679,157.544,274.109,157.514z"/>
							</g>
							<path fill="#263238" d="M272.914,157.866c-0.528,0.359-1.039,0.986-1.682,1.064c-0.747,0.092-1.328-0.536-1.832-1.142
								c-0.051-0.063-0.102-0.008-0.102,0.073c0.01,1.176,0.494,2.372,1.757,2.516c1.154,0.133,1.954-0.93,2.22-2.118
								C273.322,158.04,273.125,157.721,272.914,157.866z"/>
						</g>
						<g>
							<g>
								<path fill="#263238" d="M286.911,158.035c0.014-0.075,0.153,0.082,0.153,0.16c0.023,1.903,0.369,4.077,2.114,4.634
									c0.054,0.017,0.053,0.113-0.01,0.106C287.057,162.729,286.628,159.839,286.911,158.035z"/>
								<path fill="#263238" d="M288.521,155.975c3.045-0.364,3.551,5.754,0.729,6.091
									C286.475,162.399,285.969,156.281,288.521,155.975z"/>
							</g>
							<path fill="#263238" d="M289.83,156.272c0.509,0.284,1.037,0.834,1.617,0.824c0.672-0.012,1.112-0.713,1.488-1.384
								c0.04-0.068,0.092-0.021,0.101,0.06c0.129,1.166-0.157,2.416-1.263,2.732c-1.006,0.29-1.842-0.65-2.216-1.791
								C289.486,156.5,289.624,156.158,289.83,156.272z"/>
						</g>
						<path fill="#263238" d="M275.787,174.2c0.446,0.456,0.889,1.076,1.577,1.151c0.66,0.068,1.442-0.214,2.053-0.436
							c0.062-0.022,0.121,0.043,0.082,0.099c-0.511,0.718-1.558,1.154-2.436,0.98c-0.856-0.167-1.267-0.919-1.459-1.712
							C275.576,174.173,275.723,174.134,275.787,174.2z"/>
						<g>
							<path fill="#263238" d="M284.34,166.707c0,0,0.497,2.836,0.548,4.181c0.003,0.126-4.128,1.174-7.125-1.92
								c-0.111-0.116,0.068-0.272,0.192-0.194c1.821,1.239,3.793,1.505,5.9,1.464c0.082-0.378-1.015-4.832-0.8-4.855
								c0.732-0.088,2.2,0.357,3.078,0.583c-0.863-5.941-2.673-11.694-3.444-17.62c-0.022-0.213,0.279-0.288,0.349-0.101
								c2.322,5.896,3.466,12.708,4.515,18.82C287.694,167.825,284.888,166.914,284.34,166.707z"/>
						</g>
					</g>
					<g>
						<g>
							<path fill="#263238" d="M248.471,166.969c5.288,0.504,6.271-11.604,6.271-11.604s22.33-4.491,23.675-22.827
								c0,0,4.203,11.534,16.12,16.448c0,0-1.396-20.013-17.4-23.421c0,0-19.933-6.575-30.537,9.407S244.919,166.63,248.471,166.969
								z"/>
						</g>
						<path fill="#263238" d="M278.455,131.185c0.386,2.778,0.064,5.652-0.748,8.372c-0.812,2.721-2.148,5.329-4.011,7.511
							c-0.422,0.582-0.984,1.039-1.469,1.563l-0.756,0.761c-0.271,0.229-0.553,0.449-0.836,0.667
							c-0.572,0.429-1.124,0.884-1.706,1.289c-0.61,0.368-1.226,0.722-1.846,1.069c-0.31,0.17-0.613,0.357-0.928,0.514l-0.979,0.414
							l-1.947,0.819c-1.345,0.419-2.71,0.768-4.062,1.093c1.272-0.603,2.581-1.064,3.822-1.668l1.83-0.962l0.913-0.479
							c0.293-0.177,0.569-0.383,0.854-0.572c0.563-0.39,1.129-0.773,1.703-1.141c0.541-0.412,1.047-0.868,1.573-1.299l0.782-0.652
							l0.705-0.732c0.451-0.504,0.98-0.939,1.371-1.496c1.784-2.045,3.069-4.476,4.065-7.009c0.492-1.273,0.861-2.598,1.137-3.944
							C278.225,133.956,278.389,132.581,278.455,131.185z"/>
					</g>
					<g>
						<g>
							<path fill="#F7A9A0" d="M251.348,165.952c0,0-5.953-8.704-9.897-6.588c-3.943,2.114,0.473,14.686,5.06,16.446
								c4.586,1.76,6.299-2.451,6.299-2.451L251.348,165.952z"/>
							<path fill="#263238" d="M242.805,162.936c-0.073-0.007-0.088,0.097-0.024,0.125c3.214,1.339,4.883,4.35,6.04,7.466
								c-0.946-1.205-2.247-1.873-3.859-0.747c-0.085,0.06-0.005,0.192,0.086,0.173c1.325-0.271,2.274-0.03,3.158,1.037
								c0.625,0.756,1.047,1.709,1.491,2.579c0.148,0.291,0.671,0.141,0.563-0.192c-0.007-0.024-0.017-0.049-0.024-0.075
								C250.36,169.187,247.221,163.397,242.805,162.936z"/>
						</g>
					</g>
				</g>
			</g>
		</g>
	</g>
</g>
</svg>
