<?xml version="1.0" encoding="utf-8"?>
<!-- Generator: Adobe Illustrator 16.0.0, SVG Export Plug-In . SVG Version: 6.00 Build 0)  -->
<!DOCTYPE svg PUBLIC "-//W3C//DTD SVG 1.1//EN" "http://www.w3.org/Graphics/SVG/1.1/DTD/svg11.dtd">
<svg version="1.1" id="Layer_1" xmlns="http://www.w3.org/2000/svg" xmlns:xlink="http://www.w3.org/1999/xlink" x="0px" y="0px"
	 width="461.404px" height="297.949px" viewBox="0 0 461.404 297.949" enable-background="new 0 0 461.404 297.949"
	 xml:space="preserve">
<g opacity="0.2">
	<circle fill="none" stroke="#B9CEEB" stroke-miterlimit="10" cx="312.431" cy="148.976" r="148.473"/>
	<circle fill="none" stroke="#B9CEEB" stroke-miterlimit="10" cx="312.431" cy="148.976" r="124.328"/>
	<circle fill="none" stroke="#B9CEEB" stroke-miterlimit="10" cx="312.431" cy="148.976" r="100.183"/>
	<circle fill="none" stroke="#B9CEEB" stroke-miterlimit="10" cx="312.431" cy="148.976" r="76.036"/>
	<circle fill="none" stroke="#B9CEEB" stroke-miterlimit="10" cx="312.431" cy="148.976" r="51.892"/>
</g>
<g>
	<polygon fill="none" stroke="#EBEBEB" stroke-miterlimit="10" points="69.041,91.775 69.041,130.036 63.671,130.036 
		63.671,139.317 54.39,130.036 3.458,130.036 3.458,91.775 	"/>
	<g>
		<circle fill="none" stroke="#B9CEEB" stroke-miterlimit="10" cx="20.744" cy="110.905" r="3.107"/>
		<circle fill="none" stroke="#B9CEEB" stroke-miterlimit="10" cx="36.25" cy="110.905" r="3.107"/>
		<circle fill="none" stroke="#B9CEEB" stroke-miterlimit="10" cx="51.757" cy="110.905" r="3.107"/>
	</g>
</g>
<g>
	<polygon fill="#EBEBEB" points="165.259,20.625 167.903,24.565 172.468,25.862 169.538,29.595 169.715,34.336 165.259,32.704 
		160.804,34.336 160.98,29.595 158.05,25.862 162.615,24.565 	"/>
	<polygon fill="#EBEBEB" points="185.647,20.625 188.291,24.565 192.855,25.862 189.925,29.595 190.103,34.336 185.647,32.704 
		181.192,34.336 181.368,29.595 178.438,25.862 183.002,24.565 	"/>
	<polygon fill="#EBEBEB" points="206.034,20.625 208.68,24.565 213.244,25.862 210.313,29.595 210.489,34.336 206.034,32.704 
		201.579,34.336 201.756,29.595 198.827,25.862 203.39,24.565 	"/>
	<polygon fill="#EBEBEB" points="226.423,20.625 229.067,24.565 233.633,25.862 230.702,29.595 230.878,34.336 226.423,32.704 
		221.967,34.336 222.145,29.595 219.214,25.862 223.778,24.565 	"/>
	<polygon fill="none" stroke="#EBEBEB" stroke-miterlimit="10" points="246.81,20.625 249.454,24.565 254.021,25.862 251.09,29.595 
		251.267,34.336 246.81,32.704 242.354,34.336 242.531,29.595 239.601,25.862 244.165,24.565 	"/>
	<polygon fill="#EBEBEB" points="246.81,32.704 246.81,20.625 244.165,24.565 239.601,25.862 242.531,29.595 242.354,34.336 	"/>
</g>
<g>
	<g>
		<g>
			<path fill="#455B65" d="M91.856,252.525c-4.152,0.146-8.782,0.383-12.219-2.312c-3.174-2.481-6.006-6.188-5.586-10.44
				c0.122-1.211,0.399-1.961,1.699-1.441c1.979,0.789,3.507,2.973,4.878,4.508c1.779,1.988,3.635,3.834,5.759,5.461
				c1.477,1.131,3.068,2.109,4.575,3.207c0.191,0.137,0.379,0.273,0.564,0.42c0.071,0.051,0.145,0.105,0.215,0.162
				c0.038,0.002,0.08,0.002,0.118,0.002c0.08,0.006,0.139,0.039,0.17,0.09c0.015,0.021,0.027,0.045,0.033,0.07
				C92.087,252.373,92.019,252.521,91.856,252.525z"/>
			<path fill="#FFFFFF" d="M92.062,252.251c-3.648-0.063-7.588,0.104-10.508-2.373c-1.349-1.147-2.472-2.61-3.389-4.117
				c-0.422-0.688-1.687-2.733-1.163-3.549c0.949-1.478,5.297,4.533,5.899,5.108c2.262,2.156,5.083,3.431,8.059,4.187
				c0.191,0.136,0.379,0.272,0.564,0.42c-2.123-0.456-4.186-1.206-6.052-2.323c-2.591-1.547-4.032-3.83-6.058-5.963
				c-0.438-0.461-1.758-2.013-2.257-1.048c-0.328,0.638,0.894,2.642,1.157,3.068c0.873,1.428,1.94,2.813,3.205,3.916
				c2.91,2.541,6.831,2.452,10.508,2.603C92.044,252.201,92.056,252.227,92.062,252.251z"/>
		</g>
		<g>
			<path fill="#455B65" d="M94.146,255.059c-0.037,0.159-0.067,0.317-0.1,0.479c0,0.006-0.003,0.008-0.006,0.017
				c-0.008,0.045-0.039,0.071-0.074,0.086c-0.08,0.03-0.187-0.009-0.218-0.086c-0.015-0.027-0.015-0.062-0.002-0.101
				c0.006-0.021,0.012-0.041,0.021-0.063c0.015-0.048,0.029-0.095,0.044-0.142c-0.003-0.004-0.006-0.006-0.008-0.013
				c-0.003-0.016-0.009-0.032-0.012-0.049c-0.736-2.746-1.022-5.604-1.797-8.354c-0.74-2.623-1.66-5.193-2.191-7.873
				c-0.337-1.688-1.511-10.156,2.222-9.104c1.653,0.471,2.787,2.863,3.414,4.295c0.841,1.922,1.265,3.998,1.375,6.088
				C97.086,245.408,95.193,250.105,94.146,255.059z"/>
			<path fill="#FFFFFF" d="M95.341,244.509c0.045-1.928-0.097-3.87-0.598-5.745c-0.167-0.648-0.979-3.765-2.034-3.687
				c-0.683,0.043-0.798,1.389-0.856,1.834c-0.238,1.883,0.374,3.81,0.74,5.644c0.753,3.737,1.171,7.518,1.371,11.313
				c-0.031,0.238-0.07,0.482-0.096,0.721c-0.032,0.201-0.052,0.398-0.078,0.6c-0.006,0.07-0.019,0.138-0.025,0.207
				c-0.006,0.053-0.013,0.104-0.019,0.16c0.032,0.078,0.141,0.115,0.218,0.086c0.02-0.156,0.045-0.311,0.064-0.467
				c0.007,0.131,0.007,0.252,0.013,0.381c0-0.008,0.006-0.008,0.006-0.014c0.026-0.135,0.052-0.264,0.078-0.393
				c0.007-0.033,0.013-0.06,0.02-0.09c0-0.213-0.007-0.425-0.013-0.632C94.607,251.126,95.258,247.846,95.341,244.509z
				 M94.08,253.063c-0.103-2.222-0.321-4.435-0.636-6.635c-0.251-1.775-0.586-3.533-0.959-5.283c-0.212-0.99-0.431-1.982-0.476-3
				c-0.032-0.771,0.078-3.629,1.551-1.857c1.062,1.287,1.32,4.021,1.448,5.598c0.148,1.752,0.071,3.51-0.103,5.26
				C94.704,249.125,94.375,251.096,94.08,253.063z"/>
		</g>
		<g>
			<path fill="#455B65" d="M96.381,266.451L96.381,266.451c-0.072,0.014-0.145,0.02-0.154,0.02
				c-3.796-0.191-8.853,0.164-12.01-2.348c-2.333-1.855-4.624-5.521-3.887-8.633c0.838-3.506,5.574,0.703,6.827,1.717
				c3.191,2.59,9.302,8.926,9.302,9.051c0.014,0.023,0.034,0.045,0.048,0.068c0.002,0.004,0.004,0.01,0.007,0.01
				C96.547,266.396,96.466,266.434,96.381,266.451z"/>
			<path fill="#FFFFFF" d="M96.513,266.339c-0.22-0.135-0.438-0.271-0.657-0.411c-2.497-1.57-4.93-3.251-7.266-5.046
				c-0.592-0.45-4.865-4.254-5.508-2.896c-0.386,0.824,1.023,2.496,1.473,3.063c0.811,1.012,1.79,1.887,2.883,2.572
				c2.529,1.578,5.599,1.92,8.462,2.68c0.136,0.025,0.27,0.064,0.406,0.104c0.025,0.021,0.044,0.031,0.07,0.046h0.006
				C96.467,266.43,96.545,266.396,96.513,266.339z M89.002,264.178c-1.204-0.541-2.317-1.3-3.276-2.214
				c-0.637-0.604-2.883-2.877-2.285-3.812c0.315-0.493,0.579-0.231,1.184,0.064c0.277,0.135,0.547,0.295,0.805,0.465
				c0.638,0.418,1.223,0.904,1.815,1.375c1.042,0.836,2.098,1.644,3.179,2.428c1.763,1.287,3.578,2.496,5.432,3.646
				C93.578,265.432,91.171,265.156,89.002,264.178z"/>
		</g>
		<g>
			<path fill="#455B65" d="M103.316,258.63c-0.967,4.345-3.282,8.312-6.506,11.363c-0.024,0.021-0.048,0.034-0.071,0.041
				c-0.074,0.024-0.151-0.011-0.195-0.072c-0.044-0.06-0.053-0.146,0.019-0.219c0.065-0.063,0.127-0.129,0.192-0.193
				c0.629-5.159,1.323-10.291,1.853-15.467c0.125-1.219,1.08-8.981,3.464-7.717c1.473,0.78,1.572,3.959,1.697,5.389
				C103.974,254.052,103.814,256.384,103.316,258.63z"/>
			<path fill="#FFFFFF" d="M101.938,251.712c-0.129-0.433-0.354-0.877-0.837-0.571c-0.926,0.577-1.294,4.229-1.448,5.237
				c-0.637,4.164-1.622,8.166-2.625,12.24c-0.084,0.34-0.168,0.688-0.251,1.034c-0.077,0.103-0.154,0.207-0.231,0.31
				c0.045,0.065,0.122,0.099,0.193,0.072c0.013-0.033,0.02-0.072,0.032-0.104c0.103-0.135,0.212-0.277,0.309-0.418
				c0-0.008,0-0.008,0-0.008c1.635-2.221,2.903-4.743,3.759-7.322c0.546-1.66,0.914-3.367,1.107-5.104
				C102.125,255.482,102.42,253.275,101.938,251.712z M97.066,269.229c-0.045,0.069-0.096,0.137-0.142,0.207
				c0.045-0.144,0.09-0.275,0.129-0.418c0.958-3.104,1.776-6.271,2.323-9.476c0.277-1.629,0.451-3.269,0.785-4.883
				c0.141-0.685,0.476-2.636,1.042-2.947c0.548-0.315,0.554,0.44,0.612,0.881c0.039,0.314,0.039,0.89,0.045,1.185
				C101.951,259.416,100.213,264.693,97.066,269.229z"/>
		</g>
		<path fill="#455B65" d="M97.439,281.123h-0.76c-0.013-0.668-0.025-1.34-0.044-2.002c-0.09-2.695-0.2-5.395-0.361-8.09
			c-0.09-1.537-0.199-3.063-0.36-4.574c-0.006-0.053-0.013-0.104-0.013-0.154c-0.019-0.121-0.032-0.244-0.044-0.373
			c-0.013-0.131-0.032-0.266-0.052-0.4c-0.412-3.396-1.132-6.717-2.606-9.907c-0.483-1.052-1.01-2.074-1.563-3.09
			c-0.052-0.097-0.11-0.193-0.161-0.289c-0.013-0.027-0.026-0.054-0.045-0.078c-0.051-0.103-0.109-0.199-0.168-0.304
			c-0.044-0.077-0.083-0.146-0.128-0.225c-1.756-3.09-3.765-6.045-5.669-9.018c-0.548-0.852-1.094-1.705-1.629-2.563
			c-0.038-0.052-0.07-0.104-0.096-0.154c-0.045-0.058-0.083-0.121-0.122-0.188c-2.395-3.775-4.75-7.586-7.233-11.293
			c-0.097-0.135,0.128-0.258,0.218-0.123c1.68,2.459,3.417,4.881,5.142,7.313c0.231,0.322,0.457,0.648,0.689,0.972
			c0.457,0.646,0.907,1.28,1.357,1.924c0.901,1.289,1.789,2.574,2.658,3.884c2.445,3.659,5,7.354,6.989,11.307
			c0.148,0.295,0.289,0.592,0.432,0.895c0.09,0.188,0.179,0.373,0.257,0.561c0.104,0.213,0.199,0.433,0.296,0.65
			c1.686,3.867,2.285,7.852,2.555,11.955c0.02,0.285,0.039,0.574,0.052,0.865c0.006,0.127,0.019,0.262,0.025,0.396
			c0,0.069,0.006,0.143,0.013,0.213c0,0.09,0.006,0.18,0.013,0.274c0,0,0,0,0,0.009c0,0.063,0.007,0.135,0.007,0.205
			c0.013,0.243,0.019,0.489,0.032,0.739c0.109,2.696,0.18,5.394,0.238,8.084C97.375,279.396,97.408,280.259,97.439,281.123z"/>
		<g>
			<path fill="#455B65" d="M74.78,232.273c-2.078-2.795-4.742-8.562-1.679-11.56c1.231-1.207,2.944-1.33,4.342-0.319
				c1.618,1.17,2.344,3.383,2.868,5.215c1.404,4.889,2.334,9.871,4.087,14.662c0.031,0.028,0.148,0.41,0.19,0.516
				c0.037,0.1-0.123,0.141-0.159,0.043c-0.058-0.154-0.114-0.313-0.173-0.469C80.946,237.96,77.244,235.589,74.78,232.273z"/>
			<path fill="#FFFFFF" d="M84.427,240.283c-0.02-0.025-0.032-0.059-0.051-0.084c-0.728-1.172-1.365-2.373-1.943-3.617
				c-1.197-2.58-2.111-5.283-2.986-8.004c-0.335-1.051-1.828-6.188-3.662-4.141c-0.772,0.862-0.663,2.389-0.541,3.442
				c0.187,1.699,0.772,3.32,1.596,4.813c1.648,2.968,4.209,5.211,6.899,7.207c0.122,0.099,0.245,0.188,0.367,0.275
				c0.025,0.047,0.051,0.084,0.077,0.131c0.012,0.023,0.032,0.058,0.051,0.084c0.013,0.019,0.026,0.029,0.046,0.037
				c0.063,0.031,0.147-0.008,0.16-0.07C84.446,240.333,84.446,240.309,84.427,240.283z M83.616,239.716
				c-2.169-1.713-4.287-3.577-5.85-5.868c-0.811-1.191-1.48-2.502-1.905-3.888c-0.187-0.61-0.328-1.25-0.412-1.887
				c-0.065-0.47-0.103-0.966-0.084-1.439c0.033-1.057,0.47-2.207,1.094-2.317c0.772-0.142,1.029,0.311,1.539,1.197
				c0.174,0.297,0.321,0.61,0.457,0.926c0.341,0.793,0.605,1.617,0.862,2.434c0.432,1.357,0.869,2.709,1.359,4.049
				c0.328,0.908,0.682,1.811,1.068,2.689c0.663,1.525,1.409,3.004,2.278,4.43C83.887,239.936,83.751,239.826,83.616,239.716z"/>
		</g>
	</g>
	<g>
		<g>
			<g>
				<path fill="#455B65" d="M320.567,240.085c-0.346,2.771-0.873,5.515-1.436,8.246c-0.313,1.551-0.648,3.096-0.964,4.651
					c-0.345,1.709-0.854,3.451-0.391,5.177c0.004,0.002,0.01,0.002,0.01,0.004c0.018,0.019,0.021,0.235,0.018,0.237
					c-0.005,0.015-0.011,0.021-0.02,0.031c-0.083,0.109-0.302,0.109-0.357-0.063c-0.012-0.039-0.02-0.078-0.027-0.115
					c-0.012-0.012-0.021-0.022-0.029-0.035c-0.291-0.395-0.479-1.149-0.598-1.438c-0.539-1.302-0.99-2.646-1.375-4.007
					c-0.792-2.778-1.271-5.647-1.349-8.543c-0.067-2.588,0.19-5.184,0.807-7.694c0.491-2.015,1.194-5.015,2.693-6.554
					c1.36-1.393,2.491,0.838,2.886,1.968C321.316,234.514,320.892,237.464,320.567,240.085z"/>
				<path fill="#FFFFFF" d="M318.087,234.207c-1.011,0-1.743,3.266-2.104,4.674c-0.572,2.221-0.844,4.504-0.861,6.795
					c-0.038,4.125,0.766,8.188,2.093,12.074c0.051,0.152,0.104,0.313,0.159,0.471c0.006,0.012,0.02,0.023,0.027,0.037
					c0.013,0.031,0.019,0.07,0.029,0.109c0.053,0.174,0.277,0.18,0.36,0.063c-0.064-0.343-0.115-0.675-0.154-1.017
					c-0.037-0.312-0.069-0.611-0.091-0.914c-0.276-3.313,0.199-6.707,0.618-9.994C318.654,242.645,319.426,234.214,318.087,234.207z
					 M317.359,257.148c0.053,0.451,0.122,0.896,0.206,1.334c-0.104-0.322-0.206-0.646-0.304-0.967
					c-1.063-3.461-1.803-7.021-1.903-10.65c-0.064-2.033,0.076-4.078,0.442-6.088c0.198-1.08,0.457-2.144,0.784-3.187
					c0.143-0.438,0.876-3.166,1.5-3.03c0.438,0.098,0.541,2.557,0.548,2.606c0.025,0.49,0.025,0.983,0.021,1.479
					c-0.016,1.017-0.085,2.033-0.169,3.043c-0.192,2.193-0.51,4.384-0.772,6.568C317.359,251.177,317.02,254.216,317.359,257.148z"
					/>
			</g>
			<g>
				<path fill="#455B65" d="M336.476,247.736c-1.854,3.617-4.979,6.389-8.202,8.764c-1.73,1.271-3.521,2.461-5.274,3.689
					c-1.475,1.028-3.254,2.119-4.556,3.506c-0.061,0.059-0.118,0.121-0.176,0.188c-0.361,0.408-0.685,0.842-0.943,1.305
					c-0.022,0.035-0.054,0.054-0.086,0.056c-0.021,0.055-0.037,0.106-0.063,0.159c-0.014,0.037-0.075,0.031-0.068-0.016
					c0.004-0.057,0.015-0.121,0.02-0.18c0.002-0.006,0.001-0.008,0.003-0.016c-0.031-0.039-0.042-0.086-0.011-0.139
					c0.008-0.021,0.02-0.039,0.032-0.06c0.007-0.06,0.014-0.119,0.021-0.179c0.528-4.229,3.485-8.502,5.987-11.758
					c2.485-3.242,5.586-6.135,9.449-7.623c0.973-0.373,3.178-1.401,4.165-0.61C337.675,245.546,336.871,246.971,336.476,247.736z"/>
				<path fill="#FFFFFF" d="M333.61,247.755c-0.886-0.883-3.478,1.291-4.125,1.802c-1.979,1.539-3.695,3.373-5.367,5.219
					c-2.742,3.045-5.188,6.211-6.854,9.918v0.006c-0.031,0.041-0.058,0.076-0.092,0.115c-0.012,0.063-0.019,0.123-0.022,0.182
					c-0.015,0.02-0.026,0.039-0.031,0.061c-0.033,0.051-0.021,0.103,0.012,0.139c0.044-0.051,0.085-0.102,0.129-0.146
					c0.322-0.399,0.663-0.784,1.011-1.163c0.059-0.066,0.115-0.13,0.175-0.188c2.421-2.607,5.276-4.802,8.022-7.087
					c1.906-1.59,3.768-3.274,5.344-5.192C332.213,250.927,334.349,248.496,333.61,247.755z M332.799,249.691
					c-2.188,3.629-5.979,6.279-9.196,8.928c-2.183,1.781-4.317,3.641-6.105,5.797c1.615-3.275,3.938-6.225,6.339-8.92
					c1.383-1.559,2.806-3.096,4.355-4.486c0.832-0.752,1.707-1.49,2.646-2.115c0.425-0.283,1.274-0.813,1.789-0.967
					C333.854,247.566,333.172,249.066,332.799,249.691z"/>
			</g>
			<g>
				<path fill="#455B65" d="M316.735,273.8c-0.034,0.063-0.109,0.104-0.188,0.104c0.016,0.025,0.031,0.046,0.047,0.066
					c0.025,0.033,0.016,0.07-0.011,0.09c-0.022,0.023-0.062,0.029-0.09,0c-3.429-3.485-6.732-7.727-8.439-12.348
					c-0.72-1.947-1.167-4.004-1.225-6.084c-0.039-1.424-0.114-4.289,1.104-5.326c2.45-2.082,4.686,6.76,5.018,8.094
					c0.605,2.431,1.009,4.904,1.564,7.349c0.614,2.672,1.424,5.293,2.229,7.912C316.758,273.712,316.755,273.764,316.735,273.8z"/>
				<path fill="#FFFFFF" d="M316.735,273.798c-0.138-0.225-0.266-0.448-0.389-0.682c-2.108-3.74-3.494-7.595-4.413-11.882
					c-0.442-2.063-0.837-4.215-1.628-6.186c-0.198-0.488-0.813-2.373-1.623-1.422c-0.419,0.496-0.069,4.066,0.099,4.988
					c0.387,2.104,1.104,4.139,1.987,6.074c1.468,3.229,3.38,6.346,5.617,9.125c0.065,0.084,0.128,0.168,0.192,0.244
					c0.027-0.019,0.04-0.06,0.013-0.09c-0.013-0.021-0.031-0.037-0.044-0.063C316.627,273.9,316.703,273.863,316.735,273.798z
					 M311.761,266.199c-0.965-1.881-1.802-3.85-2.354-5.896c-0.22-0.811-0.394-1.641-0.517-2.477
					c-0.09-0.656-0.174-1.32-0.167-1.977c0.015-1.617,0.144-2.035,0.413-2.095c0.165-0.03,0.398,0.144,0.874,1.109
					c0.305,0.608,0.517,1.307,0.688,1.963c0.251,0.95,0.47,1.909,0.676,2.875c0.418,1.924,0.811,3.86,1.371,5.748
					c0.79,2.694,1.923,5.327,3.404,7.729C314.509,270.975,313.021,268.669,311.761,266.199z"/>
			</g>
			<g>
				<path fill="#455B65" d="M327.731,265.322c-0.329,1.711-1.241,3.273-2.249,4.676c-2.035,2.811-4.64,5.146-6.858,7.801
					c-0.332,0.396-0.657,0.801-0.97,1.217c-0.032,0.047-0.289,0.633-0.285,0.584c0-0.012,0.04-0.233,0.112-0.61l0.003-0.005
					c0.354-1.86,1.523-7.479,2.981-10.354c0.896-1.767,1.939-3.58,3.247-5.08c0.631-0.713,2.109-2.254,3.227-1.918
					C328.139,261.992,327.903,264.43,327.731,265.322z"/>
				<path fill="#FFFFFF" d="M325.92,264.184c-1.188-0.738-4.262,4.741-4.673,5.452c-1.525,2.623-2.704,5.431-3.502,8.357
					c-0.097,0.329-0.18,0.655-0.264,0.991c-0.069,0.379-0.116,0.599-0.116,0.61c0.021,0,0.259-0.532,0.29-0.587
					c0.053-0.068,0.106-0.139,0.162-0.211c0.263-0.342,0.531-0.676,0.804-0.998c1.332-1.994,2.702-3.971,3.996-5.996
					c0.934-1.463,1.79-2.961,2.479-4.557C325.249,266.889,326.44,264.505,325.92,264.184z M325.577,265.729
					c-1.692,4.77-5.147,8.526-7.786,12.764c-0.046,0.07-0.083,0.135-0.129,0.207c0.039-0.125,0.07-0.254,0.109-0.375
					c0.721-2.406,1.642-4.736,2.801-6.963c0.699-1.353,1.489-2.666,2.354-3.926c0.456-0.664,0.921-1.441,1.467-2.041
					c0.244-0.271,0.946-0.984,1.186-0.861C325.92,264.699,325.688,265.414,325.577,265.729z"/>
			</g>
			<g>
				<path fill="#455B65" d="M339.683,225.96c-3.534,8.129-12.819,11.914-16.843,19.746c-0.008,0.021-0.015,0.028-0.021,0.043
					c-0.123,0.237-0.238,0.479-0.354,0.729c-0.055,0.119-0.203,0.112-0.267,0.041c-0.029-0.033-0.039-0.078-0.018-0.136
					c0.023-0.059,0.055-0.118,0.083-0.176c0.629-4.89,2.636-9.918,4.969-14.228c2.033-3.748,4.816-7.252,8.673-9.227
					c0.949-0.486,2.803-1.52,3.867-0.709C340.902,222.898,340.12,224.96,339.683,225.96z"/>
				<path fill="#FFFFFF" d="M336.499,226.311c-0.45-0.334-1.132,0.071-1.518,0.271c-0.968,0.488-1.867,1.135-2.687,1.836
					c-1.7,1.439-3.083,3.217-4.281,5.09c-2.007,3.152-3.858,6.615-5.044,10.227c-0.271,0.816-0.508,1.642-0.702,2.479
					c-0.023,0.104-0.044,0.205-0.068,0.31c0.063,0.069,0.213,0.076,0.271-0.039c0.104-0.242,0.221-0.471,0.335-0.707
					c0.006-0.021,0.021-0.038,0.031-0.064c0.703-1.615,1.513-3.168,2.523-4.633c1.551-2.26,3.475-4.248,5.297-6.281
					C331.376,233.996,338.057,227.451,336.499,226.311z M335.933,228.191c-1.072,1.91-2.74,3.467-4.194,5.088
					c-1.466,1.643-2.953,3.264-4.396,4.924c-1.14,1.313-2.188,2.729-3.096,4.229c-0.761,1.243-1.416,2.555-1.938,3.914
					c0.368-1.386,0.847-2.742,1.386-4.068c0.007-0.021,0.014-0.031,0.025-0.043c0.973-2.361,2.184-4.642,3.432-6.836
					c0.013-0.023,0.029-0.06,0.045-0.084c1.111-1.941,2.359-3.836,3.913-5.463c0.842-0.884,1.763-1.701,2.784-2.369
					c1.165-0.752,2.183-1.24,2.473-0.867C336.557,226.871,336.254,227.63,335.933,228.191z"/>
			</g>
		</g>
		<path fill="#455B65" d="M327.328,235.488c-1.063,2.289-2.079,4.613-3.082,6.943c-0.479,1.094-0.946,2.188-1.41,3.274
			c-0.012,0.026-0.025,0.047-0.031,0.063c-0.168,0.394-0.341,0.791-0.509,1.185c-1.531,3.563-3.219,7.215-4.151,10.991
			c-0.487,1.978-0.73,4.035-0.85,6.105c-0.005,0.215-0.019,0.428-0.031,0.641v0.004c0,0.115-0.007,0.234-0.007,0.349
			c-0.007,0.065-0.007,0.131-0.007,0.192c-0.064,1.781-0.037,3.574-0.006,5.31c0.046,2.429,0.251,4.834,0.48,7.233
			c0,0.07,0.008,0.144,0.021,0.214c0.007,0.108,0.019,0.219,0.026,0.327c0.006,0.06,0.013,0.109,0.02,0.168
			c0.007,0.103,0.02,0.207,0.026,0.31c0.074,0.771,0.146,1.545,0.212,2.322h-0.739c-0.49-2.328-0.761-4.754-0.896-7.154
			c-0.007-0.053-0.007-0.098-0.007-0.149c-0.02-0.23-0.03-0.469-0.039-0.699c-0.018-0.289-0.029-0.572-0.038-0.861
			c-0.022-0.695-0.044-1.385-0.058-2.066c-0.071-3.965-0.025-8.096,0.85-11.981c0.025-0.108,0.053-0.213,0.076-0.321
			c0.007-0.046,0.021-0.091,0.034-0.136c0.013-0.078,0.031-0.153,0.051-0.231l0.098-0.367c0.059-0.219,0.122-0.437,0.187-0.648
			c0.021-0.063,0.039-0.127,0.061-0.191c1.017-3.393,2.625-6.682,4.086-9.865c0.271-0.586,0.541-1.165,0.815-1.743
			c0.154-0.322,0.312-0.646,0.464-0.966c0.237-0.481,0.482-0.973,0.722-1.455c0.007-0.021,0.014-0.032,0.025-0.044
			c1.132-2.285,2.312-4.544,3.432-6.837C327.199,235.294,327.38,235.378,327.328,235.488z"/>
	</g>
</g>
<g>
	<path fill="#273238" d="M56.644,281.123c0,0,18.674-0.107,46.685-0.27c28.011-0.063,65.359-0.146,102.707-0.23
		c37.348,0.084,74.695,0.168,102.707,0.229c28.011,0.162,46.685,0.271,46.685,0.271s-18.674,0.105-46.685,0.27
		c-28.012,0.063-65.358,0.146-102.707,0.229c-37.348-0.084-74.696-0.168-102.707-0.229
		C75.317,281.229,56.644,281.123,56.644,281.123z"/>
</g>
<g>
	<g>
		<polygon fill="none" stroke="#FFFFFF" stroke-miterlimit="10" points="112.894,9.775 112.894,71.929 104.17,71.929 104.17,87.005 
			89.093,71.929 25.188,71.929 25.188,9.775 		"/>
		<path fill="#263238" d="M112.894,9.775l0.168,31.077l0.111,31.077l0.001,0.279h-0.281l-8.724,0.017l0.296-0.296l0.028,15.076
			l0.002,0.783l-0.556-0.553L88.835,72.187l0.257,0.106l-63.904,0.131l-0.497,0.001l0.001-0.496l0.137-62.154l0.001-0.358h0.357
			L69.04,9.514L112.894,9.775z M112.894,9.775l-43.853,0.261l-43.853,0.097l0.358-0.358l0.137,62.154l-0.495-0.495l63.904,0.131
			h0.151l0.106,0.106l15.049,15.104l-0.554,0.229l0.028-15.076v-0.297h0.296l8.724,0.017l-0.28,0.28l0.111-31.077L112.894,9.775z"/>
	</g>
	<g id="xsrjP0_1_">
		<g>
			<path fill="#B9CEEB" d="M74.252,57.64c0.921-0.574,1.723-1.41,2.954-1.289c0.471,0.048,0.369-0.342,0.374-0.6
				c0.021-4.631,0.035-9.258,0.054-13.886c0.002-0.336-0.018-0.613-0.384-0.799c-3.529-1.795-5.051-5.308-7.206-8.312
				c-2.306-3.207-3.089-6.677-2.529-10.511c0.151-1.04-0.333-1.509-1.271-1.725c-1.129-0.262-2.255,0.047-2.645,0.822
				c-0.958,1.922-1.783,3.92-2.038,6.059c-0.211,1.755,0.413,3.466,0.626,5.204c0.158,1.271,0.449,2.529,0.687,3.816
				c-0.312,0.225-0.67,0.107-1.005,0.111c-3.91-0.007-7.818-0.022-11.73-0.035c-1.648-0.005-2.456,0.465-2.688,1.558
				c-0.286,1.361,0.429,2.749,1.691,3.396c0.292,0.148,0.821,0.017,0.855,0.475c0.032,0.467-0.512,0.417-0.782,0.604
				c-1.418,0.966-1.162,2.969,0.472,4.133c0.393,0.277,1.157,0.153,1.175,0.73c0.008,0.461-0.707,0.453-1.031,0.776
				c-1.146,1.125-0.587,3.236,1.119,4.093c0.218,0.109,0.489,0.13,0.686,0.267c0.193,0.131,0.384,0.278,0.006,0.543
				c-1.697,1.204-1.666,2.889,0.034,4.123c0.166,0.121,0.337,0.245,0.509,0.367c0.618,0.457,1.35,0.453,2.058,0.458
				c6.133,0.033,12.265,0.049,18.396,0.066C73.211,58.085,73.792,58.07,74.252,57.64z"/>
			<path fill="#B9CEEB" d="M91.714,49.535c0.011-2.94,0.008-5.884,0.04-8.822c0.007-0.599-0.054-0.893-0.787-0.887
				c-3.589,0.032-7.173,0.019-10.76-0.033c-0.702-0.009-0.813,0.232-0.811,0.858c0,5.918-0.015,11.835-0.063,17.754
				c-0.007,0.753,0.197,0.967,0.954,0.957c3.479-0.028,6.959-0.025,10.435,0.042c0.866,0.017,0.986-0.286,0.979-1.044
				C91.667,55.418,91.705,52.478,91.714,49.535z"/>
		</g>
	</g>
</g>
<g>
	<g>
		<path fill="#263238" d="M252.59,107.988c2.584,21.136,9.216,46.069,1.856,66.855c-5.787,16.281-19.66,28.027-34.339,36.025
			c-32.294,17.565-78.975,23.184-104.99-8.479c-10.385-12.652-14.137-40.41,0.593-51.832c7.57-5.85,16.955-7.805,25.768-10.971
			c11.631-4.144,19.686-11.549,24.322-23.147c9.064-22.592,5.692-38.351,5.928-62.039c0.06-4.395,0.741-8.776,4.729-12.792
			c3.315-4.047,8.024-7.007,13.232-8.835c4.377-2.183,9.043-3.625,13.98-3.475c10.411,0.278,21.06,9.109,29.51,14.467
			c8.549,5.433,12.754,11.471,14.168,21.658C249.3,79.58,250.843,93.799,252.59,107.988z"/>
		<path fill="#263238" d="M255.96,117.782c-3.604-19.221-7.579-38.338-11.434-57.502c-0.022-0.115-0.203-0.101-0.186,0.019
			c2.719,15.861,5.219,31.74,8.141,47.571c2.865,15.513,6.867,31.265,8.375,46.979c3.384,35.271-31.497,52.479-61.394,53.086
			c-1.359,0.026-1.164,2.211,0.214,2.141c26.229-1.369,56.772-12.848,62.458-42.18C265.249,151.854,258.907,133.495,255.96,117.782z
			"/>
		<path fill="#263238" d="M173.276,52.412c-0.039-0.377-0.589-0.315-0.577,0.059c0.621,19.495,3.157,42.166-6.499,59.944
			c-4.725,8.7-12.07,15.901-20.867,20.352c-6.993,3.537-14.637,4.398-22.08,6.49c-29.099,8.18-26.277,48.474-3.594,62.495
			c0.476,0.293,0.997-0.521,0.53-0.842c-16.051-10.967-22.74-32.67-11.667-49.857c8.887-13.796,28.2-11.158,41.147-19.244
			C176.497,115.05,176.044,80.574,173.276,52.412z"/>
	</g>
	<g>
		<g>
			<path fill="#B9CEEB" d="M110.723,240.914c4.757,21.836,33.438,25.561,37.645,20.688c17.015-19.721,34.482-57.469,53.374-99.569
				c14.768-32.915,4.501-33.575-9.028-24.447C161.249,158.809,108.167,229.182,110.723,240.914z"/>
			<path opacity="0.4" fill="#FFFFFF" enable-background="new    " d="M199.776,133.654c1.066,0.676,2.146,1.323,3.249,1.94
				c1.878,1.054,3.882,2.021,5.955,2.805c0-0.312-0.014-0.603-0.036-0.886c-2.845-1.105-5.574-2.588-8.195-4.224
				C200.433,133.392,200.108,133.517,199.776,133.654z M166.039,161.271c4.357,1.396,8.915,2.149,13.561,2.369
				c7.518,0.356,14.9-0.5,22.236-1.816c-0.027,0.066-0.064,0.139-0.093,0.203c-0.101,0.231-0.209,0.459-0.309,0.69
				c-10.097,1.804-20.242,2.72-30.462,0.74c-1.866-0.363-3.744-0.856-5.603-1.479C165.592,161.736,165.815,161.505,166.039,161.271z
				 M131.213,214.6c-0.9-3.041-1.391-6.148-1.599-9.289c0.244-0.343,0.49-0.687,0.742-1.025c0.23,4.842,1.093,9.615,3.089,14.021
				c1.842,4.055,4.854,8.539,9.231,10.049c4.301,1.483,8.175-1.045,10.342-4.715c5.257-8.857,0.778-19.683,0.951-29.226
				c0.121-6.897,2.656-14.974,9.67-17.582c6.496-2.412,13.884,1.147,17.932,6.367c3.075,3.969,4.206,8.854,4.177,13.803
				c-0.31,0.654-0.619,1.302-0.922,1.947c0.404-6.812-1.216-13.629-6.747-18.164c-3.032-2.492-6.971-4.121-10.933-3.859
				c-4.457,0.294-8.065,3.199-10.059,7.132c-4.652,9.188-0.785,19.53-0.755,29.194c0.021,6.287-2.579,15.205-9.839,16.289
				C138.464,230.732,133.128,221.074,131.213,214.6z M118.323,222.324c1.504,1.809,3.074,3.584,4.694,5.299
				c6.46,6.838,13.668,13.443,17.638,22.182c1.87,4.129,3.088,8.939,2.907,13.592c-0.287,0.027-0.583,0.051-0.891,0.072
				c0.151-2.422-0.079-4.904-0.67-7.334c-2.384-9.854-9.369-17.334-16.174-24.396c-2.735-2.844-5.394-5.729-7.922-8.717
				C118.042,222.789,118.179,222.557,118.323,222.324z"/>
			<path opacity="0.1" fill="#010101" enable-background="new    " d="M110.724,240.917c4.755,21.83,33.436,25.556,37.643,20.683
				c17.014-19.718,34.479-57.472,53.375-99.568c7.15-15.946,8.695-25.826,5.563-28.618l-96.328,103.122
				C110.563,238.289,110.475,239.759,110.724,240.917z"/>
		</g>
		<g>
			<g>
				<path fill="#F7A9A0" d="M141.945,256.552c8.773-11.499,5.745-35.364-0.573-92.555c-0.873-7.912-59.913-11.396-59.41-2.896
					c0.633,10.705,9.142,53.306,11.59,59.627C105.533,251.675,135.993,264.354,141.945,256.552z"/>
				<g>
					<path fill="#F7A9A0" d="M79.804,138.882c-1.347,11.509,5.023,36.13,8.823,41.474c3.801,5.342,45.635-4.193,48.462-10.312
						c2.825-6.117,4.383-45.217-1.819-55.25C129.069,104.763,81.198,126.959,79.804,138.882z"/>
					<g>
						<path fill="#F7A9A0" d="M141.737,132.16c-5.604,2.392-7.255-2.372-7.255-2.372s2.584,11.621-3.182,15.112
							c-5.566,3.351-9.514-5.52-9.804-6.151c0.13,0.617,2.23,11.356-3.923,14.265c-6.396,3.014-8.843-6.576-8.999-7.198
							c-0.057,0.622-0.944,8.818-6.116,9.954c-8.889,1.946-7.188-19.076-12.185-24.534c0,0-10.132,7.491-10.471,7.646
							c0,0,1.212-20.034,8.884-26.426c4.043-3.369,7.953-0.23,7.953-0.23s-0.314-6.504,4.456-8.946
							c2.454-1.248,6.612,1.603,6.612,1.603s-0.037-5.217,4.342-7.123c3.491-1.533,7.12,1.565,7.12,1.565s-5.484-26.03,1.114-28.276
							c11.364-3.867,20,52.486,24.741,54.86C147.376,127.089,144.178,131.118,141.737,132.16z"/>
						<g>
							<path fill="#263238" d="M119.819,99.726c-0.06-0.091,0.051-0.194,0.129-0.111c7.549,8.138,13.373,19.415,14.766,30.542
								c0.044,0.365-0.712,1.898-0.789,1.492C132.013,121.514,126.37,109.529,119.819,99.726z"/>
							<path fill="#263238" d="M107.688,104.708c-0.073-0.106,0.101-0.227,0.193-0.125c7.734,8.429,13.947,21.313,14.055,34.33
								c0.004,0.447-0.437,0.851-0.479,0.338C120.735,130.599,113.63,113.502,107.688,104.708z"/>
							<path fill="#263238" d="M108.274,146.728c-0.582-12.477-5.068-23.511-11.29-34.174c-0.082-0.139,0.122-0.24,0.22-0.143
								c4.452,4.379,7.716,11.594,9.785,17.424c1.982,5.586,2.659,11.026,1.716,16.872
								C108.668,146.934,108.286,146.994,108.274,146.728z"/>
						</g>
						<path fill="#263238" d="M134.665,129.888c0.053,0.438-1.102-0.266-1.065,0.174c0.405,4.78,0.718,13.373-3.062,14.588
							c-3.03,0.967-6.421-2.473-7.208-4.31l-1.982-4.619l0.271,5.035c0.118,2.198-0.063,4.535-0.657,6.639
							c-0.588,2.103-1.727,4.039-3.504,4.875c-1.841,0.912-3.843,0.646-5.175-0.892c-1.375-1.461-2.257-3.669-2.736-5.749
							l-1.338-5.809l-0.616,5.906c-0.166,1.6-0.543,3.29-1.121,4.808c-0.584,1.514-1.424,2.944-2.622,3.764
							c-1.168,0.812-2.791,0.979-3.95,0.269c-1.229-0.729-2.116-2.229-2.816-3.729c-1.396-3.083-2.152-6.508-3.071-9.864
							c-0.446-1.687-0.894-3.38-1.421-5.054c-0.552-1.646-1.117-3.39-2.316-4.684c1.054,1.403,1.414,3.151,1.856,4.814
							c0.395,1.69,0.71,3.402,1.029,5.119c0.637,3.432,1.315,6.88,2.616,10.242c0.701,1.641,1.518,3.396,3.237,4.582
							c1.785,1.213,4.178,0.969,5.842-0.166c1.703-1.152,2.681-2.893,3.377-4.584c0.679-1.734,1.103-3.471,1.327-5.335l-1.953,0.096
							c0.547,2.461,1.384,4.808,3.167,6.826c0.88,0.987,2.171,1.784,3.592,1.976c1.426,0.198,2.773-0.123,3.976-0.722
							c2.495-1.252,3.822-3.813,4.439-6.17c0.632-2.426,0.779-4.836,0.611-7.314l-1.713,0.416c1.082,2.301,4.455,6.564,9.343,5.661
							C137.218,144.535,135.194,132.13,134.665,129.888z"/>
					</g>
					<g>
						<path fill="#F7A9A0" d="M137.089,170.046c0,0,19.426-25.351,18.659-36.162c-0.766-10.81-21.787-22.139-30.101-25.036
							c-11.478-3.997-13.161,4.712-9.354,10.111c4.411,6.252,13.82,13.021,14.467,13.501c0,0-16.758,8.176-18.157,21.787
							C111.203,167.855,137.089,170.046,137.089,170.046z"/>
						<g>
							<path fill="#263238" d="M141.029,116.702c-1.047-0.596-2.12-1.144-3.179-1.712c-1.064-0.559-2.132-1.108-3.213-1.629
								c-2.162-1.042-4.349-2.022-6.566-2.889c-1.107-0.438-2.233-0.813-3.358-1.168c-1.131-0.352-2.228-0.588-3.355-0.651
								c-1.116-0.055-2.228,0.06-3.204,0.432c-0.977,0.365-1.795,1.007-2.263,1.867c-0.491,0.848-0.623,1.891-0.508,2.935
								c0.136,1.046,0.463,2.105,0.972,3.102c0.497,0.998,1.139,1.958,1.84,2.845l1.135,1.397l1.152,1.319
								c1.57,1.761,3.267,3.412,5.063,4.946c0.897,0.769,1.823,1.502,2.764,2.213c0.937,0.702,1.924,1.397,2.887,1.979l1.59,0.961
								l-1.713,0.646c-0.468,0.177-0.992,0.411-1.482,0.646c-0.496,0.24-0.989,0.49-1.473,0.759
								c-0.977,0.524-1.927,1.103-2.848,1.727c-0.921,0.623-1.813,1.292-2.666,2.008c-0.856,0.712-1.684,1.461-2.472,2.253
								c-0.785,0.794-1.515,1.642-2.225,2.508c-0.7,0.875-1.358,1.785-1.962,2.735c-1.202,1.904-2.174,3.958-2.967,6.092
								c0.282-1.103,0.57-2.213,0.991-3.277c0.394-1.077,0.88-2.119,1.401-3.145c0.533-1.021,1.127-2.011,1.77-2.973
								c0.655-0.952,1.371-1.864,2.129-2.741c1.525-1.746,3.241-3.33,5.113-4.711c0.933-0.694,1.9-1.344,2.903-1.941
								c0.501-0.298,1.016-0.576,1.536-0.846c0.529-0.27,1.037-0.517,1.626-0.758l-0.123,1.607
								c-1.114-0.633-2.112-1.303-3.121-2.015c-1.003-0.707-1.97-1.461-2.906-2.251c-1.877-1.574-3.653-3.27-5.301-5.087
								c-0.828-0.93-1.612-1.881-2.341-2.821c-0.781-1.006-1.477-2.062-2.044-3.223c-0.567-1.153-0.982-2.422-1.119-3.767
								c-0.116-1.339,0.086-2.799,0.838-4.033c0.724-1.248,1.954-2.131,3.237-2.567c1.291-0.46,2.635-0.506,3.911-0.395
								c1.274,0.123,2.534,0.458,3.68,0.872c1.156,0.412,2.286,0.877,3.388,1.393c2.215,1.007,4.349,2.157,6.42,3.405
								C137.041,113.988,139.082,115.278,141.029,116.702z"/>
						</g>
					</g>
				</g>
			</g>
			<g>
				<path fill="#B9CEEB" d="M80.046,201.119l64.561-14.576c0,0,14.56,62.656,5.331,73.605c-4.125,4.895-17.411,16.973-28.704,14.748
					C95.262,269.785,80.046,201.119,80.046,201.119z"/>
				<path opacity="0.4" fill="#FFFFFF" enable-background="new    " d="M146.493,229.542c2.14-0.321,3.875-1.317,5.251-2.733
					c-0.05-0.406-0.101-0.808-0.143-1.213c-2.241,2.534-5.445,3.961-8.924,2.76c-4.377-1.51-7.389-5.996-9.231-10.051
					c-3.768-8.33-3.506-17.98-2.58-26.892c0.067-0.604,0.131-1.207,0.203-1.812l-0.836,0.183c-0.907,8.25-1.397,16.772,0.979,24.813
					C133.128,221.074,138.464,230.732,146.493,229.542z M101.184,196.348l0.834-0.188c5.142,11.577,12.272,22.219,20.999,31.463
					c6.46,6.84,13.668,13.444,17.638,22.183c2.303,5.088,3.614,11.207,2.555,16.797c-0.388,0.319-0.784,0.633-1.187,0.944
					c0.949-3.612,0.907-7.596-0.023-11.412c-2.384-9.854-9.369-17.334-16.174-24.396c-6.466-6.709-12.457-13.656-17.391-21.615
					C105.699,205.71,103.278,201.102,101.184,196.348z M98,243.357c3.283,0.262,6.084,2.354,8.158,4.813
					c5.148,6.119,5.502,14.025,8.118,21.279c0.417,1.156,0.907,2.303,1.497,3.395c-0.433-0.238-0.857-0.494-1.282-0.771
					c-1.413-3.058-2.284-6.488-3.039-9.585c-0.973-4.014-1.966-7.909-4.199-11.434c-2.139-3.365-5.465-6.762-9.678-6.897
					c-1.087-0.035-2.104,0.139-3.032,0.487c-0.115-0.246-0.23-0.494-0.338-0.75C95.401,243.445,96.684,243.248,98,243.357z"/>
				<g>
					<g>
						<path fill="#263238" d="M145.356,203.671c-7.322,1.427-14.703,2.453-22.085,3.459c-7.389,1.009-14.776,2.031-22.185,2.854
							c-4.186,0.465-8.373,0.953-12.571,1.271c-0.109,0.011-0.146-0.176-0.034-0.196c7.309-1.425,14.695-2.482,22.06-3.539
							c7.384-1.058,14.782-2.037,22.182-2.945c4.182-0.516,8.372-0.953,12.569-1.271C145.499,203.285,145.57,203.63,145.356,203.671
							z"/>
					</g>
					<path fill="#263238" d="M143.903,186.287c0.658-0.271,1.58-0.576,1.616-0.422c0.979,4.072,1.617,8.512,2.25,12.652
						c0.623,4.086,1.152,8.19,1.625,12.299c0.253,2.213,0.465,4.428,0.607,6.643c1.164,2.754,1.88,5.635,1.966,8.658
						c0.005,0.148-0.25,0.168-0.263,0.016c-0.205-2.637-0.747-5.283-1.653-7.777c0.299,5.416,0.116,10.82-1.194,16.156
						c-0.009,0.033-0.058,0.016-0.05-0.018c1.73-7.916,0.136-16.338-0.792-24.256c-0.465-3.969-1.014-7.926-1.589-11.881
						c-0.574-3.939-1.296-7.865-1.819-11.814c0,0-0.689,0.166-0.834,0.188C143.638,186.75,143.777,186.339,143.903,186.287z"/>
				</g>
			</g>
		</g>
	</g>
	<g>
		<g>
			<g>
				<path fill="#B9CEEB" d="M161.168,281.109l5.346-56.748c0,0-9.517-20.127,0.679-37.584c5.153-8.844,18.318-41.212,33.966-52.875
					c18.412-13.721,36.083-1.092,42.958,8.313c13.765,18.829,34.194,58.741,45.464,138.917L161.168,281.109z"/>
				<path opacity="0.4" fill="#FFFFFF" enable-background="new    " d="M200.714,134.235c0.762,0.473,1.532,0.923,2.311,1.359
					c6.459,3.613,14.345,6.236,21.705,3.983c4.71-1.439,7.128-4.149,7.994-7.53c-0.229-0.139-0.477-0.276-0.714-0.407
					c-0.252,1.083-0.696,2.122-1.39,3.089c-2.665,3.699-7.627,4.87-11.918,4.819c-6.258-0.073-11.982-2.625-17.276-5.844
					c-0.086,0.066-0.181,0.131-0.266,0.195C201.008,134.011,200.865,134.126,200.714,134.235z M199.353,231.787
					c5.371-3.424,12.681-2.938,18.14,0.008c6.791,3.664,10.37,11.352,11.645,18.715c1.757,10.139-0.576,20.414-1.959,30.613h-0.741
					c1.324-9.775,3.508-19.631,2.081-29.342c-1.203-8.229-5.2-16.891-13.287-20.146c-6.733-2.705-15.799-1.65-19.58,5.283
					c-4.875,8.961,1.648,19.73,5.205,27.922c2.176,5.029,3.817,10.701,3.739,16.275h-0.843c0.021-1.031-0.022-2.072-0.116-3.105
					c-0.848-9.557-6.386-17.473-9.159-26.439C192.309,244.564,192.574,236.104,199.353,231.787z M266.312,233.975
					c5.068-0.793,10.426,0.102,15.193,2.166c0.071,0.327,0.145,0.653,0.223,0.987c-5.313-2.428-11.471-3.399-17.064-1.978
					c-3.607,0.916-6.855,2.974-8.932,6.134c-2.592,3.961-2.932,8.789-1.959,13.332c2.067,9.649,8.793,18.082,15.209,25.233
					c0.392,0.437,0.785,0.855,1.188,1.277h-1.131c-3.185-3.48-6.144-7.166-8.851-11.039c-4.608-6.578-8.959-15.039-7.477-23.359
					C253.96,239.751,259.524,235.035,266.312,233.975z M220.358,177.074c8.058,1.242,15.446,5.027,22.764,8.467
					c7.381,3.467,15.26,7.041,23.591,6.76c0.765-0.029,1.542-0.088,2.319-0.182l0.279,0.783c-7.588,0.988-15.006-1.482-21.893-4.5
					c-7.855-3.437-15.434-7.775-23.808-9.834c-8.145-2.006-19.27-1.654-23.305,7.227c-3.766,8.293,0.483,17.961,6.72,23.672
					c6.272,5.75,14.813,8.592,23.152,9.201c15.397,1.143,29.785-4.92,44.311-9.695c0.07,0.248,0.144,0.486,0.216,0.734
					c-17.464,5.646-35.963,13.576-54.45,7.965c-7.092-2.148-13.74-6.242-18.01-12.457c-4.104-5.967-5.84-14.586-1.973-21.121
					C204.364,177.184,213.12,175.96,220.358,177.074z M179.036,163.604c0.188,0.016,0.375,0.028,0.563,0.037
					c21.495,1.02,41.896-7.908,63.22-8.939c3.125-0.152,6.293-0.139,9.447,0.117c0.157,0.281,0.322,0.574,0.488,0.865
					c-6.834-0.604-13.775-0.08-20.538,0.922c-17.729,2.639-35.575,8.99-53.627,7.819
					C178.734,164.158,178.885,163.88,179.036,163.604z M164.814,242.398c7.265-10.988,14.799-21.842,18.473-34.689
					c2.613-9.146,2.751-20.396-5.208-26.922c-1.786-1.469-3.889-2.639-6.129-3.301c0.122-0.246,0.246-0.492,0.376-0.748
					c3.634,1.111,6.969,3.525,9.244,6.463c5.387,6.947,4.797,16.709,2.507,24.725c-3.839,13.432-11.853,24.748-19.431,36.275
					L164.814,242.398z"/>
				<g>
					<g>
						<path fill="#263238" d="M217.467,219.164c-6.245-0.076-12.536,0.061-18.732,0.916c-3.083,0.426-6.125,0.994-9.171,1.627
							c-1.52,0.316-3.04,0.58-4.568,0.838c-1.57,0.264-3.246,0.482-4.838,0.352c-0.143-0.014-0.165,0.203-0.021,0.226
							c1.536,0.221,3.011,0.428,4.571,0.44c1.48,0.015,2.973-0.131,4.442-0.321c3.131-0.402,6.242-0.951,9.368-1.386
							c6.307-0.877,12.612-1.75,18.969-2.168C217.778,219.666,217.764,219.167,217.467,219.164z"/>
						<path fill="#263238" d="M232.138,226.462c-5.016-1.108-10.161-1.994-15.271-2.522c-2.571-0.267-5.137-0.381-7.721-0.428
							c-1.234-0.021-2.467-0.021-3.701-0.007c-1.358,0.017-2.715,0.218-4.07,0.213c-0.142,0-0.167,0.22-0.022,0.226
							c1.28,0.041,2.557,0.299,3.833,0.414c1.278,0.117,2.562,0.225,3.843,0.342c2.565,0.232,5.126,0.494,7.693,0.705
							c5.141,0.418,10.253,0.887,15.375,1.482C232.373,226.919,232.397,226.52,232.138,226.462z"/>
					</g>
				</g>
			</g>
			<g>
				<path fill="#F7A9A0" d="M246.632,142.886c36.715,36.745,83.247,114.376,74.905,130.313
					c-9.292,17.75-60.425-33.764-60.263-36.809c0.121-2.3-18.185-49.564-32.053-83.938
					C215.365,118.114,237.554,133.8,246.632,142.886z"/>
				<g>
					<g>
						<path fill="#B9CEEB" d="M260.937,236.453c-1.601-5.061-26.483-67.379-33.622-87.094c-6.404-17.695-3.218-25.024,11.534-14.174
							c27.158,19.977,81.177,81.521,91.409,113.551c9.86,30.856-15.545,33.672-36.542,19.631
							C276.526,256.873,260.937,236.453,260.937,236.453z"/>
						<path opacity="0.4" fill="#FFFFFF" enable-background="new    " d="M266.312,233.975c-1.996,0.313-3.883,0.938-5.588,1.846
							c0.092,0.264,0.164,0.475,0.215,0.635c0,0,0.021,0.027,0.071,0.094c1.146-0.609,2.378-1.074,3.651-1.396
							c7.244-1.846,15.426,0.338,21.51,4.479c7.764,5.281,13.46,13.022,20.294,19.359c5.624,5.213,11.947,9.137,19.66,10.024
							c1.512,0.172,3.06,0.226,4.601,0.121c0.146-0.275,0.281-0.566,0.396-0.863c-1.513,0.14-3.046,0.123-4.559-0.028
							c-8.478-0.859-15.188-5.562-21.157-11.396c-6.323-6.179-11.89-13.445-19.372-18.295
							C280.323,234.859,273.065,232.921,266.312,233.975z M289.715,204.83c4.579-0.887,9.281-1.396,13.948-1.287
							c0.202,0.275,0.411,0.555,0.619,0.828c-9.83-0.363-19.565,2.131-28.877,5.109c-7.209,2.313-14.598,5.045-22.088,7.088
							c-0.086-0.213-0.164-0.424-0.252-0.642C265.353,212.585,277.343,207.221,289.715,204.83z M266.713,192.3
							c4.522-0.159,9.427-1.389,12.696-4.731c2.449-2.514,3.535-6.004,3.527-9.478c0.261,0.306,0.525,0.604,0.793,0.908
							c-0.158,3.205-1.246,6.373-3.406,8.795c-2.692,3-6.676,4.478-10.557,5.051c-7.75,1.148-15.324-1.366-22.348-4.44
							c-2.096-0.916-4.177-1.896-6.258-2.887l-0.434-1.109c0.799,0.387,1.6,0.764,2.393,1.133
							C250.503,189.007,258.382,192.582,266.713,192.3z M242.819,154.701c6.712-0.326,13.632,0.117,20.142,1.971
							c0.418,0.408,0.836,0.828,1.254,1.25c-0.368-0.123-0.741-0.232-1.108-0.342c-10.023-2.914-20.662-2.492-30.888-0.975
							c-0.698,0.104-1.39,0.211-2.088,0.326c-0.101-0.255-0.194-0.509-0.288-0.763C234.142,155.451,238.462,154.912,242.819,154.701
							z M230.62,134.729c0.807-1.119,1.275-2.347,1.498-3.626c0.236,0.102,0.488,0.217,0.74,0.341
							c-0.719,3.656-3.141,6.606-8.129,8.133c-0.058,0.014-0.108,0.036-0.165,0.051c-0.051-0.277-0.094-0.553-0.13-0.815
							C226.875,138.102,229.114,136.823,230.62,134.729z"/>
					</g>
					<g>
						<g>
							<path fill="#263238" d="M264.115,244.507c0,0-0.509-1.063-1.354-2.942c-0.824-1.887-2.06-4.562-3.443-7.81
								c-1.397-3.239-2.989-7.037-4.655-11.121c-0.823-2.045-1.702-4.147-2.545-6.305c-0.853-2.154-1.716-4.343-2.578-6.529
								c-0.843-2.194-1.687-4.391-2.515-6.553c-0.84-2.158-1.609-4.304-2.387-6.367c-1.533-4.135-2.927-8.008-4.084-11.344
								c-1.177-3.328-2.072-6.134-2.738-8.082c-0.646-1.957-0.99-3.084-0.99-3.084s0.509,1.063,1.354,2.942
								c0.826,1.888,2.063,4.562,3.445,7.808c1.398,3.241,2.992,7.039,4.654,11.123c0.824,2.045,1.705,4.146,2.546,6.305
								c0.851,2.152,1.714,4.343,2.575,6.529c0.844,2.194,1.686,4.391,2.515,6.553c0.836,2.16,1.608,4.304,2.385,6.367
								c1.533,4.135,2.927,8.01,4.085,11.344c1.176,3.328,2.073,6.136,2.739,8.082C263.771,243.38,264.115,244.507,264.115,244.507z
								"/>
						</g>
						<g>
							<path fill="#263238" d="M241.868,188.035c0,0-0.485-0.418-1.104-1.117c-0.619-0.701-1.4-1.65-2.068-2.705
								c-0.67-1.053-1.271-2.146-1.659-2.994c-0.397-0.844-0.581-1.441-0.581-1.441s0.48,0.439,1.079,1.158
								c0.606,0.713,1.335,1.697,1.995,2.729c0.313,0.521,0.654,1.037,0.945,1.539c0.297,0.5,0.555,0.977,0.762,1.396
								C241.66,187.43,241.868,188.035,241.868,188.035z"/>
						</g>
					</g>
				</g>
			</g>
			<g>
				<g>
					<path fill="#F7A9A0" d="M320.938,272.832c-9.868,10.395-32.195,9.174-88.702,11.43c-7.819,0.313-24.845-54.787-16.513-55.555
						c10.496-0.965,51.435-2.416,54.442-2.143C295.524,228.889,327.631,265.779,320.938,272.832z"/>
					<g>
						<path fill="#F7A9A0" d="M224.469,230.736c0,0-21.233-6.473-33.432-6.387c-16.335,0.112-30.391,7-36.108,10.243
							c-11.936,6.771-36.154,31.476-30.322,39.757c5.279,7.496,28.773-19.019,28.773-19.019s-28.373,23.043-20.371,30.894
							c8.001,7.844,33.536-24.498,33.536-24.498s-28.624,24.336-19.104,31.108c7.194,5.119,31.957-22.858,31.957-22.858
							s-24.461,21.088-17.287,26.676c7.928,6.174,32.391-18.207,32.391-18.207c20.603,11.104,34.913,7.883,44.822,4.369
							C241.724,281.964,224.469,230.736,224.469,230.736z"/>
						<g>
							<path fill="#263238" d="M162.685,246.729c-3.427,2.586-6.918,5.18-10.109,8.063c-3.19,2.883-6.283,5.883-9.194,9.054
								c-7.136,7.776-10.401,13.771-10.158,13.424c5.713-8.234,16.975-18.736,20.167-21.621c3.184-2.879,6.226-5.918,9.407-8.801
								C162.878,246.775,162.767,246.667,162.685,246.729z"/>
							<path fill="#263238" d="M173.212,258.167c-4.238,3.49-8.571,6.801-12.658,10.483c-4.067,3.662-7.607,7.5-11.412,11.437
								c-0.293,0.304-0.035,0.363,0.271,0.07c3.96-3.781,7.908-6.968,11.907-10.699c3.99-3.724,7.864-7.627,11.983-11.196
								C173.369,258.207,173.276,258.115,173.212,258.167z"/>
							<path fill="#263238" d="M183.996,266.343c-6.747,5.003-12.571,11.255-18.14,17.525c-0.276,0.313,0.064,0.353,0.366,0.049
								c5.921-5.938,10.524-10.644,17.948-17.338C184.287,266.477,184.139,266.24,183.996,266.343z"/>
						</g>
					</g>
				</g>
				<g>
					<path fill="#B9CEEB" d="M225.871,222.119l39.378,73.646c0,0,55.879-11.271,62.827-22.824
						c4.967-8.26-28.88-43.166-56.888-46.655L225.871,222.119z"/>
					<path opacity="0.4" fill="#FFFFFF" enable-background="new    " d="M260.188,270.089c2.766,3.953,5.797,7.718,9.053,11.267
						c3.24,3.53,6.955,6.578,10.168,10.117c0.266,0.297,0.525,0.596,0.764,0.899c0.288-0.072,0.575-0.146,0.864-0.211
						c-0.562-0.728-1.175-1.425-1.83-2.095c-3.354-3.465-6.992-6.612-10.226-10.217c-6.416-7.151-13.144-15.584-15.209-25.233
						c-0.975-4.543-0.635-9.371,1.957-13.332c2.074-3.16,5.321-5.218,8.932-6.134c7.244-1.846,15.426,0.336,21.51,4.479
						c7.764,5.281,13.46,13.021,20.294,19.359c5.624,5.213,11.947,9.137,19.66,10.023c0.727,0.088,1.462,0.137,2.202,0.166
						c-0.059-0.271-0.137-0.546-0.236-0.828c-0.512-0.021-1.021-0.06-1.525-0.107c-8.478-0.859-15.188-5.563-21.157-11.396
						c-6.323-6.178-11.892-13.445-19.372-18.294c-5.711-3.692-12.971-5.632-19.725-4.577c-6.785,1.062-12.352,5.775-13.598,12.754
						C251.229,255.052,255.58,263.512,260.188,270.089z"/>
					<g>
						<path fill="#263238" d="M302.749,242.225c-3.508-4.361-15.434-13.734-31.587-15.99c-0.144-0.021-0.206,0.205-0.063,0.238
							c11.873,2.854,27.764,12.012,31.494,15.92C302.69,242.494,302.836,242.333,302.749,242.225z"/>
						<path fill="#263238" d="M273.992,282.253c-3.239-7.397-6.866-14.612-10.513-21.815c-3.649-7.211-7.285-14.431-11.112-21.549
							c-2.163-4.021-4.304-8.06-6.604-12.005c-0.06-0.104-0.246-0.026-0.195,0.086c3.23,7.388,6.832,14.628,10.428,21.845
							c3.602,7.233,7.279,14.438,11.023,21.6c2.116,4.049,4.306,8.061,6.604,12.006
							C273.737,282.611,274.087,282.471,273.992,282.253z"/>
						<path fill="#263238" d="M225.969,221.41c3.121-0.184,6.224,0.117,9.341,0.359c3.11,0.241,6.221,0.537,9.324,0.86
							c6.176,0.646,19.335,1.302,30.26,4.291c0.121,0.033-0.656,0.457-0.773,0.42c-5.13-1.692-44.425-4.305-47.546-4.914
							c0.066,0.232,0.129,0.47,0.162,0.718c0.022,0.17-0.18,0.326-0.313,0.172c-0.313-0.361-0.501-0.765-0.785-1.146
							C225.4,221.854,225.564,221.434,225.969,221.41z"/>
					</g>
				</g>
			</g>
		</g>
		<path fill="#F7A9A0" d="M240.731,136.604c0,0-19.239,23.022-35.443,23.989c-16.205,0.968-18.057-18.995-18.057-18.995
			s10.264-11.669,24.283-13.741C229.314,125.225,240.731,136.604,240.731,136.604z"/>
		<g>
			<g>
				<g>
					<path fill="#F7A9A0" d="M225.579,134.716c-0.5,2.567-10.833,18.601-22.283,16.502c-8.055-1.475-5.685-17.871-5.685-17.871
						l-5.917-22.787l27.966-19.346C219.66,91.214,225.776,133.625,225.579,134.716z"/>
					<path fill="#263238" d="M221.791,106.112c-5.815,16.167-18.414,23.356-24.508,25.967l-5.593-21.513l27.965-19.351
						C219.655,91.215,220.621,97.944,221.791,106.112z"/>
				</g>
				<g>
					<path fill="#F7A9A0" d="M161.482,75.03c-5.135,38.24,17.02,45.646,25.205,46.749c7.43,1,32.86,3.457,41.889-34.047
						c9.03-37.503-6.993-51.989-23.869-55.183C187.831,29.354,166.617,36.788,161.482,75.03z"/>
					<g>
						<path fill="#263238" d="M170.447,70.755c0.908-0.053,1.736-0.253,2.626-0.399c1.007-0.164,1.827-0.191,2.603-0.922
							c0.418-0.392,0.437-1.237,0.097-1.681c-0.792-1.034-2.072-1.142-3.293-0.993c-1.323,0.161-2.302,0.626-3.226,1.59
							C168.357,69.286,169.249,70.825,170.447,70.755z"/>
						<path fill="#263238" d="M196.764,73.502c-0.895-0.158-1.695-0.455-2.564-0.704c-0.98-0.28-1.79-0.402-2.477-1.219
							c-0.37-0.438-0.291-1.279,0.1-1.68c0.906-0.935,2.19-0.891,3.386-0.602c1.295,0.314,2.214,0.89,3.02,1.956
							C199.01,72.287,197.943,73.711,196.764,73.502z"/>
						<g>
							<g>
								<path fill="#263238" d="M190.631,81.688c0.027-0.099,0.194,0.141,0.182,0.249c-0.297,2.622-0.199,5.677,2.092,6.744
									c0.069,0.033,0.052,0.165-0.035,0.145C190.021,88.181,189.932,84.125,190.631,81.688z"/>
								<path fill="#263238" d="M193.187,79.133c4.224,0.024,3.861,8.535-0.052,8.511C189.281,87.623,189.645,79.113,193.187,79.133
									z"/>
							</g>
							<path fill="#263238" d="M194.826,79.653c0.718,0.513,1.405,1.395,2.29,1.521c1.024,0.146,1.84-0.711,2.55-1.54
								c0.072-0.086,0.142-0.008,0.14,0.104c-0.045,1.632-0.738,3.279-2.485,3.447c-1.593,0.154-2.667-1.338-3.001-2.994
								C194.257,79.884,194.538,79.447,194.826,79.653z"/>
						</g>
						<g>
							<g>
								<path fill="#263238" d="M175.624,80.176c-0.015-0.101-0.208,0.118-0.209,0.226c-0.009,2.639-0.458,5.661-2.858,6.455
									c-0.074,0.025-0.072,0.158,0.016,0.148C175.478,86.697,176.037,82.678,175.624,80.176z"/>
								<path fill="#263238" d="M173.384,77.34c-4.201-0.469-4.826,8.026-0.936,8.461C176.276,86.229,176.903,77.734,173.384,77.34z
									"/>
							</g>
							<path fill="#263238" d="M171.584,77.769c-0.7,0.4-1.418,1.169-2.219,1.163c-0.927-0.007-1.542-0.978-2.065-1.901
								c-0.054-0.097-0.127-0.03-0.139,0.082c-0.163,1.621,0.245,3.352,1.77,3.778c1.391,0.39,2.531-0.927,3.036-2.516
								C172.06,78.081,171.865,77.607,171.584,77.769z"/>
						</g>
						<path fill="#263238" d="M188.395,102.899c-0.626,0.62-1.251,1.472-2.2,1.556c-0.913,0.079-1.981-0.332-2.818-0.656
							c-0.083-0.032-0.167,0.057-0.112,0.136c0.681,1.01,2.113,1.639,3.327,1.422c1.187-0.212,1.769-1.246,2.054-2.34
							C188.687,102.865,188.484,102.809,188.395,102.899z"/>
						<g>
							<path fill="#263238" d="M177.976,92.778c0,0-0.753,3.905-0.854,5.762c-0.009,0.174,0.433,0.281,1.055,0.353
								c0.031,0.011,0.047,0.024,0.073,0.006c3.226,0.689,6.563-0.264,8.686-2.832c0.138-0.174-0.085-0.378-0.259-0.272
								c-2.526,1.665-5.238,1.981-8.124,1.873c-0.103-0.521,1.511-6.646,1.221-6.685c-1.001-0.142-3.025,0.44-4.236,0.728
								c1.336-8.182,3.961-16.082,5.17-24.249c0.038-0.292-0.375-0.402-0.474-0.146c-3.334,8.084-5.076,17.464-6.671,25.879
								C173.353,94.24,177.223,93.054,177.976,92.778z"/>
						</g>
						<g>
							<path fill="#263238" d="M179.394,98.344c0,0,1.358,2.261,3.416,3.222c0.758,0.357,1.592,0.548,2.499,0.393
								c1.86-0.312,2.06-1.991,1.859-3.461c-0.162-1.21-0.612-2.282-0.612-2.282S183.672,98.475,179.394,98.344z"/>
							<path fill="#F49BBC" d="M182.809,101.566c0.758,0.357,1.592,0.548,2.499,0.393c1.86-0.312,2.06-1.991,1.859-3.461
								C185.201,98.518,183.149,99.671,182.809,101.566z"/>
						</g>
					</g>
					<g>
						<g>
							<path fill="#263238" d="M226.176,89.976c-6.924,1.039-9.053-14.977-9.053-14.977s-29.695-4.41-32.73-28.668
								c0,0-6.664,15.196-22.009,22.551c0,0,3.313-30.163,24.139-35.802c0,0,22.87-8.734,39.061,11.456
								C242.181,65.229,230.824,89.279,226.176,89.976z"/>
						</g>
						<path fill="#263238" d="M184.251,44.536c-0.315,3.717,0.303,7.513,1.561,11.07c1.256,3.557,3.195,6.926,5.796,9.695
							c0.594,0.745,1.365,1.311,2.041,1.974l1.047,0.958c0.373,0.289,0.76,0.558,1.148,0.829c0.778,0.53,1.537,1.095,2.332,1.593
							c0.826,0.447,1.664,0.875,2.501,1.291c0.42,0.206,0.83,0.432,1.257,0.621l1.314,0.479l2.623,0.951
							c1.799,0.463,3.617,0.832,5.42,1.17c-1.716-0.711-3.47-1.234-5.146-1.952l-2.476-1.148l-1.231-0.571
							c-0.399-0.217-0.777-0.469-1.165-0.702c-0.769-0.478-1.538-0.945-2.32-1.395c-0.74-0.51-1.437-1.082-2.158-1.617l-1.075-0.81
							l-0.976-0.924c-0.63-0.638-1.356-1.181-1.907-1.893c-2.492-2.592-4.35-5.73-5.833-9.024c-0.735-1.658-1.313-3.39-1.768-5.161
							C184.743,48.201,184.436,46.385,184.251,44.536z"/>
					</g>
					<g>
						<path fill="#37474F" d="M184.08,83.22l1.102-1.17c-1.64-1.731-5.56-4.219-8.664-1.265l1.049,1.229
							C180.344,79.362,183.928,83.062,184.08,83.22z"/>
						<path fill="#37474F" d="M237.235,94.966l1.6-0.36c-0.167-0.752-1.723-7.394-5.107-8.913c-3.167-1.411-24.917-5.047-25.841-5.2
							l-0.267,1.631c6.237,1.036,22.999,3.982,25.442,5.08C235.296,88.207,236.832,93.147,237.235,94.966z"/>
						<path fill="#37474F" d="M197.501,92.627c2.722-0.144,5.196-0.726,6.614-1.802c3.895-2.954,6.292-13.911,6.393-14.375
							l0.229-1.066l-1.082,0.002c-0.826,0-20.315,0.091-24.8,4.434c-2.413,2.335-1.153,8.104,0.463,9.838
							C187.316,91.797,192.781,92.875,197.501,92.627z M208.56,77.15c-0.872,3.542-2.972,10.362-5.491,12.271
							c-3.395,2.573-14.142,1.545-16.481-0.968c-1.122-1.202-2.083-5.863-0.528-7.367C189.164,78.08,202.438,77.254,208.56,77.15z"
							/>
						<path fill="#37474F" d="M170.599,89.108c1.813-0.097,3.726-0.62,4.918-1.894c1.464-1.567,2.915-5.658,1.701-8.96
							c-1.787-4.86-13.636-6.935-14.983-7.155l-1.026-0.168l0.018,1.05c0.008,0.435,0.208,10.698,1.866,13.985
							c0.792,1.566,2.688,2.675,5.202,3.039C168.993,89.107,169.785,89.151,170.599,89.108z M162.994,73.019
							c3.9,0.765,11.486,2.831,12.594,5.845c0.991,2.695-0.344,6.084-1.335,7.146c-1.012,1.082-3.369,1.602-5.711,1.258
							c-1.919-0.278-3.375-1.063-3.898-2.099C163.546,82.996,163.108,76.428,162.994,73.019z"/>
					</g>
					<g>
						<g>
							<path fill="#F7A9A0" d="M220.64,87.194c0,0,8.923-11.631,14.198-8.372c5.276,3.259-1.833,20.396-8.309,22.479
								s-8.502-3.918-8.502-3.918L220.64,87.194z"/>
							<path fill="#263238" d="M232.679,83.684c0.104-0.005,0.116,0.142,0.025,0.173c-4.548,1.608-7.093,5.662-8.944,9.904
								c1.406-1.6,3.256-2.424,5.392-0.729c0.111,0.089-0.009,0.267-0.133,0.235c-1.809-0.481-3.142-0.226-4.446,1.189
								c-0.923,1.002-1.584,2.294-2.268,3.47c-0.228,0.392-0.938,0.142-0.763-0.314c0.013-0.033,0.027-0.068,0.041-0.103
								C221.743,91.774,226.545,83.968,232.679,83.684z"/>
						</g>
					</g>
				</g>
			</g>
		</g>
	</g>
</g>
</svg>
