<?xml version="1.0" encoding="iso-8859-1"?>
<!-- Generator: Adobe Illustrator 16.0.0, SVG Export Plug-In . SVG Version: 6.00 Build 0)  -->
<!DOCTYPE svg PUBLIC "-//W3C//DTD SVG 1.1//EN" "http://www.w3.org/Graphics/SVG/1.1/DTD/svg11.dtd">
<svg version="1.1" id="Layer_1" xmlns="http://www.w3.org/2000/svg" xmlns:xlink="http://www.w3.org/1999/xlink" x="0px" y="0px"
	 width="461.404px" height="297.948px" viewBox="0 0 461.404 297.948" style="enable-background:new 0 0 461.404 297.948;"
	 xml:space="preserve">
<g>
	<circle style="fill:none;stroke:#EDDFEE;stroke-miterlimit:10;" cx="312.431" cy="148.976" r="148.473"/>
	<circle style="fill:none;stroke:#EDDFEE;stroke-miterlimit:10;" cx="312.431" cy="148.976" r="124.328"/>
	<circle style="fill:none;stroke:#EDDFEE;stroke-miterlimit:10;" cx="312.431" cy="148.976" r="100.183"/>
	<circle style="fill:none;stroke:#EDDFEE;stroke-miterlimit:10;" cx="312.431" cy="148.976" r="76.036"/>
	<circle style="fill:none;stroke:#EDDFEE;stroke-miterlimit:10;" cx="312.431" cy="148.976" r="51.892"/>
</g>
<g>
	<polygon style="fill:#EBEBEB;" points="69.041,91.775 69.041,130.036 63.671,130.036 63.671,139.317 54.39,130.036 3.458,130.036 
		3.458,91.775 	"/>
	<g>
		<circle style="fill:#FFFFFF;" cx="20.744" cy="110.905" r="3.107"/>
		<circle style="fill:#FFFFFF;" cx="36.25" cy="110.905" r="3.107"/>
		<circle style="fill:#FFFFFF;" cx="51.757" cy="110.905" r="3.107"/>
	</g>
</g>
<g>
	<polygon style="fill:#EBEBEB;" points="165.259,20.625 167.903,24.565 172.468,25.862 169.538,29.595 169.715,34.336 
		165.259,32.704 160.804,34.336 160.98,29.595 158.05,25.862 162.615,24.565 	"/>
	<polygon style="fill:#EBEBEB;" points="185.647,20.625 188.291,24.565 192.855,25.862 189.925,29.595 190.103,34.336 
		185.647,32.704 181.192,34.336 181.368,29.595 178.438,25.862 183.002,24.565 	"/>
	<polygon style="fill:#EBEBEB;" points="206.034,20.625 208.68,24.565 213.244,25.862 210.313,29.595 210.489,34.336 
		206.034,32.704 201.579,34.336 201.756,29.595 198.827,25.862 203.39,24.565 	"/>
	<polygon style="fill:#EBEBEB;" points="226.423,20.625 229.067,24.565 233.633,25.862 230.702,29.595 230.878,34.336 
		226.423,32.704 221.967,34.336 222.145,29.595 219.214,25.862 223.778,24.565 	"/>
	<polygon style="fill:none;stroke:#EBEBEB;stroke-miterlimit:10;" points="246.81,20.625 249.454,24.565 254.02,25.862 
		251.09,29.595 251.266,34.336 246.81,32.704 242.354,34.336 242.531,29.595 239.601,25.862 244.165,24.565 	"/>
	<polygon style="fill:#EBEBEB;" points="246.81,32.704 246.81,20.625 244.165,24.565 239.601,25.862 242.531,29.595 242.354,34.336 
			"/>
</g>
<g>
	<g>
		<g>
			<path style="fill:#455B65;" d="M91.856,252.525c-4.152,0.147-8.782,0.383-12.219-2.31c-3.174-2.483-6.006-6.188-5.586-10.441
				c0.122-1.212,0.399-1.962,1.699-1.443c1.979,0.789,3.507,2.973,4.878,4.508c1.779,1.988,3.635,3.834,5.759,5.462
				c1.477,1.13,3.068,2.109,4.575,3.207c0.191,0.135,0.379,0.273,0.564,0.419c0.071,0.05,0.145,0.105,0.215,0.162
				c0.038,0.002,0.08,0.002,0.118,0.002c0.08,0.005,0.139,0.04,0.17,0.089c0.015,0.021,0.027,0.046,0.033,0.072
				C92.087,252.372,92.019,252.521,91.856,252.525z"/>
			<path style="fill:#FFFFFF;" d="M92.062,252.252c-3.648-0.063-7.588,0.104-10.508-2.374c-1.349-1.147-2.472-2.61-3.389-4.117
				c-0.422-0.688-1.687-2.734-1.163-3.549c0.949-1.477,5.297,4.534,5.899,5.11c2.262,2.155,5.083,3.429,8.059,4.186
				c0.191,0.135,0.379,0.273,0.564,0.419c-2.123-0.456-4.186-1.207-6.052-2.324c-2.591-1.546-4.032-3.829-6.058-5.962
				c-0.438-0.462-1.758-2.013-2.257-1.048c-0.328,0.637,0.894,2.641,1.157,3.069c0.873,1.428,1.94,2.813,3.205,3.915
				c2.91,2.542,6.831,2.453,10.508,2.603C92.044,252.201,92.056,252.226,92.062,252.252z"/>
		</g>
		<g>
			<path style="fill:#455B65;" d="M94.146,255.058c-0.037,0.16-0.067,0.318-0.1,0.481c0,0.006-0.003,0.008-0.006,0.015
				c-0.008,0.045-0.039,0.073-0.074,0.086c-0.08,0.031-0.187-0.007-0.218-0.085c-0.015-0.027-0.015-0.062-0.002-0.101
				c0.006-0.021,0.012-0.04,0.021-0.063c0.015-0.048,0.029-0.095,0.044-0.142c-0.003-0.004-0.006-0.006-0.008-0.012
				c-0.003-0.015-0.009-0.032-0.012-0.048c-0.736-2.746-1.022-5.604-1.797-8.353c-0.74-2.623-1.66-5.195-2.191-7.873
				c-0.337-1.688-1.511-10.157,2.222-9.104c1.653,0.47,2.787,2.864,3.414,4.296c0.841,1.92,1.265,3.997,1.375,6.086
				C97.086,245.407,95.193,250.106,94.146,255.058z"/>
			<path style="fill:#FFFFFF;" d="M95.341,244.51c0.045-1.929-0.097-3.872-0.598-5.746c-0.167-0.649-0.979-3.765-2.034-3.687
				c-0.683,0.044-0.798,1.389-0.856,1.834c-0.238,1.884,0.374,3.809,0.74,5.643c0.753,3.738,1.171,7.518,1.371,11.313
				c-0.031,0.238-0.07,0.482-0.096,0.721c-0.032,0.2-0.052,0.399-0.078,0.599c-0.006,0.071-0.019,0.136-0.025,0.207
				c-0.006,0.052-0.013,0.103-0.019,0.16c0.032,0.078,0.141,0.116,0.218,0.085c0.02-0.155,0.045-0.31,0.064-0.465
				c0.007,0.129,0.007,0.252,0.013,0.38c0-0.007,0.006-0.007,0.006-0.013c0.026-0.136,0.052-0.264,0.078-0.393
				c0.007-0.033,0.013-0.058,0.02-0.09c0-0.213-0.007-0.424-0.013-0.631C94.607,251.126,95.258,247.845,95.341,244.51z
				 M94.08,253.063c-0.103-2.221-0.321-4.435-0.636-6.635c-0.251-1.776-0.586-3.533-0.959-5.284
				c-0.212-0.99-0.431-1.982-0.476-2.999c-0.032-0.771,0.078-3.629,1.551-1.858c1.062,1.286,1.32,4.021,1.448,5.597
				c0.148,1.752,0.071,3.509-0.103,5.259C94.704,249.125,94.375,251.095,94.08,253.063z"/>
		</g>
		<g>
			<path style="fill:#455B65;" d="M96.381,266.45h-0.001c-0.071,0.015-0.144,0.02-0.153,0.02c-3.796-0.192-8.853,0.164-12.01-2.347
				c-2.333-1.857-4.624-5.522-3.887-8.633c0.838-3.506,5.574,0.703,6.827,1.717c3.191,2.589,9.302,8.925,9.302,9.05
				c0.014,0.024,0.034,0.045,0.048,0.068c0.002,0.004,0.004,0.01,0.007,0.011C96.547,266.397,96.466,266.433,96.381,266.45z"/>
			<path style="fill:#FFFFFF;" d="M96.513,266.34c-0.22-0.136-0.438-0.271-0.657-0.412c-2.497-1.57-4.93-3.251-7.266-5.045
				c-0.592-0.451-4.865-4.254-5.508-2.896c-0.386,0.824,1.023,2.496,1.473,3.063c0.811,1.011,1.79,1.886,2.883,2.573
				c2.529,1.578,5.599,1.919,8.462,2.679c0.136,0.025,0.27,0.064,0.406,0.103c0.025,0.02,0.044,0.032,0.07,0.046h0.006
				C96.467,266.429,96.545,266.397,96.513,266.34z M89.002,264.178c-1.204-0.541-2.317-1.3-3.276-2.214
				c-0.637-0.604-2.883-2.877-2.285-3.81c0.315-0.495,0.579-0.232,1.184,0.064c0.277,0.135,0.547,0.295,0.805,0.464
				c0.638,0.418,1.223,0.906,1.815,1.376c1.042,0.836,2.098,1.642,3.179,2.427c1.763,1.287,3.578,2.497,5.432,3.648
				C93.578,265.432,91.171,265.156,89.002,264.178z"/>
		</g>
		<g>
			<path style="fill:#455B65;" d="M103.316,258.63c-0.967,4.344-3.282,8.312-6.506,11.363c-0.024,0.021-0.048,0.035-0.071,0.041
				c-0.074,0.026-0.151-0.009-0.195-0.072c-0.044-0.059-0.053-0.146,0.019-0.218c0.065-0.063,0.127-0.129,0.192-0.194
				c0.629-5.16,1.323-10.29,1.853-15.467c0.125-1.219,1.08-8.982,3.464-7.717c1.473,0.781,1.572,3.96,1.697,5.39
				C103.974,254.052,103.814,256.384,103.316,258.63z"/>
			<path style="fill:#FFFFFF;" d="M101.938,251.713c-0.129-0.432-0.354-0.877-0.837-0.573c-0.926,0.578-1.294,4.228-1.448,5.238
				c-0.637,4.164-1.622,8.167-2.625,12.241c-0.084,0.34-0.168,0.688-0.251,1.035c-0.077,0.102-0.154,0.206-0.231,0.309
				c0.045,0.065,0.122,0.098,0.193,0.071c0.013-0.032,0.02-0.071,0.032-0.103c0.103-0.135,0.212-0.277,0.309-0.418
				c0-0.008,0-0.008,0-0.008c1.635-2.22,2.903-4.743,3.759-7.323c0.546-1.659,0.914-3.366,1.107-5.104
				C102.125,255.483,102.42,253.275,101.938,251.713z M97.066,269.229c-0.045,0.07-0.096,0.135-0.142,0.206
				c0.045-0.143,0.09-0.276,0.129-0.418c0.958-3.103,1.776-6.269,2.323-9.474c0.277-1.629,0.451-3.269,0.785-4.884
				c0.141-0.684,0.476-2.634,1.042-2.947c0.548-0.316,0.554,0.442,0.612,0.881c0.039,0.314,0.039,0.889,0.045,1.184
				C101.951,259.415,100.213,264.693,97.066,269.229z"/>
		</g>
		<path style="fill:#455B65;" d="M97.439,281.122h-0.76c-0.013-0.668-0.025-1.339-0.044-2.001c-0.09-2.696-0.2-5.394-0.361-8.09
			c-0.09-1.538-0.199-3.063-0.36-4.575c-0.006-0.052-0.013-0.103-0.013-0.154c-0.019-0.122-0.032-0.244-0.044-0.374
			c-0.013-0.129-0.032-0.264-0.052-0.399c-0.412-3.396-1.132-6.718-2.606-9.909c-0.483-1.05-1.01-2.073-1.563-3.09
			c-0.052-0.095-0.11-0.193-0.161-0.289c-0.013-0.026-0.026-0.052-0.045-0.077c-0.051-0.103-0.109-0.2-0.168-0.303
			c-0.044-0.078-0.083-0.147-0.128-0.225c-1.756-3.09-3.765-6.044-5.669-9.018c-0.548-0.851-1.094-1.705-1.629-2.561
			c-0.038-0.052-0.07-0.104-0.096-0.154c-0.045-0.058-0.083-0.123-0.122-0.188c-2.395-3.777-4.75-7.587-7.233-11.293
			c-0.097-0.136,0.128-0.258,0.218-0.123c1.68,2.458,3.417,4.879,5.142,7.311c0.231,0.323,0.457,0.65,0.689,0.972
			c0.457,0.644,0.907,1.281,1.357,1.924c0.901,1.288,1.789,2.574,2.658,3.882c2.445,3.661,5,7.355,6.989,11.307
			c0.148,0.295,0.289,0.592,0.432,0.894c0.09,0.188,0.179,0.374,0.257,0.561c0.104,0.212,0.199,0.431,0.296,0.65
			c1.686,3.867,2.285,7.851,2.555,11.956c0.02,0.284,0.039,0.574,0.052,0.864c0.006,0.128,0.019,0.263,0.025,0.398
			c0,0.07,0.006,0.142,0.013,0.212c0,0.09,0.006,0.18,0.013,0.276c0,0,0,0,0,0.008c0,0.063,0.007,0.134,0.007,0.205
			c0.013,0.244,0.019,0.489,0.032,0.74c0.109,2.697,0.18,5.392,0.238,8.083C97.375,279.397,97.408,280.26,97.439,281.122z"/>
		<g>
			<path style="fill:#455B65;" d="M74.78,232.273c-2.078-2.794-4.742-8.561-1.679-11.559c1.231-1.206,2.944-1.329,4.342-0.32
				c1.618,1.17,2.344,3.383,2.868,5.215c1.404,4.888,2.334,9.871,4.087,14.663c0.031,0.028,0.148,0.409,0.19,0.514
				c0.037,0.1-0.123,0.141-0.159,0.044c-0.058-0.155-0.114-0.312-0.173-0.469C80.946,237.961,77.244,235.589,74.78,232.273z"/>
			<path style="fill:#FFFFFF;" d="M84.427,240.282c-0.02-0.025-0.032-0.058-0.051-0.083c-0.728-1.172-1.365-2.374-1.943-3.617
				c-1.197-2.581-2.111-5.284-2.986-8.005c-0.335-1.05-1.828-6.186-3.662-4.139c-0.772,0.862-0.663,2.388-0.541,3.443
				c0.187,1.698,0.772,3.32,1.596,4.814c1.648,2.966,4.209,5.211,6.899,7.207c0.122,0.097,0.245,0.187,0.367,0.276
				c0.025,0.045,0.051,0.084,0.077,0.129c0.012,0.025,0.032,0.058,0.051,0.084c0.013,0.019,0.026,0.031,0.046,0.038
				c0.063,0.032,0.147-0.007,0.16-0.071C84.446,240.334,84.446,240.309,84.427,240.282z M83.616,239.716
				c-2.169-1.712-4.287-3.577-5.85-5.868c-0.811-1.192-1.48-2.503-1.905-3.887c-0.187-0.611-0.328-1.25-0.412-1.888
				c-0.065-0.469-0.103-0.964-0.084-1.439c0.033-1.057,0.47-2.207,1.094-2.318c0.772-0.141,1.029,0.31,1.539,1.197
				c0.174,0.298,0.321,0.611,0.457,0.927c0.341,0.793,0.605,1.616,0.862,2.433c0.432,1.358,0.869,2.709,1.359,4.049
				c0.328,0.907,0.682,1.809,1.068,2.689c0.663,1.525,1.409,3.004,2.278,4.429C83.887,239.935,83.751,239.826,83.616,239.716z"/>
		</g>
	</g>
	<g>
		<g>
			<g>
				<path style="fill:#455B65;" d="M320.567,240.086c-0.344,2.771-0.873,5.514-1.434,8.246c-0.314,1.55-0.65,3.096-0.964,4.651
					c-0.345,1.71-0.854,3.451-0.391,5.177c0.004,0.002,0.01,0.001,0.01,0.004c0.018,0.017,0.021,0.235,0.018,0.238
					c-0.005,0.014-0.011,0.022-0.02,0.03c-0.083,0.111-0.302,0.111-0.357-0.063c-0.012-0.04-0.02-0.078-0.029-0.115
					c-0.01-0.012-0.021-0.023-0.029-0.036c-0.291-0.394-0.478-1.149-0.598-1.437c-0.539-1.302-0.99-2.647-1.375-4.006
					c-0.792-2.779-1.271-5.649-1.347-8.543c-0.069-2.588,0.19-5.184,0.805-7.696c0.493-2.013,1.196-5.014,2.695-6.553
					c1.36-1.392,2.491,0.838,2.884,1.968C321.316,234.514,320.892,237.465,320.567,240.086z"/>
				<path style="fill:#FFFFFF;" d="M318.087,234.207c-1.011,0-1.743,3.264-2.105,4.673c-0.572,2.22-0.842,4.505-0.861,6.796
					c-0.038,4.125,0.766,8.186,2.093,12.073c0.051,0.154,0.102,0.314,0.159,0.47c0.006,0.013,0.02,0.025,0.027,0.038
					c0.013,0.031,0.019,0.071,0.031,0.11c0.051,0.173,0.277,0.18,0.36,0.063c-0.064-0.342-0.115-0.675-0.154-1.017
					c-0.037-0.31-0.071-0.611-0.091-0.914c-0.276-3.314,0.199-6.706,0.618-9.993C318.654,242.645,319.426,234.214,318.087,234.207z
					 M317.359,257.149c0.053,0.451,0.122,0.895,0.206,1.333c-0.103-0.322-0.206-0.644-0.302-0.966
					c-1.063-3.462-1.803-7.021-1.905-10.651c-0.064-2.033,0.078-4.079,0.444-6.088c0.198-1.08,0.457-2.142,0.784-3.185
					c0.143-0.438,0.876-3.166,1.5-3.032c0.438,0.097,0.541,2.557,0.548,2.607c0.025,0.49,0.025,0.984,0.02,1.48
					c-0.014,1.017-0.085,2.033-0.169,3.043c-0.192,2.194-0.508,4.383-0.772,6.57C317.359,251.177,317.02,254.217,317.359,257.149z"
					/>
			</g>
			<g>
				<path style="fill:#455B65;" d="M336.476,247.737c-1.854,3.617-4.979,6.388-8.204,8.763c-1.73,1.271-3.519,2.461-5.274,3.69
					c-1.475,1.028-3.254,2.118-4.556,3.505c-0.059,0.058-0.118,0.121-0.174,0.188c-0.363,0.407-0.685,0.841-0.945,1.303
					c-0.022,0.036-0.053,0.053-0.086,0.056c-0.019,0.055-0.037,0.106-0.062,0.16c-0.014,0.036-0.075,0.03-0.07-0.016
					c0.004-0.057,0.015-0.121,0.02-0.18c0.002-0.006,0.001-0.008,0.003-0.014c-0.031-0.04-0.042-0.087-0.011-0.139
					c0.008-0.02,0.02-0.04,0.032-0.06c0.007-0.058,0.014-0.118,0.023-0.177c0.528-4.229,3.485-8.503,5.987-11.758
					c2.486-3.243,5.586-6.135,9.449-7.624c0.973-0.372,3.178-1.402,4.165-0.611C337.675,245.546,336.871,246.97,336.476,247.737z"/>
				<path style="fill:#FFFFFF;" d="M333.61,247.755c-0.884-0.882-3.476,1.292-4.125,1.802c-1.977,1.538-3.695,3.372-5.367,5.219
					c-2.742,3.044-5.188,6.211-6.854,9.918v0.005c-0.033,0.04-0.058,0.077-0.092,0.115c-0.012,0.065-0.019,0.123-0.024,0.181
					c-0.013,0.02-0.026,0.039-0.031,0.06c-0.033,0.051-0.02,0.103,0.012,0.14c0.044-0.051,0.085-0.102,0.129-0.147
					c0.322-0.399,0.663-0.785,1.011-1.164c0.057-0.065,0.115-0.129,0.173-0.187c2.421-2.607,5.278-4.802,8.024-7.086
					c1.906-1.59,3.766-3.275,5.344-5.194C332.213,250.928,334.349,248.495,333.61,247.755z M332.799,249.691
					c-2.188,3.63-5.979,6.28-9.196,8.927c-2.183,1.782-4.319,3.641-6.107,5.797c1.615-3.275,3.938-6.223,6.339-8.919
					c1.383-1.558,2.806-3.096,4.355-4.486c0.832-0.752,1.707-1.492,2.646-2.116c0.425-0.283,1.274-0.813,1.789-0.966
					C333.854,247.567,333.172,249.067,332.799,249.691z"/>
			</g>
			<g>
				<path style="fill:#455B65;" d="M316.735,273.801c-0.034,0.063-0.109,0.103-0.188,0.105c0.016,0.025,0.031,0.045,0.047,0.066
					c0.025,0.033,0.014,0.07-0.011,0.089c-0.022,0.025-0.062,0.03-0.09,0c-3.429-3.486-6.732-7.726-8.439-12.347
					c-0.72-1.948-1.167-4.004-1.225-6.084c-0.039-1.423-0.114-4.289,1.104-5.326c2.45-2.083,4.684,6.76,5.016,8.094
					c0.607,2.43,1.009,4.905,1.566,7.348c0.614,2.672,1.422,5.293,2.227,7.912C316.758,273.713,316.755,273.763,316.735,273.801z"/>
				<path style="fill:#FFFFFF;" d="M316.735,273.799c-0.136-0.226-0.264-0.45-0.387-0.683c-2.11-3.739-3.494-7.593-4.413-11.88
					c-0.444-2.065-0.837-4.215-1.628-6.185c-0.2-0.489-0.813-2.374-1.623-1.422c-0.419,0.495-0.071,4.066,0.097,4.988
					c0.387,2.104,1.106,4.138,1.989,6.075c1.466,3.229,3.378,6.345,5.617,9.124c0.065,0.084,0.128,0.169,0.192,0.245
					c0.027-0.019,0.04-0.059,0.013-0.09c-0.013-0.02-0.031-0.037-0.044-0.064C316.627,273.901,316.703,273.863,316.735,273.799z
					 M311.761,266.198c-0.965-1.879-1.802-3.848-2.355-5.896c-0.218-0.811-0.392-1.641-0.515-2.477
					c-0.09-0.656-0.174-1.32-0.167-1.976c0.013-1.616,0.142-2.034,0.413-2.093c0.165-0.031,0.398,0.143,0.874,1.108
					c0.303,0.61,0.515,1.307,0.688,1.963c0.251,0.952,0.47,1.91,0.676,2.875c0.418,1.925,0.811,3.861,1.371,5.748
					c0.79,2.696,1.923,5.328,3.404,7.729C314.509,270.974,313.021,268.67,311.761,266.198z"/>
			</g>
			<g>
				<path style="fill:#455B65;" d="M327.731,265.322c-0.329,1.711-1.241,3.274-2.249,4.675c-2.035,2.81-4.638,5.146-6.858,7.802
					c-0.332,0.396-0.657,0.8-0.97,1.216c-0.032,0.047-0.289,0.633-0.285,0.584c0-0.012,0.04-0.234,0.112-0.611l0.003-0.004
					c0.356-1.861,1.525-7.481,2.983-10.355c0.896-1.767,1.939-3.58,3.247-5.08c0.631-0.713,2.109-2.254,3.225-1.918
					C328.139,261.992,327.903,264.429,327.731,265.322z"/>
				<path style="fill:#FFFFFF;" d="M325.92,264.184c-1.19-0.739-4.262,4.742-4.673,5.452c-1.525,2.624-2.704,5.43-3.502,8.358
					c-0.097,0.329-0.18,0.656-0.264,0.992c-0.069,0.379-0.116,0.597-0.116,0.61c0.021,0,0.259-0.533,0.29-0.586
					c0.053-0.07,0.108-0.14,0.162-0.212c0.263-0.342,0.533-0.676,0.804-0.998c1.332-1.994,2.702-3.97,3.996-5.996
					c0.934-1.462,1.79-2.961,2.479-4.557C325.249,266.888,326.44,264.506,325.92,264.184z M325.577,265.729
					c-1.692,4.769-5.147,8.527-7.786,12.762c-0.046,0.071-0.083,0.135-0.129,0.207c0.039-0.124,0.07-0.252,0.11-0.374
					c0.72-2.407,1.641-4.737,2.8-6.963c0.7-1.352,1.491-2.665,2.354-3.926c0.456-0.663,0.921-1.442,1.467-2.041
					c0.244-0.27,0.946-0.985,1.184-0.862C325.92,264.698,325.688,265.414,325.577,265.729z"/>
			</g>
			<g>
				<path style="fill:#455B65;" d="M339.683,225.96c-3.536,8.129-12.821,11.914-16.843,19.747c-0.008,0.019-0.015,0.029-0.021,0.043
					c-0.123,0.237-0.238,0.48-0.353,0.728c-0.055,0.12-0.203,0.113-0.267,0.042c-0.029-0.034-0.039-0.079-0.016-0.136
					c0.023-0.059,0.053-0.118,0.083-0.176c0.628-4.888,2.634-9.918,4.967-14.227c2.035-3.748,4.818-7.251,8.673-9.225
					c0.949-0.487,2.803-1.519,3.867-0.71C340.902,222.899,340.12,224.96,339.683,225.96z"/>
				<path style="fill:#FFFFFF;" d="M336.499,226.311c-0.45-0.334-1.132,0.071-1.518,0.271c-0.966,0.489-1.867,1.134-2.685,1.835
					c-1.7,1.44-3.083,3.218-4.281,5.09c-2.007,3.153-3.86,6.615-5.044,10.227c-0.271,0.817-0.508,1.641-0.702,2.478
					c-0.025,0.104-0.044,0.205-0.07,0.31c0.064,0.07,0.213,0.076,0.271-0.04c0.104-0.243,0.219-0.47,0.335-0.707
					c0.006-0.019,0.02-0.038,0.031-0.065c0.703-1.615,1.513-3.167,2.523-4.633c1.551-2.259,3.475-4.247,5.297-6.28
					C331.376,233.995,338.057,227.45,336.499,226.311z M335.933,228.191c-1.074,1.91-2.742,3.467-4.196,5.089
					c-1.466,1.642-2.953,3.263-4.395,4.923c-1.14,1.313-2.188,2.729-3.096,4.229c-0.761,1.243-1.416,2.555-1.938,3.914
					c0.368-1.385,0.845-2.742,1.384-4.068c0.007-0.02,0.014-0.032,0.027-0.044c0.971-2.362,2.182-4.641,3.43-6.836
					c0.013-0.024,0.031-0.058,0.045-0.083c1.113-1.942,2.361-3.836,3.913-5.464c0.842-0.882,1.763-1.7,2.786-2.369
					c1.165-0.752,2.181-1.241,2.471-0.868C336.557,226.871,336.254,227.631,335.933,228.191z"/>
			</g>
		</g>
		<path style="fill:#455B65;" d="M327.328,235.488c-1.062,2.29-2.079,4.613-3.082,6.943c-0.477,1.095-0.946,2.188-1.41,3.275
			c-0.012,0.027-0.025,0.047-0.031,0.065c-0.168,0.393-0.341,0.791-0.509,1.184c-1.531,3.564-3.219,7.214-4.151,10.992
			c-0.489,1.976-0.732,4.035-0.85,6.106c-0.005,0.214-0.019,0.426-0.031,0.639v0.005c0,0.115-0.007,0.233-0.007,0.348
			c-0.007,0.065-0.007,0.13-0.007,0.192c-0.064,1.782-0.037,3.574-0.006,5.31c0.046,2.428,0.251,4.834,0.482,7.234
			c0,0.07,0.006,0.142,0.019,0.212c0.007,0.11,0.019,0.22,0.027,0.329c0.005,0.058,0.012,0.108,0.019,0.167
			c0.007,0.103,0.02,0.207,0.026,0.309c0.076,0.772,0.147,1.545,0.212,2.323h-0.739c-0.49-2.329-0.761-4.755-0.896-7.155
			c-0.007-0.053-0.007-0.097-0.007-0.149c-0.02-0.231-0.032-0.469-0.039-0.701c-0.018-0.289-0.031-0.572-0.038-0.861
			c-0.024-0.695-0.044-1.384-0.058-2.066c-0.071-3.965-0.025-8.096,0.85-11.983c0.025-0.109,0.051-0.212,0.076-0.321
			c0.007-0.045,0.021-0.091,0.034-0.135c0.013-0.078,0.031-0.154,0.051-0.232l0.096-0.367c0.059-0.219,0.122-0.437,0.187-0.649
			c0.02-0.064,0.039-0.128,0.059-0.193c1.017-3.392,2.625-6.68,4.086-9.865c0.271-0.586,0.541-1.165,0.817-1.744
			c0.154-0.321,0.31-0.644,0.464-0.965c0.237-0.482,0.482-0.972,0.72-1.455c0.007-0.02,0.014-0.032,0.027-0.044
			c1.132-2.286,2.31-4.544,3.43-6.836C327.199,235.295,327.38,235.379,327.328,235.488z"/>
	</g>
</g>
<g>
	<path style="fill:#273238;" d="M56.644,281.122c0,0,18.674-0.107,46.685-0.269c28.011-0.063,65.359-0.146,102.707-0.23
		c37.348,0.084,74.696,0.167,102.707,0.229c28.011,0.162,46.685,0.27,46.685,0.27s-18.674,0.107-46.685,0.27
		c-28.011,0.063-65.358,0.146-102.707,0.229c-37.348-0.084-74.696-0.168-102.707-0.23C75.317,281.229,56.644,281.122,56.644,281.122
		z"/>
</g>
<g>
	<g>
		<polygon style="fill:#FFFFFF;" points="112.894,9.775 112.894,71.929 104.17,71.929 104.17,87.005 89.093,71.929 25.188,71.929 
			25.188,9.775 		"/>
		<path style="fill:#263238;" d="M112.894,9.775l0.168,31.077l0.111,31.077l0.001,0.279l-0.281,0l-8.724,0.017l0.296-0.296
			l0.028,15.076l0.002,0.783l-0.556-0.553L88.835,72.187l0.257,0.106l-63.904,0.131l-0.497,0.001l0.001-0.496l0.137-62.154
			l0.001-0.358l0.357,0l43.853,0.097L112.894,9.775z M112.894,9.775l-43.853,0.261l-43.853,0.097l0.358-0.358l0.137,62.154
			l-0.495-0.495l63.904,0.131l0.151,0l0.106,0.106l15.049,15.104l-0.554,0.229l0.028-15.076l0-0.297l0.296,0l8.724,0.017l-0.28,0.28
			l0.111-31.077L112.894,9.775z"/>
	</g>
	<g id="xsrjP0_1_">
		<g>
			<path style="fill-rule:evenodd;clip-rule:evenodd;fill:#14A800;" d="M74.252,57.64c0.921-0.574,1.723-1.41,2.954-1.289
				c0.471,0.048,0.369-0.342,0.374-0.6c0.021-4.631,0.035-9.258,0.054-13.886c0.002-0.336-0.018-0.613-0.384-0.799
				c-3.529-1.795-5.051-5.308-7.206-8.312c-2.306-3.207-3.089-6.677-2.529-10.511c0.151-1.04-0.333-1.509-1.271-1.725
				c-1.129-0.262-2.255,0.047-2.645,0.822c-0.958,1.922-1.783,3.92-2.038,6.059c-0.211,1.755,0.413,3.466,0.626,5.204
				c0.158,1.271,0.449,2.529,0.687,3.816c-0.312,0.225-0.67,0.107-1.005,0.111c-3.91-0.007-7.818-0.022-11.73-0.035
				c-1.648-0.005-2.456,0.465-2.688,1.558c-0.286,1.361,0.429,2.749,1.691,3.396c0.292,0.148,0.821,0.017,0.855,0.475
				c0.032,0.467-0.512,0.417-0.782,0.604c-1.418,0.966-1.162,2.969,0.472,4.133c0.393,0.277,1.157,0.153,1.175,0.73
				c0.008,0.461-0.707,0.453-1.031,0.776c-1.146,1.125-0.587,3.236,1.119,4.093c0.218,0.109,0.489,0.13,0.686,0.267
				c0.193,0.131,0.384,0.278,0.006,0.543c-1.697,1.204-1.666,2.889,0.034,4.123c0.166,0.121,0.337,0.245,0.509,0.367
				c0.618,0.457,1.35,0.453,2.058,0.458c6.133,0.033,12.265,0.049,18.396,0.066C73.211,58.085,73.792,58.07,74.252,57.64z"/>
			<path style="fill-rule:evenodd;clip-rule:evenodd;fill:#14A800;" d="M91.714,49.535c0.011-2.94,0.008-5.884,0.04-8.822
				c0.007-0.599-0.054-0.893-0.787-0.887c-3.589,0.032-7.173,0.019-10.76-0.033c-0.702-0.009-0.813,0.232-0.811,0.858
				c0,5.918-0.015,11.835-0.063,17.754c-0.007,0.753,0.197,0.967,0.954,0.957c3.479-0.028,6.959-0.025,10.435,0.042
				c0.866,0.017,0.986-0.286,0.979-1.044C91.667,55.418,91.705,52.478,91.714,49.535z"/>
		</g>
	</g>
</g>
<g>
	<g>
		<path style="fill:#263238;" d="M252.59,107.988c2.584,21.136,9.216,46.069,1.857,66.856c-5.788,16.281-19.661,28.026-34.34,36.025
			c-32.294,17.566-78.975,23.184-104.99-8.481c-10.385-12.652-14.137-40.409,0.593-51.832c7.57-5.849,16.955-7.804,25.768-10.97
			c11.631-4.144,19.686-11.549,24.322-23.147c9.064-22.592,5.692-38.351,5.928-62.039c0.06-4.395,0.741-8.776,4.729-12.792
			c3.315-4.047,8.024-7.007,13.232-8.835c4.377-2.183,9.043-3.625,13.98-3.475c10.411,0.278,21.06,9.109,29.509,14.467
			c8.55,5.433,12.755,11.471,14.169,21.658C249.3,79.58,250.843,93.799,252.59,107.988z"/>
		<path style="fill:#263238;" d="M255.96,117.782c-3.604-19.221-7.579-38.338-11.433-57.502c-0.023-0.115-0.204-0.101-0.185,0.019
			c2.717,15.861,5.217,31.74,8.139,47.571c2.866,15.513,6.867,31.265,8.375,46.979c3.384,35.271-31.495,52.479-61.392,53.087
			c-1.359,0.027-1.164,2.21,0.214,2.14c26.229-1.369,56.772-12.848,62.459-42.179C265.249,151.854,258.907,133.495,255.96,117.782z"
			/>
		<path style="fill:#263238;" d="M173.276,52.412c-0.039-0.377-0.589-0.315-0.577,0.059c0.621,19.495,3.157,42.166-6.499,59.944
			c-4.725,8.7-12.07,15.901-20.867,20.352c-6.993,3.537-14.637,4.398-22.08,6.49c-29.099,8.18-26.277,48.474-3.594,62.494
			c0.476,0.294,0.997-0.521,0.53-0.841c-16.051-10.967-22.74-32.671-11.667-49.858c8.887-13.796,28.2-11.158,41.147-19.244
			C176.497,115.05,176.044,80.574,173.276,52.412z"/>
	</g>
	<g>
		<g>
			<path style="fill:#14A800;" d="M110.723,240.914c4.757,21.836,33.438,25.559,37.645,20.686
				c17.015-19.719,34.482-57.467,53.374-99.569c14.768-32.915,4.501-33.575-9.028-24.447
				C161.249,158.809,108.167,229.181,110.723,240.914z"/>
			<path style="opacity:0.4;fill:#FFFFFF;" d="M199.776,133.654c1.066,0.676,2.146,1.323,3.249,1.94
				c1.878,1.054,3.882,2.021,5.955,2.805c0-0.312-0.014-0.603-0.036-0.886c-2.845-1.105-5.574-2.588-8.195-4.224
				C200.433,133.392,200.108,133.517,199.776,133.654z M166.039,161.271c4.357,1.396,8.915,2.151,13.561,2.369
				c7.518,0.357,14.9-0.5,22.236-1.816c-0.027,0.066-0.064,0.138-0.093,0.203c-0.101,0.233-0.209,0.459-0.309,0.691
				c-10.097,1.803-20.242,2.719-30.462,0.741c-1.866-0.364-3.744-0.858-5.603-1.481
				C165.592,161.737,165.815,161.505,166.039,161.271z M131.213,214.599c-0.9-3.04-1.391-6.149-1.599-9.289
				c0.244-0.342,0.49-0.685,0.742-1.025c0.23,4.841,1.093,9.615,3.089,14.021c1.842,4.055,4.854,8.54,9.231,10.05
				c4.301,1.484,8.175-1.046,10.342-4.715c5.257-8.859,0.778-19.682,0.951-29.226c0.121-6.897,2.656-14.972,9.67-17.582
				c6.496-2.412,13.884,1.149,17.932,6.368c3.075,3.968,4.206,8.853,4.177,13.803c-0.31,0.654-0.619,1.3-0.922,1.946
				c0.404-6.81-1.216-13.628-6.747-18.163c-3.032-2.492-6.971-4.121-10.933-3.859c-4.457,0.292-8.065,3.199-10.059,7.131
				c-4.652,9.188-0.785,19.53-0.755,29.195c0.021,6.286-2.579,15.205-9.839,16.289C138.464,230.733,133.128,221.074,131.213,214.599
				z M118.323,222.323c1.504,1.81,3.074,3.584,4.694,5.299c6.46,6.839,13.668,13.445,17.638,22.182
				c1.87,4.128,3.088,8.94,2.907,13.591c-0.287,0.029-0.583,0.051-0.891,0.073c0.151-2.421-0.079-4.905-0.67-7.334
				c-2.384-9.854-9.369-17.334-16.174-24.397c-2.735-2.843-5.394-5.728-7.922-8.716
				C118.042,222.789,118.179,222.557,118.323,222.323z"/>
			<path style="opacity:0.1;fill:#010101;" d="M110.724,240.917c4.755,21.831,33.436,25.556,37.643,20.682
				c17.014-19.717,34.479-57.471,53.375-99.568c7.15-15.946,8.695-25.826,5.563-28.618l-96.328,103.121
				C110.563,238.288,110.475,239.76,110.724,240.917z"/>
		</g>
		<g>
			<g>
				<path style="fill:#F7A9A0;" d="M141.945,256.552c8.773-11.499,5.745-35.364-0.573-92.554
					c-0.873-7.913-59.913-11.395-59.41-2.895c0.633,10.705,9.142,53.305,11.59,59.626
					C105.533,251.675,135.993,264.354,141.945,256.552z"/>
				<g>
					<path style="fill:#F7A9A0;" d="M79.804,138.882c-1.347,11.508,5.023,36.13,8.823,41.473c3.801,5.342,45.635-4.194,48.462-10.31
						c2.825-6.117,4.383-45.218-1.819-55.25C129.069,104.763,81.198,126.959,79.804,138.882z"/>
					<g>
						<path style="fill:#F7A9A0;" d="M141.737,132.16c-5.604,2.392-7.255-2.372-7.255-2.372s2.584,11.621-3.182,15.112
							c-5.566,3.351-9.514-5.52-9.804-6.151c0.13,0.617,2.23,11.357-3.923,14.264c-6.396,3.015-8.843-6.575-8.999-7.197
							c-0.057,0.622-0.944,8.819-6.116,9.954c-8.889,1.946-7.188-19.076-12.185-24.534c0,0-10.132,7.491-10.471,7.646
							c0,0,1.212-20.034,8.884-26.426c4.043-3.369,7.953-0.23,7.953-0.23s-0.314-6.504,4.456-8.946
							c2.454-1.248,6.612,1.603,6.612,1.603s-0.037-5.217,4.342-7.123c3.491-1.533,7.12,1.565,7.12,1.565s-5.484-26.03,1.114-28.276
							c11.364-3.867,20,52.486,24.741,54.86C147.376,127.089,144.178,131.118,141.737,132.16z"/>
						<g>
							<path style="fill:#263238;" d="M119.819,99.726c-0.06-0.091,0.051-0.194,0.129-0.111
								c7.549,8.138,13.373,19.415,14.766,30.542c0.044,0.365-0.712,1.898-0.789,1.492
								C132.013,121.514,126.37,109.529,119.819,99.726z"/>
							<path style="fill:#263238;" d="M107.688,104.708c-0.073-0.106,0.101-0.227,0.193-0.125
								c7.734,8.429,13.947,21.313,14.055,34.33c0.004,0.447-0.437,0.851-0.479,0.338
								C120.735,130.599,113.63,113.502,107.688,104.708z"/>
							<path style="fill:#263238;" d="M108.274,146.728c-0.582-12.477-5.068-23.511-11.29-34.174
								c-0.082-0.139,0.122-0.24,0.22-0.143c4.452,4.379,7.716,11.594,9.785,17.424c1.982,5.586,2.659,11.026,1.716,16.872
								C108.668,146.934,108.286,146.994,108.274,146.728z"/>
						</g>
						<path style="fill:#263238;" d="M134.665,129.888c0.053,0.438-1.102-0.266-1.065,0.174c0.405,4.78,0.718,13.373-3.062,14.588
							c-3.03,0.967-6.421-2.473-7.208-4.31l-1.982-4.619l0.271,5.035c0.118,2.198-0.063,4.535-0.657,6.639
							c-0.588,2.102-1.727,4.038-3.504,4.875c-1.841,0.912-3.843,0.646-5.175-0.891c-1.375-1.462-2.257-3.67-2.736-5.749
							l-1.338-5.809l-0.616,5.906c-0.166,1.6-0.543,3.29-1.121,4.808c-0.584,1.513-1.424,2.945-2.622,3.764
							c-1.168,0.811-2.791,0.979-3.95,0.267c-1.229-0.729-2.116-2.229-2.816-3.728c-1.396-3.083-2.152-6.509-3.071-9.865
							c-0.446-1.687-0.894-3.38-1.421-5.054c-0.552-1.646-1.117-3.39-2.316-4.684c1.054,1.403,1.414,3.151,1.856,4.814
							c0.395,1.69,0.71,3.402,1.029,5.119c0.637,3.432,1.315,6.88,2.616,10.242c0.701,1.64,1.518,3.396,3.237,4.582
							c1.785,1.212,4.178,0.968,5.842-0.167c1.703-1.151,2.681-2.892,3.377-4.583c0.679-1.734,1.103-3.471,1.327-5.336l-1.953,0.096
							c0.547,2.461,1.384,4.807,3.167,6.826c0.88,0.987,2.171,1.784,3.592,1.975c1.426,0.199,2.773-0.124,3.976-0.721
							c2.495-1.252,3.822-3.815,4.439-6.171c0.632-2.426,0.779-4.836,0.611-7.314l-1.713,0.416c1.082,2.301,4.455,6.564,9.343,5.661
							C137.218,144.535,135.194,132.13,134.665,129.888z"/>
					</g>
					<g>
						<path style="fill:#F7A9A0;" d="M137.089,170.046c0,0,19.426-25.35,18.659-36.161c-0.766-10.81-21.787-22.139-30.101-25.036
							c-11.478-3.997-13.161,4.712-9.354,10.111c4.411,6.252,13.82,13.021,14.467,13.501c0,0-16.758,8.176-18.157,21.786
							C111.203,167.856,137.089,170.046,137.089,170.046z"/>
						<g>
							<path style="fill:#263238;" d="M141.029,116.702c-1.047-0.596-2.12-1.144-3.179-1.712c-1.064-0.559-2.132-1.108-3.213-1.629
								c-2.162-1.042-4.349-2.022-6.566-2.889c-1.107-0.438-2.233-0.813-3.358-1.168c-1.131-0.352-2.228-0.588-3.355-0.651
								c-1.116-0.055-2.228,0.06-3.204,0.432c-0.977,0.365-1.795,1.007-2.263,1.867c-0.491,0.848-0.623,1.891-0.508,2.935
								c0.136,1.046,0.463,2.105,0.972,3.102c0.497,0.998,1.139,1.958,1.84,2.845l1.135,1.397l1.152,1.319
								c1.57,1.761,3.267,3.412,5.063,4.946c0.897,0.769,1.823,1.502,2.764,2.213c0.937,0.702,1.924,1.397,2.887,1.979l1.59,0.961
								l-1.713,0.646c-0.468,0.177-0.992,0.411-1.482,0.646c-0.496,0.24-0.989,0.49-1.473,0.759
								c-0.977,0.524-1.927,1.103-2.848,1.727c-0.921,0.623-1.813,1.292-2.666,2.008c-0.856,0.712-1.684,1.461-2.472,2.253
								c-0.785,0.794-1.515,1.642-2.225,2.508c-0.7,0.875-1.358,1.785-1.962,2.735c-1.202,1.904-2.174,3.958-2.967,6.093
								c0.282-1.102,0.57-2.213,0.991-3.278c0.394-1.077,0.88-2.119,1.401-3.145c0.533-1.021,1.127-2.011,1.77-2.973
								c0.655-0.952,1.371-1.864,2.129-2.741c1.525-1.746,3.241-3.33,5.113-4.711c0.933-0.694,1.9-1.344,2.903-1.941
								c0.501-0.298,1.016-0.576,1.536-0.846c0.529-0.27,1.037-0.517,1.626-0.758l-0.123,1.607
								c-1.114-0.633-2.112-1.303-3.121-2.015c-1.003-0.707-1.97-1.461-2.906-2.251c-1.877-1.574-3.653-3.27-5.301-5.087
								c-0.828-0.93-1.612-1.881-2.341-2.821c-0.781-1.006-1.477-2.062-2.044-3.223c-0.567-1.153-0.982-2.422-1.119-3.767
								c-0.116-1.339,0.086-2.799,0.838-4.033c0.724-1.248,1.954-2.131,3.237-2.567c1.291-0.46,2.635-0.506,3.911-0.395
								c1.274,0.123,2.534,0.458,3.68,0.872c1.156,0.412,2.286,0.877,3.388,1.393c2.215,1.007,4.349,2.157,6.42,3.405
								C137.041,113.988,139.082,115.278,141.029,116.702z"/>
						</g>
					</g>
				</g>
			</g>
			<g>
				<path style="fill:#14A800;" d="M80.046,201.118l64.561-14.575c0,0,14.56,62.655,5.331,73.605
					c-4.125,4.894-17.411,16.972-28.704,14.748C95.262,269.784,80.046,201.118,80.046,201.118z"/>
				<path style="opacity:0.4;fill:#FFFFFF;" d="M146.493,229.542c2.14-0.321,3.875-1.317,5.251-2.733
					c-0.05-0.406-0.101-0.807-0.143-1.214c-2.241,2.535-5.445,3.961-8.924,2.76c-4.377-1.51-7.389-5.995-9.231-10.05
					c-3.768-8.33-3.506-17.981-2.58-26.892c0.067-0.604,0.131-1.207,0.203-1.811l-0.836,0.183
					c-0.907,8.249-1.397,16.773,0.979,24.813C133.128,221.074,138.464,230.733,146.493,229.542z M101.184,196.347l0.834-0.188
					c5.142,11.579,12.272,22.219,20.999,31.464c6.46,6.839,13.668,13.445,17.638,22.182c2.303,5.088,3.614,11.207,2.555,16.796
					c-0.388,0.32-0.784,0.634-1.187,0.945c0.949-3.612,0.907-7.595-0.023-11.411c-2.384-9.854-9.369-17.334-16.174-24.397
					c-6.466-6.708-12.457-13.657-17.391-21.616C105.699,205.71,103.278,201.101,101.184,196.347z M98,243.358
					c3.283,0.261,6.084,2.354,8.158,4.812c5.148,6.119,5.502,14.026,8.118,21.279c0.417,1.156,0.907,2.303,1.497,3.394
					c-0.433-0.238-0.857-0.494-1.282-0.771c-1.413-3.058-2.284-6.489-3.039-9.585c-0.973-4.013-1.966-7.909-4.199-11.433
					c-2.139-3.366-5.465-6.761-9.678-6.898c-1.087-0.036-2.104,0.138-3.032,0.487c-0.115-0.246-0.23-0.494-0.338-0.749
					C95.401,243.445,96.684,243.248,98,243.358z"/>
				<g>
					<g>
						<path style="fill:#263238;" d="M145.356,203.672c-7.322,1.425-14.703,2.452-22.085,3.459
							c-7.389,1.008-14.776,2.031-22.185,2.853c-4.186,0.465-8.373,0.954-12.571,1.271c-0.109,0.01-0.146-0.175-0.034-0.196
							c7.309-1.424,14.695-2.484,22.06-3.54c7.384-1.057,14.782-2.036,22.182-2.946c4.182-0.514,8.372-0.952,12.569-1.271
							C145.499,203.285,145.57,203.631,145.356,203.672z"/>
					</g>
					<path style="fill:#263238;" d="M143.903,186.287c0.658-0.271,1.58-0.576,1.616-0.423c0.979,4.074,1.617,8.512,2.25,12.653
						c0.623,4.087,1.152,8.191,1.625,12.299c0.253,2.213,0.465,4.428,0.607,6.642c1.164,2.755,1.88,5.636,1.966,8.658
						c0.005,0.15-0.25,0.168-0.263,0.016c-0.205-2.636-0.747-5.283-1.653-7.778c0.299,5.416,0.116,10.821-1.194,16.157
						c-0.009,0.034-0.058,0.016-0.05-0.018c1.73-7.916,0.136-16.337-0.792-24.255c-0.465-3.969-1.014-7.926-1.589-11.88
						c-0.574-3.94-1.296-7.867-1.819-11.815c0,0-0.689,0.166-0.834,0.188C143.638,186.75,143.777,186.34,143.903,186.287z"/>
				</g>
			</g>
		</g>
	</g>
	<g>
		<g>
			<g>
				<path style="fill:#14A800;" d="M161.168,281.11l5.346-56.749c0,0-9.517-20.127,0.679-37.583
					c5.153-8.844,18.318-41.213,33.966-52.875c18.412-13.721,36.083-1.092,42.958,8.313c13.765,18.829,34.195,58.74,45.464,138.917
					L161.168,281.11z"/>
				<path style="opacity:0.4;fill:#FFFFFF;" d="M200.714,134.235c0.762,0.473,1.532,0.923,2.311,1.359
					c6.459,3.613,14.345,6.236,21.705,3.983c4.71-1.439,7.129-4.149,7.993-7.53c-0.229-0.139-0.476-0.276-0.713-0.407
					c-0.252,1.083-0.697,2.122-1.39,3.089c-2.665,3.699-7.627,4.87-11.918,4.819c-6.258-0.073-11.982-2.625-17.276-5.844
					c-0.086,0.066-0.181,0.131-0.266,0.195C201.008,134.011,200.865,134.126,200.714,134.235z M199.353,231.787
					c5.371-3.424,12.681-2.937,18.14,0.007c6.791,3.664,10.37,11.352,11.645,18.716c1.757,10.138-0.576,20.414-1.959,30.612h-0.741
					c1.324-9.776,3.508-19.631,2.081-29.342c-1.203-8.227-5.2-16.89-13.287-20.146c-6.733-2.705-15.799-1.65-19.58,5.283
					c-4.875,8.961,1.648,19.732,5.205,27.923c2.176,5.029,3.817,10.7,3.739,16.274h-0.843c0.021-1.031-0.022-2.072-0.116-3.104
					c-0.848-9.558-6.386-17.473-9.159-26.441C192.309,244.564,192.574,236.104,199.353,231.787z M266.311,233.975
					c5.069-0.793,10.427,0.101,15.194,2.165c0.071,0.328,0.144,0.654,0.223,0.988c-5.314-2.427-11.471-3.4-17.066-1.977
					c-3.608,0.916-6.856,2.973-8.931,6.134c-2.592,3.961-2.931,8.788-1.958,13.331c2.067,9.651,8.793,18.082,15.209,25.234
					c0.39,0.436,0.785,0.856,1.188,1.279h-1.131c-3.184-3.482-6.143-7.167-8.851-11.04c-4.608-6.578-8.958-15.038-7.475-23.36
					C253.96,239.752,259.525,235.035,266.311,233.975z M220.358,177.073c8.058,1.243,15.446,5.029,22.764,8.467
					c7.381,3.467,15.26,7.042,23.591,6.76c0.764-0.029,1.542-0.088,2.319-0.182l0.28,0.785c-7.589,0.988-15.007-1.483-21.892-4.5
					c-7.856-3.437-15.432-7.776-23.808-9.834c-8.145-2.006-19.27-1.655-23.305,7.225c-3.766,8.294,0.483,17.961,6.72,23.673
					c6.272,5.749,14.813,8.59,23.152,9.201c15.397,1.141,29.785-4.921,44.311-9.696c0.071,0.248,0.144,0.487,0.216,0.735
					c-17.464,5.646-35.963,13.576-54.45,7.965c-7.092-2.15-13.74-6.243-18.01-12.458c-4.104-5.967-5.84-14.586-1.973-21.12
					C204.364,177.183,213.12,175.96,220.358,177.073z M179.036,163.604c0.188,0.015,0.375,0.029,0.563,0.036
					c21.495,1.019,41.896-7.907,63.22-8.939c3.125-0.152,6.294-0.138,9.448,0.117c0.158,0.282,0.323,0.574,0.489,0.865
					c-6.834-0.604-13.776-0.08-20.538,0.923c-17.729,2.638-35.575,8.99-53.627,7.819
					C178.734,164.158,178.885,163.881,179.036,163.604z M164.814,242.398c7.265-10.989,14.799-21.841,18.473-34.69
					c2.613-9.145,2.751-20.395-5.208-26.922c-1.786-1.468-3.889-2.637-6.129-3.299c0.122-0.247,0.246-0.494,0.376-0.749
					c3.634,1.111,6.969,3.525,9.244,6.462c5.387,6.948,4.797,16.709,2.507,24.726c-3.839,13.431-11.853,24.747-19.431,36.274
					L164.814,242.398z"/>
				<g>
					<g>
						<path style="fill:#263238;" d="M217.467,219.163c-6.245-0.075-12.536,0.061-18.732,0.916
							c-3.083,0.427-6.125,0.994-9.171,1.628c-1.52,0.316-3.04,0.58-4.568,0.837c-1.57,0.263-3.246,0.484-4.838,0.352
							c-0.143-0.013-0.165,0.203-0.021,0.224c1.536,0.221,3.011,0.429,4.571,0.442c1.48,0.014,2.973-0.132,4.442-0.322
							c3.131-0.402,6.242-0.951,9.368-1.385c6.307-0.877,12.612-1.751,18.969-2.168
							C217.778,219.666,217.764,219.167,217.467,219.163z"/>
						<path style="fill:#263238;" d="M232.138,226.462c-5.016-1.109-10.161-1.993-15.272-2.523
							c-2.571-0.266-5.137-0.381-7.721-0.427c-1.234-0.021-2.467-0.021-3.701-0.007c-1.358,0.017-2.715,0.217-4.07,0.214
							c-0.142,0-0.167,0.219-0.022,0.224c1.28,0.042,2.557,0.298,3.833,0.414c1.278,0.117,2.562,0.225,3.843,0.341
							c2.565,0.234,5.126,0.495,7.693,0.706c5.141,0.418,10.253,0.886,15.376,1.483
							C232.373,226.919,232.397,226.519,232.138,226.462z"/>
					</g>
				</g>
			</g>
			<g>
				<path style="fill:#F7A9A0;" d="M246.632,142.886c36.715,36.745,83.247,114.376,74.905,130.312
					c-9.292,17.75-60.424-33.763-60.263-36.807c0.122-2.299-18.183-49.565-32.053-83.938
					C215.365,118.114,237.553,133.8,246.632,142.886z"/>
				<g>
					<g>
						<path style="fill:#14A800;" d="M260.937,236.453c-1.601-5.06-26.485-67.379-33.622-87.094
							c-6.404-17.695-3.218-25.024,11.533-14.174c27.159,19.976,81.176,81.521,91.41,113.552
							c9.86,30.856-15.545,33.671-36.542,19.63C276.526,256.872,260.937,236.453,260.937,236.453z"/>
						<path style="opacity:0.4;fill:#FFFFFF;" d="M266.311,233.975c-1.995,0.313-3.882,0.938-5.588,1.846
							c0.093,0.262,0.165,0.474,0.216,0.634c0,0,0.021,0.028,0.071,0.094c1.145-0.611,2.377-1.076,3.651-1.396
							c7.244-1.846,15.426,0.336,21.51,4.479c7.763,5.282,13.46,13.023,20.294,19.36c5.624,5.212,11.947,9.137,19.66,10.024
							c1.512,0.173,3.06,0.225,4.601,0.122c0.144-0.276,0.281-0.567,0.396-0.864c-1.513,0.139-3.046,0.123-4.559-0.028
							c-8.476-0.859-15.188-5.562-21.157-11.397c-6.323-6.178-11.89-13.445-19.372-18.294
							C280.323,234.86,273.065,232.921,266.311,233.975z M289.715,204.83c4.579-0.887,9.281-1.396,13.948-1.287
							c0.202,0.276,0.411,0.553,0.619,0.828c-9.83-0.363-19.565,2.13-28.877,5.109c-7.209,2.313-14.598,5.045-22.087,7.088
							c-0.086-0.212-0.165-0.423-0.252-0.64C265.353,212.586,277.343,207.221,289.715,204.83z M266.713,192.3
							c4.522-0.16,9.427-1.388,12.696-4.731c2.449-2.515,3.536-6.005,3.528-9.478c0.26,0.305,0.526,0.604,0.793,0.908
							c-0.159,3.205-1.246,6.374-3.407,8.795c-2.692,3-6.675,4.477-10.557,5.051c-7.749,1.148-15.324-1.366-22.346-4.441
							c-2.096-0.916-4.177-1.896-6.258-2.886l-0.432-1.111c0.799,0.387,1.598,0.764,2.391,1.134
							C250.503,189.007,258.382,192.582,266.713,192.3z M242.819,154.701c6.712-0.327,13.632,0.117,20.142,1.97
							c0.418,0.408,0.836,0.829,1.254,1.25c-0.368-0.122-0.742-0.232-1.109-0.341c-10.024-2.914-20.661-2.492-30.887-0.974
							c-0.698,0.102-1.39,0.21-2.088,0.326c-0.101-0.254-0.194-0.508-0.288-0.762C234.142,155.451,238.462,154.912,242.819,154.701z
							 M230.62,134.729c0.807-1.119,1.275-2.347,1.498-3.626c0.237,0.102,0.489,0.217,0.741,0.341
							c-0.72,3.656-3.14,6.606-8.13,8.133c-0.058,0.014-0.108,0.036-0.165,0.051c-0.051-0.277-0.094-0.553-0.13-0.815
							C226.875,138.102,229.114,136.823,230.62,134.729z"/>
					</g>
					<g>
						<g>
							<path style="fill:#263238;" d="M264.115,244.508c0,0-0.508-1.064-1.354-2.943c-0.825-1.887-2.06-4.562-3.443-7.809
								c-1.399-3.241-2.991-7.038-4.657-11.122c-0.823-2.045-1.702-4.148-2.545-6.305c-0.851-2.153-1.714-4.341-2.578-6.528
								c-0.842-2.195-1.685-4.392-2.514-6.553c-0.839-2.158-1.61-4.303-2.386-6.367c-1.534-4.135-2.927-8.009-4.085-11.344
								c-1.176-3.328-2.072-6.134-2.738-8.083c-0.647-1.956-0.991-3.084-0.991-3.084s0.509,1.063,1.354,2.943
								c0.826,1.887,2.062,4.561,3.445,7.808c1.399,3.241,2.992,7.038,4.656,11.122c0.823,2.046,1.704,4.147,2.544,6.305
								c0.851,2.153,1.714,4.342,2.577,6.529c0.842,2.196,1.684,4.392,2.513,6.554c0.836,2.159,1.609,4.303,2.385,6.367
								c1.533,4.135,2.926,8.01,4.085,11.344c1.175,3.328,2.073,6.134,2.739,8.082C263.771,243.38,264.115,244.508,264.115,244.508z
								"/>
						</g>
						<g>
							<path style="fill:#263238;" d="M241.868,188.034c0,0-0.485-0.417-1.103-1.116c-0.619-0.702-1.401-1.651-2.069-2.706
								c-0.669-1.052-1.27-2.146-1.659-2.993c-0.397-0.845-0.581-1.443-0.581-1.443s0.48,0.441,1.079,1.158
								c0.606,0.713,1.335,1.699,1.995,2.729c0.313,0.523,0.655,1.038,0.946,1.54c0.296,0.499,0.555,0.976,0.762,1.395
								C241.66,187.43,241.868,188.034,241.868,188.034z"/>
						</g>
					</g>
				</g>
			</g>
			<g>
				<g>
					<path style="fill:#F7A9A0;" d="M320.937,272.832c-9.869,10.394-32.196,9.173-88.702,11.429
						c-7.82,0.312-24.846-54.787-16.514-55.554c10.496-0.966,51.435-2.416,54.442-2.142
						C295.525,228.889,327.631,265.78,320.937,272.832z"/>
					<g>
						<path style="fill:#F7A9A0;" d="M224.469,230.736c0,0-21.233-6.472-33.432-6.387c-16.335,0.114-30.391,7-36.108,10.244
							c-11.936,6.772-36.154,31.476-30.322,39.757c5.279,7.496,28.773-19.018,28.773-19.018s-28.373,23.043-20.371,30.892
							c8.001,7.845,33.536-24.497,33.536-24.497s-28.624,24.336-19.104,31.108c7.194,5.12,31.957-22.859,31.957-22.859
							s-24.461,21.089-17.287,26.676c7.928,6.174,32.391-18.206,32.391-18.206c20.603,11.104,34.913,7.882,44.822,4.368
							C241.724,281.964,224.469,230.736,224.469,230.736z"/>
						<g>
							<path style="fill:#263238;" d="M162.685,246.729c-3.427,2.585-6.918,5.179-10.109,8.063c-3.19,2.884-6.283,5.883-9.194,9.053
								c-7.136,7.777-10.401,13.772-10.158,13.425c5.713-8.235,16.975-18.737,20.167-21.622c3.184-2.878,6.226-5.917,9.407-8.8
								C162.878,246.775,162.767,246.667,162.685,246.729z"/>
							<path style="fill:#263238;" d="M173.212,258.167c-4.238,3.491-8.571,6.802-12.658,10.484
								c-4.067,3.663-7.607,7.5-11.412,11.437c-0.293,0.303-0.035,0.363,0.271,0.07c3.96-3.781,7.908-6.968,11.907-10.7
								c3.99-3.722,7.864-7.626,11.983-11.196C173.369,258.207,173.276,258.114,173.212,258.167z"/>
							<path style="fill:#263238;" d="M183.996,266.343c-6.747,5.003-12.571,11.255-18.14,17.526
								c-0.276,0.313,0.064,0.352,0.366,0.049c5.921-5.94,10.524-10.644,17.948-17.338
								C184.287,266.476,184.139,266.239,183.996,266.343z"/>
						</g>
					</g>
				</g>
				<g>
					<path style="fill:#14A800;" d="M225.871,222.118l39.378,73.646c0,0,55.879-11.271,62.827-22.824
						c4.967-8.259-28.88-43.166-56.888-46.655L225.871,222.118z"/>
					<path style="opacity:0.4;fill:#FFFFFF;" d="M260.188,270.09c2.766,3.953,5.797,7.717,9.053,11.265
						c3.24,3.531,6.956,6.578,10.168,10.117c0.266,0.297,0.525,0.596,0.764,0.9c0.288-0.071,0.575-0.145,0.864-0.21
						c-0.562-0.728-1.175-1.425-1.83-2.094c-3.355-3.466-6.992-6.613-10.226-10.218c-6.416-7.152-13.142-15.583-15.209-25.234
						c-0.973-4.543-0.634-9.37,1.958-13.331c2.074-3.161,5.322-5.218,8.931-6.134c7.244-1.846,15.426,0.336,21.51,4.479
						c7.763,5.282,13.46,13.023,20.294,19.36c5.624,5.212,11.947,9.137,19.66,10.024c0.727,0.087,1.462,0.137,2.202,0.166
						c-0.057-0.27-0.137-0.545-0.236-0.829c-0.512-0.021-1.023-0.058-1.527-0.107c-8.476-0.859-15.188-5.562-21.157-11.397
						c-6.323-6.178-11.89-13.445-19.372-18.294c-5.711-3.692-12.969-5.632-19.724-4.578c-6.785,1.061-12.351,5.777-13.597,12.755
						C251.23,255.052,255.58,263.512,260.188,270.09z"/>
					<g>
						<path style="fill:#263238;" d="M302.749,242.224c-3.508-4.361-15.433-13.734-31.587-15.989
							c-0.143-0.02-0.206,0.204-0.063,0.238c11.872,2.854,27.763,12.011,31.494,15.919
							C302.691,242.494,302.836,242.333,302.749,242.224z"/>
						<path style="fill:#263238;" d="M273.992,282.253c-3.239-7.397-6.866-14.612-10.513-21.816
							c-3.649-7.21-7.285-14.43-11.112-21.549c-2.163-4.021-4.303-8.059-6.604-12.004c-0.06-0.103-0.246-0.026-0.196,0.086
							c3.231,7.388,6.833,14.628,10.427,21.845c3.601,7.234,7.281,14.437,11.025,21.599c2.116,4.049,4.304,8.059,6.604,12.005
							C273.737,282.612,274.087,282.471,273.992,282.253z"/>
						<path style="fill:#263238;" d="M225.969,221.41c3.121-0.184,6.224,0.118,9.34,0.36c3.111,0.241,6.221,0.537,9.325,0.86
							c6.175,0.646,19.335,1.301,30.259,4.292c0.121,0.032-0.656,0.457-0.774,0.419c-5.13-1.693-44.425-4.305-47.546-4.914
							c0.066,0.233,0.129,0.469,0.162,0.718c0.022,0.169-0.18,0.325-0.313,0.172c-0.313-0.363-0.501-0.764-0.785-1.147
							C225.4,221.854,225.564,221.433,225.969,221.41z"/>
					</g>
				</g>
			</g>
		</g>
		<path style="fill:#F7A9A0;" d="M240.731,136.604c0,0-19.239,23.022-35.443,23.989c-16.205,0.968-18.057-18.995-18.057-18.995
			s10.264-11.669,24.283-13.741C229.314,125.225,240.731,136.604,240.731,136.604z"/>
		<g>
			<g>
				<g>
					<path style="fill:#F7A9A0;" d="M225.579,134.716c-0.5,2.567-10.833,18.601-22.283,16.502
						c-8.055-1.474-5.685-17.871-5.685-17.871l-5.917-22.787l27.966-19.346C219.66,91.214,225.776,133.625,225.579,134.716z"/>
					<path style="fill:#263238;" d="M221.791,106.112c-5.815,16.167-18.414,23.356-24.508,25.967l-5.593-21.513l27.965-19.351
						C219.655,91.215,220.621,97.944,221.791,106.112z"/>
				</g>
				<g>
					<path style="fill:#F7A9A0;" d="M161.482,75.03c-5.135,38.24,17.02,45.646,25.205,46.749c7.43,1,32.86,3.457,41.889-34.047
						c9.03-37.503-6.993-51.989-23.869-55.183C187.831,29.354,166.617,36.788,161.482,75.03z"/>
					<g>
						<path style="fill:#263238;" d="M170.447,70.755c0.908-0.053,1.736-0.253,2.626-0.399c1.007-0.164,1.827-0.191,2.603-0.922
							c0.418-0.392,0.437-1.237,0.097-1.681c-0.792-1.034-2.072-1.142-3.293-0.993c-1.323,0.161-2.302,0.626-3.226,1.59
							C168.357,69.286,169.249,70.825,170.447,70.755z"/>
						<path style="fill:#263238;" d="M196.764,73.502c-0.895-0.158-1.695-0.455-2.564-0.704c-0.98-0.28-1.79-0.402-2.477-1.219
							c-0.37-0.438-0.291-1.279,0.1-1.68c0.906-0.935,2.19-0.891,3.386-0.602c1.295,0.314,2.214,0.89,3.02,1.956
							C199.01,72.287,197.943,73.711,196.764,73.502z"/>
						<g>
							<g>
								<path style="fill:#263238;" d="M190.631,81.688c0.027-0.099,0.194,0.141,0.182,0.249c-0.297,2.622-0.199,5.677,2.092,6.744
									c0.069,0.033,0.052,0.165-0.035,0.145C190.021,88.181,189.932,84.125,190.631,81.688z"/>
								<path style="fill:#263238;" d="M193.187,79.133c4.224,0.024,3.861,8.535-0.052,8.511
									C189.281,87.623,189.645,79.113,193.187,79.133z"/>
							</g>
							<path style="fill:#263238;" d="M194.826,79.653c0.718,0.513,1.405,1.395,2.29,1.521c1.024,0.146,1.84-0.711,2.55-1.54
								c0.072-0.086,0.142-0.008,0.14,0.104c-0.045,1.632-0.738,3.279-2.485,3.447c-1.593,0.154-2.667-1.338-3.001-2.994
								C194.257,79.884,194.538,79.447,194.826,79.653z"/>
						</g>
						<g>
							<g>
								<path style="fill:#263238;" d="M175.624,80.176c-0.015-0.101-0.208,0.118-0.209,0.226c-0.009,2.639-0.458,5.661-2.858,6.455
									c-0.074,0.025-0.072,0.158,0.016,0.148C175.478,86.697,176.037,82.678,175.624,80.176z"/>
								<path style="fill:#263238;" d="M173.384,77.34c-4.201-0.469-4.826,8.026-0.936,8.461
									C176.276,86.229,176.903,77.734,173.384,77.34z"/>
							</g>
							<path style="fill:#263238;" d="M171.584,77.769c-0.7,0.4-1.418,1.169-2.219,1.163c-0.927-0.007-1.542-0.978-2.065-1.901
								c-0.054-0.097-0.127-0.03-0.139,0.082c-0.163,1.621,0.245,3.352,1.77,3.778c1.391,0.39,2.531-0.927,3.036-2.516
								C172.06,78.081,171.865,77.607,171.584,77.769z"/>
						</g>
						<path style="fill:#263238;" d="M188.395,102.899c-0.626,0.62-1.251,1.472-2.2,1.556c-0.913,0.079-1.981-0.332-2.818-0.656
							c-0.083-0.032-0.167,0.057-0.112,0.136c0.681,1.01,2.113,1.639,3.327,1.422c1.187-0.212,1.769-1.246,2.054-2.34
							C188.687,102.865,188.484,102.809,188.395,102.899z"/>
						<g>
							<path style="fill:#263238;" d="M177.976,92.778c0,0-0.753,3.905-0.854,5.762c-0.009,0.174,0.433,0.281,1.055,0.353
								c0.031,0.011,0.047,0.024,0.073,0.006c3.226,0.689,6.563-0.264,8.686-2.832c0.138-0.174-0.085-0.378-0.259-0.272
								c-2.526,1.665-5.238,1.981-8.124,1.873c-0.103-0.521,1.511-6.646,1.221-6.685c-1.001-0.142-3.025,0.44-4.236,0.728
								c1.336-8.182,3.961-16.082,5.17-24.249c0.038-0.292-0.375-0.402-0.474-0.146c-3.334,8.084-5.076,17.464-6.671,25.879
								C173.353,94.24,177.223,93.054,177.976,92.778z"/>
						</g>
						<g>
							<path style="fill:#263238;" d="M179.394,98.344c0,0,1.358,2.261,3.416,3.222c0.758,0.357,1.592,0.548,2.499,0.393
								c1.86-0.312,2.06-1.991,1.859-3.461c-0.162-1.21-0.612-2.282-0.612-2.282S183.672,98.475,179.394,98.344z"/>
							<path style="fill:#F49BBC;" d="M182.809,101.566c0.758,0.357,1.592,0.548,2.499,0.393c1.86-0.312,2.06-1.991,1.859-3.461
								C185.201,98.518,183.149,99.671,182.809,101.566z"/>
						</g>
					</g>
					<g>
						<g>
							<path style="fill:#263238;" d="M226.176,89.976c-6.924,1.039-9.053-14.977-9.053-14.977s-29.695-4.41-32.73-28.668
								c0,0-6.664,15.196-22.009,22.551c0,0,3.313-30.163,24.139-35.802c0,0,22.87-8.734,39.061,11.456
								C242.18,65.229,230.824,89.279,226.176,89.976z"/>
						</g>
						<path style="fill:#263238;" d="M184.251,44.536c-0.315,3.717,0.303,7.513,1.561,11.07c1.256,3.557,3.195,6.926,5.796,9.695
							c0.594,0.745,1.365,1.311,2.041,1.974l1.047,0.958c0.373,0.289,0.76,0.558,1.148,0.829c0.778,0.53,1.537,1.095,2.332,1.593
							c0.826,0.447,1.664,0.875,2.501,1.291c0.42,0.206,0.83,0.432,1.257,0.621l1.314,0.479l2.623,0.951
							c1.799,0.463,3.617,0.832,5.42,1.17c-1.716-0.711-3.47-1.234-5.146-1.952l-2.476-1.148l-1.231-0.571
							c-0.399-0.217-0.777-0.469-1.165-0.702c-0.769-0.478-1.538-0.945-2.32-1.395c-0.74-0.51-1.437-1.082-2.158-1.617l-1.075-0.81
							l-0.976-0.924c-0.63-0.638-1.356-1.181-1.907-1.893c-2.492-2.592-4.35-5.73-5.833-9.024c-0.735-1.658-1.313-3.39-1.768-5.161
							C184.743,48.201,184.436,46.385,184.251,44.536z"/>
					</g>
					<g>
						<path style="fill:#37474F;" d="M184.08,83.22l1.102-1.17c-1.64-1.731-5.56-4.219-8.664-1.265l1.049,1.229
							C180.344,79.362,183.928,83.062,184.08,83.22z"/>
						<path style="fill:#37474F;" d="M237.236,94.966l1.599-0.36c-0.167-0.752-1.723-7.394-5.108-8.913
							c-3.167-1.411-24.917-5.047-25.841-5.2l-0.267,1.631c6.237,1.036,22.999,3.982,25.442,5.08
							C235.296,88.207,236.832,93.147,237.236,94.966z"/>
						<path style="fill:#37474F;" d="M197.501,92.627c2.722-0.144,5.196-0.726,6.614-1.802c3.895-2.954,6.292-13.911,6.393-14.375
							l0.229-1.066l-1.082,0.002c-0.826,0-20.315,0.091-24.8,4.434c-2.413,2.335-1.153,8.104,0.463,9.838
							C187.316,91.797,192.781,92.875,197.501,92.627z M208.56,77.15c-0.872,3.542-2.972,10.362-5.491,12.271
							c-3.395,2.573-14.142,1.545-16.481-0.968c-1.122-1.202-2.083-5.863-0.528-7.367C189.164,78.08,202.438,77.254,208.56,77.15z"
							/>
						<path style="fill:#37474F;" d="M170.599,89.108c1.813-0.097,3.726-0.62,4.918-1.894c1.464-1.567,2.915-5.658,1.701-8.96
							c-1.787-4.86-13.636-6.935-14.983-7.155l-1.026-0.168l0.018,1.05c0.008,0.435,0.208,10.698,1.866,13.985
							c0.792,1.566,2.688,2.675,5.202,3.039C168.993,89.107,169.785,89.151,170.599,89.108z M162.994,73.019
							c3.9,0.765,11.486,2.831,12.594,5.845c0.991,2.695-0.344,6.084-1.335,7.146c-1.012,1.082-3.369,1.602-5.711,1.258
							c-1.919-0.278-3.375-1.063-3.898-2.099C163.546,82.996,163.108,76.428,162.994,73.019z"/>
					</g>
					<g>
						<g>
							<path style="fill:#F7A9A0;" d="M220.64,87.194c0,0,8.923-11.631,14.198-8.372c5.276,3.259-1.833,20.398-8.309,22.479
								s-8.502-3.918-8.502-3.918L220.64,87.194z"/>
							<path style="fill:#263238;" d="M232.679,83.684c0.104-0.005,0.116,0.142,0.025,0.173c-4.548,1.608-7.093,5.662-8.944,9.904
								c1.406-1.6,3.256-2.424,5.392-0.729c0.111,0.089-0.009,0.267-0.133,0.235c-1.809-0.481-3.142-0.226-4.446,1.189
								c-0.923,1.002-1.584,2.294-2.268,3.47c-0.228,0.392-0.938,0.142-0.763-0.314c0.013-0.033,0.027-0.068,0.041-0.103
								C221.743,91.774,226.545,83.968,232.679,83.684z"/>
						</g>
					</g>
				</g>
			</g>
		</g>
	</g>
</g>
</svg>
