<?xml version="1.0" encoding="iso-8859-1"?>
<!-- Generator: Adobe Illustrator 16.0.0, SVG Export Plug-In . SVG Version: 6.00 Build 0)  -->
<!DOCTYPE svg PUBLIC "-//W3C//DTD SVG 1.1//EN" "http://www.w3.org/Graphics/SVG/1.1/DTD/svg11.dtd">
<svg version="1.1" xmlns="http://www.w3.org/2000/svg" xmlns:xlink="http://www.w3.org/1999/xlink" x="0px" y="0px" width="750px"
	 height="750px" viewBox="0 0 750 750" style="enable-background:new 0 0 750 750;" xml:space="preserve">
<g id="Background_Complete">
	<g>
		<rect x="43.522" y="165.923" style="fill:#F5F5F5;" width="60.415" height="82.673"/>
	</g>
	<g>
		<rect x="28.21" y="176.33" style="fill:#E0E0E0;" width="60.415" height="82.673"/>
	</g>
	<g>
		<path style="fill:#EBEBEB;" d="M731.668,353.384c-7.049,1.171-11.813,7.835-10.642,14.885c1.17,7.049,7.835,11.814,14.884,10.642
			c6.03-1.002,10.385-6.023,10.786-11.866l0.005-0.001l3.547-0.589l1.893-3.988l2.77,3.213l4.444-0.739l1.893-3.988l2.771,3.213
			l3.82-0.635l1.153-2.431l1.688,1.958l2.223-0.37l2.443-3.235l-4.188-4.604l-26.423,4.392
			C742.038,354.973,736.962,352.504,731.668,353.384z M724.462,367.698c-0.336-2.022,1.031-3.934,3.053-4.27
			c2.021-0.335,3.934,1.031,4.27,3.053c0.337,2.022-1.03,3.934-3.053,4.27C726.71,371.087,724.798,369.72,724.462,367.698z"/>
	</g>
	<g>
		<g>
			<path style="fill:#EBEBEB;" d="M399.663,209.972l1.854,34.095c0.066,1.215,1.065,2.168,2.282,2.177l61.351,0.45
				c1.271,0.009,2.31-1.014,2.319-2.285l0.194-26.539c0.009-1.277-1.022-2.317-2.3-2.319l-37.732-0.033
				c-0.609,0-1.194-0.243-1.625-0.674l-6.511-6.508c-0.428-0.427-1.006-0.669-1.61-0.674l-15.906-0.116
				C400.651,207.537,399.59,208.648,399.663,209.972z"/>
		</g>
		<g>
			
				<rect x="400.527" y="211.293" transform="matrix(1 0.0073 -0.0073 1 1.7067 -3.1743)" style="fill:#F5F5F5;" width="67.036" height="40.058"/>
		</g>
		<g>
			<path style="fill:#EBEBEB;" d="M395.316,214.604l4.813,41.809c0.085,0.743,0.712,1.306,1.46,1.312l65.328,0.479
				c0.772,0.006,1.42-0.584,1.485-1.354l3.596-41.747c0.074-0.86-0.601-1.601-1.464-1.607l-73.736-0.54
				C395.909,212.948,395.214,213.721,395.316,214.604z"/>
		</g>
	</g>
	<g>
		<g>
			<g>
				<g>
					<g>
						<path style="fill:#EBEBEB;" d="M684.961,736.262c-15.552-10.866-19.081-31.033-18.465-49.162
							c0.102-3.026-0.23-6.217,1.209-8.872c1.44-2.654,4.799-4.47,7.508-3.194c2.248,1.058,3.227,3.672,4.484,5.834
							c1.672,2.877,4.164,5.257,7.097,6.778c1.928,1,4.312,1.611,6.214,0.563c2.61-1.44,2.918-5.046,2.899-8.057
							c-0.036-5.609-0.07-11.22-0.105-16.828c-0.019-3.009-0.027-6.082,0.908-8.938c0.937-2.856,3.005-5.511,5.867-6.313
							c2.864-0.802,6.404,0.849,7.009,3.795c0.252,1.226,0.002,2.498,0.086,3.747c0.083,1.25,0.665,2.633,1.852,2.98
							c1.202,0.353,2.406-0.501,3.306-1.382c3.106-3.038,5.215-6.953,7.185-10.847c1.97-3.893,3.883-7.879,6.701-11.193
							s6.718-5.94,11.027-6.186c4.312-0.243,8.903,2.417,9.992,6.648c1.093,4.243-1.383,8.548-4.076,11.982
							c-3.997,5.097-8.725,9.603-13.988,13.334c-0.948,0.674-1.978,1.401-2.34,2.516c-0.653,2.007,1.248,4,3.229,4.659
							c2.243,0.747,4.678,0.514,7.024,0.79s4.89,1.312,5.777,3.529c1.232,3.076-1.341,6.301-3.872,8.413
							c-5.068,4.229-10.857,7.57-17.032,9.832c-2.214,0.811-4.544,1.521-6.329,3.076c-1.786,1.557-2.863,4.261-1.785,6.381
							c1.08,2.122,3.849,2.801,6.167,2.37c2.318-0.43,4.395-1.689,6.605-2.522c4.136-1.562,9.477-1.276,12.126,2.298
							c1.741,2.35,1.895,5.622,1.014,8.423c-0.88,2.801-2.666,5.214-4.563,7.438c-6.629,7.777-15.115,14.039-24.711,17.366
							C703.387,738.848,694.497,739.749,684.961,736.262"/>
					</g>
				</g>
			</g>
		</g>
		<g>
			<g>
				<g>
					<g>
						<g>
							<path style="fill:#E0E0E0;" d="M684.723,749.701c0.657-7.182,2.231-15.663,4.918-24.805
								c2.668-9.149,6.425-18.935,10.705-29.036c1.079-2.521,2.146-5.012,3.197-7.467c1.055-2.447,2.101-4.876,3.271-7.188
								c2.32-4.634,4.904-8.913,7.483-12.897c2.579-3.987,5.172-7.677,7.62-11.109c2.458-3.429,4.809-6.581,7.074-9.362
								c4.515-5.583,8.681-9.646,11.654-12.318c1.484-1.343,2.671-2.345,3.483-3.014c0.392-0.318,0.698-0.567,0.93-0.756
								c0.211-0.167,0.322-0.249,0.328-0.241c0.007,0.007-0.093,0.104-0.292,0.286c-0.223,0.198-0.519,0.461-0.894,0.797
								c-0.789,0.696-1.951,1.725-3.412,3.089c-2.925,2.719-7.033,6.811-11.495,12.408c-2.24,2.789-4.566,5.947-7.004,9.383
								c-2.432,3.442-5.006,7.136-7.567,11.12c-2.561,3.982-5.125,8.252-7.426,12.863c-1.159,2.301-2.194,4.708-3.25,7.163
								c-1.05,2.454-2.114,4.944-3.193,7.464c-4.276,10.093-8.037,19.85-10.726,28.963c-2.703,9.105-4.312,17.545-5.016,24.696"/>
						</g>
					</g>
				</g>
			</g>
		</g>
		<g>
			<g>
				<g>
					<g>
						<g>
							<path style="fill:#E0E0E0;" d="M706.972,681.185c-0.037,0.006-0.14-0.451-0.294-1.283c-0.158-0.832-0.347-2.043-0.559-3.542
								c-0.425-2.996-0.871-7.155-1.347-11.741c-0.475-4.589-0.979-8.729-1.449-11.711c-0.23-1.491-0.43-2.697-0.578-3.528
								c-0.144-0.833-0.205-1.298-0.168-1.307c0.038-0.009,0.17,0.44,0.379,1.262c0.213,0.819,0.472,2.018,0.752,3.505
								c0.571,2.976,1.14,7.126,1.614,11.72c0.457,4.527,0.87,8.622,1.186,11.752c0.151,1.413,0.28,2.604,0.384,3.559
								C706.979,680.71,707.011,681.179,706.972,681.185z"/>
						</g>
					</g>
				</g>
			</g>
		</g>
		<g>
			<g>
				<g>
					<g>
						<g>
							<path style="fill:#E0E0E0;" d="M745.668,673.953c0.001,0.038-0.55,0.103-1.544,0.185c-0.993,0.089-2.431,0.209-4.201,0.414
								c-3.544,0.383-8.421,1.082-13.769,2.09c-5.347,1.018-10.146,2.145-13.594,3.06c-1.729,0.445-3.117,0.844-4.078,1.113
								c-0.961,0.273-1.498,0.407-1.511,0.37c-0.012-0.037,0.504-0.24,1.446-0.579c0.944-0.333,2.319-0.79,4.039-1.287
								c3.431-1.016,8.233-2.207,13.597-3.229c5.362-1.009,10.268-1.65,13.832-1.933c1.781-0.155,3.228-0.216,4.228-0.236
								C745.114,673.905,745.667,673.913,745.668,673.953z"/>
						</g>
					</g>
				</g>
			</g>
		</g>
		<g>
			<g>
				<g>
					<g>
						<g>
							<path style="fill:#E0E0E0;" d="M690.117,724.185c-0.018,0.008-0.108-0.154-0.266-0.472c-0.179-0.379-0.397-0.841-0.661-1.4
								c-0.569-1.218-1.348-3.002-2.279-5.219c-1.867-4.434-4.253-10.638-6.793-17.52c-2.543-6.885-4.867-13.104-6.64-17.568
								c-0.868-2.171-1.583-3.956-2.113-5.283c-0.228-0.576-0.414-1.051-0.567-1.441c-0.124-0.331-0.181-0.51-0.163-0.519
								c0.018-0.007,0.108,0.155,0.266,0.474c0.179,0.378,0.396,0.839,0.661,1.398c0.569,1.218,1.348,3.003,2.279,5.22
								c1.867,4.433,4.253,10.637,6.794,17.522c2.542,6.883,4.867,13.1,6.639,17.566c0.868,2.169,1.582,3.956,2.113,5.282
								c0.228,0.576,0.414,1.052,0.567,1.441C690.078,723.999,690.134,724.177,690.117,724.185z"/>
						</g>
					</g>
				</g>
			</g>
		</g>
		<g>
			<g>
				<g>
					<g>
						<g>
							<path style="fill:#E0E0E0;" d="M741.538,707.612c0.005,0.019-0.172,0.09-0.511,0.21c-0.402,0.135-0.896,0.3-1.493,0.501
								c-1.38,0.447-3.241,1.051-5.507,1.784c-4.649,1.508-11.046,3.664-18.112,6.056c-7.067,2.395-13.491,4.493-18.173,5.905
								c-2.341,0.706-4.24,1.259-5.561,1.614c-0.61,0.16-1.113,0.292-1.522,0.399c-0.351,0.086-0.537,0.121-0.542,0.103
								s0.171-0.091,0.511-0.211c0.4-0.134,0.895-0.299,1.493-0.5c1.379-0.447,3.24-1.05,5.505-1.784
								c4.649-1.507,11.048-3.664,18.115-6.057c7.066-2.394,13.488-4.492,18.17-5.904c2.341-0.707,4.24-1.259,5.562-1.614
								c0.61-0.16,1.113-0.293,1.523-0.4C741.345,707.629,741.531,707.594,741.538,707.612z"/>
						</g>
					</g>
				</g>
			</g>
		</g>
	</g>
	<g>
		<g>
			<g>
				<path style="fill:#EBEBEB;" d="M364.412,172.941c0,0-0.149,0.012-0.456,0.018c-0.324,0.004-0.778,0.01-1.369,0.017
					c-1.23,0.009-3.018,0.02-5.33,0.036c-4.681,0.017-11.47,0.041-19.992,0.071c-17.115,0.026-41.169,0.064-68.997,0.107l-0.187,0
					l-0.053-0.179c-1.428-4.875-0.556-10.589,2.638-14.958c3.182-4.356,8.648-7.133,14.279-6.989l-0.256,0.33
					c-0.413-1.425-0.606-3.031-0.534-4.632c0.214-5.333,3.246-10.485,7.901-12.87c4.595-2.426,10.266-2.336,14.619,0.079
					l-0.357,0.126c2.479-6.05,7.712-10.437,13.391-12.471c5.694-2.069,12.009-1.797,16.973,0.8c4.99,2.557,8.542,6.912,10.509,11.48
					c2.019,4.595,2.296,9.528,1.292,13.765l-0.192-0.219c2.854-0.316,5.615,0.174,7.987,1.144c2.375,0.974,4.394,2.404,5.925,4.061
					c0.763,0.826,1.423,1.721,1.867,2.676c0.441,0.952,0.77,1.907,0.993,2.842c0.458,1.869,0.623,3.621,0.679,5.19
					c0.101,3.146-0.279,5.57-0.622,7.176c-0.186,0.802-0.346,1.405-0.496,1.809C364.488,172.751,364.412,172.941,364.412,172.941"/>
			</g>
		</g>
	</g>
</g>
<g id="Background_Simple" style="display:none;">
	<path style="display:inline;fill:#E0E0E0;" d="M607.298,278.353c-23.915-32.642-66.104-52.993-105.772-44.999
		c-52.397,10.56-85.782,63.545-135.4,83.422c-48.852,19.569-104.3,4.006-156.557,10.225c-22.771,2.709-46.142,10.339-61.454,27.409
		c-14.762,16.458-20.041,39.574-19.929,61.682c0.307,60.609,42.444,130.641,98.932,152.613l9.26,1.615
		c50.609,6.417,158.528,5.776,209.184-0.27s112.663-40.645,146.196-79.089c23.472-26.909,37.187-61.575,41.62-97.006
		C638.403,353.804,631.213,310.995,607.298,278.353z"/>
</g>
<g id="Floor">
	<g>
		<g>
			<path style="fill:#263238;" d="M692.399,749.74c0,0.144-143.772,0.26-321.083,0.26c-177.373,0-321.114-0.116-321.114-0.26
				c0-0.145,143.742-0.261,321.114-0.261C548.626,749.479,692.399,749.596,692.399,749.74z"/>
		</g>
	</g>
</g>
<g id="Plant">
	<g>
		<g>
			<g>
				<path style="fill:#E9E2C2;" d="M684.326,714.829c1.748,2.246,4.876,1.314,6.273-0.18c1.396-1.495,1.913-3.586,2.379-5.578
					c1.064-4.553,2.129-9.325,0.938-13.846c-0.356-1.352-0.936-2.688-1.946-3.652c-1.012-0.966-2.518-1.494-3.85-1.069
					c-1.576,0.503-2.489,2.117-3.132,3.642c-1.888,4.481-2.759,9.387-2.53,14.243C682.565,710.657,682.952,713.022,684.326,714.829"
					/>
			</g>
		</g>
		<g style="opacity:0.2;">
			<g>
				<path d="M684.326,714.829c1.748,2.246,4.876,1.314,6.273-0.18c1.396-1.495,1.913-3.586,2.379-5.578
					c1.064-4.553,2.129-9.325,0.938-13.846c-0.356-1.352-0.936-2.688-1.946-3.652c-1.012-0.966-2.518-1.494-3.85-1.069
					c-1.576,0.503-2.489,2.117-3.132,3.642c-1.888,4.481-2.759,9.387-2.53,14.243C682.565,710.657,682.952,713.022,684.326,714.829"
					/>
			</g>
		</g>
		<g>
			<g>
				<path style="fill:#E9E2C2;" d="M691.028,726.31c2.596-1.511,5.726-1.848,8.709-1.508c1.604,0.182,3.285,0.574,4.427,1.713
					c1.142,1.14,1.453,3.23,0.263,4.319c-0.708,0.648-1.734,0.793-2.694,0.831c-2.317,0.09-4.908-0.188-6.688,1.299
					c-1.016,0.849-1.651,2.206-2.895,2.661c-1.216,0.445-2.646-0.214-3.357-1.295s-0.803-2.474-0.562-3.745
					C688.23,730.585,688.414,727.83,691.028,726.31z"/>
			</g>
		</g>
		<g>
			<g>
				<path style="fill:#E9E2C2;" d="M680.019,718.396c1.663-2.189,1.845-5.27,0.924-7.861c-0.92-2.591-2.813-4.739-4.955-6.463
					c-2.512-2.021-5.422-3.545-8.513-4.46c-1.217-0.359-2.494-0.628-3.75-0.443c-1.256,0.184-2.493,0.894-3.024,2.045
					c-0.786,1.703,0.149,3.674,1.135,5.271c1.735,2.813,3.692,5.488,5.848,7.994c1.733,2.016,3.702,3.991,6.23,4.813
					c2.528,0.823,5.099,0.581,6.327-1.205"/>
			</g>
		</g>
		<g>
			<g>
				<g>
					<path style="fill:#263238;" d="M685.99,749.949c0.031,0,0.062-0.38,0.095-1.065c0.036-0.773,0.081-1.745,0.135-2.9
						c0.073-1.222,0.178-2.676,0.436-4.268c0.257-1.587,0.697-3.315,1.286-5.075c0.613-1.751,1.389-3.353,2.323-4.65
						c0.928-1.303,2.034-2.268,3.091-2.845c1.053-0.588,2.01-0.854,2.674-0.983c0.672-0.104,1.047-0.176,1.046-0.206
						c-0.002-0.03-0.381-0.016-1.072,0.038c-0.686,0.08-1.685,0.305-2.796,0.88c-1.116,0.564-2.292,1.547-3.267,2.878
						c-0.983,1.325-1.788,2.964-2.412,4.746c-0.6,1.791-1.031,3.536-1.271,5.156c-0.239,1.618-0.313,3.087-0.346,4.316
						c-0.03,1.23-0.015,2.225,0.003,2.911C685.933,749.569,685.96,749.948,685.99,749.949z"/>
				</g>
			</g>
		</g>
		<g>
			<g>
				<g>
					<path style="fill:#263238;" d="M686.077,747.718c0.016-0.001,0.016-0.171,0.004-0.492c-0.02-0.369-0.045-0.833-0.075-1.403
						c-0.064-1.218-0.153-2.98-0.197-5.16c-0.112-4.358-0.042-10.387,0.349-17.028c0.396-6.645,1.062-12.636,1.727-16.944
						c0.154-1.079,0.315-2.052,0.471-2.904c0.146-0.854,0.27-1.589,0.395-2.186c0.105-0.562,0.191-1.019,0.259-1.381
						c0.055-0.317,0.076-0.485,0.062-0.489c-0.015-0.003-0.064,0.158-0.146,0.469c-0.09,0.359-0.202,0.811-0.34,1.366
						c-0.151,0.592-0.3,1.324-0.469,2.176c-0.179,0.85-0.361,1.821-0.535,2.899c-0.746,4.308-1.462,10.31-1.858,16.968
						c-0.391,6.655-0.413,12.698-0.222,17.064c0.085,2.184,0.221,3.947,0.338,5.163c0.063,0.568,0.115,1.031,0.156,1.398
						C686.034,747.553,686.062,747.72,686.077,747.718z"/>
				</g>
			</g>
		</g>
		<g>
			<g>
				<g>
					<path style="fill:#263238;" d="M685.518,736.093c0.03-0.003-0.001-0.523-0.084-1.466c-0.102-0.939-0.3-2.294-0.649-3.949
						c-0.365-1.65-0.858-3.606-1.585-5.722c-0.695-2.125-1.62-4.411-2.766-6.726c-2.248-4.661-5.172-8.416-7.666-10.708
						c-0.589-0.611-1.232-1.042-1.751-1.469c-0.268-0.204-0.505-0.409-0.745-0.569c-0.24-0.147-0.464-0.286-0.671-0.414
						c-0.808-0.494-1.259-0.754-1.274-0.728c-0.064,0.099,1.809,1.077,4.229,3.404c2.411,2.323,5.257,6.056,7.487,10.677
						c1.135,2.295,2.064,4.559,2.776,6.662c0.742,2.094,1.263,4.028,1.664,5.66c0.386,1.636,0.63,2.976,0.782,3.903
						C685.4,735.58,685.489,736.096,685.518,736.093z"/>
				</g>
			</g>
		</g>
	</g>
</g>
<g id="User">
	<g>
		<g>
			<g>
				<g>
					<g>
						<rect x="627.869" y="160.315" style="fill:#FAFAFA;" width="113.057" height="75.722"/>
					</g>
				</g>
			</g>
		</g>
		<g>
			<g>
				<g>
					<g>
						<path style="fill:#263238;" d="M710.217,206.238h-3.013v-18.124c0-4.353-3.541-7.895-7.895-7.895s-7.895,3.542-7.895,7.895
							v18.124h-3.014v-18.124c0-6.014,4.894-10.907,10.908-10.907c6.014,0,10.907,4.894,10.907,10.907V206.238z"/>
					</g>
				</g>
				<g>
					<g>
						<path style="fill:#263238;" d="M710.831,217.312h-23.042c-1.873,0-3.392-1.519-3.392-3.393v-12.351
							c0-1.874,1.519-3.393,3.392-3.393h23.042c1.874,0,3.392,1.519,3.392,3.393v12.351
							C714.222,215.793,712.705,217.312,710.831,217.312z"/>
					</g>
				</g>
				<g>
					<g>
						<g>
							<path style="fill:#455A64;" d="M699.31,207.743c-1.377,0-2.493-1.116-2.493-2.492c0-1.377,1.116-2.493,2.493-2.493
								s2.492,1.116,2.492,2.493C701.802,206.627,700.687,207.743,699.31,207.743"/>
						</g>
					</g>
					<g>
						<g>
							<rect x="698.63" y="206.238" style="fill:#455A64;" width="1.359" height="5.127"/>
						</g>
					</g>
				</g>
			</g>
		</g>
		<g>
			<g>
				<g>
					<path style="fill:#E9E2C2;" d="M683.653,206.022c4.188-1.757,7.167-6.076,7.191-11.166c0.027-6.667-5.019-12.096-11.271-12.124
						c-6.25-0.028-11.341,5.353-11.368,12.02c-0.021,5.137,2.979,9.508,7.213,11.271c-17.419,2.625-16.63,21.557-16.63,21.557
						l41.192,0.189C699.981,227.769,700.92,208.631,683.653,206.022z"/>
				</g>
			</g>
		</g>
		<g>
			<g>
				<g>
					<g>
						<g>
							<path style="fill:#263238;" d="M740.925,236.037c0,0-0.014-0.477-0.021-1.382c-0.006-0.916-0.014-2.254-0.023-4
								c-0.012-3.511-0.03-8.652-0.053-15.234c-0.026-13.157-0.064-32.061-0.109-55.106l0.207,0.208
								c-31.157,0.015-70.455,0.033-113.048,0.052h-0.009l0.26-0.26c-0.008,26.977-0.016,52.629-0.021,75.722l-0.238-0.238
								c33.271,0.048,61.504,0.089,81.434,0.117c9.972,0.027,17.863,0.049,23.275,0.064c2.699,0.013,4.777,0.022,6.195,0.028
								c0.697,0.007,1.229,0.011,1.602,0.015C740.736,236.027,740.925,236.037,740.925,236.037s-0.172,0.01-0.523,0.014
								c-0.365,0.004-0.889,0.009-1.574,0.015c-1.406,0.007-3.469,0.016-6.146,0.028c-5.401,0.016-13.273,0.037-23.223,0.064
								c-19.967,0.028-48.254,0.069-81.59,0.117l-0.239,0.001v-0.239c-0.007-23.093-0.014-48.745-0.021-75.722l-0.001-0.26h0.262
								h0.009c42.593,0.02,81.891,0.038,113.048,0.052h0.209v0.208c-0.046,23.099-0.084,42.047-0.109,55.235
								c-0.023,6.563-0.041,11.688-0.053,15.188c-0.011,1.729-0.019,3.054-0.023,3.96
								C740.941,235.59,740.925,236.037,740.925,236.037z"/>
						</g>
					</g>
				</g>
			</g>
		</g>
		<g>
			<g>
				<path style="fill:#263238;" d="M740.901,169.412c0,0.144-25.294,0.26-56.487,0.26c-31.205,0-56.492-0.117-56.492-0.26
					c0-0.144,25.287-0.261,56.492-0.261C715.607,169.151,740.901,169.268,740.901,169.412z"/>
			</g>
		</g>
		<g>
			<g>
				<circle style="fill:#263238;" cx="634.145" cy="164.871" r="1.168"/>
			</g>
			<g>
				<circle style="fill:#263238;" cx="637.972" cy="164.871" r="1.168"/>
			</g>
			<g>
				<circle style="fill:#263238;" cx="642.085" cy="164.871" r="1.168"/>
			</g>
		</g>
		<g>
			<g>
				<g>
					<g>
						<g>
							<path style="fill:#263238;" d="M740.925,236.037c0,0-0.014-0.477-0.021-1.382c-0.006-0.916-0.014-2.254-0.023-4
								c-0.012-3.511-0.03-8.652-0.053-15.234c-0.026-13.157-0.064-32.061-0.109-55.106l0.207,0.208
								c-31.157,0.015-70.455,0.033-113.048,0.052h-0.009l0.26-0.26c-0.008,26.977-0.016,52.629-0.021,75.722l-0.238-0.238
								c33.271,0.048,61.504,0.089,81.434,0.117c9.972,0.027,17.863,0.049,23.275,0.064c2.699,0.013,4.777,0.022,6.195,0.028
								c0.697,0.007,1.229,0.011,1.602,0.015C740.736,236.027,740.925,236.037,740.925,236.037s-0.172,0.01-0.523,0.014
								c-0.365,0.004-0.889,0.009-1.574,0.015c-1.406,0.007-3.469,0.016-6.146,0.028c-5.401,0.016-13.273,0.037-23.223,0.064
								c-19.967,0.028-48.254,0.069-81.59,0.117l-0.239,0.001v-0.239c-0.007-23.093-0.014-48.745-0.021-75.722l-0.001-0.26h0.262
								h0.009c42.593,0.02,81.891,0.038,113.048,0.052h0.209v0.208c-0.046,23.099-0.084,42.047-0.109,55.235
								c-0.023,6.563-0.041,11.688-0.053,15.188c-0.011,1.729-0.019,3.054-0.023,3.96
								C740.941,235.59,740.925,236.037,740.925,236.037z"/>
						</g>
					</g>
				</g>
			</g>
		</g>
	</g>
	<g>
		<g>
			<g>
				
					<ellipse transform="matrix(-1 0.0084 -0.0084 -1 1260.2487 461.0815)" style="fill:#263238;" cx="629.155" cy="233.189" rx="1.162" ry="0.26"/>
			</g>
		</g>
		<g>
			<g>
				
					<ellipse transform="matrix(-1 0.0084 -0.0084 -1 1242.6655 461.3342)" style="fill:#263238;" cx="620.369" cy="233.264" rx="2.541" ry="0.261"/>
			</g>
		</g>
		<g>
			<g>
				
					<ellipse transform="matrix(-1 0.0085 -0.0085 -1 1222.3557 461.5338)" style="fill:#263238;" cx="610.203" cy="233.35" rx="2.542" ry="0.261"/>
			</g>
		</g>
		<g>
			<g>
				
					<ellipse transform="matrix(-1 0.0084 -0.0084 -1 1202.0042 461.8469)" style="fill:#263238;" cx="600.037" cy="233.435" rx="2.542" ry="0.261"/>
			</g>
		</g>
		<g>
			<g>
				
					<ellipse transform="matrix(-1 0.0085 -0.0085 -1 1181.6919 462.0484)" style="fill:#263238;" cx="589.87" cy="233.521" rx="2.542" ry="0.26"/>
			</g>
		</g>
		<g>
			<g>
				<path style="fill:#263238;" d="M579.944,236.104c-0.134,0-0.251-1.117-0.263-2.498c0.479-0.525,0.132-0.146,0.24-0.262
					l0.002-0.001h0.002l0.003,0h0.008l0.016,0h0.029h0.06l0.117,0l0.231,0.002c0.139,0.003,0.28,0.007,0.437,0.011
					c0.277,0.011,0.528,0.028,0.738,0.049c0.421,0.044,0.682,0.107,0.682,0.179c0.001,0.072-0.258,0.139-0.679,0.19
					c-0.211,0.025-0.461,0.047-0.738,0.062c-0.154,0.007-0.297,0.012-0.435,0.019l-0.232,0.007l-0.117,0.001l-0.06,0.001h-0.03
					h-0.015h-0.008h-0.003l-0.003,0h-0.001c0.106-0.117-0.24,0.262,0.239-0.262C580.176,234.983,580.078,236.104,579.944,236.104z"
					/>
			</g>
		</g>
		<g>
			<g>
				
					<ellipse transform="matrix(0.0085 1 -1 0.0085 818.5145 -338.5909)" style="fill:#263238;" cx="580.006" cy="243.475" rx="2.457" ry="0.242"/>
			</g>
		</g>
		<g>
			<g>
				
					<ellipse transform="matrix(0.0085 1 -1 0.0085 828.4221 -328.9317)" style="fill:#263238;" cx="580.089" cy="253.301" rx="2.456" ry="0.242"/>
			</g>
		</g>
		<g>
			<g>
				
					<ellipse transform="matrix(0.0087 1 -1 0.0087 838.215 -319.3229)" style="fill:#263238;" cx="580.171" cy="263.127" rx="2.457" ry="0.241"/>
			</g>
		</g>
		<g>
			<g>
				
					<ellipse transform="matrix(0.0087 1 -1 0.0087 848.1227 -309.6657)" style="fill:#263238;" cx="580.254" cy="272.954" rx="2.456" ry="0.241"/>
			</g>
		</g>
		<g>
			<g>
				
					<ellipse transform="matrix(0.0085 1 -1 0.0085 858.1476 -299.9532)" style="fill:#263238;" cx="580.338" cy="282.781" rx="2.456" ry="0.243"/>
			</g>
		</g>
		<g>
			<g>
				
					<ellipse transform="matrix(0.0087 1 -1 0.0087 867.9402 -290.3502)" style="fill:#263238;" cx="580.42" cy="292.607" rx="2.457" ry="0.242"/>
			</g>
		</g>
		<g>
			<g>
				
					<ellipse transform="matrix(0.0085 1 -1 0.0085 877.9641 -280.6344)" style="fill:#263238;" cx="580.504" cy="302.434" rx="2.456" ry="0.243"/>
			</g>
		</g>
		<g>
			<g>
				
					<ellipse transform="matrix(0.0085 1 -1 0.0085 887.8729 -270.9733)" style="fill:#263238;" cx="580.586" cy="312.26" rx="2.457" ry="0.242"/>
			</g>
		</g>
		<g>
			<g>
				
					<ellipse transform="matrix(0.0085 1 -1 0.0085 897.7813 -261.3136)" style="fill:#263238;" cx="580.669" cy="322.087" rx="2.457" ry="0.242"/>
			</g>
		</g>
		<g>
			<g>
				
					<ellipse transform="matrix(0.0085 1 -1 0.0085 907.6901 -251.6539)" style="fill:#263238;" cx="580.752" cy="331.913" rx="2.457" ry="0.243"/>
			</g>
		</g>
		<g>
			<g>
				
					<ellipse transform="matrix(0.0086 1 -1 0.0086 916.3541 -243.1964)" style="fill:#263238;" cx="580.825" cy="340.533" rx="1.25" ry="0.242"/>
			</g>
		</g>
	</g>
</g>
<g id="Document">
	<g>
		<g>
			<g>
				<g>
					<g>
						<g>
							<rect x="17.857" y="189.027" style="fill:#FFFFFF;" width="60.415" height="82.673"/>
						</g>
						<g>
							<g>
								<path style="fill:#263238;" d="M78.302,271.678c0,0-0.01-0.143-0.016-0.407c-0.004-0.283-0.009-0.668-0.017-1.17
									c-0.008-1.046-0.021-2.558-0.036-4.519c-0.02-3.957-0.049-9.708-0.085-16.982c-0.044-14.55-0.105-35.181-0.179-59.596
									l0.273,0.273c-18.194,0.021-38.738,0.046-60.408,0.072h-0.006l0.301-0.302c0.001,30.88,0.003,59.469,0.004,82.673
									l-0.246-0.245c18.273,0.04,33.344,0.073,43.87,0.096c5.257,0.023,9.378,0.042,12.208,0.054
									c1.396,0.011,2.468,0.02,3.217,0.026C77.913,271.661,78.302,271.678,78.302,271.678s-0.354,0.018-1.067,0.027
									c-0.738,0.007-1.795,0.017-3.171,0.03c-2.817,0.017-6.919,0.041-12.153,0.072c-10.563,0.038-25.687,0.093-44.024,0.16
									l-0.246,0.001l0-0.247c-0.032-23.204-0.072-51.792-0.115-82.673l0-0.302h0.301h0.007c21.67-0.005,42.214-0.011,60.408-0.015
									h0.274l0,0.273c-0.038,24.488-0.07,45.181-0.093,59.774c-0.026,7.247-0.046,12.979-0.061,16.92
									c-0.013,1.937-0.023,3.43-0.03,4.464c-0.006,0.488-0.011,0.864-0.015,1.14C78.313,271.557,78.308,271.684,78.302,271.678z"
									/>
							</g>
						</g>
					</g>
					<g>
						<g>
							
								<ellipse transform="matrix(1 -7.317842e-004 7.317842e-004 1 -0.1505 0.0294)" style="fill:#263238;" cx="40.108" cy="205.649" rx="14.679" ry="0.301"/>
						</g>
					</g>
					<g>
						<g>
							
								<ellipse transform="matrix(1 -7.231749e-004 7.231749e-004 1 -0.1539 0.0348)" style="fill:#263238;" cx="48.052" cy="212.827" rx="22.619" ry="0.302"/>
						</g>
					</g>
					<g>
						<g>
							
								<ellipse transform="matrix(1 -7.123812e-004 7.123812e-004 1 -0.1569 0.0343)" style="fill:#263238;" cx="48.057" cy="220.321" rx="22.619" ry="0.302"/>
						</g>
					</g>
					<g>
						<g>
							
								<ellipse transform="matrix(1 -7.231749e-004 7.231749e-004 1 -0.1647 0.0348)" style="fill:#263238;" cx="48.063" cy="227.816" rx="22.619" ry="0.302"/>
						</g>
					</g>
					<g>
						<g>
							
								<ellipse transform="matrix(1 -7.231671e-004 7.231671e-004 1 -0.1702 0.0348)" style="fill:#263238;" cx="48.068" cy="235.31" rx="22.619" ry="0.302"/>
						</g>
					</g>
					<g>
						<g>
							
								<ellipse transform="matrix(1 -7.123812e-004 7.123812e-004 1 -0.173 0.0343)" style="fill:#263238;" cx="48.073" cy="242.805" rx="22.619" ry="0.302"/>
						</g>
					</g>
					<g>
						<g>
							
								<ellipse transform="matrix(1 -7.231749e-004 7.231749e-004 1 -0.181 0.0348)" style="fill:#263238;" cx="48.079" cy="250.299" rx="22.619" ry="0.302"/>
						</g>
					</g>
					<g>
						<g>
							
								<ellipse transform="matrix(1 -7.229204e-004 7.229204e-004 1 -0.1864 0.0273)" style="fill:#263238;" cx="37.624" cy="257.801" rx="12.158" ry="0.301"/>
						</g>
					</g>
				</g>
			</g>
		</g>
		<g>
			<g>
				<circle style="fill:#E9E2C2;" cx="73.018" cy="265.417" r="12.271"/>
			</g>
			<g>
				<g>
					<path style="fill:#E0E0E0;" d="M80.056,260.686c0.526,0.491-1.884,3.925-5.382,7.67c-0.563,0.603-1.12,1.176-1.649,1.702
						l-0.849,0.843l-0.844-0.708c-3.053-2.564-5.049-4.762-4.679-5.238s2.99,0.921,6.225,3.252l-1.693,0.134
						c0.489-0.565,1.023-1.159,1.586-1.762C76.269,262.833,79.531,260.195,80.056,260.686z"/>
				</g>
			</g>
		</g>
	</g>
	<g>
		<g>
			<g>
				<ellipse style="fill:#263238;" cx="43.41" cy="274.084" rx="0.178" ry="2.878"/>
			</g>
		</g>
		<g>
			<g>
				<ellipse style="fill:#263238;" cx="43.41" cy="285.597" rx="0.178" ry="2.878"/>
			</g>
		</g>
		<g>
			<g>
				<ellipse style="fill:#263238;" cx="43.41" cy="297.11" rx="0.178" ry="2.878"/>
			</g>
		</g>
		<g>
			<g>
				<ellipse style="fill:#263238;" cx="43.41" cy="308.623" rx="0.178" ry="2.878"/>
			</g>
		</g>
		<g>
			<g>
				<ellipse style="fill:#263238;" cx="43.41" cy="320.136" rx="0.178" ry="2.878"/>
			</g>
		</g>
		<g>
			<g>
				<ellipse style="fill:#263238;" cx="43.41" cy="331.649" rx="0.178" ry="2.878"/>
			</g>
		</g>
		<g>
			<g>
				<ellipse style="fill:#263238;" cx="43.41" cy="343.162" rx="0.178" ry="2.878"/>
			</g>
		</g>
		<g>
			<g>
				<ellipse style="fill:#263238;" cx="43.41" cy="354.675" rx="0.178" ry="2.878"/>
			</g>
		</g>
		<g>
			<g>
				<path style="fill:#263238;" d="M46.701,363.511c0,0.165-0.763,0.299-1.705,0.299c-0.724,0-1.342-0.08-1.585-0.191l-0.076-0.035
					l0.011-0.073c0.02-0.132,0.042-0.202,0.064-0.202c0.022,0,0.044,0.069,0.064,0.202l-0.064-0.108
					c0.244-0.112,0.862-0.192,1.585-0.192C45.938,363.21,46.701,363.345,46.701,363.511z"/>
			</g>
		</g>
		<g>
			<g>
				<ellipse style="fill:#263238;" cx="51.815" cy="363.511" rx="1.705" ry="0.299"/>
			</g>
		</g>
		<g>
			<g>
				<ellipse style="fill:#263238;" cx="58.635" cy="363.511" rx="1.705" ry="0.299"/>
			</g>
		</g>
		<g>
			<g>
				<ellipse style="fill:#263238;" cx="65.455" cy="363.511" rx="1.705" ry="0.299"/>
			</g>
		</g>
		<g>
			<g>
				<ellipse style="fill:#263238;" cx="72.275" cy="363.511" rx="1.705" ry="0.299"/>
			</g>
		</g>
	</g>
</g>
<g id="Cloud">
	<g>
		<g>
			<g>
				<ellipse style="fill:#263238;" cx="235.731" cy="157.602" rx="0.26" ry="6.832"/>
			</g>
		</g>
		<g>
			<g>
				<ellipse style="fill:#263238;" cx="235.731" cy="184.933" rx="0.26" ry="6.835"/>
			</g>
		</g>
		<g>
			<g>
				<ellipse style="fill:#263238;" cx="235.731" cy="212.271" rx="0.26" ry="6.832"/>
			</g>
		</g>
		<g>
			<g>
				<ellipse style="fill:#263238;" cx="235.731" cy="239.601" rx="0.26" ry="6.833"/>
			</g>
		</g>
		<g>
			<g>
				<ellipse style="fill:#263238;" cx="235.731" cy="266.943" rx="0.26" ry="6.839"/>
			</g>
		</g>
		<g>
			<g>
				<ellipse style="fill:#263238;" cx="235.731" cy="294.3" rx="0.26" ry="6.835"/>
			</g>
		</g>
		<g>
			<g>
				<ellipse style="fill:#263238;" cx="235.731" cy="321.643" rx="0.26" ry="6.835"/>
			</g>
		</g>
		<g>
			<g>
				<ellipse style="fill:#263238;" cx="235.731" cy="348.991" rx="0.26" ry="6.841"/>
			</g>
		</g>
	</g>
	<g>
		<g>
			<g>
				<g>
					<path style="fill:#E9E2C2;" d="M305.163,147.123c0,0-0.227,0.018-0.691,0.027c-0.491,0.006-1.178,0.016-2.073,0.027
						c-1.862,0.013-4.568,0.03-8.07,0.054c-7.087,0.025-17.367,0.062-30.269,0.107c-25.914,0.04-62.333,0.096-104.467,0.162
						l-0.282,0l-0.08-0.271c-2.163-7.382-0.841-16.032,3.993-22.647c4.818-6.597,13.094-10.8,21.62-10.582l-0.387,0.5
						c-0.626-2.157-0.918-4.59-0.809-7.014c0.323-8.075,4.914-15.875,11.962-19.486c6.957-3.673,15.544-3.537,22.135,0.119
						l-0.54,0.191c3.755-9.161,11.678-15.803,20.273-18.882c8.621-3.133,18.182-2.721,25.699,1.211
						c7.556,3.871,12.933,10.464,15.912,17.382c3.056,6.957,3.479,14.426,1.957,20.84l-0.292-0.332
						c4.321-0.478,8.502,0.264,12.093,1.733c3.599,1.475,6.652,3.64,8.971,6.148c1.154,1.25,2.154,2.606,2.826,4.05
						c0.668,1.441,1.166,2.887,1.503,4.304c0.695,2.83,0.944,5.483,1.029,7.859c0.152,4.763-0.423,8.434-0.942,10.865
						c-0.28,1.215-0.524,2.127-0.749,2.738C305.277,146.835,305.163,147.123,305.163,147.123"/>
				</g>
			</g>
		</g>
		<g>
			<g>
				<g>
					<g>
						<path style="fill:#E0E0E0;" d="M291.91,107.005h-4.51V79.876c0-6.517-5.302-11.817-11.816-11.817
							c-6.517,0-11.818,5.301-11.818,11.817v27.129h-4.511V79.876c0-9.003,7.325-16.328,16.329-16.328
							c9.003,0,16.327,7.325,16.327,16.328V107.005z"/>
					</g>
				</g>
				<g>
					<g>
						<path style="fill:#E0E0E0;" d="M293.933,123.581h-36.702c-2.194,0-3.973-1.778-3.973-3.973V98.91
							c0-2.195,1.779-3.973,3.973-3.973h36.702c2.194,0,3.972,1.778,3.972,3.973v20.698
							C297.905,121.802,296.127,123.581,293.933,123.581z"/>
					</g>
				</g>
				<g>
					<g>
						<g>
							<path style="fill:#455A64;" d="M275.582,109.259c-2.06,0-3.731-1.671-3.731-3.732c0-2.061,1.671-3.731,3.731-3.731
								c2.061,0,3.732,1.671,3.732,3.731C279.314,107.588,277.643,109.259,275.582,109.259"/>
						</g>
					</g>
					<g>
						<g>
							<rect x="274.563" y="107.005" style="fill:#455A64;" width="2.037" height="7.674"/>
						</g>
					</g>
				</g>
			</g>
		</g>
	</g>
</g>
<g id="Key">
	<g>
		<g>
			<g>
				<path style="fill:#263238;" d="M732.934,332.165c7.237-6.752,7.631-18.094,0.879-25.333c-6.754-7.238-18.096-7.631-25.333-0.878
					c-6.19,5.776-7.369,14.907-3.356,21.958l-3.646,3.402l0.871,6.053l-5.66-1.586l-4.563,4.257l0.872,6.053l-5.66-1.586
					l-3.922,3.659l0.531,3.689l-3.45-0.967l-2.281,2.13l-0.342,5.605l8.361,2.105l27.131-25.313
					C719.748,338.276,727.499,337.236,732.934,332.165z M730.284,310.124c1.938,2.077,1.824,5.33-0.251,7.267
					c-2.077,1.937-5.33,1.824-7.268-0.252c-1.937-2.077-1.824-5.33,0.252-7.267C725.093,307.935,728.347,308.048,730.284,310.124z"
					/>
			</g>
			<g>
				<g>
					<path style="fill:none;" d="M732.934,332.165c7.237-6.752,7.631-18.094,0.879-25.333c-6.754-7.238-18.096-7.631-25.333-0.878
						c-6.19,5.776-7.369,14.907-3.356,21.958l-3.646,3.402l0.871,6.053l-5.66-1.586l-4.563,4.257l0.872,6.053l-5.66-1.586
						l-3.922,3.659l0.531,3.689l-3.45-0.967l-2.281,2.13l-0.342,5.605l8.361,2.105l27.131-25.313
						C719.748,338.276,727.499,337.236,732.934,332.165z M730.284,310.124c1.938,2.077,1.824,5.33-0.251,7.267
						c-2.077,1.937-5.33,1.824-7.268-0.252c-1.937-2.077-1.824-5.33,0.252-7.267C725.093,307.935,728.347,308.048,730.284,310.124z"
						/>
				</g>
				<g>
					<g>
						<path style="fill:#263238;" d="M730.284,310.124c-0.032,0.034-0.335-0.313-1.021-0.735c-0.673-0.413-1.814-0.87-3.235-0.71
							c-1.395,0.131-3.054,1.026-3.894,2.71c-0.866,1.634-0.7,4.022,0.795,5.597c1.466,1.602,3.838,1.933,5.528,1.182
							c1.738-0.721,2.747-2.314,2.975-3.697c0.257-1.407-0.12-2.577-0.484-3.277C730.573,310.48,730.248,310.154,730.284,310.124
							c0.012-0.011,0.096,0.065,0.246,0.222c0.153,0.153,0.356,0.406,0.569,0.763c0.424,0.698,0.875,1.911,0.644,3.415
							c-0.2,1.477-1.248,3.219-3.124,4.023c-0.917,0.403-2.014,0.555-3.09,0.347c-1.081-0.188-2.127-0.758-2.928-1.603
							c-0.787-0.857-1.282-1.94-1.396-3.032c-0.133-1.088,0.095-2.171,0.561-3.058c0.933-1.815,2.742-2.74,4.229-2.838
							c1.517-0.127,2.694,0.407,3.362,0.879c0.341,0.236,0.579,0.456,0.722,0.62C730.225,310.024,730.295,310.113,730.284,310.124z"
							/>
					</g>
				</g>
				<g>
					<g>
						<path style="fill:#263238;" d="M732.934,332.165c0,0-0.083,0.088-0.258,0.248c-0.188,0.169-0.45,0.401-0.79,0.704
							c-0.737,0.565-1.841,1.42-3.469,2.205c-1.621,0.777-3.766,1.496-6.369,1.712c-2.592,0.195-5.661-0.137-8.738-1.494
							l0.148-0.025c-6.993,6.548-16.297,15.258-27.086,25.36l-0.081,0.075l-0.106-0.027c-2.625-0.657-5.461-1.368-8.363-2.096
							l-0.168-0.042l0.01-0.174c0.105-1.748,0.221-3.665,0.337-5.606l0.005-0.085l0.063-0.059c0.708-0.661,1.492-1.394,2.281-2.131
							l0.089-0.083l0.117,0.033c1.074,0.301,2.258,0.631,3.449,0.965l-0.274,0.241c-0.166-1.152-0.35-2.416-0.533-3.688
							l-0.016-0.114l0.084-0.079c1.231-1.15,2.569-2.4,3.92-3.66l0.091-0.085l0.12,0.033c1.787,0.5,3.716,1.041,5.659,1.585
							l-0.28,0.247c-0.276-1.918-0.573-3.979-0.872-6.053l-0.017-0.116l0.086-0.08c0.382-0.356,0.795-0.742,1.209-1.128
							c1.125-1.049,2.243-2.092,3.354-3.128l0.093-0.085l0.12,0.033c1.903,0.534,3.79,1.063,5.659,1.587l-0.28,0.246
							c-0.293-2.039-0.583-4.057-0.87-6.053l-0.016-0.115l0.084-0.079c1.229-1.145,2.445-2.279,3.648-3.4l-0.041,0.268
							c-1.412-2.538-2.225-5.354-2.33-8.161c-0.058-1.4,0.025-2.797,0.297-4.147c0.232-1.357,0.667-2.66,1.194-3.898
							c2.149-4.979,6.487-8.563,11.142-10.005c4.68-1.484,9.585-0.89,13.417,1.014c3.889,1.877,6.645,5.033,8.25,8.242
							c1.568,3.26,2.027,6.59,1.763,9.407c-0.233,2.833-1.083,5.165-2.011,6.901c-0.114,0.219-0.226,0.432-0.333,0.638
							c-0.127,0.196-0.25,0.385-0.369,0.569c-0.244,0.363-0.447,0.718-0.68,1.017c-0.484,0.583-0.855,1.106-1.221,1.471
							c-0.356,0.356-0.631,0.63-0.829,0.827C733.037,332.078,732.934,332.165,732.934,332.165s0.084-0.106,0.262-0.299
							c0.19-0.203,0.455-0.485,0.798-0.851c0.354-0.372,0.715-0.9,1.185-1.486c0.227-0.3,0.423-0.657,0.66-1.02
							c0.115-0.184,0.235-0.374,0.358-0.569c0.104-0.207,0.212-0.418,0.322-0.637c0.9-1.732,1.717-4.048,1.926-6.848
							c0.24-2.785-0.236-6.064-1.795-9.265c-1.599-3.149-4.321-6.239-8.146-8.064c-3.767-1.854-8.577-2.419-13.153-0.953
							c-4.551,1.423-8.786,4.94-10.877,9.808c-0.512,1.211-0.935,2.483-1.159,3.81c-0.264,1.318-0.344,2.684-0.284,4.05
							c0.106,2.741,0.902,5.488,2.282,7.963l0.085,0.151l-0.126,0.117c-1.202,1.123-2.417,2.257-3.645,3.404l0.067-0.193
							c0.288,1.996,0.579,4.014,0.873,6.053l0.049,0.338l-0.329-0.092c-1.87-0.523-3.756-1.052-5.659-1.585l0.213-0.052
							c-1.11,1.037-2.229,2.08-3.354,3.129c-0.414,0.386-0.827,0.772-1.209,1.128l0.068-0.196c0.298,2.075,0.595,4.135,0.871,6.053
							l0.048,0.34l-0.329-0.093c-1.945-0.545-3.873-1.086-5.659-1.588l0.211-0.051c-1.351,1.259-2.69,2.508-3.923,3.657l0.066-0.192
							c0.184,1.273,0.364,2.537,0.53,3.689l0.048,0.332l-0.322-0.09c-1.192-0.335-2.375-0.667-3.449-0.969l0.206-0.05
							c-0.791,0.736-1.575,1.468-2.284,2.128l0.067-0.143c-0.12,1.942-0.238,3.858-0.346,5.606l-0.158-0.216
							c2.901,0.733,5.736,1.45,8.359,2.112l-0.187,0.048c10.825-10.063,20.159-18.74,27.177-25.263l0.065-0.061l0.082,0.036
							c3.022,1.354,6.048,1.703,8.611,1.531c2.576-0.192,4.705-0.882,6.322-1.633c1.625-0.757,2.734-1.587,3.485-2.132
							c0.349-0.29,0.617-0.512,0.811-0.673C732.833,332.234,732.934,332.165,732.934,332.165z"/>
					</g>
				</g>
			</g>
		</g>
		<g>
			<g>
				<path style="fill:#E0E0E0;" d="M732.333,330.13c7.238-6.752,7.632-18.094,0.879-25.333c-6.752-7.238-18.094-7.631-25.332-0.878
					c-6.191,5.776-7.369,14.907-3.356,21.958l-0.005,0.005l-3.643,3.397l0.871,6.054l-5.659-1.586l-4.563,4.257l0.871,6.053
					l-5.659-1.586l-3.922,3.659l0.53,3.689l-3.448-0.967l-2.283,2.13l-0.342,5.606l8.361,2.104l27.132-25.312
					C719.148,336.242,726.897,335.202,732.333,330.13z M729.683,308.09c1.938,2.076,1.824,5.33-0.252,7.267
					c-2.076,1.937-5.329,1.824-7.267-0.252c-1.938-2.076-1.825-5.33,0.252-7.267C724.493,305.901,727.746,306.014,729.683,308.09z"
					/>
			</g>
			<g>
				<g>
					<path style="fill:none;" d="M732.333,330.13c7.238-6.752,7.632-18.094,0.879-25.333c-6.752-7.238-18.094-7.631-25.332-0.878
						c-6.191,5.776-7.369,14.907-3.356,21.958l-0.005,0.005l-3.643,3.397l0.871,6.054l-5.659-1.586l-4.563,4.257l0.871,6.053
						l-5.659-1.586l-3.922,3.659l0.53,3.689l-3.448-0.967l-2.283,2.13l-0.342,5.606l8.361,2.104l27.132-25.312
						C719.148,336.242,726.897,335.202,732.333,330.13z M729.683,308.09c1.938,2.076,1.824,5.33-0.252,7.267
						c-2.076,1.937-5.329,1.824-7.267-0.252c-1.938-2.076-1.825-5.33,0.252-7.267C724.493,305.901,727.746,306.014,729.683,308.09z"
						/>
				</g>
				<g>
					<g>
						<path style="fill:#263238;" d="M729.683,308.09c-0.033,0.034-0.336-0.313-1.021-0.735c-0.674-0.413-1.814-0.869-3.236-0.71
							c-1.396,0.131-3.054,1.027-3.894,2.711c-0.865,1.634-0.7,4.022,0.795,5.596c1.467,1.602,3.839,1.933,5.529,1.182
							c1.738-0.721,2.746-2.314,2.974-3.697c0.258-1.407-0.119-2.577-0.484-3.277C729.973,308.447,729.647,308.12,729.683,308.09
							c0.012-0.01,0.096,0.065,0.247,0.222c0.153,0.153,0.355,0.407,0.568,0.763c0.425,0.698,0.876,1.911,0.645,3.415
							c-0.201,1.476-1.249,3.218-3.125,4.023c-0.917,0.403-2.013,0.555-3.09,0.347c-1.081-0.188-2.128-0.758-2.929-1.603
							c-0.785-0.856-1.282-1.939-1.394-3.031c-0.134-1.088,0.094-2.171,0.56-3.058c0.932-1.815,2.742-2.74,4.229-2.837
							c1.516-0.127,2.695,0.407,3.361,0.879c0.342,0.236,0.58,0.456,0.722,0.621C729.625,307.99,729.695,308.08,729.683,308.09z"/>
					</g>
				</g>
				<g>
					<g>
						<path style="fill:#263238;" d="M732.333,330.13c0,0-0.082,0.088-0.257,0.248c-0.189,0.168-0.45,0.4-0.789,0.704
							c-0.738,0.565-1.841,1.42-3.47,2.205c-1.62,0.777-3.765,1.496-6.369,1.711c-2.592,0.194-5.661-0.137-8.738-1.495l0.147-0.024
							c-6.993,6.548-16.296,15.258-27.086,25.36l-0.079,0.075l-0.106-0.027c-2.626-0.658-5.462-1.369-8.364-2.096l-0.169-0.042
							l0.011-0.174c0.105-1.749,0.22-3.665,0.338-5.607l0.005-0.084l0.063-0.059c0.708-0.661,1.492-1.394,2.281-2.131l0.089-0.083
							l0.116,0.033c1.074,0.3,2.258,0.631,3.45,0.965l-0.274,0.241c-0.167-1.152-0.349-2.416-0.532-3.689l-0.017-0.114l0.083-0.078
							c1.232-1.15,2.571-2.4,3.921-3.661l0.092-0.085l0.12,0.034c1.786,0.5,3.715,1.04,5.659,1.585l-0.281,0.246
							c-0.276-1.918-0.573-3.978-0.872-6.053l-0.017-0.116l0.086-0.08c0.382-0.356,0.795-0.742,1.209-1.128
							c1.125-1.049,2.243-2.093,3.354-3.128l0.092-0.086l0.121,0.034c1.903,0.534,3.789,1.063,5.659,1.587l-0.281,0.246
							c-0.292-2.039-0.582-4.058-0.868-6.053l-0.017-0.115l0.085-0.079c1.228-1.145,2.443-2.279,3.647-3.401l-0.041,0.268
							c-1.412-2.538-2.225-5.354-2.33-8.161c-0.059-1.399,0.025-2.797,0.297-4.146c0.233-1.358,0.667-2.66,1.193-3.898
							c2.15-4.979,6.489-8.563,11.143-10.005c4.679-1.485,9.586-0.89,13.417,1.013c3.89,1.877,6.645,5.033,8.25,8.242
							c1.567,3.26,2.026,6.59,1.763,9.407c-0.233,2.833-1.082,5.166-2.012,6.901c-0.114,0.219-0.225,0.432-0.333,0.639
							c-0.127,0.195-0.249,0.385-0.368,0.568c-0.243,0.363-0.446,0.719-0.68,1.018c-0.483,0.583-0.855,1.106-1.221,1.47
							c-0.356,0.356-0.631,0.63-0.828,0.827C732.435,330.044,732.333,330.13,732.333,330.13s0.085-0.106,0.263-0.299
							c0.19-0.203,0.454-0.485,0.798-0.851c0.354-0.372,0.714-0.9,1.185-1.486c0.227-0.3,0.424-0.657,0.66-1.021
							c0.116-0.183,0.235-0.373,0.357-0.568c0.105-0.206,0.213-0.418,0.323-0.637c0.899-1.732,1.718-4.048,1.926-6.848
							c0.24-2.785-0.235-6.064-1.796-9.265c-1.597-3.149-4.32-6.238-8.144-8.064c-3.767-1.854-8.579-2.419-13.155-0.953
							c-4.55,1.423-8.786,4.94-10.876,9.808c-0.513,1.211-0.935,2.483-1.159,3.81c-0.264,1.318-0.343,2.684-0.284,4.051
							c0.105,2.741,0.903,5.488,2.283,7.963l0.084,0.151l-0.125,0.117c-1.203,1.123-2.418,2.257-3.646,3.403l0.068-0.192
							c0.287,1.996,0.578,4.014,0.873,6.053l0.048,0.338l-0.329-0.092c-1.869-0.524-3.757-1.052-5.659-1.585l0.212-0.051
							c-1.11,1.036-2.228,2.079-3.353,3.128c-0.415,0.387-0.827,0.772-1.21,1.128l0.069-0.195c0.299,2.075,0.594,4.134,0.87,6.053
							l0.049,0.339l-0.33-0.092c-1.943-0.545-3.872-1.086-5.658-1.587l0.211-0.051c-1.351,1.259-2.69,2.508-3.924,3.657l0.068-0.192
							c0.182,1.273,0.363,2.537,0.528,3.689l0.048,0.332l-0.322-0.091c-1.19-0.334-2.374-0.667-3.447-0.968l0.204-0.05
							c-0.789,0.736-1.574,1.468-2.283,2.128l0.067-0.144c-0.12,1.941-0.238,3.858-0.347,5.605l-0.157-0.215
							c2.901,0.732,5.735,1.449,8.359,2.112l-0.187,0.048c10.826-10.064,20.159-18.741,27.176-25.264l0.066-0.061l0.081,0.037
							c3.022,1.354,6.049,1.703,8.612,1.532c2.575-0.193,4.706-0.883,6.323-1.633c1.624-0.757,2.734-1.587,3.484-2.132
							c0.349-0.29,0.616-0.512,0.811-0.673C732.233,330.2,732.333,330.13,732.333,330.13z"/>
					</g>
				</g>
			</g>
		</g>
		<g>
			<g>
				<path style="fill:#263238;" d="M730.688,328.732c-0.062-0.053,1.048-0.939,2.407-3.037c0.693-1.035,1.348-2.433,1.842-4.126
					c0.485-1.694,0.746-3.725,0.513-5.935c-0.239-2.197-0.938-4.595-2.363-6.785c-1.424-2.166-3.451-4.217-6.088-5.511
					c-1.293-0.683-2.732-1.161-4.236-1.431c-0.75-0.166-1.524-0.199-2.303-0.266c-0.78,0.013-1.57-0.002-2.358,0.117
					c-3.168,0.337-6.298,1.781-8.787,4.06c-2.446,2.324-4.105,5.348-4.662,8.486c-0.174,0.778-0.213,1.567-0.28,2.345
					c0.013,0.781-0.009,1.556,0.105,2.315c0.165,1.52,0.543,2.989,1.134,4.327c1.108,2.72,3.016,4.884,5.077,6.455
					c2.086,1.573,4.431,2.437,6.605,2.828c2.188,0.386,4.231,0.266,5.955-0.1c1.724-0.376,3.163-0.933,4.244-1.553
					C729.678,329.713,730.638,328.668,730.688,328.732c0.005,0.005-0.057,0.067-0.181,0.182c-0.146,0.129-0.33,0.295-0.561,0.502
					c-0.243,0.225-0.557,0.49-0.962,0.757c-0.396,0.28-0.846,0.615-1.408,0.903c-1.079,0.65-2.528,1.239-4.274,1.644
					c-1.746,0.396-3.826,0.542-6.063,0.167c-2.223-0.378-4.626-1.243-6.771-2.84c-2.121-1.595-4.087-3.804-5.236-6.592
					c-0.612-1.372-1.006-2.879-1.18-4.44c-0.118-0.78-0.101-1.576-0.113-2.379c0.065-0.8,0.106-1.611,0.282-2.412
					c0.566-3.227,2.271-6.342,4.788-8.731c2.558-2.345,5.783-3.828,9.041-4.168c0.811-0.121,1.622-0.104,2.425-0.115
					c0.799,0.069,1.595,0.106,2.364,0.279c1.545,0.281,3.021,0.779,4.348,1.484c2.701,1.34,4.77,3.453,6.213,5.68
					c1.444,2.251,2.141,4.709,2.364,6.952c0.218,2.256-0.071,4.321-0.587,6.036c-0.524,1.714-1.213,3.118-1.937,4.151
					c-0.325,0.542-0.69,0.967-0.998,1.342c-0.293,0.387-0.579,0.68-0.822,0.907c-0.222,0.216-0.399,0.389-0.539,0.525
					C730.758,328.681,730.693,328.738,730.688,328.732z"/>
			</g>
		</g>
		<g>
			<g>
				<path style="fill:#263238;" d="M729.959,316.014c-0.036-0.035,0.374-0.386,0.874-1.189c0.489-0.79,1.032-2.13,0.848-3.805
					c-0.097-0.825-0.364-1.723-0.902-2.54c-0.538-0.809-1.3-1.574-2.287-2.054c-0.97-0.496-2.146-0.733-3.325-0.583
					c-1.184,0.128-2.349,0.668-3.278,1.518c-0.913,0.867-1.532,1.994-1.742,3.166c-0.232,1.166-0.077,2.357,0.351,3.358
					c0.41,1.018,1.121,1.831,1.891,2.424c0.777,0.593,1.655,0.923,2.472,1.076c1.657,0.3,3.032-0.148,3.854-0.582
					C729.548,316.36,729.927,315.976,729.959,316.014c0.01,0.011-0.081,0.108-0.267,0.283c-0.18,0.178-0.479,0.414-0.896,0.66
					c-0.818,0.492-2.236,1.015-3.991,0.741c-0.863-0.141-1.801-0.471-2.638-1.089c-0.83-0.617-1.599-1.475-2.05-2.561
					c-0.47-1.069-0.646-2.347-0.402-3.602c0.219-1.26,0.884-2.479,1.867-3.411c0.999-0.917,2.261-1.495,3.533-1.626
					c1.268-0.156,2.529,0.109,3.563,0.651c1.053,0.526,1.855,1.352,2.412,2.222c0.559,0.879,0.824,1.836,0.904,2.708
					c0.151,1.77-0.468,3.148-1.016,3.931c-0.274,0.4-0.53,0.681-0.721,0.85C730.072,315.941,729.969,316.025,729.959,316.014z"/>
			</g>
		</g>
		<g>
			<g>
				
					<ellipse transform="matrix(-0.7312 0.6822 -0.6822 -0.7312 1442.2917 121.3398)" style="fill:#263238;" cx="697.24" cy="344.827" rx="18.87" ry="0.223"/>
			</g>
		</g>
	</g>
	<g>
		<g>
			<g>
				<ellipse style="fill:#263238;" cx="622.283" cy="502.564" rx="3.48" ry="0.397"/>
			</g>
		</g>
		<g>
			<g>
				<ellipse style="fill:#263238;" cx="636.202" cy="502.564" rx="3.48" ry="0.397"/>
			</g>
		</g>
		<g>
			<g>
				<ellipse style="fill:#263238;" cx="650.122" cy="502.564" rx="3.48" ry="0.397"/>
			</g>
		</g>
		<g>
			<g>
				<ellipse style="fill:#263238;" cx="664.041" cy="502.564" rx="3.48" ry="0.397"/>
			</g>
		</g>
		<g>
			<g>
				<ellipse style="fill:#263238;" cx="677.961" cy="502.564" rx="3.48" ry="0.397"/>
			</g>
		</g>
		<g>
			<g>
				<ellipse style="fill:#263238;" cx="691.88" cy="502.564" rx="3.48" ry="0.397"/>
			</g>
		</g>
		<g>
			<g>
				<path style="fill:#263238;" d="M707.169,500.26c0.15,0,0.277,0.949,0.333,2.305l0.015,0.349l-0.348,0.017
					c-0.42,0.021-0.883,0.032-1.37,0.032c-1.922,0-3.479-0.177-3.479-0.397c0-0.218,1.558-0.396,3.479-0.396
					c0.487,0,0.95,0.012,1.37,0.032l-0.333,0.363C706.892,501.209,707.02,500.26,707.169,500.26z"/>
			</g>
		</g>
		<g>
			<g>
				<ellipse style="fill:#263238;" cx="707.169" cy="488.847" rx="0.363" ry="3.804"/>
			</g>
		</g>
		<g>
			<g>
				<ellipse style="fill:#263238;" cx="707.169" cy="473.63" rx="0.363" ry="3.804"/>
			</g>
		</g>
		<g>
			<g>
				<ellipse style="fill:#263238;" cx="707.169" cy="458.414" rx="0.363" ry="3.804"/>
			</g>
		</g>
		<g>
			<g>
				<ellipse style="fill:#263238;" cx="707.169" cy="443.197" rx="0.363" ry="3.804"/>
			</g>
		</g>
		<g>
			<g>
				<ellipse style="fill:#263238;" cx="707.169" cy="427.98" rx="0.363" ry="3.804"/>
			</g>
		</g>
		<g>
			<g>
				<ellipse style="fill:#263238;" cx="707.169" cy="412.764" rx="0.363" ry="3.805"/>
			</g>
		</g>
		<g>
			<g>
				<ellipse style="fill:#263238;" cx="707.169" cy="397.547" rx="0.363" ry="3.804"/>
			</g>
		</g>
		<g>
			<g>
				<ellipse style="fill:#263238;" cx="707.169" cy="382.33" rx="0.363" ry="3.805"/>
			</g>
		</g>
		<g>
			<g>
				<ellipse style="fill:#263238;" cx="707.169" cy="367.114" rx="0.363" ry="3.804"/>
			</g>
		</g>
		<g>
			<g>
				<ellipse style="fill:#263238;" cx="707.169" cy="351.897" rx="0.363" ry="3.804"/>
			</g>
		</g>
	</g>
</g>
<g id="Folder">
	<g>
		<g>
			<g>
				
					<ellipse transform="matrix(-0.0023 -1 1 -0.0023 151.8456 842.1542)" style="fill:#263238;" cx="496.014" cy="345.332" rx="2.5" ry="0.262"/>
			</g>
		</g>
		<g>
			<g>
				
					<ellipse transform="matrix(-0.0023 -1 1 -0.0023 161.8237 832.1094)" style="fill:#263238;" cx="495.993" cy="335.332" rx="2.5" ry="0.261"/>
			</g>
		</g>
		<g>
			<g>
				<ellipse style="fill:#263238;" cx="495.97" cy="325.333" rx="0.261" ry="2.5"/>
			</g>
		</g>
		<g>
			<g>
				
					<ellipse transform="matrix(-0.0021 -1 1 -0.0021 181.6823 811.9569)" style="fill:#263238;" cx="495.948" cy="315.332" rx="2.5" ry="0.261"/>
			</g>
		</g>
		<g>
			<g>
				
					<ellipse transform="matrix(-0.0023 -1 1 -0.0023 191.7573 801.9729)" style="fill:#263238;" cx="495.926" cy="305.332" rx="2.5" ry="0.261"/>
			</g>
		</g>
		<g>
			<g>
				
					<ellipse transform="matrix(-0.0021 -1 1 -0.0021 201.6379 791.8702)" style="fill:#263238;" cx="495.904" cy="295.333" rx="2.5" ry="0.26"/>
			</g>
		</g>
		<g>
			<g>
				
					<ellipse transform="matrix(-0.0021 -1 1 -0.0021 211.6155 781.8259)" style="fill:#263238;" cx="495.882" cy="285.332" rx="2.5" ry="0.261"/>
			</g>
		</g>
		<g>
			<g>
				
					<ellipse transform="matrix(-0.0021 -1 1 -0.0021 221.5939 771.783)" style="fill:#263238;" cx="495.86" cy="275.332" rx="2.5" ry="0.261"/>
			</g>
		</g>
		<g>
			<g>
				
					<ellipse transform="matrix(-0.0021 -1 1 -0.0021 231.5713 761.7393)" style="fill:#263238;" cx="495.838" cy="265.333" rx="2.5" ry="0.26"/>
			</g>
		</g>
		<g>
			<g>
				<ellipse style="fill:#263238;" cx="495.816" cy="255.333" rx="0.261" ry="2.5"/>
			</g>
		</g>
		<g>
			<g>
				<path style="fill:#263238;" d="M494.854,243.761c0.002-0.082,0.363-0.151,0.938-0.195l0.184-0.014l0.019,0.216
					c0.037,0.421,0.06,0.969,0.061,1.564c0.003,1.381-0.11,2.5-0.255,2.5c-0.144,0-0.262-1.119-0.266-2.5
					c0-0.596,0.02-1.143,0.055-1.564l0.201,0.203C495.215,243.918,494.854,243.844,494.854,243.761z"/>
			</g>
		</g>
		<g>
			<g>
				
					<ellipse transform="matrix(-1 -0.0075 0.0075 -1 972.863 491.0647)" style="fill:#263238;" cx="487.354" cy="243.704" rx="2.501" ry="0.261"/>
			</g>
		</g>
		<g>
			<g>
				
					<ellipse transform="matrix(-1 -0.0078 0.0078 -1 952.7935 490.9739)" style="fill:#263238;" cx="477.355" cy="243.626" rx="2.501" ry="0.26"/>
			</g>
		</g>
		<g>
			<g>
				
					<ellipse transform="matrix(-1 -0.0078 0.0078 -1 932.793 490.7443)" style="fill:#263238;" cx="467.355" cy="243.55" rx="2.5" ry="0.26"/>
			</g>
		</g>
	</g>
	<g>
		<g>
			<path style="fill:#E9E2C2;" d="M377.887,227.688l1.837,33.795c0.065,1.204,1.056,2.149,2.262,2.158l60.812,0.445
				c1.26,0.009,2.289-1.005,2.298-2.265l0.192-26.306c0.01-1.266-1.014-2.297-2.279-2.299l-37.4-0.033
				c-0.604,0-1.184-0.24-1.61-0.668l-6.453-6.45c-0.424-0.423-0.997-0.663-1.597-0.667l-15.766-0.116
				C378.867,225.273,377.815,226.375,377.887,227.688z"/>
		</g>
		<g>
			
				<rect x="378.744" y="228.998" transform="matrix(1 0.0073 -0.0073 1 1.8324 -3.0086)" style="fill:#F5F5F5;" width="66.446" height="39.705"/>
		</g>
		<g>
			<path style="fill:#E9E2C2;" d="M373.579,232.28l4.77,41.44c0.085,0.736,0.706,1.294,1.447,1.3l64.754,0.475
				c0.765,0.005,1.406-0.579,1.472-1.342l3.563-41.38c0.073-0.853-0.595-1.587-1.451-1.593l-73.086-0.536
				C374.166,230.638,373.478,231.404,373.579,232.28z"/>
		</g>
	</g>
</g>
<g id="Device">
	<g>
		<g>
			<g>
				<g>
					<path style="fill:#263238;" d="M61.7,448.262c-0.005,0.006-0.137-0.072-0.39-0.236c-0.26-0.172-0.634-0.422-1.126-0.75
						c-0.497-0.336-1.112-0.752-1.843-1.25c-0.731-0.502-1.597-1.057-2.496-1.805c-0.917-0.723-1.942-1.533-3.071-2.426
						c-1.122-0.904-2.251-2.01-3.528-3.143c-2.507-2.316-5.214-5.193-8.025-8.631c-5.559-6.9-11.236-16.381-15.164-28.4
						c-3.85-12.002-5.974-26.487-4.778-42.348c0.609-7.913,1.885-16.186,4.3-24.523c2.376-8.335,5.736-16.809,10.637-24.802
						c1.207-2.007,2.569-3.943,3.983-5.859c1.492-1.851,2.996-3.716,4.513-5.596c1.604-1.805,3.275-3.577,4.93-5.387
						c1.693-1.772,3.525-3.435,5.301-5.178c7.305-6.765,15.524-12.934,24.334-18.624c17.638-11.41,37.579-20.854,58.104-30.688
						c20.461-10.023,42.026-19.636,64.137-29.358c88.554-38.782,169.599-71.822,228.636-94.761
						c29.5-11.521,53.581-20.302,70.235-26.323c8.343-2.968,14.854-5.179,19.259-6.705c2.201-0.749,3.88-1.32,5.021-1.708
						c0.561-0.184,0.988-0.324,1.284-0.421c0.288-0.091,0.437-0.132,0.439-0.122c0.004,0.01-0.138,0.07-0.419,0.181
						c-0.292,0.11-0.712,0.269-1.265,0.478c-1.131,0.413-2.798,1.022-4.98,1.82c-4.395,1.584-10.857,3.915-19.181,6.916
						c-16.602,6.155-40.63,15.054-70.085,26.674c-58.945,23.137-139.928,56.296-228.462,95.069
						c-22.113,9.724-43.646,19.313-64.111,29.32c-20.54,9.823-40.443,19.226-58.013,30.557c-8.777,5.65-16.954,11.767-24.217,18.469
						c-1.765,1.725-3.588,3.372-5.271,5.127c-1.644,1.792-3.305,3.546-4.899,5.331c-1.507,1.861-3.002,3.707-4.485,5.538
						c-1.399,1.89-2.745,3.792-3.942,5.773c-4.858,7.88-8.213,16.271-10.593,24.534c-2.42,8.265-3.712,16.475-4.344,24.332
						c-1.242,15.748,0.809,30.143,4.571,42.08c3.84,11.953,9.417,21.408,14.89,28.313c2.768,3.441,5.435,6.33,7.906,8.664
						c1.259,1.145,2.371,2.258,3.477,3.172c1.113,0.906,2.123,1.73,3.026,2.467c0.884,0.758,1.737,1.33,2.455,1.846
						c0.716,0.516,1.319,0.949,1.806,1.299c0.477,0.35,0.839,0.613,1.091,0.797C61.586,448.156,61.706,448.252,61.7,448.262z"/>
				</g>
			</g>
		</g>
		<g>
			<g>
				<g>
					<g>
						<polygon style="fill:#E9E2C2;" points="507.035,41.291 528.357,58.97 526.39,79.217 543.86,69.505 562.467,82.723 
							631.828,38.18 						"/>
					</g>
				</g>
				<g style="opacity:0.5;">
					<g>
						<polygon points="528.357,58.97 629.948,38.227 538.702,65.842 526.39,79.217 526.39,79.217 						"/>
					</g>
				</g>
			</g>
			<g style="opacity:0.8;">
				<g>
					<polygon points="538.702,65.842 543.86,69.505 526.39,79.217 					"/>
				</g>
			</g>
		</g>
	</g>
	<g>
		<g>
			<g>
				<g>
					<g>
						<g>
							<g>
								<path style="fill:#263238;" d="M613.324,744.51H75.921c-12.918,0-23.391-10.472-23.391-23.391V381.586
									c0-12.917,10.473-23.391,23.391-23.391h537.402c12.916,0,23.389,10.474,23.389,23.391v339.533
									C636.712,734.038,626.24,744.51,613.324,744.51z"/>
							</g>
						</g>
					</g>
					<g>
						<g>
							<g>
								<path style="fill:#263238;" d="M632.442,749.74H56.678c-15.782,0-28.576-12.796-28.576-28.578v-5.224h632.916v5.224
									C661.018,736.944,648.223,749.74,632.442,749.74z"/>
							</g>
						</g>
					</g>
					<g>
						<g>
							<g>
								<rect x="68.212" y="373.544" style="fill:#455A64;" width="551.188" height="326.236"/>
							</g>
						</g>
					</g>
					<g>
						<g>
							<g>
								<polygon style="fill:#455A64;" points="287.034,715.938 294.889,728.432 405.404,728.432 412.698,715.938 								"/>
							</g>
						</g>
					</g>
				</g>
				<g>
					<g>
						<g>
							<g>
								<g>
									<g>
										<g>
											<path style="fill:#EBEBEB;" d="M603.923,698.737H84.821c-2.903,0-5.256-2.354-5.256-5.257V389.845
												c0-2.902,2.353-5.255,5.255-5.255h519.103c2.902,0,5.256,2.353,5.256,5.254v303.639
												C609.179,696.384,606.826,698.737,603.923,698.737z"/>
										</g>
									</g>
								</g>
							</g>
							<g>
								<g>
									<g>
										<g>
											<rect x="79.565" y="407.607" style="fill:#FAFAFA;" width="529.614" height="291.13"/>
										</g>
									</g>
								</g>
							</g>
							<g>
								<g>
									<g>
										<g>
											<circle style="fill:#263238;" cx="118.772" cy="396.721" r="4.23"/>
										</g>
									</g>
								</g>
							</g>
							<g>
								<g>
									<g>
										<g>
											<circle style="fill:#263238;" cx="93.137" cy="396.721" r="4.23"/>
										</g>
									</g>
								</g>
							</g>
							<g>
								<g>
									<g>
										<g>
											<circle style="fill:#263238;" cx="105.442" cy="396.721" r="4.23"/>
										</g>
									</g>
								</g>
							</g>
						</g>
					</g>
				</g>
				<g>
					<g>
						<g>
							<path style="fill:#455A64;" d="M631.694,715.938c0,0.209-129.661,0.38-289.568,0.38c-159.962,0-289.595-0.171-289.595-0.38
								c0-0.21,129.633-0.378,289.595-0.378C502.033,715.561,631.694,715.729,631.694,715.938z"/>
						</g>
					</g>
				</g>
			</g>
			<g>
				<g>
					<g>
						<rect x="116.269" y="554.264" style="fill:#E0E0E0;" width="120.855" height="8.084"/>
					</g>
				</g>
				<g>
					<g>
						<rect x="272.371" y="442.018" style="fill:#E0E0E0;" width="120.856" height="8.085"/>
					</g>
				</g>
				<g>
					<g>
						<g>
							<path style="fill:#E0E0E0;" d="M572.976,472.125c0,0.211-67.3,0.379-150.296,0.379c-83.025,0-150.31-0.168-150.31-0.379
								c0-0.206,67.284-0.377,150.31-0.377C505.676,471.748,572.976,471.919,572.976,472.125z"/>
						</g>
					</g>
				</g>
				<g>
					<g>
						<g>
							<path style="fill:#E0E0E0;" d="M572.976,489.781c0,0.207-67.3,0.377-150.296,0.377c-83.025,0-150.31-0.17-150.31-0.377
								c0-0.209,67.284-0.379,150.31-0.379C505.676,489.402,572.976,489.572,572.976,489.781z"/>
						</g>
					</g>
				</g>
				<g>
					<g>
						<g>
							<path style="fill:#E0E0E0;" d="M572.976,507.435c0,0.209-67.3,0.378-150.296,0.378c-83.025,0-150.31-0.169-150.31-0.378
								c0-0.21,67.284-0.38,150.31-0.38C505.676,507.055,572.976,507.225,572.976,507.435z"/>
						</g>
					</g>
				</g>
				<g>
					<g>
						<g>
							<path style="fill:#E0E0E0;" d="M572.976,525.089c0,0.209-67.3,0.379-150.296,0.379c-83.025,0-150.31-0.17-150.31-0.379
								c0-0.211,67.284-0.379,150.31-0.379C505.676,524.71,572.976,524.878,572.976,525.089z"/>
						</g>
					</g>
				</g>
				<g>
					<g>
						<g>
							<path style="fill:#E0E0E0;" d="M572.976,542.741c0,0.21-67.3,0.38-150.296,0.38c-83.025,0-150.31-0.17-150.31-0.38
								c0-0.208,67.284-0.378,150.31-0.378C505.676,542.363,572.976,542.533,572.976,542.741z"/>
						</g>
					</g>
				</g>
				<g>
					<g>
						<g>
							<path style="fill:#E0E0E0;" d="M389.711,560.396c0,0.209-26.269,0.378-58.667,0.378c-32.41,0-58.674-0.169-58.674-0.378
								s26.264-0.378,58.674-0.378C363.443,560.018,389.711,560.187,389.711,560.396z"/>
						</g>
					</g>
				</g>
				<g>
					<g>
						<g>
							<path style="fill:#E0E0E0;" d="M570.777,594.657c0,0.209-44.232,0.378-98.786,0.378c-54.569,0-98.795-0.169-98.795-0.378
								c0-0.208,44.226-0.379,98.795-0.379C526.544,594.278,570.777,594.449,570.777,594.657z"/>
						</g>
					</g>
				</g>
				<g>
					<g>
						<g>
							<path style="fill:#E0E0E0;" d="M570.777,613.396c0,0.209-44.232,0.378-98.786,0.378c-54.569,0-98.795-0.169-98.795-0.378
								c0-0.208,44.226-0.378,98.795-0.378C526.544,613.019,570.777,613.188,570.777,613.396z"/>
						</g>
					</g>
				</g>
				<g>
					<g>
						<g>
							<path style="fill:#E0E0E0;" d="M570.777,632.137c0,0.21-44.232,0.379-98.786,0.379c-54.569,0-98.795-0.169-98.795-0.379
								s44.226-0.378,98.795-0.378C526.544,631.759,570.777,631.927,570.777,632.137z"/>
						</g>
					</g>
				</g>
				<g>
					<g>
						<g>
							<path style="fill:#E0E0E0;" d="M570.777,650.877c0,0.208-44.232,0.378-98.786,0.378c-54.569,0-98.795-0.17-98.795-0.378
								c0-0.21,44.226-0.378,98.795-0.378C526.544,650.499,570.777,650.667,570.777,650.877z"/>
						</g>
					</g>
				</g>
				<g>
					<g>
						<g>
							<path style="fill:#E0E0E0;" d="M237.43,592.863c0,0.211-26.368,0.381-58.888,0.381c-32.531,0-58.893-0.17-58.893-0.381
								c0-0.209,26.362-0.377,58.893-0.377C211.063,592.486,237.43,592.654,237.43,592.863z"/>
						</g>
					</g>
				</g>
				<g>
					<g>
						<g>
							<path style="fill:#E0E0E0;" d="M237.43,607.581c0,0.209-26.368,0.379-58.888,0.379c-32.531,0-58.893-0.17-58.893-0.379
								s26.362-0.377,58.893-0.377C211.063,607.204,237.43,607.372,237.43,607.581z"/>
						</g>
					</g>
				</g>
				<g>
					<g>
						<g>
							<path style="fill:#E0E0E0;" d="M237.43,622.298c0,0.21-26.368,0.379-58.888,0.379c-32.531,0-58.893-0.169-58.893-0.379
								s26.362-0.378,58.893-0.378C211.063,621.92,237.43,622.088,237.43,622.298z"/>
						</g>
					</g>
				</g>
				<g>
					<g>
						<g>
							<path style="fill:#E0E0E0;" d="M237.43,637.016c0,0.208-26.368,0.378-58.888,0.378c-32.531,0-58.893-0.17-58.893-0.378
								s26.362-0.379,58.893-0.379C211.063,636.637,237.43,636.808,237.43,637.016z"/>
						</g>
					</g>
				</g>
				<g>
					<g>
						<g>
							<path style="fill:#E0E0E0;" d="M237.43,651.732c0,0.209-26.368,0.377-58.888,0.377c-32.531,0-58.893-0.168-58.893-0.377
								s26.362-0.38,58.893-0.38C211.063,651.353,237.43,651.523,237.43,651.732z"/>
						</g>
					</g>
				</g>
				<g>
					<g>
						<g>
							<g>
								<g>
									<rect x="272.297" y="585.716" style="fill:#F5F5F5;" width="85.746" height="82.959"/>
								</g>
							</g>
						</g>
					</g>
					<g>
						<g>
							<g>
								<g>
									<polygon style="fill:#EBEBEB;" points="278.945,661.575 302.665,618.884 322.066,646.171 333.855,631.681 351.395,661.575 
																			"/>
								</g>
							</g>
						</g>
					</g>
					<g>
						<g>
							<g>
								<g>
									<path style="fill:#EBEBEB;" d="M330.333,610.582c0,3.408-2.762,6.173-6.172,6.173c-3.407,0-6.171-2.765-6.171-6.173
										c0-3.406,2.764-6.17,6.171-6.17C327.57,604.412,330.333,607.176,330.333,610.582z"/>
								</g>
							</g>
						</g>
					</g>
					<g>
						<g>
							<g>
								<g>
									<g>
										<path style="fill:#EBEBEB;" d="M351.395,661.805c-0.005-0.005-0.011-0.12-0.018-0.339
											c-0.005-0.248-0.013-0.564-0.021-0.967c-0.009-0.883-0.023-2.128-0.04-3.733c-0.021-3.29-0.053-8.049-0.092-14.09
											c-0.043-12.115-0.104-29.372-0.178-50.09l0.349,0.35c-20.982,0.018-45.856,0.037-72.443,0.058
											c-0.098,0.086,0.767-0.766,0.401-0.396v0.02v0.036v0.075v0.147v0.295v0.593v1.182v2.355c0,1.569,0,3.13,0,4.684
											c-0.001,3.108-0.001,6.188-0.003,9.236c-0.003,6.098-0.006,12.066-0.01,17.877c-0.013,11.619-0.026,22.604-0.038,32.707
											l-0.356-0.355c21.624,0.076,39.685,0.14,52.383,0.184c6.331,0.038,11.325,0.069,14.775,0.091
											c1.686,0.017,2.996,0.032,3.919,0.043c0.425,0.006,0.758,0.015,1.017,0.018C351.269,661.793,351.39,661.8,351.395,661.805
											c0.008,0.007-0.1,0.015-0.316,0.021c-0.25,0.004-0.569,0.012-0.977,0.021c-0.91,0.01-2.194,0.023-3.85,0.042
											c-3.432,0.021-8.398,0.051-14.694,0.093c-12.754,0.044-30.895,0.106-52.612,0.18l-0.356,0.002v-0.358
											c-0.012-10.104-0.024-21.088-0.039-32.707c-0.002-5.811-0.007-11.779-0.01-17.877c0-3.048-0.001-6.128-0.002-9.236
											c0-1.554,0-3.114,0-4.684v-2.355l0-1.182v-0.593v-0.295v-0.147v-0.075v-0.036v-0.02c-0.364,0.358,0.496-0.512,0.416-0.421
											c26.587,0.021,51.46,0.042,72.443,0.06h0.353l-0.001,0.35c-0.075,20.811-0.137,38.143-0.178,50.314
											c-0.039,6.006-0.071,10.736-0.093,14.009c-0.017,1.576-0.031,2.8-0.039,3.667c-0.009,0.387-0.017,0.69-0.02,0.928
											C351.409,661.712,351.403,661.812,351.395,661.805z"/>
									</g>
								</g>
							</g>
						</g>
					</g>
				</g>
			</g>
			<g>
				<g>
					<g>
						<g>
							<g>
								<rect x="118.547" y="428.217" style="fill:#F5F5F5;" width="116.299" height="112.519"/>
							</g>
						</g>
					</g>
				</g>
				<g>
					<g>
						<g>
							<g>
								<polygon style="fill:#E0E0E0;" points="127.564,531.104 159.735,473.205 186.051,510.211 202.041,490.559 225.83,531.104 
																	"/>
							</g>
						</g>
					</g>
				</g>
				<g>
					<g>
						<g>
							<g>
								<circle style="fill:#E0E0E0;" cx="188.891" cy="461.941" r="8.37"/>
							</g>
						</g>
					</g>
				</g>
				<g>
					<g>
						<g>
							<g>
								<g>
									<path style="fill:#E0E0E0;" d="M225.83,531.417c-0.008-0.009-0.018-0.164-0.028-0.463c-0.006-0.334-0.015-0.763-0.025-1.31
										c-0.014-1.198-0.031-2.888-0.056-5.065c-0.028-4.462-0.07-10.915-0.122-19.107c-0.06-16.435-0.144-39.838-0.245-67.939
										l0.476,0.478c-28.46,0.022-62.196,0.049-98.256,0.077c-0.131,0.117,1.041-1.042,0.545-0.538v0.025v0.05v0.101v0.203v0.399
										v0.803v1.604v3.195c0,2.125-0.001,4.243-0.001,6.351c-0.002,4.217-0.003,8.395-0.005,12.529
										c-0.005,8.269-0.009,16.364-0.013,24.245c-0.019,15.756-0.036,30.655-0.052,44.361l-0.483-0.483
										c29.328,0.102,53.826,0.188,71.048,0.247c8.587,0.054,15.36,0.097,20.04,0.128c2.287,0.022,4.061,0.039,5.317,0.055
										c0.575,0.012,1.024,0.021,1.376,0.026C225.657,531.399,225.822,531.408,225.83,531.417c0.009,0.008-0.136,0.017-0.43,0.026
										c-0.339,0.006-0.771,0.016-1.325,0.027c-1.233,0.015-2.975,0.032-5.222,0.057c-4.656,0.029-11.39,0.071-19.931,0.128
										c-17.297,0.058-41.902,0.143-71.357,0.243l-0.482,0.004v-0.486c-0.018-13.706-0.035-28.605-0.053-44.361
										c-0.005-7.881-0.01-15.977-0.015-24.245c-0.001-4.135-0.001-8.313-0.002-12.529c-0.001-2.107-0.001-4.226-0.001-6.351
										v-3.195l-0.002-1.604v-0.803v-0.399v-0.203v-0.101v-0.05v-0.025c-0.493,0.486,0.673-0.693,0.564-0.568
										c36.06,0.027,69.796,0.054,98.256,0.075l0.478,0.003l-0.002,0.474c-0.102,28.227-0.185,51.735-0.244,68.242
										c-0.052,8.147-0.095,14.565-0.125,19.001c-0.023,2.139-0.042,3.798-0.054,4.972c-0.011,0.525-0.02,0.938-0.026,1.262
										C225.847,531.289,225.839,531.425,225.83,531.417z"/>
								</g>
							</g>
						</g>
					</g>
				</g>
			</g>
		</g>
		<g>
			<g>
				<polygon style="fill:#E9E2C2;" points="250.434,470.974 256.179,482.613 269.026,484.479 259.729,493.541 261.923,506.337 
					250.434,500.294 238.943,506.337 241.138,493.541 231.842,484.479 244.688,482.613 				"/>
			</g>
			<g>
				<polygon style="fill:#E9E2C2;" points="290.898,430.507 296.643,442.147 309.489,444.015 300.194,453.077 302.389,465.87 
					290.898,459.83 279.408,465.87 281.603,453.077 272.306,444.015 285.153,442.147 				"/>
			</g>
			<g>
				<polygon style="fill:#E9E2C2;" points="344.978,414.624 350.722,426.265 363.569,428.132 354.273,437.194 356.468,449.986 
					344.978,443.946 333.487,449.986 335.681,437.194 326.386,428.132 339.232,426.265 				"/>
			</g>
			<g>
				<polygon style="fill:#E9E2C2;" points="400.947,430.886 406.692,442.525 419.538,444.393 410.242,453.455 412.439,466.25 
					400.947,460.207 389.457,466.25 391.653,453.455 382.356,444.393 395.201,442.525 				"/>
			</g>
			<g>
				<polygon style="fill:#E9E2C2;" points="439.521,469.458 445.266,481.101 458.112,482.968 448.818,492.029 451.011,504.821 
					439.521,498.783 428.032,504.821 430.225,492.029 420.93,482.968 433.776,481.101 				"/>
			</g>
			<g>
				<polygon style="fill:#E9E2C2;" points="453.512,525.429 459.257,537.07 472.104,538.938 462.809,547.999 465.003,560.792 
					453.512,554.752 442.022,560.792 444.218,547.999 434.922,538.938 447.768,537.07 				"/>
			</g>
			<g>
				<polygon style="fill:#E9E2C2;" points="439.899,581.021 445.645,592.662 458.492,594.53 449.194,603.591 451.39,616.385 
					439.899,610.344 428.409,616.385 430.604,603.591 421.308,594.53 434.155,592.662 				"/>
			</g>
			<g>
				<polygon style="fill:#E9E2C2;" points="398.932,619.595 404.677,631.235 417.524,633.102 408.227,642.164 410.423,654.957 
					398.932,648.917 387.443,654.957 389.637,642.164 380.341,633.102 393.187,631.235 				"/>
			</g>
			<g>
				<polygon style="fill:#E9E2C2;" points="343.89,635.497 349.635,647.137 362.481,649.004 353.185,658.064 355.379,670.86 
					343.89,664.818 332.399,670.86 334.593,658.064 325.298,649.004 338.144,647.137 				"/>
			</g>
			<g>
				<polygon style="fill:#E9E2C2;" points="291.322,619.613 297.067,631.253 309.914,633.121 300.618,642.182 302.813,654.978 
					291.322,648.937 279.832,654.978 282.027,642.182 272.731,633.121 285.578,631.253 				"/>
			</g>
			<g>
				<polygon style="fill:#E9E2C2;" points="249.724,580.016 255.468,591.657 268.315,593.523 259.02,602.583 261.214,615.379 
					249.724,609.338 238.233,615.379 240.428,602.583 231.131,593.523 243.979,591.657 				"/>
			</g>
			<g>
				<polygon style="fill:#E9E2C2;" points="235.731,525.494 241.476,537.134 254.322,539.003 245.027,548.063 247.221,560.856 
					235.731,554.815 224.241,560.856 226.436,548.063 217.14,539.003 229.985,537.134 				"/>
			</g>
			<g>
				<g>
					<g>
						<path style="fill:#263238;" d="M384.625,565.422h-11.24v-61.175c0-14.398-11.713-26.113-26.113-26.113
							c-14.398,0-26.114,11.715-26.114,26.113v61.175H309.92v-61.175c0-20.596,16.757-37.353,37.353-37.353
							s37.353,16.757,37.353,37.353V565.422z"/>
					</g>
					<g>
						<path style="fill:#E9E2C2;" d="M388.282,602.8h-82.018c-5.152,0-9.33-4.178-9.33-9.329V547.54c0-5.152,4.178-9.33,9.33-9.33
							h82.018c5.152,0,9.329,4.178,9.329,9.33v45.931C397.611,598.622,393.434,602.8,388.282,602.8z"/>
					</g>
					<g>
						<g>
							<circle style="fill:#263238;" cx="347.273" cy="562.091" r="8.416"/>
						</g>
						<g>
							<rect x="344.978" y="565.422" style="fill:#263238;" width="4.591" height="17.308"/>
						</g>
					</g>
				</g>
				<g>
					<g>
						<path style="fill:#FAFAFA;" d="M302.304,596.676c-0.231,0-0.418-10.772-0.418-24.058c0-13.29,0.188-24.059,0.418-24.059
							c0.23,0,0.417,10.769,0.417,24.059C302.721,585.903,302.534,596.676,302.304,596.676z"/>
					</g>
				</g>
				<g>
					<g>
						<path style="fill:#FAFAFA;" d="M340.683,572.876c-0.027,0.042-0.394-0.131-0.987-0.56c-0.593-0.425-1.384-1.151-2.169-2.212
							c-1.57-2.056-3.004-5.797-2.073-9.831c0.979-4.028,3.939-6.727,6.264-7.862c1.176-0.594,2.208-0.89,2.929-1.003
							c0.723-0.118,1.127-0.106,1.134-0.059c0.035,0.157-1.596,0.311-3.778,1.577c-2.148,1.216-4.835,3.818-5.735,7.538
							c-0.862,3.729,0.37,7.258,1.746,9.306C339.396,571.882,340.785,572.752,340.683,572.876z"/>
					</g>
				</g>
			</g>
		</g>
	</g>
</g>
<g id="Character">
	<g>
		<g>
			<path style="fill:#263238;" d="M115.273,600.14c-0.796,2.242-0.574,4.745,0.16,7.008c0.734,2.264,1.95,4.335,3.157,6.385
				c1.572-4.028,3.146-8.067,4.252-12.248c0.243-0.919,0.42-2.024-0.235-2.714c-0.497-0.523-1.298-0.599-2.019-0.556
				c-2.111,0.125-4.169,1.004-5.72,2.442"/>
		</g>
		<g>
			<polygon style="fill:#263238;" points="27.091,712.304 10.731,749.704 33.252,749.704 49.288,712.007 			"/>
		</g>
		<g>
			<g>
				<g>
					<g>
						<g>
							<g>
								<path style="fill:#455A64;" d="M124.372,749.256c22.072-7.308,6.937-36.502,6.937-36.502l-96.465,9.073
									c-7.745-0.053-14.051,6.211-14.051,13.956l0,0c0,7.708,6.249,13.957,13.957,13.957L124.372,749.256"/>
							</g>
						</g>
					</g>
				</g>
			</g>
			<g>
				<g>
					<g>
						<g>
							<g>
								<path style="fill:#455A64;" d="M146.313,749.74c21.506-7.259,7.328-36.994,7.328-36.994L59.6,721.612
									c-9.185,0.12-13.671,4.551-13.671,13.925l0,0c0.017,7.706,2.865,14.203,13.639,13.983L146.313,749.74"/>
							</g>
						</g>
					</g>
				</g>
			</g>
			<g>
				<g>
					<g>
						<g>
							<g>
								<g>
									<path style="fill:#263238;" d="M125.124,717.681c0-0.009-0.091-0.012-0.268-0.011c-0.204,0.005-0.461,0.012-0.783,0.02
										c-0.723,0.029-1.73,0.071-3.01,0.123c-2.648,0.132-6.419,0.318-11.064,0.549c-9.371,0.514-22.257,1.22-36.493,2
										c-1.781,0.085-3.544,0.239-5.275,0.265c-1.742,0.027-3.457,0.1-5.139,0.201c-1.683,0.103-3.334,0.228-4.95,0.401
										c-1.601,0.187-3.228,0.359-4.703,0.965c-1.475,0.574-2.823,1.416-3.912,2.506c-1.091,1.09-1.87,2.434-2.372,3.806
										c-0.509,1.376-0.787,2.772-0.966,4.115c-0.175,1.343-0.268,2.644-0.259,3.889c0.01,2.487,0.444,4.749,1.241,6.55
										c0.79,1.807,1.89,3.125,2.925,3.983c1.04,0.866,2.001,1.298,2.663,1.504c0.665,0.21,0.677,0.142,0.03-0.098
										c-0.644-0.234-1.574-0.688-2.575-1.56c-0.997-0.864-2.051-2.174-2.797-3.947c-0.755-1.77-1.158-3.986-1.146-6.434
										c0.002-1.224,0.104-2.508,0.286-3.832c0.187-1.321,0.469-2.687,0.969-4.015c0.495-1.328,1.246-2.602,2.292-3.637
										c1.045-1.036,2.346-1.842,3.773-2.391c1.424-0.579,2.989-0.738,4.597-0.922c1.606-0.168,3.252-0.289,4.93-0.388
										c1.677-0.098,3.386-0.167,5.119-0.192c1.744-0.023,3.499-0.177,5.283-0.262c14.236-0.839,27.124-1.598,36.495-2.149
										c4.642-0.299,8.411-0.54,11.058-0.71c1.278-0.093,2.284-0.166,3.005-0.219c0.321-0.029,0.578-0.052,0.781-0.07
										C125.035,717.703,125.125,717.689,125.124,717.681z"/>
								</g>
							</g>
						</g>
					</g>
				</g>
			</g>
			<g>
				<g>
					<g>
						<g>
							<g>
								<path style="fill:#263238;" d="M146.361,726.889c0.012,0.027-0.25,0.184-0.765,0.38c-0.513,0.199-1.295,0.399-2.285,0.466
									c-1.942,0.153-4.888-0.453-7.071-2.667c-2.159-2.238-2.69-5.199-2.488-7.136c0.091-0.987,0.311-1.765,0.522-2.272
									c0.209-0.51,0.373-0.768,0.399-0.755c0.101,0.034-0.474,1.135-0.557,3.05c-0.104,1.871,0.468,4.656,2.493,6.753
									c2.044,2.076,4.814,2.718,6.687,2.662C145.214,727.335,146.329,726.787,146.361,726.889z"/>
							</g>
						</g>
					</g>
				</g>
			</g>
		</g>
		<g>
			<g>
				<polygon style="fill:#FFBE9D;" points="98.517,667.763 89.594,698.295 56.564,701.837 56.564,707.7 105.096,708.37 
					111.704,668.611 				"/>
			</g>
		</g>
		<g>
			<g>
				<path style="fill:#E9E2C2;" d="M141.586,635.862c5.86,0.012,21.729,3.004,23.124,13.7c1.259,9.659,3.145,20.619,3.145,20.619
					l-20.89,0.562l7.117,1.884l3.047,45.088l-54.058-1.873l2.868-23.181l2.354-23.172l0,0l-11.813-0.964
					c0,0,4.042-20.17,11.091-26.395c0,0,6.451-5.668,15.558-6.269C132.238,635.262,141.586,635.862,141.586,635.862"/>
			</g>
		</g>
		<g>
			<g>
				<g>
					
						<ellipse transform="matrix(0.1131 -0.9936 0.9936 0.1131 -572.4404 704.0452)" style="fill:#263238;" cx="108.162" cy="672.685" rx="18.292" ry="0.228"/>
				</g>
			</g>
		</g>
		<g>
			<g>
				<g>
					<path style="fill:#263238;" d="M143.203,635.931c0.015-0.001,0.035,0.13,0.059,0.379c0.023,0.249,0.047,0.617,0.055,1.094
						c0.019,0.946-0.056,2.354-0.585,3.992c-0.496,1.619-1.352,3.587-3.065,5.199c-0.843,0.806-1.899,1.507-3.126,1.941
						c-1.226,0.433-2.573,0.601-3.933,0.624c-1.36,0.013-2.688-0.041-3.963-0.269c-1.27-0.227-2.478-0.683-3.43-1.393
						c-1.92-1.426-2.834-3.429-3.256-5.069c-0.449-1.66-0.489-3.063-0.449-4.01c0.018-0.476,0.055-0.843,0.082-1.092
						c0.031-0.248,0.054-0.378,0.069-0.377c0.034,0.002,0.007,0.526,0.018,1.471c0.012,0.942,0.099,2.313,0.577,3.932
						c0.449,1.597,1.37,3.508,3.2,4.839c0.905,0.66,2.041,1.084,3.268,1.298c1.227,0.215,2.543,0.266,3.876,0.254
						c1.33-0.023,2.628-0.185,3.795-0.592c1.165-0.406,2.176-1.065,2.992-1.832c1.664-1.538,2.522-3.417,3.052-5.013
						c0.556-1.597,0.675-2.965,0.709-3.906C143.181,636.457,143.168,635.932,143.203,635.931z"/>
				</g>
			</g>
		</g>
		<g style="opacity:0.2;">
			<g>
				<g>
					<path d="M146.101,654.511c-2.001,9.566-4.61,19.398-6.611,28.965c-0.425,2.033-0.882,4.138-2.124,5.803
						c-0.776,1.04-1.816,1.848-2.854,2.626c-3.944,2.96-8.103,5.731-12.737,7.421c6.693-0.565,13.337-1.722,19.828-3.451
						c1.099-0.293,2.269-0.65,2.978-1.54c0.627-0.786,0.773-1.841,0.891-2.84C146.911,679.228,146.495,666.854,146.101,654.511"/>
				</g>
			</g>
		</g>
		<g>
			<g>
				<g>
					<path style="fill:#263238;" d="M168.189,670.343c0,0.031-0.559,0.072-1.57,0.12c-1.086,0.04-2.532,0.094-4.284,0.158
						c-3.619,0.113-8.618,0.238-14.14,0.348c-0.608,0.012-1.209,0.023-1.775,0.034l-0.223,0.005l-0.008-0.22
						c-0.199-5.127-0.108-9.686-0.011-12.965c0.051-1.64,0.113-2.958,0.169-3.866c0.055-0.908,0.1-1.407,0.13-1.406
						s0.042,0.502,0.039,1.411c-0.007,0.983-0.017,2.285-0.029,3.867c-0.016,3.274-0.052,7.836,0.157,12.936l-0.232-0.216
						c0.565-0.012,1.167-0.023,1.775-0.036c5.522-0.11,10.522-0.184,14.142-0.215c1.754-0.005,3.201-0.01,4.288-0.013
						C167.628,670.292,168.188,670.312,168.189,670.343z"/>
				</g>
			</g>
		</g>
		<g>
			<g>
				<g>
					<path style="fill:#E0E0E0;" d="M15.191,672.538l18.452,36.274h58.172l-2.354-4.738l-16.853-0.501l-13.736-30.585
						c-0.854-1.901-2.745-3.125-4.829-3.125H16.832C15.458,669.863,14.569,671.313,15.191,672.538z"/>
				</g>
			</g>
			<g>
				<g>
					<circle style="fill:#263238;" cx="42.098" cy="688.781" r="2.226"/>
				</g>
			</g>
		</g>
		<g>
			<g>
				<g>
					<g>
						<g>
							<g>
								<g>
									<g>
										<g>
											<g>
												<g>
													<g>
														<g>
															<g>
																<g>
																	<path style="fill:#FFBE9D;" d="M143.488,608.527l-2.083,29.517c-0.34,4.818-4.349,8.555-9.18,8.555l0,0
																		c-5.319,0-9.532-4.498-9.183-9.805c0.185-2.81,0.352-5.11,0.352-5.11s-7.134-1.111-7.234-8.256
																		c-0.047-3.365,0.401-10.027,0.904-16.289c0.586-7.311,6.682-12.947,14.016-12.947h0.006
																		C138.52,594.626,144.128,601.108,143.488,608.527z"/>
																</g>
															</g>
														</g>
													</g>
												</g>
											</g>
										</g>
									</g>
									<g>
										<g>
											<g>
												<g>
													<g>
														<g>
															<g>
																<g>
																	<path style="fill:#EB996E;" d="M123.351,632.027c0,0,4.515,0.367,9.314-2.647c0,0-2.202,5.142-9.331,4.498
																		L123.351,632.027z"/>
																</g>
															</g>
														</g>
													</g>
												</g>
											</g>
										</g>
									</g>
								</g>
							</g>
						</g>
						<g>
							<g>
								<g>
									<g>
										<g>
											<g>
												<g>
													<g>
														<g>
															<g>
																<g>
																	<g>
																		<g>
																			<g>
																				<path style="fill:#263238;" d="M119.296,611.78c-0.019,0.538,0.421,0.999,0.984,1.029
																					c0.561,0.029,1.033-0.381,1.052-0.92s-0.421-1-0.983-1.03C119.787,610.829,119.315,611.241,119.296,611.78z"/>
																			</g>
																		</g>
																	</g>
																</g>
															</g>
														</g>
													</g>
												</g>
												<g>
													<g>
														<g>
															<g>
																<g>
																	<g>
																		<g>
																			<g>
																				<g>
																					<path style="fill:#263238;" d="M118.662,610.375c0.126,0.133,0.899-0.438,1.998-0.437
																						c1.097-0.013,1.902,0.553,2.021,0.418c0.059-0.06-0.07-0.3-0.421-0.555c-0.346-0.255-0.935-0.502-1.619-0.499
																						c-0.684,0.004-1.259,0.255-1.59,0.513C118.714,610.075,118.6,610.315,118.662,610.375z"/>
																				</g>
																			</g>
																		</g>
																	</g>
																</g>
															</g>
														</g>
													</g>
												</g>
											</g>
											<g>
												<g>
													<g>
														<g>
															<g>
																<g>
																	<g>
																		<g>
																			<g>
																				<path style="fill:#263238;" d="M129.637,612.076c-0.019,0.538,0.421,0.999,0.984,1.029
																					c0.561,0.03,1.032-0.381,1.052-0.92c0.019-0.539-0.422-1-0.983-1.03
																					C130.127,611.125,129.656,611.537,129.637,612.076z"/>
																			</g>
																		</g>
																	</g>
																</g>
															</g>
														</g>
													</g>
												</g>
												<g>
													<g>
														<g>
															<g>
																<g>
																	<g>
																		<g>
																			<g>
																				<g>
																					<path style="fill:#263238;" d="M129.454,610.58c0.127,0.133,0.901-0.439,1.998-0.436
																						c1.096-0.014,1.902,0.552,2.021,0.417c0.058-0.06-0.069-0.3-0.421-0.555c-0.345-0.255-0.934-0.502-1.618-0.499
																						c-0.684,0.004-1.259,0.255-1.59,0.513C129.507,610.279,129.393,610.521,129.454,610.58z"/>
																				</g>
																			</g>
																		</g>
																	</g>
																</g>
															</g>
														</g>
													</g>
												</g>
											</g>
											<g>
												<g>
													<g>
														<g>
															<g>
																<g>
																	<g>
																		<g>
																			<g>
																				<path style="fill:#263238;" d="M125.47,618.722c0.005-0.062-0.677-0.18-1.783-0.321
																					c-0.28-0.029-0.545-0.085-0.593-0.276c-0.066-0.202,0.051-0.504,0.187-0.83c0.264-0.679,0.54-1.39,0.829-2.136
																					c1.151-3.039,1.985-5.538,1.862-5.584c-0.123-0.045-1.156,2.382-2.307,5.422
																					c-0.277,0.749-0.542,1.464-0.794,2.147c-0.106,0.318-0.289,0.68-0.146,1.1c0.076,0.21,0.281,0.362,0.461,0.41
																					c0.18,0.055,0.337,0.058,0.476,0.066C124.775,618.779,125.465,618.784,125.47,618.722z"/>
																			</g>
																		</g>
																	</g>
																</g>
															</g>
														</g>
													</g>
												</g>
											</g>
											<g>
												<g>
													<g>
														<g>
															<g>
																<g>
																	<g>
																		<g>
																			<g>
																				<path style="fill:#263238;" d="M128.701,619.481c-0.178-0.011-0.181,1.182-1.201,2.027
																					c-1.018,0.849-2.289,0.715-2.298,0.882c-0.017,0.074,0.283,0.231,0.819,0.246
																					c0.526,0.018,1.294-0.151,1.918-0.669c0.622-0.519,0.89-1.211,0.93-1.699
																					C128.916,619.77,128.782,619.475,128.701,619.481z"/>
																			</g>
																		</g>
																	</g>
																</g>
															</g>
														</g>
													</g>
												</g>
											</g>
										</g>
									</g>
								</g>
								<g>
									<g>
										<g>
											<g>
												<g>
													<g>
														<g>
															<g>
																<path style="fill:#263238;" d="M129.171,606.277c0.108,0.299,1.205,0.157,2.492,0.313
																	c1.292,0.129,2.331,0.506,2.501,0.238c0.076-0.128-0.104-0.409-0.525-0.698c-0.416-0.288-1.08-0.563-1.854-0.648
																	c-0.773-0.084-1.481,0.038-1.95,0.229C129.362,605.901,129.124,606.136,129.171,606.277z"/>
															</g>
														</g>
													</g>
												</g>
											</g>
										</g>
									</g>
								</g>
								<g>
									<g>
										<g>
											<g>
												<g>
													<g>
														<g>
															<g>
																<path style="fill:#263238;" d="M119.066,607.197c0.193,0.25,0.949-0.009,1.859-0.021
																	c0.909-0.044,1.68,0.168,1.857-0.093c0.078-0.127-0.043-0.377-0.38-0.613c-0.332-0.234-0.886-0.427-1.511-0.408
																	c-0.625,0.02-1.167,0.246-1.483,0.501C119.086,606.819,118.98,607.076,119.066,607.197z"/>
															</g>
														</g>
													</g>
												</g>
											</g>
										</g>
									</g>
								</g>
							</g>
						</g>
						<g>
							<g>
								<g>
									<g>
										<g>
											<g>
												<g>
													<g>
														<g>
															<path style="fill:#FFBE9D;" d="M141.08,614.336c0.122-0.053,4.909-1.452,4.752,3.433
																c-0.156,4.885-5.027,3.721-5.031,3.58S141.08,614.336,141.08,614.336z"/>
														</g>
													</g>
												</g>
											</g>
										</g>
									</g>
								</g>
							</g>
							<g>
								<g>
									<g>
										<g>
											<g>
												<g>
													<g>
														<g>
															<g>
																<path style="fill:#EB996E;" d="M142.352,619.546c0.022-0.016,0.083,0.063,0.225,0.133
																	c0.138,0.068,0.378,0.12,0.636,0.033c0.522-0.173,0.983-0.979,1.035-1.857c0.026-0.444-0.053-0.871-0.199-1.227
																	c-0.138-0.362-0.361-0.619-0.619-0.674c-0.257-0.067-0.446,0.082-0.51,0.218c-0.07,0.134-0.042,0.232-0.068,0.24
																	c-0.014,0.012-0.103-0.085-0.057-0.285c0.023-0.097,0.084-0.21,0.202-0.3c0.121-0.092,0.294-0.135,0.475-0.109
																	c0.376,0.038,0.704,0.395,0.865,0.785c0.182,0.393,0.281,0.872,0.251,1.371c-0.063,0.983-0.596,1.888-1.309,2.069
																	c-0.346,0.079-0.63-0.034-0.774-0.154C142.357,619.664,142.335,619.554,142.352,619.546z"/>
															</g>
														</g>
													</g>
												</g>
											</g>
										</g>
									</g>
								</g>
							</g>
						</g>
					</g>
				</g>
			</g>
		</g>
		<g>
			<rect x="26.901" y="708.87" style="fill:#263238;" width="71.113" height="3.469"/>
		</g>
		<g>
			<polygon style="fill:#263238;" points="76.112,710.604 97.741,749.74 117.106,749.74 98.014,712.339 			"/>
		</g>
		<g>
			<g>
				<path style="fill:#455A64;" d="M98.016,712.339c0,0.145-15.938,0.341-35.594,0.439c-19.664,0.099-35.6,0.062-35.6-0.082
					c-0.001-0.144,15.934-0.34,35.598-0.438C82.076,712.159,98.015,712.195,98.016,712.339z"/>
			</g>
		</g>
		<g>
			<path style="fill:#263238;" d="M115.092,603.937c1.296,0.493,2.808,0.385,4.02-0.288c-0.508,0.417-0.327,1.304,0.194,1.705
				c0.521,0.401,1.229,0.44,1.887,0.417c3.515-0.125,6.965-1.6,9.483-4.055c0.028,1.235,1.02,2.3,2.182,2.72
				c1.162,0.421,2.453,0.304,3.654,0.015c-0.32,1.825-0.639,3.708-0.225,5.514s1.754,3.532,3.586,3.807
				c0.368,0.898,0.161,1.917,0.228,2.886c0.066,0.969,0.634,2.083,1.605,2.11c0.856,0.023,1.497-0.854,1.609-1.704
				c0.113-0.85-0.385-2.579,0.223-3.956c0.661-1.493,0.397-1.217,1.055-2.711c0.657-1.495,1.027-3.551,1.539-5.102
				c0.512-1.551,0.71-3.276,0.125-4.801c-0.584-1.525-2.098-2.764-3.727-2.65c0.594-1.531,0.098-3.418-1.173-4.459
				c-1.27-1.042-3.218-1.158-4.603-0.275c0,0-5.566-3.78-11.715-1.693c-6.115,2.076-7.069,7.672-8.405,7.847
				c-1.336,0.174-5.402-2.033-4.705-0.639c0.697,1.394,1.858,2.729,2.439,2.788c0.581,0.058-4.646-2.149-2.846-0.175
				C113.323,603.211,115.092,603.937,115.092,603.937z"/>
		</g>
		<g>
			<g>
				<path style="fill:#FAFAFA;" d="M164.111,651.542c-0.06,0.055-0.527-0.839-1.929-1.854c-1.367-1.017-3.77-2.063-6.86-2.022
					c-3.088-0.011-6.635,1.331-10.11,3.464c-3.516,2.081-7.049,5.01-11.468,6.935c-2.198,0.96-4.539,1.506-6.812,1.541
					c-2.272,0.05-4.464-0.347-6.423-1.059c-1.965-0.711-3.671-1.78-5.115-2.913c-1.456-1.126-2.731-2.252-3.981-3.163
					c-2.463-1.876-4.93-2.658-6.646-2.713c-1.73-0.054-2.628,0.426-2.643,0.353c-0.003-0.009,0.05-0.037,0.159-0.084
					c0.11-0.041,0.268-0.125,0.491-0.185c0.438-0.146,1.116-0.284,1.999-0.287c1.762-0.01,4.324,0.747,6.857,2.617
					c2.562,1.772,5.167,4.576,9.043,5.924c3.807,1.387,8.567,1.438,12.867-0.511c4.325-1.878,7.861-4.782,11.427-6.866
					c3.524-2.134,7.17-3.48,10.355-3.421c3.174,0.006,5.623,1.139,6.983,2.229c0.7,0.537,1.143,1.064,1.426,1.427
					C163.995,651.33,164.126,651.532,164.111,651.542z"/>
			</g>
		</g>
		<g>
			<g>
				<path style="fill:#FAFAFA;" d="M146.318,677.828c-0.029,0.037-0.484-0.316-1.378-0.832c-0.894-0.508-2.251-1.167-4.047-1.558
					c-1.785-0.394-4.019-0.51-6.363,0.113c-2.358,0.585-4.767,1.822-7.447,2.813c-1.341,0.491-2.711,0.857-4.058,1.026
					s-2.66,0.177-3.9,0.071c-2.485-0.217-4.643-0.93-6.334-1.733c-1.699-0.804-2.925-1.724-3.71-2.41
					c-0.407-0.328-0.678-0.634-0.873-0.826c-0.19-0.198-0.284-0.308-0.271-0.321c0.035-0.035,0.453,0.362,1.272,0.99
					c0.814,0.631,2.052,1.488,3.737,2.233c1.678,0.745,3.797,1.404,6.22,1.59c2.418,0.198,5.112-0.106,7.74-1.109
					c2.634-0.972,5.075-2.21,7.509-2.789c2.43-0.617,4.745-0.457,6.563-0.007c1.833,0.448,3.195,1.175,4.069,1.744
					c0.437,0.288,0.763,0.531,0.97,0.713C146.225,677.714,146.329,677.814,146.318,677.828z"/>
			</g>
		</g>
		<g>
			<g>
				<path style="fill:#FAFAFA;" d="M154.192,694.636c-0.025,0.056-0.658-0.341-1.933-0.613c-1.269-0.267-3.204-0.246-5.424,0.487
					c-1.109,0.355-2.292,0.853-3.506,1.497c-1.217,0.64-2.487,1.402-3.863,2.145c-1.375,0.739-2.867,1.475-4.53,1.946
					c-1.656,0.474-3.51,0.606-5.31,0.218c-3.625-0.787-6.491-2.882-9.134-4.46c-2.631-1.621-5.218-2.799-7.542-2.963
					c-2.322-0.192-4.188,0.438-5.272,1.132c-1.111,0.687-1.507,1.339-1.558,1.289c-0.014-0.011,0.09-0.16,0.305-0.438
					c0.229-0.264,0.585-0.647,1.142-1.021c1.084-0.768,3.004-1.481,5.41-1.33c2.422,0.124,5.098,1.309,7.762,2.92
					c2.675,1.571,5.518,3.612,8.993,4.36c1.723,0.371,3.467,0.249,5.067-0.198c1.604-0.448,3.072-1.157,4.441-1.879
					c1.371-0.724,2.648-1.473,3.891-2.104c1.242-0.638,2.455-1.125,3.596-1.466c2.282-0.705,4.288-0.669,5.576-0.332
					c0.647,0.165,1.127,0.368,1.435,0.533C154.045,694.525,154.2,694.62,154.192,694.636z"/>
			</g>
		</g>
		<g>
			<g>
				<path style="fill:#FAFAFA;" d="M156.744,713.746c0.005,0.012-0.164,0.101-0.507,0.208c-0.342,0.109-0.866,0.229-1.552,0.264
					c-1.375,0.1-3.365-0.301-5.626-1.176c-1.14-0.411-2.372-0.898-3.738-1.217c-1.37-0.289-2.874-0.4-4.447-0.252
					c-3.163,0.267-6.49,1.461-10.047,2.482c-1.783,0.506-3.564,0.92-5.321,1.089c-1.755,0.176-3.463,0.122-5.067-0.07
					c-3.21-0.413-5.991-1.315-8.25-2.201c-2.261-0.892-4.025-1.759-5.233-2.373c-0.605-0.307-1.067-0.558-1.379-0.731
					c-0.312-0.175-0.471-0.274-0.463-0.29c0.008-0.017,0.184,0.052,0.51,0.195c0.378,0.172,0.848,0.384,1.42,0.644
					c1.232,0.558,3.015,1.37,5.276,2.212c2.258,0.836,5.02,1.689,8.174,2.068c1.576,0.176,3.247,0.218,4.959,0.039
					c1.713-0.172,3.461-0.579,5.231-1.082c3.529-1.013,6.897-2.21,10.148-2.46c1.617-0.14,3.175-0.009,4.587,0.311
					c1.406,0.348,2.641,0.86,3.769,1.292c2.236,0.914,4.146,1.352,5.492,1.317C156.022,714.003,156.729,713.688,156.744,713.746z"/>
			</g>
		</g>
		<g>
			<g>
				<path style="fill:#FAFAFA;" d="M166.995,665.284c0.019,0.018-0.17,0.275-0.605,0.645c-0.432,0.37-1.116,0.855-2.063,1.261
					c-0.946,0.394-2.159,0.711-3.532,0.685c-1.375,0.004-2.864-0.44-4.252-1.124c-1.398-0.673-2.66-1.4-3.891-1.837
					c-1.217-0.43-2.414-0.516-3.375-0.376c-0.969,0.138-1.679,0.531-2.102,0.874c-0.419,0.353-0.593,0.617-0.634,0.589
					c-0.02-0.01,0.096-0.316,0.498-0.738c0.403-0.412,1.147-0.893,2.175-1.088c1.021-0.196,2.289-0.146,3.595,0.286
					c1.294,0.432,2.587,1.162,3.956,1.819c1.366,0.67,2.741,1.091,4.041,1.115c1.297,0.051,2.46-0.214,3.385-0.547
					C166.048,666.143,166.932,665.2,166.995,665.284z"/>
			</g>
		</g>
		<g>
			<g>
				<path style="fill:#FAFAFA;" d="M108.924,664.788c0.021,0.021-0.067,0.172-0.325,0.35c-0.254,0.175-0.701,0.342-1.26,0.33
					c-0.554-0.005-1.217-0.173-1.847-0.532c-0.631-0.347-1.232-0.833-1.886-1.253c-1.283-0.875-2.753-0.948-3.736-0.755
					c-1,0.185-1.552,0.552-1.598,0.474c-0.036-0.037,0.458-0.534,1.515-0.832c1.021-0.31,2.695-0.285,4.099,0.675
					c0.692,0.446,1.272,0.933,1.846,1.276c0.563,0.35,1.135,0.529,1.626,0.579C108.367,665.216,108.878,664.712,108.924,664.788z"/>
			</g>
		</g>
		<g>
			<g>
				<g>
					<path style="fill:#FFBE9D;" d="M81.756,697.078l14.55-1.749l10.252,6.723l39.206-9.396l1.148-21.879l17.597-0.434l-0.41,25.675
						c-0.174,8.267-7.045,14.811-15.31,14.581l-57.422-1.59l-2.438-4.887l-12.32-0.366L81.756,697.078z"/>
				</g>
			</g>
			<g>
				<g>
					<g>
						<path style="fill:#EB996E;" d="M145.268,692.655c0.003,0.016-0.25,0.092-0.737,0.224c-0.526,0.138-1.238,0.322-2.134,0.556
							c-1.9,0.474-4.577,1.141-7.867,1.96c-6.69,1.621-15.863,3.845-25.996,6.3c-0.813,0.194-1.621,0.389-2.418,0.579l-0.096,0.023
							l-0.082-0.055c-3.625-2.385-7.078-4.655-10.243-6.737l0.14,0.033c-5.756,0.665-10.741,1.241-14.558,1.682l0.096-0.054
							c-1.627,2.065-2.925,3.713-3.844,4.88c-0.434,0.537-0.778,0.963-1.037,1.284c-0.239,0.288-0.368,0.435-0.379,0.426
							c-0.011-0.008,0.098-0.17,0.316-0.475c0.245-0.332,0.569-0.773,0.978-1.329c0.894-1.187,2.157-2.861,3.74-4.961l0.035-0.047
							l0.061-0.008c3.813-0.476,8.792-1.098,14.542-1.815l0.076-0.01l0.065,0.042c3.17,2.073,6.629,4.334,10.261,6.708l-0.178-0.031
							c0.797-0.19,1.605-0.385,2.418-0.58c10.146-2.404,19.33-4.581,26.027-6.169c3.304-0.761,5.993-1.38,7.901-1.819
							c0.904-0.198,1.623-0.355,2.154-0.472C145.003,692.687,145.264,692.64,145.268,692.655z"/>
					</g>
				</g>
			</g>
			<g>
				<g>
					<g>
						<path style="fill:#EB996E;" d="M89.706,701.247c0,0.126-2.531,0.229-5.652,0.229c-0.353-0.002-0.698-0.003-1.034-0.004
							l0.145-0.054c-2.016,1.688-3.592,2.905-3.664,2.819c-0.072-0.085,1.383-1.443,3.374-3.161l0.062-0.054h0.084
							c0.336-0.001,0.681-0.003,1.034-0.004C87.175,701.019,89.706,701.121,89.706,701.247z"/>
					</g>
				</g>
			</g>
			<g>
				<g>
					<g>
						<path style="fill:#EB996E;" d="M152.488,697.038c-0.121,0.074-0.875-1.764-2.856-2.981c-1.955-1.26-3.939-1.145-3.924-1.285
							c-0.005-0.052,0.476-0.164,1.265-0.1c0.786,0.061,1.871,0.353,2.902,0.999c1.028,0.649,1.761,1.502,2.155,2.184
							C152.43,696.538,152.537,697.021,152.488,697.038z"/>
					</g>
				</g>
			</g>
		</g>
	</g>
</g>
</svg>
