<?xml version="1.0" encoding="utf-8"?>
<!-- Generator: Adobe Illustrator 16.0.0, SVG Export Plug-In . SVG Version: 6.00 Build 0)  -->
<!DOCTYPE svg PUBLIC "-//W3C//DTD SVG 1.1//EN" "http://www.w3.org/Graphics/SVG/1.1/DTD/svg11.dtd">
<svg version="1.1" id="Layer_1" xmlns="http://www.w3.org/2000/svg" xmlns:xlink="http://www.w3.org/1999/xlink" x="0px" y="0px"
	 width="750px" height="750px" viewBox="0 0 750 750" enable-background="new 0 0 750 750" xml:space="preserve">
<g id="Ambition_1_">
	<g>
		<g>
			<path fill="none" d="M358.897,239.589l-19.034-20.136l-26.007,15.435c-5.241-3.875-10.729-7.271-16.42-10.148l2.042-30.153
				l-26.542-7.923l-14.806,26.387c-6.396-0.714-12.838-0.897-19.263-0.544l-13.322-27.183l-26.939,6.412l0.37,30.22
				c-5.841,2.554-11.507,5.633-16.955,9.205l-25.114-16.88l-20.117,19.029l15.444,26.028c-3.869,5.24-7.26,10.729-10.135,16.419
				l-30.142-2.06l-7.904,26.548l26.384,14.826c-0.71,6.397-0.889,12.844-0.533,19.271l-27.163,13.312l6.424,26.953l30.209-0.354
				c2.554,5.846,5.637,11.517,9.21,16.968l-16.859,25.114l19.034,20.136l26.008-15.436c5.241,3.875,10.729,7.271,16.419,10.148
				l-2.041,30.153l26.542,7.923l14.805-26.385c6.395,0.714,12.839,0.896,19.264,0.544l13.323,27.182l26.938-6.411l-0.37-30.222
				c5.841-2.551,11.507-5.632,16.955-9.203l25.114,16.88l20.117-19.028l-15.444-26.027c3.869-5.24,7.261-10.728,10.134-16.42
				l30.143,2.059l7.904-26.547l-26.385-14.826c0.711-6.398,0.888-12.843,0.533-19.271l27.163-13.313l-6.425-26.953l-30.208,0.353
				c-2.555-5.845-5.638-11.516-9.211-16.967L358.897,239.589z M294.308,379.798c-28.601,27.054-73.724,25.777-100.784-2.851
				c-27.061-28.628-25.812-73.768,2.789-100.823c28.602-27.054,73.725-25.778,100.785,2.851
				C324.158,307.604,322.909,352.744,294.308,379.798z"/>
			<path fill="#B9CEEB" d="M265.079,471.508c-0.34,0-0.66-0.193-0.815-0.508l-13.059-26.644c-6.06,0.3-12.183,0.126-18.214-0.518
				l-14.512,25.865c-0.208,0.37-0.645,0.546-1.051,0.426l-26.542-7.925c-0.406-0.121-0.674-0.509-0.645-0.932l2-29.554
				c-5.335-2.734-10.554-5.96-15.528-9.599l-25.491,15.129c-0.365,0.217-0.832,0.151-1.123-0.156l-19.033-20.137
				c-0.292-0.309-0.33-0.776-0.094-1.13l16.524-24.614c-3.352-5.172-6.281-10.564-8.711-16.046l-29.609,0.347
				c-0.404,0.019-0.794-0.285-0.893-0.698l-6.425-26.953c-0.098-0.413,0.103-0.838,0.484-1.025l26.625-13.049
				c-0.304-6.06-0.134-12.183,0.504-18.222l-25.862-14.534c-0.37-0.208-0.546-0.643-0.426-1.05l7.905-26.548
				c0.12-0.407,0.504-0.669,0.932-0.646l29.542,2.019c2.735-5.341,5.957-10.56,9.585-15.526l-15.138-25.512
				c-0.217-0.364-0.151-0.831,0.157-1.123l20.118-19.029c0.308-0.292,0.777-0.33,1.129-0.094l24.615,16.547
				c5.163-3.348,10.551-6.274,16.033-8.706l-0.363-29.621c-0.005-0.424,0.285-0.795,0.697-0.894l26.939-6.411
				c0.411-0.101,0.837,0.101,1.024,0.483l13.06,26.644c6.059-0.301,12.181-0.128,18.214,0.515l14.513-25.863
				c0.208-0.371,0.644-0.546,1.051-0.426l26.541,7.923c0.407,0.121,0.675,0.508,0.646,0.93l-2,29.556
				c5.337,2.736,10.555,5.961,15.526,9.598l25.491-15.128c0.364-0.218,0.831-0.152,1.123,0.156l19.033,20.136
				c0.291,0.309,0.331,0.778,0.094,1.13l-16.524,24.616c3.352,5.169,6.279,10.562,8.711,16.044l29.609-0.346
				c0.414,0.021,0.794,0.284,0.893,0.697l6.425,26.953c0.098,0.414-0.103,0.839-0.483,1.026l-26.625,13.049
				c0.304,6.065,0.135,12.19-0.503,18.223l25.862,14.533c0.37,0.208,0.547,0.643,0.425,1.049l-7.904,26.548
				c-0.121,0.407-0.504,0.671-0.932,0.646l-29.543-2.018c-2.73,5.334-5.951,10.552-9.584,15.526l15.138,25.513
				c0.216,0.364,0.151,0.828-0.157,1.121l-20.117,19.029c-0.308,0.291-0.778,0.331-1.129,0.095l-24.616-16.546
				c-5.168,3.352-10.557,6.276-16.032,8.705l0.363,29.62c0.005,0.425-0.284,0.796-0.698,0.893l-26.938,6.412
				C265.218,471.499,265.148,471.508,265.079,471.508z M251.756,442.511c0.345,0,0.662,0.196,0.815,0.509l13.003,26.529
				l25.526-6.076l-0.361-29.493c-0.004-0.365,0.21-0.696,0.544-0.843c5.75-2.512,11.411-5.584,16.821-9.132
				c0.305-0.199,0.701-0.197,1.003,0.006l24.512,16.476l19.063-18.033l-15.074-25.402c-0.186-0.313-0.167-0.707,0.05-1.002
				c3.842-5.204,7.225-10.685,10.055-16.29c0.164-0.326,0.505-0.518,0.871-0.497l29.418,2.011l7.49-25.157l-25.752-14.471
				c-0.318-0.179-0.498-0.529-0.458-0.891c0.703-6.326,0.881-12.759,0.529-19.121c-0.02-0.364,0.18-0.705,0.507-0.865l26.511-12.993
				l-6.088-25.542l-29.482,0.345c-0.333-0.001-0.696-0.21-0.843-0.544c-2.516-5.758-5.59-11.421-9.138-16.833
				c-0.199-0.306-0.198-0.7,0.006-1.003l16.455-24.512l-18.037-19.082l-25.384,15.064c-0.312,0.186-0.708,0.167-1.002-0.051
				c-5.2-3.844-10.681-7.232-16.289-10.068c-0.326-0.164-0.521-0.508-0.497-0.871l1.991-29.43l-25.151-7.507l-14.45,25.752
				c-0.179,0.318-0.535,0.501-0.892,0.458c-6.327-0.708-12.759-0.889-19.112-0.541c-0.357,0.021-0.705-0.179-0.865-0.506
				l-13.004-26.532l-25.527,6.075l0.362,29.495c0.004,0.364-0.21,0.696-0.544,0.843c-5.758,2.517-11.417,5.589-16.82,9.132
				c-0.305,0.2-0.701,0.198-1.004-0.006l-24.511-16.476l-19.063,18.032l15.074,25.404c0.186,0.313,0.167,0.708-0.051,1.002
				c-3.837,5.196-7.219,10.677-10.054,16.289c-0.165,0.326-0.504,0.518-0.873,0.497l-29.417-2.01l-7.491,25.157l25.753,14.472
				c0.318,0.178,0.498,0.529,0.458,0.891c-0.704,6.333-0.881,12.765-0.53,19.121c0.021,0.364-0.18,0.705-0.506,0.866l-26.512,12.992
				l6.088,25.542l29.483-0.344c0.392-0.009,0.696,0.209,0.843,0.543c2.515,5.757,5.59,11.421,9.138,16.833
				c0.2,0.306,0.197,0.702-0.005,1.004l-16.456,24.512l18.037,19.082l25.384-15.065c0.313-0.185,0.709-0.166,1.002,0.051
				c5.204,3.847,10.685,7.234,16.29,10.068c0.325,0.165,0.521,0.508,0.496,0.871l-1.991,29.43l25.151,7.509l14.45-25.754
				c0.179-0.318,0.528-0.5,0.893-0.457c6.325,0.707,12.755,0.889,19.112,0.54C251.723,442.512,251.739,442.511,251.756,442.511z
				 M245.405,400.19c-0.696,0-1.394-0.009-2.093-0.029c-19.278-0.546-37.194-8.568-50.448-22.591
				c-27.361-28.946-26.094-74.75,2.825-102.104c14.009-13.252,32.345-20.257,51.619-19.704c19.278,0.545,37.194,8.567,50.449,22.589
				c27.361,28.946,26.094,74.75-2.826,102.105C281.431,393.229,263.914,400.19,245.405,400.19z M245.217,257.547
				c-18.044,0-35.118,6.787-48.28,19.237c-28.192,26.667-29.428,71.321-2.754,99.54c12.921,13.669,30.387,21.49,49.18,22.022
				c18.795,0.531,36.665-6.29,50.321-19.208c28.192-26.667,29.428-71.321,2.753-99.54c-12.92-13.67-30.387-21.491-49.181-22.022
				C246.578,257.557,245.895,257.547,245.217,257.547z"/>
		</g>
		<g>
			<path fill="none" d="M522.277,93.878l-15.84-10.818l-15.318,14.27c-4.115-1.849-8.326-3.338-12.601-4.446l-3.06-20.695
				l-19.118-1.452l-6.131,20.028c-4.43,0.458-8.815,1.284-13.108,2.469l-13.014-16.425l-17.276,8.303l4.699,20.387
				c-3.574,2.586-6.954,5.504-10.113,8.722l-19.472-7.721l-10.805,15.833l14.279,15.331c-1.845,4.114-3.332,8.326-4.438,12.599
				l-20.691,3.044l-1.438,19.121l20.031,6.145c0.46,4.431,1.289,8.818,2.476,13.113l-16.413,13.004l8.314,17.285l20.382-4.687
				c2.588,3.577,5.508,6.959,8.728,10.12l-7.706,19.469l15.839,10.818l15.319-14.27c4.115,1.848,8.327,3.338,12.6,4.447l3.06,20.695
				l19.119,1.452l6.13-20.027c4.431-0.458,8.815-1.284,13.109-2.468l13.015,16.424l17.276-8.303l-4.7-20.388
				c3.575-2.586,6.954-5.503,10.112-8.721l19.473,7.719l10.806-15.833l-14.279-15.331c1.845-4.115,3.331-8.325,4.438-12.599
				l20.691-3.045l1.438-19.121l-20.029-6.143c-0.461-4.432-1.29-8.818-2.478-13.114l16.413-13.004l-8.314-17.285l-20.381,4.686
				c-2.589-3.578-5.508-6.959-8.728-10.12L522.277,93.878z M499.234,198.224c-15.362,22.511-46.07,28.292-68.59,12.912
				c-22.519-15.38-28.319-46.096-12.957-68.606c15.361-22.512,46.07-28.292,68.588-12.912
				C508.795,144.998,514.598,175.714,499.234,198.224z"/>
			<path fill="#B9CEEB" d="M460.58,270.925c-0.022,0-0.045-0.001-0.067-0.003l-19.121-1.452c-0.422-0.032-0.766-0.353-0.829-0.772
				l-2.971-20.103c-3.908-1.047-7.808-2.424-11.611-4.098l-14.879,13.86c-0.312,0.29-0.781,0.324-1.132,0.085l-15.838-10.818
				c-0.351-0.239-0.488-0.689-0.332-1.083l7.485-18.911c-2.944-2.933-5.646-6.065-8.043-9.326l-19.799,4.553
				c-0.413,0.094-0.838-0.109-1.02-0.492l-8.315-17.285c-0.183-0.382-0.077-0.841,0.255-1.104l15.944-12.632
				c-1.061-3.952-1.827-8.009-2.281-12.082l-19.458-5.968c-0.405-0.125-0.67-0.513-0.639-0.936l1.438-19.121
				c0.032-0.423,0.352-0.768,0.772-0.83l20.099-2.957c1.045-3.91,2.418-7.81,4.088-11.608l-13.869-14.892
				c-0.288-0.31-0.325-0.78-0.086-1.13l10.805-15.833c0.24-0.35,0.689-0.488,1.085-0.332l18.914,7.5
				c2.927-2.94,6.057-5.64,9.317-8.038l-4.565-19.803c-0.096-0.414,0.109-0.838,0.491-1.022l17.277-8.302
				c0.382-0.184,0.84-0.078,1.104,0.254L437.44,92.2c3.953-1.058,8.011-1.823,12.079-2.274l5.954-19.455
				c0.123-0.406,0.514-0.672,0.936-0.639l19.12,1.451c0.422,0.032,0.767,0.353,0.828,0.772l2.972,20.104
				c3.91,1.047,7.81,2.424,11.61,4.098l14.88-13.86c0.311-0.29,0.781-0.325,1.131-0.085l15.839,10.817
				c0.35,0.24,0.488,0.689,0.332,1.083l-7.485,18.911c2.944,2.933,5.646,6.065,8.044,9.325l19.797-4.552
				c0.41-0.095,0.838,0.108,1.021,0.491l8.314,17.285c0.184,0.383,0.079,0.842-0.254,1.104l-15.944,12.632
				c1.061,3.957,1.828,8.016,2.281,12.082l19.459,5.967c0.405,0.125,0.67,0.513,0.639,0.936l-1.438,19.121
				c-0.031,0.423-0.354,0.768-0.773,0.83l-20.097,2.958c-1.045,3.906-2.418,7.807-4.089,11.608l13.868,14.891
				c0.29,0.311,0.324,0.78,0.085,1.13l-10.804,15.833c-0.24,0.351-0.69,0.489-1.085,0.333l-18.914-7.499
				c-2.932,2.942-6.061,5.642-9.317,8.037l4.565,19.802c0.095,0.414-0.108,0.837-0.491,1.021l-17.276,8.303
				c-0.384,0.183-0.842,0.078-1.104-0.254l-12.642-15.955c-3.954,1.059-8.011,1.822-12.078,2.273l-5.955,19.455
				C461.331,270.667,460.977,270.925,460.58,270.925z M442.253,267.715l17.672,1.342l5.917-19.333
				c0.105-0.349,0.411-0.6,0.775-0.637c4.368-0.452,8.729-1.272,12.959-2.44c0.354-0.097,0.729,0.026,0.955,0.312l12.563,15.855
				l15.97-7.675l-4.538-19.679c-0.082-0.355,0.057-0.725,0.354-0.938c3.507-2.538,6.87-5.44,9.997-8.623
				c0.255-0.261,0.643-0.342,0.981-0.207l18.798,7.452l9.987-14.635l-13.785-14.799c-0.249-0.268-0.313-0.658-0.164-0.99
				c1.826-4.071,3.302-8.262,4.387-12.455c0.091-0.353,0.385-0.617,0.747-0.669l19.973-2.94l1.329-17.673l-19.337-5.93
				c-0.348-0.107-0.599-0.412-0.636-0.774c-0.455-4.366-1.278-8.729-2.449-12.965c-0.098-0.351,0.024-0.727,0.311-0.953
				l15.845-12.553l-7.686-15.978l-19.674,4.524c-0.358,0.082-0.725-0.058-0.938-0.354c-2.54-3.51-5.444-6.876-8.629-10.003
				c-0.261-0.255-0.343-0.642-0.208-0.982l7.438-18.794l-14.642-10l-14.786,13.775c-0.267,0.249-0.657,0.313-0.99,0.164
				c-4.07-1.828-8.261-3.308-12.456-4.396c-0.354-0.091-0.616-0.385-0.67-0.746l-2.954-19.978l-17.673-1.342L451.08,91.03
				c-0.107,0.349-0.413,0.599-0.774,0.637c-4.369,0.452-8.729,1.273-12.963,2.441c-0.352,0.098-0.727-0.027-0.953-0.312
				L423.828,77.94l-15.971,7.674l4.539,19.68c0.082,0.355-0.059,0.725-0.354,0.939c-3.512,2.541-6.875,5.441-9.998,8.623
				c-0.255,0.261-0.642,0.341-0.981,0.208l-18.798-7.452l-9.986,14.633l13.784,14.801c0.248,0.267,0.313,0.657,0.164,0.99
				c-1.825,4.067-3.301,8.257-4.387,12.454c-0.091,0.354-0.386,0.618-0.747,0.671l-19.973,2.939l-1.329,17.674l19.337,5.932
				c0.348,0.106,0.599,0.411,0.636,0.773c0.456,4.372,1.279,8.734,2.448,12.965c0.098,0.352-0.025,0.727-0.311,0.953l-15.843,12.553
				l7.685,15.978l19.674-4.524c0.357-0.081,0.725,0.057,0.938,0.353c2.54,3.511,5.444,6.877,8.629,10.004
				c0.261,0.256,0.343,0.643,0.208,0.982l-7.439,18.795l14.642,9.999l14.786-13.775c0.27-0.249,0.659-0.313,0.992-0.164
				c4.072,1.83,8.263,3.309,12.456,4.396c0.354,0.091,0.616,0.385,0.669,0.746L442.253,267.715z M458.389,220.663
				c-10.019,0-19.799-3.002-28.257-8.777c-22.895-15.638-28.814-46.98-13.194-69.868c7.565-11.087,18.998-18.561,32.193-21.044
				c13.19-2.483,26.565,0.32,37.657,7.896c22.896,15.636,28.815,46.979,13.196,69.866c-7.567,11.088-19,18.562-32.192,21.045
				C464.658,220.371,461.512,220.663,458.389,220.663z M458.527,121.907c-3.01,0-6.041,0.281-9.062,0.85
				c-12.718,2.394-23.737,9.598-31.029,20.284c-15.056,22.061-9.35,52.273,12.721,67.347c10.691,7.301,23.581,10.003,36.298,7.61
				s23.736-9.598,31.029-20.284l0.75,0.511l-0.75-0.511c15.057-22.063,9.349-52.273-12.72-67.346
				C477.614,124.801,468.184,121.907,458.527,121.907z"/>
		</g>
	</g>
	<g>
		<g>
			<g>
				<path fill="#FFFFFF" d="M303.688,638.928l-55.735,36.138c-0.044,0.029-0.104,0.045-0.167,0.044l-138.019-0.34
					c-0.208-0.001-0.313-0.165-0.166-0.261l55.323-35.87c0.044-0.029,0.104-0.046,0.166-0.046l138.432,0.075
					C303.731,638.668,303.835,638.831,303.688,638.928z"/>
				<path d="M247.786,676.018l-138.021-0.341c-0.521,0-0.962-0.313-1.099-0.776c-0.129-0.435,0.049-0.898,0.441-1.152l55.323-35.872
					c0.188-0.123,0.418-0.189,0.66-0.189l138.433,0.073c0.521,0,0.964,0.312,1.101,0.774c0.129,0.436-0.049,0.899-0.441,1.155
					c0,0,0,0,0,0l-55.735,36.138C248.254,675.951,248.027,676.018,247.786,676.018z M112.259,673.869l135.357,0.333l53.408-34.629
					l-135.763-0.071L112.259,673.869z M165.422,639.397l-0.007,0.004C165.417,639.399,165.419,639.398,165.422,639.397z
					 M303.688,638.928h0.008H303.688z"/>
			</g>
			<path fill="#1D4354" stroke="#B9CEEB" stroke-width="0.75" stroke-miterlimit="10" d="M303.816,638.7v74.233l-55.36,35.916
				c-0.211,0.137-0.572,0.039-0.572-0.153V675.11C247.884,675.11,303.017,638.726,303.816,638.7z"/>
			<g>
				<path fill="none" d="M247.884,748.913l-138.446-0.338l0.118-73.729l138.328,0.265
					C247.884,675.11,247.884,749.036,247.884,748.913z"/>
				<path d="M247.884,749.82c-0.001,0-0.001,0-0.002,0l-138.446-0.339c-0.5-0.001-0.906-0.407-0.905-0.908l0.117-73.729
					c0-0.241,0.097-0.472,0.267-0.643c0.171-0.169,0.413-0.266,0.643-0.264l138.329,0.264c0.5,0.001,0.905,0.407,0.905,0.908v73.803
					c0,0.241-0.096,0.472-0.266,0.642S248.124,749.82,247.884,749.82z M110.347,747.669l136.629,0.333v-71.986l-136.515-0.261
					L110.347,747.669z"/>
			</g>
		</g>
		<g>
			<g>
				<g>
					<path fill="#FFFFFF" d="M507.936,502.053l-55.684,35.956l-154.228-0.34c-0.16,0-0.24-0.125-0.127-0.198l55.483-35.829
						l154.34,0.073C507.992,501.715,508.128,501.928,507.936,502.053z"/>
					<path d="M452.252,538.918c-0.001,0-0.001,0-0.002,0l-154.228-0.34c-0.496-0.002-0.916-0.303-1.046-0.748
						c-0.125-0.425,0.047-0.877,0.429-1.121l55.483-35.83c0.147-0.095,0.318-0.146,0.492-0.146l154.341,0.075
						c0.556,0,1.026,0.326,1.17,0.811c0.133,0.451-0.054,0.931-0.463,1.195l-55.684,35.958
						C452.598,538.867,452.427,538.918,452.252,538.918z M300.658,536.768l151.327,0.335l53.396-34.481l-151.733-0.072
						L300.658,536.768z"/>
				</g>
				<path fill="#1D4354" d="M508.184,501.748v211.138l-55.508,35.865c-0.156,0.101-0.424,0.029-0.424-0.114V538.009
					C452.252,538.009,507.385,501.774,508.184,501.748z"/>
				<g>
					<path fill="#FFFFFF" d="M452.252,748.984l-154.426-0.338c0.33,0.213,0.118-210.899,0.118-210.899l154.309,0.262
						C452.252,538.009,452.252,749.107,452.252,748.984z"/>
					<path d="M452.252,749.891C452.251,749.891,452.251,749.891,452.252,749.891l-154.428-0.336
						c-0.422-0.001-0.788-0.293-0.882-0.704c-0.029-0.124-0.03-0.248-0.008-0.366c0.306-4.573,0.104-208.67,0.102-210.736
						c0-0.241,0.095-0.473,0.265-0.644c0.171-0.169,0.401-0.265,0.642-0.265c0.001,0,0.001,0,0.002,0l154.309,0.263
						c0.5,0.001,0.905,0.406,0.905,0.906v210.976c0,0.24-0.096,0.472-0.266,0.642S452.492,749.891,452.252,749.891z
						 M298.742,747.742l152.603,0.332V538.916l-152.494-0.261c0.007,7.188,0.053,55.821,0.064,104.474
						c0.005,26.353,0.002,52.711-0.025,72.491c-0.013,9.892-0.032,18.138-0.058,23.917
						C298.813,744.045,298.802,746.439,298.742,747.742z"/>
				</g>
			</g>
			<path d="M404.284,729.687c-0.298,0-0.59-0.146-0.763-0.414c-0.272-0.422-0.151-0.984,0.269-1.255l14.058-9.078
				c0.421-0.272,0.982-0.151,1.255,0.271c0.272,0.42,0.15,0.981-0.271,1.253l-14.057,9.078
				C404.623,729.64,404.452,729.687,404.284,729.687z"/>
		</g>
		<g>
			<g>
				<g>
					<path fill="#FFFFFF" d="M708.963,351.223l-56.203,43.403l-152.184-0.407c-0.226,0-0.338-0.209-0.178-0.334l55.36-42.75
						L708.963,351.223z"/>
					<path d="M652.76,395.532c-0.003,0-0.003,0-0.004,0l-152.182-0.405c-0.504-0.001-0.947-0.308-1.101-0.764
						c-0.15-0.437-0.004-0.906,0.37-1.196l55.36-42.75c0.158-0.123,0.353-0.189,0.554-0.189l153.207,0.088
						c0.389,0,0.732,0.248,0.858,0.615c0.125,0.367,0.003,0.774-0.305,1.011l-56.205,43.402
						C653.155,395.466,652.96,395.532,652.76,395.532z M502.619,393.317l149.831,0.399l53.856-41.588l-150.239-0.087
						L502.619,393.317z"/>
				</g>
				<path fill="#1D4354" d="M708.963,351.261v354.797l-55.353,42.771c-0.214,0.164-0.578,0.047-0.578-0.187V394.626
					C653.032,394.626,708.165,351.292,708.963,351.261z"/>
				<g>
					<path fill="#B9CEEB" d="M653.032,748.908l-152.829-0.402c0.33,0.256,0.118-354.196,0.118-354.196l152.711,0.316
						C653.032,394.626,653.032,749.056,653.032,748.908z"/>
					<path d="M653.032,749.815h-0.002l-152.829-0.402c-0.428-0.001-0.798-0.302-0.886-0.72c-0.024-0.11-0.025-0.221-0.009-0.327
						c0.312-5.532,0.109-350.563,0.107-354.056c0-0.24,0.095-0.474,0.266-0.642c0.17-0.17,0.401-0.266,0.642-0.266
						c0,0,0.001,0,0.002,0l152.711,0.314c0.5,0.001,0.905,0.407,0.905,0.908v354.282c0,0.24-0.096,0.473-0.268,0.643
						C653.502,749.72,653.272,749.815,653.032,749.815z M501.13,747.601l150.995,0.398V395.531l-150.896-0.312
						c0.006,9.559,0.054,92.834,0.065,176.127c0.005,44.266,0.001,88.535-0.024,121.749c-0.014,16.607-0.033,30.451-0.06,40.146
						c-0.012,4.851-0.027,8.662-0.043,11.266C501.157,745.939,501.151,746.919,501.13,747.601z"/>
				</g>
			</g>
			<path d="M565.228,706.184c-0.271,0-0.54-0.122-0.72-0.354c-0.307-0.396-0.231-0.967,0.164-1.273l44.253-34.173
				c0.397-0.306,0.967-0.233,1.273,0.163c0.306,0.396,0.234,0.967-0.163,1.273l-44.254,34.175
				C565.616,706.121,565.422,706.184,565.228,706.184z"/>
			<path d="M563.666,680.452c-0.272,0-0.54-0.121-0.719-0.353c-0.307-0.396-0.233-0.967,0.162-1.272l14.058-10.855
				c0.396-0.306,0.966-0.234,1.272,0.163s0.233,0.968-0.163,1.273l-14.056,10.856C564.055,680.391,563.859,680.452,563.666,680.452z
				"/>
		</g>
	</g>
	<g>
		<g>
			<g>
				<g>
					<polygon fill="#FFFFFF" points="48.19,696.164 44.426,729.562 58.629,735.476 63.86,699.067 					"/>
					<path d="M58.629,736.382c-0.118,0-0.237-0.022-0.349-0.069l-14.203-5.914c-0.373-0.154-0.598-0.537-0.553-0.938l3.765-33.396
						c0.028-0.251,0.159-0.479,0.362-0.628c0.201-0.15,0.457-0.208,0.705-0.163l15.67,2.901c0.479,0.09,0.802,0.54,0.733,1.021
						l-5.231,36.409c-0.041,0.277-0.206,0.521-0.45,0.66C58.939,736.343,58.784,736.382,58.629,736.382z M45.404,728.985
						l12.494,5.201l4.941-34.386l-13.855-2.566L45.404,728.985z"/>
				</g>
				<g>
					<g>
						<path fill="#FFFFFF" d="M41.12,726.407c-0.447,3.167-1.169,9.039-1.229,14.306c-0.038,3.306,2.446,6.095,5.725,6.516
							c9.274,1.189,30.308,2.491,48.225,0.865c1.227-0.109,3.396-1.005,4-4.067c2.028-10.282-15.863-12.803-35.478-20.264
							c-0.769-0.292-1.637-0.119-2.229,0.453l-2.115,2.048c-2.116,2.05-5.254,2.631-7.965,1.476l-6.433-2.744
							C42.525,724.527,41.287,725.228,41.12,726.407z"/>
						<path d="M75.17,749.771c-12.057,0-23.301-0.825-29.671-1.643c-3.758-0.481-6.56-3.674-6.517-7.426
							c0.061-5.353,0.802-11.333,1.238-14.423c0.12-0.843,0.614-1.568,1.356-1.987c0.741-0.418,1.616-0.467,2.399-0.132l6.432,2.744
							c2.381,1.015,5.12,0.508,6.979-1.293l2.115-2.047c0.837-0.813,2.088-1.066,3.183-0.65c4.576,1.741,8.974,3.185,13.227,4.58
							c13.703,4.495,24.526,8.047,22.818,16.709c-0.646,3.275-2.994,4.63-4.809,4.796C87.829,749.551,81.391,749.771,75.17,749.771z
							 M42.91,725.756c-0.152,0-0.303,0.04-0.44,0.117c-0.247,0.141-0.412,0.38-0.451,0.66c0,0.001,0,0.001,0,0.001
							c-0.431,3.045-1.162,8.938-1.221,14.188c-0.033,2.832,2.088,5.242,4.933,5.607c9.577,1.229,30.269,2.473,48.027,0.861
							c0.43-0.039,2.608-0.384,3.191-3.339c1.398-7.088-8.25-10.253-21.604-14.633c-4.272-1.402-8.691-2.854-13.306-4.608
							c-0.44-0.167-0.94-0.066-1.275,0.257l-2.114,2.049c-2.386,2.31-5.899,2.959-8.954,1.657l-6.433-2.743
							C43.15,725.78,43.029,725.756,42.91,725.756z M41.12,726.408h0.009H41.12z"/>
					</g>
					<g>
						<path fill="#FFFFFF" d="M39.904,739.921c0,0-0.011,0.533-0.014,0.792c-0.038,3.306,2.446,6.095,5.725,6.516
							c9.274,1.189,30.308,2.491,48.225,0.865c1.227-0.109,3.396-1.005,4-4.067c0.185-0.938,0.071-2.631,0.071-2.631l-1.271,0.063
							c-18.105,0.894-36.251,0.458-54.293-1.3L39.904,739.921z"/>
						<path d="M75.17,749.771c-12.057,0-23.301-0.825-29.671-1.643c-3.758-0.481-6.56-3.674-6.517-7.426l0.013-0.8
							c0.006-0.253,0.116-0.492,0.305-0.66c0.189-0.169,0.438-0.253,0.691-0.225l2.444,0.238
							c17.936,1.748,36.157,2.184,54.159,1.296l1.271-0.063c0.488-0.023,0.917,0.353,0.95,0.846
							c0.013,0.186,0.116,1.843-0.086,2.869c-0.646,3.275-2.994,4.63-4.809,4.796C87.829,749.551,81.391,749.771,75.17,749.771z
							 M40.799,740.92c0.065,2.744,2.153,5.053,4.932,5.409c9.577,1.229,30.269,2.473,48.027,0.861
							c0.43-0.039,2.608-0.384,3.191-3.339c0.077-0.39,0.093-0.986,0.087-1.504l-0.352,0.018
							c-18.089,0.894-36.401,0.454-54.426-1.304L40.799,740.92z"/>
					</g>
					<path d="M66.861,735.775c-0.231,0-0.464-0.089-0.642-0.266c-0.354-0.354-0.354-0.929,0-1.283l6.883-6.885
						c0.353-0.354,0.929-0.354,1.283,0c0.354,0.354,0.354,0.929,0,1.282l-6.883,6.886C67.326,735.687,67.093,735.775,66.861,735.775
						z"/>
					<path d="M73.622,736.489c-0.227,0-0.454-0.084-0.629-0.253c-0.361-0.348-0.373-0.922-0.025-1.283l5.499-5.713
						c0.348-0.36,0.923-0.372,1.283-0.024c0.361,0.347,0.373,0.922,0.025,1.283l-5.499,5.712
						C74.098,736.396,73.86,736.489,73.622,736.489z"/>
				</g>
			</g>
			<path fill="#1D4354" d="M99.775,476.074c0,0-8.646,5.019-12.021,34.442c-3.375,29.424-2.249,64.11-25.749,98.509
				c-18.768,27.473-17.119,73.836-19.847,104.226c-0.132,1.468,0.997,2.738,2.469,2.789l17.993,0.617
				c1.146,0.039,2.178-0.68,2.53-1.773c3.216-9.958,19.208-58.001,37.173-85.857c18.984-29.438,42.069-105.855,42.069-105.855
				s-4.284-19.314-4.879-37.827C138.919,466.83,99.775,476.074,99.775,476.074z"/>
			<g>
				<g>
					<polygon fill="#FFFFFF" points="198.537,612.602 190.949,645.343 204.377,652.852 213.768,617.289 					"/>
					<path d="M204.377,653.761c-0.153,0-0.306-0.039-0.443-0.117l-13.428-7.51c-0.352-0.197-0.532-0.603-0.441-0.997l7.588-32.74
						c0.057-0.246,0.213-0.456,0.432-0.583c0.218-0.125,0.478-0.154,0.719-0.08l15.231,4.688c0.466,0.145,0.735,0.629,0.61,1.099
						l-9.392,35.564c-0.071,0.271-0.264,0.494-0.522,0.603C204.618,653.735,204.498,653.761,204.377,653.761z M191.987,644.883
						l11.811,6.605l8.871-33.589l-13.467-4.146L191.987,644.883z"/>
				</g>
				<g>
					<g>
						<path fill="#FFFFFF" d="M189.336,643.406c-0.447,3.167-3.293,9.168-3.353,14.434c-0.038,3.307,2.445,6.096,5.725,6.518
							c9.273,1.189,32.43,2.364,50.348,0.737c1.227-0.112,3.396-1.005,4-4.067c2.027-10.284-15.863-12.805-35.478-20.265
							c-0.769-0.291-1.638-0.118-2.229,0.452l-2.115,2.049c-2.116,2.05-5.255,2.631-7.964,1.476l-6.434-2.745
							C190.741,641.528,189.503,642.229,189.336,643.406z"/>
						<path d="M221.969,666.792c-12.115,0-23.887-0.701-30.376-1.536c-3.758-0.481-6.56-3.675-6.518-7.426
							c0.04-3.452,1.224-7.192,2.176-10.196c0.554-1.748,1.031-3.257,1.186-4.354c0.12-0.845,0.614-1.569,1.356-1.987
							c0.741-0.42,1.615-0.467,2.399-0.134l6.433,2.744c2.381,1.016,5.119,0.508,6.979-1.291l2.114-2.049
							c0.838-0.812,2.086-1.064,3.183-0.648c4.575,1.739,8.973,3.183,13.227,4.578c13.704,4.496,24.527,8.048,22.819,16.709
							c-0.646,3.277-2.994,4.631-4.809,4.797C235.919,666.563,228.887,666.792,221.969,666.792z M191.127,642.757
							c-0.153,0-0.304,0.038-0.442,0.117c-0.247,0.139-0.41,0.38-0.45,0.661c-0.177,1.246-0.675,2.822-1.253,4.646
							c-0.916,2.89-2.055,6.486-2.092,9.669c-0.032,2.831,2.088,5.241,4.934,5.606c8.411,1.079,31.756,2.402,50.15,0.734
							c0.431-0.04,2.608-0.385,3.191-3.339c1.398-7.088-8.25-10.253-21.604-14.636c-4.273-1.4-8.692-2.85-13.307-4.605
							c-0.439-0.167-0.94-0.066-1.273,0.257l-2.115,2.048c-2.386,2.311-5.899,2.96-8.953,1.657l-6.433-2.743
							C191.367,642.78,191.247,642.757,191.127,642.757z M189.336,643.406h0.009H189.336z"/>
					</g>
					<g>
						<path fill="#FFFFFF" d="M186.488,656.829c0,0-0.011,0.534-0.014,0.792c-0.038,3.306,2.445,6.097,5.725,6.517
							c9.273,1.191,31.94,2.584,49.857,0.957c1.227-0.112,3.396-1.005,4-4.067c0.185-0.938,0.071-2.632,0.071-2.632l-1.271,0.063
							c-18.105,0.894-36.252,0.459-54.293-1.299L186.488,656.829z"/>
						<path d="M223.693,666.744c-13.421,0-25.995-0.985-31.61-1.707c-3.758-0.481-6.56-3.675-6.517-7.427l0.014-0.8
							c0.004-0.25,0.113-0.485,0.298-0.653c0.186-0.169,0.43-0.256,0.682-0.232l4.076,0.329c17.956,1.75,36.178,2.188,54.176,1.298
							l1.27-0.063c0.51-0.013,0.917,0.352,0.95,0.846c0.013,0.186,0.116,1.841-0.086,2.867c-0.646,3.277-2.994,4.631-4.809,4.797
							C236.207,666.536,229.86,666.744,223.693,666.744z M187.383,657.812c0.057,2.753,2.147,5.068,4.932,5.426
							c8.131,1.044,30.968,2.65,49.66,0.954c0.431-0.04,2.608-0.385,3.191-3.339c0.077-0.391,0.093-0.988,0.088-1.507l-0.353,0.019
							c-18.087,0.892-36.396,0.455-54.426-1.302L187.383,657.812z"/>
					</g>
					<path d="M215.077,652.775c-0.231,0-0.464-0.088-0.641-0.265c-0.354-0.355-0.354-0.93,0-1.284l6.882-6.885
						c0.353-0.354,0.929-0.354,1.283,0c0.355,0.354,0.355,0.929,0,1.283l-6.882,6.886
						C215.542,652.688,215.31,652.775,215.077,652.775z"/>
					<path d="M221.838,653.49c-0.227,0-0.453-0.084-0.629-0.253c-0.361-0.349-0.373-0.922-0.025-1.283l5.5-5.714
						c0.348-0.36,0.922-0.371,1.283-0.025c0.361,0.35,0.372,0.923,0.025,1.284l-5.5,5.714
						C222.314,653.396,222.076,653.49,221.838,653.49z"/>
				</g>
			</g>
			<path fill="#1D4354" d="M129.977,525.308c0,0,42.42,12.621,87.537-11.607c1.332-0.714,2.749,0.813,1.94,2.089
				c-2.271,3.594-8.764,12.418-12.152,21.613c-4.17,11.32-12.976,69.887-15.878,88.113c-0.262,1.646,0.979,3.146,2.645,3.2
				l17.347,0.563c1.097,0.036,2.11-0.574,2.585-1.564c6.26-13.041,50.811-115.344,49.25-134.461
				c-1.687-20.666-28.961-19.612-38.801-20.244c-10.181-0.652-91.36,1.24-91.36,1.24L129.977,525.308z"/>
		</g>
		<g>
			<g>
				<path fill="#FFFFFF" d="M11.474,498.18c1.397-1.666,3.207-3.619,4.764-5.157c2.009-1.986,8.719-15.044,8.719-15.044
					l11.731,3.323c0,0-5.484,9.595-4.167,14.373c1.227,4.45,2.194,13.848-4.32,20.688c-0.748,0.784-2.384,0.992-2.952,0.86
					c-1.701-0.398-1.735-2.76-0.902-4.294l2.353-4.333c0.207-0.382-0.106-0.834-0.535-0.774c-1.76,0.249-5.63,1.378-9.682,6.374
					c-3.117,3.844-9.295,12.427-11.372,11.006C1.4,522.663,3.824,507.296,11.474,498.18z"/>
				<path d="M5.625,526.269c-0.37,0-0.712-0.102-1.028-0.318c-1.034-0.707-1.695-2.07-1.967-4.052
					c-0.826-6.031,2.054-17.037,8.149-24.302c1.401-1.67,3.204-3.622,4.821-5.22c1.563-1.545,6.702-11.217,8.549-14.813
					c0.197-0.385,0.639-0.577,1.055-0.458l11.731,3.323c0.269,0.077,0.487,0.271,0.593,0.529c0.105,0.258,0.086,0.552-0.052,0.794
					c-1.474,2.578-5.078,10.063-4.081,13.682c0.599,2.174,3.199,13.432-4.538,21.555c-1.029,1.078-3.032,1.302-3.816,1.118
					c-0.822-0.193-1.47-0.734-1.823-1.521c-0.512-1.14-0.379-2.782,0.33-4.089l1.969-3.625c-1.758,0.425-4.974,1.756-8.33,5.896
					c-0.464,0.571-0.996,1.249-1.571,1.981C11.299,522.247,7.938,526.269,5.625,526.269z M25.422,479.055
					c-1.492,2.877-6.691,12.778-8.546,14.613c-1.557,1.538-3.36,3.49-4.707,5.095c0,0,0,0,0,0.001
					c-5.594,6.665-8.52,17.217-7.742,22.889c0.193,1.412,0.618,2.405,1.194,2.801c1.325,0.379,6.59-6.308,8.566-8.824
					c0.582-0.742,1.12-1.427,1.588-2.004c4.186-5.163,8.225-6.415,10.261-6.701c0.539-0.076,1.066,0.154,1.376,0.602
					c0.311,0.446,0.343,1.023,0.082,1.503l-2.352,4.334c-0.432,0.796-0.547,1.861-0.27,2.481c0.124,0.274,0.308,0.432,0.581,0.495
					c0.351,0.081,1.618-0.108,2.089-0.602c7.062-7.416,4.656-17.813,4.102-19.821c-1.152-4.177,2.305-11.387,3.703-14.05
					L25.422,479.055z M11.474,498.18h0.009H11.474z"/>
			</g>
			<g>
				<path fill="#FFFFFF" d="M292.699,350.708l-7.582-12.781c-1.246-2.102-5.17-2.738-7.127-1.279
					c-42.844,31.935-88.419,18.91-95.463,17.232c-17.469-4.16-26.27-4.793-40.06-5.633c-20.18-1.229-49.213,10.441-68.747,29.976
					c-15.542,15.541-42.049,65.946-54.066,100.965c-0.505,1.473,0.144,3.089,1.525,3.806l12.06,6.258
					c1.529,0.793,3.409,0.213,4.216-1.309c6.138-11.564,32.727-59.52,60.555-75.352c2.044-1.164,5.124,0.066,5.005,2.416
					c-0.37,7.371-4.945,34.694-6.34,60.009c-0.184,3.341,2.122,6.304,5.412,6.913l12.174,2.257
					c21.233,4.944,41.141-0.563,49.913-3.693c2.685-0.959,3.985-3.548,4.393-6.371c0.676-4.68,10.101-42.213,27.288-67.038
					c2.163-3.126,5.44-5.289,9.235-5.511c15.324-0.896,58.942-7.023,87.424-46.932C293.346,353.478,293.429,351.939,292.699,350.708
					z"/>
				<path d="M34.676,490.509c-0.626,0-1.262-0.145-1.854-0.452l-12.06-6.257c-1.795-0.932-2.621-2.994-1.966-4.905
					c12.4-36.135,39.288-86.319,54.283-101.313c18.826-18.826,48.035-31.549,69.443-30.24c14.125,0.86,22.958,1.547,40.215,5.657
					c0.276,0.066,0.611,0.149,1.003,0.246c34.592,8.576,66.994,2.588,93.707-17.323c1.174-0.875,2.936-1.182,4.717-0.828
					c1.679,0.336,3.041,1.201,3.734,2.372l7.582,12.781c0.907,1.528,0.818,3.46-0.226,4.923
					c-28.339,39.709-71.058,46.313-88.109,47.31c-3.311,0.194-6.425,2.06-8.544,5.121c-16.362,23.638-26.25,60.53-27.135,66.653
					c-0.521,3.614-2.292,6.133-4.986,7.095c-9.792,3.495-29.365,8.627-50.424,3.724l-12.133-2.248
					c-3.717-0.69-6.361-4.065-6.153-7.856c0.898-16.293,3.08-33.182,4.673-45.512c0.859-6.645,1.537-11.893,1.667-14.493
					c0.04-0.813-0.527-1.288-0.868-1.499c-0.829-0.509-1.973-0.543-2.782-0.083c-27.119,15.429-52.936,61.298-60.203,74.989
					C37.535,489.729,36.127,490.509,34.676,490.509z M139.416,349.064c-20.608,0-47.431,12.176-65.054,29.801
					c-14.845,14.845-41.518,64.683-53.851,100.618c-0.361,1.054,0.096,2.191,1.085,2.705l12.06,6.257
					c1.082,0.562,2.427,0.147,2.998-0.927c7.325-13.8,33.364-60.045,60.907-75.717c1.382-0.785,3.243-0.738,4.631,0.116
					c1.163,0.715,1.793,1.858,1.729,3.135c-0.135,2.672-0.816,7.951-1.68,14.635c-1.59,12.304-3.767,29.153-4.661,45.38
					c-0.159,2.881,1.85,5.447,4.67,5.971l12.174,2.256c20.647,4.808,39.837-0.227,49.443-3.654c2.601-0.93,3.501-3.583,3.799-5.646
					c0.602-4.17,9.792-41.936,27.439-67.427c2.439-3.523,6.058-5.675,9.929-5.9c16.791-0.981,58.854-7.483,86.738-46.553
					c0.626-0.877,0.683-2.032,0.143-2.942l-7.582-12.781c-0.426-0.719-1.372-1.286-2.53-1.518c-1.264-0.252-2.52-0.061-3.276,0.502
					c-26.774,19.958-60.593,26.22-95.228,17.63c-0.385-0.095-0.714-0.178-0.986-0.242c-17.112-4.075-25.88-4.757-39.905-5.611
					C141.43,349.093,140.429,349.064,139.416,349.064z"/>
			</g>
			<g>
				<path fill="#FFFFFF" d="M282.264,341.769c-0.161-0.95,0.177-1.915,0.91-2.539c0.972-0.827,2.609-2.232,4.986-4.313
					c4.191-3.668,9.435-10.985,14.005-13.18c4.569-2.195,21.146-8.671,23.795-7.297c2.649,1.375,1.336,4.487-2.427,6.294
					c-3.763,1.808-8.662,3.665-8.662,3.665s2.738-0.157,4.761,3.006c2.023,3.164-0.78,4.442,0.402,6.007
					c1.514,2.006,1.067,4.338-0.133,5.361c-2.738,2.329-6.052-2.276-8.525,2.489c-1.719,3.312-5.779,5.468-14.015,7.041
					c-2.21,0.423-4.315,1.271-6.222,2.463c-0.79,0.494-1.79,0.532-2.601,0.074C286.574,349.732,283.161,347.086,282.264,341.769z"/>
				<path d="M289.769,352.069c-0.579,0-1.155-0.145-1.676-0.438c-2.099-1.185-5.763-4.021-6.723-9.711
					c-0.214-1.266,0.252-2.562,1.216-3.382c0.97-0.825,2.604-2.228,4.976-4.305c1.483-1.298,3.107-3.07,4.826-4.946
					c3.104-3.389,6.315-6.894,9.383-8.368c1.954-0.939,21.113-9.098,24.606-7.285c1.231,0.639,1.899,1.655,1.881,2.863
					c-0.028,1.849-1.688,3.785-4.333,5.054c-2.063,0.992-4.481,2.004-6.249,2.718c0.893,0.5,1.868,1.314,2.72,2.647
					c1.4,2.19,0.841,3.753,0.47,4.788c-0.273,0.761-0.288,0.924-0.108,1.161c1.809,2.395,1.269,5.29-0.27,6.599
					c-1.502,1.279-3.148,0.936-4.473,0.66c-1.703-0.355-2.73-0.57-3.835,1.556c-1.905,3.669-6.287,5.917-14.65,7.514
					c-2.07,0.395-4.058,1.183-5.911,2.341C291.052,351.89,290.41,352.069,289.769,352.069z M283.158,341.618
					c0.836,4.948,4.01,7.407,5.827,8.432c0.515,0.291,1.156,0.27,1.674-0.054c2.043-1.277,4.241-2.146,6.532-2.584
					c7.757-1.481,11.758-3.446,13.38-6.568c1.738-3.348,4.096-2.854,5.816-2.497c1.301,0.272,2.139,0.404,2.925-0.265
					c0.764-0.65,1.292-2.41-0.002-4.123c-0.799-1.058-0.441-2.061-0.152-2.866c0.323-0.904,0.629-1.759-0.291-3.2
					c-1.687-2.637-3.855-2.593-3.954-2.587c-0.436,0.017-0.838-0.292-0.927-0.728c-0.087-0.435,0.147-0.871,0.563-1.028
					c0.049-0.019,4.907-1.864,8.59-3.635c2.262-1.086,3.29-2.513,3.304-3.445c0.003-0.186,0.011-0.751-0.901-1.225
					c-1.928-0.999-16.972,4.421-22.985,7.31c-2.753,1.323-5.843,4.695-8.831,7.958c-1.754,1.914-3.41,3.722-4.969,5.087
					c-2.381,2.084-4.022,3.492-4.996,4.321C283.275,340.335,283.049,340.969,283.158,341.618z"/>
			</g>
		</g>
		<g>
			<g>
				<path fill="#FFFFFF" d="M171.507,313.604l-22.665,37.568c-0.309,0.428-3.636,0.312-7.39,0.692
					c-1.75,0.178-3.584,0.445-5.101,0.691c-1.249,0.202-1.601,1.829-0.546,2.528l4.057,2.687c8.506,5.633,18.605,8.547,28.784,7.855
					c2.829-0.191,5.54-0.647,7.952-1.398l8.681-2.731c1.302-0.41,1.292-2.256-0.014-2.653l-11.054-3.35l9.333-19.81L171.507,313.604
					z"/>
				<path d="M165.736,366.631c-9.149,0-18.41-2.831-26.375-8.106l-4.057-2.687c-0.794-0.526-1.177-1.465-0.977-2.396
					c0.2-0.931,0.938-1.631,1.878-1.784c1.913-0.311,3.646-0.546,5.155-0.698c1.547-0.157,3.037-0.231,4.234-0.292
					c1.021-0.05,2.163-0.107,2.614-0.199l22.522-37.335c0.167-0.278,0.46-0.441,0.797-0.438c0.325,0.007,0.621,0.188,0.777,0.473
					l12.036,22.08c0.139,0.253,0.147,0.559,0.024,0.82l-8.886,18.86l10.049,3.045c0.984,0.298,1.624,1.156,1.629,2.184
					c0.006,1.029-0.625,1.894-1.607,2.202l-8.68,2.732c-2.409,0.75-5.154,1.233-8.163,1.438
					C167.72,366.598,166.729,366.631,165.736,366.631z M171.468,315.426l-21.849,36.214c-0.48,0.67-1.35,0.713-3.934,0.842
					c-1.177,0.059-2.64,0.132-4.142,0.284c-1.472,0.149-3.171,0.379-5.047,0.683c-0.294,0.048-0.375,0.278-0.396,0.375
					c-0.02,0.097-0.042,0.338,0.205,0.501l4.057,2.688c8.498,5.628,18.518,8.363,28.222,7.707c2.867-0.194,5.472-0.652,7.743-1.358
					l8.677-2.731c0.306-0.096,0.337-0.355,0.337-0.461c0-0.107-0.035-0.365-0.341-0.458l-11.054-3.349
					c-0.252-0.077-0.459-0.259-0.566-0.5c-0.107-0.242-0.104-0.517,0.008-0.756l9.137-19.393L171.468,315.426z"/>
			</g>
			<path fill="#FFFFFF" d="M181.627,336.458c1.188,0.154,2.413,0.202,3.671,0.137l2.238-0.117c0,0,12.834-1.703,14.892-4.886
				c2.058-3.182-2.292-14.736-2.292-14.736c1.984-1.543,2.427-3.494,2.003-4.147s-3.285-1.656-4.446-2.51
				c-0.946-0.696-3.066-6.228-3.975-8.601c0,0-1.681-9.379-16.722-8.16c-34.467,2.792-9.686,34.687-9.686,34.687
				c0.532,0.621,1.083,1.215,1.65,1.779L181.627,336.458z"/>
			<path d="M184.216,337.53c-1.912,0-3.791-0.255-5.603-0.762c-0.483-0.135-0.765-0.635-0.629-1.118
				c0.135-0.482,0.633-0.765,1.118-0.629c1.977,0.553,4.046,0.774,6.148,0.667l2.238-0.117c4.73-0.632,12.845-2.412,14.178-4.472
				c1.318-2.039-0.761-9.623-2.38-13.924c-0.14-0.372-0.022-0.792,0.292-1.037c1.55-1.204,1.909-2.629,1.783-2.966
				c-0.162-0.156-1.174-0.64-1.843-0.96c-0.872-0.417-1.773-0.848-2.364-1.284c-0.847-0.624-2.008-3.064-4.284-9.005
				c-0.021-0.053-0.035-0.109-0.046-0.165c-0.066-0.345-1.784-8.544-15.756-7.416c-8.501,0.688-13.922,3.132-16.114,7.263
				c-3.708,6.988,2.193,17.433,5.719,23.672l0.313,0.554c0.246,0.437,0.091,0.99-0.345,1.236c-0.436,0.246-0.99,0.093-1.237-0.345
				l-0.311-0.552c-3.709-6.563-9.917-17.55-5.742-25.416c2.501-4.714,8.413-7.479,17.571-8.221
				c14.808-1.201,17.407,7.717,17.666,8.798c2.36,6.157,3.289,7.827,3.651,8.143c0.443,0.325,1.303,0.737,2.062,1.1
				c1.423,0.68,2.245,1.092,2.6,1.64c0.696,1.075,0.154,3.218-1.696,4.923c0.947,2.634,4.011,11.812,1.984,14.947
				c-2.221,3.435-14.178,5.113-15.534,5.292l-2.311,0.124C184.968,337.521,184.592,337.53,184.216,337.53z"/>
			<path d="M169.96,289.359c3.757-0.741,8.041-0.157,9.871-0.781c2.952-1.005,2.884-4.404,7.047-4.739
				c3.661-0.293,7.065,0.388,8.913,3.192c0.308,0.467,0.577,0.99,0.792,1.581c2.885,7.924-1.101,11.747-2.863,12.987
				c0,0-11.162,5.36-13.088,6.902c-1.802,1.442-3.925,4.873-2.767,9.835c0.149,0.641-0.159,1.303-0.732,1.625
				c-0.672,0.377-1.526,0.188-1.965-0.446c-1.383-1.999-4.42-5.867-6.672-4.975c-2.625,1.041-3.517,7.638,1.308,9.27
				c1.486,0.502,1.975,2.447,0.906,3.594c-0.889,0.953-2.247,1.618-4.293,1.099c0,0-12.007-8.561-13.429-19.843
				C151.566,297.378,164.959,290.345,169.96,289.359z"/>
		</g>
	</g>
	<g>
		<g>
			<rect x="587.012" y="279.513" fill="#FFFFFF" width="31.537" height="84.093"/>
			<path d="M618.549,364.513h-31.537c-0.501,0-0.906-0.407-0.906-0.907v-84.093c0-0.501,0.405-0.907,0.906-0.907h31.537
				c0.501,0,0.908,0.406,0.908,0.907v84.093C619.457,364.106,619.05,364.513,618.549,364.513z M587.92,362.697h29.722v-82.276
				H587.92V362.697z"/>
		</g>
		<g>
			<path fill="#FFFFFF" d="M625.206,364.879H580.03c-3.358,0-6.08-2.721-6.08-6.08v-11.412c0-3.357,2.722-6.08,6.08-6.08h45.176
				c3.358,0,6.078,2.722,6.078,6.08v11.412C631.284,362.158,628.564,364.879,625.206,364.879z"/>
			<path d="M625.206,365.786H580.03c-3.853,0-6.987-3.134-6.987-6.987v-11.411c0-3.854,3.135-6.988,6.987-6.988h45.176
				c3.852,0,6.987,3.134,6.987,6.988v11.411C632.193,362.652,629.058,365.786,625.206,365.786z M580.03,342.215
				c-2.853,0-5.173,2.321-5.173,5.173v11.411c0,2.852,2.32,5.173,5.173,5.173h45.176c2.853,0,5.173-2.321,5.173-5.173v-11.411
				c0-2.853-2.32-5.173-5.173-5.173H580.03z"/>
		</g>
		<g>
			<path fill="#FFFFFF" d="M662.499,379.532H542.732v-8.501c0-5.508,4.466-9.974,9.975-9.974h99.818
				c5.509,0,9.974,4.466,9.974,9.974V379.532z"/>
			<path d="M662.499,380.439H542.732c-0.501,0-0.907-0.406-0.907-0.907v-8.501c0-6,4.881-10.881,10.882-10.881h99.818
				c6.001,0,10.881,4.881,10.881,10.881v8.501C663.406,380.033,663,380.439,662.499,380.439z M543.64,378.624h117.952v-7.593
				c0-4.999-4.067-9.066-9.066-9.066h-99.818c-5,0-9.067,4.067-9.067,9.066V378.624z"/>
		</g>
		<g>
			<path fill="#FFFFFF" d="M578.431,275.407c-33.086-18.58-66.165-46.619-90.754-76.927c-15.102-18.611-39.185-53.436-30.833-77.568
				c2.411-6.967,8.545-15.719,24.074-17.85c11.273-1.546,26.513,0.589,45.305,6.347l-4.099,16.584
				c-16.835-5.158-30.066-7.13-39.317-5.859c-6.366,0.873-10.251,3.216-11.55,6.963c-3.075,8.893,4.351,30.849,27.881,59.851
				c23.363,28.795,54.799,55.439,86.249,73.102L578.431,275.407z"/>
			<path d="M578.43,276.314c-0.154,0-0.307-0.04-0.443-0.116c-33.183-18.633-66.356-46.753-91.016-77.147
				c-15.219-18.756-39.479-53.888-30.984-78.436c2.495-7.207,8.823-16.258,24.808-18.452c11.405-1.564,26.779,0.583,45.694,6.378
				c0.461,0.141,0.73,0.618,0.614,1.085l-4.098,16.584c-0.059,0.242-0.217,0.449-0.433,0.572c-0.217,0.122-0.476,0.15-0.713,0.078
				c-16.712-5.12-29.812-7.08-38.928-5.828c-6.001,0.823-9.641,2.963-10.816,6.361c-2.995,8.655,4.417,30.25,27.728,58.982
				c23.294,28.709,54.635,55.273,85.988,72.881c0.41,0.23,0.576,0.736,0.382,1.165l-6.957,15.358
				c-0.104,0.231-0.301,0.409-0.544,0.488C578.62,276.299,578.524,276.314,578.43,276.314z M488.562,103.481
				c-2.68,0-5.186,0.159-7.521,0.479c-15.072,2.068-21.012,10.521-23.339,17.249c-8.209,23.717,15.696,58.234,30.678,76.699
				c24.308,29.958,56.932,57.694,89.632,76.222l6.205-13.698c-31.302-17.716-62.531-44.252-85.784-72.911
				c-23.75-29.274-31.192-51.59-28.032-60.721c1.419-4.097,5.551-6.643,12.283-7.565c9.215-1.265,22.259,0.623,38.79,5.611
				l3.661-14.819C510.739,105.673,498.481,103.481,488.562,103.481z"/>
		</g>
		<g>
			<path fill="#FFFFFF" d="M627.798,274.451c32.548-18.58,65.091-46.619,89.283-76.928c14.854-18.611,38.548-53.435,30.332-77.567
				c-2.372-6.967-8.406-15.719-23.685-17.85c-11.091-1.546-26.082,0.589-44.569,6.347l4.031,16.584
				c16.563-5.158,29.579-7.13,38.681-5.859c6.263,0.873,10.084,3.216,11.36,6.963c3.027,8.894-4.278,30.85-27.428,59.853
				c-22.984,28.795-53.909,55.439-84.85,73.1L627.798,274.451z"/>
			<path d="M627.798,275.358c-0.094,0-0.19-0.015-0.281-0.045c-0.244-0.079-0.442-0.258-0.547-0.492l-6.845-15.358
				c-0.189-0.426-0.025-0.926,0.381-1.157c30.842-17.605,61.673-44.168,84.59-72.878c22.934-28.734,30.225-50.334,27.277-58.994
				c-1.156-3.396-4.732-5.535-10.629-6.357c-8.969-1.253-21.849,0.708-38.283,5.827c-0.239,0.075-0.498,0.047-0.717-0.077
				c-0.218-0.123-0.376-0.331-0.436-0.575l-4.032-16.584c-0.112-0.464,0.156-0.938,0.611-1.081
				c18.616-5.797,33.746-7.945,44.967-6.38c15.735,2.195,21.963,11.248,24.417,18.457c8.355,24.542-15.51,59.67-30.48,78.426
				c-24.262,30.394-56.897,58.515-89.543,77.149C628.109,275.319,627.955,275.358,627.798,275.358z M622.118,259.473l6.1,13.692
				c32.165-18.527,64.246-46.255,88.153-76.208c14.74-18.465,38.261-52.984,30.184-76.708c-2.29-6.726-8.131-15.178-22.95-17.244
				c-10.794-1.503-25.38,0.535-43.362,6.063l3.603,14.817c16.255-4.985,29.085-6.873,38.15-5.606
				c6.632,0.924,10.701,3.472,12.097,7.57c3.107,9.127-4.216,31.439-27.578,60.711C683.635,215.221,652.914,241.757,622.118,259.473
				z"/>
		</g>
		<g>
			<path fill="#FFFFFF" d="M602.854,290.341c84.182,0.937,85.096-118.654,103.203-213.918l-207.044-0.767
				C515.75,173.67,518.802,291.93,602.854,290.341z"/>
			<path d="M601.204,291.264c-31.801,0-54.707-17.467-69.993-53.348c-13.769-32.321-20.196-76.279-26.411-118.79
				c-2.096-14.338-4.265-29.164-6.681-43.318c-0.045-0.264,0.028-0.535,0.202-0.739c0.174-0.205,0.426-0.352,0.695-0.321
				l207.044,0.766c0.271,0.001,0.525,0.122,0.697,0.33c0.171,0.208,0.242,0.481,0.191,0.746
				c-3.086,16.235-5.715,33.462-8.259,50.123c-6.188,40.537-12.587,82.454-26.068,113.301
				c-15.064,34.466-37.58,51.237-68.799,51.239c-0.323,0-0.64-0.002-0.967-0.006C602.303,291.259,601.754,291.264,601.204,291.264z
				 M500.089,76.567c2.348,13.852,4.461,28.307,6.508,42.296c6.197,42.397,12.607,86.237,26.283,118.341
				c15.166,35.6,36.887,52.244,68.25,52.246c0.566,0,1.135-0.006,1.706-0.017c0.011,0,0.019,0,0.028,0
				c0.335,0.003,0.672,0.005,1.005,0.005c30.811,0,52.146-15.96,67.089-50.151c13.387-30.628,19.769-72.427,25.938-112.848
				c2.489-16.31,5.063-33.164,8.067-49.114L500.089,76.567z"/>
		</g>
		<path d="M680.64,186.853c-0.06,0-0.121-0.006-0.184-0.019c-0.49-0.101-0.807-0.581-0.706-1.071
			c3.844-18.698,6.445-39.1,8.961-58.831c0.931-7.3,1.894-14.849,2.905-22.208c0.068-0.497,0.524-0.845,1.022-0.775
			c0.497,0.067,0.844,0.525,0.775,1.022c-1.011,7.35-1.973,14.895-2.903,22.19c-2.52,19.764-5.125,40.201-8.983,58.966
			C681.439,186.557,681.062,186.853,680.64,186.853z"/>
		<path d="M604.657,284.758c-0.466,0-0.861-0.356-0.903-0.829c-0.042-0.5,0.326-0.94,0.826-0.983
			c30.762-2.664,51.358-24.451,64.822-68.565c0.145-0.479,0.651-0.75,1.132-0.604c0.479,0.146,0.75,0.654,0.603,1.133
			c-8.624,28.262-24.891,66.25-66.399,69.844C604.711,284.757,604.685,284.758,604.657,284.758z"/>
		<g>
			<path fill="#FFFFFF" d="M710.848,87.031H496.222c-4.061,0-7.351-3.292-7.351-7.351v-12.53c0-4.061,3.29-7.352,7.351-7.352
				h214.626c4.06,0,7.353,3.292,7.353,7.352v12.53C718.2,83.739,714.907,87.031,710.848,87.031z"/>
			<path d="M710.848,87.938H496.222c-4.555,0-8.259-3.705-8.259-8.258v-12.53c0-4.554,3.704-8.259,8.259-8.259h214.626
				c4.555,0,8.259,3.705,8.259,8.259v12.53C719.106,84.233,715.402,87.938,710.848,87.938z M496.222,60.706
				c-3.554,0-6.444,2.89-6.444,6.444v12.53c0,3.553,2.891,6.444,6.444,6.444h214.626c3.554,0,6.444-2.891,6.444-6.444v-12.53
				c0-3.554-2.891-6.444-6.444-6.444H496.222z"/>
		</g>
		<path d="M647.581,71.94c-0.497,0-0.901-0.399-0.906-0.898c-0.007-0.501,0.396-0.912,0.897-0.917l42.943-0.48
			c0.003,0,0.006,0,0.01,0c0.497,0,0.901,0.4,0.908,0.897c0.005,0.502-0.396,0.913-0.897,0.917l-42.943,0.48
			C647.589,71.94,647.584,71.94,647.581,71.94z"/>
		<path d="M612.412,72.333c-0.497,0-0.903-0.4-0.908-0.897c-0.006-0.501,0.396-0.912,0.896-0.917l23.918-0.268
			c0.004,0,0.009,0,0.012,0c0.496,0,0.901,0.4,0.906,0.897c0.006,0.501-0.396,0.912-0.897,0.918l-23.917,0.267
			C612.417,72.333,612.414,72.333,612.412,72.333z"/>
	</g>
	<g>
		<g>
			<g>
				<path fill="#FFFFFF" d="M672.345,692.396c0,0-37.218-81.577-15.868-187.33c0,0,57.681,48.334,36.887,187.33H672.345z"/>
				<path d="M693.363,693.302h-21.018c-0.355,0-0.679-0.206-0.826-0.53c-0.093-0.204-9.425-20.876-16.005-54.208
					c-6.07-30.75-10.985-78.902,0.072-133.679c0.063-0.313,0.288-0.57,0.589-0.676c0.301-0.106,0.638-0.046,0.883,0.161
					c0.597,0.499,14.731,12.567,26.502,41.898c10.826,26.982,21.472,74.259,10.7,146.262
					C694.193,692.975,693.813,693.302,693.363,693.302z M672.938,691.486h19.643c10.521-71.164,0-117.864-10.705-144.541
					c-9.679-24.122-21.193-36.576-24.824-40.113c-10.584,53.802-5.74,101.042,0.231,131.319
					C663.238,668.346,671.452,688.065,672.938,691.486z"/>
			</g>
			<path d="M681.447,684.797c-0.016,0-0.034,0-0.051-0.002c-0.501-0.026-0.883-0.455-0.857-0.955
				c2.853-52.182-20.669-163.526-20.907-164.644c-0.104-0.491,0.209-0.974,0.7-1.078c0.489-0.105,0.971,0.21,1.076,0.699
				c0.237,1.122,23.808,112.703,20.944,165.122C682.326,684.422,681.926,684.797,681.447,684.797z"/>
		</g>
		<g>
			<g>
				<path fill="#FFFFFF" d="M709.786,559.767c0,0-47.951,86.634-19.106,124.123h15.429
					C706.108,683.89,736.943,616.167,709.786,559.767z"/>
				<path d="M706.108,684.797H690.68c-0.281,0-0.548-0.131-0.719-0.354c-12.154-15.797-12.629-41.687-1.41-76.949
					c8.313-26.128,20.322-47.949,20.441-48.167c0.164-0.297,0.468-0.493,0.82-0.467c0.339,0.01,0.645,0.208,0.793,0.514
					c14.133,29.353,12.379,61.753,8.418,83.765c-4.283,23.816-12.013,40.956-12.09,41.127
					C706.787,684.59,706.465,684.797,706.108,684.797z M691.13,682.981h14.386c2.75-6.394,28.321-68.771,4.219-121.193
					C703.492,573.654,665.637,648.978,691.13,682.981z"/>
			</g>
			<path d="M697.884,687.092c-0.485,0-0.888-0.384-0.905-0.872c-0.958-24.641,4.989-74.884,8.618-102.641
				c0.066-0.497,0.515-0.85,1.019-0.782c0.497,0.065,0.848,0.521,0.782,1.018c-3.623,27.699-9.558,77.828-8.606,102.334
				c0.02,0.501-0.371,0.924-0.872,0.942C697.907,687.092,697.895,687.092,697.884,687.092z"/>
		</g>
		<g>
			<g>
				<path fill="#FFFFFF" d="M618.239,592.063c0,0,40.847,13.938,55.638,96.446H657.81
					C657.81,688.509,624.282,643.195,618.239,592.063z"/>
				<path d="M673.877,689.417H657.81c-0.286,0-0.557-0.138-0.728-0.369c-0.337-0.455-33.743-46.095-39.744-96.878
					c-0.037-0.309,0.088-0.615,0.33-0.813c0.242-0.196,0.567-0.254,0.863-0.153c0.427,0.146,10.582,3.722,22.664,17.543
					c11.078,12.676,25.898,36.775,33.574,79.602c0.048,0.265-0.024,0.536-0.196,0.742S674.146,689.417,673.877,689.417z
					 M658.273,687.601h14.517c-7.638-41.649-22.057-65.139-32.855-77.535c-9.228-10.595-17.435-15.091-20.603-16.558
					C625.455,640.793,655.136,683.229,658.273,687.601z"/>
			</g>
			<path d="M665.096,687.092c-0.438,0-0.821-0.315-0.895-0.76c-6.086-36.774-32.421-73.82-32.686-74.189
				c-0.292-0.407-0.2-0.975,0.208-1.266c0.408-0.293,0.974-0.199,1.268,0.207c0.267,0.373,26.845,37.754,33,74.952
				c0.082,0.495-0.253,0.961-0.748,1.044C665.194,687.088,665.146,687.092,665.096,687.092z"/>
		</g>
		<g>
			<path fill="#FFFFFF" d="M633.998,681.96h100.775l2.26,47.668c0.554,11.687-8.772,21.464-20.472,21.464h-57.556
				c-13.844,0-25.063-11.228-25.051-25.072L633.998,681.96z"/>
			<path d="M716.562,752h-57.556c-6.938,0-13.459-2.703-18.363-7.611c-4.902-4.908-7.6-11.432-7.594-18.37l0.04-44.061
				c0.001-0.499,0.407-0.905,0.908-0.905h100.776c0.484,0,0.882,0.38,0.905,0.864l2.26,47.667c0.28,5.902-1.812,11.509-5.89,15.785
				S722.47,752,716.562,752z M634.904,682.867l-0.04,43.153c-0.007,6.453,2.502,12.521,7.063,17.085
				c4.561,4.565,10.626,7.08,17.079,7.08h57.556c5.407,0,10.44-2.155,14.174-6.068c3.731-3.913,5.647-9.045,5.391-14.446
				l-2.22-46.804H634.904z"/>
		</g>
	</g>
	<g>
		<g>
			<path fill="#B9CEEB" d="M105.972,155.069c-0.223,0-0.444-0.081-0.619-0.245c-0.366-0.341-0.386-0.916-0.044-1.282
				c55.218-59.245,108.836-84.131,144.093-94.575c38.257-11.333,63.828-8.585,64.081-8.557c0.498,0.057,0.854,0.507,0.798,1.005
				c-0.057,0.497-0.511,0.854-1.004,0.799c-0.25-0.028-25.533-2.731-63.465,8.524c-35.014,10.391-88.276,35.14-143.174,94.042
				C106.458,154.971,106.214,155.069,105.972,155.069z"/>
			<path fill="#B9CEEB" d="M119.206,118.029c-0.25,0-0.499-0.104-0.679-0.306c-0.333-0.375-0.299-0.948,0.075-1.281
				c60.407-53.677,115.33-73.488,150.767-80.654c38.461-7.779,62.984-2.755,63.229-2.704c0.491,0.104,0.803,0.585,0.699,1.076
				c-0.103,0.489-0.584,0.801-1.075,0.7c-0.24-0.052-24.481-5-62.605,2.729c-35.193,7.136-89.75,26.843-149.808,80.21
				C119.635,117.953,119.42,118.029,119.206,118.029z"/>
			<path fill="#F6E8D4" d="M360.969,22.497c-0.102,0-0.204-0.003-0.305-0.009c-2.553-0.146-4.022-2.089-5.443-3.969
				c-1.339-1.771-2.605-3.445-4.725-3.786c-2.542-0.411-4.595,1.426-6.77,3.37c-2.387,2.132-4.845,4.34-8.235,3.834
				c-2.992-0.446-4.637-2.771-6.088-4.821c-1.39-1.963-2.59-3.66-4.688-3.729c-1.78-0.06-3.191,1.088-4.675,2.302
				c-1.738,1.423-3.709,3.033-6.432,2.475c-1.425-0.292-2.311-1.019-3.092-1.661c-0.769-0.633-1.376-1.132-2.421-1.185
				c-1.672-0.085-3.475,1.019-5.347,3.28c-0.319,0.387-0.891,0.44-1.277,0.121c-0.386-0.319-0.44-0.891-0.121-1.278
				c2.256-2.728,4.55-4.056,6.836-3.936c1.643,0.083,2.62,0.886,3.482,1.595c0.708,0.582,1.318,1.084,2.303,1.286
				c1.879,0.385,3.288-0.769,4.918-2.103c1.6-1.31,3.421-2.799,5.885-2.712c2.998,0.101,4.58,2.335,6.109,4.496
				c1.362,1.924,2.648,3.742,4.875,4.073c2.536,0.378,4.588-1.453,6.758-3.392c2.397-2.141,4.876-4.353,8.267-3.809
				c2.841,0.458,4.458,2.597,5.884,4.483c1.279,1.692,2.384,3.154,4.1,3.252c2.417,0.147,5.22-2.485,8.106-7.585
				c0.247-0.437,0.799-0.59,1.236-0.343c0.437,0.246,0.589,0.799,0.342,1.236C367.217,19.708,364.112,22.497,360.969,22.497z"/>
		</g>
		<g>
			<path d="M709.655,286.636c-0.044,0-0.089-0.002-0.134-0.009c-0.496-0.074-0.839-0.537-0.765-1.031l1.038-6.963
				c0.075-0.496,0.543-0.835,1.033-0.764c0.495,0.074,0.838,0.536,0.763,1.032l-1.039,6.963
				C710.485,286.313,710.098,286.636,709.655,286.636z"/>
			<path d="M707.234,302.855c-0.044,0-0.09-0.003-0.133-0.01c-0.497-0.073-0.84-0.536-0.766-1.031l1.039-6.963
				c0.074-0.497,0.539-0.835,1.031-0.764c0.496,0.074,0.839,0.536,0.765,1.032l-1.039,6.962
				C708.064,302.532,707.677,302.855,707.234,302.855z"/>
			<path d="M704.337,290.574c-0.046,0-0.09-0.004-0.136-0.01l-6.962-1.039c-0.496-0.074-0.838-0.535-0.764-1.031
				c0.073-0.496,0.539-0.836,1.032-0.764l6.962,1.039c0.495,0.074,0.837,0.535,0.764,1.031
				C705.166,290.25,704.778,290.574,704.337,290.574z"/>
			<path d="M720.556,292.994c-0.043,0-0.09-0.003-0.136-0.01l-6.962-1.039c-0.496-0.074-0.837-0.536-0.764-1.031
				c0.074-0.496,0.538-0.838,1.032-0.764l6.962,1.039c0.496,0.074,0.837,0.536,0.765,1.032
				C721.385,292.67,720.998,292.994,720.556,292.994z"/>
		</g>
		<path fill="#F6E8D4" d="M406.137,40.913c-2.048,0-4.037-0.682-5.703-1.973c-4.09-3.167-4.925-9.065-1.862-13.15
			c1.474-1.966,3.624-3.229,6.056-3.558c2.48-0.333,4.948,0.335,6.951,1.888c4.089,3.167,4.924,9.066,1.862,13.15
			c-1.474,1.966-3.625,3.23-6.058,3.558C406.966,40.884,406.55,40.913,406.137,40.913z M400.023,26.879
			c-2.471,3.296-1.787,8.063,1.521,10.627c1.616,1.252,3.602,1.795,5.598,1.524c1.945-0.263,3.669-1.274,4.847-2.847
			c2.472-3.296,1.789-8.063-1.521-10.627c-1.617-1.252-3.604-1.794-5.596-1.524C402.925,24.294,401.202,25.306,400.023,26.879z"/>
	</g>
</g>
</svg>
