<?xml version="1.0" encoding="utf-8"?>
<!-- Generator: Adobe Illustrator 16.0.0, SVG Export Plug-In . SVG Version: 6.00 Build 0)  -->
<!DOCTYPE svg PUBLIC "-//W3C//DTD SVG 1.1//EN" "http://www.w3.org/Graphics/SVG/1.1/DTD/svg11.dtd">
<svg version="1.1" id="Layer_1" xmlns="http://www.w3.org/2000/svg" xmlns:xlink="http://www.w3.org/1999/xlink" x="0px" y="0px"
	 width="750px" height="750px" viewBox="0 0 750 750" enable-background="new 0 0 750 750" xml:space="preserve">
<g>
	<g>
		<path fill="#FFFFFF" d="M113.173,88.456C42.184,103.683,7.788,234.849,6.288,319.758
			c-2.553,144.477,87.874,282.95,212.671,349.506c165.814,88.428,413.008,60.938,494.426-82.75
			c48.583-85.739,41.92-219.521-25.666-273.265c-67.751-53.875-137.311,19.924-266.818-13.126
			C241.932,254.448,201.955,69.413,113.173,88.456z"/>
		<path d="M429.648,722.158c-74.786,0.002-149.277-17.616-211.739-50.928C87.513,601.691,1.571,460.428,4.057,319.718
			c1.548-87.586,36.28-217.919,108.648-233.443c42.583-9.156,73.786,26.701,113.282,72.069
			c44.744,51.398,100.431,115.366,195.464,139.618c61.741,15.754,108.968,7.184,150.634-0.376
			c45.27-8.215,81.025-14.704,117.021,13.921c32.023,25.462,52.885,71.461,57.232,126.202
			c4.213,53.048-7.091,107.688-31.014,149.908c-38.238,67.482-117.396,114.693-217.177,129.523
			C475.515,720.502,452.565,722.158,429.648,722.158z M113.641,90.635C44.428,105.482,9.996,236.156,8.518,319.797
			C6.061,458.873,91.053,598.521,220.01,667.294c80.774,43.078,181.907,59.645,277.483,45.433
			c98.412-14.629,176.395-61.032,213.951-127.313c23.495-41.462,34.591-95.17,30.447-147.354
			c-4.251-53.513-24.501-98.369-55.563-123.064c-34.413-27.369-69.292-21.039-113.447-13.021
			c-42.114,7.641-89.848,16.307-152.533,0.307c-96.381-24.597-152.573-89.146-197.726-141.01
			C184.094,117.013,153.668,82.04,113.641,90.635z"/>
	</g>
	<g>
		<g>
			<g>
				<path fill="#FFFFFF" d="M519.7,718.805c0,0,64.154,26.36,109.864,25.961c7.706-0.067,12.7-8.154,9.453-15.145
					c-1.877-4.041-4.714-9.135-8.959-15.51c-15.869-23.83-83.823-62.484-83.823-62.484l-10.955,4.75
					c-3.845,1.667-5.408,6.29-3.362,9.949l2.762,4.942l-18.208-0.016c-4.148-0.004-7.463,3.459-7.245,7.601
					C509.67,687.269,511.731,701.898,519.7,718.805z"/>
				<path d="M628.552,747c-45.566,0-109.059-25.87-109.698-26.134c-0.517-0.211-0.934-0.608-1.173-1.111
					c-7.939-16.85-10.19-31.479-10.681-40.785c-0.139-2.611,0.778-5.094,2.581-6.994c1.782-1.876,4.291-2.953,6.883-2.953
					c0.004,0,0.007,0,0.01,0l14.402,0.013l-0.906-1.62c-1.281-2.293-1.534-5.036-0.692-7.525c0.842-2.487,2.706-4.514,5.116-5.559
					l10.954-4.75c0.645-0.282,1.38-0.24,1.991,0.106c2.793,1.587,68.597,39.193,84.577,63.187
					c3.911,5.877,6.981,11.195,9.124,15.811c1.862,4.004,1.563,8.627-0.796,12.362c-2.33,3.686-6.315,5.909-10.66,5.949
					C629.241,746.998,628.896,747,628.552,747z M521.349,717.063c7.467,2.98,65.269,25.477,107.191,25.477
					c0.338,0,0.67-0.002,1.005-0.005c2.863-0.023,5.389-1.435,6.928-3.87c1.546-2.448,1.742-5.477,0.522-8.104
					c-2.048-4.406-5.007-9.524-8.793-15.212c-14.384-21.6-73.794-56.424-82.107-61.23l-9.926,4.304
					c-1.273,0.553-2.221,1.583-2.665,2.896c-0.445,1.315-0.316,2.708,0.361,3.921l2.763,4.939c0.386,0.693,0.376,1.535-0.024,2.218
					c-0.4,0.685-1.133,1.104-1.924,1.104c-0.001,0-0.001,0-0.002,0l-18.208-0.017c-0.001,0-0.003,0-0.006,0
					c-1.395,0-2.69,0.555-3.648,1.564c-0.95,1.002-1.435,2.312-1.362,3.688C511.915,687.498,514.015,701.204,521.349,717.063z"/>
			</g>
			<path d="M631.873,735.037c-0.051,0-0.102-0.003-0.151-0.005c-49.882-3.322-108.636-25.469-109.223-25.694
				c-1.151-0.437-1.73-1.724-1.292-2.877c0.436-1.151,1.73-1.729,2.876-1.291c0.581,0.22,58.729,22.134,107.936,25.41
				c1.229,0.084,2.159,1.146,2.076,2.375C634.017,734.133,633.037,735.037,631.873,735.037z"/>
			<path d="M588.566,708.487c-0.385,0-0.773-0.098-1.129-0.307c-1.061-0.626-1.416-1.994-0.791-3.055l9.821-16.695
				c0.623-1.065,1.991-1.416,3.054-0.793c1.061,0.625,1.416,1.993,0.791,3.054l-9.821,16.695
				C590.076,708.095,589.331,708.487,588.566,708.487z"/>
			<path d="M566.507,701.711c-0.385,0-0.772-0.098-1.129-0.307c-1.062-0.625-1.416-1.993-0.791-3.055l12.342-20.978
				c0.623-1.063,1.99-1.418,3.052-0.794c1.063,0.627,1.417,1.994,0.792,3.055l-12.341,20.979
				C568.017,701.318,567.271,701.711,566.507,701.711z"/>
		</g>
		<path d="M318.757,307.057c1.965-2.07,142.174-62.643,199.484-75.527c57.311-12.883,78.663-13.006,98.165,19.748
			c19.5,32.752-93.938,211.468-93.938,211.468l-241.332-62.904L318.757,307.057z"/>
		<path fill="#FFFFFF" d="M454.572,377.205c-0.306,0-0.614-0.063-0.911-0.196c-1.125-0.502-1.628-1.823-1.124-2.946
			c27.047-60.371,71.713-103.519,72.16-103.948c0.892-0.852,2.301-0.818,3.153,0.069c0.852,0.89,0.821,2.302-0.068,3.154
			c-0.442,0.422-44.494,43.001-71.175,102.549C456.237,376.716,455.423,377.205,454.572,377.205z"/>
		<path d="M204.042,387.111c0,0,0,34.183,32.359,66.178c40.546,40.089,171.209,12.508,171.209,12.508s13.436,22.01,22.215,80.829
			c8.778,58.821,18.57,138.01,33.111,157.33l126.576-27.33c0,0-41.982-251.972-71.143-286.239
			c-29.158-34.266-241.317-39.648-241.317-39.648L204.042,387.111z"/>
		<path fill="#FFFFFF" d="M533.011,423.525c-0.924,0-1.786-0.577-2.106-1.499c-5.258-15.118-10.048-25.278-14.232-30.192
			c-15.32-18.004-115.405-31.116-203.963-37.382c-1.229-0.084-2.154-1.152-2.066-2.38c0.087-1.229,1.139-2.139,2.382-2.067
			c55.639,3.935,187.195,15.611,207.045,38.938c4.606,5.412,9.53,15.755,15.048,31.62c0.405,1.163-0.21,2.433-1.373,2.837
			C533.5,423.485,533.255,423.525,533.011,423.525z"/>
		<g>
			<path d="M364.521,268.645c0.629-2.007,65.534-100.833,65.534-100.833l15.649,11.438l-59.314,92.479L364.521,268.645z"/>
			<g>
				<path fill="#FFFFFF" d="M141.045,374.576c0,0-22.713-31.746-13.412-102.848c9.301-71.103,32.056-108.014,55.861-116.444
					c23.805-8.433,121.727,6.967,129.372,126.43L141.045,374.576z"/>
				<path d="M141.046,376.807c-0.699,0-1.383-0.328-1.816-0.932c-0.947-1.327-23.116-33.28-13.808-104.438
					c8.539-65.274,29.434-108.375,57.327-118.256c12.94-4.584,45.777-2.329,75.17,17.067
					c23.839,15.729,53.109,47.811,57.174,111.324c0.056,0.869-0.4,1.691-1.165,2.104l-171.822,92.863
					C141.771,376.72,141.406,376.807,141.046,376.807z M197.806,155.549c-5.623,0-10.288,0.674-13.566,1.835
					c-25.869,9.164-46.203,52.016-54.394,114.632c-7.899,60.39,7.724,92.249,11.984,99.599l168.716-91.183
					c-4.287-60.738-32.268-91.405-55.084-106.461C234.956,160.442,212.926,155.549,197.806,155.549z"/>
			</g>
			<path d="M209.465,325.45c-1.161,0-2.14-0.897-2.222-2.075l-4.714-66.683c-0.087-1.229,0.839-2.296,2.068-2.381
				c1.233-0.125,2.295,0.839,2.381,2.067l4.714,66.684c0.087,1.229-0.838,2.295-2.068,2.381
				C209.57,325.448,209.518,325.45,209.465,325.45z"/>
			<g>
				<path fill="#FFFFFF" d="M132.776,356.288c0,0,8.251,59.714,91.707,39.728c83.455-19.987,126.965-97.566,126.965-97.566
					s48.591-10.387,46.942-41.913c0,0-16.267,4.359-30.097,0c-13.832-4.359-28.802,0.097-34.56,5.497
					C294.273,299.044,168.226,310.143,132.776,356.288z"/>
				<path d="M192.955,402.354c-15.76,0-29.025-3.633-39.641-10.884c-19.571-13.366-22.626-34.004-22.748-34.877
					c-0.083-0.591,0.077-1.189,0.44-1.665c19.723-25.669,66.089-40.477,110.93-54.798c37.364-11.932,72.656-23.202,90.271-39.724
					c6.749-6.33,22.72-10.42,36.756-5.998c13.06,4.115,28.691,0.015,28.848-0.027c0.65-0.172,1.345-0.047,1.89,0.351
					c0.544,0.395,0.881,1.016,0.915,1.688c1.616,30.887-40.533,42.271-47.732,43.989c-5.162,8.651-49.225,78.938-127.882,97.776
					C213.393,400.966,202.696,402.354,192.955,402.354z M135.149,356.875c0.813,3.971,5.007,20.244,20.746,30.957
					c16.092,10.956,38.993,12.979,68.068,6.016c81.503-19.519,125.108-95.723,125.54-96.489c0.313-0.558,0.852-0.956,1.477-1.089
					c0.454-0.099,43.883-9.736,45.188-36.946c-5.386,1.076-17.58,2.796-28.547-0.658c-13.2-4.161-27.277,0.228-32.363,4.997
					c-18.348,17.209-54.108,28.629-91.966,40.719C199.57,318.345,154.376,332.775,135.149,356.875z"/>
			</g>
			<path d="M368.628,272.243c-1.347,0-2.745-0.028-4.199-0.087c-1.23-0.049-2.187-1.086-2.137-2.317
				c0.049-1.229,1.006-2.198,2.318-2.139c23.999,0.963,31.812-6.742,31.889-6.82c0.859-0.882,2.271-0.897,3.153-0.04
				c0.883,0.86,0.899,2.273,0.04,3.154C399.347,264.349,391.374,272.243,368.628,272.243z"/>
			<path d="M366.123,283.796c-0.541,0-1.086-0.004-1.644-0.016c-1.232-0.024-2.212-1.041-2.189-2.271
				c0.023-1.233,1.078-2.213,2.271-2.189c20.428,0.465,27.229-6.776,27.295-6.847c0.824-0.902,2.229-0.984,3.142-0.167
				c0.911,0.814,1.006,2.199,0.202,3.119C394.895,275.775,387.637,283.796,366.123,283.796z"/>
		</g>
		<g>
			<g>
				<path fill="#FFFFFF" d="M222.776,107.976c-0.556,1.017-24.21,41.446-24.21,41.446l-16.313,10.961
					c6.02,4.572,16.646,11.452,31.515,15.393c15.166,4.02,28.04,3.202,35.578,2.156c-0.654-2.058-1.756-4.742-3.666-7.546
					c-3.011-4.422-6.603-7.051-8.896-8.459c4.868-8.359,9.735-16.719,14.603-25.078L222.776,107.976z"/>
				<path d="M236.864,181.029c-7.963,0.002-15.884-1.032-23.667-3.095c-11.748-3.113-22.612-8.421-32.292-15.778
					c-0.573-0.436-0.901-1.119-0.88-1.84c0.021-0.718,0.388-1.385,0.986-1.786l15.889-10.675
					c8.211-14.032,23.429-40.055,23.921-40.948c0.34-0.617,0.95-1.039,1.648-1.137c0.695-0.081,1.399,0.138,1.894,0.636
					l28.611,28.872c0.71,0.717,0.852,1.821,0.344,2.692l-13.543,23.259c3.054,2.17,5.654,4.821,7.752,7.902
					c1.699,2.495,3.026,5.229,3.947,8.127c0.199,0.627,0.111,1.31-0.24,1.865c-0.351,0.558-0.929,0.93-1.58,1.019
					C245.388,180.734,241.119,181.029,236.864,181.029z M186.135,160.46c8.563,6.044,18.037,10.465,28.206,13.16
					c10.467,2.773,21.198,3.594,31.929,2.444c-0.669-1.55-1.483-3.03-2.432-4.423c-2.145-3.152-4.911-5.782-8.22-7.816
					c-1.032-0.633-1.368-1.976-0.76-3.021l13.743-23.601l-25.355-25.585c-4.971,8.534-20.691,35.405-22.754,38.93
					c-0.169,0.289-0.402,0.537-0.682,0.725L186.135,160.46z M198.566,149.42h0.022H198.566z"/>
			</g>
			<g>
				<path d="M264.388,45.383c-13.989-1.816-19.941,12.921-36.552,10.353c-7.61-1.176-10.581-4.922-17.977-3.547
					c-4.899,0.912-12.563,4.221-15.001,10.684c-3.105,8.23,5.668,12.56,10.739,31.385c3.562,13.222,1.899,20.98,6.961,23.235
					c5.121,2.281,9.506-4.455,15.286-2.384c7.481,2.679,5.03,15.713,12.072,21.7c4.836,4.113,17.22,6.569,38.369-3.233
					c-0.883-3.823-2.169-11.677-4.279-18.826c-6.603-22.376-14.05-27.864-10.818-33.305c4.95-8.337,21.047-2.195,24.28-9.104
					C290.826,65.167,278.752,47.247,264.388,45.383z"/>
				<g>
					<path fill="#FFFFFF" d="M231.889,78.654l5.349,4.444c0,0,3.819,22.1,6.692,29.554c2.872,7.456,26.632,0.309,26.632,0.309
						l1.712-4.353l6.554-2.124c0,0-12.281-19.279-15.163-35.453C263.665,71.032,246.815,65.391,231.889,78.654z"/>
					<path d="M234.119,78.616c1.806,0.916,3.216,1.621,4.543,2.766l0.029,0.024c0.407,0.351,0.658,0.82,0.745,1.312
						c0.836,4.761,1.754,9.538,2.744,14.274c1.015,4.708,2.049,9.506,3.494,13.897l0.279,0.802c0.102,0.298,0.146,0.264,0.192,0.429
						c0.167,0.192,0.318,0.416,0.64,0.602c0.59,0.399,1.532,0.701,2.549,0.867c2.061,0.336,4.394,0.257,6.7,0.035
						c4.626-0.473,9.374-1.514,13.884-2.797l-1.433,1.32l1.71-4.349l0.075-0.19c0.232-0.585,0.743-0.99,1.315-1.119l6.759-1.481
						l-0.828,2.313c-3.554-5.537-6.683-11.229-9.5-17.158c-2.761-5.939-5.185-12.101-6.545-18.73l1.486,1.717
						c-2.309-0.671-5.114-1.045-7.731-1.065c-2.66-0.04-5.325,0.242-7.898,0.885c-2.57,0.633-5.09,1.521-7.407,2.816
						c-1.202,0.568-2.284,1.352-3.4,2.073c-0.702,0.435-0.71,0.564-1.079,0.633C235.134,78.551,234.683,78.525,234.119,78.616z
						 M229.659,78.69c0.542-0.799,1.194-1.717,1.99-2.547c0.754-0.8,1.791-1.646,2.312-1.939c1.265-0.826,2.498-1.702,3.867-2.36
						c2.646-1.472,5.532-2.499,8.466-3.217c2.939-0.732,5.972-1.05,8.989-1.006c3.057,0.052,5.943,0.379,9.089,1.296
						c0.777,0.224,1.322,0.862,1.466,1.605l0.023,0.117c1.027,6.086,3.128,12.124,5.609,17.973
						c2.521,5.831,5.432,11.586,8.667,17.036c0.449,0.756,0.201,1.732-0.555,2.181l-0.168,0.086l-0.107,0.049l-6.346,2.767
						l1.388-1.306l-1.712,4.353l-0.012,0.03c-0.253,0.65-0.8,1.11-1.42,1.29c-4.855,1.379-9.666,2.437-14.736,2.966
						c-2.535,0.233-5.115,0.359-7.874-0.079c-1.372-0.239-2.833-0.607-4.286-1.552c-0.725-0.45-1.404-1.148-1.941-1.942
						c-0.208-0.387-0.499-0.943-0.585-1.221l-0.326-0.926c-1.598-4.871-2.598-9.623-3.643-14.432
						c-1.003-4.805-1.925-9.598-2.774-14.433l0.772,1.335C233.573,82.995,231.417,80.738,229.659,78.69z"/>
				</g>
				<g>
					<path fill="#FFFFFF" d="M234.745,98.495c0,0-6.265-13.985-12.025-9.788C216.959,92.903,224.244,108.125,234.745,98.495z"/>
					<path d="M228.039,103.853c-1.171,0-2.14-0.231-2.85-0.483c-3.386-1.208-6.045-4.686-6.62-8.657
						c-0.469-3.253,0.59-6.172,2.837-7.811c1.562-1.137,3.345-1.479,5.156-1.002c5.501,1.464,9.752,10.641,10.219,11.682
						c0.393,0.878,0.179,1.908-0.529,2.558C233.068,103.059,230.208,103.853,228.039,103.853z M224.987,90.152
						c-0.324,0-0.62,0.113-0.953,0.358c-0.887,0.645-1.278,1.978-1.049,3.565c0.338,2.342,1.861,4.434,3.702,5.093
						c1.846,0.653,3.745-0.164,5.283-1.277c-1.7-3.25-4.426-7.113-6.557-7.68C225.263,90.172,225.124,90.152,224.987,90.152z"/>
				</g>
			</g>
		</g>
	</g>
	<path d="M148.949,522.571c-0.284,0-0.573-0.054-0.852-0.169c-1.138-0.471-1.679-1.775-1.208-2.915
		c16.91-40.85,71.42-48.484,73.732-48.79c1.222-0.143,2.341,0.7,2.502,1.92c0.161,1.22-0.698,2.341-1.918,2.503
		c-0.542,0.071-54.277,7.622-70.196,46.075C150.655,522.054,149.825,522.571,148.949,522.571z"/>
	<path d="M224.994,547.436c-1.125,0-2.093-0.849-2.215-1.995c-4.184-39.354,18.313-64.58,19.271-65.635
		c0.831-0.909,2.241-0.977,3.148-0.15c0.913,0.827,0.979,2.239,0.152,3.149c-0.221,0.247-22.101,24.871-18.135,62.166
		c0.13,1.224-0.758,2.322-1.982,2.452C225.153,547.432,225.074,547.436,224.994,547.436z"/>
</g>
</svg>
