<?xml version="1.0" encoding="utf-8"?>
<!-- Generator: Adobe Illustrator 16.0.0, SVG Export Plug-In . SVG Version: 6.00 Build 0)  -->
<!DOCTYPE svg PUBLIC "-//W3C//DTD SVG 1.1//EN" "http://www.w3.org/Graphics/SVG/1.1/DTD/svg11.dtd">
<svg version="1.1" id="Layer_1" xmlns="http://www.w3.org/2000/svg" xmlns:xlink="http://www.w3.org/1999/xlink" x="0px" y="0px"
	 width="750px" height="750px" viewBox="0 0 750 750" enable-background="new 0 0 750 750" xml:space="preserve">
<g>
	<polygon fill="#6FCFA1" stroke="#6FCFA1" stroke-miterlimit="10" points="175.304,228.849 266.529,312.256 180.517,453.004 
		0.671,343.533 149.239,215.817 	"/>
	<polygon fill="#0FA6A6" points="508.93,296.617 600.155,455.61 751.329,390.449 647.071,168.901 	"/>
	<path fill="#FFFFFF" d="M266.529,312.256l33.884,10.426l39.097-18.245c0,0,0-31.278,15.639-23.458
		c15.639,7.819,31.277,15.638,31.277,15.638s41.703,2.607,49.522,5.213s18.245,5.213,10.426,18.245
		c-7.819,13.033,5.213,15.639,23.458,7.82c18.246-7.82,31.278-15.639,31.278-15.639l80.8,122.503l-52.129,20.852
		c0,0,5.213,41.703,0,59.948s-33.885,10.426-33.885,10.426s10.426,20.852-2.605,20.852c-13.033,0-31.277-5.213-31.277-5.213
		l-15.64,7.819l-33.884-15.639l-10.426-13.032l2.606,26.064l-18.245,15.639l-26.064-2.606L334.297,572.9l-28.671-7.819
		c0,0-31.277,2.606-33.884-7.819s-7.819-20.852-7.819-20.852l-23.458-31.277l-20.852-20.852l7.819-28.671l-46.916-26.064
		L266.529,312.256z"/>
	<g>
		<g>
			<path fill="#222221" d="M226.132,464.709c0.829-0.062,1.659-0.022,2.482,0.086c0.275,0.011,0.531-0.047,0.77-0.171
				c0.248-0.081,0.461-0.22,0.643-0.414c0.195-0.181,0.332-0.395,0.413-0.643c0.125-0.238,0.182-0.494,0.172-0.77
				c-0.023-0.517-0.193-1.052-0.585-1.412c-0.135-0.104-0.269-0.208-0.404-0.313c-0.311-0.181-0.647-0.271-1.008-0.272
				c-0.823-0.107-1.653-0.148-2.482-0.086c-0.274-0.011-0.531,0.047-0.769,0.172c-0.248,0.081-0.462,0.218-0.643,0.413
				c-0.195,0.181-0.333,0.395-0.413,0.643c-0.125,0.238-0.183,0.495-0.172,0.77c0.023,0.516,0.193,1.053,0.585,1.412
				C225.094,464.467,225.607,464.749,226.132,464.709L226.132,464.709z"/>
		</g>
		<g>
			<path fill="#222221" d="M237.223,460.657c3.958-1.624,7.462-4.063,11.325-5.872c2.016-0.944,4.262-1.514,6.362-2.259
				c2.161-0.769,4.314-1.559,6.46-2.367c8.616-3.247,17.113-6.798,25.59-10.391c4.037-1.712,8.058-3.725,12.243-5.034
				c3.544-1.108,7.421-2.13,11.158-1.522c6.189,1.005,10.023,6.277,10.389,12.151c0.181,2.92-0.293,5.857-1.543,8.527
				c-1.585,3.385-4.23,6.188-6.875,8.773c-2.918,2.851-6.034,5.497-8.79,8.513c-2.707,2.961-6.039,5.301-9.293,7.615
				c-3.27,2.325-6.591,4.639-9.485,7.433c-0.624,0.602-1.17,1.324-1.908,1.779c-0.925,0.57-1.862,1.122-2.809,1.654
				c-1.793,1.009-3.626,1.946-5.493,2.811c-7.361,3.408-15.368,5.614-23.452,6.336c-2.095,0.186-4.188,0.156-6.283,0.279
				c-1.857,0.108-3.639,0.246-5.48-0.139c-3.44-0.719-7.283-2.578-9.262-5.587c-0.927-1.41-1.416-2.874-2.047-4.446
				c-0.812-2.02-1.577-4.058-2.249-6.128c-1.311-4.037-2.287-8.203-2.518-12.451c-0.047-0.857-0.184-1.921,0.02-2.672
				c0.212-0.781,0.631-1.531,0.864-2.346c0.71-2.475-3.143-3.531-3.852-1.061c-0.242,0.842-0.669,1.619-0.896,2.462
				c-0.282,1.051-0.199,2.18-0.15,3.254c0.107,2.33,0.41,4.661,0.856,6.951c0.875,4.484,2.369,8.82,4.072,13.052
				c0.699,1.739,1.293,3.563,2.295,5.158c1.167,1.862,2.707,3.341,4.537,4.542c3.519,2.309,7.622,3.662,11.853,3.554
				c8.833-0.226,17.523-1.292,25.918-4.17c4.159-1.426,8.211-3.201,12.08-5.288c1.866-1.007,4.124-2.009,5.584-3.563
				c1.416-1.509,2.979-2.871,4.602-4.151c3.323-2.623,6.896-4.91,10.235-7.514c3.448-2.688,6.291-5.937,9.471-8.916
				c5.675-5.314,12.06-10.805,13.599-18.82c1.232-6.415-0.307-13.763-5.587-18.021c-3.2-2.581-7.161-3.841-11.264-3.711
				c-4.272,0.135-8.633,1.335-12.55,2.995c-8.816,3.735-17.609,7.528-26.503,11.077c-4.478,1.787-8.98,3.513-13.518,5.142
				c-2.292,0.823-4.641,1.526-6.915,2.396c-2.128,0.813-4.123,1.994-6.091,3.126c-1.876,1.078-3.759,2.173-5.765,2.997
				c-0.997,0.408-1.706,1.325-1.395,2.456C235.026,460.206,236.219,461.07,237.223,460.657L237.223,460.657z"/>
		</g>
		<g>
			<path fill="#222221" d="M242.33,501.514c0.242,3.836,0.264,7.707,0.982,11.496c0.733,3.867,2.432,7.394,5.008,10.369
				c2.516,2.906,5.793,5.08,9.486,6.162c3.403,0.998,7.022,1.08,10.539,0.893c3.848-0.204,7.674-0.657,11.526-0.805
				c4.538-0.173,9.094-0.163,13.605-0.748c4.523-0.589,8.757-1.833,12.831-3.897c3.738-1.895,7.174-4.309,10.49-6.856
				c3.339-2.564,6.577-5.262,9.986-7.734c3.079-2.233,5.881-4.64,8.24-7.641c2.507-3.188,4.624-6.657,6.985-9.951
				c2.565-3.576,5.212-7.129,7.199-11.071c1.519-3.014,3.041-6.089,4.168-9.273c1.078-3.043,1.786-6.499,0.879-9.68
				c-1.599-5.608-7.472-7.817-12.703-8.547c-5.599-0.781-11.438-0.354-16.877,1.19c-4.836,1.375-9.996,3.83-12.711,8.275
				c-0.602,0.984-1.059,2.086-1.333,3.207c-0.611,2.496,3.24,3.562,3.852,1.062c0.061-0.248,0.127-0.494,0.207-0.737
				c0.029-0.086,0.242-0.652,0.167-0.473c-0.069,0.164,0.199-0.41,0.262-0.525c0.133-0.251,0.277-0.496,0.431-0.735
				c0.125-0.192,0.255-0.38,0.392-0.564c-0.231,0.313,0.148-0.178,0.233-0.276c0.352-0.406,0.73-0.789,1.128-1.149
				c0.521-0.471,0.566-0.502,0.974-0.796c0.499-0.358,1.017-0.691,1.548-1c0.464-0.271,0.938-0.522,1.419-0.76
				c0.59-0.29,1.003-0.471,1.425-0.639c4.847-1.926,9.745-2.619,14.888-2.443c0.641,0.022,1.281,0.061,1.918,0.116
				c0.708,0.062,1.073,0.104,1.518,0.172c1.084,0.165,2.16,0.388,3.214,0.691c0.516,0.149,1.024,0.321,1.528,0.509
				c0.107,0.04,0.214,0.083,0.321,0.127c-0.07-0.029-0.354-0.159-0.01-0.004c0.25,0.113,0.497,0.229,0.74,0.356
				c0.956,0.495,1.838,1.106,2.535,1.938c1.678,2.006,1.553,4.709,0.936,7.211c-0.721,2.921-2.03,5.64-3.336,8.335
				c-1.682,3.469-3.572,6.723-5.792,9.879c-2.321,3.301-4.634,6.596-6.911,9.927c-1.867,2.73-3.915,5.286-6.416,7.467
				c-2.911,2.537-6.183,4.697-9.213,7.096c-6.041,4.78-12.326,9.892-19.849,12.088c-7.859,2.295-16.267,1.531-24.343,2.2
				c-6.285,0.521-13.315,1.584-19.025-1.799c-3.042-1.802-5.534-4.686-6.946-7.923c-1.293-2.967-1.625-6.237-1.816-9.431
				c-0.106-1.769-0.174-3.539-0.286-5.307C246.163,498.96,242.167,498.942,242.33,501.514L242.33,501.514z"/>
		</g>
		<g>
			<path fill="#222221" d="M258.205,535.692c0.489,6.629,1.827,13.172,5.848,18.622c4.479,6.07,10.856,10.601,17.921,13.186
				c7.722,2.826,16.027,1.796,23.762-0.455c3.738-1.088,7.348-2.548,11.023-3.82c3.783-1.309,7.215-2.928,10.024-5.854
				c2.544-2.65,4.494-5.813,7.121-8.389c1.877-1.84,3.896-3.545,5.804-5.355c4.527-4.298,8.889-8.778,12.966-13.506
				c4.364-5.061,8.474-10.411,11.829-16.2c3.04-5.245,5.505-10.939,6.266-16.995c0.681-5.423-0.129-11.891-4.919-15.262
				c-3.951-2.781-9.375-2.394-13.94-2.067c-1.175,0.084-2.35,0.176-3.526,0.243c-2.556,0.146-2.573,4.142,0,3.994
				c2.299-0.131,4.593-0.361,6.896-0.429c2.337-0.069,4.134-0.036,6.166,0.562c0.236,0.069,0.468,0.148,0.701,0.23
				c0.114,0.04,0.229,0.085,0.341,0.132c-0.328-0.137-0.039-0.014,0.022,0.017c0.461,0.229,0.898,0.479,1.325,0.767
				c0.356,0.241-0.005-0.049,0.308,0.25c0.178,0.172,0.36,0.334,0.53,0.515c0.093,0.098,0.433,0.5,0.394,0.448
				c0.004,0.005,0.292,0.437,0.398,0.614c1.208,2.013,1.553,4.73,1.512,7.25c-0.083,5.107-1.996,10.308-4.411,14.967
				c-2.829,5.459-6.416,10.516-10.301,15.269c-3.874,4.738-8.059,9.218-12.416,13.514c-3.96,3.899-8.404,7.401-11.867,11.764
				c-2.085,2.627-4.11,5.538-7.004,7.343c-3.025,1.885-6.632,2.753-9.942,4.007c-7.03,2.661-14.766,4.924-22.359,4.035
				c-6.744-0.79-13.413-4.687-18.175-9.398c-2.17-2.147-4.028-4.547-5.384-7.291c-1.268-2.564-1.981-5.379-2.429-8.193
				c-0.238-1.494-0.376-3.003-0.487-4.512c-0.08-1.076-0.861-1.997-1.998-1.997C259.183,533.695,258.125,534.61,258.205,535.692
				L258.205,535.692z"/>
		</g>
		<g>
			<path fill="#222221" d="M299.576,566.148c-0.365,3.22,0.603,6.49,3.105,8.646c2.364,2.038,5.444,3.017,8.481,3.496
				c7.026,1.106,14.738,0.808,21.314-2.017c4.199-1.804,7.911-4.569,11.269-7.639c3.791-3.463,7.376-7.263,10.765-11.117
				c3.485-3.967,6.209-8.45,9.502-12.56c1.611-2.011,3.25-4.017,4.649-6.183c1.285-1.989,2.312-4.129,3.189-6.324
				c1.918-4.803,2.85-10.108,0.647-14.962c-1.886-4.158-5.932-8.255-10.822-8.003c-2.557,0.132-2.573,4.127,0,3.995
				c3.259-0.169,5.85,2.825,7.21,5.674c1.669,3.496,0.829,7.484-0.426,11.015c-1.478,4.155-3.884,7.729-6.621,11.151
				c-1.537,1.922-3.107,3.829-4.489,5.867c-1.292,1.905-2.551,3.795-4.018,5.574c-3.117,3.779-6.57,7.307-10.032,10.769
				c-2.929,2.929-6.071,5.663-9.682,7.722c-3.459,1.973-7.305,3.209-11.29,3.445c-2.58,0.153-5.183,0.182-7.762-0.008
				c-2.71-0.199-5.872-0.737-8.157-2.102c-0.307-0.185-0.612-0.38-0.895-0.6c0.299,0.231-0.006-0.013-0.075-0.077
				c-0.149-0.14-0.302-0.272-0.446-0.419c-0.082-0.082-0.158-0.169-0.238-0.252c-0.078-0.087-0.152-0.174-0.226-0.265
				c0.133,0.178,0.132,0.175-0.003-0.01c-0.183-0.267-0.337-0.544-0.498-0.824c-0.047-0.083-0.208-0.443-0.059-0.092
				c-0.071-0.167-0.13-0.343-0.186-0.516c-0.116-0.363-0.205-0.737-0.263-1.113c0.054,0.352-0.006-0.083-0.01-0.171
				c-0.013-0.246-0.029-0.492-0.028-0.739c0-0.457,0.036-0.911,0.087-1.364c0.122-1.074-1.005-1.997-1.997-1.997
				C300.393,564.151,299.698,565.072,299.576,566.148L299.576,566.148z"/>
		</g>
		<g>
			<path fill="#222221" d="M357.199,327.964c-2.364-6.138-7.063-10.97-9.989-16.815c-2.845-5.684-4.211-12.064-4.123-18.412
				c0.007-0.504,0.037-1.007,0.088-1.509c0.038-0.369-0.024,0.081,0.038-0.276c0.044-0.257,0.092-0.513,0.15-0.768
				c0.097-0.423,0.215-0.841,0.357-1.25c0.039-0.111,0.225-0.577,0.158-0.423c-0.062,0.143,0.167-0.343,0.23-0.464
				c0.183-0.347,0.394-0.67,0.604-1c0.244-0.382-0.083,0.071,0.129-0.183c0.139-0.165,0.278-0.328,0.426-0.484
				c0.239-0.254,0.499-0.483,0.756-0.716c0.362-0.327-0.12,0.068,0.162-0.133c0.175-0.125,0.352-0.247,0.532-0.362
				c0.32-0.204,0.652-0.39,0.991-0.559c0.147-0.074,0.297-0.143,0.446-0.211c0.343-0.158,0.05-0.021-0.018,0.006
				c0.104-0.041,0.208-0.083,0.313-0.121c0.787-0.281,1.588-0.505,2.41-0.664c0.204-0.04,0.41-0.074,0.615-0.107
				c0.349-0.058-0.22,0.014,0.277-0.037c0.459-0.048,0.919-0.089,1.382-0.112c0.892-0.043,1.785-0.035,2.677,0.013
				c1.933,0.106,3.275,0.317,5.302,0.789c1.867,0.435,3.703,1.004,5.491,1.699c0.215,0.083,0.428,0.169,0.642,0.256
				c0.382,0.154,0.053,0.017,0.333,0.14c0.41,0.181,0.818,0.365,1.223,0.559c0.804,0.384,1.593,0.798,2.363,1.247
				c0.69,0.402,1.365,0.831,2.016,1.295c0.154,0.109,0.306,0.222,0.457,0.334c0.283,0.209-0.191-0.171,0.153,0.123
				c0.56,0.479,1.12,0.954,1.662,1.453c5.06,4.654,9.115,10.268,14.274,14.826c5.058,4.468,10.837,8.042,15.862,12.536
				c4.685,4.19,8.795,9.179,14.224,12.466c1.934,1.171,4.039,2.014,6.036,3.063c1.868,0.981,3.521,2.04,4.531,3.75
				c0.569,0.962,0.845,2.007,1.015,3.159c0.157,1.068,1.508,1.656,2.457,1.395c1.145-0.314,1.552-1.386,1.395-2.457
				c-0.385-2.611-1.638-5.026-3.625-6.777c-1.806-1.589-3.945-2.645-6.099-3.672c-2.343-1.116-4.574-2.323-6.606-3.957
				c-2.615-2.104-4.974-4.503-7.374-6.844c-2.432-2.372-4.966-4.555-7.661-6.623c-2.752-2.112-5.575-4.133-8.281-6.304
				c-2.81-2.253-5.451-4.681-7.903-7.32c-2.433-2.62-4.726-5.368-7.224-7.927c-3.139-3.214-6.501-5.83-10.611-7.656
				c-3.856-1.713-7.894-2.872-12.086-3.373c-3.825-0.457-7.836-0.258-11.405,1.293c-3.398,1.477-5.879,4.396-6.789,7.994
				c-0.654,2.585-0.549,5.32-0.339,7.954c0.276,3.454,0.905,6.887,1.977,10.184c1.061,3.264,2.511,6.425,4.301,9.353
				c1.777,2.908,3.86,5.615,5.649,8.515c0.823,1.333,1.616,2.71,2.18,4.175c0.388,1.006,1.343,1.701,2.457,1.395
				C356.766,330.157,357.589,328.976,357.199,327.964L357.199,327.964z"/>
		</g>
		<g>
			<path fill="#222221" d="M422.613,332.939c8.137,0.441,16.276-0.129,24.3-1.531c6.957-1.215,13.749-2.964,20.283-5.672
				c12.354-5.12,23.29-12.865,33.274-21.681c10.052-8.875,19.162-18.74,28.496-28.348c5.913-6.088,11.619-12.387,17.491-18.518
				c5.887-6.146,11.797-12.271,17.655-18.445c2.935-3.094,5.858-6.201,8.76-9.329c2.925-3.153,5.508-6.634,8.193-9.991
				c0.547-0.683,0.994-1.151,1.712-1.637c0.931-0.629,1.604-1.259,2.271-2.162c1.098-1.484,2.244-2.929,3.435-4.338
				c2.378-2.818,4.927-5.484,7.573-8.05c1.297-1.257,2.617-2.49,3.945-3.714c1.896-1.745-0.935-4.564-2.824-2.825
				c-5.483,5.048-10.657,10.352-15.139,16.322c-0.492,0.656-0.854,1.03-1.53,1.488c-0.779,0.527-1.431,1.048-2.018,1.781
				c-1.367,1.709-2.734,3.418-4.102,5.127c-1.369,1.711-2.715,3.422-4.206,5.03c-1.434,1.545-2.87,3.085-4.313,4.621
				c-11.551,12.3-23.381,24.333-34.906,36.657c-9.398,10.049-18.867,20.127-28.929,29.519c-9.458,8.827-19.718,16.914-31.4,22.601
				c-13.022,6.339-27.81,9.234-42.247,9.26c-1.927,0.003-3.852-0.053-5.775-0.157C420.045,328.806,420.052,332.801,422.613,332.939
				L422.613,332.939z"/>
		</g>
		<g>
			<path fill="#222221" d="M291.67,321.917c3.142-0.182,6.285-0.476,9.377-1.069c1.533-0.293,3.049-0.666,4.538-1.134
				c0.72-0.226,1.458-0.45,2.147-0.756c0.826-0.367,1.597-0.889,2.403-1.306c5.617-2.91,11.765-4.622,17.691-6.776
				c3.486-1.268,6.954-2.584,10.407-3.939c1.003-0.394,1.702-1.338,1.395-2.457c-0.263-0.956-1.447-1.792-2.457-1.395
				c-5.925,2.326-11.897,4.528-17.918,6.589c-3.044,1.043-6.041,2.136-8.97,3.477c-1.405,0.643-2.718,1.437-4.096,2.122
				c-1.299,0.645-2.869,0.973-4.275,1.309c-3.364,0.805-6.796,1.141-10.243,1.34C289.115,318.069,289.098,322.065,291.67,321.917
				L291.67,321.917z"/>
		</g>
		<g>
			<path fill="#222221" d="M377.652,292.617c2.57,0,2.574-3.995,0-3.995C375.082,288.622,375.078,292.617,377.652,292.617
				L377.652,292.617z"/>
		</g>
		<g>
			<path fill="#222221" d="M382.045,298.487c3.867-0.23,7.708-0.871,11.589-0.883c4.001-0.012,7.832,1.211,11.729,1.984
				c4.19,0.83,8.324,1.262,12.597,1.06c3.83-0.18,7.775-0.674,11.577,0.042c2.733,0.516,5.374,1.69,7.942,2.744
				c2.093,0.86,4.608,2.063,6.642,3.483c0.822,0.574,1.715,1.337,2.491,2.214c0.356,0.402,0.487,0.565,0.833,1.119
				c0.149,0.238,0.289,0.482,0.416,0.731c0.196,0.38,0.187,0.362,0.267,0.585c0.888,2.462,0.598,4.999-1.085,7.292
				c-1.143,1.556-2.584,2.942-3.938,4.312c-1.116,1.128-2.538,1.647-4.057,2.003c-3.506,0.823-7.122,1.101-9.726,3.915
				c-1.743,1.885,1.074,4.716,2.824,2.825c2.134-2.305,5.505-2.254,8.358-2.984c1.702-0.437,3.302-1.146,4.674-2.256
				c1.391-1.125,2.634-2.577,3.812-3.92c2.408-2.745,3.967-5.871,3.562-9.605c-0.31-2.847-1.622-5.364-3.632-7.39
				c-3.82-3.853-9.183-5.73-14.131-7.645c-3.846-1.489-7.77-1.884-11.871-1.722c-4.245,0.167-8.463,0.608-12.696,0.006
				c-2.472-0.351-4.918-0.875-7.353-1.416c-2.324-0.516-4.635-1.117-7.016-1.297c-4.616-0.348-9.214,0.535-13.81,0.809
				C379.49,294.645,379.473,298.641,382.045,298.487L382.045,298.487z"/>
		</g>
		<g>
			<path fill="#222221" d="M288.634,325.92c7.905,1.12,15.918,1.279,23.798,2.588c4.18,0.695,8.334,1.43,12.547,1.917
				c4.19,0.484,8.396,0.813,12.608,1.035c8.095,0.425,16.204,0.45,24.307,0.497c4.087,0.023,8.174,0.054,12.259,0.145
				c3.822,0.084,7.608,0.325,11.423,0.571c1.913,0.123,3.818,0.15,5.728,0.342c1.85,0.186,3.697,0.406,5.538,0.67
				c4.007,0.577,7.989,1.316,11.945,2.176c6.521,1.417,12.879,3.066,18.951,5.891c11.224,5.222,20.84,13.132,29.396,21.979
				c8.68,8.973,16.339,18.852,24.216,28.516c0.96,1.179,1.924,2.353,2.894,3.522c0.688,0.832,2.111,0.713,2.824,0
				c0.822-0.822,0.69-1.991,0-2.824c-8.005-9.663-15.623-19.659-24.137-28.889c-8.485-9.199-17.976-17.7-29.043-23.676
				c-5.691-3.073-11.77-5.472-18.05-7.029c-7.648-1.896-15.457-3.343-23.29-4.2c-3.846-0.421-7.728-0.549-11.59-0.812
				c-3.957-0.268-7.943-0.27-11.908-0.317c-8.155-0.099-16.313-0.044-24.466-0.277c-8.317-0.236-16.646-0.764-24.879-2.018
				c-4.148-0.632-8.25-1.452-12.423-1.923c-4.015-0.452-8.048-0.727-12.07-1.108c-1.842-0.174-3.684-0.369-5.516-0.628
				c-1.066-0.151-2.145,0.261-2.457,1.395C286.983,324.399,287.56,325.767,288.634,325.92L288.634,325.92z"/>
		</g>
		<g>
			<path fill="#222221" d="M486.373,397.086c-0.765-0.467-1.125-0.939-1.123-1.804c-1.003,0.575-2.004,1.149-3.006,1.725
				c3.32,2.287,5.762,5.774,7.992,9.067c2.377,3.51,4.67,7.052,7.16,10.482c3.043,4.192,5.618,8.697,8.155,13.206
				c2.478,4.402,5.025,8.737,7.702,13.021c2.684,4.293,5.304,8.723,6.979,13.521c1.755,5.031,2.454,10.367,3.765,15.518
				c0.665,2.616,1.581,5.146,2.359,7.729c0.771,2.556,1.44,5.142,2.05,7.739c1.249,5.313,2.248,10.679,3.389,16.016
				c0.932,4.362,2.189,8.669,2.988,13.059c0.569,3.135,0.799,6.528-0.813,9.161c-1.816,2.963-5.827,4.422-9.169,5.198
				c-3.65,0.85-7.682,0.755-11.042-1.051c-1.649-0.885-3.208-2.133-4.285-3.678c-1.11-1.592-1.791-3.405-2.332-5.258
				c-1.192-4.082-1.772-8.289-3.3-12.275c-3.605-9.408-9.563-17.613-14.293-26.447c-5.118-9.559-9.619-19.437-14.878-28.92
				c-5.162-9.304-11.41-17.863-17.75-26.386c-1.55-2.084-3.1-4.168-4.632-6.267c-0.635-0.869-1.734-1.3-2.732-0.716
				c-0.94,0.551-1.253,1.793-0.716,2.732c4.658,8.152,10.523,15.506,15.951,23.144c2.702,3.802,5.306,7.685,7.573,11.766
				c2.46,4.424,4.426,9.114,6.433,13.757c4.173,9.661,8.103,19.427,12.478,28.999c1.938,4.242,4.072,8.396,5.937,12.673
				c1.754,4.022,3.328,8.345,3.697,12.748c0.319,3.832-0.509,7.317-1.998,10.824c-0.301,0.706-0.629,1.407-0.997,2.081
				c-0.168,0.31-0.346,0.616-0.543,0.907c-0.335,0.492,0.4-0.361-0.184,0.226c-0.189,0.191-0.374,0.4-0.592,0.563
				c-1.359,1.01-3.272,1.206-4.896,1.444c-4.545,0.665-8.855,2.341-13.489,2.463c-2.098,0.055-4.291-0.05-6.266-0.833
				c-1.384-0.549-2.477-1.457-3.534-2.576c-2.856-3.02-5.448-6.44-7.778-9.873c-2.723-4.009-5.12-8.225-7.491-12.449
				c-4.666-8.314-9.607-16.471-14.393-24.719c-4.762-8.21-9.7-16.369-15.792-23.678c-3.011-3.611-6.191-7.043-9.085-10.757
				c-2.891-3.71-5.708-7.486-8.841-11c-1.53-1.714-3.136-3.356-4.839-4.899c-1.593-1.443-4.494,0.462-3.137,2.42
				c2.715,3.915,6.059,7.274,9.495,10.551c3.526,3.362,6.922,6.806,10.152,10.456c6.696,7.568,12.974,15.531,19.057,23.597
				c6.02,7.983,11.755,16.201,16.769,24.858c4.598,7.935,9.655,16.758,10.12,26.139c0.183,3.672-0.326,8.039-2.837,10.783
				c-2.058,2.25-4.965,3.281-8.051,3.735c-3.104,0.457-6.801,0.253-9.885-0.207c-4.087-0.61-8.129-1.676-11.797-3.615
				c-3.527-1.866-6.863-4.438-9.553-7.393c-1.313-1.438-2.063-3.132-2.792-4.913c-0.93-2.274-1.962-4.501-3.09-6.683
				c-2.267-4.384-4.729-8.709-7.255-12.948c-2.545-4.272-5.489-8.289-8.473-12.263c-6.271-8.353-12.158-16.918-17.86-25.669
				c-2.681-4.115-5.356-8.235-8.057-12.338c-2.583-3.928-5.259-7.814-8.31-11.396c-1.422-1.669-2.933-3.256-4.563-4.724
				c-0.807,1.046-1.613,2.091-2.42,3.136c3.073,2.223,5.226,6.05,7.143,9.325c1.053,1.798,2.06,3.623,3.143,5.403
				c1.24,2.038,2.595,4.002,3.815,6.054c2.734,4.598,5.133,9.384,7.399,14.227c2.304,4.919,4.616,9.859,6.741,14.858
				c2.086,4.907,3.761,9.976,5.785,14.906c1.035,2.521,2.142,5.009,3.413,7.422c1.154,2.189,2.383,4.341,3.47,6.565
				c1.077,2.206,1.901,4.475,2.535,6.846c0.539,2.021,1.375,3.946,2.029,5.93c0.29,0.88,0.584,1.784,0.72,2.703
				c0.111,0.748,0.087,1.191-0.221,1.995c-0.444,1.159-1.784,2.53-3.01,3.498c-3.459,2.73-7.171,4.146-11.291,5.245
				c-5.594,1.492-11.37,1.77-17.123,2.081c-2.556,0.139-2.573,4.135,0,3.994c9.705-0.526,19.799-1.223,28.305-6.422
				c3.316-2.028,6.921-4.967,7.347-9.103c0.215-2.088-0.581-4.264-1.27-6.195c-0.773-2.172-1.444-4.334-2.123-6.533
				c-1.564-5.069-4.415-9.518-6.747-14.238c-2.469-4.997-4.261-10.285-6.256-15.479c-2.036-5.303-4.446-10.446-6.795-15.616
				c-2.311-5.083-4.683-10.146-7.372-15.042c-2.639-4.808-5.714-9.352-8.456-14.099c-2.469-4.276-5.092-8.827-9.167-11.773
				c-1.836-1.328-4.095,1.628-2.42,3.137c6.994,6.3,11.812,14.658,16.92,22.459c5.908,9.024,11.714,18.118,18.171,26.767
				c3.046,4.08,6.172,8.104,9.003,12.339c2.841,4.251,5.292,8.767,7.782,13.229c1.21,2.169,2.381,4.361,3.438,6.608
				c1.018,2.162,1.737,4.499,2.913,6.58c2.033,3.596,5.668,6.469,8.998,8.802c6.774,4.747,15.373,6.832,23.584,6.775
				c3.63-0.024,7.331-0.58,10.603-2.218c3.326-1.666,5.729-4.576,6.894-8.09c3.097-9.352-0.757-19.574-4.939-27.925
				c-4.588-9.159-10.105-17.823-16.046-26.159c-6.001-8.42-12.378-16.599-18.956-24.575c-3.352-4.064-6.792-8.065-10.418-11.891
				c-3.302-3.484-6.945-6.621-10.255-10.098c-1.621-1.703-3.149-3.482-4.49-5.414c-1.045,0.807-2.09,1.613-3.136,2.42
				c7.229,6.549,12.411,14.889,18.812,22.178c3.175,3.616,6.264,7.209,9.025,11.16c2.782,3.978,5.339,8.109,7.812,12.286
				c2.471,4.173,4.857,8.395,7.309,12.579c2.471,4.22,5.051,8.371,7.453,12.631c2.439,4.327,4.82,8.692,7.47,12.896
				c2.563,4.068,5.482,7.815,8.52,11.534c2.337,2.862,4.933,5.303,8.639,6.176c4.996,1.176,10.387,0.321,15.255-1.032
				c2.023-0.562,4.023-0.866,6.09-1.213c2.049-0.342,4.059-0.954,5.67-2.318c1.371-1.16,2.176-2.834,2.881-4.449
				c0.733-1.681,1.415-3.401,1.916-5.169c2.606-9.183-1.661-18.757-5.549-26.905c-4.487-9.404-8.628-18.936-12.676-28.535
				c-3.995-9.471-7.767-19.124-13.328-27.812c-5.186-8.102-11.312-15.546-16.614-23.567c-1.316-1.99-2.576-4.018-3.761-6.09
				c-1.149,0.673-2.299,1.345-3.448,2.017c6.447,8.828,13.246,17.434,18.966,26.769c5.85,9.548,10.529,19.754,15.629,29.707
				c2.395,4.674,4.931,9.248,7.633,13.75c2.665,4.441,5.363,8.879,7.542,13.586c0.993,2.146,1.884,4.358,2.52,6.641
				c0.577,2.072,0.984,4.187,1.48,6.28c1.023,4.308,2.479,8.58,5.871,11.613c6.676,5.968,16.951,5.411,24.368,1.077
				c3.534-2.064,5.722-5.349,6.221-9.397c0.472-3.822-0.47-7.738-1.369-11.432c-2.574-10.566-4.211-21.389-7.275-31.829
				c-0.776-2.648-1.732-5.238-2.435-7.909c-0.706-2.689-1.25-5.417-1.835-8.134c-0.563-2.611-1.145-5.238-2.014-7.77
				c-0.878-2.555-2.001-5.032-3.248-7.426c-2.448-4.702-5.467-9.063-8.14-13.634c-2.677-4.578-5.159-9.271-7.928-13.796
				c-2.504-4.092-5.453-7.859-8.085-11.864c-2.474-3.765-4.883-7.618-7.877-11.003c-1.374-1.555-2.895-2.953-4.605-4.132
				c-1.277-0.881-3.002,0.298-3.005,1.725c-0.005,2.292,1.179,4.078,3.103,5.253C486.557,401.878,488.566,398.425,486.373,397.086
				L486.373,397.086z"/>
		</g>
		<g>
			<path fill="#222221" d="M525.777,468.8c7.944,0.797,12.755-6.623,18.427-10.677c7.979-5.702,16.914-9.923,25.547-14.507
				c5.271-2.798,10.544-5.588,15.847-8.326c2.284-1.18,0.267-4.628-2.017-3.449c-8.952,4.624-17.881,9.313-26.77,14.061
				c-4.169,2.227-8.296,4.545-12.242,7.148c-3.271,2.158-6.049,4.71-8.969,7.3c-2.796,2.481-5.954,4.843-9.823,4.455
				c-1.075-0.108-1.998,0.995-1.998,1.998C523.779,467.972,524.698,468.691,525.777,468.8L525.777,468.8z"/>
		</g>
		<g>
			<path fill="#222221" d="M357.483,554.862c0.313,2.287,1.811,4.185,3.336,5.821c0.708,0.761,1.447,1.494,2.125,2.282
				c0.083,0.097,0.166,0.194,0.247,0.294c0.027,0.033,0.054,0.064,0.08,0.098c0.132,0.167,0.107,0.132-0.077-0.105
				c0.005,0.125,0.33,0.454,0.4,0.56c0.286,0.427,0.532,0.876,0.734,1.349c0.41,0.965,1.905,1.25,2.732,0.717
				c1.004-0.647,1.156-1.699,0.717-2.732c-0.831-1.955-2.43-3.482-3.865-5c-0.341-0.36-0.679-0.724-1.001-1.102
				c-0.063-0.074-0.352-0.53-0.445-0.543c0.183,0.237,0.211,0.271,0.083,0.102c-0.024-0.034-0.049-0.068-0.074-0.102
				c-0.073-0.103-0.144-0.206-0.213-0.31c-0.137-0.207-0.267-0.42-0.385-0.637c-0.06-0.108-0.116-0.219-0.169-0.329
				c-0.027-0.056-0.053-0.111-0.078-0.168c-0.062-0.139-0.035-0.074,0.081,0.193c0.028-0.146-0.19-0.547-0.232-0.706
				c-0.064-0.244-0.109-0.493-0.144-0.744c-0.143-1.038-1.525-1.696-2.457-1.395C357.736,552.774,357.33,553.748,357.483,554.862
				L357.483,554.862z"/>
		</g>
		<g>
			<path fill="#222221" d="M313.53,458.962c0.059,0.443,0.118,0.888,0.177,1.331c1.241-0.336,2.482-0.672,3.722-1.009
				c-3.147-5.605-6.913-11.177-12.27-14.891c-4.124-2.859-10.041-3.754-14.833-2.245c-11.459,3.605-8.754,20.25-2.628,27.46
				c1.833,2.156,4.333,3.797,7.101,4.447c3.119,0.732,6.355,0.325,9.373-0.65c0.608-0.196,1.292-0.709,1.395-1.396
				c0.085-0.566,0.17-1.135,0.255-1.702c0.16-1.065-0.268-2.146-1.395-2.456c-0.943-0.259-2.295,0.321-2.457,1.395
				c-0.085,0.567-0.17,1.136-0.255,1.703c0.465-0.466,0.93-0.931,1.395-1.396c-2.051,0.662-4.419,1.102-6.423,0.813
				c-1.985-0.285-3.689-1.128-5.119-2.478c-3.142-2.966-4.6-7.223-4.975-11.463c-0.357-4.027,0.225-8.587,4.103-10.185
				c3.557-1.466,8.333-0.914,11.49,0.976c5.285,3.161,8.853,8.845,11.794,14.083c0.903,1.608,3.993,1.028,3.722-1.008
				c-0.06-0.443-0.119-0.888-0.178-1.331c-0.143-1.069-0.815-1.998-1.998-1.998C314.559,456.964,313.386,457.885,313.53,458.962
				L313.53,458.962z"/>
		</g>
		<g>
			<path fill="#222221" d="M346.803,482.401c-3.085-2.781-6.009-5.733-9.348-8.22c-3.018-2.246-6.75-4.279-10.637-3.54
				c-4.669,0.886-7.084,5.666-8.631,9.676c-1.95,5.053-2.455,11.511,1.358,15.871c3.08,3.522,8.144,2.743,12.295,2.579
				c2.562-0.103,2.574-4.098,0-3.995c-1.773,0.07-3.55,0.241-5.325,0.185c-1.338-0.043-2.42-0.195-3.472-0.938
				c0.29,0.205-0.228-0.194-0.23-0.196c-0.103-0.096-0.203-0.196-0.299-0.298c-0.278-0.298-0.34-0.398-0.572-0.784
				c-0.524-0.873-0.847-1.828-1.067-2.821c-0.533-2.401-0.068-4.896,0.684-7.198c0.68-2.077,1.578-4.283,2.94-6.016
				c0.424-0.54,1.097-1.186,1.484-1.442c0.723-0.481,0.855-0.532,1.709-0.733c0.38-0.09,0.128-0.034,0.035-0.021
				c0.188-0.026,0.381-0.036,0.571-0.041c0.322-0.009,0.646,0.004,0.965,0.042c-0.326-0.038,0.5,0.107,0.645,0.144
				c0.404,0.104,0.801,0.233,1.19,0.381c0.4,0.152,1.239,0.577,1.83,0.92c0.763,0.445,1.497,0.938,2.211,1.457
				c3.163,2.301,5.926,5.188,8.84,7.814C345.884,486.942,348.718,484.126,346.803,482.401L346.803,482.401z"/>
		</g>
		<g>
			<path fill="#222221" d="M363.271,501.309c-1.231-0.21-2.223-0.906-3.229-1.612c-1.107-0.779-2.178-1.513-3.393-2.111
				c-0.918-0.454-1.68-1.496-2.762-1.948c-1.254-0.523-2.523-0.254-3.716,0.29c-2.085,0.951-3.821,2.769-5.314,4.464
				c-1.124,1.277-2.271,2.614-3.106,4.103c-1.688,3.008-2.558,6.451-2.958,9.854c-0.391,3.316-0.231,6.947,1.346,9.961
				c2.013,3.846,6.138,4.818,10.133,3.962c2.512-0.539,1.449-4.39-1.062-3.852c-0.806,0.172-1.104,0.232-2.057,0.2
				c-0.176-0.006-0.351-0.018-0.527-0.034c0.485,0.046-0.049-0.009-0.133-0.027c-0.359-0.084-0.711-0.175-1.055-0.312
				c0.486,0.192-0.26-0.166-0.385-0.234c-0.106-0.059-0.204-0.135-0.304-0.203c0.417,0.287,0.031,0.025-0.048-0.05
				c-0.21-0.203-0.413-0.405-0.605-0.627c-0.323-0.372,0.227,0.353-0.043-0.064c-0.109-0.168-0.219-0.334-0.319-0.508
				c-0.153-0.267-0.291-0.543-0.412-0.826c0.193,0.448-0.138-0.429-0.182-0.574c-0.198-0.649-0.338-1.316-0.43-1.988
				c0.065,0.48-0.006-0.108-0.012-0.171c-0.013-0.18-0.032-0.359-0.043-0.538c-0.024-0.366-0.037-0.732-0.04-1.099
				c-0.007-0.753,0.027-1.507,0.093-2.256c0.082-0.918,0.087-0.962,0.265-1.932c0.148-0.805,0.33-1.604,0.548-2.393
				c0.177-0.64,0.376-1.275,0.603-1.901c0.118-0.325,0.242-0.649,0.375-0.969c-0.181,0.435,0.036-0.075,0.065-0.136
				c0.092-0.195,0.181-0.391,0.276-0.583c0.245-0.492,0.513-0.974,0.814-1.434c0.515-0.784,0.513-0.733,1.112-1.465
				c1.204-1.468,2.555-3.034,4.068-4.127c0.19-0.138,0.387-0.268,0.587-0.389c0.069-0.041,0.733-0.388,0.479-0.282
				c0.177-0.072,0.378-0.097,0.551-0.172c-0.24,0.104-0.007,0.073-0.128-0.037c0.725,0.659,1.63,1.409,2.567,1.854
				c2.516,1.194,4.476,3.531,7.32,4.018c1.063,0.182,2.151-0.282,2.457-1.396C364.93,502.806,364.34,501.492,363.271,501.309
				L363.271,501.309z"/>
		</g>
		<g>
			<path fill="#222221" d="M353.835,526.013c0.202,2.873,0.545,5.793,1.792,8.421c1.123,2.367,3.205,4.076,5.716,4.79
				c1.71,0.485,3.542,0.546,5.305,0.418c1.04-0.075,2.047-0.865,1.997-1.997c-0.045-1.018-0.881-2.078-1.997-1.997
				c-0.75,0.055-1.501,0.078-2.252,0.041c-0.311-0.015-0.619-0.053-0.929-0.077c-0.131-0.01,0.402,0.069-0.006-0.005
				c-0.171-0.031-0.341-0.062-0.511-0.099c-0.262-0.057-0.521-0.125-0.777-0.206c-0.132-0.042-0.261-0.089-0.392-0.134
				c-0.416-0.146,0.284,0.146,0,0.005c-0.232-0.114-0.463-0.225-0.686-0.356c-0.093-0.056-0.184-0.112-0.274-0.172
				c-0.044-0.029-0.087-0.062-0.132-0.091c-0.281-0.182,0.044-0.006,0.106,0.092c-0.106-0.167-0.366-0.307-0.511-0.449
				c-0.175-0.171-0.324-0.366-0.494-0.54c-0.17-0.173,0.252,0.359,0.117,0.155c-0.028-0.044-0.063-0.084-0.093-0.128
				c-0.06-0.089-0.122-0.175-0.18-0.264c-0.148-0.228-0.284-0.463-0.409-0.703c-0.051-0.099-0.101-0.198-0.148-0.298
				c-0.223-0.471,0.024-0.008-0.005,0.011c0.015-0.01-0.259-0.689-0.285-0.766c-0.184-0.549-0.33-1.111-0.452-1.678
				c-0.07-0.323-0.13-0.649-0.185-0.975c-0.031-0.181-0.058-0.361-0.085-0.542c-0.071-0.471,0.028,0.258-0.013-0.095
				c-0.092-0.786-0.167-1.572-0.223-2.362c-0.073-1.039-0.866-2.047-1.997-1.997C354.813,524.062,353.757,524.897,353.835,526.013
				L353.835,526.013z"/>
		</g>
		<g>
			<path fill="#222221" d="M288.979,326.538c12.858,0.998,25.748,0.43,38.625,0.327c6.51-0.051,13.026,0.025,19.521,0.499
				c6.38,0.466,12.64,1.519,18.939,2.586c12.269,2.081,24.551,4.139,36.681,6.936c6.196,1.428,12.352,3.049,18.427,4.93
				c5.001,1.547,9.72,3.333,14.198,6.079c8.582,5.258,15.582,12.648,22.416,19.935c1.744,1.859,3.482,3.724,5.243,5.567
				c0.809,0.846,1.621,1.687,2.441,2.521c1.063,1.081,1.868,2.306,2.747,3.537c3.427,4.803,7.081,9.446,10.906,13.937
				c3.979,4.671,8.149,9.178,12.438,13.565c2.024,2.072,3.953,3.959,5.303,6.558c1.191,2.293,1.985,4.756,2.893,7.167
				c0.96,2.556,2.011,5.126,3.616,7.353c1.666,2.309,3.711,4.249,5.726,6.244c0.829,0.82,1.85,1.678,2.504,2.647
				c0.787,1.162,1.435,2.375,2.325,3.479c1.793,2.223,3.271,4.659,4.665,7.157c5.91,10.586,8.005,23.022,9.643,34.903
				c0.838,6.079,1.447,12.188,2.095,18.29c0.335,3.162,0.677,6.322,1.057,9.479c0.18,1.495,0.295,3.022,0.644,4.486
				c0.373,1.568,0.695,3.155,0.912,4.754c0.409,3.023,0.421,6.092,0.054,9.118c-0.132,1.073,1.011,1.997,1.997,1.997
				c1.187,0,1.866-0.922,1.997-1.997c0.395-3.247,0.307-6.488-0.135-9.727c-0.416-3.059-1.166-6.031-1.53-9.098
				c-0.754-6.338-1.363-12.691-2.078-19.033c-0.699-6.206-1.498-12.407-2.629-18.552c-1.138-6.186-2.471-12.5-4.71-18.392
				c-1.028-2.706-2.264-5.331-3.657-7.867c-1.453-2.643-2.976-5.463-4.979-7.723c-0.801-0.903-1.436-1.919-2.04-2.958
				c-0.708-1.212-1.757-2.228-2.742-3.225c-1.929-1.95-4.045-3.773-5.667-6.002c-3.235-4.442-4.103-10.084-6.693-14.867
				c-1.41-2.602-3.371-4.597-5.423-6.689c-2.219-2.265-4.407-4.561-6.554-6.895c-4.102-4.459-8.054-9.057-11.787-13.83
				c-1.841-2.353-3.617-4.755-5.337-7.196c-0.788-1.12-1.512-2.207-2.475-3.183c-0.952-0.964-1.894-1.938-2.828-2.918
				c-7.043-7.381-13.781-15.145-21.855-21.446c-4.047-3.157-8.369-5.947-13.084-8.001c-5.476-2.385-11.354-3.948-17.109-5.498
				c-12.227-3.291-24.678-5.637-37.147-7.791c-6.342-1.096-12.686-2.292-19.057-3.211c-6.589-0.95-13.229-1.409-19.883-1.563
				c-13.009-0.3-26.016,0.471-39.024,0.112c-3.199-0.088-6.396-0.248-9.587-0.495C286.416,322.345,286.428,326.34,288.979,326.538
				L288.979,326.538z"/>
		</g>
		<g>
			<path fill="#222221" d="M225.436,463.43c0.014,0.787,0.016,1.576-0.035,2.361c-0.046,0.714-0.048,0.855-0.23,1.537
				c-0.052,0.192-0.115,0.38-0.18,0.568c-0.097,0.279,0.149-0.298,0.02-0.048c-0.034,0.066-0.062,0.136-0.101,0.199
				c-0.099,0.164-0.196,0.327-0.298,0.489c-0.268,0.432,0.112-0.09-0.165,0.22c-1.53,1.715-3.062,3.525-3.917,5.684
				c-0.979,2.474-1.028,5.367-0.907,7.99c0.118,2.551,0.406,5.216,1.201,7.655c1.582,4.853,5.161,8.298,9.823,10.213
				c4.428,1.82,9.401,2.192,14.141,2.213c4.586,0.02,9.163-0.365,13.743-0.546c6.564-0.259,12.594-2.301,18.11-5.834
				c3.075-1.97,5.985-4.19,9.04-6.194c3.194-2.095,6.424-4.138,9.508-6.394c1.41-1.032,2.809-2.095,4.143-3.224
				c0.343-0.29-0.309,0.221-0.025,0.018c0.13-0.092,0.255-0.19,0.384-0.284c0.293-0.215,0.59-0.425,0.888-0.634
				c1.556-1.089,3.141-2.137,4.711-3.206c3.963-2.7,7.919-5.48,11.483-8.699c2.886-2.606,6.213-5.948,6.641-10.021
				c0.084-0.806,0.009-1.635-0.221-2.413c-0.729-2.46-4.586-1.412-3.852,1.062c0.049,0.166,0.075,0.339,0.124,0.505
				c-0.099-0.336-0.01-0.255-0.009,0.051c0,0.154-0.001,0.307-0.005,0.462c-0.001,0.089-0.016,0.179-0.023,0.267
				c0.009-0.124,0.087-0.377,0.009-0.125c-0.105,0.34-0.183,0.691-0.291,1.033c-0.137,0.434,0.095-0.163-0.062,0.156
				c-0.094,0.19-0.185,0.382-0.286,0.569c-0.924,1.713-1.831,2.694-3.285,4.146c-3.2,3.2-6.679,5.712-10.38,8.281
				c-2.885,2.003-5.919,3.844-8.665,6.04c-5.581,4.468-11.738,8.054-17.559,12.186c-5.008,3.552-10.007,6.751-16.157,7.835
				c-2.463,0.436-4.969,0.431-7.461,0.565c-2.182,0.117-4.363,0.255-6.548,0.333c-4.59,0.167-9.203,0.155-13.515-0.876
				c-2.173-0.52-3.831-1.113-5.652-2.258c-1.592-1.001-2.925-2.34-3.9-4.043c-1.003-1.753-1.517-3.844-1.8-5.89
				c-0.342-2.471-0.48-5.337-0.092-7.663c0.093-0.556,0.216-1.106,0.389-1.642c0.028-0.089,0.265-0.666,0.124-0.361
				c0.134-0.289,0.298-0.566,0.46-0.842c0.613-1.035,1.041-1.604,1.744-2.41c1.227-1.402,2.291-2.749,2.647-4.633
				c0.274-1.45,0.308-2.928,0.282-4.399C229.385,460.862,225.391,460.854,225.436,463.43L225.436,463.43z"/>
		</g>
		<g>
			<path fill="#222221" d="M239.444,457.347c3.188,0.316,6.404,0.842,9.339-0.789c1.178-0.653,2.206-1.494,3.539-1.813
				c1.278-0.307,2.613-0.235,3.917-0.308c1.553-0.086,3.042-0.335,4.466-0.972c1.28-0.57,2.406-1.498,3.503-2.357
				c1.996-1.56,3.826-3.311,5.742-4.963c1.794-1.547,3.695-2.964,5.849-3.975c2.617-1.229,5.615-1.541,8.442-1.966
				c3.131-0.472,6.278-0.927,9.303-1.894c3.123-0.997,6.112-2.374,9.253-3.332c2.604-0.796,5.754-1.654,8.239-1.27
				c0.465,0.072,1.169,0.262,1.46,0.396c0.329,0.152,0.66,0.4,0.894,0.641c0.152,0.156,0.376,0.52,0.466,0.786
				c0.208,0.615,0.22,1.169,0.198,1.833c-0.086,2.571,3.909,2.568,3.994,0c0.087-2.592-0.857-5.059-3.121-6.468
				c-1.969-1.226-4.51-1.406-6.762-1.153c-3.297,0.371-6.484,1.32-9.595,2.446c-3.203,1.158-6.296,2.49-9.645,3.194
				c-3.292,0.692-6.646,1.027-9.949,1.662c-2.786,0.535-5.411,1.575-7.785,3.136c-2.223,1.461-4.209,3.247-6.188,5.016
				c-0.964,0.862-1.932,1.723-2.936,2.539c-0.979,0.798-2.052,1.724-3.225,2.212c-1.417,0.591-3.021,0.499-4.52,0.566
				c-1.829,0.082-3.597,0.358-5.241,1.205c-1.253,0.647-2.361,1.685-3.789,1.931c-1.897,0.327-3.958-0.111-5.85-0.3
				c-1.075-0.107-1.998,0.995-1.998,1.997C237.446,456.518,238.366,457.238,239.444,457.347L239.444,457.347z"/>
		</g>
		<g>
			<path fill="#222221" d="M221.539,471.78c0.196-0.548,0.406-1.091,0.631-1.628c-0.067,0.16-0.134,0.319-0.201,0.478
				c0.695-1.645,1.528-3.225,2.497-4.725c0.568-0.88,0.208-2.244-0.716-2.731c-0.993-0.525-2.126-0.223-2.732,0.715
				c-1.379,2.134-2.474,4.438-3.33,6.83c-0.353,0.984,0.397,2.229,1.395,2.457C220.204,473.43,221.162,472.835,221.539,471.78
				L221.539,471.78z"/>
		</g>
		<g>
			<path fill="#222221" d="M246.358,508.271c0.962,6.584,4.319,12.082,8.79,16.89c2.131,2.293,4.364,4.565,6.74,6.607
				c1.854,1.59,3.925,3.08,6.348,3.635c6.31,1.444,12.469-2.786,17.654-5.738c1.667-0.949,3.356-1.784,5.188-2.364
				c1.758-0.557,3.563-0.935,5.36-1.339c3.402-0.767,6.706-1.742,9.609-3.736c4.978-3.422,8.514-8.56,13.921-11.391
				c6.307-3.303,12.181-7.433,17.167-12.536c1.864-1.908,3.592-3.953,5.373-5.939c1.875-2.091,3.733-4.199,5.492-6.391
				c1.757-2.189,3.484-4.445,4.857-6.901c1.21-2.165,2.183-4.55,1.988-7.079c-0.478-6.206-5.752-11.111-10.666-14.301
				c-2.638-1.713-5.529-3.01-8.625-3.624c-3.731-0.74-7.539-0.713-11.324-0.589c-1.856,0.061-3.712,0.135-5.571,0.14
				c-2.57,0.007-2.575,4.002,0,3.994c6.658-0.017,14.035-1.257,20.278,1.708c2.342,1.112,4.548,2.572,6.494,4.284
				c1.931,1.698,3.802,3.705,4.814,6.106c0.481,1.143,0.693,2.218,0.619,3.4c-0.021,0.338-0.106,0.755-0.223,1.162
				c-0.061,0.213-0.13,0.424-0.205,0.633c-0.044,0.124-0.091,0.248-0.14,0.37c-0.116,0.298,0,0.011-0.081,0.19
				c-1.014,2.243-2.446,4.293-3.924,6.252c-2.913,3.863-6.268,7.36-9.445,11.002c-4.386,5.023-9.487,9.244-15.229,12.636
				c-2.777,1.641-5.636,2.981-8.16,5.021c-2.205,1.782-4.146,3.855-6.227,5.774c-1.967,1.814-4.126,3.548-6.651,4.515
				c-3.3,1.265-6.856,1.659-10.227,2.684c-6.457,1.961-11.641,7.221-18.402,8.274c-1.702,0.265-3.361-0.077-4.915-0.986
				c-2.086-1.222-3.858-3.049-5.653-4.825c-4.132-4.089-8.279-8.38-10.126-14.03c-0.486-1.49-0.82-3.02-1.046-4.568
				c-0.156-1.069-1.509-1.655-2.457-1.395C246.607,506.129,246.202,507.198,246.358,508.271L246.358,508.271z"/>
		</g>
		<g>
			<path fill="#222221" d="M268.455,539.548c0.726-4.068-0.856-7.762-2.942-11.177c-0.976-1.598-3.866-1.052-3.722,1.008
				c0.229,3.254,0.383,6.528,0.949,9.746c0.533,3.028,1.611,5.914,3.069,8.616c0.848,1.573,1.849,3.052,2.745,4.596
				c0.836,1.442,1.62,2.915,2.482,4.343c1.754,2.905,3.921,5.582,6.912,7.281c13.084,7.43,28.77,2.671,40.36-5.304
				c2.885-1.985,5.633-4.185,8.205-6.563c1.272-1.176,2.489-2.391,3.885-3.425c1.449-1.072,2.959-2.058,4.451-3.069
				c3.065-2.08,6.155-4.323,8.172-7.498c1.848-2.907,2.526-6.366,4.4-9.271c3.599-5.573,9.447-9.248,13.168-14.754
				c1.521-2.252,2.634-4.824,3.899-7.228c1.458-2.767,2.872-5.556,4.07-8.447c1.009-2.435,1.99-5.109,1.958-7.784
				c-0.033-2.924-1.068-5.88-2.917-8.14c-3.328-4.067-9.003-4.989-13.945-5.283c-1.238-0.074-2.479-0.104-3.719-0.125
				c-2.571-0.044-2.572,3.949,0,3.994c4.501,0.078,9.31,0.101,12.995,2.526c1.603,1.056,2.754,2.758,3.277,4.857
				c0.275,1.104,0.394,2.217,0.243,3.349c0.041-0.311-0.067,0.342-0.083,0.423c-0.059,0.299-0.127,0.596-0.202,0.89
				c-0.161,0.635-0.354,1.26-0.564,1.88c-1.724,5.052-4.569,9.635-6.925,14.399c-2.77,5.602-7.937,9.229-11.966,13.841
				c-2.278,2.608-3.921,5.408-5.175,8.632c-0.545,1.404-1.08,2.802-1.878,4.089c-0.902,1.453-2.139,2.648-3.448,3.736
				c-2.543,2.112-5.453,3.74-8.09,5.729c-2.675,2.017-4.977,4.458-7.563,6.584c-9.695,7.971-23.059,14.432-35.774,10.546
				c-3.048-0.933-5.949-2.315-8.082-4.738c-2.017-2.29-3.324-5.144-4.855-7.757c-1.546-2.641-3.259-5.151-4.258-8.068
				c-0.868-2.536-1.232-5.116-1.453-7.754c-0.135-1.615-0.236-3.233-0.35-4.851c-1.24,0.336-2.481,0.672-3.722,1.009
				c1.449,2.371,3.055,5.208,2.54,8.099c-0.189,1.06,0.288,2.152,1.395,2.456C266.964,541.208,268.265,540.615,268.455,539.548
				L268.455,539.548z"/>
		</g>
		<g>
			<path fill="#222221" d="M306.235,565.081c-0.054,3.17,0.491,6.482,2.211,9.201c1.535,2.424,3.802,4.127,6.447,5.177
				c5.455,2.164,11.939,1.31,17.403-0.358c5.673-1.729,11.225-4.596,15.366-8.907c5.988-6.233,13.595-11.145,17.58-19.061
				c1.236-2.455,1.899-5.062,2.907-7.599c1.056-2.663,2.526-5.142,3.589-7.806c2.279-5.714,1.082-11.611,1.046-17.563
				c-0.016-2.569-4.01-2.574-3.994,0c0.029,4.826,1.163,9.918-0.248,14.638c-0.678,2.269-1.812,4.354-2.834,6.479
				c-1.067,2.218-1.803,4.479-2.621,6.79c-1.322,3.742-3.484,7.059-6.199,9.935c-2.794,2.959-5.972,5.528-8.942,8.306
				c-1.377,1.287-2.652,2.675-4.015,3.977c-1.052,1.004-1.698,1.496-2.688,2.181c-1.132,0.783-2.317,1.489-3.534,2.13
				c-1.316,0.692-2.514,1.232-3.642,1.671c-2.652,1.028-5.413,1.788-8.228,2.203c-0.632,0.092,0.395-0.045-0.236,0.03
				c-0.191,0.022-0.381,0.044-0.572,0.063c-0.316,0.032-0.632,0.06-0.948,0.082c-0.682,0.047-1.367,0.069-2.051,0.063
				c-0.663-0.005-1.326-0.037-1.986-0.101c-0.118-0.012-0.235-0.024-0.353-0.037c-0.583-0.063,0.411,0.069-0.166-0.021
				c-0.341-0.053-0.682-0.112-1.02-0.183c-0.657-0.138-1.306-0.313-1.94-0.534c-0.155-0.055-0.308-0.112-0.462-0.17
				c-0.508-0.19,0.369,0.175-0.123-0.049c-0.292-0.133-0.582-0.272-0.865-0.425c-0.279-0.152-0.553-0.314-0.819-0.488
				c-0.132-0.087-0.261-0.179-0.392-0.269c-0.323-0.223,0.226,0.214-0.159-0.121c-0.504-0.438-0.971-0.89-1.403-1.399
				c-0.238-0.281-0.03-0.034,0.013,0.023c-0.131-0.175-0.256-0.353-0.375-0.535c-0.183-0.279-0.353-0.567-0.508-0.862
				c-0.066-0.126-0.13-0.252-0.192-0.381c-0.038-0.077-0.277-0.645-0.115-0.24c-0.135-0.336-0.253-0.679-0.359-1.024
				c-0.531-1.745-0.613-2.922-0.582-4.815C310.273,562.51,306.279,562.51,306.235,565.081L306.235,565.081z"/>
		</g>
		<g>
			<path fill="#222221" d="M361.042,557.793c1.706,6.771,9.182,7.407,15.003,7.115c2.721-0.135,5.424-0.384,8.147-0.447
				c3.413-0.08,6.779-1.206,9.861-2.602c3.199-1.45,6.355-3.464,8.521-6.277c2.271-2.95,2.316-6.46,2.046-10.03
				c-0.14-1.848-0.371-3.686-0.497-5.534c-0.144-2.11-0.04-4.236-0.083-6.352c-0.104-4.971-0.906-9.718-2.363-14.468
				c-0.835-2.721-1.793-5.4-2.764-8.073c-0.928-2.555-1.745-5.184-3.037-7.584c-2.183-4.06-5.581-7.288-7.973-11.215
				c-1.038-1.704-3.675-0.977-3.721,1.008c-0.289,12.153,8.227,21.721,10.742,33.182c0.552,2.51,4.402,1.447,3.853-1.062
				c-2.421-11.028-10.877-20.484-10.601-32.12c-1.242,0.337-2.482,0.672-3.723,1.008c2.005,3.292,4.687,6.067,6.808,9.271
				c2.407,3.636,3.622,7.981,5.05,12.065c1.499,4.29,2.989,8.699,3.462,13.24c0.418,4.032,0.083,8.086,0.436,12.116
				c0.278,3.188,1.052,7.051,0.297,10.01c-0.277,1.095-0.932,2.04-1.811,2.956c-1.028,1.071-2.193,1.938-3.456,2.715
				c-2.695,1.66-5.693,2.874-8.801,3.491c-2.091,0.415-4.87,0.318-7.282,0.499c-1.564,0.119-3.131,0.235-4.701,0.267
				c-1.414,0.028-3.243-0.035-4.299-0.218c-1.542-0.265-2.469-0.549-3.613-1.335c-0.284-0.195,0.327,0.301-0.105-0.083
				c-0.138-0.121-0.273-0.245-0.402-0.377c-0.086-0.089-0.169-0.18-0.25-0.272c-0.374-0.43,0.173,0.293-0.142-0.192
				c-0.474-0.731-0.534-0.906-0.75-1.765C364.266,554.24,360.413,555.296,361.042,557.793L361.042,557.793z"/>
		</g>
		<g>
			<path fill="#222221" d="M396.171,513.483c0.197-0.571,0.393-1.145,0.589-1.716c-1.112,0.294-2.226,0.587-3.338,0.881
				c2.959,3.775,6.007,7.48,8.99,11.235c2.695,3.391,5.226,6.89,7.815,10.359c2.424,3.248,4.988,6.411,7.859,9.276
				c2.656,2.653,5.648,5.217,9.071,6.824c4.714,2.214,10.13,3.166,15.263,3.762c5.554,0.646,11.38,0.664,16.814-0.796
				c5.787-1.555,10.84-5.181,12.522-11.155c0.698-2.479-3.154-3.536-3.851-1.062c-0.353,1.252-0.574,1.798-1.282,2.917
				c-0.536,0.85-1.038,1.439-1.979,2.268c-0.525,0.463-0.498,0.436-1.081,0.826c-0.476,0.319-0.972,0.61-1.479,0.877
				c-1.091,0.573-1.733,0.823-3.022,1.221c-4.926,1.519-10.14,1.55-15.42,1.041c-4.358-0.421-9.193-1.351-13.563-2.971
				c-3.136-1.163-5.855-3.4-8.251-5.679c-2.714-2.581-5.171-5.446-7.443-8.421c-2.842-3.723-5.539-7.544-8.442-11.221
				c-3.209-4.062-6.505-8.054-9.699-12.128c-1-1.276-2.904-0.379-3.337,0.882c-0.197,0.572-0.394,1.144-0.589,1.717
				c-0.351,1.02,0.4,2.184,1.395,2.457C394.811,515.18,395.819,514.507,396.171,513.483L396.171,513.483z"/>
		</g>
		<g>
			<path fill="#222221" d="M469.832,546.227c2.083-0.028,3.28,0.229,5.32,0.653c2.077,0.433,4.138,0.948,6.217,1.374
				c4.147,0.848,8.694,1.53,12.707-0.217c5.037-2.193,6.456-7.624,7.414-12.55c0.727-3.735,1.177-7.53,1.411-11.327
				c0.218-3.513,0.335-7.047-0.169-10.539c-0.868-6.015-4.062-11.397-6.813-16.712c-3.168-6.117-7.08-11.807-11.114-17.377
				c-7.887-10.889-16.387-21.584-20.977-34.383c-1.009-2.814-1.982-5.686-2.729-8.581c-0.475-1.842-0.844-3.709-1.363-5.54
				c-1.064-3.745-2.943-8.513-7.414-8.943c-1.046-0.101-2.12,0.109-3.094,0.488c-1.225,0.477-1.844,1.705-1.193,2.935
				c1.414,2.672,3.009,5.242,4.461,7.894c1.431,2.61,2.599,5.289,3.527,8.117c1.8,5.473,3.293,11.076,7.184,15.504
				c0.712,0.811,2.097,0.729,2.825,0c0.804-0.804,0.714-2.011,0-2.824c-3.606-4.104-4.742-9.626-6.463-14.656
				c-1.965-5.747-5.265-10.72-8.086-16.051c-0.397,0.978-0.795,1.955-1.192,2.935c0.437-0.171,0.89-0.325,1.356-0.389
				c-0.376,0.052,0.134,0.023,0.26,0.015c0.083-0.005,0.169,0.007,0.251,0.012c-0.27-0.015-0.188-0.055,0.03,0.015
				c0.176,0.058,0.354,0.095,0.526,0.161c-0.327-0.126-0.064-0.025,0.085,0.071c0.059,0.037,0.498,0.347,0.32,0.203
				c-0.154-0.123,0.252,0.245,0.341,0.337c0.138,0.143,0.268,0.292,0.391,0.445c-0.228-0.285,0.089,0.145,0.152,0.24
				c0.256,0.391,0.481,0.802,0.688,1.22c0.229,0.468,0.276,0.584,0.389,0.885c0.179,0.481,0.352,0.964,0.506,1.454
				c0.57,1.8,0.971,3.647,1.405,5.483c0.575,2.435,1.361,4.822,2.146,7.196c2.007,6.063,4.657,11.833,7.951,17.306
				c3.395,5.641,7.297,10.952,11.188,16.255c3.902,5.319,7.816,10.647,11.225,16.304c1.699,2.819,3.188,5.741,4.698,8.665
				c1.248,2.413,2.548,4.825,3.453,7.395c2.107,5.987,1.565,12.577,0.886,18.78c-0.375,3.429-0.962,6.862-1.872,10.191
				c-0.55,2.017-1.348,3.636-2.83,4.906c-0.242,0.208,0.108-0.042-0.26,0.193c-0.153,0.098-0.306,0.2-0.463,0.293
				c-0.182,0.108-0.369,0.206-0.559,0.302c-0.107,0.054-0.219,0.105-0.329,0.153c0.187-0.08,0.125-0.053-0.029,0.002
				c-0.403,0.144-0.812,0.268-1.229,0.364c-0.213,0.048-0.426,0.086-0.64,0.126c-0.443,0.083,0.049,0.019-0.41,0.053
				c-0.924,0.068-1.842,0.086-2.768,0.03c-0.481-0.028-0.962-0.077-1.442-0.129c-0.104-0.011-0.208-0.024-0.312-0.038
				c0.293,0.037-0.06-0.008-0.099-0.014c-0.282-0.041-0.563-0.084-0.845-0.131c-4.063-0.678-8.018-1.907-12.114-2.4
				c-0.833-0.101-1.667-0.159-2.507-0.148C467.265,542.268,467.258,546.262,469.832,546.227L469.832,546.227z"/>
		</g>
		<g>
			<path fill="#222221" d="M506.322,527.981c2.57,0,2.575-3.994,0-3.994C503.753,523.987,503.749,527.981,506.322,527.981
				L506.322,527.981z"/>
		</g>
		<g>
			<path fill="#222221" d="M505.314,527.709c5.77,2.868,11.093,6.658,17.185,8.861c2.53,0.915,5.434,1.571,8.094,0.833
				c2.909-0.808,4.726-3.245,5.586-6.031c0.596-1.933,0.781-4.018,0.822-6.029c0.059-2.968-0.008-5.939-0.022-8.907
				c-0.016-3.08,0.136-6.196-0.066-9.271c-0.167-2.54-0.645-5.042-1.209-7.52c-0.598-2.618-1.268-5.237-1.481-7.921
				c-0.238-3.007-0.183-6.021-0.636-9.013c-0.445-2.944-1.438-5.813-2.266-8.669c-0.844-2.903-1.756-5.81-2.432-8.758
				c-0.622-2.726-0.922-5.515-1.477-8.254c-0.529-2.609-1.245-5.248-3.003-7.313c-1.401-1.646-3.316-2.797-5.082-4.009
				c-0.828-0.569-1.404-0.968-2.111-1.677c-0.664-0.664-0.958-1.15-1.147-1.985c-0.568-2.507-4.42-1.446-3.853,1.062
				c0.885,3.904,4.79,5.621,7.678,7.842c1.278,0.982,2.214,2.065,2.765,3.675c0.777,2.27,1.144,4.664,1.526,7.024
				c0.892,5.488,2.512,10.75,4.044,16.085c0.771,2.688,1.513,5.3,1.703,8.102c0.198,2.896,0.178,5.793,0.62,8.67
				c0.759,4.92,2.402,9.606,2.436,14.63c0.021,2.96-0.012,5.922,0.005,8.883c0.017,2.811,0.132,5.646-0.028,8.454
				c-0.092,1.604-0.296,3.159-0.953,4.727c0.155-0.371-0.186,0.355-0.243,0.459c-0.142,0.255-0.3,0.497-0.468,0.736
				c-0.175,0.248,0.317-0.338-0.013,0.006c-0.101,0.104-0.193,0.214-0.296,0.316c-0.101,0.1-0.207,0.191-0.313,0.285
				c-0.341,0.308,0.353-0.218-0.032,0.021c-0.232,0.144-0.463,0.274-0.705,0.401c-0.395,0.208,0.316-0.104,0.043-0.02
				c-0.108,0.033-0.214,0.075-0.321,0.108c-0.266,0.08-0.535,0.133-0.806,0.185c0.585-0.112-0.291,0.015-0.468,0.02
				c-0.274,0.008-0.549,0.001-0.822-0.017c-0.144-0.008-1.007-0.122-0.483-0.038c-0.666-0.107-1.322-0.255-1.973-0.44
				c-3.163-0.902-5.864-2.37-8.922-4.063c-2.95-1.634-5.837-3.396-8.858-4.899C505.036,523.119,503.011,526.563,505.314,527.709
				L505.314,527.709z"/>
		</g>
		<g>
			<path fill="#222221" d="M350.467,323.362c-0.844-0.179-1.5-0.493-2.09-1.028c-0.726-0.658-1.219-1.338-1.725-2.181
				c-1.033-1.725-1.696-3.485-2.454-5.298c-1.817-4.343-4.889-8.493-5.565-13.236c-0.275-1.931,0.225-3.51,1.15-5.225
				c1.1-2.04,2.51-3.895,4.038-5.63c2.895-3.29,6.271-6.66,10.635-7.8c5.065-1.324,9.832,0.793,13.799,3.837
				c4.306,3.303,7.953,7.417,11.393,11.588c3.752,4.549,7.3,9.273,11.338,13.58c3.705,3.951,7.79,7.599,12.813,9.765
				c2.197,0.948,4.464,1.673,6.769,2.313c2.442,0.677,4.849,1.125,6.976,2.573c2.062,1.404,3.884,2.973,6.217,3.93
				c1.987,0.816,4.114,1.326,6.029,2.313c0.899,0.464,1.528,0.887,2.142,1.659c0.673,0.845,2.123,0.702,2.824,0
				c0.835-0.835,0.674-1.978,0-2.825c-1.508-1.896-3.958-2.834-6.165-3.631c-2.244-0.811-4.244-1.428-6.192-2.815
				c-2.275-1.62-4.329-3.303-7.08-4.057c-2.49-0.684-5.002-1.303-7.447-2.139c-5.183-1.773-9.277-4.972-13.063-8.866
				c-4.33-4.452-8.064-9.42-11.997-14.213c-3.707-4.518-7.629-8.856-12.281-12.425c-4.604-3.532-9.944-5.686-15.823-4.715
				c-5.111,0.844-9.211,4.281-12.651,7.944c-3.259,3.472-6.989,7.893-7.449,12.832c-0.487,5.233,2.814,10.269,5.019,14.764
				c0.918,1.873,1.591,3.818,2.571,5.886c1.008,2.126,2.302,4.167,4.21,5.591c0.888,0.662,1.915,1.135,3,1.364
				C351.913,327.743,352.984,323.894,350.467,323.362L350.467,323.362z"/>
		</g>
		<g>
			<path fill="#222221" d="M381.213,298.614c3.935,0,7.868-0.002,11.803-0.003c3.89,0,7.805-0.131,11.689,0.075
				c3.434,0.183,6.822,0.729,10.215,1.272c3.512,0.562,7.011,0.953,10.551,1.275c4.992,0.455,9.909,2.146,13.385,5.873
				c1.774,1.904,3.02,4.224,4.022,6.611c0.458,1.091,0.853,2.218,1.139,3.367c0.275,1.107,0.335,1.386,0.329,2.454
				c-0.002,0.261-0.017,0.518-0.04,0.778c0.038-0.423-0.022,0.128-0.059,0.288c-0.047,0.21-0.108,0.416-0.171,0.622
				c-0.156,0.519,0.08-0.04-0.131,0.331c-0.106,0.185-0.2,0.374-0.314,0.553c-0.06,0.091-0.121,0.179-0.182,0.267
				c-0.166,0.239,0.309-0.333-0.042,0.046c-0.313,0.34-0.631,0.667-0.996,0.954c0.282-0.223-0.261,0.173-0.352,0.232
				c-0.25,0.163-0.509,0.313-0.771,0.457c-0.563,0.306-0.947,0.479-1.436,0.665c-1.438,0.546-2.933,0.924-4.437,1.239
				c-1.056,0.222-1.667,1.463-1.395,2.457c0.301,1.095,1.397,1.617,2.457,1.395c4.525-0.95,10.011-2.755,11.497-7.686
				c0.639-2.117,0.357-4.438-0.218-6.533c-0.756-2.748-1.973-5.526-3.488-7.938c-3.172-5.047-8.179-8.338-13.95-9.676
				c-3.349-0.776-6.789-0.812-10.186-1.255c-3.709-0.484-7.385-1.196-11.101-1.65c-4.54-0.555-9.093-0.464-13.658-0.464
				c-4.72,0-9.441,0.002-14.163,0.003C378.644,294.62,378.639,298.614,381.213,298.614L381.213,298.614z"/>
		</g>
		<g>
			<path fill="#222221" d="M430.735,335.104c7.293,0.583,14.721,0.385,21.86-1.333c7.508-1.807,14.08-5.81,20.738-9.569
				c6.748-3.81,13.666-7.268,20.282-11.313c3.243-1.984,6.449-4.031,9.666-6.06c3.316-2.091,6.796-3.992,10.044-6.181
				c2.817-1.898,5.121-4.347,7.159-7.043c2.172-2.873,3.743-6.107,5.647-9.156c3.866-6.188,8.313-11.981,12.619-17.862
				c2.186-2.985,4.219-6.033,6.796-8.702c2.456-2.544,5.105-4.935,7.169-7.828c1.023-1.434,1.873-2.994,2.904-4.43
				c0.991-1.381,2.046-2.712,3.13-4.021c2.23-2.692,4.566-5.295,6.744-8.031c2.196-2.761,4.247-5.589,6.666-8.168
				c2.361-2.516,4.903-4.855,7.533-7.087c2.666-2.265,5.421-4.424,8.176-6.582c2.868-2.248,5.747-4.429,8.326-7.007
				c1.283-1.282,2.566-2.564,3.851-3.846c1.823-1.817-1-4.642-2.823-2.824c-2.577,2.569-5.06,5.221-7.907,7.488
				c-2.754,2.194-5.545,4.341-8.296,6.539c-5.335,4.263-10.505,8.77-14.824,14.086c-2.256,2.778-4.36,5.658-6.684,8.384
				c-2.262,2.653-4.543,5.287-6.629,8.082c-1.049,1.404-2.041,2.851-2.951,4.348c-0.896,1.471-2.013,2.747-3.194,3.996
				c-2.375,2.511-4.948,4.827-7.069,7.569c-2.342,3.027-4.501,6.21-6.774,9.29c-2.143,2.902-4.289,5.802-6.35,8.763
				c-2.039,2.93-3.991,5.922-5.777,9.014c-0.882,1.526-1.672,3.086-2.686,4.53c-0.907,1.295-1.876,2.541-2.954,3.7
				c-1.078,1.159-2.25,2.244-3.544,3.158c-1.55,1.095-3.265,1.991-4.882,2.982c-3.237,1.984-6.439,4.026-9.651,6.052
				c-3.166,1.997-6.343,3.977-9.573,5.865c-3.395,1.984-6.889,3.758-10.349,5.622c-3.341,1.799-6.626,3.697-9.938,5.55
				c-3.319,1.856-6.658,3.839-10.227,5.181c-6.71,2.523-13.895,3.296-21.025,3.128c-1.736-0.041-3.471-0.14-5.204-0.279
				c-1.075-0.086-1.997,0.98-1.997,1.998C428.738,334.26,429.656,335.018,430.735,335.104L430.735,335.104z"/>
		</g>
		<g>
			<path fill="#222221" d="M504.325,296.617c-0.064,0.572-0.13,1.145-0.195,1.716c-0.22,1.945,2.911,2.757,3.723,1.008
				c1.283-2.768,2.958-4.712,5.09-6.854c2.105-2.113,4.376-4.052,6.489-6.155c-0.941-0.942-1.883-1.883-2.824-2.825
				c-1.292,1.292-2.585,2.585-3.877,3.877c-0.763,0.763-0.763,2.062,0,2.825c0.765,0.765,2.059,0.765,2.824,0
				c1.292-1.292,2.585-2.585,3.877-3.877c0.763-0.763,0.763-2.062,0-2.825c-0.767-0.766-2.058-0.763-2.824,0
				c-4.33,4.31-9.569,8.133-12.204,13.817c1.24,0.335,2.48,0.672,3.722,1.008c0.065-0.572,0.13-1.145,0.194-1.716
				c0.122-1.073-1.005-1.997-1.997-1.997C505.142,294.62,504.447,295.541,504.325,296.617L504.325,296.617z"/>
		</g>
		<g>
			<path fill="#222221" d="M512.066,293.33c2.627-0.447,5.16-1.536,7.406-2.952c0.723-0.456,1.195-1.4,0.918-2.255
				c-0.256-0.79-1.035-1.542-1.926-1.466c-0.572,0.048-1.145,0.096-1.717,0.144c-0.537,0.045-1.019,0.192-1.412,0.585
				c-0.347,0.346-0.606,0.915-0.585,1.413c0.045,1.007,0.883,2.09,1.997,1.997c0.572-0.048,1.145-0.096,1.717-0.144
				c-0.336-1.24-0.672-2.481-1.008-3.721c-0.521,0.327-1.05,0.636-1.596,0.918c-0.293,0.152-0.589,0.297-0.888,0.435
				c-0.111,0.052-0.226,0.101-0.338,0.152c-0.196,0.084-0.151,0.066,0.136-0.056c-0.076,0.032-0.152,0.063-0.229,0.093
				c-1.141,0.457-2.325,0.799-3.537,1.005c-0.465,0.079-0.965,0.527-1.193,0.917c-0.251,0.429-0.357,1.059-0.201,1.54
				C509.971,293.049,510.959,293.518,512.066,293.33L512.066,293.33z"/>
		</g>
		<g>
			<path fill="#222221" d="M528.587,467.448c11.969-11.49,26.56-19.7,41.439-26.801c4.661-2.225,9.369-4.347,14.086-6.446
				c0.985-0.438,1.218-1.875,0.717-2.732c-0.595-1.015-1.743-1.156-2.732-0.717c-15.718,6.997-31.509,14.308-45.367,24.638
				c-3.835,2.859-7.515,5.92-10.968,9.234C523.904,466.407,526.731,469.23,528.587,467.448L528.587,467.448z"/>
		</g>
		<g>
			<path fill="#222221" d="M210.382,269.358c10.696,12.773,23.453,23.688,37.431,32.724c6.947,4.492,14.19,8.52,21.624,12.146
				c7.743,3.777,15.728,6.945,23.678,10.25c9.616,3.996,19.324,8.174,29.614,10.093c2.3,0.429,3.347-2.288,1.539-3.651
				c-3.506-2.641-7.891-1.813-11.834-3.167c-2.073-0.712-3.984-1.824-5.989-2.7c-2.128-0.931-4.36-1.539-6.56-2.269
				c-8.256-2.742-16.224-6.235-23.89-10.344c-8.004-4.289-15.715-9.161-23.4-13.994c-7.703-4.843-15.307-9.854-22.67-15.202
				c-8.235-5.982-16.141-12.417-23.504-19.45c-0.471,1.136-0.942,2.273-1.413,3.409c0.524,0.045,1.048,0.089,1.572,0.134
				c1.076,0.092,1.997-0.983,1.997-1.997c0-1.157-0.918-1.905-1.997-1.997c-0.524-0.045-1.048-0.09-1.572-0.135
				c-1.75-0.15-2.602,2.272-1.412,3.41c13.285,12.688,28.31,23.383,43.769,33.243c15.203,9.696,30.572,19.264,47.602,25.437
				c2.408,0.873,4.839,1.675,7.286,2.433c2.34,0.725,4.456,1.899,6.686,2.891c2.344,1.042,4.63,1.639,7.179,1.909
				c2.232,0.236,4.286,0.446,6.135,1.839c0.513-1.217,1.026-2.434,1.539-3.65c-9.09-1.695-17.737-5.173-26.246-8.694
				c-7.848-3.248-15.759-6.345-23.442-9.974c-14.719-6.951-28.79-15.445-41.283-25.917c-7.096-5.947-13.67-12.501-19.614-19.599
				c-0.693-0.828-2.109-0.716-2.824,0C209.563,267.353,209.687,268.529,210.382,269.358L210.382,269.358z"/>
		</g>
		<g>
			<path fill="#222221" d="M175.435,432.225c5.486,4.825,12.563,6.516,18.795,10.055c3.228,1.833,5.719,4.482,8.617,6.75
				c3.07,2.404,6.585,3.747,10.089,5.371c3.97,1.839,7.904,3.949,12.422,3.136c1.062-0.191,1.662-1.484,1.395-2.456
				c-0.307-1.119-1.392-1.587-2.457-1.395c-3.305,0.594-6.625-1.485-9.499-2.806c-3.21-1.475-6.588-2.679-9.394-4.885
				c-2.807-2.208-5.25-4.806-8.322-6.674c-2.885-1.755-6.027-3.011-9.119-4.344c-3.43-1.479-6.875-3.09-9.703-5.577
				c-0.81-0.711-2.027-0.797-2.825,0C174.708,430.127,174.621,431.51,175.435,432.225L175.435,432.225z"/>
		</g>
		<g>
			<path fill="#222221" d="M232.646,453.613c-5.888,0.756-11.666,2.521-17.656,1.97c0.336,0.091,0.672,0.182,1.008,0.272
				c-13.777-6.918-25.874-16.612-37.77-26.303c-0.835-0.682-2.007-0.818-2.824,0c-0.703,0.702-0.841,2.139,0,2.824
				c6.716,5.471,13.466,10.916,20.54,15.923c3.486,2.469,7.052,4.826,10.727,7.004c1.769,1.048,3.561,2.056,5.381,3.011
				c1.003,0.527,1.986,1.166,3.127,1.28c1.115,0.111,2.242,0.128,3.361,0.09c4.776-0.164,9.387-1.472,14.105-2.077
				c1.069-0.137,1.997-0.82,1.997-1.997C234.643,454.638,233.723,453.475,232.646,453.613L232.646,453.613z"/>
		</g>
		<g>
			<path fill="#222221" d="M315.372,457.686c-0.699-2.86-2.815-4.955-5.055-6.717c-2.194-1.727-4.264-3.514-6.325-5.397
				c-1.938-1.772-4.009-3.603-6.549-4.436c-2.663-0.875-5.378-0.086-7.55,1.566c-4.095,3.116-6.605,8.274-8.412,12.972
				c-0.746,1.938-1.521,4.198-1.317,6.307c0.247,2.545,1.57,4.786,3.307,6.61c1.939,2.036,4.361,3.603,6.733,5.082
				c2.141,1.335,4.522,2.662,6.191,4.2c1.888,1.741,4.719-1.075,2.824-2.823c-3.211-2.962-7.324-4.722-10.777-7.364
				c-1.552-1.188-2.961-2.537-3.808-4.262c-0.117-0.236-0.259-0.624-0.373-1.065c-0.028-0.108-0.151-0.773-0.104-0.378
				c-0.022-0.183-0.027-0.367-0.026-0.551c0-0.204,0.016-0.405,0.031-0.608c0.029-0.371-0.04,0.16,0.032-0.227
				c0.091-0.49,0.201-0.975,0.333-1.457c0.585-2.117,1.48-4.138,2.483-6.087c0.51-0.992,1.054-1.967,1.639-2.916
				c0.249-0.403,0.504-0.802,0.771-1.193c0.112-0.164,0.227-0.327,0.341-0.489c0.072-0.101,0.146-0.2,0.221-0.3
				c-0.112,0.147-0.103,0.125,0.007-0.008c0.797-0.966,1.696-1.917,2.758-2.593c0.859-0.547,1.634-0.819,2.474-0.798
				c0.705,0.019,1.478,0.309,2.226,0.733c0.93,0.528,1.763,1.183,2.569,1.881c2.203,1.906,4.252,3.949,6.566,5.726
				c1.957,1.503,4.318,3.128,4.935,5.654C312.129,461.244,315.982,460.187,315.372,457.686L315.372,457.686z"/>
		</g>
		<g>
			<path fill="#222221" d="M342.116,482.284c-0.115-0.005-0.768-0.105-0.292-0.013c-0.219-0.043-0.436-0.089-0.65-0.148
				c-0.19-0.054-0.375-0.12-0.563-0.183c-0.055-0.02-0.387-0.158-0.16-0.06c0.237,0.101-0.242-0.121-0.236-0.118
				c-0.403-0.206-0.794-0.429-1.174-0.674c-0.184-0.119-0.363-0.242-0.542-0.368c-0.104-0.073-0.206-0.148-0.308-0.223
				c-0.493-0.36,0.147,0.12-0.132-0.1c-1.678-1.322-3.175-2.855-4.747-4.298c-2.974-2.729-6.876-5.784-11.172-4.287
				c-4.495,1.566-7.417,6.345-8.215,10.847c-0.794,4.475-0.104,9.337,2.321,13.231c1.271,2.043,3.049,3.864,5.224,4.938
				c2.577,1.271,5.336,1.498,8.145,1.017c1.063-0.183,1.66-1.49,1.395-2.456c-0.31-1.126-1.39-1.578-2.458-1.396
				c-0.428,0.074-0.685,0.103-1.251,0.121c-0.522,0.018-1.048,0.002-1.567-0.062c-0.341-0.039,0.266,0.048-0.067-0.014
				c-0.098-0.017-0.196-0.032-0.293-0.055c-0.224-0.05-0.447-0.099-0.667-0.16c-0.218-0.061-0.432-0.13-0.645-0.202
				c-0.121-0.042-0.241-0.088-0.358-0.136c0.194,0.08,0.077,0.033-0.046-0.025c-0.397-0.19-0.782-0.4-1.153-0.638
				c-0.184-0.119-0.364-0.244-0.54-0.375c-0.183-0.136,0.002,0.002,0.033,0.026c-0.122-0.099-0.241-0.201-0.358-0.304
				c-0.723-0.64-1.253-1.265-1.627-1.81c-1.147-1.676-1.662-2.995-2.094-4.987c-0.226-1.043-0.279-1.463-0.318-2.612
				c-0.017-0.479-0.013-0.96,0.01-1.438c0.011-0.238,0.028-0.478,0.049-0.717c0.009-0.103,0.099-0.8,0.051-0.484
				c0.146-0.97,0.381-1.928,0.708-2.852c0.202-0.569,0.183-0.522,0.418-1.005c0.219-0.449,0.463-0.887,0.731-1.308
				c0.48-0.751,1.002-1.373,1.839-2.129c0.379-0.341,0.467-0.416,0.911-0.696c0.223-0.141,0.453-0.265,0.686-0.386
				c0.017-0.008,0.3-0.133,0.101-0.051c-0.209,0.088,0.272-0.091,0.267-0.089c0.166-0.05,0.331-0.095,0.5-0.136
				c0.108-0.025,0.221-0.046,0.331-0.063c-0.082,0.014-0.407,0.022-0.039,0.018c0.163-0.002,0.325-0.012,0.487-0.008
				c0.16,0.005,0.708,0.099,0.273,0.012c0.379,0.075,0.741,0.18,1.108,0.299c0.313,0.101-0.183-0.11,0.225,0.092
				c0.235,0.115,0.469,0.231,0.697,0.361c0.342,0.192,0.673,0.406,0.997,0.63c0.514,0.354,0.549,0.386,0.885,0.665
				c0.75,0.618,1.469,1.269,2.179,1.932c3.137,2.931,6.514,6.655,11.103,6.868C344.686,486.396,344.68,482.402,342.116,482.284
				L342.116,482.284z"/>
		</g>
		<g>
			<path fill="#222221" d="M359.681,505.664c0.535-1.981,0.465-4.131-0.609-5.928c-1.003-1.678-2.647-2.771-4.444-3.446
				c-3.468-1.306-7.932-0.909-11.049,1.126c-3.441,2.246-4.202,5.929-4.504,9.769c-0.348,4.418-0.041,8.979,0.897,13.309
				c0.806,3.72,2.516,9.116,6.826,10.023c1.055,0.223,2.159-0.31,2.457-1.395c0.272-0.992-0.334-2.233-1.395-2.457
				c-0.127-0.026-0.252-0.06-0.377-0.095c-0.083-0.022-0.164-0.056-0.245-0.084c0.002,0,0.366,0.179,0.179,0.068
				c-0.177-0.103-0.816-0.561-0.438-0.234c-0.237-0.205-0.457-0.418-0.667-0.651c-0.049-0.054-0.324-0.406-0.179-0.212
				c0.129,0.175-0.187-0.282-0.252-0.385c-0.921-1.446-1.238-2.446-1.708-4.194c-1.006-3.737-1.3-7.378-1.218-11.343
				c0.018-0.881,0.061-1.763,0.137-2.64c0.036-0.404,0.078-0.805,0.128-1.207c-0.045,0.352,0.004-0.025,0.026-0.165
				c0.031-0.192,0.062-0.385,0.097-0.576c0.118-0.645,0.28-1.271,0.471-1.897c0.043-0.141,0.166-0.408,0.033-0.118
				c0.071-0.154,0.147-0.306,0.229-0.453c0.082-0.146,0.176-0.284,0.264-0.426c0.191-0.31,0.035-0.064-0.017,0
				c0.068-0.086,0.14-0.172,0.214-0.253c0.226-0.248,0.464-0.476,0.716-0.696c0.243-0.214-0.176,0.092,0.199-0.145
				c0.167-0.105,0.331-0.218,0.503-0.317c0.147-0.086,0.299-0.168,0.452-0.245c0.066-0.033,0.571-0.26,0.393-0.186
				c-0.182,0.072,0.258-0.092,0.333-0.118c0.194-0.066,0.391-0.128,0.589-0.184c0.372-0.105,0.749-0.18,1.128-0.253
				c0.088-0.017,0.177-0.029,0.265-0.042c-0.031,0.004-0.324,0.038-0.088,0.015c0.238-0.024,0.475-0.046,0.713-0.056
				c0.356-0.019,0.713-0.021,1.07-0.006c0.206,0.009,0.412,0.024,0.618,0.042c0.087,0.008,0.174,0.018,0.262,0.028
				c0.311,0.036-0.318-0.055-0.012,0.002c0.422,0.078,0.841,0.164,1.252,0.288c0.188,0.056,0.371,0.122,0.556,0.185
				c0.436,0.146-0.128-0.096,0.278,0.119c0.33,0.174,0.645,0.357,0.96,0.556c0.375,0.236-0.105-0.149,0.201,0.163
				c0.123,0.126,0.255,0.244,0.379,0.371c0.053,0.053,0.099,0.112,0.149,0.168c0.186,0.204-0.189-0.279-0.037-0.049
				c0.109,0.166,0.204,0.344,0.315,0.508c0.242,0.358-0.018-0.151,0.077,0.144c0.063,0.198,0.122,0.393,0.172,0.595
				c0.02,0.077,0.031,0.156,0.045,0.234c0.055,0.284-0.023-0.346-0.012-0.047c0.007,0.198,0.019,0.394,0.013,0.592
				c-0.003,0.125-0.092,0.752-0.023,0.37c-0.047,0.259-0.108,0.513-0.176,0.766C355.158,507.087,359.01,508.146,359.681,505.664
				L359.681,505.664z"/>
		</g>
		<g>
			<path fill="#222221" d="M584.807,430.964c-4.827-9.306-10.027-18.601-17.182-26.349c-3.395-3.676-7.69-6.748-10.266-11.111
				c-2.528-4.286-3.452-9.336-5.337-13.909c-4.019-9.746-10.314-18.118-15.876-26.991c-2.927-4.669-5.124-9.691-7.564-14.615
				c-2.312-4.662-5.327-8.864-8.464-12.996c-3.596-4.734-6.776-9.73-9.171-15.182c-2.277-5.189-4.506-10.406-8.425-14.606
				c-1.758-1.884-4.578,0.945-2.825,2.825c3.345,3.584,5.325,8.125,7.263,12.564c2.111,4.839,4.628,9.373,7.693,13.678
				c3.015,4.235,6.301,8.235,8.892,12.762c2.725,4.759,4.732,9.892,7.425,14.674c2.573,4.569,5.649,8.849,8.504,13.244
				c2.781,4.282,5.45,8.655,7.62,13.285c2.163,4.615,3.321,9.572,5.314,14.247c2.072,4.866,5.688,8.381,9.441,11.982
				c8.42,8.079,14.18,18.242,19.507,28.515C582.54,435.262,585.989,433.245,584.807,430.964L584.807,430.964z"/>
		</g>
		<g>
			<path fill="#222221" d="M587.384,436.047c-0.565-1.137-1.137-2.271-1.715-3.402c-0.22-0.432-0.737-0.793-1.192-0.919
				c-0.478-0.131-1.114-0.07-1.539,0.202c-0.427,0.275-0.802,0.685-0.918,1.194c-0.123,0.54-0.052,1.042,0.201,1.538
				c0.577,1.132,1.148,2.267,1.714,3.403c0.214,0.431,0.742,0.793,1.193,0.918c0.479,0.131,1.115,0.072,1.539-0.201
				c0.427-0.275,0.803-0.685,0.918-1.193c0.024-0.177,0.048-0.354,0.071-0.531C587.655,436.695,587.564,436.359,587.384,436.047
				L587.384,436.047z"/>
		</g>
		<g>
			<path fill="#222221" d="M590.15,447.706c2.831,5.28,8.19,12.926,15.245,10.52c2.054-0.701,3.718-2.127,5.486-3.334
				c1.93-1.316,3.891-2.585,5.881-3.809c3.915-2.41,7.936-4.647,12.02-6.758c8.108-4.19,16.46-7.883,24.798-11.589
				c4.216-1.875,8.43-3.754,12.612-5.702c2.001-0.932,3.971-2.009,6.03-2.803c2.057-0.794,4.166-1.441,6.303-1.985
				c4.794-1.222,9.736-1.805,14.521-3.05c1.063-0.277,2.023-0.9,3.036-1.327c0.551-0.232,1.122-0.407,1.68-0.621
				c0.656-0.254,1.212-0.691,1.794-1.079c1.207-0.805,2.412-1.608,3.618-2.413c0.218-0.145,0.446-0.284,0.659-0.438
				c0.339-0.374,0.47-0.468,0.391-0.281c-0.003,0.009-0.008,0.017-0.013,0.024c0.228-0.08,0.543-0.065,0.911-0.019
				c0-1.331,0-2.663,0-3.993c-1.71,0.014-3.468-0.012-5.16,0.276c-1.756,0.297-2.781,2.403-1.18,3.673
				c0.76,0.603,1.877,0.554,2.801,0.52c1.365-0.051,2.739-0.242,4.069-0.546c2.226-0.509,1.692-3.906-0.53-3.923
				c-9.145-0.071-17.734,2.945-26.202,6.074c-8.518,3.148-16.873,6.732-25.051,10.677c-4.021,1.94-7.831,4.13-11.603,6.517
				c-3.653,2.313-7.256,4.705-10.938,6.97c-1.884,1.158-3.788,2.283-5.728,3.349c-1.81,0.996-3.717,2.21-5.718,2.757
				c-4.238,1.156-8.813,1.02-12.908,2.712c-1.863,0.77-3.553,1.842-5.352,2.737c-1.422,0.709-3.361,1.464-4.943,0.956
				c-3.377-1.088-4.764-5.255-5.691-8.287c-0.751-2.45-4.607-1.404-3.853,1.063c1.049,3.421,2.451,7.057,5.339,9.35
				c1.588,1.261,3.407,2.056,5.462,1.99c1.932-0.062,3.728-0.666,5.453-1.498c1.605-0.775,3.101-1.771,4.732-2.49
				c1.979-0.872,4.229-1.188,6.351-1.516c2.222-0.345,4.471-0.602,6.641-1.213c2.164-0.609,4.222-1.865,6.187-2.938
				c7.887-4.301,15.161-9.611,22.926-14.116c4.018-2.329,8.346-4.212,12.575-6.122c4.133-1.866,8.312-3.629,12.536-5.279
				c4.833-1.888,9.721-3.7,14.677-5.243c4.918-1.529,9.944-2.494,15.108-2.455c-0.177-1.307-0.354-2.615-0.531-3.923
				c-0.264,0.061-0.527,0.117-0.793,0.168c-0.162,0.029-0.324,0.055-0.487,0.083c-0.036,0.006-0.423,0.062-0.208,0.033
				c0.121-0.016-0.412,0.044-0.551,0.057c-0.246,0.022-0.495,0.041-0.743,0.054c-0.355,0.018-0.714,0.027-1.069,0.016
				c-0.128-0.005-0.3-0.052-0.422-0.026c-0.158,0.031,0.45,0.072,0.336,0.043c-0.557-0.145,0.815,0.374,1.04,0.848
				c0.067,0.514,0.135,1.027,0.201,1.54c0.002-0.005,0.003-0.01,0.004-0.014c-0.171,0.293-0.343,0.587-0.515,0.881
				c-0.117,0.125-1.161,0.657-0.464,0.391c-0.512,0.196-0.257,0.026-0.04,0.011c0.203-0.016,0.404-0.036,0.605-0.05
				c1.211-0.084,2.424-0.1,3.637-0.11c1.079-0.009,1.997-0.911,1.997-1.996c0-1.196-0.923-1.857-1.997-1.997
				c-2.102-0.275-3.646,1.047-5.279,2.135c-0.987,0.659-1.974,1.318-2.961,1.975c-0.925,0.614-2.049,0.92-3.066,1.371
				c-0.729,0.324-1.412,0.746-2.195,0.896c-1.191,0.23-2.375,0.513-3.564,0.75c-2.096,0.42-4.199,0.809-6.293,1.241
				c-4.278,0.883-8.62,1.942-12.595,3.8c-4.097,1.913-8.179,3.853-12.304,5.704c-16.287,7.313-32.856,14.245-47.692,24.313
				c-1.72,1.168-3.48,2.901-5.568,3.345c-1.283,0.272-2.57-0.167-3.808-0.981c-2.744-1.807-4.656-5.03-6.198-7.907
				C592.385,443.424,588.935,445.438,590.15,447.706L590.15,447.706z"/>
		</g>
		<g>
			<path fill="#222221" d="M504.91,308.455c3.308,3.354,7.017,6.316,10.085,9.903c3.027,3.539,5.269,7.71,7.437,11.807
				c2.317,4.38,4.478,8.84,6.731,13.252c2.272,4.449,4.732,8.769,7.272,13.069c10.305,17.448,20.018,35.233,29.99,52.871
				c5.532,9.784,11.34,19.412,17.475,28.831c1.397,2.146,4.856,0.146,3.449-2.016c-11.084-17.021-20.823-34.82-30.755-52.523
				c-4.975-8.865-9.982-17.713-15.124-26.482c-2.537-4.328-5.129-8.614-7.46-13.059c-2.3-4.387-4.457-8.847-6.721-13.252
				c-2.472-4.811-5.002-9.646-8.337-13.928c-3.279-4.208-7.489-7.516-11.218-11.298C505.928,303.798,503.104,306.622,504.91,308.455
				L504.91,308.455z"/>
		</g>
		<g>
			<path fill="#222221" d="M582.59,436.835c-0.713,2.822,0.296,5.398,1.882,7.716c0.705,1.029,1.473,2.02,2.123,3.088
				c0.155,0.254,0.305,0.513,0.442,0.776c0.063,0.119,0.124,0.238,0.183,0.36c0.077,0.159,0.188,0.435,0.061,0.113
				c0.119,0.299,0.227,0.604,0.311,0.914c0.043,0.157,0.081,0.315,0.113,0.475c0.021,0.108,0.083,0.603,0.028,0.12
				c0.12,1.034,0.832,2.05,1.997,1.997c0.979-0.044,2.126-0.886,1.997-1.997c-0.324-2.792-1.753-4.963-3.343-7.202
				c-0.666-0.938-1.315-1.892-1.786-2.947c0.208,0.468,0.012,0.002-0.016-0.079c-0.049-0.141-0.093-0.284-0.131-0.427
				c-0.033-0.119-0.059-0.241-0.086-0.361c-0.062-0.258-0.032-0.229-0.012,0.017c-0.025-0.305-0.041-0.606-0.024-0.912
				c0.007-0.126,0.109-0.573,0.005-0.102c0.035-0.163,0.067-0.326,0.108-0.487c0.255-1.012-0.328-2.214-1.396-2.456
				C584.01,435.203,582.864,435.751,582.59,436.835L582.59,436.835z"/>
		</g>
		<g>
			<path fill="#222221" d="M178.19,429.348c14.543-14.304,29.91-27.904,42.662-43.903c3.226-4.047,6.313-8.219,9.136-12.558
				c2.935-4.51,5.408-9.25,7.797-14.065c2.289-4.611,4.592-9.18,7.619-13.362c2.867-3.961,6.17-7.583,9.384-11.26
				c6.931-7.932,14.965-18.15,10.667-29.311c-0.506-1.313-1.666-1.731-2.934-1.193c-1.402,0.595-2.867,1.049-4.342,1.422
				c-2.49,0.629-1.435,4.483,1.063,3.852c1.823-0.461,3.566-1.091,5.296-1.825c-0.978-0.398-1.956-0.796-2.934-1.193
				c3.552,9.224-2.961,17.721-8.71,24.356c-3.2,3.694-6.49,7.311-9.475,11.185c-3.117,4.048-5.611,8.38-7.898,12.939
				c-2.333,4.652-4.585,9.34-7.304,13.786c-2.654,4.34-5.605,8.507-8.716,12.532c-6.064,7.85-12.833,15.131-19.824,22.156
				c-7.97,8.009-16.254,15.697-24.31,23.619C173.53,428.329,176.354,431.152,178.19,429.348L178.19,429.348z"/>
		</g>
		<g>
			<path fill="#222221" d="M258.71,311.646c-0.507-0.059-0.057,0.027,0.051,0.054c-0.588-0.145,0.045,0.099-0.225-0.096
				c-0.313-0.226,0.238,0.365-0.167-0.187c0.057,0.078,0.299,0.5,0.036,0.009c0.028,0.051,0.078,0.209,0.082,0.279
				c0.032,0.519-0.011-0.459,0.023,0.094c0.021,0.363,0.012,0.719-0.014,1.082c-0.043,0.618,0.041-0.215-0.013,0.165
				c-0.024,0.174-0.057,0.347-0.09,0.52c-0.069,0.365-0.154,0.728-0.246,1.087c-0.227,0.888-0.511,1.762-0.819,2.625
				c-0.978,2.733-2.253,5.332-3.563,8.047c-5.567,11.539-11.962,22.561-19.972,32.582c-7.83,9.796-16.383,19.017-23.342,29.485
				c-3.444,5.181-6.362,10.69-9.897,15.811c-3.547,5.138-8.055,9.331-12.384,13.784c-2.096,2.155-4.13,4.391-5.879,6.843
				c-1.729,2.425-3.125,5.063-4.536,7.68c-1.375,2.553-2.765,5.113-4.495,7.447c-1.575,2.125-3.558,3.904-5.535,5.646
				c-2.031,1.789-4.108,3.555-5.838,5.647c-1.414,1.712-2.406,3.582-3.52,5.483c-0.468,0.796-0.956,1.583-1.623,2.229
				c-0.456,0.442-0.923,0.698-1.359,0.636c-1.104-0.159-2.195-1.096-3.102-1.696c-1.278-0.847-2.507-1.762-3.777-2.618
				c-2.602-1.753-5.379-3.226-7.976-4.994c-2.596-1.767-5.104-3.658-7.545-5.631c-4.756-3.843-9.414-7.644-14.595-10.918
				c-5.097-3.219-10.387-6.113-15.617-9.106c-5.443-3.116-10.723-6.462-15.926-9.964c-11.033-7.426-21.755-15.324-33.001-22.43
				c-5.325-3.365-10.808-6.609-15.645-10.671c-4.421-3.713-8.089-8.064-11.444-12.741c-1.768-2.465-3.626-4.875-5.886-6.912
				c-0.807,1.046-1.614,2.091-2.42,3.137c4.289,3.132,8.025,6.936,11.853,10.598c3.826,3.66,7.952,6.978,12.111,10.25
				c4.112,3.234,8.27,6.415,12.284,9.772c2.071,1.732,4.105,3.511,6.071,5.362c1.89,1.779,3.59,3.837,5.625,5.446
				c2.087,1.65,4.537,2.841,6.421,4.727c0.928,0.928,1.818,1.925,2.797,2.796c1.057,0.942,2.242,1.773,3.354,2.649
				c4.268,3.362,8.555,6.702,12.897,9.969c8.51,6.401,17.257,12.496,26.416,17.936c10.787,6.405,21.712,12.613,32.932,18.232
				c0.814,0.407,1.75,0.331,2.42-0.313c0.969-0.931,2.094-1.654,3.107-2.531c1.102-0.954,1.652-2.321,2.315-3.595
				c1.252-2.402,2.479-4.819,3.787-7.192c2.616-4.751,5.577-9.28,9.558-13.006c1.881-1.76-0.948-4.579-2.824-2.823
				c-4.017,3.758-7.121,8.341-9.797,13.118c-1.293,2.308-2.499,4.663-3.717,7.01c-0.58,1.118-1.096,2.64-1.991,3.525
				c-0.997,0.985-2.248,1.694-3.263,2.67c0.807-0.104,1.614-0.208,2.42-0.312c-9.94-4.979-19.631-10.435-29.219-16.056
				c-9.326-5.468-18.319-11.372-27.018-17.794c-4.303-3.176-8.541-6.438-12.75-9.737c-2.146-1.681-4.498-3.269-6.425-5.195
				c-0.93-0.932-1.836-1.896-2.796-2.797c-1.043-0.978-2.286-1.74-3.478-2.524c-0.948-0.622-1.917-1.23-2.79-1.957
				c-1.08-0.897-2-1.985-2.993-2.975c-1.871-1.865-3.816-3.654-5.809-5.389c-3.948-3.437-8.08-6.653-12.203-9.876
				c-4.656-3.64-9.382-7.256-13.68-11.321c-4.419-4.179-8.673-8.519-13.601-12.116c-1.831-1.336-4.093,1.628-2.42,3.136
				c2.442,2.202,4.324,4.824,6.239,7.474c1.745,2.414,3.601,4.753,5.619,6.946c4.294,4.664,9.354,8.443,14.644,11.902
				c5.516,3.607,11.131,7.046,16.589,10.744c5.761,3.905,11.451,7.914,17.179,11.865c5.589,3.855,11.193,7.716,17.006,11.227
				c5.279,3.188,10.71,6.114,16.026,9.238c5.396,3.171,10.684,6.553,15.481,10.585c4.924,4.139,9.994,8.124,15.495,11.475
				c2.709,1.649,5.299,3.401,7.942,5.153c2.086,1.381,4.449,2.88,7.021,1.921c2.076-0.773,3.447-2.682,4.528-4.523
				c1.195-2.038,2.238-4.023,3.863-5.775c3.799-4.091,8.397-7.177,11.619-11.821c3.452-4.977,5.566-10.8,9.375-15.539
				c4.054-5.044,9.091-9.181,13.287-14.097c4.077-4.776,7.226-10.214,10.458-15.571c3.41-5.651,7.186-11.04,11.304-16.199
				c4.007-5.022,8.229-9.869,12.312-14.831c4.078-4.957,8.047-10.026,11.539-15.417c3.704-5.716,6.951-11.77,10.012-17.85
				c1.679-3.338,3.348-6.711,4.77-10.17c1.198-2.918,2.852-6.771,1.944-9.976c-0.492-1.739-1.865-2.648-3.591-2.85
				c-1.073-0.125-1.997,1.007-1.997,1.998C256.713,310.833,257.634,311.521,258.71,311.646L258.71,311.646z"/>
		</g>
		<g>
			<path fill="#222221" d="M118.642,404.013c0.019,0.092,0.084,0.617,0.031,0.101c0.016,0.158,0.031,0.318,0.039,0.479
				c0.018,0.324,0.015,0.65-0.002,0.974c-0.008,0.159-0.126,1.1-0.049,0.625c-0.063,0.392-0.134,0.78-0.219,1.168
				c-0.307,1.4-0.75,2.767-1.122,4.15c-0.771,2.873-1.201,6.026,0.816,8.5c1.105,1.355,2.744,2.155,4.379,2.682
				c2.022,0.652,4.167,0.974,6.276,0.662c3.504-0.518,6.431-2.943,8.207-5.927c1.855-3.116,2.55-6.859,1.933-10.428
				c-0.278-1.607-0.915-3.213-1.859-4.544c-0.998-1.407-2.346-2.299-3.926-2.945c-3.225-1.32-6.941-1.49-10.356-0.982
				c-1.529,0.228-3.092,0.653-4.429,1.45c-1.52,0.905-2.396,2.197-2.931,3.866c-1.415,4.4,0.784,8.816,4.008,11.778
				c3.175,2.916,7.27,4.957,11.557,5.496c1.072,0.135,1.997-1.014,1.997-1.997c0-1.191-0.922-1.862-1.997-1.997
				c0.467,0.059-0.144-0.028-0.196-0.037c-0.188-0.034-0.376-0.072-0.563-0.114c-0.324-0.071-0.645-0.155-0.964-0.248
				c-0.718-0.208-1.547-0.512-2.016-0.725c-1.401-0.636-2.973-1.548-4.044-2.391c-1.288-1.013-2.413-2.188-3.165-3.431
				c-0.729-1.205-1.106-2.375-1.064-3.692c0.004-0.138,0.012-0.279,0.024-0.417c0.059-0.654-0.087,0.341,0.051-0.312
				c0.077-0.361,0.173-0.719,0.295-1.067c0.081-0.228,0.207-0.407,0.339-0.71c0.049-0.112,0.25-0.249-0.085,0.098
				c0.119-0.122,0.259-0.248,0.368-0.379c0.198-0.24-0.013-0.001-0.083,0.049c0.117-0.086,0.235-0.168,0.358-0.245
				c0.216-0.136,0.443-0.251,0.672-0.366c0.474-0.24-0.392,0.138,0.12-0.056c0.16-0.06,0.319-0.117,0.48-0.171
				c0.338-0.112,0.683-0.207,1.031-0.287c2.416-0.567,5.467-0.492,7.98,0.204c0.298,0.083,0.594,0.174,0.886,0.276
				c0.169,0.061,0.337,0.122,0.502,0.19c-0.415-0.171,0.103,0.054,0.154,0.08c0.243,0.127,0.486,0.25,0.72,0.396
				c0.111,0.069,0.218,0.146,0.327,0.218c0.119,0.085,0.085,0.057-0.1-0.085c0.077,0.063,0.151,0.127,0.225,0.192
				c0.169,0.167,0.338,0.329,0.488,0.514c-0.306-0.377,0.073,0.134,0.105,0.183c0.104,0.161,0.205,0.327,0.3,0.496
				c0.418,0.739,0.447,0.831,0.681,1.646c0.098,0.341,0.167,0.685,0.24,1.032c0.019,0.09,0.077,0.507,0.03,0.14
				c0.025,0.193,0.042,0.387,0.055,0.58c0.051,0.719,0.033,1.438-0.035,2.153c-0.061,0.64,0.072-0.383-0.031,0.253
				c-0.026,0.162-0.056,0.324-0.088,0.485c-0.071,0.357-0.155,0.71-0.254,1.059c-0.207,0.734-0.429,1.311-0.635,1.739
				c-0.31,0.646-0.671,1.267-1.083,1.853c0.025-0.037-0.353,0.469-0.19,0.262c0.163-0.207-0.236,0.277-0.208,0.245
				c-0.248,0.288-0.511,0.564-0.789,0.826c-0.819,0.772-1.938,1.438-3.073,1.737c-0.158,0.041-1.02,0.192-0.692,0.155
				c-0.327,0.037-0.657,0.053-0.985,0.051c-0.999-0.007-1.382-0.108-2.426-0.361c-0.66-0.161-1.696-0.499-2.007-0.656
				c-0.278-0.14-0.543-0.294-0.811-0.454c-0.063-0.038-0.496-0.385-0.139-0.085c-0.16-0.135-0.303-0.282-0.455-0.426
				c-0.071-0.066-0.132-0.149-0.196-0.222c0.345,0.393-0.029-0.071-0.092-0.181c-0.044-0.077-0.082-0.167-0.129-0.244
				c-0.161-0.258,0.074,0.359-0.047-0.158c-0.042-0.182-0.141-0.979-0.114-0.413c-0.014-0.286-0.036-0.567-0.029-0.854
				c0.004-0.147,0.013-0.296,0.024-0.441c0.004-0.058,0.078-0.649,0.032-0.337c-0.048,0.335,0.032-0.173,0.036-0.194
				c0.041-0.209,0.079-0.417,0.124-0.625c0.14-0.65,0.315-1.293,0.496-1.933c0.826-2.936,1.746-5.896,1.142-8.968
				c-0.208-1.059-1.473-1.665-2.457-1.395C118.932,401.859,118.434,402.95,118.642,404.013L118.642,404.013z"/>
		</g>
		<g>
			<path fill="#222221" d="M88.409,379.016c-1.605-2.614-4.042-3.802-7.075-3.325c-0.643,0.101-1.254,0.782-1.395,1.395
				c-1.047,4.571-1.682,10.318,0.651,14.609c2.039,3.75,7.121,5.653,11.107,6.226c2.329,0.334,4.733,0.307,6.891-0.74
				c1.836-0.892,2.986-2.651,3.345-4.629c0.758-4.184-0.381-9.131-2.455-12.811c-1.276-2.264-3.447-3.862-6.016-4.306
				c-2.889-0.499-5.825-0.006-8.731-0.005c0,1.331,0,2.663,0,3.995c2.496-0.075,4.884,0.242,7.302,0.842
				c2.381,0.591,4.729,1.281,7.153,1.684c1.063,0.177,2.15-0.279,2.457-1.395c0.263-0.957-0.325-2.279-1.395-2.458
				c-2.511-0.417-4.939-1.145-7.408-1.745c-2.659-0.646-5.369-1.005-8.108-0.922c-2.563,0.077-2.58,3.995,0,3.995
				c2.249-0.001,4.498-0.299,6.746-0.208c1.629,0.065,3.103,0.558,4.075,1.784c0.245,0.309,0.686,1.138,0.945,1.679
				c0.04,0.084,0.077,0.169,0.114,0.254c-0.016-0.038-0.104-0.253-0.014-0.036c0.088,0.216,0.172,0.434,0.253,0.651
				c0.158,0.429,0.303,0.862,0.434,1.3c0.574,1.896,0.879,3.428,0.878,5.3c0,0.403-0.019,0.808-0.06,1.209
				c-0.024,0.241,0.004-0.015,0.01-0.053c-0.015,0.092-0.03,0.185-0.049,0.276c-0.043,0.207-0.087,0.414-0.146,0.617
				c-0.021,0.072-0.215,0.604-0.13,0.409c0.087-0.2-0.115,0.209-0.154,0.274c-0.042,0.072-0.311,0.427-0.157,0.249
				c0.149-0.173-0.215,0.191-0.284,0.252c0.313-0.276-0.665,0.375-0.546,0.32c0.155-0.072-0.274,0.1-0.358,0.126
				c-0.21,0.067-0.424,0.124-0.639,0.172c-0.095,0.021-0.56,0.104-0.242,0.059c-0.234,0.033-0.473,0.048-0.709,0.06
				c-0.458,0.023-0.918,0.018-1.375-0.011c-0.892-0.056-1.554-0.176-2.56-0.435c-0.814-0.209-1.966-0.594-2.516-0.832
				c-0.804-0.347-1.584-0.761-2.317-1.238c-0.188-0.123-0.374-0.251-0.556-0.384c0.25,0.184-0.091-0.076-0.168-0.142
				c-0.274-0.235-0.531-0.488-0.768-0.761c-0.136-0.155,0.026,0.042,0.042,0.064c-0.103-0.139-0.195-0.283-0.284-0.43
				c-0.128-0.211-0.246-0.429-0.349-0.652c0.075,0.162-0.132-0.348-0.165-0.442c-0.085-0.253-0.16-0.51-0.225-0.768
				c-0.286-1.12-0.365-2.048-0.389-3.234c-0.047-2.371,0.206-4.457,0.722-6.707c-0.465,0.465-0.93,0.93-1.395,1.395
				c0.469-0.074,0.996,0.028,1.302,0.178c0.505,0.246,0.911,0.741,1.262,1.312C86.302,383.219,89.758,381.214,88.409,379.016
				L88.409,379.016z"/>
		</g>
	</g>
</g>
</svg>
