<?xml version="1.0" encoding="utf-8"?>
<!-- Generator: Adobe Illustrator 16.0.0, SVG Export Plug-In . SVG Version: 6.00 Build 0)  -->
<!DOCTYPE svg PUBLIC "-//W3C//DTD SVG 1.1//EN" "http://www.w3.org/Graphics/SVG/1.1/DTD/svg11.dtd">
<svg version="1.1" id="Layer_1" xmlns="http://www.w3.org/2000/svg" xmlns:xlink="http://www.w3.org/1999/xlink" x="0px" y="0px"
	 width="750px" height="750px" viewBox="0 0 750 750" enable-background="new 0 0 750 750" xml:space="preserve">
<g id="Background_Simple" display="none">
	<path display="inline" fill="#E0E0E0" d="M607.298,278.353c-23.915-32.642-66.104-52.993-105.771-44.999
		c-52.397,10.56-85.782,63.545-135.4,83.422c-48.852,19.569-104.3,4.006-156.557,10.225c-22.771,2.709-46.142,10.339-61.454,27.409
		c-14.762,16.458-20.041,39.574-19.929,61.682c0.307,60.609,42.444,130.644,98.932,152.613l9.26,1.615
		c50.609,6.417,158.528,5.773,209.184-0.271c50.656-6.046,112.663-40.645,146.196-79.089c23.475-26.909,37.188-61.575,41.62-97.006
		C638.403,353.804,631.213,310.995,607.298,278.353z"/>
</g>
<g>
	<g>
		<path fill="none" stroke="#ECECEC" stroke-miterlimit="10" d="M83.878,487.23l-11.783,0.177l-11.784,0.125l-11.783,0.096
			l-11.784,0.048l-0.444,0.002l-0.001-0.446l-0.054-19.916l-0.001-0.501l0.501,0.002l23.567,0.063
			c7.855,0.005,15.711,0.112,23.567,0.164l0.277,0.001l-0.004,0.271L83.878,487.23z M83.878,487.23l-0.273-19.916l0.273,0.271
			c-7.855,0.052-15.711,0.159-23.567,0.164l-23.567,0.063l0.5-0.499L37.19,487.23l-0.446-0.445l11.784,0.048l11.783,0.096
			l11.784,0.125L83.878,487.23z"/>
	</g>
	<rect x="10.451" y="492.428" fill="none" stroke="#ECECEC" stroke-miterlimit="10" width="47.135" height="19.919"/>
	<g>
		<path fill="none" stroke="#ECECEC" stroke-miterlimit="10" d="M206.269,293.922l-11.783,0.177l-11.784,0.125l-11.783,0.096
			l-11.784,0.048l-0.444,0.001l-0.001-0.447l-0.054-19.918l-0.001-0.501l0.501,0.001l23.567,0.063
			c7.855,0.005,15.711,0.112,23.567,0.164l0.277,0.002l-0.004,0.271L206.269,293.922z M206.269,293.922l-0.273-19.918l0.273,0.273
			c-7.855,0.051-15.711,0.159-23.567,0.164l-23.567,0.063l0.5-0.5l-0.054,19.918l-0.446-0.446l11.784,0.048l11.783,0.096
			l11.784,0.125L206.269,293.922z"/>
	</g>
	<rect x="132.843" y="299.119" fill="none" stroke="#ECECEC" stroke-miterlimit="10" width="47.134" height="19.918"/>
	<g>
		<path fill="none" stroke="#ECECEC" stroke-miterlimit="10" d="M564.23,182.893l-11.783,0.177l-11.783,0.125l-11.784,0.096
			l-11.783,0.048l-0.443,0.002l-0.001-0.448l-0.055-19.917l-0.002-0.501l0.501,0.001l23.567,0.063
			c7.854,0.005,15.711,0.112,23.565,0.164l0.276,0.002l-0.004,0.271L564.23,182.893z M564.23,182.893l-0.272-19.917l0.272,0.273
			c-7.855,0.051-15.712,0.159-23.566,0.164l-23.567,0.063l0.499-0.5l-0.054,19.917l-0.445-0.446l11.783,0.048l11.784,0.096
			l11.783,0.125L564.23,182.893z"/>
	</g>
	<g>
		<path fill="none" stroke="#ECECEC" stroke-miterlimit="10" d="M153.788,293.922l-11.784,0.177l-11.784,0.125l-11.784,0.096
			l-11.784,0.048l-0.444,0.001l-0.001-0.447l-0.054-19.918l-0.001-0.501l0.501,0.001l23.567,0.063
			c7.856,0.005,15.712,0.112,23.568,0.164l0.277,0.002l-0.004,0.271L153.788,293.922z M153.788,293.922l-0.273-19.918l0.273,0.273
			c-7.856,0.051-15.712,0.159-23.568,0.164l-23.567,0.063l0.5-0.5l-0.054,19.918l-0.446-0.446l11.784,0.048l11.784,0.096
			l11.784,0.125L153.788,293.922z"/>
	</g>
	<g>
		<path fill="none" stroke="#ECECEC" stroke-miterlimit="10" d="M708.201,417.645l-11.783,0.178l-11.783,0.125l-11.784,0.096
			l-11.782,0.048l-0.444,0.002l-0.001-0.446l-0.054-19.917l-0.002-0.501l0.501,0.002l23.566,0.063
			c7.855,0.005,15.711,0.112,23.566,0.164l0.275,0.001l-0.004,0.271L708.201,417.645z M708.201,417.645l-0.272-19.917l0.272,0.272
			c-7.855,0.052-15.711,0.159-23.566,0.164l-23.566,0.063l0.499-0.499l-0.055,19.917l-0.444-0.444l11.782,0.048l11.784,0.096
			l11.783,0.125L708.201,417.645z"/>
	</g>
	<rect x="682.844" y="424.395" fill="none" stroke="#ECECEC" stroke-miterlimit="10" width="47.135" height="19.918"/>
	<g>
		<path fill="none" stroke="#ECECEC" stroke-miterlimit="10" d="M716.363,59.538l-11.783,0.177l-11.783,0.125l-11.784,0.096
			l-11.783,0.048l-0.443,0.001l-0.001-0.447l-0.055-19.917l-0.002-0.501l0.501,0.001l23.567,0.063
			c7.855,0.005,15.711,0.112,23.566,0.164l0.275,0.002l-0.004,0.271L716.363,59.538z M716.363,59.538l-0.272-19.917l0.272,0.273
			c-7.855,0.051-15.711,0.159-23.566,0.164l-23.566,0.063l0.498-0.5l-0.054,19.917l-0.444-0.446l11.782,0.048l11.784,0.096
			l11.783,0.125L716.363,59.538z"/>
	</g>
	<rect x="695.521" y="64.736" fill="none" stroke="#ECECEC" stroke-miterlimit="10" width="47.136" height="19.917"/>
	<rect x="10.451" y="39.621" fill="none" stroke="#ECECEC" stroke-miterlimit="10" width="47.135" height="19.917"/>
</g>
<g>
	<polygon fill="none" stroke="#ECECEC" stroke-miterlimit="10" points="180.641,578.003 7.671,578.003 0.695,440.391 
		187.616,440.391 	"/>
	<g>
		<path fill="#C8C8C8" d="M21.201,455.61H167.11l-2.629,47.772H24.271L21.201,455.61z M165.321,457.303H23.006l2.851,44.39h137.02
			L165.321,457.303z"/>
		<path fill="#C8C8C8" d="M24.163,515.222h136.972l-2.146,43.123H26.857L24.163,515.222z M159.357,516.915H25.964l2.483,39.737
			H157.38L159.357,516.915z"/>
		<path fill="#C8C8C8" d="M79.388,473.156h26.533l-1.486,11.521h-23.56L79.388,473.156z M103.996,474.848H81.313l1.05,8.137h20.584
			L103.996,474.848z"/>
		<path fill="#C8C8C8" d="M79.388,531.021h26.533l-1.486,11.521h-23.56L79.388,531.021z M103.996,532.716H81.313l1.05,8.136h20.584
			L103.996,532.716z"/>
	</g>
	<g>
		<polygon fill="#ECECEC" points="150.564,578.003 152.67,592.994 156.906,623.118 165.188,623.118 165.188,578.003 		"/>
		<polygon fill="#C8C8C8" points="150.564,578.003 152.67,592.994 165.188,592.994 165.188,578.003 		"/>
	</g>
	<g>
		<polygon fill="none" stroke="#ECECEC" stroke-miterlimit="10" points="37.748,578.003 35.642,592.994 31.405,623.118 
			23.124,623.118 23.124,578.003 		"/>
		<polygon fill="none" stroke="#C8C8C8" stroke-miterlimit="10" points="37.748,578.003 35.642,592.994 23.124,592.994 
			23.124,578.003 		"/>
	</g>
</g>
<g>
	<g>
		<polygon fill="none" stroke="#ECECEC" stroke-miterlimit="10" points="246.152,121.611 192.754,162.313 140.505,93.768 
			180.153,63.546 193.903,53.065 203.858,66.126 		"/>
		<g>
			
				<rect x="149.556" y="84.489" transform="matrix(0.7953 -0.6062 0.6062 0.7953 -15.6781 124.7609)" fill="#DCDCDC" width="54.695" height="2.214"/>
		</g>
		<g>
			
				<rect x="152.942" y="88.934" transform="matrix(0.7953 -0.6062 0.6062 0.7953 -17.679 127.7235)" fill="#DCDCDC" width="54.695" height="2.213"/>
		</g>
		<g>
			
				<rect x="156.328" y="93.374" transform="matrix(0.7953 -0.6062 0.6062 0.7953 -19.6779 130.6856)" fill="#DCDCDC" width="54.695" height="2.214"/>
		</g>
		<g>
			
				<rect x="159.715" y="97.817" transform="matrix(0.7953 -0.6062 0.6062 0.7953 -21.6785 133.6457)" fill="#DCDCDC" width="54.695" height="2.214"/>
		</g>
		<g>
			
				<rect x="163.102" y="102.259" transform="matrix(0.7953 -0.6062 0.6062 0.7953 -23.6774 136.611)" fill="#DCDCDC" width="54.694" height="2.214"/>
		</g>
		<g>
			
				<rect x="166.489" y="106.703" transform="matrix(0.7953 -0.6062 0.6062 0.7953 -25.6781 139.5721)" fill="#DCDCDC" width="54.694" height="2.214"/>
		</g>
		<g>
			
				<rect x="169.875" y="111.148" transform="matrix(0.7953 -0.6062 0.6062 0.7953 -27.6792 142.5352)" fill="#DCDCDC" width="54.695" height="2.213"/>
		</g>
		<g>
			
				<rect x="173.262" y="115.59" transform="matrix(0.7953 -0.6062 0.6062 0.7953 -29.6791 145.4969)" fill="#DCDCDC" width="54.694" height="2.213"/>
		</g>
		<g>
			
				<rect x="176.648" y="120.032" transform="matrix(0.7953 -0.6062 0.6062 0.7953 -31.6785 148.4614)" fill="#DCDCDC" width="54.693" height="2.213"/>
		</g>
		<g>
			
				<rect x="180.034" y="124.476" transform="matrix(0.7953 -0.6062 0.6062 0.7953 -33.6795 151.4214)" fill="#DCDCDC" width="54.694" height="2.213"/>
		</g>
		<g>
			
				<rect x="183.421" y="128.917" transform="matrix(0.7953 -0.6062 0.6062 0.7953 -35.678 154.3853)" fill="#DCDCDC" width="54.694" height="2.213"/>
		</g>
		<g>
			
				<rect x="186.806" y="133.362" transform="matrix(0.7953 -0.6062 0.6062 0.7953 -37.6799 157.3436)" fill="#DCDCDC" width="54.695" height="2.212"/>
		</g>
	</g>
	<g>
		<polygon fill="none" stroke="#ECECEC" stroke-miterlimit="10" points="275.177,142.882 208.645,151.916 197.05,66.51 
			246.45,59.803 265.791,73.75 		"/>
		<polygon fill="#DCDCDC" points="246.45,59.803 265.791,73.75 248.66,76.077 		"/>
		<g>
			
				<rect x="205.47" y="77.433" transform="matrix(0.9909 -0.1345 0.1345 0.9909 -8.5273 30.8609)" fill="#DCDCDC" width="37.329" height="2.214"/>
		</g>
		<g>
			
				<rect x="206.22" y="82.975" transform="matrix(0.9909 -0.1345 0.1345 0.9909 -9.2666 31.0155)" fill="#DCDCDC" width="37.329" height="2.213"/>
		</g>
		<g>
			
				<rect x="206.975" y="88.503" transform="matrix(0.9909 -0.1345 0.1345 0.9909 -10.0018 31.1609)" fill="#DCDCDC" width="37.329" height="2.213"/>
		</g>
		<g>
			
				<rect x="207.647" y="92.87" transform="matrix(0.9909 -0.1345 0.1345 0.9909 -10.5053 32.4631)" fill="#DCDCDC" width="54.694" height="2.214"/>
		</g>
		<g>
			
				<rect x="208.399" y="98.406" transform="matrix(0.9909 -0.1345 0.1345 0.9909 -11.2425 32.6124)" fill="#DCDCDC" width="54.694" height="2.213"/>
		</g>
		<g>
			
				<rect x="209.15" y="103.943" transform="matrix(0.9909 -0.1345 0.1345 0.9909 -11.9797 32.7618)" fill="#DCDCDC" width="54.694" height="2.213"/>
		</g>
		<g>
			
				<rect x="209.901" y="109.478" transform="matrix(0.9909 -0.1345 0.1345 0.9909 -12.7172 32.9123)" fill="#DCDCDC" width="54.695" height="2.213"/>
		</g>
		<g>
			
				<rect x="210.654" y="115.012" transform="matrix(0.9909 -0.1345 0.1345 0.9909 -13.4557 33.0669)" fill="#DCDCDC" width="54.694" height="2.214"/>
		</g>
		<g>
			
				<rect x="211.406" y="120.55" transform="matrix(0.9909 -0.1345 0.1345 0.9909 -14.1929 33.2163)" fill="#DCDCDC" width="54.693" height="2.212"/>
		</g>
		<g>
			
				<rect x="212.158" y="126.082" transform="matrix(0.9909 -0.1345 0.1345 0.9909 -14.9316 33.3718)" fill="#DCDCDC" width="54.694" height="2.213"/>
		</g>
		<g>
			
				<rect x="212.91" y="131.619" transform="matrix(0.9909 -0.1345 0.1345 0.9909 -15.6697 33.5234)" fill="#DCDCDC" width="54.694" height="2.214"/>
		</g>
		<g>
			
				<rect x="213.66" y="137.157" transform="matrix(0.9909 -0.1345 0.1345 0.9909 -16.4066 33.6721)" fill="#DCDCDC" width="54.694" height="2.212"/>
		</g>
	</g>
</g>
<g>
	<ellipse fill="#ECECEC" cx="376.554" cy="713.754" rx="290.186" ry="36.246"/>
</g>
<g>
	<path fill="#1A2E35" d="M4.196,623.607c0,0,46.545-0.107,116.362-0.27c69.817-0.063,162.907-0.146,255.997-0.229
		c93.09,0.084,186.181,0.167,255.996,0.229c69.817,0.162,116.362,0.271,116.362,0.271s-46.545,0.106-116.362,0.27
		c-69.815,0.063-162.906,0.146-255.996,0.229c-93.09-0.084-186.179-0.168-255.997-0.23C50.741,623.715,4.196,623.607,4.196,623.607z
		"/>
</g>
<g>
	<g>
		<g>
			<path fill="#CEF2CF" d="M669.929,349.079c0,0-38.577-5.4-29.56-51.968C640.369,297.111,683.469,306.786,669.929,349.079z"/>
			<path opacity="0.1" enable-background="new    " d="M669.929,349.079c0,0-38.577-5.4-29.56-51.968
				C640.369,297.111,683.469,306.786,669.929,349.079z"/>
			<path fill="#1A2E35" d="M667.979,339.359c-0.753-2.355-1.644-4.668-2.627-6.941c-0.028-0.298-0.071-0.595-0.099-0.881
				c-0.058-0.642-0.11-1.282-0.16-1.923c-0.106-1.39-0.195-2.78-0.276-4.171c-0.164-2.78-0.344-5.565-0.387-8.351
				c-0.001-0.152-0.232-0.146-0.235,0.005c-0.023,2.789-0.065,5.572,0.043,8.359c0.054,1.393,0.134,2.783,0.225,4.172
				c0.021,0.309,0.047,0.618,0.069,0.927c-2.158-4.641-4.769-9.076-7.736-13.226c-1.324-1.853-2.718-3.634-4.218-5.348
				c-1.537-1.76-3.162-3.436-4.719-5.178c-0.1-0.111-0.269,0.06-0.161,0.171c2.837,2.958,5.183,6.471,7.435,9.883
				c1.172,1.775,2.277,3.597,3.332,5.447c-0.12-0.047-0.241-0.092-0.36-0.143c-0.455-0.188-0.911-0.376-1.371-0.555
				c-1.05-0.403-2.099-0.801-3.149-1.191c-2.07-0.769-4.144-1.524-6.206-2.308c-0.124-0.047-0.21,0.167-0.085,0.216
				c2.049,0.819,4.079,1.683,6.106,2.558c0.995,0.43,1.992,0.855,2.986,1.285c0.499,0.215,1.003,0.416,1.508,0.621
				c0.336,0.138,0.668,0.307,1.021,0.361c0.778,1.396,1.552,2.798,2.258,4.228c1.785,3.602,3.374,7.322,4.714,11.113
				c0.097,0.267,0.188,0.534,0.279,0.8c-0.953-0.643-2.168-1.064-3.16-1.523c-1.328-0.615-2.666-1.21-3.993-1.821
				c-2.704-1.243-5.394-2.503-7.984-3.967c-0.135-0.075-0.247,0.134-0.114,0.205c2.648,1.449,5.246,2.989,7.903,4.431
				c1.326,0.72,2.66,1.42,4.021,2.079c1.116,0.54,2.37,1.292,3.624,1.451c1.206,3.562,2.219,7.167,2.528,10.941
				c0.43,5.266,0.381,10.575,0.505,15.854c0.002,0.091,0.132,0.085,0.141-0.004c0.384-4.789,0.602-9.621,0.623-14.426
				C670.275,347.943,669.365,343.692,667.979,339.359z"/>
			<path fill="#1A2E35" d="M662.038,311.973c-0.302,2.71-0.571,5.487-0.384,8.212c0.006,0.077,0.112,0.072,0.118-0.003
				c0.153-2.723,0.18-5.438,0.495-8.152C662.283,311.882,662.056,311.824,662.038,311.973z"/>
			<path fill="#1A2E35" d="M651.01,314.305c-1.709-0.725-3.406-1.405-4.961-2.437c-0.128-0.084-0.244,0.125-0.115,0.205
				c1.559,0.973,3.228,1.919,5.013,2.394C651.039,314.492,651.104,314.345,651.01,314.305z"/>
		</g>
		<path fill="#1A2E35" d="M671.16,423.01c-0.031-4.264-0.111-8.523-0.163-12.788c-0.08-14.155-0.196-28.313-0.45-42.47
			c-0.201-11.239-0.468-22.473-0.785-33.71c-0.002-0.065-0.043-0.11-0.098-0.144c-0.016-3.069-0.029-6.138-0.049-9.208
			c0.002-0.078-0.092-0.115-0.185-0.114c-0.092,0.001-0.185,0.042-0.185,0.12c-0.02,3.074-0.038,6.148-0.059,9.223
			c-0.045,0.035-0.086,0.075-0.089,0.132c-0.565,20-1.071,40.005-1.189,60.01c-0.024,4.067-0.022,8.136-0.04,12.202
			c-0.135,13.044-0.196,26.086-0.149,39.13c-0.014,2.077-0.038,4.152-0.047,6.229c-0.041,11.934,0.125,23.866,0.129,35.799
			c0,0.645,0.713,0.962,1.472,0.993c0.864,0.035,1.789-0.313,1.785-1.044c0.008-13.161,0.094-26.319,0.093-39.479
			C671.191,439.599,671.223,431.304,671.16,423.01z"/>
		<g>
			<path fill="#CEF2CF" d="M655.051,410.06c0,0-18.554-13.747-36.164-4.46s-20.372,45.096-20.372,45.096s25.858,3.698,42.144-11.799
				C656.349,423.958,655.051,410.06,655.051,410.06z"/>
			<path fill="#1A2E35" d="M660.107,410.907c-3.358-1.411-7.099-1.76-10.749-1.403c-0.739-0.165-1.524-0.168-2.273-0.222
				c-0.871-0.063-1.744-0.129-2.615-0.196c-1.802-0.141-3.605-0.249-5.411-0.383c-3.659-0.273-7.332-0.496-10.982-0.863
				c-0.13-0.014-0.156,0.214-0.023,0.231c3.612,0.462,7.213,0.975,10.839,1.344c1.865,0.188,3.73,0.38,5.602,0.513
				c0.438,0.031,0.895,0.081,1.356,0.132c-0.555,0.126-1.106,0.257-1.646,0.408c-2.91,0.825-5.714,2.007-8.406,3.418
				c-1.464,0.264-2.915,0.671-4.35,1.008c-2.296,0.541-4.582,1.135-6.862,1.731c-4.505,1.18-8.965,2.509-13.436,3.809
				c-0.146,0.043-0.077,0.264,0.068,0.227c4.467-1.097,8.958-2.101,13.435-3.166c2.177-0.516,4.354-1.026,6.525-1.563
				c0.563-0.14,1.133-0.266,1.705-0.395c-4.995,3.076-9.491,7.021-13.188,11.467c-3.69,4.438-6.633,9.29-9.167,14.455
				c-0.063,0.133,0.124,0.261,0.2,0.127c2.998-5.255,6.771-10.203,11.091-14.558c-0.08,0.246-0.164,0.49-0.243,0.739
				c-0.345,1.093-0.688,2.187-1.03,3.278c-0.688,2.187-1.381,4.366-2.035,6.563c-0.044,0.146,0.179,0.195,0.229,0.058
				c0.781-2.116,1.521-4.248,2.27-6.377c0.369-1.045,0.735-2.09,1.104-3.134c0.19-0.543,0.374-1.085,0.557-1.629
				c0.056-0.169,0.121-0.333,0.18-0.499c2.084-2.017,4.274-3.905,6.577-5.607c3.046-2.246,6.37-4.143,9.853-5.646
				c-0.064,0.321-0.124,0.644-0.188,0.949c-0.183,0.847-0.372,1.691-0.546,2.537c-0.363,1.757-0.704,3.52-1.047,5.278
				c-0.698,3.592-1.131,7.227-1.805,10.819c-0.029,0.146,0.192,0.204,0.229,0.058c0.831-3.612,1.904-7.165,2.708-10.785
				c0.403-1.808,0.813-3.618,1.188-5.435c0.175-0.848,0.344-1.696,0.517-2.544c0.095-0.476,0.205-0.946,0.259-1.421
				c0.34-0.135,0.667-0.291,1.008-0.416c4.869-1.803,10.249-3.11,15.438-2.115c4.965,0.953,9.219,4.283,11.168,8.949
				c0.169,0.403,0.807,0.151,0.713-0.262C667.906,415.932,664.184,412.62,660.107,410.907z"/>
			<path fill="#1A2E35" d="M631.703,426.197c-0.525,2.351-1.047,4.702-1.564,7.054c-0.497,2.244-1.108,4.565-1.299,6.859
				c-0.007,0.093,0.125,0.093,0.151,0.018c0.758-2.212,1.124-4.621,1.577-6.911c0.457-2.321,0.912-4.642,1.362-6.962
				C631.961,426.107,631.735,426.049,631.703,426.197z"/>
			<path fill="#1A2E35" d="M613.757,432.173c-2.359,1.198-4.649,2.562-7.12,3.543c-0.155,0.063-0.057,0.289,0.099,0.213
				c2.374-1.184,4.835-2.232,7.08-3.664C613.872,432.229,613.818,432.145,613.757,432.173z"/>
		</g>
		<g>
			<path fill="#CEF2CF" d="M659.221,384.813c0,0-22.675,1.447-33.225-13.507c-10.549-14.955-8.182-36.307-8.182-36.307
				s23.82,2.895,33.279,13.633C660.555,359.368,659.221,384.813,659.221,384.813z"/>
			<path fill="#1A2E35" d="M669.864,407.188c-0.783-2.429-1.758-4.821-2.675-7.206c-0.882-2.289-1.822-4.552-2.822-6.794
				c-2.036-4.569-4.284-9.033-6.796-13.36c-1.6-2.755-3.315-5.43-5.08-8.066c-0.035-0.403-0.116-0.804-0.177-1.208
				c-0.106-0.701-0.209-1.405-0.317-2.105c-0.226-1.437-0.478-2.868-0.715-4.302c-0.522-3.131-1.168-6.241-1.667-9.375
				c-0.022-0.148-0.258-0.145-0.234,0.005c0.457,3.094,0.77,6.208,1.201,9.304c0.214,1.52,0.412,3.045,0.644,4.563
				c0.083,0.549,0.171,1.098,0.257,1.646c-3.465-5.047-7.19-9.907-11.217-14.551c-0.543-0.625-1.102-1.236-1.654-1.853
				c-0.059-0.172-0.144-0.341-0.211-0.518c-0.169-0.433-0.33-0.865-0.493-1.299c-0.331-0.899-0.658-1.801-0.981-2.704
				c-0.639-1.776-1.209-3.568-1.689-5.392c-0.037-0.147-0.261-0.079-0.227,0.068c0.46,1.86,0.942,3.719,1.486,5.558
				c0.265,0.886,0.555,1.763,0.867,2.635c0.053,0.145,0.106,0.29,0.16,0.437c-2.897-3.159-5.922-6.204-8.976-9.214
				c-0.107-0.105-0.268,0.063-0.161,0.171c5.926,6.067,11.162,12.768,16.068,19.683c-0.557-0.176-1.123-0.318-1.681-0.425
				c-1.744-0.339-3.508-0.586-5.271-0.81c-3.695-0.47-7.378-0.937-11.059-1.518c-0.147-0.024-0.206,0.199-0.059,0.229
				c3.516,0.693,6.997,1.484,10.487,2.286c1.646,0.379,3.3,0.701,4.956,1.026c1.381,0.272,2.663,0.695,3.98,1.135
				c0.365,0.525,0.747,1.041,1.108,1.569c1.665,2.423,3.26,4.893,4.825,7.385c-0.772-0.154-1.544-0.303-2.314-0.451
				c-1.752-0.34-3.512-0.658-5.271-0.947c-3.459-0.57-6.92-1.17-10.339-1.949c-0.147-0.033-0.205,0.195-0.056,0.229
				c3.468,0.814,6.902,1.764,10.344,2.682c1.66,0.441,3.335,0.847,5.014,1.218c0.839,0.185,1.68,0.37,2.521,0.544
				c0.364,0.072,0.7,0.168,1.021,0.174c3.313,5.373,6.425,10.871,9.3,16.479c1.266,2.467,2.481,4.96,3.662,7.47
				c1.214,2.574,2.25,5.202,3.369,7.815C669.221,407.974,670.048,407.759,669.864,407.188z"/>
			<path fill="#1A2E35" d="M646.655,355.07c-0.434-2.163-0.892-4.319-1.368-6.474c-0.035-0.149-0.255-0.079-0.227,0.067
				c0.431,2.125,0.838,4.254,1.225,6.389c0.383,2.116,0.689,4.283,1.286,6.353c0.013,0.038,0.07,0.029,0.068-0.011
				C647.526,359.273,647.07,357.149,646.655,355.07z"/>
			<path fill="#1A2E35" d="M633.426,354.44c-1.052-0.525-2.164-0.949-3.259-1.373c-0.574-0.223-1.147-0.445-1.72-0.674
				c-0.292-0.115-0.585-0.232-0.876-0.35c-0.311-0.124-0.69-0.219-0.958-0.42c-0.17-0.129-0.279,0.171-0.109,0.2
				c0.336,0.057,0.662,0.259,0.97,0.396c0.286,0.129,0.571,0.256,0.859,0.384c0.551,0.246,1.101,0.494,1.655,0.739
				c1.092,0.484,2.206,0.969,3.349,1.325C633.47,354.71,633.551,354.502,633.426,354.44z"/>
		</g>
		<g>
			<path fill="#CEF2CF" d="M682.434,366.983c0,0,13.728-25.637,34.604-29.606c20.877-3.969,33.657,17.511,33.657,17.511
				s-15.229,19.45-34.39,22.844C697.146,381.126,682.434,366.983,682.434,366.983z"/>
			<path fill="#1A2E35" d="M731.029,348.865c-5.41-0.742-10.949-0.656-16.374,0.194c0.313-0.171,0.624-0.342,0.932-0.499
				c1.55-0.785,3.091-1.585,4.632-2.387c3.205-1.667,6.446-3.443,9.805-4.787c0.155-0.063,0.059-0.285-0.099-0.212
				c-3.265,1.521-6.648,2.795-9.926,4.302c-1.64,0.754-3.251,1.539-4.845,2.384c-1.028,0.546-2.172,1.063-3.184,1.715
				c-4.587,0.941-9.065,2.399-13.271,4.408c0.872-0.947,1.744-1.893,2.611-2.843c1.943-2.13,3.857-4.365,5.998-6.307
				c0.111-0.103-0.059-0.265-0.171-0.163c-2.187,1.984-4.492,3.821-6.611,5.885c-1.026,1-2.012,2.039-2.972,3.105
				c-0.477,0.533-0.956,1.083-1.408,1.651c-9.081,4.936-16.807,12.386-21.9,21.39c-2.896,5.117-4.918,10.652-6.092,16.408
				c-0.03,0.144,0.176,0.227,0.223,0.076c2.865-9.679,8.277-18.771,15.35-25.973c7.668-7.813,17.355-13.457,27.971-16.185
				c6.301-1.619,12.816-2.181,19.306-1.752C731.27,349.294,731.29,348.902,731.029,348.865z"/>
			<path opacity="0.1" enable-background="new    " d="M750.699,354.891c0,0-15.232,19.452-34.398,22.841
				c-14.613,2.593-26.639-5.031-31.52-8.784l-1.054-1.731c0,0,9.884-8.333,28.58-13.139
				C731.007,349.272,750.699,354.891,750.699,354.891z"/>
			<path fill="#1A2E35" d="M718.903,339.726c-1.585,0.966-3.16,1.929-4.637,3.061c-1.452,1.112-2.804,2.323-4.026,3.684
				c-0.107,0.12,0.061,0.274,0.179,0.171c1.385-1.204,2.779-2.409,4.217-3.549c1.414-1.119,2.854-2.228,4.394-3.167
				C719.157,339.847,719.033,339.646,718.903,339.726z"/>
			<path fill="#1A2E35" d="M730.361,344.065c-0.772,0.322-1.563,0.6-2.335,0.922c-0.776,0.321-1.553,0.643-2.324,0.964
				c-0.168,0.069-0.089,0.339,0.081,0.271c0.774-0.315,1.553-0.63,2.329-0.945c0.778-0.316,1.539-0.672,2.315-0.987
				C730.57,344.233,730.502,344.006,730.361,344.065z"/>
		</g>
		<g>
			<path fill="#CEF2CF" d="M679.696,399.245c0,0,3.668,25.428,22.789,34.324c19.122,8.896,42.436,0,42.436,0
				S735.752,378.55,679.696,399.245z"/>
			<path fill="#1A2E35" d="M731.745,417.028c-1.764-0.2-3.519-0.501-5.263-0.82c-0.859-0.157-1.717-0.318-2.572-0.484
				c-0.435-0.088-0.886-0.189-1.341-0.271c-0.515-0.479-1.021-0.968-1.55-1.435c-3.62-3.188-7.545-6.018-11.696-8.478
				c-2.259-1.34-4.604-2.542-7.009-3.602c0.12,0.005,0.239,0.011,0.359,0.016c2.1,0.091,4.196,0.176,6.295,0.271
				c4.199,0.195,8.395,0.289,12.588,0.562c0.152,0.009,0.146-0.228-0.005-0.236c-4.211-0.285-8.396-0.748-12.603-1.107
				c-2.039-0.178-4.076-0.36-6.115-0.546c-1.05-0.096-2.1-0.185-3.151-0.273c-0.269-0.021-0.537-0.057-0.807-0.086
				c-1.09-0.408-2.19-0.793-3.3-1.137c-5.229-1.623-10.839-2.268-16.197-0.894c-4.813,1.23-9.611,4.383-10.858,9.455
				c-0.042,0.174,0.23,0.296,0.307,0.12c1.794-4.239,6.497-6.372,10.743-7.254c2.854-0.593,5.776-0.561,8.659-0.169
				c0.118,1.303,0.61,2.644,0.968,3.844c0.527,1.791,1.05,3.583,1.592,5.368c1.085,3.571,2.276,7.109,3.336,10.688
				c0.043,0.146,0.261,0.078,0.224-0.067c-0.886-3.568-1.638-7.171-2.497-10.748c-0.423-1.755-0.863-3.507-1.299-5.26
				c-0.278-1.123-0.513-2.45-0.963-3.615c1.682,0.295,3.344,0.694,4.963,1.17c2.938,0.861,5.833,1.937,8.665,3.176
				c0.281,1.813,0.688,3.61,1.103,5.396c0.522,2.245,1.105,4.47,1.815,6.665c0.045,0.139,0.244,0.072,0.214-0.065
				c-0.026-0.139-0.058-0.277-0.085-0.415c0-0.004-0.004-0.004-0.004-0.007c-0.429-2.079-0.888-4.152-1.325-6.229
				c-0.354-1.675-0.679-3.356-1.044-5.027c2.377,1.063,4.711,2.231,6.971,3.53c0.046,0.518,0.175,1.048,0.247,1.521
				c0.14,0.871,0.297,1.74,0.457,2.608c0.36,1.962,0.751,3.917,1.221,5.856c0.904,3.731,1.921,7.465,3.286,11.059
				c-0.026,0.043-0.036,0.099,0.005,0.146c0.035,0.043,0.071,0.084,0.109,0.128c0.081,0.095,0.216-0.018,0.192-0.12
				c-0.886-3.769-1.896-7.504-2.726-11.288c-0.41-1.888-0.828-3.777-1.207-5.672c-0.189-0.946-0.363-1.896-0.543-2.848
				c-0.05-0.266-0.09-0.557-0.133-0.851c2.581,1.525,5.08,3.18,7.445,4.967c4.08,3.081,7.989,6.597,11.396,10.404
				c0.139,0.152,0.409-0.063,0.281-0.228c-1.458-1.918-2.908-3.792-4.557-5.562c-0.962-1.03-1.962-2.025-2.979-3.002
				c0.105,0.018,0.214,0.038,0.316,0.057c0.896,0.15,1.794,0.285,2.694,0.403c1.768,0.236,3.543,0.41,5.314,0.611
				C731.836,417.273,731.896,417.046,731.745,417.028z"/>
			<path fill="#1A2E35" d="M718.305,425.652L718.305,425.652c0-0.003,0-0.003,0-0.003c-0.027-0.221-0.063-0.441-0.107-0.658
				c-0.055-0.281-0.191-0.551-0.231-0.833c0-0.005-0.005-0.004-0.005-0.009c-0.396-1.699-0.727-3.41-1.035-5.131
				c-0.021-0.118-0.21-0.085-0.206,0.034c0.081,2.271,0.645,4.524,1.455,6.64c0.026,0.066,0.146,0.06,0.136-0.022
				C718.308,425.663,718.305,425.657,718.305,425.652z"/>
			<path fill="#1A2E35" d="M702.3,425.243c-0.003-0.071-0.06-0.104-0.112-0.107c-0.536-2.251-1.054-4.506-1.519-6.771
				c-0.243-1.192-0.493-2.384-0.722-3.579c-0.122-0.645-0.241-1.286-0.356-1.933c-0.099-0.556-0.146-1.148-0.411-1.651
				c-0.045-0.088-0.199-0.066-0.214,0.032c-0.16,1.067,0.28,2.362,0.48,3.413c0.231,1.239,0.474,2.48,0.746,3.715
				c0.555,2.508,1.184,5.008,1.892,7.477c0.04,0.141,0.265,0.109,0.256-0.04C702.325,425.612,702.313,425.427,702.3,425.243z"/>
			<path fill="#1A2E35" d="M730,409.704c-3.491-0.479-6.982-0.984-10.481-1.409c-0.146-0.017-0.209,0.207-0.058,0.229
				c3.489,0.516,6.987,0.947,10.484,1.407C730.093,409.952,730.151,409.724,730,409.704z"/>
		</g>
		<g>
			<path fill="#CEF2CF" d="M669.899,339.603c0,0-11.7-51.337,43.456-72.11C713.355,267.493,728.638,335.066,669.899,339.603z"/>
			<path fill="#1A2E35" d="M681.804,310.488c0.209-0.131,0.407-0.259,0.595-0.36c1.043-0.574,2.077-1.16,3.115-1.742l6.398-3.578
				c4.21-2.355,8.364-4.804,12.604-7.108c0.136-0.072,0.01-0.274-0.123-0.201c-4.245,2.309-8.564,4.471-12.839,6.729l-6.322,3.341
				c-0.86,0.455-1.724,0.909-2.583,1.365c1.84-3.489,3.807-6.911,5.966-10.205c2.883-4.396,6.04-8.586,9.33-12.684
				c0.15-0.188-0.095-0.429-0.272-0.26c-4.866,4.655-9.077,9.979-12.753,15.636c0.005-0.18,0.009-0.363,0.019-0.535
				c0.063-1.276,0.095-2.553,0.112-3.833c0.036-2.504-0.082-5.015-0.009-7.517c0.004-0.151-0.229-0.146-0.232,0.006
				c-0.105,2.465-0.4,4.925-0.541,7.389c-0.069,1.231-0.123,2.46-0.16,3.692c-0.021,0.666-0.083,1.424-0.059,2.153
				c-1.137,1.809-2.227,3.642-3.26,5.502c-1.839,3.312-3.481,6.779-4.929,10.337c-0.057-1.28-0.134-2.557-0.209-3.834
				c-0.165-2.812-0.508-5.61-0.625-8.421c-0.008-0.152-0.239-0.147-0.235,0.005c0.059,2.813-0.072,5.625,0.014,8.437
				c0.045,1.406,0.089,2.81,0.182,4.214c0.033,0.515,0.06,1.042,0.096,1.568c-1.756,4.607-3.17,9.348-4.165,14.107
				c-1.075,5.142-1.513,10.293-2.056,15.502c-0.004,0.038,0.057,0.035,0.059-0.001c0.484-4.643,1.663-9.335,2.929-13.823
				c0.683-2.423,1.402-4.833,2.178-7.225c2.297-1.082,4.493-2.429,6.71-3.658c2.299-1.275,4.617-2.522,6.924-3.787
				c4.597-2.523,9.193-5.092,13.941-7.322c0.138-0.066,0.013-0.263-0.122-0.2c-4.813,2.177-9.656,4.25-14.377,6.621
				c-2.352,1.181-4.665,2.441-6.955,3.733c-1.916,1.079-3.884,2.159-5.716,3.4c0.537-1.598,1.096-3.188,1.704-4.762
				C677.809,318.855,679.699,314.617,681.804,310.488z"/>
			<path fill="#1A2E35" d="M677.154,298.751c-0.011-0.151-0.245-0.145-0.235,0.006c0.199,2.928,0.298,5.856,0.607,8.776
				c0.02,0.163,0.266,0.163,0.259-0.006C677.685,304.591,677.369,301.679,677.154,298.751z"/>
			<path fill="#1A2E35" d="M703.601,308.555c-3.453,1.39-6.937,2.71-10.369,4.148c-0.098,0.04-0.057,0.195,0.046,0.157
				c3.484-1.305,6.925-2.728,10.392-4.08C703.808,308.726,703.74,308.498,703.601,308.555z"/>
			<path fill="#1A2E35" d="M708.841,284.878c-3.375,1.565-6.648,3.297-9.809,5.262c-0.16,0.1-0.009,0.346,0.152,0.251
				c3.201-1.872,6.459-3.666,9.78-5.313C709.102,285.011,708.977,284.815,708.841,284.878z"/>
		</g>
	</g>
	<g>
		<rect x="628.465" y="450.614" fill="#7B92CA" width="79.545" height="83.847"/>
		<g>
			<rect x="622.989" y="480.283" fill="#1A2E35" width="4.068" height="143.613"/>
			<rect x="708.984" y="480.283" fill="#1A2E35" width="4.068" height="143.613"/>
			<rect x="668.151" y="480.283" fill="#1A2E35" width="4.071" height="143.613"/>
			<rect x="625.024" y="529.085" fill="#1A2E35" width="85.993" height="11.609"/>
		</g>
	</g>
</g>
<g>
	<g>
		<path fill="#E9C938" d="M116.201,614.232c0,36.984,28.615,67.273,64.938,69.961v0.194h397.343
			c45.55,0,82.455-36.909,82.455-82.459c0-42.939-32.818-78.253-74.748-82.106c-2.375-74.633-63.615-134.434-138.831-134.434
			c-59.878,0-110.919,37.882-130.425,90.984c-11.095-5.604-23.592-8.721-36.868-8.721c-43.838,0-79.694,34.182-82.302,77.356
			c-3.699-0.621-7.515-0.933-11.408-0.933C147.619,544.078,116.201,575.495,116.201,614.232z"/>
	</g>
</g>
<g>
	<path fill="#EEE0FA" d="M116.201,614.232c0,36.984,28.615,67.273,64.938,69.961v0.194h397.343c45.55,0,82.455-36.909,82.455-82.459
		c0-42.939-32.818-78.253-74.748-82.106c-2.375-74.633-63.615-134.434-138.831-134.434c-59.878,0-110.919,37.882-130.425,90.984
		c-11.095-5.604-23.592-8.721-36.868-8.721c-43.838,0-79.694,34.182-82.302,77.356c-3.699-0.621-7.515-0.933-11.408-0.933
		C147.619,544.078,116.201,575.495,116.201,614.232z"/>
</g>
<g>
	<g>
		<path fill="#B9CEEB" d="M92.17,614.232c0,36.984,28.614,67.273,64.938,69.961v0.194H554.45c45.549,0,82.457-36.909,82.457-82.459
			c0-42.939-32.819-78.253-74.75-82.106c-2.374-74.633-63.616-134.434-138.831-134.434c-59.878,0-110.919,37.882-130.424,90.984
			c-11.095-5.604-23.592-8.721-36.867-8.721c-43.838,0-79.695,34.182-82.303,77.356c-3.698-0.621-7.514-0.933-11.408-0.933
			C123.587,544.078,92.17,575.495,92.17,614.232z"/>
	</g>
</g>
<g>
	<g>
		<path fill="#FFFFFF" d="M412.367,385.816v184.973h-71.626V412.587C361.067,397.528,385.667,387.898,412.367,385.816z"/>
		<polygon fill="#FFFFFF" points="449.162,570.797 303.946,570.797 376.554,660.986 		"/>
	</g>
</g>
<g>
	<g>
		<g>
			<g>
				<path fill="#FFFFFF" d="M175.72,171.341c0,5.2,4.021,9.457,9.128,9.835v0.027H240.7c6.404,0,11.591-5.188,11.591-11.59
					c0-6.037-4.613-11.001-10.507-11.542c-0.334-10.491-8.943-18.896-19.515-18.896c-8.417,0-15.591,5.324-18.333,12.789
					c-1.56-0.788-3.316-1.226-5.183-1.226c-6.162,0-11.202,4.804-11.568,10.874c-0.521-0.088-1.057-0.131-1.604-0.131
					C180.136,161.48,175.72,165.896,175.72,171.341z"/>
			</g>
		</g>
		<g>
			<g>
				<path fill="#CEF2CF" d="M220.728,139.235v26h-10.067v-22.238C213.517,140.88,216.975,139.527,220.728,139.235z"/>
				<polygon fill="#CEF2CF" points="225.901,165.236 205.489,165.236 215.694,177.913 				"/>
			</g>
		</g>
	</g>
</g>
<g>
	<g>
		<path fill="none" stroke="#1A2E35" stroke-miterlimit="10" d="M216.686,181.68c0,0,0.03,0.349,0.112,0.99"/>
		<path fill="none" stroke="#CEF2CF" stroke-miterlimit="10" d="M217.086,184.634c1.822,11.098,11.153,49.563,52.744,47.433"/>
		<path fill="none" stroke="#1A2E35" stroke-miterlimit="10" d="M270.841,232.007c0.331-0.021,0.663-0.046,0.997-0.073"/>
		<g>
			<polygon fill="#CEF2CF" points="266.132,235.376 265.731,234.459 271.733,231.835 265.449,229.987 265.731,229.028 
				274.651,231.651 			"/>
		</g>
	</g>
</g>
<g>
	<g>
		<g>
			<g>
				<path fill="#FFABA1" d="M147.911,465.838c4.916,1.827,150.134,4.085,155.646,0.804c0.659-0.368,1.904-31.651,1.904-31.651
					c26.046-53.52,51.548-101.774,51.548-101.774l-102.061-4.029l-41.441,87.753c0,0-57.874,27.085-60.038,28.7
					C147.825,449.874,142.996,464.032,147.911,465.838z"/>
				<path fill="#ECECEC" d="M147.905,465.833c4.93,1.834,150.14,4.094,155.657,0.801c0.659-0.355,1.905-31.646,1.905-31.646
					c3.223-6.64,6.443-13.171,9.594-19.563l-92.896-16.803l-8.65,18.315c0,0-57.884,27.091-60.038,28.692
					C147.834,449.867,142.993,464.035,147.905,465.833z"/>
				<g>
					<path fill="#A8A8A8" d="M146.583,466.915c5.071,1.797,151.102,4.349,156.734,0.926c2.141-1.287,3.19-11.545,4.409-37.271
						l-93.042-15.868c0,0-56.888,26.993-62.661,31.407C146.283,450.525,141.512,465.119,146.583,466.915z"/>
					<g>
						<g>
							<path fill="#1A2E35" d="M148.78,461.109c24.49-0.175,123.282,1.439,147.502,3.129c0.198,0.014,0.195,0.149-0.002,0.153
								c-24.27,0.704-123.046-1.712-147.508-2.881C148.255,461.487,148.262,461.113,148.78,461.109z"/>
							<path fill="#1A2E35" d="M161.508,441.02c5.811-0.134,11.436,2.724,14.541,6.233c2.983,3.375,5.503,8.093,5.241,13.165
								c-0.007,0.146-0.276,0.146-0.295-0.005c-1.231-9.604-9.797-18.17-19.493-19.086
								C161.307,441.308,161.31,441.024,161.508,441.02z"/>
							<path fill="#1A2E35" d="M204.607,419.932c9.8,0.035,21.099,3.691,27.048,11.813c0.23,0.313-0.222,0.638-0.509,0.481
								c-8.778-4.721-17.138-8.27-26.729-11.092C203.741,420.936,203.905,419.929,204.607,419.932z"/>
							<path fill="#1A2E35" d="M196.992,422.749c9.801,0.034,21.099,3.688,27.048,11.811c0.23,0.315-0.221,0.638-0.509,0.482
								c-8.777-4.719-17.138-8.271-26.729-11.09C196.126,423.752,196.29,422.745,196.992,422.749z"/>
							<path fill="#1A2E35" d="M189.376,425.564c9.801,0.034,21.1,3.691,27.049,11.812c0.23,0.315-0.221,0.638-0.509,0.482
								c-8.776-4.721-17.136-8.271-26.729-11.092C188.51,426.567,188.675,425.561,189.376,425.564z"/>
							<path fill="#1A2E35" d="M181.761,428.381c9.801,0.034,21.1,3.692,27.048,11.812c0.231,0.314-0.22,0.639-0.507,0.483
								c-8.777-4.721-17.138-8.271-26.729-11.092C180.896,429.385,181.059,428.379,181.761,428.381z"/>
							<path fill="#FFFFFF" d="M290.453,440.879c10.993,0.224,10.663,17.309-0.348,17.083
								C279.114,457.737,279.443,440.654,290.453,440.879z"/>
						</g>
						<path fill="#1A2E35" d="M195.006,407.976c5.168,6.915,13.149,11.352,20.04,16.299c0.715,0.513,1.555-0.063,1.776-0.763
							c0.161,0.015,0.319-0.063,0.31-0.271c-0.398-8.457-3.633-18.21-8.465-25.212c-2.983-4.323-9.161-8.451-14.192-4.427
							C189.717,397.408,191.989,403.939,195.006,407.976z M194.694,399.853c1.162-10.643,10.635-2.286,12.708,0.987
							c1.333,2.104,2.433,4.408,3.463,6.671c2.159,4.742,3.603,9.701,5.268,14.616c-3.237-2.64-6.67-4.975-10-7.49
							C202.164,411.638,194.055,405.72,194.694,399.853z"/>
						<path fill="#1A2E35" d="M252.037,417.598c-0.657-6.41-7.93-7.923-13.105-7.021c-8.381,1.465-17.604,5.996-23.914,11.636
							c-0.156,0.14-0.1,0.313,0.022,0.416c-0.344,0.647-0.165,1.649,0.702,1.8c8.36,1.446,17.117,4.029,25.671,2.867
							C246.407,426.618,252.657,423.659,252.037,417.598z M228.864,424.028c-4.128-0.611-8.202-1.422-12.352-1.881
							c4.672-2.257,9.221-4.704,14.116-6.489c2.335-0.853,4.75-1.681,7.186-2.205c3.787-0.817,16.388,0.08,9.612,8.37
							C243.69,426.393,233.785,424.758,228.864,424.028z"/>
					</g>
				</g>
			</g>
			<g>
				<path fill="#7B92CA" d="M322.574,405.421l-101.535-15.389c0,0,57.427-112.334,79.018-150.059
					c16.799-29.349,62.75-30.787,85.102,4.378c29.86,46.978,53.028,90.995,66.307,115.401l23.032,1.971l-4.97,37.627l-76.542,17.144
					c-29.32,3.509-49.899-48.689-50.376-47.807C340.891,371.862,322.574,405.421,322.574,405.421z"/>
				<g>
					<path fill="#1A2E35" d="M342.07,368.918c2.889-5.912,5.141-12.189,7.706-18.25c2.481-5.862,4.98-11.716,7.444-17.586
						c4.979-11.863,10.14-23.666,14.971-35.588c2.713-6.693,5.201-13.471,7.732-20.231c0.063-0.163,0.313-0.091,0.262,0.077
						c-1.959,6.391-4,12.758-6.139,19.09c0.567-1.094,1.134-2.187,1.729-3.25c1.627-2.914,3.311-5.793,5.001-8.674
						c0.065-0.112,0.23-0.007,0.17,0.105c-1.559,2.892-3.116,5.78-4.733,8.638c-0.805,1.422-1.685,2.829-2.535,4.249
						c-6.022,17.73-12.85,35.177-21.059,52.028c-3.229,6.626-7.008,12.971-10.24,19.584
						C342.276,369.319,341.969,369.127,342.07,368.918z"/>
					<path fill="#1A2E35" d="M320.305,387.371c4.895-7.555,16.553-30.418,20.729-38.322c8.446-15.987,16.174-32.302,23.481-48.838
						c4.128-9.341,7.992-18.77,11.815-28.239c0.024-0.064,0.127-0.035,0.104,0.032c-5.75,17.059-12.602,33.767-20.035,50.157
						c-7.445,16.41-31.463,60.618-35.786,65.399C320.457,387.732,320.177,387.566,320.305,387.371z"/>
					<path fill="#1A2E35" d="M383.337,284.601c8.746,15.623,17.689,31.138,26.476,46.74c4.439,7.885,8.879,15.77,13.272,23.681
						c2.066,3.724,4.073,7.49,6.218,11.169c2.028,3.479,4.451,6.361,8.023,8.324c3.933,2.159,8.458,3.193,12.731,4.443
						c4.938,1.444,9.845,2.999,14.806,4.362c0.226,0.061,0.122,0.406-0.104,0.347c-4.424-1.183-8.89-2.201-13.335-3.298
						c-4.038-0.995-8.188-1.836-12.102-3.264c-3.545-1.293-6.611-3.218-8.974-6.195c-2.534-3.193-4.336-6.935-6.281-10.493
						c-8.78-16.046-17.466-32.143-26.092-48.273c-4.903-9.167-9.763-18.361-14.72-27.5
						C383.229,284.593,383.307,284.549,383.337,284.601z"/>
					<path fill="#1A2E35" d="M324.88,391.173c-6.083-1.108-12.314-1.637-18.447-2.425c-6.151-0.792-12.303-1.586-18.454-2.389
						c-12.268-1.604-54.034-8.256-57.188-9.303c-0.199-0.064-0.13-0.391,0.07-0.396c2.988-0.097,30.339,3.549,36.474,4.45
						c12.27,1.807,24.457,3.98,36.682,6.045c3.492,0.589,6.969,1.252,10.456,1.869c3.479,0.619,6.962,1.367,10.467,1.816
						C325.151,390.871,325.093,391.213,324.88,391.173z"/>
				</g>
			</g>
		</g>
		<g>
			<g>
				<path fill="#FFABA1" d="M89.967,737.951c4.948,1.736,150.183,1.366,155.635-2.018c0.652-0.382,1.329-31.68,1.329-31.68
					c25.074-53.979,49.697-102.693,49.697-102.693l-102.116-2.179l-39.845,88.488c0,0-57.374,28.129-59.509,29.786
					C89.592,721.991,85.019,736.234,89.967,737.951z"/>
				<path fill="#ECECEC" d="M89.961,737.947c4.962,1.742,150.188,1.372,155.645-2.021c0.653-0.366,1.331-31.676,1.331-31.676
					c3.101-6.697,6.204-13.286,9.238-19.732l-93.185-15.116l-8.317,18.47c0,0-57.383,28.136-59.508,29.777
					C89.601,721.985,85.017,736.238,89.961,737.947z"/>
				<g>
					<path fill="#A8A8A8" d="M88.658,739.053c5.104,1.705,151.157,1.609,156.725-1.914c2.119-1.323,2.981-11.6,3.734-37.346
						l-93.314-14.18c0,0-56.389,28.02-62.081,32.539C88.061,722.671,83.555,737.35,88.658,739.053z"/>
					<g>
						<g>
							<path fill="#1A2E35" d="M90.75,733.209c24.482-0.617,123.287-0.795,147.535,0.456c0.197,0.009,0.198,0.146,0,0.154
								c-24.253,1.142-123.057,0.519-147.537-0.209C90.232,733.594,90.232,733.223,90.75,733.209z"/>
							<path fill="#1A2E35" d="M103.112,712.893c5.808-0.239,11.483,2.514,14.651,5.969c3.043,3.32,5.648,7.99,5.479,13.067
								c-0.004,0.146-0.274,0.15-0.295,0c-1.405-9.579-10.125-17.989-19.835-18.729
								C102.916,713.184,102.914,712.901,103.112,712.893z"/>
							<path fill="#1A2E35" d="M145.821,691.024c9.799-0.141,21.163,3.311,27.257,11.319c0.237,0.313-0.208,0.644-0.499,0.491
								c-8.861-4.561-17.285-7.957-26.926-10.604C144.974,692.046,145.12,691.036,145.821,691.024z"/>
							<path fill="#1A2E35" d="M138.258,693.979c9.8-0.143,21.164,3.31,27.258,11.319c0.235,0.313-0.208,0.643-0.5,0.492
								c-8.862-4.563-17.285-7.959-26.926-10.604C137.411,694.999,137.557,693.99,138.258,693.979z"/>
							<path fill="#1A2E35" d="M130.695,696.933c9.8-0.143,21.163,3.312,27.258,11.32c0.235,0.313-0.209,0.644-0.501,0.494
								c-8.86-4.563-17.284-7.96-26.925-10.607C129.847,697.954,129.994,696.944,130.695,696.933z"/>
							<path fill="#1A2E35" d="M123.132,699.889c9.8-0.143,21.163,3.309,27.258,11.318c0.236,0.311-0.209,0.642-0.5,0.493
								c-8.861-4.563-17.284-7.96-26.925-10.605C122.285,700.907,122.431,699.898,123.132,699.889z"/>
							<path fill="#FFFFFF" d="M232.033,710.415c10.995,0.024,10.975,17.11-0.039,17.087
								C221.001,727.476,221.02,710.391,232.033,710.415z"/>
						</g>
						<path fill="#1A2E35" d="M136.006,679.247c5.292,6.819,13.351,11.108,20.331,15.931c0.725,0.501,1.553-0.09,1.763-0.793
							c0.161,0.01,0.318-0.07,0.305-0.28c-0.552-8.444-3.962-18.14-8.92-25.053c-3.062-4.269-9.313-8.284-14.271-4.168
							C130.525,668.777,132.915,675.266,136.006,679.247z M135.546,671.129c0.969-10.662,10.592-2.479,12.723,0.758
							c1.371,2.079,2.513,4.364,3.584,6.607c2.244,4.703,3.777,9.635,5.531,14.519c-3.284-2.581-6.759-4.854-10.134-7.309
							C143.228,682.777,135.013,677.008,135.546,671.129z"/>
						<path fill="#1A2E35" d="M193.2,687.832c-0.772-6.396-8.072-7.776-13.23-6.779c-8.353,1.613-17.491,6.313-23.698,12.067
							c-0.152,0.14-0.095,0.311,0.03,0.413c-0.332,0.654-0.135,1.652,0.734,1.787c8.385,1.294,17.188,3.718,25.719,2.401
							C187.735,696.954,193.931,693.885,193.2,687.832z M170.148,694.683c-4.139-0.534-8.227-1.271-12.384-1.655
							c4.629-2.342,9.133-4.87,13.996-6.744c2.32-0.894,4.72-1.769,7.144-2.335c3.772-0.888,16.387-0.219,9.763,8.192
							C185.015,696.776,175.082,695.321,170.148,694.683z"/>
					</g>
				</g>
			</g>
			<g>
				<g>
					<path fill="#7B92CA" d="M161.557,669.619l110.297-0.81c0,0,57.719-145.272,64.431-152.46
						c4.53-4.854,34.888-10.256,71.145-18.206l0.196-0.043c13.394-2.939,27.592-6.228,41.572-9.994
						c36.389-9.714,71.385-22.475,87.325-40.113c33.341-36.847,0-103.439,0-103.439H442.6c0,0-2.328,28.985,4.857,46.732
						c0,0-69.099,10.148-127.286,29.029c-32.97,10.69-62.434,24.216-73.845,40.285C229.617,484.188,161.557,669.619,161.557,669.619
						z"/>
					<g>
						<path fill="#1A2E35" d="M174.008,653.075c12.783-0.936,25.564-1.272,38.378-1.576c12.8-0.304,25.61-0.44,38.413-0.3
							c7.219,0.077,14.428,0.49,21.646,0.59c0.228,0.004,0.241,0.352,0.011,0.356c-6.447,0.143-12.881,0.62-19.326,0.796
							c-6.351,0.173-12.703,0.323-19.055,0.431c-12.803,0.211-25.608,0.273-38.412,0.416c-7.218,0.083-14.424-0.041-21.64-0.231
							C173.714,653.548,173.698,653.098,174.008,653.075z"/>
						<path fill="#1A2E35" d="M488.696,358.257c0.133,0.436,0.308,0.855,0.523,1.255c0.048,0.095,0.008,0.173-0.055,0.218
							c1.239,3.84,1.75,7.935,2.943,11.788c1.296,4.186,3.504,7.664,7.137,10.185c7.276,5.054,16.044,7.348,24.513,9.449
							c0.274,0.066,0.187,0.461-0.075,0.471c-4.816,0.141-9.865-0.832-14.464-2.216c-4.25-1.279-8.652-3.113-12.188-5.845
							c-3.537-2.734-5.849-6.207-6.99-10.533c-0.585-2.216-0.881-4.508-1.218-6.773c-0.386-2.579-0.871-5.307-0.851-7.921
							C487.978,357.919,488.59,357.859,488.696,358.257z"/>
						<path fill="#1A2E35" d="M433.646,385.025c5.793,1.404,11.428,4.097,16.886,6.451c0.088,0.039,0.175,0.08,0.264,0.117
							c-0.13-0.324-0.198-0.685-0.253-1.021c-0.065-0.406-0.13-0.813-0.195-1.219c-0.067-0.424-0.096-0.854-0.138-1.279
							c-0.022-0.215-0.043-0.432-0.063-0.648c-0.004-0.023-0.006-0.049-0.01-0.074c-1.316-0.07-2.639-0.666-3.625-1.856
							c-1.255-1.511-1.767-3.455-2.259-5.313c-0.636-2.4-1.217-4.819-1.743-7.246c-0.586-2.701-1.08-5.421-1.51-8.15
							c-0.422-2.663-0.924-5.381-0.928-8.085c-0.002-0.435,0.647-0.499,0.755-0.083c0.631,2.484,0.914,5.062,1.387,7.581
							c0.476,2.532,1.019,5.048,1.591,7.559c0.574,2.512,1.207,5.01,1.896,7.494c0.609,2.199,1.234,5.409,3.795,6.137
							c5.268,1.498,2.904-10.337,2.671-12.65c-0.537-5.36-0.867-10.829-1.806-16.136c-0.038-0.223,0.293-0.312,0.346-0.086
							c1.142,4.881,2.457,9.674,3.323,14.624c0.425,2.42,0.731,4.868,0.991,7.311c0.223,2.065,0.494,4.366-0.48,6.292
							c-0.773,1.525-2.082,2.367-3.485,2.576c0.058,0.184,0.111,0.367,0.168,0.552c0.117,0.392,0.25,0.782,0.348,1.181
							c0.095,0.397,0.188,0.799,0.281,1.196c0.104,0.438,0.313,1.017,0.174,1.459c-0.046,0.138-0.146,0.237-0.264,0.317
							c2.253,0.977,4.505,1.951,6.733,2.984c2.683,1.243,5.643,2.293,8.099,3.938c0.303,0.139,0.062,0.562-0.224,0.499
							c-2.899-0.619-5.723-2.013-8.49-3.072c-2.818-1.077-5.604-2.229-8.394-3.384c-5.379-2.228-11.122-4.368-16.06-7.48
							C433.166,385.344,433.356,384.957,433.646,385.025z"/>
						<path fill="#1A2E35" d="M280.169,599.729c5.817-14.395,11.949-28.661,18.464-42.755c6.528-14.123,13.378-28.095,20.569-41.895
							c3.123-5.993,5.977-12.063,12.255-15.297c2.844-1.465,5.935-2.383,9.011-3.211c3.66-0.985,7.331-1.923,11.004-2.852
							c29.91-7.557,60.151-13.792,89.863-22.121c14.858-4.167,29.581-8.858,43.958-14.479c11.659-4.558,23.316-9.854,33.02-17.91
							c4.628-3.843,8.75-8.307,11.846-13.486c3.687-6.171,12.293-22.941-0.459-73.723c-0.055-0.223,0.251-0.393,0.313-0.173
							c10.165,36.175,8.02,55.868,6.162,63.049c-1.588,6.136-4.437,11.851-8.342,16.837c-7.521,9.604-18.127,16.269-29.007,21.469
							c-12.914,6.175-26.626,10.818-40.269,15.087c-29.617,9.271-59.988,15.78-90.162,22.93c-7.482,1.772-14.956,3.588-22.407,5.497
							c-6.658,1.707-14.442,3.052-19.214,8.474c-2.375,2.698-3.929,6.033-5.569,9.198c-1.792,3.451-3.564,6.915-5.317,10.389
							c-3.589,7.109-7.107,14.256-10.546,21.438c-13.565,28.354-25.963,57.279-37.04,86.696c-1.372,3.644-2.733,7.29-4.137,10.922
							c-0.105,0.273-0.537,0.152-0.443-0.134C268.603,628.832,274.314,614.215,280.169,599.729z"/>
						<path fill="#1A2E35" d="M275.157,437.795c4.593-2.753,23.666-12.57,33.743-15.996c10.548-3.581,21.312-6.597,32.062-9.525
							c22.109-6.022,44.512-11.04,67.078-15.099c6.425-1.155,12.862-2.247,19.309-3.272c6.277-0.995,12.637-2.045,18.992-2.334
							c0.229-0.01,0.257,0.334,0.043,0.387c-5.583,1.375-11.323,2.234-16.993,3.201c-5.603,0.957-11.194,1.963-16.776,3.031
							c-11.164,2.143-22.289,4.474-33.373,6.988c-21.944,4.981-43.922,10.428-65.373,17.208
							c-11.413,3.608-28.62,11.903-38.257,16.223C275.056,438.854,274.645,438.102,275.157,437.795z"/>
					</g>
					<g>
						<path fill="#FFABA1" d="M347.049,474.951c-4.742-2.935-9.359-6.119-14.276-8.759c-2.388-1.278-4.863-2.411-7.122-3.914
							c-2.322-1.544-4.589-3.186-6.867-4.791c-4.467-3.151-9.044-6.182-13.101-9.867c-4.189-3.806-8.376-7.608-13.009-10.879
							c-0.178-0.126,0.012-0.416,0.192-0.291c4.603,3.188,9.542,5.851,14.516,8.396c3.444,1.761,6.655,3.923,9.827,6.137
							c-1.938-1.443-3.819-2.956-5.572-4.627c-2.892-2.761-5.77-5.583-8.856-8.126c-0.164-0.138,0.006-0.414,0.192-0.294
							c3.212,2.114,6.651,3.948,10.079,5.688c0.499,0.252,0.983,0.527,1.474,0.795c-1.112-0.806-2.21-1.628-3.26-2.503
							c-1.532-1.276-2.997-2.623-4.518-3.913c-0.689-0.586-1.38-1.166-2.089-1.727c-0.104-0.081-0.221-0.164-0.333-0.245
							c-0.014,0-0.024,0.01-0.04,0.005c-0.815-0.273-1.388-0.769-1.734-1.563c-0.051-0.115,0.072-0.21,0.175-0.158
							c3.371,1.739,6.829,3.337,10.21,5.063c3.434,1.75,6.668,3.932,9.945,5.955c6.416,3.963,12.633,8.281,18.075,13.533
							c0.479,0.463-0.135,1.396-0.749,1.139c-2.997-1.261-5.872-2.755-8.685-4.354c0.154,0.123,0.316,0.235,0.47,0.36
							c2.928,2.414,5.633,5.13,8.415,7.721c0.146,0.136-0.041,0.411-0.222,0.338c-3.422-1.425-6.935-2.785-10.21-4.507
							c-1.059-0.556-2.084-1.18-3.097-1.824c0.399,0.285,0.804,0.563,1.2,0.853c2.147,1.577,4.066,3.451,6.031,5.247
							c4.177,3.814,8.864,7.071,13.304,10.563C347.737,474.651,347.407,475.173,347.049,474.951z"/>
						<path fill="#FFABA1" d="M327.218,435.354c3.312,1.829,6.477,3.932,9.818,5.701c3.288,1.742,6.48,3.485,9.359,5.874
							c5.771,4.785,10.629,10.547,16.478,15.246c0.169,0.138-0.037,0.419-0.208,0.281c-5.837-4.689-12.588-7.939-18.776-12.109
							c-3.096-2.085-5.701-4.628-8.398-7.184c-2.739-2.596-5.748-4.895-8.604-7.359
							C326.619,435.572,326.917,435.188,327.218,435.354z"/>
						<path fill="#FFABA1" d="M282.967,443.07c6.361,2.922,13.037,5.12,19.358,8.121c3,1.425,5.883,3.325,8.484,5.381
							c2.851,2.253,5.402,4.834,8.398,6.914c0.178,0.123,0.011,0.41-0.179,0.299c-3.09-1.785-6.422-2.893-9.69-4.272
							c-3.139-1.321-6.29-2.923-9.139-4.793c-5.809-3.813-11.298-8.019-17.46-11.274C282.497,443.314,282.725,442.96,282.967,443.07
							z"/>
					</g>
				</g>
			</g>
		</g>
	</g>
	<g>
		<g>
			<g>
				<path fill="#FFABA1" d="M480.454,245.565c-8.286,33.702-28.361,86.06-46.102,85.781c-16.192-0.257-52.314-28.969-67.439-38.375
					c-15.221-9.465,18.808-46.484,27.481-40.483c13.439,9.295,33.56,25.888,36.958,24.798c4.238-1.355,9.625-11.775,33.78-42.501
					C475.018,222.216,483.981,231.22,480.454,245.565z"/>
				<g>
					<path fill="#FFABA1" d="M378.125,238.203c-7.134-2.522-15.111-5.986-23.037-5.836c-7.926,0.149-14.506,10.612-14.506,13.608
						c0,2.997,2.992,21.684,10.917,21.684c7.926,0,3.142-14.355,3.441-16.001c0.298-1.644,0.597-3.748,2.094-3.594
						c1.494,0.155,27.664,12.567,27.664,12.567L378.125,238.203z"/>
					<g>
						<path fill="#FFABA1" d="M377.62,239.295c-0.45,0-21.686-8.374-29.611-8.224c-7.926,0.149-14.505,10.613-14.505,13.608
							c0,2.997,2.99,21.684,10.917,21.684c7.925,0,3.139-14.356,3.438-16.001s0.599-3.749,2.094-3.594
							c1.497,0.154,27.667,12.567,27.667,12.567V239.295L377.62,239.295z"/>
						<path fill="#1A2E35" d="M347.109,265.359c0.979-1.253,1.146-3.139,1.319-4.683c0.19-1.688,0.05-3.403-0.288-5.062
							c-0.294-1.442-0.909-2.877-0.963-4.359c-0.047-1.371,0.449-2.999,1.105-4.19c0.611-1.111,1.775-0.731,2.775-0.378
							c1.475,0.52,2.912,1.254,4.311,1.948c1.515,0.75,3.014,1.536,4.516,2.312c1.544,0.798,3.171,1.539,4.603,2.529
							c0.105,0.074,0.037,0.263-0.098,0.216c-1.387-0.481-2.694-1.186-4.021-1.808c-1.505-0.706-3.015-1.401-4.533-2.078
							c-1.419-0.63-2.807-1.338-4.234-1.945c-0.505-0.215-1.514-0.755-2.087-0.626c-0.607,0.136-0.904,1.622-1.041,2.105
							c-0.422,1.52-0.144,2.806,0.275,4.283c0.402,1.421,0.705,2.87,0.82,4.344c0.106,1.358,0.062,2.813-0.33,4.129
							c-0.376,1.265-1.235,2.286-1.89,3.41C347.256,265.666,347,265.499,347.109,265.359z"/>
					</g>
					<g>
						<path fill="#FFABA1" d="M402.76,260.099c0,0-21.965-20.018-26.536-23.993c-9.173-7.976-47.804-23.756-53.188-24.326
							c-5.383-0.57-7.327,10.468,18.893,21.933c13.818,6.042,16.278,13.958,16.016,18.344c-0.265,4.386-4.451,12.561-11.828,12.362
							c-7.377-0.2-12.163-10.966-18.941-12.164c-6.78-1.196-2.303,11.229,2.481,18.407c4.786,7.177,13.469,13.097,19.849,15.49
							c6.381,2.393,26.128,10.9,26.128,10.9L402.76,260.099z"/>
						<path fill="#1A2E35" d="M336.962,259.231c2.776,2.152,5.924,4.938,9.58,5.077c3.779,0.143,6.236-2.312,7.99-5.391
							c1.769-3.105,2.796-6.647,1.937-10.202c-0.773-3.203-2.682-6.032-5.055-8.275c-2.938-2.775-6.411-4.837-9.995-6.651
							c-0.16-0.081-0.019-0.314,0.147-0.239c3.396,1.517,13.955,5.84,16.065,15.166c0.864,3.809-0.281,7.208-2.055,10.396
							c-1.634,2.936-4.014,5.769-7.591,6.059c-4.359,0.353-8.111-3.191-11.242-5.837
							C336.605,259.216,336.815,259.118,336.962,259.231z"/>
					</g>
				</g>
			</g>
			<g>
				<path fill="#F6E8D4" d="M402.76,257.301l-32.857,51c0,0,52.128,29.205,66.875,24.497c14.747-4.707,37.025-46.984,46.198-84.083
					c9.176-37.099-13.599-22.888-22.438-11.424s-28.02,37.967-29.065,37.62C430.426,274.562,402.76,257.301,402.76,257.301z"/>
				<path fill="#FFFFFF" d="M388.521,279.403c2.116,0.755,4.193,1.594,6.206,2.601c4.363,2.182,8.412,4.949,12.165,8.032
					c1.008,0.839,2.016,1.699,2.999,2.602c0.125,0.104,0.252,0.209,0.378,0.335c6.082,5.495,11.515,11.641,16.946,17.701
					c5.41,6.041,10.863,12.038,16.862,17.408c-0.294,0.273-0.607,0.546-0.901,0.776c-6.02-5.411-11.494-11.367-16.884-17.345
					c-5.663-6.25-11.221-12.584-17.471-18.162c-0.126-0.125-0.271-0.231-0.399-0.336c-0.754-0.691-1.53-1.363-2.326-2.013
					c-3.692-3.042-7.655-5.769-11.914-7.886c-2.033-1.049-4.174-1.908-6.335-2.664L388.521,279.403z M375.854,299.055
					c2.748,2.915,5.41,5.893,8.096,8.851c4.403,4.886,8.872,9.772,13.653,14.303c1.093,0.502,2.183,0.985,3.271,1.469
					c-5.662-5.161-10.864-10.865-16.002-16.612c-2.433-2.704-4.846-5.432-7.341-8.116c-0.146-0.168-0.294-0.314-0.462-0.483
					c-0.147-0.167-0.313-0.356-0.482-0.524l-0.377,0.566l-0.335,0.524L375.854,299.055z M375.875,299.034
					c0.565,0,1.109-0.02,1.656-0.083c2.769-0.125,5.494-0.398,8.221-0.755c7.825-1.049,15.479-2.852,23.071-4.844
					c0.481-0.105,0.966-0.231,1.446-0.378c1.26-0.315,2.518-0.65,3.755-0.985c9.313-2.497,18.624-5.161,28.146-6.419
					c4.782-0.629,9.584-0.88,14.366-0.545c4.405,0.315,8.769,1.134,12.963,2.497c0.125-0.272,0.251-0.545,0.376-0.817
					c-4.301-1.384-8.768-2.202-13.276-2.476c-4.864-0.293-9.709,0.021-14.513,0.691c-9.585,1.323-18.896,4.071-28.188,6.608
					c-1.344,0.376-2.663,0.732-4.007,1.111c-0.481,0.125-0.983,0.251-1.469,0.376c-7.485,2.014-15.037,3.818-22.713,4.719
					c-2.873,0.378-5.747,0.63-8.642,0.734c-0.293,0.021-0.566,0.042-0.859,0.042L375.875,299.034z M459.705,238.358
					c5.473,2.181,11.011,4.279,16.693,5.894c0.169,0.063,0.335,0.125,0.504,0.167c1.279,0.356,2.559,0.692,3.838,1.006
					c0.942,0.231,1.909,0.441,2.874,0.609c0.082-0.419,0.169-0.797,0.251-1.195c-0.943-0.188-1.889-0.378-2.831-0.608
					c-1.007-0.253-1.992-0.504-2.998-0.798c-0.169-0.021-0.337-0.083-0.504-0.125c-5.77-1.636-11.391-3.775-17.009-5.998
					C460.271,237.646,459.998,238.001,459.705,238.358z M431.58,274.873c2.41-0.65,4.76-1.448,7.047-2.413
					c4.488-1.845,8.724-4.256,12.73-6.963c8.031-5.432,15.186-11.953,22.419-18.331c1.051-0.922,2.077-1.845,3.126-2.747
					c0.377-0.335,0.755-0.671,1.134-0.986c2.285-1.992,4.592-3.964,6.939-5.872c0.021-0.168,0.044-0.335,0.044-0.503
					c-2.539,2.013-5.013,4.11-7.487,6.25c-0.378,0.293-0.755,0.629-1.134,0.944c-0.985,0.86-1.95,1.699-2.937,2.559
					c-7.278,6.334-14.451,12.815-22.462,18.142c-4.007,2.644-8.223,4.992-12.668,6.775c-1.784,0.732-3.606,1.363-5.453,1.886
					C432.251,274.328,431.788,274.789,431.58,274.873z M392.653,272.985c1.026,0.336,2.055,0.628,3.103,0.922
					c9.335,2.643,19.192,3.587,28.839,2.349c2.308-0.294,4.595-0.755,6.858-1.341c-0.126-0.064-0.502-0.274-1.111-0.629
					c-1.929,0.46-3.879,0.817-5.851,1.047c-9.522,1.133-19.234,0.105-28.441-2.517c-0.923-0.252-1.846-0.525-2.747-0.84
					L392.653,272.985z"/>
				<path opacity="0.1" enable-background="new    " d="M406.642,326.111c11.87,4.844,23.531,8.367,29.613,6.837
					c0.19-0.042,0.356-0.105,0.525-0.147c14.743-4.719,37.018-46.98,46.204-84.082c1.636-6.606,2.243-11.598,2.116-15.248
					c0-0.188-0.021-0.356-0.021-0.544c-0.021-0.294-0.042-0.588-0.084-0.881c0-0.126-0.021-0.231-0.041-0.356
					c-0.021-0.273-0.063-0.545-0.104-0.797L406.642,326.111z"/>
				<path fill="#1A2E35" d="M388.247,303.287c1.038-1.812,2.091-3.613,3.15-5.411c2.118-3.602,14.845-24.959,19.87-31.447
					c0.135-0.173,0.396,0.024,0.308,0.212c-3.504,7.464-16.693,28.433-18.892,31.888c-1.123,1.768-2.251,3.533-3.395,5.287
					c-1.152,1.767-2.507,3.391-3.649,5.158c-0.111,0.174-0.397,0.038-0.291-0.148C386.391,307.026,387.21,305.096,388.247,303.287z"
					/>
			</g>
		</g>
		<g>
			<g>
				<path fill="#F6E8D4" d="M555,390.439c-0.31,0.342-114.771-35.557-115.962-36.927c-1.665-1.933,17.283-108.548,31.058-126.138
					c2.948-3.761,22.06-10.727,31.763,0.096C539.623,269.583,556.104,389.206,555,390.439z"/>
			</g>
			<path fill="#FFFFFF" d="M442.737,326.865c1.553,1.469,3.146,2.874,4.804,4.236c5.2,4.342,10.884,8.138,16.986,11.054
				c0.314,0.145,0.608,0.292,0.902,0.439c2.244,1.029,4.529,1.951,6.88,2.727c4.529,1.553,9.247,2.497,14.03,2.749
				c4.782,0.271,9.585-0.106,14.302-0.944c8.938-1.594,17.577-4.636,26.177-7.635c0.439-0.147,0.858-0.294,1.301-0.441
				c0.063-0.02,0.126-0.041,0.188-0.063c5.58-1.929,11.199-3.817,16.903-5.37c0.021,0.126,0.065,0.253,0.085,0.379
				c-5.683,1.552-11.283,3.48-16.818,5.453c-0.421,0.146-0.861,0.293-1.28,0.461c-8.661,3.041-17.345,6.186-26.427,7.865
				c-4.761,0.88-9.627,1.32-14.471,1.09c-4.847-0.21-9.67-1.133-14.283-2.664c-2.791-0.901-5.474-1.993-8.116-3.25
				c-0.294-0.126-0.609-0.272-0.903-0.42c-5.788-2.832-11.22-6.438-16.189-10.549c-1.469-1.217-2.896-2.454-4.301-3.754
				C442.568,327.788,442.653,327.326,442.737,326.865z M439.78,344.882c1.385,0.188,2.767,0.314,4.174,0.376
				c4.844,0.231,9.71-0.209,14.45-1.09c1.846-0.336,3.691-0.755,5.495-1.216c0.523-0.105,1.025-0.231,1.53-0.357
				c7.025-1.867,13.864-4.382,20.68-6.773c9.081-3.209,18.246-6.292,27.748-7.907c0.965-0.168,1.93-0.315,2.914-0.44
				c0.482-0.083,0.966-0.147,1.447-0.188c8.075-1.006,16.296-0.88,24.31,0.566c0.46,0.063,0.923,0.147,1.383,0.251
				c-0.041-0.23-0.104-0.482-0.188-0.734c-0.356-0.083-0.713-0.146-1.069-0.208c-8.18-1.405-16.569-1.427-24.789-0.316
				c-0.483,0.064-0.966,0.126-1.448,0.19c-0.881,0.146-1.763,0.272-2.642,0.44c-9.501,1.74-18.709,4.74-27.813,7.908
				c-7.089,2.431-14.177,4.969-21.435,6.774c-0.502,0.145-1.007,0.272-1.531,0.376c-1.55,0.377-3.123,0.692-4.696,0.986
				c-4.72,0.817-9.543,1.216-14.304,0.944c-1.365-0.084-2.749-0.21-4.091-0.42C439.864,344.336,439.822,344.608,439.78,344.882z
				 M451.316,284.898c1.737-0.042,3.48,0,5.221,0.125c4.781,0.336,9.521,1.28,14.031,2.853c9.039,3.168,17.303,8.347,24.435,14.745
				c7.151,6.397,13.19,13.947,19.128,21.518c0.754,0.966,1.51,1.931,2.285,2.896c0.104,0.146,0.21,0.292,0.356,0.44
				c3.209,4.089,6.479,8.18,10.046,12.018c0.104,0.146,0.229,0.294,0.378,0.42c1.931,2.097,3.963,4.089,6.104,5.997
				c3.647,3.209,7.613,6.104,11.996,8.285c1.51,0.734,3.063,1.446,4.656,2.055c-0.084-0.461-0.188-0.944-0.272-1.426
				c-1.301-0.524-2.581-1.112-3.838-1.72c-4.257-2.118-8.138-4.97-11.724-8.138c-1.974-1.74-3.84-3.585-5.643-5.515
				c-0.128-0.126-0.253-0.273-0.356-0.4c-3.502-3.731-6.711-7.738-9.899-11.765c-0.104-0.147-0.229-0.294-0.354-0.441
				c-0.901-1.153-1.825-2.327-2.748-3.48c-5.979-7.551-12.103-15.142-19.359-21.582c-7.234-6.481-15.687-11.662-24.895-14.765
				c-4.593-1.574-9.416-2.497-14.264-2.791c-1.72-0.105-3.417-0.126-5.116-0.063C451.42,284.416,451.357,284.668,451.316,284.898z
				 M463.878,239.994c4.11,1.574,8.285,3.042,12.521,4.258c0.169,0.063,0.335,0.125,0.504,0.167
				c1.279,0.356,2.559,0.692,3.838,1.006c4.719,1.112,9.563,1.825,14.45,1.867c2.434,0.042,4.889-0.147,7.299-0.461
				c1.195-0.168,2.392-0.419,3.588-0.65c1.173-0.231,2.391-0.378,3.564-0.713c1.404-0.335,2.789-0.692,4.152-1.091
				c-0.169-0.335-0.355-0.67-0.565-0.985c-1.279,0.356-2.561,0.67-3.839,0.964c-2.35,0.503-4.72,0.859-7.066,1.279
				c-2.372,0.294-4.741,0.483-7.133,0.441c-4.76-0.042-9.5-0.756-14.156-1.846c-1.007-0.253-1.992-0.504-2.998-0.798
				c-0.169-0.021-0.337-0.083-0.504-0.125c-4.468-1.258-8.853-2.832-13.215-4.509C464.172,239.176,464.025,239.575,463.878,239.994z
				 M457.188,261.261c5.769-4.426,11.157-9.291,16.59-14.095c1.051-0.922,2.078-1.845,3.126-2.747
				c0.377-0.335,0.755-0.671,1.134-0.986c5.851-5.096,11.849-10.025,18.35-14.219c1.47-0.965,2.957-1.888,4.47-2.769
				c-0.126-0.125-0.253-0.23-0.378-0.356c-1.47,0.861-2.915,1.783-4.343,2.727c-6.563,4.363-12.646,9.354-18.603,14.493
				c-0.378,0.293-0.755,0.629-1.134,0.944c-0.985,0.86-1.95,1.699-2.937,2.559c-5.264,4.593-10.487,9.249-16.002,13.486
				C457.377,260.611,457.292,260.947,457.188,261.261z"/>
		</g>
		<g>
			<g>
				<path fill="#FFABA1" d="M511.582,261.479c-5.854,34.357-34.699,98.62-53.489,104.669
					c-21.754,7.002-97.274-17.139-112.095-27.993c-5.898-4.319,25.544-42.367,32.879-39.668
					c30.754,11.313,58.014,17.12,61.973,14.43c6.081-4.133,30.892-39.674,47.018-61.724
					C508.125,223.49,514.208,246.062,511.582,261.479z"/>
				<g>
					<g>
						<g>
							<path fill="#FFABA1" d="M347.944,339.187c-3.36-1.198-26.496-17.989-33.313-25.87c-4.35-5.027-11.84-13.724-17.784-27.574
								c-6.861-15.983-10.089-27.681-8.438-32.923c1.919-6.087,2.467-7.075,18.461,19.452c9.048,15.01,17.676,16.697,25.16,16.556
								c30.677-0.578,53.137,11.884,53.137,11.884S360.862,343.792,347.944,339.187z"/>
						</g>
					</g>
					<g>
						<path fill="#1A2E35" d="M309.658,226.522l38.654,49.805c1.067,1.375,0.69,2.893-0.84,3.384l-27.396,8.805
							c-1.529,0.493-3.639-0.227-4.706-1.602l-38.655-49.806c-1.069-1.378-0.692-2.892,0.836-3.382l27.397-8.805
							C306.48,224.429,308.589,225.145,309.658,226.522z"/>
						<g>
							<path fill="#375A64" d="M307.328,224.157l-27.398,8.806c-1.53,0.491-1.905,2.004-0.836,3.383l38.655,49.806
								c1.067,1.374,3.177,2.094,4.706,1.603l27.397-8.806c1.532-0.491,1.908-2.009,0.841-3.383l-38.655-49.806
								C310.968,224.379,308.859,223.664,307.328,224.157z M347.765,274.579c1.017,1.313,0.729,2.73-0.643,3.17l-24.512,7.876
								c-1.374,0.443-3.31-0.26-4.326-1.571l-35.995-46.377c-2.073-2.67-1.063-3.158,0.313-3.6l4.908-1.577
								c0.286-0.092,0.741,0.119,1.016,0.475l0.119,0.153c0.646,0.831,1.164,0.668,1.798,0.465l11.354-3.65
								c0.639-0.205,1.146-0.372,0.501-1.203l-0.119-0.153c-0.275-0.354-0.268-0.715,0.022-0.808l4.911-1.579
								c1.372-0.44,2.759-0.442,4.657,2.003L347.765,274.579z"/>
							<path fill="#1A2E35" d="M296.862,230.231l-3.098,0.995c-0.105,0.034-0.25-0.014-0.323-0.107l0,0
								c-0.071-0.094-0.045-0.196,0.06-0.231l3.098-0.995c0.105-0.034,0.25,0.015,0.322,0.107l0,0
								C296.995,230.094,296.968,230.197,296.862,230.231z"/>
							<line fill="none" x1="316.002" y1="281.115" x2="315.909" y2="281.145"/>
							<g>
								<path fill="#FFFFFF" d="M311.77,228.203l35.995,46.376c1.019,1.312,0.729,2.73-0.643,3.169l-24.512,7.877
									c-1.374,0.443-3.309-0.261-4.326-1.571l-35.995-46.377c-2.073-2.67-1.063-3.158,0.313-3.6l4.909-1.578
									c0.285-0.091,0.74,0.12,1.015,0.475l0.12,0.154c0.645,0.831,1.163,0.668,1.796,0.465l11.354-3.65
									c0.639-0.205,1.146-0.372,0.502-1.203l-0.12-0.153c-0.275-0.354-0.268-0.715,0.022-0.808l4.911-1.579
									C308.484,225.759,309.872,225.756,311.77,228.203z"/>
								<path fill="#CEF2CF" d="M311.77,228.203l2.687,3.46l-29.481,9.474l-2.686-3.46c-2.073-2.67-1.062-3.158,0.314-3.6
									l4.909-1.578c0.285-0.091,0.741,0.12,1.017,0.475l0.119,0.152c0.645,0.832,1.164,0.669,1.795,0.466l11.355-3.648
									c0.638-0.207,1.148-0.374,0.502-1.205l-0.119-0.153c-0.275-0.355-0.268-0.715,0.022-0.808l4.91-1.579
									C308.484,225.759,309.871,225.757,311.77,228.203z"/>
								<g>
									<g id="u5Zjqx_2_">
										<g>
											<path fill="#FFFFFF" d="M287.471,233.813c-0.003,0.019-0.009,0.038-0.014,0.058c-0.002,0.01-0.006,0.021-0.009,0.032
												c-0.212-0.067-0.41-0.078-0.587-0.021c-0.176,0.057-0.284,0.164-0.328,0.315c-0.014-0.005-0.029-0.01-0.042-0.016
												c-0.027-0.009-0.054-0.018-0.08-0.026c0-0.001-0.001-0.001-0.002-0.001l0,0c0-0.001,0.001-0.002,0.002-0.004
												c0.006-0.022,0.014-0.044,0.022-0.065c0.019-0.046,0.046-0.086,0.078-0.123c0.04-0.044,0.085-0.083,0.143-0.115
												c0.026-0.014,0.055-0.027,0.083-0.04c0.009-0.005,0.076-0.027,0.079-0.027c0.022-0.005,0.043-0.011,0.066-0.016
												c0.062-0.013,0.127-0.02,0.196-0.02c0.049,0,0.1,0.004,0.151,0.011c0.054,0.008,0.106,0.018,0.16,0.033
												c0.027,0.007,0.054,0.016,0.081,0.023L287.471,233.813L287.471,233.813z"/>
											<path fill="#FFFFFF" d="M286.786,234.279c-0.041-0.014-0.083-0.027-0.125-0.042c0.027-0.101,0.093-0.18,0.2-0.233
												c0.16-0.078,0.35-0.08,0.563-0.013c-0.009,0.031-0.016,0.06-0.024,0.091c-0.141-0.046-0.273-0.053-0.394-0.014
												C286.888,234.107,286.816,234.179,286.786,234.279z"/>
											<path fill="#FFFFFF" d="M287.376,234.172c-0.008,0.03-0.015,0.06-0.024,0.09c-0.071-0.023-0.14-0.027-0.201-0.007
												c-0.062,0.02-0.098,0.058-0.113,0.109c-0.041-0.014-0.083-0.028-0.125-0.042
												C286.947,234.174,287.154,234.097,287.376,234.172z"/>
										</g>
										<path fill="#FFFFFF" d="M287.309,234.351c0.026,0.033,0.018,0.07-0.02,0.082c-0.037,0.011-0.087-0.005-0.114-0.038
											c-0.025-0.033-0.016-0.069,0.021-0.081C287.233,234.302,287.284,234.319,287.309,234.351z"/>
									</g>
									<g>
										<path fill="#FFFFFF" d="M282.944,235.427c-0.074-0.096-0.046-0.201,0.062-0.235c0.108-0.035,0.255,0.014,0.329,0.109
											c0.074,0.095,0.047,0.201-0.06,0.235C283.166,235.571,283.018,235.521,282.944,235.427z"/>
										<path fill="#FFFFFF" d="M283.56,235.229c-0.074-0.095-0.046-0.2,0.061-0.235c0.109-0.035,0.255,0.015,0.33,0.109
											c0.074,0.096,0.046,0.201-0.063,0.236C283.782,235.373,283.633,235.324,283.56,235.229z"/>
										<path fill="#FFFFFF" d="M284.176,235.031c-0.075-0.095-0.046-0.2,0.06-0.235c0.109-0.034,0.256,0.015,0.33,0.109
											c0.074,0.096,0.046,0.202-0.062,0.236C284.396,235.176,284.25,235.126,284.176,235.031z"/>
										<path fill="#FFFFFF" d="M284.791,234.833c-0.074-0.096-0.048-0.201,0.061-0.235c0.107-0.035,0.255,0.015,0.33,0.11
											c0.074,0.095,0.045,0.201-0.063,0.235C285.012,234.978,284.865,234.928,284.791,234.833z"/>
										<path fill="#FFFFFF" d="M285.406,234.635c-0.074-0.094-0.047-0.201,0.062-0.234c0.109-0.035,0.256,0.014,0.33,0.109
											c0.074,0.095,0.046,0.201-0.063,0.236C285.627,234.779,285.48,234.73,285.406,234.635z"/>
									</g>
									<g>
										<path fill="#FFFFFF" d="M308.585,227.658l-1.593,0.512l-0.507-0.653l1.594-0.512L308.585,227.658z M307.019,228.07
											l1.426-0.459l-0.393-0.505l-1.426,0.458L307.019,228.07z"/>
										<polygon fill="#FFFFFF" points="307.731,227.256 306.705,227.586 307.039,228.016 308.065,227.687 										"/>
										<polygon fill="#FFFFFF" points="308.608,227.46 308.467,227.506 308.197,227.158 308.339,227.112 										"/>
									</g>
								</g>
								<g>
									<g>
										<g>
											<g>
												<path fill="#CEF2CF" d="M305.866,259.429c0.964,1.17,2.794,1.76,4.183,1.377l0.005,0.006l14.425-5.113
													c1.654-0.586,2.031-2.229,0.843-3.669c-1.12-1.357-3.231-2.052-4.854-1.634c-2.033-2.33-5.814-3.433-8.547-2.464
													c-2.173,0.77-3.038,2.625-2.36,4.555c-0.55-0.035-1.085,0.027-1.565,0.199c-1.591,0.564-2.002,2.106-0.971,3.505
													c-0.15,0.028-0.297,0.067-0.438,0.116C305.177,256.806,304.856,258.204,305.866,259.429z"/>
											</g>
										</g>
										<g opacity="0.1">
											<g>
												<path d="M305.866,259.429c0.964,1.17,2.794,1.76,4.183,1.377l0.005,0.006l14.425-5.113
													c1.654-0.586,2.031-2.229,0.843-3.669c-1.12-1.357-3.231-2.052-4.854-1.634c-2.033-2.33-5.814-3.433-8.547-2.464
													c-2.173,0.77-3.038,2.625-2.36,4.555c-0.55-0.035-1.085,0.027-1.565,0.199c-1.591,0.564-2.002,2.106-0.971,3.505
													c-0.15,0.028-0.297,0.067-0.438,0.116C305.177,256.806,304.856,258.204,305.866,259.429z"/>
											</g>
										</g>
									</g>
									<g>
										<g>
											<path fill="#CEF2CF" d="M304.994,259.738c0.964,1.17,2.794,1.759,4.183,1.377l0.005,0.005l14.426-5.112
												c1.653-0.587,2.03-2.228,0.842-3.668c-1.119-1.358-3.231-2.052-4.854-1.635c-2.032-2.33-5.814-3.432-8.547-2.464
												c-2.173,0.77-3.038,2.625-2.359,4.555c-0.551-0.035-1.085,0.027-1.566,0.198c-1.591,0.564-2.001,2.107-0.971,3.505
												c-0.15,0.028-0.296,0.068-0.438,0.118C304.305,257.116,303.983,258.513,304.994,259.738z"/>
										</g>
									</g>
									<g>
										<g>
											<polygon fill="#CEF2CF" points="319.17,258.601 316.428,259.573 313.416,255.92 316.158,254.948 											"/>
											<polygon fill="#CEF2CF" points="320.112,258.267 315.488,259.906 319.457,261.096 											"/>
										</g>
										<g opacity="0.2">
											<polygon points="319.17,258.601 316.428,259.573 313.416,255.92 316.158,254.948 											"/>
											<polygon points="320.112,258.267 315.488,259.906 319.457,261.096 											"/>
										</g>
									</g>
								</g>
							</g>
						</g>
					</g>
					<path fill="#FFABA1" d="M328.295,288.702c7.729,0.118-17.394-15.561-17.772-24.356c-0.382-8.794,8.189-6.029,14.946-1.063
						c23.456,17.236,41.157,16.395,53.051,32.867C390.415,312.622,328.295,288.702,328.295,288.702z"/>
					<path fill="#1A2E35" d="M351.661,277.984c5.01,1.408,9.932,3.031,14.451,5.662c4.203,2.447,7.483,5.967,10.447,9.775
						c0.126,0.165-0.103,0.391-0.237,0.226c-6.335-7.785-15.721-11.687-24.727-15.443
						C351.461,278.148,351.516,277.943,351.661,277.984z"/>
				</g>
			</g>
			<g>
				<path fill="#F6E8D4" d="M439.197,310.795c-6.01,1.63-47.872-9.852-47.872-9.852l-23.528,56.889c0,0,72.9,16.967,89.915,11.075
					c17.019-5.891,43.517-63.711,52.082-97.307c8.053-31.585-2.683-52.2-25.233-19.479
					C484.561,252.122,442.337,309.944,439.197,310.795z"/>
				<path fill="#FFFFFF" d="M426,309.333c0.42,0.44,0.819,0.901,1.217,1.341c6.438,7.174,12.92,14.305,20.324,20.428
					c5.2,4.342,10.884,8.138,16.986,11.054c0.314,0.145,0.608,0.292,0.902,0.439c2.244,1.029,4.529,1.951,6.88,2.727
					c1.822,0.63,3.69,1.155,5.578,1.574c-0.168,0.273-0.337,0.524-0.48,0.796c-1.825-0.397-3.631-0.901-5.392-1.489
					c-2.791-0.901-5.474-1.993-8.116-3.25c-0.294-0.126-0.609-0.272-0.903-0.42c-5.788-2.832-11.22-6.438-16.189-10.549
					c-7.487-6.166-14.052-13.318-20.513-20.471c-0.774-0.86-1.574-1.72-2.349-2.6C424.638,309.059,425.329,309.207,426,309.333z
					 M387.032,311.303c5.474,6,11.137,11.872,17.429,17.052c7.466,6.166,15.961,11.221,25.21,14.24
					c4.613,1.511,9.416,2.434,14.283,2.664c4.844,0.231,9.71-0.209,14.45-1.09c1.846-0.336,3.691-0.755,5.495-1.216
					c0.523-0.105,1.025-0.231,1.53-0.357c6.229-1.657,12.29-3.817,18.354-5.956c0.125-0.208,0.229-0.418,0.335-0.629
					c-6.461,2.244-12.962,4.51-19.591,6.146c-0.502,0.145-1.007,0.272-1.531,0.376c-1.55,0.377-3.123,0.692-4.696,0.986
					c-4.72,0.817-9.543,1.216-14.304,0.944c-4.781-0.274-9.501-1.216-14.031-2.748c-9.103-3.062-17.409-8.116-24.771-14.241
					c-6.375-5.264-12.08-11.283-17.638-17.428L387.032,311.303z M459.894,285.359c3.649,0.482,7.234,1.321,10.676,2.517
					c9.039,3.168,17.303,8.347,24.435,14.745c1.11,0.986,2.182,1.993,3.229,3.063c0.169-0.379,0.314-0.776,0.48-1.154
					c-0.965-0.944-1.95-1.846-2.957-2.748c-7.234-6.481-15.687-11.662-24.895-14.765c-3.378-1.154-6.859-1.952-10.403-2.412
					C460.271,284.855,460.081,285.108,459.894,285.359z M488.459,246.832c2.244,0.272,4.487,0.441,6.731,0.461
					c2.434,0.042,4.889-0.147,7.299-0.461c1.196-0.168,2.392-0.419,3.588-0.65c1.173-0.231,2.391-0.378,3.564-0.713
					c0.714-0.167,1.427-0.335,2.117-0.546c-0.063-0.376-0.146-0.733-0.229-1.089c-0.714,0.188-1.428,0.356-2.14,0.524
					c-2.35,0.503-4.72,0.859-7.066,1.279c-2.372,0.294-4.741,0.483-7.133,0.441c-1.95-0.022-3.9-0.147-5.83-0.378
					C489.066,246.055,488.772,246.434,488.459,246.832z"/>
				<g>
					<path fill="#ECECEC" d="M403.898,365.133c1.739,0.313,3.503,0.629,5.283,0.921"/>
					<path fill="#ECECEC" d="M430.533,310.183c-1.594-0.273-3.313-0.587-5.117-0.944"/>
				</g>
				<g>
					<path fill="#1A2E35" d="M458.613,367.158c14.262-7.303,31.845-45.521,35.229-53.02c2.165-4.799,4.145-9.68,6.086-14.576
						c3.887-9.799,7.465-19.713,10.87-29.687c0.06-0.169,0.311-0.094,0.269,0.081c-1.87,7.699-4.133,15.324-6.741,22.832
						c1.73-2.793,3.258-5.712,4.653-8.688c0.068-0.143,0.311-0.033,0.253,0.115c-1.372,3.572-3.249,6.902-5.423,10.042
						c-2.672,7.539-5.695,14.952-9.063,22.181c-0.971,2.085-21.311,48.898-37.244,53.249c-5.54,1.512-24.498,0.145-28.521-0.776
						c-0.175-0.04-0.216-0.254-0.021-0.259C434.426,368.523,453.518,369.767,458.613,367.158z"/>
					<path fill="#1A2E35" d="M383.546,350.946c0.703-1.965,1.425-3.923,2.151-5.881c1.452-3.917,10.228-27.177,14.035-34.447
						c0.102-0.195,0.396-0.046,0.342,0.154c-2.142,7.964-11.441,30.924-12.996,34.712c-0.795,1.937-1.595,3.872-2.414,5.799
						c-0.823,1.941-1.87,3.778-2.686,5.721c-0.079,0.189-0.387,0.105-0.313-0.096C382.374,354.954,382.843,352.91,383.546,350.946z"
						/>
					<path fill="#1A2E35" d="M391.311,301.038c3.47,0.151,34.807,7.435,41.722,8.991c1.634,0.368,3.425,0.969,5.115,0.705
						c1.803-0.282,2.979-1.778,4.106-3.069c2.242-2.574,26.743-34.965,28.524-36.557c0.672-0.6,1.202-0.718,0.565,0.305
						c-1.09,1.754-24.916,33.737-27.077,36.252c-2.012,2.34-3.902,4.796-7.278,4.657c-1.489-0.062-43.744-9.538-45.819-10.404
						C390.728,301.735,390.766,301.014,391.311,301.038z"/>
				</g>
			</g>
		</g>
		<g>
			<g>
				<g>
					<g>
						<path fill="#FFABA1" d="M473.467,246.813c6.363-0.131,20.571-10.57,22.633-20.248c0.139-0.664-2.535-6.41-5.453-13.546
							c-1.755-4.337-3.605-9.209-4.975-13.775c-0.274-0.939-26.558,15.536-26.558,15.536s5.684,8.73,8.019,16.707
							c0.188,0.668,0.309,1.307,0.365,1.932c0.017,0.09,0.021,0.201,0.052,0.323C468.036,237.476,466.655,246.954,473.467,246.813z"
							/>
					</g>
					<path fill="#1A2E35" d="M467.488,233.42c0.022,0.093,0.035,0.209,0.063,0.32c0.934-0.146,1.919-0.386,2.979-0.725
						c16.746-5.421,14.875-27.854,14.132-33.459c-4.871,2.253-25.549,15.224-25.549,15.224s5.688,8.737,8.026,16.714
						C467.314,232.16,467.444,232.798,467.488,233.42z"/>
				</g>
				<g>
					<g>
						<path fill="#FFABA1" d="M480.341,162.098c5.844,9.418,8.284,40.456,2.746,48.989c-8.029,12.371-25.085,17.875-36.583,7.328
							c-11.145-10.221-13.61-50.725-7.059-58.882C449.092,147.518,471.706,148.187,480.341,162.098z"/>
					</g>
					<g>
						<g>
							<path fill="#1A2E35" d="M455.653,187.943c0.01-0.081,0.171,0.085,0.175,0.171c0.109,2.095,0.586,4.477,2.534,5.012
								c0.061,0.016,0.063,0.123-0.01,0.118C456.021,193.114,455.419,189.946,455.653,187.943z"/>
							<path fill="#1A2E35" d="M457.337,185.604c3.339-0.535,4.167,6.184,1.072,6.68
								C455.361,192.773,454.536,186.054,457.337,185.604z"/>
						</g>
						<g>
							<path fill="#1A2E35" d="M444.156,189.3c-0.026-0.077-0.151,0.118-0.139,0.203c0.321,2.073,0.341,4.501-1.455,5.425
								c-0.058,0.029-0.038,0.133,0.03,0.114C444.852,194.436,444.791,191.212,444.156,189.3z"/>
							<path fill="#1A2E35" d="M442.029,187.355c-3.379,0.158-2.814,6.903,0.314,6.757
								C445.425,193.969,444.861,187.223,442.029,187.355z"/>
						</g>
						<path fill="#1A2E35" d="M459.611,182.207c-0.944-0.118-1.794-0.384-2.717-0.596c-1.039-0.24-1.892-0.325-2.651-1.137
							c-0.409-0.435-0.369-1.311,0.017-1.747c0.896-1.016,2.243-1.038,3.506-0.8c1.37,0.259,2.361,0.809,3.259,1.872
							C461.895,180.83,460.854,182.361,459.611,182.207z"/>
						<path fill="#1A2E35" d="M439.016,184.291c0.913-0.267,1.71-0.664,2.585-1.021c0.986-0.402,1.814-0.622,2.438-1.544
							c0.336-0.495,0.155-1.354-0.293-1.723c-1.051-0.86-2.382-0.667-3.59-0.231c-1.313,0.473-2.202,1.173-2.919,2.367
							C436.54,183.295,437.813,184.643,439.016,184.291z"/>
						<path fill="#1A2E35" d="M460.462,206.559c-0.438,0.549-0.854,1.281-1.602,1.437c-0.717,0.15-1.604-0.072-2.302-0.249
							c-0.066-0.017-0.127,0.061-0.075,0.118c0.639,0.732,1.837,1.094,2.779,0.806c0.922-0.281,1.287-1.152,1.411-2.042
							C460.691,206.504,460.526,206.48,460.462,206.559z"/>
						<g>
							<g>
								<path fill="#1A2E35" d="M457.51,200.597c-0.943,1.95-2.536,3.148-4.345,3.735c-0.805,0.268-1.673,0.403-2.534,0.43
									c-0.167,0.017-0.338,0.019-0.494,0.004c-0.153,0-0.293,0-0.464-0.014c-0.248-0.006-0.407-0.19-0.475-0.414l-0.001-0.016
									c-0.009-0.077-0.018-0.138-0.008-0.216c0,0,0,0-0.001-0.016l-0.021-0.183c-0.238-1.598-0.384-4.054-0.384-4.054
									c-0.549,0.365-3.37,2.075-3.425,1.233c-0.439-6.982-0.928-14.746,0.11-21.787c0.022-0.234,0.378-0.224,0.388,0.007
									c0.687,6.693,0.19,13.461,0.774,20.196c0.908-0.479,2.379-1.34,3.22-1.427c0.235,0.038,0.194,4.752,0.359,5.46
									c0,0,0.004,0.031,0.022,0.075c2.734,0.013,4.666-1.049,7.055-3.179C457.431,200.296,457.613,200.415,457.51,200.597z"/>
							</g>
						</g>
						<g>
							<path fill="#1A2E35" d="M451.478,203.833c0,0,1.656,1.744,3.688,2.195c0.748,0.169,1.533,0.176,2.315-0.139
								c1.606-0.642,1.461-2.172,0.995-3.439c-0.379-1.043-0.99-1.906-0.99-1.906S455.338,203.114,451.478,203.833z"/>
							<path fill="#FF9BBE" d="M455.164,206.028c0.748,0.169,1.533,0.176,2.314-0.139c1.607-0.642,1.462-2.172,0.996-3.439
								C456.717,202.851,455.102,204.278,455.164,206.028z"/>
						</g>
					</g>
					<g>
						<path fill="#1A2E35" d="M485.408,189.878c-5.725,0.57-9.21-13.439-9.21-13.439s-7.53-0.937-12.784-13.17
							c0,0-1.701,13.701-25.396,16.432c0,0-2.646-5.116-1.197-12.397c0,0-1.681,5.157-2.836,13.801c0,0-10.093-17.83,4.633-28.493
							c5.854-4.24,15.873-6.062,32.672-2.237c0,0,0.724-9.688,2.738-8.92c2.01,0.766,0.691,9.969,0.691,9.969
							s6.108-3.623,7.55-2.508c1.241,0.958-4.716,4.148-4.716,4.148s10.866,0.799,11.978,12.844
							C490.547,176.955,488.237,189.594,485.408,189.878z"/>
						<path fill="#1A2E35" d="M475.69,153.341c5.907-1.635,12.312,1.421,14.603,7.154c1.27,3.178,1.296,6.926,0.991,10.289
							c-0.331,3.679-1.393,7.096-2.628,10.559c-0.067,0.19-0.356,0.052-0.285-0.14c1.163-3.097,1.643-6.496,1.802-9.795
							c0.147-3.102,0.131-6.494-0.729-9.501c-1.71-5.965-7.665-9.366-13.682-8.228C475.569,153.716,475.502,153.393,475.69,153.341z
							"/>
						<path fill="#1A2E35" d="M451.01,146.272c4.091-0.114,8.299,0.496,12.271,1.449c3.804,0.914,7.601,2.128,10.904,4.27
							c0.167,0.109,0.054,0.368-0.139,0.285c-6.839-2.958-14.555-4.085-21.965-4.401c-6.932-0.296-14.607,1.549-18.288,8.008
							c-0.061,0.106-0.224,0.03-0.17-0.083C436.71,149.21,444.146,146.465,451.01,146.272z"/>
					</g>
					<g>
						<path fill="#375A64" d="M460.591,198.25c-5.452,0.064-9.937-4.317-10.002-9.765l0,0c-0.063-5.45,4.313-9.937,9.767-10.001
							c5.449-0.065,9.936,4.316,10.002,9.767c0.056,4.608-3.072,8.528-7.333,9.667C462.247,198.125,461.433,198.24,460.591,198.25z
							 M451.91,188.469c0.058,4.72,3.943,8.516,8.665,8.46c4.719-0.051,8.514-3.944,8.46-8.665
							c-0.061-4.721-3.943-8.516-8.665-8.459c-0.729,0.008-1.437,0.108-2.108,0.288C454.569,181.081,451.863,184.476,451.91,188.469
							z"/>
						<path fill="#375A64" d="M439.925,201.192c-4.014,0.582-7.918-3.332-8.701-8.725c-0.375-2.574,0.005-5.108,1.069-7.138
							c1.104-2.099,2.799-3.416,4.79-3.702c1.985-0.289,3.99,0.487,5.645,2.186c1.6,1.64,2.688,3.963,3.06,6.538
							c0.742,5.104-1.573,9.731-5.227,10.708C440.352,201.117,440.142,201.16,439.925,201.192z M433.466,185.943
							c-0.938,1.785-1.269,4.034-0.935,6.335c0.679,4.671,3.91,8.084,7.204,7.605c3.309-0.477,5.424-4.668,4.746-9.342
							c-0.337-2.301-1.296-4.362-2.7-5.805c-1.353-1.387-2.953-2.025-4.509-1.799c-0.166,0.024-0.331,0.058-0.491,0.101
							C435.434,183.398,434.269,184.414,433.466,185.943z"/>
						<path fill="#375A64" d="M451.081,189.569l0.695-1.125c-1.664-1.03-5.339-2.207-7.355,0.696l1.086,0.753
							C447.31,187.292,450.929,189.477,451.081,189.569z"/>
						<path fill="#375A64" d="M495.028,185.752l1.075-0.769c-0.36-0.501-3.593-4.896-6.581-4.946
							c-2.792-0.038-20.083,4.151-20.815,4.33l0.311,1.284c4.957-1.207,18.324-4.328,20.483-4.292
							C491.474,181.391,494.159,184.542,495.028,185.752z"/>
					</g>
					<g>
						<path fill="#FFABA1" d="M479.34,188.545c0,0,4.382-11.262,9.332-9.928c4.952,1.335,3.295,16.516-1.366,19.674
							c-4.659,3.158-7.67-1.099-7.67-1.099L479.34,188.545z"/>
						<path fill="#1A2E35" d="M488.09,182.957c0.08-0.028,0.125,0.083,0.06,0.13c-3.238,2.332-4.318,6.125-4.8,9.904
							c0.743-1.59,2.021-2.674,4.112-1.836c0.11,0.044,0.057,0.212-0.05,0.216c-1.549,0.044-2.549,0.558-3.257,1.98
							c-0.5,1.006-0.725,2.18-0.993,3.266c-0.089,0.363-0.712,0.332-0.68-0.068c0.003-0.03,0.007-0.061,0.011-0.09
							C481.282,191.898,483.281,184.617,488.09,182.957z"/>
					</g>
				</g>
			</g>
			<path fill="#1A2E35" d="M465.267,233.12c0.015-0.062,0.104-0.048,0.096,0.015c-0.785,5.988-2.225,19.899,6.927,19.653
				c3.687-0.1,7.194-2.249,10.146-4.388c3.033-2.196,5.777-4.795,8.292-7.604c2.789-3.117,5.663-6.389,7.922-9.94
				c0.098-0.151,0.313,0.027,0.21,0.178c-2.417,3.53-4.484,7.229-7.229,10.526c-2.639,3.172-5.596,6.093-8.961,8.429
				c-3.153,2.189-6.876,4.32-10.767,4.233c-3.7-0.083-6.218-2.622-7.051-6.227C463.76,243.262,464.219,237.832,465.267,233.12z"/>
		</g>
	</g>
</g>
</svg>
