<?xml version="1.0" encoding="utf-8"?>
<!-- Generator: Adobe Illustrator 16.0.0, SVG Export Plug-In . SVG Version: 6.00 Build 0)  -->
<!DOCTYPE svg PUBLIC "-//W3C//DTD SVG 1.1//EN" "http://www.w3.org/Graphics/SVG/1.1/DTD/svg11.dtd">
<svg version="1.1" id="Layer_1" xmlns="http://www.w3.org/2000/svg" xmlns:xlink="http://www.w3.org/1999/xlink" x="0px" y="0px"
	 width="750px" height="750px" viewBox="0 0 750 750" enable-background="new 0 0 750 750" xml:space="preserve">
<g opacity="0.03">
	<path fill="#000018" d="M578.17,338.986c-4.082-2.855-9.293-2.855-13.392,0.014L382.413,466.081c-2.592,1.813-5.883,1.813-8.488,0
		L98.231,274.157c-4.992-3.468-4.992-11.534,0-15.018l208.595-145.2c2.328-1.625,3.748-4.45,3.748-7.509V68.213
		c0-6.954-6.909-11.198-12.223-7.51L13.278,259.14c-4.977,3.484-4.977,11.549,0,15.018L349.642,508.31l23.565,16.146
		c2.575,1.756,5.812,1.756,8.387,0l103.518-70.947l0.087,0.161l82.144-57.188c2.59-1.801,5.898-1.801,8.49,0l82.29,57.273
		c4.992,3.483,4.992,11.532,0,15.002L381.93,661.034c-2.326,1.624-3.729,4.448-3.729,7.507v38.22c0,6.968,6.908,11.198,12.222,7.495
		L743.06,468.759c4.994-3.47,4.994-11.519,0-15.002L578.17,338.986z"/>
	<path fill="#1CB24B" d="M274.581,331.009l99.344-69.161c2.605-1.8,5.896-1.8,8.488,0l99.491,69.249
		c2.572,1.801,5.839,1.814,8.43,0.028l27.664-18.955c5.034-3.439,5.064-11.547,0.057-15.032l-113.566-79.069
		c-2.327-1.61-3.746-4.449-3.746-7.495V95.994c0-6.952,6.908-11.197,12.22-7.508L658.12,259.14c4.992,3.484,4.992,11.549,0,15.018
		l-19.204,13.365l0.234,0.425l-13.791,9.456c-5.033,3.454-5.063,11.549-0.042,15.047l27.136,18.882c2.592,1.801,5.888,1.801,8.478,0
		l82.127-57.174c4.994-3.468,4.994-11.534,0-15.018L382.413,8.098c-2.592-1.8-5.883-1.8-8.488,0l-14.536,10.114
		c-2.328,1.624-3.731,4.464-3.731,7.51v8.985v45.245v72.938h-0.06v57.685c0,3.045-1.405,5.885-3.73,7.495l-113.235,78.821
		c-4.976,3.47-4.976,11.55,0,15.004l27.474,19.116C268.697,332.809,271.99,332.809,274.581,331.009"/>
	<path fill="#1CB24B" d="M274.434,591.434L98.216,468.774c-4.977-3.485-4.977-11.534,0-15.02l32.027-22.277
		c4.992-3.472,4.992-11.534,0-15.019l-27.459-19.104c-2.591-1.801-5.885-1.801-8.476,0l-81.017,56.397
		c-4.99,3.483-4.99,11.532,0,15.019l319.822,222.634v-5.065v-54.056v-74.592c0-2.972-1.331-5.735-3.558-7.376l-30.502-22.515
		c-5.298-3.905-12.397,0.31-12.397,7.378v48.758C286.657,590.906,279.748,595.137,274.434,591.434"/>
</g>
<g>
	<path fill="#FFFFFF" d="M529.266,261.969c-55.639-53.405-120.813-67.179-138.043-69.994c11.602-32.05,29.535-79.705,34-86.766
		c1.438-0.198,4.373-0.506,8.705-0.506c12.66,0,39.748,2.694,78.938,20.754c56.586,26.076,71.732,55.412,74.709,62.584
		L529.266,261.969z"/>
	<path fill="#B9CEEB" d="M433.932,108.22c12.387,0,38.916,2.659,77.521,20.444c51.193,23.585,67.738,49.961,72.098,58.883
		l-54.652,69.29c-32.889-30.664-68.334-47.6-92.854-56.516c-17.385-6.323-31.619-9.563-40.148-11.131
		c12.816-35.285,26.771-71.607,31.455-80.687C428.875,108.359,431.074,108.22,433.932,108.22 M433.932,101.188
		c-6.885,0-10.424,0.743-10.424,0.743c-4.021,1.372-36.982,92.918-36.982,92.918s78.24,8.173,143.072,72.298l61.881-78.46
		c0,0-10.322-35.621-77.209-66.435C475.076,104.191,447.76,101.188,433.932,101.188"/>
	<path fill="none" stroke="#2A1E17" stroke-linecap="round" stroke-linejoin="round" stroke-miterlimit="10" d="M398.01,201.958
		c0,0,76.934,7.955,124.336,52.516"/>
	<polygon fill="#B9CEEB" points="464.443,198.116 493.143,140.97 522.641,200.565 	"/>
	<polygon fill="none" stroke="#2A1E17" stroke-linecap="round" stroke-linejoin="round" stroke-miterlimit="10" points="
		470.025,197.298 498.727,140.156 528.221,199.749 	"/>
	<path fill="none" stroke="#2A1E17" stroke-linecap="round" stroke-linejoin="round" stroke-miterlimit="10" d="M443.082,97.715
		c0,0,86.258,7.957,139.879,73.209"/>
	<path fill="#2A1E17" d="M487.158,350.949c-4.742-3.564-7.852-5.956-7.852-5.956c1.314-1.792,22.072-24.438,34.086-42.685
		C513.395,302.308,489.094,352.413,487.158,350.949"/>
	<path fill="none" stroke="#2A1E17" stroke-linecap="round" stroke-linejoin="round" stroke-miterlimit="10" d="M193.029,185.893
		c2.312,3.949,3.337,2.367,10.018,1.841c6.68-0.523,16.182,4.472,19.523,12.888c3.333,8.417,2.31,9.732,0.511,10.784
		c-1.798,1.051-14.64,2.629-15.154,5.261"/>
	<polygon fill="#FFABA1" points="366.067,613.988 360.087,603.628 338.856,639.86 344.427,644.254 	"/>
	<path fill="#FFABA1" d="M225.103,524.131c0,0-11.001-18.308-6.282-27.285l35.093,3.845L225.103,524.131z"/>
	<path fill="#010101" d="M225.103,524.131l2.102,4.948l-6.482,25.892c-0.819,3.263,0.237,6.71,2.728,8.913l32.095-48.584
		c3.049-4.616,2.357-10.818-1.631-14.609l-7.169-6.819L225.103,524.131z"/>
	<path fill="#2B1E33" d="M207.927,216.668c10.05-0.243,22.788-0.896,20.238-8.723c-2.549-7.826-12.098-27.389-33.752-21.519
		c0,0-7.639,6.521,1.912,18.26C205.88,216.425,207.927,216.668,207.927,216.668"/>
	<path fill="#7B92CA" d="M258.796,501.125c0,0-17.156-51.87-2.639-74.646c11.98-18.797,51.128,11.777,56.486,15.896l28.013-51.796
		c0,0-6.466-9.28-22.342-18.37c-15.875-9.086-81.452-36.303-112.269,13.482c-11.39,18.403-11.563,97.365,10.276,127.633
		L258.796,501.125z"/>
	<path fill="none" stroke="#2A1E17" stroke-linecap="round" stroke-linejoin="round" stroke-miterlimit="10" d="M258.796,501.125
		c0,0-17.156-51.87-2.639-74.646c11.98-18.797,51.128,11.777,56.486,15.896"/>
	<path fill="#7B92CA" d="M340.656,390.578c-12.74,13.729-50.504,80.621-58.998,112.59c-11.356,42.759-7.087,78.226,55.348,147.668
		l30.179-45.013c0,0-21.219-32.994-17.256-64.102c5.731-44.99,37.001-88.622,52.82-116.293L340.656,390.578z"/>
	<polygon fill="#2A1E17" points="345.448,396.394 395.652,436.735 410.654,413.384 	"/>
	<path fill="#F58A68" d="M633.791,353.973c7.834,1.72,13.801,4.771,17.895,9.161c4.104,4.388,2.234,6.678,0.746,8.015
		c-1.486,1.338-7.27-0.188-12.303-4.771C635.096,361.799,633.791,353.973,633.791,353.973"/>
	<path fill="#FFABA1" d="M479.309,344.993c1.314-1.792,22.072-24.438,34.086-42.685c0,0,36.328,41.678,40.27,43.022
		c1.467,0.498,10.373,0.38,21.43,0.263c18.691-0.195,43.535-0.386,49.031,2.428c8.754,4.479,14.008,6.722,16.193,12.995
		c2.189,6.275,3.051,10.373-2.188,10.756c-6.127,0.452-10.063-7.617-10.063-7.617s-5.01,3.097-17.945,8.069
		c0,0-46.551,18.502-77.664,9.553C523.961,379.331,479.309,344.993,479.309,344.993"/>
	<path fill="#FFABA1" d="M197.139,178.53c-3.996,1.556-6.423,3.417-4.11,7.362c2.312,3.949,3.337,2.367,10.016,1.841
		c6.682-0.523,16.184,4.472,19.525,12.888c3.337,8.417,2.31,9.732,0.511,10.784c-1.798,1.051-14.64,2.629-15.154,5.261
		c-0.514,2.629,5.202,10.396,17.019,9.868l2.825-0.525c0,0,24.848,24.852,28.446,28.532c3.594,3.687,30.022,22.019,44.579,25.745
		c11.066,2.832,33.483-0.822,46.953-3.514c6.547-1.306,10.977-2.387,10.977-2.387s-10.105-18.646-12.165-47.318
		c0,0-24.183,3.98-40.253,7.588c0,0-37.509-21.407-55.744-30.875c0,0-15.925-19.99-23.372-22.621
		C219.742,178.53,202.533,176.424,197.139,178.53"/>
	<path fill="#2A1E17" d="M347.75,276.772c6.545-1.306,10.977-2.387,10.977-2.387S346.497,258.6,344.44,229.93
		c0,0-5.523,6.102-3.81,22.34C342.795,272.678,347.75,276.772,347.75,276.772"/>
	<path fill="#F6E8D4" d="M343.852,226.722c0,0,0.339,35.037,9.507,49.649l3.284-1.349c0,0-43.195,51.75-57.167,85.558
		c-2.284,5.532,89.686,65.692,103.271,64.85c0,0,44.813-70.036,60.139-90.792l16.473,13.07c0,0,32.305-33.501,34.036-45.399
		c0,0-31.2-38.881-56.729-50.267c-25.531-11.382-48.342-30.887-75.764-30.357C357.164,222.143,343.852,226.722,343.852,226.722"/>
	<polygon fill="#2A1E17" points="479.357,347.707 462.887,334.637 465.508,327.313 	"/>
	<path fill="#FFABA1" d="M504.412,209.174c-2.885,9.185-11.211,35.756-20.5,39.039c-9.295,3.278-18.965-0.842-18.965-0.842
		l-9.896,5.187c-1.102,3.392-8.918,6.313-19,6.711c-7.465,0.292-12.012-9.526-9.801-16.634c1.016-3.265,4.803-19.354,4.803-19.354
		s8.012-30.177,15.377-36.411c7.365-6.231,14.289-12.403,33.955-4.265C510.498,195.068,504.412,209.174,504.412,209.174"/>
	<path fill="#2B1E33" d="M444.715,210.484c-1.316,5.639-7.053,16.917-10.793,14.89c-3.748-2.033-5.068-7.219-2.426-17.149
		c2.645-9.925,4.848-32.485,12.338-36.547c7.492-4.059,10.795,0.679,10.795,0.679s-3.303-16.468,6.395-18.725
		c0,0,3.301-1.581,1.98,9.701c0,0,3.742-10.38,15.861-9.027c12.115,1.356,16.303,18.729,16.303,18.729s0.881-4.737,6.387-4.737
		c5.508,0,13.879,8.345,11.9,17.596c0,0,14.096-4.518,21.59,6.994c7.488,11.505,6.605,24.138-11.457,29.101
		c-18.891,5.19-18.729-17.37-21.594-20.303c-2.865-2.931-5.945-6.317-16.523-2.255c-10.572,4.059-21.586-7.898-21.586-7.898
		s-1.762,14.439-3.525,15.792c-1.768,1.357-5.285,3.161-4.404-3.609c0.885-6.766,1.984-6.088,1.32-7.896
		c-0.662-1.804-3.646-7.499-9.914-2.481C440.309,198.978,444.715,210.484,444.715,210.484"/>
	<path fill="none" stroke="#2B1E33" stroke-linecap="round" stroke-linejoin="round" stroke-miterlimit="10" d="M447.715,213.009
		c-4.199-3.616-7.117-9.984-3.42-16.353c3.699-6.369,9.75-7.229,11.6-4.819c1.852,2.408,2.564,6.47,0.828,11.286"/>
	<path fill="#010101" d="M344.427,644.254l2.104,4.943l-6.484,25.892c-0.813,3.266,0.243,6.709,2.729,8.911l32.095-48.581
		c3.051-4.616,2.362-10.814-1.629-14.607l-7.17-6.821L344.427,644.254z"/>
	<path fill="none" stroke="#2B1E33" stroke-linecap="round" stroke-linejoin="round" stroke-miterlimit="10" d="M454.629,172.356
		c0,0-2.457-8.184-9.824-10.339"/>
	
		<line fill="none" stroke="#2A1E17" stroke-linecap="round" stroke-linejoin="round" stroke-miterlimit="10" x1="298.473" y1="358.11" x2="387.389" y2="230.922"/>
	<path fill="none" stroke="#2A1E17" stroke-linecap="round" stroke-linejoin="round" stroke-miterlimit="10" d="M424.039,239.82
		c-3.203,4.267-4.662,22.621,10.076,23.812c14.734,1.192,24.158-5.439,24.158-5.439"/>
	<path fill="none" stroke="#2A1E17" stroke-linecap="round" stroke-linejoin="round" stroke-miterlimit="10" d="M227.193,181.159
		c0,0,10.16,13.776,11.758,18.682"/>
	<path fill="none" stroke="#2A1E17" stroke-linecap="round" stroke-linejoin="round" stroke-miterlimit="10" d="M607.75,365.836
		c0,0,6.791,5.723,20.316-1.682c4.9-2.688,1.408-9.044-4.793-7.455c-6.213,1.592-13.584-0.797-13.584-0.797"/>
	<path fill="none" stroke="#2A1E17" stroke-linecap="round" stroke-linejoin="round" stroke-miterlimit="10" d="M636.123,354.765
		c0,0,6.514,7.783,6.334,12.408"/>
	<path fill="none" stroke="#2A1E17" stroke-linecap="round" stroke-linejoin="round" stroke-miterlimit="10" d="M540.242,353.918
		c0,0,5.893-8.039,13.42-8.588"/>
	<path fill="none" stroke="#2A1E17" stroke-linecap="round" stroke-linejoin="round" stroke-miterlimit="10" d="M291.846,247.644
		c0,0,3.439-10.968,14.461-12.986"/>
	<path fill="none" stroke="#2A1E17" stroke-linecap="round" stroke-linejoin="round" stroke-miterlimit="10" d="M321.704,414.118
		l-13.146,25.751c0,0-43.342,75.103-28.633,123.629"/>
	<path fill="none" stroke="#2A1E17" stroke-linecap="round" stroke-linejoin="round" stroke-miterlimit="10" d="M360.104,500.286
		l42.646-74.855c0,0,55.896-83.015,61.613-94.728l19.725-37.365"/>
	<path fill="none" stroke="#2A1E17" stroke-linecap="round" stroke-linejoin="round" stroke-miterlimit="10" d="M304.424,366.082
		c0,0,75.837,56.62,98.324,59.349"/>
	<path fill="none" stroke="#2A1E17" stroke-linecap="round" stroke-linejoin="round" stroke-miterlimit="10" d="M343.852,226.722
		c0,0-0.064,35.533,9.286,50.099"/>
	<path fill="none" stroke="#2A1E17" stroke-linecap="round" stroke-linejoin="round" stroke-miterlimit="10" d="M510.965,296.677
		c-2.381,14.645-34.043,45.4-34.043,45.4"/>
	<path fill="#2A1E17" d="M279.254,474.453c0,2.547-2.017,4.612-4.505,4.612c-2.486,0-4.502-2.065-4.502-4.612
		c0-2.544,2.016-4.609,4.502-4.609C277.237,469.844,279.254,471.909,279.254,474.453"/>
	<polygon fill="none" stroke="#2A1E17" stroke-linecap="round" stroke-linejoin="round" stroke-miterlimit="10" points="
		697.244,573.539 694.752,555.906 709.449,565.908 701.758,567.621 	"/>
	<path fill="none" stroke="#2A1E17" stroke-linecap="round" stroke-linejoin="round" stroke-miterlimit="10" d="M210.017,272.446
		c-27.842-25.152-73.845,37.573,94.491,237.212c97.109,115.167,173.406,125.494,183.746,85.427
		c18.539-71.882-48.426-90.054-23.508-61.896c36.229,40.938,139.293,49.586,216.09,11.38c75.777-37.692,29.195-96.232,24.494-99.649
		"/>
	<path fill="#2A1E17" d="M686.551,544.212c0,2.551-2.012,4.612-4.5,4.612c-2.492,0-4.504-2.063-4.504-4.612
		c0-2.547,2.012-4.609,4.504-4.609C684.539,539.604,686.551,541.665,686.551,544.212"/>
	
		<line fill="none" stroke="#2A1E17" stroke-linecap="round" stroke-linejoin="round" stroke-miterlimit="10" x1="616.52" y1="581.849" x2="750" y2="504.813"/>
	<path fill="#2A1E17" d="M217.295,276.176c0,2.547-2.018,4.616-4.504,4.616c-2.488,0-4.506-2.069-4.506-4.616
		c0-2.545,2.018-4.612,4.506-4.612C215.277,271.564,217.295,273.631,217.295,276.176"/>
	<path fill="#F7F5EB" d="M337.272,180.975c0,5.464-4.324,9.894-9.659,9.894s-9.66-4.43-9.66-9.894c0-5.463,4.325-9.89,9.66-9.89
		S337.272,175.512,337.272,180.975"/>
	<path fill="#B9CEEB" d="M152.307,105.521c-2.345,0-4.251,1.947-4.251,4.351c0,2.4,1.906,4.347,4.251,4.347
		c2.343,0,4.245-1.947,4.245-4.347C156.552,107.467,154.65,105.521,152.307,105.521"/>
	<path fill="#F9D8B1" d="M725.619,641.306c0,2.402-1.904,4.354-4.252,4.354c-2.342,0-4.246-1.95-4.246-4.354
		c0-2.401,1.904-4.35,4.246-4.35C723.715,636.956,725.619,638.903,725.619,641.306"/>
	<path fill="#2B1E33" d="M645.488,444.902l-45.656-21.94c-3.684-1.771-3.619-7.155,0.104-8.838l84.939-38.269
		c1.203-0.542,2.574-0.55,3.777-0.02l58.342,25.646L645.488,444.902z"/>
	<path fill="#C6CBCB" d="M642.66,372.797c0.115,19.346,2.828,72.105,2.828,72.105l101.506-43.422l-2.271-73.416
		c-0.146-4.508-4.715-7.418-8.721-5.545l-87.4,40.785C644.967,364.998,642.637,368.708,642.66,372.797"/>
	<path fill="none" stroke="#2A1E17" stroke-linecap="round" stroke-linejoin="round" stroke-miterlimit="10" d="M645.488,444.902
		l101.506-43.42l-2.271-73.417c0,0-0.678-8.018-8.721-5.545"/>
	
		<line fill="none" stroke="#2A1E17" stroke-linecap="round" stroke-linejoin="round" stroke-miterlimit="10" x1="694.619" y1="392.133" x2="701.473" y2="375.545"/>
	
		<line fill="none" stroke="#2A1E17" stroke-linecap="round" stroke-linejoin="round" stroke-miterlimit="10" x1="701.473" y1="392.133" x2="708.326" y2="375.545"/>
	<path fill="#F7F5EB" d="M174.861,568.729c0,2.402-1.9,4.35-4.247,4.35c-2.347,0-4.247-1.945-4.247-4.35
		c0-2.399,1.9-4.347,4.247-4.347C172.961,564.382,174.861,566.327,174.861,568.729"/>
	<path fill="#F7F5EB" d="M534.6,590.273c0,3.337-2.646,6.041-5.9,6.041c-3.266,0-5.904-2.704-5.904-6.041
		c0-3.339,2.641-6.041,5.904-6.041C531.953,584.232,534.6,586.938,534.6,590.273"/>
	<path fill="#FFF7DC" d="M214.628,633.209c6.91,3.393,27.015,11.955,53.624,11.774c1.461-0.011,2.586,1.309,2.402,2.784
		l-3.706,30.117c-0.133,1.071-0.92,1.932-1.961,2.127c-7.513,1.447-37.811,5.701-60.472-13.977c-0.71-0.61-0.993-1.604-0.753-2.521
		l7.49-28.709C211.645,633.31,213.26,632.537,214.628,633.209"/>
	<path fill="none" stroke="#2A1E17" stroke-linecap="round" stroke-linejoin="round" stroke-miterlimit="10" d="M217.292,642.061
		c0,0,13.094,18.839,17.76,21.534c4.666,2.697,29.874-12.686,29.874-12.686"/>
	
		<line fill="none" stroke="#2A1E17" stroke-linecap="round" stroke-linejoin="round" stroke-miterlimit="10" x1="247.393" y1="660.968" x2="261.147" y2="675.446"/>
	
		<line fill="none" stroke="#2A1E17" stroke-linecap="round" stroke-linejoin="round" stroke-miterlimit="10" x1="228.287" y1="658.178" x2="212.202" y2="662.658"/>
	<rect x="620.387" y="276.968" fill="#FFE0C0" width="15.367" height="15.733"/>
	<polygon fill="#B9CEEB" points="622.469,489.198 627.039,497.302 631.604,505.399 622.469,505.399 613.338,505.399 
		617.906,497.302 	"/>
	<path fill="none" stroke="#2A1E17" stroke-linecap="round" stroke-linejoin="round" stroke-miterlimit="10" d="M253.185,130.357
		l1.19-36.773c-0.125-3.433,1.241-4.527,3.306-4.994c9.754-2.209,39.408-8.978,71.662,0.783c4.168,1.263,4.035,3.521,3.968,5.557
		l-1.153,35.056c-0.081,2.577-2.708,4.439-5.645,4c-9.415-1.413-22.225-1.849-35.229-1.737c-13.439,0.118-25.413,1.141-33.793,2.794
		C254.29,135.671,253.094,133.231,253.185,130.357z"/>
	<path fill="none" stroke="#2A1E17" stroke-linecap="round" stroke-linejoin="round" stroke-miterlimit="10" d="M264.039,124.979
		l18.772-22.5l20.779,20.997C296.426,121.088,264.039,124.979,264.039,124.979z"/>
	<polyline fill="none" stroke="#2A1E17" stroke-linecap="round" stroke-linejoin="round" stroke-miterlimit="10" points="
		294.316,112.895 309.494,100.458 322.284,109.805 322.76,124.418 303.59,123.477 	"/>
	<path fill="none" stroke="#2A1E17" stroke-linecap="round" stroke-linejoin="round" stroke-miterlimit="10" d="M272.207,100.232
		c0.2,1.774-1.286,3.302-3.313,3.419c-2.027,0.114-3.833-1.231-4.031-3.008c-0.196-1.769,1.287-3.3,3.314-3.415
		C270.204,97.117,272.011,98.464,272.207,100.232z"/>
	<path fill="none" stroke="#2A1E17" stroke-linecap="round" stroke-linejoin="round" stroke-miterlimit="10" d="M616.186,608.104
		l12.594,23.814c1.324,2.13,0.857,3.345-0.283,4.426c-5.396,5.122-21.775,20.71-45.811,26.784c-3.104,0.784-3.842-0.702-4.531-2.018
		l-12.003-22.709c-0.877-1.667,0.114-3.853,2.14-4.688c6.492-2.686,14.787-7.284,23.006-12.307
		c8.496-5.188,15.729-10.396,20.457-14.639C613.547,605.151,615.199,606.245,616.186,608.104z"/>
	<path fill="none" stroke="#2A1E17" stroke-linecap="round" stroke-linejoin="round" stroke-miterlimit="10" d="M611.242,615.651
		l-3.758,21.438l-20.822-5.434C592.082,630.457,611.242,615.651,611.242,615.651z"/>
	<polyline fill="none" stroke="#2A1E17" stroke-linecap="round" stroke-linejoin="round" stroke-miterlimit="10" points="
		596.393,634.856 591.271,648.53 579.756,647.462 574.143,638.364 586.662,631.658 	"/>
	<path fill="none" stroke="#2A1E17" stroke-linecap="round" stroke-linejoin="round" stroke-miterlimit="10" d="M615.033,634.479
		c-0.764-1.045-0.383-2.585,0.871-3.428c1.242-0.843,2.879-0.679,3.645,0.37c0.773,1.05,0.385,2.585-0.863,3.438
		C617.436,635.698,615.805,635.531,615.033,634.479z"/>
	<path fill="#FFFFFF" d="M554.881,201.605l51.164,40.101c1.121,0.88,2.73,0.643,3.568-0.52l7.725-10.719
		c0.809-1.122,0.607-2.692-0.453-3.557l-50.441-41.33c-1.131-0.923-2.777-0.692-3.623,0.504l-8.445,11.951
		C553.566,199.172,553.795,200.757,554.881,201.605"/>
	<path fill="none" stroke="#2A1E17" stroke-linecap="round" stroke-linejoin="round" stroke-miterlimit="10" d="M554.881,201.605
		l51.164,40.101c1.121,0.88,2.73,0.643,3.568-0.52l7.725-10.719c0.809-1.122,0.607-2.692-0.453-3.557l-50.441-41.33
		c-1.131-0.923-2.777-0.692-3.623,0.504l-8.445,11.951C553.566,199.172,553.795,200.757,554.881,201.605z"/>
	<polygon fill="#F7F5EB" points="558.666,199.817 571.076,208.731 578.396,199.786 565.988,189.187 	"/>
	<polygon fill="#F9D8B1" points="575.75,212.209 588.172,222.303 594.828,213.911 582.326,203.521 	"/>
	<polygon fill="#B9CEEB" points="592.352,226.181 604.76,235.095 610.672,227.319 598.914,217.248 	"/>
	<path fill="#FFFFFF" d="M656.965,145.546l11.662,100.325c0.25,2.2,2.223,3.756,4.365,3.458l19.744-2.765
		c2.059-0.29,3.525-2.192,3.328-4.314l-9.574-100.824c-0.211-2.255-2.219-3.869-4.408-3.539l-21.83,3.271
		C658.174,141.466,656.719,143.416,656.965,145.546"/>
	<path fill="none" stroke="#2A1E17" stroke-linecap="round" stroke-linejoin="round" stroke-miterlimit="10" d="M656.965,145.546
		l11.662,100.325c0.25,2.2,2.223,3.756,4.365,3.458l19.744-2.765c2.059-0.29,3.525-2.192,3.328-4.314l-9.574-100.824
		c-0.211-2.255-2.219-3.869-4.408-3.539l-21.83,3.271C658.174,141.466,656.719,143.416,656.965,145.546z"/>
	<polygon fill="#F7F5EB" points="662.932,147.892 666.621,171.355 684.037,170.03 682.143,144.765 	"/>
	<polygon fill="#91BA83" points="667.885,180.32 670.336,205.063 686.441,203.586 684.221,178.434 	"/>
	<polygon fill="#F9D8B1" points="670.641,213.899 674.338,237.365 688.982,235.703 687.221,211.741 	"/>
	<path fill="#FFFFFF" d="M631.52,166.907l32.283,97.179c0.557,1.667,2.34,2.545,3.957,1.949l20.223-7.454
		c1.555-0.573,2.395-2.304,1.896-3.917l-30.315-98.139c-0.528-1.717-2.36-2.631-4.009-2.005l-22.188,8.415
		C631.795,163.528,630.98,165.289,631.52,166.907"/>
	<path fill="none" stroke="#2A1E17" stroke-linecap="round" stroke-linejoin="round" stroke-miterlimit="10" d="M631.52,166.907
		l32.283,97.179c0.557,1.667,2.34,2.545,3.957,1.949l20.223-7.454c1.555-0.573,2.395-2.304,1.896-3.917l-30.315-98.139
		c-0.528-1.717-2.36-2.631-4.009-2.005l-22.188,8.415C631.795,163.528,630.98,165.289,631.52,166.907z"/>
	<polygon fill="#B9CEEB" points="638.072,168.677 646.455,190.843 663.211,185.839 656.23,161.529 	"/>
	<polygon fill="#B9CEEB" points="649.508,199.341 656.926,223.021 672.381,218.146 665.104,194.018 	"/>
	<polygon fill="#F9D8B1" points="659.021,231.601 667.4,253.769 681.389,249.022 674.807,225.958 	"/>
	<path fill="#7B92CA" d="M388.197,331.516H225.162c-5.2,0-9.415-4.318-9.415-9.639v-22.583c0-5.322,4.215-9.643,9.415-9.643h163.036
		c5.203,0,9.418,4.32,9.418,9.643v22.583C397.615,327.197,393.4,331.516,388.197,331.516"/>
	<path fill="#FFFFFF" d="M327.115,308.351h-88.881c-1.72,0-3.108-1.427-3.108-3.188c0-1.757,1.388-3.184,3.108-3.184h88.881
		c1.717,0,3.108,1.427,3.108,3.184C330.225,306.924,328.833,308.351,327.115,308.351"/>
	
		<line fill="none" stroke="#2A1E17" stroke-linecap="round" stroke-linejoin="round" stroke-miterlimit="10" x1="236.012" y1="316.603" x2="387.107" y2="316.603"/>
	<path fill="#91BA83" d="M161.281,213.786l-2.57-2.886l-8.52,7.966l2.574,2.884c1.087,1.218,2.928,1.304,4.116,0.192l4.216-3.941
		C162.284,216.891,162.368,215.001,161.281,213.786"/>
	<path fill="none" stroke="#2A1E17" stroke-linecap="round" stroke-linejoin="round" stroke-miterlimit="10" d="M146.433,195.116
		l12.124,13.591c0.627,0.702,0.577,1.794-0.108,2.436l-8.376,7.837c-0.69,0.641-1.75,0.592-2.38-0.112l-12.121-13.591
		c-0.628-0.702-0.581-1.792,0.105-2.436l8.378-7.835C144.739,194.365,145.804,194.414,146.433,195.116z"/>
	<rect x="107.667" y="267.043" fill="#F7F5EB" width="15.233" height="14.241"/>
	<polyline fill="none" stroke="#2A1E17" stroke-linecap="round" stroke-linejoin="round" stroke-miterlimit="10" points="
		107.667,257.876 107.667,267.043 98.554,267.043 	"/>
	<rect x="609.504" y="106.205" fill="#F9D8B1" width="15.236" height="14.242"/>
	<polyline fill="none" stroke="#2A1E17" stroke-linecap="round" stroke-linejoin="round" stroke-miterlimit="10" points="
		609.504,97.041 609.504,106.203 600.393,106.203 	"/>
	<path fill="none" stroke="#2A1E17" stroke-linecap="round" stroke-linejoin="round" stroke-miterlimit="10" d="M189.994,193.324
		C0.199,129.135-130.662,290.43,233.13,494.599c28.646,16.076,71.021,19.266,71.021,19.266"/>
</g>
</svg>
