<svg id="Payment-Methods" xmlns="http://www.w3.org/2000/svg" viewBox="0 0 54 36"><defs><style>.cls-1{fill:#e0e3e8;}.cls-2{fill:#2a2c6b;}</style></defs><g id="visa-light-large"><rect class="cls-1" width="54" height="36" rx="4.5"/><path class="cls-2" d="M26.84,12.81,24.59,23.22h-2.7l2.25-10.41Zm11.32,6.75,1.42-3.9.82,3.9Zm3,3.69h2.5l-2.18-10.4H39.23a1.22,1.22,0,0,0-1.13.76l-4,9.64H36.9l.55-1.55h3.39Zm-7-3.37c0-2.8-3.76-3-3.76-4.13,0-.37.35-.77,1.12-.87a5,5,0,0,1,2.66.47l.47-2.25a7.26,7.26,0,0,0-2.52-.47c-2.66,0-4.5,1.42-4.5,3.45,0,1.49,1.34,2.33,2.35,2.82s1.4.84,1.39,1.29c0,.7-.83,1-1.6,1A5.61,5.61,0,0,1,27,20.54l-.48,2.25a8,8,0,0,0,3,.55c2.82,0,4.68-1.39,4.69-3.55m-11.15-7L18.69,23.19H15.75L13.6,14.87A1.14,1.14,0,0,0,13,14a11.23,11.23,0,0,0-2.66-.88l.07-.3H15a1.27,1.27,0,0,1,1.25,1.06l1.12,6,2.81-7.08Z"/></g></svg>