<svg id="Payment-Methods" xmlns="http://www.w3.org/2000/svg" viewBox="0 0 54 36"><defs><style>.cls-1{fill:#e0e3e8;}.cls-2{fill:#f26324;}.cls-3{fill:#e92328;}.cls-4{fill:#f59e21;}</style></defs><rect class="cls-1" width="54" height="36" rx="4.5"/><rect class="cls-2" x="21.26" y="8.62" width="11.49" height="18.77"/><path class="cls-3" d="M22.5,18A11.9,11.9,0,0,1,27,8.62a11.94,11.94,0,1,0,0,18.76A11.9,11.9,0,0,1,22.5,18Z"/><path class="cls-4" d="M45.16,25.39V25h.17v-.08h-.4V25h.16v.38Zm.76,0v-.46h-.11l-.14.33-.14-.33h-.11v.46h.07V25l.14.31h.09l.12-.31v.35Z"/><path class="cls-4" d="M46.3,18A11.93,11.93,0,0,1,27,27.38a11.93,11.93,0,0,0,2-16.75,11.19,11.19,0,0,0-2-2A11.93,11.93,0,0,1,46.3,18Z"/></svg>