<svg id="Payment-Methods" xmlns="http://www.w3.org/2000/svg" viewBox="0 0 54 36"><defs><style>.cls-1{fill:#e0e3e8;}.cls-2{fill:#2b6eb6;}</style></defs><g id="americanexpress-light-large"><rect class="cls-1" width="54" height="36" rx="4.5"/><polygon class="cls-2" points="4.11 11.86 4.71 13.34 2.68 13.34 3.3 11.86 3.7 10.87 4.11 11.86"/><path class="cls-2" d="M26.29,10.91H24.51v1.4h1.78a.68.68,0,0,0,.56-.17.7.7,0,0,0,.23-.53.72.72,0,0,0-.79-.7Zm0,0H24.51v1.4h1.78a.68.68,0,0,0,.56-.17.7.7,0,0,0,.23-.53.72.72,0,0,0-.79-.7Zm0,0H24.51v1.4h1.78a.68.68,0,0,0,.56-.17.7.7,0,0,0,.23-.53.72.72,0,0,0-.79-.7Zm13.41.95-.32-1h0l-.41,1-.59,1.48h2Zm0,0-.32-1h0l-.41,1-.59,1.48h2Zm-13.41-.95H24.51v1.4h1.78a.68.68,0,0,0,.56-.17.7.7,0,0,0,.23-.53.72.72,0,0,0-.79-.7Zm0,0H24.51v1.4h1.78a.68.68,0,0,0,.56-.17.7.7,0,0,0,.23-.53.72.72,0,0,0-.79-.7Zm13.41.95-.32-1h0l-.41,1-.59,1.48h2Zm0,0-.32-1h0l-.41,1-.59,1.48h2Zm-13.41-.95H24.51v1.4h1.78a.68.68,0,0,0,.56-.17.7.7,0,0,0,.23-.53.72.72,0,0,0-.79-.7Zm0,0H24.51v1.4h1.78a.68.68,0,0,0,.56-.17.7.7,0,0,0,.23-.53.72.72,0,0,0-.79-.7Zm13.41.95-.32-1h0l-.41,1-.59,1.48h2Zm0,0-.32-1h0l-.41,1-.59,1.48h2Zm-13.41-.95H24.51v1.4h1.78a.68.68,0,0,0,.56-.17.7.7,0,0,0,.23-.53.72.72,0,0,0-.79-.7Zm0,0H24.51v1.4h1.78a.68.68,0,0,0,.56-.17.7.7,0,0,0,.23-.53.72.72,0,0,0-.79-.7Zm13.41.95-.32-1h0l-.41,1-.59,1.48h2Zm0,0-.32-1h0l-.41,1-.59,1.48h2Zm-13.41-.95H24.51v1.4h1.78a.68.68,0,0,0,.56-.17.7.7,0,0,0,.23-.53.72.72,0,0,0-.79-.7Zm0,0H24.51v1.4h1.78a.68.68,0,0,0,.56-.17.7.7,0,0,0,.23-.53.72.72,0,0,0-.79-.7Zm13.41.95-.32-1h0l-.41,1-.59,1.48h2Zm0,0-.32-1h0l-.41,1-.59,1.48h2Zm-13.41-.95H24.51v1.4h1.78a.68.68,0,0,0,.56-.17.7.7,0,0,0,.23-.53.72.72,0,0,0-.79-.7ZM46.9,8.14V10L45.7,8.14H42.16v2.37L41,8.14H35a4.4,4.4,0,0,0-2.81.93V8.14H12.38l-.68,2L11,8.1H6.53v2.36L5.47,8.1H1.8L0,12.38v4.94H2.56L3.09,16H4.35l.52,1.37H25.5V15.68l1.31,1.64h5.41v-.83a4.42,4.42,0,0,0,2.72.83h3.23L38.69,16H40l.55,1.37H46V15.55l1.13,1.77h3.8V8.14ZM5.75,15.91l-.54-1.29h-3L1.71,16H0L2.76,9.56h2l2.72,6.35Zm9.9,0H14.16V10.78h0l-.29,1-1.49,4.16H11L9.56,11.75l-.31-1h0v5.13H7.77V9.56h2.49l1.24,3.67.2.7h0l.2-.7,1.26-3.67h2.49Zm6.29-5H18.37V12h3.48v1.35H18.37v1.12h3.57v1.35H16.88V9.56h5.06Zm5.16,5-1.89-2.25h-.7v2.25H23V9.56h3.48a2,2,0,0,1,1.58.49,2,2,0,0,1,.67,1.51,2,2,0,0,1-1.74,2l2.12,2.34Zm3.81,0H29.37V9.56h1.54Zm3.94,0h-.09a2.85,2.85,0,0,1-2.2-.88,2.78,2.78,0,0,1-.74-2.25v-.09a2.85,2.85,0,0,1,.8-2.27,2.88,2.88,0,0,1,2.26-.86h1.78v1.38H35a1.55,1.55,0,0,0-1.23.49,1.58,1.58,0,0,0-.42,1.26v.09A1.59,1.59,0,0,0,35,14.56h.48Zm6.5,0-.54-1.29h-3L37.27,16H35.63l2.72-6.39h2l2.71,6.35Zm8.09,0h-1.8l-2.35-3.53-.4-.7h0V16H43.38V9.56h1.87l2.25,3.38.42.72h0V9.52H49.5Zm-10.06-5h0l-.41,1-.59,1.48h2l-.61-1.48Zm-13,0H24.51v1.39h1.78a.71.71,0,0,0,.56-.16.66.66,0,0,0,0-1,.72.72,0,0,0-.53-.16Zm0,0H24.51v1.39h1.78a.71.71,0,0,0,.56-.16.66.66,0,0,0,0-1,.72.72,0,0,0-.53-.16Zm13.41.94-.38-.94h0l-.41,1-.59,1.48h2Zm0,0-.38-.94h0l-.41,1-.59,1.48h2Zm-13.47-.9H24.51v1.4h1.78a.68.68,0,0,0,.56-.17.7.7,0,0,0,.23-.53.72.72,0,0,0-.79-.7Zm0,0H24.51v1.4h1.78a.68.68,0,0,0,.56-.17.7.7,0,0,0,.23-.53.72.72,0,0,0-.79-.7Zm13.41.95-.32-1h0l-.41,1-.59,1.48h2Zm0,0-.32-1h0l-.41,1-.59,1.48h2Zm-13.41-.95H24.51v1.4h1.78a.68.68,0,0,0,.56-.17.7.7,0,0,0,.23-.53.72.72,0,0,0-.79-.7Zm0,0H24.51v1.4h1.78a.68.68,0,0,0,.56-.17.7.7,0,0,0,.23-.53.72.72,0,0,0-.79-.7Zm13.41.95-.32-1h0l-.41,1-.59,1.48h2Zm0,0-.32-1h0l-.41,1-.59,1.48h2Zm-13.41-.95H24.51v1.4h1.78a.68.68,0,0,0,.56-.17.7.7,0,0,0,.23-.53.72.72,0,0,0-.79-.7Zm0,0H24.51v1.4h1.78a.68.68,0,0,0,.56-.17.7.7,0,0,0,.23-.53.72.72,0,0,0-.79-.7Zm13.41.95-.32-1h0l-.41,1-.59,1.48h2Zm0,0-.32-1h0l-.41,1-.59,1.48h2Zm-13.41-.95H24.51v1.4h1.78a.68.68,0,0,0,.56-.17.7.7,0,0,0,.23-.53.72.72,0,0,0-.79-.7Zm0,0H24.51v1.4h1.78a.68.68,0,0,0,.56-.17.7.7,0,0,0,.23-.53.72.72,0,0,0-.79-.7Zm0,0H24.51v1.4h1.78a.68.68,0,0,0,.56-.17.7.7,0,0,0,.23-.53.72.72,0,0,0-.79-.7Zm0,0H24.51v1.4h1.78a.68.68,0,0,0,.56-.17.7.7,0,0,0,.23-.53.72.72,0,0,0-.79-.7Zm0,0H24.51v1.4h1.78a.68.68,0,0,0,.56-.17.7.7,0,0,0,.23-.53.72.72,0,0,0-.79-.7Z"/><path class="cls-2" d="M27.35,22.9H25.53v1.56h1.82a.78.78,0,0,0,0-1.56Zm0,0H25.53v1.56h1.82a.78.78,0,0,0,0-1.56Zm0,0H25.53v1.56h1.82a.78.78,0,0,0,0-1.56Zm6.47,0H32v1.4h1.78a.68.68,0,0,0,.55-.16.7.7,0,0,0,.24-.54.71.71,0,0,0-.79-.7Zm0,0H32v1.4h1.78a.68.68,0,0,0,.55-.16.7.7,0,0,0,.24-.54.71.71,0,0,0-.79-.7Zm-6.47,0H25.53v1.56h1.82a.78.78,0,0,0,0-1.56Zm0,0H25.53v1.56h1.82a.78.78,0,0,0,0-1.56Zm6.47,0H32v1.4h1.78a.68.68,0,0,0,.55-.16.7.7,0,0,0,.24-.54.71.71,0,0,0-.79-.7Zm19.57,0H50.62a.58.58,0,0,0-.58.89.55.55,0,0,0,.58.24H52.1a1.82,1.82,0,0,1,1.84,1.06V21.6Zm-19.57,0H32v1.4h1.78a.68.68,0,0,0,.55-.16.7.7,0,0,0,.24-.54.71.71,0,0,0-.79-.7Zm-6.47,0H25.53v1.56h1.82a.78.78,0,0,0,0-1.56ZM50.7,21.55H54V20.14H21.22l-1,1.35-.95-1.35H10v9.18h9.29l1-1.37.95,1.37h5.68V27.25h.63A5.6,5.6,0,0,0,29.19,27v2.32h3.86V27.68l1.31,1.64H51.93a3.82,3.82,0,0,0,2-.57V26.62a2,2,0,0,1-2,1.28H48.7V26.55H52a.57.57,0,1,0,0-1.12H50.5a1.77,1.77,0,0,1-2-1.87,2,2,0,0,1,2.18-2ZM16.55,22.9H13V24h3.5v1.33H13v1.12h3.57v1.35h-5.1V21.55h5.1Zm5.23,5-1.53-2-1.59,2H16.88l2.47-3.15L16.8,21.58h1.91l1.54,2,1.55-2h1.87l-2.52,3.2L23.71,28Zm5.63-2.09H25.49V27.9H24V21.55h3.5a2,2,0,0,1,1.61.55,2,2,0,0,1,.64,1.57,2.08,2.08,0,0,1-2.29,2.14Zm7.18,2.09L32.7,25.65H32V27.9h-1.5V21.55H34a2,2,0,0,1,1.85.8,2,2,0,0,1-1.37,3.21l2.12,2.34Zm7.41-5H38.46V24h3.48v1.33H38.46v1.12H42v1.35H36.91V21.55H42Zm4.12,5H42.84V26.55h3.28a.56.56,0,0,0,.59-.24.57.57,0,0,0,0-.64.56.56,0,0,0-.59-.24H44.64a1.77,1.77,0,0,1-2-1.87,1.95,1.95,0,0,1,2.18-2h3.3l-.61,1.35H44.8a.57.57,0,1,0,0,1.12h1.47a1.72,1.72,0,0,1,1.42.45,1.75,1.75,0,0,1,.56,1.38,1.92,1.92,0,0,1-.61,1.48,1.94,1.94,0,0,1-1.52.54Zm-12.3-5H32v1.4h1.78a.68.68,0,0,0,.55-.16.7.7,0,0,0,.24-.54.71.71,0,0,0-.79-.7Zm-6.47,0H25.53v1.56h1.82a.78.78,0,0,0,0-1.56Zm0,0H25.53v1.56h1.82a.78.78,0,0,0,0-1.56Zm6.47,0H32v1.4h1.78a.68.68,0,0,0,.55-.16.7.7,0,0,0,.24-.54.71.71,0,0,0-.79-.7Zm0,0H32v1.4h1.78a.68.68,0,0,0,.55-.16.7.7,0,0,0,.24-.54.71.71,0,0,0-.79-.7Zm-6.47,0H25.53v1.56h1.82a.78.78,0,0,0,0-1.56Zm0,0H25.53v1.56h1.82a.78.78,0,0,0,0-1.56Zm6.47,0H32v1.4h1.78a.68.68,0,0,0,.55-.16.7.7,0,0,0,.24-.54.71.71,0,0,0-.79-.7Zm0,0H32v1.4h1.78a.68.68,0,0,0,.55-.16.7.7,0,0,0,.24-.54.71.71,0,0,0-.79-.7Zm-6.47,0H25.53v1.56h1.82a.78.78,0,0,0,0-1.56Z"/></g></svg>