<svg id="Payment-Methods" xmlns="http://www.w3.org/2000/svg" viewBox="0 0 54 36"><defs><style>.cls-1{fill:#e0e3e8;}.cls-2{fill:#253e80;}.cls-3{fill:#1d9bd7;}.cls-4{fill:#242f65;}</style></defs><g id="paypal-light-large"><rect class="cls-1" width="54" height="36" rx="4.5"/><path class="cls-2" d="M22.88,28.48l.4-2.47h-5L21.14,7.72a.22.22,0,0,1,.08-.15.28.28,0,0,1,.16-.05h7c2.33,0,3.93.48,4.77,1.44a3.1,3.1,0,0,1,.75,1.42,4.67,4.67,0,0,1,0,2v.57l.4.22a2.76,2.76,0,0,1,.8.6,2.94,2.94,0,0,1,.64,1.45,6.67,6.67,0,0,1-.09,2.09,7.12,7.12,0,0,1-.87,2.37,4.76,4.76,0,0,1-1.36,1.5,5.69,5.69,0,0,1-1.83.82,8.56,8.56,0,0,1-2.25.27h-.55a1.7,1.7,0,0,0-1.06.38,1.6,1.6,0,0,0-.55,1v.23l-.69,4.36v.17a.14.14,0,0,1,0,.09H26.4Z"/><path class="cls-3" d="M34.65,12.46l-.07.42c-.92,4.73-4.08,6.37-8.11,6.37h-2a1,1,0,0,0-1,.84l-1,6.66-.31,1.89a.53.53,0,0,0,.52.61h3.65a.87.87,0,0,0,.86-.74v-.18L27.8,24v-.23a.87.87,0,0,1,.85-.75h.6c3.52,0,6.29-1.42,7.09-5.62a4.81,4.81,0,0,0-.72-4.2,4,4,0,0,0-1-.71Z"/><path class="cls-4" d="M33.68,12.08,33.26,12l-.48-.09a10.82,10.82,0,0,0-1.8-.12H25.49a.79.79,0,0,0-.37.07.87.87,0,0,0-.48.66l-1.13,7.39v.21a1,1,0,0,1,1-.84h2.05c4,0,7.19-1.64,8.11-6.37l.07-.42a5,5,0,0,0-.76-.31Z"/><path class="cls-2" d="M24.64,12.49a.87.87,0,0,1,.48-.66.79.79,0,0,1,.37-.07H31a10.82,10.82,0,0,1,1.8.12l.48.09.42.11.22.07a4.93,4.93,0,0,1,.75.31,4.48,4.48,0,0,0-.9-4c-1.13-1.19-3-1.7-5.38-1.7h-7a1,1,0,0,0-1,.84L17.47,26.05a.65.65,0,0,0,.14.49.61.61,0,0,0,.46.21h4.32l1.12-6.87Z"/></g></svg>