<svg id="Payment-Methods" xmlns="http://www.w3.org/2000/svg" viewBox="0 0 54 36"><defs><style>.cls-1{fill:#e0e3e8;}.cls-2{fill:#ee7725;}.cls-3{fill:#231f20;}</style></defs><g id="discover-light-large"><path class="cls-1" d="M54,4.5v27A4.49,4.49,0,0,1,49.5,36H4.5A4.44,4.44,0,0,1,3,35.73,4.5,4.5,0,0,1,0,31.5V4.5A4.49,4.49,0,0,1,4.5,0h45A4.49,4.49,0,0,1,54,4.5Z"/><path class="cls-2" d="M54,18V31.46A4.55,4.55,0,0,1,49.44,36H3.8a4.56,4.56,0,0,1-1.55-.27c3.83-.55,7.53-1.23,11.16-2,1-.18,1.89-.41,2.83-.61,15.08-3.43,28.13-8.47,35.48-13.42C52.54,19.13,53.32,18.57,54,18Z"/><path class="cls-3" d="M6.55,12h-2v7.15H6.55a3.76,3.76,0,0,0,2.58-.81,3.62,3.62,0,0,0-2.58-6.39Zm1.66,5.4A2.61,2.61,0,0,1,6.28,18H5.92V13.18h.36a2.65,2.65,0,0,1,1.93.59,2.45,2.45,0,0,1,0,3.6Z"/><rect class="cls-3" x="11.08" y="11.96" width="1.41" height="7.22"/><path class="cls-3" d="M15.94,14.73c-.84-.31-1.12-.52-1.12-.92a1,1,0,0,1,1-.79A1.47,1.47,0,0,1,17,13.6l.73-1a3.17,3.17,0,0,0-2.12-.81,2.14,2.14,0,0,0-1.56.56,2.1,2.1,0,0,0-.69,1.51c0,1,.45,1.51,1.77,2a5.67,5.67,0,0,1,1,.42.87.87,0,0,1,.43.74,1.08,1.08,0,0,1-.34.76,1,1,0,0,1-.79.27,1.68,1.68,0,0,1-1.53-1L13,18a2.79,2.79,0,0,0,2.57,1.37A2.33,2.33,0,0,0,18,17C18,15.84,17.54,15.31,15.94,14.73Z"/><path class="cls-3" d="M18.46,15.57a3.74,3.74,0,0,0,3.81,3.77A3.88,3.88,0,0,0,24,18.92V17.27a2.25,2.25,0,0,1-1.7.79,2.38,2.38,0,0,1-2.43-2.5,2.41,2.41,0,0,1,2.36-2.48,2.38,2.38,0,0,1,1.77.81V12.24a3.63,3.63,0,0,0-1.73-.45,3.81,3.81,0,0,0-3.85,3.78Z"/><polygon class="cls-3" points="35.21 16.81 33.28 11.96 31.75 11.96 34.81 19.36 35.56 19.36 38.69 11.96 37.16 11.96 35.21 16.81"/><polygon class="cls-3" points="39.32 19.18 43.32 19.18 43.32 17.95 40.73 17.95 40.73 16.01 43.22 16.01 43.22 14.78 40.73 14.78 40.73 13.19 43.32 13.19 43.32 11.96 39.32 11.96 39.32 19.18"/><path class="cls-3" d="M47.25,16.15a1.94,1.94,0,0,0,1.64-2.07c0-1.35-.92-2.11-2.56-2.11H44.26v7.15h1.41V16.27h.16l2,2.85H49.5Zm-1.13-.87h-.45V13.09h.45c.86,0,1.33.36,1.33,1.13S47,15.28,46.12,15.28Z"/><path class="cls-2" d="M32.16,15.57a3.84,3.84,0,1,1-3.83-3.84,3.83,3.83,0,0,1,3.83,3.84Z"/><path class="cls-3" d="M49.5,12.26a.15.15,0,0,0,.13-.16c0-.13-.08-.2-.24-.2h-.23v.65h.16v-.27l.2.27h.18Zm-.13-.09h0V12h0c.06,0,.11,0,.11.06s0,.07-.09.07Z"/><path class="cls-3" d="M49.43,11.65a.58.58,0,0,0-.54.57.57.57,0,0,0,1.13,0,.54.54,0,0,0-.18-.41A.6.6,0,0,0,49.43,11.65Zm.3.9a.39.39,0,0,1-.3.14.41.41,0,0,1-.31-.14.44.44,0,0,1-.11-.33.43.43,0,1,1,.85,0,.51.51,0,0,1-.13.33Z"/></g></svg>