<svg width="688" height="611"  xmlns="http://www.w3.org/2000/svg" xml:space="preserve" id="Layer_1" x="0" y="0" style="enable-background:new 0 0 1029.81 138.65" version="1.1" viewBox="0 0 1029.81 138.65"><style>.st0{fill:#fff}.st1{fill:#14a800}</style><path d="M112.37 65.5c-.71-.49-1.6-.49-2.31 0L78.62 87.41c-.45.31-1.02.31-1.46 0L29.64 54.32c-.86-.6-.86-1.99 0-2.59L65.6 26.7c.4-.28.64-.77.64-1.29v-6.59c0-1.2-1.19-1.93-2.11-1.29l-49.14 34.2c-.86.6-.86 1.99 0 2.59l57.98 40.36 4.06 2.78c.44.3 1 .3 1.45 0l17.84-12.23.01.03 14.16-9.86c.45-.31 1.02-.31 1.46 0l14.19 9.88c.86.6.86 1.99 0 2.59l-47.61 33.14c-.4.28-.64.77-.64 1.29v6.59c0 1.2 1.19 1.93 2.11 1.29l60.79-42.32c.86-.6.86-1.99 0-2.59L112.37 65.5z" class="st0"/><path d="M60.04 64.12 77.16 52.2c.45-.31 1.02-.31 1.46 0l17.15 11.94c.44.31 1.01.31 1.45.01l4.77-3.27c.87-.59.87-1.99.01-2.59L82.43 44.65c-.4-.28-.64-.77-.64-1.29V23.61c0-1.2 1.19-1.93 2.11-1.29l42.26 29.42c.86.6.86 1.99 0 2.59l-3.31 2.3.04.07-2.38 1.63c-.87.59-.87 1.99-.01 2.59l4.68 3.26c.45.31 1.02.31 1.46 0l14.16-9.86c.86-.6.86-1.99 0-2.59L78.62 8.46c-.45-.31-1.02-.31-1.46 0l-2.51 1.74c-.4.28-.64.77-.64 1.29v21.92H74v9.94c0 .53-.24 1.01-.64 1.29l-19.52 13.6c-.86.6-.86 1.99 0 2.59l4.73 3.29c.45.31 1.02.31 1.47 0zM60.01 109.01 29.64 87.87c-.86-.6-.86-1.99 0-2.59l5.52-3.84c.86-.6.86-1.99 0-2.59l-4.73-3.29c-.45-.31-1.02-.31-1.46 0L15 85.28c-.86.6-.86 1.99 0 2.59l55.13 38.38V103.2c0-.51-.23-.99-.61-1.27l-5.26-3.88c-.91-.68-2.14.05-2.14 1.27v8.4c0 1.2-1.19 1.93-2.11 1.29z" class="st1"/><path d="M195.1 112.5c-4.61 0-8.58-1.66-11.89-4.98-3.32-3.32-4.98-7.28-4.98-11.89v-6.67h16.02v3.15c0 2.27.14 3.54.42 3.82.28.28 1.56.42 3.82.42h46.72c2.26 0 3.54-.14 3.82-.42.28-.28.42-1.56.42-3.82V81.07c0-2.26-.14-3.52-.42-3.76-.28-.24-1.56-.36-3.82-.36H195.1c-4.61 0-8.58-1.68-11.89-5.04-3.32-3.36-4.98-7.34-4.98-11.95V42c0-4.61 1.66-8.57 4.98-11.89 3.32-3.32 7.28-4.98 11.89-4.98h53.64c4.61 0 8.57 1.66 11.89 4.98 3.32 3.32 4.98 7.28 4.98 11.89v6.67h-16.14v-3.16c0-2.26-.14-3.54-.42-3.82-.28-.28-1.56-.42-3.82-.42h-46.72c-2.27 0-3.54.14-3.82.42-.28.28-.42 1.56-.42 3.82v11.04c0 2.27.14 3.52.42 3.76.28.24 1.56.36 3.82.36h50.24c4.61 0 8.57 1.68 11.89 5.04 3.32 3.36 4.98 7.34 4.98 11.95v17.96c0 4.61-1.66 8.58-4.98 11.89-3.32 3.32-7.28 4.98-11.89 4.98H195.1zM283.2 112.5V25.13h15.9v87.38h-15.9zM347.52 112.5V41.27h-35.68V25.13h87.38v16.14h-35.56v71.24h-16.14zM413.41 112.5V25.13h80.46v16.14h-64.32v19.42h51.7v16.26h-51.7v19.42h64.32v16.14h-80.46z" class="st0"/><path d="M510.86 112.5V25.25h70.39c4.69 0 8.7 1.68 12.01 5.04 3.32 3.36 4.98 7.3 4.98 11.83v23.54c0 4.61-1.66 8.58-4.98 11.89-3.32 3.32-7.32 4.98-12.01 4.98h-4.73l21.6 25.49v4.49h-17.47l-25.12-29.98-28.64.12v29.85h-16.03zm20.27-46.11h46.72c2.19 0 3.42-.12 3.7-.36.28-.24.42-1.5.42-3.76V45.51c0-2.26-.14-3.54-.42-3.82-.28-.28-1.52-.42-3.7-.42h-46.72c-2.27 0-3.54.14-3.82.42-.28.28-.43 1.56-.43 3.82v16.75c0 2.27.14 3.52.43 3.76.28.25 1.55.37 3.82.37zM616.2 112.5V42c0-4.61 1.66-8.57 4.98-11.89 3.32-3.32 7.28-4.98 11.89-4.98h53.52c4.69 0 8.7 1.66 12.02 4.98 3.32 3.32 4.98 7.28 4.98 11.89v70.51h-16.14V83.13h-55.22v29.37H616.2zm16.02-45.38h55.22v-21.6c0-2.26-.16-3.54-.49-3.82-.32-.28-1.58-.42-3.76-.42h-46.72c-2.27 0-3.54.14-3.82.42-.28.28-.42 1.56-.42 3.82v21.6zM739.13 112.5c-4.61 0-8.58-1.66-11.89-4.98-3.32-3.32-4.98-7.28-4.98-11.89V42c0-4.61 1.66-8.57 4.98-11.89 3.32-3.32 7.28-4.98 11.89-4.98h70.27v16.14h-66.87c-2.27 0-3.54.14-3.82.42-.28.28-.42 1.56-.42 3.82v46.6c0 2.27.14 3.54.42 3.82.28.28 1.56.42 3.82.42h66.87v16.14h-70.27zM826.99 112.5V25.13h16.14v35.56h20.51l29.85-35.56h17.48v4.61L878.2 68.82l32.89 39.08v4.61h-17.6l-29.85-35.56h-20.51v35.56h-16.14zM944.95 112.5c-4.61 0-8.58-1.66-11.89-4.98-3.32-3.32-4.98-7.28-4.98-11.89v-6.67h16.02v3.15c0 2.27.14 3.54.43 3.82.28.28 1.56.42 3.82.42h46.72c2.26 0 3.54-.14 3.82-.42.28-.28.43-1.56.43-3.82V81.07c0-2.26-.14-3.52-.43-3.76-.28-.24-1.56-.36-3.82-.36h-50.12c-4.61 0-8.58-1.68-11.89-5.04-3.32-3.36-4.98-7.34-4.98-11.95V42c0-4.61 1.66-8.57 4.98-11.89 3.32-3.32 7.28-4.98 11.89-4.98h53.64c4.61 0 8.58 1.66 11.89 4.98 3.32 3.32 4.98 7.28 4.98 11.89v6.67h-16.14v-3.16c0-2.26-.14-3.54-.43-3.82-.28-.28-1.56-.42-3.82-.42h-46.72c-2.27 0-3.54.14-3.82.42-.28.28-.43 1.56-.43 3.82v11.04c0 2.27.14 3.52.43 3.76.28.24 1.56.36 3.82.36h50.24c4.61 0 8.58 1.68 11.89 5.04 3.32 3.36 4.98 7.34 4.98 11.95v17.96c0 4.61-1.66 8.58-4.98 11.89-3.32 3.32-7.28 4.98-11.89 4.98h-53.64z" class="st1"/></svg>