<svg xmlns="http://www.w3.org/2000/svg" version="1.1" xmlns:xlink="http://www.w3.org/1999/xlink" xmlns:svgjs="http://svgjs.com/svgjs" x="0" y="0" viewBox="0 0 53 53" style="enable-background:new 0 0 512 512" xml:space="preserve" class=""><g><path d="M48.5 20.1c1.4-.5 2.5-1.8 2.8-3.3.1-.8 0-1.4 0-2v-1.9l-.1-3.7c0-.6 0-1.3-.3-2-.5-1.4-1.7-2.3-3.1-2.6-.7-.1-1.3 0-1.9 0-4.9.2-6.6.2-11.2.4 4.6.2 6.3.2 11.2.4.6 0 1.3 0 1.8.1s1 .4 1.4.7c.4.4.7.8.8 1.3.2.5.1 1 .1 1.7V14.9c0 .6 0 1.3-.1 1.7-.2 1-.9 1.8-1.9 2.1-.5.2-.9.1-1.6.1h-1.9c-15.3-.1-10-.1-11.2-.1l-14.9-.1H5.5c-1-.2-1.7-.9-2-1.7-.2-.4-.2-.9-.2-1.5V8.1c.3-1 1-1.8 1.9-2.1.5-.2.9-.2 1.6-.2h1.9l3.7-.1 7.4-.2c5-.2 9.9-.3 14.9-.5-5-.2-9.9-.3-14.9-.5l-7.4-.2H6.8c-.6 0-1.4-.1-2.1.2-1.4.5-2.6 1.8-2.9 3.3-.1.8-.1 1.4-.1 2 0 .2-.1 5.8-.1 5.6v1c0 .4.1.8.2 1.1.5 1.5 1.7 2.7 3.4 3 .9.1 1.4.1 2 .1h.6c-.2 1.7-.3 3.4-.4 5.1h-.7c-.6 0-1.4-.1-2.1.2-1.5.5-2.6 1.8-2.9 3.3-.1.8-.1 1.4-.1 2 0 .2-.1 5.8-.1 5.6v1c0 .4.1.8.2 1.1.5 1.5 1.7 2.7 3.4 3 .9.1 1.4.1 2 .1h.6c-.1.7-.1 1.4-.2 2 0 .5-.1 1 0 1.6.2 1.2 1 2.2 2.1 2.6.6.2 1.2.2 1.7.3l3 .1c4 .2 8 .2 12 .2s8-.1 12-.2l3-.1c.5 0 1.1 0 1.7-.3 1.1-.4 1.9-1.4 2.1-2.6.1-.6 0-1.1 0-1.6-.1-.7-.1-1.4-.2-2.2h1.4c.6 0 1.4 0 2.1-.3 1.4-.5 2.5-1.8 2.8-3.3.1-.8 0-1.4 0-2v-1.9l-.1-3.7c0-.6 0-1.3-.3-2-.5-1.4-1.7-2.3-3.1-2.6-.7-.1-1.3 0-1.9 0h-.5c-.1-1.9-.2-3.7-.4-5.6h1.4c.6 0 1.5 0 2.2-.3zm-30 .5 14.9-.1c1.1 0 8.6-.1 11.4-.1-.2 1.8-.3 3.6-.4 5.4-2.9-.2-5.8-.3-8.7-.3-3.1-.1-6.1-.1-9.2-.1-5 0-8.6 0-15.1.3-.1 0-3-.1-2.8-.1-.1-1.7-.2-3.4-.4-5.1 13.6.1 9.2.1 10.3.1zm26.1 23.3c-.1.5 0 1-.2 1.4-.1.4-.3.8-.6 1.1s-.7.5-1 .6c-.4.1-.8.1-1.3 0l-3-.1c-4-.2-8-.2-12-.2s-8 .1-12 .2l-3 .1c-.5 0-.9.1-1.3 0s-.8-.3-1-.6c-.3-.3-.5-.7-.6-1.1s-.1-.9-.2-1.4c-.1-.7-.1-1.4-.2-2h10.4l14.9-.1c15.7-.2-4.2 0 11.4-.1-.2.8-.2 1.5-.3 2.2zm.7-17.2h.6c.6 0 1.3 0 1.8.1s1 .4 1.4.7c.4.4.7.8.8 1.3.2.5.1 1 .1 1.7V36.2c0 .6 0 1.3-.1 1.7-.2 1-.9 1.8-1.9 2.1-.5.2-.9.1-1.6.1h-1.9c-15.3-.1-10-.1-11.2-.1l-14.9-.1H5.6c-1-.2-1.7-.9-2-1.7-.2-.4-.2-.9-.2-1.5 0-.2-.1-5.9-.1-5.6v-1.7c.2-.9.8-1.8 1.8-2.1.5-.2.9-.2 1.6-.2h4.5c2 .1 3.9.2 5.9.2 3.1.1 6.1.1 9.2.1s6.1 0 9.2-.1 6.1-.2 9.2-.4h.1c.3 0 .4-.1.5-.2z" data-original="#000000" class=""></path><path d="M44.9 14.8c.4-.4.6-.8.8-1.2.3-.8.3-1.7 0-2.5-.2-.4-.4-.8-.8-1.2-.4.4-.6.8-.8 1.2-.3.8-.3 1.7 0 2.5.2.4.4.8.8 1.2zM40.3 14.8c.4-.4.6-.8.8-1.2.3-.8.3-1.7 0-2.5-.2-.4-.4-.8-.8-1.2-.4.4-.6.8-.8 1.2-.3.8-.3 1.7 0 2.5.2.4.4.8.8 1.2zM10.7 8.8c-.9 0-1.8.4-2.4 1.1s-.9 1.6-.8 2.4c0 .9.5 1.7 1.1 2.1.6.5 1.4.6 2.1.4-1.3-.4-1.9-1.6-1.7-2.5.1-.9.9-1.5 1.7-1.5s1.6.6 1.7 1.5c.2.9-.4 2-1.7 2.5.7.2 1.5.1 2.1-.4s1.1-1.2 1.2-2.1-.2-1.8-.8-2.4c-.7-.7-1.6-1.1-2.5-1.1zM21.1 12.3c-.1.9-.9 1.5-1.7 1.5s-1.6-.6-1.7-1.5c-.2-.9.4-2 1.7-2.5-.7-.2-1.5-.1-2.1.4s-1.1 1.2-1.2 2.1.2 1.8.8 2.4c.6.7 1.5 1.1 2.4 1.1s1.8-.4 2.4-1.1.9-1.6.8-2.4c-.1-.9-.5-1.6-1.2-2.1-.6-.5-1.4-.6-2.1-.4 1.5.5 2.1 1.6 1.9 2.5zM28.1 15.6c.9-.1 1.6-.5 2.1-1.2.5-.6.6-1.4.4-2.1-.4 1.3-1.6 1.9-2.5 1.7-.9-.1-1.5-.9-1.5-1.7s.6-1.6 1.5-1.7c.9-.2 2.1.4 2.5 1.7.2-.7.1-1.5-.4-2.1S29 9.1 28.1 9s-1.8.2-2.4.8c-.7.6-1.1 1.5-1.1 2.4s.4 1.8 1.1 2.4c.6.7 1.5 1.1 2.4 1zM44.1 32.4c-.3.8-.3 1.7 0 2.5.2.4.4.8.8 1.2.4-.4.6-.8.8-1.2.3-.8.3-1.7 0-2.5-.2-.4-.4-.8-.8-1.2-.4.4-.6.8-.8 1.2zM40.3 31.2c-.4.4-.6.8-.8 1.2-.5 1.4-.1 2.8.8 3.7.4-.4.6-.8.8-1.2.3-.8.3-1.7 0-2.5-.2-.4-.4-.8-.8-1.2zM10.7 30.2c-.9 0-1.8.4-2.4 1.1s-.9 1.6-.8 2.4c.1.9.5 1.6 1.2 2.1.6.5 1.4.6 2.1.4-1.3-.4-1.9-1.6-1.7-2.5.1-.9.9-1.5 1.7-1.5s1.6.6 1.7 1.5c.2.9-.4 2-1.7 2.5.7.2 1.5.1 2.1-.4s1.1-1.2 1.2-2.1-.2-1.8-.8-2.4c-.8-.7-1.7-1.1-2.6-1.1zM21.5 31.6c-.6-.5-1.4-.6-2.1-.4 1.3.4 1.9 1.6 1.7 2.5-.1.9-.9 1.5-1.7 1.5s-1.6-.6-1.7-1.5c-.2-.9.4-2 1.7-2.5-.7-.2-1.5-.1-2.1.4s-1.1 1.2-1.2 2.1.2 1.8.8 2.4c.6.7 1.5 1.1 2.4 1.1s1.8-.4 2.4-1.1.9-1.6.8-2.4c.1-.9-.4-1.7-1-2.1zM30.2 31.5c-.5-.6-1.2-1.1-2.1-1.2s-1.8.2-2.4.8c-.7.6-1.1 1.5-1.1 2.4s.4 1.8 1.1 2.4 1.6.9 2.4.8c.9-.1 1.6-.5 2.1-1.2.5-.6.6-1.4.4-2.1-.4 1.3-1.6 1.9-2.5 1.7-.9-.1-1.5-.9-1.5-1.7s.6-1.6 1.5-1.7c.9-.2 2.1.4 2.5 1.7.2-.4 0-1.2-.4-1.9z" data-original="#000000" class=""></path></g></svg>