<svg xmlns="http://www.w3.org/2000/svg" version="1.1" xmlns:xlink="http://www.w3.org/1999/xlink" xmlns:svgjs="http://svgjs.com/svgjs" x="0" y="0" viewBox="0 0 73 73" style="enable-background:new 0 0 512 512" xml:space="preserve" class=""><g><path d="M16.495 37.88c.913-.514 1.281-1.808.776-2.726-.505-.918-1.794-1.3-2.717-.804l-.073.04c-.902.534-1.244 1.834-.72 2.742s1.821 1.262 2.734.748zM14.722 44.28l-.073.04c-.902.534-1.243 1.834-.72 2.742.524.907 1.821 1.262 2.734.748s1.281-1.808.776-2.726c-.504-.918-1.794-1.3-2.717-.804z" data-original="#000000" class=""></path><path d="M9.2 60.4c.696.13.108.041 12.68.068a3.67 3.67 0 0 0 3.666-3.667V33.035h9.786l.228 3.438a.75.75 0 0 0 1.235.52l4.762-4.077a.75.75 0 0 0-.042-1.173l-5.292-3.907a.75.75 0 0 0-1.193.653l.202 3.046h-9.686V21.233a3.67 3.67 0 0 0-3.667-3.667H9.872c-.911 0-1.736.346-2.378.899-1.215.488-2.254 1.608-2.722 2.76-.601 1.478-.611 3.119-.613 4.714-.028 28.408-.174 28.519.322 30.461.763 2.983 2.838 4.23 4.719 4zm12.68-1.432H9.871a2.169 2.169 0 0 1-2.167-2.167V26.958c.273.035 6.912.01 16.341.018v29.825a2.169 2.169 0 0 1-2.167 2.167zm0-39.902c1.195 0 2.166.972 2.166 2.167v4.243c-3.75.004-16.083-.014-16.34.019v-4.262c0-1.195.971-2.167 2.166-2.167z" data-original="#000000" class=""></path><path d="M63.918 56.97V21.401a3.67 3.67 0 0 0-3.666-3.667H48.246c-.79 0-1.517.256-2.115.681-1.275.456-2.374 1.615-2.86 2.81-.82 2.017-.61 1.56-.637 28.487H33.36l.234-3.822a.752.752 0 0 0-1.197-.647l-5.273 3.934a.75.75 0 0 0-.037 1.174c4.877 4.05 4.77 4.23 5.268 4.23.39 0 .724-.303.749-.703l.163-2.666h9.366c-.003 3.176-.14 6.872 2.629 8.635a3.79 3.79 0 0 0 1.772.567c1.155.408.815.138 13.218.222a3.67 3.67 0 0 0 3.666-3.666zm-3.666-37.736c1.195 0 2.166.972 2.166 2.167v4.9c-.406-.29.46-.086-16.34-.151v-4.749c0-1.195.972-2.167 2.168-2.167zm0 39.902H48.246a2.169 2.169 0 0 1-2.167-2.166V27.65c16.877-.065 15.934.14 16.34-.15v29.47a2.168 2.168 0 0 1-2.167 2.166z" data-original="#000000" class=""></path><path d="M54.868 39.226c.912-.514 1.28-1.807.776-2.725-.505-.919-1.794-1.3-2.718-.805l-.072.041c-.902.533-1.244 1.834-.72 2.741s1.82 1.263 2.734.748zM53.095 45.626l-.073.041c-.902.533-1.244 1.834-.72 2.741.524.908 1.821 1.263 2.734.748.913-.514 1.281-1.807.776-2.726s-1.794-1.3-2.717-.804zM61.94 16.314l.752-3.032a.751.751 0 0 0-.549-.908.754.754 0 0 0-.908.548l-.75 3.03a.75.75 0 1 0 1.456.362zM64.808 17.587l1.639-2.149a.751.751 0 0 0-1.194-.91l-1.638 2.148a.751.751 0 0 0 1.193.91zM68.105 19.141l-2.777.1a.75.75 0 0 0 .026 1.5c.1 0 2.906-.098 2.806-.1a.752.752 0 0 0 .722-.777.755.755 0 0 0-.777-.723z" data-original="#000000" class=""></path></g></svg>