<svg xmlns="http://www.w3.org/2000/svg" version="1.1" xmlns:xlink="http://www.w3.org/1999/xlink" xmlns:svgjs="http://svgjs.com/svgjs" x="0" y="0" viewBox="0 0 53 53" style="enable-background:new 0 0 512 512" xml:space="preserve" class=""><g><path d="M4 14.4c-.4-3.7 1.6-7.5 4.8-9.2 3.1-1.9 7.4-1.7 10.4.5 3.1 2.1 4.8 6.2 4.1 10.2.3-1 .6-2 .6-3s-.1-2.1-.4-3.1-.7-2-1.3-2.9-1.3-1.7-2.1-2.4c-2.4-2-5.8-3-9.3-2.2-1.1.1-2.1.5-3.1 1.1-4.4 2.6-6 7.2-5.3 11.2.2 1.1.5 2.1 1 3.1.5.9 1.1 1.8 1.9 2.6.8.7 1.6 1.4 2.5 1.9s1.9.8 2.9 1c-3.8-1.6-6.4-5.1-6.7-8.8z"  data-original="#000000" class=""></path><path d="M20.1 12.1c-.2-.6-.4-1.2-.7-1.8s-.8-1.1-1.3-1.5c-2-1.8-5.1-2.1-7.7-.7-2.6 1.5-3.8 4.4-3.2 7 .1.7.3 1.3.7 1.9.3.6.7 1.1 1.2 1.5.9.9 2.1 1.4 3.3 1.5-2.2-1-3.5-3.1-3.6-5.1-.1-2.1 1-4.1 2.7-5 1.7-1 4-1 5.7.2 1.7 1.1 2.8 3.3 2.6 5.7.5-1.2.6-2.5.3-3.7z"  data-original="#000000" class=""></path><path d="M49.6 38.6c-.2-.4-.4-.8-.5-1.2s-.1-.9-.1-1.3c0-.2.1-.4.1-.6.1-.3.1-.5.1-.8.1-1.1-.3-2.2-.8-3.1l-5.7-10.2-.7-1.3-.4-.6c-.1-.2-.3-.5-.5-.7-.8-.9-2.1-1.4-3.3-1.3s-2.4.9-2.9 2c0 .1-.1.2-.1.2-.9-.8-2.2-1.1-3.4-.8s-2.2 1.1-2.7 2.2c-.9-.8-2.2-1.1-3.4-.8-1.1.2-2 1-2.5 1.9-4.5-7.9-4.3-7.5-4.5-7.8-.9-1.2-2.4-1.7-3.8-1.5-2.4.4-3.8 2.9-3 5.2.1.3.2.5.3.8 1.5 2.5 5.5 9.3 9 15.4-1.3-.3-2.5-.7-3.8-1-.4-.1-1.1-.3-1.7-.2-2 .2-3.5 1.9-3.4 3.8.1 1.3.8 2.4 1.9 3 .6.4.4.3 11.7 3.1.9.2 1.8.6 2.7 1.1 1.7.9 3.1 2.3 4 4l.8 1.3c.2.4.6.9 1 1.2.9.6 2.2.5 3-.1l3.9-2.4 3.9-2.1 2.6-1.4 1.3-.7c.4-.2.9-.5 1.2-1 .7-.9.7-2.2.1-3.1zm.1 4c-.2.4-.6.6-1 .8l-1.2.8-2.5 1.5-3.8 2.3-4 2.2c-.8.5-1.9.5-2.6 0-.4-.3-.6-.6-.8-1.1l-.7-1.3c-.9-1.8-2.3-3.4-4.1-4.5-.9-.5-1.8-1-2.8-1.3-11.4-3.2-10.9-3-11.3-3.3-.7-.4-1.1-1.2-1.1-1.9 0-1.2.9-2.2 2-2.2.4 0 .7.1 1.2.2 1.9.5 3.8 1.1 5.8 1.6.2.1.4 0 .6-.1.4-.2.6-.8.3-1.2-9.1-16-7.3-12.7-9.9-17.3-.1-.1-.1-.3-.2-.4-.4-1.1.3-2.5 1.5-2.7.7-.1 1.4.1 1.9.8.2.2 6 10.3 6.1 10.4.3.5.8.6 1.3.3s.6-.8.3-1.3-.4-1.2-.1-1.8c.2-.6.8-1 1.4-1.2.6-.1 1.3 0 1.8.4l.3.3c0 .1.1.1.1.2.1.1.9 1.6.9 1.5.3.4.8.6 1.2.3s.6-.8.3-1.2c-.3-.6-.4-1.3-.1-1.9.2-.6.8-1.1 1.4-1.2.6-.2 1.3 0 1.8.4.1.1.2.2.3.4s.1.2.3.5c.1.1.8 1.3.7 1.2.2.4.8.5 1.2.3s.5-.8.3-1.2c-.4-.6-.4-1.4-.1-2s.9-1.1 1.6-1.2 1.5.2 1.9.7c.2.2.5.7.7 1.1l.7 1.3 6 10c.5.8.8 1.6.7 2.5 0 .2 0 .4-.1.6.2.6.1.8.1 1.1 0 .5 0 1.1.2 1.6.1.5.4 1 .7 1.4l.8 1.2c.5.8.5 1.7 0 2.4z"  data-original="#000000" class=""></path></g></svg>