<svg xmlns="http://www.w3.org/2000/svg" version="1.1" xmlns:xlink="http://www.w3.org/1999/xlink" xmlns:svgjs="http://svgjs.com/svgjs" x="0" y="0" viewBox="0 0 512 512" style="enable-background:new 0 0 512 512" xml:space="preserve" class=""><g><path d="M171 70.5c.8 0 1.6-.2 2.4-.5 2.8-1.2 5.6-2.4 8.5-3.5 3.1-1.2 4.6-4.7 3.4-7.8s-4.7-4.6-7.8-3.4c-3 1.2-6 2.4-9 3.8-3 1.3-4.4 4.9-3 7.9 1 2.2 3.2 3.5 5.5 3.5z" data-original="#000000" class=""></path><path d="M408.4 103.6C367.7 62.9 313.6 40.5 256 40.5c-21.1 0-42 3-62 9.1-3.2 1-5 4.3-4 7.5s4.3 5 7.5 4c18.9-5.7 38.6-8.6 58.6-8.6 47.1 0 90.6 16.1 125.1 43.1-1.5.3-3.1.7-4.6 1.3-10.8 3.7-20.4 13.5-25.2 25.5-4.6 11.6-4.2 23.7 1.1 34.1 5.1 9.8 15.2 23.6 26 38 6.3 8.5 20.1 40.5 8 86.7-6 22.7-16.3 56.5-22.6 76.9l-67.4-196.3h15.6c8.2 0 14.9-6.7 14.9-14.9s-6.7-14.9-14.9-14.9H195.7c-8.2 0-14.9 6.7-14.9 14.9s6.7 14.9 14.9 14.9h16l27.4 66.1-38.7 115.7-62.2-181.7h15.6c8.2 0 14.9-6.7 14.9-14.9s-6.7-14.9-14.9-14.9H94.7c16.3-21.3 37-39.5 61-53.2 2.9-1.6 3.9-5.3 2.3-8.2s-5.3-3.9-8.2-2.3C117.2 87 89.9 113.8 70.7 146 51 179.2 40.5 217.2 40.5 256c0 57.6 22.4 111.7 63.1 152.4s94.8 63.1 152.4 63.1c29.7 0 58.5-5.9 85.5-17.6 3-1.3 4.4-4.8 3.1-7.9-1.3-3-4.8-4.4-7.9-3.1-2.4 1-4.8 2-7.2 2.9l-63.4-172.3c-.9-2.4-3.1-3.9-5.6-3.9s-4.8 1.6-5.6 4L191.5 449c-7.5-2.5-14.7-5.4-21.7-8.7l-99.2-268c4.4-9.8 9.6-19.3 15.6-28.2h67.6c1.6 0 2.9 1.3 2.9 2.9s-1.3 2.9-2.9 2.9h-24c-1.9 0-3.8.9-4.9 2.5s-1.4 3.6-.8 5.4l70.7 206.4c.8 2.4 3.1 4.1 5.7 4.1s4.9-1.7 5.7-4.1l45.1-134.6c.5-1.4.4-2.9-.1-4.2l-29.8-71.9c-.9-2.2-3.1-3.7-5.5-3.7h-20c-1.6 0-2.9-1.3-2.9-2.9s1.3-2.9 2.9-2.9h116.2c1.6 0 2.9 1.3 2.9 2.9s-1.3 2.9-2.9 2.9h-24c-1.9 0-3.8.9-4.9 2.5s-1.4 3.6-.8 5.4l76 221.5c.8 2.4 3.1 4.1 5.7 4.1h.1c2.6 0 4.9-1.7 5.6-4.2.2-.6 19.2-60.5 28.2-94.9 12.9-49-.9-84.8-10-96.9-10.5-14-20.3-27.3-24.9-36.3-3.7-7.2-4-15.8-.6-24.1 3.5-8.7 10.6-16.1 18-18.7 4.4-1.5 9.1-1.9 14-1.2 20.1 18.7 36.4 41.3 47.6 66.6.1 15.6-3.8 27.4-9.7 45.1-1.3 4-2.7 8.1-4.2 12.7-8.4 26.1-52.2 156-66.5 198.5-1.8 1.1-3.7 2.2-5.5 3.2-2.9 1.6-3.9 5.3-2.3 8.2 1.1 1.9 3.1 3 5.2 3 1 0 2-.3 3-.8 67.5-38.2 109.4-110.1 109.4-187.6 0-57.5-22.4-111.6-63.1-152.3zM260.6 293l57.7 156.8c-20 6.4-40.9 9.7-62.2 9.7-18.3 0-36.1-2.5-53-7zM153.9 431.9C93.3 396.6 52.5 331 52.5 256c0-23.2 4-45.8 11.4-67.1zm224.2-13.1c17.6-52.2 54-160.1 61.5-183.7 1.4-4.5 2.8-8.6 4.1-12.5 3-8.9 5.5-16.6 7.4-24.3 5.4 18.3 8.4 37.7 8.4 57.7 0 64.4-30.7 124.6-81.4 162.8z" data-original="#000000" class=""></path></g></svg>