<svg xmlns="http://www.w3.org/2000/svg" version="1.1" xmlns:xlink="http://www.w3.org/1999/xlink" xmlns:svgjs="http://svgjs.com/svgjs" width="512" height="512" x="0" y="0" viewBox="0 0 66 66" style="enable-background:new 0 0 512 512" xml:space="preserve" class=""><g><path d="M7.871 20.297C-3.106 44.08 19.072 67.549 41.899 60.172c11.987-3.873 20.325-16.637 18.983-29.059-1.249-11.645-11.014-22.794-24.046-24.05a.5.5 0 0 0-.095.995C49.249 9.265 58.682 19.976 59.888 31.22c1.293 11.969-6.744 24.268-18.296 28.001-11.346 3.664-25.194-1.468-31.521-11.688-4.762-7.674-5.268-18.2-1.292-26.816 1.422-3.069 4.08-5.609 8.079-7.758.307 3.479-.014 4.924.812 5.749.932.945 2.381.312 3.398-.548l9.25-7.781c1.143-.963 1.767-1.894 1.854-2.769.136-1.218-.639-2.464-3.465-2.592l-12.789-.56c-2.733-.128-3.607 1.137-3.491 2.214.107 1.194 1.197 1.747 2.158 2.234 1.364.692 1.826.931 2.151 2.98-4.396 2.293-7.306 5.045-8.865 8.411zm10.275-2.872a5.27 5.27 0 0 1-.064-.403c-.017-.158-.025-.339-.037-.51l.483.483c-.107.108-.326.304-.382.43zm2.277-.031c-.722.609-1.847 1.217-2.187.327.249.145.443-.168.647-.372l.426.426a.25.25 0 1 0 .354-.354l-.426-.426 1.073-1.073.616.616a.25.25 0 1 0 .353-.354l-.616-.616.698-.698.684.684a.25.25 0 0 0 .354 0 .242.242 0 0 0 .065-.197c.009.001.015.01.024.01a.249.249 0 0 0 .177-.073l2.161-2.161a.207.207 0 0 0 .059-.059l.458-.458.348.348zm3.639-4.205L22.31 14.94c-.034.034-.04.079-.051.122l-.546-.546 1.328-1.328h1.021zm-.521-.5.936-.936.51.51-.426.426zm-8.503-4.675c-2.807-1.424-1.687-2.675.835-2.558l12.79.56c1.18.054 2.647.311 2.516 1.485v.006c-.059.599-.579 1.328-1.504 2.107l-3.601 3.028-.378-.378 1.288-1.288a.25.25 0 1 0-.354-.354l-1.288 1.288-.51-.51.472-.472a.25.25 0 1 0-.354-.354l-2.115 2.115h-.497a.25.25 0 0 0-.002.499l-.975.975-.274-.274a.25.25 0 1 0-.353.354l.274.274-.698.698-.574-.574a.25.25 0 1 0-.354.353l.574.575-1.073 1.073-.5-.5a.25.25 0 0 0-.354 0c-.006.006-.004.015-.009.022a59.094 59.094 0 0 1-.045-1.137c-.168-5.413-.835-5.948-2.937-7.013z" fill="#000000" data-original="#000000" class=""></path><path d="M26.491 29.939a34.804 34.804 0 0 1-7.225 8.105.5.5 0 0 0 .59.805c2.715-1.771 6.815 1.661 10.058-.227a.501.501 0 0 0-.503-.865c-2.159 1.259-5.026-.523-7.81-.426a35.802 35.802 0 0 0 5.731-6.852c5.745-8.932-3.994-12.717-7.603-5.398a.5.5 0 0 0 .897.442c2.99-6.07 10.86-3.35 5.865 4.416zM43.297 20.865a.496.496 0 0 0-.591.171l-9.319 12.907a.501.501 0 0 0-.039.523c.086.167.245.243.45.27l7.939-.094a146.3 146.3 0 0 0 .051 4.234.5.5 0 0 0 .5.487h.014a.5.5 0 0 0 .487-.513c-.038-1.456-.055-2.86-.051-4.22l3.831-.045a.5.5 0 0 0-.006-1h-.006l-3.812.045c.049-4.433.332-8.406.862-12.232a.503.503 0 0 0-.31-.533zm-1.554 12.776-6.965.083 7.59-10.512c-.38 3.278-.585 6.693-.625 10.429zM29.04 44.826l-.048-2.779a.487.487 0 0 0-.509-.491.5.5 0 0 0-.491.509l.148 8.542a.5.5 0 0 0 .5.491h.009a.5.5 0 0 0 .491-.509l-.072-4.133a.492.492 0 0 0 .133-.183c.682-1.736 3.511-1.648 3.739 1.16.069.851-.123 1.731-.309 2.582a.5.5 0 1 0 .976.214c.192-.88.41-1.877.329-2.877-.247-3.045-3.124-4.086-4.896-2.526zM39.867 44.456a.5.5 0 0 0 .461-.536.495.495 0 0 0-.536-.461c-1.11.082-2.15.62-2.886 1.437-.072-.272-.13-.548-.217-.815a.5.5 0 0 0-.95.312c.184.562.318 1.139.426 1.721a.49.49 0 0 0 .034.225c.219 1.307.264 2.646.091 3.957a.5.5 0 1 0 .991.131 14.385 14.385 0 0 0-.09-4.204c.518-.98 1.57-1.685 2.676-1.767zM48.686 15.094a1.771 1.771 0 0 0-1.546.827.5.5 0 0 0-.412.341c-.562 1.725 1.466 3.143 2.893 2.051 1.345-1.026.669-3.135-.935-3.219zm-1.041 1.786a.5.5 0 0 0 .291-.313c.204-.643 1.185-.632 1.381.083.309 1.127-1.574 1.515-1.672.23zM57.396 32.443c-.396-1.442-2.34-1.774-3.141-.465a.5.5 0 0 0-.412.342 1.896 1.896 0 0 0 .693 2.089c1.396.989 3.312-.32 2.86-1.966zm-2.346.181c.201-.631 1.183-.639 1.381.084.205.746-.689 1.332-1.317.885a.903.903 0 0 1-.354-.656.494.494 0 0 0 .29-.313zM47.657 49.154a.501.501 0 0 0-.412.341c-.57 1.751 1.492 3.123 2.894 2.051a1.86 1.86 0 0 0 .659-1.926c-.399-1.457-2.348-1.759-3.141-.466zm2.177.731c.309 1.13-1.574 1.512-1.672.23a.5.5 0 0 0 .291-.314c.199-.628 1.181-.644 1.381.084zM32.64 54.087a1.763 1.763 0 0 0-1.546.827c-1 .129-.586 2.764 1.353 2.764 2.358.001 2.453-3.471.193-3.591zm-1.042 1.787a.5.5 0 0 0 .291-.313c.206-.649 1.185-.627 1.381.084.31 1.126-1.574 1.514-1.672.229zM16.04 51.097c1.326 0 2.074-1.254 1.787-2.298-.384-1.404-2.313-1.818-3.14-.466-1 .129-.588 2.764 1.353 2.764zm-.558-2.117c.205-.646 1.186-.629 1.381.083.309 1.123-1.573 1.515-1.671.229a.5.5 0 0 0 .29-.312zM8.014 31.977c-.637.082-.78 1.68.281 2.431 1.392.989 3.312-.317 2.86-1.965-.395-1.437-2.335-1.78-3.141-.466zm1.875 1.598a.852.852 0 0 1-1.37-.637.5.5 0 0 0 .291-.313c.088-.277.411-.486.699-.475a.792.792 0 0 1 .682.559.852.852 0 0 1-.302.866zM14.883 16.39a1.78 1.78 0 0 0-1.546.827c-1 .129-.585 2.764 1.352 2.764 2.394.001 2.428-3.475.194-3.591zm-1.041 1.788c.467-.187.206-.803.99-.788.682.034.987.962.381 1.425a.853.853 0 0 1-1.371-.637zM27.442 10.887a.249.249 0 0 0 .353 0 .249.249 0 0 0 0-.353l-.897-.897c.043-.01.088-.017.122-.05l1.138-1.138.473.473-.011.01a.25.25 0 1 0 .354.354l.011-.011.288.288a.25.25 0 1 0 .354-.353l-.288-.288.623-.623.238.238a.25.25 0 1 0 .354-.354l-.238-.238.285-.285a.25.25 0 1 0-.354-.354l-.285.285-.473-.473.348-.348a.25.25 0 1 0-.354-.353l-.348.348-.161-.161a.25.25 0 1 0-.354.354l.161.161-2.114 2.114a.25.25 0 0 0-.072.174c-.081-.018-.165-.011-.228.052a.249.249 0 0 0 0 .353zm1.692-3.415.473.473-.623.623-.473-.473z" fill="#000000" data-original="#000000" class=""></path></g></svg>