<svg xmlns="http://www.w3.org/2000/svg" version="1.1" xmlns:xlink="http://www.w3.org/1999/xlink" xmlns:svgjs="http://svgjs.com/svgjs" width="512" height="512" x="0" y="0" viewBox="0 0 72 72" style="enable-background:new 0 0 512 512" xml:space="preserve" class=""><g><path d="M48.08 44.821c.64-.245 1.124-1.13 1.137-1.83a.737.737 0 0 0 .277-.567c0-.417-1.231-3.616-2.233-5.8a.75.75 0 0 0-1.364.625c.801 1.747 1.456 3.44 1.816 4.439l-33.572.554c2.749-12.915 22.166-21.213 30.066-8.184a.75.75 0 0 0 1.282-.778c-8.456-13.953-32.074-7.528-36.391 12.158 38.289-.43 38.269-.342 38.982-.617z" fill="#000000" data-original="#000000" class=""></path><path d="M35.232 22.946c4.915-1.666 6.986-6.747 5.178-10.952-1.823-4.239-6.96-6.306-11.452-4.61-.934.354-1.285.644-1.664.794-4.224 1.657-6.287 6.862-4.582 10.979 1.741 4.206 7.515 6.506 12.52 3.789zm3.8-10.36c1.456 3.387-.191 7.408-4.03 8.859-3.751 1.418-8.033-.285-9.543-3.799-1.928-4.482 1.61-9.358 6.767-9.358 2.903 0 5.657 1.626 6.806 4.299zM3.625 52.155c.354 4.667.863 8.319 1.217 12.986 19.209-.338 37.539.068 56.68.068.09-.315.458-.985.729-1.52.341-.091.61-.395.556-.87-.524-4.292-.2-7.112-1.166-11.046a.75.75 0 0 0-1.457.357c.86 3.499.646 6.243 1.045 10.097-13.303.002-24.47.072-53.674.105-.335-3.516-.505-7.528-.861-11.298 17.425-.003 34.955-.09 52.55-.09a.75.75 0 0 0 0-1.5c-17.71 0-35.268.088-53.031.09-.537-.292-1.434.207-1.267.92.011.049.034.09.054.134-.458.434-.861.95-1.375 1.567z" fill="#000000" data-original="#000000" class=""></path><path d="M17.696 55.415a.75.75 0 0 0-.972-.423l-1.186.467.284-1.32a.75.75 0 1 0-1.466-.316l-.354 1.643c-.455-.369-.916-.732-1.354-1.116a.75.75 0 1 0-.99 1.128c.402.352.825.682 1.24 1.022l-1.606.633a.75.75 0 0 0 .55 1.395l1.639-.646-.317 1.47a.75.75 0 1 0 1.465.317l.339-1.569c.415.304.824.62 1.247.908a.75.75 0 1 0 .845-1.24c-.392-.267-.77-.56-1.156-.84l1.37-.54a.75.75 0 0 0 .422-.973zM31.674 55.325a.75.75 0 0 0-.972-.423l-1.186.467.284-1.32a.75.75 0 1 0-1.466-.316l-.354 1.643c-.455-.369-.916-.732-1.354-1.116a.75.75 0 1 0-.989 1.127c.401.352.825.683 1.24 1.022l-1.607.633a.75.75 0 0 0 .55 1.396l1.639-.646-.317 1.471a.75.75 0 1 0 1.465.316l.339-1.569c.415.304.824.619 1.247.907a.75.75 0 1 0 .845-1.239c-.393-.268-.77-.56-1.156-.841l1.37-.54a.75.75 0 0 0 .422-.972zM43.939 55.144a.75.75 0 0 0-.973-.423l-1.186.468.285-1.32a.75.75 0 1 0-1.466-.316l-.354 1.643c-.455-.37-.916-.732-1.354-1.117a.75.75 0 0 0-.99 1.128c.402.352.825.683 1.24 1.022l-1.606.633a.75.75 0 1 0 .55 1.396l1.639-.646-.317 1.47a.75.75 0 1 0 1.466.317l.338-1.569c.415.304.824.619 1.247.907a.75.75 0 1 0 .845-1.24c-.393-.267-.771-.56-1.157-.84l1.37-.54a.75.75 0 0 0 .423-.973zM56.475 54.964a.75.75 0 0 0-.973-.423l-1.187.468.285-1.32a.75.75 0 1 0-1.466-.317l-.354 1.643c-.455-.369-.915-.731-1.354-1.116a.75.75 0 1 0-.989 1.128c.401.352.825.682 1.24 1.022l-1.607.632a.75.75 0 0 0 .55 1.396l1.64-.646-.318 1.471a.75.75 0 1 0 1.466.317l.338-1.57c.415.304.824.62 1.247.907a.75.75 0 1 0 .845-1.239c-.392-.267-.77-.56-1.156-.84l1.37-.54a.75.75 0 0 0 .423-.973zM58.215 46.87a.75.75 0 0 0 .84-.648c.252-1.968.702-3.92 1.338-5.801a.75.75 0 1 0-1.421-.48 31.587 31.587 0 0 0-1.406 6.09.75.75 0 0 0 .65.84zM62.565 47.275l4.263-4.395a.75.75 0 0 0-1.077-1.044l-4.263 4.395a.75.75 0 0 0 1.077 1.044zM63.538 49.997a.75.75 0 0 0 1.014.312l3.424-1.81a.75.75 0 0 0-.702-1.326l-3.423 1.81a.75.75 0 0 0-.313 1.014z" fill="#000000" data-original="#000000" class=""></path></g></svg>