<svg xmlns="http://www.w3.org/2000/svg" version="1.1" xmlns:xlink="http://www.w3.org/1999/xlink" xmlns:svgjs="http://svgjs.com/svgjs" width="512" height="512" x="0" y="0" viewBox="0 0 512 512" style="enable-background:new 0 0 512 512" xml:space="preserve" class=""><g><path d="M84 354.5c2.9 8.7 11.6 14.5 20.3 15.5 3.9 1 9.7-1 11.6-1.9l5.8-1.9c2.9 18.4 7.7 36.7 12.6 55.1 3.4 12 3.6 14.8 6.8 21.3 3.4 12.6 16.3 20.9 29 19.3l16.4-1c23.1 1.6 33.8-23.5 25.1-42.5-4.8-9.7-4.8-9.7-11.6-21.3-9.7-16.4-19.3-32.8-30.9-49.3l13.5-4.8c1-1 2.9-1 4.8-1.9 1.9-1 2.9-1.9 4.8-3.9 2.9-2.9 4.8-5.8 4.8-9.7v-4.8c34.8 3.9 68.6 6.8 103.4 9.7l2.9 8.7c2.9 8.7 9.7 16.4 18.4 20.3s18.4 4.8 27 1.9c8.7-2.9 16.4-8.7 21.3-16.4 4.8-7.7 6.8-17.4 4.8-27-1-4.8-1.9-7.7-3.9-11.6l-3.9-9.7c-4.8-13.5-9.7-28-14.5-41.5 11.6-2.9 22.2-10.6 29-22.2 8.7-13.5 10.6-30.9 4.8-46.4-4.8-15.5-17.4-28-32.8-33.8-12.6-4.8-28-4.8-39.6 1.9-1.9-4.8-3.9-9.7-5.8-14.5l-15.5-38.6L285 84c-2.9-6.8-8.7-11.6-15.5-14.5 13.5 6.8 13.5 23.2 18.4 35.7l11.6 40.6c7.7 27 16.4 54.1 24.2 80.2 7.7 27 17.4 53.1 25.1 80.2l2.9 9.7c1 2.9 2.9 6.8 2.9 8.7 1 4.8 0 9.7-2.9 13.5-3.9 5.8-14.5 9.7-23.2 4.8-3.9-1.9-7.7-5.8-9.7-9.7L312 314l-12.6-37.7c-6.8-20.3-13.5-40.6-20.3-60.9l-18.4-52.2c-5.8-17.4-12.6-34.8-18.4-52.2 0-1-1-1.9-1.9-2.9s-2.9-1.9-3.9-1.9c-1-2.9-1.9-4.8-2.9-7.7-1.9-5.8-1-12.6 1.9-18.4 5.8-12.6 21.3-18.4 34.8-13.5-5.8-3.9-13.5-4.8-21.3-2.9-6.8 1.9-13.5 5.8-18.4 12.6-3.9 6.8-5.8 14.5-4.8 22.2 1 2.9 1 5.8 1.9 8.7-27 28-54.1 57-81.1 86.9 0-1 0-1-1-1.9 0 1 0 1 1 1.9l-1 1c-1 1-1.9 2.9-1 4.8 5.8 15.5 12.6 29.9 18.4 45.4 10.6 34.8 17.4 62.8 21.3 75.4v4.8c-1 1-1 2.9-2.9 3.9-1 0-1 1-1.9 1-1 0-34.8 9.7-32.8 9.7l-29.9 7.7c-4.8 1-11.6 3.9-11.6 2.9-1.9 0-2.9-1-2.9-2.9-11.5-34.8-25-68.6-38.5-103.4-1-4.8-1.9-8.7-2.9-13.5 0-1 0-1-1-1.9-1-1-1.9-1.9-2.9-1.9l-1.9-3.9c-1-1.9-1-3.9-1-5.8 1-3.9 2.9-6.8 7.7-8.7l29-11.6 29-10.6 7.7-2.9h7.7c4.8 0 9.7 3.9 11.6 8.7-1.9-4.8-6.8-8.7-11.6-9.7-2.9 0-4.8 1-7.7 1l-7.7 2.9-29.9 8.7-29.9 8.7c-1.9 1-5.8 1.9-8.7 3.9-4.8 3.9-7.7 11.6-4.8 18.4l1 3.9c-11.6 7.7-19.3 19.3-24.2 32.8-4.8 14.5-4.8 29.9 0 44.4s14.5 27 27 34.8c9.6 7.6 21.2 11.5 33.7 12.4zm230.9-197c12.6 0 23.2 3.9 31.9 9.7 20.3 13.5 29 37.7 20.3 60.9-2.9 8.7-8.7 17.4-17.4 25.1-12.6-37.8-21.2-61.9-34.8-95.7zm-149.7 86.9c-3.9-14.5-7.7-29.9-11.6-44.4 26.1-23.2 51.2-47.3 77.3-71.5 3.9 13.5 8.7 27 13.5 40.6l17.4 53.1c6.8 19.3 13.5 39.6 20.3 58.9l11.6 34.8c-32.8-1-66.7-1.9-99.5-1.9-4.9-10.7-15.5-35.8-29-69.6zm-12.6 110.1 13.5-5.8c5.8 18.4 12.6 36.7 19.3 55.1 4.8 12.6 4.8 12.6 9.7 22.2 2.7 4.7.1 12.3-4.8 13.5h-5.8c-1 0-19.3 1.9-18.4 1.9-14.4-1.3-12.3-8.5-18.4-26.1-6.8-17.4-14.5-34.8-24.2-51.2zm-92.7-26c-8.7-6.8-15.5-16.4-19.3-27s-3.9-22.2-1-32.8c1.9-7.7 5.8-15.5 10.6-22.2 0 1 1 1.9 1 1.9 7.7 29.9 16.4 58.9 26.1 88.9-5.8-2.1-11.6-5-17.4-8.8zM473.4 149.7c-12.6 1-24.2 5.8-34.8 11.6-4.8 3.9-10.6 7.7-14.5 12.6 6.8 1.9 13.5 1.9 19.3 1 11.6-1 24.2-4.8 34.8-11.6 4.8-3.9 10.6-7.7 14.5-13.5-6.8-1-13.5-1-19.3-.1zM471.4 269.5c-9.7-7.7-21.3-13.5-32.8-16.4-5.8-1-12.6-1.9-19.3-1 3.9 5.8 7.7 10.6 12.6 14.5 8.7 7.7 20.3 13.5 32.8 16.4 5.8 1 12.6 1.9 19.3 1-3.9-5.8-7.7-10.6-12.6-14.5zM387.4 102.4c7.7-9.7 13.5-21.3 16.4-32.8 1-5.8 1.9-12.6 1-19.3-6.8 3.9-10.6 7.7-14.5 12.6-7.7 8.7-13.5 20.3-16.4 32.8-1 5.8-1.9 12.6-1 19.3 5.8-2.9 9.7-7.8 14.5-12.6z" fill="#000000" data-original="#000000" class=""></path></g></svg>