<svg xmlns="http://www.w3.org/2000/svg" version="1.1" xmlns:xlink="http://www.w3.org/1999/xlink" xmlns:svgjs="http://svgjs.com/svgjs" width="512" height="512" x="0" y="0" viewBox="0 0 66 66" style="enable-background:new 0 0 512 512" xml:space="preserve" class=""><g><path d="M41.063 59.015c1.899-1.666 2.178-4.425 2.291-6.879l.592-12.088a33.071 33.071 0 0 0 4.155-.271c4.881-.649 9.16-2.472 12.374-5.27 3.824-3.314 5.75-8.061 3.714-12.12-1.046-2.091-3.129-3.504-5.306-3.584-.855-3.128-3.163-5.865-6.122-7.194-2.99-1.342-6.61-1.235-9.532.248-3.857-5.968-10.93-7.584-16.514-5.486-3.767 1.415-6.798 4.508-8.162 8.291-5.99-.759-10.371 5.346-9.207 10.445.156.678.397 1.341.714 1.98l-.56.015c-6.302.19-8.085 2.129-8.194 8.164L.989 53.083c-.063 4.476 1.206 6.097 6.13 6.31 29.848 1.216 31.369 1.863 33.944-.378zm-20.626-.082.203-.203.221.221zm2.271-.347.459.458-.881-.036zm1.924.082.455.455-.874-.036zm1.549.5.642-.643.653.653c.032.032.075.036.115.048zm3.958-.369-.505-.505.855-.854.855.855-1.041 1.041-1.642-.067.621-.621.505.505c.232.233.588-.118.352-.354zm2.556.231a.25.25 0 0 0-.065-.157l-.579-.579 1.1-1.1.69.69zm-.419.197c.043.043.1.06.157.065l-.125.125-1.327-.054.716-.715zm.711.218 1.207-1.207.65.65-.069.069a.25.25 0 1 0 .354.354l.069-.069.29.29c-.369-.004-.74-.014-1.11-.03zm4.888-3.587-1.059 1.059-.65-.65 1.059-1.059zm-1.413 1.412-1.264 1.264-.65-.65 1.264-1.264zm-.604 2.263a.249.249 0 0 0-.004-.343l-.302-.302 1.264-1.264 1.4 1.4a.25.25 0 0 0 .354 0 .249.249 0 0 0 0-.353l-1.4-1.4 1.059-1.059.629.63-.683.683a.25.25 0 1 0 .354.354l.683-.683 1.121 1.121c-1.171.971-2.787 1.206-4.475 1.216zm4.289-3.982-.936.937-.629-.629.937-.936zm.54 2.412-1.122-1.123.936-.937.671.671a.25.25 0 0 0 .354-.354l-.671-.671.945-.945a.25.25 0 1 0-.354-.354l-.945.945-.097-.095 1.264-1.264.338.338a.248.248 0 0 0 .17.071c-.192 1.435-.593 2.757-1.489 3.718zm1.484-4.983a.25.25 0 0 0-.354 0l-.149.149-.977-.978 1.039-1.039.439.439a.249.249 0 0 0 .177.073c.012 0 .022-.012.034-.014l-.023.478a29.74 29.74 0 0 1-.113 1.616l-.222-.222.149-.149a.25.25 0 0 0 0-.353zm1.915-13.936c-.032 0-.061.002-.093.003.025-.611.033-1.225-.008-1.825l.281-.281.962.961zm1.495-.787.673.673c.013.013.032.01.048.02-.481.037-.983.057-1.486.073zm-1.664-1.674c-.095-.684-.281-1.334-.605-1.92l.46-.46 1.262 1.262zm-1.002 4.116-.054-.054.059-.059zm-.19 3.864-.376-.376.369-.369c.033-.034.04-.078.05-.121zm-.094 1.913-.2-.201.221-.221zm-.132 2.703-.093 1.902-1.224-1.223.998-.998zm5.469-10.392-.016.002.286-.286.206.205c-.16.024-.315.057-.476.079zm9.687-17.486c-.069.069-.071.163-.043.25l-.432-.432.252-.251c.232-.233-.119-.588-.354-.354l-.252.251-.351-.351a4.352 4.352 0 0 1 1.23-.504l.671.671zm-1.59-.59.408.408-.885.885-.389-.389c.24-.338.53-.643.866-.904zm2.252-.896c.202-.017.103-.03.334-.03.161 0 .321.021.482.039l-.403.403zm2.28.412-.091.091-.21-.21c.101.038.202.074.301.119zm-14.708-8.278a10.305 10.305 0 0 1 1.64-.246l.094.094-.943.943zm-1.449 2.186c-.118-.287-.262-.562-.399-.841l.586.586-.139.139c-.032.031-.037.075-.048.116zm-.403-1.552.063-.029c-.017.018-.016.043-.027.065zm.347.348c.024-.012.052-.01.072-.03l.772-.772c.034-.01.067-.023.101-.033l.617.617c-.076-.011-.153.001-.211.059l-.755.754zm6.627-.88-.021.021-.036-.036.057.015zm-1.369-.278-.668.668-.764-.763c.48-.003.958.031 1.432.095zm-26.248-1.456h-.933c.298-.301.607-.592.933-.863zm2.117-2.284v.696h-1.143c.368-.252.75-.483 1.143-.696zm-3.581 2.873v1.466h-1.12c.337-.516.714-1.003 1.12-1.466zm2.946 7.54c-.37-.519-.795-1-1.271-1.432h1.533v1.432zm-1.873-1.932a9.537 9.537 0 0 0-2.099-1.216v-.37h2.21v1.586zm-2.599-1.41c-.175-.062-.349-.125-.526-.176h.526zm-4.433.663c3.84-.916 8.213 1.727 9.18 5.554a.492.492 0 0 0 .606.362.497.497 0 0 0 .362-.606 7.594 7.594 0 0 0-.533-1.444c.024-.038.052-.076.052-.125v-.562h1.868a.25.25 0 0 0 0-.5h-1.868v-1.432h1.658a.25.25 0 0 0 0-.5h-1.658v-.217a.25.25 0 0 0-.5 0v.217h-1.524v-1.586h1.85a.25.25 0 0 0 0-.5h-1.85v-.56a.25.25 0 0 0-.5 0v.56h-2.21V13.34a.25.25 0 0 0-.5 0v1.089h-.677c.224-.536.478-1.057.772-1.556h1.431v1.069a.25.25 0 0 0 .5 0v-1.069h1.812a.25.25 0 0 0 0-.5H22.43v-1.556h.964v.883a.25.25 0 0 0 .5 0v-.883h.653a.25.25 0 0 0 0-.5h-.653V9.229h1.617v.96a.25.25 0 0 0 .5 0v-.96h.386a.25.25 0 0 0 0-.5h-.386v-.683h1.379a.25.25 0 0 0 0-.5h-.859c.18-.077.353-.168.536-.237 7.555-2.838 15.87 1.937 17.223 9.894.113.658 1.096.485.986-.168-.006-.033-.016-.064-.022-.097l.112-.111.413.413a.25.25 0 0 0 .354 0 .249.249 0 0 0 0-.353l-.413-.413.719-.719a.25.25 0 1 0-.354-.353l-.719.719-.389-.388a13.622 13.622 0 0 0-.448-1.342c.123.084.229.067.313-.017l.139-.139.424.424a.25.25 0 0 0 .354-.354l-.424-.424.755-.754c.058-.058.07-.136.059-.212l1.232 1.232a.25.25 0 0 0 .354-.354l-.701-.701.943-.943.645.645-.314.314a.25.25 0 1 0 .354.354l.314-.314.402.402a.25.25 0 0 0 .354-.354l-.402-.402.838-.838.47.47-.402.402a.25.25 0 1 0 .354.354l.402-.402.513.513a.25.25 0 0 0 .354 0 .249.249 0 0 0 0-.353l-.513-.513.206-.206c.271.093.542.186.802.303 2.627 1.18 4.687 3.581 5.509 6.342-2.206.353-4.073 2.134-4.309 4.258a.501.501 0 0 0 .442.552.51.51 0 0 0 .552-.442 3.35 3.35 0 0 1 .381-1.183l.308.308-.559.559a.25.25 0 1 0 .354.354l.559-.559.439.439a.25.25 0 0 0 .354-.354l-.439-.439.885-.885.517.517a.25.25 0 0 0 .353 0c.086-.086.083-.213.018-.31.099.056.19.079.294-.025l.721-.72.49.49a.25.25 0 1 0 .353-.354l-.49-.49.49-.49.58.579-.343.344a.25.25 0 1 0 .354.354l.343-.344.561.56a.25.25 0 0 0 .354-.354l-.561-.56.2-.2a5.686 5.686 0 0 1 2.235 2.366c1.872 3.729-.111 7.999-3.475 10.917-2.389 2.08-5.411 3.587-8.844 4.45a.239.239 0 0 0-.064-.199l-.799-.799a.25.25 0 1 0-.353.354l.752.752c-.5.116-1.007.218-1.523.307-.01-.044-.017-.089-.051-.123l-.346-.346.514-.514a.25.25 0 1 0-.354-.354l-.514.514-.92-.919a.25.25 0 1 0-.354.354l.92.919-.715.715c-.184.019-.37.038-.557.054a.249.249 0 0 0-.004-.343l-.673-.673 1.124-1.124a.25.25 0 1 0-.354-.354l-1.124 1.124-.962-.962.77-.77.156.156a.25.25 0 1 0 .353-.354l-.206-.206c.002-.067-.019-.134-.07-.185s-.118-.072-.185-.07l-1.312-1.312.071-.071a.25.25 0 1 0-.353-.354l-.071.071-.563-.563a.25.25 0 1 0-.354.354l.563.563-.383.383c-.079-.11-.152-.222-.244-.326a4.137 4.137 0 0 0-.889-.742c.035-.012.073-.014.101-.042a.247.247 0 0 0 .007-.337l.848-.848a.25.25 0 1 0-.354-.353l-.843.843-1.686-1.686a.25.25 0 0 0-.354 0c-.026.026-.027.061-.039.093l-.853.853-.824-.824.075-.075a.25.25 0 1 0-.354-.354l-.102.102c-.089-.033-.187-.032-.259.039-.071.072-.072.17-.039.259l-.853.852-1.277-1.271a.25.25 0 1 0-.354.354l1.275 1.275-.42.42c-.503.035-1.073.074-1.678.114.019-.011.042-.008.059-.024a.25.25 0 0 0 0-.354l-.321-.321.71-.71a.25.25 0 1 0-.354-.353l-.71.71-.825-.824.373-.373a.25.25 0 1 0-.354-.354l-.373.373-.207-.207a.25.25 0 1 0-.354.354l.207.207-1.4 1.399-1.416-1.416c.056-.096.059-.215-.023-.298-.082-.081-.201-.08-.298-.023l-.004-.004a.25.25 0 0 0-.354 0 .246.246 0 0 0-.007.336l-1.789 1.788-.961-.961.907-.907.293.293a.25.25 0 0 0 .354 0 .249.249 0 0 0 0-.353l-.293-.293.184-.184a.25.25 0 1 0-.354-.354l-.184.184-.879-.879.129-.129a.25.25 0 1 0-.354-.354l-.129.129-.18-.18a.25.25 0 1 0-.353.354l.18.18-.654.653c-.069-.465-.158-.937-.381-1.377l1.115-1.115a.25.25 0 1 0-.354-.354l-1.04 1.04-.04-.046c.045-.01.092-.018.128-.053a.25.25 0 0 0 0-.354l-1.19-1.19.208-.208a.25.25 0 1 0-.354-.354l-.208.208-.015-.015a.25.25 0 1 0-.354.354l.015.015-.6.6a9.045 9.045 0 0 0-.638-.024l-1.272-1.273a.25.25 0 1 0-.354.354l.931.932c-.673.017-1.344.038-2.016.056a.244.244 0 0 0-.066-.16l-.018-.018 1.401-1.401a.25.25 0 1 0-.354-.354l-1.401 1.401-.919-.919c-.066-.066-.154-.071-.238-.048a.241.241 0 0 0-.061-.147.25.25 0 0 0-.354 0l-1.031 1.031-.672-.672a.25.25 0 1 0-.354.354l.672.672-.289.289c-.021.021-.019.05-.031.074l-1.474.041-.294-.294 1.939-1.94a.25.25 0 1 0-.354-.353l-.98.98-.688-.688.453-.453a.25.25 0 1 0-.353-.354l-.453.453-.974-.974a.25.25 0 1 0-.354.354l.974.974-.934.934c-.088-.258-.187-.514-.248-.776-.873-3.849 1.82-8.195 5.656-9.115zm21.031 16.597c-.012-.029-.012-.062-.035-.086l-.237-.237.825-.825.824.824-.275.275c-.214.003-.427.005-.653.019a56.39 56.39 0 0 0-.449.03zm-.615.042-.025.002.014-.014zm3.033-.031-.334-.334.742-.742 1.481 1.481-.047.047c-.533-.228-1.15-.375-1.842-.452zM24.965 30.96a.25.25 0 0 0-.354 0c-.035.035-.042.081-.052.125a2.31 2.31 0 0 1-.165-.373 3.67 3.67 0 0 1-.116-.491c.05-.008.1-.019.139-.057l.782-.782.879.879-.907.907zm3.658.092 1.4 1.4-.207.206a.238.238 0 0 0-.061.148c-.974.038-1.788.05-2.233.015a4.152 4.152 0 0 1-.576-.093zm2.403 1.696-.296-.296 1.4-1.399.825.824-.81.809c-.378.022-.752.043-1.119.062zm2.282-.518.321.321c.025.025.06.026.091.038l-.823.052zM22.72 27.229c-.3-.15-.627-.252-.971-.315l.328-.328zm-7.535-.515-.097-.097.935-.935c.012.034.014.071.041.099l.919.919-.151.151c-.015.015-.012.036-.022.053l-1.575.044c.021-.084.015-.17-.05-.234zm-4.434-.527 1.107-1.107.688.688-.606.605-.344-.344a.25.25 0 1 0-.354.354l.344.344-.179.179a.242.242 0 0 0-.062.149l-.153.004a8.694 8.694 0 0 1-.441-.872zM1.989 53.098l.318-17.813c.098-5.511 1.479-7.01 7.224-7.182l1.359-.037.002.001.003-.001.48-.013c2.899-.082 5.787-.164 8.69-.239.135-.005.272-.007.408-.007.948 0 1.897.129 2.348.765.252.358.323.845.398 1.359.052.355.106.724.222 1.084.56 1.759 2.413 2.674 3.998 2.802 1.406.119 5.866-.192 8.532-.38.649-.045 1.186-.083 1.539-.104 1.835-.114 3.845.097 4.828 1.632-.102.183.012.36.196.364.514 1.076.517 2.454.453 3.894l-.031.634c-.007.006-.017.003-.024.01l-.425.425-.007-.008a.25.25 0 1 0-.354.354l.007.007-.212.212a.25.25 0 1 0 .354.354l.212-.212.375.374-.053 1.082-.275-.275.007-.007a.25.25 0 1 0-.354-.354l-.013.013a.246.246 0 0 0-.335.008.247.247 0 0 0-.008.335l-.279.279a.25.25 0 1 0 .354.354l.274-.274.595.596-.023.468c-.009-.047-.018-.096-.055-.133a.25.25 0 0 0-.354 0l-.374.374a.246.246 0 0 0-.335.008.248.248 0 0 0-.008.335l-.32.32a.25.25 0 1 0 .354.354l.315-.315.697.697-.009.176a.243.243 0 0 0-.165.069l-.441.441-.028-.028a.25.25 0 1 0-.354.354l.028.028-.765.765a.25.25 0 1 0 .354.354l.765-.765.337.337a.247.247 0 0 0 .176.073c.003.001.008.016.012.02l-.054 1.099c-.004-.004-.002-.011-.006-.015a.25.25 0 0 0-.354 0l-.009.009-.539-.54a.25.25 0 1 0-.354.354l.54.54-1.768 1.768a.25.25 0 1 0 .354.354l.417-.417.548.547-1.167 1.167c-.023.012-.051.01-.07.029s-.017.047-.029.07l-.093.093a.249.249 0 0 0 .177.426c.047 0 .088-.027.128-.053l.992.992-1.264 1.264-1.154-1.154a.25.25 0 1 0-.354.354l.622.622-.937.936-.797-.797c-.009-.013-.006-.03-.017-.042-.012-.012-.029-.008-.042-.017l-.36-.36a.25.25 0 1 0-.354.354l.212.212-1.059 1.059-.683-.683a.25.25 0 1 0-.354.354l.683.683-1.264 1.264-.69-.69 1.14-1.14a.25.25 0 1 0-.354-.354l-1.14 1.14-.233-.233a.25.25 0 1 0-.354.354l.233.233-1.1 1.1-.855-.855.607-.607a.25.25 0 1 0-.353-.354l-1.815 1.815-.458-.457a.249.249 0 0 0-.353 0 .249.249 0 0 0 0 .353l.457.458-.868.868c-.022.022-.021.054-.034.081l-.322-.013c.234-.052.248-.284.126-.406l-.653-.653 1.576-1.577a.25.25 0 1 0-.354-.354L26.82 57.82l-.007-.007a.25.25 0 1 0-.354.354l.008.008-.813.814-.671-.67.948-.949a.25.25 0 1 0-.354-.354l-.988.989c-.079-.015-.159-.005-.219.055-.061.061-.07.141-.056.219l-.607.607-.651-.65.467-.467a.25.25 0 1 0-.354-.354l-1.568 1.569-.301-.015c.062-.097.065-.221-.02-.306l-.286-.286.759-.76a.249.249 0 0 0 0-.353.249.249 0 0 0-.353 0l-.759.759-.008-.008a.25.25 0 1 0-.353.354l.008.008-.417.417c-.032.032-.037.074-.048.115l-12.662-.517c-4.384-.188-5.229-1.402-5.172-5.294z" fill="#000000" data-original="#000000" class=""></path><path d="M21.944 50.734v2.288a.5.5 0 0 0 1 0v-2.329c.352-.06.719-.169 1.068-.378.742-.444 1.216-1.24 1.205-2.029-.008-.52-.209-1.046-.597-1.564-.698-.933-1.723-1.322-2.738-1.054-1.092.294-1.89 1.271-2.033 2.49-.057.49-.084 1.208.34 1.775.412.549 1.069.745 1.755.801zm-1.102-2.46c.096-.81.605-1.454 1.3-1.641a1.44 1.44 0 0 1 .371-.05c.484 0 .947.257 1.307.737.179.237.392.601.397.979.006.431-.283.896-.718 1.155-.645.385-2.098.427-2.511-.122-.158-.211-.204-.548-.146-1.058z" fill="#000000" data-original="#000000" class=""></path><path d="M17.834 56.234h.009l9.514-.058c2.864-.024 3.94-.886 4.053-3.964.063-1.461.119-2.92.182-4.529.074-1.745-.111-3.429-2.127-4l.343-4.312.001-.001c.195-2.573-.627-3.526-3.075-3.688a46.5 46.5 0 0 0-7.14.088c-2.334.208-2.865 1.111-2.962 2.769-.321 4.897-.309 4.533-.32 5.218-1.592.887-1.827 2.696-1.875 4.506a847.055 847.055 0 0 0-.124 4.188c-.088 2.981.98 3.783 3.521 3.783zm2.297-12.893c.286-3.569-.131-3.918 1.559-4.076.787-.063 3.319-.239 3.938.246.823.63.466 2.444.367 3.89-3.78-.169-5.864-.06-5.864-.06zm-2.245-5.897c.759-1.141 7.477-.849 8.78-.764 1.877.125 2.295.6 2.143 2.613l-.336 4.213a45.72 45.72 0 0 0-1.479-.068c.134-1.963.48-3.773-.755-4.717-.936-.733-3.274-.561-4.636-.452-1.783.165-2.199.904-2.293 2.29-.059.886-.101 1.861-.171 2.73-.561-.031-1.27-.034-1.821.084.022-.548.26-5.474.568-5.929zM15.311 52.48c.037-1.397.08-2.788.124-4.188.094-3.478 1.108-4.155 3.852-3.991l.275.015.013-.002c.301.018 3.077-.06 5.815.066 4.032.187 5.351-.219 5.2 3.263v.002c-.053 1.371-.109 2.875-.182 4.529-.09 2.542-.761 2.984-3.059 3.003l-9.51.058c-1.99-.001-2.598-.367-2.528-2.755z" fill="#000000" data-original="#000000" class=""></path></g></svg>