<?xml version="1.0" encoding="iso-8859-1"?>
<!-- Generator: Adobe Illustrator 16.0.0, SVG Export Plug-In . SVG Version: 6.00 Build 0)  -->
<!DOCTYPE svg PUBLIC "-//W3C//DTD SVG 1.1//EN" "http://www.w3.org/Graphics/SVG/1.1/DTD/svg11.dtd">
<svg version="1.1" id="Layer_1" xmlns="http://www.w3.org/2000/svg" xmlns:xlink="http://www.w3.org/1999/xlink" x="0px" y="0px"
	 width="191.991px" height="34.869px" viewBox="0 0 191.991 34.869" style="enable-background:new 0 0 191.991 34.869;"
	 xml:space="preserve">
<g>
	<g>
		<path d="M2.333,34.435c2.601-1.671,5.236-3.273,7.912-4.796l-1.957-3.662c-2.737,1.563-5.433,3.198-8.092,4.91L2.333,34.435z
			 M18.384,25.269c2.753-1.381,5.539-2.688,8.354-3.922l-1.575-3.848c-2.881,1.262-5.725,2.596-8.541,4.008L18.384,25.269z
			 M35.27,17.869c2.888-1.09,5.783-2.101,8.704-3.037l-1.202-3.992c-2.985,0.956-5.946,1.987-8.879,3.095L35.27,17.869z
			 M52.802,12.243c2.965-0.786,5.953-1.507,8.949-2.149l-0.814-4.09c-3.063,0.652-6.108,1.385-9.142,2.189L52.802,12.243z
			 M70.789,8.398c3.029-0.495,6.065-0.906,9.107-1.25l-0.433-4.155c-3.115,0.345-6.218,0.772-9.303,1.278L70.789,8.398z
			 M89.048,6.346c3.056-0.189,6.122-0.312,9.186-0.354l-0.066-4.177c-3.123,0.044-6.242,0.165-9.364,0.36L89.048,6.346z
			 M107.417,6.084c3.065,0.104,6.122,0.288,9.177,0.546l0.318-4.169c-3.117-0.26-6.237-0.442-9.368-0.551L107.417,6.084z
			 M125.732,7.62c3.036,0.401,6.064,0.88,9.075,1.438l0.703-4.117c-3.077-0.563-6.17-1.057-9.272-1.47L125.732,7.62z
			 M143.812,10.951c2.983,0.708,5.955,1.488,8.902,2.344l1.082-4.021c-3.01-0.878-6.044-1.677-9.092-2.397L143.812,10.951z
			 M161.496,16.093c2.903,1.013,5.778,2.092,8.629,3.253l1.473-3.892c-2.912-1.186-5.854-2.289-8.827-3.321L161.496,16.093z
			 M178.589,23.053c2.783,1.305,5.535,2.689,8.257,4.151l1.854-3.71c-2.782-1.496-5.603-2.911-8.458-4.251L178.589,23.053z"/>
	</g>
	<g>
		<polygon points="168.434,34.711 167.269,30.702 186.318,24.781 179.189,5.521 182.965,4.035 191.638,27.493 		"/>
	</g>
</g>
</svg>
