<svg xmlns="http://www.w3.org/2000/svg" version="1.1" xmlns:xlink="http://www.w3.org/1999/xlink" xmlns:svgjs="http://svgjs.com/svgjs" width="512" height="512" x="0" y="0" viewBox="0 0 511.999 511.999" style="enable-background:new 0 0 512 512" xml:space="preserve" class=""><g><path d="M49.742 197.634c6.964 13.163 14.101 26.238 21.356 39.242 3.265 5.85 7.321 12.033 15.217 10.075 6.01-1.491 11.292-7.479 16.156-11.113 20.969-15.661 44.18-28.662 68.285-38.823 27.575-11.623 56.782-19.167 86.527-22.47 14.836-1.647 30.305-2.631 45.177-.816 13.728 1.674 27.464 6.211 39.882 12.421l-5.29 20.813c-3.242 12.753-7.679 25.878-9.18 38.974-1.285 11.202 7.094 21.647 19.05 18.915 4.778-1.092 8.712-4.226 13.002-6.425a4643.884 4643.884 0 0 0 18.561-9.57c23.1-11.974 46.281-23.825 68.839-36.804 10.88-6.26 22.418-12.202 32.724-19.367 9.879-6.869 13.89-17.239 13.537-29.09-.373-12.554-4.785-24.352-9.746-35.723-4.978-11.404-10.578-22.547-16.299-33.593-8.574-16.556-17.623-32.877-27.434-48.733-8.105-13.096-16.124-29.603-27.732-39.857-3.756-3.318-8.501-6.017-13.502-5.657-7.657.551-13.062 7.986-15.218 15.354-5.368 18.346-8.502 38.15-12.154 56.935-8.984-7.166-18.523-13.64-28.863-18.707-12.048-5.905-25.185-10.037-38.059-13.711-27.448-7.832-56.429-11.575-84.939-12.319-54.283-1.417-110.928 9.519-157.474 38.516-11.164 6.954-21.684 14.945-31.486 23.713-8.335 7.457-20.825 17.351-19.64 29.728.585 6.108 3.696 11.44 6.511 16.766 3.828 7.244 7.54 14.543 11.307 21.818 6.846 13.229 13.919 26.341 20.885 39.508zm325.998-93.173c6.085-20.343 10.36-41.023 14.809-61.813 1.109-5.185 2.28-10.357 3.429-15.534.351-1.578 2.166-11.095 3.799-11.111.721-.008 5.078 8.102 5.981 9.446a845.62 845.62 0 0 1 9.351 14.252c11.699 18.241 23.189 36.631 33.821 55.519a819.192 819.192 0 0 1 15.622 29.096c4.994 9.774 10.401 19.466 13.356 30.102 2.438 8.773 4.489 21.975-3.629 28.31-8.351 6.514-17.9 11.751-27.057 17.019-19.684 11.324-39.781 22.071-60.206 32-10.236 4.976-20.512 9.873-30.791 14.76-2.128 1.012-4.22 2.023-6.553 2.487-1.182.235-2.399-.077-2.583.449-.538-3.569 2.443-10.724 3.019-13.163 5.369-22.798 10.18-45.77 15.016-68.688 4.428-20.988 8.516-42.061 12.616-63.131zM22.135 119.836c.152-3.946 3.397-6.99 6.457-9.487a257.094 257.094 0 0 1 10.473-8.11c40.658-29.843 89.765-47.69 139.919-53.654 33.22-3.95 66.943-2.813 99.958 2.404 16.544 2.615 32.924 6.254 49.043 10.799 4.376 1.234 43.404 13.39 42.822 15.712a3147.055 3147.055 0 0 1-24.733 92.691c-31.787-11.85-66.917-11.437-100.476-6.473-57.519 8.509-113.259 30.185-160.385 64.244a1152.302 1152.302 0 0 1-60.778-101.033c-1.186-2.219-2.396-4.578-2.3-7.093z" fill="#000000" data-original="#000000" class=""></path><path d="M500.962 392.543c-.585-6.108-3.696-11.44-6.511-16.766-3.828-7.244-7.54-14.543-11.306-21.818-6.85-13.229-13.924-26.341-20.89-39.507-6.963-13.163-14.1-26.238-21.355-39.242-3.265-5.85-7.321-12.033-15.217-10.075-6.01 1.491-11.292 7.479-16.156 11.113-20.97 15.661-44.18 28.662-68.285 38.823-27.576 11.623-56.781 19.167-86.527 22.47-14.836 1.647-30.305 2.631-45.177.816-13.728-1.674-27.464-6.211-39.883-12.421l5.291-20.813c3.241-12.753 7.679-25.878 9.18-38.974 1.286-11.202-7.094-21.647-19.05-18.915-4.778 1.092-8.712 4.226-13.002 6.425a4576.879 4576.879 0 0 0-18.561 9.57c-23.1 11.974-46.281 23.825-68.839 36.804-10.88 6.26-22.418 12.202-32.724 19.367-9.879 6.87-13.89 17.239-13.538 29.09.374 12.554 4.785 24.352 9.747 35.723 4.977 11.404 10.578 22.547 16.3 33.593 11.764 22.717 24.438 44.992 38.706 66.235 6.436 9.581 13.886 25.261 26.399 27.641 13.409 2.551 17.946-10.828 20.143-21.135 3.611-16.937 7.49-33.809 10.791-50.787 8.984 7.166 18.524 13.64 28.863 18.707 12.048 5.905 25.185 10.037 38.059 13.711 27.448 7.832 56.429 11.575 84.939 12.319 54.282 1.417 110.928-9.519 157.474-38.515 11.164-6.955 21.684-14.944 31.485-23.713 8.339-7.456 20.83-17.35 19.644-29.726zm-365.516 14.901a9004.474 9004.474 0 0 1-20.327 89.191c-19.982-28.641-38.074-58.561-55.214-88.988-9.003-15.981-17.798-32.227-23.423-49.686-2.582-8.017-4.354-17.241-.062-24.487 2.734-4.614 7.484-7.6 12.076-10.371a1023.952 1023.952 0 0 1 59.557-33.286c10.347-5.338 20.799-10.461 31.305-15.48 3.497-1.671 26.711-9.962 27.068-11.711a8994.982 8994.982 0 0 1-30.98 144.818zm354.259-13.333c-.684 3.051-3.219 5.288-5.647 7.258a263.52 263.52 0 0 1-11.094 8.52c-44.919 32.641-99.751 51.01-155.209 55.144-60.114 4.481-120.872-7.275-176.736-29.922a3490.187 3490.187 0 0 1 24.873-93.216c30.442 11.346 64.013 11.43 96.213 7.122 55.209-7.387 108.426-27.368 154.902-58.03a325.019 325.019 0 0 0 6.49-4.391c.739-.513 2.049-1.767 3.337-2.767 1.197 1.835 2.29 3.833 3.339 5.409 2.48 3.721 4.945 7.452 7.378 11.205 17.698 27.316 34.219 55.332 49.633 84.001 1.613 3 3.266 6.343 2.521 9.667z" fill="#000000" data-original="#000000" class=""></path></g></svg>