<svg xmlns="http://www.w3.org/2000/svg" version="1.1" xmlns:xlink="http://www.w3.org/1999/xlink" xmlns:svgjs="http://svgjs.com/svgjs" x="0" y="0" viewBox="0 0 66 66" style="enable-background:new 0 0 512 512" xml:space="preserve" class=""><g><path d="M60.27 30.61c.01.02.01.03 0 .05v-.05zM44.47 19.45c-.03.01-.06.01-.09 0zM39.45 48.02c.1.09.1.25 0 .35l-1.26 1.26 1.26 1.26c.1.1.1.26 0 .36-.09.09-.25.09-.35 0l-1.26-1.26-.54.53c-.09.1-.25.09-.35 0-.1-.1-.1-.26 0-.36l.53-.53-.42-.42c-.1-.1-.1-.26 0-.36s.26-.1.35 0l.43.43 1.26-1.26c.1-.1.26-.1.35 0zM35.34 12.84c1.8-2.15 4.73.62 3.08 2.58-.7.83-2.07.93-2.88.21-.96-.84-.83-2.04-.2-2.79zm2.31 1.93c.48-.56.14-1.68-.75-1.68-.35 0-.64.21-.8.4-.29.34-.44.92.1 1.39.39.35 1.11.3 1.45-.11zM35.22 52.17l-1.51 1.5.8.79 1.5-1.5zm-4.17 3.45 1.96-1.95-.21-.21c-.1-.09-.1-.25 0-.35s.26-.1.35 0l.21.21 1.5-1.51-.53-.53c-.1-.1-.1-.26 0-.35.1-.1.25-.1.35 0l.54.53.1-.11c.1-.1.26-.1.36 0s.1.26 0 .35l-.11.11.79.8 1.19-1.19c.1-.1.26-.1.35 0 .1.1.1.25 0 .35l-1.18 1.19.09.1c.1.1.1.25 0 .35-.09.1-.25.1-.35 0l-.1-.1-1.5 1.51.1.09c.09.1.09.26 0 .36-.1.1-.26.1-.36 0l-1.24-1.25-1.95 1.96c-.1.1-.26.09-.36 0a.274.274 0 0 1 0-.36zM31.64 15.02c-1.71 1.91-4.83-.62-2.99-2.67 1.26-1.41 3.37-.56 3.48 1.2.04.55-.14 1.09-.49 1.47zm-2.25-2c-.3.34-.47.91.05 1.4.59.55 1.76.21 1.69-.81-.06-.89-1.09-1.32-1.74-.59zM23.82 12.23c-.81 0-1.5 1.04-.73 1.77.58.54 1.76.22 1.69-.81-.04-.6-.5-.96-.96-.96zm-1.41 2.5c-.93-.88-.76-2.07-.11-2.79 1.26-1.41 3.37-.57 3.48 1.19.13 1.98-2.19 2.72-3.37 1.6z" data-original="#000000" class=""></path><path d="m37.83 33.2-1.1 1.1.01.01c.1.1.1.26 0 .36-.09.09-.25.09-.35 0l-.01-.02-.22.22c.6.02 1.42.04 2.23.05-.01-.17.37-.49.5-.62l-1.04-1.04c-.01-.02-.01-.04-.02-.06zM14.86 45.6l.05-.04-.05-.05zm1.25-4.57-1.05-1.05c-.03.72-.07 1.46-.1 2.19zm.68-10.07.37-.36c-.2.04-.38.11-.55.18zm-1.68 8.2 1.1-1.1-.98-.98c-.01.09-.01.16-.02.25-.03.58-.07 1.2-.1 1.83zm.15-2.76 1.27-1.27-1.15-1.15c-.02.57-.06 1.39-.12 2.42zm.9-4.8.28-.28-.26-.26c-.67.54-.75 1.36-.78 2.23l.22.22 1.5-1.51-.33-.33-.28.28c-.1.1-.25.1-.35 0s-.1-.26 0-.35zm44.04-.78-.18.18.22.22c.04.04.05.09.06.14.01-.15.02-.29-.01-.44a1.18 1.18 0 0 1-.02-.22.24.24 0 0 1-.07.12zm-.32.75-.22-.22-.86.86.52.52c.04.05.06.1.07.16.34-.33.75-.8.87-1.35-.01.01-.01.02-.02.03-.1.1-.26.1-.36 0zm-19.37 1.82-.94.94c.04.09.04.18-.03.26-.11.1-.17.07-.27.04l-.29.29c.47.01.76.01 1.39.01h1c.01-.04.01-.08.05-.11l.25-.26zm-15.83 27.9-1.9 1.9c-.04.03-.09.04-.14.05l.48.48c.93-.34 1.8-.9 2.54-1.39.01-.01.03-.01.04-.02zm26.48-26.68c.08-.01.15-.01.23-.02.21-.01.42-.03.62-.04.02-.01.05-.01.07-.01-.05-.01-.11-.02-.15-.06-.1-.1-.1-.26 0-.36l.08-.08-1.29-1.3-2.02 2.02c.23-.02.46-.03.69-.04.07 0 .14-.01.21-.01.23-.02.46-.03.69-.04.08-.01.15-.01.23-.02.21-.01.43-.03.64-.04zM27.33 57.93l-.69-.68-2.65 2.65.69.68zm-.03-27.41.28.28.27-.28zm-1.18 31.51c.22-.15.43-.29.65-.43-.05-.1-.06-.22.02-.3l1.96-1.95-1.07-1.07-2.65 2.65zM60.49 27.3v-.08l-.04.04zm.03-16.57.02-.66c-.02-.01-.04-.01-.05-.03l-.01-.01-.33.33zm-6.95 6.46 1.48-1.49-.98-.98-1.49 1.49zM29.7 59.64c.81-.56 1.62-1.12 2.42-1.69-.05-.01-.1-.02-.13-.06l-.54-.53-2 1.99.22.21c.02.02.02.05.03.08zm-1.03-28.05.27-.28-.59-.59-.42.43.64.65c.02.02.04.04.05.07-.04-.1-.02-.21.05-.28zm.64 28.32-.21-.21-1.04 1.04c.42-.27.83-.55 1.25-.83zm-.44-29.38.43.44.38-.39c.02-.02.05-.02.07-.03-.18-.01-.37-.02-.56-.01zm12.72 19.42c9.22-.03 16.21-.73 17.5-1.77.43-.35 1.4-1.24 1.2-2.24 0 0 .16-2.17.33-8.46-1.06 1.38-2.02 1.73-6.8 2.18-6.08.57-14.84.64-20.98.44-.13 2.07-.33 4.28-.56 6.12 2.36.11 4.13.22 5.52.33 2.38.18 4.16 1.05 3.79 3.4zm2.87-31.13-.98-.98c-.07-.08-.07-.18-.04-.27l-.94.95.24.24c.1.1.1.26 0 .36-.1.09-.26.09-.36 0l-.24-.25-.61.62c.96-.01 1.91-.02 2.85-.04.03.01.06.01.09 0 .6-.01 1.2-.02 1.79-.04-.08-.1-.08-.24.01-.33l.42-.41-.69-.69-.85.85c.07.1.07.22-.02.31-.08.08-.18.1-.31.02l-.22.22c-.04.04-.08.06-.13.07h-.09c-.05 0-.09-.03-.13-.07-.1-.1-.1-.26 0-.35zm-.8 16.09c.3 0 .59-.01.89-.01.04 0 .08-.01.13-.01.29 0 .58-.01.87-.02h.16l.83-.03h.18l.79-.03c.07 0 .13-.01.2-.01.11 0 .22-.01.34-.01.01-.05.02-.11.06-.15l.6-.6a.336.336 0 0 1-.14-.05l-1.16-1.16-1.34 1.34.18.17c.09.1.09.26 0 .35-.1.1-.26.1-.36 0l-.17-.17-.21.22c-.1.09-.26.09-.36 0-.1-.1-.1-.26 0-.36l.22-.21-1.3-1.3-2.06 2.06c.16 0 .31 0 .47-.01h.14c.3 0 .6 0 .9-.01zm15.05-4.52-.86.87.6.6.86-.86zm-1.76-15.88-1.19 1.19 1.07 1.07 1.19-1.19zm-.04 19.04-.68-.68-.82.82c-.1.1-.26.1-.35 0-.1-.09-.1-.25 0-.35l.82-.82-.82-.81-1.17 1.16.58.57c.1.1.1.26 0 .36-.09.1-.25.1-.35 0l-.58-.57-1.26 1.25c-.03.04-.08.05-.12.06.03-.01.06-.01.08-.01.2-.02.39-.04.58-.05l.25-.03c.18-.01.35-.03.52-.05l.27-.03c.29-.03.63-.07 1.16-.14.06-.01.53-.07.66-.09.08-.02.16-.03.25-.04.12-.02.24-.04.35-.06.09-.02.17-.03.26-.05.1-.02.21-.04.3-.06.06-.01.46-.1.51-.11.09-.02.16-.04.24-.06l.22-.06c.08-.02.15-.04.22-.06.06-.02.13-.04.19-.06s.13-.05.19-.07l.15-.06c.07-.03.13-.06.19-.09.03-.02.07-.03.1-.05.08-.04.16-.09.22-.14l.03-.03c-.04-.01-.09-.02-.13-.05l-.52-.53c-.1.11-.26.1-.35 0-.1-.09-.1-.25 0-.35l-.61-.6-.9.91.67.67c.1.1.1.26 0 .36-.1.09-.26.09-.35 0zm2.38.64c-2.2 1.21-9.75 1.69-17.32 1.73-.23.01-.45.01-.68.01h-.52c-.68 0-1.35-.01-2.02-.01h-.06c-2-.03-3.97-.08-5.68-.15-.01.44-.06 1.95-.1 2.94-.01.13-.01.26-.02.39 2.92.1 24.07.39 26.18-1.45.55-.47 1.17-1.15 1.24-1.87.01-.1 0-.2-.01-.31-.11-.53-.44-.98-.93-1.31-.02.01-.05.02-.08.03zm-2.15-2.93-.82-.82-.91.9.82.82zm-.31-13.78-.42.42c-.09.1-.25.09-.35 0-.1-.1-.1-.26 0-.36l.42-.41-1.07-1.07-1.49 1.48.7.7c.1.1.1.26 0 .36-.1.09-.26.09-.35 0l-.7-.71-1.01 1.01c-.1.1-.26.1-.36 0-.1-.09-.1-.25 0-.35l1.01-1.01-.98-.98-1.78 1.78.42.42c.1.1.1.26 0 .35-.05.05-.11.07-.18.07s-.13-.02-.18-.07l-.45-.45c-.09.02-.14.04-.23-.05-.07-.07-.07-.15-.05-.23l-1.05-1.05-1.34 1.34.09.09c.1.1.1.25 0 .35s-.26.1-.35 0l-.09-.09-.37.38c1.4-.05 2.76-.11 4.02-.2 2.98-.19 5.46-.49 7.01-.9-.03-.01-.06-.01-.08-.04zM21.42 3.05c-2.54 1.02-3.7 3.9.79 4.77 7.8 1.5 34.69 1.27 36.87-.61 2.1-1.81 1.84-3.9-2.72-4.24C46.95 2.32 39.18 2 33.3 2c-6.11 0-10.17.35-11.88 1.05zm.28 27.43-.22.22.61.61c.01.02.01.04.02.07l.74-.75-.14-.14zm-1.25-7.76c3.73 2.06 36.22 1.98 38.63-.09 1.82-1.57 1.49-2.94-.08-3.71-4.86 2.05-32.16 2.03-38.3.08-.06-.02-.12-.03-.17-.05-1.54 1.03-2.02 2.69-.08 3.77zm2.21 36.55-2 1.99 1.71 1.71c.01-.05.02-.1.06-.14l1.89-1.9-.68-.68-1.3 1.3c-.1.1-.25.1-.35 0s-.1-.26 0-.36l1.3-1.29zm-3.82 3.81c1.13.72 2.41 1.12 3.73.8l-2.26-2.26zm1.7-32.61c-.43 0-1.51-.02-1.91-.01l1.19 1.19.95-.95zm-1.56-7.6v.1c0 .2-.13 6.31-.12 6.49h.02l10.31.07c4.11 0 3.86 2.05 3.84 5.24 1.12.05 1.52.06 2.44.08l.55-.55-.6-.61c-.1-.1-.1-.25 0-.35s.26-.1.35 0l.61.6 2.24-2.24c.1-.1.26-.1.35 0 .1.1.1.26 0 .36l-.82.82c.02.01.04.01.06.02l1.04 1.04.92-.92c-.05-.1-.05-.21.03-.29s.19-.08.29-.03l.95-.95c.1-.1.26-.1.36 0 .09.09.09.25 0 .35l-.94.94 1.16 1.16 1.71-1.7c-.05-.1-.05-.21.03-.29s.19-.08.29-.03l1.54-1.54c.1-.1.26-.1.35 0 .1.1.1.25 0 .35l-1.52 1.53 1.3 1.29 1.34-1.34-.35-.34c-.1-.1-.1-.26 0-.36.1-.09.26-.09.36 0l.34.35 1.42-1.42c.1-.1.26-.1.35 0 .1.1.1.26 0 .35l-1.41 1.42 1.15 1.16c.04.04.05.09.06.14l1.38-1.38c-.09-.1-.09-.26 0-.35.1-.1.26-.1.35-.01l2.15-2.14c.1-.1.25-.1.35 0s.1.26 0 .35l-2.14 2.15 1.29 1.3.82-.82-.99-1c-.1-.1-.1-.26 0-.35.1-.1.25-.1.35 0l1 .99 1.16-1.16-.86-.87c-.1-.1-.1-.26 0-.35.1-.1.25-.1.35 0l.87.86.91-.91-.04-.04c-.1-.09-.1-.25 0-.35.09-.1.25-.1.35 0l.04.04.46-.46c.1-.1.26-.1.36 0 .1.09.1.25 0 .35l-.47.46.82.82.9-.9c-.01-.08-.01-.16.06-.22.06-.06.14-.07.22-.05.24-.24.5-.62.73-.38.1.1.1.25 0 .35l-.34.34.61.6.18-.17c.09-.1.25-.1.35 0 .04.04.07.09.07.14v.05c.01-.02.01-.03 0-.05.01-.21.04-.55.09-1.14.05-.54.1-1.12.11-1.48l-.37-.37-.87.86c-.1.1-.25.1-.35 0s-.1-.26 0-.35l.86-.87-.43-.43c-.1-.1-.1-.25 0-.35s.26-.1.35 0l.44.43.17-.17c.06-.07.15-.07.24-.05l.11-4.23c-.83 1.09-1.26 2.65-20.57 2.72-3.5.01-18.66.13-21.07-2.31zm-.12-9.07c-.02.58.29 2.57.43 2.89.18.43.57.82 1.15 1.13.07.04.14.07.22.11 2.39.98 11.64 1.57 20.5 1.56a.26.26 0 0 1 0-.35l.63-.62-.39-.39c-.1-.1-.1-.25 0-.35s.26-.1.36 0l.38.38 1.53-1.52c.09-.1.25-.1.35 0s.1.26 0 .35l-.45.45c.09-.03.19-.03.26.04l.98.98.84-.83-.15-.15c-.1-.1-.1-.25 0-.35s.25-.1.35 0l.15.15 1.4-1.41c.1-.1.26-.1.35 0 .1.1.1.25 0 .35l-1.4 1.41.68.68 1.34-1.33-.45-.45a.274.274 0 0 1 0-.36c.1-.09.26-.09.36 0l.44.45 2.77-2.76c.1-.1.25-.1.35 0s.1.25 0 .35l-2.76 2.77 1.01 1.01 1.78-1.79-.62-.62c-.1-.1-.1-.26 0-.35.1-.1.25-.1.35 0l.63.62 1.48-1.49-.15-.15c-.09-.09-.09-.25 0-.35.1-.1.26-.1.36 0l.15.15.86-.86c.1-.1.26-.1.35 0 .1.1.1.25 0 .35l-.86.86.98.99 1.19-1.19-.59-.6c-.1-.1-.1-.25 0-.35.09-.1.25-.1.35 0l.6.59.93-.93c.1-.1.26-.1.36 0 .09.1.09.25 0 .35l-.94.94 1.07 1.07.98-.99c.1-.09.26-.09.36 0 .1.1.1.26 0 .36l-.99.98.39.39c.04.03.04.08.05.13l.62-.62c.1-.1.26-.1.36 0 .09.1.09.26 0 .35l-1.41 1.41c-.1.1-.26.1-.36 0-.1-.09-.1-.25 0-.35l.52-.51c-.05-.01-.1-.02-.13-.06l-.39-.38-1.19 1.19.79.78c.08.08.08.21.02.3.3-.09.58-.19.79-.29.12-.06.23-.12.3-.18.44-.35 1.41-1.25 1.2-2.25-.03-.17-.01-.44.08-1.44.01-.14.03-.3.04-.44 0 .01 0 .01-.01.01-.1.1-.26.1-.36 0l-.83-.83-.24.24c-.1.1-.26.1-.35 0-.1-.1-.1-.26 0-.35l.24-.24-.48-.48c-.1-.1-.1-.25 0-.35s.26-.1.35 0l.48.47c.28-.27.69-.85.95-.59.1.1.1.25 0 .35l-.59.6.83.83c.02.02.02.05.03.08.03-.31.05-.6.05-.81l.03-1.15c-.01-.01-.04-.01-.05-.02l-.65-.65h-.01c-.09.09-.25.09-.35 0-.05-.05-.08-.12-.08-.18s.03-.13.08-.18l-.24-.24c-.1-.09-.1-.25 0-.35s.26-.1.36 0l.24.24.53-.53c.05-.05.12-.08.19-.08.01.01.02.02.04.03l.06-2.39c-.21.27-.54.62-.89.92-2.38 2.05-29.34 2.34-37.58.83-1.25-.23-2.29-.47-3.17-1.35 0 .17-.12 6.19-.12 6.36zm-.66-7.96c-.16-1.44.97-2.96 2.84-3.72 4.48-1.83 21.67-1.09 35.31-.16 2.2.17 4.53.66 4.92 2.84.59 1 .35 2.22.2 7.77 0 .36-.06.99-.11 1.56-.04.45-.1 1.07-.09 1.2.2.97-.28 2.06-1.33 2.98.67.45 1.19 1.12 1.33 1.92.35.59.38 1.28.36 1.99l-.16 5.77c0 .37-.06.99-.11 1.57-.04.45-.1 1.06-.09 1.19.19.9-.21 1.9-1.09 2.77.55.44.97 1.04 1.09 1.73.88 1.5-.07 9.52 0 10.52.22 1.05-.35 2.22-1.56 3.19-2.24 1.8-14.26 1.98-18.44 1.99-.36.79-.98 1.44-1.58 2.04-4.02 3.95-8.81 7.1-13.44 10.15-2.38 1.56-4.79 2.93-8.12.68-1.1-.72-2.01-1.67-2.89-2.59-3.97-4.13-7.74-8.06-9.11-9.49-.94-.97-1.92-2.13-1.76-3.56.16-1.35 1.35-2.28 2.45-2.61 1.47-.44 1.65-.07 7.03.07.03-2.55.21-5.76.36-8.37.09-1.55.17-2.89.18-3.57.02-2.5.67-4.02 3.48-4.21-.02-.25.11-6.27.11-6.54.02-.53.04-1.12.22-1.67-.12-1 .38-2.03 1.35-2.84-.56-.38-.96-.83-1.19-1.36-.21-.52-.52-2.67-.5-3.31.11-5.79.03-6.97.34-7.93zm-.05 28.03c.09.09.09.25 0 .35l-.91.91.24.24c.1.09.1.25 0 .35s-.26.1-.35 0l-.24-.23-1.28 1.27.95.95.36-.36c.1-.1.25-.1.35 0s.1.25 0 .35l-.36.36c.1.1.1.25 0 .35-.09.1-.25.1-.35 0l-1.18 1.18 1.08 1.08.4-.4c.1-.1.26-.1.36 0s.1.25 0 .35l-1.9 1.9.88.88c.1.1.1.26 0 .36-.1.09-.26.1-.36 0l-.87-.88-.04.04c-.03.65-.05 1.28-.06 1.89l.39.39 1.76-1.76c.09-.09.25-.09.35 0 .1.1.1.26 0 .36l-1.76 1.76c.09.1.09.25 0 .34s-.24.11-.35.01l-.45.45c-.09.2-.28.3-.47.29-5.91-.15-6-.49-7.24-.12-.76.22-1.63.87-1.74 1.76-.11 1 .71 1.95 1.49 2.75 1.56 1.64 5.48 5.73 9.11 9.49.77.8 1.56 1.62 2.46 2.26l1.53-1.54-1.13-1.13c-.1-.1-.1-.26 0-.35.1-.1.25-.1.35 0l1.14 1.13 2.04-2.04c0-.07.02-.14.07-.19.05-.04.12-.07.18-.07l3.28-3.27c.09-.1.25-.1.35 0s.1.26 0 .36l-3.22 3.22.63.63 2.67-2.68c-.03-.09-.03-.19.04-.26s.17-.07.26-.04l.86-.86c.1-.1.26-.1.36 0 .09.1.09.26 0 .36l-.84.83.69.68 1.13-1.13c.1-.1.26-.1.36 0 .09.1.09.25 0 .35l-1.14 1.14 1.07 1.06L31.09 57l-1.68-1.68c-.1-.1-.1-.26 0-.35.1-.1.26-.1.36 0l1.68 1.68.31-.32c.1-.1.26-.1.36 0 .09.1.09.25 0 .35l-.32.32.54.54c.05.05.07.13.06.21 2.32-1.69 4.56-3.48 6.58-5.48 2.46-2.42 2.38-4.45-1.26-4.73-1.49-.12-3.4-.23-6.03-.35a.47.47 0 0 1-.36-.18.468.468 0 0 1-.11-.38c.63-4.99.81-9.13.81-13.63-.02-1.43-.17-2.28-2.03-2.44.01.01.02.01.03.02.1.1.1.26 0 .35l-.38.39.11.11c.1.09.1.25 0 .35-.09.1-.25.1-.35 0l-.11-.11-.28.28a.25.25 0 0 1-.4-.07c.04.09.02.2-.05.27-.1.1-.26.1-.35 0l-.65-.65-.18.19c-.1.09-.26.09-.35 0-.1-.1-.1-.26 0-.36l.18-.18-.57-.57c-.02-.02-.02-.05-.03-.07l-.97-.01.04.05c.02.01.04.01.05.02.02.01.01.03.02.05l.37.37c.1.09.1.25 0 .35s-.25.1-.35 0l-.23-.23-.77.77c-.09.1-.25.1-.35 0s-.1-.25 0-.35l.77-.77-.26-.26-1.52-.01.69.69c.1.1.1.26 0 .35-.09.1-.25.1-.35 0l-.55-.55-.84.84a.26.26 0 0 1-.35 0c-.03-.04-.04-.08-.05-.12-.08.03-.14.05-.24-.04l-.61-.61-.96.96c-.01.01-.03.01-.04.02.01.07 0 .15-.06.21-.1.1-.25.1-.35 0l-1.76-1.75h-.02c-.01.02-.01.05-.03.06l-.76.76.33.33.45-.44c.09-.1.25-.1.35 0s.1.26 0 .35l-.44.45 1.05 1.05c.1.1.1.26 0 .36s-.25.1-.35 0l-1.06-1.06-1.5 1.51.92.91.9-.9c.1-.1.26-.1.36 0z" data-original="#000000" class=""></path></g></svg>