<svg xmlns="http://www.w3.org/2000/svg" version="1.1" xmlns:xlink="http://www.w3.org/1999/xlink" xmlns:svgjs="http://svgjs.com/svgjs" x="0" y="0" viewBox="0 0 73 73" style="enable-background:new 0 0 512 512" xml:space="preserve" class=""><g><path d="M49.34 43.56c-.556.008-.304.109-5.274 5.098a.75.75 0 0 0 .517 1.273l4.293.118.173 13.41a.75.75 0 0 0 .75.74h.01a.75.75 0 0 0 .74-.76l-.005-.34.37-.37V50.104l3.715.1c.673 0 1.004-.818.524-1.286-5.585-5.348-5.236-5.349-5.813-5.359z"  data-original="#000000" class=""></path><path d="M16.58 50.199c1.822 3.49 5.847 5.545 9.783 5.498s7.705-1.995 10.455-4.813c1.297 1.428 3.429 1.991 5.281 1.494.042.007.083.029.125.029a.747.747 0 0 0 .582-.284c.059-.027.122-.042.18-.07-.036-.012-.07-.029-.105-.04a.743.743 0 0 0-.328-1.03c-.174-.09-2.25-.797-5.045-2.67a17.082 17.082 0 0 0 1.528-2.364.75.75 0 1 0-1.325-.703c-3.25 6.117-9.59 8.668-14.77 6.981-2.869-.935-5.07-3.224-5.612-5.83a.75.75 0 0 0-1.469.305c.07.331.171.655.282.976-2.453-1.066-4.33-2.21-5.844-3.555-5.683-4.98-5.154-11.777-.591-15.443 2.705-2.191 6.645-2.898 10.037-1.799a.75.75 0 0 0 .965-.863c-1.229-6.03 1.268-11.827 6.364-14.773 5.247-3.07 12.623-2.706 17.541.86 4.872 3.53 7.12 10.122 5.346 15.674-.212.66.517 1.231 1.106.868 4.392-2.694 10.737-1.56 14.142 2.53 3.804 4.56 3.497 12.35-2.06 17.09a.75.75 0 1 0 .973 1.14c6.165-5.258 6.564-14.005 2.24-19.19-3.486-4.187-9.702-5.636-14.556-3.624 1.092-5.761-1.401-12.145-6.31-15.703-5.45-3.95-13.306-4.345-19.126-.97-2.03 1.018-4.218 3.422-5.57 5.243-2.049 2.76-3.355 6.09-3.567 9.531-4.46-.961-9.347 1.327-11.727 5.22-2.38 3.893-2.267 9.09.012 13.044 2.279 3.953 6.544 6.61 11.063 7.24z"  data-original="#000000" class=""></path><path d="M58.842 44.724a.75.75 0 0 0-.75.75v13.411l-4.291.173a.75.75 0 0 0-.5 1.28l4.809 4.808a.75.75 0 0 0 1.06 0l5.213-5.213c.5-.502.072-1.353-.56-1.28l-3.463.14V46.337l-.768-.768v-.094a.75.75 0 0 0-.75-.75z"  data-original="#000000" class=""></path></g></svg>