<svg xmlns="http://www.w3.org/2000/svg" version="1.1" xmlns:xlink="http://www.w3.org/1999/xlink" xmlns:svgjs="http://svgjs.com/svgjs" width="512" height="512" x="0" y="0" viewBox="0 0 66 66" style="enable-background:new 0 0 512 512" xml:space="preserve" class=""><g><path d="M24.709 37.295a.25.25 0 0 0-.327-.135l-3.306 1.369a.25.25 0 0 0 .192.462l3.306-1.369a.251.251 0 0 0 .135-.327zM29.44 24.552a.25.25 0 0 0 .135-.327l-1.22-2.945a.25.25 0 1 0-.462.192l1.22 2.945a.25.25 0 0 0 .327.135zM37.089 42.177a.25.25 0 0 0-.135.327l1.37 3.306a.25.25 0 1 0 .462-.192l-1.37-3.306a.25.25 0 0 0-.327-.135zM23.898 30.078a.25.25 0 0 0 .192-.462l-2.945-1.219a.25.25 0 0 0-.192.462zM42.421 36.861a.25.25 0 0 0-.192.462l3.306 1.37a.25.25 0 0 0 .192-.462zM29.412 42.796l-1.219 2.944a.25.25 0 0 0 .462.192l1.219-2.944a.25.25 0 0 0-.462-.192z" fill="#000000" data-original="#000000" class=""></path><path d="M25.312 37.511c1.313 2.311 3.796 3.958 6.483 4.299.358.045.718.066 1.078.066 2.305 0 4.6-.893 6.306-2.487.928-.872 1.609-1.84 2.022-2.879.333-.834.51-1.744.542-2.704 1.938-1.042 3.078-3.025 3.268-4.999.335-.139.86-.254.728-.572-.118-.285-.428-.093-.715.025.013-2.492-1.574-4.535-3.608-5.479-1.297-.602-2.399-.313-3.544.052l.615-1.484a.25.25 0 0 0-.462-.192l-.777 1.876c-1.034.331-2.013.654-2.864 1.26-3.304-.638-6.631.99-8.223 3.207-2.195 3.013-2.536 7.036-.849 10.011zm5.023 2.921.134-.134.256.256c-.13-.038-.262-.076-.39-.122zm1.199.314a.246.246 0 0 0-.063-.153l-.648-.648.856-.855 1.17 1.17-.428.428a.247.247 0 0 0-.067.161c-.145-.01-.29-.011-.434-.029-.131-.018-.257-.051-.386-.074zm5.95-1.297-.689-.689.783-.783.78.779c.004.004.01.002.014.006-.28.251-.578.478-.888.687zm-.425.282a8.325 8.325 0 0 1-1.305.61l-.27-.27.958-.958zm-1.929-.013-.517-.517.958-.958.517.517zm-.348.359a.246.246 0 0 0 .008.335c.085.085.216.108.335.008l.102.102a8.257 8.257 0 0 1-1.562.316c.028-.012.059-.011.082-.034a.25.25 0 0 0 0-.354l-.192-.192.704-.704zm-1.389.727c.028.028.066.03.101.042a8.494 8.494 0 0 1-.552.026l.259-.259zm5.328-2.378c-.005-.007-.003-.016-.009-.023l-.78-.779.905-.905c.067-.066.071-.156.047-.241l.787.787c-.265.403-.583.79-.95 1.161zm1.551-2.287a6.031 6.031 0 0 1-.329.69l-1.31-1.31.781-.781c.058-.058.07-.133.06-.208a6.147 6.147 0 0 0 1.246-.274 6.815 6.815 0 0 1-.448 1.883zm.724-12.451c1.45.673 2.602 2.05 2.933 3.507 1.366 6.014-7.471 9.027-10.266 3.504-.927-1.841-.425-4.315 1.16-5.49.859-.666 2.031-.998 3.11-1.346 1.133-.366 2.028-.656 3.063-.175zm-14.024 4.398c1.197-1.667 3.755-3.126 6.457-2.928a4.853 4.853 0 0 0-.464.663c-.941 1.604-1.017 3.695-.195 5.329 1.073 2.12 3.441 3.523 6.1 3.426l-.59.59-.041-.041a.25.25 0 1 0-.354.354l.041.041-.186.186a.25.25 0 1 0 .354.354l.186-.186.445.445c-.084-.024-.174-.02-.241.047l-.905.905-.646-.645a.249.249 0 0 0-.353 0 .249.249 0 0 0 0 .353l.645.645-.783.783-.517-.517.192-.191a.25.25 0 1 0-.354-.354l-.191.191-.089-.089a.25.25 0 1 0-.354.353l.089.089-.958.958-.624-.624a.25.25 0 1 0-.354.354l.624.624-.705.704-1.17-1.169 1.253-1.253a.25.25 0 1 0-.354-.354l-1.429 1.429H31.5v.001l-1.032 1.032-.549-.549a.25.25 0 1 0-.354.354l.549.549-.284.284c-1.526-.662-2.842-1.789-3.65-3.211-1.495-2.639-1.178-6.227.792-8.932z" fill="#000000" data-original="#000000" class=""></path><path d="M49.378 40.017c.926-2.315 1.271-4.962 1.027-7.868-.978-11.663-10.533-17.434-18.82-16.805-5.153.399-9.823 3.349-12.217 6.638-8.563 11.766-2.098 26.912 11.211 28.6 8.161 1.035 16.117-3.856 18.799-10.565zM20.176 22.571c2.228-3.062 6.635-5.854 11.486-6.229 7.746-.598 16.814 4.775 17.747 15.892.23 2.75-.092 5.244-.96 7.413-2.489 6.229-9.973 10.933-17.744 9.944-12.594-1.598-18.62-15.904-10.529-27.02z" fill="#000000" data-original="#000000" class=""></path><path d="M25.883 64.513a.25.25 0 0 0 .354 0l.135-.135c17.931 3.667 40.055-9.292 38.074-32.907-.449-5.346-1.972-10.424-4.404-14.686C54.163 6.486 42.27.185 30.445 1.094c-9.282.717-17.73 6.036-22.057 11.979C.425 24.013-.827 38.562 5.272 49.277c4.279 7.518 11.995 13.073 20.569 14.985-.03.087-.028.182.042.251zm1.339-.985 1.381-1.381 1.501 1.501c-.063.073-.064.165-.029.25-1-.082-1.55-.134-2.853-.37zm3.467.419c.015-.01.034-.007.047-.02.07-.07.072-.167.041-.255l1.624-1.624 1.199 1.199-.451.451c-.082.082-.079.2-.024.296-.812.013-1.625.003-2.436-.047zm7.295-4.377 1.265 1.265-1.628 1.628-1.265-1.265zm-.717 3.247-.088.087a.25.25 0 1 0 .354.354l.087-.087.059.059a.25.25 0 1 0 .354-.354l-.059-.059 1.629-1.628 1.362 1.362c.011.04.016.082.047.113s.073.035.113.047l.094.094c-2.496.7-5.067 1.1-7.649 1.181l2.434-2.433zm7.71-2.114-.826-.826 2.388-2.388.968.968-.153.153a.25.25 0 1 0 .353.354l.153-.153.7.7a.25.25 0 1 0 .354-.354l-.7-.7 2.19-2.19 1.094 1.094a.25.25 0 1 0 .354-.354l-1.094-1.094 1.614-1.614.307.307-.436.436a.25.25 0 1 0 .354.354l.436-.436.937.938a32.733 32.733 0 0 1-12.325 6.779c.012-.076.001-.154-.058-.213l-.011-.01 2.223-2.223.826.826a.249.249 0 0 0 .353 0 .253.253 0 0 0-.001-.354zm1.915-3.567 2.19-2.19.968.968-2.19 2.19zm12.517-13.243 1.1 1.1-1.517 1.517-.698-.698a.25.25 0 1 0-.354.353l.698.698-.12.12a.25.25 0 1 0 .354.354l.12-.12.959.959c.085.085.215.107.334.008a27.07 27.07 0 0 1-1.287 2.072c.055-.095.057-.213-.024-.295l-.471-.471.105-.105a.25.25 0 1 0-.354-.353l-.105.105-.307-.307.505-.505a.25.25 0 1 0-.354-.354l-.505.505-1.037-1.037a.25.25 0 1 0-.354.354l1.037 1.037-1.49 1.49-1.2-1.2a.242.242 0 0 0-.197-.065zm-1.927 8.265-.824-.824 1.49-1.49.471.471c.085.085.215.107.333.008a28.667 28.667 0 0 1-1.439 1.911c-.011-.026-.01-.055-.031-.076zm-1.177-1.178-.307-.307 1.49-1.49.307.307zm-2.215-1.507 1.2 1.2-1.463 1.463-1.372-1.372c.05-.008.101-.019.139-.058l1.43-1.43a.246.246 0 0 0 .066.197zm1.554 1.554.307.307-1.463 1.463-.307-.307zm-1.509 2.123-1.104 1.104-.307-.307 1.104-1.104zm-12.914 8.951-1.265-1.265 2.223-2.223 1.265 1.265zm13.124-6.534-.96-.96 1.104-1.104.987.987c-.999 1-.727.71-1.131 1.077zm1.485-1.428-.989-.989 1.463-1.463.824.824c.032.032.075.037.115.048a30.239 30.239 0 0 1-1.413 1.58zm6.536-10.862-1.303-1.303 1.389-1.389c.029-.029.032-.068.043-.105l.419.419c.014.014.034.011.05.021-.165.805-.366 1.59-.598 2.357zm1.06-5.478-.118-.118.144-.144c-.007.087-.017.174-.026.262zM6.141 48.781c-5.908-10.378-4.68-24.492 3.056-35.12C13.358 7.944 21.54 2.786 30.523 2.091c11.437-.887 22.959 5.219 28.65 15.19 2.361 4.136 3.839 9.072 4.276 14.274.164 1.96.174 3.848.035 5.662-.009-.015-.007-.034-.02-.047a.25.25 0 0 0-.354 0l-.157.157-.583-.583a.25.25 0 1 0-.354.354l.583.583-.979.979a.25.25 0 1 0 .354.354l.979-.979.29.29c.034.034.08.041.124.051-.077.671-.17 1.334-.29 1.982l-1.169-1.169a.25.25 0 1 0-.354.354l.647.646c-.036.012-.076.014-.105.043l-1.467 1.467c-.004.004-.002.01-.006.014-.045.01-.091.017-.126.052a.25.25 0 0 0 0 .354l1.619 1.619c.028.028.066.03.101.042a24.096 24.096 0 0 1-1.88 4.31c.037-.091.037-.193-.036-.266l-.959-.959 2.343-2.343a.25.25 0 1 0-.354-.354l-.473.473-1.1-1.1.094-.094a.25.25 0 1 0-.354-.354l-7.261 7.261a.24.24 0 0 0-.065.158c-.097-.064-.223-.067-.309.019a.25.25 0 0 0 0 .354l1.606 1.607-1.104 1.104-2.181-2.182a.25.25 0 1 0-.354.354l2.181 2.182-1.614 1.614-.968-.968.585-.586a.25.25 0 1 0-.354-.354l-.586.586-1.375-1.375a.249.249 0 0 0-.353 0 .249.249 0 0 0 0 .353l1.375 1.376-2.19 2.19-2.069-2.069a.25.25 0 1 0-.354.354l2.069 2.069-2.388 2.388-1.265-1.265 1.883-1.882a.25.25 0 1 0-.354-.354l-1.882 1.883-.946-.946a.25.25 0 1 0-.354.354l.946.946-2.223 2.223-1.265-1.265.448-.448a.25.25 0 1 0-.354-.354l-.452.452c-.098-.085-.244-.087-.338.007s-.091.239-.007.338l-1.633 1.633-.847-.847a.25.25 0 1 0-.354.354l.847.847-1.695 1.694-1.199-1.199 2.626-2.627a.25.25 0 1 0-.354-.354l-2.626 2.626-.748-.748a.25.25 0 1 0-.354.353l.748.748-1.595 1.595-1.496-1.496 2.453-2.453a.25.25 0 1 0-.353-.354l-2.453 2.453-.319-.319a.25.25 0 1 0-.354.354l.319.319-1.265 1.265-1.343-1.343a.25.25 0 1 0-.353.354l1.342 1.342c-8.521-1.728-16.241-7.188-20.479-14.633z" fill="#000000" data-original="#000000" class=""></path><path d="M15.467 18.389a.251.251 0 0 0 .348-.064.251.251 0 0 0-.064-.348l-1.344-.923c.771-.94 1.313-1.592 2.645-2.748.375.218.765.408 1.178.536a.25.25 0 0 0 .148-.478 5.13 5.13 0 0 1-.923-.4 21.432 21.432 0 0 1 3.549-2.387l1.031.915a.25.25 0 1 0 .332-.374l-.884-.785a19.76 19.76 0 0 1 3.018-1.217l.608.615a.25.25 0 1 0 .356-.351l-.42-.425a18.083 18.083 0 0 1 3.183-.581l.33.694a.25.25 0 1 0 .451-.215l-.251-.529a16.196 16.196 0 0 1 3.447.159.259.259 0 0 0 .286-.208.254.254 0 0 0-.211-.285 16.687 16.687 0 0 0-3.753-.146l-.651-1.369a.248.248 0 0 0-.333-.118.249.249 0 0 0-.118.333l.572 1.203a18.622 18.622 0 0 0-3.352.659l-1.081-1.094a.25.25 0 1 0-.356.351l.893.903a20.48 20.48 0 0 0-3.02 1.264l-.96-.853a.25.25 0 1 0-.332.374l.813.722a21.992 21.992 0 0 0-3.605 2.476 5.268 5.268 0 0 1-1.216-1.125.25.25 0 1 0-.394.308c.344.442.758.828 1.216 1.152-1.32 1.161-1.843 1.802-2.609 2.739l-1.998-1.372a.252.252 0 0 0-.348.064.251.251 0 0 0 .064.348l1.967 1.351a26.704 26.704 0 0 0-2.207 3.297 8.24 8.24 0 0 1-1.517-1.548.25.25 0 0 0-.401.299 8.719 8.719 0 0 0 1.671 1.696 31.395 31.395 0 0 0-1.866 4.123l-1.114-1.412a.25.25 0 1 0-.392.309l1.305 1.655a36.64 36.64 0 0 0-1.088 3.703 4 4 0 0 0-1.166-.436.247.247 0 0 0-.291.2.25.25 0 0 0 .2.291c.406.075.792.24 1.149.451a42.309 42.309 0 0 0-.752 4.362.25.25 0 0 0 .22.277l.029.001a.25.25 0 0 0 .248-.221c.164-1.417.41-2.779.7-4.108.297.242.568.515.771.837a.25.25 0 1 0 .423-.267 4.053 4.053 0 0 0-1.077-1.119c.282-1.212.615-2.383.999-3.511l.569.722a.25.25 0 1 0 .393-.309l-.76-.962a31.062 31.062 0 0 1 1.919-4.306 8.76 8.76 0 0 0 1.634.898.25.25 0 0 0 .188-.464 8.262 8.262 0 0 1-1.58-.872 26.116 26.116 0 0 1 2.207-3.3zM43.39 33.634h3.187a.25.25 0 0 0 0-.5H43.39c-.329 0-.331.5 0 .5zM23.93 33.707a.25.25 0 0 0-.25-.25h-3.578a.25.25 0 0 0 0 .5h3.578a.25.25 0 0 0 .25-.25zM33.179 23.745a.25.25 0 0 0 .25-.25v-3.187a.25.25 0 0 0-.5 0v3.187c0 .138.112.25.25.25zM33.501 42.954a.25.25 0 0 0-.25.25v3.578a.25.25 0 0 0 .5 0v-3.578a.25.25 0 0 0-.25-.25zM25.942 26.729a.25.25 0 1 0 .353-.354l-2.253-2.253a.25.25 0 1 0-.354.354zM40.461 40.084a.25.25 0 1 0-.354.354l2.53 2.53a.249.249 0 0 0 .354 0 .25.25 0 0 0 0-.354zM26.171 40.589l-2.254 2.254a.25.25 0 1 0 .354.353l2.254-2.254a.25.25 0 1 0-.354-.353z" fill="#000000" data-original="#000000" class=""></path></g></svg>