<svg xmlns="http://www.w3.org/2000/svg" version="1.1" xmlns:xlink="http://www.w3.org/1999/xlink" xmlns:svgjs="http://svgjs.com/svgjs" width="512" height="512" x="0" y="0" viewBox="0 0 52 52" style="enable-background:new 0 0 512 512" xml:space="preserve" class=""><g><path d="M9.2 18.9c.2.1.4.3.6.4s.5.2.8.3c0 1.9.8 3.8 2.1 5.2 1.4 1.3 3.3 2.1 5.2 2.1.1.3.2.5.3.7s.2.4.4.6c-.1.1-.2.2-.2.4-.2.4-.4.9-.4 1.5.6 0 1.1-.2 1.5-.4s.8-.5 1.1-.8c.4-.4.4-1 0-1.4-.3-.3-.6-.6-1-.8 1.2-.3 2.3-.9 3.1-1.7.1.3.2.5.3.7s.2.4.4.6c-.1.1-.2.2-.2.4-.2.4-.4.9-.4 1.5.6 0 1.1-.2 1.5-.4s.8-.5 1.1-.8c.4-.4.4-1 0-1.4-.4-.4-.8-.7-1.2-1-.2-.1-.5-.2-.8-.3.5-.6.9-1.3 1.1-2 0 .1 0 .1.1.2.2.4.5.7.8 1l.1.1c.4.4 1 .3 1.3-.1.3-.3.5-.6.6-1s.3-.8.2-1.3c-.5 0-.9.1-1.3.2-.1 0-.1.1-.2.1-.1-.1-.3-.2-.4-.2-.2-.1-.4-.2-.7-.2h-.2c.1-.5.1-1 .1-1.5v-.3c1.2-.7 2.1-1.9 2.3-3.4 0-.2 0-.3.1-.5.2.2.4.3.6.5.3.2.7.2.9 0l.1-.1c.3-.2.6-.5.8-.9s.4-.8.4-1.4c-.6-.1-1.1 0-1.5.2-.2.1-.4.2-.6.4-.1 0-.3 0-.4-.1h-.5c-.2-.8-.7-1.6-1.3-2.2-.7-.7-1.7-1.2-2.8-1.4V10c0-.1 0-.3-.1-.4.1-.2.3-.4.4-.6.2-.4.3-.9.2-1.5-.6 0-1.1.2-1.4.4-.4.2-.7.5-.9.8l-.1.1c-.2.3-.2.6 0 .9.1.2.3.4.5.7-1.4.2-2.7 1.1-3.3 2.3H18c-.5 0-1 0-1.5.1v-.2c-.1-.2-.1-.5-.2-.7-.1-.1-.2-.3-.2-.4s.1-.1.1-.2c.1-.4.3-.8.2-1.3-.5 0-.9.1-1.3.2-.4.2-.7.4-1 .6-.4.4-.4 1 0 1.3l.1.1c.3.3.6.6 1 .8 0 0 .1 0 .2.1-.7.3-1.4.6-2 1.1-.1-.3-.2-.5-.3-.8-.3-.5-.6-.9-1-1.2-.4-.4-1-.3-1.4 0-.3.3-.6.7-.8 1.1s-.4.9-.4 1.5c.6 0 1.1-.2 1.5-.4.1-.1.2-.1.4-.2.2.1.4.3.6.4s.5.2.8.3c-.8.9-1.4 2-1.7 3.1-.2-.4-.5-.7-.8-1-.4-.4-1-.3-1.4 0-.3.3-.6.7-.8 1.1s-.4.9-.4 1.5c.6 0 1.1-.2 1.5-.4-.2-.1-.1-.2 0-.3zm4.7-3.4c1-1.1 2.5-1.8 4-2h.3c.1.1.3.2.5.2 1.3 0 2.6.4 3.9 1.2-.6-.9-1.5-1.7-2.6-2.1.6-.4 1.3-.7 1.9-.8 1-.1 1.9.3 2.6 1s1 1.6 1 2.6c0 .7-.3 1.4-.8 2-.4-1.1-1.2-2-2.1-2.6.8 1.2 1.2 2.6 1.2 3.9 0 .1 0 .2.1.3 0 .1.1.1.2.2v.3c-.1 1.6-.9 3-2 4s-2.6 1.6-4 1.5c-1.5 0-2.9-.6-3.9-1.7-1-1-1.6-2.4-1.7-3.9s.4-3 1.4-4.1z" fill="#000000" data-original="#000000" class=""></path><path d="M49.3 41.1c-.4-.4-.9-.8-1.2-1.1-.8-.6-1.6-1.2-2.3-1.8-2.9-2.2-5.9-4.4-9-6.5.1-.1.2-.3.3-.4.3-.6.3-1.4-.1-2l-.2-.2-.2-.1-.2-.2c-.3-.2-.5-.5-.8-.7-.3-.3-.7-.6-1-.9 1.4-2.6 2.1-5.5 2.1-8.5 0-4.7-2-9.3-5.4-12.6-3.3-3.3-8-5-12.6-4.9s-9 2.1-12 5.5c1.7-1.5 3.6-2.7 5.6-3.4 2-.8 4.2-1.1 6.4-1.1 4.3.1 8.5 2 11.5 5 2.9 3.1 4.7 7.2 4.6 11.5 0 4.2-1.7 8.4-4.7 11.3-2.9 3-7.1 4.7-11.3 4.7-4.2.1-8.4-1.6-11.5-4.6-3.1-2.9-4.9-7.1-5-11.4-.1-2.2.3-4.3 1-6.4.8-2 1.9-4 3.4-5.6-3.3 3-5.3 7.4-5.5 12-.1 4.6 1.7 9.3 5 12.6 3.2 3.4 7.9 5.3 12.6 5.4 2.9 0 5.9-.7 8.5-2.1.4.4 1.3 1.5 1.6 1.9l.2.2.1.1c.6.6 1.5.7 2.2.3.2-.1.3-.2.4-.3l.1-.1c2 3 4.1 6 6.3 8.9 1.2 1.6 1.6 2.1 2.2 2.9.2.2.4.5.6.6.4.4.9.7 1.4 1 2.1 1.1 4.9.6 6.6-1s2.3-4.4 1.3-6.5c-.3-.6-.6-1.1-1-1.5zm-18.9-5.7c0 .1 0 .1 0 0 0 .1-.1.1 0 0-.1.1-.2 0-.2 0l-.2-.2c-.3-.3-.5-.5-.8-.7s-.5-.4-.8-.7c2.3-1.4 4-3.1 5.4-5.4.2.3.4.5.7.8.2.3.5.6.7.8l.2.2.1.1-.2.2c-.3.2-.5.5-.8.8l-1.6 1.5-1.5 1.6-.8.8zm17.2 12.3c-1.1 1.1-2.9 1.4-4.4.8-.4-.2-.7-.4-1-.6-.2-.1-.3-.3-.4-.4-.7-.8-1.1-1.3-2.4-2.8-2.4-2.7-4.8-5.4-7.4-8l.8-.8 1.6-1.5 1.5-1.6.8-.8.1-.1c2.6 2.6 5.3 5.1 8.1 7.6.7.7 1.5 1.3 2.2 2 .4.3.7.6 1 .9.2.3.5.7.6 1 .4 1.4 0 3.2-1.1 4.3z" fill="#000000" data-original="#000000" class=""></path></g></svg>