<svg xmlns="http://www.w3.org/2000/svg" version="1.1" xmlns:xlink="http://www.w3.org/1999/xlink" xmlns:svgjs="http://svgjs.com/svgjs" width="512" height="512" x="0" y="0" viewBox="0 0 66 66" style="enable-background:new 0 0 512 512" xml:space="preserve" class=""><g><path d="M43.43 28.56c-1.72.29-3.16.1-3.2.3-.06.17 1.44.69 3.31.38 1.88-.3 3.12-1.27 3.02-1.41-.11-.17-1.41.46-3.13.73zM43.48 30.06c-.01.19.93.33 1.99-.07 1.06-.39 1.67-1.12 1.54-1.26-.13-.15-.85.26-1.79.61-.92.36-1.74.52-1.74.72zM25.56 60.57c-1.8-.02-3.18-.63-3.27-.45-.11.14 1.26 1.1 3.26 1.14 1.99.05 3.4-.85 3.3-.99-.08-.19-1.49.35-3.29.3zM24.61 62.64c-.99-.01-1.81-.12-1.87.07-.06.17.75.61 1.86.62 1.11.02 1.94-.38 1.88-.56-.05-.18-.87-.11-1.87-.13zM34.97 8.51a2.71 2.71 0 0 0-1.9-.16c-.66.19-1.26.46-1.94.72-1.33.54-2.77 1.2-4.25 1.96-.74.39-1.44.73-2.15 1.19-.35.24-.68.59-.86.98-.19.39-.27.78-.33 1.15-.17 1.46-.2 2.73-.27 3.82-.12 2.17-.14 3.51-.04 3.51.1.01.29-1.32.53-3.47.13-1.07.22-2.37.41-3.75.12-.69.34-1.3.94-1.67.6-.38 1.36-.75 2.08-1.13 1.46-.75 2.88-1.42 4.18-1.99.65-.28 1.28-.57 1.85-.76.56-.19 1.08-.13 1.55.06.94.4 1.67.96 2.27 1.15.59.23.96.18.95.15.01-.06-.33-.1-.84-.39-.52-.27-1.15-.86-2.18-1.37zM51.55 7.71c.88 1.25.88 2.56 1.08 2.57.09.01.22-.32.2-.89-.01-.56-.22-1.35-.72-2.07s-1.16-1.19-1.68-1.41-.88-.21-.91-.13c-.04.19 1.19.66 2.03 1.93zM50.24 9.12c.84 1.04 1.11 2.14 1.31 2.11.18.01.2-1.32-.76-2.54-.95-1.23-2.24-1.52-2.28-1.34-.09.18.91.71 1.73 1.77z" fill="#000000" data-original="#000000" class=""></path><path d="M63.95 31.87c-.62-1.65-1.57-3.12-2.41-4.68-.87-1.54-1.82-3.11-2.98-4.5-.57-.7-1.23-1.35-1.95-1.92-.74-.56-1.63-1.02-2.64-1.16-1.05-.16-2.04.27-2.79.75-.32.29-.64.55-.93.85-.14.18-.28.35-.4.54-.1.19-.19.38-.29.56-.26.67-.37 1.31-.39 1.92-.45.16-.97.33-1.58.49-.61.14-1.3.24-2.04.26.14-.63.31-1.83.38-3.45.06-1.24.04-2.71.03-4.33-.01-.81-.01-1.65.01-2.53.01-.44.03-.88.04-1.33l.03-.68c-.01-.26-.01-.53-.02-.8-.09-1.09-.64-2.17-1.38-2.96-.74-.81-1.63-1.4-2.51-1.92s-1.77-.97-2.6-1.45c-.84-.46-1.54-.98-2.39-1.58-.82-.57-1.84-1.15-3.02-1.26-.57-.06-1.19 0-1.71.16-.53.15-.99.37-1.4.58-1.59.84-2.99 1.65-4.21 2.41-1.11.69-2.13 1.36-3.08 2.01-.87.62-1.82 1.04-2.75 1.86-.46.41-.85.95-1.07 1.49-.23.55-.32 1.07-.39 1.56-.05.5-.06.92-.07 1.31l-.03 1.16c-.04 2.96 0 4.94.03 6.28.02 1.02.07 1.67.13 2.08-.77.16-1.27.33-1.26.49.01.27 1.57.45 3.49.55 1.93.1 4.18.07 5.5.22 1.99.19 2.95.67 3.54.98-.42.18-.84.37-1.25.58-.39.19-.76.43-1.13.65-.34.22-.68.43-1.01.64-.67.43-1.33.87-1.95 1.32-1.23.91-2.34 1.83-3.19 2.86-.38.48-.74.98-.99 1.57-.13.3-.25.59-.3.94-.09.32-.07.68-.04 1.03.1.68.4 1.35.87 1.8.46.46.99.74 1.5.9 1.03.34 2.01.26 2.82.09.83-.17 1.54-.47 2.13-.78 1.2-.63 2.04-1.28 2.76-1.78.71-.51 1.26-.9 1.72-1.2.91-.58 1.4-.85 1.65-1.03.25-.19.25-.33.21-.46-.03-.13-.08-.25-.42-.28s-1 .06-2.11.54c-.55.24-1.2.6-1.96 1.06-.76.45-1.62 1.03-2.66 1.52-.52.25-1.08.45-1.69.56s-1.26.14-1.84-.08c-.6-.21-.99-.58-1.04-1.12-.07-.5.27-1.29.9-2.04 1.37-1.65 3.95-3.47 6.62-5.12 2.68-1.53 6.09-2.15 9.17-2.22 1.57-.05 2.98.1 4.42.22 1.46.07 2.76-.2 3.77-.57.52-.2.98-.41 1.36-.61.02.42.06.82.12 1.19.18 1.09.47 2.06.8 2.93s.71 1.67 1.12 2.37c.39.67.75 1.29 1.11 1.85 1.42 2.26 2.58 3.68 3.48 4.56.89.88 1.51 1.21 1.86 1.31s.44 0 .51-.11.12-.24-.06-.51c-.17-.28-.57-.69-1.26-1.62-.69-.92-1.67-2.33-2.96-4.57-.31-.56-.65-1.18-1.02-1.84-.35-.64-.67-1.33-.95-2.12-.28-.78-.53-1.64-.67-2.55-.15-.9-.15-1.89.15-2.66.05-.1.1-.19.15-.3l.19-.26.49-.46c.31.42.76 1.02 1.31 1.77 1.11 1.5 2.6 3.6 4.16 5.98 1.55 2.38 2.86 4.6 3.75 6.24.56 1.02.96 1.81 1.21 2.25-.34.38-.77.66-1.2.82-.93.33-1.81.2-2.36.07-.57-.14-.88-.29-.92-.23-.03.05.21.32.78.6.57.27 1.53.57 2.72.29.59-.14 1.22-.45 1.74-.97.52-.54.88-1.24 1.09-2.01.44-1.59.08-3.36-.55-4.97zM44.13 24.9c-1.29-.21-2.89-.48-4.5-.51-2.33-.08-4.9.16-7.31.91-.04-.1-.09-.2-.18-.33-.22-.33-.65-.77-1.41-1.19s-1.85-.77-3.25-.9c-1.56-.17-3.86.1-5.74.35-.41.06-.8.12-1.17.18.09-.41.18-1 .28-1.84.15-1.35.25-3.35.39-6.27.02-.36.04-.74.06-1.14s.05-.81.09-1.17c.12-.75.31-1.37.88-1.84.57-.51 1.57-.99 2.56-1.67a84.302 84.302 0 0 1 7.07-4.33c.74-.39 1.36-.64 2.05-.57.69.04 1.41.39 2.18.89.75.5 1.65 1.12 2.56 1.58.9.48 1.79.89 2.63 1.35 1.67.89 3.11 2.04 3.31 3.63l.04.59v.7l.03 1.36c.03.89.09 1.75.15 2.56.12 1.62.25 3.07.31 4.28.09 1.62.08 2.82.11 3.45-.36 0-.74-.02-1.14-.07zm19.3 11.69c-.11.57-.32 1.09-.62 1.49-.16-.5-.47-1.28-.93-2.28-.79-1.71-2.04-3.99-3.6-6.39-1.57-2.4-3.14-4.47-4.35-5.9-.6-.71-1.1-1.26-1.47-1.63.41-.23.83-.43 1.31-.35.53.07 1.14.33 1.72.75.58.45 1.16.97 1.69 1.59 1.08 1.22 2.04 2.67 2.95 4.15.89 1.49 1.9 2.94 2.53 4.39.65 1.43 1.02 2.92.77 4.18z" fill="#000000" data-original="#000000" class=""></path><path d="M56.15 39.6c-1.37.19-3.01.71-3.97 1.3-.92.55-1.51 1.09-1.89 1.57l-.06-.06c-.54-.49-1.12-.92-1.67-1.33l-1.69-1.24c-1.13-.82-2.27-1.6-3.36-2.34-4.39-2.93-8.16-4.96-8.3-4.73-.15.24 3.35 2.68 7.49 5.87 1.04.8 2.11 1.64 3.19 2.51l1.61 1.3c.54.45 1.05.86 1.5 1.3.46.44.88.9 1.21 1.37.33.45.57.95.6 1.25.01.29 0 .32-.3.53-.35.18-.63.28-.99.28-.66.01-1.41-.23-2.06-.5-.67-.29-1.28-.63-1.83-.97-1.07-.69-2.03-1.5-2.87-2.09-1.66-1.23-2.81-2.03-3.61-2.54-1.6-1.02-1.81-.87-1.98-.65s-.26.46 1.12 1.76c.69.65 1.75 1.56 3.35 2.87.82.64 1.67 1.42 2.93 2.27.62.41 1.31.8 2.11 1.15.38.16.78.31 1.22.44 0 .41-.03.9-.21 1.37-.14.33-.37.59-.78.76-.43.16-1.06.21-1.76-.06-.78-.26-1.85-1.02-3.04-1.81-1.17-.79-2.4-1.64-3.5-2.45-2.21-1.61-3.86-3.11-4.07-2.93-.21.17 1.12 2.06 3.17 4 1.01.98 2.19 1.97 3.33 2.86.58.44 1.12.86 1.68 1.25s1.16.73 1.75.94c.25.09.5.16.75.21.02.36.03.78-.09 1.19-.11.32-.28.61-.64.81-.37.2-.95.32-1.62.15-.75-.15-1.84-.75-3-1.41-1.15-.66-2.35-1.43-3.44-2.16-2.18-1.46-3.97-2.67-4.15-2.45-.17.2 1.29 1.79 3.3 3.56 1 .89 2.16 1.8 3.33 2.59l.61.4c-.05.22-.1.45-.2.69-.19.38-.42.73-1.29.86-.47.06-1.17.04-1.91-.15-.79-.19-1.61-.49-2.34-.82-.95-.42-1.74-.92-2.24-1.17.23-.59.32-1.13.27-1.55-.07-.67-.36-.97-.52-1.06-.17-.1-.29-.04-.41.03s-.23.15-.29.3c-.07.15-.07.35-.18.7-.09.34-.31.88-.92 1.64-.31.37-.71.8-1.22 1.23-.51.41-1.18.92-1.75 1.01-.66.13-1.41-.17-1.35-1.13.03-.46.31-1.09.65-1.67.06-.1.13-.2.2-.3.49-.53.87-1.03 1.19-1.49l.01-.01c.38-.37.77-.67 1.16-.83.45-.2.87-.2 1.23-.08.8.27 1.15.71 1.27.64.13-.04-.04-.75-.92-1.33-.42-.3-1.09-.44-1.76-.31.11-.29.19-.57.24-.81.06-.33.07-.63.03-.84-.05-.2-.1-.33-.16-.42-.11-.17-.24-.17-.38-.17-.14.01-.27.03-.39.18-.14.16-.19.39-.43.82-.23.44-.64 1.14-1.38 2.09-.38.47-.83 1.01-1.42 1.54-.57.52-1.33 1.11-2.08 1.3-.42.09-.71.07-1.04-.23-.08-.06-.18-.2-.24-.27s-.09-.15-.12-.25c-.06-.19-.06-.47.01-.79s.2-.67.37-1.02c.04-.08.09-.17.13-.26.31-.25.59-.51.85-.75.59-.58 1.05-1.11 1.44-1.6 1.19-.9 2.46-1.63 3.27-1.63.4-.02.63.22.76.47.14.24.19.41.27.4.06 0 .14-.17.11-.52-.01-.17-.08-.39-.23-.62-.17-.22-.47-.41-.8-.49-.58-.13-1.2-.02-1.82.17.13-.24.23-.48.28-.72.2-.79-.05-1.29-.21-1.44-.18-.16-.3-.12-.43-.07s-.24.12-.31.28c-.09.16-.12.35-.36.73-.22.4-.78.95-1.73 2.01-.44.49-.95 1.04-1.58 1.62-.62.56-1.41 1.19-2.24 1.46-.46.13-.83.12-1.21-.15a.815.815 0 0 1-.33-.47c-.06-.22-.06-.54.01-.89.08-.4.22-.8.42-1.19.33-.27.62-.54.87-.81.59-.62 1.04-1.18 1.4-1.67.12-.16.21-.31.31-.46.52-.37 1.06-.69 1.57-.91.6-.25 1.22-.32 1.71-.27 1.01.08 1.33.78 1.47.7.05-.02.07-.22-.1-.54-.16-.32-.58-.72-1.2-.91-.62-.2-1.38-.24-2.21-.04-.16.04-.33.09-.49.15.02-.16.05-.31.04-.45-.01-.71-.26-1.05-.42-1.17-.17-.12-.29-.07-.42-.02s-.24.12-.31.27c-.08.15-.11.37-.24.74-.14.37-.41.95-1.13 1.75-.17.2-.36.41-.56.63-.35.3-.69.64-1 1.01-.49.46-1.08.94-1.66 1.16-.17.05-.34.1-.44.07-.06.01-.09-.03-.15-.03-.06-.04-.16-.08-.2-.13-.22-.16-.36-.58-.28-1.22.08-.61.34-1.32.67-1.89.36-.61.83-1.2 1.31-1.7.95-1.02 2.08-1.7 2.79-1.48.72.26 1.05.92 1.19.82.06-.03.05-.19-.04-.48-.08-.29-.32-.7-.84-1.05-.56-.32-1.37-.3-2.06-.04-.71.25-1.37.68-1.99 1.2-.56.47-1.09 1.01-1.57 1.64-.22-.5-.55-1.14-1.02-2-.48-.89-1.29-2.27-2-3.43-.37-.6-.72-1.13-1-1.5.37-.29.69-.62.97-.95.57-.68 1.01-1.38 1.43-2.02 3.41-5.19 6.85-8.94 6.64-9.14-.18-.19-4.01 3.24-7.78 8.33-.93 1.26-1.86 2.59-3.11 2.98-.94.31-2.06.17-2.94-.3.14-.31.31-.72.53-1.2.52-1.16 1.35-2.71 2.41-4.34 2.16-3.24 4.16-5.74 3.98-5.88-.12-.1-2.36 2.19-4.56 5.5-1.09 1.66-1.87 3.3-2.29 4.54-.16.47-.28.88-.35 1.21-.18-.12-.35-.24-.49-.38-.92-.8-.83-2.08-.4-3.33.43-1.23 1.12-2.35 1.75-3.26 1.18-1.67 2.52-3 3.6-4.3 1.05-1.24 2.01-2.16 2.9-2.54.89-.4 1.61-.24 2.38.03.72.26 1.26.58 1.68.87.83.59 1.21 1 1.47 1.16.25.18.38.13.49.06.12-.07.22-.15.15-.49-.09-.32-.33-.94-1.22-1.81-.45-.42-1.07-.91-1.95-1.31-.44-.2-.93-.38-1.6-.48-.65-.09-1.39.01-2.09.28-1.41.55-2.56 1.7-3.67 2.95-1.06 1.24-2.44 2.58-3.76 4.44-.73 1.03-1.47 2.25-1.99 3.79-.24.77-.45 1.64-.35 2.61.03.48.19.99.41 1.46.24.46.59.89.95 1.21 1.48 1.3 3.62 1.74 5.5 1.05.22-.08.43-.19.63-.3.07.45.2 1.01.39 1.63.4 1.33 1.04 2.86 1.53 3.79.86 1.56 1.42 2.34 1.83 2.71-.13.33-.24.67-.32 1.04a3.9 3.9 0 0 0-.03 1.49c.09.52.37 1.08.78 1.45.2.2.41.33.64.46.26.12.53.23.8.24.28.04.54.02.77-.02-.07.41-.08.85.01 1.3.12.61.5 1.23.98 1.58.45.35 1 .59 1.54.64.45.06.86 0 1.22-.08-.07.39-.09.82.01 1.26.07.3.19.6.35.85.17.25.3.43.51.63.38.38.9.68 1.42.79.53.11 1.01.06 1.41-.03.24-.06.45-.14.66-.23-.03.42.01.87.16 1.29.19.49.51.92.91 1.23.8.62 1.76.69 2.47.55.65-.12 1.2-.42 1.6-.68.42-.27.75-.55 1.06-.82.61-.55 1.07-1.1 1.42-1.62.12-.18.22-.36.31-.54.33.5.94 1.17 1.79 1.79.73.54 1.61 1.03 2.51 1.36.93.35 1.91.48 2.72.37.73-.09 1.43-.39 1.92-.85.49-.45.75-1 .85-1.44.03-.12.03-.21.05-.32.44.21.88.39 1.33.49 1.1.26 2.22.1 3.05-.41.87-.52 1.31-1.4 1.43-2.08.11-.66.04-1.17-.05-1.57.27-.05.54-.13.79-.23.96-.4 1.56-1.24 1.76-1.94.22-.71.17-1.27.12-1.71v-.02h.03c.63.01 1.4-.21 2.02-.59.17-.12.34-.25.5-.39.16-.17.31-.38.44-.58.23-.47.31-1.01.23-1.46-.15-.91-.58-1.55-1.01-2.14l-.18-.21c.37-.3.87-.7 1.65-1.17.78-.48 2.13-1.14 3.35-1.66 1.21-.53 2.23-.99 2.17-1.26-.07-.25-1.19-.28-2.57-.08z" fill="#000000" data-original="#000000" class=""></path></g></svg>