<svg xmlns="http://www.w3.org/2000/svg" version="1.1" xmlns:xlink="http://www.w3.org/1999/xlink" xmlns:svgjs="http://svgjs.com/svgjs" width="512" height="512" x="0" y="0" viewBox="0 0 66 66" style="enable-background:new 0 0 512 512" xml:space="preserve" class=""><g><path d="M29.566 28.509c-1.757 1.923-1.72 5.06 1.307 6.61.042.023.086.045.13.066-.198 1.53-.405 3.069-.613 4.607-.043.321.23.589.507.567 1.855-.044 3.642.053 5.607.011a.5.5 0 0 0 .481-.586c-.277-1.574-.545-3.083-.82-4.614 1.151-.642 1.99-1.712 2.278-2.929v-.001c.33-1.404-.091-2.965-1.103-4.074-2.092-2.269-5.726-1.895-7.774.343zm4.622-.832.482.482-.543.543-.994-.994c.657-.097.509-.086 1.055-.031zm-2.069.295-.824.824-.259-.259a4.875 4.875 0 0 1 1.083-.565zm-1.458.897.281.281-.012.012a.25.25 0 1 0 .354.353l.012-.012.449.449-1.063 1.062-.957-.957c.148-.312.339-.61.58-.874.107-.116.237-.209.356-.314zm.798 10.482.062-.466.223.223-.243.243h-.042zm.639-.597-.494-.494.202-1.528.008-.008 1.157 1.157zm-1.759-5.226a3.355 3.355 0 0 1-.499-.571l.535.535zm.39.318.043.043-.052-.034zm-.757-1.464c.028-.012.061-.012.084-.035l.626-.625.732.732-.685.685zm-.269-.388c-.023.023-.022.055-.035.084l-.083-.084a.249.249 0 0 0-.151-.063 3.058 3.058 0 0 1 .097-1.361l.798.798zm5.696 2.444a.499.499 0 0 0-.284.543c.265 1.466.521 2.908.784 4.398-1.21.012-2.103-.023-3.691-.029l1.218-1.218c.037-.012.077-.015.106-.044s.032-.069.044-.106l1.327-1.327a.25.25 0 1 0-.354-.354l-1.225 1.225-1.157-1.157 2.184-2.183a.25.25 0 1 0-.354-.354l-2.084 2.083c.043-.327.088-.656.13-.982a.501.501 0 0 0-.328-.535c-.052-.018-.104-.046-.155-.068l.005-.002a.25.25 0 0 0 0-.354l-.484-.484 1.994-1.995a.25.25 0 1 0-.353-.354l-.955.959-.732-.732 1.063-1.062.497.497a.25.25 0 1 0 .354-.353l-.497-.497.639-.639a.25.25 0 1 0-.354-.353l-.639.639-.449-.449 1.109-1.109 1.049 1.049c-.022.083-.017.171.048.237.095.095.151.071.237.048l.31.31a.25.25 0 1 0 .354-.354l-.276-.276.543-.543.391.391c.232.233.589-.118.354-.354l-.391-.391.121-.121c.412.2.791.462 1.106.804 1.624 1.781 1.126 4.529-1.205 5.596z" fill="#000000" data-original="#000000" class=""></path><path d="M64.082 58.734a.5.5 0 0 0-.5-.5H40.185c-.216-3.239-3.217-5.866-6.328-5.408v-5.37c8.322.504 9.698.662 11.514.34 4.772-.842 5.511-4.346 5.636-8.509l.384-12.261c.122-3.622-.349-6.392-3.944-7.413a41.378 41.378 0 0 0-.127-6.443c-.387-3.918-1.403-7.609-6.069-10.274-7.473-4.309-17.139-1-20.421 7.052-1.186 2.975-1.051 5.315-.751 9.864-1.696.911-2.904 2.443-3.343 4.561-.26 1.211-.564 14.33-.705 16.587-.263 4.153 1.054 5.477 4.977 5.722 3.947.234 7.898.475 11.849.714v5.598c-1 .177-2.488.235-3.837 1.475-.992.913-1.606 2.189-1.765 3.543H2.418a.5.5 0 0 0 0 1h24.801c.116 2.178 1.429 4.082 3.217 5.117 1.01.585 2.178.873 3.341.873 3.562 0 6.08-2.551 6.393-5.769h23.414a.497.497 0 0 0 .498-.499zM45.198 46.812c-1.485.262-3.022.144-5.741-.021.009-.007.023-.004.031-.013a.249.249 0 0 0 0-.353l-1.029-1.029 1.631-1.631 1.102 1.102-1.093 1.093a.25.25 0 1 0 .353.354l1.093-1.093 1.412 1.412a.25.25 0 1 0 .354-.353l-1.412-1.412 1.419-1.419 1.181 1.181-1.12 1.12a.25.25 0 1 0 .354.353l1.12-1.12 1.235 1.235a.25.25 0 1 0 .354-.353l-1.235-1.235 1.604-1.604.705.705-1.384 1.384a.25.25 0 1 0 .354.353l1.384-1.384c.107.107.69.728.835.765-.855 1.133-2.123 1.718-3.507 1.963zm4.781-6.968c.002.002.004.001.006.002-.036.881-.102 1.737-.257 2.532l-2.142-2.142 1.393-1.393zm-.556-4.76a.246.246 0 0 0-.331-.009l-.439-.438c-.064-.064-.149-.07-.23-.051l1.687-1.687c.013-.013.01-.032.019-.047l.076.076-.101 3.227c-.011-.04-.016-.082-.047-.113l-.626-.626a.246.246 0 0 0-.008-.332zm.854-4.413-.049 1.572-.816-.816.811-.811zm-28.52-20.349C24.833 2.779 33.864-.21 40.753 3.763c4.073 2.327 5.17 5.439 5.572 9.506.2 1.998.247 4.046.14 6.099-1.031-.194-2.935-.303-3.977-.361a25.525 25.525 0 0 0-.071-4.128c-.282-2.78-1.114-4.988-3.891-6.579-4.742-2.727-10.948-.679-13.061 4.52-.77 1.914-.654 3.371-.514 5.849-1.323.064-2.662.236-3.9.7-.258-4.155-.387-6.305.706-9.047zm4.196 8.32c-.142-2.505-.233-3.772.441-5.448 1.882-4.632 7.411-6.457 11.636-4.027 2.468 1.414 3.142 3.343 3.393 5.811a24.33 24.33 0 0 1 .05 3.976c-5.631-.321-10.342-.375-15.52-.312zm-8.924 22.38c.136-2.177.454-15.367.685-16.443 1.087-5.24 6.533-4.965 11.778-4.965 4.203 0 8.373.122 12.435.364 6.423.326 8.68.622 8.466 7.014v.001l-.09 2.861c-.014.009-.032.006-.044.018l-.036.036-.67-.67a.25.25 0 1 0-.353.354l.67.67-1.04 1.04a.249.249 0 0 0 .177.426l.001-.001.796.796c-.015.01-.034.006-.047.019l-1.933 1.933a.25.25 0 1 0 .354.353l.071-.071c-.019.082-.012.167.051.23l.432.432-1.12 1.119a.25.25 0 1 0 .354.354l1.12-1.12.619.619a.249.249 0 0 0 .353 0c.029-.029.031-.067.043-.103l-.09 2.877-.694-.694c.057-.096.06-.216-.023-.298s-.203-.08-.299-.023l-.924-.924a.25.25 0 1 0-.354.354l.908.908-1.393 1.393-.485-.485a.25.25 0 1 0-.354.354l.485.485-.22.22a.25.25 0 1 0 .354.353l.22-.22 2.2 2.201a.249.249 0 0 0 .177.073l.003-.001c-.15.588-.357 1.138-.656 1.628-.074-.114-.632-.659-.735-.762l.543-.543a.25.25 0 1 0-.354-.354l-.543.543-.705-.705.438-.438a.25.25 0 1 0-.354-.354l-.438.438-1.438-1.438a.25.25 0 1 0-.354.354l1.437 1.438-1.604 1.604-1.181-1.181 1.106-1.106a.25.25 0 1 0-.354-.353l-1.106 1.106-.59-.591a.25.25 0 1 0-.354.354l.591.59-1.419 1.419-1.102-1.102 1.742-1.742a.25.25 0 1 0-.354-.354l-1.742 1.742-.167-.167a.25.25 0 1 0-.354.354l.167.167-1.631 1.631-.678-.678 2.109-2.109a.25.25 0 1 0-.353-.354l-2.109 2.109-.432-.432a.25.25 0 1 0-.354.354l.432.432-1.067 1.067a.25.25 0 1 0 .354.354l1.067-1.067.686.686a.245.245 0 0 0 .01.328c.084.084.207.106.328.01l1.029 1.029-2.825-.17a.239.239 0 0 0-.064-.198l-1.747-1.747 2.285-2.285a.25.25 0 1 0-.354-.354l-2.285 2.285-.511-.511a.25.25 0 1 0-.354.354l.511.511-1.199 1.199a.25.25 0 1 0 .354.354l1.199-1.199 1.556 1.556-3.011-.181c-.061-.127-.918-.962-1.022-1.066l2.091-2.091a.25.25 0 1 0-.354-.354l-2.091 2.091-.908-.908a.25.25 0 1 0-.354.354l.908.908-.485.485a.25.25 0 1 0 .354.353l.485-.485.67.67-4.09-.246-.01-.01 2.983-2.983a.25.25 0 1 0-.354-.354l-2.983 2.983-.493-.493 1.414-1.414a.25.25 0 1 0-.354-.354l-1.414 1.414-.352-.352a.25.25 0 1 0-.353.354l.352.352-.719.719c-1.511-.09-3.024-.184-4.534-.273-3.43-.213-4.258-1.151-4.036-4.66zm10.105 5.027-.864-.052.406-.406zm11.694 10.728-.252-.252.087-.087a4.6 4.6 0 0 1 .165.339zm-1.287-1.775c.324.294.62.624.864.987l-.183.183-.926-.926zm-6.605 8.262a5.744 5.744 0 0 1-.417-.273c.027.009.049.032.078.032a.249.249 0 0 0 .177-.073l.61-.61.678.678a.249.249 0 0 0 .177.073c.029 0 .053-.023.081-.034a.244.244 0 0 0 .068.188.249.249 0 0 0 .354 0l.512-.512 1.22 1.22c-1.211.143-2.475-.074-3.538-.689zm2.986-3.462c.012.034.014.071.041.098l.709.709-1.418 1.418-.778-.778zM32.9 62.38l-.426.426c-.008-.051-.02-.103-.059-.142l-.678-.678.384-.384zm4.142.609a5.361 5.361 0 0 1-2.145.91c.037-.09.037-.192-.036-.265l-1.254-1.254 1.418-1.418 1.123 1.123-1.201 1.201a.25.25 0 1 0 .354.354l1.201-1.201.172.172a.249.249 0 0 0 .354 0 .25.25 0 0 0 0-.354l-.172-.172 1.547-1.548c.024.007.044.029.069.029a.249.249 0 0 0 .177-.073c.068-.068.071-.16.045-.246l.15-.15a.25.25 0 1 0-.354-.354l-.118.118-1.988-1.988a.25.25 0 1 0-.354.354l.648.648c-.096-.055-.214-.058-.296.024l-1.356 1.356-.709-.709c-.027-.027-.064-.029-.098-.041l.717-.717a.25.25 0 1 0-.354-.354l-2.46 2.46-.463-.463a.25.25 0 1 0-.354.354l.463.463-.384.385-.807-.807a.25.25 0 1 0-.353.354l.807.807-.61.61c-.087.087-.084.218-.016.316-2.706-2.011-2.871-5.717-.708-7.707.695-.639 1.571-.999 2.757-1.134 1.489-.168 2.733-.863 4.697.614l-.827.827a.25.25 0 1 0 .354.354l.266-.266.926.926-1.053 1.053a.25.25 0 1 0 .354.354l1.053-1.053.316.316a.249.249 0 0 0 .354 0c.033-.033.039-.078.05-.121.761 2.158-.151 4.64-1.902 5.913zm-.284-4.032 1.259 1.258-1.516 1.516-1.122-1.122 1.356-1.356c.081-.082.078-.201.023-.296z" fill="#000000" data-original="#000000" class=""></path><path d="M24.764 24.072a3.248 3.248 0 0 1-.583-.794c1.089-.26 2.083-.327 3.083-.422.153.271.333.526.569.732a.25.25 0 1 0 .329-.377 2.252 2.252 0 0 1-.36-.402c.843-.076 1.687-.143 2.534-.198.097.445.236.881.421 1.295a.25.25 0 0 0 .33.126c.126-.056.183-.204.126-.33a6.097 6.097 0 0 1-.369-1.12c1.088-.065 2.176-.113 3.266-.144l.262 1.586a.25.25 0 0 0 .145.188c.213.092.64-.194.467-.463a.249.249 0 0 0-.17-.112l-.201-1.214c.838-.02 1.675-.028 2.511-.028l-.023 1.182a.25.25 0 0 0 .245.255h.005a.25.25 0 0 0 .25-.245l.023-1.191c.381.002.763-.005 1.143.002.113-.016.251-.108.254-.246a.25.25 0 0 0-.246-.254c-.38-.006-.761.001-1.141-.001l.013-.663a.25.25 0 0 0-.245-.255c-.136.011-.252.107-.255.245l-.013.672c-.867 0-1.734.009-2.603.031l-.128-.775a.25.25 0 0 0-.493.081l.117.709a105.2 105.2 0 0 0-3.275.147 6.116 6.116 0 0 1-.074-1.001.25.25 0 0 0-.246-.254c-.135-.012-.251.107-.254.246-.006.347.025.694.074 1.039-.905.059-1.807.132-2.708.214a2.288 2.288 0 0 1-.153-1.074.25.25 0 1 0-.497-.051c-.041.396.02.794.147 1.17-1 .096-1.964.168-3.063.441a3.227 3.227 0 0 1-.168-.686.257.257 0 0 0-.277-.22.25.25 0 0 0-.22.277c.03.263.097.518.181.766-.836.262-1.522.584-2.179 1.203-.124-.288-.256-.581-.445-.849a.25.25 0 0 0-.408.29c.18.254.305.546.437.855l.045.1c-.591.713-.908 1.566-.856 2.408a.25.25 0 0 0 .249.234h.016a.25.25 0 0 0 .234-.265c-.042-.685.212-1.325.607-1.864.282.517.615.859 1.019 1.022a.25.25 0 0 0 .188-.464c-.33-.133-.608-.442-.852-.947l-.009-.019c.636-.66 1.275-.97 2.14-1.236.185.374.432.717.733 1.012a.25.25 0 0 0 .354-.004.258.258 0 0 0-.003-.36z" fill="#000000" data-original="#000000" class=""></path></g></svg>