<svg xmlns="http://www.w3.org/2000/svg" version="1.1" xmlns:xlink="http://www.w3.org/1999/xlink" xmlns:svgjs="http://svgjs.com/svgjs" width="512" height="512" x="0" y="0" viewBox="0 0 73 73" style="enable-background:new 0 0 512 512" xml:space="preserve" class=""><g><path d="M27.427 14.435c-6.174.047-12.314-.302-18.645-.025-1.263.055-2.27 1.138-2.289 2.466-.078 5.417.168 11.58.094 16.912-.02 1.367 1.019 2.514 2.315 2.555 6.39.201 12.204.362 18.745-.265 1.27-.122 2.218-1.281 2.159-2.637-.23-5.386-.161-10.272.025-16.409.038-1.306-.896-2.56-2.404-2.597zM39.447 14.41a2.306 2.306 0 0 0-1.415.58c-1.05.535-1.952 1.486-2.312 2.484-.549 1.52-.422 2.292-.284 12.371.02 1.426.051 2.905.664 4.19.48 1.005 1.427 1.845 2.479 2.037.3.16.632.26.987.27 6.39.202 12.204.363 18.745-.264 1.268-.122 2.217-1.28 2.16-2.637-.23-5.397-.161-10.28.024-16.408.04-1.32-.906-2.561-2.403-2.598-6.056.05-12.281-.303-18.645-.025zm18.655 1.525c.583.052.91.519.893 1.052-.186 6.163-.255 11.075-.022 16.518.023.55-.34 1.035-.806 1.08-6.646.636-12.7.442-18.555.258-.482-.015-.869-.479-.86-1.033.073-5.343-.172-11.616-.095-16.912.008-.526.391-.97.855-.99 6.34-.273 12.398.076 18.59.027zM58.19 13.02a.75.75 0 0 0 .748-.753c-.005-1.342.239-2.657.723-3.907a.75.75 0 0 0-1.398-.543 12.17 12.17 0 0 0-.825 4.456.75.75 0 0 0 .75.747zM62.19 13.652a30.997 30.997 0 0 0 4.38-4.482.75.75 0 0 0-1.174-.934A29.493 29.493 0 0 1 61.23 12.5c-.535.446-.221 1.326.48 1.326.17 0 .34-.056.48-.173zM68.146 16.094a41.609 41.609 0 0 0-4.91.14.75.75 0 0 0 .132 1.495 39.624 39.624 0 0 1 4.73-.135.74.74 0 0 0 .774-.727.751.751 0 0 0-.726-.773zM34.902 58.985c.02 1.426.05 2.905.664 4.19.536 1.123 1.654 2.052 2.851 2.087.277.132.581.21.902.22 6.376.201 12.192.363 18.744-.263 1.27-.121 2.218-1.28 2.16-2.638-.23-5.385-.161-10.27.025-16.408.041-1.415-1.03-2.595-2.404-2.598-6.226.048-12.24-.3-18.644-.025a2.28 2.28 0 0 0-1.03.307c-1.323.415-2.55 1.55-2.985 2.757-.548 1.52-.422 2.292-.283 12.371zm3.508-12.948c.008-.525.39-.968.855-.989 4.746-.203 18.695.027 18.595.027.484 0 .907.462.888 1.053-.186 6.171-.256 11.087-.022 16.518.023.55-.338 1.035-.806 1.079-6.646.635-12.7.442-18.555.258-.482-.015-.869-.479-.86-1.034.073-5.379-.173-11.546-.095-16.912zM4.247 58.985c.02 1.426.05 2.905.664 4.19.534 1.118 1.645 2.044 2.837 2.085.278.133.584.212.906.223 6.377.2 12.193.362 18.745-.264 1.27-.121 2.22-1.28 2.16-2.638-.23-5.387-.161-10.271.025-16.408.04-1.395-1.015-2.598-2.388-2.598-7.682 0-12.903-.273-18.66-.025a2.28 2.28 0 0 0-1.038.31c-1.317.42-2.535 1.553-2.968 2.754-.548 1.52-.422 2.292-.283 12.371zm3.5-12.949c.006-.524.389-.967.853-.988 4.746-.203 18.696.027 18.595.027.485 0 .908.462.89 1.053-.187 6.17-.257 11.085-.024 16.518.023.55-.337 1.035-.805 1.079-6.646.635-12.701.442-18.555.258-.482-.015-.869-.479-.861-1.035.072-5.365-.171-11.575-.094-16.912z" fill="#000000" data-original="#000000" class=""></path></g></svg>