<svg xmlns="http://www.w3.org/2000/svg" version="1.1" xmlns:xlink="http://www.w3.org/1999/xlink" xmlns:svgjs="http://svgjs.com/svgjs" width="512" height="512" x="0" y="0" viewBox="0 0 480 480" style="enable-background:new 0 0 512 512" xml:space="preserve" class=""><g><circle cx="416" cy="388" r="16" fill="#000000" data-original="#000000" class=""></circle><path d="M296 380H40a8 8 0 0 0 0 16h256a8 8 0 0 0 0-16zM360 380h-32a8 8 0 0 0 0 16h32a8 8 0 0 0 0-16z" fill="#000000" data-original="#000000" class=""></path><circle cx="416" cy="276" r="16" fill="#000000" data-original="#000000" class=""></circle><path d="M296 268H40a8 8 0 0 0 0 16h256a8 8 0 0 0 0-16zM360 268h-32a8 8 0 0 0 0 16h32a8 8 0 0 0 0-16z" fill="#000000" data-original="#000000" class=""></path><circle cx="416" cy="164" r="16" fill="#000000" data-original="#000000" class=""></circle><path d="M296 156H40a8 8 0 0 0 0 16h256a8 8 0 0 0 0-16zM360 156h-32a8 8 0 0 0 0 16h32a8 8 0 0 0 0-16z" fill="#000000" data-original="#000000" class=""></path><path d="M456 100c13.255 0 24-10.745 24-24V28c0-13.255-10.745-24-24-24H24C10.745 4 0 14.745 0 28v48c0 13.255 10.745 24 24 24h8v16h-8c-13.255 0-24 10.745-24 24v48c0 13.255 10.745 24 24 24h320v16H24c-13.255 0-24 10.745-24 24v48c0 13.255 10.745 24 24 24h8v16h-8c-13.255 0-24 10.745-24 24v48c0 13.255 10.745 24 24 24h320v24H8a8 8 0 0 0 0 16h464a8 8 0 0 0 0-16h-16v-24c13.255 0 24-10.745 24-24v-48c0-13.255-10.745-24-24-24H144v-16h312c13.255 0 24-10.745 24-24v-48c0-13.255-10.745-24-24-24v-16c13.255 0 24-10.745 24-24v-48c0-13.255-10.745-24-24-24H144v-16h312zm-80 360h-16v-24h16v24zm32 0h-16v-24h16v24zm32 0h-16v-24h16v24zm16-104a8 8 0 0 1 8 8v48a8 8 0 0 1-8 8H24a8 8 0 0 1-8-8v-48a8 8 0 0 1 8-8h432zM48 340v-16h16v16H48zm32 0v-16h16v16H80zm32 0v-16h16v16h-16zm352-88v48a8 8 0 0 1-8 8H24a8 8 0 0 1-8-8v-48a8 8 0 0 1 8-8h432a8 8 0 0 1 8 8zm-104-24v-16h16v16h-16zm32 0v-16h16v16h-16zm32 0v-16h16v16h-16zm32-96a8 8 0 0 1 8 8v48a8 8 0 0 1-8 8H24a8 8 0 0 1-8-8v-48a8 8 0 0 1 8-8h432zM48 116v-16h16v16H48zm32 0v-16h16v16H80zm32 0v-16h16v16h-16zM24 84a8 8 0 0 1-8-8V28a8 8 0 0 1 8-8h432a8 8 0 0 1 8 8v48a8 8 0 0 1-8 8H24z" fill="#000000" data-original="#000000" class=""></path><circle cx="416" cy="52" r="16" fill="#000000" data-original="#000000" class=""></circle><path d="M296 44H40a8 8 0 0 0 0 16h256a8 8 0 0 0 0-16zM360 44h-32a8 8 0 0 0 0 16h32a8 8 0 0 0 0-16z" fill="#000000" data-original="#000000" class=""></path></g></svg>