<svg xmlns="http://www.w3.org/2000/svg" version="1.1" xmlns:xlink="http://www.w3.org/1999/xlink" xmlns:svgjs="http://svgjs.com/svgjs" width="512" height="512" x="0" y="0" viewBox="0 0 512 512" style="enable-background:new 0 0 512 512" xml:space="preserve" class=""><g><path d="M488.485 464.328V72.324c0-13.96-11.357-25.317-25.317-25.317h-83.421v-21.69C379.747 11.357 368.39 0 354.43 0H157.571c-13.96 0-25.317 11.357-25.317 25.317v21.689H48.832c-13.96 0-25.317 11.357-25.317 25.317v43.125c.307 9.916 14.696 9.909 15 0V72.324c0-5.689 4.628-10.317 10.317-10.317h83.421v20.606H66.759a7.5 7.5 0 0 0-7.5 7.5v344.354a7.5 7.5 0 0 0 7.5 7.5h65.495v21.414H38.515V158.744c-.307-9.916-14.696-9.909-15 0v305.583C10.018 467.742 0 479.989 0 494.532v9.968a7.5 7.5 0 0 0 7.5 7.5h305.636c9.916-.307 9.909-14.696 0-15H123.739v-2.468c0-8.906 7.246-16.152 16.152-16.152h232.218c8.906 0 16.152 7.246 16.152 16.152V497h-35.27c-9.916.307-9.909 14.696 0 15H504.5a7.5 7.5 0 0 0 7.5-7.5v-9.968c0-14.543-10.017-26.79-23.515-30.204zM463.168 62.007c5.689 0 10.317 4.628 10.317 10.317V463.38h-93.738v-21.414h65.494a7.5 7.5 0 0 0 7.5-7.5V90.113a7.5 7.5 0 0 0-7.5-7.5h-65.494V62.007zm-83.421 233.316h57.994v34.428h-57.994zm0-15v-34.427h57.994v34.427zm0-49.427v-34.428h57.994v34.428zm0 113.854h57.994v34.427h-57.994zm57.994-163.282h-57.994v-34.427h57.994zm-57.994 212.71h57.994v32.789h-57.994zm57.994-262.137h-57.854V97.613h57.854zM132.253 245.896v34.427H74.259v-34.427zm-57.994-15v-34.428h57.995v34.428zm57.994 64.427v34.428H74.259v-34.428zm0-113.855H74.259v-34.427h57.995v34.427zM74.259 344.75h57.995v34.427H74.259zm0-247.137h57.995v34.428H74.259zm0 329.353v-32.789h57.995v32.789zM15 494.532c0-8.906 7.246-16.152 16.152-16.152h82.11a30.967 30.967 0 0 0-4.523 16.152V497H15zM147.253 25.317c0-5.689 4.628-10.317 10.317-10.317h196.86c5.689 0 10.317 4.628 10.317 10.317l-.141 409.149c0 .496.049.981.141 1.45v27.463H147.253zM497 497h-93.738v-2.468c0-5.909-1.654-11.44-4.523-16.152h82.109c8.906 0 16.152 7.246 16.152 16.152z" fill="#000000" data-original="#000000" class=""></path><path d="M336.503 34.825H175.498a7.5 7.5 0 0 0-7.5 7.5v392.142a7.5 7.5 0 0 0 7.5 7.5h161.005a7.5 7.5 0 0 0 7.5-7.5V42.325a7.5 7.5 0 0 0-7.5-7.5zm-7.5 344.353H182.998V344.75h146.005zm0-247.137H182.998V99.252h146.005zm0 148.282H182.998v-34.427h146.005zm-146.005-49.427v-34.428h146.005v34.428zm146.005-49.428H182.998v-34.427h146.005zM182.998 329.75v-34.428h146.005v34.428zm0-279.925h146.005v34.427H182.998zm0 377.141v-32.789h146.005v32.789z" fill="#000000" data-original="#000000" class=""></path><path d="M209.798 122.949c9.652 0 9.668-15 0-15-9.652 0-9.668 15 0 15zM233 122.949c9.652 0 9.668-15 0-15-9.652 0-9.668 15 0 15zM279 59.538c-9.652 0-9.668 15 0 15 9.652 0 9.668-15 0-15zM302.202 59.538c-9.652 0-9.668 15 0 15 9.652 0 9.668-15 0-15zM279 172.2c9.652 0 9.668-15 0-15-9.652 0-9.668 15 0 15zM302.202 172.2c9.652 0 9.668-15 0-15-9.652 0-9.668 15 0 15zM209.798 206.451c-9.652 0-9.668 15 0 15 9.652 0 9.668-15 0-15zM233 206.451c-9.652 0-9.668 15 0 15 9.652 0 9.668-15 0-15zM279 270.702c9.652 0 9.668-15 0-15-9.652 0-9.668 15 0 15zM302.202 270.702c9.652 0 9.668-15 0-15-9.652 0-9.668 15 0 15zM209.798 304.953c-9.652 0-9.668 15 0 15 9.652 0 9.668-15 0-15zM233 304.953c-9.652 0-9.668 15 0 15 9.652 0 9.668-15 0-15zM279 369.204c9.652 0 9.668-15 0-15-9.652 0-9.668 15 0 15zM302.202 369.204c9.652 0 9.668-15 0-15-9.652 0-9.668 15 0 15zM209.798 403.455c-9.652 0-9.668 15 0 15 9.652 0 9.668-15 0-15zM233 403.455c-9.652 0-9.668 15 0 15 9.652 0 9.668-15 0-15z" fill="#000000" data-original="#000000" class=""></path></g></svg>