<svg xmlns="http://www.w3.org/2000/svg" version="1.1" xmlns:xlink="http://www.w3.org/1999/xlink" xmlns:svgjs="http://svgjs.com/svgjs" width="512" height="512" x="0" y="0" viewBox="0 0 66 66" style="enable-background:new 0 0 512 512" xml:space="preserve" class=""><g><path d="M59.079 12.098c-.152-6.278-2.219-7.893-8.202-7.908-37.255.145-38.393-.367-41.711 1.811-2.059 1.341-3.188 3.927-2.684 6.149.213 1.032.131 20.568-.183 27.458-.453 10.448 3.214 12.912 13.59 12.678.49.864 1.014 1.681 1.571 2.415 3.079 4.072 7.605 6.729 12.106 7.107a.59.59 0 0 0 .042.002c1 0 8.191-3.189 13.054-10.106 4.346-.102 7.978-.15 10.879-3.051 3.029-3.389 2.274-6.195 1.538-36.555zM9.713 6.837c3.032-1.989 4.093-1.503 41.168-1.648l.232-.001c7.126 0 6.868 2.956 7.034 9.781l-50.563.54c-.021-1.953-.062-3.294-.127-3.579-.408-1.8.562-3.988 2.256-5.093zm7.033 26.65c.035.018.067.044.106.044a.249.249 0 0 0 .177-.073l.882-.882.678.678-1.102 1.102-.458-.458c-.076-.076-.182-.075-.274-.033l-.009-.378zm-.01-.444c-.009-.557-.014-1.109-.014-1.656l.835.835zm.029 1.298.368.368-.34.34c-.009-.236-.021-.473-.028-.708zm.44 4.409a.25.25 0 0 0 .354 0l.326-.326 1.042 1.041c.034.034.079.04.123.051l-.794.794-1.173-1.173c-.002-.002-.005-.001-.007-.003a58.573 58.573 0 0 1-.147-1.667l.603.603-.326.326a.249.249 0 0 0-.001.354zm-.328-2.04c-.02-.328-.04-.655-.055-.982l.665-.665 1.482 1.482c.017.017.041.014.061.025l-1.146 1.146zm1.644 9.866.783.783-.377.377c-.139-.384-.283-.761-.406-1.16zm15.018 14.226c-4.186-.389-8.396-2.889-11.281-6.704-1.31-1.727-1.994-3.201-2.456-4.202l.014-.014c.119.12.326.376.48.376a.25.25 0 0 0 .177-.427l-.303-.303 1.399-1.399a.25.25 0 1 0-.354-.353l-1.399 1.399-.564-.564c-.047-.118-.089-.241-.134-.36l.539-.539.462.462a.25.25 0 0 0 .354-.354l-.462-.462 1.269-1.268c.232-.232-.119-.588-.354-.354l-1.268 1.268-.916-.917 1.942-1.942a.25.25 0 1 0-.354-.354l-1.941 1.942-.131-.132a34.466 34.466 0 0 1-.701-3.117l.505.505-.061.061a.25.25 0 1 0 .354.354l.061-.061.851.851a.25.25 0 0 0 .354-.354l-.851-.851 1.828-1.827a.25.25 0 1 0-.354-.354l-1.828 1.827-1.021-1.021c-.014-.089-.035-.171-.048-.26-.07-.477-.128-.956-.185-1.436l.741.741-.379.379a.25.25 0 1 0 .354.354l.379-.379.498.498a.25.25 0 1 0 .353-.353l-.498-.498 1.896-1.896a.25.25 0 1 0-.354-.354l-.82.82c-.01-.043-.017-.089-.051-.123l-1.041-1.041 2.793-2.793a.25.25 0 1 0-.354-.354l-1.329 1.329c-.011-.02-.009-.044-.025-.061l-1.482-1.482 1.102-1.102.747.747a.25.25 0 0 0 .354-.354l-.747-.747.553-.553a.25.25 0 1 0-.354-.354l-.556.558-.678-.678 1.108-1.108a.25.25 0 1 0-.354-.354l-1.108 1.108-.882-.882c-.085-.085-.211-.082-.308-.019.003-1.04.017-2.056.036-3.039l1.091 1.091-1.014 1.014c-.233.233.12.587.354.354l1.014-1.014 1.639 1.639a.25.25 0 0 0 .354-.354l-1.64-1.639.818-.819a.25.25 0 0 0 0-.354c-.004-.004-.011-.003-.016-.007.329-.017.659-.048.988-.077.012.028.011.06.034.083l1.437 1.438-.22.22a.25.25 0 1 0 .354.354l.22-.22.267.267a.25.25 0 1 0 .354-.354l-.267-.267 1.314-1.314.785.785-.168.167a.25.25 0 1 0 .354.354l.167-.167.527.527a.25.25 0 0 0 .354-.354l-.527-.527 1.498-1.499 1.024 1.024a.25.25 0 1 0 .353-.354l-1.47-1.47a30.022 30.022 0 0 0 1.734-.616c-.01.074.004.15.061.207l.643.643-.906.911a.25.25 0 1 0 .353.354l.908-.908.744.744a.25.25 0 1 0 .353-.353l-.744-.744 1.024-1.024a.242.242 0 0 0 .065-.197l.798.798-.22.22a.25.25 0 1 0 .354.354l.22-.22.512.512a.25.25 0 0 0 .354-.354l-.512-.512 1.313-1.314 1.11 1.11a.25.25 0 0 0 .354 0 .249.249 0 0 0 0-.353L33.17 23.63c-.032-.032-.076-.037-.117-.048.228-.139.466-.263.69-.408 5.096 3.905 11.617 5.874 18.016 5.463.732 13.89-5.447 27.296-18.22 32.165zM17.405 27.87c.53.011 1.06.022 1.594 0l-.797.797zm8.795-1.243.001.003.273.273-1.498 1.499-.785-.785.184-.185c.09-.09.087-.226.012-.324.61-.141 1.213-.3 1.813-.481zm-2.362.637-.02-.02c.018-.004.035-.009.053-.012zm-.541.099c.011.04.016.082.047.114l.141.141-1.314 1.314-1.214-1.215a28.86 28.86 0 0 0 2.34-.354zm9.52-3.379.617.617-1.313 1.314-1.173-1.173a29.57 29.57 0 0 0 1.819-.99c-.021.082-.014.168.05.232zm-2.336.987c.005.005.003.014.008.019l.259.259a.243.243 0 0 0-.197.065l-1.024 1.024-.643-.643c-.007-.007-.017-.004-.024-.01a29.607 29.607 0 0 0 1.621-.714zM47.36 50.687c5.682-8.798 6.201-22.096 5.195-22.966a.493.493 0 0 0-.369-.119c-6.435.547-13.034-1.432-18.107-5.434a.497.497 0 0 0-.586-.024c-5.081 3.37-11.358 5.084-17.191 4.697a.5.5 0 0 0-.533.488c-.171 8.005-.086 16.85 3.575 23.97-10.115.174-12.435-2.724-12.046-11.647.201-4.411.341-16.454.295-23.143l50.579-.538.567 23.37c.199 8.933-2.254 11.129-11.379 11.346z" fill="#000000" data-original="#000000" class=""></path><path d="M11.761 13.643a2.94 2.94 0 0 0 1.137.223c2.682 0 4.491-3.109 2.803-4.927-.684-.737-1.868-1.018-3.084-.742-3.511.804-3.041 4.522-.856 5.446zm-.216-1.375.158.158a1.571 1.571 0 0 1-.158-.158zm1.242.585c-.053-.123-.138-.188-.241-.291l.388-.388.587.587a2.363 2.363 0 0 1-.734.092zm1.092-1.624.329.329-.592.592-.329-.329zm.151 1.334-.06-.06.592-.592c.131.131.097.095.185.125-.272.288-.433.378-.717.527zm.885-1.006.316-.316a2.121 2.121 0 0 1-.214.446c-.043-.067.05.022-.102-.13zm.406-.706c-.086-.123-.194-.123-.303-.066.172-.251-.227-.524-.462-.76.108-.108.329-.304.381-.433.328.333.437.813.384 1.259zm-4.208-.355c0-.001 0-.001 0 0 .342-1.111 2.257-1.786 3.445-1.172-.101.091-.259.252-.355.348-.274-.275-.628.079-.354.353l-.075.075a.249.249 0 0 0 .177.426.25.25 0 0 0 .177-.073l.075-.075c.169.169.471.56.693.491l-.334.334c-.278-.278-.673-.835-.931-.577a.237.237 0 0 0-.062.205l-.635.635c-.385-.385-.734-.027-.353.354l-.388.388-.673-.673c-.098-.098-.264-.115-.37.04a1.763 1.763 0 0 1-.037-1.079zM19.2 13.642c2.896 1.225 5.988-2.497 3.939-4.703-.684-.737-1.868-1.018-3.084-.742-3.51.804-3.042 4.522-.855 5.445zm.484-.897.198-.198.308.308a1.935 1.935 0 0 1-.506-.11zm2.077-1.354-.484.484-.362-.362.484-.484zm-.814.86c-.096.209.068.419.308.308.14.14.024.023.091.077a2.508 2.508 0 0 1-.707.198c.104-.236-.2-.439-.403-.641l.326-.326zm.783.155c-.021-.107-.032-.109-.099-.177l.535-.534a.244.244 0 0 0 .252-.253c.101-.1.218-.206.288-.316-.136.476-.424.903-.976 1.28zm-3.179-1.91c0-.001 0-.001 0 0 .322-1.046 1.972-1.647 3.126-1.301l-.145.145c-.242-.242-.595.112-.354.353-.277.277.076.631.354.354.124.124.679.736.84.736a.25.25 0 0 0 .177-.427l-.663-.663.277-.277c.525.356.696.976.585 1.553-.028-.24-.283-.282-.416-.15l-.218.218-.378-.378c.138-.232-.09-.459-.321-.322-.161-.161-.304-.311-.484-.131-.175.175-.037.317.115.468l-.484.484c-.203-.203-.374-.427-.577-.224-.203.204.021.375.224.577l-.326.326c-.24-.241-.492-.6-.723-.37-.23.231.129.483.37.723l-.305.304c-.582-.454-.89-1.293-.674-1.998z" fill="#000000" data-original="#000000" class=""></path><path d="M26.409 13.643c2.912 1.224 5.982-2.505 3.939-4.704-.684-.737-1.868-1.018-3.084-.742-3.51.804-3.041 4.522-.855 5.446zm.012-1.157.401-.401.761.761c-.572.01-.863-.12-1.162-.36zm-.661-1.99c0-.001 0-.001 0 0 .402-1.306 2.888-1.919 3.855-.877.827.891.267 2.649-1.42 3.133l-1.02-1.02.459-.46.435.435c-.171.171-.34.316-.151.504a.25.25 0 0 0 .353 0l.151-.151c.106.106.186.22.324.22a.25.25 0 0 0 .177-.427l-.147-.147.423-.423c.112.112.217.256.36.256a.25.25 0 0 0 .177-.427l-1.27-1.269c-.181-.181-.515-.008-.386.275l-1.259 1.259-.126-.127a.25.25 0 1 0-.354.354l.126.126-.394.394c-.336-.466-.479-1.087-.313-1.628zm2.652 0 .435.435-.423.423-.435-.435zM38.431 35.34c-.488.45-5.819 5.349-6.281 5.826-2.497 2.567-2.259-.203-4.022-.721-2.514-1.34-5.013.466-4.333 3.309.344 1.427 3.046 6.092 6.08 6.666 2.289.437 4.4-1.002 6.117-2.577a40.005 40.005 0 0 0 7.174-8.758c.435-.718.87-1.493 1.001-2.385.337-2.309-1.897-4.906-5.736-1.36zm-13.664 8.182c-.299-1.246.231-2.517 1.636-2.517 2.796 0 2.935 4.491 6.464.858.143-.147.281-.29.415-.414 5.865-5.41 7.743-7.775 9.339-6.583.44.329.658.992.556 1.69-.017.119-.053.236-.085.354l-.364-.364.204-.204a.25.25 0 1 0-.354-.354l-.204.204-.2-.2a.25.25 0 1 0-.354.354l.2.2-.839.839c-.024.012-.052.01-.072.03s-.018.048-.03.072l-.388.388a.25.25 0 1 0 .354.354l.262-.262.211.21-.032.032a.25.25 0 1 0 .354.354l.033-.033.28.28c-.196.319-.409.625-.614.938l-.63-.63.034-.034c.232-.232-.119-.588-.354-.354l-.16.16c-.024.012-.052.01-.072.03s-.018.048-.03.072l-2.239 2.239-.1-.1a.25.25 0 1 0-.354.353l.1.1-.973.973c-.085-.025-.175-.021-.242.046s-.071.158-.046.242l-.339.339a.25.25 0 1 0 .354.354l.306-.306 1.167 1.167c-.291.325-.578.653-.88.968l-.396-.396.389-.389a.25.25 0 1 0-.354-.354l-.389.389-.597-.597a.25.25 0 1 0-.354.354l.597.597L34.45 46.5l-.931-.931c-.037-.037-.086-.047-.135-.056l.688-.688a.25.25 0 1 0-.353-.354l-2.155 2.155c-.024.012-.052.01-.072.03s-.018.048-.03.072l-.943.943-.513-.513a.25.25 0 1 0-.354.354l.513.513-1.068 1.068c-1.756-.896-4.014-4.261-4.33-5.571zm17.657-5.147-.198-.198.645-.645c-.13.289-.285.569-.447.843zm.161-1.264-.713.712-.211-.211.713-.713zm-1.9 3.916-.195-.194.713-.712.055.055c-.192.283-.374.572-.573.851zm-1.21 1.589-.384-.384 1.047-1.046.242.243c-.295.401-.596.798-.905 1.187zm-1.183 1.408-1.145-1.145.941-.941.295.294-.2.2a.25.25 0 1 0 .353.354l.2-.2.432.432c-.28.345-.583.671-.876 1.006zm2.263-4.552.295.295-.712.712-.295-.295zm-1.066 1.066.295.295-1.047 1.047-.295-.294zM33.07 47.88l-1.026-1.026 1.066-1.066c.009.048.019.097.056.135l.931.931zm-1.075 1.076c-.039.039-.051.091-.059.142-.004-.005-.002-.013-.007-.018l-1.055-1.055.817-.817 1.026 1.026zm-1.935.483c-.161-.03-.314-.083-.467-.135l.926-.926 1.02 1.02a3.649 3.649 0 0 1-1.479.041zm5.256-2.331c-.968.889-1.849 1.515-2.673 1.907l.476-.476c.004 0 .008.005.012.005a.24.24 0 0 0 .245-.261l1.075-1.075.167.167a.25.25 0 0 0 .354-.354l-.167-.167 1.528-1.528.394.394c-.464.469-.924.941-1.411 1.388z" fill="#000000" data-original="#000000" class=""></path></g></svg>