<svg xmlns="http://www.w3.org/2000/svg" version="1.1" xmlns:xlink="http://www.w3.org/1999/xlink" xmlns:svgjs="http://svgjs.com/svgjs" width="512" height="512" x="0" y="0" viewBox="0 0 70 70" style="enable-background:new 0 0 512 512" xml:space="preserve" class=""><g><path d="M7.543 62.738C7.978 64.464 9.31 66 10.93 66.683c1.342.565 2.837.609 4.293.64 12.38.26 12.994-.528 19.57-.964 3.631-.241 7.432-.171 10.803-1.385.704-.05 2.447-.316 2.63-.366 1.406.595 2.978.634 4.524.634 2.644 0 5.915-.248 8.848-1.73 1.823-.912 1.098-1.932 1.058-2.996-.222-1.596-.154-1.354-.24-1.559-.387-1.361-2.792-1.632-4.2-1.708 2.017-.963 1.455-1.47 1.118-4.469a.749.749 0 0 0-.075-.25c-.253-.764-1.195-1.277-2.82-1.523-1.72-.262-3.778-.177-5.518.041-1.82-7.053-3.518-14.284-6.718-20.245-3.819-7.12-6.683-8.825-7.961-10.57.034-.028.071-.06.108-.094.36.268.52.388 1.387.818.15.1 2.4 1.004 2.944 2.716a.75.75 0 0 0 1.43-.455c-.846-2.658-3.835-3.49-4.915-4.315 1.727.11 3.444-.268 4.954.026 1.034.201 1.862.741 2.216 1.445.291.58.307 1.299.324 2.062.038 1.837.154 2.663 1.852 5.273.585.9 1.138 1.75 1.417 2.684a.75.75 0 0 0 1.438-.43c-.686-2.295-2.76-4.152-3.116-6.22-.212-1.228.107-2.686-.575-4.043-.57-1.133-1.762-1.95-3.27-2.244-2.266-.439-4.742.378-6.654-.35 1.237-2.468 4.62-2.638 7.192-7.095.166-.289.09-.545.018-.907-.306-1.482-2.513-2.136-2.66-3.046-.09-.562.36-1.41-.112-2.303-1.002-1.89-5.34-1.492-6.317 1.843-1.153-.899-2.598-1.195-4.048-1.307-3.552-.27-5.017.757-7.323 3.254-.854.925-.825 1.045-2.152 1.1-1.34.056-2.11.243-2.876 1.345-.07.103-.178.258-.157.275-.122-.008-1.708-.567-2.931-.11-1.357.036-1.932 1.68-.69 3.022.6.648 2.379 1.745 3.483 2.094.809.256 1.63.482 2.414.81 1.652.688 2.592 1.875 2.594 1.975.003.12-1.275 1.102-1.063 2.606.077.547.64 1.417.132 1.819C14.9 27.531 10.079 34.006 8.6 42.08c-.898 4.907.205 10.685-.147 13.288-.304 2.247-2.03 4.862-.91 7.37zM35.245 19.11c-.286.232-.481.404-.875.627-.957.539-3.36.873-4.448 1.002-1.798.217-3.745.28-5.94.195-.454-.025-.533-.103-.574-.18-.15-.278.005-.853.415-1.538.086-.146.14-.28.192-.413a.766.766 0 0 1 .083-.18v-.002c.016-.021.056-.072.095-.079h.01c.223 0 1.414 1.365 4.4 1.025 2.394-.267 5.465-1.7 6.642-.457zm2.446 43.504c-.077-.243-.103-1.07-.106-1.3 1.184.686 2.493.85 3.675.9 1.958.094 3.748.002 5.46-.257.002.415.023.953.109 1.357-2.188.319-5.807.402-7.704-.107-.425-.11-.801-.25-1.434-.593zm20.367-8.048.118.855c.008.055.016.103.038.086-.09.113-.279.218-.433.296-2.251 1.132-4.947 1.607-8.753 1.566-1.183-.072-2.368.032-3.883-.759-.05-.262-.057-.707-.063-.807 2.307 1.2 9.19.902 12.976-1.237zm-13.87 3.209c1.125.823 2.979 1.042 4.356 1.084-.719.344-1.527.824-1.773 1.571-1.694.278-3.478.379-5.443.287-1.203-.054-2.44-.224-3.447-1.017 1.697-1.22 6.042-1.83 6.307-1.925zm17.169 4.103a.002.002 0 0 1-.002.002c-.086.11-.265.208-.43.292-2.87 1.45-6.19 1.596-8.759 1.566-2.163 0-2.97-.324-3.88-.761a8.47 8.47 0 0 1-.066-.808c2.49 1.289 9.29.845 12.978-1.232l.12.847c.009.057.018.105.045.087l.582.473zm-.497-2.575c-.221.291-.684.47-.982.613-2.126.97-4.958 1.598-8.619 1.435-1.1-.058-2.005-.224-2.75-.765 2.544-1.787 10.558-2.46 12.351-1.283zm-3.12-6.406c-.177.258-.467.402-1.001.643-2.181.987-5.109 1.603-8.63 1.437-.957-.045-1.937-.18-2.738-.76 2.562-1.818 10.675-2.44 12.37-1.32zM42.88 31.512c3.123 5.82 4.746 12.78 6.55 19.768-2.797.52-6.071 1.606-5.867 3.358a.77.77 0 0 0 .051.193c-.068.457-.037 1.086 0 1.545-3.025.491-7.799 1.611-7.544 3.696a.74.74 0 0 0 .075.317c-.1.659-.097 2.334.215 2.927.184.406.546.584.792.704.31.176.648.317.995.442-1.798.118-3.194.167-11.596.535-2.658.112-5.2-.082-7.896-.266-.898-2.404-.007-3.993.22-5.383.29-1.752-.205-3.464-.642-4.975a.75.75 0 0 0-1.441.416c.393 1.359.837 2.897.603 4.315-.205 1.25-1.095 2.9-.317 5.603-1.572.043-2.915.197-4.353-.226-4.036-1.186-4.151-2.595-2.821-6.397.922-2.632 1.033-3.699.754-7.795-.071-1.042-.138-2.026-.125-2.997.106-6.697 3.2-13.542 8.712-19.273 1.76-1.83 3.796-3.588 5.394-5.572 1.021.025 1.941.063 3.994-.09a9.388 9.388 0 0 1 1.138 3.743.75.75 0 0 0 1.495-.125 10.897 10.897 0 0 0-1.037-3.766c1.33-.164 3.598-.484 4.781-1.119 1.56 2.152 4.092 3.386 7.87 10.422zM16.778 11.67c.189.052.444.122.753.082.76-.106 1.078-.768 1.35-1.106.539-.672 1.478-.394 2.57-.597.289.164.666.09 1.19.78.732.963.609 1.845 1.42 1.845a.75.75 0 0 0 .688-1.048c-.426-.987-.813-1.824-1.685-2.455 2.372-2.484 3.176-3.658 6.675-3.384 1.606.124 3.33.524 4.043 1.964.549 1.07.657 2.389.287 3.532a.75.75 0 0 0 1.428.461 6.167 6.167 0 0 0-.17-4.214c-.003-.101-.422-1.328.506-2.445 1.005-1.205 2.822-1.08 3.06-.629.155.294-.165 1.082-.041 1.842.277 1.72 2.511 2.325 2.688 3.191-2.577 4.215-6.337 4.18-7.38 7.66-2.982-.27-6.328 2.153-8.948.233a1.704 1.704 0 0 0-.948-.337c-2.518-3.407-5.601-3.264-8.52-4.694-.233-.114-.942-.457-1.004-.659.15-.243.908-.334 2.038-.022z" fill="#000000" data-original="#000000" class=""></path><path d="M31.334 35.213c.012-.736.007-1.477.021-2.211a.751.751 0 0 0-.734-.766c-.393.016-.757.32-.766.735-.015.737-.01 1.483-.02 2.223-2.498.264-4.386 1.872-4.923 3.335-.273.746-.246 1.54.072 2.18.813 1.633 2.986 1.964 4.776 2.306.002 1.992.043 3.975.071 5.962-1.204-.177-2.897-.784-3.338-1.918a.754.754 0 0 0-.971-.427c-1.33.517.337 3.399 4.327 3.863.015.867.012 1.74.031 2.604a.75.75 0 0 0 .75.732h.017a.75.75 0 0 0 .733-.767c-.019-.85-.016-1.71-.03-2.563 3.673-.33 5.74-3.215 5.235-5.302-.274-1.14-1.438-2.378-2.594-2.758-.899-.297-1.817-.492-2.719-.664.003-1.69.027-3.373.048-5.059h.008c1.514.271 2.89 1.307 3.59 2.702a.75.75 0 1 0 1.34-.672c-.895-1.785-2.715-3.24-4.924-3.535zm-5.014 3.833c.33-.898 1.676-2.09 3.5-2.345-.02 1.595-.042 3.189-.045 4.789-1.757-.345-4.073-.754-3.455-2.444zm8.807 6.505c.273 1.128-1.111 3.161-3.795 3.453-.027-1.898-.065-3.792-.069-5.695.773.152 1.528.315 2.259.555.645.213 1.455 1.065 1.605 1.687z" fill="#000000" data-original="#000000" class=""></path></g></svg>