<svg xmlns="http://www.w3.org/2000/svg" version="1.1" xmlns:xlink="http://www.w3.org/1999/xlink" xmlns:svgjs="http://svgjs.com/svgjs" width="512" height="512" x="0" y="0" viewBox="0 0 66 66" style="enable-background:new 0 0 512 512" xml:space="preserve" class=""><g><path d="M54.753 15.506a.499.499 0 0 0-.476-.539c-5.49-.249-19.769-5.163-20.849-6.803-.185-.279-.671-.279-.856 0-1.08 1.64-15.359 6.554-20.849 6.803a.5.5 0 0 0-.476.539c.644 7.958 1.716 16.396 5.165 24.191 3.663 8.28 9.475 14.714 16.367 18.118a.505.505 0 0 0 .442 0c6.892-3.404 12.704-9.839 16.367-18.118 3.448-7.793 4.52-16.232 5.165-24.191zM48.72 39.18h-.386v-2.13h1.215v.071a47.06 47.06 0 0 1-.829 2.059zm-1.22 2.545c-.033-.017-.062-.042-.102-.042h-.599V39.68h1.034v.132a.25.25 0 0 0 .5 0v-.132h.161a43.945 43.945 0 0 1-.994 2.045zm-1.491 2.634h-1.376v-2.177h1.666v1.702c-.095.16-.193.318-.29.475zm-1.795 2.671c-.02-.005-.033-.023-.055-.023H41.88V44.86h2.253v1.504a.25.25 0 0 0 .5 0V44.86h1.07a38.763 38.763 0 0 1-1.489 2.17zm-5.194 5.688c-.037-.022-.072-.049-.119-.049h-1.669v-2.162h1.936v2.077l-.148.134zm-3.359 2.547h-.956v-2.096h2.027v1.364c-.352.253-.71.496-1.071.732zm-.799.5-.156.095v-.095zm15.799-21.87h-.613v-1.861h.944v.708c-.108.385-.214.77-.331 1.153zM39.669 44.859h1.711v2.147h-1.711zm-.5 2.148h-1.936V44.86h1.936zm.5-2.648v-2.177h1.711v2.177zm2.211-2.176h2.253v2.177H41.88zm0-.5V39.68h2.253v2.003zm2.753-2.003h1.666v2.003h-1.666zm0-.5v-2.13h1.666v2.13zm2.166-2.13h1.034v2.13h-1.034zm0-.5v-2.154h1.034v2.154zm1.534-2.155h1.215v2.154h-1.215zm.496-2.361h.719v1.861h-1.215V32.53zm1.219 3.718v-1.357h.448c-.143.454-.291.907-.448 1.357zm.413-5.35h.531v1.132h-.944v-.719zm1.031 0h.117c-.038.161-.078.321-.117.482zm.226-.5h-.226v-.531l.436-.436c-.069.323-.137.646-.21.967zm-.726 0h-.031l.031-.031zm-1.444 1.632h-.219l.219-.219zm-1.715 2.361h-.865l.865-.865zm-1.534.669v1.986h-1.666v-.213c0-.029-.022-.049-.031-.075zm-2.485 2.486h.319v2.13H41.88v-.196zm-2.63 2.63h.196v2.003h-1.711v-.428c0-.017-.015-.027-.018-.043zm-2.503 2.503h.488v2.177h-1.936v-.73zm-1.948 2.176h-.229l.229-.229zm-.729.5h.729v2.147h-2.027v-.696c0-.042-.026-.073-.044-.107zm-1.299 5.648h2.027v2.162h-2.027zm-.5 2.162h-2.117v-2.162h2.117zm.5-2.662v-2.5h2.027v2.5zm-.5-3h-.349l.349-.349zm-.849.5h.849v2.5h-2.117v-1.232zm-1.768 2.5h-.732l.732-.732zm-1.232.5h1.232v2.162h-1.711v-1.683zm-.979 2.162h-1.183l1.183-1.183zm-1.683.5h1.683v1.446a30.589 30.589 0 0 1-1.765-1.364zm2.645 2.096c-.155-.101-.308-.206-.462-.311v-1.785h1.711v2.096zm1.249.5v.272c-.151-.088-.3-.181-.449-.272zm.5-2.596h2.117v2.096h-2.117zm5.145 0h1.255c-.412.344-.83.673-1.255.992zm0-3.162v-2.5h1.936v2.5zm2.436-2.5h1.711v2.5h-1.711zm2.211 2.397v-2.397h1.986a36.185 36.185 0 0 1-1.986 2.397zm4.919-7.721h.467c-.151.283-.31.558-.467.836zm-25.878 3.619c.009-.026.031-.045.031-.074v-1.54h2.372v.582l-1.84 1.84a29.029 29.029 0 0 1-.563-.808zm28.732-30.138h-1.439v-.77c.492.122.973.236 1.439.34zm.5-.319c.575.123 1.121.229 1.637.319h-1.637zm-6.977 3.503v.607h-.423a.25.25 0 0 0 0 .5h.423v.322c0 .122.094.212.211.234v1.191H41.91v-2.924h1.295c-.008.025-.029.043-.029.07zm.711 1.107h.91a.25.25 0 0 0 0-.5h-.91v-.677H45.7v2.924h-1.813zm0-1.677v-2.114H45.7v2.114zm2.312-2.114h1.514v.629a.238.238 0 0 0-.185-.093.25.25 0 0 0-.25.25v1.163c0 .064.028.121.068.165h-1.147zm1.514 2.106v.008h-.003c.002-.002.001-.006.003-.008zm.5-2.106h1.439v2.114h-1.439zm-.5-.5h-1.514v-1.297c.511.141 1.017.275 1.514.402zm-2.014 0h-1.422l1.422-1.422zm-2.312.891v1.724H41.91v-.247zm-2.224 2.223h.247v2.924h-.244v-.589a.25.25 0 0 0-.5 0v.589H39.3v-1.061zm-1.348 4.105a.25.25 0 0 0 0 .5h1.596v1.667H39.3v-2.848h1.367v.681zm1.352 0v-.681h.244v.681zM38.8 21.702h-.561l.561-.561zm-1.061.5H38.8v2.848h-.817v-1.121a.25.25 0 0 0-.5 0v1.121h-.645v-1.81c0-.038-.025-.065-.04-.097zm1.061 6.233h-1.961v-1.012h1.652a.25.25 0 0 0 0-.5h-1.652V25.55h.68c.037.091.11.164.214.164.105 0 .177-.073.214-.164h.853zm-4.951 5.81h-1.97V32.81c.328 0 .718.065.718-.25a.25.25 0 0 0-.25-.25h-.468v-.412h2.11v2.206zm-4.135-1.435h1.665v1.435h-2.036v-2.347h2.036v.412h-1.665a.25.25 0 0 0 0 .5zm2.165-1.412v-2.463h.34v2.17a.25.25 0 0 0 .5 0v-2.17h1.27v2.463zm2.61-2.463h1.85v2.429c0 .013.012.021.014.034h-1.864zm0-.5V25.55h1.85v1.374h-.809a.25.25 0 0 0 0 .5h.809v1.012h-1.85zm1.85-3.385h-1.447l1.447-1.447zm-2.35 3.385h-2.11v-.373l2.11-2.11zm-2.983.5h.373v2.463h-2.036v-.8zm-2.163 2.463h-.3l.3-.3zm-.8.5h.8v2.347H26.36v-.663zm.8 3.351H27.51a.25.25 0 0 0 0 .5h1.333v1.959H26.36v-2.963h2.483zm-2.984-1.004h-.163l.163-.163zm-.663.5h.663v2.963h-.854v-1.291a.25.25 0 0 0-.5 0v1.291h-.682v-1.004a.25.25 0 0 0-.25-.25.242.242 0 0 0-.147.061zm-3.992 8.261a.25.25 0 0 0 .25-.25v-1.2h.499c.045.042.103.07.169.07h1.2v2.063H20.95v-2.133h.003v1.2c.001.137.113.25.251.25zm2.939-4.38h.362v1.281a.25.25 0 0 0 .5 0v-1.281h.67a.242.242 0 0 0 .185-.092v2.522h-2.036v-2.848h.139a.251.251 0 0 0-.07.168c0 .138.112.25.25.25zm1.716-.408-.004-.01h.004zm-2.536-1.514v1.004h-1.09l1.151-1.151a.242.242 0 0 0-.061.147zm-1.59 1.504h1.59v2.848h-1.869v-.353a.25.25 0 0 0-.5 0v.353h-.003v-1.891c0-.048-.028-.086-.051-.124zm-1.282 2.848h-1.566l1.566-1.566zm0 .5v2.133h-.87a42.27 42.27 0 0 1-1.167-2.133zm0 2.632v.909a37.553 37.553 0 0 1-.565-.909zm3.372 0h.082l-.082.082zm.568-.486c-.132-.02-.435-.014-.569-.014v-2.133h2.036v.679zm1.968-2.146h.179l-.179.179zm.679-.5h-.679v-2.848h2.483c0 .153-.018.878.036 1.007zm2.305-2.848h.543l-.543.543zm1.041-.498c-.087-.003-.954-.002-1.041-.002v-2.963h2.036v1.97zm1.495-2.965h1.47l-1.47 1.47zm2.61-1.14v-1.707h1.707zm2.35-2.35v-2.32H38.8v.359zM39.3 25.55h2.11v1.134l-2.11 2.11zm2.61 0h.634l-.634.634zm1.134-.5H41.91v-1.667h.139a.25.25 0 0 0 0-.5h-.139v-.681h1.477v1.938c0 .168.161.317.364.203zm.843-2.848H45.7v.193l-1.86 1.859c.073-.13.047-1.902.047-2.052zm2.505-.5h-.193v-2.924h1.514v1.33c0 .075.037.137.089.183zm1.821-2.924h1.103l-1.103 1.103zm1.94-.836v-1.778h1.778zM34.607 10.16v.006h-1.553v-.977c.367.3.897.628 1.553.971zm.001 3.746-1.554 1.554v-2.095h1.553v.538l.001.003zm.499-.541h.041l-.041.042zM14.409 30.486h.744v1.435a.25.25 0 0 0 .5 0v-1.435h1.662v.547c0 .045.027.08.048.116l-2.194 2.194a59.83 59.83 0 0 1-.76-2.857zm15.957-19.82h2.188v2.199h-2.742v-1.948c.19-.084.374-.168.554-.251zm-1.055 2.199h-2.418v-.774c.859-.319 1.674-.64 2.418-.957zm-5.228 3.913h2.31v3.112h-2.31zm-.5 3.113h-2.58v-3.112h2.58zm.5-3.613v-2.773l.14-.14h2.17v2.913zm2.81-2.913h2.418v2.913h-2.418zm-.5-.5h-1.688a80.14 80.14 0 0 0 1.688-.59zm-2.81 1.14v2.273H21.31zm-3.08 3.08v2.805h-2.688v-.117zm-4.849 9.857v-3.358h1.662v3.358zm1.661.5v2.544h-1.662v-2.544zm.5-3.858h2.688v3.358h-2.688zm0-.5v-2.693h2.688v2.693zm-.617-2.693h.117v2.693h-1.662v-.861a.24.24 0 0 0-.1-.188zm-2.044 2.693h-.649l.649-.649zm-1.149.5h1.149v3.358h-1.482a81.787 81.787 0 0 1-.44-2.612c.027-.018.056-.03.08-.053zm1.149 3.858v2.544h-.853a68.121 68.121 0 0 1-.542-2.544zm2.661 3.044h.212l-.212.212zm.712-.5h-.712v-2.544h2.688v.238c0 .091.057.156.129.2zm2.476-2.544h.068l-.068.067zm.528-.46c-.032-.015-.059-.04-.097-.04h-.431v-3.358h1.803a.25.25 0 0 0 0-.5h-1.803v-2.693h2.58v4.539zm2.552-6.591h2.31v1.729l-2.31 2.31zm2.81 0h.6a.25.25 0 0 0 0-.5h-.6v-3.112h2.418v2.424l-2.418 2.418zm2.918-3.613h1.924l-1.924 1.924zm2.269-.344c-.039-.086-.11-.155-.211-.155h-2.058v-2.913h2.742V15.9c0 .016.014.026.017.042zm.973-3.569v-2.199h1.553v2.199zm-.5-3.387v.688h-1.17c.455-.238.848-.468 1.17-.688zm-9.912 4.056-9.579 9.579c-.331-2.413-.58-4.819-.777-7.183 2.432-.214 6.458-1.185 10.356-2.396zm-7.13 20.882L37.587 12.34a.5.5 0 0 0-.707-.707l-1.472 1.472a.249.249 0 0 0-.246-.241h-.055v-2.199h.528c2.34 1.087 5.678 2.273 8.979 3.248L17.931 40.596a40.844 40.844 0 0 1-.605-1.303c-.707-1.598-1.294-3.23-1.815-4.877zm6.566 13.015 31.466-31.465c.015-.015.021-.034.034-.051.045.004.094.011.139.014-.307 3.686-.722 7.469-1.425 11.232l-.007.004L26.849 52.6a34.873 34.873 0 0 1-4.772-5.169zM33 56.809a26.283 26.283 0 0 1-.948-.51c.012-.029.036-.053.036-.087v-.447h2.117v.396c-.397.226-.799.442-1.205.648zm6.669-4.674v-1.628h1.648a33.248 33.248 0 0 1-1.648 1.628z" fill="#000000" data-original="#000000" class=""></path><path d="M33.419 1.218c-.185-.281-.652-.281-.838 0-1.587 2.408-20.163 8.486-26.859 8.79a.494.494 0 0 0-.475.539c.826 10.198 2.199 21.01 6.614 30.99 5.151 11.644 11.845 19.302 20.464 23.407a.498.498 0 0 0 .43 0c9.013-4.293 16.608-12.606 21.386-23.407 4.416-9.979 5.788-20.792 6.614-30.99a.5.5 0 0 0-.477-.539c-6.696-.304-25.272-6.382-26.859-8.79zm-.88 62.72c-.257-.125-.507-.263-.761-.395.185.007 1.057-.94 1.188-1.071l.82.82c-.413.222-.827.443-1.247.646zm1.846-2.884 1.207 1.207c-.444.272-.892.535-1.345.786l-.928-.928zm1.775-1.775 1.02 1.02-1.421 1.421-1.02-1.02zm5.758-1.87a41.45 41.45 0 0 1-1.389 1.244.235.235 0 0 0-.061-.207l-.365-.365 1.243-1.243zM40.115 58.8a.246.246 0 0 0 .169.07 39.378 39.378 0 0 1-2.15 1.677l-.247-.247 1.864-1.864zm-2.39 2.044a36.25 36.25 0 0 1-1.2.817l1.008-1.008zm4.553-3.782-.578-.578a.248.248 0 0 0-.351-.351l-.587-.587a.25.25 0 1 0-.354.354l.586.586-1.243 1.243-.675-.675a.25.25 0 1 0-.354.354l.675.675-1.864 1.864-1.02-1.02.733-.733a.25.25 0 1 0-.354-.353l-.885.885c-.01.008-.025.005-.034.014s-.007.024-.014.034l-1.606 1.606c-.085-.025-.176-.021-.243.046s-.071.158-.046.243l-1.098 1.098-.277-.277a.25.25 0 1 0-.354.354l.277.277-1.002 1.002a.245.245 0 0 0-.009.331c-7.84-4.124-14.011-11.433-18.828-22.32-4.282-9.681-5.666-20.199-6.49-30.16C12.836 10.435 29.709 5.126 33 2.225c3.291 2.901 20.163 8.21 26.715 8.748l-.068.792-.148-.148a.25.25 0 1 0-.354.353l.355.356-.933.933a.25.25 0 0 0 0 .354c.276.276.696-.342.973-.619-.034.381-.071.763-.108 1.144-.228-.228-.452-.544-.675-.321-.243.242.337.776.616.936-.019.193-.041.388-.061.581-.166-.47-.588.095-.924.431-.18-.03-.302.091-.272.272-.229.229-.57.466-.341.695a.249.249 0 0 0 .177.073c.153 0 .357-.254.477-.374.106.106.554.59.697.632l-.089.761c-.166.003-1.564 1.462-1.681 1.58a.249.249 0 0 0 0 .353.249.249 0 0 0 .353 0l.503-.503c.1.1.459.476.578.544-.03.227-.058.454-.09.681l-1.373 1.374c-.044.01-.089.017-.123.051s-.041.08-.051.123l-.076.076a.25.25 0 0 0 0 .354c.085.085.216.107.334.008.115.115.713.768.872.768l-.026.157-1.095 1.096c-.188-.188-.345-.383-.541-.187-.197.197 0 .353.187.541l-.708.71a.25.25 0 1 0 .354.353l.709-.709.661.661c-.071.374-.147.747-.223 1.12-.125.065-1.157 1.118-1.26 1.221-.246-.246-.519-.637-.755-.401a.25.25 0 0 0 0 .354l.401.401-1.75 1.75a.25.25 0 1 0 .354.354l1.75-1.75.688.688c-.22.932-.458 1.861-.714 2.786l-1.476-1.476a.25.25 0 1 0-.354.353l.865.865-1.579 1.579a.25.25 0 1 0 .354.354l1.579-1.579.455.455a69.496 69.496 0 0 1-.853 2.792c-.093-.121-1.653-1.669-1.761-1.777a.25.25 0 1 0-.354.354l1.062 1.061-1.167 1.167-.059-.059a.25.25 0 1 0-.354.353l.059.059-.684.684a.25.25 0 1 0 .354.354l.684-.684 1.232 1.232-.064.168c-.055-.232-.284-.243-.404-.123l-1.428 1.428c-.202-.202-.382-.443-.589-.236-.208.208.033.387.236.589l-2.161 2.161a.25.25 0 1 0 .354.354l2.161-2.161c.111.111.577.626.732.643a55.64 55.64 0 0 1-1.248 2.6l-1.144-1.145a.25.25 0 1 0-.354.354c.105.105 1.137 1.173 1.279 1.217a53.803 53.803 0 0 1-1.075 1.97l-.845-.845.682-.683a.25.25 0 1 0-.354-.354l-.682.683c-.338-.338-.697.01-.354.354l-1.59 1.59c-.082-.02-.169-.014-.233.05s-.07.151-.05.233l-.633.633a.25.25 0 0 0 0 .354c.273.273.677-.324.951-.598l.927.927-1.426 1.426-.71-.71a.25.25 0 1 0-.354.354l.71.71-1.717 1.717c-.255-.255-.561-.694-.804-.451a.249.249 0 0 0 0 .353l.451.451-1.406 1.406-.287-.287a.25.25 0 1 0-.354.354l.287.287c-.249.249-.65.528-.412.765a.25.25 0 0 0 .354 0l.412-.412.776.776a43.916 43.916 0 0 1-1.674 1.695zm15.655-31.805-.417-.417.603-.604c-.058.341-.124.681-.186 1.021zm-.772 3.757-.466-.466.734-.734c-.085.401-.177.8-.268 1.2zm1.207-6.298-.598-.598.81-.81c-.068.469-.138.938-.212 1.408zm.5-3.512-.302-.302.392-.392c-.028.231-.06.462-.09.694zm.324-2.717-.409-.409c.102-.102.433-.42.507-.534-.032.314-.063.628-.098.943zm-4.677 21.464-1.074-1.074 1.167-1.167c.119.119.356.406.51.406.022 0 .039-.019.06-.025a65.279 65.279 0 0 1-.663 1.86zm-6.791 12.817-.363-.363 1.446-1.446c.148.077.09.039.142.032a49.333 49.333 0 0 1-1.225 1.777zm-1.797 2.344-.636-.636 1.717-1.717.418.418a49.214 49.214 0 0 1-1.499 1.935zm-1.629 1.89-.766-.766 1.406-1.406.672.672a47.548 47.548 0 0 1-1.312 1.5zm4.823-6.357c.176-.176.354-.326.163-.517-.186-.186-.33-.024-.497.143l-.927-.927 1.555-1.555c.1.1.834.851.956.923a50.545 50.545 0 0 1-1.228 1.987c-.003-.018-.012-.035-.022-.054zm4.222-7.789-.567-.566 1.367-1.367a60.567 60.567 0 0 1-.8 1.933z" fill="#000000" data-original="#000000" class=""></path><path d="M45.263 16.639a.25.25 0 0 0-.25.25v.877a.25.25 0 0 0 .5 0v-.877a.25.25 0 0 0-.25-.25z" fill="#000000" data-original="#000000" class=""></path></g></svg>