<svg xmlns="http://www.w3.org/2000/svg" version="1.1" xmlns:xlink="http://www.w3.org/1999/xlink" xmlns:svgjs="http://svgjs.com/svgjs" x="0" y="0" viewBox="0 0 52 52" style="enable-background:new 0 0 512 512" xml:space="preserve" class=""><g><path d="M32.188 44.027c.496-1.277.691-2.675.805-4.061.12-1.384.185-2.79.55-4.122.321-1.352 1.08-2.512 2.055-3.689.953-1.176 2.106-2.349 2.943-3.898.817-1.557 1.21-3.354 1.151-5.139-.116-3.572-1.588-7.134-4.14-9.906-.639-.694-1.368-1.3-2.139-1.841-.408-.233-.802-.514-1.222-.7l-1.253-.57a15.93 15.93 0 0 0-5.267-1.04 14.74 14.74 0 0 0-5.118.75c-1.606.537-3.128 1.271-4.407 2.282-1.275 1.003-2.398 2.155-3.22 3.463-.814 1.308-1.43 2.683-1.772 4.092-.74 2.836-.147 5.678.927 7.829 1.066 2.187 2.472 3.859 3.713 5.259 1.271 1.314 1.828 2.777 2.185 4.018.345 1.241.481 2.25.595 2.929.107.68.175 1.04.225 1.037.044-.003.07-.319.063-.894.685.534 3.258 1.544 6.544 1.617 2.974.088 5.408-.622 6.371-1.126-.04.517-.09 1.025-.168 1.51-.375-.154-1.234.001-2.215.172-1.175.221-2.192.401-2.248.798-.064.382 1.074.868 2.503.606.811-.146 1.44-.484 1.806-.81a8.888 8.888 0 0 1-.297 1.043c-.057.15-.127.29-.191.434-.404.183-.894.464-1.38.699-.484.219-.942.333-1.297.394-.355.067-.65.076-.76.246-.106.153.052.51.573.745.288.134.676.189 1.092.158-1.79 1.198-4.008 1.193-5.686.743-.855-.232-1.63-.573-2.236-1.002-.616-.426-1.045-.973-1.355-1.51-.605-1.097-.747-2.126-.884-2.79-.12-.676-.183-1.037-.235-1.033-.046.003-.08.368-.05 1.066.05.688.09 1.753.677 3.012.3.617.76 1.276 1.436 1.798.453.354.993.633 1.567.88-.032.256-.005.6.16 1.013.342.876 1.446 1.947 3.038 1.949 1.554-.033 2.643-1.021 3.074-1.794.268-.464.35-.842.346-1.102.246-.116.491-.244.727-.402 1.107-.674 1.922-1.863 2.414-3.113zm-9.548-4.189c.13-1.117.24-2.716.268-4.291a25.979 25.979 0 0 0-.184-3.885l-.225-2.238a5.032 5.032 0 0 1-.004-.669c.746-.354 1.138-.6 1.582-.843.227-.124.53-.307.759-.479.957-.71 1.667-1.473 2.464-1.753.767-.294 1.747-.181 2.33.26.13.094.234.212.329.336a1.92 1.92 0 0 0-.855-.145c-.598-.046-1.263.296-1.63.775-.39.47-.6 1.172-.416 1.84.176.634.627 1.212 1.351 1.444.46.132.888.062 1.261-.08-.13.485-.278.96-.442 1.412-.236.646-.525 1.293-.708 1.944-.478 1.626-.557 3.223-.322 4.842.11.71.237 1.26.352 1.661-2.014.11-3.804.08-5.91-.13zM21.32 27.725c-.88.357-1.809.443-2.591.201-.18-.06-.33-.138-.44-.231a1.548 1.548 0 0 1-.324-.393c-.514-.918.118-2.32 1.11-2.719.661-.288 1.303-.111 1.759.423.466.535.617 1.245.604 2.028-.002.212-.012.429-.025.65-.03.012-.062.029-.093.04zm7.46 1.203c-.191-.044-.412-.273-.48-.52-.073-.228-.012-.499.158-.723.181-.22.382-.352.66-.334.354-.028.522.073.648.209.123.126.182.414.19.719-.347.435-.922.758-1.175.65zm.09 11.023c-.035-.414-.084-.978-.118-1.693-.058-1.544.094-2.992.633-4.512.197-.582.496-1.169.783-1.854.37-.892.711-1.85.87-2.809.176-.226.328-.476.436-.75.51-1.193.077-2.723-1.002-3.51-1.083-.789-2.436-.902-3.659-.476-1.232.462-2.014 1.367-2.814 1.93-.346.254-.509.324-1.322.786l-.059.031.003-.032c.05-.88-.108-2.007-.825-2.861-.346-.425-.837-.796-1.435-.96-.598-.168-1.237-.096-1.785.125-1.117.448-1.915 1.503-2.12 2.709a2.949 2.949 0 0 0 .297 1.892c.157.302.385.557.63.783.277.24.594.397.9.501 1.034.338 2.121.246 3.1-.06.007.113.007.226.02.34l.317 2.22c.238 1.407.347 2.68.391 3.81l.104 2.9c.015.53.03.972.049 1.339-1.704-.184-2.965-.402-3.41-.323-.063-1.711-.33-3.424-1.008-4.995-.32-.758-.833-1.553-1.445-2.265-1.169-1.428-2.467-3.097-3.405-5.167-.943-2.048-1.403-4.57-.694-7.114.333-1.27.921-2.52 1.673-3.69.762-1.177 1.797-2.203 2.962-3.102 1.17-.905 2.565-1.557 4.031-2.036a13.472 13.472 0 0 1 4.67-.649c3.18.122 6.61 1.197 8.876 3.73 2.3 2.487 3.67 5.787 3.782 8.964.061 1.59-.279 3.136-.957 4.464-1.031 1.97-2.95 3.585-4.132 5.68a8.617 8.617 0 0 0-.878 2.23c-.378 1.487-.419 2.928-.51 4.265-.54-.03-1.593.077-2.95.159zm-.957 8.065c-.52.467-1.36.983-2.3.994-.91.011-1.733-.536-2.15-1.028-.044-.05-.073-.095-.11-.144 1.583.474 3.122.515 4.65.094-.032.029-.056.055-.09.084zM7.418 33.517c-1.084.772-1.871 1.578-1.678 1.925.19.342 1.35.06 2.504-.76 1.156-.819 1.805-1.82 1.545-2.112-.264-.297-1.284.18-2.371.947zM5.953 23.613c1.32.14 2.44-.061 2.5-.45s-.99-.824-2.349-.97c-1.358-.144-2.478.058-2.5.452-.024.393 1.028.827 2.349.968zM6.888 14.707c.774.545 1.553.845 1.826.557.272-.282-.133-1.108-1-1.722-.866-.615-1.78-.723-1.957-.375-.18.354.36.99 1.131 1.54zM16.393 8.196c.322-.227.01-1.224-.695-2.227s-1.54-1.632-1.863-1.405c-.322.227-.01 1.224.696 2.227s1.54 1.632 1.862 1.405zM22.813 1.563c-.394 0-.713.026-.713.058s.32.058.713.058.714-.026.714-.058-.32-.059-.714-.059zM25.686 4.137c.04-1.302-.112-2.397-.505-2.459-.385-.062-.878 1.012-.921 2.413-.046 1.401.377 2.505.766 2.467.396-.037.616-1.12.66-2.421zM36.61 7.234c1.123-1.162 1.704-2.379 1.4-2.626-.307-.25-1.35.521-2.427 1.636-1.074 1.118-1.806 2.19-1.544 2.487.258.294 1.452-.333 2.572-1.497zM40.687 15.697c.162.36 1.641.045 3.305-.703 1.664-.747 2.882-1.645 2.72-2.004-.161-.36-1.641-.045-3.305.703s-2.881 1.644-2.72 2.004zM43.184 25.16c-.09.378 1.052.964 2.578 1.007 1.525.048 2.7-.47 2.633-.853-.065-.394-1.22-.528-2.591-.574-1.372-.035-2.532.03-2.62.42zM41.78 34.058c-.262.29.28 1.208 1.297 1.94 1.015.735 2.056.961 2.25.62.196-.344-.47-1.092-1.415-1.777-.948-.681-1.867-1.078-2.132-.783z" data-original="#000000" class=""></path><path d="M35.076 20.704c.616 1.263.866 2.139 1.077 2.107.178-.019.287-.981-.134-2.467-.408-1.47-1.45-3.448-3.297-4.984-1.846-1.535-3.98-2.2-5.5-2.334-1.538-.143-2.465.14-2.451.318.007.213.914.299 2.268.675 1.35.366 3.16 1.1 4.77 2.439 1.61 1.34 2.661 2.986 3.267 4.246z" data-original="#000000" class=""></path></g></svg>