<svg xmlns="http://www.w3.org/2000/svg" version="1.1" xmlns:xlink="http://www.w3.org/1999/xlink" xmlns:svgjs="http://svgjs.com/svgjs" x="0" y="0" viewBox="0 0 55 55" style="enable-background:new 0 0 512 512" xml:space="preserve" class=""><g><path d="M29.182 14.682c-1.15-.302-2.938-.484-5.052.025-2.083.5-4.538 1.716-6.386 3.972-1.896 2.161-3.161 5.3-3.174 8.642.008 3.342 1.2 6.46 2.988 8.705 1.765 2.283 4 3.74 5.995 4.512 2 .799 3.75.982 4.93.98 1.19-.014 1.828-.184 1.82-.272-.006-.108-.652-.128-1.781-.283-1.124-.164-2.751-.49-4.568-1.351a13.89 13.89 0 0 1-5.347-4.38c-1.572-2.081-2.6-4.905-2.61-7.907-.015-1.502.291-2.955.768-4.278a11.709 11.709 0 0 1 1.995-3.532c2.291-2.965 6.277-4.73 10.32-4.287 1.121.136 1.739.329 1.781.219.032-.071-.522-.447-1.68-.765z" data-original="#000000" class=""></path><path d="M9.738 20.314c-.382.927-.392 1.966-.529 2.73-.071.395-.183.752-.327.905-.128.162-.34.23-.707.247-.746.047-1.648-.31-2.873-.086-.626.105-1.298.67-1.514 1.231-.256.556-.335 1.092-.379 1.606-.073 1.03.034 1.997.17 2.934.145 1.026.593 2.148 1.655 2.816.52.337 1.238.42 1.75.344.525-.061.938-.169 1.26-.166.57-.027 1.087.444 1.524 1.112.704 1.076 1.138 2.46 1.658 3.46.16.328.225.552.185.785-.06.467-.674 1.026-1.292 1.557-.748.653-1.498 1.34-1.664 2.317-.144 1.142.393 2.034.943 2.708a6.214 6.214 0 0 0 2.053 1.58c.398.182.827.32 1.298.374.502.039.97-.066 1.403-.244.841-.399 1.375-1.022 1.866-1.492.245-.232.483-.436.707-.56.224-.112.423-.137.652-.108.424.077 1.083.528 1.697.804 1.233.602 2.494 1.054 3.739 1.312.311.063.62.12.928.159.321.042.492.074.674.174.331.167.51.59.633 1.111.13.51.228 1.077.48 1.616.238.505.544 1 1.036 1.352.506.356 1.076.417 1.538.443 1.841.052 2.17.065 2.53.054.408-.01.87-.136 1.18-.41.618-.55.752-1.247.815-1.787.043-.553.004-.996.003-1.353-.02-.71.07-1.074.02-1.091-.042-.018-.233.342-.307 1.078-.045.362-.054.815-.137 1.31-.088.477-.285 1.066-.738 1.407-.423.356-1.177.196-2.02.15-.81-.098-1.83-.002-2.415-.447-.298-.226-.542-.619-.726-1.055-.178-.412-.255-.913-.375-1.475a3.91 3.91 0 0 0-.287-.9 1.918 1.918 0 0 0-.747-.832c-.32-.204-.744-.278-1.011-.319a12.07 12.07 0 0 1-.856-.17c-1.528-.36-2.987-1.01-4.331-1.784-.131-.08-.299-.17-.498-.262-.177-.1-.401-.154-.62-.21a2.233 2.233 0 0 0-1.387.198c-.402.21-.707.479-.99.735-.543.518-1.02 1.005-1.545 1.235a1.852 1.852 0 0 1-.793.13 3.136 3.136 0 0 1-.88-.277 4.992 4.992 0 0 1-1.6-1.267c-.435-.526-.719-1.172-.635-1.671.073-.468.62-.996 1.246-1.52.767-.664 1.562-1.321 1.753-2.324.127-.612-.087-1.236-.308-1.667-.173-.337-.334-.73-.5-1.128-.536-1.268-1.145-2.766-2.23-3.628a2.72 2.72 0 0 0-1.665-.59c-.577.004-1.041.135-1.414.169-.38.04-.612-.001-.868-.154-.51-.306-.886-1.031-.977-1.807-.13-.886-.219-1.778-.157-2.616.031-.413.108-.812.244-1.101.15-.3.268-.379.55-.458.607-.15 1.527.13 2.597.116.525-.004 1.282-.18 1.733-.744.447-.545.546-1.107.642-1.58.162-.996.153-1.775.452-2.494.286-.757.646-1.588 1.078-2.168.239-.357.579-.74.72-1.41.133-.71-.21-1.356-.573-1.742-.79-.836-1.727-1.014-2.189-1.424a1.006 1.006 0 0 1-.249-.26c-.032-.07-.04-.089-.031-.158.02-.147.19-.435.466-.71l1.628-1.688c.528-.548 1.08-1.185 1.57-1.392.25-.108.407-.12.617-.04.216.081.497.3.766.523.543.449 1.075.993 1.756 1.434.663.453 1.59.716 2.401.584 1.49-.199 2.652-1.183 3.789-1.716.797-.416 2.028-.487 2.674-1.301.438-.544.475-1.299.44-1.999a7.258 7.258 0 0 1-.011-.79c.025-.504.128-.973.346-1.328.216-.368.527-.552.957-.679.842-.235 1.752-.218 2.518-.1.777.105 1.335.49 1.735.995.79 1.015.888 2.124 1 2.812.089.71.136 1.091.188 1.089.046-.002.096-.379.098-1.108-.028-.706-.006-1.883-.842-3.126a3.18 3.18 0 0 0-2.048-1.33c-.866-.17-1.812-.243-2.86-.002-.508.107-1.14.447-1.464.987-.347.526-.484 1.137-.534 1.729a8.076 8.076 0 0 0-.017.886c.006.266-.004.53-.04.772-.087.503-.273.72-.784.924-.484.202-1.152.304-1.797.609-.63.28-1.197.634-1.768.932-.567.303-1.14.545-1.715.609-.574.069-1.092-.085-1.619-.44-.526-.35-1.023-.863-1.614-1.375-.302-.248-.6-.525-1.086-.737-.488-.227-1.156-.178-1.597.04-.928.44-1.379 1.06-1.959 1.618L9.281 12.06c-.28.3-.642.684-.784 1.35-.068.334.008.741.174 1.031.164.292.38.497.576.656.828.636 1.654.832 2.016 1.29.201.23.27.437.233.586-.025.182-.234.504-.49.846-.593.817-.921 1.615-1.268 2.495z" data-original="#000000" class=""></path><path d="M50.92 8.834c.544-.622.702-1.308.695-1.749-.004-.45-.17-.669-.247-.655-.215.01-.206.925-1.16 1.69-.452.37-1.135.648-1.78.516a1.794 1.794 0 0 1-.88-.498c-.223-.234-.366-.567-.398-.96-.06-.797.351-1.63.88-1.958.459-.34 1.342-.25 1.841-.097.506.164.884.566 1.086.83.211.28.308.489.411.477.09-.006.192-.249.1-.697-.109-.436-.393-1.069-1.168-1.523a3.476 3.476 0 0 0-1.283-.4c-.419-.074-1.118-.035-1.64.269-.83.458-1.395 1.296-1.584 2.262a23.91 23.91 0 0 0-1.691-.27c-.91-.108-1.986-.22-3.231-.223a7.32 7.32 0 0 0-1.01.064c-.106.02-.178.022-.311.063-.126.041-.29.096-.361.149-.188.101-.36.222-.518.36-.632.56-.971 1.254-1.287 1.869-.308.62-.59 1.17-.934 1.534-.318.343-.79.574-1.301.721-1.03.289-2.097.321-2.98.356-1.782.031-2.943.098-2.946.311-.001.182 1.07.467 2.906.697.92.09 2.04.186 3.347-.09.641-.146 1.377-.423 1.976-1.02.567-.579.896-1.257 1.206-1.867.305-.611.595-1.149.942-1.465.085-.081.175-.148.268-.203.057-.045.056-.019.076-.037.017-.012.103-.023.15-.036.795-.157 2.803-.149 3.953-.175.658-.01 1.224-.027 1.682-.052-.001.085-.007.17-.002.255.047.674.332 1.365.83 1.842.493.465 1.059.73 1.67.812 1.23.129 2.177-.493 2.693-1.102zM45.795 26.963c-.126-.74-.684-1.503-1.497-1.837a2.29 2.29 0 0 0-.651-.217 2.48 2.48 0 0 0-1.58.167c-.92.404-1.61 1.378-1.69 2.49-1.118-.208-3.15-.347-5.478-.347-3.532 0-6.395.32-6.395.714s2.863.713 6.395.713c2.358 0 4.413-.143 5.522-.355.104.589.395 1.13.778 1.519.415.443.941.734 1.48.87 1.091.281 2.143-.128 2.694-.737.573-.62.65-1.32.597-1.724-.088-.422-.19-.616-.285-.6-.097.015-.191.23-.268.548-.107.315-.31.742-.727 1.032-.405.291-1.04.433-1.65.217-.6-.207-1.167-.785-1.238-1.469-.081-.704.322-1.413.837-1.687.502-.323 1.177-.168 1.657.027.966.5 1.187 1.389 1.389 1.331.091-.011.177-.24.11-.655zM46.28 39.242c-.096.015-.19.23-.267.548-.108.315-.311.742-.727 1.033a1.835 1.835 0 0 1-1.65.217c-.6-.208-1.168-.786-1.239-1.47-.08-.704.323-1.413.838-1.687.501-.323 1.176-.167 1.656.027.966.5 1.187 1.39 1.39 1.332.09-.012.176-.24.11-.655-.128-.748-.693-1.507-1.497-1.838a2.295 2.295 0 0 0-.652-.217 2.482 2.482 0 0 0-1.58.167c-.674.296-1.223.898-1.502 1.635-.81-1.03-1.8-2.175-2.67-3.152l-.646-.712a2.99 2.99 0 0 0-1.033-.711c-.817-.33-1.63-.28-2.323-.264-5.568-.07-10.24.114-10.234.519.007.382 4.517.836 10.277.908.712-.027 1.322-.037 1.76.135.222.082.413.206.588.375 1.196 1.192 2.727 2.727 4.09 3.881-.005.137-.005.275.01.415.068.662.391 1.275.816 1.705.415.444.94.734 1.48.87 1.09.282 2.143-.127 2.693-.737.573-.62.65-1.32.598-1.723-.089-.423-.19-.617-.286-.601zM49.877 47.35c-.069-.405-.307-1.023-.952-1.525a2.401 2.401 0 0 0-.545-.313 2.299 2.299 0 0 0-.651-.217 2.482 2.482 0 0 0-1.58.166c-.885.39-1.55 1.305-1.672 2.363-1.34-.205-3.436-.253-4.786-.295a2.045 2.045 0 0 1-.624-.114c-.148-.061-.286-.165-.454-.344-.325-.368-.748-.924-1.144-1.397-.417-.504-.779-.952-1.22-1.456-.22-.26-.655-.59-1.082-.67-.411-.09-.723-.068-.99-.073a67.94 67.94 0 0 0-2.946.053c-3.62.155-3.641.606-.034 1.008.835.093 1.83.18 2.936.253.285.019.547.032.7.08.146.047.205.095.379.286l1.153 1.423c.425.506.758.947 1.245 1.467.25.254.595.52.996.652.389.13.745.146 1.05.146 1.271-.042 3.557-.195 4.808-.422.002.023 0 .046.002.07.068.661.391 1.275.816 1.705.414.443.94.734 1.48.87 1.09.281 2.142-.128 2.693-.738.573-.62.65-1.32.597-1.723-.088-.422-.189-.616-.285-.6-.096.014-.191.23-.268.547-.107.316-.31.743-.727 1.033-.404.291-1.04.433-1.649.217-.6-.207-1.168-.785-1.24-1.47-.08-.703.323-1.412.839-1.687.501-.323 1.176-.167 1.656.028.966.499 1.187 1.389 1.389 1.331.092-.011.177-.24.11-.655zM36.526 20.268c-.211.176-.372.268-.56.303-.203.044-.493.038-.843.024l-2.142-.06c-5.872-.124-10.636.095-10.643.489s4.747.814 10.617.938l2.143.031c.34 0 .738.015 1.185-.096.468-.111.864-.401 1.12-.65 1.014-1.033 2.925-3.089 3.78-4.245.398.863 1.146 1.514 1.978 1.747 1.158.346 2.292-.17 2.8-.849.55-.68.577-1.393.525-1.807-.089-.433-.189-.637-.285-.623s-.19.238-.269.58c-.107.334-.286.822-.707 1.16a1.648 1.648 0 0 1-1.664.286c-.611-.23-1.166-.886-1.243-1.655-.078-.788.31-1.583.826-1.908.496-.36 1.188-.194 1.673.047.482.273.787.697.98.997.197.304.301.507.404.493.091-.011.178-.246.12-.676a2.661 2.661 0 0 0-.908-1.629 2.278 2.278 0 0 0-.559-.357 2.3 2.3 0 0 0-.684-.246c-.499-.114-1.135-.078-1.671.225-1.087.587-1.72 1.872-1.6 3.196.016.166.047.328.088.484-.451.303-1.123.838-1.965 1.563-.722.618-1.602 1.422-2.496 2.238z" data-original="#000000" class=""></path></g></svg>