<svg xmlns="http://www.w3.org/2000/svg" version="1.1" xmlns:xlink="http://www.w3.org/1999/xlink" xmlns:svgjs="http://svgjs.com/svgjs" width="512" height="512" x="0" y="0" viewBox="0 0 53 53" style="enable-background:new 0 0 512 512" xml:space="preserve" class=""><g><path d="m20.08 35.139-9.852-.131c-1.357-.011-2.709-.031-4.07-.053-1.034-.01-2.856-.03-3.803-1.317-.628-.847-.613-1.939-.602-2.737l.271-20.99c.01-1.045.027-2.996 1.48-4.106 1.034-.787 2.338-.848 3.58-.828 4.332.033 8.666.065 12.99.076 4.33-.011 8.663-.043 12.997-.076 1.24-.014 2.547.04 3.57.829 1.463 1.107 1.48 3.06 1.488 4.108l.272 20.987c.012.678.006 1.344-.214 1.99a.748.748 0 0 1-.944.472.75.75 0 0 1-.278 1.01c-.834.487-1.892.567-2.911.581l-1.14.016c-4.27.06-8.543.119-12.834.169zM6.826 6.476c-.907 0-1.812.064-2.413.521-.72.552-.877 1.57-.889 2.93l-.271 20.994c-.009.648-.019 1.384.309 1.825.444.605 1.49.697 2.556.708 1.42.023 2.769.043 4.126.054l9.837.13c4.271-.05 8.543-.109 12.813-.168l1.14-.016c.813-.01 1.64-.064 2.174-.376a.746.746 0 0 1 .613-.065.746.746 0 0 1-.054-.604c.142-.418.144-.94.134-1.483l-.272-20.994c-.011-1.364-.169-2.381-.898-2.934-.649-.5-1.66-.534-2.647-.521-4.338.033-8.675.065-13.01.076-4.33-.011-8.666-.043-13.003-.076l-.245-.001z" fill="#000000" data-original="#000000" class=""></path><path d="M27.24 41.494c-4.527-.054-9.048-.108-13.557-.174-1.413-.013-2.835-.18-3.649-1.297-.58-.792-.602-1.793-.578-2.668l.033-3.105a.75.75 0 0 1 .75-.742h.007a.75.75 0 0 1 .743.758l-.033 3.118c-.019.669-.011 1.344.29 1.755.424.583 1.43.672 2.455.681 4.512.066 9.031.12 13.54.174 3.544-.043 7.096-.087 10.638-.14.455-.026.755.325.761.738a.75.75 0 0 1-.739.761c-3.542.054-7.096.098-10.66.141zM44.235 35.139a.75.75 0 0 1-.75-.74l-.228-17.363c-.012-1.352-.16-2.295-.856-2.825-.626-.478-1.605-.509-2.548-.498l-2.43.01c-.414 0-.756-.335-.756-.75s.33-.75.745-.75l2.434-.01c1.2-.013 2.461.039 3.464.805 1.421 1.082 1.438 2.981 1.447 4.001l.228 17.36a.75.75 0 0 1-.74.76h-.01zM20.072 11.75c-5.67-.014-11.35-.034-17.028-.056a.75.75 0 0 1 .003-1.5h.003c5.677.022 11.356.042 17.022.056 5.676-.014 11.355-.034 17.032-.056h.003a.75.75 0 0 1 .003 1.5c-5.679.022-11.358.042-17.038.056zM9.796 21.451c-.468 0-1.198-.06-1.71-.59-.469-.505-.522-1.158-.557-1.59l-.196-2.757c-.034-.563-.085-1.4.425-2.064.679-.91 1.931-.888 2.53-.879 3.298.055 16.288.055 19.576 0 .597-.008 1.844-.03 2.542.88.497.648.448 1.461.413 2.055v.009l-.196 2.748c-.04.483-.09 1.115-.556 1.597-.6.62-1.496.595-1.927.588-3.383-.064-16.744-.064-20.133 0-.06.001-.132.003-.21.003zm.317-6.38c-.47 0-.979.042-1.16.284-.174.227-.145.71-.124 1.061l.195 2.741c.018.219.046.56.15.673.13.134.615.123.8.118 3.403-.064 16.802-.064 20.198 0 .188.005.675.017.817-.13.092-.095.117-.406.137-.655l.196-2.75c.024-.397.05-.846-.107-1.049-.21-.276-.815-.303-1.327-.293-3.296.055-16.318.055-19.624 0h-.15zm21.958 1.39h.01zM26.23 24.745H13.924a.75.75 0 0 1 0-1.5H26.23a.75.75 0 0 1 0 1.5zM26.23 28.04H13.924a.75.75 0 0 1 0-1.5H26.23a.75.75 0 0 1 0 1.5z" fill="#000000" data-original="#000000" class=""></path><path d="M47.545 48.026c-.2 0-.4-.079-.547-.236l-4.401-4.69-3.248 3.048a.75.75 0 0 1-1.25-.407L35.59 32.495a.75.75 0 0 1 .924-.866l13.053 3.35a.752.752 0 0 1 .326 1.273L46.645 39.3l4.402 4.69a.751.751 0 0 1-.033 1.06l-2.956 2.773a.747.747 0 0 1-.513.203zM42.63 41.29c.2 0 .4.08.547.236l4.402 4.69 1.861-1.746-4.402-4.69a.751.751 0 0 1 .034-1.06l2.8-2.628-10.588-2.717 2.035 10.745 2.798-2.627a.747.747 0 0 1 .513-.203z" fill="#000000" data-original="#000000" class=""></path></g></svg>