<svg data-v-779a88fd="" data-v-ce81eafc="" xmlns="http://www.w3.org/2000/svg" viewBox="0 0 12 24" aria-label="cross" role="presentation" class="h-icon-danger" style="width: 12px; height: 24px;"><g data-v-779a88fd=""><path data-v-779a88fd="" d="m11.807 16.415-1.395 1.392a.654.654 0 0 1-.927 0L6 14.324l-3.483 3.483a.657.657 0 0 1-.93 0L.193 16.415a.657.657 0 0 1 0-.93L3.675 12 .193 8.517a.662.662 0 0 1 0-.93l1.394-1.394a.657.657 0 0 1 .93 0L6 9.678l3.485-3.485a.654.654 0 0 1 .927 0l1.395 1.392a.662.662 0 0 1 .002.932L8.324 12l3.483 3.485a.657.657 0 0 1 0 .93Z"></path></g></svg>