<svg xmlns="http://www.w3.org/2000/svg" version="1.1" xmlns:xlink="http://www.w3.org/1999/xlink" xmlns:svgjs="http://svgjs.com/svgjs" width="512" height="512" x="0" y="0" viewBox="0 0 344.112 344.112" style="enable-background:new 0 0 512 512" xml:space="preserve" class=""><g><path d="M185.812 255.162a2.957 2.957 0 0 0-2.956-2.956H23.796c-9.864 0-17.884-8.024-17.884-17.884 28.588.332 56.232.504 83.856.504 28.14 0 56.272-.176 85.384-.52a2.068 2.068 0 0 0-.024-4.136h-.024c-57.684.688-111.504.688-169.196.016V50.946c0-9.864 8.02-17.884 17.884-17.884h255.612c9.864 0 17.884 8.02 17.884 17.884v11.828l-282.88-1.212H14.4a2.068 2.068 0 0 0-.008 4.136l282.896 1.212v80.072a2.957 2.957 0 0 0 5.912 0v-81.26c.12-.26.196-.544.196-.856.004-.312-.076-.6-.196-.864V50.95c0-13.116-10.676-23.792-23.796-23.792H23.796C10.68 27.158 0 37.834 0 50.95v183.376c0 13.116 10.676 23.792 23.796 23.792H182.86a2.958 2.958 0 0 0 2.952-2.956z" fill="#000000" data-original="#000000" class=""></path><path d="M32.46 47.302c0-3.816-3.108-6.928-6.932-6.928-3.816 0-6.928 3.112-6.928 6.928 0 3.82 3.112 6.932 6.928 6.932 3.824-.004 6.932-3.112 6.932-6.932zm-9.72 0a2.795 2.795 0 1 1 5.59.005 2.795 2.795 0 0 1-5.59-.005zM55.036 47.302c0-3.816-3.108-6.928-6.932-6.928-3.82 0-6.932 3.112-6.932 6.928 0 3.82 3.112 6.932 6.932 6.932 3.824-.004 6.932-3.112 6.932-6.932zm-9.728 0a2.795 2.795 0 0 1 5.592 0 2.796 2.796 0 0 1-5.592 0zM77.612 47.302c0-3.816-3.112-6.928-6.928-6.928-3.82 0-6.932 3.112-6.932 6.928 0 3.82 3.112 6.932 6.932 6.932 3.816-.004 6.928-3.112 6.928-6.932zm-9.724 0a2.795 2.795 0 1 1 5.587.005 2.795 2.795 0 0 1-5.587-.005zM190.016 234.306h22.7a2.066 2.066 0 0 0 2.068-2.068 2.066 2.066 0 0 0-2.068-2.068h-22.7c-1.144 0-2.068.924-2.068 2.068s.924 2.068 2.068 2.068zM18.252 119.482c0 14.928 12.144 27.072 27.072 27.072 14.928 0 27.072-12.148 27.072-27.072 0-14.928-12.148-27.072-27.072-27.072-14.928-.004-27.072 12.144-27.072 27.072zm50.012 0c0 12.648-10.288 22.936-22.936 22.936s-22.936-10.288-22.936-22.936S32.68 96.546 45.328 96.546s22.936 10.284 22.936 22.936zM178.672 119.482c0-14.928-12.144-27.072-27.072-27.072-14.928 0-27.072 12.148-27.072 27.072 0 14.928 12.148 27.072 27.072 27.072 14.932 0 27.072-12.144 27.072-27.072zm-50.008 0c0-12.648 10.288-22.936 22.936-22.936s22.936 10.288 22.936 22.936-10.288 22.936-22.936 22.936-22.936-10.288-22.936-22.936zM230.8 119.482c0 14.928 12.144 27.072 27.072 27.072s27.072-12.148 27.072-27.072c0-14.928-12.148-27.072-27.072-27.072-14.928-.004-27.072 12.144-27.072 27.072zm50.012 0c0 12.648-10.288 22.936-22.936 22.936s-22.936-10.288-22.936-22.936 10.288-22.936 22.936-22.936c12.648-.004 22.936 10.284 22.936 22.936zM120.08 120.606h.012a2.067 2.067 0 0 0 2.064-2.056 2.063 2.063 0 0 0-2.056-2.08l-2.748-.016h-.012a2.068 2.068 0 0 0-.012 4.136l2.752.016zM110.236 120.554h.012a2.067 2.067 0 0 0 2.064-2.056 2.063 2.063 0 0 0-2.056-2.08l-2.752-.016c-1.044.048-2.072.908-2.08 2.056a2.066 2.066 0 0 0 2.056 2.08l2.756.016zM90.556 120.458h.012a2.067 2.067 0 0 0 2.064-2.056 2.063 2.063 0 0 0-2.056-2.08l-2.752-.016h-.012a2.068 2.068 0 0 0-.012 4.136l2.756.016zM100.396 120.506h.012a2.067 2.067 0 0 0 2.064-2.056 2.063 2.063 0 0 0-2.056-2.08l-2.752-.016h-.004a2.068 2.068 0 0 0-.012 4.136l2.748.016zM80.72 120.406h.008a2.068 2.068 0 0 0 .008-4.136l-2.752-.012h-.008a2.066 2.066 0 0 0-.008 4.132l2.752.016zM186.968 119.738H187a2.07 2.07 0 0 0 .032-4.136l-2.748-.04h-.036a2.068 2.068 0 0 0-.032 4.136l2.752.04zM196.808 119.886h.032a2.07 2.07 0 0 0 .032-4.136l-2.748-.04h-.036a2.068 2.068 0 0 0-.032 4.136l2.752.04zM228.428 118.302a2.068 2.068 0 0 0-2.036-2.1l-2.748-.04h-.036a2.074 2.074 0 0 0-2.068 2.032 2.068 2.068 0 0 0 2.036 2.1l2.752.044h.032a2.07 2.07 0 0 0 2.068-2.036zM216.488 120.186h.032a2.07 2.07 0 0 0 .032-4.136l-2.748-.04h-.036a2.068 2.068 0 0 0-.032 4.136l2.752.04zM206.652 120.038h.032a2.07 2.07 0 0 0 .032-4.136l-2.756-.044c-1.108.116-2.08.892-2.1 2.036a2.07 2.07 0 0 0 2.036 2.1l2.756.044zM227.296 169.726a2.066 2.066 0 0 0-2.068-2.068H77.28c-1.144 0-2.068.924-2.068 2.068s.924 2.068 2.068 2.068h147.952c1.14 0 2.064-.924 2.064-2.068zM214.184 186.814a2.07 2.07 0 0 0-2.068-2.064h-.004l-127.892.288a2.073 2.073 0 0 0-2.064 2.072 2.07 2.07 0 0 0 2.068 2.064h.004l127.888-.284a2.075 2.075 0 0 0 2.068-2.076z" fill="#000000" data-original="#000000" class=""></path><path d="m336.432 169.17-32.996-4.8-14.756-29.9c-1.004-2.02-4.3-2.02-5.3 0l-14.756 29.9-32.996 4.8a2.962 2.962 0 0 0-2.388 2.012 2.966 2.966 0 0 0 .744 3.028l23.78 23.176-94.98 94.972c-5.62 5.62-5.62 14.764 0 20.384a14.309 14.309 0 0 0 10.192 4.212c3.856 0 7.476-1.496 10.192-4.212l54.676-54.676c.084.004.152.048.236.048h41.332c13.116 0 23.796-10.676 23.788-23.868l-.188-7.376 12.528 6.588a2.955 2.955 0 0 0 3.112-.224 2.952 2.952 0 0 0 1.172-2.892l-5.636-32.868 23.876-23.272c.808-.788 1.1-1.96.748-3.028a2.945 2.945 0 0 0-2.38-2.004zM166.964 308.566c-3.32-3.316-3.32-8.712-.004-12.032l3.608-3.608.112 17.7c-1.38-.364-2.684-1.028-3.716-2.06zm114.308-126.344c3.2-3.192 8.832-3.192 12.028 0 3.32 3.32 3.32 8.72 0 12.036l-26.776 26.78-12.032-12.036 26.78-26.78zM178.992 308.57c-1.152 1.148-2.624 1.868-4.18 2.192l-.132-21.052c0-.26-.06-.508-.152-.736l5.396-5.396.004 14.784c0 1.144.928 2.068 2.068 2.068s2.064-.928 2.064-2.068v-18.924l4.2-4.204v15.524c0 1.144.924 2.068 2.068 2.068a2.066 2.066 0 0 0 2.068-2.068v-19.656l4.024-4.028v14.652c0 1.14.928 2.064 2.068 2.064a2.065 2.065 0 0 0 2.068-2.064v-18.788l4.028-4.028v14.136a2.068 2.068 0 0 0 4.136 0v-18.268l4.092-4.092.216 13.524a2.072 2.072 0 0 0 2.068 2.036h.036a2.07 2.07 0 0 0 2.032-2.1l-.284-17.532 4.72-4.72v12.92c0 1.144.924 2.068 2.068 2.068s2.068-.924 2.068-2.068v-16.672c0-.112-.048-.212-.064-.316l3.876-3.876.388 15.184a2.068 2.068 0 0 0 2.068 2.016h.052a2.074 2.074 0 0 0 2.016-2.12l-.488-19.112 4.144-4.148-.424 14.396a2.074 2.074 0 0 0 2.008 2.128h.06a2.07 2.07 0 0 0 2.068-2.008l.52-17.712a2.025 2.025 0 0 0-.176-.864l5.292-5.292-.472 16.452a2.07 2.07 0 0 0 2.008 2.128h.06a2.07 2.07 0 0 0 2.068-2.008l.52-18.232c.02-.696-.332-1.292-.848-1.684l1.156-1.152 12.032 12.036-84.608 84.612zm100.416-56.364h-35.7l26.332-26.328c.496.016.996-.048 1.472-.3l14.516-7.628 11.076 5.824c-.016.128-.072.244-.068.38l.256 10.168c0 9.864-8.02 17.884-17.884 17.884zm29.548-57.872a2.948 2.948 0 0 0-.852 2.616l4.888 28.496-25.592-13.452a2.94 2.94 0 0 0-2.752 0l-1.556.816 14.38-14.38c5.62-5.616 5.62-14.764 0-20.384-5.428-5.428-14.952-5.428-20.38 0l-15.16 15.16-19.552-19.048 28.616-4.164a2.953 2.953 0 0 0 2.228-1.616l12.796-25.924 12.796 25.924a2.953 2.953 0 0 0 2.228 1.616l28.616 4.164-20.704 20.176z" fill="#000000" data-original="#000000" class=""></path><path d="M343.888 132.806a2.053 2.053 0 0 0-1.84-1.132h-.028l-10.652.14-6.152-8.7a2.089 2.089 0 0 0-2.012-.852c-.776.124-1.42.68-1.652 1.428l-3.16 10.176-10.176 3.16c-.748.232-1.3.876-1.428 1.652a2.069 2.069 0 0 0 .852 2.012l8.7 6.152-.14 10.652a2.07 2.07 0 0 0 1.128 1.872 2.067 2.067 0 0 0 2.176-.188l8.54-6.372 10.088 3.424c.732.244 1.564.06 2.124-.496.56-.56.748-1.38.496-2.124l-3.424-10.088 6.372-8.54a2.07 2.07 0 0 0 .188-2.176zm-10.52 9.108a2.06 2.06 0 0 0-.3 1.9l2.424 7.152-7.152-2.424a2.103 2.103 0 0 0-1.9.3l-6.052 4.516.1-7.548a2.08 2.08 0 0 0-.876-1.72l-6.168-4.36 7.212-2.24a2.081 2.081 0 0 0 1.36-1.36l2.24-7.212 4.36 6.168a2.08 2.08 0 0 0 1.688.876h.028l7.552-.1-4.516 6.052z" fill="#000000" data-original="#000000" class=""></path></g></svg>