<svg xmlns="http://www.w3.org/2000/svg" version="1.1" xmlns:xlink="http://www.w3.org/1999/xlink" xmlns:svgjs="http://svgjs.com/svgjs" x="0" y="0" viewBox="0 0 241.389 241.389" style="enable-background:new 0 0 512 512" xml:space="preserve" class=""><g><path d="M219.746.001c-29.733 1.001-59.926 12.653-89.242 17.821-35.515 6.261-71.222 9.075-107.118 11.938-1.094.087-1.128 1.74 0 1.729 31.172-.315 62.328-3.869 93.11-8.652 15.975-2.482 31.881-5.384 47.688-8.782 16.273-3.498 32.645-9.031 49.279-10.672-50.86 30.622-102.587 60.29-152.163 92.944a.611.611 0 0 0-.054-.441 226.493 226.493 0 0 0-5.046-8.651c4.152.035 8.378-.202 12.387-1.259.703-.185.385-1.151-.292-1.058-4.253.588-8.417 1.22-12.701 1.351-4.333-7.034-8.948-13.856-13.533-20.702 6.597.167 13.217.081 19.767-.729.703-.087.746-1.173 0-1.134-6.867.361-13.698.713-20.571.658a631.433 631.433 0 0 1-6.641-10.145c8.201-.476 16.401-.923 24.583-1.676.773-.071.8-1.262 0-1.227-8.458.372-16.892 1.069-25.331 1.726a268.676 268.676 0 0 1-7.088-11.846c10.368-.282 20.734-.595 31.089-1.216.864-.052.881-1.37 0-1.357-10.634.152-21.254.627-31.876 1.129-1.108-1.997-2.249-3.971-3.283-6.024-.809-1.606-3.026-.195-2.36 1.379.769 1.818 1.63 3.629 2.471 5.441a.65.65 0 0 0 .266.585c9.328 19.905 22.801 39.33 37.138 55.543.073.083.16.098.246.12-.069.069-.15.114-.196.199-.101.065-.202.13-.303.197-.388.256-.046.853.366.626a.06.06 0 0 1 .011-.006c.072.11.101.233.245.315l.098.056c.042.22.183.413.48.395l.191-.012c11.228 6.415 23.334 13.367 35.655 17.261.028.009.046-.013.073-.006-4.396 4.274-8.825 8.513-13.224 12.782l-.221.01c-.376.014-.496.338-.419.609-.574.558-1.154 1.109-1.727 1.669-1.14 1.115.604 2.856 1.749 1.748 1.03-.996 2.068-1.983 3.098-2.98 9.552.379 19.13-.359 28.552-1.911.767-.126.596-1.465-.185-1.37-9.031 1.106-18.036 1.671-27.1 2.062 4.36-4.216 8.752-8.398 13.116-12.609 5.769.292 11.588.337 17.312-.432.801-.107.862-1.336 0-1.301-5.365.217-10.691.521-16.046.517 1.855-1.789 3.722-3.565 5.578-5.354.084.211.238.386.499.353 5.515-.702 11.017-.817 16.56-1.097.767-.039.764-1.143 0-1.19-5.384-.33-10.797.253-16.124 1.037 34.08-32.837 68.283-65.544 102.754-97.973a1042.962 1042.962 0 0 0-57.226 113.264c-3.325 7.718-6.634 15.456-9.664 23.296-2.706 7.002-3.399 16.359-6.814 22.693 1.444 6.75-.336 8.38-5.34 4.89-2.982-.485-5.489-1.814-7.522-3.986-1.106-.72-2.198-1.538-3.281-2.384 5.262.131 10.532.228 15.779.017.717-.029.719-1.091 0-1.115-5.643-.194-11.312-.037-16.967.144-2.897-2.369-5.688-4.967-8.389-7.361 5.138.387 10.3.632 15.447.36.57-.03.579-.889 0-.892-5.445-.034-10.873.014-16.313-.241-.132-.115-.272-.246-.403-.36-6.212-5.376-12.248-10.945-18.319-16.474 7.562.332 15.178-.03 22.628-1.356.683-.122.535-1.296-.166-1.223-7.927.818-15.776 1.371-23.741 1.43-2.599-2.357-5.173-4.742-7.827-7.039-.704-.61-1.651.325-1.025 1.026 10.443 11.695 22.159 22.27 34.348 32.241l-.428.013c-.454.015-.455.695 0 .707.452.012.908.019 1.36.032 6.664 5.425 13.456 10.683 20.263 15.835.782.592 1.939-.212 1.915-1.099-.913-32.866 20.672-68.089 34.574-97.015 13.405-27.892 28.169-55.028 43.796-81.73.237-.223.471-.448.708-.671.129-.121.215-.254.28-.391.271-.012.541-.048.813-.058 1.882-.067 1.89-3.005-.003-2.941zm-70.952 65.841c-16.888 16.156-33.652 32.44-50.412 48.728l-.099-.001c-.04-.273-.148-.531-.441-.698-3.34-1.9-6.809-3.644-10.321-5.334.069-.001.15-.01.217-.009 3.491.05 6.963-.001 10.452-.143.609-.025.612-.927 0-.948-2.712-.095-5.416-.173-8.13-.131-.586.009-2.798.252-4.455.333-3.283-1.548-6.607-3.035-9.924-4.525 4.859.118 9.724.251 14.576.089.73-.024.731-1.11 0-1.134-5.518-.184-11.053.01-16.576.133a637.208 637.208 0 0 1-8.407-3.874c7.455-.441 14.914-.859 22.344-1.617.758-.077.79-1.243 0-1.209-8.184.361-16.344 1.13-24.506 1.83-.347-.165-.707-.319-1.053-.485C82.912 84.959 211.65 7.518 211.431 7.184c.529.807-57.063 53.326-62.637 58.658zM63.648 173.301c-14.885.717-26.372 17.857-28.279 32.264-.036-.034-.075-.062-.111-.096-12.388-11.807-12.807-35.02-1.307-47.378 3.511 4.075 8.361 6.833 14.252 6.939 9.77.176 25.749-13.648 13.496-22.036-9.191-6.292-24.446.173-27.572 10.339-.118-.177-.262-.35-.369-.528-11.777-19.649 9.337-39.64 29.152-34.391.796.211 1.094-.948.336-1.219-14.99-5.354-31.214 2.65-34.885 18.503-1.647 7.111.16 15.195 4.523 21.078-14.991 12.644-12.416 40.693 2.187 52.703 0 .09-.014.185-.013.274.081 19.945 15.854 28.961 33.611 31.618 1.636.245 2.397-2.178.702-2.546-14.223-3.086-27.647-7.829-30.672-23.924a26.865 26.865 0 0 1-.393-3.136c4.059 2.398 8.842 3.664 14.268 3.297 12.453-.842 26.32-10.645 27.632-23.744 1.012-10.126-6.466-19.315-16.558-18.017zm-12.275-28.947c5.263-.359 14.462.11 9.842 10.878-4.67 10.886-18.321 7.159-24.999.619 2.209-7.088 7.733-10.991 15.157-11.497zm25.038 49.397c-1.234 5.154-5.185 9.223-9.274 12.241-8.552 6.311-19.969 7.849-28.817 1.91.806-13.509 10.144-28.331 23.232-32.389.199.237.469.41.847.404 9.507-.15 16.438 7.696 14.012 17.834z" data-original="#000000" class=""></path><path d="M64.474 75.002c-4.853.137-9.695.383-14.544.642-.701.038-.709 1.123 0 1.097 4.852-.181 9.697-.376 14.544-.68.675-.042.687-1.079 0-1.059zM120.666 149.052c-5.535.213-10.966.899-16.527.773-.529-.012-.523.789 0 .818 5.468.301 11.27.52 16.666-.568.574-.117.445-1.046-.139-1.023z" data-original="#000000" class=""></path></g></svg>