<svg xmlns="http://www.w3.org/2000/svg" version="1.1" xmlns:xlink="http://www.w3.org/1999/xlink" xmlns:svgjs="http://svgjs.com/svgjs" width="512" height="512" x="0" y="0" viewBox="0 0 512 512" style="enable-background:new 0 0 512 512" xml:space="preserve" class=""><g><path d="M509.6 83.7c-3.4-5.2-9.5-7.5-15.4-6-96.1 25-373.6 88.3-429.9 97.3-22.8 3.6-28.4 12.4-29.2 19.1-.9 8.2 5.8 16.8 16.3 20.9 1.4.6 3.3 1.3 5.6 2.1 15.5 5.8 51.8 19.5 75.4 34.8 23 14.9 23.3 57.8 23.5 76.1 0 1.8 0 3.4.1 4.6.6 23.2 7.8 47.8 26.5 47.8h.4c14.7-.3 17.5-22.7 20.5-46.4 1.6-12.4 3.2-25.2 6.4-31 .6-1.1 1.4-1.7 2.8-1.9 4.9-1 18.8 1.4 55.8 29.6l.8.6c7.5 5.7 21.2 10.5 35 8.6 11.5-1.7 21.6-7.9 29.1-18.1 8.9-12 40.8-52 77.9-98.4 32.7-40.9 69.7-87.3 97.8-123 3.7-5 4-11.5.6-16.7zM267.7 251.8c-.3-15.7-1.8-44.1-8.6-52-.2-.3-.5-.5-.8-.8L493.4 92zm-19.9-57.9c-17.2-6-52.4-13.5-104.8-23.7-1.5-.3-2.9-.6-4.3-.8C232.8 149.3 384 114.6 468 93.7zM60.2 208.7c-2.3-.9-4.1-1.6-5.5-2.1-6.4-2.5-11-7.5-10.6-11.6.5-4.9 8.6-9.1 21.6-11.1 10.3-1.6 28-5.1 50.6-9.8 5 1.1 13.9 2.8 24.9 5 19.5 3.8 46.1 9 68.5 14.1 11.3 2.6 19.6 4.7 25.8 6.4l-98.3 44.8c-24.3-15.9-61.2-29.8-77-35.7zM202 298.6c-4.1 7.3-5.7 20.4-7.5 34.2-1.9 15.3-4.8 38.4-11.8 38.6-13.3.2-17.4-24.4-17.8-39 0-1.2 0-2.8-.1-4.5-.1-17.7-.5-56.7-20-77.2l103.4-47.1c2.8 1.1 3.7 1.8 4.1 2.1 4.5 5.2 6.4 32.9 6.5 52.5l-48.3 34.2c-3.8.8-6.7 2.9-8.5 6.2zm124.1 17.7c-6.1 8.3-13.9 13.2-23.1 14.5-11.1 1.6-22.4-2.4-28.3-6.8l-.8-.6c-21.5-16.4-37.7-26.2-49.6-29.9l91.6-64.9c-.2 23.7 5.2 67.3 14.7 81.7-1.9 2.5-3.4 4.5-4.5 6zm78-98.6c-28 35.1-53.1 66.5-67.6 85.1-7.9-16.2-12.9-61.1-11.4-80.6L497.7 100c-27.5 34.9-62.5 78.7-93.6 117.7zM80.2 267.5l-74.5 20c-.4.1-.8.2-1.2.2-2 0-3.8-1.3-4.3-3.3-.6-2.4.8-4.9 3.2-5.5l74.5-20c2.4-.6 4.9.8 5.5 3.2.6 2.3-.8 4.8-3.2 5.4zm48.1 59.4c1.4 2 .9 4.8-1.1 6.3l-99.6 69.4c-.8.5-1.7.8-2.6.8-1.4 0-2.8-.7-3.7-1.9-1.4-2-.9-4.8 1.1-6.3l99.6-69.4c2.1-1.4 4.9-.9 6.3 1.1zm125.4 36.4-43.5 69.4c-.9 1.4-2.3 2.1-3.8 2.1-.8 0-1.6-.2-2.4-.7-2.1-1.3-2.7-4.1-1.4-6.2l43.5-69.4c1.3-2.1 4.1-2.7 6.2-1.4s2.7 4.1 1.4 6.2z" fill="#000000" data-original="#000000" class=""></path></g></svg>