<svg xmlns="http://www.w3.org/2000/svg" version="1.1" xmlns:xlink="http://www.w3.org/1999/xlink" xmlns:svgjs="http://svgjs.com/svgjs" x="0" y="0" viewBox="0 0 511.999 511.999" style="enable-background:new 0 0 512 512" xml:space="preserve" class=""><g><path d="M487.564 48.941c-35.068-3.357-70.803-3.451-106.013-4.956-23.276-.995-46.355.861-69.59 1.341-11.189.231-22.393.411-33.537.558-3.18.042-6.085.33-8.603 1.494-1.051.166-2.194.535-3.475 1.226-3.744 2.022-6.915 6.864-9.997 9.776-5.967 5.637-10.838 11.892-14.751 19.101-2.003 3.69-3.651 7.555-5.262 11.438-19.229 26.674-37.658 53.962-55.806 81.438-4.178-4.228-10.313-7.156-15.318-10.013-14.212-8.111-27.825-17.044-42.209-24.866-11.414-6.207-36.769-27.154-46.478-15.124-3.839 1.674-7.691 5.573-10.553 7.61-7.801 5.553-14.728 11.39-21.717 17.91-14.43 13.46-31.424 27.06-42.088 43.883-16.422 25.906 65.504 21.297 77.507 22.626.729 5.818 1.57 11.622 2.635 17.398 3.065 16.63 6.391 33.232 9.84 49.786 1.856 8.902 3.603 17.882 5.953 26.668 1.064 3.98 1.683 8.203 4.812 10.992 2.557 5.785 7.371 10.479 13.445 15.852 26.774 23.686 62.514 38.566 93.271 56.445 14.789 8.597 29.774 16.751 44.82 24.891 11.124 6.018 21.771 13.961 33.839 18.539 14.32 5.432 25.68 2.33 39.053-4.025 14.913 4.608 30.254 16.794 43.382 24.911 7.528 4.655 22.276 16.339 31.411 14.205 2.868-.67 4.125-3.246 4.472-5.872 1.561-11.847-3.022-26.742-4.659-38.417-1.069-7.619-2.293-15.191-3.511-22.789-.738-4.601-.861-9.403-1.92-13.916 1.395-12.552-20.236-20.687-28.278-25.221-9.681-5.457-19.68-10.263-29.251-15.921-7.547-4.461-22.205-10.236-26.799-17.837a4.862 4.862 0 0 0-.815-.989c-.834-5.725-1.58-11.462-2.117-17.228-1.045-11.234-3.174-22.303-5.184-33.388 11.292-8.679 24.357-15.776 36.261-23.684 12.278-8.157 24.361-16.605 36.658-24.73 25.347-16.746 52.477-31.314 78.642-46.772 8.521-5.034 47.155-20.738 28.44-34.392-8.667-6.324-22.73-5.936-32.896-7.717-6.281-1.1-12.114-3.329-18.254-4.921-1.068-.277-2.245-.474-3.468-.649 17.018-12.051 33.798-24.445 50.36-37.023 9.494-7.211 30.525-18.535 32.08-31.949 1.556-13.414-14.881-14.784-24.332-15.689zM36.29 198.322c-6.145-.153-12.964-.423-18.921-1.994-5.777-1.524-5.521-.412-1.413-5.565 2.56-3.21 5.373-6.244 8.119-9.293 15.452-17.157 32.143-33.279 48.746-49.327-1.484 16.067 1.738 32.608 3.452 48.528.691 6.421 1.31 12.85 1.983 19.27-13.816-1.526-28.092-1.273-41.966-1.619zm351.395 201.529c.731 8.241 1.786 16.471 2.771 24.686 1.089 9.089 3.797 19.649 4.232 29.424-3.744-2.213-8.808-5.289-10.042-5.951-7.06-3.793-13.601-8.562-20.423-12.753-6.455-3.966-14.48-9.84-22.575-13.728 4.577-2.488 9.039-4.948 13.307-7.101 9.251-4.668 18.457-9.357 27.586-14.279 1.519-.819 3.238-1.655 4.942-2.58.086 1.081.169 1.913.202 2.282zm-56.939-44.518c15.962 9.588 32.882 17.542 48.928 26.976 5.355 3.149 5.16 2.718.592 5.698-3.534 2.305-8.024 4.245-11.711 6.306-7.405 4.14-14.958 7.939-22.374 12.044-6.128 3.392-11.805 7.655-17.849 11.053-2.71 1.523-10.346 3.447-11.302 6.853a42.125 42.125 0 0 0 1.03-4.952c2.532-16.938 1.783-34.058-.37-50.992-.942-7.412-2.12-14.788-3.318-22.159 5.68 3.643 12.077 6.592 16.374 9.173zm-226.218-64.961c-.202-2.191-.428-4.327-.755-6.317-2.255-13.736-4.813-27.461-7.301-41.159-4.858-26.746-7.242-53.607-10.161-80.619-.633-5.863-1.254-11.742-1.484-17.638-.118-3.02-.239-6.091-.07-9.112.401-7.137.087-8.419 6.509-4.805 9.91 5.576 19.249 12.035 29.269 17.447 18.047 9.747 36.319 20.726 52.88 32.998-16.681 25.387-33.185 50.884-49.89 76.177-6.757 10.231-14.497 21.219-18.997 33.028zM305.813 374.6c.716 7.855 1.466 15.832 1.292 23.727-.083 3.74.571 21.972-3.31 24.628-3.671 2.513-19.365-7.533-22.47-9.114-6.817-3.469-13.639-6.922-20.378-10.542-13.573-7.29-27.197-14.439-40.503-22.204-27.223-15.888-56.023-29.786-82.44-46.982-6.479-4.217-12.346-9.269-17.903-14.623-7.978-7.688-7.591-15.984-3.492-25.578 6.542-15.314 16.409-28.843 25.362-42.783 19.89-30.971 39.73-61.904 59.928-92.672 8.067-12.288 15.84-24.76 23.54-37.273 5.005-7.219 9.705-14.672 14-22.287 1.015-1.8 2.001-3.59 2.979-5.372 4.498-7.303 9.032-14.58 13.627-21.816 2.208-2.75 4.643-5.377 7.411-7.847.988-.881 3.361-1.998 3.986-3.164l.291-.252c-1.489 4.795 3.14 19.793 3.785 25.006 2.007 16.211 2.656 32.512 4.119 48.759 5.835 64.805 13.27 129.804 23.307 194.044 2.406 15.407 5.454 30.8 6.869 46.345zm154.291-222.329c1.619.29 14.377 1.983 14.758 3.381.195.718-13.565 8.071-15.372 9.143-11.417 6.772-22.768 13.671-34.228 20.369-23.022 13.454-45.831 26.985-68.074 41.667a4458.121 4458.121 0 0 0-32.249 21.501c-7.561 5.085-15.828 9.294-23.162 14.682-.772-5.011-1.425-10.039-1.837-15.104-.534-6.559-1.183-13.109-1.872-19.657 24.465-21.717 52.256-42.213 79.782-59.816 14.049-8.985 27.919-18.305 41.64-27.854 2.889 1.369 6.191 2.201 9.014 3.291 10.521 4.061 20.5 6.408 31.6 8.397zm36.032-83.327c-1.395 3.191-8.573 6.786-11.704 9.214-35.668 27.659-72.842 54.193-111.012 78.317-15.546 9.825-30.998 20.423-45.287 31.954-10.186 8.22-21.734 15.871-31.745 24.667-3.236-27.697-7.124-55.346-9.307-83.12-1.687-21.458-3.582-42.759-6.542-64.093-.355-2.562-.832-6.471-1.878-10.049 1.126.21 2.178.416 3.021.483 6.306.499 12.478.238 18.804.159 10.7-.133 21.342-.207 32.042-.661 21.316-.905 42.466-.222 63.755.822 19.831.972 39.709 1.585 59.512 2.774 8.576.515 17.179.626 25.743 1.194 5.568.368 18.943-1.615 14.598 8.339z" data-original="#000000" class=""></path></g></svg>