<svg xmlns="http://www.w3.org/2000/svg" version="1.1" xmlns:xlink="http://www.w3.org/1999/xlink" xmlns:svgjs="http://svgjs.com/svgjs" width="512" height="512" x="0" y="0" viewBox="0 0 512 512" style="enable-background:new 0 0 512 512" xml:space="preserve" class=""><g><path d="M106.326 436.292h-67.86c-12.94 0-23.466-10.526-23.466-23.466V161.165h306.575c4.143 0 7.5-3.357 7.5-7.5s-3.357-7.5-7.5-7.5H15V99.174c0-12.939 10.526-23.466 23.466-23.466h96.704c4.143 0 7.5-3.357 7.5-7.5s-3.357-7.5-7.5-7.5H38.466C17.256 60.708 0 77.964 0 99.174v313.652c0 21.21 17.256 38.466 38.466 38.466h67.86c4.143 0 7.5-3.357 7.5-7.5s-3.357-7.5-7.5-7.5z" fill="#000000" data-original="#000000" class=""></path><path d="M473.534 60.708h-299.18c-4.143 0-7.5 3.357-7.5 7.5s3.357 7.5 7.5 7.5h299.181c12.939 0 23.466 10.526 23.466 23.466v46.991H359.847c-4.143 0-7.5 3.357-7.5 7.5s3.357 7.5 7.5 7.5H497v251.661c0 12.939-10.526 23.466-23.466 23.466H143.942c-4.143 0-7.5 3.357-7.5 7.5s3.357 7.5 7.5 7.5h329.592c21.21 0 38.466-17.256 38.466-38.466V99.174c0-21.21-17.256-38.466-38.466-38.466z" fill="#000000" data-original="#000000" class=""></path><circle cx="63.59" cy="110.936" r="13.892" fill="#000000" data-original="#000000" class=""></circle><circle cx="106.326" cy="110.936" r="13.892" fill="#000000" data-original="#000000" class=""></circle><circle cx="149.063" cy="110.936" r="13.892" fill="#000000" data-original="#000000" class=""></circle><path d="M98.809 218.609a7.502 7.502 0 0 0-10.56 1.003l-45.135 54.611a7.501 7.501 0 0 0 0 9.557l45.135 54.611a7.502 7.502 0 0 0 11.563-9.557l-41.187-49.833 41.187-49.833a7.501 7.501 0 0 0-1.003-10.559zM416.694 339.395a7.502 7.502 0 0 0 10.56-1.003l45.135-54.611a7.501 7.501 0 0 0 0-9.557l-45.135-54.611a7.502 7.502 0 0 0-11.563 9.557l41.187 49.833-41.187 49.833a7.501 7.501 0 0 0 1.003 10.559zM287.778 331.162c4.143 0 7.5-3.357 7.5-7.5v-88.677c0-4.143-3.357-7.5-7.5-7.5s-7.5 3.357-7.5 7.5v35.317h-46.366v-35.317c0-4.143-3.357-7.5-7.5-7.5s-7.5 3.357-7.5 7.5v88.677c0 4.143 3.357 7.5 7.5 7.5s7.5-3.357 7.5-7.5v-38.359h46.366v38.359a7.5 7.5 0 0 0 7.5 7.5zM146.143 323.662v-31.06a4074 4074 0 0 1 17.191-.068c18.204 0 33.015-14.591 33.015-32.524s-14.811-32.524-33.015-32.524h-24.691c-4.03-.079-7.571 3.476-7.5 7.5v88.677c0 4.143 3.357 7.5 7.5 7.5s7.5-3.358 7.5-7.501zm17.191-81.177c9.765 0 18.015 8.025 18.015 17.524s-8.25 17.524-18.015 17.524c-3.907 0-11.38.036-17.062.067-.031-5.84-.09-29.038-.107-35.116h17.169zM328.703 232.813a7.986 7.986 0 0 0-.322 2.173v88.677c0 4.143 3.357 7.5 7.5 7.5s7.5-3.357 7.5-7.5v-31.06c5.688-.031 13.264-.068 17.191-.068 18.204 0 33.015-14.591 33.015-32.524s-14.811-32.524-33.015-32.524h-24.691c-3.233-.041-6.276 2.223-7.178 5.326zm31.869 9.672c9.765 0 18.015 8.025 18.015 17.524s-8.25 17.524-18.015 17.524c-3.907 0-11.38.036-17.062.067-.031-5.84-.09-29.038-.107-35.116h17.169z" fill="#000000" data-original="#000000" class=""></path></g></svg>