<svg xmlns="http://www.w3.org/2000/svg" version="1.1" xmlns:xlink="http://www.w3.org/1999/xlink" xmlns:svgjs="http://svgjs.com/svgjs" width="512" height="512" x="0" y="0" viewBox="0 0 68 68" style="enable-background:new 0 0 512 512" xml:space="preserve" class=""><g><path d="M2.017 29.899c-.142 5.201.588 9.44 3.756 13.958 3.098 4.418 7.5 8.457 12.836 10.915-.573.587-1.16 1.178-1.732 1.765-.29.297-.24.801.102 1.181 2.688 2.982 3.222 3.447 3.122 3.35.273.264.835.215 1.325.043.777.472 1.516-.542.917-1.153-1.363-1.39-1.897-1.75-3.053-2.89 2.052-2.934 4.927-5.302 8.351-6.872.405-.187 1.019.021 1.398.475 1.616 1.93 1.448 2.05 2.553 3.399.17.206.402.49.528.686-2.96 1.943-4.576 3.795-6.68 5.068a.75.75 0 1 0 .777 1.283c1.133-.686 2.102-1.495 3.128-2.352 1.103-.921 2.244-1.874 3.791-2.87.391-.253.517-.584.553-.817.155-.985-.968-1.828-1.624-2.853-.482-.752-1.113-1.596-1.876-2.507-.817-.976-2.153-1.342-3.174-.875-.288.132-.566.28-.847.423-.88-1.48-1.492-3.385-2.298-4.855-.888-1.576-2.328-2.714-2.893-3.962-.697-1.687-.21-3.636-.873-5.693-.965-3.209-4.31-4.482-5.557-1.938-.239.574-.245 1.166-.23 1.724.062 2.21-.16 4.595.21 7.265-2.013-2.23-4.02-5.213-3.95-5.11C9.52 35.16 9.28 34.295 8.5 32.538c-.561-1.258-.556-2.589-1.163-4.562-.258-.633-.366-2.56-1.973-2.8-.55-.083-1.037.055-1.42.395-.24.212-.413.486-.545.797-1.12.833-1.344 2.145-1.382 3.53zm3.124-3.24c.449.067.575 1.34.783 1.82.525 1.716.557 3.213 1.205 4.67.758 1.698 1.038 2.692 2.212 4.386l.011.015c2.338 3.395 5.491 7.467 7.24 7.585.4.024.761-.28.792-.692s-.28-.77-.691-.804a.761.761 0 0 1-.268-.101c-.882-2.775-.528-6.116-.608-9.047-.018-.693-.034-1.388.704-1.537.732-.086 2.073 1.033 2.37 3.198.103.674.224 3.443.346 3.71.033.271.207.795.363 1.172.728 1.611 2.134 2.626 2.958 4.096.77 1.404 1.346 3.236 2.294 4.85a22.319 22.319 0 0 0-4.214 3.202c-3.959-2.731-8.573-5.928-11.594-9.66-1.724-2.124-2.13-3.463-3.039-6.076-1.558-4.526-1.365-7.408-1.45-8.216-.018-.639-.045-2.662.586-2.57z" fill="#000000" data-original="#000000" class=""></path><path d="M29.334 52.941c.327-.667.026-1.472-.7-1.827-.593-.76-2.302-.082-2.045 1.241.253 1.282 2.133 1.832 2.745.586zM61.476 48.785c3.2-3.774 4.2-7.499 4.5-12.155.077-1.21.005-2.283-.833-3.155-.45-1.695-2.174-1.77-3.008-.771-.5.6-.602 1.31-.848 1.8-.6 1.474-.815 2.897-1.384 3.914-.84 1.498-1.12 2.246-2.188 3.52-1.125 1.342-2.41 2.792-3.75 4.054.254-1.178.405-2.487.497-3.68h-.003c.035-.16.086-1.338.232-2.549.5-4.305-4.576-3.985-5.675.72-.348 1.392-.311 2.844-.891 3.942-.327.577-.829 1.063-1.359 1.579-1.443 1.396-1.655 1.776-2.682 3.669-.41.755-.832 1.523-1.28 2.153-.221-.138-.438-.282-.665-.412-.903-.52-2.165-.294-3 .534-.774.771-1.391 1.455-1.885 2.09-.68.874-1.761 1.53-1.702 2.468.015.227.106.556.457.83 2.12 1.66 4.053 3.977 5.75 5.233a.751.751 0 0 0 .893-1.207c-1.686-1.244-3.104-3.114-5.486-5.022.349-.418.828-.81 1.271-1.38.455-.585 1.031-1.223 1.76-1.949.389-.384.923-.455 1.195-.296 2.896 1.665 5.246 3.985 6.83 6.736-1.152.938-1.628 1.197-2.914 2.29-.69.586.069 1.689.87 1.201.4.165.845.23 1.091.033 1.02-.817 2.17-1.913 3.062-2.736.337-.31.423-.757.189-1.046-.462-.571-.939-1.147-1.401-1.718 4.966-1.756 9.228-5 12.357-8.69zm-17.428 3.882c.941-1.334 1.626-2.93 2.394-4.075 1.074-1.547 2.61-2.195 3.343-4.223.024-.068.052-.146.05-.156.247-.73.423-2.516.64-3.377.49-2.12 2.11-3.081 2.638-2.347.26.32.078.741-.135 3.602h.002l.001.001c-.095.427-.11 3.207-1.046 5.458-.067.025-.144.063-.191.065h-.016a.75.75 0 0 0-.017 1.5c1.984.022 6.098-5.03 7.159-6.22.913-1.09 1.32-1.851 1.837-2.816.766-1.428.857-1.447 1.355-3.168.573-1.975.507-1.474.838-2.405.087-.246.31-.934.556-.947.632-.036.127 2.96.092 3.258-.388 2.736-1.057 4.396-2.012 6.606-1.05 2.308-1.424 3.062-3.094 4.825-2.862 2.928-7.07 5.343-10.99 7.543a20.11 20.11 0 0 0-3.404-3.124z" fill="#000000" data-original="#000000" class=""></path><path d="M40.424 53.319c-1.387.547-1.032 2.446.341 2.446.646 0 1.316-.456 1.5-1.08.36-1.219-1.183-2.03-1.84-1.366zM38.313 19.346c3.519-.859 5.713-4.348 5.543-7.668-.138-2.684-2.524-5.616-5.32-6.535-2.655-.873-6.289.79-7.926 2.622-2.39 2.673-2.351 6.507-.52 9.07 1.697 2.376 5.051 3.741 8.223 2.51zm-.246-12.778c2.219.729 4.185 3.105 4.291 5.188.122 2.385-1.258 4.757-3.356 5.768-2.1 1.008-4.87.526-6.448-1.122-1.74-1.818-1.999-5.005-.589-7.255 1.153-1.84 3.945-3.288 6.102-2.58zM21.364 35.11c.02.394.33.718.719.782 9.33 1.55 18.22 1.351 27.777.117.447-.448.573-.688.644-1.047.427-.343.246-.776.289-1.149 0-5.982-3.615-11.409-8.995-13.505a1.21 1.21 0 0 0-.34-.04 2.302 2.302 0 0 0-.213.047l.011-.022c-2.312.525-1.352.192-5.16 5.176-3.699-5.132-3.66-5.226-4.075-5.291.048-.026.095-.056.143-.082-.88-.114-2.084.174-2.88.595-3.2 1.692-8.258 7.808-7.92 14.42zm15.378-7.754c.721 0 1.378-.336 1.8-.922l3.239-4.498c4.483 2.001 7.471 6.645 7.512 11.772-6.899.687-15.854 1.256-25.385.022.062-5.164 3.135-9.85 7.737-11.885l3.295 4.586c.72 1.003 1.902.95 1.802.925z" fill="#000000" data-original="#000000" class=""></path></g></svg>