<svg data-v-779a88fd="" data-v-ce81eafc="" xmlns="http://www.w3.org/2000/svg" viewBox="0 0 24 24" aria-label="help" role="presentation" class="h-icon-meteorite-dark has-tooltip" style="width: 20px; height: 20px;" data-original-title="null" aria-describedby="tooltip_8xz4lp2phh"><g data-v-779a88fd=""><path data-v-779a88fd="" d="M12 2C6.489 2 2 6.489 2 12C2 17.511 6.489 22 12 22C17.511 22 22 17.511 22 12C22 6.489 17.511 2 12 2ZM12 4C16.4301 4 20 7.56988 20 12C20 16.4301 16.4301 20 12 20C7.56988 20 4 16.4301 4 12C4 7.56988 7.56988 4 12 4ZM12 6C9.79 6 8 7.79 8 10H10C10 8.9 10.9 8 12 8C13.1 8 14 8.9 14 10C14 12 11 12.367 11 15H13C13 13.349 16 12.5 16 10C16 7.79 14.21 6 12 6ZM11 16V18H13V16H11Z"></path></g></svg>