<svg xmlns="http://www.w3.org/2000/svg" version="1.1" xmlns:xlink="http://www.w3.org/1999/xlink" xmlns:svgjs="http://svgjs.com/svgjs" x="0" y="0" viewBox="0 0 66 66" style="enable-background:new 0 0 512 512" xml:space="preserve" class=""><g><path d="M10.324 64.829c5.114-.099 10.699 1.633 10.679-4.946L20.93 31.94c-.003-.993-.006-2.229-.558-3.282-1.256-2.396-4.424-2.655-7.053-2.642-3.277.037-6.659.259-8.823 2.491-1.86 1.92-2.157 4.655-2.301 7.292-.455 8.315-.456 16.336-.002 23.839.324 5.342 4.296 5.263 8.131 5.191zm-3.157-1.101c.012-.012.009-.03.018-.044.007.031.018.06.036.087l-.126-.014c.024-.011.053-.009.072-.029zm.072-.269c-.012.012-.009.03-.018.044-.01-.045-.018-.093-.053-.128l-.518-.518.498-.498.596.596zm-.426.269a7.01 7.01 0 0 1-.865-.17l.348-.348zm.79.073.493-.493.374.373a.25.25 0 0 0 .354-.354l-.374-.373 1.048-1.048.772.771-.781.781a.25.25 0 0 0 0 .354c.019.019.046.017.069.029a26.904 26.904 0 0 1-1.955-.04zm2.702.029-.524.008c.02-.011.044-.008.061-.025l.781-.781.48.48a.25.25 0 0 0 .354-.354l-.481-.48.898-.898 1.123 1.124-.626.626c-.08.079-.077.194-.027.288a55.258 55.258 0 0 0-2.039.012zm2.714-3.195c.023-.023.022-.054.034-.081l1.147 1.147-.848.848-1.123-1.124zm-.241 3.195.574-.574.474.473a.25.25 0 1 0 .353-.354l-.473-.473.848-.848 1.299 1.299-.105.105a.25.25 0 1 0 .354.354l.105-.105.232.232c-1.452.139-2.099-.058-3.661-.109zm3.528-3.528 1.299 1.299L16.206 63l-1.299-1.299zm.754 3.552-.5-.5 1.399-1.398 1.067 1.067c-.53.447-1.232.7-1.966.831zm2.876-29.568-.339-.339.338-.338zm.046 17.559a.241.241 0 0 0-.064-.155l-.664-.664.724-.724zm.009 3.825-1.179-1.179 1.173-1.173zm.011 4.016-1.505-1.504 1.437-1.437a.24.24 0 0 0 .06-.145zM3.194 35.854c.134-2.448.4-4.978 2.021-6.65 1.896-1.956 5.049-2.153 8.116-2.187 2.314-.022 5.151.19 6.154 2.105.438.836.441 1.891.444 2.821l.003.961-.689.689-.031-.031a.25.25 0 1 0-.353.354l.069.069c-.016.079-.008.162.054.223.088.087.141.071.223.054l.423.423-.858.857a.25.25 0 1 0 .354.354l.814-.813.004 1.612-.429-.429a.25.25 0 0 0-.354.354l.533.533-1.273 1.273a.249.249 0 0 0 0 .353.25.25 0 0 0 .354 0l1.172-1.171.007 2.801-.351.351-.889-.889a.25.25 0 1 0-.353.354l.889.889-.899.899a.25.25 0 1 0 .353.354l.899-.899.273.273c.022.022.054.021.081.034l.007 2.552-1.05-1.05a.25.25 0 1 0-.354.354l1.055 1.055-1.265 1.265a.25.25 0 1 0 .353.354l1.261-1.261.005 1.889-.302.302-.754-.754c-.232-.233-.588.119-.354.354l.754.754-1.175 1.175a.25.25 0 1 0 .354.354l1.175-1.175.153.153a.243.243 0 0 0 .152.063l.005 1.783a.248.248 0 0 0-.346.003l-.731.73-.488-.488a.25.25 0 1 0-.354.353l.488.488-.408.408a.25.25 0 1 0 .354.354l.41-.41.664.664a.25.25 0 0 0 .354 0 .241.241 0 0 0 .064-.155l.003.974c-.093-.046-.203-.047-.281.03l-1.267 1.267c-.092-.044-.201-.046-.278.031s-.075.185-.031.278l-.552.552a.25.25 0 1 0 .354.354l.53-.53 1.505 1.505c.008.008.021.006.03.012v.174a.238.238 0 0 0-.06-.144.25.25 0 0 0-.354 0l-1.437 1.437-.634-.633a.25.25 0 1 0-.353.354l.633.633-.636.636a.25.25 0 1 0 .354.354l.636-.636 1.768 1.768c.023.023.055.022.083.035-.015.86-.086 1.663-.614 2.333l-1.069-1.069.676-.675a.25.25 0 1 0-.353-.354l-.676.675-1.55-1.55a.25.25 0 0 0-.354 0c-.057.057-.07.133-.06.208l-1.441 1.442-1.149-1.149a.249.249 0 0 0-.353 0c-.023.023-.022.055-.034.082a.25.25 0 0 0-.352.001l-.79.79-.373-.373a.25.25 0 1 0-.353.354l.373.373-.898.898-.772-.771.453-.453a.25.25 0 1 0-.354-.354l-.453.453-.3-.299a.25.25 0 1 0-.354.354l.3.299-1.048 1.048-.597-.598.511-.511a.25.25 0 1 0-.354-.354l-.511.511-.151-.151a.25.25 0 1 0-.353.354l.151.151-.497.498-.602-.602a.25.25 0 1 0-.354.354l.602.602-.529.529c-1.329-.52-2.089-1.599-2.223-3.807-.451-7.466-.45-15.448.004-23.725zM25.83 18.694c-1.826 2.406-2.119 5.854-2.263 9.18-.455 10.599-.456 20.829-.001 30.406.414 8.701 6.919 5.926 11.859 6.609 2.394.333 4.971-.047 6.2-2.137.755-1.284.752-2.87.749-4.144l-.072-35.673c-.011-4.904-1.378-7.506-7.61-7.425-3.297.048-6.696.332-8.862 3.184zm2.593 44.99.008.02-.016-.002c.005-.005.004-.012.008-.018zm.053-.225c-.012.012-.009.03-.018.044-.01-.045-.018-.093-.053-.128l-.518-.518.498-.498.596.595zm-.537.157a5.013 5.013 0 0 1-.635-.176l.23-.23zm.946.141.449-.449.374.373a.25.25 0 1 0 .353-.354l-.373-.373 1.049-1.048.772.772-.781.781a.248.248 0 0 0-.004.344c-.652.009-1.269.003-1.839-.046zm2.211.04.765-.765.48.48a.25.25 0 0 0 .354-.354l-.48-.48.898-.898 1.123 1.123-.626.626c-.066.066-.071.155-.047.239-1.001-.014-.012-.022-2.467.029zm3.161-3.162c.022-.022.021-.054.034-.081l1.147 1.147-.848.848-1.123-1.123zm-.192 3.145.524-.524.473.473a.25.25 0 0 0 .354-.354l-.474-.473.848-.848 1.299 1.299-.105.105a.25.25 0 1 0 .354.354l.105-.105.242.242c-1.409.145-1.919-.106-3.62-.169zm3.479-3.478 1.299 1.299L37.444 63l-1.299-1.299zm.759 3.557-.506-.506 1.399-1.399.99.99c-.53.488-1.192.772-1.883.915zm3.022-29.422-.491-.491.489-.489zm.014 6.823-.147-.147.146-.147zm.013 6.422-.095-.095.094-.094zm.017 8.127L40.05 54.49l1.246-1.245a.246.246 0 0 0 .068-.164zm-6.664-39.298c5.773-.084 6.587 2.22 6.597 6.427l.02 9.814-.841.841-.031-.031a.25.25 0 0 0-.354.354l.069.069c-.016.079-.008.162.054.223.088.087.141.07.223.054l.423.423-.857.857a.25.25 0 1 0 .354.354l.857-.857.095.096c.003.003.009.002.012.005l.004 1.706-.58-.58a.25.25 0 0 0-.354.354l.533.533-1.272 1.273a.249.249 0 0 0 0 .353.25.25 0 0 0 .354 0l1.312-1.312.009.004.006 2.847c-.033.012-.069.013-.096.04l-.403.403-.889-.889a.25.25 0 1 0-.354.354l.889.889-.898.898a.25.25 0 1 0 .354.354l.898-.898.273.273c.09.09.144.071.229.052l.005 2.42c-.011.008-.026.005-.035.015l-.104.104-1.056-1.055a.25.25 0 1 0-.354.354l1.056 1.055-1.265 1.265a.25.25 0 1 0 .354.354l1.406-1.406.004 1.929c-.021.011-.046.009-.064.026l-.382.382-.756-.757a.25.25 0 1 0-.354.354l.754.754-1.175 1.174a.25.25 0 1 0 .353.354l1.175-1.174.153.153c.102.102.196.082.296.024l.01 4.938a.248.248 0 0 0-.068-.164.25.25 0 0 0-.354 0l-1.268 1.267c-.093-.044-.201-.046-.278.031s-.075.186-.031.278l-.552.552a.25.25 0 1 0 .354.354l.53-.53L41.2 56.35a.244.244 0 0 0 .168.07l.005 2.191c.001.374 0 .779-.021 1.19l-1.619-1.619 1.437-1.436a.25.25 0 1 0-.354-.354l-1.437 1.436-.633-.633a.25.25 0 1 0-.354.354l.633.633-.637.637a.25.25 0 1 0 .354.354l.637-.637 1.768 1.768a.245.245 0 0 0 .162.067c-.131 1.216-.419 1.716-.795 2.197l-.965-.965.675-.675a.25.25 0 1 0-.354-.354l-.675.675-1.55-1.549a.25.25 0 0 0-.354 0c-.057.057-.07.133-.06.208l-1.442 1.442-1.149-1.149a.25.25 0 0 0-.354 0c-.023.023-.022.054-.034.082a.25.25 0 0 0-.351.001l-.791.791-.373-.373a.25.25 0 1 0-.354.354l.373.373-.898.898-.771-.772.454-.453a.25.25 0 1 0-.354-.354l-.454.453-.299-.299a.25.25 0 1 0-.353.354l.299.299-1.049 1.048-.596-.596.511-.511a.25.25 0 1 0-.354-.354l-.511.511-.151-.151a.25.25 0 1 0-.354.354l.151.151-.498.498-.601-.602a.25.25 0 1 0-.353.354l.601.602-.37.37c-1.291-.669-2.107-2.075-2.246-4.994-.452-9.546-.452-19.746.003-30.315.136-3.167.408-6.442 2.059-8.619 1.898-2.496 5.034-2.747 8.083-2.79zM45.341 46.152c-.458 5.322-.458 10.46-.002 15.271.44 4.635 6.695 3.158 11.892 3.521 3.486.24 6.931-.061 6.916-3.394l-.072-17.837c-.016-3.728-3.628-3.998-7.607-3.96-7.144.049-10.661.95-11.127 6.399zm3.539 17.517.892-.892 1.097 1.097a13.228 13.228 0 0 1-1.989-.205zm2.713.221-.05-.05c.012-.008.027-.005.038-.016l1.211-1.211 1.27 1.27c-.905.01-1.606.018-2.469.007zm5.706.055a36.296 36.296 0 0 0-2.783-.065c.045-.093.046-.202-.031-.279l-1.341-1.341.993-.993 1.319 1.319-.556.558a.249.249 0 0 0 0 .353.249.249 0 0 0 .353 0l.558-.558.688.688a.25.25 0 1 0 .353-.354l-.688-.688.871-.87 1.646 1.646-.19.19a.25.25 0 1 0 .354.354l.19-.19.117.117a.25.25 0 0 0 .354-.354l-.117-.118 1.361-1.361 1.412 1.412c-.985.488-2.699.685-4.863.534zm.09-2.583 1.361-1.361 1.646 1.646-1.361 1.361zm5.176 1.805c-.05-.139-1.358-1.415-1.462-1.52l1.442-1.442.395.395c.065.065.117.072.204.062l.004.89c.002.717-.028 1.187-.583 1.615zm.448-14.328c.023.023.055.022.082.034l.007 1.728c-.006-.007-.003-.016-.009-.023l-.901-.901c-.011-.011-.027-.008-.039-.016l.841-.841zm.101 4.618-.868-.868.861-.861zm.012 3.032-.228-.228.226-.226zm.003.71.012 2.896-.293-.293a.247.247 0 0 0-.252-.252l-1.492-1.492 1.442-1.442zm-.054-13.482.007 1.615-.21.21-.272-.272a.25.25 0 1 0-.354.353l.272.273-.68.68a.25.25 0 1 0 .354.354l.68-.68.214.214.007 1.651c-.025.001-.045.02-.069.029l-.587-.587a.25.25 0 1 0-.353.354l.558.558-.966.966a.25.25 0 0 0 0 .354c.028.028.066.03.102.042a.24.24 0 0 0 .062.203l.901.901a.249.249 0 0 0 .354 0c.007-.007.005-.018.011-.025v.116l-1.212 1.212-.028-.027a.25.25 0 1 0-.354.354l.027.027-.354.354a.25.25 0 1 0 .354.354l.354-.354 1.225 1.225.005 1.165-.576.576-1.089-1.089a.25.25 0 1 0-.354.354l1.089 1.089-1.442 1.442-.273-.273a.25.25 0 1 0-.353.354l.273.273-.109.109a.25.25 0 1 0 .354.354l.109-.109 1.442 1.442-1.442 1.442-1.646-1.646.477-.477a.25.25 0 1 0-.354-.354l-.477.477-.313-.313a.25.25 0 1 0-.353.354l.313.313-1.361 1.361-.966-.966a.25.25 0 1 0-.354.354l.966.966-.871.87-1.319-1.319 1.596-1.596a.25.25 0 1 0-.354-.354l-1.596 1.596-.109-.109a.25.25 0 1 0-.354.354l.109.109-.993.993-.803-.803a.25.25 0 1 0-.354.354l.803.803-1.211 1.211c-.01.01-.007.026-.016.038l-1.086-1.086 2.73-2.731a.25.25 0 1 0-.354-.354l-2.73 2.731-.395-.394a.25.25 0 1 0-.354.354l.395.394-1.118 1.118c-1.159-.34-1.849-.987-1.965-2.213-.451-4.751-.45-9.828.002-15.09.378-4.413 2.719-5.433 10.138-5.485 6.666-.064 6.594 1.605 6.6 2.957zM33.914 11.811a.5.5 0 0 0 .519-.48l.368-9.818a.499.499 0 0 0-.5-.519h-.004l-3.285.026a.5.5 0 0 0 .004 1h.003l2.763-.022-.349 9.295a.5.5 0 0 0 .481.518zM51.105 25.933a.5.5 0 1 0 .477.879c1-.542 2.699-1.432 3.689-.385.547.578.441 1.558.055 2.229-.46.795-1.295 1.392-2.031 1.919a.5.5 0 0 0 .437.885c.807-.233 1.969 1.175 1.394 2.605-.805 1.998-3.644 1.988-4.436-.006a.5.5 0 0 0-.929.37c1.122 2.814 5.145 2.86 6.293.009.591-1.469-.014-3.045-1.22-3.765 2.214-1.803 2.158-3.883 1.165-4.933-1.34-1.413-3.304-.67-4.894.193zM8.376 15.318c.715-.606 1.526-1.292 2.448-1.567 1.3-.387 3.635.161 2.076 3.534-1.692 3.657-3.463 4.75-4.286 5.75a.5.5 0 0 0 .037.678c.334.323.611.08.915-.198 1.256-.76 5.72 1.849 7.958-2.032a.5.5 0 1 0-.868-.499c-1.433 2.488-3.924 1.559-5.974 1.41a18.525 18.525 0 0 0 3.125-4.689c1.872-4.053-1.022-5.585-3.27-4.911-1.123.334-2.019 1.092-2.81 1.761a.502.502 0 1 0 .649.763z"  data-original="#000000" class=""></path><path d="M48.141 43.98c.118.187.267.354.412.522-.528.683-.652 1.555-.705 2.476a1.49 1.49 0 0 0-.43-.111.25.25 0 1 0-.041.499.99.99 0 0 1 .446.161c-.027.584-.033 1.166-.054 1.751l-.323-.072a.25.25 0 0 0-.108.488l.415.092c-.019.572-.04 1.141-.053 1.711l-.102-.015a.243.243 0 0 0-.284.209.25.25 0 0 0 .21.285l.161.024c-.008.398-.032.802-.037 1.197a.25.25 0 0 0 .247.253h.003a.25.25 0 0 0 .25-.247c.005-.373.028-.753.035-1.128l.392.059a.25.25 0 1 0 .074-.494l-.451-.068c.013-.558.034-1.116.052-1.676l.483.107a.25.25 0 1 0 .108-.488l-.574-.127c.018-.51.024-1.017.047-1.527a.237.237 0 0 0 .134-.045.25.25 0 0 0 .051-.35 1.428 1.428 0 0 0-.168-.18c.002-.037.002-.075.003-.112.043-.871.137-1.694.57-2.304.173.161.346.323.54.455a.251.251 0 0 0 .348-.066.25.25 0 0 0-.066-.347c-.172-.117-.326-.261-.479-.404.438-.366 1.015-.568 1.659-.701l.236.393a.251.251 0 0 0 .344.086.251.251 0 0 0 .086-.343l-.141-.235.057-.011 1.506-.251.111.319a.25.25 0 0 0 .318.154.25.25 0 0 0 .154-.318l-.083-.239 1.456-.243a.25.25 0 0 0 .206-.288.248.248 0 0 0-.288-.206l-1.541.257-.116-.334a.25.25 0 0 0-.472.165l.088.252-1.421.237c-.084.014-.165.033-.248.047l-.245-.409a.25.25 0 0 0-.43.257l.151.252c-.658.147-1.25.383-1.728.793-.119-.141-.244-.279-.343-.434a.252.252 0 0 0-.345-.078.257.257 0 0 0-.077.35zM39.783 51.026l-.408.408a.25.25 0 1 0 .353.354l.408-.408.664.664c.049.049.112.073.177.073s.128-.024.177-.073a.25.25 0 0 0 0-.354l-.664-.664.73-.73a.25.25 0 1 0-.353-.354l-.731.73-.488-.488a.249.249 0 0 0-.353 0 .249.249 0 0 0 0 .353zM26.226 22.909a.25.25 0 1 0-.289.408l.603.427c-.209.73-.333 1.478-.402 2.239l-.02-.014a.25.25 0 0 0-.285.412l.259.179a25.241 25.241 0 0 0-.012 2.168l-.398-.137a.25.25 0 0 0-.163.473l.58.2c.012.267.025.535.04.805.021.387.037.843.048 1.328l-.246-.038a.25.25 0 1 0-.076.494l.332.052c.012.708.016 1.455.016 2.156l-.021-.003a.254.254 0 0 0-.285.209.25.25 0 0 0 .209.285l.097.015c-.003 1.352-.02 2.417-.021 2.439a.25.25 0 0 0 .246.254h.004a.25.25 0 0 0 .25-.246c0-.022.017-1.05.021-2.37l.962.147a.25.25 0 1 0 .076-.494l-1.037-.159c0-.697-.003-1.443-.015-2.155l.572.089a.25.25 0 0 0 .076-.494l-.658-.102a46.13 46.13 0 0 0-.051-1.434l-.03-.601.413.142a.25.25 0 0 0 .318-.155.25.25 0 0 0-.155-.318l-.598-.207a26.843 26.843 0 0 1-.007-2.005l.352.244a.253.253 0 0 0 .349-.064.251.251 0 0 0-.063-.348l-.605-.419c.056-.771.163-1.528.358-2.262l.481.341a.252.252 0 0 0 .349-.059.248.248 0 0 0-.06-.348l-.614-.436c.035-.108.064-.218.103-.326.197-.535.48-1.074.826-1.583l.341.462a.25.25 0 0 0 .403-.298l-.434-.588a6.383 6.383 0 0 1 1.422-1.333c.231.286.498.543.798.761a.25.25 0 0 0 .348-.055.249.249 0 0 0-.056-.349 3.678 3.678 0 0 1-.654-.617 4.532 4.532 0 0 1 1.805-.559.25.25 0 1 0-.04-.498c-.74.059-1.418.299-2.038.642-.087-.137-.19-.264-.258-.413a.25.25 0 0 0-.455.209c.075.163.161.322.256.473a6.848 6.848 0 0 0-1.439 1.322l-.206-.279a.253.253 0 0 0-.35-.053.25.25 0 0 0-.053.35l.298.404a7.845 7.845 0 0 0-.986 1.83c-.024.064-.04.13-.062.195zM4.092 39.685l.775.115c.002 1.107.035 2.215.088 3.321a2.02 2.02 0 0 1-.719-.016.245.245 0 0 0-.297.193.25.25 0 0 0 .193.296c.472.099.572.045.848.008.055 1.045.125 2.087.206 3.125l-.668.158a.249.249 0 1 0 .115.485l.594-.14c.08.998.166 1.991.253 2.976a.25.25 0 0 0 .248.228h.001a.25.25 0 0 0 .249-.226l.063-.63a.252.252 0 0 0-.135-.247c-.064-.736-.126-1.476-.186-2.218l.737-.174c.135-.032.218-.167.186-.301s-.161-.221-.301-.186l-.662.157c-.08-1.037-.15-2.078-.204-3.122.152-.053.305-.103.444-.184a.251.251 0 0 0 .09-.342.25.25 0 0 0-.342-.089c-.07.041-.145.07-.219.102a69.753 69.753 0 0 1-.079-3.1l.164.024a.25.25 0 0 0 .074-.494l-.239-.036a49.99 49.99 0 0 1 .099-2.976l.289.039a.251.251 0 0 0 .282-.213.25.25 0 0 0-.214-.281l-.318-.043c.065-.815.18-1.632.398-2.407l.17.095a.25.25 0 1 0 .244-.436l-.268-.15c.283-.786.647-1.437 1.318-2.023l.6.599a.25.25 0 0 0 .354-.354l-.553-.552c.561-.372 1.218-.582 1.91-.484a.24.24 0 0 0 .282-.213.251.251 0 0 0-.214-.282c-.856-.118-1.658.16-2.33.628l-.278-.277a.25.25 0 1 0-.353.354l.233.232c-.742.654-1.1 1.305-1.407 2.126l-.403-.226a.25.25 0 1 0-.244.436l.49.274c-.249.837-.374 1.717-.445 2.591l-.473-.065a.246.246 0 0 0-.282.214.249.249 0 0 0 .214.281l.501.069a50.702 50.702 0 0 0-.098 2.97l-.707-.104a.24.24 0 0 0-.284.21.25.25 0 0 0 .21.285z"  data-original="#000000" class=""></path></g></svg>