<svg xmlns="http://www.w3.org/2000/svg" version="1.1" xmlns:xlink="http://www.w3.org/1999/xlink" xmlns:svgjs="http://svgjs.com/svgjs" x="0" y="0" viewBox="0 0 68 68" style="enable-background:new 0 0 512 512" xml:space="preserve" class=""><g><path d="M64.152 59.806h-2.517l.145-11.8a1.94 1.94 0 0 0-1.938-1.938H45.044a997.522 997.522 0 0 0-.108-10.484c-.02-1.063-.895-1.941-2.07-1.88a152.73 152.73 0 0 1-18.274.206 1.945 1.945 0 0 0-1.309.433c-1.379.743-1.864 2.672-1.81 4.2l.129 3.66H6.966c-.73 0-1.36.412-1.69 1.011-1.335 1.16-1.47 2.668-1.488 4.418L3.66 59.807h-.422c-1.886-.183-3.352 3.958.106 5.235.902.332 1.847.332 2.68.332 19.506.007 38.463.071 56.475-.49.769-.024 1.725-.055 2.583-.459.898-.42 1.757-1.378 1.654-2.564-.104-1.187-1.382-2.51-2.584-2.055zm-3.872-11.81-.145 11.81h-13.85c-.096-1.433.051-.615-.296-7.019-.093-1.725-.069-3.443.413-5.22h13.44c.241 0 .438.197.438.43zM42.973 35.2a.43.43 0 0 1 .33.112c.315.289.174 13.223.365 24.494H24.545c.05-.33.045 1.822-.48-23.97-.006-.22.146-.417.454-.428 6.124.298 12.334.23 18.454-.208zM22.22 59.807H6.484c.093-.294.021.863.045-15.666 0-.241.196-.438.437-.438h14.688l.566 16.104zm42.225 3.26c-.578.273-1.297.296-1.992.317-17.751.554-36.917.495-56.428.49-.743 0-1.51 0-2.162-.239-.6-.222-1.034-.665-1.109-1.13-.08-.504.254-1.165.456-1.2 65.603-.022 61.156.08 61.438-.092.176.02.565.453.594.776.038.445-.371.88-.797 1.079z" data-original="#000000" class=""></path><path d="m29.64 45.025 3.148-2.426.011 9.942a.75.75 0 0 0 1.5 0l-.012-11.466a.751.751 0 0 0-1.208-.594l-4.356 3.354a.752.752 0 0 0 .916 1.19zM11.536 49.208c.615-.277 1.251-.564 1.867-.589.446-.003 1 .15 1.196.553.153.315.105.784-.15 1.436a8.891 8.891 0 0 1-2.79 3.761c-.592.467-.202 1.434.574 1.332l5.244-.773a.75.75 0 1 0-.219-1.484l-2.99.441c1.041-1.297 2.459-3.77 1.68-5.37-.434-.89-1.468-1.454-2.603-1.394-.908.035-1.715.399-2.427.72a.75.75 0 0 0 .618 1.367zM49.96 58.404c3.526.961 5.73-2.684 3.725-4.633 1.385-1.479.797-3.65-1.148-4.172-1.623-.437-3.152.687-2.412 1.539a.751.751 0 0 0 1.059.074c.487-.427 1.501-.165 1.716.46.185.537-.27 1.257-.844 1.397-.151-.02-.266.007-.397.033-.87.159-.787 1.44.097 1.486.13.008.256.001.382-.013.354.055.707.383.78.769.195 1.021-.977 2.04-2.568 1.612a.747.747 0 0 0-.919.529c-.108.399.128.811.528.919zM45.915 9.451a.75.75 0 0 0-.753-1.114l-8.8 1.206c-6.286-6.813-5.918-6.69-6.383-6.788-.166-.21-.434-.145-.661-.004-.746.46-1.091 1.464-1.31 2.32-.16.627-.955 5.378-.971 5.479-.035.214-.309 1.31-.376 1.93-7.63 3.468-7.252 3.24-7.431 3.403-.331.245-.502.728-.415 1.123.077.35.305.646.551.905 2.054 2.164 6.974 3.537 7.912 4.048 1.019 8.807.81 8.098 1.056 8.546.272.498 1.062.618 1.556.482.804-.223.822-.365 7.355-6.268l7.316 1.509a.75.75 0 0 0 .826-1.06l-3.866-7.998zm-2.54 15.001-7.597-1.567a.742.742 0 0 0-.671.193l-5.598 5.37-.857-7.71a.75.75 0 0 0-.39-.579l-6.838-3.665 7.069-3.197a.75.75 0 0 0 .428-.55l1.373-7.635 5.225 5.733a.75.75 0 0 0 .656.238l7.686-1.053-3.838 6.74a.75.75 0 0 0-.024.698z" data-original="#000000" class=""></path><path d="M48.603 14.236a.75.75 0 1 0-1.04-1.082l-2.821 2.712c-.49.47-.15 1.291.52 1.291.187 0 .373-.069.519-.209zM51.902 19.244a.75.75 0 0 0-.75-.75h-3.435a.75.75 0 0 0 0 1.5h3.435a.75.75 0 0 0 .75-.75zM47.148 23.527a.75.75 0 0 0 .08 1.057c2.694 2.228 2.67 2.47 3.161 2.47.695 0 1.014-.868.488-1.318l-2.672-2.29a.752.752 0 0 0-1.057.08z" data-original="#000000" class=""></path></g></svg>