<svg xmlns="http://www.w3.org/2000/svg" version="1.1" xmlns:xlink="http://www.w3.org/1999/xlink" xmlns:svgjs="http://svgjs.com/svgjs" width="512" height="512" x="0" y="0" viewBox="0 0 73 73" style="enable-background:new 0 0 512 512" xml:space="preserve" class=""><g><path d="M61.548 48.151a4.53 4.53 0 0 0 .308-1.54c.984-13.791 1.168-25.807.56-36.683.035-2.594-2.065-4.62-4.52-4.62h-.001c-15.205-.594-34.489-1.129-48.71 0-.812 0-1.565.23-2.226.605-1.534.19-2.76 1.687-3.35 3.017-.778 1.75-.833 3.722-.875 5.636-.202 9.056-.103 18.083-.305 27.138-.234 10.544 1.01 11.171 11.19 11.637 12.956.593 25.935.083 38.896-.444.081 3.497.184 6.994.318 10.475.01.252.314.558.504.722.286.45.886.45 1.197.088.95-1.107 1.7-1.88 3.455-3.797 1.247 2.255 2.659 4.63 3.918 6.895.361.649.975.929 1.717.966.185.07.352.131.705.097 1.47-.136 2.494-.75 3.315-1.984a1.599 1.599 0 0 0 .06-1.693c-1.43-2.444-2.843-4.873-4.34-7.632 2.118-.301 3.684-.403 6.56-.705a.75.75 0 0 0 .41-1.316c-2.786-2.393-5.777-4.706-8.786-6.862zm-7.323-4.91a.75.75 0 0 0-1.149.641l.002.19-.577.975c-.19.32-.125.168-.045 4.66-4.607.052-21.863.62-43.27-.13-1.682 0-3.05-1.371-3.052-3.117-.63-8.098-.76-17.283-.392-27.903h55.483c.23 13.18-.772 27.96-.96 28.71a153.657 153.657 0 0 0-6.04-4.025zM9.245 6.806c14.446-1.143 34.087-.563 48.62.002 1.65 0 3.075 1.314 3.052 3.153.129 2.31.214 4.682.271 7.097H5.797c.09-2.332.202-4.727.339-7.199 0-1.683 1.368-3.05 3.11-3.053zm52.836 48.906a.75.75 0 0 0-.543 1.093c1.698 3.178 3.274 5.89 4.871 8.62l.648-.38-.66.48c-.66.995-1.334 1.245-2.297 1.286-.075-.133-4.659-8.572-4.747-8.737a.75.75 0 0 0-1.213-.103c-1.03 1.2-2.247 2.472-3.44 3.77-.01-1.057-.11-16.35-.111-16.488 4.406 2.84 9.327 6.354 13.422 9.762-2.24.216-3.767.35-5.93.697z" fill="#000000" data-original="#000000" class=""></path><path d="M10.19 14.357c1.243-.233 1.794-1.537 1.095-2.588-.328-.494-.852-.789-1.404-.789-.099.048-.213.023-.308.065-.417-.034-1.144.432-1.336 1.29-.273 1.231.7 2.245 1.953 2.022zM15.872 14.285c1.406 0 2.231-1.432 1.438-2.622-.567-.85-1.507-.814-1.407-.786a.748.748 0 0 0-.302.064.684.684 0 0 0-.307.049c-1.649.628-1.352 3.295.578 3.295zM22.615 14.383c1.244-.23 1.793-1.537 1.094-2.588-.476-.72-1.3-.904-1.709-.723a.734.734 0 0 0-.307.048c-1.8.688-1.232 3.665.922 3.263zM32.453 12.409h.009l20.673-.24c.414-.005.746-.345.741-.76s-.329-.71-.759-.74l-20.673.24a.75.75 0 0 0 .01 1.5zM23.728 23.586H11.834c-1.78 0-3.226 1.289-3.226 2.873v9.43c0 1.562 1.427 2.85 3.182 2.871 15.245.184 10.782.14 11.622.14 1.73 0 3.173-1.241 3.226-2.787l.315-9.57c.024-.72-.254-1.416-.78-1.96-.612-.633-1.504-.997-2.445-.997zm1.41 12.477c-.025.75-.834 1.328-1.752 1.337l-11.578-.14c-.938-.011-1.7-.627-1.7-1.372v-9.43c0-.756.774-1.372 1.726-1.372h11.894c.537 0 1.036.197 1.368.54.17.176.37.47.357.869zM52.242 26.068H34.954a.75.75 0 0 0 0 1.5h17.288a.75.75 0 0 0 0-1.5zM51.935 34.556H31.036a.75.75 0 0 0 0 1.5h20.899a.75.75 0 0 0 0-1.5zM46.189 42.131H35.737a.75.75 0 0 0 0 1.5H46.19a.75.75 0 0 0 0-1.5z" fill="#000000" data-original="#000000" class=""></path></g></svg>