<svg xmlns="http://www.w3.org/2000/svg" version="1.1" xmlns:xlink="http://www.w3.org/1999/xlink" xmlns:svgjs="http://svgjs.com/svgjs" width="512" height="512" x="0" y="0" viewBox="0 0 52 52" style="enable-background:new 0 0 512 512" xml:space="preserve" class=""><g><path d="M49 7.1c0-.2 0-.4.1-.6 0-.3 0-.6.1-.9 0-.3 0-.7-.1-1-.1-.7-.5-1.4-1-1.8-1.1-.9-2.3-1.1-3.4-1.2s-2.2.1-3.2.2c-2.1.4-3.9.9-5.6 1.7-.8.4-1.7.8-2.4 1.4-.3.3-.7.8-.7 1.4s.2 1.1.5 1.4c.5.7 1.2 1.1 1.5 1.6.3.4.1.8-.2 1.3-.2.4-.5.7-.8 1-1.2-.3-21.5-.6-22.8-.6H8.6c-.9 0-1.8.2-2.6.7s-1.5 1.4-1.8 2.2c-.4.9-.5 1.8-.6 2.7-.2 1.9 0 3.7-.1 5.5-.6 6.4-.7 12.3-.5 18.3 0 1.1.1 2.1.2 3.2S3.5 46 4.5 47c.5.5 1.2.8 1.8.9.2.1.5.1.8.1v.5c0 .4.2.8.4 1.1-.2 0-.4 0-.5-.1-1-.2-1.5-.9-1.8-1.4s-.4-.8-.4-.8 0 .3.2.9c.2.5.7 1.4 1.9 1.8 1.1.3 2.5.3 4 .3 1.6 0 3.3 0 5.3-.1 3.9-.2 8.5 0 13.7 0 2.6 0 5.3.1 8.1.1.7 0 1.5-.1 2.3-.3s1.6-.9 2-1.7c.1-.2.2-.4.2-.6s.1-.4.1-.6c.1-.4.2-.8.2-1.1.1-.8.2-1.5.2-2.3.1-1.7 0-3.1-.2-8.7-.1-2.8-.2-5.5-.4-8.1 0-.6-.1-1.3-.1-1.9-.1-1-.3-1.8.1-2.3.1-.2.2-.3.3-.3.2-.1.7.1 1.3.3s1.4.3 2 .1c.7-.2 1.2-.8 1.5-1.3.6-1 .8-2.1 1-3.1.6-3.9.6-7.1.5-9.3.1-.8 0-1.5 0-2zm-.5 3.4c-.1 1.6-.2 3.6-.6 5.8-.3-.1-.5-.2-.8-.1l.3-1.2c.1-.5.3-1.1.4-1.6.3-1 .5-2 .7-2.9zM5.4 46c-.6-.5-.8-1.5-.9-2.5-.1-1.4-.3-5.2-.3-9.4 0-4.1.1-8 .3-11.7.1-2-.1-3.8 0-5.5s.6-3.3 1.8-4.1 2.8-.6 4.4-.6c1.7 0 21-.1 22.7-.5-.4.4-.8.8-1.1 1.2-1.2 1.2-1.8 2-1.7 2.1s.8-.6 2.1-1.6c.7-.6 1.5-1.2 2.3-2.3.2-.3.4-.6.5-1s0-.9-.2-1.3c-.5-.7-1.1-1.1-1.4-1.7-.4-.6-.4-1 .2-1.5.5-.5 1.3-.8 2.1-1.1 1.6-.6 3.5-1.2 5.4-1.5 1-.1 2-.2 3-.2 1 .1 2 .3 2.6.8.3.3.5.6.6 1.1.1.4 0 .9 0 1.5-.1 1.1-.2 2.2-.5 3.4-.2 1.1-.5 2.2-.7 3.3-.1.6-.3 1-.4 1.7-.1.6-.2 1.1-.3 1.6s-.3 1-.5 1.3-.4.3-.7.3l-.3-.1-.3-.1c-.2-.1-.3-.2-.5-.3-.3-.3-.6-.7-1-1.1-.2-.2-.4-.4-.8-.6-.3-.2-.9-.2-1.2 0-.4.1-.6.4-.8.6-1.3 1.4-2.4 3.5-3.8 4.7-.6.5-1.2 1-1.8 1-.5 0-1.1-.3-1.6-.8-.5-.4-1-.8-1.4-1.2-.8-.8-1.3-1.7-1.2-2.5 0-.8.4-1.3.6-1.7s.4-.6.3-.6c0 0-.2.1-.6.4-.3.3-.8.9-.9 1.8-.1 1 .4 2.1 1.2 3.1.4.5.9 1 1.4 1.4s1.2 1.1 2.2 1.1c.5 0 1-.2 1.3-.4.4-.2.8-.5 1.1-.8.9-.8 1.7-1.7 2.4-2.7v3.4c0 3.2 0 7.8-.1 13.4-.1 1.4 0 3 .1 4.5 0 1.5.1 3.2-.3 4.6-.2.7-.7 1.1-1.4 1.3s-1.5.2-2.4.2c-1.8 0-3.6 0-5.5-.1-3.8 0-7.7-.1-11.8 0-2 .1-4.1.2-6.2.2-1 0-2.1.1-3.2 0-1.3.1-2.2.1-2.8-.5zm35.7.9c0 .2-.1.3-.1.5 0 .1-.1.2-.1.3-.2-.2-.5-.4-.9-.6-.4-.3-.8-.5-1.1-.7.3-.3.5-.7.6-1.1 0-.1 0-.2.1-.4.5.4 1.2.5 1.7.3 0 .2 0 .4-.1.6.1.4 0 .7-.1 1.1zm.3-10.4c-.2 0-.3 0-.5.1-.4.1-.9.1-1.2.1v-3.3c.3.2.7.3 1.2.3.1 0 .3 0 .4-.1.1.5 0-.3.1 2.9zm.1 7.2v.2c-.2 0-.4-.1-.7-.1h-1c.1-.7.1-1.4.1-2.1.2.1.5.1.8.1s.6 0 .8-.1c.1.7.1 1.4 0 2zm-.7-11.5c-.4 0-.8.1-1.1.3 0-1.3 0-2.6-.1-3.7.3.3.9.5 1.5.4 0 1 .1 2 .1 3.1-.1-.1-.2-.1-.4-.1zm0-4.4c-.4 0-.9.1-1.1.3 0-1.1-.1-2.1-.1-3 .3.2.6.3 1.1.2.1 0 .3-.1.4-.1.1 2.2 0 1.6.1 2.5-.2.1-.3.1-.4.1zm.2-4.6v.7h-.5c-.4.1-.7.2-.9.3-.1-1.6-.1-2.2-.1-2.6.2.2.6.3 1.1.4.3.1.6.1.9.1-.4.4-.5.8-.5 1.1zm.5 17.4c-.2 0-.4-.1-.8-.1-.3 0-.6 0-.8.1v-.3c0-.9-.1-1.7-.1-2.5.3.2.8.3 1.3.2.1 0 .2 0 .3-.1.1 2.6.1 1.7.1 2.7zm.4-19.1c-.1-.3-.5-.7-1.2-.8-.6-.1-1.1 0-1.4.3 0-.7-.1-1.7-.2-2.4.3-.4.6-.7.9-1.1s.6-.7.8-.8h.2c.1.1.3.2.4.3.2.2.5.5.7.8-.4 0-.8.9-.6 2 .1.6.3 1.1.6 1.4-.1.2-.1.3-.2.3zm-6.5 27c0 .2.1.3.2.5h-2.4v-.6c0-.3-.1-.6-.3-.8h2.5c-.1.3-.1.6 0 .9zm-7.7.5h-3.1v-.4c0-.4-.2-.7-.3-.9h3.2c-.2.5 0 1 .2 1.3zm-13-.7c0 .5.2.8.4 1.1-1.2.1-2.4.1-3.5.2.1-.4.1-1-.1-1.6 1 0 2.1-.1 3.1-.1.1.1.1.2.1.4zm-6.2 1.4c.1-.3 0-.8 0-1.2v-.4h1.9c-.1.5 0 1.1.2 1.6-.8-.1-1.5 0-2.1 0zm7.4-.4c.1-.3.2-.7.2-1.1 0-.1 0-.3-.1-.4 1.8-.1 1.3-.1 3.3-.1-.1.5-.1 1 .1 1.4-2.1.1-3 .2-3.5.2zm4.7-.2c.1-.2.1-.5.1-.7s0-.5-.1-.7h2.9c-.3.4-.3.9-.2 1.4h-2.7zm8.2-.1c.1-.2.1-.6.1-.9 0-.2-.1-.3-.1-.4h3.1c-.1.2-.2.6-.1 1 0 .1.1.3.1.4h-2c-.5-.1-.8-.1-1.1-.1zm9 0h-.9c0-.5-.1-1-.3-1.5.3 0 .6-.1.9-.2s.5-.2.7-.3c.1.4.5.8 1 1.2.2.2.5.3.8.4-.6.3-1.4.4-2.2.4zm7.3-27.3c-.2 0-.4-.1-.7-.2-.5-.2-.9-.4-1.4-.4 0-.4 0-.9-.1-1.4s-.2-1-.3-1.3c.2.2.4.3.6.4l.4.2.5.1c.2 0 .4.1.6 0 0 .9.4 1.8 1.2 2.4-.1 0-.2.1-.2.1-.2.1-.4.1-.6.1zm1.7-1c-.1-.2-.3-.5-.4-.8-.2-.4-.4-.8-.5-1.1.2-.1.3-.3.4-.4.3-.4.5-.8.6-1.2.2.3.5.5.8.6 0 .2-.1.3-.1.5-.2.8-.4 1.7-.8 2.4z" fill="#000000" data-original="#000000" class=""></path></g></svg>