<svg xmlns="http://www.w3.org/2000/svg" version="1.1" xmlns:xlink="http://www.w3.org/1999/xlink" xmlns:svgjs="http://svgjs.com/svgjs" x="0" y="0" viewBox="0 0 52 52" style="enable-background:new 0 0 512 512" xml:space="preserve" class=""><g><path d="M19.2 25.1c-.1 1.8.6 3.6 1.9 4.9s3.1 2.1 4.9 2.1 3.7-.8 4.9-2.1c1.3-1.3 2-3.2 1.9-4.9-.1-1.8-.9-3.5-2.2-4.6s-3-1.6-4.6-1.4c1.6.2 3 1 3.9 2.1 1 1.1 1.4 2.5 1.3 3.9-.1 2.8-2.6 5.1-5.3 5-2.7.1-5.2-2.2-5.3-5-.1-1.4.4-2.8 1.3-3.9s2.3-1.9 3.9-2.1c-1.6-.2-3.3.3-4.6 1.4-1.1 1.1-2 2.8-2 4.6z"  data-original="#000000" class=""></path><path d="M24 27.6c.2.4.7.6 1 .3l.3-.2c.8-.6 1.6-1.2 2.2-2l.9-1.2c.3-.4.5-.9.7-1.5-.6.1-1.1.3-1.5.6-.5.2-.9.5-1.3.8-.6.4-1.1 1-1.6 1.5-.4-.3-.7-.6-1.2-.8-.1 1 .2 1.8.5 2.5z"  data-original="#000000" class=""></path><path d="M48.1 22c-.6 0-1.2.4-1.6.9-.3.5-.5 1.1-.3 1.6.3-1 1.2-1.4 1.9-1.3s1.1.7 1.1 1.3-.4 1.2-1.1 1.3-1.5-.3-1.9-1.3c-.7-.3-1.4-.5-2.1-.6-1.3-.2-3-.2-4.2 0-.5.1-.9.2-1.4.3v-.5l-.1-4.6c.8.2 1.5.3 2.3.3.6.1 1.5-.1 2-.6.3-.3.5-.6.6-1 .1-.2.1-.4.1-.6v-.5c0-1.1 0-2.3-.2-3.4-.1-1.1-.3-2.3-.6-3.4-1-.3-1.4-1.2-1.3-1.9.3-.6.9-1 1.5-1s1.2.4 1.3 1.1-.3 1.6-1.3 1.9c.5.2 1.1.1 1.6-.3.5-.3.8-.9.9-1.6.1-.6-.2-1.3-.6-1.8-.5-.5-1.1-.8-1.8-.8s-1.4.3-1.8.8c-.5.5-.7 1.2-.6 1.8 0 .6.4 1.2.9 1.6.5.3 1.1.5 1.6.3-.3 1.1-.5 2.3-.6 3.4s-.2 2.3-.2 3.4c0 .8-.4 1.4-1.4 1.5-.8.1-1.5.2-2.3.3 0-.1-.1-2.2 0-2.1 0-.3-.3-.6-.6-.6-1.5.1-3.1-.5-4.2-1.6-1.2-1.1-1.9-2.6-2-4.2 0-.1-.1-.2-.3-.2-1.9.1-3.7.1-5.4.2 1.7.1 3.4.2 5.1.2 0 1.7.6 3.4 1.8 4.6 1.1 1.2 2.6 1.9 4.2 2.1l-.2 6.5c-.1 2.3-.6 4.5-1.6 6.5s-2.4 3.8-4.1 5.2c-.4.4-.9.7-1.4 1-.2.1-4.1 2.7-3.9 2.6-.1-.1-4.1-2.7-3.9-2.6-.5-.3-.9-.6-1.4-1-3.6-3-5.6-7.1-5.7-11.7l-.2-6.5c1.6-.2 3.2-1 4.2-2.1 1.2-1.3 1.8-3 1.8-4.6 1.7-.1 3.4-.1 5.1-.2-1.8-.1-3.5-.2-5.3-.3-.1 0-.3.1-.3.2-.1 1.6-.8 3.2-2 4.2-1.2 1.1-2.7 1.6-4.2 1.6-.3 0-.6.3-.6.6s-.1 2.3-.1 2.1c-.9-.2-1.7-.3-2.6-.4s-1.4-.7-1.4-1.5c0-1.1 0-2.3-.2-3.4-.1-1.1-.3-2.3-.6-3.4.5.2 1.1.1 1.6-.3.5-.3.8-.9.9-1.6.1-.6-.2-1.3-.6-1.8-.5-.5-1.1-.8-1.8-.8-.4.2-1.1.5-1.6 1s-.7 1.2-.6 1.8c0 .6.4 1.2.9 1.6.4.3 1 .5 1.5.3-1-.3-1.4-1.2-1.3-1.9.2-.7.7-1.1 1.3-1.1s1.2.4 1.3 1.1-.3 1.5-1.3 1.9c-.3 1.1-.5 2.3-.6 3.4S8 15.7 8 16.8v.5c0 .2.1.4.1.6.1.4.4.7.6 1 .5.5 1.4.8 2 .6.9-.1 1.7-.2 2.6-.4l-.1 4.7v.5c-.4-.1-.9-.2-1.3-.3-1.3-.2-2.9-.2-4.2 0-.7.1-1.4.3-2.1.6.2-.5.1-1.1-.3-1.6-.2-.6-.8-1-1.4-1-.6-.1-1.3.2-1.8.6-.5.5-.8 1.1-.8 1.8s.3 1.4.8 1.8c.5.5 1.2.7 1.8.6.6 0 1.2-.4 1.6-.9.3-.5.5-1.1.3-1.6-.3 1-1.2 1.4-1.9 1.3s-1.1-.7-1.1-1.3.4-1.2 1.1-1.3 1.5.3 1.9 1.3c.7.3 1.4.5 2.1.6s1.4.2 2.1.2c1.2 0 2.3-.1 3.5-.5.1 2.1.6 4.3 1.5 6.2.3.7.7 1.3 1.1 2-.8-.2-1.6-.3-2.3-.4-.6-.1-1.5.1-2 .6-.3.3-.5.6-.6 1-.1.2-.1.4-.1.6v.5c0 1.1 0 2.3.2 3.4.1 1.1.3 2.3.6 3.4 1 .3 1.4 1.2 1.3 1.9s-.7 1.1-1.3 1.1-1.2-.4-1.3-1.1.3-1.6 1.3-1.9c-.5-.2-1.1-.1-1.6.3-.5.3-.8.9-.9 1.6-.1.6.2 1.3.6 1.8.5.5 1.1.8 1.8.8s1.4-.3 1.8-.8c.5-.5.7-1.2.6-1.8 0-.6-.4-1.2-.9-1.6-.5-.3-1.1-.5-1.6-.3.3-1.1.5-2.3.6-3.4s.2-2.3.2-3.4c0-.8.4-1.4 1.4-1.5.9-.1 1.7-.2 2.6-.4.9 1.3 1.9 2.5 3.2 3.5.5.4 1 .8 1.5 1.1.1.1 4.6 3.1 4.3 2.9.2.2.4.2.6.3h.2c.3 0 .5-.1.7-.3l2.8-1.9c.9-.6 2.2-1.4 3-2.1 1.2-1 2.3-2.2 3.2-3.5.9.2 1.7.3 2.6.4s1.4.7 1.4 1.5c0 1.1 0 2.3.2 3.4.1 1.1.3 2.3.6 3.4-.5-.2-1.1-.1-1.6.3-.5.3-.8.9-.9 1.6-.1.6.2 1.3.6 1.8.5.5 1.1.8 1.8.8s1.4-.3 1.8-.8c.5-.5.7-1.2.6-1.8 0-.6-.4-1.2-.9-1.6-.5-.3-1.1-.5-1.6-.3 1 .3 1.4 1.2 1.3 1.9-.4.8-.9 1.2-1.5 1.2s-1.2-.4-1.3-1.1.3-1.5 1.3-1.9c.3-1.1.5-2.3.6-3.4s.2-2.3.2-3.4v-.5c0-.2-.1-.4-.1-.6-.1-.4-.4-.7-.6-1-.5-.5-1.4-.8-2-.6-.8.1-1.6.2-2.3.4.4-.6.8-1.3 1.1-2 .9-2 1.4-4.1 1.5-6.3.5.1.9.3 1.4.3 1.3.2 2.9.2 4.2 0 .7-.1 1.4-.3 2.1-.6-.2.5-.1 1.1.3 1.6.3.5.9.8 1.6.9.6.1 1.3-.2 1.8-.6.5-.5.8-1.1.8-1.8s-.3-1.4-.8-1.8c-.7-.5-1.4-.7-2.1-.6z"  data-original="#000000" class=""></path></g></svg>