<svg xmlns="http://www.w3.org/2000/svg" version="1.1" xmlns:xlink="http://www.w3.org/1999/xlink" xmlns:svgjs="http://svgjs.com/svgjs" x="0" y="0" viewBox="0 0 68 68" style="enable-background:new 0 0 512 512" xml:space="preserve" class=""><g><path d="M27.809 24.334h9.43c.991 0 .992-1.5 0-1.5h-9.43a.75.75 0 0 0 0 1.5zM10.34 27.988c1.867 0 3.372-1.653 2.332-3.178-.75-1.102-2.4-1.393-3.589-.566a.748.748 0 0 0-.514.383c-.174.327-.39.733-.457 1.198-.09.626.117 1.213.57 1.612.442.389 1.063.551 1.657.551zm-.46-2.467c.443-.371 1.233-.338 1.552.132.029.043.093.15.07.243-.059.248-.566.646-1.209.591-.298-.008-.527-.094-.62-.176a.251.251 0 0 1-.081-.186c.236-.298.044-.4.289-.604zM18.437 27.925h.083c1.242 0 2.385-.751 2.624-1.738.117-.483.015-.995-.289-1.44-.369-.542-1.003-.923-1.696-1.02a2.746 2.746 0 0 0-1.892.454.75.75 0 0 0-.516.384c-.182.346-.39.738-.456 1.199-.09.625.118 1.212.57 1.609.384.338.942.533 1.572.552zm-.501-2.302c0-.012.024-.078.127-.165.186-.157.537-.295.89-.244.33.045.559.224.663.377.028.043.093.151.07.243-.06.247-.548.63-1.207.59-.3-.007-.529-.095-.623-.178a.25.25 0 0 1-.081-.184.744.744 0 0 0 .16-.439zM25.66 7.03h13.76a.75.75 0 0 0 0-1.5H25.66c-.992 0-.993 1.5 0 1.5zM17.613 10.37c1.865 0 3.374-1.65 2.333-3.179-.75-1.1-2.398-1.394-3.588-.566a.75.75 0 0 0-.516.385c-.182.345-.39.737-.456 1.197-.169 1.17.695 2.163 2.227 2.163zm-.459-2.468c.444-.374 1.233-.335 1.552.133.487.727-1.809 1.206-1.84.47.252-.319.036-.39.288-.603zM12.612 7.356c-.754-1.106-2.404-1.386-3.588-.564a.75.75 0 0 0-.515.384c-.182.345-.39.736-.456 1.198-.09.626.117 1.212.57 1.61 1.794 1.578 5.504-.405 3.989-2.628zm-2.79.712c.69-.574 1.72-.028 1.622.377-.171.704-1.89.776-1.911.228.25-.317.034-.39.289-.605zM34.153 38.92l-8.6-.18c-.412-.05-.758.32-.766.734a.75.75 0 0 0 .734.765l8.6.182h.017a.75.75 0 0 0 .015-1.5zM8.051 39.896a.748.748 0 0 0-.514.383c-.174.328-.39.736-.457 1.2-.09.625.117 1.211.57 1.61.441.388 1.068.553 1.655.553 1.24 0 2.384-.752 2.624-1.739.425-1.756-2.015-3.3-3.878-2.007zm.508 1.881c.237-.298.045-.399.29-.604.695-.581 1.72-.028 1.622.377-.078.317-1.883.899-1.912.227zM18.127 39.38a2.753 2.753 0 0 0-1.893.454.75.75 0 0 0-.514.384c-.183.345-.39.735-.457 1.199-.394 2.768 4.262 2.84 4.85.423.116-.485.013-.996-.29-1.442-.37-.542-1.004-.921-1.696-1.017zm-1.384 2.335c.25-.317.036-.393.289-.605a1.22 1.22 0 0 1 .89-.243c.33.045.557.224.661.376.03.043.094.152.071.243-.167.69-1.89.79-1.911.229z" data-original="#000000" class=""></path><path d="m63.727 46.236-.002.001a25.796 25.796 0 0 0-3.496-.491 9.046 9.046 0 0 0-.299-1.469c.623-.94 1.247-1.987 1.869-2.879l-.27-.925c.177-.33.074-.842-.206-1.077a35.002 35.002 0 0 0-3.604-2.65c-.25-.161-.564-.169-.89.05-.851.571-1.64 1.235-2.37 1.954l-1.886-.88a11.844 11.844 0 0 0-.892-3.424l.002-.008a.75.75 0 0 0-.738-.762c-1.414-.023-3.96.213-4.835.572a.745.745 0 0 0-.575.629 18.079 18.079 0 0 0-.11 3.488c-.71.15-.91.235-1.01.264-.017-.904.034-1.433-.469-2.093-1.216-1.613-3.385-1.215-3.728-1.27v-3.192c3.334.04 4.814-.276 4.942-3.45.28-6.886.405-7.347-.081-8.31-.493-.975-1.436-1.322-2.498-1.43-.834-.223-1.137-.107-2.263-.14l.198-2.927c3.408-.05 4.985-.19 5.12-3.594.28-7.007.415-7.553-.076-8.555-.62-1.263-1.952-1.499-3.337-1.513a3.593 3.593 0 0 0-.756-.089c-7.305.008 18.618-.018-35.587.037a2.592 2.592 0 0 0-2.553 2.616c.116 6.726.05 4.427.07 8.568 0 1.254 1.043 2.267 2.463 2.492v3.043c-1.343.262-2.316 1.217-2.316 2.396v8.344c0 1.348 1.271 2.404 2.914 2.463-.081.283-.018-.081-.04 3.252h-.08c-1.444 0-2.67.807-2.972 1.924-.03.086-.047.17-.064.26a.755.755 0 0 0-.015.145v.037c-.01.076-.01.137-.01.173v8.671c0 1.34 1.179 2.412 2.755 2.524.125.026.233.026.305.026 27.775-.014 24.054.006 27.141-.058-.016.398.146 2.672.101 3.74-.019.453.416.807.778.81l3.731.032 1.237 2.285a10.263 10.263 0 0 1-1.8 2.79.736.736 0 0 0-.212 1.18l3.052 3.187c.2.21.52.3.826.173.38-.077.258-.099 2.7-2.408 1.053.255 1.638.3 2.656.532.263 2.171.37 3.727.495 4.034.072.34.36.6.72.6 1.097-.102 1.83.112 4.724-.782a.736.736 0 0 0 .467-.449.732.732 0 0 0 .151-.4c.05-1.234.053-2.478.022-3.71l1.615-.555c.845.646 1.73 1.29 2.557 1.938.34-.042.457.048 1.1-.097.305.1.508-.004.745-.178 1.286-.945 2.356-2.11 3.015-3.28.251-.446-.04-.75-.081-.85l-2.122-2.647c.207-.7.422-1.412.69-2.086l3.16-.215.45-.87a3.48 3.48 0 0 0 .076-.067.733.733 0 0 0 .252-.585 15.483 15.483 0 0 0-.003-4.178c-.062-.47-.455-.74-.853-.687zM4.897 13.287c-.018-4.543.042-2.092-.07-8.588a1.088 1.088 0 0 1 1.076-1.096c54.17-.055 28.263-.03 35.564-.037.846 0 1.56.482 1.56 1.047-.024 3.95-.02 8.277-.057 8.73-.046.537-.738.973-1.543.973l-34.97.011c-.845 0-1.56-.476-1.56-1.04zm34.116 2.53-.198 2.927H7.36v-2.917zM5.044 29.562v-8.344c0-.461.639-.974 1.555-.974 35.845.177 35.44-.428 36.337.475.47.474.11.31.19 8.843-.002.459-.64.97-1.554.97L6.6 30.536c-.917 0-1.556-.513-1.556-.974zm2.834 2.474c12.214.001 30.187-.012 30.84.008v3.223l-30.8.01c-.024-3.387.038-2.956-.04-3.241zM33.55 47.477c-3.605.077.236.036-27.16.08a.766.766 0 0 0-.205-.04c-.776-.038-1.408-.5-1.408-1.03l-.013-8.593a.757.757 0 0 0 .023-.187v-.016l.014-.058c.113-.415.69-.856 1.536-.856l34.85-.01c.621 0 1.263.276 1.563.674.203.266.124.252.178 1.755-.313.152-.098.05-.4.208l-2.451-1.944a.73.73 0 0 0-1.125.261l-2.577 3.164c-.048.06-.075.128-.103.195-.005.011-.012.02-.016.032-.014.04-.02.08-.027.122a.738.738 0 0 0 .173.683l2.106 2.218-.577 2.993c-3.508.13-3.977-.226-4.381.35zm29.594 2.99c-2.441.413-3.07.133-3.39.77-.465.62-1.069 2.69-1.275 3.389a.741.741 0 0 0 .024.887l2.075 2.588c-.492.738-1.181 1.474-1.982 2.114-2.566-1.784-2.684-2.17-3.241-1.974l-3.214 1.106c-.278.095-.402.297-.483.577-.004.02-.04.2-.039.232a54.54 54.54 0 0 1-.005 3.692c-1.085.318-1.993.507-3.205.566-.434-3.633-.286-4.25-.988-4.447-.607-.172-1.227-.28-1.827-.384-2.7-.467-1.596-.98-4.612 1.895l-2.067-2.159a11.766 11.766 0 0 0 1.96-3.265.744.744 0 0 0-.15-.773c-1.576-2.807-1.42-2.845-1.798-3.057-.385-.288-.418-.1-3.846-.189-.01-1.42-.075-1.564-.106-3.39l3.3-.019a.73.73 0 0 0 1-.545c.706-3.944.85-3.815.681-4.23.049-.593-.405-.681-2.024-2.502l1.819-2.233c2.361 1.8 2.335 2.09 2.948 1.884.29-.1.989-.644 2.355-1.001 1.17-.338 1.508-.165 1.757-.696.359-.494-.114-.855.174-3.732 1.11-.24 2.238-.376 3.373-.39 1.042 2.52.443 3.228 1.085 3.675.233.366.31.231 2.812 1.455.778.363.98-.527 3.073-2.015a33.935 33.935 0 0 1 2.61 1.919c-.59.979-1.119 1.744-1.825 2.473a.74.74 0 0 0-.095.897c.37.873.593.82.795 2.984a.73.73 0 0 0 .948.638c1.137.067 2.27.223 3.388.449.093.935.091 1.875-.005 2.81z" data-original="#000000" class=""></path><path d="M54.724 42.03c-7.064-5.21-17.062 1.899-14.298 10.38 1.307 3.944 4.968 6.472 8.56 6.382 3.906-.046 7.658-2.751 8.919-6.43 1.276-3.692-.062-8.038-3.18-10.333zm1.857 6.943.3.42c.03 4.533-3.949 7.853-7.916 7.899-3.114.058-6.03-2.14-7.1-5.315l.92-.098c.983-.103.836-1.591-.156-1.492l-1.095.116c-.154-1.16-.086-2.052.284-3.187.347.117.452.197.666.197.836 0 1.04-1.168.259-1.454l-.309-.114c.63-1.118 1.289-1.82 2.067-2.431l.313.494c.53.838 1.798.036 1.268-.803l-.324-.51a8.004 8.004 0 0 1 3.798-.926l-.018.31c-.054.989 1.443 1.079 1.498.084l.013-.218a7.44 7.44 0 0 1 3.703 2.102l-.217.126c-.662.384-.385 1.398.377 1.398.301 0 .448-.163.754-.32.54.86.912 1.822 1.089 2.826-.235.027-.344.14-.552.248z" data-original="#000000" class=""></path><path d="m49.588 50.263.243-4.411c.054-.987-1.444-1.083-1.498-.082l-.243 4.399c-2.176.755-1.217 3.931.966 3.485 1.604-.338 2.013-2.597.532-3.39zm-1.084 1.86c-.078-.055-.134-.129-.145-.196v-.001c-.046-.269.19-.346.293-.366.615-.112.346.893-.148.562zM54.722 31.914l.5-3.167a.75.75 0 0 0-.624-.858.756.756 0 0 0-.858.624l-.5 3.167c-.154.975 1.325 1.229 1.482.234zM57.802 32.991l2.667-4.833c.479-.866-.833-1.595-1.313-.724l-2.668 4.833c-.477.863.838 1.587 1.314.724zM60.313 35.214c.598 0 .572-.393 3.063-3.088a.75.75 0 0 0-1.125-.992l-2.5 2.834c-.428.485-.077 1.246.562 1.246z" data-original="#000000" class=""></path></g></svg>