<svg xmlns="http://www.w3.org/2000/svg" version="1.1" xmlns:xlink="http://www.w3.org/1999/xlink" xmlns:svgjs="http://svgjs.com/svgjs" width="512" height="512" x="0" y="0" viewBox="0 0 73 73" style="enable-background:new 0 0 512 512" xml:space="preserve" class=""><g><path d="m12.275 26.13-.01.006c-.942.508-1.328 1.785-.826 2.73.354.667 1.091 1.06 1.828 1.06 1.554 0 2.389-1.713 1.76-2.936-.518-1.004-1.88-1.369-2.752-.86zM19.493 26.136c-.943.508-1.33 1.784-.827 2.73.353.667 1.09 1.06 1.828 1.06 1.554 0 2.388-1.713 1.76-2.936-.528-1.022-1.913-1.363-2.761-.854zM12.765 40.745l-.048.024c-.943.51-1.33 1.785-.827 2.732.502.94 1.77 1.343 2.726.844.95-.497 1.353-1.767.862-2.72s-1.757-1.364-2.713-.88zM19.991 40.745a.207.207 0 0 0-.02.01l-.028.014c-.942.51-1.329 1.785-.826 2.732.501.94 1.77 1.343 2.726.844.949-.497 1.352-1.767.862-2.72-.491-.953-1.757-1.364-2.714-.88zM12.765 56.092a.125.125 0 0 0-.02.01c-.816.327-1.421 1.68-.855 2.745.498.935 1.762 1.346 2.726.845.95-.496 1.353-1.766.862-2.72-.489-.953-1.756-1.365-2.713-.88zM19.991 56.092a.125.125 0 0 0-.02.01c-.815.327-1.42 1.68-.854 2.745.498.935 1.762 1.346 2.726.845.949-.496 1.352-1.766.862-2.72s-1.758-1.365-2.714-.88zM36.549 26.602c-.11-.001-.076 0-5.554-.09a.75.75 0 0 0-.013 1.5c.11.001.076 0 5.554.09a.75.75 0 0 0 .013-1.5zM36.824 42.134h-4.193a.75.75 0 0 0 0 1.5h4.193a.75.75 0 0 0 0-1.5zM41.532 58.119H28.815a.75.75 0 0 0 0 1.5h12.717a.75.75 0 0 0 0-1.5zM57.901 16.24l-1.782.604.292-2.08a.752.752 0 0 0-1.486-.21l-.277 1.97-1.382-1.128a.751.751 0 0 0-.949 1.162l1.364 1.114-1.89.641c-.8.272-.601 1.46.242 1.46.217 0 .164-.028 2.261-.726l-.259 1.85a.75.75 0 0 0 1.486.208l.243-1.732c1.172.896 1.308 1.219 1.76 1.219.704 0 1.018-.887.475-1.331l-1.272-1.04 1.657-.562a.749.749 0 0 0 .468-.951.748.748 0 0 0-.95-.469z" fill="#000000" data-original="#000000" class=""></path><path d="M66.899 25.421a2.6 2.6 0 0 0 .382-1.296c.71-4.04.692-8.465-.056-13.155-.036-1.314-1.014-2.355-2.204-2.355-.59 0 .711.003-4.213.002V7.21a3.095 3.095 0 0 0-3.09-3.091H51.32a3.095 3.095 0 0 0-3.092 3.09c.021 1.307-.039 1.227.048 1.486-1.25.029-2.49.066-3.721.117-.48.005-.92.186-1.28.478-.648.18-1.206.771-1.53 1.334-.96 1.67-1.135 6.499-1.112 8.419H11.138c-2.854 0-4.84 2.233-5.589 4.997-.75 2.762-.37 9.003.255 11.375-.978 5.641-1.03 10.145.409 15.515-.72 4.29-2.073 10.976 0 15.112 1.178 2.35 5.521 2.153 8.6 2.434 6.175.564 21.791.713 35.645-.688.884-.09 1.836-.212 2.48-.805.645-.593.7-1.827-.107-2.189-.585-.262-1.178.014-2.546.32.743-.637 1.212-1.494 1.234-2.457.075-3.122-.075-6.222-.007-9.352.024-1.154-.572-2.3-1.896-3.068 1.13-.64 1.875-1.7 1.903-2.928.075-3.122-.075-6.223-.007-9.35.023-1.113-.547-2.24-1.764-3.001 1.046-.652 1.744-1.667 1.768-2.821.03-1.429.018-2.868.003-4.263 3.628.055 7.26-.053 10.883-.273 1.476-.09 6.003-.421 5.455-1.778-.14-.344-.578-.404-.958-.4zm-1.46-15.118c.32.314.275.724.297.852 1.253 7.81.046 12.402.046 12.903.002.477-.264.932-.78.938-7.252.684-14.097.686-20.429-.003-.385 0-.709-.426-.709-.93a.723.723 0 0 0-.007-.102c-1.327-9.622.007-12.01.007-12.721 0-.5.322-.925.729-.93 1.403-.058 20.406-.448 20.846-.007zM49.73 7.209c0-.877.713-1.591 1.591-1.591h6.398c.877 0 1.59.714 1.59 1.59v1.41c-3.307-.004-6.5.002-9.622.055.08-.27.02-.087.042-1.464zm.29 55.412c-.027 1.165-1.342 2.11-2.934 2.11L11.13 64.68c-1.613-.001-2.925-.97-2.925-2.159v-9.299c0-1.19 1.314-2.159 2.93-2.159h35.95c1.427 0 2.954.868 2.926 2.21-.035 1.555.082 6.211.007 9.349zm0-15.348c-.027 1.165-1.342 2.11-2.934 2.11h-.006l-35.948-.051c-1.613-.002-2.925-.97-2.925-2.158v-9.3c0-1.19 1.314-2.158 2.93-2.158h35.95c1.427 0 2.954.867 2.926 2.209-.069 3.1.081 6.22.007 9.348zm-.003-15.17c-.023 1.142-1.354 2.1-2.913 2.1-39.066 0-36.596.105-37.651-.452-.781-.4-1.248-1.054-1.248-1.752v-9.297c0-1.302 1.539-2.16 2.934-2.16h29.546c.064 1.138.18 2.272.368 3.397.455 2.711 1.416 3.436 4.221 3.664 1.58.128 3.162.203 4.746.25a133.56 133.56 0 0 1-.003 4.25z" fill="#000000" data-original="#000000" class=""></path><path d="M24.308 11.954a.75.75 0 0 0 .208 1.04l4.5 3.002a.75.75 0 0 0 .832-1.248l-4.5-3.002a.75.75 0 0 0-1.04.208zM32.08 14.176a.75.75 0 0 0 .443-.964l-1.992-5.38a.75.75 0 1 0-1.406.522l1.992 5.38a.75.75 0 0 0 .964.442zM36.42 6.755l-.614 5.25a.75.75 0 0 0 1.49.174l.615-5.25a.75.75 0 0 0-.658-.833.76.76 0 0 0-.832.659z" fill="#000000" data-original="#000000" class=""></path></g></svg>