<svg xmlns="http://www.w3.org/2000/svg" version="1.1" xmlns:xlink="http://www.w3.org/1999/xlink" xmlns:svgjs="http://svgjs.com/svgjs" width="512" height="512" x="0" y="0" viewBox="0 0 64 64" style="enable-background:new 0 0 512 512" xml:space="preserve" class=""><g><path d="M60.712 16.613c-.029-2.059-1.596-3.81-3.644-4.075-11.711-1.513-19.854-8.102-22.812-10.865a3.316 3.316 0 0 0-4.512 0c-2.958 2.763-11.103 9.352-22.813 10.865-2.048.265-3.614 2.017-3.643 4.075-.127 9.227 1.541 39.853 28.348 46.554a1.5 1.5 0 0 0 .728 0c26.807-6.701 28.475-37.327 28.348-46.554zM32 60.164C7.681 53.807 6.169 25.281 6.288 16.655a1.178 1.178 0 0 1 1.027-1.141c12.574-1.625 21.306-8.687 24.476-11.648.059-.055.134-.081.209-.081s.15.027.208.082c3.17 2.961 11.901 10.022 24.475 11.648a1.177 1.177 0 0 1 1.028 1.141c.12 8.625-1.392 37.151-25.711 43.508z" fill="#000000" data-original="#000000" class=""></path><path d="M24.31 32.259c-.288-.313-.616-.583-.985-.808s-.745-.426-1.129-.603c-.383-.177-.76-.345-1.128-.503-.369-.159-.699-.329-.991-.509s-.524-.387-.697-.62-.26-.507-.26-.825c0-.214.039-.417.116-.608.078-.192.196-.356.354-.493s.356-.244.592-.321c.236-.078.513-.116.83-.116.406 0 .778.05 1.118.149s.638.21.896.332.476.234.653.337c.177.104.306.155.387.155s.146-.022.194-.066.084-.114.11-.21.044-.218.056-.365a9.058 9.058 0 0 0 .006-1.023 2.13 2.13 0 0 0-.039-.321.97.97 0 0 0-.066-.205.837.837 0 0 0-.149-.188c-.074-.074-.225-.166-.454-.277a5.466 5.466 0 0 0-.786-.299 7.067 7.067 0 0 0-1.97-.288c-.657 0-1.278.085-1.865.254a4.37 4.37 0 0 0-1.527.77 3.715 3.715 0 0 0-1.029 1.295c-.255.52-.382 1.123-.382 1.809 0 .598.088 1.111.266 1.539.177.428.407.799.691 1.112s.607.583.968.808c.362.225.734.426 1.118.603.383.177.756.345 1.118.503.361.159.684.329.968.509s.515.387.692.62c.177.232.266.511.266.835 0 .281-.052.535-.155.763a1.516 1.516 0 0 1-.448.576 2.157 2.157 0 0 1-.714.359 3.285 3.285 0 0 1-.952.127 4.988 4.988 0 0 1-1.422-.183c-.41-.121-.762-.256-1.057-.403s-.537-.282-.725-.404-.334-.183-.438-.183a.32.32 0 0 0-.193.061c-.056.041-.1.109-.133.205s-.058.222-.072.376a6.179 6.179 0 0 0-.022.576c0 .339.02.6.061.78.04.181.108.319.205.415.096.096.252.206.47.332.218.125.489.245.813.359s.699.212 1.124.293c.424.081.883.122 1.378.122.73 0 1.417-.096 2.058-.288a4.975 4.975 0 0 0 1.683-.857c.479-.38.859-.854 1.14-1.422s.421-1.229.421-1.981c0-.576-.089-1.075-.266-1.5a3.8 3.8 0 0 0-.698-1.105zM36.023 32.259a4.583 4.583 0 0 0-.986-.808 10.855 10.855 0 0 0-1.129-.603c-.383-.177-.76-.345-1.128-.503-.369-.159-.699-.329-.991-.509s-.524-.387-.697-.62-.26-.507-.26-.825c0-.214.039-.417.116-.608.078-.192.196-.356.354-.493s.356-.244.592-.321c.236-.078.513-.116.83-.116.406 0 .778.05 1.117.149.34.1.639.21.896.332.259.122.477.234.654.337.176.104.306.155.387.155s.146-.022.193-.066a.425.425 0 0 0 .111-.21c.025-.096.044-.218.055-.365.012-.148.018-.329.018-.542 0-.192-.004-.352-.012-.481s-.021-.236-.039-.321-.041-.153-.066-.205a.799.799 0 0 0-.148-.188c-.074-.074-.226-.166-.455-.277a5.45 5.45 0 0 0-.785-.299 7.086 7.086 0 0 0-1.97-.288c-.657 0-1.278.085-1.865.254a4.37 4.37 0 0 0-1.527.77 3.715 3.715 0 0 0-1.029 1.295c-.255.52-.382 1.123-.382 1.809 0 .598.088 1.111.266 1.539.177.428.407.799.691 1.112s.607.583.968.808c.362.225.734.426 1.118.603.383.177.756.345 1.118.503.361.159.684.329.968.509s.515.387.692.62c.176.232.266.511.266.835 0 .281-.053.535-.156.763a1.523 1.523 0 0 1-.447.576 2.148 2.148 0 0 1-.714.359 3.285 3.285 0 0 1-.952.127 4.988 4.988 0 0 1-1.422-.183c-.41-.121-.762-.256-1.057-.403s-.537-.282-.725-.404-.334-.183-.438-.183a.32.32 0 0 0-.193.061c-.056.041-.1.109-.133.205s-.058.222-.072.376a6.179 6.179 0 0 0-.022.576c0 .339.02.6.061.78.04.181.108.319.205.415.096.096.252.206.47.332.218.125.489.245.813.359s.699.212 1.124.293c.424.081.883.122 1.378.122.73 0 1.417-.096 2.058-.288a4.98 4.98 0 0 0 1.684-.857c.479-.38.859-.854 1.139-1.422.281-.568.422-1.229.422-1.981 0-.576-.09-1.075-.266-1.5a3.78 3.78 0 0 0-.698-1.105zM47.968 37.017a.45.45 0 0 0-.138-.199.325.325 0 0 0-.194-.061h-4.504V25.236c0-.074-.024-.14-.072-.199s-.127-.106-.237-.144a2.395 2.395 0 0 0-.443-.089 6.187 6.187 0 0 0-.708-.033c-.28 0-.515.011-.703.033s-.337.052-.448.089a.506.506 0 0 0-.237.144.301.301 0 0 0-.072.199V38.24c0 .324.083.559.249.702a.9.9 0 0 0 .614.216h6.563a.296.296 0 0 0 .194-.066c.055-.044.101-.116.138-.216s.064-.225.083-.376.028-.338.028-.559c0-.222-.01-.408-.028-.56a1.633 1.633 0 0 0-.085-.364z" fill="#000000" data-original="#000000" class=""></path></g></svg>