<svg xmlns="http://www.w3.org/2000/svg" version="1.1" xmlns:xlink="http://www.w3.org/1999/xlink" xmlns:svgjs="http://svgjs.com/svgjs" width="512" height="512" x="0" y="0" viewBox="0 0 68 68" style="enable-background:new 0 0 512 512" xml:space="preserve" class=""><g><path d="M65.3 10.3c0-.7-.3-1.3-.7-1.8-.8-.8-1.8-.7-1.7-.7-19.6-.4-39.6-.8-53.2 0-.2 0-.4 0-.5.1-2-.1-2.8 2.2-2.8 3.9C6.1 21 6 30.3 6 39.5c0 1.6.1 3.3 1 4.6 1.4 1.9 4.1 2.1 6.5 2.1 10.7 0 21.1-.1 31.6-.2-.2 1.2-.3 2.4-.1 3.6-.8 0-.9 0-1.4.1-1.1 0-2.3.7-2.7 1.6-.4 1-.5 2.5-.5 3.5.3 7.3-.1 9.1.9 10.2.7.8 1.7.9 2.7 1.1 4.6.5 9.2.3 13.9.1 1 0 2-.1 2.9-.6.9-.6 1.4-1.7 1.5-2.8v-.5c.4-3.4.4-7-.1-10.1 0-1.5-1.2-2.6-2.6-2.6H59c.2-1.2.2-2.4.1-3.6 1.2 0 2.4-.1 3.6-.5 1.6-.4 1.9-.7 2.4-2.6.2-.8.3-3.2.2-5.2.4-7.7.3-16.5 0-27.4zm-1.6 31.9c0 .6-.5 1-1 1-1.4.1-2.8.1-4.1.2-.4-1.2-1-2.2-1.8-3-.5-.5-1.7-1.5-2.3-1.5 0-1.3-.9-2.4-2.1-2.4-1.1 0-2.1 1.1-2.1 2.5 0 2.5 2.7 3.5 3.8 1.4 1.3.6 2.2 1.8 2.8 3.2-17.4.7-32.9.6-47.3-.3-.5 0-.9-.4-.9-1-.3-7-.4-14.2-.3-21.7 11.8.8 24.3 1.2 36.4 1.2 6.5 0 12.9-.1 19.1-.4.3 8.1.1 14.8-.2 20.8zm.3-22.3c-1.2 0-2.4.1-3.6.1-1.2-1.4-2.3-2.8-3.3-4.3h6.8c.1 1.4.1 2.8.1 4.2zm-8.7-4.2c1 1.5 2.1 3 3.2 4.4-3.3.1-6.6.1-10 .2-.9-1.6-1.9-3.1-3-4.6zm-11.7 0c1.2 1.4 2.2 3 3.2 4.6-4.4 0-8.9 0-13.4-.1l-2.9-4.6c4.3 0 8.7 0 13.1.1zm-14.9-.2 2.9 4.6c-4.3-.1-8.5-.3-12.7-.5-1-1.3-2-2.8-2.8-4.2 4.2 0 8.4.1 12.6.1zm-14.4-.1c.8 1.4 1.7 2.8 2.7 4.1-2.8-.1-5.7-.3-8.5-.5 0-1.2.1-2.4.1-3.7 1.9.1 3.8.1 5.7.1zM9.8 9.3c14.9-.8 38-.3 53.1 0 .5 0 .9.4.9 1 0 1.3.1 2.6.1 3.8-18.5.1-36.3-.3-55.2-.3 0-1.2.1-2.3.1-3.5 0-.5.4-1 1-1zm51 42.9v.1c.8 5.2 0 10 0 10.2 0 .6-.4 1.2-1.1 1.2-5.8.4-10.8.4-15.4 0-.6 0-1.1-.5-1.1-1.3-.3-2.8-.3-6.5 0-10.2 0-.7.5-1.2 1.1-1.2 5.1-.2 10.3-.2 15.3 0 .7 0 1.2.5 1.2 1.2zm-14.3-2.8c-.1-.9-.2-1.9.1-3.5h11c.3 2 0 3.2-.1 3.6-3.7-.1-7.4-.1-11-.1z" fill="#000000" data-original="#000000" class=""></path><path d="M11.6 32.7c-2.2 3.6 0 7.3 3.7 7.3 2.8 0 4.9-2.4 4.5-5.4-.5-4.2-5.7-6-8.2-1.9zm5 5.5c-1.2.6-2.9.3-3.8-.8-1.6-1.9.1-5.6 2.5-5.6 3.2.1 4.2 4.9 1.3 6.4zM50.5 54.6c-1 .9-.8 2.7.6 3.4 0 .7-.1 1.3-.1 2 0 .5.4 1.1.9 1 1-.2.6-1.8.5-2.8 1.5-.3 2-1.9 1.4-3-.5-1.2-2.4-1.4-3.3-.6zM25.2 33c0 .4.3.8.8.8h19.4c.4 0 .8-.3.8-.8s-.3-.8-.8-.8H26c-.5 0-.8.4-.8.8zM40.8 36.8h-9.7c-.4 0-.8.3-.8.8s.3.8.8.8h9.7c.4 0 .8-.3.8-.8s-.4-.8-.8-.8zM5.7 6.2l-2.3-.9c-.4-.1-.8 0-1 .4-.1.4 0 .8.4 1l2.3.9c1 .3 1.5-1.1.6-1.4zM7.3 5.7c.1.4.6.6 1 .5s.6-.6.5-1l-1-2.9c-.1-.4-.6-.6-1-.5-.5.2-.7.6-.5 1zM10.6 2.2l-.6 3c-.1.5.3.9.7.9s.7-.3.7-.6l.6-3c.1-.4-.2-.8-.6-.9-.4 0-.8.2-.8.6z" fill="#000000" data-original="#000000" class=""></path></g></svg>