<svg xmlns="http://www.w3.org/2000/svg" version="1.1" xmlns:xlink="http://www.w3.org/1999/xlink" xmlns:svgjs="http://svgjs.com/svgjs" x="0" y="0" viewBox="0 0 66 66" style="enable-background:new 0 0 512 512" xml:space="preserve" class=""><g><path d="M64.725 58.708c-1.17.006-3.965.018-7.095.047.467-1.693.353-1.279 1.049-23.885.252-7.575-2.284-9.407-8.535-9.48-2.297-.035-4.584-.058-6.879-.082.153-9.698-3.86-16.956-10.356-24.208a.498.498 0 0 0-.782.048c-3.08 4.405-4.707 7.271-4.707 7.271-3.042 5.12-5.448 10.675-5.651 16.611l-5.588-.069c-7.12-.106-8.5 2.43-8.462 7.563.337 29.081.261 24.023.122 26.618-2.215.025-5.093.043-6.094.048-1.445 1.589-.483 3.66.828 4.483 1.342.838 2.997.804 4.327.783 6.117-.121 39.176.232 49.442.581 1.762.057 3.946.129 5.825-.769l.001-.001c1.868-.898 3.427-2.966 2.555-5.559zm-23.738-2.527 1.521 1.521-.955.956c-.062.062-.07.143-.054.223l-1.856.014c.04-.092.041-.197-.034-.271l-.686-.686 2.031-2.031c-.042.091-.043.198.033.274zm2.928 2.22-.7-.7 2.005-2.005 1.297 1.297-1.861 1.861c-.872.007-1.743.013-2.614.021l.82-.821.7.7a.249.249 0 0 0 .354 0 .25.25 0 0 0-.001-.353zm4.512-.204-1.203-1.203 1.722-1.722 1.817 1.816-1.569 1.569a.249.249 0 0 0-.068.163l-3.758.03 1.502-1.502 1.203 1.203a.249.249 0 0 0 .354 0 .25.25 0 0 0 0-.354zm2.594-5 .826.826-.672.672a.25.25 0 1 0 .354.354l.672-.672.637.637-1.722 1.721-1.816-1.817zm3.798-.165-1.628 1.628-.637-.637 1.628-1.628zm-15.642 5.866-1.224.01.617-.617zm-4.457.035.406-.406.4.4-.806.006zm2.5-22.416.981.98-.881.881-.98-.981zm-1.234 1.233.98.981-.59.59a.25.25 0 1 0 .354.354l.59-.59.805.806c-.91-.018-1.824-.022-2.733-.018a.248.248 0 0 0-.062-.149l-.659-.659zm-1.209 2.128-.927.008.467-.467zm8.303-11.59a13.591 13.591 0 0 1 2.679 15.086 13.962 13.962 0 0 0-4.949-6.46c1.046-2.43 1.929-5.614 2.27-8.626zM37.543 8.814c-3.15.961-6.234.739-8.969-.378 1.247-2.106 2.609-4.175 4.01-6.195 1.815 2.07 3.447 4.198 4.959 6.573zm-9.471.483c3.085 1.293 6.646 1.539 10.008.381 3.044 5.101 4.365 10.472 4.184 16.106v.004c-.001.022-.004.045-.004.067-.018.481-.054.958-.094 1.434-.064.793-.158 1.58-.284 2.358-.022.134-.053.265-.076.398a29.174 29.174 0 0 1-.583 2.603c-.12.442-.253.88-.393 1.315-.092.285-.178.572-.279.853a28.763 28.763 0 0 1-.735 1.857c-.42.957-.902 1.88-1.424 2.778l-.718-.718.912-.912c.084.026.143.058.246-.045.068-.068.071-.16.045-.246l.89-.89a.25.25 0 1 0-.354-.354l-.859.859-.981-.981.4-.4a.25.25 0 1 0-.354-.354l-.445.445a.241.241 0 0 0-.198.064.237.237 0 0 0-.064.198l-2.594 2.594-.39-.39a.25.25 0 1 0-.354.354l.39.39-.59.59c-.065.065-.07.152-.049.235l-.398.003V27.687a.5.5 0 0 0-1 0v12.215c-1 .01-2.475.029-4.113-.001-7.727-8.774-5.77-20.283.258-30.604zm-3.31 27.961a13.91 13.91 0 0 0-4.487 6.119c-2.015-4.476-1.551-9.883 1.761-14.046.429 2.65 1.357 5.471 2.726 7.927zm-8.595-11.297 5.583.069c.01.811.05 1.36.115 1.97a14.545 14.545 0 0 0-1.923 16.934.5.5 0 0 0 .919-.114 12.88 12.88 0 0 1 4.424-6.686c.795 1.28 1.435 2.051 1.932 2.599.149.081.11.159.36.164 1.409.029 2.884.02 4.351.004v3.158a.5.5 0 0 0 1 0v-3.167c1.8-.02 3.656-.04 5.48.004.184.019.342-.083.436-.236.161-.115 1.427-2.604 1.527-2.814 2.351 1.744 4.052 4.193 4.801 6.972a.5.5 0 0 0 .919.115c3.26-5.799 2.198-13.222-2.809-17.844-.027-.028-.063-.05-.093-.075.006-.064.007-.128.012-.193.011-.173.033-.343.042-.516 2.298.023 4.587.048 6.889.083 5.66.068 7.781 1.441 7.549 8.448v.001l-.377 12.235-1.246-1.246a.25.25 0 1 0-.354.354l1.021 1.021c-.09-.036-.191-.036-.264.037L54.76 48.94a.25.25 0 1 0 .354.354l.153-.154 1.204 1.204a.249.249 0 0 0 .354 0 .25.25 0 0 0 0-.354l-1.204-1.204 1.194-1.194c.073-.073.073-.174.037-.264l.11.11a.249.249 0 0 0 .177.073.255.255 0 0 0 .153-.063c-.276 8.94-.215 9.841-.69 11.312-2.283.015-4.573.037-6.858.054l1.373-1.374 1.195 1.195a.249.249 0 0 0 .354 0 .25.25 0 0 0 0-.354l-1.195-1.195 1.721-1.722 1.297 1.297-1.615 1.615a.25.25 0 1 0 .354.354l1.615-1.615 1.382 1.382a.249.249 0 0 0 .354 0 .25.25 0 0 0 0-.354l-1.382-1.382.714-.714a.25.25 0 1 0-.354-.354l-.714.714-1.297-1.297 1.628-1.628 1.096 1.097a.249.249 0 0 0 .354 0 .25.25 0 0 0 0-.354l-1.097-1.097.121-.121a.25.25 0 1 0-.353-.354l-.121.121-.669-.669c.026-.086.023-.178-.045-.245-.068-.068-.16-.071-.245-.045l-.044-.044a.25.25 0 1 0-.354.354l.012.012-1.628 1.628-.826-.826 1.271-1.271a.25.25 0 1 0-.353-.354L51.007 52.5c-.096-.06-.22-.063-.303.021s-.081.207-.021.303l-1.736 1.736-.719-.719a.25.25 0 1 0-.354.354l.72.719-1.722 1.722-1.297-1.297 1.731-1.731a.25.25 0 1 0-.354-.354l-1.73 1.731-.201-.201a.25.25 0 1 0-.353.354l.201.201-2.004 2.005-1.521-1.521c-.076-.076-.182-.075-.274-.033l.931-.931a.25.25 0 1 0-.354-.353l-3.074 3.074-1.003-1.003a.25.25 0 1 0-.354.354l1.002 1.003-.908.908c-.019.019-.016.045-.028.067l-1.39.011a.248.248 0 0 0-.004-.344l-.406-.406 1.924-1.924a.25.25 0 1 0-.354-.354l-1.924 1.924-.672-.673a.25.25 0 1 0-.354.354l.672.673-.484.484c-.077.077-.076.186-.031.279l-1.466.012-1.211.009.431-.431.341.341a.249.249 0 0 0 .354 0 .25.25 0 0 0 0-.354l-.341-.341 2.175-2.175a.25.25 0 1 0-.353-.354l-2.175 2.175-.201-.2a.25.25 0 1 0-.353.354l.2.2-.766.766c-.007.007-.004.017-.01.024-7.353.063-14.705.125-22.044.172.134-2.322.215 2.329-.12-26.62-.034-4.485.841-6.66 7.447-6.55zm45.571 37.407c-3.424 1.633-24.424-.514-54.853.089-1.472.029-2.77-.003-3.777-.631-.858-.536-1.408-1.837-.893-2.639 2.554-.015 17.168-.124 30.586-.239 6.862-.059 24.282-.205 31.179-.236.261 1.475-.899 3.009-2.242 3.656z"  data-original="#000000" class=""></path><path d="M30.141 22.902a5.039 5.039 0 0 0 2.247.517c1.267 0 2.539-.45 3.495-1.306 1.514-1.355 2.125-3.66 1.486-5.606-.578-1.757-2.572-3.939-4.822-3.472-2.688.561-4.365 1.815-4.985 3.729-.749 2.305.408 5.059 2.579 6.138zm.283-.996.677-.677 1.177 1.177a4 4 0 0 1-1.692-.398c-.057-.029-.106-.07-.162-.102zm5.975-2.415-1.606-1.606.794-.794.707.707c.084.084.185.1.309.019a4.504 4.504 0 0 1-.204 1.674zm-.388.319c-.014.009-.033.006-.046.019l-1.213 1.214-.411-.412 1.246-1.246zm-1.612 1.587-.206.206c-.105.105-.12.29.073.384a4.41 4.41 0 0 1-1.409.393.25.25 0 0 0-.072-.174l-.051-.051a.245.245 0 0 0 .144-.059l1.11-1.11zm-1.875.344c-.04.04-.052.092-.06.144l-1.01-1.01 1.211-1.211.967.967zm2.595-.3c-.008-.013-.007-.029-.017-.041l.68-.681a4.01 4.01 0 0 1-.566.647c-.03.028-.066.049-.097.075zm-6.606-4.369c.501-1.547 1.927-2.576 4.238-3.059a1.96 1.96 0 0 1 .402-.041c1.454 0 2.845 1.568 3.265 2.847.056.172.096.348.128.525l-.607-.607.188-.188a.25.25 0 1 0-.354-.354l-.188.188-.482-.483a.25.25 0 1 0-.354.354l.484.484-.794.794-.102-.102a.25.25 0 1 0-.354.354l.102.101-.102.102a.25.25 0 1 0 .354.354l.102-.102.794.794-1.246 1.246-.967-.969.171-.171a.25.25 0 1 0-.354-.354l-.171.171-.206-.206a.25.25 0 1 0-.354.354l.206.206-1.211 1.211-.797-.797a.25.25 0 1 0-.354.353l.797.797-.759.759c-1.349-1.027-2.004-2.932-1.475-4.561zM39.572 36.067a.25.25 0 1 0 .354-.354l-1.409-1.409c.027-.012.058-.011.081-.033l.824-.823.728.728a.25.25 0 1 0 .354-.353l-.728-.728.691-.691a.25.25 0 1 0-.354-.353l-.691.691-.29-.29a.25.25 0 1 0-.354.354l.29.29-.824.823c-.03.03-.033.07-.044.107-.095-.051-.209-.053-.289.027a.25.25 0 0 0 0 .354zM39.985 30.876l.895.895a.25.25 0 1 0 .354-.354l-.891-.891.747-.747.205.205a.25.25 0 1 0 .354-.354l-.217-.217c.066-.097.069-.226-.017-.312s-.215-.083-.312-.017l-.37-.37a.25.25 0 1 0-.354.353l.357.357-1.091 1.091a.25.25 0 0 0 0 .354.24.24 0 0 0 .34.007z"  data-original="#000000" class=""></path></g></svg>