<svg xmlns="http://www.w3.org/2000/svg" version="1.1" xmlns:xlink="http://www.w3.org/1999/xlink" xmlns:svgjs="http://svgjs.com/svgjs" x="0" y="0" viewBox="0 0 73 73" style="enable-background:new 0 0 512 512" xml:space="preserve" class=""><g><path d="M4.755 62.93c.004.117.04.223.091.32-.022-.03-.05-.06-.07-.091 1.058 1.503 2.718 2.322 3.89 2.322h58.975c1.147 0 1.568-1.51.585-2.102a2.012 2.012 0 0 0-1.697-.138c.039-5.214.338-10.241.373-15.447a.739.739 0 0 0-.369-.636c-2.295-6.841-4.611-14.703-6.884-21.455a.752.752 0 0 0-.95-.471l-.01.005c-.398-.27.05-.08-9.437-.14 1.268-3.13 2.196-6.1 2.804-8.973 1.04.14 1.995-.24 2.627-.937 1.693-1.869.204-4.808-2.419-4.6-2.286.181-3.486 2.705-2.115 4.455-4.037 1.156-7.843 2.81-11.101 4.838l-4.093-6.947c1.14-.38 1.967-1.406 1.967-2.625 0-1.538-1.309-2.79-2.917-2.79-1.608 0-2.916 1.252-2.916 2.79 0 1.134.713 2.107 1.73 2.543-1.885 2.027-3.897 4.575-5.88 7.453-2.525-1.647-5.52-2.696-8.769-3.09.096-1.668-1.29-2.94-2.9-2.94-1.61 0-2.918 1.251-2.918 2.79 0 2.008 2.169 3.377 4.111 2.538a296.76 296.76 0 0 0 2.75 5.495h-4.912a.751.751 0 0 0-.665.402C10.828 30.849 6.7 41.76 4.343 47.27c-.015.033-.013.067-.022.101-.215.41-.074-.393.434 15.558zm60.64-14.397c-.052 4.74-.31 9.38-.362 14.117-19.774-.057-38.969-.435-58.802-.491-.143-4.355-.333-9.178-.483-13.716 19.618-.57 40.285-.092 59.647.09zM26.7 21.956a.75.75 0 0 0 1.058-.19c2.045-3.022 4.127-5.697 6.067-7.797 4.58 7.608 4.235 7.559 4.8 7.692.2.046.41.01.582-.103 3.246-2.12 7.11-3.853 11.236-5.046-.908 3.969-2.443 8.142-4.673 12.715a4.667 4.667 0 0 1-3.03 2.484c-6.025 1.547-11.531 1.572-16.831.077-1.231-.347-2.28-1.242-2.876-2.454-1.719-3.502-3.655-7.122-5.372-10.675 3.406.36 6.51 1.49 9.039 3.297zm-11.942 4.641h5.221c1.863 3.654 1.825 3.769 2.412 4.521 1.041 1.688 3.567 2.937 5.505 3.217 6.1.88 12.33.848 18.42-.096.268-.041.548-.098.825-.172 1.339-.36 1.12-2.315-.265-2.37a11.94 11.94 0 0 0-1.125.018 6.207 6.207 0 0 0 1.367-1.83 79.302 79.302 0 0 0 1.509-3.288c4.495-.006 9.475.013 9.733-.016 2.157 6.443 4.335 13.785 6.55 20.445-19.388-.188-39.465-.636-58.798-.09 2.403-5.735 6.049-15.259 8.646-20.339z" data-original="#000000" class=""></path><path d="M57.388 59.617h.006a.75.75 0 0 0 .75-.744l.051-6.165a.75.75 0 0 0-.744-.756h-.006a.75.75 0 0 0-.75.745l-.05 6.165a.75.75 0 0 0 .743.755zM45.37 52.59c-.383-.044-.752.33-.756.743l-.043 5.222a.75.75 0 0 0 .744.756h.006a.75.75 0 0 0 .75-.744l.043-5.222a.75.75 0 0 0-.744-.756zM33.498 53.112h-.006a.75.75 0 0 0-.75.744l-.033 3.977a.75.75 0 0 0 .744.756h.006a.75.75 0 0 0 .75-.744l.033-3.978a.75.75 0 0 0-.744-.755zM15.147 53.458c-1.501.898-1.955 2.689-1.054 4.195 1.532 2.552 5.025 1.577 5.625-.818.617-2.454-2.038-4.893-4.57-3.377zM57.768 17.53v4.759a.75.75 0 0 0 1.5 0V17.53a.75.75 0 0 0-1.5 0zM65.016 17.557a.75.75 0 0 0-1.05.147l-3.36 4.448a.75.75 0 1 0 1.197.903l3.36-4.447a.751.751 0 0 0-.147-1.05zM63.247 26.267a10.663 10.663 0 0 0 3.838-.548.75.75 0 1 0-.479-1.422 9.1 9.1 0 0 1-3.299.471c-.402-.028-.763.305-.779.72a.75.75 0 0 0 .719.78zM35.122 25.275c.028-.62.031-1.276-.259-1.891-.765-1.622-2.94-1.515-3.192.13-.036.226-.018.446.046.646-2.078 3.74 3.189 5.799 3.405 1.115z" data-original="#000000" class=""></path></g></svg>