<svg xmlns="http://www.w3.org/2000/svg" version="1.1" xmlns:xlink="http://www.w3.org/1999/xlink" xmlns:svgjs="http://svgjs.com/svgjs" x="0" y="0" viewBox="0 0 73 73" style="enable-background:new 0 0 512 512" xml:space="preserve" class=""><g><path d="M12.686 50.012c2.046 1.676 4.576 2.961 6.533 4.578a.749.749 0 0 0 .954 0c6.699-5.506 7.724-6.214 8.744-7.68 1.337-1.921 1.703-4.423.954-6.53-1.433-4.027-6.426-5.664-9.47-2.806-.211.198-.603.566-.706.598-.478-.225-.883-1.053-2.828-1.568-4.327-1.15-8.03 2.253-8.165 6.052-.123 3.46 2.443 6.095 3.984 7.356zm1.034-11.92c1.605-.507 3.45-.069 4.493.837.24.207.51.442.838.598 1.333.635 2.368-1.04 2.996-1.376 2.584-1.373 5.502.179 6.41 2.732.59 1.659.295 3.64-.771 5.17-.855 1.229-1.606 1.74-7.996 6.994-1.933-1.494-4.222-2.694-6.054-4.195-2.256-1.848-3.508-4.088-3.435-6.143.073-2.059 1.553-4.001 3.519-4.617zM10.968 25.656c1.115-.347 1.76-1.654 1.352-2.74-.27-.717-.988-1.307-2.025-1.324-.819-.518-2.521.987-2.013 2.636.34 1.102 1.597 1.77 2.686 1.428zM15.22 25.32c.324.169.68.257 1.028.257 2.127 0 2.986-3.139.744-4.007a2.268 2.268 0 0 0-.826-.146.746.746 0 0 0-.66-.07c-1.666.612-2.046 3.035-.285 3.965zM21.68 25.235c.323.17.678.258 1.027.258 2.127 0 2.985-3.14.742-4.007a2.101 2.101 0 0 0-.824-.146.75.75 0 0 0-.66-.07c-1.659.61-2.054 3.032-.286 3.965zM31.602 23.213h19.896a.75.75 0 0 0 0-1.5H31.602a.75.75 0 0 0 0 1.5zM37.384 41c1.343-.3 2.26-1.74 1.964-3.083-.297-1.345-1.735-2.262-3.078-1.975a.282.282 0 0 0-.035.009c-1.34.31-2.247 1.758-1.942 3.098.31 1.356 1.773 2.255 3.091 1.952zm-.811-3.588a.091.091 0 0 0 .016-.004c.532-.111 1.176.296 1.295.831.118.536-.291 1.179-.828 1.299-.536.115-1.178-.287-1.3-.821-.122-.536.283-1.181.817-1.305zM42.757 39.065h11.364a.75.75 0 0 0 0-1.5H42.757a.75.75 0 0 0 0 1.5zM36.462 43.744c-1.388.28-2.365 1.741-2.092 3.13.277 1.402 1.754 2.37 3.123 2.102 1.39-.27 2.378-1.725 2.113-3.115-.238-1.256-1.503-2.37-3.144-2.117zm.747 3.76c-.575.101-1.254-.345-1.367-.92s.34-1.254.916-1.37h.003l.012-.002c.575-.109 1.25.352 1.36.928s-.349 1.252-.924 1.364zM54.288 45.449H42.925a.75.75 0 0 0 0 1.5h11.363a.75.75 0 0 0 0-1.5zM36.963 51.965c-1.388.278-2.363 1.74-2.09 3.128.277 1.403 1.753 2.371 3.124 2.103 1.39-.27 2.377-1.726 2.113-3.116-.297-1.566-2.049-2.453-3.147-2.115zm.75 3.758c-.576.106-1.255-.344-1.368-.92-.113-.576.34-1.253.914-1.369l.026-.006c.572-.097 1.242.359 1.351.931.11.577-.348 1.253-.924 1.364zM43.428 53.669a.75.75 0 0 0 0 1.5h11.364a.75.75 0 0 0 0-1.5z" data-original="#000000" class=""></path><path d="M57.435 17.053c.025.015.054.029.08.043-1.136-.32 1.83-.117-48.897.194-2.407.017-4.375 2.203-4.386 4.872-.082 38.002-.29 35.95.015 37.258.308 2.297 1.6 4.062 3.996 4.686 2.836.738 7.64.668 10.568.755 12.707.377 23.527.126 36.713-.395 1.757-.07 3.608-.458 4.92-1.629 1.838-1.64 2.005-4.41 2.04-6.875l.405-28.852c.109-7.725-1.423-8.422-5.454-10.057zm2.185 40.95c.016 1.846-1.266 3.423-2.906 3.427l-48.209.16c-1.653 0-2.922-1.58-2.915-3.409l.117-29.558h53.67zM8.63 18.79l47.758-.358c1.584-.04 2.918 1.495 2.934 3.362l.044 5.329H5.713l.02-4.955c.006-1.85 1.306-3.366 2.896-3.378zM58.113 8.646a17.872 17.872 0 0 1-1.346 5.484.75.75 0 1 0 1.382.582 19.359 19.359 0 0 0 1.459-5.943.75.75 0 1 0-1.495-.123zM61.637 16.217l3.896-4.236a.75.75 0 0 0-1.105-1.015L60.533 15.2a.75.75 0 1 0 1.104 1.016zM67.935 17.114 63.49 18.54c-.811.259-.624 1.464.228 1.464.22 0 .073 0 4.675-1.462a.75.75 0 1 0-.458-1.428z" data-original="#000000" class=""></path></g></svg>